<svg xmlns="http://www.w3.org/2000/svg" xmlns:xlink="http://www.w3.org/1999/xlink" width="863" height="1056" viewBox="0 0 863 1056"><defs><clipPath id="a"><rect width="863" height="1056" transform="translate(0 157)" fill="#fcfcfc" opacity="0.999"/></clipPath></defs><g transform="translate(0 -157)" clip-path="url(#a)"><path d="M791.772,750.237C841.061,718.227,891.8,652.846,891.8,552.655c0-145.492-87.143-242.487-237.749-269.344V228H502.287v47.756H366.571V228H214.835v47.756H90.449L277.332,527.492H163.505v519.234H277.332L90.449,1298.486H214.842V1346.2H366.579v-47.715H502.287V1346.2H654.049v-48.23c181.355-7.732,322.265-113.824,322.265-297.267.008-141.935-78.892-214.307-184.542-250.468M377.609,469.162H535.393c88.752,0,140.862,41.733,140.862,111.3,0,68.182-53.508,112.718-135.237,112.718H377.609Zm228.222,635.892H377.609V861.548H600.2c100,0,157.76,43.148,157.76,122.432C757.959,1063.305,698.8,1105.055,605.832,1105.055Z" transform="matrix(0.978, -0.208, 0.208, 0.978, -301.818, -23.113)" fill="#fff" opacity="0.154"/></g></svg>