<svg xmlns="http://www.w3.org/2000/svg" width="36.104" height="36.104" viewBox="0 0 36.104 36.104"><g transform="translate(-392 -200)"><rect width="36.104" height="36.104" rx="18" transform="translate(392 200)" fill="#ea5607"/><path d="M105.758,239.4a5.007,5.007,0,0,0,2.183-4.313c0-3.176-1.9-5.293-5.19-5.879V228H99.439v1.042H96.476V228H93.164v1.042H90.449l4.079,5.5H92.044v11.334h2.485l-4.079,5.5h2.715v1.042h3.312v-1.042h2.962v1.042h3.313v-1.053c3.959-.169,7.035-2.485,7.035-6.489a5.359,5.359,0,0,0-4.028-5.467m-9.041-6.136h3.444c1.937,0,3.075.911,3.075,2.43,0,1.488-1.168,2.46-2.952,2.46H96.717Zm4.982,13.881H96.717V241.83h4.859c2.183,0,3.444.942,3.444,2.673S103.729,247.145,101.7,247.145Z" transform="translate(310.412 -22.152)" fill="#fff"/></g></svg>