<svg width="251" height="43" viewBox="0 0 251 43" fill="none" xmlns="http://www.w3.org/2000/svg">
<path d="M24.7154 6.57299L15.9333 21.517C16.4281 22.1852 16.8885 22.8783 17.3126 23.5935C17.5882 24.0407 17.8508 24.4879 18.1136 24.943C18.4781 25.5692 18.8396 26.1971 19.1981 26.8267C19.5636 27.467 19.9283 28.1081 20.2919 28.75C20.5694 29.2394 20.8461 29.7292 21.1221 30.2194C21.4855 30.8639 22.0338 31.6969 22.7657 31.9524C23.0876 32.0824 23.4447 32.0963 23.7757 31.9917C24.5489 31.4179 25.2607 30.7659 25.8999 30.0459C26.2728 29.6436 26.6358 29.2494 26.9688 28.8131C27.9322 27.5537 28.8371 26.2506 29.6805 24.9078C30.5331 23.5515 31.3217 22.159 32.1285 20.7762L34.6943 16.3784L37.2473 12.0023L40.4154 6.57251C40.4154 6.57251 26.469 6.61663 24.7154 6.57251" fill="#E8E8E8"/>
<path fill-rule="evenodd" clip-rule="evenodd" d="M0.917969 19.0297H12.1539C14.9323 19.0297 16.279 21.3029 17.5557 23.3637C17.8313 23.8109 18.094 24.2609 18.3567 24.7133C18.7212 25.3395 19.0827 25.9673 19.4412 26.5969C19.8072 27.2373 20.1719 27.8784 20.5353 28.5203C20.8125 29.0095 21.0892 29.4995 21.3652 29.9896C21.7287 30.6342 22.2772 31.4679 23.0084 31.7227C23.2014 31.8121 23.414 31.8507 23.6261 31.8348C23.8382 31.819 24.0427 31.7492 24.2202 31.632C23.5854 32.253 22.8478 32.7592 22.0401 33.1282C21.0967 33.5965 20.0891 33.9223 19.0501 34.0951C17.1356 34.4403 15.1695 34.3739 13.2826 33.9003C12.82 33.7792 12.3653 33.6298 11.9209 33.4531C9.23276 32.3768 7.82014 30.5973 6.38277 28.4967C5.96755 27.8905 5.58578 27.2621 5.23917 26.6142L0.917969 19.0297ZM33.8814 21.7111L39.3895 12.3059C39.695 11.827 40.1053 11.4238 40.5896 11.1268C41.2775 10.688 42.0742 10.4498 42.8901 10.4391C43.6066 10.457 47.0999 10.4391 47.0999 10.4391L45.8068 12.6224C44.9846 14.0107 44.3714 15.3987 43.5491 16.7866C42.8223 18.0115 42.1477 19.4652 41.0653 20.4245C39.0927 22.1734 36.3239 21.7106 33.8843 21.7106" fill="white"/>
<path d="M155.977 10.3697C151.045 12.0813 148.299 16.7266 148.811 22.4915C148.929 24.0301 149.378 25.525 150.129 26.8733C150.879 28.2215 151.913 29.391 153.159 30.3014C154.405 31.2116 155.833 31.841 157.346 32.1461C158.858 32.4512 160.419 32.4248 161.921 32.0688C163.266 31.7647 164.538 31.1977 165.663 30.4003C166.789 29.603 167.745 28.591 168.478 27.4227C167.514 27.0673 165.52 26.2275 164.71 25.9239L163.624 26.8659C162.835 27.509 161.909 27.9622 160.917 28.1906C159.925 28.419 158.894 28.4165 157.903 28.1833C156.912 27.9501 155.988 27.4923 155.202 26.8454C154.416 26.1985 153.79 25.3797 153.37 24.4522C153.166 24.0033 153.014 23.5327 152.916 23.0494H170.195C170.195 22.0242 170.211 21.1419 170.195 20.2601C170.154 18.5735 169.716 16.9202 168.916 15.4345C168.117 13.9488 166.978 12.6725 165.593 11.709C164.209 10.7457 162.616 10.1224 160.945 9.8897C159.274 9.65701 157.572 9.82147 155.977 10.3697ZM153.122 18.9239C153.619 15.9322 156.354 13.8222 159.55 13.8596C162.691 13.8972 165.376 16.0401 165.802 18.9238L153.122 18.9239ZM219.72 9.94706C214.608 10.8417 211.038 15.1356 210.888 20.6816C210.771 25.0694 212.384 28.6494 216.266 30.8897C220.039 33.0673 224.694 32.4132 228.39 30.126L228.428 31.7563H232.22C232.217 31.7563 232.331 25.9977 232.335 25.4704C232.386 23.298 232.32 21.1245 232.139 18.9592C231.527 12.9002 225.707 8.8999 219.719 9.94658M228.345 21.3168C228.347 21.9422 228.283 22.566 228.155 23.1781C228.049 23.6391 227.894 24.0873 227.692 24.5148C227.499 24.9194 227.266 25.3034 226.996 25.6609C226.489 26.3318 225.864 26.9042 225.151 27.3496C224.825 27.5535 224.481 27.7276 224.123 27.8699C221.535 28.9035 218.578 28.2396 216.679 26.1987C214.667 24.062 214.214 20.0523 215.677 17.3233C216.189 16.4168 216.901 15.639 217.759 15.0492C218.617 14.4593 219.598 14.0729 220.627 13.9194C221.657 13.7659 222.708 13.8493 223.7 14.1633C224.693 14.4774 225.601 15.0137 226.355 15.7315C227.039 16.4484 227.569 17.2978 227.913 18.2274C228.256 19.157 228.406 20.1471 228.352 21.1368V21.318M94.3581 23.9071C93.765 23.4224 93.2116 22.8911 92.7033 22.3182C92.0017 21.4919 91.9555 20.293 92.5917 19.4154C92.9246 18.9671 93.2989 18.551 93.7096 18.1725L101.789 10.2865H101.537C100.512 10.2865 99.4864 10.2552 98.4623 10.2746C97.8857 10.2541 97.309 10.3174 96.7506 10.4626C96.1838 10.6964 95.6745 11.0502 95.2574 11.4997C94.2238 12.4294 93.2327 13.4039 92.2255 14.3623C91.232 15.3072 90.2489 16.2632 89.0521 17.4166V0.97699H85.1802V31.7567H89.0658V24.337C91.8677 26.6915 94.5241 28.9334 97.1957 31.158C97.5007 31.4845 97.8939 31.7156 98.3276 31.8233C100.026 31.8959 102.257 31.8794 103.958 31.8794L102.668 30.8399C99.899 28.5287 97.1195 26.2283 94.3581 23.9071ZM183.741 27.8666C182.592 27.8747 181.455 27.624 180.416 27.1331C179.597 26.7356 178.872 26.1665 178.292 25.4643C177.719 24.7663 177.336 23.9319 177.18 23.0422C176.709 20.2545 176.845 17.3646 176.705 14.3007H184.953V10.2966H176.779V2.28541H172.869V3.03832C172.869 9.18853 172.744 15.3457 172.922 21.4929C172.974 26.2256 176.221 30.3231 180.816 31.4543C182.492 31.9188 184.248 32.0127 185.964 31.7294V27.8638C185.221 27.8638 184.478 27.8746 183.736 27.8638M245.871 10.3564C240.754 10.5979 236.434 14.1426 235.881 19.2025C235.433 23.2911 235.749 27.6163 235.731 31.7518H239.539V30.3138C239.539 27.3601 239.518 24.4064 239.545 21.4528C239.547 20.6081 239.673 19.7684 239.921 18.9608C240.147 18.2287 240.497 17.541 240.956 16.9274C241.405 16.3364 241.956 15.831 242.583 15.4352C243.244 15.023 243.97 14.7243 244.73 14.5518C245.926 14.3418 247.142 14.2669 248.355 14.3283H248.373C249.221 14.3283 250.069 14.3215 250.918 14.3215V10.3447C249.129 10.3447 247.498 10.2798 245.872 10.3569M76.9599 31.7579H80.8399V10.3901H76.9611L76.9599 31.7579ZM68.4742 19.7789C68.1031 19.7059 67.7279 19.6561 67.3507 19.6296C66.5606 19.5736 65.7732 19.4556 64.985 19.3757C64.5707 19.3333 64.1564 19.2891 63.7433 19.2382C61.8426 19.0068 58.4327 19.1018 58.5412 16.3207C58.5971 14.9086 59.8436 14.0845 61.0813 13.7489C63.6181 13.0642 66.899 13.5394 68.4574 15.8607C68.5815 16.1087 68.7216 16.3483 68.8768 16.5781H72.8456C72.6962 16.0205 72.4962 15.4778 72.248 14.9567C71.717 13.844 70.9172 12.8812 69.9209 12.155C68.6987 11.3234 67.3069 10.7742 65.8463 10.547C61.5262 9.73639 54.7293 10.9563 54.7779 16.5919C54.7913 19.1768 56.6023 21.4037 59.1297 21.943C60.0547 22.1513 60.9926 22.2972 61.9372 22.3796C63.2464 22.4675 64.5572 22.5356 65.8626 22.6715C67.3233 22.8236 68.9036 23.2486 69.2759 24.8985C69.7382 26.9447 67.8644 28.1256 66.1393 28.4766C64.4346 28.8465 62.6603 28.7314 61.0176 28.1445C59.8413 27.6552 58.8787 26.7616 58.3035 25.6248L58.1073 25.2261H54.0391C54.3695 26.1745 54.8036 27.0834 55.3335 27.9365C56.9497 30.4565 59.9174 31.6668 62.9708 31.8766L62.2557 33.1936L62.2529 33.1993L62.263 33.2049L63.0899 34.5551C63.2945 34.4311 63.5293 34.3655 63.7686 34.3655C64.4995 34.3646 65.0926 34.9568 65.0934 35.6877C65.0941 36.4189 64.5016 37.0121 63.7707 37.0123C63.0397 37.0125 62.4471 36.4201 62.4471 35.6889H60.5045C60.5061 37.3691 61.7829 38.7736 63.4549 38.9345C65.1272 39.0956 66.6485 37.9609 66.9707 36.3119C67.2932 34.663 66.3112 33.0386 64.7015 32.558L65.0761 31.8675C66.4913 31.7663 67.8814 31.4399 69.1937 30.9004C69.3091 30.8512 69.424 30.8004 69.5381 30.7481C70.7022 30.2436 71.6795 29.3876 72.333 28.3C73.4563 26.3713 73.4212 23.9798 72.2419 22.0852C71.7993 21.4704 71.2388 20.9498 70.5932 20.5537C69.9475 20.1576 69.2295 19.8938 68.4809 19.7777M137.975 26.5745C137.926 26.7073 137.839 26.8226 137.724 26.9052C137.609 26.9879 137.472 27.0343 137.331 27.0384C137.189 27.0424 137.05 27.0039 136.931 26.928C136.811 26.852 136.718 26.7419 136.662 26.6121L129.678 10.4843H125.473L134.949 32.1645C135.069 32.4384 135.129 32.7348 135.124 33.0338C135.12 33.3327 135.051 33.6273 134.924 33.8975C133.75 36.8865 131.849 38.7432 128.819 38.517V42.1822C133.432 42.4993 136.958 39.601 138.858 34.5294L148.082 10.4828H143.876L137.975 26.5745ZM205.805 10.4454C205.611 10.5504 205.455 10.7132 205.358 10.9111C205.251 11.1399 205.166 11.3779 205.102 11.6221C205.012 11.9197 204.928 12.2204 204.842 12.5196C204.665 13.1338 204.49 13.7489 204.315 14.3645C203.966 15.5941 203.619 16.8241 203.273 18.0545C202.926 19.2844 202.58 20.5147 202.234 21.7447C201.951 22.753 201.666 23.7609 201.38 24.7686C201.201 25.5258 200.943 26.2624 200.612 26.9666C200.419 27.3822 200.111 27.734 199.725 27.9805C199.338 28.227 198.89 28.358 198.432 28.3579C197.973 28.3579 197.525 28.227 197.138 27.9805C196.752 27.734 196.444 27.3822 196.251 26.9666C195.92 26.2625 195.662 25.5259 195.483 24.7686C195.197 23.7623 194.912 22.7542 194.629 21.7447C194.282 20.5147 193.937 19.2844 193.591 18.0545C193.245 16.8239 192.898 15.5939 192.548 14.3645C192.373 13.7498 192.197 13.135 192.022 12.5195C191.936 12.2197 191.854 11.9197 191.761 11.6222C191.69 11.3447 191.583 11.0779 191.442 10.8289C191.372 10.698 191.274 10.5842 191.155 10.4954C191.036 10.4066 190.899 10.3451 190.754 10.3151C189.615 10.2765 188.474 10.2994 187.332 10.2994C187.512 11.0105 187.612 11.4484 187.734 11.8804C189.058 16.6187 190.372 21.3593 191.719 26.0909C191.961 27.0436 192.302 27.9684 192.736 28.85C193.82 31.002 196.023 32.3597 198.432 32.3597C200.841 32.3597 203.044 31.002 204.127 28.85C204.562 27.9683 204.902 27.0436 205.144 26.0909C206.491 21.3598 207.806 16.6187 209.129 11.8804C209.25 11.4484 209.353 11.011 209.531 10.2994L206.615 10.2931C206.337 10.2852 206.06 10.3368 205.804 10.4447M111.911 10.0031C106.798 10.8975 103.228 15.1914 103.079 20.7377C102.962 25.1255 104.575 28.7052 108.457 30.9455C112.23 33.1234 116.884 32.469 120.581 30.1818L120.618 31.8121H124.409C124.406 31.8121 124.52 26.0535 124.524 25.5262C124.575 23.3539 124.51 21.1805 124.328 19.0152C123.716 12.9563 117.896 8.95592 111.908 10.0024M120.534 21.3727C120.536 21.998 120.472 22.6218 120.344 23.2339C120.136 24.1336 119.74 24.9792 119.182 25.7153C118.676 26.3857 118.05 26.9577 117.338 27.403C117.012 27.6071 116.668 27.7814 116.31 27.9236C113.722 28.9575 110.765 28.294 108.866 26.2536C106.853 24.1169 106.401 20.1069 107.864 17.3775C108.376 16.4711 109.088 15.6935 109.946 15.1037C110.804 14.5139 111.784 14.1276 112.814 13.974C113.844 13.8205 114.895 13.904 115.887 14.2179C116.88 14.5319 117.787 15.0681 118.541 15.7857C119.226 16.5025 119.756 17.3519 120.1 18.2816C120.443 19.2112 120.593 20.2014 120.539 21.191V21.3721M78.9076 1.27447C77.5524 1.27262 76.4525 2.37018 76.4513 3.72559C76.4501 5.081 77.548 6.18047 78.9031 6.18113C80.2583 6.18161 81.3572 5.08309 81.3572 3.72768C81.3582 2.37371 80.2614 1.27537 78.9076 1.27447Z" fill="white"/>
</svg>
