<svg width="4112" height="679" viewBox="0 0 4112 679" fill="none" xmlns="http://www.w3.org/2000/svg">
<path d="M392.246 92.977L247.844 338.672C255.981 349.656 263.55 361.05 270.52 372.809C275.05 380.164 279.371 387.516 283.691 395C289.683 405.294 295.627 415.615 301.523 425.965C307.535 436.496 313.531 447.035 319.512 457.585C324.07 465.633 328.622 473.684 333.16 481.742C339.137 492.344 348.152 506.039 360.184 510.238C365.477 512.376 371.35 512.604 376.793 510.883C389.506 501.451 401.211 490.731 411.723 478.895C417.852 472.277 423.816 465.797 429.297 458.625C445.137 437.919 460.015 416.494 473.883 394.418C487.903 372.121 500.871 349.223 514.133 326.492L556.324 254.188L598.301 182.242L650.391 92.969C650.391 92.969 421.078 93.695 392.246 92.969" fill="#00C8A6"/>
<path fill-rule="evenodd" clip-rule="evenodd" d="M0.949951 297.773H185.7C231.383 297.773 253.527 335.148 274.52 369.031C279.05 376.387 283.371 383.785 287.691 391.223C293.683 401.517 299.627 411.838 305.523 422.188C311.539 432.717 317.535 443.257 323.512 453.808C328.07 461.855 332.619 469.908 337.16 477.965C343.133 488.562 352.152 502.27 364.172 506.461C367.346 507.931 370.842 508.566 374.33 508.305C377.818 508.045 381.182 506.898 384.102 504.973C373.663 515.181 361.535 523.503 348.254 529.57C332.741 537.267 316.173 542.622 299.09 545.46C267.611 551.138 235.284 550.049 204.258 542.266C196.652 540.271 189.175 537.814 181.868 534.91C137.664 517.215 114.438 487.957 90.808 453.422C83.9799 443.455 77.7012 433.123 71.9999 422.472L0.949951 297.773Z" fill="#00E7B1"/>
<path fill-rule="evenodd" clip-rule="evenodd" d="M542.96 341.86L633.523 187.23C638.545 179.355 645.294 172.727 653.258 167.848C664.568 160.632 677.667 156.716 691.082 156.539C702.863 156.836 760.305 156.539 760.305 156.539L739.043 192.434C725.523 215.258 715.438 238.082 701.918 260.898C689.968 281.035 678.875 304.938 661.078 320.711C628.645 349.461 583.118 341.851 543.004 341.851" fill="#5750FF"/>
<path d="M2550.53 155.398C2469.44 183.535 2424.28 259.914 2432.7 354.691C2434.63 379.988 2442.02 404.565 2454.36 426.731C2466.71 448.897 2483.7 468.124 2504.19 483.09C2524.68 498.055 2548.16 508.402 2573.03 513.419C2597.9 518.436 2623.56 518.004 2648.25 512.151C2670.37 507.152 2691.28 497.83 2709.79 484.721C2728.29 471.612 2744.03 454.975 2756.08 435.766C2740.22 429.918 2707.44 416.113 2694.12 411.121L2676.26 426.609C2663.28 437.183 2648.06 444.634 2631.75 448.39C2615.44 452.145 2598.49 452.104 2582.2 448.269C2565.9 444.435 2550.71 436.911 2537.79 426.275C2524.87 415.64 2514.56 402.178 2507.67 386.929C2504.31 379.548 2501.81 371.812 2500.2 363.867H2784.3C2784.3 347.007 2784.57 332.504 2784.3 318.007C2783.63 290.276 2776.43 263.095 2763.28 238.669C2750.14 214.242 2731.42 193.258 2708.65 177.418C2685.88 161.581 2659.69 151.333 2632.22 147.508C2604.75 143.682 2576.76 146.385 2550.53 155.398ZM2503.58 296.039C2511.75 246.852 2556.73 212.16 2609.28 212.777C2660.93 213.391 2705.07 248.625 2712.07 296.039H2503.58ZM3598.63 148.449C3514.57 163.16 3455.87 233.754 3453.41 324.937C3451.48 397.078 3478 455.934 3541.84 492.766C3603.88 528.566 3680.41 517.813 3741.2 480.207L3741.81 507.012H3804.16C3804.11 507.012 3806 412.336 3806.05 403.668C3806.89 367.953 3805.81 332.218 3802.82 296.618C3792.77 197.004 3697.07 131.234 3598.61 148.441M3740.45 335.379C3740.48 345.661 3739.43 355.917 3737.32 365.98C3735.59 373.56 3733.03 380.929 3729.7 387.957C3726.54 394.609 3722.7 400.922 3718.26 406.801C3709.93 417.831 3699.65 427.24 3687.93 434.562C3682.57 437.914 3676.91 440.777 3671.03 443.117C3628.47 460.109 3579.85 449.195 3548.63 415.645C3515.54 380.512 3508.09 314.585 3532.16 269.723C3540.58 254.819 3552.28 242.03 3566.38 232.332C3580.49 222.634 3596.62 216.282 3613.55 213.758C3630.48 211.235 3647.76 212.606 3664.08 217.769C3680.4 222.932 3695.32 231.75 3707.72 243.551C3718.97 255.337 3727.69 269.301 3733.34 284.585C3738.99 299.869 3741.45 316.147 3740.57 332.418V335.398M1537.35 377.965C1527.6 369.997 1518.5 361.263 1510.14 351.844C1498.6 338.258 1497.85 318.551 1508.31 304.117C1513.78 296.747 1519.93 289.906 1526.69 283.684L1659.52 154.031H1655.39C1638.54 154.031 1621.67 153.516 1604.83 153.836C1595.35 153.496 1585.87 154.539 1576.69 156.926C1567.37 160.77 1558.99 166.587 1552.14 173.976C1535.14 189.262 1518.85 205.286 1502.29 221.039C1485.95 236.574 1469.78 252.293 1450.1 271.258V0.977051H1386.44V507.023H1450.33V385.035C1496.4 423.742 1540.08 460.602 1584 497.175C1589.02 502.543 1595.49 506.344 1602.62 508.117C1630.54 509.313 1667.23 509.035 1695.19 509.035L1673.99 491.945C1628.46 453.945 1582.75 416.133 1537.35 377.965ZM3007.03 443.062C2988.14 443.195 2969.46 439.074 2952.38 431.004C2938.9 424.47 2926.98 415.112 2917.45 403.566C2908.02 392.093 2901.72 378.375 2899.17 363.746C2891.42 317.914 2893.65 270.402 2891.34 220.027H3026.96V154.195H2892.57V22.485H2828.28V34.8671C2828.28 135.977 2826.22 237.211 2829.14 338.273C2830 416.082 2883.39 483.449 2958.95 502.051C2986.5 509.685 3015.38 511.227 3043.59 506.571V443.02C3031.38 443.02 3019.16 443.191 3006.95 443.02M4028.61 155.18C3944.48 159.152 3873.45 217.43 3864.35 300.617C3857 367.836 3862.19 438.945 3861.89 506.937H3924.51V483.297C3924.51 434.734 3924.16 386.176 3924.6 337.613C3924.63 323.727 3926.71 309.922 3930.78 296.645C3934.5 284.609 3940.26 273.301 3947.81 263.215C3955.18 253.497 3964.24 245.187 3974.56 238.68C3985.43 231.901 3997.36 226.992 4009.85 224.156C4029.52 220.704 4049.52 219.471 4069.46 220.48H4069.75C4083.71 220.48 4097.64 220.371 4111.6 220.371V154.988C4082.19 154.988 4055.37 153.922 4028.63 155.188M1251.28 507.038H1315.08V155.73H1251.3L1251.28 507.038ZM1111.75 310.094C1105.65 308.894 1099.48 308.074 1093.28 307.637C1080.29 306.719 1067.34 304.781 1054.38 303.465C1047.57 302.765 1040.76 302.039 1033.96 301.203C1002.71 297.398 946.645 298.961 948.425 253.238C949.348 230.02 969.844 216.473 990.191 210.957C1031.91 199.695 1085.85 207.507 1111.48 245.676C1113.52 249.753 1115.82 253.692 1118.37 257.469H1183.63C1181.17 248.303 1177.88 239.381 1173.81 230.813C1165.07 212.52 1151.92 196.69 1135.54 184.75C1115.44 171.081 1092.56 162.051 1068.54 158.312C997.512 144.984 885.75 165.043 886.551 257.699C886.766 300.195 916.547 336.809 958.105 345.676C973.314 349.098 988.735 351.497 1004.27 352.856C1025.79 354.296 1047.35 355.418 1068.81 357.652C1092.83 360.152 1118.81 367.137 1124.93 394.262C1132.53 427.906 1101.72 447.32 1073.36 453.094C1045.33 459.173 1016.16 457.281 989.145 447.633C969.804 439.589 953.976 424.894 944.52 406.203L941.293 399.648H874.398C879.832 415.241 886.972 430.186 895.688 444.211C922.258 485.641 971.055 505.543 1021.26 508.988L1009.5 530.645L1009.46 530.738L1009.62 530.828L1023.22 553.028C1026.58 550.988 1030.44 549.91 1034.38 549.91C1046.4 549.895 1056.15 559.629 1056.16 571.652C1056.17 583.672 1046.43 593.422 1034.41 593.426C1022.39 593.434 1012.65 583.687 1012.65 571.668H980.707C980.734 599.293 1001.73 622.383 1029.22 625.031C1056.72 627.68 1081.73 609.02 1087.03 581.911C1092.33 554.801 1076.19 528.098 1049.72 520.195L1055.88 508.844C1079.15 507.181 1102 501.812 1123.58 492.941C1125.48 492.13 1127.37 491.297 1129.24 490.441C1148.39 482.144 1164.46 468.069 1175.2 450.187C1193.67 418.48 1193.09 379.16 1173.7 348.007C1166.42 337.901 1157.21 329.343 1146.59 322.831C1135.98 316.319 1124.17 311.983 1111.86 310.074M2254.52 421.82C2253.72 424.004 2252.28 425.899 2250.4 427.258C2248.51 428.617 2246.26 429.379 2243.93 429.445C2241.61 429.511 2239.32 428.879 2237.36 427.629C2235.4 426.38 2233.85 424.571 2232.93 422.437L2118.11 157.285H2048.96L2204.78 513.723C2206.75 518.228 2207.73 523.101 2207.65 528.017C2207.58 532.932 2206.46 537.775 2204.35 542.219C2185.05 591.359 2153.8 621.887 2103.98 618.164V678.426C2179.82 683.636 2237.81 635.984 2269.04 552.606L2420.7 157.258H2351.56L2254.52 421.82ZM3369.83 156.64C3366.64 158.367 3364.07 161.043 3362.47 164.297C3360.72 168.06 3359.32 171.975 3358.27 175.992C3356.78 180.879 3355.41 185.824 3353.99 190.742C3351.09 200.85 3348.2 210.962 3345.33 221.078C3339.6 241.295 3333.88 261.518 3328.19 281.746C3322.5 301.965 3316.81 322.188 3311.12 342.41C3306.46 358.989 3301.77 375.564 3297.07 392.133C3294.12 404.581 3289.88 416.689 3284.44 428.266C3281.26 435.1 3276.2 440.884 3269.85 444.937C3263.5 448.991 3256.12 451.145 3248.59 451.145C3241.06 451.145 3233.68 448.991 3227.33 444.937C3220.98 440.883 3215.92 435.099 3212.74 428.265C3207.29 416.69 3203.06 404.581 3200.1 392.133C3195.4 375.564 3190.72 358.989 3186.06 342.41C3180.37 322.188 3174.68 301.965 3169 281.746C3163.32 261.515 3157.6 241.292 3151.86 221.078C3148.97 210.973 3146.09 200.859 3143.2 190.742C3141.78 185.816 3140.44 180.879 3138.91 175.992C3137.75 171.429 3135.99 167.041 3133.67 162.945C3132.52 160.794 3130.91 158.922 3128.95 157.463C3126.99 156.003 3124.74 154.992 3122.35 154.5C3103.62 153.863 3084.86 154.242 3066.09 154.242C3069.05 165.934 3070.69 173.132 3072.7 180.238C3094.46 258.141 3116.07 336.078 3138.23 413.871C3142.2 429.535 3147.8 444.739 3154.95 459.234C3172.76 494.614 3208.98 516.934 3248.59 516.934C3288.2 516.934 3324.43 494.614 3342.24 459.234C3349.38 444.738 3354.99 429.534 3358.96 413.871C3381.1 336.086 3402.72 258.141 3424.49 180.238C3426.48 173.133 3428.16 165.945 3431.1 154.242L3383.15 154.141C3378.57 154.009 3374.03 154.859 3369.81 156.633M1825.97 149.371C1741.89 164.078 1683.2 234.671 1680.74 325.855C1678.82 397.996 1705.34 456.852 1769.17 493.684C1831.21 529.488 1907.74 518.734 1968.53 481.129L1969.13 507.934H2031.46C2031.41 507.934 2033.3 413.254 2033.35 404.586C2034.19 368.871 2033.12 333.136 2030.13 297.536C2020.07 197.922 1924.37 132.152 1825.92 149.359M1967.75 336.297C1967.78 346.578 1966.73 356.835 1964.63 366.898C1961.2 381.689 1954.7 395.59 1945.53 407.691C1937.19 418.715 1926.91 428.121 1915.2 435.445C1909.83 438.797 1904.18 441.661 1898.3 444C1855.75 460.996 1807.12 450.09 1775.9 416.547C1742.81 381.414 1735.36 315.488 1759.43 270.613C1767.84 255.71 1779.55 242.924 1793.65 233.228C1807.76 223.531 1823.89 217.179 1840.82 214.656C1857.74 212.132 1875.02 213.503 1891.34 218.665C1907.66 223.826 1922.59 232.642 1934.98 244.441C1946.24 256.226 1954.96 270.192 1960.61 285.477C1966.26 300.761 1968.72 317.041 1967.84 333.313V336.289M1283.31 5.86305C1261.02 5.83605 1242.94 23.879 1242.92 46.164C1242.9 68.445 1260.95 86.524 1283.23 86.535C1305.51 86.543 1323.58 68.4851 1323.58 46.1991C1323.6 23.9371 1305.56 5.87905 1283.31 5.86305Z" fill="#191A60"/>
</svg>
