<svg width="251" height="43" viewBox="0 0 251 43" fill="none" xmlns="http://www.w3.org/2000/svg">
<path d="M24.7475 6.57226L15.9653 21.5148C16.4602 22.1828 16.9205 22.8758 17.3444 23.591C17.6199 24.0383 17.8827 24.4854 18.1455 24.9406C18.5099 25.5666 18.8714 26.1943 19.23 26.8238C19.5956 27.4643 19.9603 28.1052 20.324 28.7468C20.6012 29.2363 20.8781 29.7259 21.154 30.216C21.5175 30.8608 22.0658 31.6937 22.7976 31.9491C23.1195 32.0791 23.4767 32.093 23.8077 31.9883C24.5809 31.4146 25.2928 30.7627 25.9321 30.0429C26.3048 29.6404 26.6675 29.2463 27.0009 28.8101C27.9642 27.5508 28.869 26.2478 29.7125 24.9052C30.5651 23.5491 31.3538 22.1565 32.1604 20.7741L34.7263 16.3767L37.2793 12.0011L40.4473 6.57178C40.4473 6.57178 26.501 6.61593 24.7475 6.57178" fill="#00C8A6"/>
<path fill-rule="evenodd" clip-rule="evenodd" d="M0.949951 19.0273H12.186C14.9643 19.0273 16.3111 21.3004 17.5878 23.3611C17.8633 23.8085 18.1261 24.2584 18.3888 24.7107C18.7533 25.3368 19.1148 25.9645 19.4733 26.594C19.8392 27.2343 20.2039 27.8753 20.5674 28.517C20.8446 29.0064 21.1213 29.4962 21.3974 29.9862C21.7607 30.6307 22.3092 31.4644 23.0402 31.7192C23.2332 31.8086 23.4459 31.8472 23.658 31.8314C23.8702 31.8156 24.0747 31.7458 24.2523 31.6287C23.6175 32.2496 22.8798 32.7557 22.0721 33.1247C21.1287 33.5928 20.1211 33.9185 19.0821 34.0911C17.1676 34.4364 15.2016 34.3702 13.3146 33.8968C12.8521 33.7755 12.3973 33.6261 11.9529 33.4494C9.26456 32.3733 7.85201 30.5939 6.4149 28.4935C5.99963 27.8874 5.61778 27.259 5.27104 26.6112L0.949951 19.0273Z" fill="#00E7B1"/>
<path fill-rule="evenodd" clip-rule="evenodd" d="M33.9136 21.7088L39.4214 12.3045C39.7268 11.8256 40.1373 11.4225 40.6216 11.1258C41.3095 10.6869 42.1061 10.4487 42.922 10.438C43.6385 10.4561 47.132 10.438 47.132 10.438L45.8389 12.621C45.0166 14.0091 44.4033 15.3972 43.581 16.7848C42.8542 18.0095 42.1796 19.4633 41.0972 20.4225C39.1247 22.171 36.3559 21.7082 33.9163 21.7082" fill="#5750FF"/>
<path d="M156.009 10.3686C151.077 12.0798 148.331 16.725 148.843 22.4891C148.96 24.0275 149.41 25.5223 150.16 26.8704C150.911 28.2184 151.945 29.3878 153.191 30.298C154.437 31.2081 155.865 31.8374 157.378 32.1425C158.89 32.4477 160.451 32.4213 161.952 32.0654C163.297 31.7614 164.569 31.1944 165.695 30.3972C166.82 29.5999 167.777 28.5881 168.51 27.4199C167.546 27.0642 165.552 26.2246 164.742 25.921L163.655 26.8629C162.867 27.506 161.94 27.9592 160.949 28.1876C159.957 28.416 158.926 28.4135 157.935 28.1803C156.944 27.9471 156.02 27.4895 155.234 26.8427C154.448 26.1958 153.822 25.3771 153.402 24.4497C153.198 24.0008 153.046 23.5303 152.948 23.0471H170.227C170.227 22.0218 170.243 21.1397 170.227 20.258C170.186 18.5715 169.748 16.9184 168.948 15.4329C168.149 13.9473 167.01 12.6711 165.625 11.7078C164.24 10.7446 162.648 10.1214 160.977 9.88868C159.306 9.656 157.604 9.82041 156.009 10.3686ZM153.154 18.922C153.65 15.9306 156.386 13.8207 159.582 13.8582C162.723 13.8956 165.408 16.0384 165.834 18.922H153.154ZM219.752 9.94594C214.639 10.8406 211.069 15.134 210.92 20.6795C210.803 25.0669 212.416 28.6464 216.298 30.8865C220.071 33.0637 224.726 32.4098 228.422 30.1226L228.46 31.7529H232.252C232.249 31.7529 232.363 25.9949 232.367 25.4677C232.418 23.2956 232.352 21.1223 232.171 18.9572C231.559 12.8989 225.739 8.89896 219.751 9.94545M228.377 21.3146C228.379 21.9399 228.315 22.5636 228.187 23.1756C228.081 23.6366 227.926 24.0848 227.724 24.5122C227.531 24.9168 227.298 25.3007 227.028 25.6583C226.521 26.3291 225.896 26.9013 225.183 27.3466C224.857 27.5505 224.513 27.7246 224.155 27.8669C221.567 28.9003 218.61 28.2366 216.711 26.1961C214.699 24.0594 214.246 20.0499 215.709 17.3215C216.221 16.4151 216.933 15.6373 217.791 15.0475C218.649 14.4577 219.63 14.0713 220.659 13.9179C221.689 13.7644 222.74 13.8478 223.732 14.1618C224.725 14.4758 225.632 15.0121 226.386 15.7298C227.071 16.4466 227.601 17.2959 227.945 18.2254C228.288 19.1549 228.438 20.1449 228.384 21.1345V21.3157M94.3898 23.9045C93.7968 23.42 93.2435 22.8887 92.7351 22.3159C92.0335 21.4897 91.9875 20.2911 92.6235 19.4133C92.9565 18.965 93.3308 18.549 93.7414 18.1706L101.82 10.2854H101.569C100.544 10.2854 99.5182 10.2541 98.494 10.2736C97.9175 10.2529 97.3409 10.3163 96.7823 10.4615C96.2156 10.6953 95.7062 11.049 95.2892 11.4984C94.2558 12.4281 93.2646 13.4026 92.2574 14.3607C91.2638 15.3055 90.2805 16.2615 89.0837 17.4149V0.977051H85.2121V31.7535H89.0977V24.3345C91.8996 26.6886 94.5558 28.9303 97.2273 31.1546C97.5325 31.4811 97.9256 31.7122 98.3593 31.8201C100.058 31.8928 102.289 31.8759 103.99 31.8759L102.7 30.8365C99.9308 28.5255 97.1513 26.2258 94.3898 23.9045ZM183.773 27.8636C182.623 27.8717 181.487 27.6211 180.448 27.1302C179.629 26.7329 178.904 26.1637 178.324 25.4615C177.751 24.7638 177.367 23.9295 177.212 23.0398C176.741 20.2524 176.877 17.3628 176.736 14.2991H184.984V10.2954H176.811V2.28511H172.901V3.03816C172.901 9.18742 172.776 15.3442 172.953 21.4906C173.005 26.2227 176.253 30.3198 180.848 31.4511C182.524 31.9154 184.28 32.0092 185.996 31.726V27.861C185.253 27.861 184.51 27.8714 183.768 27.861M245.902 10.3553C240.786 10.5969 236.466 14.1412 235.912 19.2004C235.465 23.2885 235.781 27.6132 235.763 31.7483H239.571V30.3106C239.571 27.3571 239.55 24.4039 239.577 21.4504C239.579 20.6059 239.705 19.7664 239.952 18.9589C240.179 18.2268 240.529 17.5391 240.988 16.9257C241.437 16.3347 241.988 15.8293 242.615 15.4336C243.276 15.0213 244.002 14.7227 244.762 14.5503C245.958 14.3403 247.174 14.2653 248.387 14.3267H248.405C249.253 14.3267 250.101 14.3201 250.95 14.3201V10.3436C249.161 10.3436 247.53 10.2788 245.904 10.3558M76.9918 31.7544H80.8718V10.3888H76.9928L76.9918 31.7544ZM68.506 19.7768C68.1349 19.7038 67.7597 19.6539 67.3825 19.6274C66.5926 19.5715 65.8051 19.4537 65.0168 19.3736C64.6025 19.3311 64.1884 19.2869 63.7753 19.2361C61.8745 19.0047 58.4647 19.0997 58.5729 16.3189C58.6291 14.9069 59.8756 14.083 61.1131 13.7475C63.6501 13.0626 66.9309 13.5377 68.4894 15.859C68.6134 16.107 68.7534 16.3466 68.9086 16.5763H72.8775C72.7281 16.0188 72.5281 15.4762 72.28 14.9551C71.7488 13.8426 70.949 12.8798 69.9528 12.1537C68.7305 11.3224 67.3388 10.7732 65.8782 10.5458C61.5583 9.7352 54.7612 10.9551 54.8099 16.5903C54.823 19.1748 56.6342 21.4015 59.1617 21.9408C60.0866 22.1489 61.0245 22.2948 61.969 22.3775C63.2783 22.4651 64.5892 22.5333 65.8944 22.6692C67.3552 22.8212 68.9355 23.246 69.3078 24.8957C69.7701 26.9418 67.8962 28.1225 66.1711 28.4737C64.4664 28.8434 62.6922 28.7283 61.0494 28.1416C59.8732 27.6523 58.9106 26.7587 58.3355 25.6219L58.1392 25.2232H54.0708C54.4013 26.1716 54.8355 27.0805 55.3656 27.9335C56.9815 30.4531 59.9492 31.6635 63.0027 31.873L62.2876 33.1902L62.2848 33.1958L62.295 33.2013L63.1217 34.5514C63.3264 34.4274 63.5611 34.3618 63.8005 34.3618C64.5315 34.3609 65.1246 34.9529 65.1251 35.6841C65.1259 36.4151 64.5336 37.0081 63.8026 37.0084C63.0716 37.0088 62.4788 36.4161 62.4788 35.6851H60.5363C60.5379 37.3652 61.8146 38.7694 63.4869 38.9305C65.1591 39.0916 66.6802 37.9567 67.0026 36.308C67.325 34.6593 66.3432 33.0353 64.7334 32.5546L65.1078 31.8643C66.5231 31.7631 67.9132 31.4366 69.2256 30.8971C69.3409 30.8478 69.4557 30.7971 69.5698 30.7451C70.734 30.2404 71.7114 29.3845 72.365 28.2969C73.4883 26.3686 73.4531 23.9772 72.2738 22.0826C71.8311 21.468 71.2706 20.9475 70.625 20.5514C69.9793 20.1554 69.2614 19.8917 68.5128 19.7756M138.006 26.5717C137.958 26.7045 137.871 26.8197 137.756 26.9024C137.641 26.9851 137.504 27.0314 137.363 27.0354C137.221 27.0394 137.082 27.001 136.963 26.925C136.843 26.849 136.75 26.739 136.693 26.6092L129.71 10.4833H125.505L134.981 32.161C135.101 32.435 135.161 32.7314 135.156 33.0303C135.152 33.3293 135.083 33.6238 134.956 33.8941C133.782 36.8826 131.881 38.7393 128.851 38.5129V42.1778C133.463 42.4947 136.99 39.5966 138.89 34.5258L148.113 10.4817H143.908L138.006 26.5717ZM205.837 10.4441C205.643 10.5491 205.487 10.7119 205.389 10.9098C205.283 11.1386 205.197 11.3767 205.134 11.621C205.044 11.9183 204.96 12.219 204.873 12.5181C204.697 13.1328 204.521 13.7478 204.347 14.3631C203.998 15.5926 203.651 16.8225 203.304 18.0527C202.958 19.2824 202.612 20.5123 202.266 21.7422C201.983 22.7505 201.698 23.7585 201.412 24.7662C201.232 25.5232 200.975 26.2597 200.643 26.9637C200.45 27.3793 200.143 27.7311 199.756 27.9776C199.37 28.2241 198.922 28.3551 198.463 28.3552C198.005 28.3551 197.556 28.2242 197.17 27.9776C196.784 27.7311 196.476 27.3793 196.283 26.9637C195.952 26.2597 195.694 25.5233 195.515 24.7662C195.229 23.7585 194.944 22.7505 194.66 21.7422C194.314 20.5123 193.968 19.2824 193.623 18.0527C193.277 16.8223 192.93 15.5924 192.58 14.3631C192.405 13.7485 192.229 13.1334 192.054 12.5181C191.968 12.2185 191.886 11.9183 191.793 11.621C191.722 11.3435 191.615 11.0767 191.474 10.8275C191.404 10.6967 191.306 10.5829 191.187 10.4941C191.068 10.4054 190.931 10.3439 190.786 10.3139C189.647 10.2752 188.506 10.2983 187.364 10.2983C187.544 11.0093 187.644 11.4471 187.766 11.8793C189.09 16.6171 190.404 21.3571 191.751 26.0883C191.993 27.0409 192.334 27.9656 192.768 28.8471C193.851 30.9988 196.055 32.3563 198.464 32.3563C200.873 32.3563 203.076 30.9988 204.159 28.8471C204.593 27.9655 204.934 27.0408 205.176 26.0883C206.523 21.3576 207.837 16.6171 209.161 11.8793C209.282 11.4472 209.385 11.01 209.563 10.2983L206.647 10.2921C206.369 10.2841 206.092 10.3358 205.836 10.4437M111.943 10.002C106.83 10.8965 103.26 15.1897 103.11 20.7353C102.994 25.1228 104.607 28.7023 108.489 30.9423C112.262 33.1198 116.916 32.4658 120.613 30.1787L120.65 31.8089H124.441C124.438 31.8089 124.552 26.0507 124.556 25.5236C124.607 23.3515 124.541 21.1782 124.36 19.013C123.748 12.9548 117.928 8.95479 111.94 10.0013M120.566 21.3704C120.568 21.9957 120.504 22.6194 120.376 23.2315C120.168 24.131 119.772 24.9764 119.214 25.7124C118.707 26.3829 118.082 26.9549 117.37 27.4003C117.043 27.6042 116.699 27.7784 116.342 27.9206C113.754 28.9543 110.796 28.291 108.898 26.251C106.885 24.1143 106.433 20.1048 107.896 17.3757C108.408 16.4693 109.12 15.6917 109.978 15.102C110.835 14.5122 111.816 14.1259 112.846 13.9725C113.875 13.819 114.926 13.9024 115.919 14.2163C116.911 14.5302 117.819 15.0663 118.573 15.7839C119.257 16.5007 119.788 17.35 120.132 18.2796C120.475 19.2092 120.625 20.1993 120.571 21.1889V21.3699M78.9395 1.27421C77.5842 1.27256 76.4844 2.36989 76.4831 3.72521C76.4819 5.08029 77.5799 6.17981 78.935 6.18048C80.2901 6.18097 81.3891 5.08272 81.3891 3.72734C81.3901 2.37342 80.2931 1.27518 78.9395 1.27421Z" fill="#191A60"/>
</svg>
