<svg xmlns="http://www.w3.org/2000/svg" width="642.243" height="284.687" viewBox="0 0 642.243 284.687"><rect width="642.243" height="284.687" fill="#bfbfbf"/><path d="M217.037,317.891c8.9-5.51,18.054-16.764,18.054-34.009,0-25.043-15.729-41.738-42.913-46.361V228H164.785v8.22h-24.5V228H112.9v8.22H90.449l33.732,43.33H103.635v89.374h20.546L90.449,412.259H112.9v8.213H140.29v-8.213h24.5v8.213h27.393v-8.3c32.734-1.331,58.168-19.592,58.168-51.167,0-24.431-14.24-36.888-33.31-43.112m-74.756-48.38h28.48c16.02,0,25.425,7.183,25.425,19.158,0,11.736-9.658,19.4-24.41,19.4h-29.5Zm41.194,109.454H142.281V337.05h40.177c18.05,0,28.476,7.427,28.476,21.074S200.256,378.964,183.475,378.964Z" transform="translate(143.705 -181.893)" fill="#fff"/></svg>