<svg width="64" height="64" viewBox="0 0 64 64" fill="none" xmlns="http://www.w3.org/2000/svg">
<g clip-path="url(#clip0_42_9847)">
<mask id="mask0_42_9847" style="mask-type:luminance" maskUnits="userSpaceOnUse" x="0" y="0" width="64" height="64">
<path d="M32 64C49.6731 64 64 49.6731 64 32C64 14.3269 49.6731 0 32 0C14.3269 0 0 14.3269 0 32C0 49.6731 14.3269 64 32 64Z" fill="white"/>
</mask>
<g mask="url(#mask0_42_9847)">
<path d="M0 0H64V64H0V0Z" fill="#6DA544"/>
<path d="M32 12.525L58.4375 32L32 51.475L5.5625 32L32 12.525Z" fill="#FFDA44"/>
<path d="M21.7749 27.625C21.153 29.0555 20.846 30.603 20.8749 32.1625L41.1249 38.3875C42.0171 37.1132 42.6304 35.665 42.9249 34.1375C37.8499 25.975 27.9624 24.1 21.7874 27.6375L21.7749 27.625Z" fill="#EEEEEE"/>
<path d="M31.9625 20.875C30.1343 20.8797 28.3354 21.3347 26.725 22.2C24.5085 23.3959 22.7634 25.3085 21.775 27.625C25.5623 26.8208 29.4923 26.9982 33.1918 28.1402C36.8913 29.2822 40.2375 31.351 42.9125 34.15C43.4094 31.6195 43.0118 28.9948 41.7875 26.725C40.8326 24.952 39.4144 23.4714 37.6841 22.4411C35.9538 21.4109 33.9763 20.8696 31.9625 20.875ZM26.5 31.3125C24.5925 31.3062 22.6954 31.5928 20.875 32.1625C20.896 33.9473 21.3462 35.7008 22.1875 37.275C22.8798 38.5624 23.819 39.7008 24.9514 40.625C26.0838 41.5492 27.3873 42.2412 28.7873 42.6615C30.1873 43.0817 31.6564 43.2219 33.1106 43.0741C34.5648 42.9263 35.9757 42.4934 37.2625 41.8C38.7903 40.9774 40.1045 39.8087 41.1 38.3875C39.3455 36.197 37.1246 34.4253 34.5989 33.2014C32.0733 31.9775 29.3065 31.3322 26.5 31.3125Z" fill="#0052B4"/>
</g>
</g>
<defs>
<clipPath id="clip0_42_9847">
<rect width="64" height="64" fill="white"/>
</clipPath>
</defs>
</svg>
