<svg width="64" height="64" viewBox="0 0 64 64" fill="none" xmlns="http://www.w3.org/2000/svg">
<g clip-path="url(#clip0_42_9856)">
<path d="M32 64C49.6731 64 64 49.6731 64 32C64 14.3269 49.6731 0 32 0C14.3269 0 0 14.3269 0 32C0 49.6731 14.3269 64 32 64Z" fill="#F0F0F0"/>
<path d="M6.61492 12.5178C4.10129 15.7882 2.20592 19.5575 1.10229 23.6524H17.7495L6.61492 12.5178ZM62.8975 23.6524C61.7939 19.5577 59.8984 15.7883 57.3849 12.5179L46.2505 23.6524H62.8975ZM1.10229 40.348C2.20604 44.4428 4.10142 48.2122 6.61492 51.4824L17.7492 40.348H1.10229ZM51.4822 6.61517C48.2118 4.10154 44.4425 2.20617 40.3477 1.10242V17.7495L51.4822 6.61517ZM12.5177 57.3849C15.788 59.8985 19.5574 61.7939 23.6522 62.8977V46.2507L12.5177 57.3849ZM23.652 1.10242C19.5573 2.20617 15.7879 4.10154 12.5177 6.61504L23.652 17.7494V1.10242ZM40.3478 62.8977C44.4425 61.7939 48.2119 59.8985 51.4822 57.385L40.3478 46.2507V62.8977ZM46.2505 40.348L57.3849 51.4825C59.8984 48.2123 61.7939 44.4428 62.8975 40.348H46.2505Z" fill="#0052B4"/>
<path d="M63.7291 27.8261H36.1741H36.174V0.270875C34.8076 0.093 33.4146 0 32 0C30.6043 6.58223e-05 29.2101 0.090547 27.8261 0.270875V27.8259V27.826H0.270875C0.093 29.1924 0 30.5854 0 32C6.58223e-05 33.3957 0.090547 34.7899 0.270875 36.1739H27.8259H27.826V63.7291C29.1924 63.907 30.5851 64 32 64C33.3957 64 34.7899 63.9095 36.1739 63.7291V36.1741V36.174H63.7291C63.907 34.8076 64 33.4149 64 32C63.9999 30.6043 63.9095 29.2101 63.7291 27.8261ZM40.3479 40.348L54.6274 54.6275C55.2841 53.971 55.9106 53.2846 56.5084 52.5731L44.2831 40.3479H40.3479V40.348ZM23.6521 40.348H23.6519L9.3725 54.6274C10.029 55.2841 10.7154 55.9106 11.4269 56.5084L23.6521 44.2829V40.348ZM23.6521 23.6524V23.6521L9.37263 9.3725C8.71588 10.029 8.08937 10.7154 7.49162 11.4269L19.717 23.6523L23.6521 23.6524ZM40.3479 23.6524L54.6275 9.37263C53.971 8.71588 53.2846 8.08937 52.5731 7.49175L40.3479 19.7171V23.6524Z" fill="#D80027"/>
</g>
<defs>
<clipPath id="clip0_42_9856">
<rect width="64" height="64" fill="white"/>
</clipPath>
</defs>
</svg>
