<svg width="64" height="64" viewBox="0 0 64 64" fill="none" xmlns="http://www.w3.org/2000/svg">
<g clip-path="url(#clip0_42_9871)">
<path d="M32 64C49.6731 64 64 49.6731 64 32C64 14.3269 49.6731 0 32 0C14.3269 0 0 14.3269 0 32C0 49.6731 14.3269 64 32 64Z" fill="#D80027"/>
<path d="M30.6897 26.1483L33.3153 29.7664L37.5674 28.3876L34.9377 32.0026L37.5629 35.6206L33.3123 34.2366L30.6827 37.8516L30.6854 33.3815L26.4347 31.9975L30.6869 30.6188L30.6897 26.1483ZM23.5242 41.0435C18.5297 41.0435 14.4807 36.9945 14.4807 32C14.4807 27.0055 18.5297 22.9565 23.5242 22.9565C25.0814 22.9565 26.5467 23.3504 27.8259 24.0435C25.819 22.0808 23.0744 20.8695 20.0459 20.8695C13.8987 20.8695 8.91553 25.8528 8.91553 31.9999C8.91553 38.147 13.8988 43.1303 20.0459 43.1303C23.0747 43.1303 25.8192 41.9189 27.8259 39.9563C26.5467 40.6496 25.0814 41.0435 23.5242 41.0435Z" fill="#F0F0F0"/>
</g>
<defs>
<clipPath id="clip0_42_9871">
<rect width="64" height="64" fill="white"/>
</clipPath>
</defs>
</svg>
