<svg xmlns="http://www.w3.org/2000/svg" width="217" height="65" viewBox="0 0 217 65"><g transform="translate(0.5 0.5)"><path d="M207.98,64.02H7.98a8.024,8.024,0,0,1-8-8v-48a8.024,8.024,0,0,1,8-8h200a8.024,8.024,0,0,1,8,8v48a8.024,8.024,0,0,1-8,8Z" transform="translate(0.02 -0.02)" fill="#1a1a1a" stroke="#fff" stroke-width="1"/><g transform="translate(66.16 10.992)"><path d="M51.042,12.282a4.283,4.283,0,0,1-1.2,3.2,4.652,4.652,0,0,1-3.52,1.424A4.945,4.945,0,0,1,41.33,11.9a4.79,4.79,0,0,1,1.456-3.57,5.055,5.055,0,0,1,5.5-1.04,4.071,4.071,0,0,1,1.5,1.072l-.848.848a3.255,3.255,0,0,0-2.624-1.136A3.625,3.625,0,0,0,43.7,9.146a3.664,3.664,0,0,0-1.1,2.768,3.779,3.779,0,0,0,6.416,2.768,2.994,2.994,0,0,0,.8-1.952H46.322V11.578h4.656a5.481,5.481,0,0,1,.064.7Z" transform="translate(-41.33 -6.89)" fill="#fff" stroke="#fff" stroke-miterlimit="10" stroke-width="0.2"/><path d="M54.11,8.2H49.742v3.04h3.936V12.4H49.742v3.04H54.11v1.18h-5.6V7.02h5.6Z" transform="translate(-37.022 -6.812)" fill="#fff" stroke="#fff" stroke-miterlimit="10" stroke-width="0.2"/><path d="M56.73,16.62H55.5V8.2H52.81V7.02H59.4V8.2H56.714l.016,8.416Z" transform="translate(-34.442 -6.812)" fill="#fff" stroke="#fff" stroke-miterlimit="10" stroke-width="0.2"/><path d="M59.92,16.62V7.02h1.232v9.6Z" transform="translate(-30.176 -6.812)" fill="#fff" stroke="#fff" stroke-miterlimit="10" stroke-width="0.2"/><path d="M65.58,16.62H64.348V8.2H61.66V7.02h6.592V8.2H65.564l.016,8.416Z" transform="translate(-29.132 -6.812)" fill="#fff" stroke="#fff" stroke-miterlimit="10" stroke-width="0.2"/><path d="M76.758,15.45a4.983,4.983,0,0,1-7.04,0A4.914,4.914,0,0,1,68.31,11.9a4.888,4.888,0,0,1,1.408-3.552,4.683,4.683,0,0,1,3.52-1.456,4.733,4.733,0,0,1,3.52,1.456A4.928,4.928,0,0,1,78.182,11.9,4.94,4.94,0,0,1,76.758,15.45Zm-6.128-.8a3.708,3.708,0,0,0,5.216,0,3.776,3.776,0,0,0,1.072-2.75A3.683,3.683,0,0,0,70.63,9.148,3.776,3.776,0,0,0,69.558,11.9a3.776,3.776,0,0,0,1.072,2.75Z" transform="translate(-25.142 -6.89)" fill="#fff" stroke="#fff" stroke-miterlimit="10" stroke-width="0.2"/><path d="M75.56,16.62V7.02h1.5l4.672,7.472h.048l-.048-1.856V7.02h1.232v9.6h-1.28L76.808,8.8H76.76l.048,1.856V16.62Z" transform="translate(-20.792 -6.812)" fill="#fff" stroke="#fff" stroke-miterlimit="10" stroke-width="0.2"/></g><path d="M84.38,24.59a6.8,6.8,0,1,0,6.832,6.8,6.711,6.711,0,0,0-6.832-6.8Zm0,10.928a3.933,3.933,0,0,1-3.84-4.128,3.85,3.85,0,1,1,7.68,0,3.943,3.943,0,0,1-3.84,4.128ZM69.468,24.59a6.8,6.8,0,1,0,6.832,6.8,6.711,6.711,0,0,0-6.832-6.8Zm0,10.928a3.933,3.933,0,0,1-3.84-4.128,3.85,3.85,0,1,1,7.68,0,3.933,3.933,0,0,1-3.84,4.128ZM51.74,26.686v2.88h6.912A6.075,6.075,0,0,1,57.084,33.2a7.058,7.058,0,0,1-5.328,2.112,7.681,7.681,0,1,1,0-15.361,7.314,7.314,0,0,1,5.2,2.065l2.032-2.032A10.073,10.073,0,0,0,51.74,17.07,10.712,10.712,0,0,0,41.02,27.646,10.722,10.722,0,0,0,51.74,38.222a9.647,9.647,0,0,0,7.376-2.96,9.549,9.549,0,0,0,2.5-6.752,8.729,8.729,0,0,0-.16-1.808H51.74Zm72.5,2.24a6.314,6.314,0,0,0-5.824-4.336A6.461,6.461,0,0,0,112,31.39a6.655,6.655,0,0,0,6.752,6.8,6.743,6.743,0,0,0,5.664-3.008L122.1,33.63a3.871,3.871,0,0,1-3.344,1.888,3.461,3.461,0,0,1-3.3-2.064l9.1-3.76ZM114.96,31.2a3.729,3.729,0,0,1,3.552-3.968,2.643,2.643,0,0,1,2.528,1.44Zm-7.392,6.592h2.992v-20h-2.992Zm-4.9-11.68h-.112a4.7,4.7,0,0,0-3.584-1.52,6.814,6.814,0,0,0,0,13.616,4.636,4.636,0,0,0,3.584-1.552h.1v.976c0,2.608-1.392,4-3.632,4A3.767,3.767,0,0,1,95.6,39.214L92.988,40.3a6.485,6.485,0,0,0,6.032,4.016c3.5,0,6.464-2.064,6.464-7.088V25.006h-2.832l.016,1.1Zm-3.44,9.408a3.906,3.906,0,0,1-3.792-4.1,3.93,3.93,0,0,1,3.792-4.144c2.032,0,3.632,1.76,3.632,4.144a3.784,3.784,0,0,1-3.632,4.1ZM138.252,17.79H131.1v20h2.992V30.206h4.176A6.337,6.337,0,0,0,144.828,24a6.36,6.36,0,0,0-6.576-6.21Zm.064,9.632h-4.24V20.558h4.24a3.433,3.433,0,1,1,0,6.864Zm18.464-2.864a5.629,5.629,0,0,0-5.328,3.056l2.656,1.1a2.823,2.823,0,0,1,2.72-1.472c1.536,0,3.12.928,3.136,2.576v.208a6.682,6.682,0,0,0-3.12-.768c-2.864,0-5.76,1.568-5.76,4.5,0,2.672,2.336,4.4,4.96,4.4a4.207,4.207,0,0,0,3.808-1.952h.1v1.552h2.88V30.094C162.844,26.542,160.188,24.558,156.78,24.558Zm-.368,10.96c-.976,0-2.336-.5-2.336-1.7,0-1.536,1.7-2.128,3.168-2.128a5.269,5.269,0,0,1,2.72.672,3.61,3.61,0,0,1-3.552,3.156ZM173.34,24.99l-3.424,8.672h-.1l-3.552-8.672h-3.216l5.328,12.128-3.04,6.736h3.12l8.208-18.864Zm-26.88,12.8h2.992v-20H146.46Z" transform="translate(24.644 10.21)" fill="#fff"/><path d="M10.7,7.6a3.22,3.22,0,0,0-.736,2.24V45.234a3.164,3.164,0,0,0,.736,2.24l.112.112,19.82-19.808V27.3L10.808,7.49Z" transform="translate(6.009 4.462)" fill="rgba(255,255,255,0.9)"/><path d="M29.488,29.436,22.88,22.828v-.48l6.608-6.608.144.08,7.824,4.448c2.24,1.264,2.24,3.344,0,4.624L29.632,29.34Z" transform="translate(13.759 9.412)" fill="rgba(255,255,255,0.75)"/><path d="M37.108,26.772,30.356,20.02,10.42,39.956c.736.784,1.952.88,3.328.1l23.36-13.28" transform="translate(6.285 11.98)" fill="rgba(255,255,255,0.65)"/><path d="M37.114,20.983,13.738,7.7c-1.376-.784-2.592-.688-3.328.1L30.362,27.735Z" transform="translate(6.278 4.264)" fill="rgba(255,255,255,0.65)"/><path d="M36.964,24.15,13.732,37.35c-1.3.736-2.464.688-3.2.016h0l-.112.112h0l.112.112h0c.752.672,1.9.72,3.2-.016l23.376-13.28Z" transform="translate(6.282 14.458)" opacity="0.2"/><path d="M10.7,33.18a3.22,3.22,0,0,1-.736-2.24v.24a3.164,3.164,0,0,0,.736,2.24l.112-.112Z" transform="translate(6.006 18.531)" opacity="0.12"/><path d="M34.984,22.1,27,26.628l.144.144,7.824-4.448a2.812,2.812,0,0,0,1.68-2.3h0A2.911,2.911,0,0,1,34.984,22.1Z" transform="translate(16.231 11.98)" opacity="0.12"/><path d="M14.014,7.924l31.2,17.728a2.99,2.99,0,0,1,1.68,2.08h0a2.792,2.792,0,0,0-1.68-2.3L14.014,7.7c-2.24-1.264-4.064-.208-4.064,2.352v.24C9.95,7.716,11.79,6.66,14.014,7.924Z" transform="translate(6.002 4.267)" fill="#fff" opacity="0.25"/></g></svg>