<svg xmlns="http://www.w3.org/2000/svg" width="198.3" height="65.005" viewBox="0 0 198.3 65.005"><g transform="translate(-0.892 -0.924)"><g transform="translate(1.392 1.424)"><path d="M13.536,64.857c-.5,0-1,0-1.506-.017a21.731,21.731,0,0,1-3.13-.268,9.686,9.686,0,0,1-2.778-.92A9.342,9.342,0,0,1,2.075,59.6a9.487,9.487,0,0,1-.9-2.778A21.979,21.979,0,0,1,.887,53.68C.87,53.328.87,52.157.87,52.157V13.523s.017-1.155.017-1.489A24.43,24.43,0,0,1,1.171,8.9a9.519,9.519,0,0,1,.92-2.778A8.683,8.683,0,0,1,3.8,3.785,8.971,8.971,0,0,1,6.124,2.078a9.547,9.547,0,0,1,2.761-.9A19.79,19.79,0,0,1,12.03.907L13.536.89H185.491l1.523.017a21.7,21.7,0,0,1,3.112.268,9.79,9.79,0,0,1,2.794.92,9.371,9.371,0,0,1,4.049,4.049,10.082,10.082,0,0,1,.9,2.761,21.991,21.991,0,0,1,.284,3.162v1.489c.017.636.017,1.221.017,1.824V50.4c0,.6,0,1.2-.017,1.807v1.556a21.293,21.293,0,0,1-.284,3.1,9.754,9.754,0,0,1-.9,2.794,9.262,9.262,0,0,1-1.707,2.326,9.056,9.056,0,0,1-2.343,1.707,9.791,9.791,0,0,1-2.794.92,19.582,19.582,0,0,1-3.129.268c-.485.017-1,.017-1.506.017h-1.807Z" transform="translate(-0.87 -0.89)" fill="#1a1a1a" stroke="#fff" stroke-width="1"/><g transform="translate(15.249 13.101)"><path d="M34.724,24.56a8.25,8.25,0,0,1,3.949-6.944A8.493,8.493,0,0,0,32,14c-2.811-.3-5.538,1.673-6.961,1.673-1.456,0-3.664-1.656-6.04-1.606a8.892,8.892,0,0,0-7.479,4.568c-3.229,5.6-.82,13.837,2.276,18.372,1.556,2.225,3.363,4.7,5.739,4.6,2.326-.1,3.2-1.472,5.99-1.472s3.581,1.472,6.007,1.422c2.493-.033,4.066-2.225,5.555-4.467a18.149,18.149,0,0,0,2.543-5.17,7.985,7.985,0,0,1-4.906-7.36Z" transform="translate(-9.984 -5.185)" fill="#fff"/><path d="M24.228,14.559A8.132,8.132,0,0,0,26.085,8.72a8.269,8.269,0,0,0-5.371,2.78,7.746,7.746,0,0,0-1.907,5.622,6.878,6.878,0,0,0,5.421-2.563Z" transform="translate(-4.055 -8.72)" fill="#fff"/><g transform="translate(40.904 15.31)"><path d="M47.6,33.239H39.684l-1.907,5.622H34.43l7.5-20.781h3.48l7.5,20.781H49.489Zm-7.1-2.593h6.275l-3.1-9.119H43.6Z" transform="translate(-34.43 -17.729)" fill="#fff"/><path d="M60.9,29.081c0,4.7-2.527,7.73-6.325,7.73a5.15,5.15,0,0,1-4.769-2.644h-.067v7.5H46.63V21.5h3.012v2.527h.05a5.371,5.371,0,0,1,4.819-2.677C58.376,21.351,60.9,24.38,60.9,29.081Zm-3.2,0c0-3.062-1.59-5.087-4-5.087-2.376,0-3.982,2.058-3.982,5.087,0,3.045,1.606,5.1,3.982,5.1,2.417,0,4.007-2,4.007-5.1Z" transform="translate(-26.217 -15.528)" fill="#fff"/><path d="M70.856,29.081c0,4.7-2.527,7.73-6.325,7.73a5.15,5.15,0,0,1-4.769-2.644H59.7v7.5H56.6V21.5h3.012v2.527h.05a5.371,5.371,0,0,1,4.819-2.677C68.329,21.351,70.856,24.38,70.856,29.081Zm-3.2,0c0-3.062-1.59-5.087-4-5.087-2.376,0-3.982,2.058-3.982,5.087,0,3.045,1.606,5.1,3.982,5.1C66.082,34.181,67.656,32.173,67.656,29.081Z" transform="translate(-19.505 -15.528)" fill="#fff"/><path d="M72.989,33.213c.234,2.058,2.225,3.413,4.969,3.413,2.627,0,4.5-1.355,4.5-3.213,0-1.606-1.138-2.577-3.832-3.246l-2.694-.653c-3.815-.92-5.589-2.711-5.589-5.6,0-3.581,3.129-6.04,7.563-6.04,4.384,0,7.4,2.46,7.5,6.04H82.259c-.184-2.075-1.907-3.33-4.4-3.33s-4.216,1.272-4.216,3.112c0,1.472,1.088,2.326,3.765,3l2.292.569c4.267,1,6.04,2.727,6.04,5.756,0,3.882-3.1,6.325-8.015,6.325-4.6,0-7.713-2.376-7.914-6.141Z" transform="translate(-10.612 -17.87)" fill="#fff"/><path d="M85.5,19.3v3.581h2.878v2.46H85.5V33.69c0,1.305.569,1.907,1.841,1.907.335,0,.686-.033,1.021-.067v2.443a9.995,9.995,0,0,1-1.723.151c-3.062,0-4.267-1.155-4.267-4.083V25.357H80.16V22.9h2.209V19.3Z" transform="translate(-3.644 -16.907)" fill="#fff"/><path d="M86.07,29.094c0-4.769,2.811-7.764,7.178-7.764,4.384,0,7.178,3,7.178,7.764,0,4.785-2.778,7.764-7.178,7.764S86.07,33.879,86.07,29.094Zm11.194,0c0-3.263-1.506-5.2-4.016-5.2s-4.016,1.941-4.016,5.2c0,3.279,1.489,5.2,4.016,5.2s4.016-1.924,4.016-5.2Z" transform="translate(0.334 -15.541)" fill="#fff"/><path d="M96.19,21.508h2.962v2.577h.067a3.649,3.649,0,0,1,3.648-2.744,4.667,4.667,0,0,1,1.071.117v2.911a4.347,4.347,0,0,0-1.389-.184A3.141,3.141,0,0,0,99.285,27.2a4.7,4.7,0,0,0,.017.485V36.67H96.19Z" transform="translate(7.147 -15.535)" fill="#fff"/><path d="M114.88,32.223c-.418,2.744-3.1,4.635-6.525,4.635-4.4,0-7.145-2.945-7.145-7.7s2.744-7.831,7.011-7.831c4.183,0,6.827,2.878,6.827,7.479V29.88H104.356v.184a3.954,3.954,0,0,0,3.581,4.283,4.789,4.789,0,0,0,.485.017,3.435,3.435,0,0,0,3.5-2.125Zm-10.508-4.534h7.58a3.623,3.623,0,0,0-3.43-3.832h-.284a3.835,3.835,0,0,0-3.865,3.815Z" transform="translate(10.527 -15.541)" fill="#fff"/></g></g></g><g transform="translate(59.62 14.057)"><path d="M39.284,8.734A4.418,4.418,0,0,1,44,12.817a5.04,5.04,0,0,1-.017.87c0,3.2-1.723,5.02-4.7,5.02H35.67V8.734ZM37.226,17.3H39.1a3.14,3.14,0,0,0,3.313-2.945,2.848,2.848,0,0,0-.033-.653,3.15,3.15,0,0,0-2.694-3.547,2.421,2.421,0,0,0-.6-.017h-1.86Z" transform="translate(-35.67 -8.249)" fill="#fff"/><path d="M41.686,14.015a3.572,3.572,0,0,1,7.111-.686,4.694,4.694,0,0,1,0,.686,3.572,3.572,0,0,1-7.111.686,4.7,4.7,0,0,1,0-.686Zm5.572,0c0-1.64-.736-2.593-2.025-2.593s-2.025.954-2.025,2.593.719,2.593,2.025,2.593,2.025-.954,2.025-2.593Z" transform="translate(-31.63 -7.322)" fill="#fff"/><path d="M54.936,17.729H53.4l-1.556-5.555h-.117l-1.556,5.555H48.645L46.57,10.2h1.506l1.355,5.756h.117L51.1,10.2h1.422l1.556,5.756H54.2L55.538,10.2h1.489Z" transform="translate(-28.332 -7.255)" fill="#fff"/><path d="M53.85,10.247h1.439v1.2h.117a2.231,2.231,0,0,1,2.242-1.339,2.442,2.442,0,0,1,2.627,2.259,2.821,2.821,0,0,1-.017.535v4.869H58.769v-4.5c0-1.2-.519-1.807-1.623-1.807a1.723,1.723,0,0,0-1.807,1.64v4.668H53.85Z" transform="translate(-23.431 -7.319)" fill="#fff"/><path d="M59.09,8.44h1.489V18.914H59.09Z" transform="translate(-19.904 -8.44)" fill="#fff"/><path d="M61.23,14.015a3.572,3.572,0,1,1,7.111-.686,4.692,4.692,0,0,1,0,.686,3.572,3.572,0,1,1-7.111.686,2.355,2.355,0,0,1,0-.686Zm5.572,0c0-1.64-.736-2.593-2.025-2.593s-2.025.954-2.025,2.593.719,2.593,2.025,2.593c1.289,0,2.023-.953,2.023-2.593Z" transform="translate(-18.48 -7.322)" fill="#fff"/><path d="M66.4,15.648c0-1.355,1-2.142,2.794-2.242l2.041-.117v-.653c0-.8-.519-1.238-1.539-1.238-.837,0-1.4.3-1.573.837H66.684c.151-1.288,1.372-2.125,3.079-2.125,1.891,0,2.962.937,2.962,2.527V17.79H71.286V16.736h-.117a2.567,2.567,0,0,1-2.259,1.188A2.263,2.263,0,0,1,66.417,15.9a1.352,1.352,0,0,1-.017-.252Zm4.852-.636v-.636l-1.841.117c-1.037.067-1.506.418-1.506,1.088,0,.686.586,1.071,1.389,1.071a1.779,1.779,0,0,0,1.941-1.59A.061.061,0,0,1,71.252,15.012Z" transform="translate(-14.982 -7.316)" fill="#fff"/><path d="M71.35,15.133c0-2.376,1.221-3.882,3.129-3.882a2.477,2.477,0,0,1,2.309,1.322H76.9V8.44h1.489V18.914H76.955V17.726h-.117a2.634,2.634,0,0,1-2.359,1.322C72.555,19.031,71.35,17.525,71.35,15.133Zm1.539,0c0,1.606.753,2.56,2.008,2.56s2.025-.97,2.025-2.56c0-1.573-.786-2.56-2.025-2.56-1.255.017-2.008.987-2.008,2.56Z" transform="translate(-11.65 -8.44)" fill="#fff"/><path d="M79.236,14.016a3.572,3.572,0,0,1,7.111-.686,4.693,4.693,0,0,1,0,.686,3.572,3.572,0,1,1-7.111.686,4.692,4.692,0,0,1,0-.686Zm5.572,0c0-1.64-.736-2.593-2.025-2.593s-2.025.954-2.025,2.593.719,2.593,2.025,2.593C84.072,16.609,84.808,15.656,84.808,14.016Z" transform="translate(-6.352 -7.323)" fill="#fff"/><path d="M84.67,10.247h1.439v1.2h.117a2.231,2.231,0,0,1,2.242-1.339A2.442,2.442,0,0,1,91.1,12.372a2.821,2.821,0,0,1-.017.535v4.869H89.589v-4.5c0-1.2-.519-1.807-1.623-1.807a1.723,1.723,0,0,0-1.807,1.64v4.668H84.67Z" transform="translate(-2.683 -7.319)" fill="#fff"/><path d="M94.59,9.07v1.907h1.64v1.255H94.59v3.882c0,.786.318,1.138,1.071,1.138.184,0,.385-.017.569-.033v1.238a6.537,6.537,0,0,1-.8.084c-1.656,0-2.309-.586-2.309-2.041V12.25H91.93V10.994h1.188V9.07Z" transform="translate(2.204 -8.016)" fill="#fff"/><path d="M95.7,8.44h1.472v4.15h.117a2.337,2.337,0,0,1,2.292-1.355,2.475,2.475,0,0,1,2.61,2.342,2.2,2.2,0,0,1-.017.468v4.869h-1.489v-4.5c0-1.2-.552-1.807-1.606-1.807a1.738,1.738,0,0,0-1.891,1.606v4.7H95.7Z" transform="translate(4.742 -8.44)" fill="#fff"/><path d="M107.486,15.749a3.045,3.045,0,0,1-3.263,2.175,3.422,3.422,0,0,1-3.514-3.33,3.062,3.062,0,0,1,.033-.552,3.471,3.471,0,0,1,2.978-3.9c.167-.017.335-.033.485-.033,2.092,0,3.363,1.439,3.363,3.8v.519h-5.321v.084a1.991,1.991,0,0,0,1.824,2.158h.184a1.8,1.8,0,0,0,1.79-.92Zm-5.22-2.426h3.8a1.8,1.8,0,0,0-1.673-1.941h-.184a1.928,1.928,0,0,0-1.958,1.907c.017,0,.017.017.017.033Z" transform="translate(8.115 -7.316)" fill="#fff"/></g></g></svg>