<svg width="300" height="35" viewBox="0 0 300 35" fill="none" xmlns="http://www.w3.org/2000/svg">
<g clip-path="url(#clip0_324_864)">
<path d="M253.285 33.5498H264.942V21.676H268.845L283.217 33.5475H300L279.893 17.2049L298.59 0.5H282.109L268.961 12.1221H264.529V0.502262H253.287L253.285 33.5498ZM34.2733 0.502262L52.0771 33.5475H39.6909L36.6024 27.9431H16.0725L12.9217 33.5475H0L18.2977 0.502262H34.2733ZM31.7457 19.5779L26.2405 9.94314L26.2013 9.86475L20.7353 19.578L31.7457 19.5779ZM53.7691 33.543H65.4651V21.676H69.3638L83.7397 33.5475H100.523L80.3696 17.2049L99.1036 0.502262H82.6271L69.4769 12.1221H65.0057V0.502262H53.7667L53.7691 33.543ZM122.884 0.502262C127.318 0.502262 131.752 0.502262 136.186 0.502262C138.176 0.502262 141.92 2.30726 143.183 6.18978C144.214 9.45604 143.487 14.832 140.697 16.7964C142.723 17.6409 144.099 20.8313 144.29 24.1344V25.4409C144.25 26.0176 144.177 26.5904 144.06 27.1282C143.33 30.7799 140.466 33.5452 138.174 33.5452C133.049 33.5452 127.964 33.5452 122.881 33.5452C116.15 33.5452 109.424 33.5452 102.732 33.5452C102.7 22.5487 102.7 11.5243 102.661 0.5C109.392 0.502261 116.157 0.502262 122.884 0.502262ZM122.884 24.3606H131.177C132.172 24.3606 133.01 23.5527 133.01 22.5948C133.01 21.6391 132.17 20.8636 131.177 20.8636H113.251V24.3606H122.884ZM122.884 12.4891H130.72C131.72 12.4891 132.521 11.6787 132.521 10.7187C132.521 9.75847 131.72 8.95281 130.72 8.95281H113.253V12.4868L122.884 12.4891ZM199.648 0.502262V33.5475H211.457V11.3535L228.268 33.543H246.478V0.502262H234.819V23.5896L217.694 0.502262H199.648ZM179.801 0.502262L197.602 33.5475H185.256L182.185 28.0561H161.653L158.551 33.5475H145.634L163.929 0.502262H179.801ZM177.437 19.5779L171.893 9.94314L171.853 9.86475L166.387 19.5779H177.437Z" fill="#DF392E"/>
</g>
<defs>
<clipPath id="clip0_324_864">
<rect width="300" height="34" fill="white" transform="translate(0 0.5)"/>
</clipPath>
</defs>
</svg>
