<svg width="300" height="69" viewBox="0 0 300 69" fill="none" xmlns="http://www.w3.org/2000/svg">
<g clip-path="url(#clip0_324_852)">
<path fill-rule="evenodd" clip-rule="evenodd" d="M53.0542 46.7637C53.5477 36.2762 47.8516 29.8604 40.716 29.8604C34.259 29.8604 29.0564 35.6593 29.0564 44.9335C29.0564 54.5573 34.917 59.1018 41.2918 59.1018C44.053 59.0679 46.7132 58.0584 48.8018 56.252C50.8904 54.4456 52.2729 51.9588 52.7046 49.2313H43.0397C42.8546 50.5679 42.0937 51.555 40.9833 51.555C38.9269 51.555 38.6596 49.0257 38.6596 46.7637M38.6596 40.9647C38.6596 39.0317 39.3793 37.3455 40.8805 37.3455C42.3816 37.3455 43.2864 39.0729 43.2864 40.9647H38.6596Z" fill="#004C91"/>
<path fill-rule="evenodd" clip-rule="evenodd" d="M65.9475 30.4978H56.3237V58.4644H66.1737V44.8101C66.1737 43.1856 66.1737 40.8619 67.8188 40.8619C69.4639 40.8619 69.505 43.1856 69.505 44.8101V58.4644H79.355V41.232C79.355 35.063 77.2986 29.8604 72.3222 29.8604C69.1554 29.8604 67.6954 31.9167 65.8036 34.9601H65.5568" fill="#004C91"/>
<path fill-rule="evenodd" clip-rule="evenodd" d="M116.74 32.0606V30.4978H95.8469V39.299H100.618L102.88 38.9289V39.1551L94.8599 56.5725V58.4644H116.246V49.5603H110.632L108.596 49.8688V49.5603L110.714 44.3988" fill="#004C91"/>
<path fill-rule="evenodd" clip-rule="evenodd" d="M187.232 30.4978H176.847V58.4644H187.499V44.8101C187.499 43.1856 187.499 40.8619 189.144 40.8619C190.789 40.8619 190.81 43.1856 190.81 44.8101V58.4644H200.68V41.232C200.68 35.063 198.624 29.8604 193.648 29.8604C190.481 29.8604 189.021 31.9167 187.108 34.9601H186.882" fill="#004C91"/>
<path fill-rule="evenodd" clip-rule="evenodd" d="M203.539 58.4643H213.595L213.615 44.4193L218.345 58.4643H230.231L222.787 42.9182L230.066 30.4978H218.53L214.027 42.3013L213.389 40.8618V19.0027H203.539" fill="#004C91"/>
<path fill-rule="evenodd" clip-rule="evenodd" d="M130.456 33.9735V28.3391H131.175C132.718 28.3391 134.651 28.1129 134.651 31.0123C134.651 33.9118 132.944 33.9735 131.402 33.9735M119.865 58.4648H136.316C141.354 58.4648 146.866 55.6681 146.866 47.5044C147.006 45.5356 146.532 43.5717 145.508 41.8844C144.484 40.1971 142.96 38.8699 141.149 38.0862C145.303 35.6803 146.002 33.6239 146.002 30.1281C146.002 21.9026 138.208 18.7358 134.322 18.7358H119.927L119.865 58.4648ZM130.456 42.3429H131.484C133.17 42.3429 135.843 42.3429 135.843 45.6125C135.843 48.8821 133.355 48.9849 131.731 48.9849H130.538L130.456 42.3429Z" fill="#004C91"/>
<path fill-rule="evenodd" clip-rule="evenodd" d="M163.275 58.4644H173.845V30.4978H163.275L163.584 33.8086H163.358C162.864 32.6441 162.04 31.6497 160.987 30.9481C159.935 30.2465 158.7 29.8684 157.435 29.8604C150.999 29.8604 148.614 37.5512 148.614 44.6045C148.614 51.6578 151.657 59.1018 157.168 59.1018C159.944 59.1018 161.548 57.4156 163.337 54.7835H163.563M158.34 44.3372C158.34 42.2808 159.327 38.9084 160.911 38.9084C162.494 38.9084 163.543 42.0752 163.543 44.2343C163.543 46.3935 163.09 50.0744 161.219 50.0744C159.348 50.0744 158.34 46.558 158.34 44.3372Z" fill="#004C91"/>
<path fill-rule="evenodd" clip-rule="evenodd" d="M0 58.4648H13.243C21.6946 58.4648 27.6375 50.9796 27.6375 39.1761C27.6375 24.5965 20.2346 18.7358 10.5697 18.7358H0M10.4669 28.4007H11.1044C14.9292 28.4007 17.2735 33.5417 17.2735 39.135C17.2735 44.3376 14.6207 48.6559 11.1044 48.6559H10.4669V28.4007Z" fill="#004C91"/>
<path fill-rule="evenodd" clip-rule="evenodd" d="M83.4062 27.9481H92.2075V19.3525H83.4062V27.9481ZM82.8716 58.4646H92.7421V30.498H82.8716V58.4646Z" fill="#004C91"/>
<path d="M242.054 29.6344C242.691 26.0272 244.094 22.5984 246.167 19.5787L243.494 16.8849C242.644 16.0296 242.167 14.8726 242.167 13.6667C242.167 12.4608 242.644 11.3038 243.494 10.4485C243.912 10.0263 244.411 9.69124 244.959 9.46257C245.508 9.2339 246.097 9.11617 246.691 9.11617C247.286 9.11617 247.875 9.2339 248.424 9.46257C248.972 9.69124 249.47 10.0263 249.889 10.4485L252.46 13.0601C255.497 10.963 258.958 9.55901 262.597 8.94734V5.30758C262.556 4.69197 262.641 4.07436 262.848 3.49307C263.055 2.91179 263.379 2.37923 263.8 1.92844C264.222 1.47764 264.731 1.11824 265.297 0.872516C265.863 0.626794 266.474 0.5 267.091 0.5C267.708 0.5 268.318 0.626794 268.884 0.872516C269.45 1.11824 269.959 1.47764 270.381 1.92844C270.802 2.37923 271.126 2.91179 271.333 3.49307C271.54 4.07436 271.625 4.69197 271.584 5.30758V8.8034C275.288 9.46527 278.8 10.9401 281.866 13.1218L284.251 10.7364C284.67 10.3142 285.168 9.97913 285.717 9.75046C286.265 9.52179 286.854 9.40406 287.449 9.40406C288.043 9.40406 288.632 9.52179 289.181 9.75046C289.729 9.97913 290.228 10.3142 290.646 10.7364C291.496 11.5917 291.974 12.7486 291.974 13.9546C291.974 15.1605 291.496 16.3175 290.646 17.1728L288.22 19.6199C290.293 22.6395 291.695 26.0683 292.332 29.6755H295.15C295.771 29.6336 296.394 29.7198 296.98 29.9288C297.567 30.1377 298.104 30.4649 298.559 30.89C299.014 31.3152 299.376 31.8292 299.624 32.4003C299.872 32.9713 300 33.5872 300 34.2098C300 34.8323 299.872 35.4482 299.624 36.0193C299.376 36.5903 299.014 37.1044 298.559 37.5295C298.104 37.9547 297.567 38.2819 296.98 38.4908C296.394 38.6997 295.771 38.7859 295.15 38.7441H292.312C291.661 42.441 290.208 45.9505 288.055 49.0259L290.112 51.1851C290.962 52.0404 291.439 53.1973 291.439 54.4033C291.439 55.6092 290.962 56.7662 290.112 57.6215C289.693 58.0436 289.195 58.3787 288.646 58.6074C288.097 58.8361 287.508 58.9538 286.914 58.9538C286.319 58.9538 285.731 58.8361 285.182 58.6074C284.633 58.3787 284.135 58.0436 283.716 57.6215L281.516 55.4212C278.523 57.5013 275.112 58.9047 271.522 59.5339V62.8652C271.564 63.4808 271.478 64.0984 271.272 64.6797C271.065 65.261 270.74 65.7936 270.319 66.2443C269.898 66.6951 269.388 67.0545 268.822 67.3003C268.256 67.546 267.646 67.6728 267.029 67.6728C266.412 67.6728 265.801 67.546 265.235 67.3003C264.669 67.0545 264.16 66.6951 263.739 66.2443C263.317 65.7936 262.993 65.261 262.786 64.6797C262.579 64.0984 262.494 63.4808 262.536 62.8652V59.3488C258.999 58.6888 255.642 57.2871 252.686 55.2361L250.259 57.6832C249.839 58.106 249.339 58.4415 248.788 58.6704C248.238 58.8994 247.648 59.0172 247.051 59.0172C246.455 59.0172 245.865 58.8994 245.314 58.6704C244.764 58.4415 244.264 58.106 243.843 57.6832C242.998 56.8252 242.524 55.6693 242.524 54.465C242.524 53.2606 242.998 52.1047 243.843 51.2467L246.229 48.8408C244.075 45.7661 242.622 42.2563 241.972 38.559H237.859C237.238 38.6008 236.615 38.5146 236.029 38.3057C235.442 38.0968 234.905 37.7696 234.45 37.3445C233.995 36.9193 233.633 36.4053 233.385 35.8342C233.137 35.2631 233.009 34.6472 233.009 34.0247C233.009 33.4022 233.137 32.7863 233.385 32.2152C233.633 31.6441 233.995 31.1301 234.45 30.7049C234.905 30.2798 235.442 29.9526 236.029 29.7437C236.615 29.5348 237.238 29.4486 237.859 29.4904H241.623" fill="white"/>
<path fill-rule="evenodd" clip-rule="evenodd" d="M252.152 32.3694C252.451 29.6054 253.512 26.9787 255.216 24.7814L260.603 30.2102C260.21 30.8907 259.919 31.6251 259.74 32.39M257.683 22.1082C259.761 20.4272 262.255 19.34 264.901 18.9619V26.6733C264.257 26.8742 263.642 27.1576 263.071 27.5164L257.683 22.1082ZM268.541 18.8591C271.506 19.1552 274.318 20.3214 276.622 22.211L271.235 27.5987C270.42 27.0565 269.503 26.6857 268.541 26.5088V18.8591ZM279.131 24.8226C280.783 27.0181 281.813 29.6179 282.113 32.3489H274.504C274.343 31.6297 274.08 30.9372 273.723 30.2925L279.131 24.8226ZM282.072 35.9681C281.725 38.6997 280.645 41.2864 278.946 43.4532L273.538 38.045C273.941 37.409 274.246 36.7157 274.443 35.9886L282.072 35.9681ZM276.355 46.0237C274.113 47.7981 271.407 48.8903 268.561 49.1699V41.6025C269.41 41.4335 270.224 41.1205 270.967 40.6771L276.355 46.0237ZM264.942 49.0877C262.388 48.7249 259.971 47.7045 257.93 46.1265L263.338 40.6771C263.837 40.9657 264.369 41.1936 264.922 41.3557L264.942 49.0877ZM255.318 43.5766C253.558 41.3805 252.441 38.7399 252.09 35.9475H259.719C259.919 36.7449 260.253 37.5027 260.706 38.1889L255.318 43.5766ZM244.07 36.6261H238.682C237.944 36.6892 237.211 36.4591 236.642 35.9858C236.072 35.5124 235.712 34.8338 235.639 34.0968C235.677 33.7252 235.789 33.3648 235.967 33.0364C236.145 32.708 236.386 32.418 236.677 32.183C236.967 31.948 237.301 31.7727 237.659 31.667C238.018 31.5614 238.393 31.5275 238.765 31.5674H244.132C244.59 27.1909 246.28 23.034 249.005 19.5788L245.345 15.8979C244.785 15.4155 244.433 14.7347 244.364 13.9985C244.295 13.2622 244.514 12.5279 244.975 11.9497C245.545 11.4798 246.279 11.2549 247.015 11.3243C247.751 11.3936 248.43 11.7516 248.902 12.3199L252.542 15.9802C255.992 13.1893 260.179 11.4604 264.593 11.0038V5.98627C264.517 5.61294 264.525 5.22744 264.616 4.85764C264.708 4.48784 264.88 4.14299 265.121 3.84804C265.362 3.55308 265.666 3.3154 266.01 3.15218C266.354 2.98897 266.731 2.9043 267.112 2.9043C267.493 2.9043 267.869 2.98897 268.213 3.15218C268.557 3.3154 268.861 3.55308 269.102 3.84804C269.343 4.14299 269.515 4.48784 269.607 4.85764C269.698 5.22744 269.706 5.61294 269.631 5.98627V11.0038C274.065 11.474 278.266 13.2245 281.722 16.0419L285.094 12.6283C285.567 12.06 286.246 11.7021 286.982 11.6327C287.718 11.5633 288.451 11.7882 289.022 12.2582C289.488 12.8343 289.71 13.5699 289.641 14.3077C289.572 15.0454 289.217 15.7269 288.652 16.2064L285.321 19.6405C288.035 23.0784 289.724 27.2124 290.194 31.5674H294.636C295.376 31.51 296.109 31.7448 296.678 32.2215C297.247 32.6982 297.606 33.3787 297.679 34.1173C297.606 34.8543 297.246 35.5329 296.677 36.0063C296.107 36.4797 295.374 36.7097 294.636 36.6467H290.174C289.676 41.0836 287.921 45.286 285.115 48.7586L288.426 52.1311C288.741 52.342 289.006 52.6201 289.201 52.9454C289.396 53.2707 289.517 53.6352 289.554 54.0126C289.592 54.39 289.545 54.7711 289.418 55.1285C289.291 55.4859 289.087 55.8108 288.819 56.0797C288.552 56.3487 288.228 56.5552 287.871 56.6843C287.515 56.8135 287.134 56.862 286.756 56.8266C286.379 56.7912 286.013 56.6726 285.687 56.4794C285.361 56.2862 285.081 56.0232 284.868 55.7091L281.516 52.3367C278.106 55.074 273.98 56.7729 269.631 57.2309V62.2073C269.706 62.5806 269.698 62.9661 269.607 63.3359C269.515 63.7057 269.343 64.0505 269.102 64.3455C268.861 64.6404 268.557 64.8781 268.213 65.0413C267.869 65.2046 267.493 65.2892 267.112 65.2892C266.731 65.2892 266.354 65.2046 266.01 65.0413C265.666 64.8781 265.362 64.6404 265.121 64.3455C264.88 64.0505 264.708 63.7057 264.616 63.3359C264.525 62.9661 264.517 62.5806 264.593 62.2073V57.272C260.294 56.7764 256.22 55.0883 252.83 52.3984L249.231 55.997C248.762 56.564 248.087 56.9215 247.355 56.9909C246.622 57.0603 245.892 56.836 245.324 56.3672C244.856 55.7936 244.63 55.0596 244.696 54.3219C244.761 53.5843 245.112 52.9013 245.674 52.419L249.231 48.8203C246.422 45.3494 244.667 41.1462 244.173 36.7083" fill="#CE163A"/>
</g>
<defs>
<clipPath id="clip0_324_852">
<rect width="300" height="68" fill="white" transform="translate(0 0.5)"/>
</clipPath>
</defs>
</svg>
