<svg width="300" height="66" viewBox="0 0 300 66" fill="none" xmlns="http://www.w3.org/2000/svg">
<g clip-path="url(#clip0_324_866)">
<path d="M291.204 23.2542C292.607 23.6787 294.072 23.9659 295.397 24.5622C297.078 25.318 298.288 26.6611 299.085 28.3533C299.28 28.7673 299.578 29.1328 299.914 29.4955C300 35.7803 300 42.0901 300 48.5121C298.554 49.3532 297.171 50.2841 295.645 50.7578C293.909 51.2971 292.055 51.5112 290.235 51.7132C288.508 51.9048 286.756 51.9956 285.02 51.9499C283.416 51.9077 281.802 51.6739 280.481 50.59C279.235 49.567 278.29 48.2989 278.127 46.6834C277.905 44.477 277.769 42.2507 277.785 40.0343C277.805 37.2421 280.678 34.775 283.645 34.8375C285.523 34.877 287.403 34.8861 289.277 34.9933C290.321 35.053 291.355 35.2857 292.571 35.4668C292.438 33.7893 293.112 32.0673 291.573 30.7698C291.258 30.5043 290.818 30.2218 290.438 30.2255C288.502 30.2445 286.521 30.1209 284.644 30.4936C282.413 30.9366 282.534 30.5008 281.644 28.6655C281.268 27.8913 281.139 26.9887 280.957 26.1318C280.677 24.8149 280.996 24.2969 282.267 23.9822C283.062 23.7854 283.873 23.6548 284.871 23.5116C285.446 23.4376 285.827 23.3465 286.208 23.2554C286.208 23.2554 286.22 23.2445 286.34 23.2912C288.042 23.31 289.623 23.2821 291.204 23.2542ZM292.578 44.1259C292.578 43.1327 292.578 42.1396 292.578 40.8474C290.856 40.6462 289.166 40.3813 287.466 40.2756C286.44 40.2118 285.577 40.6905 285.469 41.8451C285.377 42.8306 285.253 43.8836 285.509 44.8051C285.668 45.3748 286.499 46.1309 287.048 46.1473C288.564 46.1925 290.096 45.9315 291.611 45.7127C292.32 45.6103 292.713 45.124 292.578 44.1259Z" fill="#02539E"/>
<path d="M31.4673 64.9054C31.1627 64.5829 31.0132 64.2081 30.7512 63.9455C23.0364 56.2133 15.302 48.5009 7.59164 40.7643C5.31175 38.4766 3.0986 36.1225 0.842363 33.8111C0.659947 33.6242 0.380312 33.5322 0.0729273 33.4684C0 33.1302 0 32.7198 0 32.2067C0.208857 32.0141 0.46953 31.976 0.619179 31.8266C10.9323 21.5334 21.2366 11.2314 31.5394 0.927828C31.6222 0.84505 31.6745 0.731849 31.6726 0.566426C31.9367 0.5 32.2692 0.5 32.7015 0.5C33.5231 1.42115 34.1766 2.40785 34.9828 3.24799C36.1714 4.48664 37.5044 5.58566 38.7133 6.80614C42.5798 10.7096 46.4013 14.6574 50.2704 18.5583C54.7055 23.0298 59.1704 27.4718 63.6324 31.9165C63.9093 32.1923 64.2743 32.3795 64.944 32.8515C64.2844 33.2984 63.8731 33.4921 63.5702 33.7944C53.5554 43.7917 43.5506 53.799 33.5469 63.8073C33.239 64.1154 32.9579 64.4502 32.7328 64.839C32.3908 64.9054 31.9804 64.9054 31.4673 64.9054ZM27.8932 57.8431C28.765 58.6993 29.6367 59.5556 30.5991 60.5504C31.0633 61.0681 31.5274 61.5858 32.0582 62.1778C33.0979 61.0795 33.9795 60.1482 35.0025 59.1605C36.0217 58.1157 37.041 57.0709 38.2069 55.9671C38.7951 55.3474 39.3833 54.7276 40.1119 54.051C40.3893 53.7602 40.6667 53.4694 41.0919 53.1099C41.5707 52.5986 42.0496 52.0874 42.6588 51.5103C42.9622 51.1696 43.2656 50.8289 43.7221 50.458C44.3109 49.8451 44.8997 49.2322 45.634 48.5571C46.1445 48.0198 46.6551 47.4825 47.3116 46.8796C48.0961 46.0388 48.8806 45.1979 49.8147 44.3138C51.1584 42.9547 52.5022 41.5955 53.9895 40.1644C56.0808 38.0894 58.1773 36.0196 60.2563 33.9324C60.4956 33.6921 60.6374 33.3546 60.8124 33.059C60.8124 33.059 60.8107 33.0712 60.9201 33.0296C60.988 32.983 61.0294 32.9191 61.0353 32.671C60.2514 31.9213 59.4675 31.1716 58.606 30.2787C58.1479 29.8466 57.6898 29.4146 57.2073 28.8214C56.7312 28.3279 56.2551 27.8344 55.6467 27.2624C55.3741 26.9609 55.1015 26.6595 54.7594 26.216C54.2251 25.7027 53.6909 25.1893 53.0883 24.5412C52.824 24.336 52.5597 24.1309 52.1926 23.7962C51.5568 23.1313 50.9209 22.4665 50.2131 21.6599C49.4395 20.9077 48.6658 20.1555 47.8202 19.2626C47.2066 18.6692 46.5931 18.0757 45.9073 17.3427C45.3733 16.831 44.8394 16.3192 44.2337 15.6657C43.4264 14.9094 42.6191 14.1531 41.7637 13.2305C40.9837 12.4865 40.2037 11.7424 39.3668 10.8322C38.3528 9.84045 37.3388 8.84869 36.2596 7.70067C35.2 6.651 34.1405 5.60132 32.9959 4.40275C32.4732 4.22279 32.0827 3.39882 31.3763 4.16592C29.9269 5.73983 28.4354 7.27496 26.8195 8.87921C26.406 9.31971 25.9925 9.76022 25.4323 10.2745C25.001 10.7343 24.5697 11.194 23.9901 11.7048C23.8154 11.8832 23.6407 12.0615 23.3362 12.3246C22.9915 12.6995 22.6468 13.0743 22.159 13.5137C21.7857 13.9309 21.4125 14.348 20.8875 14.8328C20.3145 15.4182 19.7415 16.0036 19.025 16.6519C18.4326 17.2552 17.8403 17.8585 17.0942 18.5107C16.5554 19.1169 16.0166 19.7231 15.3485 20.3997C15.0105 20.7483 14.6724 21.0969 14.1939 21.5381C13.7396 22.0077 13.2852 22.4772 12.6939 23.0109C12.3789 23.3467 12.0639 23.6825 11.6078 24.0855C10.8253 24.9076 10.0428 25.7298 9.12174 26.6248C8.13094 27.6402 7.14014 28.6556 6.00437 29.7321C4.97753 30.705 3.95069 31.6779 2.96055 32.6159C4.43771 34.1478 5.77475 35.5344 7.18344 37.0683C8.1112 37.9736 9.03896 38.8789 10.0171 39.9126C10.4837 40.3558 10.9503 40.799 11.4775 41.3785C11.7004 41.5705 11.9233 41.7624 12.216 42.0996C12.6702 42.5316 13.1244 42.9635 13.6525 43.5395C14.2636 44.1284 14.8747 44.7172 15.5608 45.4511C16.1685 46.0415 16.7762 46.6318 17.4678 47.3656C18.2558 48.1345 19.0438 48.9034 19.9065 49.8061C20.5173 50.4013 21.1282 50.9964 21.8158 51.7243C22.4119 52.3017 23.008 52.879 23.6915 53.5942C24.1107 54.0048 24.53 54.4153 25.0195 54.9652C25.5571 55.4776 26.0948 55.99 26.7015 56.6386C27.0756 56.9938 27.4497 57.349 27.8932 57.8431Z" fill="#FDFEFD"/>
<path d="M126.376 51.7372C123.204 51.7265 120.072 51.4499 117.192 49.9814C116.595 49.6771 116.155 49.0643 115.658 48.3965C115.662 47.6416 115.642 47.0838 115.642 46.526C115.639 35.8843 115.637 25.2425 115.635 14.6007C116.86 13.7865 118.237 13.7888 119.627 13.855C120.06 13.8757 120.499 13.9433 120.926 13.897C121.703 13.8125 122.316 14.0297 122.784 14.8731C122.813 18.0899 122.808 21.1149 122.846 24.1394C122.85 24.4144 123.128 24.686 123.278 24.9591C125.005 24.0549 126.841 23.5238 128.789 23.4913C130.379 23.4647 132.03 23.2861 133.551 23.6319C136.782 24.3669 138.345 26.6579 138.378 30.3967C138.363 35.0357 138.374 39.4585 138.386 43.8813C138.313 46.7081 137.809 49.3751 135.16 50.9888C134.433 51.4319 133.48 51.5053 132.419 51.7312C130.263 51.7218 128.32 51.7295 126.376 51.7372ZM130.867 43.9299C130.9 40.1566 130.935 36.3833 130.958 32.6099C130.959 32.5231 130.829 32.4355 130.783 32.186C130.786 30.9894 130.094 30.2691 129.03 30.1946C126.956 30.0492 125.002 30.5522 122.896 31.285C122.875 35.6583 122.853 40.0315 122.843 44.4048C122.843 44.5393 122.969 44.674 123.151 44.9534C123.525 45.0584 123.893 45.2186 124.273 45.2575C125.18 45.3501 126.142 45.2208 126.993 45.477C128.99 46.0782 129.794 45.841 130.867 43.9299Z" fill="#01539E"/>
<path d="M177.67 24.9513C179.905 23.8153 182.341 23.2812 184.782 23.2992C186.512 23.3119 188.356 23.7612 189.935 24.4827C191.908 25.3841 192.537 27.3834 192.658 29.6106C192.626 30.4279 192.708 31.0972 192.712 31.767C192.735 35.9545 192.74 40.142 192.751 44.3295C192.726 47.1027 191.987 49.6427 189.42 51.0102C188.148 51.6883 186.504 51.6704 184.867 51.873C182.517 51.6948 180.328 51.611 178.139 51.5273C175.786 51.5568 173.562 51.023 171.467 49.9635C171.126 49.7912 170.841 49.5093 170.496 49.1262C170.379 48.9389 170.296 48.9034 170.214 48.868C170.214 48.868 170.23 48.8654 170.248 48.7826C170.175 48.6319 170.083 48.564 169.992 48.4961C169.992 48.4961 170.001 48.5029 170.033 48.391C170.04 45.8465 169.994 43.414 169.994 40.9815C169.998 32.2047 170.017 23.4279 170.031 14.6511C171.967 13.3713 174.132 13.9998 176.208 13.9553C176.501 13.9491 176.805 14.4172 177.131 14.8581C177.163 18.1007 177.156 21.151 177.193 24.2007C177.197 24.4528 177.504 24.7012 177.67 24.9513ZM177.497 44.9448C178.392 45.0539 179.288 45.1561 180.182 45.2754C180.603 45.3316 181.048 45.3506 181.434 45.5067C183.234 46.2346 184.67 45.5026 185.298 43.5455C185.381 43.3801 185.537 43.2149 185.538 43.0491C185.553 39.5648 185.559 36.0803 185.533 32.596C185.531 32.3572 185.264 32.1204 185.078 31.729C184.95 30.5592 184.329 30.0107 183.136 30.208C181.227 30.5239 179.318 30.8491 177.249 31.2881C177.226 35.6534 177.202 40.0186 177.189 44.3839C177.189 44.5195 177.315 44.6554 177.497 44.9448Z" fill="#01539D"/>
<path d="M260.03 50.554C259.641 51.0194 259.29 51.8444 258.858 51.8887C256.849 52.0951 254.818 52.0749 252.872 51.0169C252.831 38.7463 252.829 26.6706 252.827 14.5949C253.626 14.3638 254.413 14.0119 255.227 13.9309C256.358 13.8184 257.515 13.8405 258.647 13.9471C259.093 13.9891 259.503 14.4138 259.891 14.7869C259.901 15.4144 259.989 15.9193 259.99 16.4243C259.999 22.3085 259.996 28.1927 259.996 34.0768C259.996 34.4827 259.996 34.8886 259.996 35.2945C260.082 35.299 260.168 35.3035 260.254 35.308C260.333 35.1073 260.412 34.9065 260.491 34.7057C262.571 31.2581 264.593 27.7727 266.784 24.3977C267.177 23.7929 268.25 23.4118 269.047 23.3362C270.407 23.2073 271.832 23.2337 273.166 23.5043C274.812 23.8379 275.01 24.5111 274.12 25.9505C272.346 28.8177 270.538 31.664 268.743 34.5177C268.45 34.9828 268.133 35.4329 267.853 35.9055C267.263 36.902 268.119 37.5663 268.52 38.2433C270.981 42.3913 273.516 46.4949 275.969 50.5202C275.323 51.6617 274.529 51.9929 273.561 51.9777C272.648 51.9634 271.735 51.9049 270.821 51.8923C268.15 51.8553 267.316 49.7224 266.22 47.8824C264.312 44.6793 262.399 41.4787 260.486 38.1086C260.383 37.8024 260.282 37.6646 260.03 37.3196C260.03 41.9114 260.03 46.2327 260.03 50.554Z" fill="#02539E"/>
<path d="M95.0221 28.7689C96.4092 30.3507 96.4063 33.9085 94.8132 35.6918C90.857 35.6841 87.104 35.6841 83.3375 35.6841C83.3375 40.7797 83.3375 45.664 83.3375 50.5484C82.9089 51.9536 81.7834 52.0755 80.5983 51.9687C79.237 51.846 77.8758 51.6793 76.5315 51.4377C76.1503 51.3692 75.8281 50.9724 75.4642 50.5351C75.4518 43.648 75.4599 36.9521 75.4545 30.2562C75.4503 25.1156 75.429 19.975 75.4153 14.8344C75.752 14.5264 76.0888 14.2184 76.6231 13.9111C83.8728 13.9113 90.925 13.9107 97.9771 13.9102C99.0612 14.6495 99.2593 15.6744 98.9795 16.8853C98.7009 18.0917 98.4741 19.31 98.2066 20.519C98.1787 20.6452 98.0291 20.7444 97.7319 20.835C92.8098 20.8139 88.0917 20.8139 83.3496 20.8139C83.3496 23.5022 83.3496 26.0028 83.4018 28.5893C87.3101 28.7064 91.1661 28.7376 95.0221 28.7689Z" fill="#02549E"/>
<path d="M205.033 23.2577C205.033 23.2577 205.051 23.2423 205.176 23.2871C206.929 23.3081 208.556 23.2843 210.184 23.2605C211.142 23.5233 212.117 23.735 213.054 24.0581C216.187 25.1382 217.894 27.4568 218.603 30.6024C218.714 31.0961 218.769 31.6025 218.824 32.3154C218.809 37.5143 218.818 42.5009 218.827 47.4874C218.59 48.8627 217.484 49.5065 216.426 50.0252C214.034 51.1981 211.433 51.6087 208.787 51.7378C207.125 51.8188 205.46 52.0079 203.802 51.9569C199.908 51.8371 197.453 50.2972 196.764 46.2354C196.462 44.4535 196.042 42.6146 196.605 40.6144C197.027 39.1145 197.093 37.5557 198.333 36.4735C199.541 35.4193 200.962 34.8668 202.633 34.9495C204.366 35.0353 206.107 34.9466 207.844 34.9899C208.663 35.0103 209.478 35.2066 210.298 35.2269C210.578 35.2338 211.113 34.9451 211.111 34.7955C211.101 33.7222 211.145 32.602 210.848 31.5918C210.589 30.7103 209.762 30.1472 208.736 30.2139C206.734 30.3441 204.732 30.4909 202.733 30.6763C201.876 30.7559 201.165 30.5067 200.893 29.7156C200.389 28.2518 199.989 26.7483 199.632 25.2409C199.574 24.9928 199.894 24.451 200.144 24.3695C201.18 24.0327 202.255 23.8207 203.498 23.5498C204.131 23.4437 204.582 23.3507 205.033 23.2577ZM205.906 46.2211C207.642 46.0402 209.377 45.8592 211.158 45.6735C211.158 44.8548 211.158 44.3424 211.158 43.8299C211.158 40.8479 211.172 40.75 208.296 40.3348C207.191 40.1754 205.825 40.2619 204.9 40.7947C203.532 41.5824 204.051 45.4153 205.462 46.2053C205.524 46.2402 205.618 46.2189 205.906 46.2211Z" fill="#03549E"/>
<path d="M164.457 47.4317C164.024 49.3262 162.449 50.0413 160.89 50.4825C158.793 51.0763 156.612 51.4236 154.445 51.7099C152.763 51.9322 151.044 52.0034 149.346 51.9564C146.387 51.8745 143.968 50.7852 142.768 47.8403C142.618 47.4715 142.59 47.0531 142.5 46.4911C142.407 46.0242 142.319 45.7238 142.23 45.4235C142.23 45.4235 142.217 45.4073 142.26 45.2833C142.291 43.5294 142.28 41.8994 142.268 40.2694C142.245 36.508 145.763 34.7652 148.579 34.9511C150.19 35.0575 151.813 34.9437 153.43 34.9903C154.29 35.0151 155.145 35.1985 156.006 35.2496C156.258 35.2647 156.672 35.1447 156.761 34.9636C157.819 32.8014 156.136 30.1445 153.735 30.2377C151.931 30.3077 150.133 30.5184 148.332 30.6743C147.436 30.7519 146.813 30.4462 146.511 29.5411C145.991 27.9774 145.432 26.4261 144.777 24.5461C146.465 24.143 147.795 23.7166 149.157 23.5228C152.06 23.1101 155.009 22.8813 157.847 23.7808C161.059 24.7989 163.458 26.7369 164.078 30.3085C164.171 30.8455 164.345 31.3685 164.396 32.0634C164.292 37.1596 164.271 42.0904 164.262 47.0213C164.262 47.158 164.389 47.2949 164.457 47.4317ZM154.156 40.3616C153.287 40.3244 152.383 40.1253 151.561 40.3036C150.953 40.4354 150.088 40.9796 149.979 41.48C149.737 42.5871 149.766 43.8055 149.96 44.9309C150.042 45.4112 150.759 46.0126 151.286 46.134C152.152 46.3335 153.155 46.3905 153.998 46.15C157.269 45.217 156.789 46.083 156.813 42.8276C156.828 40.7855 156.773 40.7379 154.7 40.4888C154.582 40.4746 154.463 40.4715 154.156 40.3616Z" fill="#02549E"/>
<path d="M223.863 27.7556C224.647 26.0355 226.333 25.5427 227.87 24.9335C231.271 23.5849 234.849 23.2689 238.485 23.2035C239.915 23.1778 241.25 23.3237 242.547 23.8443C245.176 24.8999 246.279 27.0444 246.593 29.9157C246.58 37.1007 246.596 44.0748 246.613 51.0488C246.015 51.3582 245.415 51.9307 244.82 51.9262C243.217 51.9142 241.611 51.6896 240.018 51.4661C239.712 51.4231 239.459 51.0006 239.199 50.5508C239.219 44.7689 239.231 39.1893 239.212 33.6097C239.21 32.9551 239.041 32.301 238.949 31.6466C238.117 30.0888 237.627 29.8972 235.813 30.3342C234.378 30.6799 232.933 30.9851 231.329 31.4032C231.126 31.7295 231.052 31.9609 231.051 32.1924C231.045 38.0853 231.043 43.9781 231.055 49.871C231.055 50.1692 231.181 50.4672 231.249 50.7653C230.569 52.2533 229.205 52.1017 228 51.9442C226.621 51.7638 225.279 51.2982 223.895 50.7631C223.867 42.965 223.865 35.3603 223.863 27.7556Z" fill="#02539E"/>
<path d="M109.188 50.799C108.715 51.1916 108.268 51.8795 107.764 51.9244C105.846 52.0951 103.914 52.0223 102.062 51.0325C102.015 41.9536 102.003 33.0621 101.992 24.1706C102.417 24.0082 102.83 23.7676 103.269 23.6982C104.507 23.5027 105.759 23.2532 107 23.275C107.661 23.2867 108.314 23.8157 109.036 24.2765C109.128 24.9969 109.175 25.552 109.176 26.1071C109.183 34.3377 109.185 42.5684 109.188 50.799Z" fill="#01539D"/>
<path d="M108.931 20.6758C108.657 20.881 108.385 21.2604 108.11 21.2635C105.991 21.2868 103.816 21.709 101.8 20.3732C101.766 18.3217 101.757 16.4649 101.749 14.6081C101.749 14.6081 101.753 14.6242 101.829 14.638C101.933 14.5574 101.96 14.4629 101.987 14.3685C101.987 14.3685 101.994 14.3856 102.053 14.4261C102.352 14.3797 102.591 14.2927 102.831 14.2058C104.862 13.8067 106.889 13.5001 108.897 14.6329C108.928 16.7766 108.929 18.7262 108.931 20.6758Z" fill="#02539E"/>
<path d="M252.743 14.6575C252.829 26.6706 252.831 38.7463 252.83 50.9366C252.749 50.7634 252.604 50.4758 252.603 50.1879C252.592 38.5222 252.594 26.8564 252.598 15.1906C252.598 15.0337 252.637 14.8769 252.743 14.6575Z" fill="#3274B0"/>
<path d="M75.3232 14.887C75.4292 19.975 75.4505 25.1156 75.4547 30.2562C75.4601 36.9521 75.452 43.648 75.4323 50.457C75.3365 50.2888 75.1898 50.0076 75.1895 49.7263C75.1785 38.2485 75.1806 26.7707 75.1833 15.2929C75.1833 15.1751 75.2143 15.0573 75.3232 14.887Z" fill="#B6CDE3"/>
<path d="M169.924 14.6699C170.017 23.4281 169.998 32.2048 169.994 40.9816C169.993 43.4142 170.04 45.8467 170.031 48.3966C169.913 48.2269 169.756 47.94 169.756 47.6529C169.746 36.8211 169.75 25.9892 169.755 15.1574C169.755 15.0011 169.795 14.8449 169.924 14.6699Z" fill="#96B8D6"/>
<path d="M115.542 14.6501C115.637 25.2423 115.639 35.8841 115.642 46.5258C115.642 47.0836 115.662 47.6414 115.658 48.3136C115.562 48.1891 115.41 47.9503 115.41 47.7113C115.4 36.7857 115.403 25.8601 115.406 14.9345C115.406 14.8562 115.434 14.778 115.542 14.6501Z" fill="#87ADD0"/>
<path d="M101.899 24.2231C102.003 33.062 102.015 41.9535 102.014 50.9608C101.919 50.7954 101.768 50.5143 101.767 50.2331C101.755 41.6985 101.758 33.164 101.76 24.6294C101.76 24.5115 101.791 24.3937 101.899 24.2231Z" fill="#87ADD0"/>
<path d="M109.281 50.7484C109.185 42.5682 109.183 34.3376 109.175 26.1069C109.175 25.5518 109.128 24.9967 109.096 24.3308C109.2 24.3759 109.408 24.5318 109.408 24.6877C109.407 33.3578 109.389 42.0279 109.281 50.7484Z" fill="#9DBCD9"/>
<path d="M83.4291 50.4983C83.3376 45.664 83.3376 40.7797 83.3376 35.6841C87.1041 35.6841 90.8571 35.6841 94.7236 35.6933C94.4752 35.7791 94.1138 35.9202 93.7516 35.9221C90.4124 35.9391 87.0731 35.9321 83.5205 35.9321C83.5205 40.7881 83.5205 45.6181 83.4291 50.4983Z" fill="#B6CDE3"/>
<path d="M223.771 27.8093C223.865 35.3602 223.867 42.9649 223.86 50.6824C223.775 50.5535 223.633 50.3117 223.633 50.0698C223.622 42.785 223.624 35.5002 223.627 28.2153C223.627 28.0979 223.661 27.9806 223.771 27.8093Z" fill="#B6CDE3"/>
<path d="M83.3496 28.5032C83.3496 26.0026 83.3496 23.502 83.3496 20.8137C88.0917 20.8137 92.8098 20.8137 97.6453 20.8263C97.3599 20.9228 96.9572 21.0778 96.5539 21.0795C92.2652 21.0972 87.9763 21.0905 83.5624 21.0905C83.5624 23.5362 83.5624 25.909 83.5127 28.3908C83.463 28.4997 83.3496 28.5032 83.3496 28.5032Z" fill="#B6CDE3"/>
<path d="M97.9211 13.818C90.9251 13.9106 83.873 13.9111 76.7073 13.9055C76.7177 13.8232 76.8418 13.6803 76.9657 13.6804C83.9321 13.688 90.8985 13.7076 97.9211 13.818Z" fill="#6D9CC6"/>
<path d="M260.393 34.6711C260.412 34.9064 260.333 35.1072 260.254 35.3079C260.168 35.3034 260.082 35.2989 259.996 35.2944C259.996 34.8885 259.996 34.4826 259.996 34.0767C259.996 28.1926 259.999 22.3084 259.99 16.4242C259.989 15.9192 259.901 15.4143 259.933 14.8594C260.093 15.2073 260.243 15.6049 260.245 16.0031C260.273 22.2142 260.282 28.4254 260.393 34.6711Z" fill="#AFC8E0"/>
<path d="M246.705 50.9969C246.596 44.0747 246.58 37.1007 246.584 30.0122C246.686 30.0589 246.84 30.2202 246.84 30.3813C246.835 37.2359 246.815 44.0904 246.705 50.9969Z" fill="#A6C3DC"/>
<path d="M231.264 50.6546C231.181 50.467 231.055 50.1691 231.055 49.8708C231.043 43.978 231.045 38.0851 231.051 32.1922C231.051 31.9608 231.126 31.7294 231.252 31.4409C231.32 37.0961 231.303 42.8084 231.285 48.5206C231.283 49.1951 231.281 49.8697 231.264 50.6546Z" fill="#3979B3"/>
<path d="M238.958 31.7561C239.041 32.3008 239.21 32.9549 239.212 33.6096C239.231 39.1891 239.219 44.7687 239.201 50.4618C239.105 50.2945 238.957 50.0137 238.957 49.7327C238.95 43.7771 238.961 37.8214 238.958 31.7561Z" fill="#B6CDE3"/>
<path d="M164.471 47.3195C164.389 47.295 164.262 47.1581 164.263 47.0214C164.272 42.0905 164.292 37.1597 164.386 32.1592C164.469 37.1288 164.477 42.168 164.471 47.3195Z" fill="#3979B3"/>
<path d="M218.919 47.4296C218.818 42.5009 218.808 37.5143 218.816 32.4136C218.912 32.4222 219.062 32.5452 219.061 32.6679C219.053 37.5692 219.031 42.4705 218.919 47.4296Z" fill="#B1CAE1"/>
<path d="M192.842 44.2783C192.74 40.1421 192.735 35.9546 192.712 31.7672C192.708 31.0974 192.625 30.4281 192.657 29.7083C192.816 29.8181 192.967 29.9783 192.967 30.1384C192.965 34.8345 192.948 39.5307 192.842 44.2783Z" fill="#B1CAE1"/>
<path d="M260.121 50.5032C260.03 46.2327 260.03 41.9114 260.03 37.3196C260.282 37.6646 260.383 37.8024 260.483 38.0223C260.406 38.4594 260.268 38.8138 260.265 39.1693C260.235 42.9302 260.227 46.6913 260.121 50.5032Z" fill="#AFC8E0"/>
<path d="M138.477 43.8254C138.374 39.4584 138.363 35.0357 138.369 30.4988C138.467 30.5471 138.618 30.7096 138.617 30.8719C138.611 35.1712 138.588 39.4704 138.477 43.8254Z" fill="#B1CAE1"/>
<path d="M83.4018 28.5893C83.3496 28.5034 83.4629 28.4999 83.5195 28.5025C87.3746 28.524 91.1731 28.543 94.9968 28.6654C91.1661 28.7377 87.3101 28.7064 83.4018 28.5893Z" fill="#93B5D5"/>
<path d="M123.192 24.8975C123.128 24.6858 122.85 24.4142 122.846 24.1392C122.808 21.1147 122.813 18.0897 122.818 14.9514C122.909 15.1954 123.051 15.552 123.055 15.9102C123.086 18.8853 123.092 21.8607 123.192 24.8975Z" fill="#9DBCD9"/>
<path d="M177.574 24.9015C177.504 24.7013 177.196 24.4529 177.193 24.2008C177.156 21.1511 177.163 18.1008 177.166 14.9355C177.254 15.1802 177.399 15.5391 177.404 15.8999C177.444 18.8836 177.457 21.8676 177.574 24.9015Z" fill="#8CB0D3"/>
<path d="M178.19 51.6144C180.328 51.611 182.518 51.6948 184.758 51.8595C182.621 51.8608 180.431 51.7811 178.19 51.6144Z" fill="#FDFEFD"/>
<path d="M126.427 51.8315C128.319 51.7294 130.263 51.7217 132.32 51.7275C131.757 51.816 131.081 51.9424 130.404 51.955C129.096 51.9793 127.787 51.9393 126.427 51.8315Z" fill="#93B5D5"/>
<path d="M109.023 20.6188C108.929 18.7262 108.928 16.7766 108.936 14.7134C109.022 15.357 109.151 16.1132 109.165 16.8716C109.188 18.1009 109.136 19.3316 109.023 20.6188Z" fill="#93B5D5"/>
<path d="M101.651 14.6504C101.757 16.4649 101.766 18.3217 101.764 20.2926C101.675 19.5714 101.555 18.7375 101.53 17.9006C101.497 16.8326 101.542 15.7622 101.651 14.6504Z" fill="#A6C3DC"/>
<path d="M142.159 40.2808C142.28 41.8994 142.291 43.5294 142.268 45.2765C142.148 44.5181 142.024 43.6441 141.991 42.7667C141.96 41.9437 142.026 41.1171 142.159 40.2808Z" fill="#AFC8E0"/>
<path d="M210.166 23.1549C208.556 23.2843 206.928 23.3081 205.184 23.296C205.938 23.1755 206.807 23.0544 207.679 23.017C208.5 22.9819 209.325 23.0351 210.166 23.1549Z" fill="#B1CAE1"/>
<path d="M291.146 23.163C289.623 23.2821 288.042 23.3101 286.345 23.2981C287.848 23.196 289.468 23.1338 291.146 23.163Z" fill="#AFC8E0"/>
<path d="M204.924 23.2554C204.582 23.3506 204.131 23.4436 203.582 23.5073C203.928 23.403 204.372 23.3281 204.924 23.2554Z" fill="#B1CAE1"/>
<path d="M286.101 23.2539C285.827 23.3464 285.446 23.4376 284.965 23.5089C285.242 23.4102 285.618 23.3313 286.101 23.2539Z" fill="#AFC8E0"/>
<path d="M142.228 45.5261C142.319 45.7239 142.407 46.0242 142.478 46.4204C142.383 46.2204 142.304 45.9246 142.228 45.5261Z" fill="#AFC8E0"/>
<path d="M102.751 14.1919C102.592 14.2928 102.352 14.3797 102.046 14.4201C102.211 14.3084 102.441 14.2432 102.751 14.1919Z" fill="#A6C3DC"/>
<path d="M169.988 48.5843C170.083 48.564 170.175 48.6319 170.246 48.7903C170.144 48.8114 170.064 48.7419 169.988 48.5843Z" fill="#96B8D6"/>
<path d="M170.228 48.9337C170.296 48.9034 170.379 48.9388 170.465 49.0498C170.393 49.0833 170.317 49.0414 170.228 48.9337Z" fill="#96B8D6"/>
<path d="M101.92 14.3787C101.96 14.4628 101.933 14.5573 101.821 14.6357C101.776 14.5428 101.814 14.4659 101.92 14.3787Z" fill="#A6C3DC"/>
<path d="M26.9614 8.82596C28.4355 7.27487 29.927 5.73974 31.3764 4.16583C32.0828 3.39873 32.4733 4.2227 32.9614 4.51326C32.4872 5.18906 31.8907 5.69528 31.65 6.33531C31.3849 7.04006 31.4468 7.86779 31.3657 8.7415C31.2064 9.89251 31.0476 10.944 30.8854 12.0928C30.7251 13.0827 30.5682 13.9753 30.3973 14.9637C30.2331 16.0328 30.0829 17.0061 29.9275 18.0751C29.7707 18.9063 29.619 19.6416 29.4626 20.4767C29.3828 21.2282 29.3077 21.88 29.2203 22.6292C29.1173 23.4545 29.0265 24.1825 28.9019 24.9983C28.7423 25.9089 28.6165 26.7319 28.4513 27.6294C28.3673 27.9747 28.3227 28.2454 28.2659 28.6125C28.1785 29.2825 28.1033 29.8562 28.0061 30.521C27.9153 31.1096 27.8464 31.6071 27.7374 32.1869C27.6537 32.6944 27.6102 33.1196 27.5255 33.6289C27.4187 34.2139 27.3532 34.7147 27.2462 35.302C27.0741 36.2912 26.9434 37.194 26.805 38.1025C26.7972 38.1082 26.7821 38.12 26.7075 38.1177C26.5334 38.1192 26.434 38.1229 26.2461 38.1017C25.7383 38.0002 25.319 37.9236 24.812 37.8153C24.062 37.5753 23.3998 37.3672 22.7744 37.0704C22.8683 36.7934 22.9495 36.6088 22.9785 36.4163C23.5549 32.5968 24.1095 28.7739 24.7006 24.9566C25.5027 19.7765 26.3346 14.601 27.1377 9.42104C27.1663 9.23623 27.024 9.02492 26.9614 8.82596Z" fill="#86BB43"/>
<path d="M26.8125 38.0968C26.9432 37.194 27.0739 36.2912 27.3528 35.3028C31.0638 34.7124 34.6309 34.2366 38.188 33.695C41.9789 33.1177 45.7596 32.4737 49.546 31.867C52.5908 31.379 55.6376 30.9031 58.6835 30.4219C59.4674 31.1715 60.2513 31.9212 60.9885 32.7797C60.8754 32.933 60.8316 32.9939 60.8106 33.0711C60.8106 33.0711 60.8123 33.0589 60.7117 33.057C58.2038 33.4478 55.7965 33.8406 53.2823 34.236C51.331 34.4935 49.4867 34.7484 47.5531 35.0229C46.8079 35.1723 46.1521 35.302 45.3964 35.4315C44.7226 35.5199 44.1488 35.6085 43.4797 35.6936C42.7209 35.8087 42.0574 35.9274 41.2932 36.0606C40.7887 36.1205 40.3849 36.1659 39.8907 36.2063C39.2118 36.3078 38.6234 36.4145 37.9424 36.5367C37.6028 36.5928 37.356 36.6334 37.0161 36.6709C36.3443 36.7724 35.7656 36.8771 35.0786 36.9916C33.6863 37.1983 32.4023 37.3952 31.0174 37.5886C29.5485 37.7557 28.1805 37.9262 26.8125 38.0968Z" fill="#F1F7DE"/>
<path d="M31.1184 37.5921C32.4025 37.3952 33.6865 37.1983 35.0792 37.1123C36.1453 43.4908 37.1028 49.7584 38.0603 56.026C37.0411 57.0708 36.0218 58.1156 34.8375 59.1478C34.5255 58.8316 34.2953 58.5413 34.2441 58.2223C33.6623 54.5928 33.0981 50.9605 32.549 47.3259C32.0592 44.0832 31.5943 40.8368 31.1184 37.5921Z" fill="#95C73E"/>
<path d="M31.0175 37.5886C31.5942 40.8369 32.0591 44.0833 32.5489 47.3259C33.098 50.9605 33.6622 54.5929 34.244 58.2223C34.2952 58.5413 34.5254 58.8316 34.7667 59.1761C33.9795 60.1482 33.0979 61.0794 32.0581 62.1778C31.5274 61.5858 31.0632 61.0681 30.657 60.4596C30.931 60.0467 31.3446 59.7125 31.3259 59.4046C31.272 58.5182 31.0434 57.6425 30.8838 56.6734C30.8023 56.2443 30.7204 55.9045 30.6382 55.4713C30.4796 54.7223 30.3211 54.0668 30.161 53.32C30.0092 52.7299 29.8589 52.2311 29.7049 51.6342C29.5434 50.8843 29.3856 50.2326 29.2254 49.4837C29.0631 48.7332 28.9032 48.0798 28.7431 47.3277C28.579 46.497 28.4151 45.765 28.2516 44.941C28.226 44.6676 28.2 44.4861 28.1707 44.2523C28.1378 44.1325 28.0899 44.0826 28.0258 43.9564C27.8694 43.2853 27.7108 42.7081 27.556 42.0386C27.4073 41.3834 27.2547 40.8204 27.0937 40.1586C26.9842 39.4132 26.8831 38.7666 26.782 38.1201C26.782 38.1201 26.7971 38.1082 26.8048 38.1025C28.1806 37.9263 29.5486 37.7557 31.0175 37.5886Z" fill="#88C241"/>
<path d="M28.9355 24.9106C29.0263 24.1826 29.1171 23.4546 29.3187 22.625C30.4845 22.4008 31.5433 22.304 32.5939 22.1506C35.4761 21.7296 38.3645 21.339 41.2319 20.832C43.4664 20.4369 45.6731 19.8853 47.8922 19.4033C48.6658 20.1555 49.4394 20.9077 50.1917 21.8034C48.6652 22.2183 47.1645 22.5169 45.6542 22.7555C41.6399 23.3899 37.6268 24.036 33.6021 24.5981C32.0621 24.8132 30.492 24.8128 28.9355 24.9106Z" fill="#C2DD86"/>
<path d="M28.9017 24.9983C30.4919 24.8128 32.062 24.8132 33.602 24.5981C37.6267 24.0359 41.6399 23.3898 45.6542 22.7555C47.1644 22.5168 48.6651 22.2182 50.2276 21.8743C50.9208 22.4664 51.5567 23.1313 52.1331 23.8731C51.0977 24.1136 50.1233 24.2875 49.1453 24.4386C45.1964 25.049 41.2473 25.6589 37.2963 26.256C34.3626 26.6993 31.4259 27.1226 28.4905 27.5548C28.6163 26.7319 28.7421 25.909 28.9017 24.9983Z" fill="#C8E093"/>
<path d="M58.6447 30.3504C55.6376 30.9033 52.5908 31.3792 49.546 31.8671C45.7596 32.4739 41.9789 33.1178 38.188 33.6951C34.6309 34.2368 31.0638 34.7125 27.3942 35.2165C27.353 34.7149 27.4186 34.214 27.6308 33.6281C28.991 33.3849 30.2074 33.2461 31.4174 33.0649C34.9709 32.533 38.5211 31.9794 42.0741 31.4435C45.433 30.9369 48.7971 30.4633 52.1523 29.9331C53.853 29.6643 55.539 29.3024 57.2317 28.9827C57.6897 29.4147 58.1478 29.8467 58.6447 30.3504Z" fill="#E8F2CF"/>
<path d="M57.2196 28.902C55.5392 29.3024 53.8532 29.6642 52.1525 29.933C48.7973 30.4633 45.4332 30.9368 42.0743 31.4434C38.5213 31.9793 34.9711 32.5329 31.4176 33.0648C30.2076 33.246 28.9912 33.3848 27.6722 33.544C27.6102 33.1197 27.6537 32.6944 27.8391 32.1868C29.8897 31.7856 31.794 31.4355 33.7085 31.155C37.3805 30.617 41.0602 30.1314 44.7332 29.5994C47.6639 29.1749 50.5962 28.7533 53.5126 28.2431C54.2967 28.1059 55.0251 27.6503 55.7791 27.3408C56.2552 27.8344 56.7313 28.3279 57.2196 28.902Z" fill="#E0EDC1"/>
<path d="M55.7129 27.3017C55.025 27.6504 54.2966 28.106 53.5125 28.2432C50.5962 28.7533 47.6639 29.175 44.7331 29.5995C41.0602 30.1314 37.3805 30.617 33.7084 31.1551C31.794 31.4356 29.8897 31.7857 27.8792 32.1046C27.8464 31.6073 27.9153 31.1097 28.1073 30.5205C31.3953 29.9539 34.5619 29.4904 37.7246 29.0011C41.2783 28.4513 44.8272 27.8708 48.3803 27.3181C50.5277 26.984 52.6793 26.6772 54.8291 26.3582C55.1016 26.6596 55.3742 26.961 55.7129 27.3017Z" fill="#DAEAB5"/>
<path d="M54.7943 26.2871C52.6793 26.6772 50.5277 26.984 48.3803 27.3181C44.8272 27.8708 41.2783 28.4513 37.7246 29.0011C34.562 29.4904 31.3953 29.9539 28.1292 30.4294C28.1033 29.8564 28.1785 29.2827 28.373 28.6116C31.8601 28.0689 35.2309 27.6451 38.5949 27.172C41.4511 26.7703 44.3053 26.3466 47.1492 25.8666C49.1613 25.5269 51.1549 25.0768 53.1568 24.676C53.691 25.1894 54.2252 25.7027 54.7943 26.2871Z" fill="#D5E6A9"/>
<path d="M47.6426 35.0035C49.4869 34.7486 51.3311 34.4937 53.2813 34.3379C53.3864 35.3179 53.4044 36.1994 53.3786 37.0796C53.3604 37.7023 53.3492 38.338 53.2142 38.9409C53.0682 39.5933 53.2136 40.0093 53.8459 40.2365C52.5022 41.5957 51.1585 42.9548 49.6502 44.2961C49.2714 43.8321 48.9407 43.4053 48.8625 42.9364C48.4223 40.2977 48.0428 37.6489 47.6426 35.0035Z" fill="#C7E091"/>
<path d="M47.8563 19.3331C45.6733 19.8854 43.4665 20.437 41.2321 20.8321C38.3646 21.3391 35.4763 21.7297 32.594 22.1507C31.5435 22.3041 30.4846 22.4009 29.3311 22.5277C29.3077 21.8802 29.3828 21.2284 29.5633 20.4751C34.0625 19.6957 38.46 19.0408 42.8474 18.3231C43.9089 18.1495 44.9365 17.7682 45.9797 17.4824C46.5933 18.0758 47.2068 18.6693 47.8563 19.3331Z" fill="#BAD97A"/>
<path d="M29.9326 17.9793C30.0828 17.0061 30.233 16.0328 30.5059 14.9629C31.3725 14.8185 32.1231 14.8186 32.859 14.7147C35.8457 14.2927 38.8279 13.8388 41.8118 13.3967C42.6191 14.153 43.4264 14.9093 44.2025 15.8082C42.8461 16.1113 41.517 16.2446 40.1966 16.4375C36.7732 16.9374 33.3537 17.4636 29.9326 17.9793Z" fill="#ABD25F"/>
<path d="M26.8903 8.85254C27.0238 9.02492 27.1661 9.23623 27.1375 9.42104C26.3344 14.601 25.5025 19.7765 24.7004 24.9566C24.1093 28.7739 23.5547 32.5968 22.9783 36.4163C22.9493 36.6088 22.8681 36.7934 22.6833 37.0725C22.3763 37.1342 22.1971 37.1052 21.9766 37.0298C21.8553 36.9656 21.7753 36.9477 21.6567 36.942C21.6181 36.9541 21.5403 36.9324 21.5433 36.8274C22.1048 33.2202 22.6723 29.7193 23.2192 26.2152C23.7659 22.7117 24.3013 19.2065 24.8232 15.6993C25.0956 13.8694 25.3283 12.0337 25.579 10.2006C25.9925 9.76013 26.4059 9.31962 26.8903 8.85254Z" fill="#84AF58"/>
<path d="M38.1335 55.9966C37.1027 49.7585 36.1452 43.4909 35.1873 37.1025C35.7656 36.8771 36.3443 36.7724 37.0167 36.7742C37.2496 38.0536 37.3631 39.2303 37.5336 40.3986C37.9376 43.1676 38.3263 45.94 38.8039 48.6967C39.1187 50.5133 39.5772 52.305 39.9714 54.1078C39.3832 54.7276 38.795 55.3473 38.1335 55.9966Z" fill="#A1CC4A"/>
<path d="M29.9274 18.0751C33.3537 17.4636 36.7732 16.9375 40.1966 16.4375C41.517 16.2447 42.8462 16.1113 44.2384 15.8792C44.8393 16.3192 45.3733 16.8309 45.9434 17.4125C44.9364 17.768 43.9088 18.1493 42.8472 18.323C38.4599 19.0407 34.0623 19.6955 29.5679 20.3752C29.6189 19.6417 29.7705 18.9063 29.9274 18.0751Z" fill="#B3D66C"/>
<path d="M27.1023 40.2576C27.2548 40.8206 27.4074 41.3835 27.5358 42.1287C26.4922 42.6158 25.4842 42.968 24.4514 43.2169C21.4682 43.9356 18.4751 44.6127 15.4859 45.3062C14.8748 44.7173 14.2637 44.1284 13.7041 43.4276C16.7839 42.6077 19.8107 41.8936 22.841 41.1944C24.258 40.8674 25.6816 40.5689 27.1023 40.2576Z" fill="#4F84B0"/>
<path d="M19.1686 16.589C19.7416 16.0036 20.3146 15.4182 20.9721 14.9128C20.4646 19.0149 19.8708 23.0367 19.2809 27.059C18.8341 30.1056 18.3924 33.153 17.8561 36.1884C17.2693 36.0174 16.7748 35.8581 16.2915 35.605C16.3721 35.2843 16.4704 35.0618 16.5066 34.8297C17.0102 31.5985 17.5241 28.3687 17.9969 25.133C18.4125 22.2886 18.7799 19.4373 19.1686 16.589Z" fill="#70978D"/>
<path d="M16.2803 35.6989C16.7748 35.8582 17.2692 36.0175 17.9103 36.2541C18.3401 36.365 18.6232 36.3986 18.9601 36.5014C19.3035 36.6152 19.5933 36.6598 19.8559 36.7896C19.2373 37.0422 18.6519 37.2351 18.0537 37.3722C16.2462 37.7866 14.4142 38.1098 12.6313 38.6094C11.7093 38.8677 10.4664 38.5315 9.96676 39.7842C9.03899 38.8789 8.11123 37.9736 7.2395 36.9794C8.26315 36.5648 9.24167 36.2678 10.1947 35.904C10.8829 35.6413 11.5372 35.29 12.2689 34.9733C12.3723 34.9624 12.4135 34.9563 12.5423 34.9606C12.9703 35.0467 13.3107 35.1224 13.7405 35.2167C14.2461 35.3145 14.6624 35.3936 15.1311 35.4783C15.1836 35.4838 15.289 35.4779 15.3375 35.5319C15.5239 35.6189 15.6618 35.6519 15.8796 35.6943C16.0663 35.7021 16.1733 35.7005 16.2803 35.6989Z" fill="#0D6BB6"/>
<path d="M41.394 36.0463C42.0575 35.9276 42.721 35.8089 43.4692 35.7856C43.6407 37.0392 43.6425 38.2114 43.8306 39.3529C44.341 42.4487 44.9305 45.5315 45.4886 48.6194C44.8997 49.2323 44.3109 49.8452 43.6326 50.3816C42.8267 45.5522 42.1104 40.7993 41.394 36.0463Z" fill="#B4D66E"/>
<path d="M38.0352 36.5211C38.6235 36.4145 39.2119 36.3079 39.8915 36.3084C40.1107 37.7918 40.1802 39.1765 40.3782 40.5427C40.8537 43.8242 41.3741 47.0996 41.9201 50.3701C41.9909 50.7942 42.3193 51.1752 42.5284 51.5761C42.0496 52.0873 41.5708 52.5986 40.9812 53.0622C40.7333 52.607 40.5357 52.2093 40.468 51.7905C39.646 46.7025 38.843 41.6114 38.0352 36.5211Z" fill="#A9D15B"/>
<path d="M15.5232 45.3785C18.4749 44.6126 21.468 43.9355 24.4512 43.2167C25.4841 42.9679 26.492 42.6156 27.5318 42.2207C27.7107 42.708 27.8693 43.2853 28.0355 44.0072C28.0691 44.218 28.1127 44.2689 28.174 44.3045C28.2 44.486 28.2259 44.6675 28.1486 44.9408C27.5775 45.0948 27.1032 45.1264 26.6431 45.2244C23.555 45.8824 20.4699 46.5545 17.3838 47.2221C16.7761 46.6317 16.1684 46.0414 15.5232 45.3785Z" fill="#5D8BA5"/>
<path d="M18.9064 36.432C18.6232 36.3984 18.3401 36.3649 18.0027 36.2657C18.3924 33.153 18.8341 30.1056 19.2809 27.059C19.8707 23.0366 20.4646 19.0149 21.048 14.879C21.4125 14.348 21.7858 13.9308 22.2935 13.551C22.4527 13.9817 22.5486 14.3858 22.4905 14.7665C22.0689 17.53 21.6135 20.2883 21.1741 23.0492C20.8151 25.3047 20.4838 27.5648 20.1026 29.8166C19.7286 32.0259 19.3071 34.2272 18.9064 36.432Z" fill="#759D7E"/>
<path d="M47.5533 35.0229C48.0428 37.6487 48.4223 40.2975 48.8626 42.9362C48.9408 43.4051 49.2715 43.8319 49.5754 44.3176C48.8807 45.1979 48.0962 46.0387 47.2283 46.822C46.9908 46.2796 46.7776 45.8049 46.6931 45.3082C46.3708 43.4127 46.0469 41.5155 45.8083 39.6084C45.6352 38.2249 45.5957 36.8247 45.4966 35.4319C46.1523 35.3021 46.8081 35.1723 47.5533 35.0229Z" fill="#C2DD87"/>
<path d="M41.7878 13.3137C38.828 13.8389 35.8458 14.2928 32.8591 14.7148C32.1232 14.8187 31.3726 14.8186 30.52 14.8672C30.5681 13.9754 30.725 13.0828 30.9913 12.0918C31.5353 11.9725 31.9735 11.9808 32.4037 11.9256C34.7448 11.6251 37.0839 11.309 39.4238 10.9983C40.2037 11.7424 40.9837 12.4864 41.7878 13.3137Z" fill="#A2CD4F"/>
<path d="M9.99194 39.8484C10.4664 38.5315 11.7093 38.8677 12.6313 38.6093C14.4142 38.1098 16.2462 37.7866 18.0536 37.3722C18.6519 37.2351 19.2373 37.0422 19.8519 36.7653C19.8752 36.6559 19.8616 36.6089 19.9212 36.6213C20.0212 36.631 20.0617 36.6282 20.1625 36.6408C20.2644 36.6583 20.3059 36.6604 20.4125 36.7221C20.8319 36.8321 21.1862 36.8823 21.5404 36.9325C21.5404 36.9325 21.6182 36.9543 21.6995 36.9886C21.8598 37.0407 21.9389 37.0585 22.018 37.0763C22.1972 37.1053 22.3763 37.1343 22.6465 37.1613C23.3997 37.3674 24.0619 37.5755 24.7589 37.8855C22.3541 38.5801 19.9144 39.1721 17.4751 39.7656C15.4555 40.2569 13.4363 40.75 11.4169 41.2423C10.9503 40.7991 10.4837 40.3559 9.99194 39.8484Z" fill="#1E74BA"/>
<path d="M21.5434 36.8274C21.1862 36.8821 20.8319 36.8319 20.4238 36.63C20.5206 36.0702 20.7447 35.6735 20.8095 35.2523C21.1578 32.9894 21.4383 30.7161 21.7949 28.4546C22.465 24.2044 23.2004 19.9643 23.845 15.7103C24.0475 14.3739 24.0463 13.0067 24.1384 11.6536C24.5697 11.1939 25.001 10.7342 25.5057 10.2375C25.3284 12.0337 25.0957 13.8694 24.8233 15.6993C24.3014 19.2065 23.766 22.7117 23.2193 26.2152C22.6724 29.7193 22.1048 33.2202 21.5434 36.8274Z" fill="#7FA867"/>
<path d="M53.1224 24.6086C51.1548 25.0768 49.1612 25.5269 47.1491 25.8666C44.3052 26.3466 41.451 26.7703 38.5948 27.172C35.2308 27.6451 31.86 28.0689 28.385 28.5152C28.3225 28.2456 28.3671 27.9748 28.4511 27.6295C31.426 27.1227 34.3627 26.6995 37.2964 26.2561C41.2474 25.659 45.1964 25.0491 49.1454 24.4387C50.1234 24.2876 51.0978 24.1137 52.1846 23.938C52.5597 24.1309 52.824 24.3361 53.1224 24.6086Z" fill="#CEE49E"/>
<path d="M53.9176 40.2003C53.2135 40.0091 53.0681 39.5931 53.2141 38.9407C53.3491 38.3378 53.3603 37.7021 53.3785 37.0794C53.4043 36.1992 53.3863 35.3177 53.3881 34.3351C55.7966 33.8406 58.2039 33.4478 60.7177 33.0586C60.6373 33.3545 60.4956 33.692 60.2562 33.9323C58.1773 36.0196 56.0807 38.0894 53.9176 40.2003Z" fill="#CCE39B"/>
<path d="M16.2915 35.6049C16.1734 35.7003 16.0664 35.7019 15.8351 35.636C15.5702 35.5382 15.4296 35.5079 15.2891 35.4777C15.2891 35.4777 15.1837 35.4837 15.1331 35.3707C15.2414 34.1651 15.3938 33.0715 15.5604 31.98C16.1675 28.003 16.7928 24.0286 17.3727 20.0475C17.4472 19.5358 17.2951 18.9911 17.248 18.4616C17.8404 17.8584 18.4327 17.2551 19.0968 16.6204C18.7799 19.4372 18.4126 22.2886 17.9969 25.1329C17.5241 28.3686 17.0102 31.5984 16.5066 34.8296C16.4704 35.0617 16.3721 35.2842 16.2915 35.6049Z" fill="#699298"/>
<path d="M27.0937 40.1587C25.6815 40.569 24.2579 40.8674 22.8408 41.1944C19.8106 41.8937 16.7837 42.6077 13.667 43.3556C13.1243 42.9636 12.6702 42.5316 12.2673 41.9889C12.6451 41.7381 12.9592 41.543 13.2999 41.4667C16.9952 40.6389 20.6997 39.8515 24.3883 38.9956C25.0676 38.8379 25.6872 38.423 26.3344 38.1268C26.4338 38.1231 26.5332 38.1193 26.7073 38.1179C26.8831 38.7668 26.9842 39.4133 27.0937 40.1587Z" fill="#3F7CBA"/>
<path d="M17.4258 47.2939C20.4699 46.5546 23.555 45.8825 26.6431 45.2245C27.1033 45.1264 27.5776 45.0949 28.1483 45.0327C28.4151 45.765 28.579 46.497 28.6437 47.3301C25.9543 47.987 23.3613 48.5301 20.7777 49.1148C20.4378 49.1918 20.1459 49.4812 19.8318 49.6722C19.0438 48.9033 18.2558 48.1345 17.4258 47.2939Z" fill="#699298"/>
<path d="M17.1712 18.4863C17.2951 18.9913 17.4472 19.536 17.3727 20.0477C16.7928 24.0288 16.1675 28.0032 15.5604 31.9802C15.3938 33.0717 15.2414 34.1653 15.0806 35.3654C14.6624 35.3937 14.2462 35.3145 13.7393 35.1102C14.2554 30.7301 14.8724 26.4765 15.4576 22.2185C15.5426 21.5996 15.4749 20.9596 15.4779 20.3294C16.0167 19.7232 16.5555 19.117 17.1712 18.4863Z" fill="#5F8DA4"/>
<path d="M45.3965 35.4316C45.5955 36.8247 45.6351 38.225 45.8081 39.6085C46.0468 41.5156 46.3707 43.4128 46.693 45.3083C46.7774 45.8049 46.9907 46.2797 47.1552 46.8549C46.655 47.4826 46.1445 48.0199 45.5612 48.5883C44.9304 45.5314 44.341 42.4487 43.8306 39.3528C43.6424 38.2114 43.6407 37.0392 43.5645 35.7892C44.1488 35.6087 44.7227 35.52 45.3965 35.4316Z" fill="#BBDA7B"/>
<path d="M12.2065 34.9782C11.5371 35.2899 10.8828 35.6413 10.1946 35.9039C9.24153 36.2677 8.26302 36.5648 7.20354 36.9057C5.77464 35.5344 4.43761 34.1478 2.96045 32.6159C3.95058 31.6778 4.97743 30.705 6.15903 29.7407C7.49132 30.5489 6.65037 31.5614 6.51207 32.4314C6.34607 33.4756 6.68098 33.9274 7.66653 34.0076C7.98243 34.0333 8.30177 34.0166 8.70229 34.0555C9.3692 34.2258 9.95335 34.3601 10.6197 34.505C10.9666 34.5853 11.2312 34.655 11.5751 34.7322C11.8384 34.8191 12.0224 34.8986 12.2065 34.9782Z" fill="#0262B0"/>
<path d="M39.3952 10.9153C37.0838 11.309 34.7447 11.6252 32.4035 11.9256C31.9734 11.9808 31.5352 11.9725 30.9946 11.9945C31.0474 10.9441 31.2062 9.89261 31.4713 8.74107C33.16 8.37963 34.7424 8.11828 36.3248 7.85693C37.3387 8.8487 38.3527 9.84046 39.3952 10.9153Z" fill="#98C93F"/>
<path d="M42.5935 51.5433C42.3192 51.1753 41.9907 50.7943 41.9199 50.3702C41.374 47.0997 40.8536 43.8243 40.378 40.5428C40.18 39.1766 40.1106 37.7919 39.9819 36.3135C40.3849 36.1661 40.7887 36.1207 41.2932 36.0608C42.1103 40.7992 42.8266 45.5522 43.5559 50.3967C43.2655 50.829 42.9621 51.1697 42.5935 51.5433Z" fill="#ADD462"/>
<path d="M19.8691 49.7392C20.146 49.4813 20.4378 49.1918 20.7778 49.1149C23.3614 48.5302 25.9544 47.9871 28.6439 47.4287C28.9032 48.0798 29.0631 48.7333 29.1276 49.4859C27.0645 50.0059 25.0901 50.3989 23.1337 50.8671C22.6393 50.9854 22.2023 51.3436 21.739 51.5915C21.1281 50.9964 20.5173 50.4013 19.8691 49.7392Z" fill="#70988B"/>
<path d="M18.96 36.5013C19.3069 34.2272 19.7285 32.0259 20.1025 29.8166C20.4837 27.5648 20.815 25.3047 21.174 23.0492C21.6134 20.2883 22.0687 17.53 22.4904 14.7665C22.5485 14.3858 22.4526 13.9817 22.365 13.5188C22.6467 13.0743 22.9914 12.6994 23.4005 12.3879C22.8868 16.6284 22.3434 20.8107 21.7205 24.9812C21.15 28.7997 20.4936 32.6055 19.8729 36.4649C19.8706 36.513 19.8615 36.6088 19.8615 36.6088C19.8615 36.6088 19.8751 36.6558 19.8791 36.6801C19.5932 36.6597 19.3034 36.6151 18.96 36.5013Z" fill="#78A076"/>
<path d="M37.9426 36.5366C38.8431 41.6113 39.646 46.7024 40.4681 51.7904C40.5357 52.2092 40.7334 52.607 40.9074 53.0965C40.6668 53.4693 40.3894 53.7601 40.0418 54.0793C39.5774 52.3049 39.1189 50.5132 38.8041 48.6966C38.3265 45.9399 37.9378 43.1675 37.5337 40.3986C37.3633 39.2302 37.2498 38.0535 37.1099 36.7773C37.3562 36.6334 37.603 36.5928 37.9426 36.5366Z" fill="#A5CF54"/>
<path d="M10.5376 34.4943C9.95344 34.3601 9.36929 34.2258 8.70239 33.9484C8.83066 32.328 9.08787 30.8553 9.23586 29.3717C9.32878 28.4402 9.25773 27.4924 9.26025 26.5518C10.0428 25.7297 10.8253 24.9076 11.7156 24.1321C11.7506 24.991 11.7051 25.8069 11.5998 26.615C11.2575 29.243 10.8933 31.8681 10.5376 34.4943Z" fill="#2476BC"/>
<path d="M19.8752 36.4168C20.4938 32.6054 21.1502 28.7997 21.7206 24.9811C22.3435 20.8107 22.8869 16.6284 23.4655 12.3455C23.6408 12.0615 23.8155 11.8831 24.0643 11.6792C24.0464 13.0067 24.0476 14.3739 23.8451 15.7103C23.2004 19.9643 22.465 24.2044 21.7949 28.4547C21.4383 30.7161 21.1578 32.9895 20.8096 35.2523C20.7447 35.6735 20.5206 36.0702 20.3587 36.5703C20.3059 36.6602 20.2644 36.6582 20.137 36.5943C20.0046 36.4754 19.946 36.4369 19.8752 36.4168Z" fill="#7BA36E"/>
<path d="M21.7773 51.6579C22.2023 51.3436 22.6392 50.9854 23.1336 50.8671C25.09 50.3989 27.0644 50.006 29.13 49.583C29.3856 50.2326 29.5433 50.8843 29.6184 51.6701C29.3501 51.8622 29.166 51.9257 28.9786 51.9774C27.1874 52.4715 25.3956 52.9636 23.604 53.4564C23.0079 52.879 22.4118 52.3017 21.7773 51.6579Z" fill="#759E7C"/>
<path d="M15.4133 20.3645C15.4749 20.9595 15.5426 21.5995 15.4576 22.2184C14.8725 26.4764 14.2554 30.73 13.6499 35.0915C13.3108 35.1223 12.9703 35.0466 12.5408 34.8594C12.6508 33.2284 12.8352 31.7067 13.0524 30.1897C13.4699 27.2736 13.906 24.36 14.3344 21.4454C14.6725 21.0968 15.0106 20.7483 15.4133 20.3645Z" fill="#5587AD"/>
<path d="M9.19107 26.5884C9.25781 27.4925 9.32886 28.4403 9.23594 29.3718C9.08795 30.8554 8.83074 32.3281 8.61972 33.9124C8.30194 34.0167 7.9826 34.0333 7.6667 34.0076C6.68116 33.9274 6.34624 33.4756 6.51224 32.4314C6.65054 31.5615 7.49149 30.549 6.23169 29.7102C7.14021 28.6556 8.13101 27.6402 9.19107 26.5884Z" fill="#0D6BB6"/>
<path d="M14.2641 21.4917C13.9059 24.36 13.4698 27.2735 13.0523 30.1897C12.8351 31.7066 12.6507 33.2283 12.4531 34.849C12.4135 34.9562 12.3723 34.9622 12.2689 34.9732C12.0226 34.8986 11.8385 34.819 11.574 34.6388C11.7659 32.9425 12.0457 31.348 12.3084 29.7506C12.5792 28.104 12.8811 26.46 13.0696 24.8034C13.1381 24.2014 12.9188 23.5666 12.8309 22.9467C13.2852 22.4772 13.7396 22.0076 14.2641 21.4917Z" fill="#4C83B3"/>
<path d="M12.7625 22.9788C12.9189 23.5666 13.1382 24.2014 13.0697 24.8035C12.8811 26.46 12.5793 28.104 12.3085 29.7507C12.0458 31.348 11.7659 32.9425 11.4948 34.6315C11.2314 34.655 10.9667 34.5853 10.6199 34.5049C10.8934 31.8681 11.2576 29.243 11.5999 26.615C11.7051 25.8069 11.7507 24.991 11.7862 24.0985C12.064 23.6824 12.379 23.3466 12.7625 22.9788Z" fill="#3F7CBA"/>
<path d="M36.2922 7.77865C34.7425 8.11813 33.1601 8.37948 31.472 8.64136C31.4467 7.86773 31.3848 7.04001 31.6499 6.33525C31.8906 5.69522 32.4871 5.189 33.0039 4.58765C34.1406 5.60118 35.2001 6.65085 36.2922 7.77865Z" fill="#8DC440"/>
<path d="M26.246 38.1017C25.6873 38.4228 25.0677 38.8378 24.3884 38.9954C20.6998 39.8514 16.9953 40.6387 13.3001 41.4665C12.9594 41.5429 12.6453 41.7379 12.2326 41.9161C11.9234 41.7623 11.7005 41.5704 11.4473 41.3103C13.4363 40.7498 15.4555 40.2568 17.4751 39.7654C19.9145 39.172 22.3542 38.58 24.8467 37.9172C25.319 37.9237 25.7383 38.0002 26.246 38.1017Z" fill="#2F78BC"/>
<path d="M23.6477 53.5253C25.3956 52.9637 27.1874 52.4715 28.9786 51.9774C29.166 51.9257 29.3501 51.8622 29.6222 51.7683C29.8589 52.2312 30.0092 52.73 30.0704 53.3312C28.304 53.8977 26.6266 54.3618 24.9492 54.8259C24.5299 54.4154 24.1107 54.0048 23.6477 53.5253Z" fill="#7BA36E"/>
<path d="M24.9844 54.8954C26.6267 54.3616 28.3041 53.8976 30.0721 53.4224C30.3211 54.0667 30.4796 54.7222 30.5421 55.4742C29.1748 55.8812 27.9037 56.1918 26.6325 56.5023C26.0948 55.9899 25.5571 55.4775 24.9844 54.8954Z" fill="#82AC61"/>
<path d="M30.8835 56.7627C31.0435 57.6426 31.272 58.5183 31.3259 59.4046C31.3446 59.7125 30.9311 60.0467 30.6117 60.3904C29.6367 59.5556 28.765 58.6994 27.9329 57.738C28.9428 57.3429 29.9132 57.0528 30.8835 56.7627Z" fill="#8ABA48"/>
<path d="M30.8839 56.6735C29.9132 57.0528 28.9428 57.3429 27.8982 57.6686C27.4497 57.349 27.0756 56.9938 26.667 56.5705C27.9036 56.1919 29.1748 55.8814 30.5422 55.5679C30.7204 55.9046 30.8023 56.2444 30.8839 56.6735Z" fill="#87B356"/>
<path d="M60.8655 33.0504C60.8318 32.9939 60.8756 32.9331 60.9932 32.8633C61.0295 32.9191 60.9881 32.983 60.8655 33.0504Z" fill="#CCE39B"/>
<path d="M122.978 31.228C123.059 35.6409 123.059 40.1106 123.048 44.6944C122.969 44.6739 122.843 44.5392 122.843 44.4047C122.853 40.0314 122.875 35.6581 122.978 31.228Z" fill="#9DBCD9"/>
<path d="M130.792 43.9955C130.722 40.2314 130.726 36.4017 130.745 32.46C130.828 32.4354 130.958 32.523 130.958 32.6098C130.935 36.3832 130.9 40.1565 130.792 43.9955Z" fill="#B1CAE1"/>
<path d="M177.329 31.2292C177.409 35.6357 177.408 40.101 177.395 44.6787C177.315 44.6554 177.189 44.5195 177.189 44.3839C177.202 40.0186 177.226 35.6534 177.329 31.2292Z" fill="#8CB0D3"/>
<path d="M185.205 43.5684C185.18 40.1373 185.255 36.6835 185.304 33.2293C185.309 32.8482 185.167 32.4649 185.107 31.9827C185.264 32.1204 185.531 32.3573 185.533 32.5961C185.559 36.0803 185.553 39.5648 185.538 43.0492C185.537 43.215 185.381 43.3802 185.205 43.5684Z" fill="#3274B0"/>
<path d="M28.1707 44.2524C28.1128 44.269 28.0692 44.2181 28.0334 44.1012C28.0898 44.0827 28.1377 44.1326 28.1707 44.2524Z" fill="#699298"/>
<path d="M21.9767 37.0298C21.9389 37.0583 21.8598 37.0405 21.738 36.9763C21.7753 36.9478 21.8554 36.9656 21.9767 37.0298Z" fill="#7FA867"/>
<path d="M15.3374 35.5317C15.4295 35.508 15.5701 35.5382 15.7552 35.6266C15.6618 35.6517 15.5238 35.6187 15.3374 35.5317Z" fill="#5F8DA4"/>
<path d="M19.8729 36.4649C19.946 36.4369 20.0046 36.4755 20.0766 36.5789C20.0617 36.6281 20.0213 36.6309 19.9212 36.6212C19.8616 36.6088 19.8707 36.513 19.8729 36.4649Z" fill="#7FA867"/>
</g>
<defs>
<clipPath id="clip0_324_866">
<rect width="300" height="65" fill="white" transform="translate(0 0.5)"/>
</clipPath>
</defs>
</svg>
