<svg width="300" height="96" viewBox="0 0 300 96" fill="none" xmlns="http://www.w3.org/2000/svg">
<g clip-path="url(#clip0_324_976)">
<path d="M191.004 52.3405C191.004 53.792 190.04 54.7334 187.988 54.7334H182.372V49.9776H187.988C190.04 49.9792 191.004 50.7713 191.004 52.3405ZM190.342 44.9934C190.342 46.0179 189.707 46.7263 187.959 46.7263H182.374V43.2351H187.742C189.59 43.2351 190.342 43.8395 190.342 44.9934ZM195.354 52.2921C195.354 50.273 194.087 48.9323 192.394 48.277C193.787 47.5435 194.63 46.2787 194.63 44.7026C194.63 41.5552 192.034 39.8453 187.929 39.8453H178.232V58.2269H187.836C192.366 58.2269 195.354 56.1525 195.354 52.2921ZM208.523 50.6422H203.687L205.048 47.3032C205.473 46.2302 205.891 45.1272 206.103 44.4419C206.32 45.1273 206.738 46.2302 207.162 47.3032L208.523 50.6422ZM216.283 58.2269L208.249 39.8453H204.144L196.053 58.2269H200.578L202.242 54.1311H209.972L211.631 58.2269H216.283ZM235.219 58.2269V39.8453H231.049V47.6216C231.049 48.6439 231.11 50.9537 231.11 51.639C230.835 51.1663 230.136 50.2453 229.626 49.5622L222.137 39.8453H218.094V58.2269H222.259V50.1414C222.259 49.1169 222.198 46.8048 222.198 46.1218C222.468 46.5945 223.162 47.5155 223.677 48.1962L231.437 58.2247H235.214L235.219 58.2269ZM292.515 52.6613C292.515 48.6715 288.802 47.6724 285.447 46.9894C282.098 46.3039 281.192 45.9371 281.192 44.7811C281.192 43.9692 281.944 43.1289 284.212 43.1289C286.146 43.1289 287.65 43.8118 289.012 45.0164L292.058 42.4482C290.066 40.6345 287.65 39.5546 284.36 39.5546C280.19 39.5546 276.812 41.6037 276.812 44.9426C276.812 48.5631 279.53 49.6407 283.423 50.4276C287.413 51.2168 288.137 51.7383 288.137 52.9197C288.137 54.3088 286.96 54.9157 284.45 54.9157C282.426 54.9157 280.525 54.3061 279.045 52.8159L275.995 55.1765C277.599 57.2232 280.677 58.5108 284.212 58.5108C289.976 58.5147 292.515 56.1525 292.515 52.6613ZM300 39.8476H295.773V58.2269H300V39.8476ZM267 47.3032C266.576 46.2302 266.153 45.1272 265.941 44.4419C265.729 45.1273 265.306 46.2302 264.887 47.3032L263.525 50.6422H268.357L267 47.3032ZM257.708 58.2269H255.887H252.634L246.897 49.3546L243.517 52.8182V58.2269H239.289V39.8453H243.517V45.0718C243.517 45.7547 243.482 47.4094 243.456 47.9908C243.758 47.5661 244.542 46.7287 245.115 46.124L251.036 39.8453H256.135L249.947 46.2003L256.627 56.5518L263.983 39.8453H268.088L276.119 58.2269H271.467L269.803 54.1311H262.072L260.413 58.2269H257.708ZM80.8922 36.3263C80.8922 35.0226 81.9513 33.9634 83.2597 33.9634C84.5635 33.9634 85.6226 35.0226 85.6226 36.3263C85.6226 37.6301 84.5635 38.6893 83.2597 38.6893C81.9513 38.6908 80.8922 37.6324 80.8922 36.3263ZM36.2003 50.1138V39.8453H31.9706V50.1668C31.9706 53.1043 30.3092 54.918 27.6256 54.918C24.9396 54.918 23.3059 53.0558 23.3059 50.1138V39.8453H19.0831V50.1668C19.0831 55.5203 22.5236 58.5131 27.6278 58.5131C32.9975 58.5169 36.2003 55.4418 36.2003 50.1138ZM22.0575 36.294C22.0575 34.988 23.1166 33.9266 24.4227 33.9266C25.7241 33.9266 26.7856 34.988 26.7856 36.294C26.7856 37.5954 25.7241 38.6547 24.4227 38.6547C23.1166 38.6562 22.0575 37.5978 22.0575 36.294ZM28.5624 36.294C28.5624 34.988 29.6169 33.9266 30.9253 33.9266C32.229 33.9266 33.2859 34.988 33.2859 36.294C33.2859 37.5954 32.229 38.6547 30.9253 38.6547C29.6169 38.6562 28.5624 37.5978 28.5624 36.294ZM124.163 58.2269V54.6296H113.262V50.1945H119.335V46.6225H113.262V43.4427H123.713V39.8453H109.039V58.2247H124.163V58.2269ZM107.468 39.8476H102.668L99.6777 44.2088C98.8928 45.3626 97.7786 47.1209 97.3841 47.8039C96.9916 47.1211 95.8472 45.3095 95.088 44.2088L92.0998 39.8476H87.2402L95.2426 51.0345V58.2269H99.47V50.9537L107.468 39.8476ZM78.7347 58.2269L70.9768 46.2003L77.1656 39.8476H72.0614L66.1449 46.1218C65.5728 46.7288 64.7858 47.5685 64.4835 47.9908C64.5097 47.4091 64.5446 45.7549 64.5446 45.0742V39.8476H60.3152V58.2269H64.5449V52.8182L67.9277 49.3546L73.6619 58.2269H78.7347ZM52.7383 45.7526C52.7383 47.354 51.6814 48.1432 49.72 48.1432H44.1912V43.415H49.72C51.5914 43.415 52.7383 44.0979 52.7383 45.7526ZM57.0856 58.2269L53.0405 51.0829C55.7264 50.1692 57.0856 48.4339 57.0856 45.6764C57.0856 41.7652 53.7927 39.8476 49.81 39.8476H39.9661V58.2269H44.1935V51.6113H48.4508L52.226 58.2269H57.0856ZM16.3695 43.4727V39.8476H0V43.4727H6.07099V58.2269H10.2984V43.4727H16.3695ZM85.3711 39.8476H81.1438V58.2269H85.3711V39.8476ZM139.642 79.1077C140.205 79.2394 143.027 80.213 143.027 80.213C145.106 81.0875 146.836 81.7129 148.765 82.0613C147.106 82.8855 145.962 84.5996 145.962 86.5817C145.962 88.7139 147.286 90.373 149.151 91.0352C149.89 91.3954 149.979 91.6605 150.191 92.3205C150.371 92.8839 149.783 95.1565 149.783 95.1565H151.089C151.089 95.1565 151.936 94.1112 153.122 92.4705C153.641 91.7571 154.438 90.3153 154.911 89.6761C155.546 88.7439 156.06 87.8554 156.06 86.584C156.06 84.8395 155.171 83.3027 153.833 82.3936C154.14 82.3841 154.212 82.3673 154.212 82.3673C157.128 82.1964 159.833 81.082 159.833 81.082C169.1 77.9369 171.213 69.7567 171.213 69.7567C171.578 68.3722 171.781 66.9139 171.781 65.4117C171.781 60.4412 169.148 55.9647 165.715 52.8819C165.715 52.8819 164.656 51.8596 163.781 51.2182C161.979 49.8152 156.201 46.7347 156.201 46.7347C156.201 46.7347 146.495 41.462 144.049 39.9344C141.606 38.4064 140.452 37.2042 140.452 37.2042C138.578 35.6028 137.374 33.4245 137.374 30.6601C137.374 26.3635 141.253 23.3614 145.773 22.6022C145.773 22.6022 146.083 22.5673 146.523 22.5412V38.9984L155.393 43.8926V18.4455C155.463 17.7879 155.158 15.5426 157.548 14.9011L158.85 14.5592V13.297H143.069V14.5592L144.31 14.8872C146.768 15.5099 146.452 17.7831 146.523 18.4476V20.146C146.156 20.172 145.766 20.1983 145.42 20.2637C137.48 21.3852 131.693 27.6569 131.693 35.2371C131.693 40.8813 134.374 44.4141 138.65 47.6238C140.87 49.2922 142.379 50.0122 145.055 51.4797L146.525 52.2969V68.3826C146.456 69.0498 146.763 71.2901 144.373 71.9293L143.069 72.2799V73.5375H158.85V72.2799L157.606 71.9502C155.151 71.3249 155.465 69.052 155.398 68.3805L155.393 57.2444L157.119 58.2135C157.119 58.2135 162.316 60.7426 164.316 65.3207C166.326 69.8988 165.016 76.466 157.011 79.3458C157.011 79.3458 147.485 82.3063 138.851 74.2162C138.851 74.2162 135.872 71.0918 134.402 66.8967C134.171 66.2435 133.905 65.1892 133.905 65.1892H132.657V81.1249H133.716C133.716 81.1249 134.353 80.1973 134.902 79.7496C135.048 79.6274 135.156 79.542 135.29 79.4609C135.987 79.0362 136.989 78.4872 139.458 79.0502L139.642 79.1077ZM166.566 21.7405V21.0044H165.421L164.817 21.9228C164.267 22.624 163.771 22.8735 162.712 22.9866C161.487 23.1253 159.913 22.4581 159.913 22.4581L157.592 21.5305V23.8749C158.598 24.44 159.048 24.8971 159.539 25.2571C160.149 25.7098 161.109 26.6463 162.235 28.1599C163.361 29.676 164.187 31.6005 164.457 32.4196C164.656 33.0153 164.921 34.2749 165.047 35.0041L165.204 35.9824H166.566V21.7405ZM145.81 6.11637C145.81 8.95692 148.115 11.2644 150.955 11.2644C153.8 11.2644 156.108 8.95692 156.108 6.11637C156.108 3.2735 153.8 0.968262 150.955 0.968262C148.115 0.968262 145.81 3.2735 145.81 6.11637Z" fill="#00559F"/>
</g>
<defs>
<clipPath id="clip0_324_976">
<rect width="300" height="95" fill="white" transform="translate(0 0.5)"/>
</clipPath>
</defs>
</svg>
