<svg width="300" height="38" viewBox="0 0 300 38" fill="none" xmlns="http://www.w3.org/2000/svg">
<g clip-path="url(#clip0_324_978)">
<path d="M53.6119 10.8148C54.2981 6.90423 50.698 1.45508 40.8972 1.45508H16.5435C9.86892 1.45508 5.68334 6.03824 4.93991 10.6541L0 36.6226C4.33808 36.6118 32.9209 36.6226 32.861 36.6226H34.7182C44.9548 36.5655 50.8478 34.2671 51.9235 26.8381C52.637 21.8383 48.2472 18.6113 44.6607 17.9251C48.288 17.2633 52.6969 16.0297 53.6119 10.8148Z" fill="#FBC34E"/>
<path d="M30.7424 12.3371C28.2588 15.4824 19.2314 26.3998 17.4068 28.4721C13.3302 33.1098 4.92364 32.4181 4.86646 32.301C4.86646 32.2955 7.89739 17.9632 8.88047 13.922C11.5737 2.93383 20.8653 5.5345 20.8653 5.5345C20.8653 5.5345 18.3899 5.89124 16.6416 8.12155C14.8688 10.3818 12.8591 21.3945 11.7235 26.5414C17.0474 20.3188 24.3456 12.2908 25.5901 10.7876C30.8949 4.36624 39.2034 5.25129 39.2034 5.25129C39.2034 5.25129 35.9683 5.70334 30.7424 12.3371Z" fill="white"/>
<path d="M84.5339 36.6226L103.787 1.45227H97.0661L82.9408 29.0357L79.2863 1.45227H71.6858L78.2052 36.6226H84.5339ZM114.312 22.8023L112.27 33.8667C111.014 33.9674 110.271 33.9565 108.052 33.913C104.784 33.8422 101.93 32.4942 102.444 29.1936C103.153 24.6268 107.564 23.3115 114.312 22.8023ZM121.518 19.5998C122.738 13.0804 117.694 10.6159 111.573 10.6159C107.575 10.6159 105.337 11.1251 102.967 12.0973L100.977 15.9833C103.896 14.7579 107.028 14.3957 109.656 14.3957C113.291 14.3957 115.723 15.4305 115.113 18.7147L114.854 20.0681C104.942 20.6155 96.9436 22.8812 95.906 29.1855C95.1572 33.7278 99.9418 36.963 107.888 36.963C112.014 36.963 115.587 36.7751 118.329 36.5654L121.518 19.5998ZM139.404 22.8948L152.296 11.3103H145.155L133.01 22.8703L137.043 1.45227H130.341L123.715 36.6226H130.455L132.89 23.5756L140.932 36.5817H148.821L139.404 22.8948ZM157.818 36.5817L162.573 11.3103H156.206L151.46 36.5817H157.818ZM186.954 2.47892C187.752 1.68919 189.13 1.28888 189.13 1.28888C181.268 -0.505719 172.722 1.98602 171.372 8.26575L170.808 11.313H166.44L165.754 14.9703H170.122L166.059 36.5872H172.755L176.818 14.9703H181.889L182.6 11.313H177.499L177.867 9.40133C178.482 6.16343 179.604 3.12432 185.982 4.15915C185.982 4.15642 186.194 3.19513 186.954 2.47892ZM207.405 10.7057C206.719 14.3303 203.9 16.4762 196.48 16.272C194.342 16.2203 193.816 16.1004 193.816 16.1004L195.905 5.06598C197.278 4.54312 198.588 4.25173 200.532 4.25173C205.57 4.25173 208.209 6.40579 207.405 10.7057ZM193.294 19.4418L195.347 19.3737C203.688 19.0905 206.15 22.4619 205.202 26.9198C204.293 31.1816 200.608 32.9735 195.619 32.9735C193.544 32.9735 192.46 32.968 190.66 32.8836L193.294 19.4418ZM214.581 10.3626C215.294 6.33772 211.411 0.725175 201.305 0.725175C196.256 0.725175 189.424 1.87982 188.7 5.69776L182.951 36.5654C186.417 36.963 189.821 36.963 195.11 36.9221C205.662 36.8677 211.735 34.4957 212.846 26.8571C213.584 21.7102 209.056 18.3907 205.363 17.6826C209.091 16.9991 213.639 15.7301 214.581 10.3626ZM233.308 22.8023L231.255 33.8667C230.011 33.9674 229.267 33.9565 227.037 33.913C223.766 33.8422 220.921 32.4942 221.441 29.1936C222.138 24.6268 226.563 23.3115 233.308 22.8023ZM240.498 19.5998C241.726 13.0804 236.685 10.6159 230.558 10.6159C226.563 10.6159 224.286 11.117 221.909 12.0891L219.957 15.9942C222.881 14.7851 226.016 14.4011 228.638 14.4011C232.271 14.4011 234.716 15.436 234.095 18.7202L233.839 20.0736C223.935 20.621 215.932 22.8867 214.894 29.1909C214.156 33.7332 218.935 36.9684 226.871 36.9684C230.999 36.9684 234.572 36.7805 237.312 36.5708L240.498 19.5998ZM269.816 18.6303C270.587 14.5428 268.22 10.88 258.939 10.88C253.705 10.88 249.844 11.7188 246.69 12.8407L242.197 36.6198H249L252.973 15.3978C254.351 14.8913 255.68 14.5046 257.989 14.5046C262.42 14.5046 263.52 16.5961 263.141 18.6603L259.773 36.6198H266.379L269.816 18.6303ZM280.858 22.7968L280.736 22.7641L284.742 1.44955H278.029L271.412 36.5708H278.157L280.567 23.7254H280.673L288.625 36.6144H296.512L287.111 22.933L300 11.3457H292.862L280.858 22.7968Z" fill="black"/>
</g>
<defs>
<clipPath id="clip0_324_978">
<rect width="300" height="37" fill="white" transform="translate(0 0.5)"/>
</clipPath>
</defs>
</svg>
