<svg width="300" height="54" viewBox="0 0 300 54" fill="none" xmlns="http://www.w3.org/2000/svg">
<g clip-path="url(#clip0_324_982)">
<path d="M300 1.47754H291.435V8.44548H300V1.47754Z" fill="#1466B2"/>
<path d="M120.648 1.47754L117.527 13.8166L114.333 1.47754H104.244L112.446 26.446V45.0997H122.245V26.446L131.1 1.47754H120.648Z" fill="#1466B2"/>
<path d="M139.302 11.2759C133.64 11.2759 128.269 14.1066 128.269 20.131V22.9617H137.124V20.131C137.124 18.5342 137.415 17.5906 139.012 17.5906C140.608 17.5906 140.608 18.8245 140.608 20.131C140.608 27.0989 127.979 24.2682 127.979 33.1233V38.7847C127.979 42.9219 130.519 46.043 134.003 46.043C137.487 46.043 139.084 45.0994 140.608 43.5026L140.899 45.0994H149.754V20.131C150.044 15.4131 146.56 11.2759 139.302 11.2759ZM139.012 39.7283C137.778 39.7283 137.124 39.075 137.124 36.8975V32.7603C137.124 29.9296 138.721 29.2764 140.608 28.0425V36.8975C140.899 39.1476 140.245 39.7283 139.012 39.7283Z" fill="#1466B2"/>
<path d="M169.351 11.2759C165.867 11.2759 164.271 12.2195 162.383 15.4131V11.9291H153.819V52.7206H162.383V42.6316C163.617 44.5187 165.577 45.8252 168.698 45.8252C174.722 45.8252 175.303 41.3977 175.303 36.0266V20.2035C175.666 15.7034 174.069 11.2759 169.351 11.2759ZM166.521 36.2443C166.521 37.8411 165.577 38.7847 164.633 38.7847C163.4 38.7847 162.746 37.8411 162.746 36.6072V21.0745C162.746 19.4777 163.69 18.5341 164.633 18.5341C165.867 18.5341 166.521 19.4777 166.521 20.7116V36.2443Z" fill="#1466B2"/>
<path d="M188.368 12.2192H179.803V45.0992H188.368V12.2192Z" fill="#1466B2"/>
<path d="M218.054 1.47754H208.909L202.594 15.1231V1.47754H192.723V45.0997H202.594V32.18L203.828 29.6396L209.489 45.0997H218.998L209.489 19.8409L218.054 1.47754Z" fill="#1466B2"/>
<path d="M229.45 15.7038V12.2198H221.248V45.0998H229.813V25.7928C229.813 20.4217 235.474 20.4217 237.724 21.3652V11.6392C235.474 11.2763 232.28 11.2763 229.45 15.7038Z" fill="#1466B2"/>
<path d="M253.184 37.8411C253.184 39.075 252.531 40.0186 251.297 40.0186C250.063 40.0186 249.41 39.3654 249.41 37.8411V29.9296H262.039V21.0745C262.039 13.4534 256.959 11.2759 251.297 11.2759C244.329 11.2759 240.555 14.7598 240.555 21.0745V36.2443C240.555 42.8493 245.636 45.7526 251.297 45.7526C257.612 45.7526 262.039 43.2122 262.039 36.6072V32.8329H253.184V37.8411ZM249.337 19.5503C249.337 18.3164 249.991 17.3728 251.225 17.3728C252.458 17.3728 253.112 18.0261 253.112 19.5503V23.9778H249.337V19.5503Z" fill="#1466B2"/>
<path d="M278.806 14.1069C277.862 12.5101 275.322 10.9133 272.201 10.9133C266.83 10.9133 265.596 15.6312 265.596 20.7119V36.5349C265.596 40.6722 266.539 45.39 271.91 45.39C275.104 45.39 277.935 44.1561 278.515 41.2528V44.7368H287.08V1.47754H278.515L278.806 14.1069ZM278.806 20.4942V35.9543C278.806 37.5511 277.862 38.4947 276.919 38.4947C275.685 38.4947 275.031 37.5511 275.031 36.3172V20.8571C275.031 19.2603 275.975 18.6796 276.919 18.6796C278.153 18.2441 278.806 19.1877 278.806 20.4942Z" fill="#1466B2"/>
<path d="M300 12.2192H291.435V45.0992H300V12.2192Z" fill="#1466B2"/>
<path d="M100.761 17.3005C95.3895 1.47744 79.2762 0.533883 77.9697 0.533883C70.7114 0.243552 63.0902 2.71135 57.0659 8.73571C54.5255 10.9132 52.9286 13.4536 51.0415 15.994C49.4447 13.1633 47.5575 10.9132 45.0171 8.73571C38.9928 2.71135 31.0813 0.17097 24.1133 0.533883C22.5165 0.533883 6.6935 1.47744 1.32239 17.3005C-0.855092 22.9619 -0.274432 30.2928 2.55629 35.9542C5.74993 41.9786 12.355 46.9868 19.9761 46.6964C25.3472 46.4061 31.0087 43.2125 33.2588 37.8414C34.8556 32.7606 34.4927 27.7524 30.428 23.6152C30.428 24.5587 30.7184 26.1556 29.4845 27.3895C27.5973 29.5669 24.7666 30.2202 22.2262 29.2766C19.6858 28.333 19.0326 26.4459 19.0326 24.1958C19.3229 22.3087 20.6294 20.7119 22.5165 20.0586C25.7102 18.4618 28.5409 19.4054 31.6619 21.9458C36.3798 27.0265 36.7427 35.2284 39.2831 41.5431C40.8799 46.6239 43.4203 51.0514 48.7914 52.2853C49.4447 52.5756 50.3883 52.5756 50.6786 52.5756C51.3318 52.5756 52.2754 52.5756 52.5657 52.2853C57.9369 51.0514 60.7676 46.6239 62.0741 41.5431C64.2515 35.5187 64.9048 27.6072 69.6952 21.9458C72.526 19.115 75.7196 18.4618 78.8407 20.0586C80.4375 20.7119 82.0343 22.2361 82.3246 24.1958C82.615 26.3733 81.6714 27.9701 79.4939 29.2766C76.6632 30.2202 74.1228 29.9299 72.2356 27.3895C71.5824 25.7926 71.5824 24.5587 71.5824 23.2522C67.4452 27.3895 66.8645 32.7606 68.7517 37.4784C70.9291 42.8496 76.6632 46.3335 82.0343 46.3335C89.2926 46.9868 96.2605 41.6156 99.4541 35.5913C102.357 30.2928 102.938 22.9619 100.761 17.3005ZM89.6555 36.2445C86.1715 39.0752 81.744 40.0188 78.26 38.422C76.0825 37.4784 74.4857 35.5913 74.1228 33.3412C76.9535 36.1719 82.6875 38.0591 87.6957 32.688C87.6957 32.688 92.4136 28.2604 89.5829 20.0586C88.349 15.9214 83.2682 12.8003 78.8407 12.1471C72.8163 11.2035 66.7919 13.381 62.7273 19.115C58.0094 26.3733 57.3562 34.5751 53.8722 42.8496C53.219 44.0835 52.2754 44.7367 51.0415 44.7367C49.8076 44.7367 48.5011 44.0835 48.2108 42.8496C44.7268 34.6477 44.4365 26.3733 39.3557 19.115C35.5814 13.4536 29.557 11.2035 23.2423 12.1471C19.1051 12.8003 14.0969 15.9214 12.5001 20.0586C9.66939 28.2604 14.3873 32.688 14.3873 32.688C19.468 38.0591 25.1295 36.4623 27.9602 33.3412C27.9602 35.5187 26.3634 37.4784 24.1859 38.422C20.4116 40.0188 15.9841 39.0752 12.7904 36.2445C7.70966 31.1637 7.129 24.8491 9.01615 19.1876C11.5565 11.9293 18.5245 8.44539 24.1859 8.15506C30.7909 7.50182 40.2993 11.639 43.7832 18.8973C44.4365 20.4941 46.614 24.9216 46.614 24.9216H51.3318H56.0497C56.0497 24.9216 57.6465 20.7844 58.8804 18.8973C62.6547 11.639 71.8727 7.86473 78.4777 8.15506C84.1392 8.8083 91.47 11.9293 93.6475 19.1876C95.3895 24.9216 94.7363 31.5267 89.6555 36.2445Z" fill="#B1B0B2"/>
</g>
<defs>
<clipPath id="clip0_324_982">
<rect width="300" height="53" fill="white" transform="translate(0 0.5)"/>
</clipPath>
</defs>
</svg>
