<svg width="300" height="65" viewBox="0 0 300 65" fill="none" xmlns="http://www.w3.org/2000/svg">
<g clip-path="url(#clip0_324_994)">
<path d="M13.3942 30.7928C13.2169 30.5721 13.022 30.366 12.8115 30.1766H12.7876L1.4523 20.6326C0.945626 20.1144 0.662608 19.418 0.664137 18.6933V10.1668C0.663438 10.1429 0.667692 10.1192 0.67663 10.0972C0.685569 10.0751 0.698996 10.0551 0.716061 10.0385C0.733127 10.0219 0.753458 10.009 0.775766 10.0006C0.798074 9.9923 0.821873 9.98868 0.845654 9.99002C0.870662 9.99139 0.895094 9.99806 0.917329 10.0096C0.939564 10.0211 0.959095 10.0372 0.974626 10.0569L12.7302 19.9209C13.233 20.43 13.516 21.1161 13.5184 21.8316V29.5174C13.5184 29.7372 13.5184 29.9521 13.485 30.1575C13.4515 30.3629 13.4372 30.597 13.3942 30.7928Z" fill="url(#paint0_linear_324_994)"/>
<path d="M13.3415 63.2226C13.2947 63.2222 13.2501 63.2033 13.2173 63.1701L13.1743 63.1319L1.45209 53.287C0.952359 52.7762 0.671346 52.0908 0.668701 51.3763V43.8815C0.668701 43.5997 0.668701 43.3178 0.702138 43.0503C0.717051 42.8372 0.744163 42.6251 0.783344 42.415C0.964232 42.6417 1.16398 42.8526 1.38044 43.0456L12.7396 52.5991C13.2441 53.1075 13.5289 53.7936 13.5325 54.5098V63.0363C13.5319 63.0844 13.5131 63.1305 13.48 63.1653C13.4623 63.1842 13.4408 63.1991 13.4169 63.2089C13.393 63.2188 13.3673 63.2235 13.3415 63.2226Z" fill="url(#paint1_linear_324_994)"/>
<path d="M1.03185 40.2033C0.554174 40.7765 0.878994 41.4835 1.25636 41.9707C1.42087 42.1758 1.60308 42.366 1.80091 42.5391L5.34527 39.5632L3.56354 38.0776L1.03185 40.2033Z" fill="url(#paint2_linear_324_994)"/>
<path d="M13.0121 33.1383C13.7 32.5412 13.3274 31.7626 12.9214 31.2276C12.7625 31.0222 12.585 30.8319 12.3912 30.6592L9.46777 33.1144L11.2495 34.6096L13.0121 33.1383Z" fill="url(#paint3_linear_324_994)"/>
<path d="M13.3414 45.4053C13.2927 45.4033 13.2465 45.3828 13.2124 45.3479C13.2009 45.334 13.1881 45.3212 13.1742 45.3097L1.45202 35.4457C0.942136 34.9308 0.65555 34.2358 0.654304 33.5111V26.967C0.653006 26.9423 0.656741 26.9177 0.66528 26.8945C0.673819 26.8714 0.686984 26.8503 0.70397 26.8324C0.720957 26.8145 0.741409 26.8003 0.764078 26.7906C0.786748 26.7808 0.811159 26.7758 0.835821 26.7759C0.882538 26.7763 0.92719 26.7952 0.960017 26.8284L1.00301 26.8666L12.73 36.7211C13.2327 37.2302 13.5157 37.9163 13.5181 38.6318V45.2046C13.517 45.2516 13.4981 45.2964 13.4654 45.3301C13.4326 45.3637 13.3883 45.3838 13.3414 45.3862V45.4053Z" fill="url(#paint4_linear_324_994)"/>
<path d="M13.9053 37.3229C13.7337 36.9178 13.4855 36.5496 13.1744 36.2385L1.42359 26.3793C1.34802 26.3008 1.25691 26.239 1.15609 26.1978C1.05517 26.1536 0.946205 26.1308 0.836051 26.1309C0.72426 26.1299 0.613536 26.1527 0.51123 26.1978L0.754846 26.8044C0.781644 26.799 0.809252 26.799 0.836051 26.8044C0.861291 26.7995 0.887238 26.7995 0.912479 26.8044L0.960247 26.8379L12.7302 36.721C12.9812 36.9767 13.1807 37.2784 13.3177 37.6095L13.9053 37.3229Z" fill="url(#paint5_linear_324_994)"/>
<path d="M13.418 45.3669C13.3928 45.3724 13.3667 45.3724 13.3416 45.3669C13.3148 45.3724 13.2871 45.3724 13.2603 45.3669C13.2424 45.3569 13.2263 45.344 13.2126 45.3287L1.45218 35.4456C1.20166 35.1904 1.00366 34.8886 0.869419 34.5571L0.2771 34.8437C0.450462 35.2479 0.6984 35.6157 1.00794 35.9281L12.7588 45.7921C12.8356 45.869 12.9264 45.9307 13.0263 45.9736C13.2349 46.0566 13.4673 46.0566 13.6759 45.9736L13.418 45.3669Z" fill="url(#paint6_linear_324_994)"/>
<path d="M13.3176 37.6094C13.4519 37.94 13.52 38.2938 13.5183 38.6507V45.2044C13.5237 45.2296 13.5237 45.2557 13.5183 45.2808C13.5095 45.2996 13.4964 45.316 13.48 45.3286C13.4661 45.3436 13.45 45.3565 13.4323 45.3668L13.6807 45.9735C13.8779 45.8844 14.0359 45.7265 14.1249 45.5292C14.1652 45.4257 14.1863 45.3156 14.187 45.2044V38.6507C14.1869 38.1947 14.0959 37.7433 13.9195 37.3228L13.3176 37.6094Z" fill="#91160F"/>
<path d="M0.754666 26.8044L0.706898 26.8378C0.693592 26.8539 0.682358 26.8715 0.673461 26.8904C0.665089 26.9152 0.665089 26.942 0.673461 26.9668V33.511C0.671434 33.8699 0.741273 34.2256 0.878862 34.5571L0.286543 34.8437C0.109602 34.4217 0.0186603 33.9686 0.0190442 33.511V26.9668C0.0190251 26.8551 0.0417801 26.7446 0.0859189 26.642C0.124358 26.5423 0.184766 26.4525 0.262659 26.3793C0.328427 26.3044 0.407867 26.2428 0.496721 26.1978L0.754666 26.8044Z" fill="#E74011"/>
<path d="M13.9099 53.1816C13.7366 52.7749 13.4868 52.4052 13.1743 52.0925L1.78646 42.539C1.74824 42.5055 1.67182 42.4387 1.58106 42.3431C1.46509 42.2258 1.35661 42.1014 1.25624 41.9705C1.03514 41.7028 0.879738 41.3871 0.802444 41.0486C0.76965 40.8709 0.786652 40.6877 0.851567 40.519C0.916482 40.3504 1.02678 40.2031 1.17025 40.0933C0.873213 40.3287 0.641351 40.6362 0.496731 40.9865C0.407768 41.2266 0.384773 41.4862 0.430137 41.7382C0.475501 41.9903 0.587567 42.2255 0.754676 42.4195C0.874095 42.5724 0.998291 42.7062 1.0986 42.8112L1.33266 43.0358L12.7109 52.5893C12.9645 52.843 13.1643 53.1451 13.2985 53.4778L13.9099 53.1816Z" fill="url(#paint7_linear_324_994)"/>
<path d="M0.49672 40.9868C0.407757 41.2269 0.384762 41.4865 0.430126 41.7385C0.47549 41.9906 0.587555 42.2258 0.754665 42.4198C0.754665 42.5154 0.721228 42.6157 0.706897 42.7256C0.692567 42.8354 0.683013 42.9405 0.67346 43.0552C0.663906 43.1698 0.67346 43.2606 0.67346 43.3704C0.67346 43.4803 0.67346 43.5854 0.67346 43.6952V51.3381C0.671685 51.6949 0.739843 52.0487 0.874084 52.3794L0.281765 52.666C0.108952 52.2513 0.0196724 51.8065 0.019043 51.3572C0.019043 51.3572 0.019043 43.7143 0.019043 43.6761C0.019043 43.5567 0.019043 43.4373 0.019043 43.3274C0.019043 43.2176 0.019043 43.0981 0.0429268 42.9931C0.0780448 42.3032 0.231547 41.6246 0.49672 40.9868Z" fill="#E74011"/>
<path d="M13.3176 53.4682C13.4539 53.8002 13.5237 54.1556 13.523 54.5144V63.0409C13.5291 63.066 13.5291 63.0922 13.523 63.1173C13.5141 63.1362 13.5029 63.1538 13.4896 63.1699C13.4757 63.1858 13.4574 63.1974 13.437 63.2033L13.6854 63.8099C13.786 63.7705 13.8772 63.7103 13.9529 63.6332C14.0285 63.5562 14.0885 63.4654 14.1297 63.3657C14.1738 63.2631 14.1966 63.1526 14.1966 63.0409V54.5144C14.1969 54.0567 14.106 53.6037 13.9291 53.1816L13.3176 53.4682Z" fill="#91160F"/>
<path d="M0.267578 52.6847C0.442609 53.0879 0.69035 53.4554 0.998423 53.769L12.754 63.6329C12.828 63.7098 12.9176 63.7702 13.0168 63.8097C13.1194 63.8539 13.2299 63.8765 13.3416 63.8765C13.4533 63.8769 13.5639 63.8543 13.6664 63.8097L13.418 63.203C13.3929 63.2091 13.3667 63.2091 13.3416 63.203C13.3163 63.2079 13.2904 63.2079 13.2652 63.203C13.2468 63.1958 13.2304 63.1844 13.2174 63.1697L1.45222 53.2864C1.20169 53.0313 1.00369 52.7294 0.869451 52.3979L0.267578 52.6847Z" fill="url(#paint8_linear_324_994)"/>
<path d="M0.267578 20.0265C0.438548 20.4319 0.686776 20.8002 0.998423 21.1108L12.391 30.6643C12.4244 30.6978 12.5009 30.7646 12.5964 30.8649C12.7111 30.9817 12.8196 31.1045 12.9212 31.2328C13.1508 31.5011 13.313 31.8205 13.3941 32.1642C13.4258 32.3414 13.4088 32.5239 13.3449 32.6922C13.2809 32.8604 13.1725 33.0082 13.0311 33.1196C13.3184 32.8726 13.5414 32.5595 13.6807 32.2072C13.7697 31.9671 13.7927 31.7075 13.7473 31.4555C13.702 31.2035 13.5899 30.9682 13.4228 30.7742C13.3034 30.6213 13.1792 30.4876 13.0789 30.3825C12.9786 30.2774 12.8878 30.201 12.84 30.158L1.45222 20.6331C1.20375 20.3763 1.00603 20.0748 0.869451 19.7446L0.267578 20.0265Z" fill="url(#paint9_linear_324_994)"/>
<path d="M13.6615 32.226C13.7505 31.9859 13.7735 31.7263 13.7281 31.4743C13.6828 31.2223 13.5707 30.987 13.4036 30.793C13.4036 30.6975 13.437 30.5971 13.4514 30.4921C13.4657 30.387 13.4753 30.2723 13.4848 30.1577C13.4944 30.043 13.4848 29.9523 13.4848 29.8424C13.4848 29.7326 13.4848 29.6275 13.4848 29.5176V21.851C13.4866 21.4941 13.4184 21.1403 13.2842 20.8097L13.8717 20.5229C14.0482 20.9434 14.1391 21.395 14.1392 21.851V29.5319C14.1392 29.6513 14.1392 29.7709 14.1392 29.8855C14.1392 30.0002 14.1392 30.1051 14.1392 30.215C14.0935 30.9073 13.932 31.5871 13.6615 32.226Z" fill="#91160F"/>
<path d="M0.859819 19.7444C0.721728 19.4114 0.651881 19.054 0.654418 18.6935V10.167C0.646696 10.1421 0.646696 10.1155 0.654418 10.0906C0.670461 10.0773 0.688114 10.066 0.706963 10.0571L0.75473 10.0237L0.496785 9.39795C0.402415 9.44316 0.316722 9.5046 0.243616 9.57947C0.165723 9.65266 0.105315 9.74245 0.0668759 9.84219C0.0227372 9.94479 -1.78895e-05 10.0553 1.21026e-06 10.167V18.6935C-0.000382671 19.1511 0.0905595 19.6042 0.2675 20.0263L0.859819 19.7444Z" fill="#E74011"/>
<path d="M13.9052 20.523C13.7336 20.1179 13.4854 19.7498 13.1743 19.4387L1.42349 9.57945C1.34667 9.50249 1.25588 9.44088 1.15599 9.39794C1.05507 9.35379 0.946099 9.33102 0.835945 9.33106C0.72267 9.33066 0.610508 9.35342 0.506348 9.39794L0.754739 10.0046C0.781538 9.99918 0.809146 9.99918 0.835945 10.0046C0.861173 9.99956 0.887144 9.99956 0.912373 10.0046L0.974471 10.0571L12.7301 19.9212C12.9811 20.1769 13.1806 20.4785 13.3176 20.8096L13.9052 20.523Z" fill="url(#paint10_linear_324_994)"/>
<path d="M8.28296 0.895508V4.34433L10.165 5.89201V10.1242L8.86095 9.05422V12.2642L12.8209 15.565V12.3693L11.9276 11.6098V7.40146L13.7858 8.96347V5.49553L8.28296 0.895508Z" fill="url(#paint11_linear_324_994)"/>
<path d="M11.9277 11.6097V7.40137L12.3194 8.24685V11.4282L11.9277 11.6097Z" fill="#91160F"/>
<path d="M10.1648 5.88672V10.1237L9.76831 9.28778V6.07301L10.1648 5.88672Z" fill="#E74011"/>
<path d="M13.781 5.49526L8.28295 0.895236L8.13965 0.541755L8.19697 0.503541C8.22544 0.49882 8.25448 0.49882 8.28295 0.503541C8.32854 0.504112 8.37373 0.512181 8.4167 0.527425C8.46034 0.542049 8.50085 0.564733 8.53612 0.5943L14.0342 5.19433C14.0796 5.22969 14.1156 5.2756 14.1393 5.32808L13.781 5.49526Z" fill="url(#paint12_linear_324_994)"/>
<path d="M9.76839 6.073L8.02965 4.63997C7.98545 4.60153 7.94967 4.55437 7.92456 4.50145L8.28282 4.32471L10.1649 5.8676L9.76839 6.073Z" fill="url(#paint13_linear_324_994)"/>
<path d="M11.9277 7.40137L13.7811 8.96337L13.9483 9.31685C13.9232 9.33134 13.8957 9.34106 13.8671 9.34551H13.7811C13.7356 9.34453 13.6904 9.33647 13.6474 9.32163C13.6052 9.30699 13.5662 9.28428 13.5327 9.25475L12.3194 8.2373L11.9277 7.40137Z" fill="url(#paint14_linear_324_994)"/>
<path d="M12.8162 15.5598V12.369L13.1744 12.2065C13.1994 12.257 13.2125 12.3126 13.2126 12.369V15.5598C13.2126 15.6344 13.1911 15.7074 13.1505 15.77C13.1118 15.8357 13.0533 15.8875 12.9833 15.9181L12.8162 15.5598Z" fill="#91160F"/>
<path d="M8.86081 9.05416V12.2642L8.50255 12.4313C8.47911 12.3788 8.46769 12.3217 8.46911 12.2642V9.05416C8.47063 8.97981 8.49208 8.90723 8.53121 8.84399C8.571 8.78207 8.62723 8.73245 8.69362 8.70068L8.86081 9.05416Z" fill="#E74011"/>
<path d="M8.6936 8.70053C8.71901 8.6868 8.74641 8.67714 8.77481 8.67188H8.86079C8.90638 8.67244 8.95157 8.68051 8.99454 8.69576C9.0377 8.71145 9.07803 8.73404 9.11396 8.76263L9.76838 9.29763L10.1648 10.1336L8.86079 9.05402L8.6936 8.70053Z" fill="url(#paint15_linear_324_994)"/>
<path d="M12.9832 15.9184C12.9581 15.9329 12.9306 15.9426 12.9019 15.947H12.816C12.7719 15.9465 12.7283 15.9384 12.687 15.9232C12.6434 15.9085 12.6028 15.8859 12.5676 15.8563L8.61719 12.5651C8.5707 12.5296 8.53309 12.4838 8.50732 12.4313L8.86558 12.2642L12.8207 15.5601L12.9832 15.9184Z" fill="url(#paint16_linear_324_994)"/>
<path d="M12.3194 11.4282L13.0742 12.0683C13.1169 12.1069 13.1511 12.1541 13.1745 12.2068L12.8162 12.3692L11.9277 11.6097L12.3194 11.4282Z" fill="url(#paint17_linear_324_994)"/>
<path d="M14.1393 5.32812C14.1638 5.3805 14.1768 5.4375 14.1775 5.49531V8.96324C14.1767 9.03771 14.1552 9.11048 14.1154 9.17342C14.0763 9.23777 14.0178 9.28798 13.9482 9.31672L13.781 8.96324V5.49531L14.1393 5.32812Z" fill="#91160F"/>
<path d="M8.28296 0.895473V4.32519L7.92469 4.4876C7.89968 4.43711 7.8866 4.38154 7.88647 4.32519V0.895473C7.88727 0.821009 7.90877 0.748235 7.94857 0.685295C7.99624 0.61924 8.06288 0.569258 8.13964 0.541992L8.28296 0.895473Z" fill="#E74011"/>
<path d="M17.76 51.9018V45.9165L20.0529 44.0249V49.972L17.76 51.9018Z" fill="url(#paint18_linear_324_994)"/>
<path d="M17.76 36.0333V31.1037L20.0529 29.1978V34.1083L17.76 36.0333Z" fill="url(#paint19_linear_324_994)"/>
<path d="M30.0696 51.338C30.0714 52.0637 29.7864 52.7608 29.2766 53.2773L17.4971 63.17C17.4618 63.2024 17.416 63.221 17.3682 63.2226C17.3219 63.2199 17.2781 63.2013 17.244 63.17C17.2108 63.1352 17.1921 63.0891 17.1914 63.0411V54.4811C17.1958 53.766 17.4785 53.0807 17.9796 52.5704L27.7958 44.3305H27.8197C28.5782 43.5691 29.0057 42.5391 29.0091 41.4644V38.8372C29.013 38.638 28.9764 38.44 28.9017 38.2553C28.827 38.0706 28.7157 37.9029 28.5744 37.7624C28.296 37.4905 27.9223 37.3382 27.5331 37.3382C27.1439 37.3382 26.7702 37.4905 26.4918 37.7624L17.4971 45.3145C17.4801 45.3313 17.46 45.3446 17.4379 45.3536C17.4157 45.3626 17.392 45.3672 17.3682 45.367C17.3214 45.3666 17.2768 45.3477 17.244 45.3145C17.2271 45.2975 17.2138 45.2774 17.2048 45.2552C17.1958 45.2331 17.1912 45.2094 17.1914 45.1855V38.6318C17.1943 37.9163 17.4772 37.2305 17.9796 36.7211L27.7958 28.4668H27.8197C28.58 27.7066 29.0078 26.6759 29.0091 25.6008V24.0053C29.0078 23.7143 28.9208 23.4301 28.7589 23.1882C28.597 22.9463 28.3674 22.7575 28.0988 22.6454C27.8302 22.5333 27.5345 22.5028 27.2487 22.5578C26.9629 22.6127 26.6996 22.7507 26.4918 22.9544L17.4971 30.4874C17.4801 30.5042 17.46 30.5175 17.4379 30.5265C17.4157 30.5355 17.392 30.5401 17.3682 30.5399C17.3217 30.5387 17.2774 30.5197 17.2445 30.4868C17.2116 30.4539 17.1926 30.4097 17.1914 30.3632V21.8176C17.1953 21.1023 17.4781 20.4168 17.9796 19.9069L29.7639 9.99506C29.7794 9.97767 29.7986 9.96393 29.8201 9.95484C29.8415 9.94575 29.8648 9.94155 29.8881 9.94252C29.9119 9.94252 29.9355 9.94721 29.9575 9.95634C29.9795 9.96546 29.9996 9.97883 30.0164 9.99569C30.0333 10.0125 30.0466 10.0325 30.0558 10.0546C30.0649 10.0766 30.0696 10.1002 30.0696 10.124V30.1196C30.0696 31.3424 29.4247 31.9204 28.8037 32.5414C30.0552 32.2214 30.0696 33.2818 30.0696 33.2818V51.338Z" fill="url(#paint20_linear_324_994)"/>
<path d="M28.0921 22.6293C27.9116 22.5556 27.7187 22.5167 27.5237 22.5146C27.1385 22.5171 26.7691 22.6676 26.4919 22.935L17.4973 30.4871C17.4842 30.5018 17.4678 30.5133 17.4495 30.5205C17.4229 30.5281 17.3948 30.5281 17.3683 30.5205C17.3433 30.5277 17.3168 30.5277 17.2918 30.5205L17.0435 31.1319C17.2537 31.2147 17.4876 31.2147 17.6979 31.1319C17.7956 31.0877 17.8846 31.0262 17.9606 30.9504L26.9314 23.4318C27.0099 23.3582 27.1004 23.2985 27.1989 23.255C27.3006 23.2082 27.4117 23.1853 27.5237 23.1882C27.6335 23.1866 27.7425 23.2078 27.8437 23.2503L28.0921 22.6293Z" fill="url(#paint21_linear_324_994)"/>
<path d="M28.0874 26.8906C27.9148 27.2977 27.665 27.6676 27.3518 27.9797L17.5355 36.2149C17.2269 36.5225 16.9789 36.8855 16.8047 37.2849L17.397 37.5715C17.5313 37.24 17.7292 36.9382 17.9798 36.683L27.796 28.467C28.1731 28.0888 28.4732 27.6411 28.6797 27.1486L28.0874 26.8906Z" fill="url(#paint22_linear_324_994)"/>
<path d="M28.0921 37.4613C27.9124 37.3848 27.719 37.3458 27.5237 37.3467C27.3341 37.3469 27.1461 37.3826 26.9696 37.4518C26.792 37.5238 26.6298 37.6292 26.4919 37.7623L17.4973 45.3143C17.4842 45.3291 17.4678 45.3406 17.4495 45.3478C17.4229 45.3553 17.3948 45.3553 17.3683 45.3478C17.3433 45.3549 17.3168 45.3549 17.2918 45.3478L17.0435 45.9544C17.1469 45.9984 17.2582 46.0211 17.3707 46.0211C17.4831 46.0211 17.5944 45.9984 17.6979 45.9544C17.7954 45.9119 17.8844 45.852 17.9606 45.7777L26.9314 38.24C27.0082 38.163 27.099 38.1014 27.1989 38.0584C27.3007 38.0144 27.4104 37.9917 27.5213 37.9917C27.6322 37.9917 27.7419 38.0144 27.8437 38.0584L28.0921 37.4613Z" fill="url(#paint23_linear_324_994)"/>
<path d="M28.0874 42.7593C27.9147 43.1649 27.6649 43.5332 27.3518 43.8436L17.5355 52.0931C17.2239 52.4037 16.9757 52.772 16.8047 53.1774L17.397 53.4592C17.5336 53.129 17.7313 52.8276 17.9798 52.5708L27.796 44.3308C28.1721 43.9501 28.4721 43.501 28.6797 43.0077L28.0874 42.7593Z" fill="url(#paint24_linear_324_994)"/>
<path d="M29.8643 52.3887C29.729 52.7207 29.5293 53.0226 29.2768 53.2772L17.4973 63.1698L17.4495 63.2033C17.4227 63.2087 17.3951 63.2087 17.3683 63.2033C17.343 63.2082 17.3171 63.2082 17.2918 63.2033L17.0435 63.8099C17.1469 63.8539 17.2582 63.8766 17.3707 63.8766C17.4831 63.8766 17.5944 63.8539 17.6979 63.8099C17.7964 63.7692 17.8857 63.7091 17.9606 63.6332L29.721 53.7596C30.0333 53.4477 30.2815 53.0777 30.4518 52.6705L29.8643 52.3887Z" fill="url(#paint25_linear_324_994)"/>
<path d="M30.0698 30.1197C30.08 30.6265 29.9404 31.125 29.6686 31.5527C29.4168 31.911 29.1269 32.241 28.804 32.5367L29.3915 32.2071C29.7003 31.9331 29.9862 31.6343 30.2465 31.3139C30.5634 30.9041 30.7318 30.3988 30.7242 29.8809L30.0698 30.1197Z" fill="url(#paint26_linear_324_994)"/>
<path d="M17.397 20.7763C17.5313 20.4448 17.7292 20.143 17.9798 19.8878L29.7641 9.99511L29.8118 9.96167C29.837 9.95625 29.8631 9.95625 29.8882 9.96167C29.9151 9.95673 29.9426 9.95673 29.9695 9.96167L30.2131 9.35502C30.1105 9.31086 29.9999 9.28809 29.8882 9.28809C29.7766 9.28809 29.666 9.31086 29.5634 9.35502C29.4644 9.39741 29.3738 9.45728 29.2959 9.53176L17.5355 19.4053C17.2249 19.7168 16.9768 20.0849 16.8047 20.4897L17.397 20.7763Z" fill="url(#paint27_linear_324_994)"/>
<path d="M16.8047 20.4897C16.6273 20.9099 16.5363 21.3616 16.5372 21.8177V30.3633C16.5353 30.4752 16.5581 30.5861 16.6041 30.6881C16.6449 30.7866 16.705 30.876 16.7808 30.9509C16.8568 31.0267 16.9458 31.0881 17.0436 31.1324L17.2919 30.521C17.2736 30.5138 17.2572 30.5023 17.2442 30.4875C17.2308 30.4733 17.2196 30.4572 17.2107 30.4397C17.2058 30.4145 17.2058 30.3886 17.2107 30.3633V21.8177C17.2106 21.4605 17.2804 21.1067 17.4161 20.7764L16.8047 20.4897Z" fill="#91160F"/>
<path d="M30.7242 29.8855V10.124C30.7242 10.0123 30.7015 9.90182 30.6573 9.79922C30.617 9.6991 30.5568 9.60815 30.4805 9.53182C30.4042 9.45549 30.3132 9.39534 30.2131 9.35498L29.9695 9.96163L30.0172 9.99507C30.0295 10.0102 30.0407 10.0261 30.0507 10.0428C30.0561 10.0696 30.0561 10.0972 30.0507 10.124V30.1196L30.7242 29.8855Z" fill="#E74011"/>
<path d="M30.7242 32.7899C30.7124 32.6968 30.685 32.6064 30.643 32.5224C30.6021 32.4415 30.5489 32.3674 30.4854 32.3027C30.4079 32.2277 30.3172 32.1678 30.2179 32.126C30.1171 32.0814 30.008 32.0586 29.8978 32.0591C29.7867 32.0598 29.6766 32.0809 29.573 32.1212C29.5105 32.1453 29.4498 32.174 29.3915 32.2072L28.804 32.5368C29.4297 32.3791 29.7593 32.5368 29.9026 32.7852C30.0003 32.9265 30.058 33.0915 30.0698 33.2628L30.7242 32.7899Z" fill="url(#paint28_linear_324_994)"/>
<path d="M28.0874 42.7589C28.2643 42.3368 28.3552 41.8838 28.3549 41.4261V38.8371C28.3564 38.7258 28.3353 38.6153 28.2928 38.5123C28.2498 38.4124 28.1882 38.3216 28.1112 38.2448C28.0342 38.1693 27.9434 38.1093 27.8438 38.0681L28.0921 37.4614C28.2709 37.5355 28.4332 37.6443 28.5697 37.7815C28.7106 37.9183 28.822 38.0825 28.8967 38.2641C28.9715 38.4457 29.0082 38.6408 29.0044 38.8371V41.4261C29.0056 41.9618 28.9017 42.4925 28.6987 42.9881L28.0874 42.7589Z" fill="#91160F"/>
<path d="M17.397 53.4544C17.2715 53.782 17.2099 54.1306 17.2154 54.4814V63.027C17.2094 63.0521 17.2094 63.0783 17.2154 63.1034L17.2489 63.156L17.2966 63.1894L17.0483 63.7961C16.9498 63.7553 16.8604 63.6952 16.7855 63.6193C16.7085 63.5436 16.6483 63.4524 16.6088 63.3518C16.5624 63.2499 16.5395 63.1389 16.5419 63.027V54.4814C16.5415 54.0268 16.6325 53.5769 16.8094 53.1582L17.397 53.4544Z" fill="#91160F"/>
<path d="M16.8047 37.2847C16.6272 37.7049 16.5363 38.1565 16.5372 38.6126V45.1854C16.5339 45.2974 16.5568 45.4086 16.604 45.5103C16.6423 45.6115 16.7027 45.7029 16.7808 45.7778C16.8569 45.8521 16.946 45.912 17.0435 45.9545L17.2919 45.3478C17.2735 45.3407 17.2572 45.3292 17.2441 45.3144C17.2308 45.3002 17.2195 45.2841 17.2107 45.2666C17.2047 45.2399 17.2047 45.2122 17.2107 45.1854V38.6317C17.2106 38.2745 17.2803 37.9208 17.4161 37.5904L16.8047 37.2847Z" fill="#91160F"/>
<path d="M27.8438 23.2365C27.9435 23.2795 28.0344 23.3411 28.1112 23.418C28.1892 23.4922 28.2509 23.5817 28.2928 23.6808C28.3353 23.7837 28.3564 23.8942 28.3549 24.0056V25.5628C28.3558 26.0189 28.2648 26.4706 28.0874 26.8908L28.7036 27.1248C28.9061 26.629 29.0099 26.0984 29.0093 25.5628V24.0056C29.0124 23.81 28.9754 23.6159 28.9006 23.4352C28.8259 23.2544 28.7149 23.0909 28.5746 22.9547C28.4391 22.8151 28.2765 22.7046 28.0969 22.6299L27.8438 23.2365Z" fill="#91160F"/>
<path d="M30.0699 33.2773V51.3382C30.0701 51.6985 30.0003 52.0554 29.8645 52.3891L30.452 52.6709C30.6332 52.25 30.7258 51.7964 30.7243 51.3382V32.79L30.0699 33.2773Z" fill="#E74011"/>
<path d="M22.3743 11.8002V8.57115L18.7249 11.6331V7.46772L22.3743 4.39626V0.933105L16.9336 5.5188V16.3764L22.3743 11.8002Z" fill="url(#paint29_linear_324_994)"/>
<path d="M19.1213 7.64978V10.7881L18.7249 11.6336V7.46826L19.1213 7.64978Z" fill="#91160F"/>
<path d="M16.7665 16.7446C16.6975 16.7138 16.639 16.6635 16.5982 16.5998C16.5575 16.5362 16.5363 16.462 16.5372 16.3864V5.51924C16.5357 5.46118 16.5488 5.40366 16.5755 5.35205L16.9337 5.51924V16.3768L16.7665 16.7446Z" fill="#91160F"/>
<path d="M22.7374 4.56845C22.7123 4.61995 22.6764 4.66553 22.6324 4.7022L19.1262 7.66857L18.7297 7.48705L22.3744 4.39648L22.7374 4.56845Z" fill="url(#paint30_linear_324_994)"/>
<path d="M22.3743 8.56688L18.7249 11.6336L19.1261 10.7881L22.1259 8.26595C22.1627 8.2348 22.2047 8.21053 22.2501 8.19429C22.2914 8.17905 22.335 8.17097 22.3791 8.17041H22.4651L22.551 8.19907L22.3743 8.56688Z" fill="url(#paint31_linear_324_994)"/>
<path d="M16.9335 16.3769L22.3743 11.8008L22.7373 11.9727C22.7106 12.0233 22.675 12.0686 22.6322 12.1065L17.1867 16.6826C17.1508 16.7112 17.1104 16.7338 17.0673 16.7495C17.0242 16.7644 16.9791 16.7724 16.9335 16.7734H16.8476C16.819 16.7689 16.7914 16.7592 16.7664 16.7447L16.9335 16.3769Z" fill="url(#paint32_linear_324_994)"/>
<path d="M22.3744 0.929029L16.9337 5.5195L16.5754 5.35231C16.5991 5.29984 16.6351 5.25393 16.6805 5.21856L22.1213 0.628093C22.1583 0.598469 22.2004 0.57581 22.2455 0.561218C22.2858 0.542229 22.3298 0.532439 22.3744 0.532557C22.4029 0.527559 22.432 0.527559 22.4604 0.532557L22.5464 0.556441L22.3744 0.929029Z" fill="url(#paint33_linear_324_994)"/>
<path d="M22.3743 4.3965V0.92857L22.5462 0.570312C22.6129 0.605768 22.6702 0.656515 22.7134 0.718392C22.7532 0.781332 22.7747 0.854106 22.7755 0.92857V4.3965C22.7754 4.45591 22.7623 4.51458 22.7373 4.56847L22.3743 4.3965Z" fill="#E74011"/>
<path d="M22.5462 8.20801C22.6129 8.24346 22.6702 8.29421 22.7134 8.35609C22.7518 8.41942 22.7716 8.49223 22.7707 8.56627V11.8001C22.7721 11.8592 22.7607 11.9178 22.7373 11.9721L22.3743 11.8001V8.56627L22.5462 8.20801Z" fill="#E74011"/>
<path d="M68.6135 46.3605H52.8502L68.4368 20.4848C68.4433 20.4614 68.4433 20.4366 68.4368 20.4131V16.0137C68.4368 15.9795 68.4232 15.9467 68.399 15.9225C68.3748 15.8984 68.342 15.8848 68.3078 15.8848H47.7056C47.6779 15.8846 47.6508 15.8933 47.6285 15.9096C47.6061 15.926 47.5896 15.9491 47.5814 15.9755L46.3251 20.6042C46.3172 20.6223 46.3131 20.6418 46.3131 20.6615C46.3131 20.6813 46.3172 20.7008 46.3251 20.7189C46.3382 20.7339 46.3543 20.746 46.3724 20.7542C46.3906 20.7625 46.4103 20.7667 46.4302 20.7666H61.5296L45.6134 46.8382C45.6064 46.86 45.6064 46.8833 45.6134 46.9051V51.1755C45.6134 51.2097 45.627 51.2425 45.6511 51.2667C45.6753 51.2909 45.7081 51.3045 45.7423 51.3045H67.1948C67.2225 51.3047 67.2495 51.296 67.2719 51.2797C67.2943 51.2633 67.3108 51.2402 67.319 51.2137L68.752 46.5325C68.758 46.5131 68.7594 46.4926 68.756 46.4726C68.7526 46.4526 68.7445 46.4337 68.7324 46.4174C68.7203 46.4011 68.7045 46.3879 68.6863 46.3788C68.6682 46.3698 68.6481 46.3652 68.6278 46.3653L68.6135 46.3605Z" fill="#1D1D1B"/>
<path d="M74.78 15.646C73.7757 15.6649 72.8182 16.0736 72.1098 16.7857C71.4013 17.4978 70.9976 18.4575 70.984 19.4619C70.9704 20.4663 71.3478 21.4366 72.0366 22.1677C72.7254 22.8988 73.6715 23.3334 74.6749 23.3796C75.6792 23.3607 76.6368 22.952 77.3452 22.2398C78.0536 21.5277 78.4573 20.568 78.4709 19.5637C78.4846 18.5593 78.1071 17.589 77.4183 16.8579C76.7295 16.1268 75.7834 15.6922 74.78 15.646Z" fill="#1D1D1B"/>
<path d="M77.5221 24.6738H77.4982L71.8568 25.6913C71.8269 25.6969 71.7999 25.713 71.7807 25.7366C71.7615 25.7602 71.7512 25.7898 71.7517 25.8203V51.1897C71.7517 51.2239 71.7653 51.2567 71.7895 51.2809C71.8137 51.305 71.8465 51.3186 71.8807 51.3186H77.5221C77.5563 51.3186 77.5891 51.305 77.6133 51.2809C77.6374 51.2567 77.651 51.2239 77.651 51.1897V24.8028C77.6516 24.784 77.6481 24.7652 77.6407 24.7479C77.6332 24.7305 77.6221 24.7151 77.608 24.7025C77.5832 24.6839 77.5531 24.6738 77.5221 24.6738Z" fill="#1D1D1B"/>
<path d="M152.513 47.2636C152.492 47.2587 152.471 47.2587 152.45 47.2636H152.407C151.662 47.5672 150.867 47.7292 150.062 47.7412C147.674 47.7412 147.038 46.8814 147.038 43.7526V28.7966H151.638C151.665 28.7961 151.69 28.7877 151.712 28.7723C151.733 28.7569 151.749 28.7354 151.758 28.7106L153.234 24.8653C153.243 24.8459 153.248 24.8247 153.248 24.8032C153.248 24.7817 153.243 24.7605 153.234 24.7411C153.222 24.7247 153.206 24.7113 153.188 24.7022C153.169 24.693 153.149 24.6884 153.129 24.6886H147.091V17.7384C147.091 17.7199 147.086 17.7017 147.078 17.6852C147.07 17.6687 147.058 17.6542 147.043 17.6428C147.033 17.632 147.02 17.6234 147.006 17.6176C146.992 17.6119 146.977 17.6091 146.962 17.6094H146.938L141.397 18.5648C141.367 18.5703 141.339 18.5861 141.319 18.6096C141.299 18.6331 141.288 18.6628 141.287 18.6937V24.6742H138.574C138.539 24.6742 138.506 24.6876 138.481 24.7117C138.456 24.7358 138.441 24.7686 138.44 24.8032V28.6867C138.441 28.7214 138.456 28.7542 138.481 28.7782C138.506 28.8023 138.539 28.8157 138.574 28.8157H141.287V45.243C141.287 48.3145 142.477 51.9782 148.132 51.9782C149.888 51.9771 151.623 51.5923 153.215 50.8509C153.242 50.8385 153.265 50.8171 153.279 50.7902C153.293 50.7633 153.297 50.7325 153.291 50.7028L152.579 47.3591C152.576 47.3392 152.569 47.3202 152.557 47.3037C152.545 47.2871 152.53 47.2734 152.513 47.2636Z" fill="#1D1D1B"/>
<path d="M113.821 29.0259C112.679 26.1598 109.932 24.6742 105.867 24.6742C103.298 24.6571 100.757 25.2017 98.4204 26.2697C98.4012 26.2787 98.3843 26.292 98.3711 26.3085C98.3578 26.3251 98.3486 26.3445 98.344 26.3652L97.3409 31.7582C97.3351 31.7837 97.3376 31.8103 97.3479 31.8343C97.3582 31.8583 97.3758 31.8785 97.3982 31.8919C97.4199 31.8989 97.4433 31.8989 97.4651 31.8919C97.4917 31.8988 97.5196 31.8988 97.5463 31.8919C97.5845 31.8633 101.425 29.002 105.098 29.002C108.012 29.002 108.523 30.435 108.523 33.3966V35.1544H106.928C98.5303 35.1544 94.0879 38.2928 94.0879 44.2303C94.1213 49.2268 97.2597 52.0929 102.767 52.0929C104.773 52.1644 106.743 51.5531 108.356 50.3589V51.9639C108.356 51.9981 108.37 52.0309 108.394 52.0551C108.418 52.0793 108.451 52.0929 108.485 52.0929H114.103C114.12 52.0935 114.137 52.0906 114.153 52.0844C114.17 52.0783 114.184 52.0689 114.197 52.0568C114.209 52.0448 114.219 52.0303 114.226 52.0144C114.233 51.9984 114.236 51.9812 114.236 51.9639V35.3742C114.289 31.4524 114.279 30.1579 113.821 29.0259ZM108.332 45.1474C107.195 46.7811 105.519 47.7556 103.837 47.7556C101.688 47.7556 100.408 46.3225 100.408 43.9341C100.408 41.0681 101.621 39.186 107.573 39.186C107.85 39.186 108.184 39.186 108.356 39.2242L108.332 45.1474Z" fill="#1D1D1B"/>
<path d="M136.185 29.0258C135.044 26.1598 132.297 24.6742 128.237 24.6742C125.67 24.658 123.13 25.2024 120.795 26.2696C120.774 26.2784 120.757 26.2922 120.743 26.3098C120.73 26.3274 120.721 26.3481 120.718 26.3699L119.672 32.3027C119.668 32.3286 119.671 32.3554 119.682 32.3793C119.693 32.4032 119.711 32.4232 119.734 32.4364C119.756 32.4434 119.779 32.4434 119.801 32.4364C119.826 32.4433 119.853 32.4433 119.878 32.4364C119.916 32.4078 123.799 29.513 127.473 29.513C130.386 29.513 130.902 30.9461 130.902 33.9124V35.1544H129.302C120.9 35.1544 116.462 38.2927 116.462 44.2303C116.462 49.222 119.624 52.088 125.137 52.088C127.141 52.1581 129.109 51.5469 130.721 50.3541V51.9591C130.721 51.9933 130.734 52.0261 130.759 52.0503C130.783 52.0745 130.816 52.088 130.85 52.088H136.472C136.506 52.088 136.539 52.0745 136.563 52.0503C136.587 52.0261 136.601 51.9933 136.601 51.9591V35.3741C136.634 31.4524 136.634 30.1579 136.185 29.0258ZM130.697 45.1474C130.213 45.9114 129.551 46.5474 128.769 47.0014C127.986 47.4555 127.106 47.7141 126.202 47.7555C124.057 47.7555 122.772 46.3225 122.772 43.9341C122.772 41.068 123.99 39.186 129.914 39.186C130.191 39.186 130.525 39.186 130.697 39.2242V45.1474Z" fill="#1D1D1B"/>
<path d="M94.7233 31.2849C94.7373 31.2893 94.7523 31.2893 94.7663 31.2849C94.7884 31.2898 94.8112 31.2898 94.8332 31.2849C94.849 31.2746 94.8626 31.2613 94.8733 31.2457C94.884 31.2301 94.8914 31.2126 94.8953 31.1941L95.8507 25.9063C95.8554 25.8773 95.8505 25.8476 95.8367 25.8217C95.8229 25.7958 95.8009 25.7751 95.7742 25.763C95.173 25.499 94.5197 25.3749 93.8635 25.3999C91.4465 25.3999 89.4498 26.5893 87.434 29.25V24.8076C87.434 24.7884 87.4297 24.7694 87.4215 24.752C87.4132 24.7347 87.4012 24.7194 87.3862 24.7073C87.3757 24.6964 87.3631 24.6879 87.3491 24.6821C87.3351 24.6764 87.3201 24.6735 87.305 24.6739L82.1175 25.5862C82.0871 25.5909 82.0595 25.6067 82.0401 25.6305C82.0207 25.6543 82.0108 25.6845 82.0124 25.7152V51.1849C82.0124 51.2018 82.0157 51.2186 82.0222 51.2343C82.0287 51.2499 82.0382 51.2641 82.0501 51.2761C82.0621 51.2881 82.0763 51.2976 82.092 51.3041C82.1076 51.3105 82.1244 51.3139 82.1413 51.3139H87.7349C87.7691 51.3139 87.8019 51.3003 87.8261 51.2761C87.8503 51.2519 87.8639 51.2191 87.8639 51.1849V34.3898C88.1365 33.3429 88.7437 32.4137 89.593 31.7437C90.4424 31.0737 91.4874 30.6996 92.569 30.6782C93.2453 30.7634 93.9063 30.9435 94.5323 31.2132L94.7233 31.2849Z" fill="#1D1D1B"/>
<path d="M182.678 34.1465C181.432 33.2662 180.014 32.659 178.517 32.3648C179.795 31.9392 180.97 31.251 181.966 30.3442C182.746 29.6305 183.367 28.7597 183.787 27.789C184.207 26.8184 184.416 25.7699 184.402 24.7124C184.388 23.332 184.04 21.9757 183.385 20.76C182.731 19.5443 181.792 18.5057 180.648 17.7335C177.748 15.7607 174.156 15.7607 170.989 15.7607H162.754C162.719 15.7607 162.686 15.7742 162.661 15.7982C162.636 15.8223 162.621 15.8551 162.62 15.8897V51.0706C162.621 51.1052 162.636 51.138 162.661 51.1621C162.686 51.1862 162.719 51.1996 162.754 51.1996H171.83C176.845 51.1996 180.337 51.0037 183.098 48.3956C184.016 47.4863 184.739 46.3991 185.222 45.2007C185.704 44.0024 185.938 42.718 185.907 41.4263C185.907 38.3548 184.732 35.699 182.678 34.1465ZM166.914 19.458H172.718C174.232 19.458 175.971 19.5583 177.466 20.762C178.112 21.3221 178.626 22.0172 178.972 22.7981C179.319 23.579 179.49 24.4266 179.473 25.2808C179.491 26.0793 179.344 26.8729 179.043 27.6125C178.741 28.352 178.291 29.0217 177.719 29.5799C176.177 30.9318 174.113 30.9318 173.119 30.9318H166.91L166.914 19.458ZM179.434 46.0502C178.001 47.3399 175.928 47.4832 174.29 47.4832H166.934V34.6337H173.01C175.03 34.6337 177.309 34.6337 178.981 35.89C179.821 36.5445 181.235 38.1208 181.235 41.3785C181.235 44.044 180.103 45.4483 179.434 46.0502Z" fill="#1D1D1B"/>
<path d="M221.742 24.8362C220.21 24.8488 218.705 25.2411 217.362 25.9779C216.049 26.6612 214.85 27.5443 213.808 28.5956V24.8649C213.808 24.8476 213.804 24.8304 213.798 24.8144C213.791 24.7985 213.781 24.784 213.768 24.772C213.756 24.7599 213.741 24.7505 213.725 24.7443C213.709 24.7381 213.692 24.7353 213.674 24.7359H213.65L209.719 25.4333C209.688 25.4379 209.66 25.4535 209.64 25.4773C209.62 25.501 209.609 25.5312 209.609 25.5623V51.0702C209.61 51.1049 209.625 51.1377 209.65 51.1617C209.675 51.1858 209.708 51.1992 209.743 51.1992H213.741C213.775 51.1992 213.808 51.1856 213.832 51.1614C213.856 51.1373 213.87 51.1044 213.87 51.0702V32.0969C214.816 31.1239 215.919 30.3166 217.133 29.7085C218.256 29.0548 219.518 28.6736 220.815 28.5956C221.317 28.5799 221.816 28.6644 222.285 28.844C222.753 29.0236 223.181 29.2948 223.543 29.6417C224.436 30.6305 224.431 32.1351 224.431 33.5921V51.0941C224.431 51.1283 224.445 51.1611 224.469 51.1853C224.493 51.2095 224.526 51.2231 224.56 51.2231H228.559C228.593 51.2231 228.627 51.2097 228.651 51.1856C228.676 51.1616 228.691 51.1288 228.692 51.0941V31.6861C228.725 30.641 228.509 29.6031 228.062 28.6577C227.483 27.4839 226.58 26.5003 225.461 25.8231C224.341 25.1459 223.05 24.8035 221.742 24.8362Z" fill="#1D1D1B"/>
<path d="M241.145 36.6111L251.683 24.9511C251.698 24.9311 251.706 24.9068 251.706 24.8818C251.706 24.8568 251.698 24.8325 251.683 24.8125C251.673 24.7891 251.657 24.7693 251.635 24.7556C251.614 24.7419 251.589 24.7351 251.564 24.7361H246.562C246.544 24.7355 246.526 24.7391 246.51 24.7466C246.493 24.754 246.478 24.7651 246.467 24.7791L236.23 36.4392V15.8991C236.231 15.8803 236.228 15.8616 236.219 15.8448C236.211 15.828 236.198 15.8137 236.182 15.8035C236.172 15.7924 236.159 15.7837 236.145 15.7779C236.131 15.7722 236.116 15.7695 236.101 15.7701H236.077L232.079 16.4771C232.049 16.4834 232.022 16.4995 232.002 16.5228C231.982 16.5461 231.971 16.5754 231.969 16.606V51.08C231.97 51.1146 231.985 51.1474 232.01 51.1715C232.035 51.1955 232.068 51.209 232.103 51.2089H236.101C236.135 51.2089 236.168 51.1953 236.192 51.1712C236.217 51.147 236.23 51.1142 236.23 51.08V36.807L247.895 51.1373C247.908 51.1515 247.923 51.1631 247.94 51.1713C247.958 51.1795 247.976 51.1842 247.995 51.185H253.331C253.356 51.1854 253.381 51.1783 253.402 51.1647C253.423 51.1511 253.44 51.1316 253.45 51.1086C253.463 51.0877 253.47 51.0638 253.47 51.0394C253.47 51.0149 253.463 50.991 253.45 50.9701L241.145 36.6111Z" fill="#1D1D1B"/>
<path d="M198.78 24.7358C196.879 24.7456 194.993 25.0683 193.196 25.6912C192.426 25.9673 191.672 26.2863 190.937 26.6465C190.918 26.6558 190.902 26.6693 190.89 26.6859C190.877 26.7025 190.869 26.7217 190.865 26.7421L190.087 31.1749C190.082 31.2009 190.086 31.2276 190.097 31.2515C190.108 31.2755 190.126 31.2954 190.149 31.3087C190.171 31.3136 190.194 31.3136 190.216 31.3087C190.242 31.3178 190.271 31.3178 190.297 31.3087C191.375 30.4597 192.573 29.774 193.851 29.2738C195.29 28.6933 196.819 28.37 198.37 28.3184C199.378 28.3184 200.658 28.4617 201.603 29.5556C202.425 30.5348 202.497 31.5284 202.497 32.5459V35.1826C202.019 35.1444 201.484 35.1444 200.882 35.1444C197.968 35.1444 193.865 35.5552 190.851 37.5328C189.69 38.2674 188.739 39.2911 188.093 40.5037C187.446 41.7162 187.126 43.0759 187.163 44.4496C187.163 49.0591 190.278 51.8106 195.499 51.8106C197.147 51.8106 199.626 51.5192 202.296 49.0544V51.6816C202.296 51.7158 202.31 51.7486 202.334 51.7728C202.358 51.797 202.391 51.8106 202.425 51.8106H206.347C206.381 51.8106 206.414 51.797 206.438 51.7728C206.462 51.7486 206.476 51.7158 206.476 51.6816V33.3245C206.476 33.0809 206.476 32.8468 206.476 32.565C206.476 31.3373 206.514 29.9473 206.122 28.82C205.578 27.2962 203.887 24.7358 198.78 24.7358ZM202.239 44.7266C201.67 45.8688 200.797 46.8326 199.717 47.5125C198.637 48.1923 197.391 48.5621 196.115 48.5815C194.958 48.631 193.828 48.2206 192.972 47.4398C192.494 46.9621 191.888 45.959 191.888 44.0961C191.888 42.2331 192.394 40.953 193.435 39.9833C195.107 38.364 198.561 38.1251 200.471 38.1251C200.929 38.1152 201.387 38.1311 201.842 38.1729L202.239 38.2111V44.7266Z" fill="#1D1D1B"/>
<path d="M264.227 24.7358C262.327 24.7451 260.442 25.0679 258.648 25.6912C257.877 25.9656 257.122 26.2846 256.388 26.6465C256.369 26.6552 256.353 26.6684 256.34 26.6851C256.328 26.7018 256.319 26.7214 256.316 26.7421L255.538 31.1749C255.532 31.2004 255.535 31.2271 255.545 31.2511C255.555 31.2751 255.573 31.2952 255.595 31.3087C255.617 31.3132 255.64 31.3132 255.662 31.3087C255.688 31.3178 255.717 31.3178 255.743 31.3087C256.823 30.4617 258.02 29.7762 259.297 29.2738C260.738 28.6934 262.269 28.3701 263.821 28.3184C264.824 28.3184 266.104 28.4617 267.05 29.5556C267.876 30.5348 267.943 31.5284 267.943 32.5459V35.1826C267.465 35.1444 266.935 35.1444 266.329 35.1444C263.415 35.1444 259.316 35.5552 256.297 37.5328C255.136 38.267 254.185 39.2907 253.538 40.5033C252.892 41.716 252.572 43.0759 252.61 44.4496C252.61 49.0591 255.724 51.8106 260.945 51.8106C262.593 51.8106 265.072 51.5192 267.742 49.0544V51.6816C267.742 51.7158 267.756 51.7486 267.78 51.7728C267.804 51.797 267.837 51.8106 267.871 51.8106H271.817C271.851 51.8106 271.884 51.797 271.908 51.7728C271.932 51.7486 271.946 51.7158 271.946 51.6816V33.3245C271.946 33.0809 271.946 32.8468 271.946 32.565C271.946 31.3373 271.984 29.9473 271.593 28.82C271.024 27.2962 269.333 24.7358 264.227 24.7358ZM267.685 44.7266C267.116 45.8688 266.244 46.8326 265.164 47.5125C264.084 48.1923 262.837 48.5621 261.561 48.5815C260.412 48.6262 259.291 48.216 258.442 47.4398C257.964 46.9621 257.353 45.959 257.353 44.0961C257.353 42.2331 257.859 40.953 258.901 39.9833C260.573 38.364 264.026 38.1251 265.937 38.1251C266.396 38.1151 266.855 38.131 267.313 38.1729L267.704 38.2111L267.685 44.7266Z" fill="#1D1D1B"/>
<path d="M287.15 36.3625L283.835 35.5983C281.189 35.0012 280.114 33.9598 280.114 32.0061C280.114 29.6178 281.949 28.0462 284.681 28.0462C286.501 28.0462 288.268 28.5478 290.776 29.7802C290.795 29.785 290.815 29.785 290.833 29.7802H290.872C290.888 29.7753 290.904 29.7668 290.917 29.7553C290.93 29.7437 290.941 29.7294 290.948 29.7133L292.309 26.8472C292.324 26.8181 292.327 26.7841 292.318 26.7528C292.308 26.7215 292.286 26.6953 292.257 26.68C289.869 25.3827 287.193 24.7106 284.475 24.7263C279.035 24.7263 275.4 27.8695 275.4 32.5507C275.4 36.2957 277.516 38.7032 281.514 39.5104L284.604 40.1505C287.599 40.719 288.994 42.0612 288.994 44.3111C288.994 46.8571 287.036 48.572 284.122 48.572C281.734 48.572 279.02 47.7504 276.083 46.1406C276.062 46.1343 276.041 46.1343 276.021 46.1406H275.982C275.948 46.1518 275.919 46.1757 275.901 46.2075L274.468 49.1117C274.453 49.1416 274.45 49.1763 274.459 49.2084C274.469 49.2405 274.491 49.2675 274.521 49.2837C277.34 50.8862 280.516 51.7566 283.759 51.8154C289.687 51.8154 293.676 48.4239 293.676 43.3796C293.68 39.7636 291.402 37.3418 287.15 36.3625Z" fill="#1D1D1B"/>
<path d="M299.933 24.7645C299.908 24.7459 299.878 24.7358 299.847 24.7358L295.849 25.4332C295.818 25.4379 295.79 25.4535 295.77 25.4772C295.75 25.5009 295.739 25.5311 295.739 25.5622V51.0701C295.74 51.1048 295.755 51.1376 295.78 51.1617C295.805 51.1857 295.838 51.1991 295.873 51.1991H299.871C299.905 51.1991 299.938 51.1855 299.962 51.1613C299.986 51.1372 300 51.1044 300 51.0701V24.8648C299.998 24.8439 299.991 24.8238 299.979 24.8064C299.967 24.7889 299.951 24.7745 299.933 24.7645Z" fill="#1D1D1B"/>
</g>
<defs>
<linearGradient id="paint0_linear_324_994" x1="0.654583" y1="20.389" x2="13.5184" y2="20.389" gradientUnits="userSpaceOnUse">
<stop stop-color="#E30613"/>
<stop offset="0.31" stop-color="#E00713"/>
<stop offset="0.54" stop-color="#D70B14"/>
<stop offset="0.75" stop-color="#C71215"/>
<stop offset="0.77" stop-color="#C51315"/>
</linearGradient>
<linearGradient id="paint1_linear_324_994" x1="0.659148" y1="52.8188" x2="13.523" y2="52.8188" gradientUnits="userSpaceOnUse">
<stop stop-color="#E30613"/>
<stop offset="0.31" stop-color="#E00713"/>
<stop offset="0.54" stop-color="#D70B14"/>
<stop offset="0.75" stop-color="#C71215"/>
<stop offset="0.77" stop-color="#C51315"/>
</linearGradient>
<linearGradient id="paint2_linear_324_994" x1="0.783459" y1="40.3132" x2="5.34527" y2="40.3132" gradientUnits="userSpaceOnUse">
<stop stop-color="#91160F"/>
<stop offset="0.51" stop-color="#B71918"/>
<stop offset="0.78" stop-color="#A01712"/>
<stop offset="1" stop-color="#91160F"/>
</linearGradient>
<linearGradient id="paint3_linear_324_994" x1="9.46777" y1="32.6463" x2="13.3943" y2="32.6463" gradientUnits="userSpaceOnUse">
<stop stop-color="#91160F"/>
<stop offset="0.51" stop-color="#B71918"/>
<stop offset="0.78" stop-color="#A01712"/>
<stop offset="1" stop-color="#91160F"/>
</linearGradient>
<linearGradient id="paint4_linear_324_994" x1="0.654304" y1="36.0858" x2="13.5181" y2="36.0858" gradientUnits="userSpaceOnUse">
<stop stop-color="#E30613"/>
<stop offset="0.31" stop-color="#E00713"/>
<stop offset="0.54" stop-color="#D70B14"/>
<stop offset="0.75" stop-color="#C71215"/>
<stop offset="0.77" stop-color="#C51315"/>
</linearGradient>
<linearGradient id="paint5_linear_324_994" x1="0.51123" y1="31.8678" x2="13.9053" y2="31.8678" gradientUnits="userSpaceOnUse">
<stop stop-color="#E30613"/>
<stop offset="0.27" stop-color="#E00713"/>
<stop offset="0.47" stop-color="#D70B14"/>
<stop offset="0.65" stop-color="#C71216"/>
<stop offset="0.77" stop-color="#B71918"/>
</linearGradient>
<linearGradient id="paint6_linear_324_994" x1="0.267546" y1="40.2988" x2="13.6664" y2="40.2988" gradientUnits="userSpaceOnUse">
<stop offset="0.23" stop-color="#B71918"/>
<stop offset="0.65" stop-color="#D20E15"/>
<stop offset="1" stop-color="#E30613"/>
</linearGradient>
<linearGradient id="paint7_linear_324_994" x1="0.425079" y1="46.776" x2="13.9099" y2="46.776" gradientUnits="userSpaceOnUse">
<stop offset="0.23" stop-color="#B71918"/>
<stop offset="0.65" stop-color="#D20E15"/>
<stop offset="1" stop-color="#E30613"/>
</linearGradient>
<linearGradient id="paint8_linear_324_994" x1="0.267578" y1="58.1396" x2="13.6664" y2="58.1396" gradientUnits="userSpaceOnUse">
<stop stop-color="#E30613"/>
<stop offset="0.27" stop-color="#E00713"/>
<stop offset="0.47" stop-color="#D70B14"/>
<stop offset="0.65" stop-color="#C71216"/>
<stop offset="0.77" stop-color="#B71918"/>
</linearGradient>
<linearGradient id="paint9_linear_324_994" x1="0.267578" y1="26.4417" x2="13.7476" y2="26.4417" gradientUnits="userSpaceOnUse">
<stop offset="0.23" stop-color="#B71918"/>
<stop offset="0.65" stop-color="#D20E15"/>
<stop offset="1" stop-color="#E30613"/>
</linearGradient>
<linearGradient id="paint10_linear_324_994" x1="0.506348" y1="15.0727" x2="13.9052" y2="15.0727" gradientUnits="userSpaceOnUse">
<stop stop-color="#E30613"/>
<stop offset="0.27" stop-color="#E00713"/>
<stop offset="0.47" stop-color="#D70B14"/>
<stop offset="0.65" stop-color="#C71216"/>
<stop offset="0.77" stop-color="#B71918"/>
</linearGradient>
<linearGradient id="paint11_linear_324_994" x1="8.28296" y1="8.23262" x2="13.7858" y2="8.23262" gradientUnits="userSpaceOnUse">
<stop stop-color="#E30613"/>
<stop offset="0.31" stop-color="#E00713"/>
<stop offset="0.54" stop-color="#D70B14"/>
<stop offset="0.75" stop-color="#C71215"/>
<stop offset="0.77" stop-color="#C51315"/>
</linearGradient>
<linearGradient id="paint12_linear_324_994" x1="8.11576" y1="2.99701" x2="14.1393" y2="2.99701" gradientUnits="userSpaceOnUse">
<stop stop-color="#E30613"/>
<stop offset="0.27" stop-color="#E00713"/>
<stop offset="0.47" stop-color="#D70B14"/>
<stop offset="0.65" stop-color="#C71216"/>
<stop offset="0.77" stop-color="#B71918"/>
</linearGradient>
<linearGradient id="paint13_linear_324_994" x1="7.92456" y1="5.20841" x2="10.1649" y2="5.20841" gradientUnits="userSpaceOnUse">
<stop offset="0.23" stop-color="#B71918"/>
<stop offset="0.65" stop-color="#D20E15"/>
<stop offset="1" stop-color="#E30613"/>
</linearGradient>
<linearGradient id="paint14_linear_324_994" x1="11.9277" y1="8.3806" x2="13.9483" y2="8.3806" gradientUnits="userSpaceOnUse">
<stop offset="0.23" stop-color="#B71918"/>
<stop offset="0.65" stop-color="#D20E15"/>
<stop offset="1" stop-color="#E30613"/>
</linearGradient>
<linearGradient id="paint15_linear_324_994" x1="8.6936" y1="9.39316" x2="10.1648" y2="9.39316" gradientUnits="userSpaceOnUse">
<stop offset="0.23" stop-color="#B71918"/>
<stop offset="0.65" stop-color="#D20E15"/>
<stop offset="1" stop-color="#E30613"/>
</linearGradient>
<linearGradient id="paint16_linear_324_994" x1="8.50732" y1="14.1128" x2="12.9832" y2="14.1128" gradientUnits="userSpaceOnUse">
<stop offset="0.23" stop-color="#B71918"/>
<stop offset="0.65" stop-color="#D20E15"/>
<stop offset="1" stop-color="#E30613"/>
</linearGradient>
<linearGradient id="paint17_linear_324_994" x1="11.9277" y1="11.9011" x2="13.1745" y2="11.9011" gradientUnits="userSpaceOnUse">
<stop offset="0.23" stop-color="#B71918"/>
<stop offset="0.65" stop-color="#D20E15"/>
<stop offset="1" stop-color="#E30613"/>
</linearGradient>
<linearGradient id="paint18_linear_324_994" x1="18.2204" y1="61.3527" x2="15.2887" y2="57.8254" gradientUnits="userSpaceOnUse">
<stop stop-color="#91160F"/>
<stop offset="0.51" stop-color="#B71918"/>
<stop offset="0.78" stop-color="#A01712"/>
<stop offset="1" stop-color="#91160F"/>
</linearGradient>
<linearGradient id="paint19_linear_324_994" x1="18.0353" y1="45.6789" x2="15.6172" y2="42.7695" gradientUnits="userSpaceOnUse">
<stop stop-color="#91160F"/>
<stop offset="0.51" stop-color="#B71918"/>
<stop offset="0.78" stop-color="#A01712"/>
<stop offset="1" stop-color="#91160F"/>
</linearGradient>
<linearGradient id="paint20_linear_324_994" x1="17.1914" y1="36.5825" x2="30.0696" y2="36.5825" gradientUnits="userSpaceOnUse">
<stop offset="0.23" stop-color="#C51315"/>
<stop offset="0.25" stop-color="#C71215"/>
<stop offset="0.46" stop-color="#D70B14"/>
<stop offset="0.69" stop-color="#E00713"/>
<stop offset="1" stop-color="#E30613"/>
</linearGradient>
<linearGradient id="paint21_linear_324_994" x1="17.0435" y1="26.8567" x2="28.0921" y2="26.8567" gradientUnits="userSpaceOnUse">
<stop stop-color="#E30613"/>
<stop offset="0.35" stop-color="#D20E15"/>
<stop offset="0.77" stop-color="#B71918"/>
</linearGradient>
<linearGradient id="paint22_linear_324_994" x1="16.8047" y1="32.2406" x2="28.7036" y2="32.2406" gradientUnits="userSpaceOnUse">
<stop offset="0.23" stop-color="#B71918"/>
<stop offset="0.35" stop-color="#C71216"/>
<stop offset="0.53" stop-color="#D70B14"/>
<stop offset="0.73" stop-color="#E00713"/>
<stop offset="1" stop-color="#E30613"/>
</linearGradient>
<linearGradient id="paint23_linear_324_994" x1="17.0435" y1="41.684" x2="28.0921" y2="41.684" gradientUnits="userSpaceOnUse">
<stop stop-color="#E30613"/>
<stop offset="0.35" stop-color="#D20E15"/>
<stop offset="0.77" stop-color="#B71918"/>
</linearGradient>
<linearGradient id="paint24_linear_324_994" x1="16.8047" y1="48.1045" x2="28.7036" y2="48.1045" gradientUnits="userSpaceOnUse">
<stop stop-color="#E30613"/>
<stop offset="0.35" stop-color="#D20E15"/>
<stop offset="0.77" stop-color="#B71918"/>
</linearGradient>
<linearGradient id="paint25_linear_324_994" x1="17.0435" y1="58.1303" x2="30.4518" y2="58.1303" gradientUnits="userSpaceOnUse">
<stop offset="0.23" stop-color="#B71918"/>
<stop offset="0.35" stop-color="#C71216"/>
<stop offset="0.53" stop-color="#D70B14"/>
<stop offset="0.73" stop-color="#E00713"/>
<stop offset="1" stop-color="#E30613"/>
</linearGradient>
<linearGradient id="paint26_linear_324_994" x1="28.804" y1="31.2088" x2="30.7242" y2="31.2088" gradientUnits="userSpaceOnUse">
<stop offset="0.23" stop-color="#B71918"/>
<stop offset="0.65" stop-color="#D20E15"/>
<stop offset="1" stop-color="#E30613"/>
</linearGradient>
<linearGradient id="paint27_linear_324_994" x1="16.8047" y1="15.0298" x2="30.2131" y2="15.0298" gradientUnits="userSpaceOnUse">
<stop offset="0.23" stop-color="#B71918"/>
<stop offset="0.35" stop-color="#C71216"/>
<stop offset="0.53" stop-color="#D70B14"/>
<stop offset="0.73" stop-color="#E00713"/>
<stop offset="1" stop-color="#E30613"/>
</linearGradient>
<linearGradient id="paint28_linear_324_994" x1="28.804" y1="32.6657" x2="30.7242" y2="32.6657" gradientUnits="userSpaceOnUse">
<stop offset="0.23" stop-color="#B71918"/>
<stop offset="0.65" stop-color="#D20E15"/>
<stop offset="1" stop-color="#E30613"/>
</linearGradient>
<linearGradient id="paint29_linear_324_994" x1="16.9336" y1="8.65236" x2="22.3743" y2="8.65236" gradientUnits="userSpaceOnUse">
<stop offset="0.23" stop-color="#C51315"/>
<stop offset="0.25" stop-color="#C71215"/>
<stop offset="0.46" stop-color="#D70B14"/>
<stop offset="0.69" stop-color="#E00713"/>
<stop offset="1" stop-color="#E30613"/>
</linearGradient>
<linearGradient id="paint30_linear_324_994" x1="18.725" y1="6.02536" x2="22.7374" y2="6.02536" gradientUnits="userSpaceOnUse">
<stop stop-color="#E30613"/>
<stop offset="0.35" stop-color="#D20E15"/>
<stop offset="0.77" stop-color="#B71918"/>
</linearGradient>
<linearGradient id="paint31_linear_324_994" x1="18.7249" y1="9.90438" x2="22.5463" y2="9.90438" gradientUnits="userSpaceOnUse">
<stop offset="0.23" stop-color="#B71918"/>
<stop offset="0.65" stop-color="#D20E15"/>
<stop offset="1" stop-color="#E30613"/>
</linearGradient>
<linearGradient id="paint32_linear_324_994" x1="16.7664" y1="14.2895" x2="22.7373" y2="14.2895" gradientUnits="userSpaceOnUse">
<stop stop-color="#E30613"/>
<stop offset="0.35" stop-color="#D20E15"/>
<stop offset="0.77" stop-color="#B71918"/>
</linearGradient>
<linearGradient id="paint33_linear_324_994" x1="16.5754" y1="3.02603" x2="22.5464" y2="3.02603" gradientUnits="userSpaceOnUse">
<stop offset="0.23" stop-color="#B71918"/>
<stop offset="0.35" stop-color="#C71216"/>
<stop offset="0.53" stop-color="#D70B14"/>
<stop offset="0.73" stop-color="#E00713"/>
<stop offset="1" stop-color="#E30613"/>
</linearGradient>
<clipPath id="clip0_324_994">
<rect width="300" height="64" fill="white" transform="translate(0 0.5)"/>
</clipPath>
</defs>
</svg>
