<svg xmlns="http://www.w3.org/2000/svg" xmlns:xlink="http://www.w3.org/1999/xlink" width="1522" height="366" viewBox="0 0 1522 366">
  <defs>
    <filter id="Path_6117" x="0" y="0" width="1522" height="366" filterUnits="userSpaceOnUse">
      <feOffset dy="3" input="SourceAlpha"/>
      <feGaussianBlur stdDeviation="3" result="blur"/>
      <feFlood flood-opacity="0.161"/>
      <feComposite operator="in" in2="blur"/>
      <feComposite in="SourceGraphic"/>
    </filter>
    <clipPath id="clip-path">
      <path id="Path_6132" data-name="Path 6132" d="M0,0H1338.77V348.221H0Z" transform="translate(0 17)" fill="none"/>
    </clipPath>
    <clipPath id="clip-path-2">
      <rect id="Rectangle_2335" data-name="Rectangle 2335" width="1341.662" height="354.228" rx="113" transform="translate(0 13.36)" fill="none"/>
    </clipPath>
    <clipPath id="clip-path-3">
      <rect id="Rectangle_2334" data-name="Rectangle 2334" width="29.684" height="27.274" fill="none"/>
    </clipPath>
  </defs>
  <g id="Group_6846" data-name="Group 6846" transform="translate(-158.508 -553.07)">
    <g transform="matrix(1, 0, 0, 1, 158.51, 553.07)" filter="url(#Path_6117)">
      <path id="Path_6117-2" data-name="Path 6117" d="M104,0H1400a104,104,0,0,1,104,104V244a104,104,0,0,1-104,104H104A104,104,0,0,1,0,244V104A104,104,0,0,1,104,0Z" transform="translate(9 6)" fill="#ea5607"/>
    </g>
    <g id="Group_6223" data-name="Group 6223" transform="translate(332.729 542.07)">
      <g id="Mask_Group_4803" data-name="Mask Group 4803" clip-path="url(#clip-path)">
        <g id="Group_6221" data-name="Group 6221">
          <g id="Group_6220" data-name="Group 6220" clip-path="url(#clip-path-2)">
            <path id="Path_6118" data-name="Path 6118" d="M360.548,0s-1.449,17.335-10.87,26.1c-12.494,11.627-34.293.727-49.264,20.849-8.408,11.3,1.017,36.052-8.085,52.82-5.28,9.727-33.117,17.607-46.532,28.506-12.9,10.484-22.218,40.244-18.744,68.749,4.876,40,12.875,77.553,40.3,92.4,22.291,12.07,53.6,4.433,71.206,10.721s27.248,16.768,36.471,28.506,37.309,25.571,51.143,25.571h1067.11V0Z" transform="translate(-124.484 13.36)" fill="#fff"/>
            <path id="Path_6119" data-name="Path 6119" d="M19.974,538.01S-3.169,541.35.368,563.684c3.3,20.823,23.143,16.594,28.239,15.551s-8.633-41.225-8.633-41.225" transform="translate(0 -295.924)" fill="#eee"/>
            <path id="Path_6120" data-name="Path 6120" d="M29.462,606.517c2.373-.486.665-9.457-1.839-18.907-8.52,1.67-18.011,3.534-26.067,5.124,4.117,18.809,22.959,14.8,27.906,13.782" transform="translate(-0.856 -323.206)" fill="#b6b6b6"/>
            <path id="Path_6121" data-name="Path 6121" d="M73.978,628.731s5.083,18.148,3.745,32.249c-1.248,13.15.624,15.342,5.513,14.924s16.746-3.34,16.954-8.036S98.213,639.063,90,626.121s-16.018,2.609-16.018,2.609" transform="translate(-40.69 -341.558)" fill="#fff28b"/>
            <path id="Path_6122" data-name="Path 6122" d="M81.877,621.389c-3.259,2.189-7.9,7.569-7.9,7.569s5.083,18.148,3.744,32.249c-1.248,13.15.624,15.342,5.513,14.924a41.228,41.228,0,0,0,7.273-1.435c1.95-32.32-6.387-49.651-8.63-53.308" transform="translate(-40.69 -341.785)" fill="#edd93d"/>
            <path id="Path_6123" data-name="Path 6123" d="M129.243,440.247s-38.381,27.944-50.784,36.4l-7.255,10.8,5.149,31.467,12.4,6.105,60.613,11.976-1.4-6.81-11-30.527L131.349,464.9l-1.638-21.369Z" transform="translate(-39.165 -242.151)" fill="#eee"/>
            <path id="Path_6124" data-name="Path 6124" d="M140.573,561.143l-1.472-9.111L77.762,566.969l2.2,13.429,12.4,6.106,60.613,11.976-1.4-6.81Z" transform="translate(-42.772 -303.636)" fill="#b6b6b6"/>
            <path id="Path_6125" data-name="Path 6125" d="M61.577,518.117s-5.071,26.692,10.3,48.374a2.687,2.687,0,0,1-1.014,3.262l-11.441,2.922s-5.3,1.879-9.777-5.74-12.378-24.735-7.7-43.625c0,0,1.144-5.114,7.385-6.053l8.321-1.565s3.692-.574,3.926,2.426" transform="translate(-22.283 -283.624)" fill="#f8e760"/>
            <path id="Path_6126" data-name="Path 6126" d="M195.462,431.441s9.985-7.358,15.758-7.2,11.545,7.828,15.29,14.089,13.574,30.84,14.51,47.434.78,40.233-7.333,43.051-18.1-.626-18.1-.626-13.106-11.272-20.751-46.339.624-50.409.624-50.409" transform="translate(-105.384 -233.345)" fill="#ffe517"/>
            <path id="Path_6127" data-name="Path 6127" d="M237.908,531.288s9.333-12.132,4.577-44.888c-7.489-51.574-26.367-59.373-26.367-59.373s-13.973,10.648-.625,60.487c11,41.068,22.415,43.774,22.415,43.774" transform="translate(-115.352 -234.88)" fill="#efe06d"/>
            <path id="Path_6128" data-name="Path 6128" d="M212.624,514.649a189.586,189.586,0,0,0,4.468,20.972c1.066,3.979,2.136,7.594,3.2,10.886,5.8-2.017,15.191-7.07,11.182-19.888-3.714-11.876-13.384-12.6-18.848-11.97" transform="translate(-116.951 -282.987)" fill="#eee"/>
            <path id="Path_6129" data-name="Path 6129" d="M221.04,551.093c1.066,3.979,2.136,7.595,3.2,10.886,5.724-1.99,14.931-6.932,11.34-19.362L219.8,546.266q.576,2.351,1.237,4.827" transform="translate(-120.899 -298.459)" fill="#b6b6b6"/>
            <g id="Group_6219" data-name="Group 6219" transform="translate(20.103 261.982)" opacity="0.3" style="mix-blend-mode: multiply;isolation: isolate">
              <g id="Group_6218" data-name="Group 6218">
                <g id="Group_6217" data-name="Group 6217" clip-path="url(#clip-path-3)">
                  <path id="Path_6130" data-name="Path 6130" d="M74.166,603.112a59.152,59.152,0,0,1-9.211-20.885l-20.277,3.84a69.652,69.652,0,0,0,7.255,17.489c4.473,7.619,9.777,5.74,9.777,5.74l11.441-2.923a2.687,2.687,0,0,0,1.015-3.261" transform="translate(-44.678 -582.227)" fill="#c0272d"/>
                </g>
              </g>
            </g>
            <path id="Path_6131" data-name="Path 6131" d="M236.314,530.082c-2.5,0-5.093-1.1-7.725-3.27a39.692,39.692,0,0,1-8.356-10.486c-5.458-9.27-10.081-22.1-13.018-36.133s-3.847-27.64-2.564-38.321a39.681,39.681,0,0,1,3.449-12.957c1.9-3.763,4.4-5.992,7.436-6.627s6.22.4,9.47,3.089a39.69,39.69,0,0,1,8.356,10.486c5.458,9.27,10.081,22.1,13.017,36.134s3.848,27.64,2.565,38.32a39.68,39.68,0,0,1-3.449,12.957c-1.9,3.763-4.4,5.992-7.436,6.627a8.49,8.49,0,0,1-1.744.181m-19.066-103.64a4.025,4.025,0,0,0-.824.084c-3.578.749-6.372,6.679-7.474,15.863-1.228,10.225-.339,23.336,2.5,36.918s7.285,25.949,12.511,34.824c4.693,7.971,9.632,12.285,13.208,11.534s6.372-6.679,7.474-15.863c1.228-10.225.339-23.337-2.5-36.918s-7.285-25.949-12.511-34.824c-4.342-7.375-8.894-11.618-12.384-11.618" transform="translate(-112.253 -232.174)" fill="#b99500"/>
          </g>
        </g>
      </g>
    </g>
  </g>
</svg>
