<?xml version="1.0" encoding="UTF-8"?>
<svg id="Layer_1" data-name="Layer 1" xmlns="http://www.w3.org/2000/svg" xmlns:xlink="http://www.w3.org/1999/xlink" viewBox="0 0 467 398">
  <defs>
    <style>
      .cls-1 {
        fill: none;
      }

      .cls-2 {
        clip-path: url(#clippath);
      }

      .cls-3 {
        fill: #f8e760;
      }

      .cls-4 {
        fill: #eee;
      }

      .cls-5 {
        fill: #ea5607;
      }

      .cls-6 {
        fill: #fff28b;
      }

      .cls-7 {
        fill: #ffe517;
      }

      .cls-8 {
        fill: #edd93d;
      }

      .cls-9 {
        fill: #efe06d;
      }

      .cls-10 {
        fill: #b99500;
      }

      .cls-11 {
        fill: #b6b6b6;
      }

      .cls-12 {
        fill: #c0272d;
      }

      .cls-13 {
        opacity: .3;
      }
    </style>
    <clipPath id="clippath">
      <rect class="cls-1" x="178.29" y="269.35" width="29.68" height="27.27"/>
    </clipPath>
  </defs>
  <path class="cls-5" d="m408.73,349.38c-9.22-11.74-18.86-22.22-36.47-28.51-17.61-6.29-48.91,1.35-71.21-10.72-27.42-14.85-35.42-52.4-40.3-92.4-3.47-28.51,5.84-58.27,18.74-68.75,13.41-10.9,41.25-18.78,46.53-28.51,9.1-16.77-.32-41.52,8.09-52.82,14.97-20.12,36.77-9.22,49.26-20.85,6.88-6.4,9.51-17.37,10.42-22.82H127c-57.44,0-104,46.56-104,104v140c0,57.44,46.56,104,104,104h318.5c-13.81-4.69-30.15-14.2-36.77-22.62Z"/>
  <g id="Group_6220" data-name="Group 6220">
    <path id="Path_6119" data-name="Path 6119" class="cls-4" d="m178.16,249.45s-23.14,3.34-19.61,25.67c3.3,20.82,23.14,16.59,28.24,15.55,5.1-1.04-8.63-41.22-8.63-41.22"/>
    <path id="Path_6120" data-name="Path 6120" class="cls-11" d="m186.79,290.68c2.37-.49.67-9.46-1.84-18.91-8.52,1.67-18.01,3.53-26.07,5.12,4.12,18.81,22.96,14.8,27.91,13.78"/>
    <path id="Path_6121" data-name="Path 6121" class="cls-6" d="m191.47,294.54s5.08,18.15,3.75,32.25c-1.25,13.15.62,15.34,5.51,14.92s16.75-3.34,16.95-8.04-1.98-28.81-10.19-41.75-16.02,2.61-16.02,2.61"/>
    <path id="Path_6122" data-name="Path 6122" class="cls-8" d="m199.37,286.97c-3.26,2.19-7.9,7.57-7.9,7.57,0,0,5.08,18.15,3.74,32.25-1.25,13.15.62,15.34,5.51,14.92,2.46-.26,4.9-.74,7.27-1.43,1.95-32.32-6.39-49.65-8.63-53.31"/>
    <path id="Path_6123" data-name="Path 6123" class="cls-4" d="m248.26,205.46s-38.38,27.94-50.78,36.4l-7.25,10.8,5.15,31.47,12.4,6.1,60.61,11.98-1.4-6.81-11-30.53-5.62-34.76-1.64-21.37-.47-3.28Z"/>
    <path id="Path_6124" data-name="Path 6124" class="cls-11" d="m255.98,264.87l-1.47-9.11-61.34,14.94,2.2,13.43,12.4,6.11,60.61,11.98-1.4-6.81-11-30.53Z"/>
    <path id="Path_6125" data-name="Path 6125" class="cls-3" d="m197.48,241.86s-5.07,26.69,10.3,48.37c.49,1.19.06,2.56-1.01,3.26l-11.44,2.92s-5.3,1.88-9.78-5.74-12.38-24.73-7.7-43.62c0,0,1.14-5.11,7.38-6.05l8.32-1.57s3.69-.57,3.93,2.43"/>
    <path id="Path_6126" data-name="Path 6126" class="cls-7" d="m248.26,205.46s9.99-7.36,15.76-7.2,11.54,7.83,15.29,14.09,13.57,30.84,14.51,47.43.78,40.23-7.33,43.05-18.1-.63-18.1-.63c0,0-13.11-11.27-20.75-46.34s.62-50.41.62-50.41"/>
    <path id="Path_6127" data-name="Path 6127" class="cls-9" d="m280.74,303.77s9.33-12.13,4.58-44.89c-7.49-51.57-26.37-59.37-26.37-59.37,0,0-13.97,10.65-.62,60.49,11,41.07,22.41,43.77,22.41,43.77"/>
    <path id="Path_6128" data-name="Path 6128" class="cls-4" d="m253.86,239.03c1.09,7.07,2.58,14.07,4.47,20.97,1.07,3.98,2.14,7.59,3.2,10.89,5.8-2.02,15.19-7.07,11.18-19.89-3.71-11.88-13.38-12.6-18.85-11.97"/>
    <path id="Path_6129" data-name="Path 6129" class="cls-11" d="m258.32,260c1.07,3.98,2.14,7.59,3.2,10.89,5.72-1.99,14.93-6.93,11.34-19.36l-15.78,3.65c.38,1.57.8,3.18,1.24,4.83"/>
    <g id="Group_6219" data-name="Group 6219" class="cls-13">
      <g id="Group_6218" data-name="Group 6218">
        <g class="cls-2">
          <g id="Group_6217" data-name="Group 6217">
            <path id="Path_6130" data-name="Path 6130" class="cls-12" d="m207.77,290.23c-4.4-6.3-7.53-13.39-9.21-20.89l-20.28,3.84c1.61,6.13,4.05,12.02,7.26,17.49,4.47,7.62,9.78,5.74,9.78,5.74l11.44-2.92c1.07-.7,1.5-2.07,1.01-3.26"/>
          </g>
        </g>
      </g>
    </g>
    <path id="Path_6131" data-name="Path 6131" class="cls-10" d="m282.24,305.27c-2.5,0-5.09-1.1-7.73-3.27-3.36-3-6.19-6.54-8.36-10.49-5.46-9.27-10.08-22.1-13.02-36.13s-3.85-27.64-2.56-38.32c.41-4.48,1.57-8.86,3.45-12.96,1.9-3.76,4.4-5.99,7.44-6.63s6.22.4,9.47,3.09c3.36,3,6.19,6.54,8.36,10.49,5.46,9.27,10.08,22.1,13.02,36.13s3.85,27.64,2.57,38.32c-.41,4.48-1.57,8.86-3.45,12.96-1.9,3.76-4.4,5.99-7.44,6.63-.57.12-1.16.18-1.74.18m-19.07-103.64c-.28,0-.55.03-.82.08-3.58.75-6.37,6.68-7.47,15.86-1.23,10.23-.34,23.34,2.5,36.92s7.29,25.95,12.51,34.82c4.69,7.97,9.63,12.28,13.21,11.53s6.37-6.68,7.47-15.86c1.23-10.23.34-23.34-2.5-36.92s-7.29-25.95-12.51-34.82c-4.34-7.38-8.89-11.62-12.38-11.62"/>
  </g>
</svg>