<svg width="423" height="348" viewBox="0 0 423 348" fill="none" xmlns="http://www.w3.org/2000/svg">
<path d="M385.73 325.38C376.51 313.64 366.87 303.16 349.26 296.87C331.65 290.58 300.35 298.22 278.05 286.15C250.63 271.3 242.63 233.75 237.75 193.75C234.28 165.24 243.59 135.48 256.49 125C269.9 114.1 297.74 106.22 303.02 96.49C312.12 79.72 302.7 54.97 311.11 43.67C326.08 23.55 347.88 34.45 360.37 22.82C367.25 16.42 369.88 5.45 370.79 0H104C46.56 0 0 46.56 0 104V244C0 301.44 46.56 348 104 348H422.5C408.69 343.31 392.35 333.8 385.73 325.38Z" fill="#EA5607"/>
<path d="M155.16 225.45C155.16 225.45 132.02 228.79 135.55 251.12C138.85 271.94 158.69 267.71 163.79 266.67C168.89 265.63 155.16 225.45 155.16 225.45Z" fill="#EEEEEE"/>
<path d="M163.79 266.68C166.16 266.19 164.46 257.22 161.95 247.77C153.43 249.44 143.94 251.3 135.88 252.89C140 271.7 158.84 267.69 163.79 266.67" fill="#B6B6B6"/>
<path d="M168.47 270.54C168.47 270.54 173.55 288.69 172.22 302.79C170.97 315.94 172.84 318.13 177.73 317.71C182.62 317.29 194.48 314.37 194.68 309.67C194.88 304.97 192.7 280.86 184.49 267.92C176.28 254.98 168.47 270.53 168.47 270.53" fill="#FFF28B"/>
<path d="M176.37 262.97C173.11 265.16 168.47 270.54 168.47 270.54C168.47 270.54 173.55 288.69 172.21 302.79C170.96 315.94 172.83 318.13 177.72 317.71C180.18 317.45 182.62 316.97 184.99 316.28C186.94 283.96 178.6 266.63 176.36 262.97" fill="#EDD93D"/>
<path d="M225.26 181.46C225.26 181.46 186.88 209.4 174.48 217.86L167.23 228.66L172.38 260.13L184.78 266.23L245.39 278.21L243.99 271.4L232.99 240.87L227.37 206.11L225.73 184.74L225.26 181.46Z" fill="#EEEEEE"/>
<path d="M232.98 240.87L231.51 231.76L170.17 246.7L172.37 260.13L184.77 266.24L245.38 278.22L243.98 271.41L232.98 240.88V240.87Z" fill="#B6B6B6"/>
<path d="M174.48 217.86C174.48 217.86 169.41 244.55 184.78 266.23C185.27 267.42 184.84 268.79 183.77 269.49L172.33 272.41C172.33 272.41 167.03 274.29 162.55 266.67C158.07 259.05 150.17 241.94 154.85 223.05C154.85 223.05 155.99 217.94 162.23 217L170.55 215.43C170.55 215.43 174.24 214.86 174.48 217.86Z" fill="#F8E760"/>
<path d="M225.26 181.46C225.26 181.46 235.25 174.1 241.02 174.26C246.79 174.42 252.56 182.09 256.31 188.35C260.06 194.61 269.88 219.19 270.82 235.78C271.76 252.37 271.6 276.01 263.49 278.83C255.38 281.65 245.39 278.2 245.39 278.2C245.39 278.2 232.28 266.93 224.64 231.86C217 196.79 225.26 181.45 225.26 181.45" fill="#FFE517"/>
<path d="M257.74 279.77C257.74 279.77 267.07 267.64 262.32 234.88C254.83 183.31 235.95 175.51 235.95 175.51C235.95 175.51 221.98 186.16 235.33 236C246.33 277.07 257.74 279.77 257.74 279.77Z" fill="#EFE06D"/>
<path d="M230.86 215.03C231.95 222.1 233.44 229.1 235.33 236C236.4 239.98 237.47 243.59 238.53 246.89C244.33 244.87 253.72 239.82 249.71 227C246 215.12 236.33 214.4 230.86 215.03Z" fill="#EEEEEE"/>
<path d="M235.32 236C236.39 239.98 237.46 243.59 238.52 246.89C244.24 244.9 253.45 239.96 249.86 227.53L234.08 231.18C234.46 232.75 234.88 234.36 235.32 236.01" fill="#B6B6B6"/>
<g opacity="0.3">
<mask id="mask0_208_48" style="mask-type:luminance" maskUnits="userSpaceOnUse" x="155" y="245" width="30" height="28">
<path d="M184.97 245.35H155.29V272.62H184.97V245.35Z" fill="white"/>
</mask>
<g mask="url(#mask0_208_48)">
<path d="M184.77 266.23C180.37 259.93 177.24 252.84 175.56 245.34L155.28 249.18C156.89 255.31 159.33 261.2 162.54 266.67C167.01 274.29 172.32 272.41 172.32 272.41L183.76 269.49C184.83 268.79 185.26 267.42 184.77 266.23Z" fill="#C0272D"/>
</g>
</g>
<path d="M259.24 281.27C256.74 281.27 254.15 280.17 251.51 278C248.15 275 245.32 271.46 243.15 267.51C237.69 258.24 233.07 245.41 230.13 231.38C227.19 217.35 226.28 203.74 227.57 193.06C227.98 188.58 229.14 184.2 231.02 180.1C232.92 176.34 235.42 174.11 238.46 173.47C241.5 172.83 244.68 173.87 247.93 176.56C251.29 179.56 254.12 183.1 256.29 187.05C261.75 196.32 266.37 209.15 269.31 223.18C272.25 237.21 273.16 250.82 271.88 261.5C271.47 265.98 270.31 270.36 268.43 274.46C266.53 278.22 264.03 280.45 260.99 281.09C260.42 281.21 259.83 281.27 259.25 281.27M240.18 177.63C239.9 177.63 239.63 177.66 239.36 177.71C235.78 178.46 232.99 184.39 231.89 193.57C230.66 203.8 231.55 216.91 234.39 230.49C237.23 244.07 241.68 256.44 246.9 265.31C251.59 273.28 256.53 277.59 260.11 276.84C263.69 276.09 266.48 270.16 267.58 260.98C268.81 250.75 267.92 237.64 265.08 224.06C262.24 210.48 257.79 198.11 252.57 189.24C248.23 181.86 243.68 177.62 240.19 177.62" fill="#B99500"/>
</svg>
