<svg xmlns="http://www.w3.org/2000/svg" xmlns:xlink="http://www.w3.org/1999/xlink" width="140" height="140" viewBox="0 0 140 140"><defs><clipPath id="a"><rect width="140" height="140" transform="translate(-0.001)" fill="#fff"/></clipPath></defs><g transform="translate(0.001)" clip-path="url(#a)"><path d="M140,70a70,70,0,1,0-70,70A70,70,0,0,0,140,70Z" fill="#0d1f3c"/><path d="M47.934,48.754l-4.051-9.619H67.412v9.619H59.064v15.5h8.348v9.618H59.064v15.5h8.348v9.619H38.936l4.051-9.619h4.947ZM90.149,67.079c5.483,3.1,9.108,8.453,9.108,14.539,0,9.591-9,17.367-20.1,17.367h-6.8V89.366h6.8c4.944,0,8.966-3.476,8.966-7.748S84.1,73.869,79.16,73.869h-6.8V64.25h1.855c4.944,0,8.966-3.476,8.966-7.748s-4.022-7.748-8.966-7.748H72.359V39.135h1.855c11.1,0,20.1,7.775,20.1,17.367A15.842,15.842,0,0,1,90.149,67.079Z" fill="#fff" fill-rule="evenodd"/></g></svg>