<svg xmlns="http://www.w3.org/2000/svg" width="27.4" height="31.001" viewBox="0 0 27.4 31.001"><g transform="translate(0 0.001)"><path d="M16.81,9,14.29,7.53a1.69,1.69,0,0,0-1.52,0L10.25,9c-.54.32-.55.84,0,1.15l2.52,1.49a1.63,1.63,0,0,0,1.52,0l2.52-1.49a.61.61,0,0,0,0-1.15Z" fill="#4231c8"/><path d="M26.64,7.18,14.46.18a1.69,1.69,0,0,0-1.52,0L.76,7.18A1.71,1.71,0,0,0,0,8.5v14a1.71,1.71,0,0,0,.76,1.32l12.18,7a1.69,1.69,0,0,0,1.52,0l12.18-7a1.71,1.71,0,0,0,.76-1.32V8.5a1.71,1.71,0,0,0-.76-1.32Zm-5.42,3.25-6.93,4.08a1.63,1.63,0,0,1-1.52,0l-4.4-2.58c-.54-.33-1-.07-1,.56V20.3a.63.63,0,0,1-1,.6l-.75-.39a1.62,1.62,0,0,1-.78-1.3V10.73A1.71,1.71,0,0,1,5.6,9.41l7.16-4.16a1.69,1.69,0,0,1,1.52,0l6.93,4a.61.61,0,0,1,.01,1.18Z" fill="#4231c8"/></g></svg>