<svg xmlns="http://www.w3.org/2000/svg" width="33.583" height="33.583" viewBox="0 0 33.583 33.583"><path d="M377.541,2540.583a16.791,16.791,0,1,1,16.665-16.792A16.791,16.791,0,0,1,377.541,2540.583Zm0-31.091a14.3,14.3,0,1,0,14.2,14.3A14.3,14.3,0,0,0,377.541,2509.492Zm.6,12,3.217-3.936a.967.967,0,0,0-.729-1.578h0a.959.959,0,0,0-.729.343l-2.993,3.654-2.993-3.654a.924.924,0,0,0-.729-.343h-2.469a.962.962,0,0,0-.729,1.579l4.452,5.44-5.686,6.958a.956.956,0,1,0,1.46,1.236l5.461-6.67Zm7.462-5.514a.962.962,0,0,0-.729.342l-5.44,6.676-2.469,3.022-3.217,3.936a.956.956,0,0,0,1.459,1.236l2.993-3.647,2.992,3.647a.927.927,0,0,0,.73.343h2.464a.961.961,0,0,0,.729-1.579l-4.451-5.434,5.686-6.965a.973.973,0,0,0-.749-1.579" transform="translate(-360.622 -2507)" fill="#ffbe40" fill-rule="evenodd"/></svg>