<svg xmlns="http://www.w3.org/2000/svg" xmlns:xlink="http://www.w3.org/1999/xlink" width="62.08" height="62.08" viewBox="0 0 62.08 62.08"><defs><linearGradient id="a" x1="0.5" x2="0.5" y2="1" gradientUnits="objectBoundingBox"><stop offset="0" stop-color="#b6509e"/><stop offset="1" stop-color="#2ebac6"/></linearGradient></defs><g transform="translate(-0.937 -1)"><circle cx="31.04" cy="31.04" r="31.04" transform="translate(0.937 1)" fill="url(#a)"/><path d="M255.344,240.328l-10.5-25.376A2.82,2.82,0,0,0,242.216,213h-.928a2.82,2.82,0,0,0-2.632,1.952l-4.568,11.056h-3.456a1.893,1.893,0,0,0-1.88,1.88v.024a1.9,1.9,0,0,0,1.88,1.88h1.856l-4.36,10.536a2.2,2.2,0,0,0-.128.72,2.019,2.019,0,0,0,.512,1.416A1.8,1.8,0,0,0,229.9,243a1.861,1.861,0,0,0,1.08-.36,2.337,2.337,0,0,0,.752-.952l4.8-11.9h3.328a1.893,1.893,0,0,0,1.88-1.88v-.048a1.9,1.9,0,0,0-1.88-1.88h-1.776l3.664-9.128,9.984,24.832a2.337,2.337,0,0,0,.752.952,1.88,1.88,0,0,0,1.08.36,1.809,1.809,0,0,0,1.392-.536,1.983,1.983,0,0,0,.512-1.416A1.678,1.678,0,0,0,255.344,240.328Z" transform="translate(-209.76 -195.96)" fill="#fff"/></g></svg>