<svg xmlns="http://www.w3.org/2000/svg" xmlns:xlink="http://www.w3.org/1999/xlink" width="64" height="64" viewBox="0 0 64 64"><defs><clipPath id="a"><path d="M0,0H28.619V34.9H0Z"/></clipPath><clipPath id="b"><path d="M0,0H27.584V5.416H0Z"/></clipPath></defs><g transform="translate(-687 -1265)"><circle cx="32" cy="32" r="32" transform="translate(687 1265)" fill="#55b5e5"/><g transform="translate(729.642 1393.262)"><path d="M-24.232-77.96c-.039-7.945.031-17.514-.1-24.41,9.791.059,17.335,0,27.584.065-.091,8.631-.029,15.192-.137,24.547C1.9-72.744-5.476-66.563-10.468-64.851-19.1-66.75-23.753-76.371-24.232-77.96Z" transform="translate(-0.384 -9.577)" fill="#fff"/><g transform="translate(-24.98 -112.236)"><path d="M123.888-14.675c-8.32-3.785-12.312-7.088-13.958-13.541-.145-8.012-.03-16.683-.012-24.7h28.167q-.068,12.44-.137,24.88C136.673-21.968,130.884-17.625,123.888-14.675Zm13.218-13.393c.062-8,.308-17.106.31-24.22l-26.981-.035c.042,7.946.024,9.268.144,24.1,1.756,6.3,6.966,10.129,13.305,12.764,6.164-2.682,11.941-6.707,13.222-12.613Z" transform="translate(-109.859 52.913)" fill="#ffc905"/></g><path d="M-7.128-94.588l.015,18.1q4.5.008,9,0l0,0,0,0c0-5.771-.019-12.32-.022-18.091-1.508.633-2.718.937-4.488,1.627-1.97-.68-2.592-.911-4.519-1.63ZM4.444-91.177c-.389.361-.7,1.257-.087,1.566l0,1.528a1.27,1.27,0,0,0-1.442-.705c.019.608.4,1.3,1.141,1.173a.411.411,0,0,0,.3-.277v1.818l-.018-.055-.017-.055-.036-.067-.036-.067-.041-.051-.041-.052-.065-.062-.065-.062-.113-.065-.113-.065-.108-.037L3.6-86.751l-.12-.023-.12-.024-.195-.007-.195-.008-.012.017-.012.017v.251l.017.1.017.1.034.1.035.1.053.09.054.09.062.068.062.068.092.066.092.065.1.042.1.042.1.02.1.02.094-.006.093-.006.089-.038.089-.038.044-.048.044-.048.025-.057.025-.056v1.9l-.031-.078L4.3-84.126,4.254-84.2l-.048-.07-.087-.082-.087-.082-.093-.054-.093-.054-.068-.025-.068-.025L3.6-84.615l-.112-.028-.16-.013-.159-.013-.135.012-.135.012-.008.007-.008.007.017.147.017.147.034.112.035.112.06.108L3.1-83.9l.067.076.067.076.09.064.09.064.1.047.1.047.085.019.085.019h.223l.074-.024.074-.024.059-.044.06-.044.039-.072.039-.073v2.033l-.032-.078L4.3-81.889l-.036-.053L4.227-82l-.066-.068-.066-.068-.088-.06-.087-.06L3.807-82.3l-.113-.047-.124-.027L3.445-82.4H2.989l-.067.01-.067.01.009.1.009.1.02.086.021.086.028.078.028.077.054.1.053.1.077.086.077.085.1.067.1.066.1.041.1.041.1.02.1.02.111-.006.11-.006.055-.02.056-.02.05-.03.051-.03.037-.046.037-.046.019-.046.019-.045v1.985l-.032-.075L4.3-79.707l-.052-.068-.052-.068-.079-.067-.079-.067-.1-.055-.1-.055-.125-.036-.124-.036-.131-.014-.131-.014-.125.008-.124.008-.138.024-.138.024-.013.011L2.77-80.1l.028.117.028.117.047.109.048.109.061.095.061.094.132.114.131.114.111.049.11.049.1.026.1.026H4l.08-.026.08-.027.058-.038.059-.038.045-.075.045-.075V-76.6h.179v-2.757l.026.049.026.05.051.049.051.049.074.03.074.031.1.013.1.013.118-.018.118-.018.086-.03.086-.03.079-.04.079-.04.112-.1.112-.1.064-.1.064-.1.042-.086L6.05-79.8l.033-.111.033-.111.007-.045.007-.045-.072-.018-.072-.017-.09-.015-.09-.015H5.421l-.12.026-.12.026-.092.036L5-80.053,4.91-80l-.086.053-.071.068-.072.068-.036.054-.036.054-.032.068-.032.068V-81.53l.02.049.02.049.048.049.048.049.092.039.092.04h.291l.076-.022L5.31-81.3l.108-.048.108-.048.1-.084.1-.084.056-.071.056-.071.053-.1.053-.1.035-.119.035-.119.013-.114.013-.114-.009-.009-.009-.008-.1-.014-.1-.014-.186.007-.187.007-.135.03-.134.03-.109.049-.109.049-.081.057-.081.057-.067.072-.067.071-.043.072-.042.072-.017.048-.018.048v-2.009l.028.054.028.054.051.046.051.046.069.031.069.031.134.005.134.005.1-.027.1-.026.09-.042.09-.042.075-.053.075-.053.055-.054.055-.054.065-.094.065-.094.043-.113.043-.112.021-.106.021-.106v-.186l-.038-.006-.038-.006-.1-.007-.1-.007-.147.013-.147.013-.107.024-.106.024-.087.034-.088.035-.077.044-.077.044-.08.069-.08.069-.059.078-.059.078-.033.082-.033.082v-1.877l.039.072.039.072.053.04.053.04.063.024.063.023.086.007.086.007A1.072,1.072,0,0,0,5.946-86.8l-.111,0a1.278,1.278,0,0,0-1.253.626l-.039.1V-87.88l.02.05.02.05c.635.624,1.5-.361,1.4-1.012a1.55,1.55,0,0,0-1.438.685q0-.749,0-1.5c.719-.352.152-1.368-.1-1.572Zm-14.035.053c-.389.361-.7,1.257-.087,1.566l0,1.528a1.27,1.27,0,0,0-1.442-.706c.019.608.4,1.3,1.141,1.174a.411.411,0,0,0,.3-.277v1.818l-.018-.055-.017-.055-.036-.067-.036-.067-.041-.051-.041-.052-.065-.062-.065-.062-.113-.065-.113-.065-.107-.037-.108-.037-.12-.023-.12-.024-.2-.008-.195-.007-.012.017-.012.017v.126l0,.126.017.1.017.1.034.1.035.1.053.09.054.09.062.068.062.068.092.065.092.066.1.042.1.042.1.02.1.02.093-.006.093-.006.089-.038.089-.038.044-.048.044-.048.025-.057.025-.056v1.9l-.031-.078-.031-.079-.048-.069-.048-.069-.087-.082L-10-84.376l-.093-.054-.093-.054-.068-.025-.068-.025-.112-.028-.112-.028-.159-.013-.16-.013-.135.012-.135.012-.008.007-.008.007.017.147.017.147.035.112.034.113.06.108.059.108.067.076.067.077.09.064.09.064.1.047.1.047.085.019.085.019h.223l.074-.024.074-.024.059-.044.059-.044.039-.073.039-.073v2.033l-.032-.078-.032-.078-.036-.054-.036-.053-.066-.068-.066-.068-.087-.06-.087-.06-.113-.047-.113-.047-.124-.026-.124-.027h-.456l-.067.01-.067.01.009.1.009.1.02.086.021.086.028.078.028.078.053.1.053.1.077.085.077.086.1.066.1.066.1.041.1.041.1.02.1.02.111-.006L-10-81.2l.056-.02.055-.02.05-.03.051-.03.037-.046.037-.046.019-.046.019-.045V-79.5l-.032-.075-.032-.075-.052-.068-.052-.068-.079-.067L-10-79.924l-.1-.055-.1-.055-.124-.036-.124-.036-.132-.014-.131-.014-.124.008-.125.008-.138.024-.138.024-.013.011-.013.011.028.117.028.117.048.109.047.109.061.095.061.094.132.114.131.114.111.049.11.049.1.026.1.026h.277l.08-.026.08-.027.058-.038.059-.038.045-.075.045-.075v2.765h.179V-79.3l.026.05.026.049.051.049.051.049.074.031.074.03.1.013.1.013.118-.018.118-.018.086-.03.086-.03.079-.04.079-.04.112-.1.112-.1.065-.1.064-.1.042-.086.042-.086.033-.111.033-.111.007-.045.007-.045-.072-.017-.072-.018-.09-.015-.09-.015h-.387l-.12.026-.12.026-.092.036L-9.038-80l-.086.053-.087.053-.071.068-.072.068-.036.054-.036.054-.032.068-.032.068v-1.961l.02.049.02.049.048.049.048.049.092.039.092.04h.291l.076-.022.076-.022.107-.048.108-.048.1-.084.1-.084.056-.071.056-.071.053-.1.053-.1.035-.119.035-.119L-8-82.2l.013-.114L-8-82.322l-.009-.009-.1-.014-.1-.014-.187.007-.187.007-.135.03-.134.03-.109.049-.109.049-.081.057-.081.057L-9.3-82l-.067.071-.043.072-.042.072-.017.048-.018.048V-83.7l.028.054.028.054.051.046.051.046.069.031.069.031.134,0,.134.005.1-.026.1-.026.09-.042.09-.042.075-.053.075-.053.055-.054.055-.054.065-.094.065-.094.043-.113.043-.112.021-.106.022-.106v-.186l-.038-.006L-8.1-84.6l-.1-.007-.1-.007-.147.013-.147.013-.107.024-.106.024-.087.034-.088.034-.077.044-.077.044-.08.069-.08.069-.059.078-.059.078-.033.082-.033.082v-1.877l.039.072.039.072.053.04.053.04.063.024.063.023.086.007.086.007a1.072,1.072,0,0,0,.921-1.229l-.111,0a1.278,1.278,0,0,0-1.253.626l-.039.1v-1.794l.02.05.02.05c.635.624,1.5-.361,1.4-1.012a1.55,1.55,0,0,0-1.438.685q0-.749,0-1.5c.719-.352.152-1.368-.1-1.572Zm6.128.046h1.686c.743,1.241,1.146,1.9,1.955,3.2-.4,0-.864,0-1.326.008-.082-.167-.171-.35-.263-.543H-3.83l-.258.541H-5.421c.672-1.1,1.23-2.012,1.958-3.2Zm.844.6c-.259.393-.566.843-.856,1.283h1.709C-2.009-89.579-2.341-90.022-2.619-90.477Zm-2.8,3.786h1.314v2.447h2.976v-2.447H.181q0,1.248,0,2.5a2.82,2.82,0,0,1-1.264.736l-2.932,0A2.309,2.309,0,0,1-5.424-84.2Zm.161,4.654H.154v.653h-4.16v.64H.1v.612h-4.1L-4.013-78.8H-5.263q0-1.616,0-3.233ZM-7.128-70.492v4.022l.014,0h0c1.587-.424,2.6-.78,4.493-1.365,1.919.575,2.233.69,4.49,1.368h.015v-4.019c-2.953,0-6.018,0-9.013,0Z" transform="translate(-8.131 -14.191)" fill="#ffc905"/><g transform="translate(-19.148 -89.925)"><path d="M-4.706,12.063h-3.2v-.671h5.738l.044.061.044.061.09.1.09.1.117.108.117.108.085.067.085.067Zm10.63,0h-3.2l.136-.11.136-.11.118-.122.118-.122.081-.1.081-.1H9.127v.671h-3.2Zm-8.476-1.345,0,0-2.678,0-2.678,0v-.671h5.186l.019.118.019.118.033.128.033.128.036.1.036.1Zm9-.007-2.679,0,.022-.047.022-.047.046-.167.046-.167.02-.125.02-.125H9.127v.671ZM-5.317,9.366H-7.909V8.7h5.348v.012l-.054.17-.054.17-.027.16-.027.16Zm11.851,0H3.941L3.93,9.284,3.919,9.2,3.9,9.1l-.023-.1-.039-.123-.039-.123L3.786,8.72,3.777,8.7h5.35v.671ZM-5.049,8.025H-7.909V7.354h6.385l-.224.2-.224.2-.108.132-.108.132Zm11.317,0H3.408l-.1-.118-.1-.118-.143-.144L2.928,7.5l-.014,0-.014,0-.083-.068-.083-.068H9.127v.671Z" transform="translate(7.909 -7.354)" fill="#55b5e5"/></g><path d="M4.8-51.988a5.088,5.088,0,0,0-.847.059c-.053.012-.056.015-.029.049s.322.307.4.37l.067.056c.009.007.019.009.125.019.19.017.412.034.916.07.3.021.5.037.559.043a.784.784,0,0,0,.092,0,.28.28,0,0,0,.139-.035c.078-.035.307-.15.319-.161s0-.007-.017-.018c-.067-.04-.346-.161-.518-.227a4.274,4.274,0,0,0-1.2-.231Zm-.4.7-.025.019c-.029.022-.091.076-.313.271-.251.221-.353.307-.379.322a.052.052,0,0,0-.02.021.391.391,0,0,1-.051.053.342.342,0,0,0-.048.049,1.8,1.8,0,0,0,.118.268c.155.333.26.549.27.557a5.287,5.287,0,0,0,.8.079c.652.052.9.073.986.082.04,0,.053,0,.106-.035.124-.08.551-.405.647-.493l.037-.034-.016-.042c-.052-.133-.225-.549-.338-.813a.915.915,0,0,0-.083-.178c-.012,0-.587-.047-1.613-.121Zm-.718.621c.01,0,.011,0,.011.01s0,.011-.011.011-.011,0-.011-.011S3.677-50.663,3.687-50.663ZM1.6-50.551a1.551,1.551,0,0,0-.208.269,3.949,3.949,0,0,0-.409.782c-.032.082-.058.158-.088.257-.015.049-.031.1-.035.113A.228.228,0,0,0,.85-49.1c0,.012.034.033.137.082a2.33,2.33,0,0,0,.235.1l.032.009c.02,0,.045-.037.123-.179.111-.2.408-.769.473-.9l.017-.035-.008-.019c-.023-.056-.178-.373-.23-.469-.021-.039-.022-.041-.031-.036Zm1.817.1-.082.026c-.145.045-.363.121-1.038.364l-.282.1s-.363.691-.419.8c-.074.142-.166.324-.181.356l-.009.02.03.051c.078.13.3.48.408.656l.064.1.014,0,.161-.04c.277-.07.266-.067.268-.077s.02-.012.023,0,0,.007.264-.063a.985.985,0,0,0,.276-.086.77.77,0,0,0,.059-.084c.19-.289.448-.688.62-.957s.184-.288.2-.327l.018-.033-.035-.072A.975.975,0,0,1,3.7-49.9a.03.03,0,0,0-.008-.02c-.01-.01-.08-.147-.136-.264s-.125-.249-.137-.262Zm3.222.475c-.01,0-.155.1-.431.308l-.238.176-.043.031v.049c0,.027,0,.091.008.142.012.126.14,1.274.15,1.344.008.051.011.055.094.108s.551.328.784.458h0l.083.045c.01,0,.224-.183.651-.558.166-.145.174-.153.172-.165s0-.012.009-.012.011,0,.011,0a.163.163,0,0,0,.039-.031l.1-.09.06-.054-.032-.218c-.043-.29-.065-.433-.079-.5,0-.021-.006-.021-.075-.077-.285-.227-1.251-.966-1.263-.966Zm-2.951.063c.009,0,.01,0,.01.01s0,.01-.01.01-.01,0-.01-.01S3.68-49.916,3.687-49.916ZM8.4-49.3a3.233,3.233,0,0,0-.223.29c-.03.056-.029.094,0,.322.01.071.031.207.045.3l.025.176.105.146c.058.081.125.172.149.2a.268.268,0,0,0,.047.054,1.575,1.575,0,0,0,.022-.183c.007-.079,0-.352-.007-.466a3.579,3.579,0,0,0-.071-.517,1.52,1.52,0,0,0-.1-.328ZM2.922-48.071c-.008,0-.117.025-.24.056l-.731.188a1.89,1.89,0,0,0-.015.2l-.007.1.011.027.012.027-.012.012-.012.011,0,.142c-.007.247-.021.661-.027.763l-.006.1.047.047c.075.076.15.153.346.36a5.081,5.081,0,0,0,.441.444c.013.007.014.007.044,0,.066-.017.3-.09.586-.179s.3-.094.3-.1.02-.017.02-.006,0,.006.008.005l.264-.082.256-.081.052-.292a4.08,4.08,0,0,0,.088-.576s-.449-.378-.865-.722c-.227-.188-.461-.375-.521-.418a.125.125,0,0,0-.037-.02Zm3.086.35-.026.013c-.072.037-.341.186-.732.405-.233.131-.376.21-.407.225-.015.007-.024.013-.02.013s.008,0,.008.012,0,.012-.01.012-.011,0-.012-.008-.006-.005-.039.015l-.142.083-.109.064c-.006,0-.049.245-.105.573-.045.261-.046.271-.039.28a6.178,6.178,0,0,0,.713.52l.392.276c.03.022.041.027.042.022s0-.006.01-.005.009,0,.009.013a.031.031,0,0,0,0,.017.567.567,0,0,0,.09.058.1.1,0,0,0,.031.01,1.647,1.647,0,0,0,.241-.135c.211-.127.768-.475.848-.529.019-.013.022-.017.024-.032s.038-.263.081-.564c.106-.743.11-.777.091-.8s-.693-.419-.889-.515ZM1.79-46.335s-.058,0-.125.005a2.4,2.4,0,0,0-.374.034c-.013,0-.014.007-.012.018a3.5,3.5,0,0,0,.392.546,4.465,4.465,0,0,0,.647.589c.055.04.179.126.222.154a.137.137,0,0,0,.026.014.213.213,0,0,0,.025-.079c.007-.044.017-.163.024-.288.006-.1.006-.121,0-.126-.059-.064-.7-.738-.773-.814l-.051-.052Zm5.072.665-.561.351-.561.351-.107.2c-.1.185-.137.261-.137.268s0,0,.01.006a2.253,2.253,0,0,0,.63-.178c.141-.057.152-.061.153-.072s.016-.015.021-.007a2.277,2.277,0,0,0,.352-.173,3.534,3.534,0,0,0,.458-.309c.14-.116.445-.392.445-.4s-.147-.035-.486-.035Z" transform="translate(-15.313 -39.445)" fill="#fff"/><path d="M3.99-44.435a4.111,4.111,0,0,1-1.522-.39,3.675,3.675,0,0,1-1.005-.682A4.042,4.042,0,0,1,.8-46.277a2.57,2.57,0,0,1-.233-.417.059.059,0,0,0-.018-.04,1.682,1.682,0,0,1-.156-.374A3.988,3.988,0,0,1,.179-48.62a5.412,5.412,0,0,1,.1-.66,3.95,3.95,0,0,1,.984-1.784A4.111,4.111,0,0,1,3.724-52.3a5.789,5.789,0,0,1,1.1.006,4.227,4.227,0,0,1,1.921.788,5.1,5.1,0,0,1,.639.6,3.923,3.923,0,0,1,.911,2,3.407,3.407,0,0,1,.023.525,2.931,2.931,0,0,1-.03.567,4.247,4.247,0,0,1-.3,1.032,4.082,4.082,0,0,1-1.552,1.745,1.9,1.9,0,0,1-.382.2s-.015,0-.024.013a3,3,0,0,1-.554.219,4.05,4.05,0,0,1-1,.175,2.9,2.9,0,0,1-.495,0Zm1.337-.3A4.047,4.047,0,0,0,6.678-45.4c.111-.086.486-.423.486-.437s-.143-.036-.412-.036H6.458l-.561.351-.561.351-.123.228c-.067.126-.123.234-.123.24,0,.023.081.012.236-.031Zm-3.14-.509a2.238,2.238,0,0,0,.023-.246l.009-.177-.347-.367c-.191-.2-.379-.4-.417-.438l-.07-.071-.255.017c-.209.014-.255.02-.259.035a3,3,0,0,0,.373.531,4.346,4.346,0,0,0,.717.649c.106.075.2.136.2.136s.016-.031.024-.069Zm3.643-.414c.3-.186.544-.342.544-.346s.044-.312.1-.684c.094-.65.1-.677.075-.7-.045-.046-.916-.543-.943-.538s-.278.147-.585.321-.57.32-.583.324a.087.087,0,0,0-.031.017s-.071.045-.149.09l-.145.083c-.006,0-.147.821-.147.846s.1.1.567.424c.312.218.576.4.586.412a.463.463,0,0,0,.146.088c.013,0,.268-.151.567-.337Zm-2.947-.3.718-.227.2-.063.067-.373c.037-.205.069-.4.071-.436l0-.063-.7-.58c-.424-.352-.709-.58-.724-.58s-.24.055-.5.122l-.476.122-.011.152c-.006.084-.01.174-.01.2,0,.084-.02.754-.028.9l-.008.135.088.088c.048.049.233.242.41.429a2.079,2.079,0,0,0,.351.34c.016,0,.261-.074.546-.164Zm4.171-1.914.516-.453.114-.1-.054-.365c-.029-.2-.058-.368-.062-.372-.09-.078-1.321-1.024-1.333-1.024s-.174.117-.367.26l-.35.26v.069c0,.038.014.194.032.347s.053.465.078.694.049.433.053.453.051.062.476.31c.258.15.475.273.482.274s.194-.157.415-.35Zm1.113-.317a4.182,4.182,0,0,0-.063-.931,1.678,1.678,0,0,0-.111-.392,1.452,1.452,0,0,0-.133.165c-.144.192-.136.114-.064.608l.047.32.149.208a2.005,2.005,0,0,0,.155.2,1.619,1.619,0,0,0,.021-.18Zm-6.4-.061a6.055,6.055,0,0,0,.738-.2c.021-.02.842-1.291.877-1.357l.026-.05-.059-.122A.489.489,0,0,1,3.3-50.1s0-.011-.008-.016a2.505,2.505,0,0,1-.137-.267,2.055,2.055,0,0,0-.14-.267c-.011-.006-.276.083-.713.24l-.695.249L1.3-49.58c-.169.321-.3.588-.3.593.014.033.5.81.5.81s.124-.03.266-.066Zm-.6-1.419c.159-.3.29-.556.29-.564s-.242-.51-.259-.526-.066.051-.212.26a3.894,3.894,0,0,0-.5,1.032c-.021.071-.043.139-.048.15s.027.037.184.111a1.1,1.1,0,0,0,.223.088c.027,0,.065-.068.32-.552Zm4.592-.37a2.646,2.646,0,0,0,.362-.3c0-.017-.419-1.021-.431-1.032s-.384-.031-.85-.064L4-51.485l-.041.032c-.022.017-.18.155-.35.3s-.317.275-.327.277a.021.021,0,0,0-.018.017.174.174,0,0,1-.052.054.176.176,0,0,0-.052.054c0,.016.374.809.388.822a5.63,5.63,0,0,0,.875.086l.8.065.14.012c.029,0,.107-.052.4-.272Zm.176-1.574c.109-.053.2-.1.2-.106a3.931,3.931,0,0,0-.64-.28,4.3,4.3,0,0,0-.886-.179,2.758,2.758,0,0,0-.521-.011,2.629,2.629,0,0,0-.591.07c-.011.011.026.053.153.171.092.087.206.19.254.229L4-51.642l.2.018c.11.01.439.035.731.055s.575.041.628.047c.178.019.17.02.383-.084Z" transform="translate(-14.911 -39.246)"/><path d="M3.119-82.8l.567-.928.953-1.559.412-.674H6.734l.1.167c.619,1.033,1.008,1.671,1.62,2.654a2.411,2.411,0,0,1,.218.369s-.3,0-.659.006l-.65,0-.106-.219-.131-.271L7.1-83.305H4.681l-.129.272-.129.272H3.093Zm3.625-1.281c0-.009-.149-.234-.354-.532-.244-.356-.369-.544-.458-.689a.631.631,0,0,0-.039-.06s-.039.055-.084.123l-.293.438c-.266.4-.479.717-.479.721s.384,0,.853,0,.853,0,.853,0Z" transform="translate(-16.643 -19.303)" fill="#d8000f"/><path d="M4.379-71.967a2.278,2.278,0,0,1-1.211-.648L3.08-72.7v-2.483H4.39l0,1.222v1.222h2.98l0-1.222,0-1.222h1.3v2.5l-.021.017-.091.079a2.663,2.663,0,0,1-1.09.621l-.063.015H4.453l-.072-.012Z" transform="translate(-16.635 -25.695)" fill="#d8000f"/><path d="M3.482-62.148v-1.617h5.41v.65H4.734v.645h4.1v.609h-4.1l0,.384c0,.211,0,.511,0,.665v.28H3.482Z" transform="translate(-16.874 -32.464)" fill="#d8000f"/><g transform="translate(-24.921 -118.525)"><g transform="translate(0 0)" clip-path="url(#a)"><g transform="translate(0.565)" clip-path="url(#b)"><path d="M5.578,2.032h0L3.842,3.285l.664,2.028L2.781,4.048,1.054,5.292l.673-2.02L0,2.025l2.133.013L2.789,0l.656,2.036Z" transform="translate(21.954 0.051)" fill="#ffc905"/><path d="M2.694-.126a.032.032,0,0,1,.03.022L3.373,1.91l2.111,0a.032.032,0,0,1,.019.057L3.784,3.2l.657,2.006a.032.032,0,0,1-.049.035L2.686,3.992.977,5.223a.032.032,0,0,1-.048-.036l.666-2L-.113,1.956A.032.032,0,0,1-.125,1.92.032.032,0,0,1-.095,1.9l2.11.013L2.664-.1A.032.032,0,0,1,2.694-.126Zm.656,2.1a.032.032,0,0,1-.03-.022L2.694.008,2.068,1.953a.031.031,0,0,1-.03.022L0,1.962,1.65,3.152a.032.032,0,0,1,.011.036L1.019,5.115,2.667,3.927a.032.032,0,0,1,.037,0L4.351,5.134,3.717,3.2a.032.032,0,0,1,.012-.035l1.657-1.2-2.036,0Z" transform="translate(22.049 0.146)" fill="#ffc905"/><path d="M4.5,5.3h0L2.783,4.046,1.064,5.3l.655-2.022L0,2.023H2.135L2.789,0l.649,2.024,2.136.011L3.841,3.277Z" transform="translate(14.781 0.056)" fill="#ffc905"/><path d="M4.407,5.236a.031.031,0,0,1-.019-.006l-1.7-1.24L.987,5.23a.032.032,0,0,1-.049-.035l.648-2-1.7-1.24a.032.032,0,0,1-.011-.035A.032.032,0,0,1-.095,1.9H2.017l.648-2a.032.032,0,0,1,.03-.022.032.032,0,0,1,.03.022l.642,2,2.113.011a.032.032,0,0,1,.018.057L3.783,3.194l.654,2a.032.032,0,0,1-.03.041ZM2.688,3.92a.031.031,0,0,1,.019.006l1.64,1.2-.631-1.93a.032.032,0,0,1,.012-.035L5.381,1.971l-2.038-.01a.032.032,0,0,1-.03-.022L2.694.008,2.07,1.937a.032.032,0,0,1-.03.022H0l1.64,1.2a.032.032,0,0,1,.011.035l-.625,1.93,1.641-1.2A.031.031,0,0,1,2.688,3.92Z" transform="translate(14.876 0.151)" fill="#ffc905"/><path d="M2.787,4.046,1.066,5.3h0l.665-2.022L0,2.03l2.136-.007L2.788,0l.651,2.023,2.135,0L3.853,3.279,4.516,5.3Z" transform="translate(7.209 0.056)" fill="#ffc905"/><path d="M4.422,5.24A.031.031,0,0,1,4.4,5.234L2.692,3.99.99,5.227a.032.032,0,0,1-.049-.035l.657-2L-.113,1.961a.032.032,0,0,1-.012-.035A.032.032,0,0,1-.1,1.9L2.018,1.9l.645-2a.032.032,0,0,1,.03-.022.032.032,0,0,1,.03.022l.644,2,2.112,0a.032.032,0,0,1,.018.057L3.8,3.2l.656,2a.032.032,0,0,1-.03.041ZM2.692,3.92a.031.031,0,0,1,.019.006l1.651,1.2L3.728,3.194a.032.032,0,0,1,.011-.035L5.382,1.964l-2.038,0a.032.032,0,0,1-.03-.022L2.693.008l-.622,1.93a.032.032,0,0,1-.03.022L0,1.967,1.654,3.155a.032.032,0,0,1,.012.035L1.032,5.119,2.673,3.926A.032.032,0,0,1,2.692,3.92Z" transform="translate(7.304 0.151)" fill="#ffc905"/><path d="M1.054,5.286l.67-2.016L0,2l2.135.013L2.805,0l.636,2.033,2.129,0L3.842,3.278l.647,2.027L2.782,4.043Z" transform="translate(0.051 0.053)" fill="#ffc905"/><path d="M4.394,5.242a.031.031,0,0,1-.019-.006L2.686,3.987.977,5.217a.032.032,0,0,1-.048-.036l.663-1.994L-.114,1.933A.032.032,0,0,1-.125,1.9a.032.032,0,0,1,.03-.022l2.112.013L2.68-.1a.032.032,0,0,1,.03-.022A.032.032,0,0,1,2.74-.1l.629,2.011,2.106,0a.032.032,0,0,1,.018.057L3.784,3.2,4.424,5.2a.032.032,0,0,1-.03.041ZM2.687,3.916a.031.031,0,0,1,.019.006l1.629,1.2L3.717,3.193a.032.032,0,0,1,.012-.035L5.378,1.972l-2.032,0a.032.032,0,0,1-.03-.022L2.709.008,2.07,1.931a.031.031,0,0,1-.03.022L0,1.94,1.647,3.15a.032.032,0,0,1,.011.035L1.019,5.109,2.668,3.922A.031.031,0,0,1,2.687,3.916Z" transform="translate(0.146 0.148)" fill="#ffc905"/></g></g></g></g></g></svg>