<svg xmlns="http://www.w3.org/2000/svg" xmlns:xlink="http://www.w3.org/1999/xlink" width="64" height="64" viewBox="0 0 64 64"><defs><clipPath id="a"><circle cx="32" cy="32" r="32" transform="translate(286 513)" fill="#dedede"/></clipPath></defs><g transform="translate(-286 -513)" clip-path="url(#a)"><g transform="translate(286.002 513)"><path d="M30.3,0h3.334a32.964,32.964,0,0,1,10.17,2.23A31.824,31.824,0,1,1,30.3,0M28.32,1.45A30.945,30.945,0,0,0,5,17.318,30.72,30.72,0,0,0,49.056,57.556a30.7,30.7,0,0,0-.381-51.383A30.589,30.589,0,0,0,28.32,1.45Z" fill="#00206b"/><path d="M29.091,14.051a18.082,18.082,0,0,1,15.536,4.886,17.774,17.774,0,0,1,5.523,13.114A17.771,17.771,0,0,1,44.6,45.072,18.154,18.154,0,0,1,17.062,42.33,18.171,18.171,0,0,1,29.091,14.051m1.11,1.107q0,2.386,0,4.771,1.19,0,2.381,0c0-1.632.006-3.264,0-4.893-.794.026-1.59.064-2.384.118m5.725,4.848c2.09.282,4.336.6,6,2.013,2.544,2.285,2.214,7.082-.9,8.739A5.321,5.321,0,0,1,45.2,34.4c.6,2.57.122,5.654-1.942,7.466-2.045,1.683-4.813,1.9-7.341,2.144.013,1.488.006,2.976,0,4.467a17.224,17.224,0,0,0,11.866-10.39,16.906,16.906,0,0,0-1.2-14.65A17.354,17.354,0,0,0,35.936,15.51c-.013,1.5-.013,3-.01,4.5m-15.882-.064c2.3.112,4.611.086,6.918.083,0-1.4,0-2.806-.006-4.211a19.9,19.9,0,0,0-6.912,4.128m-.275.186a24.2,24.2,0,0,0-2.416,3.43,16.854,16.854,0,0,0-.755,15.4,17.221,17.221,0,0,0,10.358,9.2c.006-1.4,0-2.8,0-4.2-2.314-.022-4.634.061-6.944-.064a11.828,11.828,0,0,1,.768-3.766,11.15,11.15,0,0,0,3.408-.2c.64-.538.458-1.427.493-2.163-.035-4.208.016-8.416-.022-12.621a1.463,1.463,0,0,0-1.088-1.546,18.62,18.62,0,0,0-3.533-.15,21.9,21.9,0,0,1-.166-2.861,1.147,1.147,0,0,0-.086-.5l-.019.029ZM30.3,23.744v6.2c2.07-.038,4.368.192,6.179-1.011a2.653,2.653,0,0,0-.144-4.365c-1.814-1.072-4.026-.768-6.035-.826m0,9.539v6.88c2.557-.2,5.424.224,7.648-1.318a2.781,2.781,0,0,0-.24-4.586c-2.227-1.331-4.934-.909-7.408-.976m-.093,10.771q0,2.386-.006,4.774c.829.054,1.654.086,2.483.112.006-1.629,0-3.258,0-4.886h-2.48Z" fill="#00206b"/><path d="M28.506,3.11a29.077,29.077,0,1,1,4.173,57.933A28.666,28.666,0,0,1,14,54.868,29.1,29.1,0,0,1,28.506,3.11M27.53,12.5a20,20,0,1,0,22.1,28.928A20,20,0,0,0,27.53,12.5Z" fill="#eba809"/></g></g></svg>