<svg xmlns="http://www.w3.org/2000/svg" width="64" height="64" viewBox="0 0 64 64"><circle cx="32" cy="32" r="32" fill="#f5f5f5"/><g transform="translate(13.365 13.189)"><path d="M6.7,5.879a4.926,4.926,0,1,1,9.758-.941v6.114c.705,0,1.411-.118,2.116-.118a11.407,11.407,0,0,1,2,.118V4.938A4.968,4.968,0,0,1,25.513,0a5.085,5.085,0,0,1,4.938,5.879L29.158,13.05c4.585,2,8.112,5.526,8.112,9.876v2.7c0,3.645-2.351,6.7-5.761,8.7a24.539,24.539,0,0,1-12.933,3.292A24.539,24.539,0,0,1,5.643,34.331C2.351,32.332,0,29.275,0,25.63v-2.7c0-4.35,3.41-7.877,7.995-9.876Zm20.693,8.112,1.528-8.465a3.475,3.475,0,0,0-3.41-4.115A3.412,3.412,0,0,0,22.1,4.82v7.76a6.7,6.7,0,0,0-1.528-.118c-.705,0-1.293-.118-2-.118a12.778,12.778,0,0,0-2.116.118c-.47,0-1.058.118-1.528.118V4.938a3.39,3.39,0,1,0-6.7.705l1.528,8.465c-4.938,1.881-8.23,5.173-8.23,8.935v2.7c0,5.761,7.642,10.464,17.048,10.464s17.048-4.7,17.048-10.464v-2.7C35.742,19.164,32.45,15.872,27.394,13.991Z" fill="#633001" fill-rule="evenodd"/><path d="M35.5,22.2c0,5.761-7.642,10.464-17.048,10.464S1.4,27.965,1.4,22.2V19.5H35.613v2.7Z" transform="translate(0.246 3.426)" fill="#fedc90"/><path d="M7.984,5.415a3.39,3.39,0,1,1,6.7-.705v7.76a35.606,35.606,0,0,1,3.645-.235c1.176,0,2.351.118,3.527.235V4.71a3.412,3.412,0,0,1,3.41-3.41,3.537,3.537,0,0,1,3.41,4.115L27.148,13.88c4.938,1.881,8.348,5.173,8.348,8.935,0,5.761-7.642,10.464-17.048,10.464S1.4,28.576,1.4,22.815c0-3.762,3.292-7.054,8.23-8.935Z" transform="translate(0.246 0.228)" fill="#d1884f" fill-rule="evenodd"/><path d="M12.362,19.322c0,1.528-.823,2.822-1.881,2.822S8.6,20.85,8.6,19.322,9.423,16.5,10.481,16.5,12.362,17.793,12.362,19.322Z" transform="translate(1.511 2.899)" fill="#633001"/><path d="M23.462,19.322c0,1.528-.823,2.822-1.881,2.822S19.7,20.85,19.7,19.322s.823-2.822,1.881-2.822S23.462,17.793,23.462,19.322Z" transform="translate(3.461 2.899)" fill="#633001"/></g></svg>