<svg xmlns="http://www.w3.org/2000/svg" width="64" height="64" viewBox="0 0 64 64"><g transform="translate(-443 -4005)"><g transform="translate(-8085.947 3312.504)"><circle cx="32" cy="32" r="32" transform="translate(8528.947 692.496)"/></g><g transform="translate(452.304 4010.755)"><g transform="translate(1.034 2.5)"><path d="M7.489,41.848a9.445,9.445,0,0,1-4.508-5.088,14.541,14.541,0,0,1-.768-6.207A19.873,19.873,0,0,1,4.3,23.664c1.625-3.63,3.053-6.817-2.355-11.778l-.909-.834.75-.978L5.339,5.438l.546-.711.874.225a34.19,34.19,0,0,0,4.341.87,17.318,17.318,0,0,0,4.134.054c-.053.007-.067.01.059-.007l.072-.009h0l-.071.01-.056.007h0l.134-.019,0,0c.077-.009.052-.005,0,0v0q.412-.052.9-.146.445-.086.859-.2A11.1,11.1,0,0,0,20.953,3.7L21,3.666l.929-.638L22.7,2.5l.771.529.929.638.037.026h0l.005.005q.253.188.675.456t.7.414a12.145,12.145,0,0,0,4.21,1.292,17.188,17.188,0,0,0,4.267-.038,34.2,34.2,0,0,0,4.342-.87l.874-.225.546.711,3.555,4.636.749.978-.909.834c-5.526,5.069-4.027,8.324-2.3,12.071a21.911,21.911,0,0,1,2.184,6.576v0a15.329,15.329,0,0,1,.121,1.692,12.981,12.981,0,0,1-.088,1.727,9.885,9.885,0,0,1-5.46,7.893l-14.563,7.8-.643.345-.643-.345ZM5.523,35.8a6.816,6.816,0,0,0,3.253,3.672L22.7,46.924l13.92-7.453a7.31,7.31,0,0,0,4.046-5.833,10.416,10.416,0,0,0,.067-1.378,12.744,12.744,0,0,0-.1-1.4v0a19.7,19.7,0,0,0-1.95-5.784c-2.065-4.486-3.871-8.41,2.037-14.322l-2.28-2.973a33.924,33.924,0,0,1-3.814.724,19.81,19.81,0,0,1-4.937.028,14.849,14.849,0,0,1-5.146-1.588q-.534-.284-.89-.509-.337-.213-.794-.552L22.7,5.776l-.159.109A13.82,13.82,0,0,1,17.82,8.128q-.517.137-1.04.238-.479.092-1.065.167h0l-.013,0h0a19.808,19.808,0,0,1-4.931-.028,33.933,33.933,0,0,1-3.814-.724l-2.28,2.973c5.78,5.791,4.053,9.646,2.1,14.008a17.578,17.578,0,0,0-1.84,5.97A11.959,11.959,0,0,0,5.523,35.8ZM15.364,5.861h.009v0h0l0,0h0ZM15.7,8.535c-.457.061.234-.025,0,0Zm0,0" transform="translate(-1.034 -2.5)"/><path d="M23.556,54.692c-4.023-2.151-4.856-6.224-4.584-10.056.54-7.6,8.359-11.519-.716-19.829l3.575-4.655A24.321,24.321,0,0,0,31,21.1a13.055,13.055,0,0,0,6.265-2.431l.935-.64.935.64A13.055,13.055,0,0,0,45.4,21.1a24.32,24.32,0,0,0,9.171-.944l3.575,4.655c-9.075,8.311-1.5,12.3-.552,19.883.459,3.657-.371,7.663-4.747,10L38.2,62.521Zm0,0" transform="translate(-16.541 -16.478)" fill="#fff"/><path d="M66.378,36.206,37.716,51.53A10.846,10.846,0,0,0,38.9,47.625c.462-2.567-.162-5.283-3.573-8.722l2.119-2.781h0a26.357,26.357,0,0,0,3.419.634l.18.023a18.47,18.47,0,0,0,4.627.027h0l.013,0h0q.55-.07,1-.157.49-.1.976-.225c.365-.1.728-.208,1.077-.332h-.008a12.365,12.365,0,0,0,3.506-1.817,13.922,13.922,0,0,0,8.651,2.664,20.063,20.063,0,0,0,2.538-.159c.943-.117,1.885-.294,2.827-.507Zm-20.7.6c-.429.057.219-.024,0,0Zm0,0" transform="translate(-31.912 -31.108)"/><path d="M53.069,90.174l1.337-.668q.186.289.238.375a1.692,1.692,0,0,1,.281.8.937.937,0,0,1-.414.727,9.478,9.478,0,0,1-1.615.945q-1.252.626-1.81.847a2.769,2.769,0,0,1-.9.229,1.029,1.029,0,0,1-.543-.13,1.644,1.644,0,0,1-.471-.457q-.191-.261-.616-.978-.414-.7-.569-1.023a1.637,1.637,0,0,1-.171-.537.985.985,0,0,1,.448-.869A14.914,14.914,0,0,1,50.446,88.2q.849-.424,1.254-.581a2.411,2.411,0,0,1,.693-.174,1,1,0,0,1,.65.175,2.256,2.256,0,0,1,.567.691l.115.2-1.336.668a2.166,2.166,0,0,0-.187-.255.276.276,0,0,0-.139-.077.981.981,0,0,0-.442.1q-.328.126-.961.444t-.853.459a.742.742,0,0,0-.282.269.53.53,0,0,0,.011.381,4.124,4.124,0,0,0,.349.691,4.2,4.2,0,0,0,.424.624.537.537,0,0,0,.321.189.9.9,0,0,0,.421-.072q.262-.1.885-.408.767-.383,1.009-.534a.65.65,0,0,0,.284-.276c.039-.108-.015-.29-.16-.544Zm.57-3.49L58.5,84.256l.561.947-3.541,1.769.345.582,3.361-1.68.524.885-3.361,1.68.382.646L60.335,87.3l.573.968-4.883,2.44ZM66.31,85.572l-.78-.494-2.9,1.45.028.87-1.526.763-.06-5.191,2.076-1.037,4.68,2.882ZM64.539,84.43l-1.748-1.1-.266.133.058,1.947Zm3.709.174-2.385-4.028,3.229-1.614q1.138-.565,1.375-.658a1.234,1.234,0,0,1,.515-.08.928.928,0,0,1,.57.211,2.835,2.835,0,0,1,.547.719,3.022,3.022,0,0,1,.323.675.648.648,0,0,1-.028.442,1.177,1.177,0,0,1-.424.45,1.054,1.054,0,0,1,.735-.08.7.7,0,0,1,.3.211,6.3,6.3,0,0,1,.435.673l.222.375-1.317.658-.128-.216a3.494,3.494,0,0,0-.311-.466.55.55,0,0,0-.231-.17.442.442,0,0,0-.257.012,5.067,5.067,0,0,0-.556.253l-1.883.941.607,1.024Zm.134-2.7,1.88-.939c.324-.17.516-.273.577-.309a.392.392,0,0,0,.135-.127.286.286,0,0,0,.034-.209A1.15,1.15,0,0,0,70.864,80a1,1,0,0,0-.215-.275.32.32,0,0,0-.223-.072.582.582,0,0,0-.19.049c-.067.028-.256.119-.566.271l-1.876.938Zm10.77-2.751-.78-.494-2.9,1.449.028.87-1.526.763-.06-5.191,2.076-1.037,4.68,2.882Zm-1.771-1.142-1.749-1.1-.266.133.058,1.948Zm-.388-2.446.312-1.257,1.079-.222-1.129,1.688Zm0,0" transform="translate(-43.147 -66.213)"/><path d="M205.024,65.3l.258.475.259.475h1.673l-.677.294-.677.293.258.475.259.475-.677-.293-.677-.294-.677.294-.677.293.259-.475.259-.475-.677-.293-.677-.294h1.673l.258-.475.259-.475Zm0,0" transform="translate(-181.243 -59.038)" fill="#fff"/><path d="M155.016,55.672l.33.516.331.516h2.14l-.866.319-.865.319.331.516.331.516-.865-.319-.865-.319-.866.319-.865.319.33-.516.331-.516-.865-.319-.865-.319h2.139l.33-.516.331-.516Zm0,0" transform="translate(-136.001 -50.373)" fill="#fff"/><path d="M100.077,64.049l.359.527.361.526h2.33l-.943.326-.943.325.36.527.361.526-.942-.325-.942-.326-.943.326-.942.325.36-.526.36-.527-.942-.325-.942-.326h2.33l.36-.526.361-.527Zm0,0" transform="translate(-86.721 -57.916)" fill="#fff"/><path d="M60.789,86.2l.371.636.372.635h2.4l-.973.393-.973.393.371.635.372.635-.973-.392-.973-.393-.973.393-.973.392.371-.635.372-.635-.973-.393-.973-.393h2.4l.371-.635.372-.636Zm0,0" transform="translate(-52.001 -77.325)" fill="#fff"/><path d="M47.991,165.091V152.462l-9.367,4.589a8.237,8.237,0,0,0,.5,1.835,6.6,6.6,0,0,0,3.3,3.467l.156.078-.108-.053Zm8.534,4.17-5.159-2.62V150.808l10.127-4.962v20.84Zm8.281-25.046,6.046-2.943c-.487,2.614.638,5,1.868,7.49A28.233,28.233,0,0,1,74.15,152a15.563,15.563,0,0,1,.552,2.276,11.192,11.192,0,0,1,.095,1.272,9.159,9.159,0,0,1-.068,1.3,6.655,6.655,0,0,1-2.344,4.366,9.572,9.572,0,0,1-1.813,1.166l-1.026.516h0l-4.269,2.146,4.267-2.146-4.74,2.365V144.215Zm0,0" transform="translate(-34.878 -124.796)"/><path d="M89.792,113.595l.452.767c.15.255.3.511.453.766h2.931l-1.186.474-1.186.474c.15.256.3.511.453.767s.3.511.454.766l-1.186-.473-1.186-.474-1.186.474-1.186.473.453-.766c.15-.255.3-.511.454-.767L87.14,115.6l-1.185-.474h2.93l.453-.766.454-.767Zm0,0" transform="translate(-76.807 -101.806)" fill="#fff"/></g><g transform="translate(20.112 42.141)"><path d="M179.512,376.215v-1.758h-.392l.164-.329h.622v2.087Z" transform="translate(-179.12 -374.089)" fill="#fff"/><path d="M205.091,376.215v-1.758H204.7l.164-.329h.622v2.087Z" transform="translate(-202.15 -374.089)" fill="#fff"/><path d="M190.542,373.921a.649.649,0,0,0-.482-.183.709.709,0,0,0-.511.184.646.646,0,0,0-.193.488.616.616,0,0,0,.158.436.535.535,0,0,0,.409.17.571.571,0,0,0,.136-.014.48.48,0,0,0,.116-.043l-.559.906h.469a5.089,5.089,0,0,0,.556-1.068,1.084,1.084,0,0,0,.082-.389A.659.659,0,0,0,190.542,373.921Zm-.284.7a.272.272,0,0,1-.209.088.3.3,0,0,1-.225-.084.317.317,0,0,1-.081-.23.311.311,0,0,1,.082-.224.319.319,0,0,1,.434,0,.313.313,0,0,1,.08.227A.321.321,0,0,1,190.258,374.617Z" transform="translate(-188.336 -373.738)" fill="#fff"/><path d="M215.794,375.063v-1.325h-.358l-.944,1.422v.181h.944v.523h.358v-.523H216v-.278Zm-.35-.824c0,.034,0,.084,0,.15v.675H214.9l.423-.648c.028-.044.053-.089.076-.134a1.336,1.336,0,0,0,.06-.137C215.45,374.173,215.447,374.2,215.444,374.238Z" transform="translate(-210.967 -373.738)" fill="#fff"/></g></g></g></svg>