<svg xmlns="http://www.w3.org/2000/svg" width="64" height="64.001" viewBox="0 0 64 64.001"><g transform="translate(0 0.001)"><path d="M32,64A32,32,0,1,1,64,32.32,32.128,32.128,0,0,1,32,64" transform="translate(0 0)" fill="#060606" fill-rule="evenodd"/><g transform="translate(13.333 11.016)"><path d="M0,156.864c.51.271,1.179.685,1.656,1,.175.119.374.223.565.342.1.064.167.1.263.159a1.3,1.3,0,0,0,.135.088l.143.08L8.9,162.311c.088.048.167.1.263.159l5.567,3.432c.064.04.088.048.143.088l2.66,1.633c.119.064.167.143.3.151V146.989l-.844-.486c-.08-.04-.127-.072-.207-.119L16.119,146c-.94-.494-1.816-1.1-2.763-1.593-.1-.048-.127-.08-.231-.127l-.844-.486a13.2,13.2,0,0,0-1.314-.733v3.281l3.456,2c.1.056.159.1.247.143a.9.9,0,0,0,.263.127v14.072c-.605-.406-1.25-.772-1.871-1.147l-1.505-.932c-.613-.414-1.274-.757-1.887-1.163-.072-.048-.111-.064-.183-.111l-1.33-.82a3.824,3.824,0,0,1-.382-.239c-.486-.327-1.011-.613-1.505-.932-.135-.088-.247-.143-.382-.231-.733-.494-1.521-.94-2.27-1.394-.064-.04-.119-.08-.175-.119l-.581-.358V138.348c-.111-.072-.223-.135-.35-.207s-.223-.127-.35-.207L.366,136.915c-.135-.072-.239-.151-.366-.215v20.164Z" transform="translate(0 -125.814)" fill="#fff" fill-rule="evenodd"/><path d="M245.316,147.325v7.988l1.059-.6c.486-.255.932-.565,1.418-.82a1.228,1.228,0,0,0,.183-.111c.064-.04.127-.064.191-.1v-4.707a.506.506,0,0,0,.2-.088c.072-.048.119-.064.191-.1.374-.215.741-.47,1.123-.661.518-.255,1.011-.573,1.505-.868.127-.072.231-.135.366-.215l.749-.422.183-.111c.327-.167.629-.39.964-.565l.366-.215c.064-.04.127-.064.191-.1l2.445-1.418c.518-.271,1-.6,1.505-.868l.757-.446c.255-.151.5-.287.757-.446.135-.08.247-.135.366-.215l.4-.223v13.626a.674.674,0,0,0-.239.119l-.7.43c-.072.048-.127.088-.215.143s-.159.1-.239.151-.135.088-.223.135l-.709.422c-.637.366-1.234.78-1.871,1.147l-1.863,1.155c-.088.056-.135.08-.223.135-.836.565-1.728,1.035-2.572,1.585-.151.1-.311.191-.462.287l-2.333,1.433c-.072.04-.151.088-.223.135-.693.454-1.418.844-2.11,1.3l-.948.581v3.345a2.791,2.791,0,0,0,.557-.319c.191-.119.374-.215.565-.342.534-.358,1.115-.653,1.648-1.011.1-.064.183-.119.279-.175l1.41-.868c.1-.056.167-.1.263-.159l7.5-4.619c.1-.064.191-.119.279-.175l5.009-3.082a2.67,2.67,0,0,1,.287-.167V137.1a.771.771,0,0,0-.279.143c-.1.056-.175.1-.271.151l-1.664.964c-.565.3-1.091.677-1.664.964l-4.452,2.564c-.2.111-.358.215-.549.326l-.82.478c-.581.295-1.426.8-1.959,1.131-.1.064-.175.088-.271.151l-1.808,1.051a1.385,1.385,0,0,0-.143.088l-.565.311c-.334.175-.629.39-.964.565-.08.04-.08.056-.143.088l-.565.311a17.689,17.689,0,0,1-1.664.94Z" transform="translate(-225.765 -126.182)" fill="#fff" fill-rule="evenodd"/><path d="M13.9,9.548a1.03,1.03,0,0,1,.279.143c.374.2.709.438,1.091.629L18.3,12.073c1.441.876,2.939,1.656,4.388,2.532l.271.151c.1.056.175.1.271.151l1.648.956c.072.04.064.04.119.072.772.47,1.585.868,2.349,1.354L29.8,18.7c.1.056.167.1.263.159a13.813,13.813,0,0,0,1.418.8,8.118,8.118,0,0,0,1.25-.693l.43-.255c.143-.088.271-.143.414-.231l.414-.239.836-.494c.143-.088.271-.151.406-.239l1.266-.717c.08-.04.135-.08.207-.119a2.39,2.39,0,0,1,.207-.119l.844-.486a1.848,1.848,0,0,1,.446-.239c-.024-.1-.04-.088-.119-.135l-2.7-1.553c-1.075.565-2.094,1.226-3.162,1.808a2.428,2.428,0,0,0-.239.151c-.167.1-.319.191-.494.287l-1.625-.94c-.565-.287-1.083-.661-1.648-.956-.127-.072-.255-.151-.366-.215l-3.3-1.9c-.064-.04-.119-.072-.183-.111s-.119-.064-.191-.1L19.952,9.724a.465.465,0,0,0-.2-.1c.088-.127.191-.135.334-.223.119-.08.231-.119.358-.191l3.671-1.983a1.686,1.686,0,0,1,.159-.1,1.461,1.461,0,0,0,.191-.1c.127-.08.255-.135.382-.2l4.579-2.469c.08-.04.1-.064.183-.111l1.864-1c.1,0,1.513.82,1.84.987.08.04.135.064.215.111a1.582,1.582,0,0,0,.231.127l5.065,2.732c.446.279,1.8.988,2.278,1.226.542.271,1.059.6,1.6.868l3.01,1.633c.1.056.135.072.231.127.358.215.366.032.948-.287l1.075-.613a11.668,11.668,0,0,1,1.083-.605c-.032-.1-.127-.143-.223-.2l-1.091-.6c-.549-.279-1.1-.621-1.648-.884L45,7.287c-.374-.191-.749-.366-1.1-.589l-5.5-2.97a2.18,2.18,0,0,1-.271-.151L35.912,2.381c-.1-.056-.167-.1-.271-.151-.056-.032-.08-.04-.127-.064L32.607.589A8.747,8.747,0,0,0,31.468,0a8.447,8.447,0,0,0-.836.43l-6.3,3.408a3.055,3.055,0,0,0-.279.143L19.642,6.363c-.1.056-.151.1-.271.151l-.4.215c-.08.04-.08.056-.143.088-.088.056-.183.08-.279.143l-.844.454c-.111.056-.167.1-.271.151l-1.282.7a.934.934,0,0,0-.088.04c-.183.1-.374.175-.549.295a3.055,3.055,0,0,1-.279.143L14,9.429c-.1.056-.072.008-.1.119Z" transform="translate(-12.793)" fill="#fff" fill-rule="evenodd"/></g></g></svg>