<svg xmlns="http://www.w3.org/2000/svg" width="64" height="64" viewBox="0 0 64 64"><g transform="translate(-286 -1453)"><circle cx="32" cy="32" r="32" transform="translate(286 1453)" fill="#f5f5f5"/><g transform="translate(298.667 1471.037)"><g transform="translate(-0.031 -0.004)"><path d="M.983.027C.4.073-.055.166-.03.235.2.792,1.65,4.07,1.67,4.089a4.971,4.971,0,0,0,.751.059A10.757,10.757,0,0,1,7.06,5.3a9.626,9.626,0,0,1,2.7,1.927,9.365,9.365,0,0,1,2.487,4.23c.053.191.1.362.1.389a6.183,6.183,0,0,1-1.446.043c-.8,0-1.483.013-1.525.03a11.145,11.145,0,0,0-.913,1.95c-.461,1.058-.843,1.947-.85,1.977-.023.086.254.161.946.264.142.023.992.046,2,.059l1.749.02-.105.362a10.259,10.259,0,0,1-9.324,7.133c-.254.016-.586.033-.741.033h-.28L.991,25.7c-.741,1.7-.857,1.987-.807,2a7.484,7.484,0,0,0,1.885.112A14.457,14.457,0,0,0,5.5,27.5a15.262,15.262,0,0,0,11.017-8.444,13.783,13.783,0,0,0,.863-2.725l.023-.161h3.746l.013.072a12.8,12.8,0,0,0,1.071,3.272,14.886,14.886,0,0,0,7.927,7.192,17.038,17.038,0,0,0,6.771,1.216c.969-.03,1.74-.138,1.7-.241-.033-.086-1.674-3.851-1.684-3.861s-.349-.023-.761-.04a12.014,12.014,0,0,1-3.008-.461,11.651,11.651,0,0,1-4.155-2.184,9.791,9.791,0,0,1-3.041-4.4c-.063-.191-.125-.392-.135-.451l-.023-.105,1.41-.01c.774-.007,1.433-.023,1.46-.036.043-.023,1.73-3.848,1.73-3.924a2.234,2.234,0,0,0-.81-.237,16,16,0,0,0-2.076-.069L25.8,11.881l.066-.234a10.494,10.494,0,0,1,7.719-7.07A12.806,12.806,0,0,1,36.3,4.215c.633-.026.712-.036.751-.089.026-.036.415-.909.863-1.941A18.509,18.509,0,0,0,38.7.284a4.874,4.874,0,0,0-.9-.158,21.9,21.9,0,0,0-2.744.013,16.271,16.271,0,0,0-10,4.468,13.307,13.307,0,0,0-3.875,7.041l-.04.241H17.456l-.013-.076c-.01-.04-.046-.227-.086-.418A13.513,13.513,0,0,0,13.11,4.132a16.307,16.307,0,0,0-8.932-4A18.412,18.412,0,0,0,.983.027Z" transform="translate(0.031 0.004)" fill="#007f88"/></g></g></g></svg>