<svg xmlns="http://www.w3.org/2000/svg" xmlns:xlink="http://www.w3.org/1999/xlink" width="64" height="64" viewBox="0 0 64 64"><defs><clipPath id="a"><circle cx="32" cy="32" r="32" fill="#f5f5f5"/></clipPath></defs><g clip-path="url(#a)"><g transform="translate(0 64.183)"><path d="M28.026-63.974A32.236,32.236,0,0,0,.572-38.291a32.352,32.352,0,0,0,5,24.221,40.514,40.514,0,0,0,8.364,8.39A34.35,34.35,0,0,0,25.845-.7,39.651,39.651,0,0,0,38.16-.7,31.772,31.772,0,0,0,53.94-8.862a31.536,31.536,0,0,0,9.237-16.062,32.054,32.054,0,0,0-8.005-29.352,32.929,32.929,0,0,0-17.062-9.339A40.68,40.68,0,0,0,28.026-63.974Zm7.184,2.54A29.777,29.777,0,0,1,54.735-50.863a28.709,28.709,0,0,1,5.927,12.008,21.971,21.971,0,0,1,.693,6.414,26.231,26.231,0,0,1-1.924,10.9A29.383,29.383,0,0,1,11.22-11.4,29.21,29.21,0,0,1,4.78-43.295a29.986,29.986,0,0,1,12.341-14.24A29.1,29.1,0,0,1,35.21-61.434Z"/><path d="M11.3-39.728c-3.335,1.206-5.465,5.337-4.7,9.185a6.886,6.886,0,0,0,2.027,4.08c1.591,1.719,2.617,2.1,5.414,2.1,2.232,0,2.566-.077,3.8-.744a7.409,7.409,0,0,0,3.823-6.183c.359-3.951-1.924-7.646-5.285-8.6A10.959,10.959,0,0,0,11.3-39.728Zm5.619,3.207a5.882,5.882,0,0,1,1.745,5.876c-1.026,4.31-6.7,5.157-8.647,1.283-1.18-2.309-.564-5.927,1.232-7.184A5.377,5.377,0,0,1,16.916-36.521Z"/><path d="M46.012-39.625c-4.824,1.924-6.183,9.031-2.54,13.342,1.976,2.36,6.645,2.8,8.724.8l.564-.539.077.718c.077.641.154.693,1.36.693h1.283l.077-4.054.077-4.028h-7.21v2.566H50.6c2.36,0,2.437.051,1.77,1.437a4.293,4.293,0,0,1-3.335,1.9c-2.951,0-4.721-2.078-4.721-5.439.026-3.72,2.412-5.85,5.67-5.08,1.257.308,2.54,1.411,2.54,2.207,0,.257.385.359,1.539.359h1.514l-.359-1.155c-.8-2.694-2.771-4.054-6.03-4.157A6.925,6.925,0,0,0,46.012-39.625Z"/><path d="M23.792-32.185v7.7h2.566l.051-5.183.077-5.208,1.9,5.208,1.9,5.208,1.283-.077,1.283-.077,1.873-5.132L36.6-34.879l.077,5.132.077,5.132,1.36.077,1.334.077-.051-7.646-.077-7.646H35.749l-2.053,5.7a39.359,39.359,0,0,1-2.207,5.516c-.1-.1-1.026-2.54-2.053-5.439s-2-5.414-2.13-5.593a3.5,3.5,0,0,0-1.873-.308H23.792Z"/></g></g></svg>