<svg xmlns="http://www.w3.org/2000/svg" xmlns:xlink="http://www.w3.org/1999/xlink" width="64" height="64" viewBox="0 0 64 64"><defs><linearGradient id="a" x1="2.235" y1="0.311" x2="2.235" y2="-0.042" gradientUnits="objectBoundingBox"><stop offset="0" stop-color="#090220"/><stop offset="1" stop-color="#170659"/></linearGradient></defs><g transform="translate(257.63 -97.669)"><g transform="translate(-257.63 97.669)"><circle cx="32" cy="32" r="32" transform="translate(0 0)" fill="url(#a)"/><g transform="translate(11.599 17.33)"><path d="M44.653,58.7a1.348,1.348,0,0,0-1.058-.494H35.048a.285.285,0,0,1-.185-.071.221.221,0,0,1-.071-.159v-5.76a.221.221,0,0,1,.071-.159.217.217,0,0,1,.185-.071H44.08a7.663,7.663,0,0,1,5.9,2.8l2.2,2.681L47.9,62.677Zm15.788-3.943a7.692,7.692,0,0,1,5.927-2.77h9.006a.226.226,0,0,1,.168.053.2.2,0,0,1,.053.176v5.76a.246.246,0,0,1-.053.159.185.185,0,0,1-.168.071H66.828a1.346,1.346,0,0,0-1.058.494l-6.3,7.665L65.8,74.081a1.34,1.34,0,0,0,1.023.459h8.547a.2.2,0,0,1,.168.071.284.284,0,0,1,.053.185v5.76a.246.246,0,0,1-.053.159.185.185,0,0,1-.168.071h-9a7.6,7.6,0,0,1-5.9-2.8l-5.239-6.395L49.99,77.989a7.662,7.662,0,0,1-5.927,2.8H35.048a.2.2,0,0,1-.168-.071.242.242,0,0,1-.053-.185v-5.76a.246.246,0,0,1,.053-.159.185.185,0,0,1,.168-.071h8.547a1.4,1.4,0,0,0,1.058-.494l6.183-7.55Z" transform="translate(-34.792 -51.985)" fill="#00d1ff"/></g></g></g></svg>