<svg xmlns="http://www.w3.org/2000/svg" xmlns:xlink="http://www.w3.org/1999/xlink" width="64" height="64" viewBox="0 0 64 64"><defs><linearGradient id="a" x1="0.907" y1="1.512" x2="0.355" y2="-3.91" gradientUnits="objectBoundingBox"><stop offset="0" stop-color="#00ffa3"/><stop offset="1" stop-color="#dc1fff"/></linearGradient><linearGradient id="b" x1="0.666" y1="5.175" x2="0.114" y2="-0.247" xlink:href="#a"/><linearGradient id="c" x1="0.786" y1="3.356" x2="0.234" y2="-2.067" xlink:href="#a"/></defs><circle cx="32" cy="32" r="32" fill="#f5f5f5"/><g transform="translate(13.414 17.418)"><path d="M6.026,234.456a1.217,1.217,0,0,1,.861-.356h29.7a.608.608,0,0,1,.43,1.039L31.147,241a1.218,1.218,0,0,1-.861.356H.59a.608.608,0,0,1-.43-1.039Z" transform="translate(0 -212.198)" fill="url(#a)"/><path d="M6.026.356A1.251,1.251,0,0,1,6.886,0h29.7a.608.608,0,0,1,.43,1.039L31.147,6.9a1.217,1.217,0,0,1-.861.356H.59a.608.608,0,0,1-.43-1.039Z" transform="translate(0)" fill="url(#b)"/><path d="M31.147,116.656a1.217,1.217,0,0,0-.861-.356H.59a.608.608,0,0,0-.43,1.039L6.026,123.2a1.217,1.217,0,0,0,.861.356h29.7a.608.608,0,0,0,.43-1.039Z" transform="translate(0 -105.419)" fill="url(#c)"/></g></svg>