<svg xmlns="http://www.w3.org/2000/svg" width="64" height="64" viewBox="0 0 64 64"><g transform="translate(-286 -1829)"><circle cx="32" cy="32" r="32" transform="translate(286 1829)" fill="#f5f5f5"/><g transform="translate(296 1842.011)"><g transform="translate(0 -0.011)"><path d="M38.512,4.954l-5.4,2.751L7.04,20.985A15.53,15.53,0,0,1,30.013,5.417L33.1,3.843l.461-.235A18.971,18.971,0,0,0,3.449,18.963q0,.725.055,1.444A3.451,3.451,0,0,1,1.63,23.742L0,24.573v3.876L4.8,26h0l1.554-.793,1.531-.78h0l27.486-14,3.089-1.573L44.841,5.6V1.725Z" transform="translate(0 0.011)"/><path d="M44.841,50,9.444,68.023,6.355,69.6,0,72.838V76.71l6.312-3.216,5.4-2.751,26.1-13.3a15.832,15.832,0,0,1,.133,2.041A15.532,15.532,0,0,1,14.815,73.024l-.19.1-3.35,1.707A18.971,18.971,0,0,0,41.392,59.486c0-.488-.019-.975-.055-1.457a3.453,3.453,0,0,1,1.872-3.335l1.632-.831Z" transform="translate(0 -40.512)"/></g></g></g></svg>