<svg xmlns="http://www.w3.org/2000/svg" width="64" height="64" viewBox="0 0 64 64"><g transform="translate(-286 -2111)"><circle cx="32" cy="32" r="32" transform="translate(286 2111)" fill="#2c7df7"/><g transform="translate(304 2123.937)"><path d="M18.086,38.127q-4.081,0-5.957-1.966a6.07,6.07,0,0,1-1.87-4.236,2.81,2.81,0,0,1,.328-1.4,2.422,2.422,0,0,1,.893-.894,3.117,3.117,0,0,1,2.782,0,2.383,2.383,0,0,1,.888.894,2.752,2.752,0,0,1,.339,1.4,2.674,2.674,0,0,1-.477,1.638,2.221,2.221,0,0,1-1.132.829,3.092,3.092,0,0,0,1.787,1.114,8.856,8.856,0,0,0,2.436.351,5.431,5.431,0,0,0,3.068-.917,5.361,5.361,0,0,0,2-2.711,11.775,11.775,0,0,0,.655-4.057,11.131,11.131,0,0,0-.715-4.218,5.207,5.207,0,0,0-2.067-2.621,5.5,5.5,0,0,0-2.978-.852,5.666,5.666,0,0,0-2.58.876l-1.913.959v-.959l8.6-11.532H10.259V21.792a4.282,4.282,0,0,0,.655,2.448,2.258,2.258,0,0,0,2,.959,3.347,3.347,0,0,0,1.978-.7,7.141,7.141,0,0,0,1.656-1.7.6.6,0,0,1,.215-.286.44.44,0,0,1,.287-.107.994.994,0,0,1,.56.238,1.192,1.192,0,0,1,.3.81,4.736,4.736,0,0,1-.107.6,5.768,5.768,0,0,1-2.043,2.537,5.069,5.069,0,0,1-2.866.871q-3.869,0-5.361-1.525a5.712,5.712,0,0,1-1.477-4.17V9.825H0V7.6H6.088V2.532L4.694,1.137V0H8.739l1.519.786V7.6L26,7.554l1.567,1.573-9.651,9.7a6.486,6.486,0,0,1,1.823-.441,7.9,7.9,0,0,1,3.527,1.007A7.245,7.245,0,0,1,26.3,22.1a9.568,9.568,0,0,1,1.37,3.271,13.777,13.777,0,0,1,.328,2.8,11.713,11.713,0,0,1-1.191,5.189,7.609,7.609,0,0,1-3.575,3.575,11.566,11.566,0,0,1-5.148,1.191Z" fill="#fff"/></g></g></svg>