<svg xmlns="http://www.w3.org/2000/svg" width="70" height="70" viewBox="0 0 70 70"><g transform="translate(0 -1356)"><ellipse cx="34.943" cy="34.943" rx="34.943" ry="34.943" transform="translate(0.114 1356.114)" fill="#ea5607"/><path d="M34.943,5.25A29.693,29.693,0,1,0,64.636,34.943,29.727,29.727,0,0,0,34.943,5.25m0-5.25A34.943,34.943,0,1,1,0,34.943,34.943,34.943,0,0,1,34.943,0Z" transform="translate(0.114 1356.114)" fill="#ffc1a5"/><text transform="translate(28.232 1400.257)" fill="#fff" font-size="27" font-family="Helvetica-Bold, Helvetica" font-weight="700"><tspan x="0" y="0">1</tspan></text><path d="M35,0c19.329,0-17.338,17.947-3.25,35S54.327,70,35,70A35,35,0,0,1,35,0Z" transform="translate(0 1356)" fill="#fff" opacity="0.1"/></g></svg>