<svg xmlns="http://www.w3.org/2000/svg" width="70" height="80.269" viewBox="0 0 70 80.269"><g transform="translate(0 -1201.66)"><g transform="translate(0 1201.66)"><circle cx="34.943" cy="34.943" r="34.943" transform="translate(0.114 0.114)" fill="#ea5607"/><path d="M34.943,5.25A29.693,29.693,0,1,0,64.636,34.943,29.727,29.727,0,0,0,34.943,5.25m0-5.25A34.943,34.943,0,1,1,0,34.943,34.943,34.943,0,0,1,34.943,0Z" transform="translate(0.114 0.114)" fill="#ffc1a5"/><text transform="translate(26.306 44.257)" fill="#fff" font-size="27" font-family="Helvetica-Bold, Helvetica" font-weight="700"><tspan x="0" y="0">2</tspan></text><path d="M35,0c19.329,0-17.338,17.947-3.25,35S54.327,70,35,70A35,35,0,1,1,35,0Z" transform="translate(0 0)" fill="#fff" opacity="0.1"/></g><g transform="translate(2.219 1273.179)"><rect width="65.45" height="8.75" transform="translate(0 0)" fill="#ffc1a5"/><rect width="13.3" height="8.75" transform="translate(0 0)" fill="#ffc1a5"/><rect width="9.45" height="8.75" transform="translate(13.3 0)" fill="#ea5607"/><rect width="27.65" height="8.75" transform="translate(22.75 0)" fill="#ec6e20"/><rect width="4.2" height="8.75" transform="translate(61.25 0)" fill="#ec6e20"/></g></g></svg>