<svg xmlns="http://www.w3.org/2000/svg" width="70" height="80.97" viewBox="0 0 70 80.97"><g transform="translate(0 -1201.66)"><g transform="translate(0 1201.66)"><circle cx="31.291" cy="31.291" r="31.291" transform="translate(0.102 0.102)" fill="#ea5607"/><path d="M31.291,4.7a26.59,26.59,0,1,0,26.59,26.59A26.62,26.62,0,0,0,31.291,4.7m0-4.7A31.291,31.291,0,1,1,0,31.291,31.291,31.291,0,0,1,31.291,0Z" transform="translate(0.102 0.102)" fill="#ffc1a5"/><text transform="translate(23.244 40.349)" fill="#fff" font-size="25" font-family="Helvetica-Bold, Helvetica" font-weight="700"><tspan x="0" y="0">3</tspan></text><path d="M31.341,0C48.65,0,15.814,16.071,28.43,31.341s20.22,31.341,2.911,31.341A31.341,31.341,0,0,1,31.341,0Z" transform="translate(0 0)" fill="#fff" opacity="0.1"/></g><g transform="translate(1.987 1265.705)"><rect width="58.61" height="7.836" transform="translate(0 0)" fill="#ffc1a5"/><rect width="11.91" height="7.836" transform="translate(0 0)" fill="#ffc1a5"/><rect width="8.462" height="7.836" transform="translate(11.91 0)" fill="#ea5607"/><rect width="24.76" height="7.836" transform="translate(20.373 0)" fill="#ec6e20"/><rect width="3.761" height="7.836" transform="translate(54.849 0)" fill="#ec6e20"/></g><g transform="translate(11.39 1273.541)"><rect width="58.61" height="7.836" transform="translate(0 1.254)" fill="#ffc1a5"/><rect width="11.91" height="7.836" transform="translate(0 1.254)" fill="#ffc1a5"/><rect width="8.462" height="7.836" transform="translate(11.91 1.254)" fill="#ea5607"/><rect width="24.76" height="7.836" transform="translate(20.373 1.254)" fill="#ec6e20"/><rect width="58.61" height="1.254" transform="translate(0 0)" fill="#d65008"/><rect width="3.761" height="7.836" transform="translate(54.849 1.254)" fill="#ec6e20"/></g></g></svg>