<svg xmlns="http://www.w3.org/2000/svg" width="64" height="58" viewBox="0 0 64 58"><path d="M56,0H8V50H56Z" fill="#ffd7c4"/><path d="M64,10H0V58H64Z" fill="#ffb593"/><path d="M56,10H8V50H56Z" fill="#ea5615"/><g transform="translate(20 18)"><path d="M0,0H24V24H0Z" fill="none"/><path d="M18.364,15.536,16.95,14.12l1.414-1.414a5,5,0,1,0-7.071-7.071L9.879,7.05,8.464,5.636,9.88,4.222a7,7,0,0,1,9.9,9.9l-1.415,1.414Zm-2.828,2.828-1.415,1.414a7,7,0,0,1-9.9-9.9L5.636,8.464,7.05,9.88,5.636,11.294a5,5,0,1,0,7.071,7.071l1.414-1.414,1.415,1.414ZM14.828,7.757l1.415,1.415-7.071,7.07L7.757,14.828l7.071-7.07Z" fill="#fff"/></g></svg>