<svg xmlns="http://www.w3.org/2000/svg" width="67.316" height="50.494" viewBox="0 0 67.316 50.494"><g transform="translate(-1057 -987.998)"><g transform="translate(1087.455 987.998)"><path d="M-10547-18779.508v-12.025a12.735,12.735,0,0,1,3.752-9.062,12.737,12.737,0,0,1,9.07-3.756h11.219a12.726,12.726,0,0,1,9.068,3.756,12.735,12.735,0,0,1,3.752,9.063v12.025Zm7.211-39.27a11.225,11.225,0,0,1,11.221-11.225,11.222,11.222,0,0,1,11.219,11.225,11.217,11.217,0,0,1-11.219,11.217A11.22,11.22,0,0,1-10539.787-18818.777Z" transform="translate(10546.998 18830.002)" fill="#ffb593"/></g><g transform="translate(1072.227 987.998)"><path d="M-10547-18779.508v-12.025a12.735,12.735,0,0,1,3.752-9.062,12.737,12.737,0,0,1,9.07-3.756h11.219a12.726,12.726,0,0,1,9.068,3.756,12.735,12.735,0,0,1,3.752,9.063v12.025Zm7.211-39.27a11.225,11.225,0,0,1,11.221-11.225,11.222,11.222,0,0,1,11.219,11.225,11.217,11.217,0,0,1-11.219,11.217A11.22,11.22,0,0,1-10539.787-18818.777Z" transform="translate(10546.998 18830.002)" fill="#ea5615"/></g><g transform="translate(1057 987.998)"><path d="M-10547-18779.508v-12.025a12.735,12.735,0,0,1,3.752-9.062,12.737,12.737,0,0,1,9.07-3.756h11.219a12.726,12.726,0,0,1,9.068,3.756,12.735,12.735,0,0,1,3.752,9.063v12.025Zm7.211-39.27a11.225,11.225,0,0,1,11.221-11.225,11.222,11.222,0,0,1,11.219,11.225,11.217,11.217,0,0,1-11.219,11.217A11.22,11.22,0,0,1-10539.787-18818.777Z" transform="translate(10546.998 18830.002)" fill="#ffd7c4"/></g></g></svg>