<svg xmlns="http://www.w3.org/2000/svg" xmlns:xlink="http://www.w3.org/1999/xlink" width="451" height="466.963" viewBox="0 0 451 466.963"><defs><linearGradient id="a" x1="1.025" y1="0.062" x2="-0.048" y2="1.041" gradientUnits="objectBoundingBox"><stop offset="0" stop-color="#ea5615"/><stop offset="1" stop-color="#de4a09"/></linearGradient><linearGradient id="b" x1="0.943" y1="-0.123" x2="-0.114" y2="1.131" gradientUnits="objectBoundingBox"><stop offset="0" stop-color="#fe9865"/><stop offset="1" stop-color="#ff6112"/></linearGradient><linearGradient id="c" x1="0.918" y1="0.097" x2="0" y2="0.909" gradientUnits="objectBoundingBox"><stop offset="0" stop-color="#f0f0f0"/><stop offset="1" stop-color="#eaeaea"/></linearGradient><linearGradient id="d" x1="0.772" y1="0.948" x2="0.098" gradientUnits="objectBoundingBox"><stop offset="0" stop-color="#fed7c4"/><stop offset="1" stop-color="#e8ad90"/></linearGradient><linearGradient id="e" x1="0.772" y1="0.052" x2="0.098" y2="1" xlink:href="#d"/><linearGradient id="f" x1="0.228" y1="0.052" x2="0.902" y2="1" xlink:href="#d"/><linearGradient id="q" x1="0.5" x2="0.5" y2="1" gradientUnits="objectBoundingBox"><stop offset="0" stop-color="#fff" stop-opacity="0"/><stop offset="0.507" stop-color="#fff" stop-opacity="0.235"/><stop offset="1" stop-color="#fff"/></linearGradient></defs><g transform="translate(-1160 -221.037)"><ellipse cx="225.5" cy="41.5" rx="225.5" ry="41.5" transform="translate(1160 605)" fill="#fff" opacity="0.093"/><g transform="translate(-13458.932 -19456.393)"><g transform="translate(14627.469 19677.43)"><g transform="translate(113.657 227.763)"><path d="M166.781,205.947V359.689l130.661,18.386.391-154.133Z" transform="translate(-166.781 -171.912)" fill="url(#a)"/><path d="M247.368,167.459l131.052,18-80.587,34.034-131.052-18Z" transform="translate(-166.781 -167.459)" fill="#fed7c4"/><path d="M314.541,375.976,396.3,342.333l-.782-154.524-80.587,34.034Z" transform="translate(-183.88 -169.814)" fill="url(#b)"/><path d="M241.733,167.459l122.71,16.517-75.787,31.379-121.7-16.962Z" transform="translate(-159.376 -163.326)" fill="#ffe5d8"/><path d="M260.06,280.522a11.151,11.151,0,0,0,4.988-9.447c.257-7.322-3.718-12.3-10.644-13.706l.067-2.764h-6.783l-.042,2.34-5.844-.038.028-2.3H235.5l-.014,2.261-5.011-.032,7.482,11.893-4.6-.185-.093,23.3,4.5.483-7.334,10.044,4.786.664-.012,2.054,6.008.87.026-2.087,5.565.772-.038,2.118,6.419.928.053-2.176c8.007.752,14.664-3.364,15.008-12.142.27-6.9-3.333-10.732-8.179-12.841m-17.907-14.384,6.767.219c3.921.127,6.211,2.245,6.125,5.63-.084,3.3-2.514,5.288-6.086,5.066l-6.937-.429Zm9.2,30.32-9.571-1.1.138-10.991,9.437.79c4.406.369,6.94,2.639,6.831,6.39-.108,3.722-2.785,5.374-6.835,4.909Z" transform="translate(-183.815 -161.047)" fill="url(#c)"/><path d="M314.541,358.751l74.276-30.564-.711-140.379L314.9,218.728Z" transform="translate(-180.138 -159.727)" fill="none" stroke="#fed7c4" stroke-width="1"/><path d="M166.781,205.947V345.61l118.7,16.7.355-140.018Z" transform="translate(-161.347 -163.289)" fill="none" stroke="#fed7c4" stroke-width="1"/></g><g transform="matrix(-0.017, 1, -1, -0.017, 164.662, 228.707)"><g transform="translate(0 0)"><g style="isolation:isolate"><path d="M10.221,21.649A10.832,10.832,0,1,0,.017,10.222,10.8,10.8,0,0,0,10.221,21.649Z" transform="translate(0 0.268)" fill="url(#d)"/><path d="M5.3,21.61l1.066-.268A10.838,10.838,0,0,0,1.066.324L0,.593A10.838,10.838,0,0,1,5.3,21.61Z" transform="translate(8.167 0)" fill="#e8ad90"/></g></g></g><g transform="translate(142.149 176.863)"><g style="isolation:isolate"><path d="M158.74,163.583a10.832,10.832,0,1,1-10.2,11.426A10.8,10.8,0,0,1,158.74,163.583Z" transform="translate(-148.519 -163.565)" fill="url(#e)"/><path d="M165.449,164.027l1.066.268a10.838,10.838,0,0,1-5.3,21.017l-1.066-.268a10.838,10.838,0,0,0,5.3-21.017Z" transform="translate(-151.981 -163.703)" fill="#e8ad90"/></g></g><g transform="matrix(-0.259, -0.966, 0.966, -0.259, 212.212, 264.63)"><g transform="translate(0 0)"><g style="isolation:isolate"><path d="M159.93,163.583a10.832,10.832,0,1,0,10.2,11.426A10.8,10.8,0,0,0,159.93,163.583Z" transform="translate(-147.453 -163.565)" fill="url(#f)"/><path d="M169.377,164.027l-1.066.268a10.837,10.837,0,0,0,5.3,21.016l1.066-.268a10.837,10.837,0,0,1-5.3-21.017Z" transform="translate(-160.148 -163.703)" fill="#e8ad90"/></g></g></g><g transform="matrix(0.985, 0.174, -0.174, 0.985, 205.596, 159.987)"><g transform="translate(0 0)"><g style="isolation:isolate"><path d="M159.93,163.583a10.832,10.832,0,1,0,10.2,11.426A10.8,10.8,0,0,0,159.93,163.583Z" transform="translate(-147.453 -163.565)" fill="url(#f)"/><path d="M169.377,164.027l-1.066.268a10.837,10.837,0,0,0,5.3,21.016l1.066-.268a10.837,10.837,0,0,1-5.3-21.017Z" transform="translate(-160.148 -163.703)" fill="#e8ad90"/></g></g></g><g transform="translate(251.919 102.995) rotate(17)"><g style="isolation:isolate"><path d="M158.74,163.583a10.832,10.832,0,1,1-10.2,11.426A10.8,10.8,0,0,1,158.74,163.583Z" transform="translate(-148.519 -163.565)" fill="url(#e)"/><path d="M165.449,164.027l1.066.268a10.838,10.838,0,0,1-5.3,21.017l-1.066-.268a10.838,10.838,0,0,0,5.3-21.017Z" transform="translate(-151.981 -163.703)" fill="#e8ad90"/></g></g><g transform="matrix(-0.616, 0.788, -0.788, -0.616, 337.36, 192.501)"><g transform="translate(0 0)"><g style="isolation:isolate"><path d="M10.221,21.648A10.832,10.832,0,1,0,.017,10.222,10.8,10.8,0,0,0,10.221,21.648Z" transform="translate(0 0.268)" fill="url(#d)"/><path d="M5.3,21.61l1.066-.268A10.838,10.838,0,0,0,1.066.325L0,.593A10.838,10.838,0,0,1,5.3,21.61Z" transform="translate(8.167 0)" fill="#e8ad90"/></g></g></g><g transform="translate(324.382 124.858)"><g style="isolation:isolate"><path d="M158.74,163.583a10.832,10.832,0,1,1-10.2,11.426A10.8,10.8,0,0,1,158.74,163.583Z" transform="translate(-148.519 -163.565)" fill="url(#e)"/><path d="M165.449,164.027l1.066.268a10.838,10.838,0,0,1-5.3,21.017l-1.066-.268a10.838,10.838,0,0,0,5.3-21.017Z" transform="translate(-151.981 -163.703)" fill="#e8ad90"/></g></g><g transform="matrix(0.616, -0.788, 0.788, 0.616, 153.634, 97.059)"><g transform="translate(0)"><g style="isolation:isolate"><path d="M158.74,163.583a10.832,10.832,0,1,1-10.2,11.426A10.8,10.8,0,0,1,158.74,163.583Z" transform="translate(-148.519 -163.565)" fill="url(#e)"/><path d="M165.449,164.027l1.066.268a10.838,10.838,0,0,1-5.3,21.017l-1.066-.268a10.838,10.838,0,0,0,5.3-21.017Z" transform="translate(-151.981 -163.703)" fill="#e8ad90"/></g></g></g><g transform="translate(236.863 40.393) rotate(56)"><g transform="translate(0 -0.001)"><g style="isolation:isolate"><path d="M159.93,163.583a10.832,10.832,0,1,0,10.2,11.426A10.8,10.8,0,0,0,159.93,163.583Z" transform="translate(-147.453 -163.565)" fill="url(#f)"/><path d="M169.377,164.027l-1.066.268a10.837,10.837,0,0,0,5.3,21.016l1.066-.268a10.837,10.837,0,0,1-5.3-21.017Z" transform="translate(-160.148 -163.703)" fill="#e8ad90"/></g></g></g><g transform="translate(90.48 47.442) rotate(69)"><g style="isolation:isolate"><path d="M158.74,163.583a10.832,10.832,0,1,1-10.2,11.426A10.8,10.8,0,0,1,158.74,163.583Z" transform="translate(-148.519 -163.565)" fill="url(#e)"/><path d="M165.449,164.027l1.066.268a10.838,10.838,0,0,1-5.3,21.017l-1.066-.268a10.838,10.838,0,0,0,5.3-21.017Z" transform="translate(-151.981 -163.703)" fill="#e8ad90"/></g></g><g transform="translate(387.968 64.714) rotate(146)"><g transform="translate(0 0)"><g style="isolation:isolate"><path d="M10.221,21.649A10.832,10.832,0,1,0,.017,10.223,10.8,10.8,0,0,0,10.221,21.649Z" transform="translate(0 0.268)" fill="url(#d)"/><path d="M5.3,21.61l1.066-.268A10.838,10.838,0,0,0,1.066.325L0,.593A10.838,10.838,0,0,1,5.3,21.61Z" transform="translate(8.167)" fill="#e8ad90"/></g></g></g><g transform="translate(95.657 146.792)"><g style="isolation:isolate"><path d="M158.74,163.583a10.832,10.832,0,1,1-10.2,11.426A10.8,10.8,0,0,1,158.74,163.583Z" transform="translate(-148.519 -163.565)" fill="url(#e)"/><path d="M165.449,164.027l1.066.268a10.838,10.838,0,0,1-5.3,21.017l-1.066-.268a10.838,10.838,0,0,0,5.3-21.017Z" transform="translate(-151.981 -163.703)" fill="#e8ad90"/></g></g><g transform="translate(265.985 242.421) rotate(-103)"><g style="isolation:isolate"><path d="M10.221,21.648A10.832,10.832,0,1,0,.017,10.222,10.8,10.8,0,0,0,10.221,21.648Z" transform="translate(0 0.268)" fill="url(#d)"/><path d="M5.3,21.61l1.066-.268A10.838,10.838,0,0,0,1.066.324L0,.593A10.838,10.838,0,0,1,5.3,21.61Z" transform="translate(8.167)" fill="#e8ad90"/></g></g><path d="M356.941,158.3,471.713-90.111H38.25L159.52,172.726l122.895,16.932Z" transform="translate(-38.25 90.111)" fill="url(#q)"/></g></g></g></svg>