<svg xmlns="http://www.w3.org/2000/svg" width="69.075" height="73.68" viewBox="0 0 69.075 73.68"><path d="M20.043,18.42a4.605,4.605,0,0,0,4.605-4.605V4.605a4.605,4.605,0,1,0-9.21,0v9.21a4.605,4.605,0,0,0,4.6,4.605m23.029,0a4.605,4.605,0,0,0,4.605-4.605V4.605a4.605,4.605,0,0,0-9.21,0v9.21a4.605,4.605,0,0,0,4.605,4.605" transform="translate(14.496 0)" fill="#feb593" fill-rule="evenodd"/><path d="M0,69.22H69.075V4.75H0Z" transform="translate(0 4.46)" fill="#feb593" fill-rule="evenodd"/><path d="M0,18.565H69.075V4.75H0Z" transform="translate(0 4.46)" fill="#fed7c4" fill-rule="evenodd"/><path d="M8.168,18.42a4.605,4.605,0,0,0,4.605-4.605V4.605a4.605,4.605,0,1,0-9.21,0v9.21a4.605,4.605,0,0,0,4.6,4.605" transform="translate(3.345 0)" fill="#feb593" fill-rule="evenodd"/><path d="M49.613,4.75V9.355a4.605,4.605,0,0,0,9.21,0V4.75ZM8.168,13.96a4.605,4.605,0,0,0,4.605-4.605V4.75H3.563V9.355a4.605,4.605,0,0,0,4.6,4.605" transform="translate(3.345 4.46)" fill="#ea5615" fill-rule="evenodd"/><path d="M20.043,18.42a4.605,4.605,0,0,0,4.605-4.605V4.605a4.605,4.605,0,1,0-9.21,0v9.21a4.605,4.605,0,0,0,4.6,4.605" transform="translate(14.496 0)" fill="#feb593" fill-rule="evenodd"/><path d="M20.043,13.96a4.605,4.605,0,0,0,4.605-4.605V4.75h-9.21V9.355a4.605,4.605,0,0,0,4.6,4.605" transform="translate(14.496 4.46)" fill="#ea5615" fill-rule="evenodd"/><path d="M4.75,55.624H55.405V11.875H4.75Z" transform="translate(4.46 11.15)" fill="#ea5615" fill-rule="evenodd"/><text transform="translate(26.038 53.124)" fill="#fff" font-size="25" font-family="Helvetica-Bold, Helvetica" font-weight="700"><tspan x="0" y="0">4</tspan></text></svg>