<svg xmlns="http://www.w3.org/2000/svg" width="105.113" height="109.113" viewBox="0 0 105.113 109.113"><g transform="translate(-1754 -1792.887)"><g transform="translate(8 26)"><circle cx="12" cy="12" r="12" transform="translate(1755 1796)" fill="#fed7c4"/><circle cx="11.5" cy="11.5" r="11.5" transform="translate(1755 1796)" fill="#feb593"/></g><g transform="translate(42 26)"><circle cx="12" cy="12" r="12" transform="translate(1755 1796)" fill="#fed7c4"/><circle cx="11.5" cy="11.5" r="11.5" transform="translate(1755 1796)" fill="#feb593"/></g><g transform="translate(24 19.754)"><circle cx="13" cy="13" r="13" transform="translate(1755 1796.246)" fill="#fed7c4"/><circle cx="12.5" cy="12.5" r="12.5" transform="translate(1755 1796.246)" fill="#ff9865"/></g><rect width="76" height="65" transform="translate(1754 1837)" fill="#ea5615"/><rect width="14" height="65" transform="translate(1785 1837)" fill="#fed7c4"/><rect width="14" height="76" transform="translate(1754 1875.5) rotate(-90)" fill="#fed7c4"/><g transform="translate(-1 2)"><rect width="76" height="12" transform="translate(1806.373 1790.887) rotate(45)" fill="#ea5615"/><rect width="76" height="5" transform="translate(1801.423 1795.838) rotate(45)" fill="#fed7c4"/></g></g></svg>