<svg width="1305" height="207" viewBox="0 0 1305 207" fill="none" xmlns="http://www.w3.org/2000/svg">
<path d="M645.239 107.24C646.097 106.566 647.149 106.187 648.239 106.16H676.069C676.515 106.135 676.962 106.201 677.383 106.352C677.804 106.503 678.19 106.737 678.519 107.04C678.808 107.337 679.034 107.689 679.184 108.076C679.333 108.463 679.403 108.875 679.389 109.29C679.404 109.625 679.374 109.962 679.299 110.29L667.049 168.56C666.456 171.293 664.829 172.66 662.169 172.66H634.359C632.019 172.66 630.849 171.71 630.849 169.83C630.879 169.402 630.943 168.977 631.039 168.56L643.289 110.29C643.576 109.083 644.285 108.018 645.289 107.29M656.289 57.5296C657.995 56.0286 660.219 55.2503 662.489 55.3596H683.969C687.809 55.3596 689.739 57.0496 689.739 60.4396C689.681 61.3591 689.547 62.2721 689.339 63.1696L684.759 84.8496C684.229 87.4596 683.309 89.2496 681.969 90.2296C680.266 91.3036 678.268 91.8144 676.259 91.6896H654.809C653.154 91.7991 651.501 91.4532 650.029 90.6896C649.457 90.3006 649.002 89.7645 648.709 89.1379C648.417 88.5113 648.3 87.8175 648.369 87.1296C648.349 86.408 648.413 85.6866 648.559 84.9796L653.149 63.1996C653.601 61.0352 654.671 59.0482 656.229 57.4796L656.289 57.5296ZM600.249 133.99C600.682 133.947 601.117 134.039 601.495 134.254C601.873 134.469 602.175 134.796 602.359 135.19L611.999 153.92C612.341 154.604 612.528 155.355 612.549 156.12C612.549 157.22 611.759 158.36 610.159 159.52C604.742 163.503 598.755 166.645 592.399 168.84C586.068 171.216 579.371 172.475 572.609 172.56C563.953 172.69 555.411 170.571 547.819 166.41C540.585 162.428 534.618 156.492 530.599 149.28C526.395 141.685 524.257 133.119 524.399 124.44C524.427 120.685 524.761 116.939 525.399 113.24C527.153 102.826 531.443 93.0041 537.889 84.6396C544.31 76.1516 552.543 69.2028 561.989 64.2996C571.196 59.4183 581.458 56.864 591.879 56.8596C598.859 56.7055 605.8 57.9253 612.309 60.4496C618.081 62.8197 623.362 66.2449 627.879 70.5496C628.192 70.8115 628.451 71.1328 628.64 71.4949C628.828 71.857 628.944 72.2528 628.979 72.6596C628.917 73.3906 628.59 74.0736 628.059 74.5796L612.269 93.1296C611.953 93.4743 611.571 93.7506 611.144 93.9415C610.717 94.1324 610.256 94.2338 609.789 94.2396C609.078 94.2294 608.394 93.9671 607.859 93.4996C605.08 91.1679 601.93 89.3189 598.539 88.0296C595.32 86.9335 591.939 86.3924 588.539 86.4296C583.884 86.4775 579.317 87.7095 575.269 90.0096C570.786 92.4843 566.887 95.8949 563.839 100.01C560.59 104.298 558.332 109.254 557.229 114.52C556.764 116.825 556.516 119.169 556.489 121.52C556.412 125.358 557.281 129.156 559.019 132.58C560.614 135.699 563.086 138.284 566.129 140.02C569.391 141.811 573.068 142.711 576.789 142.63C580.361 142.625 583.893 141.876 587.159 140.43C590.806 138.814 594.335 136.942 597.719 134.83C598.44 134.303 599.306 134.013 600.199 134M522.379 57.9596C522.081 57.674 521.728 57.4528 521.341 57.31C520.953 57.1672 520.541 57.1058 520.129 57.1296H504.409L509.319 34.9396C509.464 34.3341 509.528 33.712 509.509 33.0896C509.564 32.5587 509.501 32.0222 509.325 31.5183C509.149 31.0144 508.864 30.5554 508.491 30.1737C508.118 29.792 507.665 29.4971 507.166 29.3097C506.666 29.1224 506.131 29.0472 505.599 29.0896C504.77 29.0881 503.946 29.2198 503.159 29.4796L476.989 37.5896C475.508 37.9622 474.137 38.682 472.989 39.6896C472.121 40.6791 471.519 41.8732 471.239 43.1596L468.079 57.1596H454.989C453.904 57.1148 452.839 57.4667 451.995 58.1494C451.15 58.8322 450.583 59.7991 450.399 60.8696L448.489 69.9696L445.179 85.8496C445.083 86.2674 445.019 86.692 444.989 87.1196C444.989 89.0063 446.159 89.9496 448.499 89.9496H461.019L444.379 168.53C444.282 168.951 444.215 169.379 444.179 169.81C444.179 171.69 445.349 172.64 447.699 172.64H475.699C478.432 172.64 480.099 171.27 480.699 168.53L497.349 89.9496H513.069C515.542 89.9496 517.072 88.6796 517.659 86.1396L523.029 60.8396C523.105 60.5561 523.138 60.2629 523.129 59.9696C523.142 59.2264 522.862 58.508 522.349 57.9696M386.009 107.24C386.864 106.562 387.918 106.183 389.009 106.16H416.839C417.284 106.134 417.73 106.199 418.149 106.351C418.568 106.502 418.953 106.736 419.279 107.04C419.574 107.333 419.804 107.685 419.956 108.072C420.107 108.459 420.176 108.874 420.159 109.29C420.174 109.625 420.144 109.962 420.069 110.29L407.819 168.56C407.226 171.293 405.596 172.66 402.929 172.66H375.129C372.779 172.66 371.609 171.71 371.609 169.83C371.644 169.402 371.711 168.977 371.809 168.56L384.059 110.29C384.329 109.088 385.021 108.024 386.009 107.29M397.009 57.5296C398.748 56.0305 401.008 55.2762 403.299 55.4296H424.789C428.629 55.4296 430.549 57.1229 430.549 60.5096C430.496 61.4289 430.365 62.3422 430.159 63.2396L425.569 84.9196C425.049 87.5329 424.122 89.3263 422.789 90.2996C421.086 91.3723 419.088 91.883 417.079 91.7596H395.579C393.924 91.8691 392.271 91.5232 390.799 90.7596C390.226 90.3718 389.768 89.8363 389.474 89.2096C389.18 88.5829 389.061 87.8884 389.129 87.1996C389.112 86.4776 389.179 85.756 389.329 85.0496L393.919 63.2696C394.358 61.0802 395.429 59.0673 396.999 57.4796L397.009 57.5296ZM272.119 33.3596H329.919C336.528 33.2442 343.061 34.7879 348.919 37.8496C354.257 40.6444 358.718 44.8596 361.812 50.03C364.905 55.2003 366.51 61.1248 366.449 67.1496C366.441 69.3756 366.243 71.5966 365.859 73.7896C365.063 78.3227 363.457 82.6754 361.119 86.6396C358.728 90.7226 355.784 94.4547 352.369 97.7296C354.782 100.27 356.782 103.916 358.369 108.67C359.928 113.41 360.711 118.37 360.689 123.36C360.706 125.784 360.475 128.203 359.999 130.58C358.36 138.451 355.048 145.879 350.289 152.36C345.785 158.578 339.941 163.704 333.189 167.36C326.748 170.877 319.528 172.723 312.189 172.73H242.509C240.169 172.73 238.999 171.78 238.999 169.9C239.03 169.469 239.093 169.041 239.189 168.62L267.029 37.6196C267.609 34.8196 269.309 33.4196 272.109 33.4196M280.509 144.85H306.579C309.248 144.817 311.861 144.075 314.149 142.7C316.696 141.242 318.921 139.282 320.689 136.94C322.479 134.68 323.734 132.044 324.359 129.23C324.551 128.241 324.648 127.237 324.649 126.23C324.702 122.987 323.592 119.833 321.519 117.34C320.527 116.103 319.261 115.114 317.82 114.453C316.379 113.791 314.804 113.475 313.219 113.53H287.119L280.509 144.85ZM292.509 88.3096H313.409C317.464 88.3703 321.415 87.0239 324.589 84.4996C327.738 82.0716 329.933 78.6131 330.789 74.7296C330.984 73.7988 331.085 72.8506 331.089 71.8996C331.134 70.4612 330.874 69.0296 330.326 67.699C329.778 66.3683 328.954 65.1689 327.909 64.1796C325.599 62.1039 322.561 61.0255 319.459 61.1796H298.279L292.509 88.3096Z" fill="white"/>
<path d="M0 0H206V206H0V0Z" fill="#EA5F00"/>
<path d="M136.22 98.4104C142.29 94.4104 148.53 86.2704 148.53 73.8004C148.53 55.6704 137.81 43.5904 119.28 40.2504V33.3604H100.61V39.3604H83.9099V33.3604H65.2399V39.3604H49.9399L72.9399 70.7104H58.9399V135.36H72.9399L49.9399 166.72H65.2399V172.66H83.9099V166.72H100.61V172.66H119.28V166.66C141.59 165.66 158.93 152.48 158.93 129.66C158.93 111.98 149.22 102.97 136.22 98.4704M85.2699 63.4704H104.68C115.6 63.4704 122.01 68.6604 122.01 77.3304C122.01 85.8204 115.43 91.3304 105.37 91.3304H85.2699V63.4704ZM113.35 142.67H85.2699V112.27H112.65C124.96 112.27 132.06 117.64 132.06 127.52C132.06 137.4 124.78 142.6 113.35 142.6V142.67Z" fill="white"/>
<path d="M773 171.16C762.8 171.16 753.98 169.12 746.54 165.04C739.22 160.84 733.58 154.96 729.62 147.4C725.66 139.84 723.68 130.96 723.68 120.76C723.68 109.6 725.06 99.22 727.82 89.62C730.58 79.9 734.72 71.44 740.24 64.24C745.76 56.92 752.6 51.28 760.76 47.32C769.04 43.24 778.64 41.2 789.56 41.2C799.52 41.2 808.04 43.12 815.12 46.96C822.2 50.8 827.6 56.08 831.32 62.8C835.04 69.4 836.78 77.02 836.54 85.66H804.14C804.02 80.38 802.64 75.7 800 71.62C797.36 67.54 793.1 65.5 787.22 65.5C781.34 65.5 776.3 67.18 772.1 70.54C768.02 73.78 764.66 78.1 762.02 83.5C759.5 88.9 757.64 94.72 756.44 100.96C755.24 107.08 754.64 113.02 754.64 118.78C754.64 124.42 755.42 129.34 756.98 133.54C758.54 137.74 760.82 141.04 763.82 143.44C766.82 145.72 770.42 146.86 774.62 146.86C779.06 146.86 782.96 146.26 786.32 145.06C789.8 143.86 793.22 141.94 796.58 139.3L799.64 125.08L782.72 125.98L788.84 101.32H833.84L823.94 147.58C819.38 152.5 814.58 156.76 809.54 160.36C804.62 163.84 799.22 166.54 793.34 168.46C787.46 170.26 780.68 171.16 773 171.16ZM853.89 144.88L859.11 120.58H933.09L927.87 144.88H853.89ZM888.27 43.36H932.73L937.95 169H908.61L907.35 97.72L906.99 64.24L892.05 97.72L860.19 169H829.95L888.27 43.36ZM945.401 169L980.501 43.36H1015.42L1012.18 99.7L1009.48 125.26L1018.3 99.7L1039 43.36H1075L1057 169H1028.2L1039.54 110.14L1047.28 74.32L1034.5 110.14L1012.36 169H989.501L992.021 110.14L994.901 73.78L986.981 110.14L973.121 169H945.401ZM1072.73 169L1099.37 43.36H1192.43L1187.39 67.66H1124.03L1118.81 91.96H1159.67L1154.45 116.26H1113.59L1107.65 144.7H1171.73L1166.51 169H1072.73ZM1242.9 171.16C1232.34 171.16 1223.34 169.18 1215.9 165.22C1208.46 161.26 1202.94 155.68 1199.34 148.48C1195.74 141.28 1194.3 132.94 1195.02 123.46H1224C1223.88 130.66 1225.44 136.36 1228.68 140.56C1232.04 144.76 1237.44 146.86 1244.88 146.86C1248.12 146.86 1250.94 146.26 1253.34 145.06C1255.74 143.86 1257.6 142.24 1258.92 140.2C1260.36 138.04 1261.08 135.64 1261.08 133C1261.08 130.24 1260.06 127.9 1258.02 125.98C1256.1 124.06 1253.46 122.38 1250.1 120.94C1246.86 119.38 1243.26 117.88 1239.3 116.44C1235.46 115 1231.56 113.38 1227.6 111.58C1223.76 109.66 1220.16 107.38 1216.8 104.74C1213.56 101.98 1210.92 98.68 1208.88 94.84C1206.96 91 1206 86.32 1206 80.8C1206 72.76 1207.92 65.8 1211.76 59.92C1215.72 54.04 1221.36 49.48 1228.68 46.24C1236.12 42.88 1245.12 41.2 1255.68 41.2C1264.68 41.2 1272.66 42.94 1279.62 46.42C1286.58 49.78 1291.98 54.64 1295.82 61C1299.78 67.36 1301.64 74.92 1301.4 83.68H1271.88C1271.64 78.16 1269.84 73.78 1266.48 70.54C1263.12 67.18 1258.8 65.5 1253.52 65.5C1250.52 65.5 1247.82 66.04 1245.42 67.12C1243.02 68.2 1241.1 69.7 1239.66 71.62C1238.34 73.42 1237.68 75.64 1237.68 78.28C1237.68 81.04 1238.64 83.32 1240.56 85.12C1242.6 86.92 1245.24 88.54 1248.48 89.98C1251.72 91.3 1255.32 92.68 1259.28 94.12C1263.24 95.44 1267.14 97.06 1270.98 98.98C1274.94 100.78 1278.54 103 1281.78 105.64C1285.02 108.28 1287.6 111.64 1289.52 115.72C1291.56 119.68 1292.58 124.54 1292.58 130.3C1292.58 138.94 1290.36 146.32 1285.92 152.44C1281.6 158.56 1275.72 163.24 1268.28 166.48C1260.84 169.6 1252.38 171.16 1242.9 171.16Z" fill="#EA5F00"/>
</svg>
