<svg width="64" height="64" viewBox="0 0 64 64" fill="none" xmlns="http://www.w3.org/2000/svg">
<g clip-path="url(#clip0_40_23470)">
<path d="M32 64C49.6731 64 64 49.6731 64 32C64 14.3269 49.6731 0 32 0C14.3269 0 0 14.3269 0 32C0 49.6731 14.3269 64 32 64Z" fill="#F5F5F5"/>
<path d="M19.018 34.377L20.33 24.521L8.95496 16.628L19.348 20.148L21.802 16.382L30.765 10.821L50.52 21.705L51.544 38.311L42.744 50.541L35.787 51.607L39.387 45.022V38.682L36.771 33.731L34.113 31.971L30.025 36.186V40.646L26.834 43.633L22.781 44.124L20.981 45.141L18.036 44.201L16.809 39.783L19.018 36.676V34.377Z" fill="#F5F5F5"/>
<path d="M37.18 16.544C35.6843 16.2677 34.1628 16.157 32.643 16.214C32.643 16.214 31.865 19.814 27.043 20.758C28.9594 21.3326 31.0156 21.227 32.863 20.459C34.7105 19.691 36.2356 18.3079 37.18 16.544Z" fill="#94A6C3"/>
<path d="M39.145 49.1881C41.7778 47.1483 43.6975 44.3276 44.629 41.1301C44.671 41.0111 45.036 40.8001 45.281 40.6391C45.688 40.3941 46.102 40.1901 46.181 39.8611C46.3442 38.903 46.4261 37.9329 46.426 36.9611C46.426 36.5961 46.054 36.2251 45.69 35.8611C45.402 35.6161 45.115 35.3281 45.115 35.1251C44.7183 31.4 42.99 27.9435 40.248 25.3911L39.96 25.6791C42.6262 28.1723 44.3107 31.5384 44.708 35.1671C44.8374 35.5557 45.0789 35.8974 45.402 36.1491C45.69 36.3941 46.019 36.7661 46.019 36.9271C46.0175 37.872 45.9356 38.8151 45.774 39.7461C45.732 39.9071 45.367 40.0761 45.08 40.2371C44.673 40.4371 44.302 40.6441 44.224 40.9731C43.2302 44.4496 41.0235 47.4549 38.004 49.4441C38.537 48.3011 40.213 44.5771 41.111 42.6911L40.95 36.6391L35.75 31.6111L32.805 32.0181L29.572 37.2571C29.572 37.2571 31.087 39.1791 28.955 41.4301C27.9485 42.616 26.6711 43.5421 25.231 44.1301L23.716 43.3101C24.337 42.5813 25.0225 41.9099 25.764 41.3041C26.949 40.3221 28.134 40.2381 28.134 39.1791C28.183 36.9631 25.806 37.5731 25.806 37.5731L24.943 38.3931L24.578 41.4231L22.778 43.6741L22.578 43.6321L19.635 42.9781C19.635 42.9781 21.435 42.0381 21.725 40.9721C22.013 39.9481 21.15 36.5541 21.108 36.3511C21.6704 36.8626 22.0928 37.5094 22.335 38.2301C22.7495 36.9276 23.3417 35.6886 24.095 34.5481C24.34 34.3871 27.65 32.6261 27.65 32.6261L26.55 35.5261L27.37 35.0771L29.334 30.2521C30.3849 29.7376 31.5208 29.4191 32.686 29.3121C35.26 29.2701 39.068 26.1211 37.35 20.4761C37.841 20.6761 46.35 24.9361 47.82 33.2811C48.92 39.7001 45.281 45.7101 39.145 49.1881Z" fill="#94A6C3"/>
<path d="M29.411 17.4422C29.6905 17.0494 29.8859 16.6031 29.9848 16.1312C30.0838 15.6594 30.0842 15.1722 29.986 14.7002L27.244 18.7532C27.6759 18.6952 28.0912 18.5489 28.4641 18.3234C28.8369 18.0978 29.1592 17.7978 29.411 17.4422Z" fill="#1B314F"/>
<path d="M20.203 39.5742L20.533 37.9402C20.533 37.9402 19.18 40.3102 19.06 40.6402C18.934 41.0122 19.144 41.6642 19.67 41.6222C19.9838 41.5358 20.2644 41.3572 20.4757 41.1096C20.6869 40.862 20.8191 40.5567 20.855 40.2332C20.867 40.1444 20.8585 40.0541 20.8301 39.9692C20.8017 39.8842 20.7541 39.807 20.6911 39.7433C20.6281 39.6796 20.5514 39.6312 20.4667 39.6019C20.3821 39.5726 20.2919 39.5631 20.203 39.5742Z" fill="#1B314F"/>
<path d="M44.502 13.5561C44.502 13.5561 46.55 13.6401 48.675 13.8861C45.026 10.8184 40.4325 9.09983 35.666 9.01911C32.619 8.9963 29.6174 9.75696 26.949 11.2281L28.548 8.68511C26.6259 8.57871 24.7247 9.12844 23.156 10.2442C21.5873 11.3599 20.4442 12.9755 19.914 14.8261C19.4832 13.6738 19.116 12.4987 18.814 11.3061C17.8167 12.2954 17.1216 13.5481 16.81 14.9179C16.4983 16.2876 16.5829 17.7177 17.054 19.0411C13.246 17.6521 7.81399 15.7231 7.60099 15.6851C7.31299 15.6431 7.22899 15.7691 7.22899 15.7691C7.22899 15.7691 7.14499 15.8881 7.38999 16.0991C7.84599 16.4571 16.436 22.7991 18.323 24.0301C17.916 25.5031 17.916 26.1971 18.323 26.8911C18.5475 27.1927 18.7102 27.5357 18.8017 27.9004C18.8931 28.2651 18.9116 28.6443 18.856 29.0161C18.772 29.7101 18.036 35.7271 17.874 36.4641C17.712 37.2011 15.995 39.8161 16.074 40.5951C16.153 41.3741 17.214 44.6851 18.162 45.0581C19.3051 45.4812 20.5016 45.743 21.717 45.8361C22.0492 45.8649 22.3811 45.7783 22.657 45.5911C23.351 44.9811 23.557 44.8551 24.046 44.8551H24.165C24.365 44.8551 24.614 44.8971 24.901 44.8971C25.6709 44.9371 26.4282 44.6898 27.026 44.2031C27.926 43.3031 29.48 42.0781 29.971 41.5031C30.2908 41.0979 30.5248 40.6318 30.6586 40.1332C30.7923 39.6346 30.8231 39.114 30.749 38.6031C30.7314 37.6051 31.098 36.6384 31.773 35.9031C32.551 34.8791 33.982 33.0421 33.982 33.0421C35.3927 34.0702 36.5427 35.4149 37.3395 36.968C38.1363 38.5212 38.5577 40.2395 38.57 41.9851C38.57 48.3671 33.009 53.5211 26.136 53.5211C25.0895 53.5234 24.0465 53.4009 23.029 53.1561C25.5883 54.0949 28.2882 54.5933 31.014 54.6301C33.4826 54.7399 35.9329 54.1595 38.09 52.9541C37.4043 53.8031 36.6516 54.5956 35.839 55.3241H35.881C38.1851 54.9563 40.3871 54.1115 42.3459 52.8436C44.3046 51.5757 45.977 49.9127 47.256 47.9611C47.256 47.9611 46.968 50.0091 46.604 51.3971C56.78 43.7461 55.061 34.1741 55.019 33.8511C55.103 33.9701 56.127 35.1971 56.653 35.8571C58.289 18.9981 44.502 13.5561 44.502 13.5561ZM28.836 40.4791C28.675 40.6791 27.98 41.2991 27.49 41.7481C27 42.1971 26.466 42.6481 26.059 43.0591C25.7725 43.2578 25.4232 43.3449 25.077 43.3041H23.85C24.7538 42.1699 25.7688 41.129 26.88 40.1971C27.616 39.7061 27.988 39.2151 27.532 38.3601C27.076 37.5051 25.898 37.7081 25.898 37.7081C26.316 37.5401 26.759 37.4427 27.209 37.4201C26.8312 37.3189 26.435 37.3067 26.0516 37.3847C25.6683 37.4626 25.3083 37.6284 25 37.8691C24.509 38.3181 24.593 39.9171 24.39 40.9341C24.19 42.0001 23.49 42.5341 22.426 43.5151C22.0928 43.9043 21.6242 44.1524 21.115 44.2091C20.4056 44.0856 19.7069 43.9074 19.025 43.6761C18.4909 42.7262 18.092 41.7063 17.84 40.6461C18.0905 40.0431 18.3763 39.4554 18.696 38.8861C19.0738 38.2749 19.3643 37.6138 19.559 36.9221C19.72 36.2281 20.253 31.9291 20.459 30.1341C20.992 30.8281 21.728 31.9781 21.559 32.7151C21.955 32.1253 22.1594 31.4276 22.1444 30.7173C22.1294 30.007 21.8956 29.3187 21.475 28.7461C20.8952 27.7297 20.7341 26.5273 21.026 25.3941C21.433 24.0051 22.905 20.1551 22.905 20.1551C22.905 20.1551 23.396 21.0181 24.09 20.8491C24.784 20.6801 30.39 12.2581 30.39 12.2581C30.39 12.2581 31.905 15.5681 30.306 17.9871C29.5711 19.2694 28.4352 20.2746 27.073 20.8481C28.6057 21.0384 30.1537 20.6427 31.407 19.7401C32.263 21.7461 33.083 23.8281 33.125 24.1161C32.999 24.4041 31.365 28.3311 31.203 28.5761C30.8644 28.7343 30.5057 28.8453 30.137 28.9061C29.6979 29.0058 29.2721 29.1565 28.868 29.3551C28.0093 31.1712 27.2714 33.0419 26.659 34.9551C25.8349 35.1645 25.1192 35.6751 24.653 36.3861C25.2412 36.1503 25.8642 36.0128 26.497 35.9791C27.1618 36.1206 27.7742 36.4441 28.2658 36.9135C28.7574 37.3828 29.1089 37.9796 29.281 38.6371V38.7211C29.3553 39.342 29.1967 39.9683 28.836 40.4791ZM24.993 40.9701C25.2496 40.4344 25.377 39.846 25.365 39.2521C25.407 38.9641 25.484 38.4321 25.814 38.3521C26.144 38.2721 26.922 38.3941 26.922 38.9621C26.922 39.4951 26.347 39.6141 25.94 39.9861C25.645 40.2681 25.07 40.8861 24.993 40.9701ZM41.314 33.1501C41.6687 31.3876 41.7798 29.5848 41.644 27.7921C43.2371 29.9474 44.2249 32.4896 44.505 35.1551C44.6344 35.5437 44.8758 35.8854 45.199 36.1371C45.487 36.3821 45.816 36.7121 45.816 36.9151C45.8142 37.8623 45.7322 38.8077 45.571 39.7411C45.529 39.8601 45.164 40.0711 44.877 40.2321C44.47 40.4321 44.099 40.6391 44.021 40.9681C43.1154 44.1127 41.2221 46.8825 38.621 48.8681C42.42 44.8971 44.257 38.3471 41.314 33.1501ZM38.74 49.2301C41.4321 47.1875 43.3956 44.3328 44.34 41.0881C44.382 40.9691 44.747 40.7581 44.992 40.5971C45.399 40.3971 45.812 40.1481 45.892 39.8191C46.0552 38.8611 46.1371 37.8909 46.137 36.9191C46.137 36.5541 45.765 36.1831 45.401 35.8191C45.201 35.5741 44.868 35.2861 44.868 35.0831C44.5321 32.108 43.3703 29.2862 41.514 26.9371C40.694 22.0281 37.426 20.5131 37.341 20.4711C37.9921 21.4636 38.3983 22.5964 38.5262 23.7765C38.6542 24.9566 38.5002 26.1501 38.077 27.2591C36.562 30.8991 32.677 30.3311 32.348 30.3661C32.018 30.3661 30.756 32.0001 29.157 35.0301C28.4931 34.8302 27.7915 34.7895 27.109 34.9111C27.845 32.8631 28.953 29.9601 29.157 29.7111C29.5141 29.5551 29.8851 29.4329 30.265 29.3461C31.043 29.1461 31.408 29.0161 31.534 28.8551C31.618 28.7291 32.025 27.7891 32.434 26.8071C32.8991 26.8015 33.3631 26.7607 33.822 26.6851C34.1725 25.9339 34.4611 25.1553 34.685 24.3571C34.685 24.1571 33.085 20.1841 32.476 18.6701C32.7912 18.2978 33.0771 17.9016 33.331 17.4851C36.9522 17.8771 40.3467 19.4397 42.9995 21.9357C45.6522 24.4317 47.4183 27.7249 48.0299 31.3156C48.6414 34.9063 48.065 38.5985 46.3881 41.8319C44.7112 45.0653 42.0253 47.6635 38.738 49.2321L38.74 49.2301Z" fill="#1B314F"/>
<path d="M27.854 27.1401C28.0444 26.8994 28.1696 26.6137 28.2173 26.3105C28.2651 26.0073 28.2339 25.6969 28.1268 25.4093C28.0196 25.1217 27.8401 24.8666 27.6056 24.6686C27.3711 24.4707 27.0895 24.3365 26.788 24.2791C27.16 23.4231 27.688 21.7051 27.688 21.7051C27.688 21.7051 23.515 28.2481 23.151 28.3741C22.787 28.5001 22.415 27.0631 22.415 27.0631C21.637 30.0501 23.726 30.4571 23.972 29.5171C25.4247 29.0192 26.7501 28.2077 27.854 27.1401Z" fill="#1B314F"/>
<path d="M24.291 28.732L26.416 25.092C26.416 25.092 27.643 25.709 27.026 26.692C26.273 27.5623 25.3398 28.2584 24.291 28.732Z" fill="#FFD923"/>
<path d="M50.597 45.59C49.9466 46.4709 49.2366 47.3062 48.472 48.09C50.0275 45.0231 50.8416 41.6339 50.8489 38.195C50.8562 34.7562 50.0565 31.3636 48.514 28.29C48.886 28.662 49.25 29.068 49.58 29.433C51.56 31.6099 52.7396 34.3962 52.9244 37.333C53.1093 40.2698 52.2884 43.1821 50.597 45.59Z" fill="#D82122"/>
<path d="M55.5049 32.5402C53.6941 27.1683 50.0822 22.5874 45.2809 19.5732C41.7553 17.2822 37.6182 16.1136 33.4149 16.2212H33.3309C33.5276 16.1448 33.7322 16.0908 33.9409 16.0602C35.4247 15.6128 36.9454 15.2982 38.485 15.1202C40.6129 14.8033 42.7858 15.0011 44.8215 15.6971C46.8572 16.3931 48.6964 17.5669 50.1849 19.1202L50.269 19.2042C53.6672 22.809 55.5429 27.5863 55.5049 32.5402Z" fill="#D82122"/>
<path d="M43.9699 12.2871C37.8759 11.1441 33.949 11.7121 31.123 12.7781C30.9516 12.2598 30.7455 11.7536 30.506 11.2631C29.657 12.2871 28.7529 13.5141 28.1849 14.2931C27.3263 14.848 26.5775 15.5565 25.976 16.3831C26.4341 14.869 27.3045 13.5122 28.4897 12.4644C29.6748 11.4166 31.1281 10.7192 32.687 10.4501C33.6594 10.2814 34.645 10.1994 35.632 10.2051C38.5326 10.2622 41.3829 10.9739 43.9699 12.2871Z" fill="#D82122"/>
<path d="M21.4299 20.1411C16.6469 19.9801 18.239 14.4121 18.323 14.0891C18.324 14.1311 18.6459 18.4651 21.4299 20.1411Z" fill="#D82122"/>
<path d="M26.1359 10.1201C22.4539 12.3291 23.1909 17.6031 23.1909 17.6031C19.6699 12.2521 25.8479 10.2461 26.1359 10.1201Z" fill="#D82122"/>
<path d="M20.084 21.615C20.2521 21.7396 20.3663 21.9235 20.4035 22.1294C20.4406 22.3353 20.3979 22.5475 20.284 22.723C20.123 23.011 19.877 22.968 19.506 22.807C19.015 22.562 16.07 20.843 13.412 19.083C16.442 20.149 19.506 21.292 19.997 21.537C20 21.537 20.042 21.583 20.084 21.615Z" fill="#F5F5F5"/>
</g>
<defs>
<clipPath id="clip0_40_23470">
<rect width="64" height="64" fill="white"/>
</clipPath>
</defs>
</svg>
