<svg width="64" height="64" viewBox="0 0 64 64" fill="none" xmlns="http://www.w3.org/2000/svg">
<path d="M32 64C49.6731 64 64 49.6731 64 32C64 14.3269 49.6731 0 32 0C14.3269 0 0 14.3269 0 32C0 49.6731 14.3269 64 32 64Z" fill="url(#paint0_linear_42_9785)"/>
<path d="M45.3452 44.328L34.8452 18.952C34.6647 18.3937 34.3145 17.9056 33.8434 17.5557C33.3724 17.2058 32.8039 17.0115 32.2172 17H31.2892C30.7018 17.0107 30.1324 17.2046 29.6606 17.5545C29.1887 17.9045 28.8379 18.3931 28.6572 18.952L24.0893 30.008H20.6332C20.1357 30.0114 19.6594 30.2106 19.3076 30.5624C18.9558 30.9143 18.7566 31.3905 18.7532 31.888V31.912C18.7584 32.409 18.9582 32.8842 19.3096 33.2357C19.661 33.5871 20.1362 33.7868 20.6332 33.792H22.4892L18.1292 44.328C18.0467 44.5592 18.0034 44.8026 18.0012 45.048C17.9829 45.5684 18.1663 46.0757 18.5132 46.464C18.693 46.6472 18.9098 46.7897 19.1492 46.8822C19.3886 46.9746 19.645 47.0148 19.9012 47C20.29 46.9958 20.6677 46.8699 20.9813 46.64C21.3114 46.3944 21.5707 46.066 21.7332 45.688L26.5332 33.788H29.8612C30.3588 33.7846 30.835 33.5855 31.1868 33.2336C31.5386 32.8818 31.7378 32.4056 31.7412 31.908V31.86C31.736 31.363 31.5363 30.8879 31.1848 30.5364C30.8334 30.185 30.3582 29.9852 29.8612 29.98H28.0852L31.7492 20.852L41.7332 45.684C41.8957 46.062 42.1551 46.3904 42.4852 46.636C42.7993 46.8648 43.1767 46.9905 43.5653 46.996C43.8221 47.0108 44.079 46.9706 44.319 46.8782C44.5591 46.7858 44.7766 46.6432 44.9572 46.46C45.3074 46.0737 45.4913 45.565 45.4692 45.044C45.4807 44.7992 45.4383 44.5548 45.3452 44.328Z" fill="white"/>
<defs>
<linearGradient id="paint0_linear_42_9785" x1="32" y1="0" x2="32" y2="64" gradientUnits="userSpaceOnUse">
<stop stop-color="#B6509E"/>
<stop offset="1" stop-color="#2EBAC6"/>
</linearGradient>
</defs>
</svg>
