<svg width="63" height="63" viewBox="0 0 63 63" fill="none" xmlns="http://www.w3.org/2000/svg">
<g clip-path="url(#clip0_40_23390)">
<path d="M31.04 62.08C48.1829 62.08 62.08 48.1829 62.08 31.04C62.08 13.8971 48.1829 0 31.04 0C13.8971 0 0 13.8971 0 31.04C0 48.1829 13.8971 62.08 31.04 62.08Z" fill="url(#paint0_linear_40_23390)"/>
<path d="M44.647 43.368L34.147 17.992C33.9665 17.4337 33.6163 16.9456 33.1452 16.5957C32.6742 16.2458 32.1057 16.0515 31.519 16.04H30.591C30.0036 16.0507 29.4342 16.2446 28.9624 16.5945C28.4905 16.9445 28.1397 17.4331 27.959 17.992L23.391 29.048H19.935C19.4375 29.0514 18.9612 29.2506 18.6094 29.6024C18.2576 29.9543 18.0584 30.4305 18.055 30.928V30.952C18.0602 31.449 18.26 31.9242 18.6114 32.2757C18.9628 32.6271 19.438 32.8268 19.935 32.832H21.791L17.431 43.368C17.3485 43.5992 17.3052 43.8426 17.303 44.088C17.2847 44.6084 17.4681 45.1157 17.815 45.504C17.9948 45.6872 18.2116 45.8297 18.451 45.9222C18.6904 46.0146 18.9468 46.0548 19.203 46.04C19.5918 46.0358 19.9694 45.9099 20.283 45.68C20.6131 45.4344 20.8725 45.106 21.035 44.728L25.835 32.828H29.163C29.6606 32.8246 30.1368 32.6255 30.4886 32.2736C30.8404 31.9218 31.0396 31.4456 31.043 30.948V30.9C31.0378 30.403 30.8381 29.9279 30.4866 29.5764C30.1352 29.225 29.66 29.0252 29.163 29.02H27.387L31.051 19.892L41.035 44.724C41.1975 45.102 41.4569 45.4304 41.787 45.676C42.1011 45.9048 42.4784 46.0305 42.867 46.036C43.1238 46.0508 43.3808 46.0106 43.6208 45.9182C43.8609 45.8258 44.0784 45.6832 44.259 45.5C44.6092 45.1137 44.7931 44.605 44.771 44.084C44.7825 43.8392 44.7401 43.5948 44.647 43.368Z" fill="white"/>
</g>
<defs>
<linearGradient id="paint0_linear_40_23390" x1="31.04" y1="0" x2="31.04" y2="62.08" gradientUnits="userSpaceOnUse">
<stop stop-color="#B6509E"/>
<stop offset="1" stop-color="#2EBAC6"/>
</linearGradient>
<clipPath id="clip0_40_23390">
<rect width="62.08" height="62.08" fill="white"/>
</clipPath>
</defs>
</svg>
