<svg width="64" height="64" viewBox="0 0 64 64" fill="none" xmlns="http://www.w3.org/2000/svg">
<g clip-path="url(#clip0_40_23376)">
<path d="M32.0001 64C38.3321 64 44.5217 62.1215 49.7856 58.6021C55.0495 55.0828 59.1509 50.081 61.5709 44.2297C63.9908 38.3783 64.6204 31.9406 63.38 25.7313C62.1396 19.522 59.0849 13.8203 54.6026 9.34783C50.1203 4.87535 44.4119 1.83318 38.1999 0.606374C31.988 -0.620436 25.5516 0.0232661 19.7056 2.45601C13.8596 4.88875 8.86676 9.00116 5.35899 14.2727C1.85121 19.5443 -0.0137746 25.7381 7.65974e-05 32.07C0.0241544 40.5431 3.40553 48.6612 9.40349 54.6461C15.4014 60.6309 23.527 63.9945 32.0001 64Z" fill="#F5F5F5"/>
<mask id="mask0_40_23376" style="mask-type:luminance" maskUnits="userSpaceOnUse" x="0" y="0" width="64" height="64">
<path d="M32.0001 64C38.3321 64 44.5217 62.1215 49.7856 58.6021C55.0495 55.0828 59.1509 50.081 61.5709 44.2297C63.9908 38.3783 64.6204 31.9406 63.38 25.7313C62.1396 19.522 59.0849 13.8203 54.6026 9.34783C50.1203 4.87535 44.4119 1.83318 38.1999 0.606374C31.988 -0.620436 25.5516 0.0232661 19.7056 2.45601C13.8596 4.88875 8.86676 9.00116 5.35899 14.2727C1.85121 19.5443 -0.0137746 25.7381 7.65974e-05 32.07C0.0241544 40.5431 3.40553 48.6612 9.40349 54.6461C15.4014 60.6309 23.527 63.9945 32.0001 64Z" fill="white"/>
</mask>
<g mask="url(#mask0_40_23376)">
<path d="M32.0709 4.28809C34.3529 8.14409 36.5529 12.0491 38.8069 15.9181C39.1098 16.4296 39.2539 17.0195 39.2209 17.6131V31.5421C36.1049 30.3966 32.6987 30.3073 29.5269 31.2881C27.8652 31.8554 26.3003 32.6742 24.8869 33.7161C24.8923 28.2554 24.8923 22.7931 24.8869 17.3291C24.8472 16.9279 24.938 16.5245 25.1459 16.1791C27.4633 12.2211 29.7716 8.25742 32.0709 4.28809Z" fill="#020041"/>
<path d="M6.89294 47.6152C11.1209 40.3219 15.3623 33.0342 19.6169 25.7522C19.6969 33.0522 19.6469 40.3522 19.6449 47.6452C15.3969 47.6072 11.1449 47.6452 6.89294 47.6152Z" fill="#020041"/>
<path d="M44.4239 25.7852C48.7299 33.0432 52.8699 40.4022 57.1079 47.7042C52.8749 47.7192 48.6439 47.6792 44.4139 47.7042C44.3989 40.3952 44.3759 33.0892 44.4239 25.7852Z" fill="#020041"/>
<path d="M32.214 35.499C34.608 35.123 37.058 35.6001 39.136 36.847C39.196 40.46 39.093 44.075 39.236 47.683C34.629 47.701 30.019 47.668 25.412 47.65C24.8494 45.7424 24.7922 43.7213 25.246 41.785C25.6939 40.185 26.5867 38.7449 27.8204 37.632C29.0542 36.5191 30.5784 35.7791 32.216 35.498" fill="#020041"/>
</g>
</g>
<defs>
<clipPath id="clip0_40_23376">
<rect width="64" height="64" fill="white"/>
</clipPath>
</defs>
</svg>
