<svg width="64" height="64" viewBox="0 0 64 64" fill="none" xmlns="http://www.w3.org/2000/svg">
<g clip-path="url(#clip0_124_53)">
<path d="M0 0H64V64H0V0Z" fill="url(#paint0_linear_124_53)"/>
<path d="M32 54.8571C40.2054 54.8571 46.8572 44.6236 46.8572 32C46.8572 19.3763 40.2054 9.14285 32 9.14285C23.7947 9.14285 17.1429 19.3763 17.1429 32C17.1429 44.6236 23.7947 54.8571 32 54.8571Z" fill="#E21C2A"/>
<path d="M32 53.0857C39.3343 53.0857 45.28 43.6453 45.28 32C45.28 20.3547 39.3343 10.9143 32 10.9143C24.6656 10.9143 18.72 20.3547 18.72 32C18.72 43.6453 24.6656 53.0857 32 53.0857Z" fill="#1F211D"/>
<path d="M43.4629 37.8743C41.2572 41.76 36.9486 44.3886 32 44.3886C27.0514 44.3886 22.7429 41.76 20.5486 37.8743C22.0343 46.1029 26.6057 52.1029 32 52.1029C37.3943 52.1029 41.9657 46.1143 43.4629 37.8743ZM43.4514 26.0686C42.2837 24.0737 40.6096 22.4227 38.5987 21.2828C36.5878 20.1429 34.3114 19.5545 32 19.5772C27.0629 19.5772 22.7657 22.2057 20.56 26.0686C22.0686 17.8629 26.6172 11.8972 32 11.8972C37.3829 11.8972 41.9429 17.8629 43.4514 26.0686Z" fill="white"/>
<path d="M40 23.1086C38.969 22.2751 37.8116 21.6115 36.5714 21.1429V30.5143H33.1429V33.1429H36.5714V42.8572C37.8286 42.3772 38.9829 41.7143 40 40.8914V33.1429H44.2629C44.3544 32.2684 44.3428 31.3861 44.2286 30.5143H40V23.1086ZM44.0914 29.7143C43.5872 27.3579 42.356 25.2193 40.5714 23.6V29.7143H44.0914ZM44.0914 34.2857H40.5714V40.4C42.356 38.7807 43.5872 36.6421 44.0914 34.2857ZM36 43.0629V33.8057H33.1429V43.6343C34.1372 43.5543 35.0857 43.36 36 43.0629ZM30.8572 43.6343V20.3657C30.0686 20.4343 29.3029 20.5829 28.5714 20.7772V43.2457C29.3029 43.44 30.0686 43.5886 30.8572 43.6572V43.6343ZM26.2857 42.3543V21.6343C25.4629 22.0457 24.6857 22.5486 24 23.12V40.8914C24.6857 41.4629 25.4629 41.9543 26.2857 42.3543ZM21.7143 38.4457V25.5543C20.3879 27.442 19.6761 29.6929 19.6761 32C19.6761 34.3071 20.3879 36.558 21.7143 38.4457ZM33.1429 20.3429V29.7143H36V20.9257C35.0857 20.6286 34.1372 20.4343 33.1429 20.3543V20.3429Z" fill="#E21C2A"/>
<path d="M36 20.9372C35.0857 20.6514 34.1372 20.4457 33.1429 20.3657V29.7143H36V20.9372ZM36 33.7943H33.1429V43.6343C34.1372 43.5543 35.0857 43.3486 36 43.0629V33.8057V33.7943ZM40.5715 40.4C42.4839 38.6669 43.7562 36.3397 44.1829 33.7943H40.5715V40.4ZM40.5715 29.7143H44.0915C43.5872 27.3579 42.356 25.2193 40.5715 23.6V29.7143Z" fill="white"/>
<path fill-rule="evenodd" clip-rule="evenodd" d="M23.7029 21.5314L26.9943 15.0171L28.0343 14.3771L29.4743 18.8914L28.6515 19.0743L28.3429 18.0457L25.8515 18.9943L25.0286 20.5714L23.7029 21.5314ZM27.5657 15.6114L28.1143 17.28L26.3657 17.9657L27.5657 15.6114Z" fill="#1F211D"/>
<path d="M34.3657 14.0343L33.76 14.5943C33.5668 14.3879 33.3331 14.2235 33.0736 14.1114C32.814 13.9993 32.5342 13.9419 32.2514 13.9429C31.12 13.9429 30.2171 14.8229 30.2171 15.8971C30.2171 16.9829 31.1314 17.8629 32.2514 17.8629C32.8457 17.8629 33.3829 17.6114 33.7486 17.2229L34.3771 17.76C33.8514 18.3314 33.0857 18.6743 32.2286 18.6743C31.8564 18.6819 31.4863 18.616 31.1395 18.4806C30.7927 18.3451 30.476 18.1426 30.2075 17.8847C29.939 17.6268 29.7239 17.3185 29.5746 16.9775C29.4253 16.6365 29.3446 16.2694 29.3371 15.8971C29.3551 15.1474 29.6695 14.4353 30.2115 13.9169C30.7534 13.3986 31.4788 13.1161 32.2286 13.1314C33.0743 13.1314 33.84 13.4743 34.3657 14.0343ZM36.0114 14.4L34.5714 18.8571L35.3714 19.0514L36.2057 16.4457L36.8457 19.5314L37.2686 19.6914L38.1371 17.6571L39.0514 20.6057L40.0914 21.3486L38.4914 16.1943L38 15.84L37.3143 17.5086L36.6971 14.8229L36.0114 14.3886V14.4ZM26.0571 44.6514C26.4343 44.6514 26.7657 44.4914 26.9714 44.2629L27.7029 44.5143L26.4343 48.0571L25.6229 47.7714L26.4686 45.4171C25.8971 45.4514 25.6686 45.3829 25.44 45.2457L25.6686 44.5943C25.7829 44.6286 25.92 44.6514 26.0686 44.6514H26.0571Z" fill="#1F211D"/>
<path fill-rule="evenodd" clip-rule="evenodd" d="M30.4571 46.88C30.7771 46.7314 31.0057 46.4914 31.0514 46.1829C31.1314 45.6114 30.5943 45.0629 29.84 44.96C29.0857 44.8457 28.4 45.2114 28.3086 45.7829C28.2628 46.08 28.4 46.3772 28.6514 46.5943C28.1943 46.7657 27.8743 47.12 27.8286 47.5429C27.7714 48.2057 28.4 48.8114 29.2457 48.9029C30.0914 48.9829 30.8343 48.5029 30.9028 47.84C30.9134 47.6557 30.8783 47.4715 30.8005 47.304C30.7228 47.1366 30.6048 46.9909 30.4571 46.88ZM30.24 46.1486C30.2057 46.4229 29.9086 46.6057 29.5886 46.5486C29.28 46.5029 29.0514 46.2514 29.0971 45.9772C29.1314 45.7143 29.4286 45.52 29.7371 45.5772C30.0571 45.6229 30.2857 45.8743 30.24 46.1486ZM29.2686 48.2629C29.6457 48.3314 29.9886 48.1143 30.0457 47.7829C30.1028 47.4629 29.8514 47.1429 29.4743 47.0743C29.1086 47.0172 28.7543 47.2343 28.6971 47.5543C28.64 47.8857 28.9028 48.2057 29.2686 48.2629Z" fill="#1F211D"/>
<path d="M31.68 46.4C31.68 45.7143 32.2629 45.1428 32.9943 45.12L33.0514 45.1086C33.8857 45.0171 34.6286 45.6114 34.72 46.4457L34.7543 46.7086L34.7772 47.4514C34.7882 47.8078 34.6708 48.1562 34.4463 48.4331C34.2218 48.7101 33.9052 48.8971 33.5543 48.96L33.3257 49.0057C32.7543 49.0743 32.2286 48.7771 31.9543 48.32L32.5943 48.08L32.6172 48.1143C32.72 48.2286 32.8572 48.4114 33.2114 48.4114C33.6 48.4114 33.9543 48.1143 33.9543 47.5657V47.36C33.7143 47.5543 33.3829 47.68 33.04 47.68C32.1714 47.68 31.6686 47.1086 31.6686 46.4H31.68ZM33.1772 47.0857C33.2682 47.0872 33.3586 47.0706 33.4431 47.0368C33.5276 47.003 33.6045 46.9528 33.6694 46.8889C33.7343 46.8251 33.7859 46.749 33.821 46.6651C33.8562 46.5811 33.8743 46.491 33.8743 46.4C33.8713 46.2201 33.7977 46.0486 33.6695 45.9225C33.5412 45.7964 33.3685 45.7257 33.1886 45.7257C33.0976 45.7242 33.0072 45.7408 32.9227 45.7746C32.8381 45.8084 32.7612 45.8586 32.6963 45.9225C32.6314 45.9863 32.5799 46.0624 32.5447 46.1463C32.5095 46.2303 32.4914 46.3204 32.4914 46.4114C32.4914 46.7771 32.7429 47.0743 33.1772 47.0743V47.0857ZM35.2914 46.08C35.1314 45.4057 35.5657 44.7314 36.2629 44.5371L36.32 44.5143C37.0972 44.24 37.9657 44.6286 38.2629 45.4171L38.3772 45.76L38.56 46.4114C38.6531 46.7545 38.6202 47.1196 38.4671 47.4404C38.314 47.7612 38.051 48.0165 37.7257 48.16L37.4972 48.2514C36.9714 48.4114 36.4229 48.2514 36.0457 47.8857L36.5829 47.52L36.6172 47.5428C36.7314 47.6343 36.9257 47.7714 37.2572 47.7028C37.6343 47.6114 37.9086 47.2457 37.7714 46.6971L37.7257 46.5028C37.5429 46.7543 37.2686 46.9371 36.9257 47.0171C36.08 47.2228 35.4629 46.7771 35.2914 46.08ZM36.9143 46.4C37.0868 46.359 37.2368 46.2528 37.3327 46.1036C37.4286 45.9545 37.4629 45.774 37.4286 45.6C37.4072 45.512 37.3686 45.4291 37.315 45.3561C37.2614 45.2831 37.1938 45.2214 37.1162 45.1747C37.0387 45.1279 36.9526 45.097 36.863 45.0837C36.7734 45.0704 36.6821 45.0749 36.5943 45.0971C36.4218 45.1381 36.2718 45.2443 36.1759 45.3935C36.08 45.5426 36.0457 45.7232 36.08 45.8971C36.1714 46.2743 36.48 46.5028 36.9143 46.4Z" fill="#1F211D"/>
</g>
<defs>
<linearGradient id="paint0_linear_124_53" x1="11.9086" y1="11.0971" x2="77.8857" y2="86.88" gradientUnits="userSpaceOnUse">
<stop stop-color="#1A1E21"/>
<stop offset="1" stop-color="#06060A"/>
</linearGradient>
<clipPath id="clip0_124_53">
<rect width="64" height="64" rx="32" fill="white"/>
</clipPath>
</defs>
</svg>
