<svg width="64" height="64" viewBox="0 0 64 64" fill="none" xmlns="http://www.w3.org/2000/svg">
<g clip-path="url(#clip0_40_23394)">
<path d="M32 64C49.6731 64 64 49.6731 64 32C64 14.3269 49.6731 0 32 0C14.3269 0 0 14.3269 0 32C0 49.6731 14.3269 64 32 64Z" fill="#EC6500"/>
<path fill-rule="evenodd" clip-rule="evenodd" d="M32.1236 56.5369H31.8656C24.6773 54.0075 18.6332 48.9865 14.8286 42.384C10.9916 35.64 9.51456 27.3559 10.0536 18.2749L10.0776 17.8999C10.3586 17.9239 10.6406 17.9549 10.9296 17.9549C12.3768 17.9497 13.7633 17.3724 14.7867 16.349C15.81 15.3257 16.3873 13.9392 16.3926 12.4919V12.1169H47.6136V12.4919C47.6188 13.939 48.1959 15.3254 49.2191 16.3487C50.2423 17.372 51.6285 17.9494 53.0756 17.9549C53.3566 17.9549 53.6386 17.9239 53.9276 17.8999L53.9426 18.2749C54.4896 27.3559 53.0126 35.64 49.1756 42.384C45.3666 48.9887 39.317 54.0099 32.1236 56.5369Z" fill="#222221"/>
<path fill-rule="evenodd" clip-rule="evenodd" d="M31.9996 47.8809C34.769 46.667 37.1958 44.7881 39.0646 42.4109C39.3646 42.0279 39.6586 41.6299 39.9316 41.2229H24.0756C24.3486 41.6289 24.6386 42.0279 24.9356 42.4109C26.8078 44.7846 29.2337 46.6628 32.0006 47.8809H31.9996Z" fill="white"/>
<path fill-rule="evenodd" clip-rule="evenodd" d="M53.2416 24.8079C53.3483 22.7695 53.3456 20.7269 53.2336 18.6889H53.0776C51.498 18.6865 49.9787 18.0823 48.8289 16.9992C47.6791 15.9161 46.9852 14.4355 46.8886 12.8589H17.1206C17.0204 14.4344 16.3253 15.9131 15.1761 16.9955C14.0269 18.0779 12.5093 18.6832 10.9306 18.6889H10.7746C10.6625 20.7269 10.6598 22.7695 10.7666 24.8079H53.2416Z" fill="white"/>
<path fill-rule="evenodd" clip-rule="evenodd" d="M49.3576 40.485C51.6042 35.8042 52.908 30.7271 53.1946 25.543H10.8136C11.0963 30.7277 12.4003 35.8055 14.6506 40.485H49.3576Z" fill="#EC6500"/>
<path fill-rule="evenodd" clip-rule="evenodd" d="M31.9995 55.803C38.9744 53.3183 44.8365 48.431 48.5355 42.017C48.6835 41.759 48.8355 41.486 48.9735 41.217H40.8075C40.4485 41.787 40.0576 42.334 39.6506 42.858C37.6707 45.3741 35.0922 47.3543 32.1506 48.618L32.0025 48.68L31.8535 48.618C28.9144 47.3524 26.338 45.3725 24.3585 42.858C23.9439 42.3321 23.5577 41.7843 23.2015 41.217H15.0345C15.1755 41.483 15.3235 41.756 15.4725 42.017C19.1704 48.4293 25.0297 53.3162 32.0015 55.803H31.9995Z" fill="white"/>
<path fill-rule="evenodd" clip-rule="evenodd" d="M35.8295 41.894V43.824H36.0405V44.324H35.8295V44.84H35.0875V44.324H34.2045V43.824L34.8455 41.894H35.8295Z" fill="#EC6500"/>
<path fill-rule="evenodd" clip-rule="evenodd" d="M33.6486 41.894V42.363H32.7266V43.035C32.7815 42.9708 32.85 42.9196 32.9271 42.885C33.0042 42.8504 33.0881 42.8333 33.1726 42.835C33.2583 42.8307 33.344 42.8437 33.4246 42.8732C33.5052 42.9028 33.579 42.9483 33.6416 43.007C33.7656 43.202 33.8206 43.4331 33.7976 43.663V43.913C33.803 44.0673 33.7926 44.2218 33.7666 44.374C33.7432 44.4738 33.6977 44.5671 33.6336 44.647C33.5602 44.732 33.4661 44.7968 33.3605 44.835C33.2228 44.8848 33.077 44.9085 32.9306 44.905C32.7562 44.9066 32.5833 44.8726 32.4226 44.805C32.2854 44.7464 32.1745 44.6398 32.1105 44.505C32.0719 44.4088 32.0457 44.3079 32.0326 44.205H32.7676C32.7756 44.252 32.7756 44.299 32.7836 44.33C32.7866 44.3649 32.8029 44.3974 32.8291 44.4206C32.8554 44.4439 32.8895 44.4562 32.9246 44.455C32.9409 44.4552 32.957 44.4519 32.9719 44.4451C32.9868 44.4384 33 44.4284 33.0106 44.416C33.0321 44.3985 33.046 44.3735 33.0496 44.346C33.0496 44.315 33.0576 44.197 33.0576 43.994V43.58C33.0629 43.5023 33.0495 43.4245 33.0186 43.353C33.0075 43.334 32.9915 43.3183 32.9724 43.3074C32.9533 43.2965 32.9316 43.2908 32.9096 43.291C32.8758 43.2917 32.8431 43.3025 32.8156 43.322C32.7997 43.344 32.7865 43.3678 32.7766 43.393C32.7638 43.4467 32.7584 43.5019 32.7606 43.557H32.0266L32.0576 41.9L33.6486 41.894Z" fill="#EC6500"/>
<path fill-rule="evenodd" clip-rule="evenodd" d="M30.4766 44.197C30.4739 44.2361 30.4766 44.2755 30.4846 44.314C30.484 44.3323 30.488 44.3504 30.4962 44.3668C30.5044 44.3833 30.5166 44.3974 30.5316 44.408C30.5447 44.4209 30.5603 44.4311 30.5775 44.4378C30.5947 44.4445 30.6131 44.4476 30.6316 44.447C30.6491 44.4472 30.6664 44.4438 30.6826 44.4371C30.6987 44.4304 30.7134 44.4205 30.7256 44.408C30.7486 44.384 30.7649 44.3543 30.7726 44.322V43.6219C30.7375 43.6972 30.6802 43.76 30.6086 43.8019C30.5242 43.8452 30.4303 43.8665 30.3356 43.864C30.2076 43.8649 30.0824 43.8269 29.9766 43.7549C29.8837 43.6894 29.8138 43.5964 29.7766 43.489C29.7485 43.3528 29.7354 43.214 29.7376 43.0749V42.8409C29.7349 42.6869 29.7429 42.5329 29.7616 42.3799C29.7797 42.276 29.8256 42.1788 29.8946 42.0989C29.9677 42.0073 30.065 41.938 30.1756 41.899C30.3109 41.8503 30.4538 41.8266 30.5976 41.8289C30.7651 41.823 30.9321 41.8495 31.0896 41.9069C31.2096 41.9551 31.3136 42.0362 31.3896 42.141C31.4546 42.2392 31.4948 42.3518 31.5066 42.469C31.5146 42.578 31.5226 42.7969 31.5226 43.1249V43.5309C31.5226 43.8829 31.5226 44.117 31.5066 44.231C31.4993 44.3529 31.4557 44.4699 31.3816 44.567C31.3056 44.6735 31.2018 44.7572 31.0816 44.809C30.9388 44.8601 30.7883 44.8865 30.6366 44.887C30.459 44.8958 30.282 44.8615 30.1206 44.787C29.9977 44.7251 29.8969 44.627 29.8316 44.5059C29.7875 44.4045 29.7611 44.2963 29.7536 44.1859L30.4766 44.197Z" fill="#EC6500"/>
<path fill-rule="evenodd" clip-rule="evenodd" d="M29.1786 41.8941V44.8401H28.4355V42.7141L27.9276 42.7061V42.3621C28.246 42.3083 28.5345 42.1418 28.7406 41.8931L29.1786 41.8941Z" fill="#EC6500"/>
<path fill-rule="evenodd" clip-rule="evenodd" d="M35.0875 43.822V42.564L34.7595 43.822H35.0875Z" fill="white"/>
<path fill-rule="evenodd" clip-rule="evenodd" d="M30.4765 43.135C30.4658 43.2164 30.4823 43.2991 30.5235 43.37C30.5504 43.3957 30.5864 43.4097 30.6235 43.409C30.6462 43.4115 30.6691 43.4077 30.6898 43.398C30.7104 43.3883 30.728 43.3731 30.7405 43.354C30.7688 43.2847 30.7795 43.2095 30.7715 43.135V42.604C30.779 42.5168 30.7685 42.429 30.7405 42.346C30.728 42.327 30.7104 42.3118 30.6898 42.3021C30.6691 42.2924 30.6462 42.2885 30.6235 42.291C30.6055 42.2922 30.5879 42.2969 30.5718 42.305C30.5556 42.3131 30.5413 42.3243 30.5295 42.338C30.4905 42.369 30.4745 42.447 30.4745 42.588V43.135H30.4765Z" fill="white"/>
<path fill-rule="evenodd" clip-rule="evenodd" d="M27.0846 46.7919L24.6386 50.7849L23.6926 49.9958L24.1846 49.3159L23.8486 49.0429L23.2626 49.6289L22.3016 48.8289L25.7556 45.6719L27.0846 46.7889V46.7919Z" fill="#EC6500"/>
<path fill-rule="evenodd" clip-rule="evenodd" d="M28.2025 47.667L28.9685 48.144C29.3115 48.3446 29.6334 48.5791 29.9295 48.844C30.0563 48.9742 30.1454 49.1362 30.1875 49.313C30.2119 49.4655 30.1957 49.6217 30.1405 49.766C30.0106 50.0328 29.8643 50.2912 29.7025 50.54L28.8425 51.915C28.7067 52.1583 28.5414 52.384 28.3505 52.587C28.2578 52.6805 28.137 52.741 28.0065 52.759C27.8714 52.7738 27.7346 52.7577 27.6065 52.712C27.4093 52.6263 27.2188 52.526 27.0365 52.412L25.7465 51.612L28.2005 47.681L28.2025 47.667Z" fill="#EC6500"/>
<path fill-rule="evenodd" clip-rule="evenodd" d="M32.8286 49.6208L33.5286 54.2549H32.2896L32.2276 53.4189H31.7976L31.7276 54.2549H30.4846L31.0946 49.6208H32.8286Z" fill="#EC6500"/>
<path fill-rule="evenodd" clip-rule="evenodd" d="M35.9705 47.5889L38.4245 51.5119L37.5335 52.0749L35.8845 50.6208L37.0025 52.4109L36.1425 52.9419L33.6885 49.0109L34.5405 48.4799L36.2205 49.8869L35.1205 48.1208L35.9725 47.5899L35.9705 47.5889Z" fill="#EC6500"/>
<path fill-rule="evenodd" clip-rule="evenodd" d="M36.9155 46.7919L39.3695 50.7849L40.3155 49.9958L39.8235 49.3159L40.1515 49.0429L40.7455 49.6289L41.6985 48.8289L38.2525 45.6719L36.9165 46.7889L36.9155 46.7919Z" fill="#EC6500"/>
<path fill-rule="evenodd" clip-rule="evenodd" d="M24.6855 48.6679C24.9745 48.2229 25.3415 47.6909 25.7955 47.0579C25.1315 47.6579 24.6545 48.1049 24.3655 48.4019L24.6855 48.6679Z" fill="white"/>
<path fill-rule="evenodd" clip-rule="evenodd" d="M28.8046 48.98L27.1946 51.559C27.3356 51.653 27.4446 51.684 27.5146 51.645C27.6615 51.5195 27.7813 51.3653 27.8666 51.192L28.8206 49.668C28.8958 49.5557 28.9626 49.4381 29.0206 49.316C29.0374 49.2621 29.0345 49.204 29.0126 49.152C28.953 49.0826 28.8816 49.0243 28.8016 48.98H28.8046Z" fill="white"/>
<path fill-rule="evenodd" clip-rule="evenodd" d="M32.1956 52.5939C32.1329 52.0699 32.0703 51.4213 32.0076 50.6479C31.8906 51.5389 31.8076 52.1799 31.7806 52.5939H32.1956Z" fill="white"/>
<path fill-rule="evenodd" clip-rule="evenodd" d="M39.3236 48.6679C39.0346 48.2229 38.6596 47.6909 38.2136 47.0579C38.8776 47.6579 39.3546 48.1049 39.6356 48.4019L39.3236 48.6679Z" fill="white"/>
<path fill-rule="evenodd" clip-rule="evenodd" d="M32.0025 39.4879C35.2225 35.4159 38.8645 33.8619 42.4125 35.5339C41.9142 34.4761 41.0307 33.6487 39.9425 33.2209C39.9831 33.0727 40.0092 32.921 40.0205 32.7679C40.0554 32.2802 39.9231 31.7953 39.6455 31.3929C39.375 31.0192 38.9957 30.7381 38.5595 30.5879C38.4678 30.5573 38.3739 30.5339 38.2785 30.5179V30.3379C38.2585 29.8935 38.078 29.4714 37.7705 29.1499C37.4492 28.8269 37.0243 28.6276 36.5705 28.5869C36.4827 28.5715 36.3937 28.5639 36.3045 28.5639C36.2805 28.4939 36.2575 28.4229 36.2265 28.3529C36.0652 28.0067 35.7853 27.7297 35.4375 27.5719C35.0822 27.4112 34.6941 27.3362 34.3045 27.3529C34.0788 27.3601 33.8552 27.3995 33.6405 27.4699C33.4765 27.2663 33.2722 27.0989 33.0405 26.9779C32.7058 26.7932 32.3287 26.6989 31.9464 26.7043C31.5641 26.7098 31.1899 26.8147 30.8605 27.0089C30.669 27.1299 30.4998 27.2832 30.3605 27.4619C30.1469 27.3985 29.9262 27.3619 29.7035 27.3529C29.3139 27.3362 28.9259 27.4112 28.5705 27.5719C28.3625 27.6644 28.1771 27.8011 28.0274 27.9726C27.8776 28.1441 27.7671 28.3462 27.7035 28.5649C27.1564 28.5621 26.6296 28.7723 26.2345 29.1509C25.891 29.5218 25.7083 30.0136 25.7265 30.5189C25.1791 30.6287 24.6934 30.9412 24.3665 31.3939C24.0891 31.7963 23.9568 32.2813 23.9915 32.7689C23.9992 32.9225 24.0254 33.0746 24.0695 33.2219C22.9781 33.6472 22.0915 34.4751 21.5925 35.5349C25.1485 33.8629 28.7925 35.4179 32.0025 39.4889V39.4879Z" fill="#222221"/>
<path fill-rule="evenodd" clip-rule="evenodd" d="M39.3546 33.038C37.6826 32.592 35.5096 32.929 33.1336 34.738C32.9616 34.074 32.4696 33.894 32.0006 33.363C31.5396 33.894 31.0396 34.074 30.8746 34.738C28.4986 32.933 26.3266 32.597 24.6456 33.038C24.6261 32.939 24.6131 32.8388 24.6066 32.738C24.5804 32.3926 24.6713 32.0484 24.8646 31.761C25.059 31.4919 25.3323 31.2899 25.6466 31.183C25.8903 31.112 26.1427 31.0753 26.3966 31.074C26.3613 30.8464 26.3456 30.6162 26.3496 30.386C26.3538 30.0874 26.471 29.8016 26.6776 29.586C26.8951 29.4054 27.1515 29.2776 27.4266 29.2126C27.7018 29.1475 27.9882 29.147 28.2636 29.211C28.2796 28.703 28.3186 28.383 28.8346 28.132C29.0987 28.011 29.3887 27.9574 29.6786 27.976C30.0066 27.997 30.3264 28.0876 30.6166 28.242C30.7335 27.9597 30.9289 27.7168 31.1796 27.542C31.4107 27.4027 31.6757 27.3297 31.9456 27.331C32.2258 27.3215 32.5036 27.3863 32.7506 27.519C33.0306 27.6945 33.2574 27.9431 33.4066 28.238C33.693 28.0898 34.0068 28.002 34.3286 27.98C34.6185 27.9614 34.9085 28.015 35.1726 28.136C35.7046 28.394 35.7276 28.714 35.7426 29.215C36.0181 29.1513 36.3047 29.1519 36.5799 29.217C36.8552 29.282 37.1117 29.4097 37.3296 29.59C37.4914 29.7972 37.6007 30.0404 37.6483 30.299C37.6958 30.5576 37.6801 30.8238 37.6026 31.075C37.8591 31.0763 38.1141 31.1129 38.3606 31.184C38.6736 31.2892 38.9448 31.4918 39.1346 31.762C39.3338 32.047 39.4278 32.3924 39.4006 32.739C39.3912 32.8399 39.3755 32.9401 39.3536 33.039L39.3546 33.038Z" fill="white"/>
<path fill-rule="evenodd" clip-rule="evenodd" d="M47.0595 18.4079L47.7595 18.9709C48.0861 19.2139 48.3876 19.4889 48.6595 19.7919C48.7984 19.9595 48.8659 20.175 48.8475 20.3919C48.7942 20.7067 48.6471 20.998 48.4255 21.2279C48.2812 21.4514 48.0747 21.628 47.8315 21.7359C47.7285 21.7488 47.624 21.7401 47.5245 21.7105C47.425 21.6809 47.3327 21.631 47.2535 21.5639C47.3819 21.7084 47.4638 21.8882 47.4885 22.0799C47.4934 22.1918 47.4746 22.3036 47.4335 22.4079C47.3057 22.6116 47.1619 22.8049 47.0035 22.9859L46.1905 23.9939L45.2685 23.2509L46.2925 21.9849C46.4091 21.8653 46.4973 21.7211 46.5505 21.5629C46.5585 21.4929 46.4955 21.3989 46.3635 21.2889L44.9725 23.0009L43.9885 22.2009L47.0595 18.4009V18.4079Z" fill="#EC6500"/>
<path fill-rule="evenodd" clip-rule="evenodd" d="M44.1836 19.932C44.0506 20.2531 43.8994 20.5663 43.7306 20.87C43.6298 21.0477 43.4843 21.1959 43.3086 21.3C43.1229 21.405 42.9118 21.4566 42.6986 21.449C42.4502 21.4444 42.2054 21.3885 41.9796 21.285C41.7571 21.1896 41.5553 21.0517 41.3856 20.879C41.2374 20.7244 41.1338 20.5327 41.0856 20.324C41.0383 20.1227 41.0463 19.9123 41.1086 19.715C41.2217 19.3814 41.3552 19.0552 41.5086 18.738L41.8446 17.972C42.0446 17.527 42.1966 17.214 42.3056 17.034C42.4047 16.8572 42.5507 16.7111 42.7276 16.612C42.912 16.504 43.123 16.45 43.3366 16.456C43.586 16.4599 43.8314 16.5186 44.0556 16.628C44.2797 16.7205 44.482 16.8588 44.6496 17.034C44.8008 17.1864 44.9049 17.3791 44.9496 17.589C44.9925 17.7878 44.9846 17.9941 44.9266 18.189C44.8646 18.389 44.7266 18.705 44.5266 19.166L44.1826 19.932H44.1836Z" fill="#EC6500"/>
<path fill-rule="evenodd" clip-rule="evenodd" d="M47.5286 19.8499L46.8406 20.6938C46.9159 20.7685 47.011 20.8202 47.1146 20.8429C47.1766 20.8429 47.2866 20.7649 47.4146 20.6009L47.5866 20.3899C47.6622 20.3121 47.7067 20.2093 47.7116 20.1009C47.6755 20.0005 47.61 19.9133 47.5236 19.8509L47.5286 19.8499Z" fill="white"/>
<path fill-rule="evenodd" clip-rule="evenodd" d="M38.6815 14.946L39.9245 15.258C40.1886 15.3139 40.4437 15.4062 40.6825 15.532C40.8258 15.6097 40.947 15.7226 41.0345 15.86C41.0976 15.986 41.1298 16.1252 41.1285 16.266C41.1125 16.4934 41.0733 16.7186 41.0115 16.938L40.9115 17.352C40.8654 17.5797 40.778 17.7969 40.6535 17.993C40.5429 18.1203 40.3904 18.2036 40.2235 18.228C39.9955 18.2573 39.7639 18.2386 39.5435 18.173L39.2155 18.087L38.7385 20.002L37.5035 19.702L38.6835 14.951L38.6815 14.946Z" fill="#EC6500"/>
<path fill-rule="evenodd" clip-rule="evenodd" d="M37.1586 16.173L35.9866 16.032L36.0336 15.673C36.0538 15.5643 36.0511 15.4526 36.0256 15.345C36.0116 15.3196 35.9912 15.2983 35.9665 15.2832C35.9418 15.2681 35.9135 15.2598 35.8846 15.259C35.8498 15.2531 35.8142 15.2564 35.7811 15.2687C35.7481 15.281 35.719 15.3018 35.6966 15.329C35.6406 15.4095 35.608 15.504 35.6026 15.602C35.5841 15.7273 35.5923 15.8551 35.6266 15.977C35.7042 16.1156 35.8139 16.2336 35.9466 16.321C36.3223 16.5746 36.6481 16.8953 36.9076 17.267C37.0368 17.6058 37.0693 17.9738 37.0016 18.33C36.9809 18.5924 36.9064 18.8477 36.7826 19.08C36.6567 19.2537 36.4742 19.3782 36.2666 19.432C35.9971 19.52 35.711 19.5443 35.4306 19.503C35.131 19.4753 34.8434 19.3721 34.5946 19.203C34.3949 19.0767 34.2478 18.8824 34.1806 18.656C34.1333 18.3715 34.1306 18.0813 34.1726 17.796L34.2116 17.483L35.3836 17.624L35.3136 18.218C35.2852 18.334 35.2879 18.4554 35.3216 18.57C35.3355 18.6013 35.3587 18.6277 35.388 18.6455C35.4173 18.6634 35.4513 18.6719 35.4856 18.67C35.5228 18.6751 35.5607 18.6707 35.5957 18.657C35.6307 18.6434 35.6617 18.621 35.6856 18.592C35.7413 18.5083 35.7738 18.4113 35.7796 18.311C35.8297 18.1185 35.8132 17.9148 35.7326 17.733C35.5687 17.5476 35.3883 17.3775 35.1936 17.225C34.9944 17.0602 34.8064 16.8824 34.6306 16.693C34.5296 16.5698 34.4575 16.4256 34.4196 16.271C34.3699 16.058 34.3645 15.8371 34.4036 15.622C34.4143 15.339 34.4976 15.0635 34.6456 14.822C34.7708 14.6512 34.9497 14.5273 35.1536 14.47C35.4073 14.3974 35.6739 14.3814 35.9346 14.423C36.2235 14.4494 36.5034 14.5373 36.7556 14.681C36.9408 14.7823 37.0845 14.9454 37.1616 15.142C37.2216 15.4169 37.227 15.7009 37.1776 15.978L37.1536 16.166L37.1586 16.173Z" fill="#EC6500"/>
<path fill-rule="evenodd" clip-rule="evenodd" d="M43.6755 17.9459C43.7418 17.8145 43.7915 17.6755 43.8235 17.5319C43.8252 17.4996 43.8163 17.4676 43.7983 17.4408C43.7803 17.4139 43.754 17.3936 43.7235 17.3829C43.6968 17.3688 43.6667 17.3621 43.6364 17.3635C43.6062 17.3649 43.5769 17.3743 43.5515 17.3909C43.4459 17.5025 43.366 17.636 43.3175 17.7819L42.3875 19.8689C42.3092 20.0255 42.2488 20.1906 42.2075 20.3609C42.204 20.3954 42.2119 20.43 42.23 20.4597C42.248 20.4893 42.2753 20.5122 42.3075 20.5249C42.3404 20.5419 42.378 20.5473 42.4143 20.5402C42.4506 20.5331 42.4835 20.514 42.5075 20.4859C42.6074 20.3323 42.6938 20.1704 42.7655 20.0019L43.6725 17.9469L43.6755 17.9459Z" fill="white"/>
<path fill-rule="evenodd" clip-rule="evenodd" d="M32.8826 14.251L33.6096 19.135H32.3046L32.2416 18.26H31.7886L31.7106 19.135H30.4056L31.0546 14.251H32.8826Z" fill="#EC6500"/>
<path fill-rule="evenodd" clip-rule="evenodd" d="M29.3856 14.3371L29.9796 19.198L28.8696 19.3311L27.9476 17.205L28.2136 19.405L27.1586 19.5381L26.5646 14.685L27.6196 14.552L28.5966 16.6521L28.3306 14.4641L29.3856 14.3311V14.3371Z" fill="#EC6500"/>
<path fill-rule="evenodd" clip-rule="evenodd" d="M39.7136 16.0709L39.4136 17.2709C39.4401 17.2849 39.4695 17.2928 39.4996 17.2939C39.5412 17.3114 39.5865 17.3184 39.6314 17.3144C39.6764 17.3104 39.7197 17.2955 39.7576 17.2709C39.8422 17.1803 39.8967 17.0657 39.9136 16.9429L40.0076 16.5519C40.0486 16.4436 40.0486 16.3241 40.0076 16.2159C39.9293 16.131 39.8225 16.0779 39.7076 16.0669L39.7136 16.0709Z" fill="white"/>
<path fill-rule="evenodd" clip-rule="evenodd" d="M24.7876 15.1018L26.6786 19.6658L25.4126 19.9858L25.1386 19.1418L24.6936 19.2588L24.8346 20.1258L23.5606 20.4458L23.0056 15.5458L24.7876 15.1008V15.1018Z" fill="#EC6500"/>
<path fill-rule="evenodd" clip-rule="evenodd" d="M32.2115 17.3919C32.1415 16.8369 32.0785 16.1569 32.0115 15.3369C31.8865 16.2749 31.8005 16.9619 31.7695 17.3919H32.2115Z" fill="white"/>
<path fill-rule="evenodd" clip-rule="evenodd" d="M18.4885 17.4159L19.3555 17.0249C19.7306 16.8423 20.1233 16.6982 20.5275 16.5949C20.7166 16.5592 20.9119 16.5783 21.0905 16.6499C21.2393 16.7122 21.3668 16.8165 21.4575 16.9499C21.62 17.217 21.7611 17.4965 21.8795 17.7859L22.5795 19.3489C22.713 19.6116 22.8138 19.8897 22.8795 20.1769C22.9065 20.3146 22.8871 20.4573 22.8245 20.5829C22.7611 20.7103 22.6674 20.8202 22.5515 20.9029C22.3604 21.0257 22.1598 21.1331 21.9515 21.2239L20.4825 21.8729L18.4975 17.4109L18.4885 17.4159Z" fill="#EC6500"/>
<path fill-rule="evenodd" clip-rule="evenodd" d="M24.8965 18.3139C24.6965 17.7909 24.4666 17.1419 24.2086 16.3679C24.3086 17.3059 24.3965 17.9929 24.4745 18.4159L24.8965 18.3159V18.3139Z" fill="white"/>
<path fill-rule="evenodd" clip-rule="evenodd" d="M16.4325 18.8069L20.0745 22.1519L19.0585 22.9729L18.4585 22.3239L18.1065 22.6129L18.5985 23.3479L17.5745 24.1759L15.0035 19.9639L16.4325 18.8069Z" fill="#EC6500"/>
<path fill-rule="evenodd" clip-rule="evenodd" d="M19.9885 17.654L21.2935 20.592C21.4655 20.521 21.5515 20.443 21.5595 20.357C21.5323 20.1546 21.4686 19.9588 21.3715 19.779L20.5975 18.044C20.5486 17.9126 20.4856 17.7868 20.4095 17.669C20.3941 17.6432 20.3723 17.6217 20.3462 17.6067C20.3201 17.5916 20.2906 17.5835 20.2605 17.583C20.1653 17.5843 20.0717 17.6083 19.9875 17.653L19.9885 17.654Z" fill="white"/>
<path fill-rule="evenodd" clip-rule="evenodd" d="M17.8866 21.675C17.4866 21.284 17.0036 20.7921 16.4406 20.2061C16.9326 21.0061 17.3006 21.5891 17.5506 21.9491L17.8866 21.675Z" fill="white"/>
</g>
<defs>
<clipPath id="clip0_40_23394">
<rect width="64" height="64" fill="white"/>
</clipPath>
</defs>
</svg>
