<svg width="64" height="64" viewBox="0 0 64 64" fill="none" xmlns="http://www.w3.org/2000/svg">
<g clip-path="url(#clip0_40_23487)">
<path d="M32 64C49.6731 64 64 49.6731 64 32C64 14.3269 49.6731 0 32 0C14.3269 0 0 14.3269 0 32C0 49.6731 14.3269 64 32 64Z" fill="#DE3F6B"/>
<path d="M20.068 22.126H21.792C24.4916 22.4368 26.9902 23.7057 28.834 25.702C32.67 29.727 34.779 35.408 39.662 38.402C43.191 40.57 48.128 38.797 49.862 35.137C50.748 35.126 51.635 35.126 52.517 35.126C51.8771 36.959 50.7239 38.5694 49.1948 39.7658C47.6657 40.9621 45.8251 41.6939 43.892 41.874H42.471C40.0716 41.6913 37.7937 40.7451 35.971 39.174C33.353 36.956 31.671 33.914 29.639 31.203C27.892 28.811 26.105 26.118 23.21 25.026C21.4081 24.4313 19.447 24.5476 17.7281 25.3512C16.0091 26.1549 14.6622 27.585 13.963 29.349C13.4628 30.6566 13.345 32.0795 13.6233 33.4516C13.9016 34.8237 14.5646 36.0882 15.5347 37.0976C16.5049 38.107 17.7422 38.8195 19.1022 39.1519C20.4621 39.4843 21.8886 39.423 23.215 38.975C25.704 37.9098 27.7819 36.0686 29.139 33.726C29.715 34.55 30.273 35.386 30.828 36.226C28.559 39.083 25.412 41.537 21.668 41.877H20.135C17.7895 41.6746 15.5894 40.6553 13.9185 38.9968C12.2476 37.3383 11.2119 35.1459 10.992 32.802V31.252C11.1965 28.9087 12.2171 26.7116 13.8757 25.0438C15.5344 23.376 17.7259 22.3433 20.068 22.126Z" fill="white"/>
<path d="M42.374 22.126H43.807C46.1632 22.3417 48.3705 23.3715 50.0496 25.0385C51.7286 26.7055 52.7743 28.9054 53.007 31.26V33.689C49.078 33.727 45.146 33.702 41.217 33.706C41.217 32.996 41.217 32.29 41.217 31.58C44.317 31.572 47.423 31.593 50.524 31.572C50.3775 30.2933 49.9514 29.0626 49.276 27.967C48.329 26.6123 46.9583 25.6112 45.3798 25.1213C43.8012 24.6313 42.1045 24.6805 40.557 25.261C38.1772 26.2955 36.1815 28.0501 34.851 30.278C34.305 29.492 33.7629 28.698 33.2369 27.896C35.4769 24.996 38.603 22.488 42.371 22.127" fill="white"/>
</g>
<defs>
<clipPath id="clip0_40_23487">
<rect width="64" height="64" fill="white"/>
</clipPath>
</defs>
</svg>
