<svg xmlns="http://www.w3.org/2000/svg" width="64" height="64" viewBox="0 0 64 64">
  <g id="agro" transform="translate(-479 -7217.402)">
    <circle id="Ellipse_115" data-name="Ellipse 115" cx="32" cy="32" r="32" transform="translate(479 7217.403)" fill="#f5f5f5"/>
    <g id="Group_5288" data-name="Group 5288" transform="translate(447.397 7188.999)">
      <path id="Ellipse_129" data-name="Ellipse 129" d="M-6.787-12A5.219,5.219,0,0,1-1.575-6.787,5.219,5.219,0,0,1-6.787-1.575,5.219,5.219,0,0,1-12-6.787,5.219,5.219,0,0,1-6.787-12Zm0,8.778A3.569,3.569,0,0,0-3.222-6.787a3.569,3.569,0,0,0-3.565-3.565,3.569,3.569,0,0,0-3.565,3.565A3.569,3.569,0,0,0-6.787-3.222Z" transform="translate(58.47 79.962)" fill="#0a8104"/>
      <path id="Ellipse_130" data-name="Ellipse 130" d="M-6.787-12A5.219,5.219,0,0,1-1.575-6.787,5.219,5.219,0,0,1-6.787-1.575,5.219,5.219,0,0,1-12-6.787,5.219,5.219,0,0,1-6.787-12Zm0,8.778A3.569,3.569,0,0,0-3.222-6.787a3.569,3.569,0,0,0-3.565-3.565,3.569,3.569,0,0,0-3.565,3.565A3.569,3.569,0,0,0-6.787-3.222Z" transform="translate(70.39 79.962)" fill="#0a8104"/>
      <path id="Ellipse_131" data-name="Ellipse 131" d="M-6.787-12A5.219,5.219,0,0,1-1.575-6.787,5.219,5.219,0,0,1-6.787-1.575,5.219,5.219,0,0,1-12-6.787,5.219,5.219,0,0,1-6.787-12Zm0,8.778A3.569,3.569,0,0,0-3.222-6.787a3.569,3.569,0,0,0-3.565-3.565,3.569,3.569,0,0,0-3.565,3.565A3.569,3.569,0,0,0-6.787-3.222Z" transform="translate(82.31 79.962)" fill="#0a8104"/>
      <path id="Ellipse_132" data-name="Ellipse 132" d="M-6.787-12A5.219,5.219,0,0,1-1.575-6.787,5.219,5.219,0,0,1-6.787-1.575,5.219,5.219,0,0,1-12-6.787,5.219,5.219,0,0,1-6.787-12Zm0,8.778A3.569,3.569,0,0,0-3.222-6.787a3.569,3.569,0,0,0-3.565-3.565,3.569,3.569,0,0,0-3.565,3.565A3.569,3.569,0,0,0-6.787-3.222Z" transform="translate(58.47 67.191)" fill="#0a8104"/>
      <path id="Ellipse_133" data-name="Ellipse 133" d="M-6.787-12A5.219,5.219,0,0,1-1.575-6.787,5.219,5.219,0,0,1-6.787-1.575,5.219,5.219,0,0,1-12-6.787,5.219,5.219,0,0,1-6.787-12Zm0,8.778A3.569,3.569,0,0,0-3.222-6.787a3.569,3.569,0,0,0-3.565-3.565,3.569,3.569,0,0,0-3.565,3.565A3.569,3.569,0,0,0-6.787-3.222Z" transform="translate(70.39 67.191)" fill="#0a8104"/>
      <path id="Ellipse_134" data-name="Ellipse 134" d="M-6.787-12A5.219,5.219,0,0,1-1.575-6.787,5.219,5.219,0,0,1-6.787-1.575,5.219,5.219,0,0,1-12-6.787,5.219,5.219,0,0,1-6.787-12Zm0,8.778A3.569,3.569,0,0,0-3.222-6.787a3.569,3.569,0,0,0-3.565-3.565,3.569,3.569,0,0,0-3.565,3.565A3.569,3.569,0,0,0-6.787-3.222Z" transform="translate(82.31 67.191)" fill="#0a8104"/>
      <path id="Ellipse_135" data-name="Ellipse 135" d="M-6.787-12A5.219,5.219,0,0,1-1.575-6.787,5.219,5.219,0,0,1-6.787-1.575,5.219,5.219,0,0,1-12-6.787,5.219,5.219,0,0,1-6.787-12Zm0,8.778A3.569,3.569,0,0,0-3.222-6.787a3.569,3.569,0,0,0-3.565-3.565,3.569,3.569,0,0,0-3.565,3.565A3.569,3.569,0,0,0-6.787-3.222Z" transform="translate(58.47 54.42)" fill="#0a8104"/>
      <path id="Ellipse_136" data-name="Ellipse 136" d="M-6.787-12A5.219,5.219,0,0,1-1.575-6.787,5.219,5.219,0,0,1-6.787-1.575,5.219,5.219,0,0,1-12-6.787,5.219,5.219,0,0,1-6.787-12Zm0,8.778A3.569,3.569,0,0,0-3.222-6.787a3.569,3.569,0,0,0-3.565-3.565,3.569,3.569,0,0,0-3.565,3.565A3.569,3.569,0,0,0-6.787-3.222Z" transform="translate(70.39 54.42)" fill="#0a8104"/>
      <path id="Ellipse_137" data-name="Ellipse 137" d="M-6.787-12A5.219,5.219,0,0,1-1.575-6.787,5.219,5.219,0,0,1-6.787-1.575,5.219,5.219,0,0,1-12-6.787,5.219,5.219,0,0,1-6.787-12Zm0,8.778A3.569,3.569,0,0,0-3.222-6.787a3.569,3.569,0,0,0-3.565-3.565,3.569,3.569,0,0,0-3.565,3.565A3.569,3.569,0,0,0-6.787-3.222Z" transform="translate(82.31 54.42)" fill="#0a8104"/>
      <rect id="Rectangle_1593" data-name="Rectangle 1593" height="9.393" transform="translate(72.625 50.443) rotate(45)" fill="#0a8104"/>
      <path id="Rectangle_1593_-_Outline" data-name="Rectangle 1593 - Outline" d="M0,0H1.648V9.393H0Z" transform="translate(72.043 49.861) rotate(45)" fill="#0a8104"/>
      <rect id="Rectangle_1594" data-name="Rectangle 1594" height="9.393" transform="translate(60.266 62.802) rotate(45)" fill="#0a8104"/>
      <path id="Rectangle_1594_-_Outline" data-name="Rectangle 1594 - Outline" d="M0,0H1.648V9.393H0Z" transform="translate(59.684 62.219) rotate(45)" fill="#0a8104"/>
      <rect id="Rectangle_1595" data-name="Rectangle 1595" height="9.393" transform="matrix(-0.78, 0.626, -0.626, -0.78, 72.932, 69.785)" fill="#0a8104"/>
      <path id="Rectangle_1595_-_Outline" data-name="Rectangle 1595 - Outline" d="M0,0H1.648V9.393H0Z" transform="matrix(-0.78, 0.626, -0.626, -0.78, 73.575, 69.269)" fill="#0a8104"/>
      <rect id="Rectangle_1596" data-name="Rectangle 1596" height="9.393" transform="matrix(-0.78, 0.626, -0.626, -0.78, 60.573, 57.426)" fill="#0a8104"/>
      <path id="Rectangle_1596_-_Outline" data-name="Rectangle 1596 - Outline" d="M0,0H1.648V9.393H0Z" transform="matrix(-0.78, 0.626, -0.626, -0.78, 61.215, 56.91)" fill="#0a8104"/>
      <path id="Path_4643" data-name="Path 4643" d="M297.232,182.01h.025l-.032,3.982H297.2Z" transform="translate(-233.515 -130.006)" fill="#0a8104"/>
      <path id="Path_4643_-_Outline" data-name="Path 4643 - Outline" d="M285.239,170.01h1.673l-.046,5.63h-1.648l-.019-.831Z" transform="translate(-222.339 -118.83)" fill="#0a8104"/>
      <path id="Path_4644" data-name="Path 4644" d="M188.62,300.615v-.025l2.956.032v.025Z" transform="translate(-132.39 -240.444)" fill="#0a8104"/>
      <path id="Path_4644_-_Outline" data-name="Path 4644 - Outline" d="M177.453,288.591l3.771.041v1.648l-.833.016-3.771-.041v-1.648Z" transform="translate(-121.214 -229.269)" fill="#0a8104"/>
      <path id="Path_4645" data-name="Path 4645" d="M362.62,300.615v-.025l2.956.032v.025Z" transform="translate(-294.443 -240.444)" fill="#0a8104"/>
      <path id="Path_4645_-_Outline" data-name="Path 4645 - Outline" d="M351.453,288.591l3.771.041v1.648l-.833.016-3.771-.041v-1.648Z" transform="translate(-283.267 -229.269)" fill="#0a8104"/>
      <path id="Path_4646" data-name="Path 4646" d="M297.232,368.01h.025l-.032,3.982H297.2Z" transform="translate(-233.515 -303.235)" fill="#0a8104"/>
      <path id="Path_4646_-_Outline" data-name="Path 4646 - Outline" d="M285.239,356.01h1.673l-.046,5.63h-1.648l-.019-.831Z" transform="translate(-222.339 -292.059)" fill="#0a8104"/>
    </g>
  </g>
</svg>
