<svg width="64" height="64" viewBox="0 0 64 64" fill="none" xmlns="http://www.w3.org/2000/svg">
<g clip-path="url(#clip0_40_23804)">
<path d="M32 64.001C49.6731 64.001 64 49.6741 64 32.001C64 14.3279 49.6731 0.000976562 32 0.000976562C14.3269 0.000976562 0 14.3279 0 32.001C0 49.6741 14.3269 64.001 32 64.001Z" fill="#F5F5F5"/>
<path d="M20.08 39.5591C21.4619 39.5609 22.7867 40.1108 23.7638 41.088C24.7408 42.0653 25.2904 43.3902 25.292 44.7721C25.2902 46.1538 24.7404 47.4784 23.7634 48.4555C22.7864 49.4325 21.4617 49.9822 20.08 49.9841C18.6981 49.9825 17.3732 49.4329 16.396 48.4558C15.4187 47.4788 14.8689 46.154 14.867 44.7721C14.8686 43.39 15.4183 42.065 16.3956 41.0877C17.3729 40.1104 18.6979 39.5607 20.08 39.5591ZM20.08 48.3371C21.0252 48.336 21.9313 47.9601 22.5997 47.2917C23.268 46.6234 23.6439 45.7173 23.645 44.7721C23.6439 43.8269 23.268 42.9208 22.5997 42.2524C21.9313 41.5841 21.0252 41.2081 20.08 41.2071C19.1348 41.2081 18.2287 41.5841 17.5603 42.2524C16.892 42.9208 16.5161 43.8269 16.515 44.7721C16.5161 45.7173 16.892 46.6234 17.5603 47.2917C18.2287 47.9601 19.1348 48.336 20.08 48.3371Z" fill="#0A8104"/>
<path d="M32 39.5591C33.3819 39.5609 34.7067 40.1108 35.6837 41.088C36.6608 42.0653 37.2104 43.3902 37.212 44.7721C37.2101 46.1538 36.6604 47.4784 35.6834 48.4555C34.7063 49.4325 33.3817 49.9822 32 49.9841C30.6181 49.9825 29.2932 49.4329 28.3159 48.4558C27.3387 47.4788 26.7888 46.154 26.787 44.7721C26.7886 43.39 27.3383 42.065 28.3156 41.0877C29.2929 40.1104 30.6179 39.5607 32 39.5591ZM32 48.3371C32.9452 48.336 33.8513 47.9601 34.5197 47.2917C35.188 46.6234 35.5639 45.7173 35.565 44.7721C35.5639 43.8269 35.188 42.9208 34.5197 42.2524C33.8513 41.5841 32.9452 41.2081 32 41.2071C31.0548 41.2081 30.1487 41.5841 29.4803 42.2524C28.812 42.9208 28.436 43.8269 28.435 44.7721C28.436 45.7173 28.812 46.6234 29.4803 47.2917C30.1487 47.9601 31.0548 48.336 32 48.3371Z" fill="#0A8104"/>
<path d="M43.92 39.5591C45.3019 39.5609 46.6267 40.1108 47.6038 41.088C48.5808 42.0653 49.1304 43.3902 49.132 44.7721C49.1302 46.1538 48.5805 47.4784 47.6034 48.4555C46.6264 49.4325 45.3018 49.9822 43.92 49.9841C42.5381 49.9825 41.2132 49.4329 40.236 48.4558C39.2587 47.4788 38.7089 46.154 38.707 44.7721C38.7086 43.39 39.2584 42.065 40.2356 41.0877C41.2129 40.1104 42.5379 39.5607 43.92 39.5591ZM43.92 48.3371C44.8652 48.336 45.7714 47.9601 46.4397 47.2917C47.108 46.6234 47.484 45.7173 47.485 44.7721C47.484 43.8269 47.108 42.9208 46.4397 42.2524C45.7714 41.5841 44.8652 41.2081 43.92 41.2071C42.9749 41.2081 42.0687 41.5841 41.4004 42.2524C40.732 42.9208 40.3561 43.8269 40.355 44.7721C40.3561 45.7173 40.732 46.6234 41.4004 47.2917C42.0687 47.9601 42.9749 48.336 43.92 48.3371Z" fill="#0A8104"/>
<path d="M20.08 26.7881C21.4619 26.7899 22.7867 27.3398 23.7638 28.317C24.7408 29.2943 25.2904 30.6192 25.292 32.0011C25.2902 33.3828 24.7404 34.7074 23.7634 35.6845C22.7864 36.6615 21.4617 37.2112 20.08 37.2131C18.6981 37.2115 17.3732 36.6619 16.396 35.6848C15.4187 34.7078 14.8689 33.383 14.867 32.0011C14.8686 30.619 15.4183 29.294 16.3956 28.3167C17.3729 27.3394 18.6979 26.7897 20.08 26.7881ZM20.08 35.5661C21.0252 35.565 21.9313 35.1891 22.5997 34.5208C23.268 33.8524 23.6439 32.9463 23.645 32.0011C23.6439 31.0559 23.268 30.1498 22.5997 29.4814C21.9313 28.8131 21.0252 28.4371 20.08 28.4361C19.1348 28.4371 18.2287 28.8131 17.5603 29.4814C16.892 30.1498 16.5161 31.0559 16.515 32.0011C16.5161 32.9463 16.892 33.8524 17.5603 34.5208C18.2287 35.1891 19.1348 35.565 20.08 35.5661Z" fill="#0A8104"/>
<path d="M32 26.7881C33.3819 26.7899 34.7067 27.3398 35.6837 28.317C36.6608 29.2943 37.2104 30.6192 37.212 32.0011C37.2101 33.3828 36.6604 34.7074 35.6834 35.6845C34.7063 36.6615 33.3817 37.2112 32 37.2131C30.6181 37.2115 29.2932 36.6619 28.3159 35.6848C27.3387 34.7078 26.7888 33.383 26.787 32.0011C26.7886 30.619 27.3383 29.294 28.3156 28.3167C29.2929 27.3394 30.6179 26.7897 32 26.7881ZM32 35.5661C32.9452 35.565 33.8513 35.1891 34.5197 34.5208C35.188 33.8524 35.5639 32.9463 35.565 32.0011C35.5639 31.0559 35.188 30.1498 34.5197 29.4814C33.8513 28.8131 32.9452 28.4371 32 28.4361C31.0548 28.4371 30.1487 28.8131 29.4803 29.4814C28.812 30.1498 28.436 31.0559 28.435 32.0011C28.436 32.9463 28.812 33.8524 29.4803 34.5208C30.1487 35.1891 31.0548 35.565 32 35.5661Z" fill="#0A8104"/>
<path d="M43.92 26.7881C45.3019 26.7899 46.6267 27.3398 47.6038 28.317C48.5808 29.2943 49.1304 30.6192 49.132 32.0011C49.1302 33.3828 48.5805 34.7074 47.6034 35.6845C46.6264 36.6615 45.3018 37.2112 43.92 37.2131C42.5381 37.2115 41.2132 36.6619 40.236 35.6848C39.2587 34.7078 38.7089 33.383 38.707 32.0011C38.7086 30.619 39.2584 29.294 40.2356 28.3167C41.2129 27.3394 42.5379 26.7897 43.92 26.7881ZM43.92 35.5661C44.8652 35.565 45.7714 35.1891 46.4397 34.5208C47.108 33.8524 47.484 32.9463 47.485 32.0011C47.484 31.0559 47.108 30.1498 46.4397 29.4814C45.7714 28.8131 44.8652 28.4371 43.92 28.4361C42.9749 28.4371 42.0687 28.8131 41.4004 29.4814C40.732 30.1498 40.3561 31.0559 40.355 32.0011C40.3561 32.9463 40.732 33.8524 41.4004 34.5208C42.0687 35.1891 42.9749 35.565 43.92 35.5661Z" fill="#0A8104"/>
<path d="M20.08 14.0171C21.4619 14.0189 22.7867 14.5688 23.7638 15.546C24.7408 16.5233 25.2904 17.8482 25.292 19.2301C25.2902 20.6118 24.7404 21.9364 23.7634 22.9135C22.7864 23.8905 21.4617 24.4402 20.08 24.4421C18.6981 24.4405 17.3732 23.8909 16.396 22.9138C15.4187 21.9368 14.8689 20.612 14.867 19.2301C14.8686 17.848 15.4183 16.523 16.3956 15.5457C17.3729 14.5684 18.6979 14.0187 20.08 14.0171ZM20.08 22.7951C21.0252 22.794 21.9313 22.4181 22.5997 21.7498C23.268 21.0814 23.6439 20.1753 23.645 19.2301C23.6439 18.2849 23.268 17.3788 22.5997 16.7104C21.9313 16.0421 21.0252 15.6661 20.08 15.6651C19.1348 15.6661 18.2287 16.0421 17.5603 16.7104C16.892 17.3788 16.5161 18.2849 16.515 19.2301C16.5161 20.1753 16.892 21.0814 17.5603 21.7498C18.2287 22.4181 19.1348 22.794 20.08 22.7951Z" fill="#0A8104"/>
<path d="M32 14.0171C33.3819 14.0189 34.7067 14.5688 35.6837 15.546C36.6608 16.5233 37.2104 17.8482 37.212 19.2301C37.2101 20.6118 36.6604 21.9364 35.6834 22.9135C34.7063 23.8905 33.3817 24.4402 32 24.4421C30.6181 24.4405 29.2932 23.8909 28.3159 22.9138C27.3387 21.9368 26.7888 20.612 26.787 19.2301C26.7886 17.848 27.3383 16.523 28.3156 15.5457C29.2929 14.5684 30.6179 14.0187 32 14.0171ZM32 22.7951C32.9452 22.794 33.8513 22.4181 34.5197 21.7498C35.188 21.0814 35.5639 20.1753 35.565 19.2301C35.5639 18.2849 35.188 17.3788 34.5197 16.7104C33.8513 16.0421 32.9452 15.6661 32 15.6651C31.0548 15.6661 30.1487 16.0421 29.4803 16.7104C28.812 17.3788 28.436 18.2849 28.435 19.2301C28.436 20.1753 28.812 21.0814 29.4803 21.7498C30.1487 22.4181 31.0548 22.794 32 22.7951Z" fill="#0A8104"/>
<path d="M43.92 14.0171C45.3019 14.0189 46.6267 14.5688 47.6038 15.546C48.5808 16.5233 49.1304 17.8482 49.132 19.2301C49.1302 20.6118 48.5805 21.9364 47.6034 22.9135C46.6264 23.8905 45.3018 24.4402 43.92 24.4421C42.5381 24.4405 41.2132 23.8909 40.236 22.9138C39.2587 21.9368 38.7089 20.612 38.707 19.2301C38.7086 17.848 39.2584 16.523 40.2356 15.5457C41.2129 14.5684 42.5379 14.0187 43.92 14.0171ZM43.92 22.7951C44.8652 22.794 45.7714 22.4181 46.4397 21.7498C47.108 21.0814 47.484 20.1753 47.485 19.2301C47.484 18.2849 47.108 17.3788 46.4397 16.7104C45.7714 16.0421 44.8652 15.6661 43.92 15.6651C42.9749 15.6661 42.0687 16.0421 41.4004 16.7104C40.732 17.3788 40.3561 18.2849 40.355 19.2301C40.3561 20.1753 40.732 21.0814 41.4004 21.7498C42.0687 22.4181 42.9749 22.794 43.92 22.7951Z" fill="#0A8104"/>
<path d="M40.44 21.458L41.6053 22.6233L34.9635 29.2652L33.7981 28.0999L40.44 21.458Z" fill="#0A8104"/>
<path d="M28.081 33.8162L29.2463 34.9815L22.6045 41.6233L21.4391 40.458L28.081 33.8162Z" fill="#0A8104"/>
<path d="M41.972 40.8662L40.6865 41.8979L34.8065 34.5713L36.092 33.5397L41.972 40.8662Z" fill="#0A8104"/>
<path d="M29.612 28.5071L28.3266 29.5387L22.4465 22.2122L23.732 21.1805L29.612 28.5071Z" fill="#0A8104"/>
<path d="M32.114 23.6011H32.139L32.107 27.5831H32.082L32.114 23.6011Z" fill="#0A8104"/>
<path d="M31.297 22.7771H32.97L32.924 28.4071H31.276L31.257 27.5761L31.297 22.7771Z" fill="#0A8104"/>
<path d="M24.627 31.7682V31.7432L27.583 31.7752V31.8002L24.627 31.7682Z" fill="#0A8104"/>
<path d="M24.636 30.9192L28.407 30.9602V32.6082L27.574 32.6242L23.803 32.5832V30.9352L24.636 30.9192Z" fill="#0A8104"/>
<path d="M36.574 31.7682V31.7432L39.53 31.7752V31.8002L36.574 31.7682Z" fill="#0A8104"/>
<path d="M36.583 30.9192L40.354 30.9602V32.6082L39.521 32.6242L35.75 32.5832V30.9352L36.583 30.9192Z" fill="#0A8104"/>
<path d="M32.114 36.3721H32.139L32.107 40.3541H32.082L32.114 36.3721Z" fill="#0A8104"/>
<path d="M31.297 35.5481H32.97L32.924 41.1781H31.276L31.257 40.3471L31.297 35.5481Z" fill="#0A8104"/>
</g>
<defs>
<clipPath id="clip0_40_23804">
<rect width="64" height="64" fill="white"/>
</clipPath>
</defs>
</svg>
