<svg width="64" height="64" viewBox="0 0 64 64" fill="none" xmlns="http://www.w3.org/2000/svg">
<g clip-path="url(#clip0_40_23833)">
<path d="M32 64C49.6731 64 64 49.6731 64 32C64 14.3269 49.6731 0 32 0C14.3269 0 0 14.3269 0 32C0 49.6731 14.3269 64 32 64Z" fill="#F5F5F5"/>
<path d="M35.196 17.3992L39.473 28.3522C55.88 20.4622 54.058 14.6872 53.149 13.1392L53.118 13.0872L53.111 13.0762C53.081 13.0282 53.0499 12.9762 53.0179 12.9332C53.3146 14.1697 53.1321 15.4728 52.507 16.5802C50.109 13.3628 46.9921 10.7505 43.4049 8.9521C39.8177 7.15366 35.8598 6.2188 31.847 6.22218C31.5097 6.22218 31.1737 6.22884 30.839 6.24218L35.196 17.3992Z" fill="#FF0210"/>
<path d="M57.1249 15.4182C58.9799 22.9062 52.08 30.8502 43.119 37.6932L48.559 51.6262C52.1533 48.5607 54.8378 44.5679 56.3201 40.0824C57.8025 35.597 58.0258 30.7908 56.966 26.1872C58.19 22.7106 58.2457 18.9295 57.1249 15.4182Z" fill="#FF0210"/>
<path d="M41.46 55.7992L36.267 42.4993C31.403 45.6563 26.43 48.4302 22.226 50.6162C16.008 53.8502 11.476 55.7992 11.474 55.7992C13.8154 55.3244 16.1294 54.7236 18.406 53.9993C21.8826 56.1202 25.8116 57.3888 29.8721 57.7017C33.9326 58.0145 38.0095 57.3626 41.77 55.7992H41.46Z" fill="#FF0210"/>
<path d="M15.2079 46.2342C18.9629 44.8912 22.3819 43.5572 25.4959 42.2342C44.9099 34.0232 52.4659 26.4422 55.3749 21.4532C54.9521 20.5115 54.4729 19.5962 53.9399 18.7122C51.1709 27.0652 33.4189 35.2042 33.4189 35.2042L31.8469 31.1772L30.8309 28.5772L26.7419 39.0482C26.2039 39.2829 25.6566 39.5182 25.0999 39.7542C22.4333 40.8835 19.5333 42.0232 16.3999 43.1732L26.4669 17.3992L30.8229 6.24219C25.8131 6.44114 20.97 8.0968 16.8869 11.0064C12.8037 13.916 9.65771 17.9532 7.83417 22.6236C6.01063 27.294 5.5887 32.3949 6.62007 37.3014C7.65145 42.208 10.0913 46.7072 13.6409 50.2482L15.2079 46.2342Z" fill="#FF0210"/>
</g>
<defs>
<clipPath id="clip0_40_23833">
<rect width="64" height="64" fill="white"/>
</clipPath>
</defs>
</svg>
