<svg width="64" height="64" viewBox="0 0 64 64" fill="none" xmlns="http://www.w3.org/2000/svg">
<g clip-path="url(#clip0_40_23842)">
<path d="M32 64C49.6731 64 64 49.6731 64 32C64 14.3269 49.6731 0 32 0C14.3269 0 0 14.3269 0 32C0 49.6731 14.3269 64 32 64Z" fill="#F5F5F5"/>
<path d="M20.2 47.053L24.554 39.513L28.908 32L33.235 24.46L33.952 23.265L34.271 24.46L35.6 29.425L34.113 32L29.759 39.513L25.432 47.053H30.632L34.986 39.513L37.243 35.613L38.305 39.513L40.323 47.053H45L42.982 39.513L40.964 32L40.433 30.062L43.672 24.462H38.947L38.788 23.904L37.142 17.747L36.929 16.947H32.389L32.283 17.106L28.035 24.46L23.681 32L19.354 39.513L15 47.053H20.2Z" fill="black"/>
</g>
<defs>
<clipPath id="clip0_40_23842">
<rect width="64" height="64" fill="white"/>
</clipPath>
</defs>
</svg>
