<svg xmlns="http://www.w3.org/2000/svg" width="64" height="64" viewBox="0 0 64 64"><g transform="translate(-286 -137)"><circle cx="32" cy="32" r="32" transform="translate(286 137)" fill="#f5f5f5"/><path d="M5.2,30.106l4.354-7.54,4.354-7.513,4.327-7.54.717-1.195.319,1.195L20.6,12.478l-1.487,2.575-4.354,7.513-4.327,7.54h5.2l4.354-7.54,2.257-3.9,1.062,3.9,2.018,7.54H30l-2.018-7.54-2.018-7.513-.531-1.938,3.239-5.6H23.947l-.159-.558L22.142.8,21.929,0h-4.54l-.106.159L13.035,7.513l-4.354,7.54L4.354,22.566,0,30.106Z" transform="translate(301 153.947)"/></g></svg>