<svg width="64" height="64" viewBox="0 0 64 64" fill="none" xmlns="http://www.w3.org/2000/svg">
<g clip-path="url(#clip0_538_1669)">
<path d="M32 64C49.6731 64 64 49.6731 64 32C64 14.3269 49.6731 0 32 0C14.3269 0 0 14.3269 0 32C0 49.6731 14.3269 64 32 64Z" fill="#F5F5F5"/>
<path d="M49.4744 35.9204C49.3841 35.6876 48.6998 32.3153 48.6998 32.3153L49.4051 27.4948L49.2686 23.6289L48.296 19.8905L46.1448 15.2475C46.1448 15.2475 43.4972 12.2137 43.3707 12.3445C43.2443 12.4754 37.9971 8.4668 37.9971 8.4668L34.0497 8.07369L34.0641 7.68372L32.0986 7.87949L30.133 7.68372L30.1475 8.07369L26.1994 8.46711C26.1994 8.46711 20.9519 12.4757 20.8258 12.3449C20.6994 12.214 18.0518 15.2478 18.0518 15.2478L15.9005 19.8908L14.9279 23.6292L14.7918 27.4951L15.497 32.3156C15.497 32.3156 14.8125 35.6879 14.7224 35.9207C14.6321 36.1535 15.497 39.3737 15.497 39.3737L17.0999 42.8777L19.8696 45.1846L21.2268 46.2554L22.4952 47.5427L23.3802 50.7936L25.8289 53.482L27.093 54.4417L28.1214 56.5518L30.411 57.2088L31.9583 57.4228L31.9599 57.4614L32.0989 57.4422L32.2379 57.4614L32.2395 57.4228L33.7868 57.2088L36.0764 56.5518L37.1048 54.4417L38.3689 53.482L40.8176 50.7936L41.7026 47.5427L42.971 46.2554L44.3282 45.1846L47.0979 42.8777L48.7007 39.3737C48.6998 39.3733 49.5648 36.1532 49.4744 35.9204Z" fill="#68DB29"/>
<path d="M15.6929 34.0923C15.6929 34.0923 18.0788 31.4977 22.2167 32.3821C26.3548 33.2665 31.1741 36.8001 31.4175 42.6588L31.6914 42.8774L31.4869 38.6059L30.3245 35.9081L28.4113 34.065C28.4113 34.065 24.1154 29.5754 18.8098 31.1287C13.5043 32.682 15.3057 33.562 15.3057 33.562L14.7881 34.8073" fill="#7CF335"/>
<path d="M32.9551 42.8775C32.9551 42.8775 32.2508 38.8548 36.4159 35.1527C40.5807 31.4507 45.0072 31.9916 46.4356 33.5621L46.194 32.3602L44.2828 30.8019C44.2828 30.8019 40.6814 30.4157 35.9732 33.73C31.265 37.0439 32.4503 40.8109 32.4503 40.8109L32.0977 43.093L32.9551 42.8775Z" fill="#7CF335"/>
<path d="M29.5412 54.1153C29.5412 54.1153 30.0425 53.9468 30.852 53.9851L31.2695 54.0933C31.2695 54.0933 30.4821 54.5075 30.7208 55.5089C30.9602 56.5097 30.6584 57.0791 30.6584 57.0791C30.6581 57.0791 30.6574 57.0788 30.6571 57.0788C28.5717 56.2292 28.1733 54.2066 27.2726 51.1982C26.3715 48.1889 23.4441 46.9151 23.4441 46.9151L23.0127 46.7818L25.1037 46.9985C25.1037 46.9985 27.0727 47.2985 28.2238 46.7312C29.3752 46.164 30.5141 45.9554 30.5141 45.9554C30.5141 45.9554 28.7412 46.9148 28.9084 48.4668C29.0753 50.0186 30.7792 49.8849 30.7792 49.8849L30.8607 50.9362C30.8607 50.9362 30.0149 51.4875 29.587 52.6552C29.587 52.6552 31.7138 52.8996 31.8967 52.9225C31.7699 52.9112 30.8893 52.8324 30.3437 53.1054C29.7752 53.3899 29.5412 54.1153 29.5412 54.1153Z" fill="#7CF335"/>
<path d="M31.9074 52.9244C31.9065 52.9244 31.9059 52.9244 31.9043 52.9241C31.909 52.9244 31.9099 52.9247 31.9074 52.9244Z" fill="#7CF335"/>
<path d="M18.2897 31.0138C18.2897 31.0138 16.21 22.3538 21.316 15.0953C26.422 7.83675 35.7289 8.38766 35.7289 8.38766L29.1267 7.854L22.2387 10.8696L19.0311 13.9172L16.8456 17.2155L15.4244 20.7196L14.582 25.1567L14.6846 28.6081L15.4244 32.6876" fill="#7CF335"/>
<path d="M23.6885 47.9166C23.6885 47.9166 23.6916 47.9354 23.6979 47.9706C23.7672 48.3533 24.2294 50.6793 25.4212 51.9324C25.4212 51.9324 24.9873 50.9535 25.0874 50.0079C25.1875 49.0623 25.4658 48.0167 25.4658 48.0167L24.8873 49.1179C24.8873 49.1179 26.679 49.6183 27.5129 52.0099C28.3468 54.4018 28.6583 51.5873 28.6583 51.5873L27.2123 49.1289L25.2656 47.627" fill="#7CF335"/>
<path d="M27.6815 22.1276C29.006 18.1197 27.81 14.1205 25.01 13.1952C22.21 12.2698 18.8664 14.7687 17.5419 18.7765C16.2173 22.7844 17.4134 26.7836 20.2133 27.709C23.0133 28.6343 26.3569 26.1355 27.6815 22.1276Z" fill="#7CF335"/>
<path d="M21.0208 27.8812C21.0208 27.8812 20.4991 29.8681 23.0764 31.0415C25.6537 32.2148 25.0696 32.6876 25.0696 32.6876L19.2796 31.4139L17.1105 31.3637L16.8447 26.1243L17.0769 24.7728L19.0958 24.4891" fill="#7CF335"/>
<path d="M22.9329 13.1672C22.9329 13.1672 25.1688 11.4319 28.3059 11.4153C28.3059 11.4153 25.3191 12.1494 23.784 16.0542C22.2489 19.9586 20.7471 14.3023 20.7471 14.3023" fill="#7CF335"/>
<path d="M49.6129 25.5574L49.1154 30.7967V32.9753C45.7449 29.4806 41.5732 31.0477 41.5732 31.0477C44.9612 26.3489 42.366 17.9948 42.3412 17.9155C43.4619 19.1914 44.3927 21.4299 44.9775 23.0877C44.4285 18.0667 42.6622 14.6319 40.8184 12.3445C43.508 14.0001 47.0526 16.7459 48.3144 20.2785L48.3997 19.9663L48.7411 20.623L49.6129 25.5574Z" fill="#159F52"/>
<path d="M41.3682 31.1817C41.3682 31.1817 46.0004 30.808 47.4141 36.054L47.1296 37.2211L47.9974 39.0705C47.9974 39.0705 48.3811 39.4947 48.4313 39.4677C48.4815 39.4407 49.5158 37.9944 49.5158 37.9944L49.4067 33.8506C49.4067 33.8506 48.1141 32.3321 48.0808 32.2653C48.0476 32.1985 45.5778 30.2797 45.5778 30.2797L44.9272 30.1464L43.1084 30.5467C43.1084 30.5467 41.3042 31.0154 41.397 31.048" fill="#159F52"/>
<path d="M34.124 43.979C34.124 43.979 38.3764 46.711 42.5239 44.1958C47.2293 41.3423 47.5465 36.3483 45.7278 34.8073C45.7278 34.8073 46.0666 34.8324 46.1281 34.8073C46.1896 34.7822 48.531 36.5701 48.531 36.5701L49.1149 38.1721L47.73 42.0266L44.0757 45.3472C44.0757 45.3472 41.2223 46.465 41.1557 46.4986C41.0889 46.5318 38.6528 46.3317 38.6528 46.3317L36.2116 45.9906L34.765 45.0137L34.124 44.2585L34.1978 43.8958" fill="#159F52"/>
<path d="M34.2884 48.3872C34.2884 48.3872 34.7891 49.4856 33.9888 49.8438C33.2283 50.1842 32.2726 48.192 32.2726 48.192C32.2726 48.192 32.1562 48.8361 32.0568 49.794C32.0169 50.1758 31.9115 50.9786 32.3369 50.9369C32.9148 50.8801 34.1397 51.1531 34.5271 52.6427C34.9149 54.1323 35.9829 53.3815 35.9829 53.3815L36.8506 51.2707L36.375 48.8678L34.9984 48.017L34.2884 48.3872Z" fill="#159F52"/>
<path d="M36.4311 54.3826L35.7914 56.2958C35.7914 56.2958 34.2698 57.0713 34.25 57.0776C34.2296 57.0842 32.2544 57.0691 32.2544 57.0691C32.2544 57.0691 32.5769 56.1013 32.2817 55.5005C32.1634 55.2598 32.1213 55.0201 32.1132 54.8193C32.11 54.7362 32.1643 54.6625 32.2434 54.6371C33.1504 54.3494 33.2806 53.9763 33.2806 53.9763H33.2803C33.3634 53.9083 33.4051 53.8599 33.4051 53.8599L33.0123 53.9349L32.0705 54.1156C32.0705 54.1156 31.9805 54.0152 31.9347 53.897C31.8766 53.7483 31.8885 53.5722 32.2374 53.5349C33.0635 53.4461 33.0327 53.2315 33.3945 52.8143C33.7556 52.397 34.6679 52.5862 34.6679 52.5862C34.6679 52.5862 34.6736 52.6307 34.6679 52.6474C34.6679 52.6681 35.7064 53.4806 35.7133 53.4806C35.7202 53.4806 36.4311 54.3826 36.4311 54.3826Z" fill="#159F52"/>
<path d="M33.0122 53.9346L32.0704 54.1153C32.0704 54.1153 31.9804 54.0149 31.9346 53.8966C31.9942 53.885 32.05 53.8772 32.0974 53.8756C32.3311 53.8672 32.4927 53.8549 32.4927 53.8549L33.0122 53.9346Z" fill="#159F52"/>
<path d="M16.6275 36.359C16.6275 36.359 16.3885 38.2207 18.3239 40.9533C20.8956 44.5838 26.5334 46.9911 30.2712 44.2905L29.5148 44.0765L26.7116 44.5572C26.7116 44.5572 23.152 44.8245 20.66 41.9099C18.1683 38.9953 18.2794 36.5927 18.2794 36.5927L18.9467 34.8073" fill="#159F52"/>
<path d="M16.8457 35.93L17.0004 36.24L18.0677 35.93L18.6186 35.0434L18.346 34.6346" fill="#159F52"/>
<path d="M16.6484 36.3605V36.3182C16.6484 36.3182 16.7153 36.1773 16.7225 36.1669C16.7294 36.1563 16.8611 35.9605 16.8611 35.9605L16.895 35.9207L17.0641 36.0756L17.2718 36.2403" fill="#159F52"/>
<path d="M26.6562 46.0922C26.6562 46.0922 27.9724 45.8927 28.6252 44.6685C29.0817 43.8123 29.9934 43.8675 29.9934 43.8675L29.5818 44.9797L29.3481 45.4469L28.6585 45.9256" fill="#159F52"/>
<path d="M31.4864 47.4494C31.4864 47.4494 31.503 47.1156 31.1359 47.099C30.7688 47.0823 30.0429 47.4704 29.651 48.2526C29.2588 49.0347 30.0181 49.4601 30.452 49.2013C30.8859 48.9428 30.9944 48.342 30.9944 48.342" fill="#159F52"/>
<path d="M33.5606 44.116C33.5606 44.116 32.1479 41.6027 33.0656 38.2432C33.9832 34.8838 36.7024 33.562 36.7024 33.562L32.3145 36.9751L31.6914 38.7104L32.1582 42.3814L32.8927 43.7609L33.421 45.1846L33.5606 44.116Z" fill="#159F52"/>
<path d="M33.8444 44.0764L35.0679 45.0966C35.0679 45.0966 40.8554 46.1812 40.9555 46.1505C41.0556 46.1197 42.4906 46.4146 42.4906 46.4146L41.1723 48.6839L40.1379 49.7685L38.2781 49.8852L35.9163 49.4848L34.8819 48.5672L34.3812 48.4671L34.3112 48.8175C34.3112 48.8175 34.4662 47.8164 33.3716 46.7569C32.1 45.5265 32.0156 42.0264 32.0156 42.0264L32.4614 41.5599L32.784 41.2336C32.784 41.2336 32.8467 42.8911 33.9852 44.7581" fill="#159F52"/>
<path d="M35.5832 48.534L35.7834 50.9369L35.4495 52.9329L35.0684 54.1884L35.4997 54.8112L35.9001 55.1917L38.3695 54.057L39.7693 52.2831C39.7693 52.2831 40.9101 49.7425 40.9255 49.6976C40.9408 49.6528 41.056 48.534 41.056 48.534" fill="#159F52"/>
<path d="M32.2725 48.192C32.2725 48.192 33.3523 49.7789 34.1646 49.2157L34.3632 48.7643L34.5891 48.5757C34.5891 48.5757 34.8812 48.9095 34.8476 49.068C34.8143 49.2264 34.6641 49.5602 34.5721 49.7437C34.4802 49.9273 34.1633 50.1943 34.1633 50.1943H33.5042L33.3708 50.1525L32.962 50.0192" fill="#159F52"/>
<path d="M34.0146 48.3894C34.0146 48.3894 34.249 49.0263 34.2518 49.02C34.2547 49.0137 34.6211 48.812 34.6211 48.812V48.4616L34.2038 48.5337" fill="#159F52"/>
<path d="M35.1776 34.5553C35.1441 34.598 34.0607 35.9652 33.993 36.0766C33.9246 36.1892 32.83 37.1373 32.83 37.1373C32.83 37.1373 32.5799 38.3556 32.5633 38.589C32.5463 38.8227 32.68 40.8918 32.7082 41.0085C32.7362 41.1252 32.8303 42.4266 32.8303 42.4266L32.6301 42.9439L32.4754 42.7409L32.338 42.5608L32.2737 42.4768C32.2634 42.5075 32.2521 42.5376 32.2411 42.5677C32.2213 42.6211 32.1997 42.6738 32.1774 42.7259C31.9295 43.3022 31.5399 43.7979 31.1408 44.1976C30.4167 44.9223 29.6606 45.3305 29.6606 45.3305L29.1765 45.4757L28.6592 45.631C28.6592 45.631 29.1216 45.3866 29.6882 44.9164C30.102 44.5728 30.5714 44.1085 30.9554 43.5309C31.133 43.2642 31.292 42.9731 31.4191 42.659C31.7222 41.9102 31.8433 41.0289 31.5957 40.0243C31.5346 39.7765 31.4677 39.5365 31.3962 39.3049C30.9557 37.3428 30.0951 35.9433 29.3488 35.0363C29.4376 35.0896 29.5254 35.1398 29.6136 35.1868C32.6348 36.8038 35.1205 34.6061 35.1776 34.5553Z" fill="#159F52"/>
<path d="M28.7354 45.956C28.7354 45.956 30.5026 45.055 31.1269 44.5015C32.1983 43.5519 32.4409 44.9354 32.4409 44.9354L32.6507 44.6462L32.7066 43.5114L32.417 42.5548L31.8052 42.5994L28.7354 45.956Z" fill="#159F52"/>
<path d="M28.9939 34.6315L27.9814 33.7235C28.0128 33.7448 28.4398 34.0354 28.9939 34.6315Z" fill="#159F52"/>
<path d="M32.5629 38.8615L32.3869 41.9095L32.2172 42.5696L32.1767 42.7261L31.9402 43.645L31.1402 44.1975L30.0728 44.9345C30.1039 44.9106 30.7935 44.3764 31.2374 43.2212C31.3042 43.048 31.3654 42.8604 31.4184 42.6587C31.6384 41.816 31.7086 40.7223 31.4065 39.3513C31.4031 39.3359 31.3996 39.3202 31.3958 39.3048C30.9554 37.3428 30.0948 35.9432 29.3484 35.0362C29.2273 34.889 29.109 34.7551 28.9961 34.6337L29.6129 35.1868L30.5607 36.0367L32.2078 36.9707L32.5629 38.8615Z" fill="#159F52"/>
<path d="M23.4713 31.344C22.9565 31.041 22.3987 30.8129 21.8145 30.6447C21.2294 30.4809 20.6157 30.379 19.9835 30.3664C19.6673 30.3567 19.3476 30.3743 19.0244 30.4094C18.9438 30.4198 18.8635 30.4323 18.7826 30.4442C18.7019 30.4568 18.6213 30.4731 18.5404 30.4878C18.3791 30.5208 18.2163 30.5559 18.0559 30.6042C17.735 30.6977 17.4131 30.8138 17.1038 30.9675C16.9482 31.0428 16.7954 31.1266 16.6448 31.2166C16.4942 31.307 16.3496 31.4083 16.2065 31.5138C16.1365 31.5683 16.0653 31.622 15.9963 31.6788C15.9291 31.7374 15.8614 31.7961 15.7949 31.856L15.6013 32.0433C15.5392 32.1083 15.478 32.1745 15.4174 32.2413C15.3585 32.3094 15.3017 32.3793 15.244 32.449C15.1878 32.5196 15.1357 32.5933 15.0824 32.6664L15.0039 32.7772L14.965 32.8327L14.9296 32.8904L14.7887 33.1229C14.421 33.7507 14.2118 34.4553 14.1107 35.1496C14.0122 35.848 14.0414 36.5391 14.1393 37.1999C14.2375 37.8622 14.416 38.4953 14.6344 39.102C14.8584 39.7069 15.1225 40.2879 15.4278 40.8414C15.7284 41.3973 16.0672 41.9269 16.4365 42.4314C16.8067 42.9349 17.2029 43.4178 17.6396 43.8595C18.0735 44.3037 18.5441 44.7091 19.0392 45.0768C20.0309 45.8084 21.129 46.3929 22.2979 46.7637C22.3714 46.786 22.4441 46.8092 22.5176 46.8306L22.7387 46.8924C22.8862 46.9322 23.0368 46.9642 23.1852 46.9984C23.2589 47.0163 23.3351 47.0282 23.4104 47.042L23.6357 47.0822C23.7107 47.0953 23.7876 47.1029 23.8628 47.1135C23.9388 47.123 24.0134 47.1342 24.0897 47.1415C24.3946 47.1688 24.6977 47.1888 25.0036 47.1797C25.3076 47.1763 25.6132 47.1459 25.915 47.0922C25.3553 46.9793 24.8037 46.8268 24.2644 46.6401C23.7248 46.4531 23.1987 46.2288 22.6867 45.9766C21.6629 45.4708 20.6966 44.8487 19.8125 44.1259C19.3702 43.7651 18.9466 43.381 18.5466 42.9735C18.1476 42.565 17.7742 42.1318 17.4285 41.6775C16.7389 40.7689 16.1607 39.7687 15.7742 38.6932C15.5815 38.1561 15.4382 37.6002 15.361 37.0345C15.2838 36.4695 15.2716 35.8928 15.3556 35.3275L15.3886 35.116C15.3999 35.0458 15.4187 34.9764 15.4334 34.9068L15.457 34.8023C15.4645 34.7675 15.4724 34.7327 15.4836 34.6988L15.5451 34.4936C15.5561 34.4597 15.5643 34.4249 15.5771 34.3916L15.6151 34.2916L15.6913 34.0914L15.7817 33.8972C15.8121 33.8326 15.8407 33.767 15.8777 33.7058L15.9828 33.5191L16.0092 33.4724L16.039 33.4278L16.0983 33.3387C16.1384 33.2798 16.1761 33.2192 16.2184 33.1615C16.262 33.105 16.3044 33.0476 16.3486 32.9914C16.5274 32.7687 16.7282 32.5641 16.9453 32.379C17.3802 32.0082 17.8818 31.7199 18.413 31.5116C18.6787 31.4071 18.9517 31.3217 19.229 31.2543C19.5067 31.1878 19.7884 31.1388 20.0717 31.105C21.2071 30.9713 22.3616 31.0808 23.4713 31.344Z" fill="black"/>
<path d="M29.8111 56.6101C29.7609 56.6101 28.2406 56.1573 27.5532 53.591C26.9888 51.483 25.8232 51.3873 25.8232 51.3873C25.8232 51.3873 26.6076 51.9213 26.6408 54.2574C26.6408 54.2574 27.2583 54.5576 27.2583 54.8246C27.2583 55.0916 28.047 55.8449 28.047 55.8449" fill="black"/>
<path d="M28.411 56.9269C28.411 56.9269 27.8999 56.6135 26.8734 55.235C25.6344 53.5712 24.7233 53.9066 23.8057 51.7544L26.1085 53.7212L27.1096 54.1237" fill="black"/>
<path d="M15.4241 32.6879L14.534 30.4519L14.3894 30.3518C14.3894 30.3518 14.7009 32.3541 14.3003 34.4231C13.8999 36.4922 14.4336 37.994 14.4336 37.994L15.3456 33.3552" fill="black"/>
<path d="M29.5859 52.6557C29.5859 52.6557 30.2329 52.5117 31.2644 52.8164C32.1222 53.0695 32.7995 52.8305 32.7995 52.8305L32.6662 52.1713L32.4045 51.9881C32.4045 51.9881 32.0296 52.0741 31.5063 51.8708C30.8889 51.6314 30.0697 51.8714 29.5859 52.6557Z" fill="black"/>
<path d="M32.0967 54.1883C32.0967 54.1883 31.6362 54.1664 31.2694 54.0929C30.9023 54.0195 30.6162 53.9022 30.6162 53.9022C30.6162 53.9022 31.1775 53.4473 32.0967 53.484" fill="black"/>
<path d="M30.0408 48.116C29.7654 48.554 29.7607 49.0462 30.0298 49.2156C30.299 49.385 30.7408 49.167 31.0159 48.729C31.2914 48.291 31.6635 47.4311 31.3943 47.262C31.1251 47.0926 30.3163 47.678 30.0408 48.116Z" fill="black"/>
<path d="M26.7285 44.9232C26.5905 44.9232 26.4512 44.9191 26.3106 44.9113C24.6619 44.8172 22.9493 44.1677 21.4876 43.0832C19.9459 41.939 18.7995 40.4051 18.2596 38.7643C17.7124 37.1006 17.8332 35.4761 18.5997 34.1901L19.229 34.5653C18.5727 35.6662 18.4757 37.0761 18.9558 38.5353C19.4486 40.0337 20.5028 41.4398 21.9243 42.4946C23.2724 43.4951 24.8448 44.0934 26.3523 44.1797C27.8162 44.2631 29.1201 43.8606 30.0243 43.0455L30.515 43.5898C29.5534 44.4567 28.2206 44.9232 26.7285 44.9232Z" fill="black"/>
<path d="M26.1242 46.1267C26.6403 46.243 27.1805 46.2876 27.7242 46.2308C27.9956 46.2004 28.2676 46.1461 28.5343 46.0595C28.8013 45.9742 29.0607 45.8515 29.3036 45.694L29.3494 45.6651L29.3933 45.6328L29.4811 45.5679C29.5411 45.5262 29.5944 45.4757 29.6506 45.4283C29.7077 45.3819 29.7579 45.3276 29.8096 45.2746C29.8633 45.2225 29.9081 45.166 29.9543 45.1098C30.0509 45.0003 30.1303 44.878 30.2122 44.7569C30.284 44.6301 30.3602 44.5043 30.4173 44.3697C30.4478 44.3032 30.4785 44.2367 30.5014 44.1674C30.5256 44.0987 30.5519 44.0303 30.5739 43.9609L30.6319 43.7507L30.646 43.698L30.6567 43.6447L30.6777 43.538L30.6988 43.4314C30.7057 43.3956 30.7088 43.3598 30.7132 43.3241C30.721 43.2525 30.7304 43.1807 30.737 43.1092C30.7436 42.9661 30.7546 42.8221 30.7489 42.68C30.7433 42.1077 30.6263 41.5518 30.4559 41.0235C30.4136 40.8911 30.364 40.7615 30.3151 40.6322L30.2354 40.4409L30.1955 40.3452L30.1519 40.2514L30.0644 40.0644C30.0355 40.0019 30.0023 39.942 29.9712 39.8805C29.9395 39.8197 29.9088 39.7582 29.8758 39.6982L29.7745 39.5197C29.2292 38.5704 28.5412 37.7186 27.7588 36.971C27.3672 36.597 26.9518 36.2494 26.5164 35.929C26.0822 35.6068 25.6263 35.3135 25.1548 35.0459C24.2107 34.5151 23.1917 34.0925 22.1112 33.8757C21.5719 33.7659 21.0166 33.7166 20.4594 33.7329C20.3898 33.7335 20.3201 33.7386 20.2505 33.7439L20.0415 33.7596L19.8329 33.7859C19.7981 33.7906 19.7636 33.7944 19.7287 33.8L19.6249 33.8189C19.5559 33.8317 19.4865 33.843 19.4178 33.8578L19.2123 33.9086C19.1436 33.924 19.0762 33.9463 19.0087 33.967L18.9077 33.9993C18.8741 34.0099 18.8406 34.0209 18.8076 34.0344L18.6096 34.1116C18.5438 34.1367 18.4804 34.1712 18.4164 34.2007L18.3207 34.2468C18.2893 34.2631 18.2583 34.2813 18.2272 34.2983C18.1654 34.3331 18.1033 34.3676 18.0434 34.4056L17.8667 34.5245C17.8369 34.5433 17.809 34.5656 17.7814 34.5878L17.6982 34.6543L17.6157 34.7205C17.5891 34.7434 17.5633 34.7682 17.5376 34.7924C17.4868 34.842 17.4341 34.8881 17.3861 34.9398C17.1906 35.1431 17.0291 35.3744 16.8957 35.6147C16.7665 35.8578 16.6727 36.1163 16.624 36.3799C16.7756 36.159 16.9387 35.9563 17.1172 35.775C17.3004 35.5977 17.4877 35.4343 17.6926 35.2978C17.8984 35.1629 18.1114 35.0465 18.3336 34.9505C18.5579 34.8589 18.786 34.7805 19.0213 34.7231C19.2572 34.6688 19.4947 34.6208 19.7378 34.5982L19.8285 34.5875C19.8589 34.5847 19.8894 34.5834 19.9198 34.5812L20.1024 34.5693L20.2862 34.5649C20.3474 34.5631 20.4086 34.5618 20.4701 34.5646L20.6542 34.5684C20.7157 34.57 20.7772 34.5756 20.8387 34.5791C20.9617 34.5847 21.0847 34.5988 21.2077 34.6107C21.2692 34.6158 21.3307 34.6255 21.3918 34.634L21.576 34.6581C21.6984 34.6801 21.8213 34.6983 21.9431 34.7237C22.9194 34.9201 23.8782 35.2649 24.7708 35.7433C25.6643 36.2205 26.4891 36.8326 27.2226 37.5319C27.9545 38.2325 28.6021 39.0275 29.0836 39.9081C29.324 40.3477 29.5285 40.8051 29.676 41.2751C29.8219 41.7447 29.9238 42.2254 29.942 42.7026C29.9514 42.8224 29.9452 42.9404 29.9445 43.0593C29.9411 43.1183 29.9351 43.1766 29.9307 43.2356C29.9276 43.2648 29.9276 43.2946 29.9235 43.3238L29.9113 43.4107L29.8994 43.4979L29.8934 43.5415L29.8843 43.5842L29.8479 43.7555C29.8335 43.8119 29.8153 43.8668 29.7993 43.923C29.7905 43.9506 29.7845 43.9795 29.7732 44.0061L29.7422 44.0874C29.7058 44.1981 29.6521 44.3007 29.6038 44.4071C29.5445 44.5068 29.4921 44.6116 29.4225 44.7058C29.3899 44.7544 29.3579 44.8043 29.3205 44.8469C29.2841 44.8912 29.2506 44.9379 29.2095 44.9787C29.1329 45.0653 29.0473 45.145 28.9572 45.2206C28.5964 45.5265 28.1399 45.7383 27.6558 45.8819L27.4723 45.9328L27.2856 45.9754C27.2232 45.9914 27.1601 46.0021 27.0968 46.0137C27.0334 46.0247 26.9697 46.0388 26.9057 46.046C26.6497 46.0871 26.389 46.1069 26.1242 46.1267Z" fill="black"/>
<path d="M21.0872 34.5567C21.0872 34.5567 18.918 34.4121 18.6733 36.3365L18.373 36.4699L18.3881 35.7542L18.907 34.7123L19.1185 34.5542" fill="black"/>
<path d="M30.156 41.4476L30.2702 43.4113L29.3299 43.9653L27.9824 44.0764C27.9824 44.0764 30.5638 43.8204 29.7127 41.3425" fill="black"/>
<path d="M25.916 32.3821C25.9844 32.4197 26.0512 32.4596 26.1171 32.5013C26.1843 32.5408 26.2495 32.5832 26.3148 32.6255C26.3807 32.6666 26.4443 32.7112 26.508 32.7557C26.5714 32.8006 26.6363 32.843 26.6978 32.8903L26.8864 33.0265C26.9501 33.0707 27.0097 33.1206 27.0715 33.1674L27.255 33.3098L27.4329 33.4594L27.6105 33.6088L27.7837 33.7631L27.9572 33.9172C28.0152 33.968 28.0689 34.0242 28.125 34.0772L28.2925 34.2375C28.3487 34.2905 28.4052 34.3435 28.4579 34.4003L28.7795 34.7345C28.8852 34.8471 28.9862 34.9644 29.0901 35.0793L29.2444 35.2524C29.293 35.3124 29.3414 35.3732 29.3909 35.4325L29.6862 35.7911C29.7778 35.916 29.8716 36.0393 29.9663 36.1619L30.1078 36.3467C30.1539 36.4092 30.196 36.4741 30.2405 36.5378L30.5044 36.9218C30.6823 37.1769 30.8376 37.4467 31.0142 37.7052C30.9991 37.6249 30.9775 37.5477 30.9593 37.4683L30.8934 37.2355C30.8721 37.1571 30.846 37.0812 30.8219 37.004C30.8099 36.9654 30.7961 36.9275 30.7833 36.8892C30.7692 36.8515 30.7538 36.8148 30.739 36.7775C30.6772 36.6297 30.6136 36.4823 30.5458 36.3364C30.5125 36.263 30.4786 36.1899 30.4416 36.1187C30.403 36.0484 30.3654 35.9775 30.3246 35.9084L30.2041 35.6995L30.0793 35.4931C29.9914 35.3585 29.8957 35.2292 29.8032 35.0974C29.7571 35.0313 29.7078 34.9679 29.6601 34.9029L29.5067 34.7163L29.3489 34.533C29.2956 34.4728 29.2454 34.4094 29.1889 34.3517C28.7471 33.882 28.2489 33.4629 27.704 33.1159C27.6365 33.0717 27.5666 33.0309 27.4982 32.9885C27.4273 32.949 27.357 32.9092 27.2851 32.8721L27.1782 32.8157C27.1427 32.7965 27.1069 32.778 27.0696 32.7617C26.9956 32.7281 26.9225 32.6939 26.8484 32.6613C26.7747 32.6287 26.6982 32.5998 26.6225 32.5713C26.5463 32.5433 26.4713 32.5145 26.3919 32.4928C26.3138 32.4696 26.2367 32.4458 26.1573 32.4269C26.077 32.4097 25.9979 32.3912 25.916 32.3821Z" fill="black"/>
<path d="M40.723 31.344C41.2378 31.041 41.7956 30.8129 42.3798 30.6447C42.9649 30.4809 43.5786 30.379 44.2107 30.3664C44.527 30.3567 44.8467 30.3743 45.1698 30.4094C45.2505 30.4198 45.3308 30.4323 45.4117 30.4442C45.4924 30.4568 45.573 30.4731 45.6539 30.4878C45.8152 30.5208 45.978 30.5559 46.1383 30.6042C46.4593 30.6977 46.7812 30.8138 47.0905 30.9675C47.2461 31.0428 47.3989 31.1266 47.5495 31.2166C47.7001 31.307 47.8447 31.4083 47.9878 31.5138C48.0578 31.5683 48.129 31.622 48.198 31.6788C48.2651 31.7374 48.3329 31.7961 48.3994 31.856L48.593 32.0433C48.6551 32.1083 48.7163 32.1745 48.7768 32.2413C48.8358 32.3094 48.8926 32.3793 48.9503 32.449C49.0065 32.5196 49.0586 32.5933 49.1119 32.6664L49.1903 32.7772L49.2292 32.8327L49.2647 32.8904L49.4056 33.1229C49.7733 33.7507 49.9825 34.4553 50.0835 35.1496C50.182 35.848 50.1529 36.5391 50.055 37.1999C49.9568 37.8622 49.7783 38.4953 49.5599 39.102C49.3359 39.7069 49.0717 40.2879 48.7665 40.8414C48.4659 41.3973 48.1271 41.9269 47.7578 42.4314C47.3876 42.9349 46.9914 43.4178 46.5547 43.8595C46.1208 44.3037 45.6502 44.7091 45.1551 45.0768C44.1634 45.8084 43.0653 46.3929 41.8963 46.7637C41.8229 46.786 41.7501 46.8092 41.6767 46.8306L41.4555 46.8924C41.3081 46.9322 41.1575 46.9642 41.0091 46.9984C40.9354 47.0163 40.8591 47.0282 40.7838 47.042L40.5586 47.0822C40.4836 47.0953 40.4067 47.1029 40.3314 47.1135C40.2555 47.123 40.1808 47.1342 40.1046 47.1415C39.7997 47.1688 39.4966 47.1888 39.1907 47.1797C38.8867 47.1763 38.5811 47.1459 38.2793 47.0922C38.839 46.9793 39.3905 46.8268 39.9299 46.6401C40.4695 46.4531 40.9956 46.2288 41.5076 45.9766C42.5313 45.4708 43.4976 44.8487 44.3817 44.1259C44.8241 43.7651 45.2476 43.381 45.6477 42.9735C46.0467 42.565 46.4201 42.1318 46.7658 41.6775C47.4554 40.7689 48.0336 39.7687 48.4201 38.6932C48.6127 38.1561 48.7561 37.6002 48.8333 37.0345C48.9105 36.4695 48.9227 35.8928 48.8386 35.3275L48.8057 35.116C48.7944 35.0458 48.7756 34.9764 48.7608 34.9068L48.7373 34.8023C48.7298 34.7675 48.7219 34.7327 48.7106 34.6988L48.6491 34.4936C48.6382 34.4597 48.63 34.4249 48.6171 34.3916L48.5792 34.2916L48.5029 34.0914L48.4126 33.8972C48.3822 33.8326 48.3536 33.767 48.3166 33.7058L48.2115 33.5191L48.1851 33.4724L48.1553 33.4278L48.096 33.3387C48.0559 33.2798 48.0182 33.2192 47.9759 33.1615C47.9323 33.105 47.8899 33.0476 47.8457 32.9914C47.6668 32.7687 47.466 32.5641 47.2489 32.379C46.8141 32.0082 46.3125 31.7199 45.7813 31.5116C45.5156 31.4071 45.2426 31.3217 44.9653 31.2543C44.6876 31.1878 44.4059 31.1388 44.1226 31.105C42.9869 30.9713 41.8323 31.0808 40.723 31.344Z" fill="black"/>
<path d="M34.3818 56.6101C34.432 56.6101 35.9524 56.1573 36.6398 53.591C37.2042 51.483 38.3697 51.3873 38.3697 51.3873C38.3697 51.3873 37.5854 51.9213 37.5521 54.2574C37.5521 54.2574 36.9347 54.5576 36.9347 54.8246C36.9347 55.0916 36.146 55.8449 36.146 55.8449" fill="black"/>
<path d="M35.7832 56.9269C35.7832 56.9269 36.2943 56.6135 37.3208 55.235C38.5597 53.5712 39.4708 53.9066 40.3885 51.7544L38.0857 53.7212L37.0846 54.1237" fill="black"/>
<path d="M48.7705 32.6879L49.6606 30.4519L49.8052 30.3518C49.8052 30.3518 49.4937 32.3541 49.8943 34.4231C50.2946 36.4922 49.761 37.994 49.761 37.994L48.8489 33.3552" fill="black"/>
<path d="M34.6081 52.6557C34.6081 52.6557 33.9612 52.5117 32.9296 52.8164C32.0719 53.0695 31.3945 52.8305 31.3945 52.8305L31.5279 52.1713L31.7895 51.9881C31.7895 51.9881 32.1644 52.0741 32.6877 51.8708C33.3052 51.6314 34.1243 51.8714 34.6081 52.6557Z" fill="black"/>
<path d="M32.0977 54.1883C32.0977 54.1883 32.5582 54.1664 32.925 54.0929C33.292 54.0195 33.5782 53.9022 33.5782 53.9022C33.5782 53.9022 33.0169 53.4473 32.0977 53.484" fill="black"/>
<path d="M34.1547 48.116C34.4301 48.554 34.4348 49.0463 34.1657 49.2157C33.8965 49.3851 33.4547 49.1671 33.1796 48.7291C32.9041 48.2911 32.532 47.4312 32.8012 47.2621C33.0704 47.0926 33.8795 47.6781 34.1547 48.116Z" fill="black"/>
<path d="M37.4652 44.9232C35.973 44.9232 34.6406 44.4567 33.6787 43.5898L34.1694 43.0455C35.0736 43.8606 36.3774 44.2634 37.8413 44.1797C39.3488 44.0934 40.9213 43.4951 42.2694 42.4946C43.6909 41.4398 44.745 40.0337 45.2379 38.5353C45.7179 37.0761 45.6207 35.6662 44.9647 34.5653L45.594 34.1901C46.3605 35.4761 46.4812 37.1006 45.9341 38.7643C45.3945 40.4051 44.2481 41.939 42.7061 43.0832C41.2444 44.1677 39.5317 44.8172 37.8831 44.9113C37.7425 44.9194 37.6032 44.9232 37.4652 44.9232Z" fill="black"/>
<path d="M38.0697 46.1267C37.5536 46.243 37.0133 46.2876 36.4696 46.2308C36.1983 46.2004 35.9262 46.1461 35.6596 46.0595C35.3926 45.9742 35.1331 45.8515 34.8903 45.694L34.8445 45.6651L34.8006 45.6328L34.7127 45.5679C34.6528 45.5262 34.5995 45.4757 34.5433 45.4283C34.4862 45.3819 34.436 45.3276 34.3842 45.2746C34.3306 45.2225 34.2857 45.166 34.2396 45.1098C34.143 45.0003 34.0636 44.878 33.9817 44.7569C33.9099 44.6301 33.8336 44.5043 33.7765 44.3697C33.7461 44.3032 33.7154 44.2367 33.6925 44.1674C33.6683 44.0987 33.6419 44.0303 33.62 43.9609L33.5619 43.7507L33.5478 43.698L33.5372 43.6447L33.5161 43.538L33.4951 43.4314C33.4882 43.3956 33.4851 43.3598 33.4807 43.3241C33.4728 43.2525 33.4634 43.1807 33.4568 43.1092C33.4503 42.9661 33.4393 42.8221 33.4449 42.68C33.4506 42.1077 33.5676 41.5518 33.738 41.0235C33.7803 40.8911 33.8299 40.7615 33.8788 40.6322L33.9585 40.4409L33.9983 40.3452L34.042 40.2514L34.1295 40.0644C34.1584 40.0019 34.1916 39.942 34.2227 39.8805C34.2544 39.8197 34.2851 39.7582 34.318 39.6982L34.4194 39.5197C34.9646 38.5704 35.6527 37.7186 36.4351 36.971C36.8267 36.597 37.242 36.2494 37.6775 35.929C38.1117 35.6068 38.5676 35.3135 39.0391 35.0459C39.9831 34.5151 41.0021 34.0925 42.0826 33.8757C42.622 33.7659 43.1773 33.7166 43.7344 33.7329C43.8041 33.7335 43.8737 33.7386 43.9434 33.7439L44.1523 33.7596L44.361 33.7859C44.3958 33.7906 44.4303 33.7944 44.4651 33.8L44.569 33.8189C44.638 33.8317 44.7073 33.843 44.776 33.8578L44.9815 33.9086C45.0502 33.924 45.1177 33.9463 45.1852 33.967L45.2862 33.9993C45.3197 34.0099 45.3533 34.0209 45.3863 34.0344L45.5842 34.1116C45.6501 34.1367 45.7135 34.1712 45.7775 34.2007L45.8732 34.2468C45.9045 34.2631 45.9356 34.2813 45.9667 34.2983C46.0285 34.3331 46.0906 34.3676 46.1505 34.4056L46.3271 34.5245C46.357 34.5433 46.3849 34.5656 46.4125 34.5878L46.4956 34.6543L46.5781 34.7205C46.6048 34.7434 46.6305 34.7682 46.6563 34.7924C46.7071 34.842 46.7598 34.8881 46.8078 34.9398C47.0032 35.1431 47.1648 35.3744 47.2982 35.6147C47.4274 35.8578 47.5212 36.1163 47.5698 36.3799C47.4183 36.159 47.2552 35.9563 47.0767 35.775C46.8934 35.5977 46.7061 35.4343 46.5013 35.2978C46.2955 35.1629 46.0824 35.0465 45.8603 34.9505C45.636 34.8589 45.4079 34.7805 45.1726 34.7231C44.9367 34.6688 44.6992 34.6208 44.456 34.5982L44.3654 34.5875C44.3349 34.5847 44.3045 34.5834 44.2741 34.5812L44.0915 34.5693L43.9076 34.5649C43.8465 34.5631 43.7853 34.5618 43.7238 34.5646L43.5396 34.5684C43.4781 34.57 43.4166 34.5756 43.3551 34.5791C43.2322 34.5847 43.1092 34.5988 42.9862 34.6107C42.9247 34.6158 42.8632 34.6255 42.802 34.634L42.6179 34.6581C42.4955 34.6801 42.3725 34.6983 42.2508 34.7237C41.2745 34.9201 40.3157 35.2649 39.4231 35.7433C38.5296 36.2205 37.7048 36.8326 36.9713 37.5319C36.2394 38.2325 35.5918 39.0275 35.1102 39.9081C34.8699 40.3477 34.6653 40.8051 34.5179 41.2751C34.372 41.7447 34.27 42.2254 34.2518 42.7026C34.2424 42.8224 34.2487 42.9404 34.2493 43.0593C34.2528 43.1183 34.2587 43.1766 34.2631 43.2356C34.2663 43.2648 34.2663 43.2946 34.2704 43.3238L34.2826 43.4107L34.2945 43.4979L34.3005 43.5415L34.3096 43.5842L34.346 43.7555C34.3604 43.8119 34.3786 43.8668 34.3946 43.923C34.4034 43.9506 34.4093 43.9795 34.4206 44.0061L34.4517 44.0874C34.4881 44.1981 34.5417 44.3007 34.5901 44.4071C34.6493 44.5068 34.7017 44.6116 34.7714 44.7058C34.804 44.7544 34.836 44.8043 34.8734 44.8469C34.9097 44.8912 34.9433 44.9379 34.9844 44.9787C35.061 45.0653 35.1466 45.145 35.2367 45.2206C35.5974 45.5265 36.0539 45.7383 36.538 45.8819L36.7216 45.9328L36.9082 45.9754C36.9707 45.9914 37.0337 46.0021 37.0971 46.0137C37.1605 46.0247 37.2242 46.0388 37.2882 46.046C37.5442 46.0871 37.8052 46.1069 38.0697 46.1267Z" fill="black"/>
<path d="M43.1094 34.557C43.1094 34.557 45.2785 34.4123 45.5232 36.3368L45.8235 36.4701L45.8084 35.7545L45.2895 34.7126L45.0781 34.5544" fill="black"/>
<path d="M34.038 41.4475L33.9238 43.4112L34.8641 43.9652L36.2116 44.0763C36.2116 44.0763 33.6302 43.8203 34.4813 41.3424" fill="black"/>
<path d="M38.2779 32.3818C38.2095 32.4195 38.1426 32.4593 38.0768 32.5011C38.0096 32.5406 37.9444 32.5829 37.8791 32.6253C37.8132 32.6664 37.7495 32.7109 37.6858 32.7555C37.6225 32.8004 37.5575 32.8427 37.496 32.8901L37.3075 33.0262C37.2438 33.0705 37.1842 33.1204 37.1224 33.1671L36.9388 33.3095L36.761 33.4592L36.5834 33.6085L36.4102 33.7629L36.2367 33.9169C36.1787 33.9678 36.125 34.0239 36.0689 34.0769L35.9013 34.2373C35.8452 34.2903 35.7887 34.3433 35.736 34.4001L35.4144 34.7342C35.3087 34.8468 35.2077 34.9642 35.1038 35.079L34.9495 35.2522C34.9008 35.3121 34.8525 35.373 34.8029 35.4323L34.5077 35.7909C34.4161 35.9157 34.3223 36.039 34.2276 36.1617L34.0861 36.3465C34.0399 36.4089 33.9979 36.4739 33.9534 36.5376L33.6895 36.9216C33.5116 37.1766 33.3563 37.4464 33.1797 37.705C33.1947 37.6246 33.2164 37.5475 33.2346 37.4681L33.3005 37.2353C33.3218 37.1569 33.3478 37.0809 33.372 37.0038C33.3839 36.9652 33.3977 36.9272 33.4106 36.8889C33.4247 36.8513 33.4401 36.8146 33.4548 36.7772C33.5166 36.6295 33.5803 36.482 33.6481 36.3361C33.6813 36.2627 33.7152 36.1896 33.7523 36.1184C33.7908 36.0481 33.8285 35.9772 33.8693 35.9082L33.9897 35.6993L34.1146 35.4928C34.2025 35.3582 34.2981 35.229 34.3907 35.0972C34.4368 35.031 34.4861 34.9676 34.5338 34.9027L34.6872 34.716L34.845 34.5328C34.8983 34.4726 34.9485 34.4092 35.005 34.3515C35.4467 33.8818 35.9449 33.4626 36.4899 33.1157C36.5573 33.0714 36.6273 33.0306 36.6957 32.9883C36.7666 32.9488 36.8369 32.9089 36.9087 32.8719L37.0157 32.8154C37.0512 32.7963 37.0869 32.7778 37.1243 32.7615C37.1983 32.7279 37.2714 32.6937 37.3454 32.6611C37.4192 32.6284 37.4957 32.5996 37.5713 32.571C37.6476 32.5431 37.7226 32.5142 37.8019 32.4926C37.88 32.4694 37.9572 32.4455 38.0366 32.4267C38.1169 32.4094 38.1963 32.3909 38.2779 32.3818Z" fill="black"/>
<path d="M32.078 57.9999C31.8471 57.9999 30.3186 57.9733 28.9862 57.2962C27.628 56.606 26.972 55.2397 26.7508 54.6781C25.5693 54.1536 24.6366 53.3652 23.9046 52.2746C23.2332 51.2741 22.8445 50.1757 22.5528 49.233C21.8952 47.108 19.8273 45.4813 19.8066 45.4653L20.4671 44.6136C20.5627 44.6879 22.8226 46.4593 23.5824 48.9142C23.851 49.7823 24.2058 50.7888 24.7997 51.6738C25.4539 52.6483 26.2978 53.3357 27.3805 53.7746L27.6186 53.8712L27.6933 54.1172C27.6977 54.1313 28.1918 55.6836 29.4744 56.3356C30.6471 56.9314 32.0771 56.9216 32.0915 56.9223H32.0984H32.1059C32.1194 56.9216 33.5494 56.9314 34.7222 56.3356C36.0047 55.684 36.4985 54.1316 36.5036 54.1159L36.5792 53.8722L36.816 53.7749C37.8987 53.336 38.743 52.6486 39.3968 51.6741C39.9907 50.7891 40.3455 49.7823 40.6141 48.9145C41.3777 46.4473 43.988 44.5746 44.0987 44.4962L44.7221 45.3753L44.4106 44.9358L44.7224 45.375C44.6983 45.3922 42.2979 47.1187 41.6438 49.233C41.352 50.1754 40.9633 51.2741 40.2919 52.2746C39.5599 53.3655 38.6272 54.1536 37.4457 54.6781C37.2245 55.2397 36.5685 56.6063 35.2103 57.2962C33.829 57.9981 32.2371 58.0009 32.0984 57.9999C32.0934 57.9999 32.0865 57.9999 32.078 57.9999Z" fill="black"/>
<path d="M15.0623 33.1591C14.3573 31.0414 14 28.8164 14 26.5456C14 23.9128 14.4766 21.358 15.4162 18.9523C16.3248 16.6263 17.6264 14.5365 19.2842 12.7413C20.9458 10.943 22.8812 9.53058 25.0372 8.54294C27.2731 7.51892 29.6484 7 32.0971 7C34.5458 7 36.9211 7.51923 39.1571 8.54294C41.313 9.53026 43.2485 10.9427 44.9097 12.7413C46.5678 14.5365 47.8691 16.626 48.778 18.9523C49.7177 21.358 50.1942 23.9128 50.1942 26.5456C50.1942 28.7418 49.8595 30.8977 49.1994 32.9536L48.0913 32.5979C48.7147 30.6571 49.0306 28.621 49.0306 26.5456C49.0306 24.0583 48.581 21.646 47.6941 19.3759C46.8385 17.1857 45.614 15.2192 44.0551 13.531C42.499 11.8462 40.6881 10.5242 38.673 9.60117C36.5901 8.64742 34.378 8.16364 32.0977 8.16364C29.8175 8.16364 27.6051 8.6471 25.5225 9.60117C23.5071 10.5242 21.6965 11.8462 20.1404 13.531C18.5815 15.2189 17.357 17.1854 16.5014 19.3759C15.6145 21.646 15.1649 24.0583 15.1649 26.5456C15.1649 28.6912 15.5022 30.7926 16.1676 32.7917L15.0623 33.1591Z" fill="black"/>
<path d="M34.1968 41.6427L35.6321 38.3278L39.1249 35.2131L42.49 34.173C42.49 34.173 44.5544 34.0573 44.721 34.1903C44.8873 34.3233 45.8598 34.9505 45.8598 34.9505C45.8598 34.9505 45.831 36.4589 45.8598 36.5926C45.8887 36.7259 45.8219 37.9943 45.8219 37.9943L45.2148 40.1271L42.7517 42.7097L40.3488 44.2558L38.2778 44.4961H35.8549L34.3091 43.5847L33.9238 43.0934" fill="black"/>
<path d="M18.6193 35.0434L18.3633 37.44C18.3633 37.44 18.5242 39.7293 20.2598 41.4872C21.9951 43.2447 24.8206 44.2556 24.8206 44.2556C24.8206 44.2556 27.4675 44.7553 28.6585 44.2556C29.8494 43.7558 30.0257 43.0458 30.0257 43.0458L29.9934 41.7764L29.4484 39.4689L27.4553 37.4403L25.6218 35.9209L23.6889 34.8075L21.7952 34.1907H19.6148" fill="black"/>
<path d="M41.7807 41.7368C44.0959 40.014 45.2465 37.6416 44.3506 36.4377C43.4548 35.2338 40.8518 35.6545 38.5367 37.3772C36.2215 39.0999 35.0709 41.4724 35.9667 42.6763C36.8625 43.8801 39.4655 43.4595 41.7807 41.7368Z" fill="black"/>
<path d="M28.2296 42.6767C29.1254 41.4728 27.9748 39.1003 25.6596 37.3776C23.3445 35.6549 20.7415 35.2343 19.8456 36.4381C18.9498 37.642 20.1004 40.0145 22.4156 41.7372C24.7307 43.4599 27.3337 43.8805 28.2296 42.6767Z" fill="black"/>
</g>
<defs>
<clipPath id="clip0_538_1669">
<rect width="64" height="64" fill="white"/>
</clipPath>
</defs>
</svg>
