<svg xmlns="http://www.w3.org/2000/svg" width="64" height="64" viewBox="0 0 64 64"><g transform="translate(-8528.947 -692.496)"><circle cx="32" cy="32" r="32" transform="translate(8528.947 692.496)"/><g transform="translate(7509.66 189.982)"><g transform="translate(1031.524 516.449)"><g transform="translate(0 0)"><path d="M1037.641,536.272l5.3,0,5.673-4.385h9.634l-1.429,4.385h4.286l1.42-4.385h4.829l3.592-2.782h-7.509l4.122-12.659h-4.291l-16.361,12.659h-6.468l1.784-5.479-10.683,8.261h11.768Zm23.847-14.34-2.332,7.176h-6.945Z" transform="translate(-1031.537 -516.449)" fill="#fff"/><path d="M1127.381,787.6h.329v-1.023h1.159v-.3h-1.159v-.694h1.265v-.3h-1.594Z" transform="translate(-1116.835 -755.709)" fill="#fff"/><path d="M1151.115,785.56h.577v2.028h.33v-2.312h-.907Z" transform="translate(-1137.958 -755.7)" fill="#fff"/><path d="M1169.037,784.65a.4.4,0,1,0,.4.4.379.379,0,0,0-.4-.4m0,.731a.331.331,0,1,1,.325-.33.311.311,0,0,1-.325.33" transform="translate(-1153.552 -755.143)" fill="#fff"/><path d="M1171.106,786.45c0-.088-.058-.133-.17-.133h-.175v.435h.1v-.162h.06l.092.162h.1l-.1-.178a.12.12,0,0,0,.092-.124m-.166.062h-.082V786.4h.082c.046,0,.066.022.066.056s-.021.06-.066.06" transform="translate(-1155.443 -756.627)" fill="#fff"/><path d="M1193.566,785.573h.8v2.014h.329v-2.014h.8v-.3h-1.926Z" transform="translate(-1175.739 -755.7)" fill="#fff"/><path d="M1220.951,787.6h1.594v-.3h-1.264v-.725h1.159v-.3h-1.159v-.694h1.264v-.3h-1.594Z" transform="translate(-1200.111 -755.709)" fill="#fff"/><path d="M1245.025,785.288l-.823,2.311h.35l.21-.606h1l.209.606h.35l-.826-2.311Zm-.158,1.408.4-1.142.4,1.142Z" transform="translate(-1220.803 -755.711)" fill="#fff"/><path d="M1274.747,787.343l-.658-2.062h-.564v2.311h.33v-2l.641,2h.5l.648-2.028v2.028h.33v-2.311h-.571Z" transform="translate(-1246.9 -755.705)" fill="#fff"/><path d="M1031.524,731.9h1.079l.57-.644h3.1l.571.644h1.08l-3.2-3.493Zm2.2-1.253,1-1.127,1,1.127Z" transform="translate(-1031.524 -705.083)" fill="#fff"/><path d="M1236.9,729.384h-.914v3.387h.914Z" transform="translate(-1213.492 -705.957)" fill="#fff"/><path d="M1275.395,731.458l-3.783-2.09h-.924v3.387h.847v-2.5l4.717,2.6v-3.483h-.856Z" transform="translate(-1244.375 -705.943)" fill="#fff"/><path d="M1108.441,729.384h-.915v3.387h4.157l.256-.609h-3.5Z" transform="translate(-1099.165 -705.957)" fill="#fff"/><path d="M1348.567,732.157v-.808h3.711v-.609h-3.711v-.75h3.711v-.609h-4.625v3.387h4.577l.17-.609Z" transform="translate(-1312.873 -705.954)" fill="#fff"/><path d="M1169.014,729.383H1165.1v3.387h.914v-1.132h2.956c1.1,0,1.524-.46,1.524-1.142,0-.658-.465-1.113-1.481-1.113m-.218,1.645h-2.782v-1.035h2.777c.551,0,.721.169.721.528,0,.314-.237.507-.716.507" transform="translate(-1150.404 -705.957)" fill="#fff"/></g><path d="M1178.787,839.58l-.734.58h2.652l.734-.58Z" transform="translate(-1161.933 -804.03)" fill="#2173b8"/><path d="M1202.893,839.58l-.734.58h1.237l.733-.58Z" transform="translate(-1183.387 -804.03)" fill="#fffffd"/><path d="M1214.149,839.58l-.734.58h2.661l.734-.58Z" transform="translate(-1193.404 -804.03)" fill="#e12319"/></g></g></g></svg>