<svg width="64" height="64" viewBox="0 0 64 64" fill="none" xmlns="http://www.w3.org/2000/svg">
<g clip-path="url(#clip0_40_23846)">
<path d="M32 64C49.6731 64 64 49.6731 64 32C64 14.3269 49.6731 0 32 0C14.3269 0 0 14.3269 0 32C0 49.6731 14.3269 64 32 64Z" fill="black"/>
<path d="M18.3413 33.7581H23.6414L29.3143 29.3732H38.9484L37.5193 33.7581H41.8053L43.2253 29.3732H48.0543L51.6464 26.5911H44.1373L48.2593 13.9321H43.9683L27.6073 26.5911H21.1393L22.9233 21.1121L12.2404 29.3732H24.0083L18.3413 33.7581ZM42.1884 19.4182L39.8563 26.5941H32.9114L42.1884 19.4182Z" fill="white"/>
<path d="M22.7832 45.8262H23.1122V44.8033H24.2712V44.5032H23.1122V43.8093H24.3772V43.5093H22.7832V45.8262Z" fill="white"/>
<path d="M25.3943 43.7952H25.9713V45.8232H26.3013V43.5112H25.3943V43.7952Z" fill="white"/>
<path d="M27.7223 43.4423C27.6432 43.4423 27.5659 43.4657 27.5001 43.5097C27.4343 43.5536 27.383 43.6161 27.3528 43.6892C27.3225 43.7622 27.3145 43.8427 27.3299 43.9203C27.3454 43.9979 27.3835 44.0691 27.4394 44.1251C27.4954 44.181 27.5667 44.2191 27.6443 44.2346C27.7219 44.25 27.8023 44.2421 27.8753 44.2118C27.9484 44.1815 28.011 44.1302 28.0549 44.0645C28.0989 43.9987 28.1223 43.9213 28.1223 43.8422C28.1253 43.7889 28.117 43.7355 28.098 43.6856C28.079 43.6357 28.0497 43.5904 28.0119 43.5526C27.9742 43.5149 27.9288 43.4855 27.8789 43.4665C27.829 43.4475 27.7756 43.4392 27.7223 43.4423ZM27.7223 44.1732C27.6565 44.1744 27.592 44.156 27.5367 44.1203C27.4815 44.0846 27.438 44.0333 27.4121 43.9729C27.3861 43.9125 27.3788 43.8457 27.391 43.7811C27.4031 43.7164 27.4343 43.6569 27.4804 43.6101C27.5266 43.5632 27.5857 43.5312 27.6501 43.518C27.7146 43.5049 27.7814 43.5112 27.8423 43.5362C27.9031 43.5612 27.955 43.6038 27.9916 43.6585C28.0281 43.7131 28.0475 43.7775 28.0473 43.8433C28.0501 43.8869 28.0435 43.9306 28.0282 43.9715C28.0129 44.0124 27.9891 44.0497 27.9585 44.0808C27.9278 44.112 27.8909 44.1362 27.8502 44.1522C27.8095 44.1681 27.7659 44.1753 27.7223 44.1732Z" fill="white"/>
<path d="M27.9003 43.7582C27.9003 43.6702 27.8423 43.6252 27.7303 43.6252H27.5553V44.0602H27.6553V43.8983H27.7153L27.8073 44.0602H27.9073L27.8073 43.8822C27.8347 43.8757 27.859 43.8597 27.8759 43.837C27.8927 43.8143 27.902 43.7864 27.9003 43.7582ZM27.7333 43.8203H27.6514V43.7083H27.7333C27.7793 43.7083 27.7993 43.7302 27.7993 43.7642C27.7993 43.7982 27.7783 43.8242 27.7333 43.8242" fill="white"/>
<path d="M30.0643 43.808H30.8643V45.822H31.1932V43.808H31.9933V43.5081H30.0673L30.0643 43.808Z" fill="white"/>
<path d="M33.0773 45.826H34.6713V45.5261H33.4072V44.8011H34.5662V44.5011H33.4072V43.8071H34.6713V43.5071H33.0773V45.826Z" fill="white"/>
<path d="M36.4592 43.5122L35.6362 45.8232H35.9862L36.1962 45.2172H37.1962L37.4052 45.8232H37.7552L36.9292 43.5122H36.4592ZM36.3011 44.9202L36.7012 43.7782L37.1012 44.9202H36.3011Z" fill="white"/>
<path d="M40.0842 45.5732L39.4263 43.5112H38.8623V45.8222H39.1923V43.8222L39.8333 45.8222H40.3333L40.9813 43.7943V45.8222H41.3113V43.5112H40.7402L40.0842 45.5732Z" fill="white"/>
<path d="M12.2373 40.7521H13.3163L13.8862 40.108H16.9862L17.5573 40.7521H18.6372L15.4373 37.259L12.2373 40.7521ZM14.4373 39.499L15.4373 38.3721L16.4373 39.499H14.4373Z" fill="white"/>
<path d="M35.6453 37.3621H34.7312V40.7491H35.6453V37.3621Z" fill="white"/>
<path d="M43.2573 39.4501L39.4744 37.3601H38.5503V40.7471H39.3973V38.2471L44.1143 40.8471V37.3641H43.2583L43.2573 39.4501Z" fill="white"/>
<path d="M21.5133 37.3621H20.5983V40.7491H24.7552L25.0112 40.1401H21.5112L21.5133 37.3621Z" fill="white"/>
<path d="M47.9313 40.1381V39.3301H51.6422V38.7211H47.9313V37.9711H51.6422V37.3621H47.0172V40.7491H51.5942L51.7643 40.1401L47.9313 40.1381Z" fill="white"/>
<path d="M30.8473 37.3611H26.9332V40.7481H27.8473V39.6161H30.8032C31.9032 39.6161 32.3273 39.1561 32.3273 38.4741C32.3273 37.8161 31.8622 37.3611 30.8462 37.3611M30.6283 39.0061H27.8462V37.9711H30.6233C31.1743 37.9711 31.3442 38.1401 31.3442 38.4991C31.3442 38.8131 31.1073 39.0061 30.6283 39.0061Z" fill="white"/>
<path d="M29.0912 49.4851L28.3572 50.0651H31.0092L31.7432 49.4851H29.0912Z" fill="#2173B8"/>
<path d="M31.7432 49.4851L31.0093 50.0651H32.2462L32.9792 49.4851H31.7432Z" fill="#FFFFFD"/>
<path d="M32.9823 49.4851L32.2483 50.0651H34.9093L35.6433 49.4851H32.9823Z" fill="#E12319"/>
</g>
<defs>
<clipPath id="clip0_40_23846">
<rect width="64" height="64" fill="white"/>
</clipPath>
</defs>
</svg>
