<svg width="64" height="64" viewBox="0 0 64 64" fill="none" xmlns="http://www.w3.org/2000/svg">
<g clip-path="url(#clip0_40_23870)">
<path d="M32 64C49.6731 64 64 49.6731 64 32C64 14.3269 49.6731 0 32 0C14.3269 0 0 14.3269 0 32C0 49.6731 14.3269 64 32 64Z" fill="#0A113A"/>
<path d="M46.905 45.9281C51.699 39.1751 51.731 31.5651 51.764 24.3501V16.6691H45.396V14.6581C45.42 13.2221 45.2279 12.5511 43.4279 12.0301C39.7129 10.9566 35.865 10.4123 31.998 10.4131C28.1281 10.4124 24.2776 10.9575 20.56 12.0321C18.768 12.5511 18.577 13.2221 18.601 14.6581V16.6691H12.236V24.3531C12.27 31.5681 12.3019 39.1771 17.0959 45.9311C22.3429 53.3231 31.996 55.5921 31.996 55.5921C31.996 55.5921 41.658 53.3201 46.905 45.9281Z" fill="#0A113A"/>
<path d="M32 25.4271C34.3977 25.4107 36.7893 25.1855 39.1479 24.7541C40.2917 24.5833 41.4231 24.3382 42.535 24.0201C43.299 23.7961 43.335 23.7201 43.335 22.9341V14.9211C43.335 14.2091 43.2349 14.1211 42.5959 13.9311C41.7289 13.6751 40.765 13.4481 39.662 13.2311C37.138 12.7282 34.5706 12.475 31.9969 12.4751C29.422 12.4748 26.8533 12.728 24.328 13.2311C23.228 13.4511 22.264 13.6781 21.397 13.9311C20.76 14.1201 20.658 14.2091 20.658 14.9211V22.9341C20.658 23.7181 20.6979 23.7961 21.4579 24.0201C22.5698 24.3382 23.7012 24.5834 24.845 24.7541C27.2036 25.1855 29.5953 25.4106 31.993 25.4271H32ZM36.334 18.0901C36.334 18.9473 36.0798 19.7852 35.6035 20.498C35.1273 21.2107 34.4504 21.7662 33.6585 22.0942C32.8666 22.4222 31.9952 22.508 31.1544 22.3408C30.3137 22.1736 29.5415 21.7608 28.9354 21.1547C28.3292 20.5486 27.9165 19.7764 27.7492 18.9356C27.582 18.0949 27.6678 17.2235 27.9958 16.4315C28.3239 15.6396 28.8794 14.9627 29.5921 14.4865C30.3049 14.0103 31.1428 13.7561 32 13.7561C33.1494 13.7561 34.2518 14.2127 35.0645 15.0255C35.8773 15.8383 36.334 16.9407 36.334 18.0901Z" fill="#FFDF00"/>
<path d="M19.757 17.8162H13.3849V24.3602C13.4179 31.4602 13.452 38.8112 18.032 45.2602C22.487 51.5362 30.455 53.9752 32 54.3992C33.545 53.9752 41.513 51.5372 45.968 45.2602C50.548 38.8082 50.582 31.4602 50.615 24.3602V17.8162H44.2509V17.7582V14.7762C44.303 14.3869 44.2331 13.9911 44.051 13.6432C43.7998 13.3779 43.4711 13.199 43.112 13.1322C42.038 12.8082 40.9449 12.5542 39.8459 12.3322C37.2634 11.8172 34.6364 11.5583 32.003 11.5592C29.3692 11.5582 26.7418 11.8171 24.159 12.3322C23.059 12.5522 21.9669 12.8062 20.8929 13.1322C20.5338 13.199 20.2051 13.3779 19.9539 13.6432C19.7718 13.9911 19.7019 14.3869 19.754 14.7762V17.7582L19.757 17.8162ZM45.0139 17.0502H51.381V24.3642C51.347 31.5882 51.3129 39.0572 46.5919 45.7072C41.7449 52.5352 32.941 54.9532 31.999 55.1952C31.057 54.9532 22.2529 52.5362 17.4059 45.7072C12.6859 39.0572 12.6509 31.5872 12.6169 24.3632V17.0492H18.9839C18.9839 17.0492 18.9839 14.4492 18.9839 14.4282C18.9839 13.2672 19.1839 12.8282 20.6769 12.3952C24.3571 11.3311 28.1691 10.7925 32 10.7952C35.8308 10.7925 39.6429 11.3311 43.323 12.3952C44.816 12.8282 45.016 13.2672 45.016 14.4282C45.016 14.4532 45.016 17.0492 45.016 17.0492" fill="#FFDF00"/>
<path d="M16.945 41.5521V18.7251H14.293V24.3551C14.32 30.1841 14.348 36.1791 16.945 41.6251V41.5521Z" fill="#FFDF00"/>
<path d="M47.0839 41.5611C49.6509 36.1321 49.6789 30.1611 49.7059 24.3551V18.7251H47.0549V41.6251L47.0839 41.5611Z" fill="#FFDF00"/>
<path d="M31.011 48.9932C31.0125 49.1033 30.9813 49.2113 30.9213 49.3036C30.8613 49.396 30.7752 49.4683 30.674 49.5115C30.5727 49.5548 30.4608 49.567 30.3527 49.5464C30.2445 49.5259 30.1449 49.4737 30.0664 49.3964C29.988 49.3191 29.9343 49.2202 29.9123 49.1124C29.8902 49.0045 29.9007 48.8925 29.9425 48.7906C29.9842 48.6888 30.0554 48.6016 30.1468 48.5403C30.2382 48.4789 30.3459 48.4462 30.456 48.4462C30.6018 48.4462 30.7417 48.5035 30.8456 48.6058C30.9494 48.7082 31.0089 48.8474 31.011 48.9932ZM29.495 51.0482L30.0139 51.4631C30.0139 51.4631 30.5199 51.0631 31.0139 50.6171C31.3021 50.4325 31.5351 50.1735 31.6883 49.8674C31.8414 49.5613 31.909 49.2195 31.8839 48.8782C31.8361 48.5466 31.671 48.2432 31.4185 48.023C31.166 47.8028 30.843 47.6805 30.508 47.6782C30.3368 47.6644 30.1646 47.6867 30.0026 47.7436C29.8405 47.8004 29.6921 47.8906 29.567 48.0082C29.4419 48.1259 29.3429 48.2684 29.2762 48.4267C29.2095 48.585 29.1768 48.7554 29.18 48.9271C29.1735 49.0924 29.2013 49.2572 29.2615 49.4113C29.3218 49.5653 29.4132 49.7052 29.5302 49.8222C29.6471 49.9392 29.7869 50.0308 29.9409 50.0912C30.0949 50.1516 30.2597 50.1795 30.425 50.1732C30.425 50.1732 29.945 50.6462 29.499 51.0532M25.7249 46.6942V47.2151H26.0999V49.8561H27.0099V46.4011H26.5099C26.2938 46.591 26.0157 46.6953 25.728 46.6942M32.502 48.2662V48.7872H32.877V51.4232H33.787V47.9681H33.287C33.0708 48.158 32.7926 48.2623 32.5049 48.2612M37.9959 48.1472C37.9959 48.7132 37.659 49.1732 37.244 49.1732C36.829 49.1732 36.4919 48.7142 36.4919 48.1472C36.4919 47.5802 36.828 47.1212 37.244 47.1212C37.66 47.1212 37.9959 47.5802 37.9959 48.1472ZM37.245 46.3472C36.8816 46.3108 36.5156 46.3853 36.1954 46.561C35.8752 46.7366 35.6157 47.0052 35.451 47.3312C35.2864 47.6572 35.2244 48.0254 35.2731 48.3874C35.3218 48.7494 35.479 49.0881 35.724 49.3589C35.969 49.6298 36.2903 49.8201 36.6456 49.9048C37.0008 49.9896 37.3734 49.9647 37.7143 49.8336C38.0552 49.7024 38.3483 49.471 38.5551 49.17C38.7619 48.869 38.8728 48.5124 38.873 48.1472C38.8947 47.6928 38.7357 47.2483 38.4306 46.911C38.1255 46.5737 37.6992 46.371 37.245 46.3472ZM26.709 51.3112V44.8862V44.8422C25.6264 44.0708 24.6444 43.1671 23.7859 42.1522L23.7419 42.1031V49.4821V49.5302C22.3578 48.5803 21.0913 47.4695 19.969 46.2211L19.9269 46.1782V34.5701C19.6231 33.447 19.4487 32.2929 19.407 31.1301V29.9772H19.89H19.9319V25.5062V25.4512C19.1319 25.0252 19.007 24.4211 19.007 23.5001V18.8091V18.7301H19.7369H19.771V23.1511C19.7189 23.5404 19.7888 23.9362 19.9709 24.2841C20.2516 24.5594 20.6064 24.7471 20.9919 24.8242C21.8984 25.0966 22.8195 25.3173 23.7509 25.4852V29.9781H26.718V25.9542C27.984 26.1282 29.1849 26.2542 30.4879 26.3062H30.534V29.9232V29.9821H33.4609H33.5009V26.3912V26.3171C34.8009 26.2641 36.007 26.1432 37.271 25.9702H37.322V29.9321V29.9911H40.2929V25.4911L40.3619 25.4791C41.2696 25.3132 42.1674 25.0969 43.051 24.8311C43.4365 24.754 43.7913 24.5664 44.072 24.2911C44.2541 23.9432 44.324 23.5474 44.2719 23.1581V18.7231H44.3239H44.9789H45.0399V23.4911C45.0399 24.4041 44.916 25.0051 44.14 25.4301L44.114 25.4451V29.9232V29.9731H44.637V31.1262C44.5954 32.2916 44.4205 33.4485 44.1159 34.5742V46.1691L44.085 46.2061C42.9831 47.4344 41.7413 48.5295 40.3849 49.4691L40.3 49.5261V42.1472V42.0991L40.2589 42.1492C39.3997 43.165 38.4167 44.0693 37.3329 44.8411V51.3121L37.313 51.3221C36.087 51.9561 34.8198 52.507 33.52 52.9711V52.9312V47.0541L33.486 47.0701C32.88 47.3461 32.486 47.4931 32.429 47.5131L32.0349 47.6572L31.641 47.5131C31.585 47.4931 31.179 47.3422 30.558 47.0582L30.5519 47.1022V52.9752L30.5299 52.9642C29.2399 52.5028 27.9822 51.9559 26.765 51.3271L26.7339 51.3071" fill="#FFDF00"/>
<path d="M36.014 18.0902C36.014 18.8841 35.7785 19.6601 35.3375 20.3202C34.8964 20.9803 34.2695 21.4948 33.5361 21.7986C32.8026 22.1024 31.9955 22.1819 31.2169 22.027C30.4382 21.8722 29.723 21.4899 29.1616 20.9285C28.6003 20.3671 28.218 19.6519 28.0631 18.8733C27.9082 18.0946 27.9877 17.2875 28.2915 16.5541C28.5953 15.8206 29.1098 15.1937 29.7699 14.7527C30.43 14.3116 31.2061 14.0762 32 14.0762C33.0645 14.0762 34.0855 14.4991 34.8383 15.2519C35.591 16.0046 36.014 17.0256 36.014 18.0902Z" fill="#FFDF00"/>
<path d="M25.1 23.334L24.935 22.48L24.508 23.235L25.1 23.334ZM25.284 24.244L25.178 23.723L24.314 23.579L24.054 24.039L23.589 23.961L24.789 21.938L25.251 22.015L25.757 24.324L25.279 24.244" fill="#0A113A"/>
<path d="M26.968 22.2852L27.394 22.3381L28.094 23.9022H28.1L28.281 22.4492L28.688 22.5001L28.416 24.6771L27.975 24.6221L27.283 23.0931H27.277L27.1 24.5131L26.693 24.4622L26.968 22.2852Z" fill="#0A113A"/>
<path d="M29.733 22.594L30.174 22.612L30.133 23.585L31.07 22.649L31.664 22.674L30.805 23.494L31.619 24.868L31.046 24.844L30.486 23.79L30.11 24.142L30.082 24.803L29.641 24.785L29.733 22.594Z" fill="#0A113A"/>
<path d="M33.746 23.943L33.408 23.143L33.145 23.97L33.746 23.943ZM34.113 24.795L33.902 24.307L33.027 24.344L32.867 24.844L32.396 24.864L33.157 22.636L33.625 22.616L34.596 24.771L34.112 24.791" fill="#0A113A"/>
<path d="M35.8751 23.3651L36.2 23.3241C36.3333 23.3141 36.4649 23.2883 36.592 23.2471C36.6417 23.2223 36.6818 23.1819 36.7062 23.132C36.7306 23.0821 36.738 23.0256 36.7271 22.9711C36.7246 22.9271 36.7103 22.8845 36.6857 22.8479C36.661 22.8112 36.6269 22.782 36.587 22.7631C36.499 22.7251 36.444 22.7311 36.149 22.7681L35.8051 22.8111L35.8751 23.3651ZM35.322 22.4992L36.246 22.3831C36.4127 22.3515 36.5835 22.3488 36.751 22.3751C36.8657 22.4068 36.968 22.4729 37.0439 22.5644C37.1199 22.656 37.166 22.7686 37.176 22.8872C37.1953 22.9987 37.1803 23.1135 37.1332 23.2164C37.0861 23.3194 37.0091 23.4057 36.912 23.4641C36.8394 23.5094 36.7601 23.5432 36.6771 23.5642V23.5701C36.9048 23.6676 37.0976 23.8319 37.23 24.0412L37.548 24.4331L37.022 24.4992L36.6461 24.0642C36.3321 23.7052 36.3 23.6641 36.005 23.7031L35.9171 23.7141L36.031 24.6231L35.593 24.6781L35.3231 22.4961" fill="#0A113A"/>
<path d="M39.4899 23.235L39.056 22.481L38.8979 23.334L39.4899 23.235ZM39.96 24.035L39.691 23.577L38.827 23.722L38.7269 24.241L38.262 24.319L38.7419 22.014L39.205 21.937L40.4349 23.9561L39.957 24.036" fill="#0A113A"/>
<path d="M33.384 21.2711C33.2506 21.3294 33.1137 21.3792 32.974 21.4201L32.943 21.4291V18.3922C32.9338 18.314 32.8967 18.2417 32.8384 18.1888C32.7802 18.1358 32.7047 18.1058 32.626 18.1042H32.348V18.1521V21.5421H32.321C32.217 21.5515 32.1117 21.5562 32.005 21.5562H31.893H31.869V14.6292H31.893H32.005C32.1123 14.6292 32.2186 14.6341 32.324 14.6441H32.348V17.6292H32.635C32.886 17.6292 32.946 17.4291 32.946 17.1021V14.7561H32.967C33.1248 14.8017 33.2793 14.8585 33.429 14.9261V14.9551V17.0681C33.429 17.7021 33.106 17.8582 33.106 17.8582C33.2053 17.9302 33.2863 18.0245 33.3424 18.1336C33.3985 18.2427 33.4282 18.3635 33.429 18.4861V21.2542L33.384 21.2711Z" fill="#0A113A"/>
<path d="M35.273 17.027H34.821H34.795C34.721 16.8324 34.6268 16.6461 34.514 16.471L34.498 16.446V17.804H34.531H35.12V18.2831H34.498V19.704V19.7271C34.5954 19.5788 34.6794 19.4222 34.749 19.2591L34.756 19.2401H35.271L35.262 19.2631C35.0268 19.9139 34.6027 20.4797 34.044 20.8881L34.016 20.9061V15.269L34.044 15.2891C34.6358 15.722 35.0754 16.331 35.3 17.0291L35.273 17.027Z" fill="#0A113A"/>
<path d="M31.1609 21.455C31.0126 21.418 30.8669 21.3712 30.7249 21.3149L30.7039 21.3059V16.7L29.9219 18.4999L29.1929 17.064L29.1779 17.1039C29.0219 17.5491 28.9735 18.0248 29.0368 18.4922C29.1001 18.9596 29.2732 19.4053 29.5419 19.7929L29.1419 20.062C28.7355 19.4721 28.5218 18.7709 28.53 18.0547C28.5383 17.3384 28.7681 16.6423 29.1879 16.062L29.2049 16.0399L29.8849 17.381L31.0219 14.766H31.0449L31.1769 14.731V21.4699L31.1609 21.455Z" fill="#0A113A"/>
<path d="M39.822 32.92H38.482V42.355C38.7849 42.0574 39.0726 41.7447 39.344 41.418C41.3584 38.9809 42.7082 36.0641 43.262 32.951L43.268 32.92H41.898L41.893 32.9451C41.5197 34.8719 40.8193 36.7206 39.822 38.4111V38.332V32.92ZM43.322 32.465V31.124H41.98V31.142V32.465H43.321M39.789 32.465H38.479V31.142V31.124H39.821V32.465H39.789Z" fill="#0A113A"/>
<path d="M32.8059 46.104V31.126H36.9949V32.468H34.1459V43.914L34.1879 43.891C35.1837 43.3229 36.1215 42.6588 36.9879 41.908V41.963V43.639L36.968 43.654C35.6829 44.6175 34.2943 45.4345 32.8279 46.09L32.8059 46.104Z" fill="#0A113A"/>
<path d="M27.0749 43.6911C28.3493 44.6393 29.7242 45.4441 31.1749 46.0911L31.1969 46.1031V32.9231H29.8559V43.9161L29.8339 43.9051C29.3739 43.6401 28.8829 43.3351 28.3889 42.9891L28.3479 42.9631V32.9231H27.0069V43.6371L27.0749 43.6911ZM28.3459 31.123H27.0049V32.4631H28.3459V31.123ZM31.1949 32.4631H29.8539V31.123H31.1949V32.4631Z" fill="#0A113A"/>
<path d="M25.521 32.419V31.125H20.542C20.7816 34.9072 22.2241 38.5138 24.659 41.418C24.92 41.733 25.197 42.033 25.484 42.318L25.521 42.359V33.603L25.527 33.542H23.295V34.811H24.187L24.181 34.866V38.415L24.154 38.368C23.0871 36.5492 22.3653 34.549 22.025 32.468H25.525L25.521 32.419Z" fill="#0A113A"/>
</g>
<defs>
<clipPath id="clip0_40_23870">
<rect width="64" height="64" fill="white"/>
</clipPath>
</defs>
</svg>
