<svg xmlns="http://www.w3.org/2000/svg" width="64" height="64" viewBox="0 0 64 64">
  <g id="ankr" transform="translate(-479 -7217.402)">
    <circle id="Ellipse_115" data-name="Ellipse 115" cx="32" cy="32" r="32" transform="translate(479 7217.403)" fill="#fff"/>
    <path id="ankr-seeklogo.com_2" data-name="ankr-seeklogo.com 2" d="M21.4.6,34.5,7.3a5.706,5.706,0,0,1,3.1,5.1v3.1H32.8V12.4a1.02,1.02,0,0,0-.5-.8L19.2,4.9a1.1,1.1,0,0,0-.8,0L5.3,11.6a.792.792,0,0,0-.5.8v3.1H0V12.4A5.821,5.821,0,0,1,3.1,7.3L16.2.6A5.932,5.932,0,0,1,21.4.6Zm1.5,19.2a4.118,4.118,0,0,0-4.1-4.1,4.055,4.055,0,0,0-4.1,4.1,4.1,4.1,0,1,0,8.2,0Zm9.3,8.6a.792.792,0,0,0,.5-.8V24.5h4.8v3.1a5.821,5.821,0,0,1-3.1,5.1L21.3,39.4a5.933,5.933,0,0,1-5.2,0l-13-6.7A5.706,5.706,0,0,1,0,27.6V24.5H4.8v3.1a1.02,1.02,0,0,0,.5.8L16.4,34V28.4a8.91,8.91,0,0,1-6.5-8.6,9,9,0,1,1,11.5,8.6V34Z" transform="translate(492.2 7229.403)" fill="rgba(36,90,229,0.9)" fill-rule="evenodd"/>
  </g>
</svg>
