<svg width="64" height="64" viewBox="0 0 64 64" fill="none" xmlns="http://www.w3.org/2000/svg">
<g clip-path="url(#clip0_40_23894)">
<path d="M32 64.001C49.6731 64.001 64 49.6741 64 32.001C64 14.3279 49.6731 0.000976562 32 0.000976562C14.3269 0.000976562 0 14.3279 0 32.001C0 49.6741 14.3269 64.001 32 64.001Z" fill="#F5F5F5"/>
<path fill-rule="evenodd" clip-rule="evenodd" d="M34.6 12.6011L47.7 19.3011C48.6371 19.7822 49.4228 20.5133 49.97 21.4135C50.5171 22.3137 50.8044 23.3477 50.8 24.4011V27.5011H46V24.4011C45.9872 24.2374 45.9351 24.0791 45.848 23.9398C45.761 23.8006 45.6416 23.6844 45.5 23.6011L32.4 16.9011C32.1428 16.8007 31.8572 16.8007 31.6 16.9011L18.5 23.6011C18.3419 23.6632 18.2079 23.7745 18.1179 23.9186C18.0279 24.0626 17.9865 24.2318 18 24.4011V27.5011H13.2V24.4011C13.2083 23.3504 13.5009 22.3215 14.0466 21.4236C14.5924 20.5257 15.3711 19.7923 16.3 19.3011L29.4 12.6011C30.2098 12.2062 31.099 12.001 32 12.001C32.901 12.001 33.7902 12.2062 34.6 12.6011ZM36.1 31.8011C36.0953 30.7152 35.6618 29.6751 34.8939 28.9072C34.126 28.1393 33.0859 27.7059 32 27.7011C31.4599 27.6951 30.9241 27.797 30.4239 28.0009C29.9237 28.2049 29.4694 28.5066 29.0874 28.8886C28.7055 29.2705 28.4037 29.7249 28.1998 30.225C27.9959 30.7252 27.894 31.261 27.9 31.8011C27.9 32.8885 28.332 33.9314 29.1009 34.7003C29.8698 35.4692 30.9126 35.9011 32 35.9011C33.0874 35.9011 34.1302 35.4692 34.8991 34.7003C35.668 33.9314 36.1 32.8885 36.1 31.8011ZM45.4 40.4011C45.5581 40.339 45.6921 40.2277 45.7821 40.0837C45.8721 39.9396 45.9135 39.7705 45.9 39.6011V36.5011H50.7V39.6011C50.6917 40.6519 50.3991 41.6808 49.8534 42.5787C49.3076 43.4766 48.5289 44.21 47.6 44.7011L34.5 51.4011C33.6901 51.796 32.801 52.0012 31.9 52.0012C30.999 52.0012 30.1099 51.796 29.3 51.4011L16.3 44.7011C15.3629 44.22 14.5772 43.4889 14.03 42.5887C13.4829 41.6886 13.1956 40.6545 13.2 39.6011V36.5011H18V39.6011C18.0128 39.7649 18.0649 39.9231 18.152 40.0624C18.239 40.2017 18.3584 40.3179 18.5 40.4011L29.6 46.0011V40.4011C27.7258 39.8746 26.0757 38.7487 24.9019 37.1957C23.728 35.6426 23.0952 33.7479 23.1 31.8011C23.0915 30.1269 23.5501 28.4835 24.4244 27.0557C25.2987 25.6278 26.5539 24.4722 28.0489 23.7186C29.544 22.965 31.2196 22.6434 32.8874 22.7899C34.5552 22.9364 36.1491 23.5452 37.4899 24.5478C38.8306 25.5505 39.8652 26.9073 40.4771 28.4657C41.0891 30.0241 41.2542 31.7223 40.954 33.3693C40.6537 35.0164 39.9 36.5471 38.7775 37.7893C37.6551 39.0316 36.2083 39.936 34.6 40.4011V46.0011L45.4 40.4011Z" fill="#245AE5" fill-opacity="0.9"/>
</g>
<defs>
<clipPath id="clip0_40_23894">
<rect width="64" height="64" fill="white"/>
</clipPath>
</defs>
</svg>
