<svg width="64" height="64" viewBox="0 0 64 64" fill="none" xmlns="http://www.w3.org/2000/svg">
<g clip-path="url(#clip0_40_23898)">
<mask id="mask0_40_23898" style="mask-type:luminance" maskUnits="userSpaceOnUse" x="0" y="0" width="64" height="64">
<path d="M32 4.00441e-06C36.2029 -0.00209902 40.365 0.824163 44.2484 2.43157C48.1317 4.03897 51.6602 6.396 54.6321 9.36789C57.604 12.3398 59.961 15.8683 61.5684 19.7517C63.1758 23.635 64.0021 27.7971 64 32C64.0021 36.2029 63.1758 40.365 61.5684 44.2484C59.961 48.1317 57.604 51.6602 54.6321 54.6321C51.6602 57.604 48.1317 59.961 44.2484 61.5684C40.365 63.1758 36.2029 64.0021 32 64C27.7971 64.0021 23.635 63.1758 19.7516 61.5684C15.8683 59.961 12.3398 57.604 9.36789 54.6321C6.396 51.6602 4.03898 48.1317 2.43158 44.2484C0.82417 40.365 -0.00209902 36.2029 4.00437e-06 32C-0.00209902 27.7971 0.82417 23.635 2.43158 19.7517C4.03898 15.8683 6.396 12.3398 9.36789 9.36789C12.3398 6.396 15.8683 4.03897 19.7516 2.43157C23.635 0.824163 27.7971 -0.00209902 32 4.00441e-06Z" fill="white"/>
</mask>
<g mask="url(#mask0_40_23898)">
<path d="M32 4.00441e-06C36.2029 -0.00209902 40.365 0.824163 44.2484 2.43157C48.1317 4.03897 51.6602 6.396 54.6321 9.36789C57.604 12.3398 59.961 15.8683 61.5684 19.7517C63.1758 23.635 64.0021 27.7971 64 32C64.0021 36.2029 63.1758 40.365 61.5684 44.2484C59.961 48.1317 57.604 51.6602 54.6321 54.6321C51.6602 57.604 48.1317 59.961 44.2484 61.5684C40.365 63.1758 36.2029 64.0021 32 64C27.7971 64.0021 23.635 63.1758 19.7516 61.5684C15.8683 59.961 12.3398 57.604 9.36789 54.6321C6.396 51.6602 4.03898 48.1317 2.43158 44.2484C0.82417 40.365 -0.00209902 36.2029 4.00437e-06 32C-0.00209902 27.7971 0.82417 23.635 2.43158 19.7517C4.03898 15.8683 6.396 12.3398 9.36789 9.36789C12.3398 6.396 15.8683 4.03897 19.7516 2.43157C23.635 0.824163 27.7971 -0.00209902 32 4.00441e-06Z" fill="url(#paint0_radial_40_23898)"/>
<path d="M53.7309 21.9901C53.6179 22.5376 53.4617 23.0753 53.2639 23.5981C52.9759 24.263 52.7671 24.9594 52.6419 25.6731C52.5721 26.0159 52.52 26.362 52.4859 26.7101C52.4401 27.1505 52.3534 27.5858 52.2269 28.0101C51.9937 28.6943 51.6618 29.3408 51.2419 29.9291C50.7749 30.5511 49.9419 31.6411 48.9079 31.7441H48.5449C46.4413 30.6013 44.2572 29.6133 42.0099 28.7881C40.9729 28.4771 41.0759 26.1951 41.2319 24.2241C41.2995 23.3963 41.3169 22.5651 41.2839 21.7351C41.1279 19.1941 40.7129 16.4451 38.4839 15.0451C37.0547 14.272 35.4381 13.9129 33.8159 14.0081C34.1269 13.8521 34.4379 13.6451 34.8009 13.4371C35.7939 12.7478 36.9275 12.2874 38.1199 12.0891C38.4976 12.0301 38.8788 11.9967 39.2609 11.9891C41.6469 11.7301 43.7209 11.4701 45.8479 12.2481C46.8329 12.6111 48.8559 13.7001 49.3749 14.7371C49.9699 15.674 50.7247 16.4992 51.6049 17.1751C52.046 17.6018 52.5136 18.0003 53.0049 18.3681C53.4199 18.7311 53.5239 18.7831 53.6789 19.0421C54.0096 19.9942 54.0279 21.027 53.7309 21.9901Z" fill="white"/>
<path d="M42.6859 32.4152C42.726 32.4289 42.7626 32.4513 42.7931 32.4808C42.8235 32.5103 42.847 32.5462 42.8619 32.5859C42.8769 32.6255 42.8828 32.668 42.8793 32.7103C42.8759 32.7525 42.8631 32.7935 42.8419 32.8302C42.5309 33.2972 42.1679 33.9712 41.7529 34.7492C41.5459 35.1122 41.3379 35.5272 41.1819 35.7862C40.7539 36.5657 40.5225 37.438 40.5079 38.3272C40.4559 39.0532 40.4559 39.3642 39.9889 39.6272C39.6259 39.8862 39.2629 39.9382 36.7729 40.3012C36.5056 40.3358 36.2441 40.4054 35.9949 40.5082C35.9429 40.5082 35.9429 40.5082 35.8949 40.5602C35.8564 40.5768 35.8141 40.5823 35.7726 40.5763C35.7312 40.5703 35.6922 40.5529 35.66 40.5261C35.6278 40.4993 35.6036 40.4641 35.5902 40.4244C35.5768 40.3847 35.5746 40.3421 35.5839 40.3012C35.5839 39.9382 35.6359 39.5232 35.6359 39.0012V37.7012C35.5839 37.0792 35.5839 36.8192 35.7919 36.5082C35.9585 36.2638 36.1695 36.0528 36.4139 35.8862C37.0637 35.4597 37.627 34.9141 38.0739 34.2782C38.3247 33.9504 38.5175 33.5821 38.6439 33.1892C38.6439 33.0892 38.6959 33.0332 39.0069 32.8262C39.3605 32.5221 39.774 32.2957 40.2207 32.1616C40.6674 32.0276 41.1373 31.989 41.5999 32.0482C41.8069 32.1002 42.2739 32.2552 42.6889 32.4112L42.6859 32.4152Z" fill="white"/>
<path d="M32.8819 43.8772C32.8569 43.9081 32.8254 43.9331 32.7896 43.9504C32.7538 43.9677 32.7146 43.9768 32.6749 43.9772C32.57 43.9921 32.4631 43.9811 32.3636 43.945C32.264 43.9089 32.1748 43.8489 32.1039 43.7702C31.8963 43.37 31.8409 42.9081 31.9479 42.4702L32.9849 42.2112C33.091 42.7664 33.0556 43.3393 32.8819 43.8772Z" fill="white"/>
<path d="M32.933 40.0901C32.933 40.2461 32.881 40.4011 32.881 40.6091V41.3871C32.5604 41.4741 32.2276 41.5079 31.896 41.487V40.6051C31.8828 40.3963 31.9003 40.1867 31.948 39.983C32.048 39.983 32.155 39.931 32.259 39.931C32.4799 39.8763 32.7056 39.8428 32.933 39.8311C32.985 39.8831 32.933 39.9871 32.933 40.0901Z" fill="white"/>
<path d="M31.0139 43.565C30.9619 44.084 30.8069 44.758 30.2879 44.865C30.0809 44.917 29.9249 44.865 29.8729 44.765C29.5099 44.454 29.4579 43.465 29.5099 42.794C29.8056 42.7775 30.1 42.7442 30.3919 42.694C30.5944 42.6356 30.8033 42.602 31.0139 42.594V43.565Z" fill="white"/>
<path d="M30.7549 41.6472L29.6139 42.0102C29.6659 41.5432 29.7699 40.9212 29.7699 40.5102C29.765 40.3654 29.7996 40.2219 29.8699 40.0952H29.9219L30.6479 40.0432C30.7366 40.573 30.7724 41.1103 30.7549 41.6472Z" fill="white"/>
<path d="M28.941 41.2832C28.889 41.4392 28.785 41.9572 28.734 42.2682L27.282 42.2162C27.386 41.7495 27.4896 41.3345 27.593 40.9712C27.6412 40.7144 27.7681 40.4788 27.956 40.2972C28.0621 40.2424 28.1813 40.2183 28.3004 40.2275C28.4194 40.2367 28.5335 40.2788 28.63 40.3492C28.774 40.452 28.8816 40.5977 28.9375 40.7656C28.9934 40.9334 28.9946 41.1146 28.941 41.2832Z" fill="white"/>
<path d="M28.3689 45.6401C28.2751 45.7593 28.1492 45.8492 28.0059 45.899C27.9418 45.9104 27.8759 45.9073 27.8131 45.89C27.7503 45.8727 27.6922 45.8417 27.6429 45.7991C27.1759 45.3841 27.2279 44.0361 27.2279 43.3611C27.7358 43.2193 28.2575 43.1325 28.7839 43.1021C28.8968 43.9704 28.7525 44.8529 28.3689 45.6401Z" fill="white"/>
<path d="M26.5019 42.165C26.442 42.3415 26.3729 42.5147 26.2949 42.684C25.8945 42.716 25.4915 42.6823 25.1019 42.584L25.4649 40.3541C25.9311 40.1827 26.4397 40.1645 26.9169 40.3021C27.1249 40.5571 26.7099 41.698 26.5019 42.165Z" fill="white"/>
<path d="M25.8809 46.0032C25.7255 46.1922 25.5249 46.3389 25.2976 46.4297C25.0703 46.5204 24.8238 46.5522 24.5809 46.5222C24.1659 46.5222 24.0109 46.3662 23.9589 46.2632C23.6479 45.7442 23.9589 44.5522 24.2699 43.7742L26.1889 43.8742C26.1889 44.0302 26.2409 44.1852 26.2409 44.3412C26.3289 44.9206 26.2008 45.5121 25.8809 46.0032Z" fill="white"/>
<path d="M41.854 29.666C40.091 29.147 40.246 26.6061 40.402 24.166C40.4691 23.3726 40.4865 22.5757 40.454 21.78C40.298 19.498 39.935 16.957 38.068 15.816C36.097 14.571 32.83 14.882 30.807 15.142C30.1678 15.3451 29.5056 15.467 28.836 15.5051C27.8057 15.4074 26.8126 15.0701 25.936 14.5201C25.4265 14.1712 24.8367 13.9575 24.222 13.8991H24.122C23.5904 13.8782 23.0601 13.9639 22.5621 14.1509C22.0641 14.3379 21.6085 14.6225 21.222 14.9881C20.7594 15.7459 20.4101 16.5672 20.185 17.426C19.9513 18.0621 19.7945 18.7238 19.718 19.3971C19.6707 19.964 19.5487 20.5221 19.355 21.057C19.199 21.524 19.044 21.991 18.94 22.357C18.6986 23.4246 18.2397 24.4308 17.592 25.3131C17.4656 25.4714 17.361 25.6459 17.281 25.8321C17.0859 26.1797 16.8604 26.5093 16.607 26.8171C16.2808 27.2991 16.0681 27.8489 15.985 28.4251C16.0357 28.8408 16.1585 29.2445 16.348 29.618C16.6082 30.0204 16.7518 30.487 16.763 30.9661V31.066C16.815 31.948 16.711 32.4141 15 33.9191C14.128 34.7096 13.3294 35.5774 12.614 36.512C12.562 36.564 12.614 36.668 12.714 36.668H13.077C13.492 36.699 13.8805 36.8842 14.166 37.187C14.218 37.239 14.266 37.239 14.373 37.239C14.657 37.1428 14.9616 37.1248 15.255 37.187C15.5936 37.2205 15.9166 37.3461 16.189 37.5501C16.2302 37.5887 16.2794 37.6178 16.3332 37.6351C16.387 37.6524 16.444 37.6575 16.5 37.65C16.7761 37.5895 17.0636 37.6075 17.33 37.702C17.5199 37.7744 17.6956 37.8797 17.849 38.0131C17.9142 38.0837 18.003 38.128 18.0986 38.1376C18.1942 38.1471 18.2901 38.1213 18.368 38.0651C18.42 38.0131 18.524 38.013 18.575 37.965C18.953 37.8785 19.3474 37.8965 19.716 38.017C19.8972 38.0634 20.0716 38.133 20.235 38.224C20.4913 38.4059 20.6896 38.6581 20.806 38.95C20.8286 39.0021 20.8625 39.0484 20.9054 39.0855C20.9482 39.1227 20.9989 39.1497 21.0536 39.1647C21.1083 39.1796 21.1657 39.1821 21.2215 39.172C21.2772 39.1619 21.3301 39.1393 21.376 39.1061C21.4581 39.0296 21.561 38.9793 21.6718 38.9615C21.7825 38.9437 21.8961 38.9592 21.998 39.006C22.05 39.058 22.154 39.1061 22.205 39.1621C22.2713 39.2491 22.3582 39.3184 22.4578 39.3636C22.5575 39.4088 22.6668 39.4285 22.776 39.4211C23.3527 39.2768 23.9623 39.3505 24.488 39.6281C24.696 39.7398 24.874 39.9 25.007 40.0951V39.995C25.0096 39.9694 25.021 39.9455 25.0392 39.9273C25.0574 39.909 25.0814 39.8977 25.107 39.8951L25.207 39.8431C25.466 39.7431 26.919 39.324 27.489 39.943C27.5024 39.956 27.5203 39.9632 27.539 39.9632C27.5576 39.9632 27.5756 39.956 27.589 39.943C27.641 39.843 27.745 39.8431 27.745 39.7871C27.9622 39.6639 28.211 39.6077 28.4601 39.6255C28.7092 39.6433 28.9475 39.7343 29.145 39.887C29.245 39.939 29.352 39.939 29.404 39.835L29.56 39.6791C29.6293 39.6159 29.7119 39.5691 29.8018 39.5421C29.8916 39.5151 29.9863 39.5086 30.079 39.523L30.857 39.471C31.2046 39.4634 31.5513 39.43 31.894 39.3711H31.946C32.046 39.3711 32.102 39.319 32.205 39.319C32.5921 39.1894 33.0109 39.1894 33.398 39.319C33.761 39.475 33.709 39.8901 33.657 40.2011C33.657 40.3571 33.605 40.512 33.605 40.616V40.823C33.6172 41.0835 33.5998 41.3445 33.553 41.601L33.605 41.7571C33.6124 41.7953 33.6291 41.8311 33.6535 41.8615C33.678 41.8918 33.7094 41.9157 33.7452 41.931C33.781 41.9464 33.82 41.9528 33.8588 41.9497C33.8977 41.9465 33.9351 41.934 33.968 41.913C34.2058 41.7803 34.4168 41.6043 34.59 41.394V41.342C34.6181 41.2582 34.6356 41.1712 34.642 41.083C34.7297 40.378 34.7631 39.6672 34.742 38.9571V37.657C34.6365 37.0734 34.7276 36.4713 35.001 35.945C35.212 35.5603 35.5388 35.2517 35.935 35.0631C36.4964 34.7238 36.9748 34.2632 37.335 33.715C37.5134 33.4792 37.6535 33.2166 37.75 32.937C37.802 32.626 37.906 32.4181 38.424 32.0031C38.8694 31.6216 39.3918 31.3408 39.9556 31.1796C40.5194 31.0184 41.1113 30.9807 41.691 31.069C42.4713 31.2441 43.2349 31.487 43.973 31.795C44.025 31.795 44.025 31.795 44.073 31.847H44.125C44.7979 32.104 45.456 32.3985 46.096 32.7291C46.1656 32.7653 46.2459 32.7751 46.3222 32.7567C46.3985 32.7384 46.4655 32.693 46.511 32.629C46.6534 32.4765 46.8097 32.3376 46.978 32.2141C47.03 32.1621 47.078 32.162 47.134 32.114C47.1733 32.081 47.2039 32.0388 47.2232 31.9912C47.2426 31.9436 47.25 31.892 47.2449 31.8408C47.2397 31.7897 47.2222 31.7406 47.1938 31.6978C47.1655 31.6549 47.1271 31.6197 47.082 31.5951C45.3791 30.8433 43.6295 30.2023 41.844 29.676L41.854 29.666ZM25.254 30.185C24.735 32.519 21.054 35.1641 19.393 35.1641H19.082C18.6946 35.0358 18.3405 34.8234 18.045 34.542C17.8424 34.3337 17.6836 34.0868 17.578 33.816C17.5815 33.7878 17.5786 33.7592 17.5696 33.7322C17.5606 33.7052 17.5457 33.6805 17.526 33.6601C17.3547 33.0907 17.4107 32.4771 17.682 31.948L17.838 31.637C17.838 31.585 17.89 31.5851 17.89 31.5371C17.942 31.4371 17.942 31.381 17.99 31.278C18.0462 31.1832 18.0803 31.0769 18.09 30.967C18.09 30.915 18.142 30.9151 18.142 30.8671C18.212 30.7032 18.2461 30.5262 18.242 30.348C18.2371 30.2249 18.2547 30.1019 18.294 29.9851C18.394 29.5181 18.45 29.155 18.501 28.844C18.5381 28.2805 18.6974 27.7318 18.968 27.236C19.0083 27.1434 19.0823 27.0694 19.175 27.029L19.227 26.9771L19.279 26.9251C19.379 26.8731 19.435 26.825 19.538 26.769C19.59 26.769 19.59 26.717 19.638 26.717C19.686 26.717 19.794 26.665 19.845 26.665C20.1859 26.5947 20.5357 26.5772 20.882 26.6131C21.2848 26.6479 21.684 26.7171 22.075 26.82C22.3393 26.8906 22.5991 26.9771 22.853 27.079C22.8598 27.0789 22.8667 27.0802 22.873 27.0827C22.8794 27.0853 22.8852 27.0891 22.8901 27.094C22.8949 27.0988 22.8987 27.1046 22.9013 27.111C22.9039 27.1174 22.9051 27.1242 22.905 27.131C22.943 27.1373 22.978 27.1555 23.005 27.183C23.0255 27.2028 23.0501 27.2177 23.0771 27.2267C23.1041 27.2357 23.1327 27.2385 23.161 27.2351C23.213 27.2871 23.317 27.287 23.368 27.335H23.42C23.679 27.435 23.887 27.594 24.094 27.698C24.194 27.75 24.25 27.854 24.353 27.905C24.3598 27.9049 24.3667 27.9062 24.373 27.9087C24.3794 27.9113 24.3852 27.9151 24.3901 27.92C24.3949 27.9248 24.3987 27.9306 24.4013 27.937C24.4039 27.9434 24.4051 27.9502 24.405 27.9571L24.457 28.0091C24.786 28.2558 25.0366 28.5924 25.1787 28.9783C25.3208 29.3641 25.3483 29.7829 25.258 30.1841L25.254 30.185ZM26.966 21.264L26.914 21.6791C26.9048 22.2637 26.7157 22.8314 26.3723 23.3047C26.0289 23.778 25.548 24.1339 24.995 24.3241C24.1543 24.5831 23.2815 24.7228 22.402 24.739H22.35C21.862 24.7516 21.3819 24.6146 20.974 24.3465C20.5661 24.0784 20.25 23.692 20.068 23.239C19.912 22.513 20.224 22.0461 20.742 21.1641C20.842 21.0081 20.898 20.8531 21.001 20.6971C21.4848 19.8798 21.8692 19.0076 22.146 18.099C22.2728 17.4981 22.5596 16.9425 22.976 16.491C23.0856 16.3748 23.2073 16.2706 23.339 16.18C23.439 16.128 23.495 16.0801 23.598 16.0241C23.733 15.9635 23.8716 15.9114 24.013 15.868C24.3304 15.7618 24.6633 15.7091 24.998 15.7121C25.6312 15.7102 26.2487 15.9098 26.761 16.282C27.1738 16.6742 27.4159 17.213 27.435 17.782C27.436 18.256 27.281 19.189 26.969 21.264H26.966ZM36.872 24.0131C36.6039 24.6205 36.2158 25.1674 35.731 25.6211C35.0078 26.1876 34.1082 26.4814 33.19 26.4511C32.7368 26.4403 32.2856 26.3881 31.842 26.295C31.012 26.139 29.508 25.88 28.989 24.687C28.9103 24.5079 28.876 24.3123 28.889 24.1171C28.8891 23.7 28.8556 23.2837 28.789 22.872V22.82C28.7105 22.4088 28.7105 21.9863 28.789 21.575V21.523C28.8685 20.9061 29.0075 20.2983 29.204 19.708C29.2775 19.5751 29.3983 19.4746 29.5424 19.4266C29.6866 19.3787 29.8435 19.3867 29.982 19.4491C30.1178 19.5197 30.2208 19.6404 30.2691 19.7856C30.3174 19.9308 30.3074 20.0891 30.241 20.2271C30.1072 20.7203 30.0034 21.2213 29.93 21.7271V21.779C29.8781 22.0708 29.8781 22.3693 29.93 22.661V22.713C29.9955 23.1769 30.029 23.6446 30.03 24.1131V24.269C30.1294 24.4723 30.2937 24.6366 30.497 24.736C30.5427 24.7567 30.5933 24.7638 30.643 24.7567C30.6926 24.7496 30.7392 24.7285 30.7773 24.6959C30.8154 24.6633 30.8434 24.6204 30.858 24.5725C30.8727 24.5245 30.8733 24.4734 30.86 24.4251C30.5683 23.2345 30.6589 21.9822 31.119 20.846C31.275 20.535 31.586 20.0161 31.845 19.5461C31.897 19.4941 31.897 19.446 31.945 19.39C31.9512 19.352 31.9694 19.317 31.997 19.29C32.097 19.083 32.256 18.875 32.308 18.771C32.3413 18.7377 32.3746 18.7044 32.408 18.6711C32.408 18.6191 32.46 18.619 32.46 18.571V18.519V18.467L32.512 18.415C32.564 18.315 32.668 18.2081 32.719 18.1041C32.875 17.8971 32.719 17.637 32.46 17.741C32.045 17.948 31.786 18.1561 31.734 18.1561C31.6101 18.2523 31.4531 18.2954 31.2974 18.2759C31.1418 18.2564 31.0003 18.1759 30.904 18.0521C30.8077 17.9282 30.7646 17.7712 30.7841 17.6155C30.8036 17.4599 30.8841 17.3183 31.008 17.222C31.4538 16.8332 31.9798 16.5472 32.5485 16.3844C33.1172 16.2216 33.7148 16.1859 34.2989 16.2799C34.8829 16.3739 35.4392 16.5953 35.9281 16.9284C36.417 17.2614 36.8267 17.698 37.128 18.2071C37.6801 18.9806 37.9874 19.902 38.01 20.8521C38.062 21.8891 37.647 22.6671 36.869 24.0161L36.872 24.0131Z" fill="white"/>
<path d="M24.532 16.9072C24.432 17.1662 24.325 17.4262 24.169 17.7372C23.858 18.4632 23.547 19.2932 23.391 19.6042C23.2071 19.9909 22.9811 20.3562 22.717 20.6932C22.5112 20.9578 22.3532 21.2563 22.25 21.5752C22.0317 22.2097 21.9971 22.8929 22.15 23.5462C21.787 23.4942 21.216 23.2352 21.113 22.9242C21.061 22.6652 21.213 22.4572 21.632 21.7312C21.732 21.5752 21.788 21.4202 21.891 21.2642C22.4213 20.3678 22.8395 19.4097 23.136 18.4112C23.395 17.6852 23.499 17.3742 23.862 17.1112C24.118 17.0632 24.325 16.9592 24.532 16.9072Z" fill="white"/>
<path d="M23.8059 43.0471C23.4639 43.7361 23.0648 44.3954 22.6129 45.018C22.1707 43.8791 21.9761 42.6591 22.0419 41.4391V41.339C22.0668 40.9669 22.1923 40.6085 22.4049 40.302C22.5049 40.095 22.8719 39.9911 23.2869 39.9911C23.5942 39.979 23.8991 40.0505 24.1689 40.1981C24.292 40.2587 24.3931 40.3562 24.4581 40.477C24.5232 40.5978 24.549 40.7359 24.5319 40.872C24.4252 41.6354 24.1791 42.3726 23.8059 43.0471Z" fill="white"/>
<path d="M45.9 33.8151C45.952 33.8151 45.952 33.8671 45.952 33.9151C45.8442 34.1413 45.7045 34.3508 45.537 34.5371C45.2924 34.8336 45.0673 35.1456 44.863 35.4711C44.5077 36.2874 44.3478 37.1752 44.396 38.0641C44.3506 39.1706 44.368 40.2787 44.448 41.3831C44.5093 41.9535 44.4918 42.5296 44.396 43.0951C44.1334 44.2782 43.6221 45.3919 42.896 46.3621C42.014 47.7101 41.081 49.1621 39.577 49.6291C39.4101 49.6855 39.2327 49.7033 39.058 49.6811C38.695 49.6811 38.124 49.6811 37.035 49.7331C35.751 49.7248 34.4682 49.8113 33.197 49.9921C32.5682 50.0967 31.9573 50.2889 31.382 50.5631C30.88 50.7697 30.3587 50.9261 29.826 51.0301C28.7315 51.2285 27.6176 51.2979 26.507 51.2371C24.6378 51.2808 22.7678 51.2116 20.907 51.0301C18.366 50.7191 17.069 50.6151 16.239 50.1481C14.211 49.0631 13.381 47.1441 11.981 43.9801C11.981 43.9281 12.033 43.8801 12.033 43.9281C12.085 43.9801 12.189 43.9801 12.24 44.0281C12.292 44.0281 12.34 44.0801 12.447 44.0801H12.966C12.9971 44.2038 13.0551 44.319 13.1358 44.4177C13.2165 44.5164 13.318 44.5961 13.433 44.6511C13.6799 44.7526 13.944 44.8055 14.211 44.8071C14.4886 44.8157 14.7665 44.7983 15.041 44.7551C15.1157 44.7455 15.1916 44.7605 15.2571 44.7979C15.3226 44.8352 15.3742 44.8929 15.404 44.9621C15.663 45.5841 15.974 45.9991 16.441 46.0511H16.541C16.6944 46.0558 16.8436 45.9998 16.956 45.8951C17.0757 45.8303 17.2147 45.8104 17.3478 45.839C17.4809 45.8676 17.5994 45.9428 17.682 46.0511C17.7723 46.1523 17.8771 46.2396 17.993 46.3101C18.7566 46.825 19.666 47.0796 20.586 47.0361C21.0291 47.0614 21.4726 46.9908 21.886 46.8291C22.301 46.6221 22.301 46.3101 22.249 46.2071C22.197 46.0001 22.197 45.7921 22.149 45.5851C22.149 45.5851 22.201 45.5331 22.201 45.5851C22.253 45.6851 22.301 45.8961 22.512 45.8961H22.564C22.823 45.8961 23.238 45.9961 23.342 46.2591C23.3844 46.384 23.4366 46.5054 23.498 46.6221C23.6216 46.8088 23.792 46.9597 23.9922 47.0599C24.1925 47.1601 24.4154 47.206 24.639 47.1931H24.691C25.0134 47.2159 25.3366 47.1619 25.6342 47.0358C25.9317 46.9096 26.1952 46.7147 26.403 46.4671C26.403 46.4151 26.455 46.4151 26.455 46.3671C26.5494 46.2725 26.6749 46.2151 26.8082 46.2055C26.9416 46.1959 27.074 46.2349 27.181 46.3151C27.2779 46.4056 27.3923 46.4752 27.5172 46.5198C27.642 46.5643 27.7747 46.5828 27.907 46.5741H28.063C28.2317 46.5567 28.3943 46.5008 28.5381 46.4109C28.682 46.3209 28.8034 46.1992 28.893 46.0551C29.0486 45.8388 29.1547 45.591 29.204 45.3291C29.204 45.2291 29.36 45.2291 29.411 45.2771C29.5068 45.3692 29.621 45.4398 29.7462 45.4845C29.8713 45.5291 30.0045 45.5467 30.137 45.5361C30.2265 45.544 30.3164 45.526 30.396 45.4841C30.6934 45.4046 30.9606 45.2387 31.1637 45.0073C31.3668 44.7759 31.4967 44.4894 31.537 44.1841C31.537 44.1841 31.589 44.1321 31.589 44.1841C31.7087 44.3261 31.8604 44.4378 32.0316 44.5099C32.2028 44.582 32.3887 44.6126 32.574 44.5991H32.674C32.8063 44.5928 32.9355 44.5569 33.0521 44.4941C33.1688 44.4313 33.2698 44.3431 33.348 44.2361C33.5585 43.932 33.6674 43.569 33.659 43.1991C33.6613 43.1258 33.6881 43.0554 33.735 42.9991C33.7819 42.9427 33.8463 42.9037 33.918 42.8881C34.4711 42.6525 34.9535 42.2773 35.318 41.7991C35.3403 41.7456 35.3757 41.6987 35.421 41.6625C35.4662 41.6263 35.5199 41.6021 35.577 41.5921C35.8483 41.5473 36.1109 41.4599 36.355 41.3331C36.5391 41.2607 36.7306 41.2085 36.926 41.1771C39.467 40.8141 39.934 40.7101 40.505 40.3471C40.8235 40.1234 41.0744 39.8163 41.2299 39.4595C41.3855 39.1026 41.4398 38.7098 41.387 38.3241C41.3796 37.5768 41.5767 36.8416 41.957 36.1981C42.113 35.8871 42.32 35.5241 42.528 35.1091C42.891 34.4351 43.41 33.5011 43.773 32.9831C43.8172 32.933 43.8751 32.8968 43.9396 32.8791C44.004 32.8613 44.0723 32.8627 44.136 32.8831C44.7506 33.1406 45.3407 33.4532 45.899 33.8171L45.9 33.8151Z" fill="white"/>
<path d="M21.3679 41.3362C21.2356 42.5255 21.2356 43.7258 21.3679 44.9152C21.4199 45.3302 21.4679 45.7972 21.5239 46.2632C21.1743 46.3847 20.8046 46.4376 20.4349 46.4192C19.7067 46.4604 18.9831 46.2794 18.3599 45.9002L18.3079 45.8482C18.1982 45.7855 18.1068 45.695 18.0431 45.5858C17.9794 45.4766 17.9455 45.3526 17.9449 45.2262C17.9604 45.0925 18.0146 44.9664 18.1009 44.8632C18.1514 44.7483 18.2215 44.6431 18.3079 44.5522C18.5046 44.3095 18.6784 44.049 18.827 43.7742C19.397 42.7892 19.6049 42.5292 19.8639 42.1142C19.8639 42.0622 19.9159 42.0622 19.9159 42.0142C20.1477 41.7198 20.3557 41.4075 20.5379 41.0802C20.7449 40.7692 20.9529 40.5102 21.0569 40.3022C21.3159 39.9912 21.4719 39.7832 21.5759 39.6802C21.5634 39.8736 21.5299 40.065 21.4759 40.2512C21.4759 40.5102 21.4239 40.8732 21.3759 41.3402L21.3679 41.3362Z" fill="white"/>
<path d="M20.9529 27.7471C20.7813 27.9684 20.6416 28.2128 20.5379 28.4731C20.2387 29.0876 20.0793 29.7607 20.0709 30.4441C20.0794 30.6528 20.0619 30.8617 20.0189 31.0661C19.9719 31.2306 19.9023 31.3878 19.8119 31.5331C19.4373 32.2695 19.2756 33.0958 19.3449 33.9191C19.1379 33.8191 18.8259 33.6081 18.7739 33.4521C18.7774 33.4238 18.7746 33.3952 18.7656 33.3682C18.7566 33.3412 18.7417 33.3166 18.7219 33.2961C18.6319 32.9667 18.6675 32.6156 18.8219 32.3111C19.1136 31.715 19.3396 31.089 19.4959 30.4441C19.4884 30.3711 19.5068 30.2978 19.5479 30.2371C19.6479 29.7701 19.7039 29.3031 19.7549 28.9921C19.7481 28.6062 19.8564 28.2271 20.0659 27.9031C20.1179 27.8031 20.3249 27.7471 20.5849 27.7471H20.9479H20.9529Z" fill="white"/>
<path d="M20.227 40.038C20.1886 39.7377 20.1192 39.4421 20.02 39.1561L19.968 39.056C19.968 39.004 19.916 39.004 19.916 38.956C19.9161 38.9492 19.9149 38.9424 19.9123 38.936C19.9097 38.9296 19.9059 38.9238 19.901 38.919C19.8962 38.9141 19.8904 38.9103 19.884 38.9077C19.8777 38.9052 19.8708 38.9039 19.864 38.9041L19.812 38.8521H19.76C19.7531 38.8522 19.7463 38.8509 19.7399 38.8484C19.7335 38.8458 19.7278 38.842 19.7229 38.8371C19.7181 38.8323 19.7142 38.8265 19.7117 38.8201C19.7091 38.8137 19.7078 38.8069 19.708 38.8H19.656C19.491 38.7245 19.3163 38.672 19.137 38.644H18.981C18.929 38.644 18.881 38.644 18.881 38.696C18.8476 38.7294 18.8143 38.7627 18.781 38.7961L18.729 38.8481C18.7291 38.8549 18.7279 38.8617 18.7253 38.8681C18.7227 38.8745 18.7189 38.8803 18.7141 38.8851C18.7092 38.89 18.7034 38.8938 18.697 38.8964C18.6907 38.8989 18.6838 38.9002 18.677 38.9C18.625 39 18.521 39.107 18.47 39.211C18.314 39.47 18.107 39.73 17.951 39.989C17.795 40.196 17.64 40.456 17.484 40.663C17.384 40.763 17.328 40.922 17.225 41.026L17.173 41.078C17.273 41.078 17.38 41.1301 17.484 41.1301C17.7218 41.1887 17.9651 41.2222 18.21 41.23C18.7078 41.2908 19.2085 41.3242 19.71 41.33H19.762C19.862 41.174 20.021 40.9671 20.177 40.7081C20.2703 40.5742 20.3568 40.4357 20.436 40.293C20.28 40.193 20.229 40.137 20.229 40.034L20.227 40.038Z" fill="white"/>
<path d="M18.5159 42.061C18.2814 42.8862 17.8944 43.6602 17.3749 44.343C16.8039 45.121 16.4929 45.328 16.4409 45.328C16.1819 45.276 15.9219 44.654 15.7149 43.98C15.6288 43.7432 15.5597 43.5006 15.5079 43.254C15.384 42.7451 15.3315 42.2214 15.3519 41.698C16.275 42.053 17.2664 42.1949 18.2519 42.113C18.331 42.0648 18.4246 42.0464 18.5159 42.061Z" fill="white"/>
<path d="M17.53 38.9501C17.271 39.3131 17.063 39.6761 16.804 40.0391C16.704 40.1951 16.545 40.4021 16.441 40.5581C16.389 40.6581 16.285 40.7651 16.234 40.8691C16.027 40.8171 15.819 40.7691 15.663 40.7131L15.196 40.5571C15.144 40.5571 15.144 40.5571 15.096 40.5051C15.096 40.4531 15.044 40.4051 14.996 40.3491C15.0574 40.2324 15.1095 40.111 15.152 39.9861L15.463 39.3641C15.6654 38.9798 15.9485 38.6438 16.293 38.3791C16.2998 38.3793 16.3067 38.378 16.313 38.3754C16.3194 38.3729 16.3252 38.369 16.33 38.3642C16.3349 38.3593 16.3387 38.3535 16.3413 38.3472C16.3439 38.3408 16.3451 38.334 16.345 38.3271C16.4776 38.2222 16.6429 38.167 16.812 38.1711H17.019C17.071 38.1711 17.119 38.1711 17.119 38.2231H17.171C17.223 38.2231 17.223 38.2751 17.271 38.2751C17.219 38.2231 17.323 38.3751 17.323 38.3751C17.4219 38.5546 17.4918 38.7487 17.53 38.9501Z" fill="white"/>
<path d="M15.663 37.9641C15.2492 38.3567 14.8993 38.8115 14.626 39.3121C14.47 39.5711 14.367 39.8831 14.211 40.1421C14.211 40.1941 14.159 40.1941 14.159 40.2421C14.003 40.1901 13.9 40.1901 13.744 40.1421C13.588 40.0941 13.485 40.0421 13.329 39.9861C13.277 39.9341 13.229 39.9341 13.173 39.8861C13.3306 39.6557 13.4694 39.4129 13.588 39.1601C13.7954 38.8367 14.0204 38.5249 14.262 38.2261C14.362 38.1261 14.469 37.9671 14.573 37.9151C14.729 37.8151 14.884 37.8631 15.04 37.8631C15.1974 37.8547 15.3552 37.8722 15.507 37.9151C15.555 37.942 15.6082 37.9587 15.663 37.9641Z" fill="white"/>
<path d="M14.9889 43.8241L14.9369 43.8761H13.9519C13.8519 43.8761 13.7449 43.8761 13.6929 43.7761C13.6296 43.6284 13.5957 43.4698 13.5929 43.3091C13.4455 42.557 13.4279 41.7852 13.5409 41.0271C13.9224 41.1852 14.3238 41.2898 14.7339 41.3381C14.6661 41.9991 14.719 42.667 14.8899 43.3091C14.8876 43.4857 14.9213 43.6609 14.9889 43.8241Z" fill="white"/>
<path d="M13.7439 37.7571C13.3863 38.1725 13.0732 38.6243 12.8099 39.1051C12.6865 39.284 12.5823 39.4754 12.4989 39.6761C12.3429 39.6241 12.2399 39.5761 12.0839 39.5201C11.9839 39.4681 11.8769 39.3641 11.7729 39.3131C11.7729 39.3131 11.6729 39.2611 11.6729 39.2131H11.6179C11.6648 39.1326 11.6986 39.0452 11.7179 38.9541C11.784 38.7881 11.8711 38.6311 11.9769 38.4871C12.1329 38.2281 12.3399 37.9161 12.4959 37.6571C12.5544 37.5469 12.6447 37.4566 12.7549 37.3981C12.8549 37.3461 13.0139 37.3981 13.0659 37.3981C13.3272 37.4332 13.5668 37.5622 13.7399 37.7611L13.7439 37.7571Z" fill="white"/>
<path d="M11.0989 39.572C11.2549 39.672 11.3579 39.779 11.5139 39.883L11.6699 40.039V40.091C11.5079 40.665 11.4208 41.2576 11.411 41.854C11.411 41.906 11.3589 41.906 11.3589 41.854C11.1351 41.1153 11.047 40.3421 11.0989 39.572Z" fill="white"/>
<path d="M12.7589 40.8681C12.7069 41.3871 12.6589 41.9051 12.6589 42.4241C12.6667 42.7033 12.7001 42.9811 12.7589 43.2541H12.4479C12.4197 43.2577 12.391 43.2549 12.364 43.2459C12.337 43.2369 12.3124 43.2219 12.2919 43.2021L12.0849 42.9951C11.959 42.7563 11.9048 42.4861 11.9289 42.2171C11.9122 41.6792 11.9456 41.1409 12.0289 40.6091C12.1289 40.6611 12.1849 40.6611 12.2879 40.7091C12.4485 40.745 12.605 40.7973 12.7549 40.8651L12.7589 40.8681Z" fill="white"/>
<g opacity="0.8">
<path d="M26.347 67.734C24.013 67.734 21.783 67.578 19.916 67.423L19.397 67.371L18.878 67.319C18.671 67.267 18.359 67.267 18.048 67.219C15.0018 66.958 12.0213 66.1866 9.23097 64.937L8.66097 64.678L8.14197 64.367C1.08897 60.425 -1.60803 54.409 -3.00903 51.245C-3.10903 51.038 -3.21603 50.778 -3.32003 50.571C-3.952 49.2867 -4.47257 47.9504 -4.87603 46.577L-4.97603 46.318L-5.02803 46.059C-6.02824 42.8579 -6.3116 39.4759 -5.85803 36.153C-5.35145 32.9237 -4.10948 29.8541 -2.22803 27.181L-1.19103 25.469C-0.982583 25.1125 -0.825375 24.7284 -0.724028 24.328C-0.113875 21.4267 1.06591 18.6752 2.74697 16.233C2.98504 14.6236 3.38472 13.0423 3.93997 11.513L4.03997 11.306L4.13997 11.099C4.13997 11.047 4.19197 10.999 4.19197 10.892C5.00603 8.36859 6.27119 6.01378 7.92597 3.94203L8.80797 2.85304L9.74197 2.02304C12.0864 -0.126202 14.8938 -1.70731 17.947 -2.59796C19.6503 -3.11375 21.4084 -3.42725 23.185 -3.53197H24.533C25.644 -3.52305 26.753 -3.4365 27.852 -3.27296C28.5326 -3.15836 29.2316 -3.22988 29.875 -3.47996C31.7741 -4.25101 33.759 -4.79089 35.787 -5.08797C35.943 -5.08797 36.098 -5.13997 36.202 -5.13997C36.513 -5.19197 37.032 -5.23996 37.654 -5.29596C38.743 -5.39596 40.354 -5.50296 42.166 -5.50296C45.2829 -5.55506 48.3863 -5.08178 51.346 -4.10296L51.553 -4.00296L51.76 -3.90297C56.1846 -2.34745 60.0478 0.486613 62.86 4.24004L62.96 4.39604L63.271 4.65503C65.2303 6.19687 66.8988 8.07601 68.198 10.204L68.613 10.878L68.976 11.552C70.964 15.7401 71.5297 20.4629 70.587 25.002V25.102C70.3485 26.6099 69.9485 28.0877 69.394 29.51C69.2008 30.8877 68.8708 32.2428 68.409 33.555C67.6219 35.9073 66.4856 38.1278 65.038 40.142C64.2025 41.3426 63.2465 42.4548 62.185 43.461C61.8116 43.8192 61.5734 44.2954 61.511 44.809L61.355 45.743C60.7449 48.9428 59.5115 51.9913 57.725 54.715L55.287 58.242C52.561 61.7665 48.8084 64.358 44.547 65.659L43.51 65.97L42.421 66.177C41.1521 66.3836 39.8686 66.4876 38.583 66.488H37.447C36.9525 66.4985 36.4626 66.5859 35.995 66.747C32.8225 67.4112 29.5892 67.7413 26.348 67.732L26.347 67.734Z" stroke="#707070" stroke-width="0.853" stroke-miterlimit="10"/>
<path d="M26.3469 65.2959C24.1169 65.2959 21.9389 65.1399 20.1229 64.9849L19.7079 64.9329L19.2929 64.8809C19.0339 64.8289 18.7219 64.8289 18.3589 64.7809C15.636 64.5561 12.9707 63.8721 10.4759 62.7579L10.0089 62.5509L9.54192 62.2919C3.31792 58.7649 0.983921 53.5789 -0.416079 50.4669C-0.516079 50.2599 -0.623076 49.9479 -0.727076 49.7409C-1.30313 48.558 -1.77168 47.3257 -2.12708 46.0589L-2.17908 45.8519L-2.23108 45.6449C-3.11821 42.8308 -3.36624 39.8541 -2.95708 36.9319C-2.48563 34.1135 -1.38652 31.4372 0.258924 29.1009L1.60692 26.9229C1.85988 26.5512 2.02003 26.1243 2.07392 25.6779C2.60787 22.9738 3.7035 20.4119 5.28992 18.1579L5.38992 18.0019L5.44192 17.9499C5.44192 17.8979 5.49392 17.8979 5.49392 17.8499L5.64992 17.3829C5.85921 15.8629 6.22413 14.3684 6.73892 12.9229L6.79092 12.7159V12.4569C6.79092 12.4049 6.84292 12.3569 6.89092 12.1459C7.57738 9.94133 8.66792 7.88367 10.1069 6.07792L10.8329 5.14392L11.6109 4.46992C13.6414 2.60507 16.0754 1.23474 18.7229 0.465925C20.2239 0.00983763 21.7731 -0.268732 23.3389 -0.364077H24.4799C25.5808 -0.500174 26.6919 -0.533658 27.7989 -0.464083C28.6526 -0.291823 29.5385 -0.382122 30.3399 -0.723086C32.1912 -1.39695 34.1303 -1.79879 36.0969 -1.91608C36.2529 -1.91608 36.4079 -1.96808 36.5119 -1.96808C36.8229 -2.02008 37.2899 -2.06807 37.8599 -2.12407C38.8449 -2.22407 40.4009 -2.33107 42.1129 -2.33107C44.9121 -2.38362 47.7 -1.9627 50.3589 -1.08608L50.5659 -1.03408L50.7729 -0.982073C54.7055 0.379754 58.1384 2.89123 60.6269 6.22693C60.7055 6.35326 60.792 6.47449 60.8859 6.58992L60.9379 6.64192L61.3009 7.00493L61.3529 7.05693C63.0946 8.39812 64.572 10.0512 65.7099 11.9319L66.0209 12.5029L66.3319 13.0739C68.0412 16.7119 68.5321 20.8039 67.7319 24.7429V24.8429C67.4863 26.2761 67.1042 27.6825 66.5909 29.0429C66.4209 30.3646 66.1256 31.6672 65.7089 32.9329C65.04 35.0146 64.042 36.9758 62.7529 38.7419C61.8905 39.9833 60.8805 41.1153 59.7449 42.1129C59.2364 42.5942 58.907 43.2344 58.8109 43.9279C58.7708 44.4315 58.7017 44.9323 58.6039 45.4279C58.0641 48.3079 56.9341 51.045 55.2849 53.4669L53.3139 56.3669C50.9242 59.5994 47.5625 61.982 43.7209 63.1659L42.8389 63.4249L41.9049 63.5809C40.7934 63.7896 39.6648 63.8937 38.5339 63.8919H36.9269C36.3984 63.9021 35.8742 63.9893 35.3709 64.1509C32.4374 64.9827 29.3952 65.3673 26.3469 65.2919V65.2959Z" stroke="#707070" stroke-width="0.853" stroke-miterlimit="10"/>
<path d="M26.342 62.443C24.216 62.443 22.089 62.287 20.378 62.184L20.015 62.132L19.652 62.08C19.3267 62.0211 18.9974 61.9877 18.667 61.98C16.2484 61.8064 13.8792 61.2097 11.667 60.217L11.304 60.061L10.941 59.854C5.54696 56.794 3.52396 52.334 2.22796 49.377C2.12796 49.118 1.96896 48.858 1.86496 48.547C1.35956 47.4703 0.925298 46.3616 0.564957 45.228L0.512955 45.072L0.460957 44.916C-0.303994 42.4874 -0.53393 39.9219 -0.213043 37.396C0.194589 34.9397 1.17167 32.6129 2.63996 30.602L2.84695 30.343L3.05396 30.084C3.19083 29.9413 3.31248 29.7848 3.41695 29.617L4.24696 28.165C4.52701 27.6884 4.70383 27.1583 4.76596 26.609C5.19864 24.16 6.17342 21.8387 7.61895 19.815C7.67217 19.7575 7.707 19.6854 7.71896 19.608L7.87495 19.349C7.9529 19.1797 8.02199 19.0065 8.08195 18.83C8.1526 18.5657 8.23909 18.3059 8.34095 18.052C8.51518 16.6369 8.84552 15.2454 9.32595 13.903L9.37796 13.747L9.44196 13.588C9.50175 13.4351 9.55381 13.2792 9.59795 13.121C10.1811 11.2353 11.1136 9.47607 12.347 7.93501L12.969 7.209L13.591 6.63901C15.3188 5.06755 17.3734 3.89851 19.607 3.216C20.9075 2.83653 22.2479 2.61034 23.601 2.54201H24.483C25.6361 2.54901 26.7846 2.68825 27.906 2.957C28.8774 3.22032 29.9124 3.10934 30.806 2.64601C32.5847 1.77181 34.4941 1.19355 36.459 0.934004C36.615 0.934004 36.77 0.882002 36.874 0.882002C37.133 0.830002 37.6 0.781996 38.174 0.725996C39.4824 0.587804 40.7972 0.518383 42.113 0.518003C44.5947 0.464674 47.0675 0.832906 49.426 1.60701L49.582 1.65901L49.738 1.711C53.179 2.87902 56.1821 5.06834 58.347 7.987C58.5489 8.26518 58.7744 8.52548 59.021 8.765L59.332 9.024L59.432 9.12401C60.969 10.2647 62.2721 11.6906 63.27 13.324L63.529 13.791L63.736 14.258C65.1899 17.3647 65.5906 20.861 64.877 24.216V24.316C64.6554 25.6709 64.2724 26.9943 63.736 28.258V28.358C63.5761 29.5705 63.3159 30.7676 62.958 31.937C62.3783 33.7621 61.5023 35.4794 60.365 37.02C59.4211 38.3704 58.2855 39.5761 56.994 40.599C56.6952 40.8413 56.4483 41.1412 56.268 41.481C56.11 41.8444 56.0052 42.2287 55.957 42.622C55.9219 43.3876 55.8354 44.15 55.698 44.904C55.2146 47.4541 54.2081 49.8763 52.742 52.018L51.186 54.3C49.1405 57.2135 46.1862 59.366 42.786 60.42L42.112 60.627L41.386 60.727C40.4435 60.8904 39.4894 60.977 38.533 60.986H37.242L36.464 61.038C35.8964 61.0406 35.334 61.1459 34.804 61.349C32.0584 62.1429 29.2071 62.5102 26.35 62.438L26.342 62.443Z" stroke="#707070" stroke-width="0.8" stroke-miterlimit="10"/>
<path d="M26.347 59.591C24.272 59.591 22.302 59.435 20.59 59.332H20.331L20.072 59.28C19.7118 59.221 19.3479 59.1876 18.983 59.18C16.8893 59.0317 14.8367 58.5243 12.915 57.68L12.604 57.524L12.345 57.368C7.78103 54.775 6.06903 50.989 4.82503 48.24C4.70812 47.9363 4.56943 47.6416 4.41002 47.358C3.94345 46.4081 3.56164 45.419 3.26903 44.402L3.21703 44.246L3.16503 44.09C1.81703 39.319 2.33502 35.999 4.98002 32.161L5.13603 31.954L5.29202 31.747C5.44802 31.54 5.65503 31.332 5.81103 31.125C6.07003 30.814 6.27803 30.503 6.58903 30.14C6.75711 29.935 6.89671 29.7083 7.00403 29.466L7.31503 28.688C7.43171 28.3506 7.51837 28.0036 7.57403 27.651C7.83522 25.3445 8.69308 23.1459 10.063 21.272C10.115 21.172 10.219 21.065 10.219 21.013L10.375 20.754L10.427 20.702C10.527 20.495 10.686 20.131 10.842 19.717C10.942 19.458 11.049 18.991 11.205 18.628V18.571C11.3389 17.2938 11.6353 16.039 12.087 14.837L12.139 14.737L12.191 14.637C12.2907 14.4411 12.3605 14.2315 12.398 14.015C12.8576 12.4657 13.6151 11.021 14.628 9.76197L15.095 9.19097L15.562 8.77596C17.8649 6.74129 20.7926 5.55226 23.862 5.40496H24.631C26.109 5.40752 27.5714 5.70748 28.931 6.28696C29.178 6.38838 29.4421 6.44135 29.709 6.44297C29.9635 6.42966 30.2118 6.35889 30.435 6.23597C32.4218 4.98116 34.6468 4.15109 36.97 3.79796C37.126 3.79796 37.229 3.74596 37.333 3.74596C37.592 3.69396 38.007 3.64595 38.526 3.58995C39.7485 3.4524 40.9778 3.38329 42.208 3.38295C44.3717 3.33351 46.5283 3.64928 48.587 4.31696L48.687 4.36896L48.787 4.42096C51.7422 5.41129 54.3161 7.29638 56.152 9.81496C56.4567 10.2306 56.8043 10.6131 57.189 10.956L57.396 11.163L57.603 11.37L57.759 11.47C59.0476 12.3915 60.126 13.5759 60.923 14.945L61.13 15.256L61.286 15.619C62.4543 18.1842 62.7636 21.0579 62.168 23.813V23.913C61.9497 25.1224 61.6021 26.3048 61.131 27.44L61.079 27.54V27.64C61.079 27.74 61.027 27.847 61.027 27.951V28.107C60.9073 29.1303 60.6814 30.1384 60.353 31.115C59.8482 32.65 59.1138 34.0997 58.175 35.415C57.2977 36.6778 56.2305 37.7973 55.011 38.734C54.4904 39.1164 54.0645 39.6131 53.766 40.186C53.4542 40.7585 53.2935 41.4011 53.299 42.053C53.2926 42.855 53.2058 43.6543 53.04 44.439C52.5891 46.6465 51.7081 48.7438 50.447 50.611L49.306 52.271C47.6003 54.8608 45.0545 56.7841 42.097 57.717L41.941 57.769C41.705 57.8456 41.4617 57.8979 41.215 57.925L41.059 57.977C40.2723 58.123 39.4732 58.1924 38.673 58.184H37.373C37.01 58.184 36.491 58.236 36.073 58.236C35.4912 58.2638 34.9155 58.3684 34.361 58.547C31.7472 59.2875 29.0382 59.637 26.322 59.584L26.347 59.591Z" stroke="#707070" stroke-width="0.747" stroke-miterlimit="10"/>
<path d="M26.347 56.739C24.376 56.739 22.457 56.583 20.798 56.48H20.487C20.072 56.428 19.709 56.38 19.346 56.324C17.5604 56.1988 15.8079 55.7781 14.16 55.079L13.953 54.979L13.797 54.879C10.063 52.753 8.611 49.589 7.521 47.048C7.36116 46.7467 7.22249 46.4346 7.106 46.114C6.70545 45.2968 6.3759 44.4467 6.121 43.573L6.069 43.473V43.373C4.98 39.431 5.343 36.942 7.469 33.83L7.569 33.674L7.669 33.518C7.876 33.259 8.032 33.051 8.188 32.844C8.77637 32.0417 9.41745 31.2793 10.107 30.562C10.2618 30.3647 10.3684 30.1339 10.418 29.888L10.47 28.954V28.332C10.6125 26.3612 11.3143 24.4719 12.493 22.886C12.568 22.7865 12.6372 22.6827 12.7 22.575L12.8 22.368L12.9 22.212C13 22.005 13.367 21.278 13.626 20.604C13.726 20.293 13.885 19.774 14.041 19.359C14.0917 19.2076 14.1252 19.0509 14.141 18.892C14.2475 17.8277 14.4915 16.7816 14.867 15.78L14.919 15.68L14.971 15.58C15.071 15.321 15.127 15.113 15.23 14.854C15.5863 13.6238 16.1858 12.4775 16.993 11.483L17.304 11.12L17.615 10.861C19.4292 9.22877 21.7628 8.29171 24.202 8.21603H24.721C26.1633 8.33264 27.5709 8.71972 28.87 9.35704C29.0806 9.45757 29.3106 9.5108 29.544 9.51303C29.7888 9.50519 30.0322 9.47168 30.27 9.41304C30.8366 9.20254 31.3908 8.96014 31.93 8.68702C33.612 7.61055 35.5034 6.90331 37.479 6.61203C37.635 6.61203 37.738 6.56002 37.842 6.56002C38.101 6.50802 38.464 6.50803 38.931 6.46003C40.0682 6.34375 41.211 6.29166 42.354 6.30403C44.1956 6.26925 46.0318 6.51403 47.8 7.03003L47.852 7.08203L47.904 7.13403C50.367 7.93083 52.5112 9.49341 54.024 11.594C54.4278 12.1331 54.8789 12.6351 55.372 13.094L55.528 13.25L55.684 13.406C55.8108 13.5397 55.9497 13.6612 56.099 13.769C57.0894 14.5064 57.9335 15.4221 58.588 16.469L58.744 16.676L58.844 16.883C59.7776 18.9118 59.9968 21.1968 59.466 23.366V23.466C59.2926 24.4593 59.0143 25.4314 58.636 26.366C58.5191 26.6102 58.4489 26.8741 58.429 27.144C58.386 27.3135 58.3685 27.4884 58.377 27.663V27.819C58.2916 28.6527 58.0997 29.4721 57.806 30.257C57.4015 31.5255 56.7881 32.7176 55.991 33.784C54.9782 35.3488 53.5384 36.5908 51.842 37.363C51.4377 37.5344 51.0945 37.8237 50.857 38.193C50.6203 38.5493 50.4775 38.9597 50.442 39.386V39.801C50.5874 41.1826 50.5538 42.5771 50.342 43.95C49.9692 45.8315 49.2098 47.6152 48.112 49.188C48.112 49.188 44.585 54.115 41.37 55.1L41.007 55.2L40.644 55.252C40.027 55.3554 39.4026 55.4076 38.777 55.408H37.342C36.097 55.46 34.956 55.508 34.642 55.564C34.4627 55.592 34.288 55.6444 34.123 55.72C31.5951 56.4482 28.9733 56.7976 26.343 56.757L26.347 56.739Z" stroke="#707070" stroke-width="0.693" stroke-miterlimit="10"/>
<path d="M26.347 53.834C24.48 53.834 22.613 53.734 21.005 53.575H20.798L19.553 53.419C18.0709 53.3221 16.6164 52.9713 15.253 52.382L15.153 52.33L15.053 52.278C12.097 50.618 11.008 48.178 9.97003 45.795C9.81403 45.432 9.65903 45.121 9.50303 44.758C9.15903 44.0594 8.88115 43.3303 8.67303 42.58V42.48C7.79103 39.368 7.99903 37.76 9.65803 35.375L9.71003 35.323L9.76203 35.271C9.952 35.0415 10.1254 34.7989 10.281 34.545C11.1674 33.3227 12.1752 32.1933 13.289 31.174C13.4075 31.0664 13.4813 30.9183 13.496 30.759C13.5479 30.6076 13.5479 30.4433 13.496 30.292L13.237 29.514C13.1783 29.2585 13.1448 28.998 13.137 28.736V28.373C13.2865 26.9261 13.8241 25.5465 14.693 24.38C14.793 24.224 14.9 24.121 14.952 24.017L15.004 23.917L15.056 23.817C15.4994 23.0791 15.8644 22.2968 16.145 21.483C16.197 21.276 16.404 20.653 16.56 20.183C16.6588 19.8439 16.7281 19.497 16.767 19.146C16.8773 18.2829 17.0685 17.4322 17.338 16.605V16.505C17.494 16.142 17.545 15.883 17.649 15.623C17.914 14.7264 18.3355 13.8837 18.894 13.134L19.05 12.927L19.206 12.771C20.5576 11.5825 22.282 10.9037 24.081 10.852H24.444C25.5423 10.9033 26.611 11.224 27.556 11.786L27.712 11.886C27.8797 11.9827 28.053 12.0692 28.231 12.145C28.6672 12.352 29.16 12.4069 29.631 12.301C30.8104 11.956 31.9561 11.5049 33.054 10.953C34.4039 10.0752 35.9236 9.49183 37.514 9.24096C37.614 9.24096 37.721 9.18896 37.825 9.18896C38.032 9.13696 38.396 9.13697 38.81 9.08897C39.588 9.03697 40.729 8.93296 41.974 8.93296C43.498 8.89929 45.0185 9.09172 46.486 9.50396H46.586C48.5688 10.1395 50.2956 11.3939 51.513 13.083C52.0218 13.7594 52.5951 14.3847 53.225 14.95L53.277 15.002L53.329 15.054C53.5599 15.274 53.8022 15.4816 54.055 15.676C54.7662 16.1901 55.3659 16.8428 55.818 17.595L55.87 17.695L55.922 17.795C56.5671 19.3014 56.6948 20.9792 56.285 22.566V22.666C56.1638 23.4534 55.9371 24.221 55.611 24.948C55.4186 25.3788 55.2792 25.8315 55.196 26.296C55.1413 26.5169 55.1078 26.7426 55.096 26.97V27.126C55.0325 27.7796 54.8932 28.4235 54.681 29.045C54.3623 30.0452 53.89 30.9899 53.281 31.845C52.3936 33.2337 51.0575 34.2768 49.495 34.801C48.763 35.0476 48.1277 35.5194 47.68 36.149L47.58 36.356L47.424 36.512C47.009 36.979 47.165 38.69 47.217 39.728C47.3298 40.8672 47.3124 42.0156 47.165 43.151C46.8356 44.6944 46.2009 46.1565 45.298 47.451C45.298 47.451 42.598 51.341 40.163 52.067L40.007 52.119L39.8 52.171C39.3385 52.2558 38.869 52.2893 38.4 52.271H37.726C37.4485 52.2695 37.1712 52.2868 36.896 52.323H36.796C35.7382 52.3284 34.6816 52.3976 33.632 52.53C33.2569 52.5852 32.8908 52.6898 32.543 52.841C31.298 53.567 29.276 53.826 26.371 53.826L26.347 53.834Z" stroke="#707070" stroke-width="0.693" stroke-miterlimit="10"/>
</g>
</g>
</g>
<defs>
<radialGradient id="paint0_radial_40_23898" cx="0" cy="0" r="1" gradientUnits="userSpaceOnUse" gradientTransform="translate(155.786 -88.458) rotate(90) scale(35.968)">
<stop offset="0.167" stop-color="#073183"/>
<stop offset="1" stop-color="#0054F9"/>
</radialGradient>
<clipPath id="clip0_40_23898">
<rect width="64" height="64" fill="white"/>
</clipPath>
</defs>
</svg>
