<svg width="64" height="64" viewBox="0 0 64 64" fill="none" xmlns="http://www.w3.org/2000/svg">
<g clip-path="url(#clip0_329_54)">
<path d="M32 64C49.6731 64 64 49.6731 64 32C64 14.3269 49.6731 0 32 0C14.3269 0 0 14.3269 0 32C0 49.6731 14.3269 64 32 64Z" fill="#F5F5F5"/>
<path d="M8.89551 21.1481V43.26C8.89551 44.6815 9.64009 45.9676 10.8811 46.6896L30.0372 57.7456C31.2556 58.445 32.7673 58.445 33.9858 57.7456L53.1419 46.6896C54.3603 45.9901 55.1275 44.6815 55.1275 43.26V21.1481C55.1275 19.7266 54.3829 18.4405 53.1419 17.7185L33.9858 6.66253C32.7673 5.96307 31.2556 5.96307 30.0372 6.66253L10.8811 17.7185C9.66266 18.4179 8.91807 19.7266 8.91807 21.1481H8.89551Z" fill="#213147"/>
<path d="M36.174 36.4911L33.4438 43.9821C33.3761 44.1852 33.3761 44.4108 33.4438 44.6364L38.137 57.52L43.5747 54.3837L37.0539 36.4911C36.896 36.085 36.3319 36.085 36.174 36.4911Z" fill="#12AAFF"/>
<path d="M41.657 23.901C41.499 23.4949 40.9349 23.4949 40.777 23.901L38.0469 31.392C37.9792 31.5951 37.9792 31.8207 38.0469 32.0463L45.7409 53.1429L51.1786 50.0066L41.657 23.9236V23.901Z" fill="#12AAFF"/>
<path d="M32 7.49729C32.1354 7.49729 32.2708 7.54242 32.3836 7.61011L53.0966 19.5686C53.3448 19.704 53.4801 19.9747 53.4801 20.2455V44.1625C53.4801 44.4332 53.3222 44.704 53.0966 44.8393L32.3836 56.7978C32.2708 56.8655 32.1354 56.9106 32 56.9106C31.8646 56.9106 31.7292 56.8655 31.6164 56.7978L10.9034 44.8393C10.6552 44.704 10.5199 44.4332 10.5199 44.1625V20.2229C10.5199 19.9522 10.6778 19.6814 10.9034 19.546L31.6164 7.58755C31.7292 7.51986 31.8646 7.47473 32 7.47473V7.49729ZM32 4C31.2554 4 30.5334 4.18051 29.8565 4.56408L9.1435 16.5226C7.81227 17.2897 7 18.6886 7 20.2229V44.1399C7 45.6742 7.81227 47.0731 9.1435 47.8403L29.8565 59.7987C30.5108 60.1823 31.2554 60.3628 32 60.3628C32.7446 60.3628 33.4666 60.1823 34.1435 59.7987L54.8565 47.8403C56.1877 47.0731 57 45.6742 57 44.1399V20.2229C57 18.6886 56.1877 17.2897 54.8565 16.5226L34.1209 4.56408C33.4666 4.18051 32.722 4 31.9774 4H32Z" fill="#9DCCED"/>
<path d="M18.2812 53.1651L20.1991 47.9304L24.0349 51.1118L20.4473 54.4061L18.2812 53.1651Z" fill="#213147"/>
<path d="M30.2404 18.5309H24.9832C24.5997 18.5309 24.2386 18.7791 24.1033 19.1401L12.8442 50.0065L18.282 53.1428L30.6917 19.1401C30.8045 18.8242 30.5789 18.5083 30.263 18.5083L30.2404 18.5309Z" fill="white"/>
<path d="M39.4464 18.5309H34.1892C33.8056 18.5309 33.4446 18.7791 33.3093 19.1401L20.4482 54.3837L25.886 57.52L39.8751 19.1401C39.988 18.8242 39.7623 18.5083 39.4464 18.5083V18.5309Z" fill="white"/>
</g>
<defs>
<clipPath id="clip0_329_54">
<rect width="64" height="64" fill="white"/>
</clipPath>
</defs>
</svg>
