<svg width="64" height="64" viewBox="0 0 64 64" fill="none" xmlns="http://www.w3.org/2000/svg">
<g clip-path="url(#clip0_406_28)">
<mask id="mask0_406_28" style="mask-type:luminance" maskUnits="userSpaceOnUse" x="0" y="0" width="64" height="64">
<path d="M64 0H0V64H64V0Z" fill="white"/>
</mask>
<g mask="url(#mask0_406_28)">
<path d="M32 64C49.6731 64 64 49.6731 64 32C64 14.3269 49.6731 0 32 0C14.3269 0 0 14.3269 0 32C0 49.6731 14.3269 64 32 64Z" fill="black"/>
<path d="M15.3123 13.425C14.7047 15.315 14.2002 16.9072 14.2002 16.9759C14.2002 17.0676 18.0065 17.102 27.1555 17.102H40.1109L40.0535 16.8385C40.0191 16.701 39.5032 15.1203 38.9185 13.3219L37.8523 10.0572L27.1441 10.0229L16.4244 10L15.3123 13.425Z" fill="white"/>
<path d="M39.6865 10.1374C39.7094 10.2176 41.5094 15.7274 43.6648 22.3712C45.8316 29.015 47.6316 34.5018 47.6775 34.5476C47.7463 34.6278 52.9743 30.9508 53.5131 30.4468C53.6507 30.3208 53.1577 28.7171 50.3603 20.1489L47.0584 10H43.3438C40.4202 10 39.6406 10.0343 39.6865 10.1374Z" fill="white"/>
<path d="M33.3467 18.8431C33.3352 19.0264 37.2562 31.0997 37.3594 31.2143C37.3938 31.2716 38.7467 30.3437 40.3403 29.1753C42.7479 27.4227 43.2638 26.9989 43.2409 26.7927C43.2294 26.6553 42.6447 24.7767 41.9454 22.6232L40.6728 18.7056H37.004C34.1607 18.7056 33.3467 18.74 33.3467 18.8431Z" fill="white"/>
<path d="M10.2676 28.9693C8.45611 34.5592 6.9886 39.1412 7.00007 39.1526C7.81407 39.7826 12.9618 43.4596 12.9847 43.4367C13.0077 43.4138 14.7847 37.9269 16.9516 31.2488C19.1185 24.5706 20.907 19.038 20.9414 18.9578C20.9758 18.8547 20.1962 18.8203 17.2726 18.8203H13.5695L10.2676 28.9693Z" fill="white"/>
<path d="M21.676 22.2792L20.541 25.75L27.076 25.7844C30.676 25.7958 33.6339 25.7844 33.6683 25.7615C33.6913 25.7271 33.29 24.3983 32.7741 22.8061C32.2581 21.2139 31.7537 19.6675 31.662 19.3582L31.5015 18.8198H27.1563H22.8111L21.676 22.2792Z" fill="white"/>
<path d="M19.8175 27.9502C19.7602 28.1907 19.164 30.035 18.4991 32.051C17.3755 35.4989 17.3182 35.728 17.5016 35.8998C17.8341 36.2091 23.1309 40.0121 23.2341 40.0121C23.2914 40.0121 24.2201 37.2859 25.2978 33.9411C26.3869 30.6077 27.3041 27.8013 27.3385 27.6982C27.3958 27.5493 26.9831 27.5264 23.6697 27.5264H19.9437L19.8175 27.9502Z" fill="white"/>
<path d="M38.5745 32.5665C35.7427 34.6398 33.3924 36.3695 33.3351 36.4268C33.2433 36.5299 39.0446 40.7681 39.2509 40.7452C39.3427 40.7338 44.7656 36.8735 46.1757 35.8082C46.2789 35.7395 43.9516 28.7864 43.8369 28.7979C43.7796 28.7979 41.4063 30.4932 38.5745 32.5665Z" fill="white"/>
<path d="M43.7112 39.6795C37.9787 43.8491 33.2781 47.2741 33.2552 47.2855C33.2322 47.3084 34.5736 48.305 36.236 49.4963L39.2513 51.6842L39.5953 51.4207C39.7787 51.2718 43.6538 48.4654 48.1939 45.1664C52.734 41.8789 56.4716 39.1641 56.4945 39.1412C56.5633 39.0839 54.2933 32.1079 54.2015 32.1079C54.1671 32.1079 49.4551 35.5214 43.7112 39.6795Z" fill="white"/>
<path d="M26.9604 34.3646C26.9375 34.4791 26.4331 36.037 25.8483 37.8354C25.2636 39.6338 24.805 41.1344 24.828 41.1802C24.8853 41.2948 31.4891 46.0829 31.684 46.1516C31.8445 46.2203 37.6457 42.0622 37.6343 41.9019C37.6343 41.8102 27.1783 34.1699 27.0636 34.1699C27.0407 34.1699 26.9948 34.2615 26.9604 34.3646Z" fill="white"/>
<path d="M15.6226 40.8938C15.015 42.7724 14.5105 44.3646 14.499 44.4333C14.4761 44.6395 31.7308 57.1024 31.8913 56.9993C32.5104 56.6213 37.6467 52.8068 37.6467 52.7266C37.6467 52.6579 20.6213 40.2409 17.1016 37.7437L16.7462 37.4917L15.6226 40.8938Z" fill="white"/>
</g>
</g>
<defs>
<clipPath id="clip0_406_28">
<rect width="64" height="64" fill="white"/>
</clipPath>
</defs>
</svg>
