<svg width="64" height="64" viewBox="0 0 64 64" fill="none" xmlns="http://www.w3.org/2000/svg">
<g clip-path="url(#clip0_333_10421)">
<path d="M32 64C49.6731 64 64 49.6731 64 32C64 14.3269 49.6731 0 32 0C14.3269 0 0 14.3269 0 32C0 49.6731 14.3269 64 32 64Z" fill="#F5F5F5"/>
<path d="M15.3123 13.4251C14.7047 15.3151 14.2002 16.9073 14.2002 16.976C14.2002 17.0677 18.0065 17.1021 27.1555 17.1021H40.1109L40.0535 16.8386C40.0191 16.7011 39.5032 15.1204 38.9185 13.322L37.8523 10.0573L27.1441 10.023L16.4244 10.0001L15.3123 13.4251Z" fill="black"/>
<path d="M39.6865 10.1373C39.7094 10.2175 41.5094 15.7273 43.6648 22.3711C45.8316 29.0149 47.6316 34.5017 47.6775 34.5475C47.7463 34.6277 52.9743 30.9507 53.5131 30.4467C53.6507 30.3207 53.1577 28.717 50.3603 20.1488L47.0584 9.99987H43.3438C40.4202 9.99987 39.6406 10.0342 39.6865 10.1373Z" fill="black"/>
<path d="M33.3467 18.8431C33.3352 19.0264 37.2562 31.0997 37.3594 31.2143C37.3938 31.2716 38.7467 30.3437 40.3403 29.1753C42.7479 27.4227 43.2638 26.9989 43.2409 26.7927C43.2294 26.6553 42.6447 24.7767 41.9454 22.6232L40.6728 18.7056H37.004C34.1607 18.7056 33.3467 18.74 33.3467 18.8431Z" fill="black"/>
<path d="M10.2676 28.9695C8.45611 34.5594 6.9886 39.1414 7.00007 39.1528C7.81407 39.7828 12.9618 43.4598 12.9847 43.4369C13.0077 43.414 14.7847 37.9271 16.9516 31.249C19.1185 24.5708 20.907 19.0382 20.9414 18.958C20.9758 18.8549 20.1962 18.8205 17.2726 18.8205H13.5695L10.2676 28.9695Z" fill="black"/>
<path d="M21.676 22.2794L20.541 25.7502L27.076 25.7846C30.676 25.796 33.6339 25.7846 33.6683 25.7617C33.6913 25.7273 33.29 24.3985 32.7741 22.8063C32.2581 21.2141 31.7537 19.6677 31.662 19.3584L31.5015 18.82H27.1563H22.8111L21.676 22.2794Z" fill="black"/>
<path d="M19.8175 27.9503C19.7602 28.1908 19.164 30.0351 18.4991 32.0511C17.3755 35.499 17.3182 35.7281 17.5016 35.8999C17.8341 36.2092 23.1309 40.0122 23.2341 40.0122C23.2914 40.0122 24.2201 37.286 25.2978 33.9412C26.3869 30.6078 27.3041 27.8014 27.3385 27.6983C27.3958 27.5494 26.9831 27.5265 23.6697 27.5265H19.9437L19.8175 27.9503Z" fill="black"/>
<path d="M38.5745 32.5663C35.7427 34.6396 33.3924 36.3693 33.3351 36.4266C33.2433 36.5297 39.0446 40.7679 39.2509 40.745C39.3427 40.7336 44.7656 36.8733 46.1757 35.808C46.2789 35.7393 43.9516 28.7862 43.8369 28.7977C43.7796 28.7977 41.4063 30.493 38.5745 32.5663Z" fill="black"/>
<path d="M43.7112 39.6794C37.9787 43.849 33.2781 47.274 33.2552 47.2854C33.2322 47.3083 34.5736 48.3049 36.236 49.4962L39.2513 51.6841L39.5953 51.4206C39.7787 51.2717 43.6538 48.4653 48.1939 45.1663C52.734 41.8788 56.4716 39.164 56.4945 39.1411C56.5633 39.0838 54.2933 32.1078 54.2015 32.1078C54.1671 32.1078 49.4551 35.5213 43.7112 39.6794Z" fill="black"/>
<path d="M26.9604 34.3645C26.9375 34.479 26.4331 36.0369 25.8483 37.8353C25.2636 39.6337 24.805 41.1343 24.828 41.1801C24.8853 41.2947 31.4891 46.0828 31.684 46.1515C31.8445 46.2202 37.6457 42.0621 37.6343 41.9018C37.6343 41.8101 27.1783 34.1698 27.0636 34.1698C27.0407 34.1698 26.9948 34.2614 26.9604 34.3645Z" fill="black"/>
<path d="M15.6226 40.8939C15.015 42.7725 14.5105 44.3647 14.499 44.4334C14.4761 44.6396 31.7308 57.1025 31.8913 56.9994C32.5104 56.6214 37.6467 52.8069 37.6467 52.7267C37.6467 52.658 20.6213 40.241 17.1016 37.7438L16.7462 37.4918L15.6226 40.8939Z" fill="black"/>
</g>
<defs>
<clipPath id="clip0_333_10421">
<rect width="64" height="64" fill="white"/>
</clipPath>
</defs>
</svg>
