<svg width="64" height="64" viewBox="0 0 64 64" fill="none" xmlns="http://www.w3.org/2000/svg">
<g clip-path="url(#clip0_124_64)">
<path d="M0 0H64V64H0V0Z" fill="#F6B817"/>
<path d="M15.0743 32C16.4057 38.3576 19.5264 44.2024 24.0686 48.8457C26.3289 51.1657 28.8932 53.1687 31.6914 54.8C31.8057 54.8686 31.8971 54.88 32.0114 54.8C34.8974 53.1105 37.5358 51.0298 39.8514 48.6171C44.2627 44.0001 47.3019 38.2463 48.6286 32H47.9429L47.9657 32.08C47.9886 32.3086 48.0229 32.5714 47.9429 32.5714C47.4857 32.5714 46.9943 32.4229 46.5143 32.2857C46.0573 32.1257 45.5804 32.0295 45.0971 32H44.2171L44.1829 32.1143L43.9314 32.96C43.8971 33.0971 43.84 33.2343 43.7714 33.36C43.7061 33.4766 43.5996 33.5646 43.4728 33.6069C43.346 33.6491 43.208 33.6426 43.0857 33.5886C43.0286 33.5657 42.9714 33.4286 42.9714 33.3486C42.9714 33.2343 42.9943 33.0743 43.1771 33.0629C43.4857 33.0286 43.5086 33.0171 43.52 32.72V32H41.4057L41.3029 32.2629C41.3029 32.2971 41.2686 32.3429 41.2571 32.3771L41.2343 32.4343H41.2L41.1771 32.4114L41.2686 32.0343V32H38.6514L38.6971 32.08L38.8343 32.3429C38.88 32.4571 38.8686 32.5829 38.7429 32.6514C38.6971 32.6743 38.6514 32.6743 38.6057 32.6743C38.5829 32.6731 38.56 32.6731 38.5371 32.6743C38.5376 32.6552 38.5376 32.6362 38.5371 32.6171V32.5029C38.5568 32.3348 38.5797 32.1672 38.6057 32H38.4914C38.4843 32.1223 38.4728 32.2442 38.4571 32.3657V32.4571C38.4229 32.5943 38.3429 32.6857 38.2057 32.72C37.7943 32.8457 37.6 32.7543 37.5086 32.3314L37.4514 32H36.5143C36.5143 32.1029 36.5143 32.1943 36.5371 32.2971L36.56 32.4571C36.56 32.6286 36.4914 32.7086 36.3086 32.6857C36.1179 32.6645 35.9274 32.6416 35.7371 32.6171C35.7458 32.5627 35.7378 32.507 35.7143 32.4571C35.68 32.3657 35.6457 32.2629 35.8057 32.1714C35.8286 32.1714 35.8057 32.0571 35.7829 32.0114V32H34.16L34.1829 32.0114C34.2629 32.1029 34.3657 32.16 34.4686 32.2171L34.5714 32.2743C34.7771 32.4 34.8457 32.5829 34.7771 32.8229V32.96C34.9257 32.8686 34.9143 32.7543 34.9029 32.64V32.5486L34.88 32.4571C34.8457 32.3657 34.8229 32.2743 34.9829 32.2514C35.28 32.2057 35.4629 32.2971 35.4857 32.5143C35.4857 32.64 35.4857 32.7771 35.4629 32.9143V32.9943C35.452 33.1249 35.4329 33.2547 35.4057 33.3829C35.3829 33.5657 35.2686 33.6343 35.1086 33.5429C35.0325 33.5045 34.9563 33.4664 34.88 33.4286L34.16 33.0171C34.0347 32.93 33.9295 32.8169 33.8514 32.6857C33.7943 32.6057 33.7371 32.5943 33.6457 32.6057H32.9714C32.8571 32.6057 32.7771 32.5143 32.8229 32.3771L32.9829 32H32.8229C32.7593 32.1447 32.7058 32.2936 32.6629 32.4457C32.64 32.5257 32.6171 32.6057 32.5029 32.6171C32.3657 32.64 32.3314 32.5486 32.2857 32.4571L32.2743 32.4229C32.2041 32.2827 32.1355 32.1417 32.0686 32H31.92C32 32.16 32.0686 32.3429 32.1257 32.5143V32.5486L32.1143 32.5943L31.9429 32.32L31.7371 32H31.5771L31.8514 32.4L32.1143 32.7886C32.2286 32.96 32.1371 33.1314 31.9429 33.1543C31.8286 33.1771 31.7143 33.1886 31.6229 33.2571C31.44 33.3829 31.28 33.3143 31.1086 33.2457C31.0629 33.2229 31.04 33.1086 31.04 33.04L31.0743 32.9371V32.9257L31.7257 32.5486L31.7143 32.5029V32.4914L31.2343 32.6629L31.0171 32.4571L30.56 32H30.3314L30.1714 32.0229L30.0114 32.0457C29.7829 32.0457 29.5314 32.0457 29.2914 32.0229L28.6743 32H27.5429V32.0457L27.4514 32.4114L27.2114 33.3829C27.1771 33.5086 27.1429 33.6229 26.96 33.4971C26.8856 33.474 26.8059 33.474 26.7314 33.4971H26.5943L26.7086 33.04L26.6857 33.0057L26.64 33.04L26.56 33.12C26.5143 33.1886 26.4571 33.2686 26.4229 33.3486C26.2857 33.6571 26.0343 33.7486 25.6686 33.7143C25.76 33.6 25.8286 33.4514 25.8971 33.3143C26 33.0743 26.1029 32.8343 26.3771 32.6971C26.4686 32.6629 26.5371 32.5371 26.56 32.4457L26.6057 32.2171L26.6514 32H15.0743ZM40.4229 32.5829L40.5143 32.6286L40.4343 32.7086C40.3948 32.7536 40.3486 32.7922 40.2971 32.8229C40.2426 32.8466 40.1848 32.862 40.1257 32.8686L40.0571 32.88V32.7886C40.0571 32.7086 40.0571 32.6286 40.08 32.56C40.0914 32.5257 40.2286 32.5257 40.3086 32.5371C40.3429 32.5371 40.3771 32.56 40.4229 32.5829ZM42.7771 32.9371L42.6857 33.6C42.5714 33.6229 42.5257 33.5657 42.5257 33.4514C42.5029 33.0514 42.5257 32.9943 42.7771 32.9371ZM39.76 32.8H39.7143V32.7314C39.7003 32.6911 39.6964 32.6479 39.7029 32.6057C39.7486 32.4914 39.8057 32.3657 40.0114 32.3771L39.8057 32.8114H39.76V32.8Z" fill="#971A2E"/>
<path d="M27.04 26.72L27.2 27.1314L27.3714 27.52L27.44 27.5086C27.4172 27.3486 27.4172 27.1771 27.3714 27.0286C27.2572 26.6857 27.1429 26.32 26.9714 26C26.5866 25.2834 26.4499 24.4596 26.5829 23.6571C26.64 23.2571 26.6972 22.8571 26.8114 22.48C27.0629 21.6229 27.6343 20.9943 28.4229 20.5943C28.7772 20.4 29.1543 20.48 29.3714 20.8229C29.52 21.0514 29.6 21.3257 29.7143 21.5429C29.7943 21.2686 29.76 20.8114 29.4743 20.3543H30.7314C31.5429 20.3657 32.3543 20.3657 33.1657 20.4C34.2857 20.4457 35.4057 20.32 36.5372 20.24C37.9402 20.1009 39.3553 20.3334 40.64 20.9143C41.1772 21.1657 41.5657 21.5771 41.8514 22.0914C42.2514 22.7886 42.4343 23.5657 42.5143 24.3543C42.5829 24.9829 42.5943 25.6229 42.5829 26.2629L42.2857 24.5029C42.1829 23.778 41.971 23.0729 41.6572 22.4114C41.3246 21.8281 40.8435 21.3431 40.2629 21.0057C40.2078 20.9733 40.1431 20.9612 40.08 20.9714L40.1371 21.04C41.0514 21.7257 41.5657 22.6971 41.84 23.7943C42.0686 24.7771 42.2286 25.7714 42.4343 26.7657C42.4686 26.88 42.5257 27.0286 42.6057 27.1314C43.2229 27.8629 43.8286 28.5943 44.4686 29.3029C44.7543 29.6343 44.8457 29.9429 44.6972 30.3657C44.4114 31.2229 44.1829 32.0914 43.92 32.96C43.8857 33.0971 43.8286 33.2343 43.76 33.36C43.6946 33.4766 43.5881 33.5646 43.4613 33.6069C43.3345 33.6491 43.1965 33.6426 43.0743 33.5886C43.0171 33.5657 42.96 33.4286 42.96 33.3486C42.96 33.2343 42.9829 33.0743 43.1657 33.0629C43.4743 33.0286 43.4972 33.0171 43.5086 32.72L43.5314 30.1829V30.0229C43.76 30.1371 43.9543 30.2514 44.16 30.3429L44.2171 30.2971C44.1257 30.1486 44.0571 29.9771 43.9314 29.8629L42.3772 28.5486C41.4857 27.8171 40.5943 27.0743 39.8629 26.1714C39.6 25.84 39.3829 25.4743 39.1543 25.12C38.6057 24.2743 38.0686 23.44 37.5543 22.5829C37.3966 22.3124 37.281 22.0195 37.2114 21.7143C37.12 21.3714 37.2114 21.0286 37.44 20.7086C36.8343 20.9714 36.5257 21.7371 36.8114 22.2857L37.9772 24.3771L38.0343 24.4914C37.04 23.8857 36.08 24.0571 35.12 24.4914C34.7543 24.6629 34.4 24.8114 34 24.8343C33.7714 24.8343 33.6 24.7771 33.4857 24.5829C33.28 24.2286 33.0857 23.8514 32.8914 23.4857L32.7086 23.0971C32.7429 23.76 33.0057 24.3543 33.28 24.96C33.0857 24.96 32.9372 24.8457 32.8572 24.7086C32.6286 24.3086 32.3772 23.9086 32.1943 23.4971C32.0229 23.0971 31.92 22.6743 31.7829 22.2629C31.6914 22.6743 31.9886 23.8057 32.5029 24.9714C32.3673 24.9437 32.2387 24.889 32.1248 24.8104C32.0109 24.7319 31.9141 24.6311 31.84 24.5143C31.5122 24.0238 31.3011 23.4647 31.2229 22.88C31.1657 22.56 30.9943 22.3543 30.7086 22.2514L29.7829 21.9543L29.84 22.3429C29.9314 23.0286 29.7714 23.6686 29.5772 24.3086C29.2572 25.36 28.7772 26.3543 28.2972 27.3371C28.2448 27.429 28.21 27.5297 28.1943 27.6343L28.8 26.9486H28.8572C28.8572 27.0857 28.8686 27.2229 28.8343 27.3371C28.6629 27.9657 28.4914 28.5943 28.2972 29.2229C28.0865 29.8762 27.9823 30.5592 27.9886 31.2457L27.9657 31.7371L27.9086 31.76C27.6 31.76 27.6 31.76 27.5314 32.0457L27.2114 33.3829C27.1772 33.4971 27.1429 33.6343 26.96 33.4971C26.88 33.4514 26.7314 33.4971 26.5943 33.4971L26.7086 33.04C26.7086 33.0171 26.6972 33.0171 26.6857 33.0057C26.64 33.04 26.5943 33.0743 26.5714 33.12C26.509 33.187 26.4587 33.2643 26.4229 33.3486C26.2857 33.6571 26.0343 33.7486 25.6686 33.7143C25.9314 33.3714 25.9543 32.9143 26.3772 32.6971C26.4686 32.6629 26.5372 32.5371 26.56 32.4343C26.6514 31.9886 26.7429 31.5429 26.7772 31.0857C26.8686 29.7486 26.9257 28.4114 27.0057 27.0743V26.7314H27.0286L27.04 26.72Z" fill="#C6C1C0"/>
<path d="M31.3829 29.4171V29.9543L31.4172 30.5257C31.2686 30.3314 31.3714 30.0457 31.1086 29.9771C31.2457 30.1257 31.28 30.2857 31.1429 30.4343C31.0857 30.5029 30.9714 30.5714 30.88 30.56C30.8114 30.56 30.7657 30.4457 30.6743 30.3657L30.5372 30.4457L30.6057 30.1486L30.9486 30.0686C30.9488 30.0571 30.9488 30.0457 30.9486 30.0343H30.4572V29.9543L31.0172 29.8629C31.1314 29.12 31.7029 29.1886 32.2743 29.2914V29.2343C32.1372 29.2114 31.9772 29.1657 31.8172 29.1543C31.6457 29.1543 31.5429 29.0743 31.5886 28.8914C31.5886 28.7771 31.6572 28.6514 31.7143 28.5257C31.7143 28.8 31.8514 28.9486 32.08 29.04C32.0343 28.9943 31.9657 28.9486 31.9543 28.88C31.9086 28.7886 31.8286 28.6514 31.8629 28.5714C31.9445 28.44 32.064 28.3364 32.2057 28.2743C32.2972 28.2286 32.4343 28.2629 32.5486 28.2971C32.7886 28.3886 32.8343 28.4914 32.8686 28.88L32.9486 28.5143C33.04 28.5829 33.1772 28.8571 33.1314 28.9714C33.0972 29.0514 32.9943 29.1086 32.9257 29.1314L32.4114 29.2457L33.2114 29.2571C33.2914 29.2571 33.3829 29.3371 33.44 29.4057C33.6 29.5657 33.7486 29.7371 33.9314 29.8743C33.5886 29.4057 33.2343 28.96 33.0286 28.4C33.0514 28.4 33.0743 28.3771 33.0857 28.3657L33.2 28.5143C33.3029 28.4343 33.28 28.1714 33.1772 27.9771H33.2914C33.4514 28.1371 33.6572 28.2629 33.5886 28.5486C33.5772 28.5943 33.6229 28.6857 33.6686 28.7314C33.84 28.9371 34.0343 29.1086 34.1829 29.3257C34.2743 29.44 34.3429 29.6686 34.2972 29.7829C34.2514 29.8857 34.0229 29.9314 33.8743 29.9543C33.7257 29.9771 33.5543 29.9657 33.44 29.8971C33.3486 29.84 33.3486 29.6571 33.3143 29.52L33.2686 29.3943C33.1886 29.6686 33.1543 30 32.6972 29.7143L32.7314 29.8171L33.0172 29.9771C33.1543 30.0343 33.2343 30.1371 33.2 30.2857C33.1086 30.6971 33.2686 31.0857 33.28 31.4857C33.28 31.5314 33.3372 31.6 33.3943 31.6114C33.68 31.6914 33.9543 31.7943 34.1714 32.0114C34.2857 32.1257 34.4343 32.1943 34.5714 32.2743C34.7772 32.4 34.8457 32.5829 34.7772 32.8229V32.96C34.96 32.8457 34.8914 32.6857 34.8914 32.5486C34.8914 32.4457 34.7543 32.2857 34.9829 32.2514C35.28 32.2057 35.4629 32.2971 35.4743 32.5143C35.4972 32.6743 35.4743 32.8343 35.4514 32.9943C35.4514 33.1314 35.4172 33.2571 35.4057 33.3829C35.3829 33.5657 35.2686 33.6343 35.1086 33.5429C34.7886 33.3714 34.4572 33.2 34.1486 33.0171C34.0343 32.9371 33.9314 32.8114 33.8514 32.6857C33.7943 32.6057 33.7372 32.5943 33.6457 32.6057H32.96C32.8457 32.6057 32.7772 32.5143 32.8229 32.3771L33.1086 31.6571C33.0514 31.7029 32.9486 31.76 32.9029 31.84C32.8114 32.0229 32.7314 32.2057 32.6743 32.4C32.64 32.5029 32.6286 32.6057 32.4914 32.6286C32.3429 32.6286 32.32 32.5257 32.2629 32.4229C32.1486 32.1714 32.0343 31.9086 31.8857 31.68C31.76 31.4743 31.5886 31.3143 31.4057 31.0971C31.6343 30.7886 31.4972 30.3771 31.5086 30.0114L31.9657 29.8286L31.9429 29.7829C31.8286 29.7714 31.6686 29.7943 31.5772 29.7371C31.4972 29.68 31.4629 29.5314 31.4057 29.4171H31.3829Z" fill="#C6C1C0"/>
<path d="M41.9314 41.0857C42.1486 41.0171 42.1257 40.9143 42.0686 40.7771C41.9086 40.3771 41.7486 39.9771 41.6 39.5543C41.5543 39.4286 41.4857 39.3714 41.3371 39.3714L40.0114 39.3828C39.8629 39.3828 39.8286 39.44 39.8057 39.4971C39.6571 39.84 39.52 40.1828 39.3943 40.5486C39.2571 40.9486 39.3943 41.04 39.8057 41.0857V41.1428H36.3886C36.4 40.9828 36.4457 40.8 36.4343 40.6628C36.3086 39.7028 35.9771 37.6 35.9771 37.6C35.3943 38.8114 34.8 39.9543 34.2286 41.1428H34.1371C33.4971 40.0228 32.9714 38.6857 32.3771 37.4857L31.9657 40.5143V40.6857C31.9543 41.0514 32.24 41.0514 32.5371 41.0743V41.1428H30.8571V41.0743C31.1086 41.0743 31.3371 41.0743 31.4171 40.6743L31.6114 39.4743L32.1029 36.2628L32.16 35.8971C32.1943 35.7714 32.3086 35.7257 32.3886 35.8514L32.8 36.6971L34.2857 39.7371L34.3771 39.8857C34.4343 39.7828 34.4914 39.7143 34.5143 39.6343L36.2971 35.9428C36.3543 35.8286 36.5257 35.68 36.56 35.8971L36.6743 36.6057L37.2343 40.3886C37.3143 40.96 37.4857 41.0857 38.0686 41.0857C38.5029 41.0857 38.7314 40.8571 38.8914 40.4686C39.4629 39.0057 40.7543 35.8743 40.8 35.8057C40.8457 35.7371 40.8686 35.7371 40.9257 35.8057C40.9714 35.8628 42.6743 40 42.6743 40C42.88 40.5028 43.0514 40.96 43.6571 41.0857V41.1428H41.92V41.0857H41.9314ZM39.9886 39.04H41.1771C41.3486 39.04 41.3943 38.9943 41.3257 38.8343C41.12 38.2857 40.7657 36.9143 40.7657 36.9143L39.9771 39.04H39.9886ZM25.3943 39.28C24.9829 37.7486 25.8514 35.9543 27.76 35.7714C29.4971 35.6114 31.1429 36.5828 31.0286 38.5371C31.0301 39.2061 30.785 39.8522 30.3401 40.3519C29.8953 40.8516 29.2818 41.1698 28.6171 41.2457C27.93 41.3785 27.2181 41.2492 26.6216 40.8833C26.0251 40.5173 25.5872 39.9413 25.3943 39.2686V39.28ZM28.5371 40.9486C29.7714 40.8686 30.1143 39.36 30.0457 38.2514C29.9771 37.0514 29.04 35.92 27.76 36.08C26.4457 36.2286 26.1371 37.68 26.2743 38.7771C26.4114 39.92 27.2914 41.04 28.5371 40.9486ZM20.0457 35.8514H22.2857C22.48 35.8514 22.6857 35.8743 22.88 35.92C23.8629 36.1371 24.1029 37.0857 23.7257 37.8171C23.526 38.1511 23.271 38.4487 22.9714 38.6971L23.36 39.2C23.7029 39.6343 24.0457 40.0457 24.4114 40.4686C24.6857 40.7886 25.0057 41.0286 25.44 41.0628C25.5314 41.0628 25.4971 41.1428 25.4286 41.1428H24.4C24.0343 41.1428 23.7829 40.9371 23.5771 40.6743C23.2114 40.2171 22.8914 39.76 22.5486 39.2914C22.485 39.2144 22.4163 39.1419 22.3429 39.0743C22.1829 38.9143 21.5314 38.8114 21.5429 39.12C21.5429 39.6343 21.5429 40.1486 21.5771 40.6628C21.6 40.9828 21.6686 41.0171 21.9771 41.0743C22.0686 41.0743 22.16 41.0971 22.24 41.1086V41.1428H20.1486V41.0971C20.4571 41.0514 20.6514 40.9943 20.6743 40.6514L20.7314 36.7886C20.7314 36.4228 20.7543 35.9771 20.2857 35.9428H20.0457V35.84V35.8514ZM21.5314 37.3828V38.3771C21.5314 38.5143 21.5886 38.6057 21.7371 38.6171H22.24C22.6743 38.6171 23.04 38.0914 23.0743 37.5771C23.1314 36.7771 22.72 36.0914 21.7829 36.16C21.6 36.16 21.52 36.24 21.5314 36.4228V37.3828Z" fill="#F6B817"/>
<path d="M22.32 19.9772C22.5714 20.0572 22.7429 19.8857 22.9143 19.7829C22.9714 19.9314 22.9943 20.1257 23.0971 20.2057C23.2457 20.32 23.4514 20.3657 23.6343 20.3772C24.5688 20.4304 25.5063 20.3612 26.4229 20.1714C26.9083 20.0912 27.4045 20.1029 27.8857 20.2057L27.4629 20.2743L26.9943 20.3886L27.2343 20.56C27.2343 20.5829 27.2343 20.5943 27.2114 20.6057H26.56L26.6971 21.1314C26.4114 21.2 26.08 21.0629 26.0914 20.8457L25.92 20.9943L25.7829 20.7657C25.76 21.0514 25.84 21.1772 26.0114 21.1772L26.1943 21.6343C25.8514 21.6229 25.6229 21.4514 25.6571 21.2114L25.4743 21.36L25.3143 21.0629C25.3257 21.2914 25.2686 21.4857 25.4971 21.5772C25.52 21.5772 25.5314 21.6229 25.5429 21.6457L25.6571 22.1029C25.5348 22.0912 25.4219 22.032 25.3428 21.938C25.2637 21.8439 25.2247 21.7225 25.2343 21.6C25.1657 21.6 25.04 21.6457 25.04 21.6343C24.9829 21.52 24.96 21.4057 24.9257 21.2914L24.8114 21.3714L24.64 21.12L24.6629 21.4057C24.6629 21.4629 24.6857 21.52 24.6629 21.5657C24.6171 21.6572 24.5486 21.7257 24.4914 21.7943L24.2743 21.5657H24.24L24.4229 22.1829L24.5829 22.0457L24.6286 22.2514L24.5486 22.3086C24.3086 22.5829 24.3086 22.5829 24.1143 22.2057C24.1143 22.4343 24.1257 22.6172 23.92 22.7314L23.7371 22.5143L23.6914 22.5486L23.92 23.0057L24.1486 22.6286L24.2629 22.8229L24.4457 22.6743C24.5257 22.8572 24.4686 23.0172 24.2629 23.2114L24.08 22.9029C24.0686 23.0514 24.0571 23.1772 24.0229 23.3029C24 23.4286 23.9086 23.4514 23.8286 23.3486C23.7486 23.2686 23.6914 23.1772 23.6229 23.0857C23.6229 23.4743 23.8171 23.7714 24.0457 23.7029L24.1486 24.1714C23.8514 24.0343 23.7257 23.76 23.5771 23.5086C23.3257 23.8057 23.0514 24.0343 22.6057 24.0572C22.9143 23.7372 22.9486 23.3714 22.9143 22.9943C22.7429 23.4057 22.5714 23.7943 22.1143 23.9772C22.4571 23.6229 22.5371 23.1772 22.5371 22.72C22.5371 22.6286 22.4686 22.5372 22.4229 22.4572C22.3657 22.3314 22.1829 22.2057 22.4229 22.08C22.4457 22.08 22.4571 22.0229 22.4571 22C22.4457 21.6572 22.4571 21.3143 22.3886 21.0057C22.2514 20.32 21.7486 20.0229 21.1086 19.9086C20.9143 19.8743 20.7086 19.8629 20.56 19.8514C21.0857 19.76 21.6343 19.84 22.1257 20.1943C22.6057 20.5372 22.8457 21.0286 22.9714 21.6L23.0286 21.5772C22.9943 21.4057 22.9714 21.2229 22.9143 21.04C22.8 20.6629 22.6514 20.3086 22.3429 20.0457L22.32 19.9772ZM36.3657 28.2514L36.6171 28.2629C36.6971 28.2857 36.7657 28.3314 36.8686 28.3429L36.6057 28.1257C36.7886 27.92 36.7886 27.8514 36.64 27.5886C36.5257 27.4057 36.56 27.2457 36.72 27.1314L37.0629 26.8229C37.1886 26.7086 37.3143 26.6629 37.4629 26.72C37.52 26.7543 37.5543 26.8229 37.6 26.88C37.6457 26.9372 37.6686 27.0172 37.7257 27.0743C37.84 27.1886 37.8514 27.36 37.7143 27.4743L37.8171 27.5543C37.6343 27.68 37.4743 27.8172 37.6 28.08C37.3714 28.16 37.1314 28.1486 36.9829 28.3886L37.4171 28.2514L37.3371 28.9143L36.9486 28.6857C37.0057 28.9486 37.1771 29.04 37.3486 29.0972C37.5314 29.1429 37.6343 29.2457 37.7143 29.4057C37.8286 29.6686 37.9771 29.92 38.1143 30.1714L38.1829 30.2857C38.2171 30.5486 38.3429 30.7657 38.4571 30.9943C38.5029 31.1086 38.48 31.2686 38.4914 31.4057V32.0914C38.4914 32.2057 38.4686 32.32 38.4457 32.4572C38.4229 32.5943 38.3429 32.6857 38.2057 32.72C37.7943 32.8457 37.6 32.7543 37.5086 32.3314C37.4286 31.9657 37.3943 31.6114 37.5429 31.2572C37.6571 30.9943 37.7714 30.7543 38.1371 30.8C37.9086 30.6286 37.6914 30.6514 37.5886 30.8686C37.5086 31.04 37.4514 31.2343 37.3943 31.4172C37.3257 31.6686 37.2114 31.7029 37.0171 31.5429C36.6176 31.0798 36.3843 30.4966 36.3543 29.8857C36.3543 29.5886 36.3886 29.28 36.3543 28.9829C36.3082 28.7391 36.3239 28.4876 36.4 28.2514H36.3657Z" fill="#C6C1C0"/>
<path d="M19.7829 21.7372L20.2857 20.8457C20.3086 20.7886 20.3314 20.7314 20.3314 20.6743C20.3314 20.3886 20.5257 20.1486 20.8229 20.1029C21.36 20.0229 21.8629 20.3657 22.0343 20.9486C21.92 20.88 21.8172 20.8343 21.7372 20.7657C21.5886 20.6629 21.4514 20.5372 21.3029 20.4457C20.9943 20.2743 20.7886 20.3429 20.6057 20.6972C20.8343 20.5372 21.0629 20.4457 21.28 20.6972C21.1314 20.7429 21.1314 20.7429 20.8914 21.1543C21.2914 21.1657 21.68 21.1886 22.08 21.0172L22.1486 21.6114C22.1486 21.7143 22.0914 21.7257 22 21.6914L21.92 21.6457C21.84 21.6343 21.7257 21.6 21.6914 21.6457C21.6343 21.68 21.6229 21.8057 21.6457 21.8743C21.7372 22.0572 21.84 22.24 21.9657 22.4C22.2172 22.7314 22.2514 22.9714 22.0572 23.3372C21.9772 23.4857 21.8629 23.6114 21.68 23.6C21.1086 23.5429 20.5943 23.7372 20.08 23.8743C19.8057 23.9429 19.5543 24.0571 19.28 23.9543L19.1657 23.9086C19.1429 23.9086 19.1314 23.8857 19.1086 23.8629C19.2 23.8057 19.1886 23.6114 19.3829 23.7257C19.4514 23.7714 19.5657 23.7143 19.6572 23.7029L19.8857 23.68C19.9086 23.6229 19.92 23.52 19.9314 23.3714C19.9772 23.4514 19.9886 23.5086 20.0229 23.5314C20.0914 23.5772 20.1714 23.6457 20.24 23.6457C20.3886 23.6114 20.5372 23.5657 20.6629 23.4857C20.8132 23.3829 20.9974 23.342 21.1772 23.3714C21.2914 23.3829 21.3829 23.3486 21.4057 23.2229C21.4286 23.0972 21.3714 23.0172 21.2457 23.0057C20.9029 22.9943 20.56 22.96 20.2172 22.9714C20.1486 22.9714 20.08 23.1314 20 23.2229L19.9429 23.0971C19.92 23.0629 19.8857 23.0057 19.8514 23.0057C19.4972 23.0057 19.3714 22.7086 19.1314 22.48C19.3257 22.4 19.52 22.3657 19.4286 22.08C19.5657 22.1714 19.6686 22.2172 19.7486 22.2857C19.84 22.4 19.9429 22.4 20.0572 22.3429C20.1252 22.3112 20.1993 22.2948 20.2743 22.2948C20.3493 22.2948 20.4234 22.3112 20.4914 22.3429L21.44 22.6972C21.6343 22.7657 21.7372 22.88 21.6457 23.0971V23.2114C21.8972 23.0172 21.8972 22.7772 21.6457 22.6057C21.0874 22.1975 20.4545 21.9024 19.7829 21.7372ZM36.7314 31.4629L35.9314 30.8229L35.8972 30.8457C35.9886 30.96 36.0686 31.0972 36.1714 31.1886C36.4114 31.4057 36.5486 31.6457 36.5143 31.9657C36.5029 32.1257 36.5372 32.2972 36.56 32.4572C36.56 32.6286 36.4914 32.7086 36.3086 32.6857L35.7372 32.6172C35.7714 32.4686 35.5543 32.3086 35.8057 32.16C35.8286 32.16 35.8057 32.0572 35.7829 32.0114C35.6343 31.68 35.4514 31.3714 35.3257 31.04C35.2114 30.7429 35.3029 30.6172 35.6 30.5143C35.7486 30.4572 35.9086 30.4114 36.0572 30.3772C36.1143 30.3772 36.2057 30.4114 36.2286 30.4457L36.7543 31.4286L36.7314 31.4629ZM32.1143 32.5943C31.8286 32.16 31.6229 31.68 31.1543 31.44C31.097 31.4139 31.0343 31.4022 30.9714 31.4057C31.4972 31.7486 31.76 32.3086 32.1143 32.7772C32.2286 32.96 32.1372 33.12 31.9429 33.1543C31.8286 33.1772 31.7143 33.1886 31.6229 33.2572C31.44 33.3829 31.28 33.3143 31.1086 33.2457C31.0629 33.2229 31.04 33.1086 31.04 33.04C31.04 32.9943 31.0743 32.9257 31.0857 32.9257L31.7257 32.5486L31.7029 32.4914L31.2457 32.6629C30.9943 32.4343 30.72 32.1829 30.4686 31.92C30.32 31.76 30.3543 31.6229 30.5143 31.4857C30.7429 31.3029 31.0057 31.2343 31.28 31.2572C31.3486 31.2572 31.4286 31.3257 31.4857 31.3714C31.8057 31.7029 31.9886 32.0914 32.1257 32.5143L32.1143 32.5943ZM30.7772 45.8629C30.6057 46.0914 30.2743 46.1714 29.9657 46.08C29.837 46.0432 29.7218 45.9694 29.6345 45.8679C29.5471 45.7663 29.4915 45.6414 29.4743 45.5086C29.4172 45.1314 29.52 44.8229 29.8514 44.6172C30.1943 44.3886 30.5829 44.3886 30.9486 44.5829C31.3143 44.8114 31.4172 45.1771 31.4057 45.5886C31.3829 46.3429 30.72 47.2457 30.0114 47.4972L29.8514 47.5086L30.0572 47.3371C30.7429 46.8229 31.0857 45.9429 30.8686 45.1886C30.8269 45.0316 30.7485 44.8866 30.64 44.7657C30.4343 44.5371 30.1143 44.6057 29.9657 44.88C29.8995 45.0211 29.873 45.1777 29.8891 45.3327C29.9052 45.4878 29.9633 45.6355 30.0572 45.76C30.1943 45.92 30.3657 45.9886 30.5714 45.92L30.7772 45.8629ZM33.7372 46.7429C33.7372 46.9486 33.7029 47.1771 33.6 47.3829C33.5886 47.4171 33.52 47.4286 33.4857 47.4286H31.7257C31.7257 47.4286 32.32 46.8457 32.6172 46.5143C32.96 46.1372 33.1886 45.7029 33.1086 45.1543C33.0514 44.8114 32.8457 44.6286 32.5372 44.6514C32.1943 44.6514 32.08 44.9371 32.0114 45.2229C31.8972 44.6514 32.4343 44.4229 32.8572 44.4686C33.4743 44.5371 33.7714 45.0057 33.5772 45.6114C33.4286 46.0914 33.0972 46.4229 32.7429 46.7543L32.3429 47.0857L33.3714 47.0514C33.5086 47.0286 33.7372 46.7429 33.7372 46.7429ZM35.7029 44.88H34.6057C34.4 44.8914 34.3772 44.9257 34.1486 45.2C34.1829 45.0171 34.1372 44.5943 34.3543 44.5714H36.0686C36.1486 44.5714 36.0686 44.7086 36.0572 44.7314C35.6572 45.4514 35.2572 46.2514 35.1086 47.0743C35.0514 47.3829 34.9257 47.4857 34.5372 47.4972C34.8 46.5714 35.2457 45.7486 35.7029 44.88ZM28.0114 44.9143C27.8057 45.0057 27.5886 45.1429 27.4172 45.2C27.4172 45.1771 27.3943 45.1543 27.3829 45.1429L28.4572 44.4114V44.64L28.4457 46.9029C28.4457 47.36 28.88 47.4514 28.88 47.44H27.5086C27.5086 47.44 28.0114 47.2343 28.0114 46.9029V44.9257V44.9143ZM36.3657 28.2514C36.1029 28.4 36.1372 28.6514 36.1372 28.8914C36.1372 29.0514 36.1714 29.2 36.1943 29.3486C36.2286 29.4857 36.1829 29.5543 36.08 29.6114C35.9657 29.6686 35.8514 29.7143 35.7714 29.6114C35.6114 29.4057 35.4286 29.2 35.3143 28.9829C35.2 28.7314 35.0629 28.5714 34.7543 28.6057C34.56 28.64 34.4229 28.5143 34.3086 28.3772C34.2857 28.3429 34.2857 28.2857 34.2743 28.24H34.4114C34.5372 28.2629 34.6629 28.32 34.7886 28.3314C34.8572 28.3314 34.9257 28.2743 35.0057 28.24L34.8686 28.0914L34.8114 28C35.0629 28.0914 35.3029 28.0686 35.4057 28.3314C35.4057 28.3543 35.4286 28.3657 35.44 28.3772C35.7829 28.6172 35.8857 28.9829 35.9429 29.3714L35.9657 29.4286H36C36 29.3143 36 29.2 35.9772 29.1086C35.8972 28.8 36.0457 28.5714 36.2057 28.3429C36.2286 28.2972 36.32 28.2857 36.3657 28.2514ZM38.5486 29.3714L38.2172 28.8686C38.1758 28.804 38.1558 28.728 38.16 28.6514C38.1829 28.48 38.16 28.3657 37.9772 28.3086C37.9429 28.2857 37.9314 28.24 37.9086 28.1943C38.2743 28.2057 38.4114 28.3086 38.4914 28.6629L38.6629 29.3143C38.7086 29.5314 38.6629 29.7257 38.5257 29.8857C38.4 30.0457 38.1829 30.0343 38.0914 29.8629L37.6114 28.9714C37.8057 28.9714 37.9886 28.9143 38.1257 28.9714C38.2743 29.04 38.3886 29.2 38.5486 29.36V29.3714ZM34.6057 26.96L34.32 25.8629C34.2857 25.7486 34.3543 25.68 34.4686 25.6572C34.5943 25.6343 34.72 25.6229 34.8572 25.6229C35.0514 25.6229 35.1543 25.7257 35.1314 25.92C35.0743 26.3086 34.9029 26.6514 34.6743 26.9486H34.6057V26.96ZM32.3772 26.9486L32.1486 25.92C32.1486 25.8629 32.24 25.76 32.2857 25.76C32.4572 25.7257 32.6286 25.7143 32.7886 25.7257C32.96 25.7486 33.0972 25.9886 33.0057 26.1372C32.8343 26.4114 32.64 26.6743 32.4457 26.9372H32.3772V26.9486ZM36.8343 26.5257C36.6057 26.2057 36.4229 25.8972 36.32 25.5429C36.32 25.5086 36.3772 25.3943 36.4114 25.3943C36.5943 25.36 36.7772 25.3372 36.96 25.3486C37.12 25.3714 37.2 25.5314 37.1886 25.68C37.1543 25.9771 37.0057 26.24 36.8457 26.5257H36.8343ZM22.32 19.9772C22.16 19.9772 22.1486 19.8857 22.16 19.76C22.16 19.6 22.1829 19.4172 22.16 19.2572C22.1486 18.9829 22.2743 18.6857 22.5029 18.5714C22.56 18.5372 22.6514 18.5257 22.6972 18.56C22.8686 18.6514 23.0057 18.8 23.04 19.0057L22.6629 18.7772L22.6172 18.8114C22.6286 18.88 22.6629 18.9486 22.6629 19.0057C22.6514 19.2343 22.6514 19.4629 22.6057 19.6686C22.5829 19.7486 22.4457 19.8057 22.3543 19.84C22.2743 19.8857 22.2057 19.8972 22.32 19.9772ZM41.1772 32.4114L41.4857 31.1429L41.7829 30C41.8172 29.8629 41.8743 29.6572 42.0457 29.7143C42.2286 29.76 42.1143 29.9543 42.08 30.08L41.3029 32.2514C41.2914 32.32 41.2572 32.3771 41.2343 32.4343L41.1772 32.4114ZM37.8286 27.7486L37.92 27.8857L38.0114 27.5657C38.0572 27.3372 37.7714 26.6857 37.4629 26.56C37.8057 26.4914 37.9772 26.6743 38.1486 26.9486C38.2629 27.1543 38.3772 27.3372 38.3314 27.5657C38.2972 27.7143 38.24 27.8743 38.16 28.0229C38.1257 28.1029 37.8514 28.0914 37.76 27.9772C37.7257 27.9314 37.76 27.8172 37.76 27.7486H37.8286ZM30.1714 27.3714L30.0229 26.4572L30.0572 26.3886C30.2057 26.3772 30.3657 26.32 30.48 26.3772C30.5714 26.4114 30.6514 26.6057 30.6172 26.6972C30.5372 26.9372 30.3886 27.1543 30.2743 27.3829L30.16 27.3714H30.1714ZM24.72 21.6L24.88 21.6343C24.9714 21.7143 24.9029 21.9543 25.1429 21.8857L25.1886 21.9657L25.4972 22.7314L25.1314 22.4229C24.96 22.2972 25.1086 22.1486 25.12 21.9657L24.8914 22.2629C24.64 22.1029 24.6057 21.9772 24.72 21.6ZM30.72 23.0172L31.44 24.7314C31.0629 24.5486 30.64 23.5086 30.72 23.0172ZM19.7143 20.1143L20.0572 19.1657L20.1029 19.1543L20.2743 19.8857L19.7029 20.1143H19.7143Z" fill="#C6C1C0"/>
<path d="M37.4857 28.56L37.6572 28.6629L37.5314 28.2971L37.5543 28.2743L37.7714 28.5029H37.8057L37.7029 28.08L38.0686 28.56C38.0686 28.7429 37.92 28.8572 37.52 28.8914L37.4743 28.5486L37.4857 28.56ZM24.9029 22.8571L25.3257 23.8971C25.1086 23.7257 24.9029 23.4857 24.9257 23.0857L24.7772 23.4057C24.5029 23.2343 24.4686 23.1543 24.5486 22.9714L24.7657 23.1772L24.9029 22.8686V22.8571ZM24.9829 22.6972L24.96 22.72C24.8686 22.7543 24.7657 22.8457 24.7086 22.8343C24.5714 22.7771 24.5143 22.5486 24.5714 22.4114L24.6286 22.2514L24.7086 22.4C24.7772 22.5143 24.8572 22.56 24.9943 22.4229V22.6857L24.9829 22.6972ZM38.6172 31.9314L38.8343 32.3429C38.88 32.4571 38.8686 32.5829 38.7429 32.6514C38.6857 32.6743 38.6057 32.6629 38.5372 32.6743V32.5029L38.6172 31.9314ZM30.72 30.6286C30.9829 30.7086 31.0743 30.6857 31.2572 30.4686C31.3714 30.72 31.3486 30.8114 31.1657 30.9029C31.0172 30.9714 30.8686 30.8914 30.72 30.6286ZM24.6857 24.32C24.3657 24.1257 24.2514 23.8057 24.1714 23.44L24.3657 23.5086L24.6857 24.3086V24.32ZM40.5143 32.6286C40.4229 32.7086 40.3657 32.7771 40.2972 32.8229C40.2286 32.8571 40.1372 32.8572 40.0572 32.88C40.0572 32.7657 40.0572 32.6514 40.08 32.5486C40.0914 32.5257 40.2286 32.5257 40.2972 32.5371C40.3543 32.5371 40.4114 32.5829 40.5143 32.6286ZM42.6857 33.6C42.5714 33.6229 42.5257 33.5657 42.5257 33.4514C42.5029 33.0514 42.5257 32.9943 42.7772 32.9371L42.6857 33.6ZM25.0286 24.1829L24.5143 23.5086L24.5486 23.4743L24.8114 23.7029C24.8572 23.6457 24.88 23.6 24.9257 23.5657L25.0743 24.1486L25.0286 24.1829Z" fill="#C6C1C0"/>
<path d="M24.9829 22.6971L24.9943 22.6857L25.0857 22.6971L25.28 22.9943L25.4743 23.2571L25.44 23.3028L24.9029 22.8686L24.9829 22.6971ZM19.2 22.2171C19.0286 22.2514 18.9143 22.1943 18.88 22.0343C18.88 22.0114 18.96 21.92 19.0057 21.92C19.1429 21.9086 19.2114 22.0114 19.2 22.2171ZM39.7143 32.8C39.7143 32.7314 39.68 32.6628 39.7029 32.6057C39.7486 32.4914 39.8057 32.3657 40.0114 32.3771L39.8057 32.8114H39.7143V32.8ZM19.1543 23.0857C19.2343 23.1314 19.3371 23.1543 19.3829 23.2228C19.3943 23.2686 19.3257 23.3714 19.2914 23.4514L19.2229 23.44L19.0971 23.1428L19.1543 23.0857Z" fill="#C6C1C0"/>
<path fill-rule="evenodd" clip-rule="evenodd" d="M18.3314 17.3257L18.8229 17.1657L20.9943 17.2571C20.1143 17.6 19.2114 17.9314 18.2971 18.2057L18.3314 17.3257ZM17.8057 32L17.7714 33.1429H25.52L25.6914 33.6914C25.7829 33.5771 25.84 33.4514 25.8971 33.3143C26.0114 33.0743 26.1257 32.8343 26.3886 32.6971C26.48 32.6629 26.5486 32.5371 26.5714 32.4457L26.6171 32.2171C26.6857 31.8514 26.7657 31.4743 26.7886 31.0857C26.8799 29.7495 26.9561 28.4122 27.0171 27.0743V26.7314H27.04L27.0857 26.8457L27.2 27.1314C27.2551 27.2618 27.3123 27.3914 27.3714 27.52L27.44 27.5086L27.4286 27.3486C27.4184 27.1869 27.3798 27.0282 27.3143 26.88C27.2267 26.5733 27.112 26.2749 26.9714 25.9886C26.5891 25.2753 26.4525 24.4559 26.5829 23.6571L26.5943 23.5657C26.64 23.2 26.6971 22.8343 26.8 22.48C27.0629 21.6229 27.6343 20.9943 28.4229 20.5943C28.7886 20.4114 29.1543 20.48 29.3714 20.8229C29.4857 20.9829 29.5543 21.1657 29.6229 21.3371L29.7029 21.5429C29.7943 21.2686 29.76 20.8114 29.4743 20.3543H31.2914L33.1657 20.4C34.08 20.4343 34.9943 20.3657 35.9086 20.2857L36.5371 20.24C37.9402 20.1008 39.3552 20.3334 40.64 20.9143C41.1771 21.1657 41.5657 21.5771 41.8514 22.0914C42.2514 22.7886 42.4343 23.5657 42.5143 24.3543C42.5829 24.9829 42.5943 25.6229 42.5828 26.2629L42.4914 25.7257C42.4343 25.3143 42.3771 24.9143 42.2971 24.5029C42.1943 23.778 41.9824 23.0729 41.6686 22.4114C41.336 21.828 40.8549 21.3431 40.2743 21.0057C40.2192 20.9733 40.1545 20.9612 40.0914 20.9714L40.1029 20.9943L40.1486 21.04C41.0629 21.7257 41.5771 22.6971 41.8514 23.8057C42.0852 24.781 42.2834 25.7646 42.4457 26.7543C42.48 26.8914 42.5371 27.0286 42.6171 27.1314L42.6971 27.2229C43.28 27.92 43.8743 28.6286 44.48 29.3143C44.7771 29.6343 44.8571 29.9429 44.7086 30.3657C44.5143 30.9371 44.3429 31.52 44.1829 32.1029L43.9314 32.96C43.8971 33.0971 43.84 33.2343 43.7714 33.36C43.7061 33.4766 43.5996 33.5646 43.4728 33.6069C43.346 33.6491 43.208 33.6426 43.0857 33.5886C43.0286 33.5657 42.9714 33.4286 42.9714 33.3486C42.9714 33.2343 42.9943 33.0743 43.1771 33.0629C43.4857 33.0286 43.5086 33.0171 43.52 32.72C43.5377 31.8744 43.5492 31.0286 43.5543 30.1829V30.0229C43.7637 30.1297 43.9733 30.2363 44.1829 30.3429L44.2286 30.2971C44.2003 30.2485 44.1736 30.199 44.1486 30.1486C44.0955 30.0431 44.0261 29.9466 43.9429 29.8629L42.4229 28.5829L42.3886 28.5486L42.3429 28.5257C41.4743 27.7943 40.5943 27.0629 39.8743 26.1714C39.6571 25.9086 39.4743 25.6114 39.2914 25.3257L39.1657 25.12L38.9143 24.7429C38.4571 24.0229 38 23.3143 37.5657 22.5829C37.408 22.3124 37.2924 22.0195 37.2229 21.7143C37.1314 21.3714 37.2343 21.0286 37.4514 20.72C36.8571 20.9714 36.5371 21.7486 36.8343 22.2857C37.0857 22.7771 37.36 23.2571 37.6343 23.7486C37.7607 23.9767 37.8864 24.2053 38.0114 24.4343L38.0457 24.48C37.0629 23.8857 36.0914 24.0571 35.1314 24.5029C34.7657 24.6629 34.4114 24.8114 34.0114 24.8343C33.7829 24.8343 33.6114 24.7771 33.4971 24.5829L32.9486 23.5543L32.9143 23.4857C32.8857 23.4295 32.859 23.3723 32.8343 23.3143C32.8004 23.2397 32.7623 23.1672 32.72 23.0971C32.7543 23.76 33.0171 24.3543 33.2914 24.96C33.0971 24.96 32.9486 24.8457 32.8686 24.7086L32.8343 24.6629C32.6057 24.2743 32.3771 23.8971 32.2057 23.4971C32.0914 23.2229 32 22.9257 31.9086 22.64C31.872 22.5138 31.8339 22.3881 31.7943 22.2629C31.7029 22.6743 32 23.8057 32.5143 24.9714C32.2171 24.9257 32.0114 24.7429 31.8514 24.5143C31.5236 24.0238 31.3125 23.4647 31.2343 22.88C31.1771 22.56 31.0057 22.3543 30.72 22.2514C30.4131 22.1472 30.1045 22.0482 29.7943 21.9543L29.8171 22.1029L29.8514 22.3429C29.9429 23.0286 29.7829 23.6686 29.5886 24.3086C29.2686 25.36 28.7886 26.3543 28.3086 27.3371C28.256 27.4289 28.2211 27.5297 28.2057 27.6343L28.6171 27.1657L28.8114 26.9371L28.8686 26.9486V27.0743C28.8686 27.1657 28.8686 27.2571 28.8457 27.3371C28.8457 27.3829 28.8228 27.4171 28.8114 27.4514C28.6514 28.0457 28.4914 28.64 28.3086 29.2229C28.0539 29.9843 27.9454 30.7869 27.9886 31.5886L27.9771 31.7371L27.9429 31.7486L27.92 31.76C27.7714 31.76 27.6914 31.76 27.6457 31.7943C27.6 31.8286 27.5771 31.9086 27.5429 32.0457C27.4345 32.491 27.3278 32.9367 27.2229 33.3829C27.1886 33.5086 27.1543 33.6229 26.9714 33.4971C26.897 33.474 26.8173 33.474 26.7429 33.4971H26.6057L26.72 33.04L26.6971 33.0057L26.6514 33.04L26.5714 33.12C26.5257 33.1886 26.4686 33.2686 26.4343 33.3486C26.2971 33.6457 26.0571 33.7486 25.7029 33.7257L25.7371 33.8286L26.3086 33.7143L27.2229 33.7486L27.4514 33.1429H30.7429L31.0857 33.4857H31.8286L32.5714 33.1429H33.7143L34.8457 33.7143H35.4171L35.9886 33.1429H42.2514V33.7143H43.9543L44.2971 33.1429H46.24V32H44.6514L44.7886 31.5429L44.9029 31.1771L44.9486 30.9943L45.1543 30.3543C45.2571 29.9771 45.1543 29.6457 44.9029 29.3486L44 28.1829L43.2343 27.2C43.1346 27.0775 43.0819 26.9235 43.0857 26.7657C43.0857 25.6343 43.0286 24.5143 42.8114 23.3943C42.6993 22.6588 42.3728 21.9727 41.8727 21.4218C41.3727 20.8709 40.7213 20.4797 40 20.2971C38.8165 19.937 37.5768 19.7975 36.3429 19.8857C35.3309 19.9522 34.317 19.9865 33.3029 19.9886L31.4743 20.0114C30.2286 20.0114 29.0057 19.9429 27.76 19.8286C27.28 19.7829 26.7771 19.8286 26.2743 19.8743L25.7829 19.92L24.7771 20.0114L23.9886 20.0914L23.6229 20.0571H23.6C23.4057 20.0114 23.3143 19.92 23.3714 19.7143C23.5429 19.1429 23.28 18.7086 22.9143 18.32C22.6857 18.08 22.6514 18.0914 22.3771 18.2743C22.1943 18.382 22.0451 18.5385 21.9462 18.7262C21.8473 18.9139 21.8026 19.1255 21.8171 19.3371C21.8286 19.4743 21.7714 19.5086 21.6457 19.5086H20.5257L20.2971 18.88L20.0686 18.2629H20.0457L19.7829 18.6629C19.5771 18.9829 19.3714 19.3029 19.2114 19.6457C19.1543 19.76 19.1086 19.8971 19.0629 20.0343C19.0057 20.24 18.9371 20.4571 18.8114 20.6514C18.7429 20.7429 18.7543 20.88 18.7657 21.0286C18.7771 21.0971 18.7886 21.1771 18.7771 21.2571C18.7771 21.3257 18.7543 21.44 18.7086 21.4857C18.32 21.7943 18.2514 21.9429 18.4 22.4229C18.4457 22.5829 18.5143 22.7314 18.5943 22.88C18.7886 23.1886 18.8914 23.52 18.7657 23.8971C18.7086 24.0686 18.7886 24.1943 18.96 24.24C19.1429 24.2971 19.3257 24.3429 19.5086 24.3543L21.68 24.5257C23.2229 24.64 24.5714 25.3029 25.9314 25.9657L25.9429 25.9771C26.4571 26.2286 26.6286 26.5829 26.6286 27.12C26.6286 28.5829 26.5257 30.0457 26.3543 31.5086C26.2971 31.9657 26.2743 32 25.8286 32H17.7943H17.8057ZM46.2286 18.4571V18.2857L45.5657 18.2629L46.2286 18.4571ZM24.9143 22.8571C24.9408 22.7999 24.9674 22.7428 24.9943 22.6857L24.9714 22.7086C24.9371 22.7086 24.9143 22.7314 24.8914 22.7543C24.8229 22.7886 24.7657 22.8229 24.72 22.8114C24.5829 22.7657 24.5257 22.5371 24.5829 22.4C24.6047 22.3477 24.6238 22.2943 24.64 22.24L24.72 22.3886C24.7886 22.5029 24.8686 22.5486 25.0171 22.4114V22.6743H25.04L25.0971 22.6857L25.2 22.8457L25.2914 22.9829L25.4286 23.1771L25.4857 23.2457L25.4514 23.2914L25.1771 23.0629L24.9143 22.8571ZM24.9143 22.8571C25.0546 23.2003 25.1955 23.5431 25.3371 23.8857C25.12 23.7143 24.9143 23.4743 24.9371 23.0743L24.8229 23.3029C24.8229 23.3371 24.8 23.3714 24.7886 23.3943C24.5143 23.2229 24.48 23.1429 24.56 22.96L24.6971 23.0857L24.7771 23.1657L24.8457 22.9943L24.9143 22.8571ZM24.64 22.24H24.6171C24.5958 22.2566 24.5766 22.2758 24.56 22.2971C24.4457 22.4229 24.3771 22.4914 24.3314 22.4914C24.2743 22.4914 24.2171 22.3886 24.1257 22.1943V22.2629C24.1257 22.4457 24.1257 22.6171 23.9314 22.72L23.7486 22.5029L23.7029 22.5257L23.9314 22.9829L24.16 22.6171L24.2743 22.8L24.4457 22.6629C24.5371 22.8457 24.48 23.0057 24.2743 23.1886L24.1029 22.9029V22.8914L24.08 23.0171L24.0343 23.2914C24.0114 23.4171 23.92 23.4286 23.84 23.3371L23.6914 23.1543L23.6343 23.0743C23.6343 23.4629 23.8286 23.76 24.0571 23.6914L24.16 24.16C23.9086 24.0457 23.7829 23.8171 23.6571 23.6114C23.6346 23.5732 23.6117 23.5351 23.5886 23.4971C23.3371 23.7943 23.0629 24.0114 22.6171 24.0457C22.9257 23.7257 22.96 23.36 22.9257 22.9714C22.7543 23.3829 22.5829 23.7829 22.1257 23.9657C22.4686 23.6114 22.5486 23.1657 22.5486 22.6971C22.5486 22.64 22.5143 22.5829 22.48 22.5143C22.4636 22.4883 22.4484 22.4616 22.4343 22.4343L22.3771 22.3543C22.3086 22.2629 22.24 22.16 22.4343 22.0686C22.4571 22.0686 22.4686 22.0114 22.4686 21.9771V21.7143C22.4571 21.4857 22.4457 21.2343 22.4 21.0057C22.2629 20.32 21.76 20.0343 21.12 19.92L20.72 19.8743L20.5714 19.8629C21.0971 19.7714 21.6457 19.8514 22.1371 20.2057C22.6171 20.5486 22.8571 21.04 22.9829 21.6114L23.0057 21.6L23.04 21.5886L23.0057 21.4171C22.9878 21.2935 22.961 21.1713 22.9257 21.0514C22.8114 20.6743 22.6629 20.32 22.3543 20.0457L22.3429 20C22.5486 20.0571 22.6971 19.9429 22.8457 19.8514L22.9257 19.7943L22.9714 19.9429C23.0057 20.0571 23.04 20.1714 23.1086 20.2171C23.2571 20.3314 23.4629 20.3771 23.6571 20.3886C24.5829 20.4457 25.5086 20.3657 26.4343 20.1829C26.919 20.0986 27.4153 20.1064 27.8971 20.2057C27.7566 20.2343 27.6156 20.261 27.4743 20.2857L27.1771 20.3657C27.1314 20.3657 27.0629 20.3886 27.0057 20.4114L27.2571 20.5714C27.2496 20.5867 27.242 20.6019 27.2343 20.6171H26.5714L26.7086 21.1429C26.4229 21.2114 26.1029 21.0743 26.1029 20.8571L25.9314 21.0057L25.8857 20.9257L25.7943 20.7657C25.7714 21.0514 25.8514 21.1886 26.0229 21.1886L26.2057 21.6457C25.8629 21.6343 25.6343 21.4629 25.6686 21.2229L25.4857 21.36L25.4286 21.2457L25.3143 21.0743L25.3257 21.2114C25.3257 21.3714 25.3257 21.5086 25.5086 21.5771C25.5314 21.5886 25.5429 21.6343 25.5543 21.6571L25.6457 22L25.68 22.1143C25.6184 22.1099 25.5583 22.0935 25.5031 22.0658C25.4479 22.0382 25.3987 21.9999 25.3583 21.9531C25.318 21.9064 25.2872 21.8522 25.2679 21.7935C25.2486 21.7349 25.241 21.673 25.2457 21.6114L25.1657 21.6229L25.0514 21.6457C25.0134 21.5609 24.9828 21.473 24.96 21.3829L24.9371 21.3029C24.8988 21.3292 24.8608 21.3559 24.8229 21.3829L24.7429 21.2686L24.6514 21.1314C24.6587 21.2267 24.6663 21.3219 24.6743 21.4171V21.4629C24.6857 21.5086 24.6971 21.5543 24.6743 21.5771C24.6468 21.6373 24.608 21.6917 24.56 21.7371L24.5029 21.8057L24.3886 21.6914L24.2857 21.5771H24.2514L24.4343 22.1829L24.5943 22.0686L24.64 22.2629V22.24ZM22.32 19.9543C22.2286 19.8971 22.2743 19.8743 22.3429 19.84H22.3657L22.3886 19.8171C22.48 19.7829 22.6057 19.7257 22.6171 19.6571C22.6514 19.4743 22.6629 19.2914 22.6629 19.0971V18.9943C22.6629 18.9486 22.6629 18.9029 22.64 18.8571L22.6286 18.8L22.6743 18.7657L23.0514 18.9943C23.0336 18.8967 22.9933 18.8047 22.9338 18.7253C22.8743 18.646 22.7972 18.5816 22.7086 18.5371C22.6629 18.5143 22.5714 18.5257 22.5257 18.5486C22.2857 18.6743 22.16 18.9714 22.1829 19.2457V19.6571L22.1714 19.7486C22.1714 19.8629 22.1714 19.9771 22.32 19.9543ZM36.3543 28.2514L36.32 28.2629C36.2743 28.2857 36.2286 28.3086 36.2057 28.3429C36.0571 28.5714 35.9086 28.8 35.9771 29.0971C36 29.1657 36.0114 29.2457 36.0114 29.3257C36.0107 29.36 36.0107 29.3943 36.0114 29.4286H35.9886L35.9771 29.4171L35.9543 29.36C35.8971 28.9714 35.7943 28.6057 35.4514 28.3657C35.4286 28.3657 35.4286 28.3429 35.4171 28.32C35.3486 28.1257 35.1886 28.0914 35.0286 28.0457C34.9588 28.0312 34.8901 28.0121 34.8228 27.9886L34.8571 28.0457L34.88 28.08L34.9714 28.1943L35.0171 28.2286C34.9935 28.2426 34.9706 28.2579 34.9486 28.2743C34.8914 28.2971 34.8343 28.3314 34.8 28.32C34.72 28.32 34.64 28.2971 34.5714 28.2629C34.5143 28.2629 34.4686 28.24 34.4229 28.2286H34.2857V28.2743L34.32 28.3657C34.4343 28.5029 34.5714 28.6286 34.7657 28.5943C35.0743 28.56 35.2114 28.7086 35.3371 28.9714C35.4286 29.1657 35.5657 29.3371 35.7143 29.5086L35.7829 29.5886C35.8629 29.7029 35.9771 29.6571 36.0914 29.6C36.1943 29.5429 36.2286 29.4743 36.2057 29.3486C36.1698 29.1642 36.1545 28.9764 36.16 28.7886C36.16 28.5943 36.16 28.3886 36.3543 28.2514ZM36.4114 28.2514H36.6286L36.7086 28.2857C36.7543 28.3086 36.8229 28.3314 36.88 28.3314L36.6171 28.1143C36.8 27.9086 36.8 27.84 36.6514 27.5771C36.5371 27.3943 36.5714 27.2343 36.7314 27.12L37.0743 26.8114C37.2 26.6971 37.3257 26.6514 37.4743 26.7086C37.52 26.7314 37.5543 26.7771 37.5886 26.8229C37.5886 26.8457 37.5886 26.8571 37.6114 26.8686L37.6571 26.9486L37.7371 27.0629C37.8514 27.1771 37.8628 27.3486 37.7257 27.4629L37.8286 27.5429C37.6457 27.6686 37.4857 27.8057 37.6114 28.0686L37.44 28.1257C37.2686 28.16 37.0971 28.2057 36.9943 28.3771L37.4286 28.24L37.3829 28.5829L37.3486 28.9143L36.96 28.6857C37.0171 28.9371 37.1886 29.0286 37.36 29.0857C37.5429 29.1314 37.6457 29.2343 37.7257 29.3943C37.8057 29.5771 37.9086 29.7486 38 29.92L38.1257 30.1486L38.1486 30.1943L38.1943 30.2857C38.2286 30.4914 38.3086 30.6743 38.4114 30.8686L38.4686 30.9829C38.5029 31.0629 38.5028 31.1771 38.5028 31.28V32.08C38.4995 32.2069 38.4842 32.3331 38.4571 32.4571C38.4343 32.5943 38.3543 32.6857 38.2171 32.72C37.8057 32.8457 37.6114 32.7543 37.52 32.3314C37.44 31.9657 37.4057 31.6114 37.5543 31.2571C37.6686 30.9943 37.7829 30.7543 38.1486 30.8C37.92 30.6286 37.7029 30.6514 37.6 30.8686C37.52 31.04 37.4629 31.2114 37.4171 31.3943L37.4057 31.4171C37.3371 31.6686 37.2229 31.7029 37.0286 31.5429C36.5807 31.0148 36.3481 30.3375 36.3771 29.6457C36.3771 29.4171 36.3886 29.2 36.3543 28.9829C36.3119 28.7381 36.3315 28.4866 36.4114 28.2514ZM35.52 26.1486C35.6141 26.2941 35.7094 26.4388 35.8057 26.5829L35.8628 26.6743C35.8857 26.72 35.9086 26.7771 35.9543 26.8114V26.8229C36.0228 26.9029 36.1143 26.9943 36.1943 26.9943C36.2628 26.9943 36.32 26.9257 36.3771 26.8571L36.4343 26.8L36.48 26.72L36.5029 26.6629L36.56 26.7314L36.6057 26.7771L36.4914 26.9371C36.4229 27.0514 36.3429 27.1657 36.32 27.28C36.2971 27.3943 36.3314 27.52 36.3657 27.6571L36.4114 27.8286L35.7943 28.32L35.7486 28.2743L35.6114 28.1029C35.4743 27.8629 35.2457 27.8057 35.0171 27.76L34.88 27.7143H34.8343C34.7251 27.807 34.596 27.8735 34.4571 27.9086C34.3314 27.9543 34.2057 27.9886 34.1029 28.0686C33.92 28.2171 33.9086 28.4114 34.08 28.5714C34.2629 28.7543 34.4686 28.9029 34.7429 28.88C34.9143 28.88 35.0057 28.9486 35.0743 29.1086C35.12 29.2229 35.1886 29.3486 35.2686 29.4629C35.4857 29.7486 35.7028 30.0343 36.1486 29.8971L36.16 29.9543C36.1405 29.9689 36.1214 29.9841 36.1029 30C36.0698 30.0363 36.0312 30.0671 35.9886 30.0914L35.7029 30.1943C35.5886 30.2286 35.4743 30.2629 35.3828 30.3086C35.0743 30.4457 34.96 30.6514 35.04 30.9714C35.1198 31.2807 35.2348 31.5798 35.3828 31.8629L35.4514 31.9771C35.312 31.9509 35.1692 31.9471 35.0286 31.9657C34.8229 31.9657 34.64 31.9886 34.48 31.8629C34.4418 31.8402 34.4037 31.8174 34.3657 31.7943C34.1371 31.6229 33.9086 31.4514 33.6114 31.3829C33.5771 31.3829 33.5429 31.3143 33.5314 31.2686L33.4743 30.48L33.44 30.1943H33.5771L33.7829 30.2171C34.0343 30.2514 34.2629 30.1714 34.4686 30.0343C34.6743 29.8857 34.6629 29.6457 34.5829 29.4629C34.436 29.2034 34.2596 28.9618 34.0571 28.7429L34.0457 28.72C33.9314 28.5943 33.8514 28.4914 33.8628 28.2971C33.8857 28.0686 33.4629 27.68 33.2229 27.6686C33.0286 27.6686 32.96 27.7257 32.88 28.0229L32.7657 27.9771L32.56 27.8857C32.32 27.7371 32.1029 27.8171 31.9086 27.9543C31.5657 28.1829 31.3486 28.5029 31.3029 28.9257C31.1738 29.1071 31.0365 29.2825 30.8914 29.4514C30.8247 29.5202 30.7476 29.578 30.6629 29.6229C30.6171 29.6571 30.5486 29.6686 30.5029 29.6914C30.4571 29.7029 30.4 29.7143 30.3543 29.7486C30.16 29.84 30.1257 29.9543 30.2171 30.1486C30.24 30.1829 30.24 30.2286 30.2514 30.2629L30.2629 30.3543L30.2743 30.4C30.2857 30.4571 30.2971 30.5143 30.3314 30.5714L30.5943 30.9029L30.7086 31.04C30.3543 31.2343 30.0457 31.4743 30.2171 31.9886H28.4571C28.3086 31.9886 28.2514 31.9086 28.2514 31.76C28.2135 30.6076 28.428 29.4608 28.88 28.4C29.04 27.9429 29.2229 27.4743 29.2457 26.9143L29.36 26.9943C29.4286 27.0514 29.4857 27.0857 29.52 27.1314L29.68 27.36L29.84 27.5886C30.0229 27.8057 30.2057 27.8171 30.4114 27.6114C30.4914 27.52 30.56 27.4057 30.64 27.2914C30.7039 27.167 30.7725 27.045 30.8457 26.9257C31.0629 26.5829 31.2571 26.5371 31.5886 26.7771C31.7029 26.88 31.8171 27.0057 31.92 27.1314C32.2057 27.5086 32.4914 27.4971 32.7543 27.0971L33.1543 26.4457C33.2343 26.3086 33.3371 26.2857 33.4629 26.4L34.1486 27.0171C34.6286 27.44 34.7771 27.4057 35.0629 26.8457C35.1845 26.6094 35.3065 26.3732 35.4286 26.1371H35.5086L35.52 26.1486ZM31.4286 29.4057H31.3943V29.9429C31.4 30.1336 31.4115 30.3242 31.4286 30.5143C31.3801 30.4382 31.3489 30.3523 31.3371 30.2629C31.3029 30.1257 31.28 30.0114 31.12 29.9657C31.2686 30.1143 31.3029 30.2743 31.1543 30.4229C31.0971 30.4914 30.9829 30.56 30.9029 30.5486C30.8571 30.5486 30.8114 30.4914 30.7657 30.4343L30.6971 30.3543L30.5486 30.4457L30.6171 30.1371L30.96 30.0571V30.0229H30.4686V29.9429L30.8114 29.8857L31.0286 29.8514C31.1543 29.1086 31.7143 29.1771 32.2857 29.28L32.2971 29.2229L32.16 29.2L31.84 29.1429C31.6571 29.1429 31.5657 29.0629 31.5886 28.88C31.6114 28.7657 31.6686 28.64 31.7371 28.5257C31.7143 28.7886 31.8629 28.9371 32.0914 29.04L32.0457 28.9829C31.9952 28.9395 31.956 28.8846 31.9314 28.8229C31.8971 28.7314 31.8514 28.6171 31.8857 28.56C31.9643 28.4303 32.0797 28.3269 32.2171 28.2629C32.3086 28.2171 32.4571 28.2514 32.56 28.2857C32.8114 28.3771 32.8457 28.48 32.88 28.8686L32.9143 28.6971L32.96 28.5029C33.0514 28.5714 33.1886 28.8457 33.1429 28.96C33.1086 29.04 33.0171 29.0971 32.9371 29.12L32.7086 29.1657L32.4229 29.2343H32.6514L33.2229 29.2457C33.3029 29.2457 33.3943 29.3257 33.4514 29.3943L33.6 29.5314L33.9429 29.8743L33.7829 29.6457C33.4971 29.2457 33.2114 28.8457 33.0514 28.3886L33.0743 28.3771L33.0971 28.3543L33.2229 28.5029C33.3143 28.4229 33.3029 28.16 33.1886 27.9657H33.3029L33.3714 28.0457C33.5086 28.16 33.6457 28.2971 33.5886 28.5257C33.5771 28.5829 33.6228 28.6743 33.6686 28.72L33.8628 28.9486C33.9771 29.0629 34.0914 29.1771 34.1829 29.3143C34.2743 29.4286 34.3429 29.6571 34.2971 29.7714C34.2514 29.8743 34.0343 29.92 33.8743 29.9429C33.7371 29.9657 33.5543 29.9657 33.44 29.8857C33.3829 29.84 33.36 29.7371 33.3486 29.6343L33.3143 29.52V29.4857C33.3033 29.4461 33.288 29.4077 33.2686 29.3714L33.2457 29.44C33.1886 29.7029 33.1314 29.9657 32.7086 29.7029L32.7314 29.8057L32.8229 29.8514L33.0286 29.9657C33.1657 30.0229 33.2343 30.1257 33.2 30.2743C33.1428 30.5257 33.1886 30.7771 33.2229 31.0286C33.2457 31.1771 33.28 31.3257 33.28 31.4857C33.28 31.52 33.3486 31.6 33.3943 31.6C33.68 31.68 33.9657 31.7829 34.1829 32C34.2629 32.0914 34.3657 32.1486 34.4686 32.2057L34.5714 32.2629C34.7771 32.3886 34.8457 32.5714 34.7771 32.8114V32.9486C34.9257 32.8571 34.9143 32.7429 34.9029 32.6286V32.5371L34.88 32.4457C34.8457 32.3543 34.8229 32.2629 34.9829 32.24C35.28 32.1943 35.4628 32.2857 35.4857 32.5029C35.4857 32.6286 35.4857 32.7657 35.4629 32.9029V32.9829C35.452 33.1134 35.4329 33.2432 35.4057 33.3714C35.3829 33.5543 35.2686 33.6229 35.1086 33.5314C35.0325 33.493 34.9563 33.4549 34.88 33.4171L34.16 33.0057C34.0347 32.9185 33.9295 32.8055 33.8514 32.6743C33.7943 32.5943 33.7371 32.5829 33.6457 32.5943H32.9714C32.8571 32.5943 32.7771 32.5029 32.8229 32.3657L33.0286 31.8629L33.12 31.6343L33.0514 31.6914C32.9925 31.7258 32.9418 31.7726 32.9029 31.8286C32.8023 32.0217 32.7219 32.2247 32.6629 32.4343C32.64 32.5143 32.6171 32.5943 32.5029 32.6057C32.3657 32.6286 32.3314 32.5371 32.2857 32.4457L32.2743 32.4114L32.2286 32.3314C32.1257 32.1029 32.0229 31.8743 31.8857 31.6686C31.7964 31.5288 31.693 31.3986 31.5771 31.28L31.4057 31.0857C31.5657 30.8571 31.5429 30.5943 31.52 30.3314L31.5086 29.9886L31.9657 29.8171L31.9543 29.7714H31.84C31.7371 29.7714 31.6457 29.7714 31.5886 29.7257C31.52 29.6914 31.4857 29.6114 31.4629 29.52C31.4495 29.4812 31.4343 29.443 31.4171 29.4057H31.4286ZM21.6686 22.5943C21.1066 22.1849 20.4698 21.8898 19.7943 21.7257L19.9086 21.52L20.2971 20.8343C20.32 20.7771 20.3429 20.72 20.3429 20.6629C20.3429 20.3657 20.5371 20.1371 20.8343 20.0914C21.3714 20.0114 21.8743 20.3543 22.0457 20.9371C22.0078 20.914 21.9697 20.8911 21.9314 20.8686L21.7486 20.7543L21.5886 20.64L21.3143 20.4343C21.0057 20.2629 20.8 20.3314 20.6171 20.6857C20.8457 20.5257 21.0743 20.4343 21.2914 20.6857C21.1429 20.7314 21.1429 20.7314 20.9029 21.1429H20.9714C21.3486 21.1543 21.7143 21.1771 22.0914 21.0057L22.1143 21.1771L22.16 21.6C22.16 21.7029 22.1029 21.7143 22.0114 21.68L21.9886 21.6571L21.9314 21.6343L21.8743 21.6229C21.8057 21.6229 21.7257 21.6 21.6914 21.6229C21.6457 21.6686 21.6343 21.7943 21.6571 21.8514C21.7486 22.0457 21.8514 22.2286 21.9771 22.3886C22.2286 22.72 22.2629 22.96 22.0686 23.3257C21.9886 23.4743 21.8743 23.6 21.6914 23.5886C21.2343 23.5429 20.8229 23.6571 20.4114 23.7714L20.08 23.8629L19.9543 23.8971C19.7257 23.9657 19.5086 24.0229 19.28 23.9429L19.2457 23.9314L19.1657 23.8971L19.1429 23.8743C19.1355 23.8664 19.1279 23.8588 19.12 23.8514C19.1446 23.8292 19.1641 23.8019 19.1771 23.7714C19.2229 23.7029 19.2571 23.6343 19.3943 23.7143C19.44 23.7371 19.5086 23.7143 19.5771 23.7143L19.6686 23.6914C19.7445 23.6811 19.8207 23.6734 19.8971 23.6686C19.92 23.6114 19.9314 23.4971 19.9429 23.36L19.9771 23.4286L20.0343 23.52L20.0571 23.5314C20.1143 23.5771 20.1943 23.6457 20.2514 23.6229C20.4 23.6 20.5486 23.5543 20.6743 23.4743C20.8246 23.3715 21.0088 23.3306 21.1886 23.36C21.3029 23.3714 21.3943 23.3371 21.4171 23.2114C21.44 23.0857 21.3829 23.0057 21.2571 22.9943L21.0286 22.9829C20.7624 22.9628 20.4954 22.9552 20.2286 22.96C20.1829 22.96 20.1371 23.04 20.0914 23.1086L20.0114 23.2114V23.1886C19.9951 23.1492 19.976 23.111 19.9543 23.0743C19.9314 23.0514 19.8971 22.9943 19.8629 22.9943C19.5886 22.9943 19.4514 22.8229 19.3029 22.6514L19.1429 22.4686L19.2 22.4457C19.3714 22.3886 19.52 22.3314 19.44 22.0686L19.5657 22.1486C19.6457 22.1943 19.7029 22.2286 19.7486 22.2743C19.8629 22.3886 19.9543 22.3886 20.0686 22.3314C20.1366 22.2997 20.2107 22.2833 20.2857 22.2833C20.3607 22.2833 20.4348 22.2997 20.5029 22.3314C20.8171 22.4546 21.1334 22.5727 21.4514 22.6857C21.6457 22.7543 21.7486 22.8686 21.6571 23.0857C21.6457 23.1086 21.6571 23.1314 21.6571 23.1657V23.2114C21.9086 23.0057 21.9086 22.7657 21.6571 22.5943H21.6686ZM38.5143 27.9543L38.6286 27.9086L39.0286 28.3314L39.92 29.28C40.56 30.0343 40.5486 30.9143 40.3543 31.8286C40.3314 31.8743 40.24 31.9886 40.1714 31.9886H39.1314C38.96 31.9886 38.8914 31.8286 38.8343 31.7029V31.68C38.7959 31.6021 38.7838 31.5139 38.8 31.4286C38.88 31.1314 38.7657 30.8914 38.6286 30.6514C38.48 30.3886 38.48 30.3657 38.6857 30.16C38.9143 29.9086 39.0286 29.6229 38.96 29.28C38.8914 28.9943 38.8229 28.7086 38.7314 28.4229C38.7065 28.3535 38.6719 28.2881 38.6286 28.2286C38.6038 28.1916 38.5809 28.1535 38.56 28.1143C38.5428 28.0782 38.5312 28.0396 38.5257 28V27.9543H38.5143ZM42.8571 32H41.6686L41.8629 31.4286L42.0914 30.7771L42.1943 30.5143L42.3086 30.2286C42.3744 30.0597 42.3911 29.8756 42.3568 29.6976C42.3224 29.5197 42.2383 29.355 42.1143 29.2229C41.8532 28.9005 41.6091 28.5648 41.3829 28.2171C41.7984 28.5418 42.2174 28.8618 42.64 29.1771C43.0629 29.52 43.2343 29.9657 43.1657 30.5143C43.12 30.8571 43.1086 31.2 43.0971 31.5429L43.0857 31.7714C43.0857 31.92 43.0171 32 42.8571 32ZM36.7429 31.4514L36.7314 31.4629L36.5257 31.3029L35.9314 30.8229L35.8971 30.8457L35.9771 30.96C36.0457 31.04 36.0914 31.1314 36.1714 31.1886C36.4114 31.4057 36.5486 31.6457 36.5143 31.9657C36.5143 32.08 36.5143 32.1943 36.5371 32.2971L36.56 32.4571C36.56 32.6286 36.4914 32.7086 36.3086 32.6857C36.1179 32.6645 35.9274 32.6416 35.7371 32.6171C35.7458 32.5627 35.7378 32.507 35.7143 32.4571C35.68 32.3657 35.6457 32.2629 35.8057 32.1714C35.8286 32.1714 35.8057 32.0571 35.7829 32.0114L35.6229 31.6686C35.5086 31.4629 35.4057 31.2571 35.3257 31.04C35.2114 30.7429 35.3029 30.6171 35.6 30.5143C35.7486 30.4571 35.9086 30.4114 36.0571 30.3771C36.1143 30.3771 36.2057 30.4114 36.2286 30.4457L36.6286 31.1886L36.7429 31.4286V31.4514ZM32.1257 32.5486L32.1143 32.5943L31.9429 32.32C31.7257 31.9771 31.5314 31.6343 31.1543 31.44C31.097 31.4139 31.0343 31.4022 30.9714 31.4057C31.36 31.6571 31.6 32.0343 31.8514 32.4L32.1029 32.7886C32.24 32.96 32.1371 33.1314 31.9429 33.1543C31.8286 33.1771 31.7143 33.1886 31.6229 33.2571C31.44 33.3829 31.2686 33.3143 31.1086 33.2457C31.0629 33.2229 31.04 33.1086 31.04 33.04L31.0743 32.9371V32.9257L31.7257 32.5486V32.5143L31.7029 32.4914L31.2457 32.6629L31.0171 32.4571L30.4686 31.92C30.32 31.76 30.3543 31.6229 30.5143 31.4857C30.7429 31.3029 31.0057 31.2343 31.28 31.2571C31.3486 31.2571 31.4286 31.3257 31.4857 31.3714C31.8057 31.7029 31.9886 32.0914 32.1257 32.5143V32.5486ZM38.4114 29.2114L38.5486 29.36C38.4402 29.1948 38.3297 29.031 38.2171 28.8686C38.1758 28.804 38.1558 28.728 38.16 28.6514C38.1829 28.48 38.16 28.3657 37.9771 28.3086C37.9543 28.2971 37.9429 28.2743 37.9314 28.24C37.9244 28.2282 37.9167 28.2168 37.9086 28.2057C38.2743 28.2057 38.4114 28.32 38.4914 28.6629C38.5449 28.8809 38.6021 29.0981 38.6629 29.3143C38.7086 29.5314 38.6629 29.7257 38.5257 29.8857C38.4 30.0457 38.1829 30.0343 38.0914 29.8629L37.76 29.2571L37.6114 28.9714L37.7829 28.96C37.92 28.9486 38.0343 28.9371 38.1257 28.9829C38.24 29.0171 38.3086 29.1086 38.4114 29.2114ZM34.6857 26.96H34.6057L34.5371 26.6857L34.3086 25.8629C34.2857 25.7486 34.3543 25.68 34.4686 25.6571C34.5829 25.6343 34.72 25.6229 34.8571 25.6229C35.0514 25.6229 35.1543 25.7257 35.1314 25.92C35.0743 26.3086 34.9029 26.6514 34.6743 26.9486L34.6857 26.96ZM32.4 26.9486H32.3771L32.32 26.72L32.16 25.92C32.16 25.8629 32.24 25.76 32.2857 25.76C32.4571 25.7257 32.6286 25.7143 32.7886 25.7257C32.96 25.7486 33.0971 25.9886 33.0057 26.1371C32.8914 26.3314 32.7429 26.5257 32.6171 26.7086L32.4457 26.9371H32.4114L32.4 26.9486ZM37.1886 25.68C37.1543 25.9771 37.0057 26.24 36.8457 26.5257C36.6057 26.2057 36.4229 25.8971 36.32 25.5429C36.32 25.5086 36.3771 25.3943 36.4114 25.3943C36.5943 25.36 36.7771 25.3371 36.96 25.3486C37.12 25.3714 37.2 25.5314 37.1886 25.68ZM41.2343 32.4343L41.1771 32.4114L41.2686 32.0343L41.4857 31.1429L41.7829 30C41.8286 29.8514 41.8857 29.6571 42.0457 29.7143C42.2057 29.76 42.1486 29.9086 42.1029 30.0229L42.08 30.08L41.4286 31.92L41.3143 32.2629C41.292 32.322 41.2653 32.3793 41.2343 32.4343ZM37.76 27.7486H37.8286L37.92 27.8857L37.9543 27.7714L38.0114 27.5657C38.0571 27.3371 37.7714 26.6857 37.4629 26.56C37.8057 26.4914 37.9771 26.6743 38.1486 26.9486V26.9714C38.2629 27.1657 38.3771 27.3371 38.3314 27.5657C38.2971 27.7143 38.24 27.8743 38.16 28.0229C38.1143 28.1029 37.8514 28.0914 37.76 27.9771C37.7371 27.9429 37.7486 27.8857 37.76 27.8171V27.7371V27.7486ZM30.2171 27.3714H30.1714C30.1184 27.0672 30.0688 26.7625 30.0229 26.4571L30.0571 26.3886L30.1714 26.3657C30.2857 26.3543 30.4 26.3314 30.48 26.3657C30.5714 26.4114 30.6514 26.6057 30.6171 26.6971C30.56 26.8686 30.4686 27.04 30.3771 27.1886C30.3382 27.2528 30.3001 27.3176 30.2629 27.3829H30.2171V27.3714ZM24.9029 22.2629C24.64 22.1029 24.6057 21.9771 24.72 21.6L24.88 21.6343C24.9143 21.6571 24.9257 21.7029 24.9371 21.7486C24.96 21.84 24.9829 21.9314 25.1429 21.8857L25.1886 21.9657L25.44 22.5714L25.4971 22.7314L25.3714 22.6171L25.1314 22.4229C25.0171 22.3314 25.04 22.24 25.0857 22.1257C25.1037 22.074 25.1152 22.0203 25.12 21.9657L25.0286 22.08L24.9029 22.2629ZM31.44 24.7314C31.0629 24.5486 30.64 23.5086 30.72 23.0171L31.0971 23.92L31.44 24.7314ZM20.2743 19.8857L19.7029 20.1143L19.7829 19.9314L20.0686 19.1657H20.08L20.1029 19.1543L20.2743 19.8857ZM37.5314 28.8914L37.4743 28.5486L37.6571 28.6629L37.5886 28.4571L37.5314 28.2971L37.5543 28.2743L37.7714 28.5029H37.8057L37.7943 28.4114L37.7029 28.08L37.76 28.1486L38.0686 28.56C38.0686 28.7429 37.92 28.8571 37.52 28.8914H37.5314ZM38.5828 32.1257L38.6171 31.9314L38.6971 32.08L38.8343 32.3429C38.88 32.4571 38.8686 32.5829 38.7429 32.6514C38.6971 32.6743 38.6514 32.6743 38.6057 32.6743C38.5829 32.6731 38.56 32.6731 38.5371 32.6743C38.5376 32.6552 38.5376 32.6362 38.5371 32.6171C38.5531 32.453 38.5722 32.2892 38.5943 32.1257H38.5828ZM31.1657 30.9029C31.0171 30.9714 30.8686 30.8914 30.72 30.6286C30.9828 30.7086 31.0743 30.6857 31.2571 30.4686C31.3714 30.72 31.3486 30.8114 31.1657 30.9029ZM24.3657 23.5086L24.6857 24.3086C24.3657 24.1257 24.2514 23.8057 24.1714 23.44L24.3657 23.5086ZM40.4229 32.5829L40.5143 32.6286L40.4343 32.7086C40.3948 32.7536 40.3486 32.7922 40.2971 32.8229C40.2426 32.8466 40.1848 32.862 40.1257 32.8686L40.0571 32.88V32.7886C40.0571 32.7086 40.0571 32.6286 40.08 32.56C40.0914 32.5257 40.2286 32.5257 40.2971 32.5371C40.3428 32.5371 40.3771 32.56 40.4229 32.5829ZM42.7771 32.9371L42.6857 33.6C42.5714 33.6229 42.5257 33.5657 42.5257 33.4514C42.5029 33.0514 42.5257 32.9943 42.7771 32.9371ZM25.0743 24.1486L25.0286 24.1829L24.5143 23.5086C24.5255 23.4969 24.5369 23.4855 24.5486 23.4743L24.5829 23.5086L24.8114 23.6914L24.9257 23.5657L25.0743 24.1486ZM19.0171 21.92C19.1429 21.9086 19.2114 22.0114 19.2 22.2171C19.0286 22.2514 18.9143 22.1943 18.88 22.0343C18.88 22.0114 18.96 21.92 19.0057 21.92H19.0171ZM39.7371 32.8H39.7143V32.7314C39.694 32.6927 39.6899 32.6475 39.7029 32.6057C39.7486 32.4914 39.8057 32.3657 40.0114 32.3771L39.8057 32.8114H39.7371V32.8ZM19.1314 23.1086L19.1543 23.0857L19.2343 23.12C19.2914 23.1543 19.3486 23.1771 19.3714 23.2229C19.3943 23.2571 19.36 23.3143 19.3257 23.3714C19.3132 23.3937 19.3018 23.4166 19.2914 23.44H19.2229L19.0971 23.1429L19.1314 23.1086Z" fill="#1D1C1A"/>
<path d="M15.4286 32H18.8572V33.1429H15.4286V32ZM46.2286 32H47.9429V33.1429H46.2286V32Z" fill="#1D1C1A"/>
<path d="M32 8.79999L32.4457 9.35999C32.96 10.0114 33.9085 10.8343 35.1657 11.7257C36.4114 12.6057 37.9085 13.5428 39.5085 14.4114C42.7085 16.16 46.1943 17.6457 48.6057 18.0914L48.9828 18.16L49.0628 18.5371C50.8 26.7886 50.2057 43.8286 32.3085 55.4514L32 55.6571L31.6914 55.4514C13.7828 43.8286 13.2 26.7886 14.9371 18.5371L15.0171 18.16L15.3943 18.0914C17.8057 17.6457 21.3028 16.16 24.5028 14.4114C26.0914 13.5428 27.5885 12.6057 28.8457 11.7257C30.0914 10.8343 31.04 10.0114 31.5543 9.35999L32 8.79999ZM15.9771 19.1428C14.4 27.1657 15.1771 43.1771 32 54.2857C48.8228 43.1657 49.6 27.1543 48.0228 19.1314C45.4628 18.5828 42.0343 17.0971 38.96 15.4057C37.4224 14.5743 35.9342 13.6546 34.5028 12.6514C33.6091 12.0371 32.7715 11.3449 32 10.5828C31.3714 11.2343 30.5028 11.9428 29.4857 12.6628C28.058 13.6657 26.5736 14.5853 25.04 15.4171C21.9657 17.1086 18.5257 18.5943 15.9771 19.1428Z" fill="#1D1C1A"/>
</g>
<defs>
<clipPath id="clip0_124_64">
<rect width="64" height="64" rx="32" fill="white"/>
</clipPath>
</defs>
</svg>
