<svg width="64" height="64" viewBox="0 0 64 64" fill="none" xmlns="http://www.w3.org/2000/svg">
<g clip-path="url(#clip0_40_26307)">
<path d="M32 64C49.6731 64 64 49.6731 64 32C64 14.3269 49.6731 0 32 0C14.3269 0 0 14.3269 0 32C0 49.6731 14.3269 64 32 64Z" fill="#2E3148"/>
<path d="M31.912 50.606C42.1387 50.606 50.429 42.3157 50.429 32.089C50.429 21.8624 42.1387 13.572 31.912 13.572C21.6854 13.572 13.395 21.8624 13.395 32.089C13.395 42.3157 21.6854 50.606 31.912 50.606Z" fill="#1B1E36"/>
<path d="M31.977 4.24805C28.532 4.24805 25.739 16.7421 25.739 32.1541C25.739 47.5661 28.532 60.06 31.977 60.06C35.422 60.06 38.215 47.5661 38.215 32.1541C38.215 16.7421 35.421 4.24805 31.977 4.24805ZM32.408 58.486C32.3731 58.5557 32.3222 58.6161 32.2595 58.6623C32.1968 58.7086 32.1241 58.7393 32.0473 58.7521C31.9705 58.7649 31.8917 58.7593 31.8174 58.7358C31.7432 58.7123 31.6755 58.6717 31.62 58.6171C30.4903 57.0388 29.6817 55.254 29.24 53.364C26.465 44.434 27.126 25.264 27.126 25.264C28.426 10.042 30.8019 6.44704 31.6089 5.64804C31.6914 5.56639 31.8 5.51649 31.9156 5.50716C32.0313 5.49782 32.1465 5.52967 32.241 5.59705C33.412 6.42705 34.395 9.89705 34.395 9.89705C36.1671 16.7149 37.0538 23.7326 37.033 30.777C37.0867 37.0233 36.6003 43.2626 35.579 49.425C34.258 56.909 32.409 58.486 32.409 58.486H32.408Z" fill="#6F7390"/>
<path d="M56.183 18.2671C54.468 15.2781 42.242 19.0731 28.867 26.7431C15.492 34.4131 6.05699 43.0531 7.76699 46.0431C9.47699 49.0331 21.708 45.2371 35.083 37.5671C48.458 29.8971 57.893 21.2571 56.183 18.2671ZM9.35299 45.6311C8.69599 45.5481 8.84499 45.0091 8.84499 45.0091C9.65152 43.2446 10.7961 41.6553 12.214 40.3311C18.582 33.4801 35.542 24.5121 35.542 24.5121C49.393 18.0681 53.695 18.3401 54.786 18.6401C54.8978 18.6715 54.9949 18.7414 55.0602 18.8375C55.1255 18.9335 55.1548 19.0496 55.143 19.1651C55.012 20.5951 52.484 23.1731 52.484 23.1731C47.4548 28.1058 41.8102 32.369 35.69 35.8571C30.2988 39.0132 24.6443 41.6962 18.79 43.8761C11.639 46.4531 9.35198 45.6321 9.35198 45.6321L9.35299 45.6311Z" fill="#6F7390"/>
<path d="M56.122 46.14C57.85 43.159 48.439 34.4781 35.111 26.7511C21.783 19.0241 9.558 15.1821 7.831 18.1681C6.104 21.1541 15.514 29.83 28.849 37.557C42.184 45.284 54.396 49.126 56.122 46.14ZM8.97699 19.32C8.93484 19.2544 8.90866 19.1797 8.90051 19.1021C8.89237 19.0245 8.90252 18.9461 8.93012 18.8731C8.95772 18.8002 9.00202 18.7346 9.05948 18.6818C9.11694 18.629 9.18596 18.5904 9.26102 18.5691C11.1926 18.3834 13.1419 18.5791 14.998 19.1451C24.116 21.2211 40.374 31.4051 40.374 31.4051C52.892 40.1641 54.812 44.0231 55.099 45.1181C55.1283 45.2304 55.1169 45.3495 55.067 45.4543C55.017 45.5591 54.9317 45.643 54.826 45.6911C53.521 46.2911 50.026 45.398 50.026 45.398C43.2373 43.5138 36.7194 40.7635 30.633 37.2151C25.202 34.135 20.0493 30.5883 15.233 26.6151C9.415 21.7151 8.978 19.328 8.978 19.328L8.97699 19.32Z" fill="#6F7390"/>
<path d="M31.912 35.3719C33.7252 35.3719 35.195 33.9021 35.195 32.0889C35.195 30.2758 33.7252 28.8059 31.912 28.8059C30.0989 28.8059 28.629 30.2758 28.629 32.0889C28.629 33.9021 30.0989 35.3719 31.912 35.3719Z" fill="#B7B9C8"/>
<path d="M45.372 21.452C46.4236 21.452 47.276 20.57 47.276 19.482C47.276 18.394 46.4236 17.512 45.372 17.512C44.3205 17.512 43.468 18.394 43.468 19.482C43.468 20.57 44.3205 21.452 45.372 21.452Z" fill="#B7B9C8"/>
<path d="M14.117 28.149C15.1686 28.149 16.021 27.267 16.021 26.179C16.021 25.091 15.1686 24.209 14.117 24.209C13.0655 24.209 12.213 25.091 12.213 26.179C12.213 27.267 13.0655 28.149 14.117 28.149Z" fill="#B7B9C8"/>
<path d="M28.037 52.313C29.0885 52.313 29.941 51.431 29.941 50.343C29.941 49.255 29.0885 48.373 28.037 48.373C26.9854 48.373 26.133 49.255 26.133 50.343C26.133 51.431 26.9854 52.313 28.037 52.313Z" fill="#B7B9C8"/>
</g>
<defs>
<clipPath id="clip0_40_26307">
<rect width="64" height="64" fill="white"/>
</clipPath>
</defs>
</svg>
