<svg xmlns="http://www.w3.org/2000/svg" width="64" height="64" viewBox="0 0 64 64">
  <g id="atom" transform="translate(0 0.177)">
    <circle id="Ellipse_129" data-name="Ellipse 129" cx="32" cy="32" r="32" transform="translate(0 -0.177)" fill="#2e3148"/>
    <circle id="Ellipse_130" data-name="Ellipse 130" cx="18.517" cy="18.517" r="18.517" transform="translate(13.395 13.395)" fill="#1b1e36"/>
    <path id="Path_4647" data-name="Path 4647" d="M1014.468,159.47c-3.445,0-6.238,12.494-6.238,27.906s2.793,27.906,6.238,27.906,6.238-12.494,6.238-27.906S1017.912,159.47,1014.468,159.47Zm.431,54.238a.494.494,0,0,1-.788.131,14.819,14.819,0,0,1-2.38-5.253c-2.775-8.93-2.114-28.1-2.114-28.1,1.3-15.222,3.676-18.817,4.483-19.616a.492.492,0,0,1,.632-.051c1.171.83,2.154,4.3,2.154,4.3a82.034,82.034,0,0,1,2.638,20.88,108.351,108.351,0,0,1-1.454,18.648C1016.749,212.131,1014.9,213.708,1014.9,213.708Z" transform="translate(-982.491 -155.399)" fill="#6f7390"/>
    <path id="Path_4648" data-name="Path 4648" d="M345.12,669.61c-1.715-2.989-13.941.806-27.316,8.476s-22.81,16.31-21.1,19.3,13.941-.806,27.316-8.476,22.81-16.31,21.1-19.3Zm-46.83,27.364c-.657-.083-.508-.622-.508-.622a14.845,14.845,0,0,1,3.369-4.678c6.368-6.851,23.328-15.819,23.328-15.819,13.851-6.444,18.153-6.172,19.244-5.872a.493.493,0,0,1,.357.525c-.131,1.43-2.659,4.008-2.659,4.008A81.9,81.9,0,0,1,324.627,687.2a108.158,108.158,0,0,1-16.9,8.019c-7.151,2.577-9.438,1.756-9.438,1.756h0Z" transform="translate(-288.937 -651.52)" fill="#6f7390"/>
    <path id="Path_4649" data-name="Path 4649" d="M347.281,694.05c1.728-2.981-7.683-11.662-21.011-19.389s-25.553-11.569-27.28-8.583,7.683,11.662,21.018,19.389S345.555,697.036,347.281,694.05Zm-47.145-26.82a.5.5,0,0,1,.284-.751,14.813,14.813,0,0,1,5.737.576c9.118,2.076,25.376,12.26,25.376,12.26,12.518,8.759,14.438,12.618,14.725,13.713a.493.493,0,0,1-.273.573c-1.305.6-4.8-.293-4.8-.293a82.1,82.1,0,0,1-19.393-8.183,107.658,107.658,0,0,1-15.4-10.6c-5.818-4.9-6.255-7.287-6.255-7.287Z" transform="translate(-291.159 -648.087)" fill="#6f7390"/>
    <circle id="Ellipse_131" data-name="Ellipse 131" cx="3.283" cy="3.283" r="3.283" transform="translate(28.629 28.629)" fill="#b7b9c8"/>
    <ellipse id="Ellipse_132" data-name="Ellipse 132" cx="1.904" cy="1.97" rx="1.904" ry="1.97" transform="translate(43.468 17.335)" fill="#b7b9c8"/>
    <ellipse id="Ellipse_133" data-name="Ellipse 133" cx="1.904" cy="1.97" rx="1.904" ry="1.97" transform="translate(12.213 24.032)" fill="#b7b9c8"/>
    <ellipse id="Ellipse_134" data-name="Ellipse 134" cx="1.904" cy="1.97" rx="1.904" ry="1.97" transform="translate(26.133 48.196)" fill="#b7b9c8"/>
  </g>
</svg>
