<svg xmlns="http://www.w3.org/2000/svg" xmlns:xlink="http://www.w3.org/1999/xlink" width="64" height="64" viewBox="0 0 64 64">
  <defs>
    <clipPath id="clip-path">
      <path id="Path_7642" data-name="Path 7642" d="M32,64A32,32,0,1,0,0,32.07,32.021,32.021,0,0,0,32,64Z" fill="#7e1bcc"/>
    </clipPath>
  </defs>
  <g id="audio" transform="translate(-478.93 -7217.402)">
    <g id="Group_5290" data-name="Group 5290" transform="translate(478.93 7217.402)">
      <g id="Group_5315" data-name="Group 5315">
        <path id="Path_7640" data-name="Path 7640" d="M32,64A32,32,0,1,0,0,32.07,32.021,32.021,0,0,0,32,64Z" fill="#7e1bcc"/>
        <g id="Stacked_White" transform="translate(-27.77 -5.989)">
          <path id="Path_9997" data-name="Path 9997" d="M42.082,528.35l-2.282,5.4h1.562l.384-.957h2.066l.391.957H45.8l-2.282-5.4Zm.1,3.285.605-1.524.6,1.524Z" transform="translate(0 -476.318)" fill="#fff"/>
          <path id="Path_9998" data-name="Path 9998" d="M147.794,531.867c0,.75-.391,1.1-.988,1.1s-.986-.368-.986-1.141V528.85H144.31v3.009a2.215,2.215,0,0,0,2.481,2.45,2.241,2.241,0,0,0,2.511-2.488V528.85h-1.508Z" transform="translate(-96.491 -476.78)" fill="#fff"/>
          <path id="Path_9999" data-name="Path 9999" d="M248.368,528.85H246.3v5.359h2.037c1.93,0,3.055-1.151,3.055-2.695V531.5C251.392,529.953,250.282,528.85,248.368,528.85Zm1.5,2.685a1.315,1.315,0,0,1-1.478,1.355h-.605v-2.725h.605a1.318,1.318,0,0,1,1.478,1.356Z" transform="translate(-190.656 -476.78)" fill="#fff"/>
          <rect id="Rectangle_1654" data-name="Rectangle 1654" width="1.493" height="5.359" transform="translate(63.385 52.07)" fill="#fff"/>
          <path id="Path_10000" data-name="Path 10000" d="M407.134,531.867c0,.75-.391,1.1-.987,1.1s-.988-.368-.988-1.141V528.85H403.65v3.009a2.214,2.214,0,0,0,2.481,2.45,2.241,2.241,0,0,0,2.511-2.488V528.85h-1.508Z" transform="translate(-335.933 -476.78)" fill="#fff"/>
          <path id="Path_10001" data-name="Path 10001" d="M501.946,529.763c-.743-.168-.926-.275-.926-.52v-.015c0-.192.176-.344.537-.344a2.687,2.687,0,0,1,1.5.528l.743-1.049a3.371,3.371,0,0,0-2.205-.712c-1.286,0-2.072.72-2.072,1.715v.015c0,1.1.881,1.425,2.022,1.688.727.168.9.291.9.513v.015c0,.23-.214.368-.614.368a2.761,2.761,0,0,1-1.739-.643l-.826.988a3.746,3.746,0,0,0,2.511.885c1.3,0,2.167-.651,2.167-1.745v-.012C503.945,530.43,503.179,530.032,501.946,529.763Z" transform="translate(-424.216 -475.672)" fill="#fff"/>
          <path id="Path_10002" data-name="Path 10002" d="M121.9,37.094l3.823-6.612.585-1.011a.9.9,0,0,1,.077-.112.952.952,0,0,1,1.573.113l3.966,6.881.735,1.272a1.007,1.007,0,0,1,.094.224.953.953,0,0,1-.921,1.2l-8.653-.006a.953.953,0,0,0-.825.476l-3.683,6.368a.952.952,0,0,0,.823,1.429l7.626,0,9.509.007,9.528.006a.952.952,0,0,0,.826-1.427l-9.507-16.493-4.459-7.736-5.049-8.757a.951.951,0,0,0-1.648,0L116.792,29.4,112.9,36.136a.952.952,0,0,0,.824,1.428l7.356.005a.953.953,0,0,0,.825-.476Z" transform="translate(-67.371 0)" fill="#fff"/>
        </g>
      </g>
    </g>
  </g>
</svg>
