<svg width="64" height="64" viewBox="0 0 64 64" fill="none" xmlns="http://www.w3.org/2000/svg">
<g clip-path="url(#clip0_40_26318)">
<path d="M32.0001 64C38.3321 64 44.5217 62.1215 49.7856 58.6021C55.0495 55.0828 59.1509 50.081 61.5709 44.2297C63.9908 38.3783 64.6204 31.9406 63.38 25.7313C62.1396 19.522 59.0849 13.8203 54.6026 9.34783C50.1203 4.87535 44.4119 1.83318 38.1999 0.606374C31.988 -0.620436 25.5516 0.0232661 19.7056 2.45601C13.8596 4.88875 8.86676 9.00116 5.35899 14.2727C1.85121 19.5443 -0.0137746 25.7381 7.65974e-05 32.07C0.0241544 40.5431 3.40553 48.6612 9.40349 54.6461C15.4014 60.6309 23.527 63.9945 32.0001 64Z" fill="#7E1BCC"/>
<path d="M14.312 46.043L12.03 51.443H13.592L13.976 50.486H16.042L16.433 51.443H18.03L15.748 46.043H14.312ZM14.412 49.328L15.017 47.804L15.617 49.328H14.412Z" fill="white"/>
<path d="M23.533 49.0978C23.533 49.8478 23.142 50.1978 22.545 50.1978C21.948 50.1978 21.559 49.8298 21.559 49.0568V46.0808H20.049V49.0898C20.0107 49.4236 20.0488 49.7616 20.1604 50.0785C20.272 50.3953 20.4542 50.6827 20.6932 50.9187C20.9322 51.1547 21.2218 51.3334 21.54 51.441C21.8583 51.5486 22.1968 51.5824 22.53 51.5399C22.8681 51.5833 23.2116 51.5491 23.5345 51.4398C23.8573 51.3304 24.151 51.149 24.3931 50.9091C24.6352 50.6692 24.8194 50.3771 24.9317 50.0553C25.044 49.7335 25.0814 49.3903 25.041 49.0518V46.0808H23.533V49.0978Z" fill="white"/>
<path d="M29.942 46.0808H27.874V51.4398H29.911C31.841 51.4398 32.966 50.2888 32.966 48.7448V48.7308C32.966 47.1838 31.856 46.0808 29.942 46.0808ZM31.442 48.7658C31.4493 48.9564 31.415 49.1464 31.3416 49.3224C31.2681 49.4985 31.1572 49.6565 31.0166 49.7854C30.876 49.9143 30.709 50.0111 30.5273 50.069C30.3455 50.127 30.1533 50.1446 29.964 50.1208H29.359V47.3958H29.964C30.1533 47.3725 30.3454 47.3906 30.527 47.4488C30.7086 47.507 30.8754 47.6039 31.0159 47.7328C31.1564 47.8617 31.2673 48.0196 31.3409 48.1955C31.4144 48.3714 31.4489 48.5613 31.442 48.7518V48.7658Z" fill="white"/>
<path d="M37.1081 46.0808H35.6151V51.4398H37.1081V46.0808Z" fill="white"/>
<path d="M43.4311 49.0978C43.4311 49.8478 43.0401 50.1978 42.4441 50.1978C41.8481 50.1978 41.4561 49.8298 41.4561 49.0568V46.0808H39.947V49.0898C39.9085 49.4236 39.9464 49.7618 40.058 50.0787C40.1695 50.3957 40.3517 50.6831 40.5908 50.9192C40.8299 51.1553 41.1195 51.3338 41.4378 51.4413C41.7562 51.5489 42.0948 51.5826 42.4281 51.5399C42.7661 51.5833 43.1096 51.5491 43.4325 51.4398C43.7553 51.3304 44.049 51.149 44.2911 50.9091C44.5333 50.6692 44.7175 50.3771 44.8297 50.0553C44.942 49.7335 44.9794 49.3903 44.9391 49.0518V46.0808H43.4311V49.0978Z" fill="white"/>
<path d="M49.9601 48.1018C49.2171 47.9338 49.034 47.8268 49.034 47.5818V47.5668C49.034 47.3748 49.21 47.2228 49.571 47.2228C50.1129 47.2434 50.6358 47.4275 51.071 47.7508L51.814 46.7018C51.1862 46.2114 50.4051 45.9591 49.609 45.9898C48.323 45.9898 47.537 46.7098 47.537 47.7048V47.7198C47.537 48.8198 48.4181 49.1448 49.5591 49.4078C50.2861 49.5758 50.459 49.6988 50.459 49.9208V49.9358C50.459 50.1658 50.245 50.3038 49.845 50.3038C49.2086 50.2964 48.5943 50.0692 48.106 49.6608L47.28 50.6488C47.9804 51.2413 48.8739 51.5562 49.791 51.5338C51.091 51.5338 51.958 50.8828 51.958 49.7888V49.7768C51.959 48.7688 51.1931 48.3708 49.9601 48.1018Z" fill="white"/>
<path d="M26.759 31.1049L30.582 24.4929L31.167 23.4819C31.1898 23.4427 31.2156 23.4052 31.244 23.3699C31.3402 23.2476 31.465 23.1507 31.6073 23.0877C31.7497 23.0248 31.9053 22.9977 32.0605 23.0089C32.2157 23.02 32.3659 23.0691 32.4978 23.1517C32.6297 23.2344 32.7393 23.3481 32.817 23.4829L36.783 30.3639L37.518 31.6359C37.5583 31.7065 37.5898 31.7817 37.612 31.8599C37.6499 32.0012 37.6548 32.1492 37.6263 32.2927C37.5978 32.4361 37.5366 32.5711 37.4476 32.6871C37.3585 32.8031 37.244 32.8971 37.1128 32.9618C36.9816 33.0264 36.8373 33.06 36.691 33.0599L28.038 33.0539C27.8708 33.0539 27.7066 33.0979 27.5618 33.1814C27.417 33.265 27.2967 33.3852 27.213 33.5299L23.53 39.8979C23.4463 40.0425 23.4021 40.2067 23.4019 40.3738C23.4017 40.5409 23.4455 40.7052 23.5289 40.85C23.6123 40.9948 23.7324 41.1152 23.8771 41.1989C24.0217 41.2826 24.1859 41.3267 24.353 41.3269H31.979L41.488 41.3339L51.016 41.3399C51.1831 41.3401 51.3473 41.2962 51.4921 41.2129C51.6369 41.1295 51.7572 41.0094 51.8409 40.8648C51.9246 40.7202 51.9688 40.5561 51.969 40.389C51.9692 40.2219 51.9254 40.0577 51.842 39.9129L42.335 23.4199L37.876 15.6839L32.827 6.92689C32.7436 6.78213 32.6235 6.6619 32.4789 6.5783C32.3342 6.4947 32.1701 6.45068 32.003 6.45068C31.8359 6.45068 31.6718 6.4947 31.5272 6.5783C31.3825 6.6619 31.2624 6.78213 31.179 6.92689L21.651 23.4109L17.759 30.1469C17.6755 30.2916 17.6315 30.4557 17.6315 30.6228C17.6314 30.7899 17.6754 30.954 17.7589 31.0987C17.8424 31.2434 17.9625 31.3636 18.1072 31.4472C18.2518 31.5308 18.4159 31.5748 18.583 31.5749L25.939 31.5799C26.1062 31.5799 26.2704 31.5359 26.4152 31.4524C26.5601 31.3688 26.6803 31.2486 26.764 31.1039L26.759 31.1049Z" fill="white"/>
</g>
<defs>
<clipPath id="clip0_40_26318">
<rect width="64" height="64" fill="white"/>
</clipPath>
</defs>
</svg>
