<svg width="64" height="64" viewBox="0 0 64 64" fill="none" xmlns="http://www.w3.org/2000/svg">
<g clip-path="url(#clip0_40_26331)">
<path d="M32 64C49.6731 64 64 49.6731 64 32C64 14.3269 49.6731 0 32 0C14.3269 0 0 14.3269 0 32C0 49.6731 14.3269 64 32 64Z" fill="#55B5E5"/>
<path d="M18.026 40.7247C17.987 32.7797 18.057 23.2107 17.926 16.3147C27.717 16.3737 35.261 16.3147 45.51 16.3797C45.419 25.0107 45.481 31.5717 45.373 40.9267C44.158 45.9407 36.782 52.1217 31.79 53.8337C23.158 51.9347 18.505 42.3137 18.026 40.7247Z" fill="white"/>
<path d="M31.691 54.2637C23.371 50.4787 19.379 47.1757 17.733 40.7227C17.588 32.7107 17.703 24.0397 17.721 16.0227H45.888C45.8427 24.316 45.797 32.6094 45.751 40.9027C44.476 46.9707 38.687 51.3137 31.691 54.2637ZM44.909 40.8707C44.971 32.8707 45.217 23.7647 45.219 16.6507L18.238 16.6157C18.28 24.5617 18.262 25.8837 18.382 40.7157C20.138 47.0157 25.348 50.8447 31.687 53.4797C37.851 50.7977 43.628 46.7727 44.909 40.8667V40.8707Z" fill="#FFC905"/>
<path d="M27.383 19.4829L27.398 37.5829C30.398 37.5882 33.398 37.5882 36.398 37.5829C36.398 31.8119 36.379 25.2629 36.376 19.4919C34.868 20.1249 33.658 20.4289 31.888 21.1189C29.918 20.4389 29.296 20.2079 27.369 19.4889L27.383 19.4829ZM38.955 22.8939C38.566 23.2549 38.255 24.1509 38.868 24.4599V25.9879C38.7456 25.7223 38.5352 25.5072 38.2725 25.3787C38.0098 25.2503 37.7108 25.2164 37.426 25.2829C37.445 25.8909 37.826 26.5829 38.567 26.4559C38.6368 26.4399 38.7012 26.4059 38.7539 26.3573C38.8065 26.3087 38.8455 26.2472 38.867 26.1789V27.9969L38.849 27.9419L38.832 27.8869L38.796 27.8199L38.76 27.7529L38.719 27.7019L38.678 27.6499L38.613 27.5879L38.548 27.5259L38.435 27.4609L38.322 27.3959L38.214 27.3589L38.111 27.3199L37.991 27.2969L37.871 27.2729L37.676 27.2659L37.481 27.2579L37.469 27.2749L37.457 27.2919V27.5429L37.474 27.6429L37.491 27.7429L37.525 27.8429L37.56 27.9429L37.613 28.0329L37.667 28.1229L37.729 28.1909L37.791 28.2589L37.883 28.3249L37.975 28.3899L38.075 28.4319L38.175 28.4739L38.275 28.4939L38.375 28.5139L38.469 28.5079L38.562 28.5019L38.651 28.4639L38.74 28.4259L38.784 28.3779L38.828 28.3299L38.853 28.2729L38.878 28.2169V30.1169L38.847 30.0389L38.811 29.9449L38.765 29.8709L38.717 29.8009L38.63 29.7189L38.543 29.6369L38.45 29.5829L38.357 29.5289L38.289 29.5039L38.221 29.4789L38.111 29.4559L37.999 29.4279L37.839 29.4149L37.68 29.4019L37.545 29.4139L37.41 29.4259L37.402 29.4329L37.394 29.4399L37.411 29.5869L37.428 29.7339L37.462 29.8459L37.497 29.9579L37.557 30.0659L37.611 30.1709L37.678 30.2469L37.745 30.3229L37.835 30.3869L37.925 30.4509L38.025 30.4979L38.125 30.5449L38.21 30.5639L38.295 30.5829H38.518L38.592 30.5589L38.666 30.5349L38.725 30.4909L38.785 30.4469L38.824 30.3749L38.863 30.3019V32.3349L38.831 32.2569L38.811 32.1819L38.775 32.1289L38.738 32.0709L38.672 32.0029L38.606 31.9349L38.518 31.8749L38.431 31.8149L38.318 31.7709L38.205 31.7239L38.081 31.6969L37.956 31.6709H37.5L37.433 31.6809L37.366 31.6909L37.375 31.7909L37.384 31.8909L37.404 31.9769L37.425 32.0629L37.453 32.1409L37.481 32.2179L37.535 32.3179L37.588 32.4179L37.665 32.5039L37.742 32.5889L37.842 32.6559L37.942 32.7219L38.042 32.7629L38.142 32.8039L38.242 32.8239L38.342 32.8439L38.453 32.8379L38.563 32.8319L38.618 32.8119L38.674 32.7919L38.724 32.7619L38.775 32.7319L38.812 32.6859L38.849 32.6399L38.868 32.5939L38.887 32.5489V34.5339L38.855 34.4589L38.811 34.3639L38.759 34.2959L38.707 34.2279L38.628 34.1609L38.549 34.0939L38.449 34.0389L38.349 33.9839L38.224 33.9479L38.1 33.9119L37.969 33.8979L37.838 33.8839L37.713 33.8919L37.589 33.8999L37.451 33.9239L37.313 33.9479L37.3 33.9589L37.281 33.9709L37.309 34.0879L37.337 34.2049L37.384 34.3139L37.432 34.4229L37.493 34.5179L37.554 34.6119L37.686 34.7259L37.817 34.8399L37.928 34.8889L38.038 34.9379L38.138 34.9639L38.238 34.9899H38.511L38.591 34.9639L38.671 34.9369L38.729 34.8989L38.788 34.8609L38.833 34.7859L38.878 34.7109V37.4709H39.057V34.7139L39.083 34.7629L39.109 34.8129L39.16 34.8619L39.211 34.9109L39.285 34.9409L39.359 34.9719L39.459 34.9849L39.559 34.9979L39.677 34.9799L39.795 34.9619L39.881 34.9319L39.967 34.9019L40.046 34.8619L40.125 34.8219L40.237 34.7219L40.349 34.6219L40.413 34.5219L40.477 34.4219L40.519 34.3359L40.561 34.2709L40.594 34.1599L40.627 34.0489L40.634 34.0039L40.641 33.9589L40.569 33.9409L40.497 33.9239L40.407 33.9089L40.317 33.8939H39.932L39.812 33.9199L39.692 33.9459L39.6 33.9819L39.511 34.0179L39.421 34.0709L39.335 34.1239L39.264 34.1919L39.192 34.2599L39.156 34.3139L39.12 34.3679L39.088 34.4359L39.056 34.5039V32.5409L39.076 32.5899L39.096 32.6389L39.144 32.6879L39.192 32.7369L39.284 32.7759L39.376 32.8159H39.667L39.743 32.7939L39.821 32.7709L39.929 32.7229L40.037 32.6749L40.137 32.5909L40.237 32.5069L40.293 32.4359L40.349 32.3649L40.402 32.2649L40.455 32.1649L40.49 32.0459L40.525 31.9269L40.538 31.8129L40.551 31.6989L40.542 31.6899L40.533 31.6819L40.433 31.6679L40.333 31.6539L40.147 31.6609L39.96 31.6679L39.825 31.6979L39.691 31.7279L39.582 31.7769L39.473 31.8259L39.392 31.8829L39.311 31.9399L39.244 32.0119L39.177 32.0829L39.134 32.1549L39.092 32.2269L39.075 32.2749L39.057 32.3229V30.3139L39.085 30.3679L39.113 30.4219L39.164 30.4679L39.215 30.5139L39.284 30.5449L39.353 30.5759L39.487 30.5809L39.621 30.5859L39.721 30.5589L39.821 30.5329L39.911 30.4909L40.001 30.4489L40.076 30.3959L40.151 30.3429L40.206 30.2889L40.261 30.2349L40.326 30.1409L40.391 30.0469L40.434 29.9339L40.477 29.8219L40.498 29.7159L40.519 29.6099V29.4239L40.481 29.4179L40.443 29.4119L40.343 29.4049L40.243 29.3979L40.096 29.4109L39.949 29.4239L39.842 29.4479L39.736 29.4719L39.649 29.5059L39.561 29.5409L39.484 29.5849L39.407 29.6289L39.327 29.6979L39.247 29.7669L39.188 29.8449L39.129 29.9229L39.096 30.0049L39.063 30.0869V28.2099L39.102 28.2819L39.141 28.3539L39.194 28.3939L39.247 28.4339L39.31 28.4579L39.373 28.4809L39.459 28.4879L39.545 28.4949C39.6857 28.4754 39.8211 28.428 39.9433 28.3557C40.0655 28.2834 40.1721 28.1875 40.257 28.0736C40.3418 27.9597 40.4032 27.8301 40.4376 27.6923C40.4719 27.5545 40.4785 27.4113 40.457 27.2709H40.346C40.0989 27.2419 39.8487 27.2858 39.6261 27.397C39.4035 27.5082 39.2183 27.6819 39.093 27.8969L39.054 27.9969V26.1909L39.074 26.2409L39.094 26.2909C39.729 26.9149 40.594 25.9299 40.494 25.2789C40.2148 25.2523 39.9335 25.3019 39.6803 25.4226C39.4271 25.5432 39.2113 25.7303 39.056 25.9639C39.056 25.4646 39.056 24.9646 39.056 24.4639C39.775 24.1119 39.208 23.0959 38.956 22.8919L38.955 22.8939ZM24.92 22.9469C24.531 23.3079 24.22 24.2039 24.833 24.5129V26.0409C24.7107 25.7752 24.5005 25.5598 24.2377 25.4311C23.975 25.3025 23.6759 25.2685 23.391 25.3349C23.41 25.9429 23.791 26.6349 24.532 26.5089C24.6018 26.4929 24.6662 26.4589 24.7189 26.4103C24.7715 26.3617 24.8105 26.3002 24.832 26.2319V28.0499L24.814 27.9949L24.797 27.9399L24.761 27.8729L24.725 27.8059L24.684 27.7549L24.643 27.7029L24.578 27.6409L24.513 27.5789L24.4 27.5139L24.287 27.4489L24.18 27.4119L24.072 27.3749L23.952 27.3519L23.832 27.3279L23.632 27.3199L23.437 27.3129L23.425 27.3299L23.413 27.3469V27.4729V27.5989L23.43 27.6989L23.447 27.7989L23.481 27.8989L23.516 27.9989L23.569 28.0889L23.623 28.1789L23.685 28.2469L23.747 28.3149L23.839 28.3799L23.931 28.4459L24.031 28.4879L24.131 28.5299L24.231 28.5499L24.331 28.5699L24.424 28.5639L24.517 28.5579L24.606 28.5199L24.695 28.4819L24.739 28.4339L24.783 28.3859L24.808 28.3289L24.833 28.2729V30.1729L24.802 30.0949L24.771 30.0159L24.723 29.9469L24.675 29.8779L24.588 29.7959L24.511 29.6949L24.418 29.6409L24.325 29.5869L24.257 29.5619L24.189 29.5369L24.077 29.5089L23.965 29.4809L23.806 29.4679L23.646 29.4549L23.511 29.4669L23.376 29.4789L23.368 29.4859L23.36 29.4929L23.377 29.6399L23.394 29.7869L23.429 29.8989L23.463 30.0119L23.523 30.1199L23.582 30.2279L23.649 30.3039L23.716 30.3809L23.806 30.4449L23.896 30.5089L23.996 30.5559L24.096 30.6029L24.181 30.6219L24.266 30.6409H24.489L24.563 30.6169L24.637 30.5929L24.696 30.5489L24.755 30.5049L24.794 30.4319L24.833 30.3589V32.3919L24.801 32.3139L24.769 32.2359L24.733 32.1819L24.697 32.1289L24.631 32.0609L24.565 31.9929L24.478 31.9329L24.391 31.8729L24.278 31.8259L24.165 31.7789L24.041 31.7529L23.917 31.7259H23.461L23.394 31.7359L23.327 31.7459L23.336 31.8459L23.345 31.9459L23.365 32.0319L23.386 32.1179L23.414 32.1959L23.442 32.2739L23.495 32.3739L23.548 32.4739L23.625 32.5589L23.702 32.6449L23.802 32.7109L23.902 32.7769L24.002 32.8179L24.102 32.8589L24.202 32.8789L24.302 32.8989L24.413 32.8929L24.511 32.8709L24.567 32.8509L24.622 32.8309L24.672 32.8009L24.723 32.7709L24.76 32.7249L24.797 32.6789L24.816 32.6329L24.835 32.5879V34.5709L24.803 34.4959L24.771 34.4209L24.719 34.3529L24.667 34.2849L24.588 34.2179L24.511 34.1469L24.411 34.0919L24.311 34.0369L24.187 34.0009L24.063 33.9649L23.931 33.9509L23.8 33.9369L23.676 33.9449L23.551 33.9529L23.413 33.9769L23.275 34.0009L23.262 34.0119L23.249 34.0229L23.277 34.1399L23.305 34.2569L23.353 34.3659L23.4 34.4749L23.461 34.5699L23.522 34.6639L23.654 34.7779L23.785 34.8919L23.896 34.9409L24.006 34.9899L24.106 35.0159L24.206 35.0419H24.483L24.563 35.0159L24.643 34.9889L24.701 34.9509L24.76 34.9129L24.805 34.8379L24.85 34.7629V37.5279H25.029V34.7709L25.055 34.8209L25.081 34.8699L25.132 34.9189L25.183 34.9679L25.257 34.9989L25.331 35.0289L25.431 35.0419L25.531 35.0549L25.649 35.0369L25.767 35.0189L25.853 34.9889L25.939 34.9589L26.018 34.9189L26.097 34.8789L26.209 34.7789L26.321 34.6789L26.386 34.5789L26.45 34.4789L26.492 34.3929L26.534 34.3069L26.567 34.1959L26.6 34.0849L26.607 34.0399L26.614 33.9949L26.542 33.9779L26.47 33.9599L26.38 33.9449L26.29 33.9299H25.903L25.783 33.9559L25.663 33.9819L25.571 34.0179L25.473 34.0709L25.387 34.1239L25.3 34.1769L25.229 34.2449L25.157 34.3129L25.121 34.3669L25.085 34.4209L25.053 34.4889L25.021 34.5569V32.5959L25.041 32.6449L25.061 32.6939L25.109 32.7429L25.157 32.7919L25.249 32.8309L25.341 32.8709H25.632L25.708 32.8489L25.784 32.8269L25.891 32.7789L25.999 32.7309L26.099 32.6469L26.199 32.5629L26.255 32.4919L26.311 32.4209L26.364 32.3209L26.417 32.2209L26.452 32.1019L26.487 31.9829L26.511 31.8709L26.524 31.7569L26.511 31.7489L26.502 31.7399L26.402 31.7259L26.302 31.7119L26.115 31.7189L25.928 31.7259L25.793 31.7559L25.659 31.7859L25.55 31.8349L25.441 31.8839L25.36 31.9409L25.279 31.9979L25.211 32.0709L25.144 32.1419L25.101 32.2139L25.059 32.2859L25.042 32.3339L25.024 32.3819V30.3709L25.052 30.4249L25.08 30.4789L25.131 30.5249L25.182 30.5709L25.251 30.6019L25.32 30.6329H25.454L25.588 30.6379L25.688 30.6119L25.788 30.5859L25.878 30.5439L25.968 30.5019L26.043 30.4489L26.118 30.3959L26.173 30.3419L26.228 30.2879L26.293 30.1939L26.358 30.0999L26.401 29.9869L26.444 29.8749L26.465 29.7689L26.487 29.6629V29.4769L26.449 29.4709H26.411L26.311 29.4639L26.211 29.4569L26.064 29.4699L25.917 29.4829L25.81 29.5069L25.704 29.5309L25.617 29.5649L25.529 29.5989L25.452 29.6429L25.375 29.6869L25.295 29.7559L25.215 29.8249L25.156 29.9029L25.097 29.9809L25.064 30.0629L25.031 30.1449V28.2679L25.07 28.3399L25.109 28.4119L25.162 28.4519L25.215 28.4919L25.278 28.5159L25.341 28.5389L25.427 28.5459L25.513 28.5529C25.655 28.5345 25.7918 28.4878 25.9154 28.4156C26.039 28.3434 26.147 28.2473 26.2328 28.1327C26.3186 28.0182 26.3807 27.8876 26.4152 27.7487C26.4498 27.6098 26.4562 27.4653 26.434 27.3239H26.323C26.0759 27.295 25.8257 27.3388 25.6031 27.45C25.3805 27.5612 25.1953 27.7349 25.07 27.9499L25.031 28.0499V26.2559L25.051 26.3059L25.071 26.3559C25.706 26.9799 26.571 25.9949 26.471 25.3439C26.1918 25.3173 25.9105 25.3669 25.6573 25.4876C25.4041 25.6082 25.1883 25.7953 25.033 26.0289C25.033 25.5296 25.033 25.0296 25.033 24.5289C25.752 24.1769 25.185 23.1609 24.933 22.9569L24.92 22.9469ZM31.048 22.9929H32.734C33.477 24.2339 33.88 24.8929 34.689 26.1929C34.289 26.1929 33.825 26.1929 33.363 26.2009C33.281 26.0339 33.192 25.8509 33.1 25.6579H30.681L30.423 26.1989H29.09C29.762 25.0989 30.32 24.1869 31.048 22.9989V22.9929ZM31.892 23.5929C31.633 23.9859 31.326 24.4359 31.036 24.8759H32.745C32.502 24.4919 32.17 24.0479 31.892 23.5929ZM29.092 27.3789H30.406V29.8259H33.382V27.3789H34.692C34.692 28.2109 34.692 29.0442 34.692 29.8789C34.3428 30.2311 33.9068 30.485 33.428 30.6149H30.496C29.953 30.5419 29.4535 30.2782 29.087 29.8709L29.092 27.3789ZM29.253 32.0329H34.665V32.6859H30.505V33.3259H34.611V33.9379H30.511L30.498 35.2709H29.248C29.248 34.1936 29.248 33.1159 29.248 32.0379L29.253 32.0329ZM27.383 43.5789V47.6009H27.397C28.984 47.1769 29.997 46.8209 31.89 46.2359C33.809 46.8109 34.123 46.9259 36.38 47.6039H36.395V43.5849C33.442 43.5849 30.377 43.5849 27.382 43.5849L27.383 43.5789Z" fill="#FFC905"/>
<path d="M26.697 43.0459H23.497V42.3749H29.235L29.279 42.4359L29.323 42.4969L29.413 42.5969L29.503 42.6969L29.62 42.8049L29.737 42.9129L29.822 42.9799L29.907 43.0469L26.697 43.0459ZM37.327 43.0459H34.127L34.263 42.9359L34.399 42.8259L34.517 42.7039L34.635 42.5819L34.716 42.4819L34.797 42.3819H40.53V43.0529H37.33L37.327 43.0459ZM28.851 41.7009H26.173H23.495V41.0299H28.681L28.7 41.1479L28.719 41.2659L28.752 41.3939L28.785 41.5219L28.821 41.6219L28.857 41.7219L28.851 41.7009ZM37.851 41.6939H35.172L35.194 41.6469L35.216 41.5999L35.262 41.4329L35.308 41.2659L35.328 41.1409L35.348 41.0159H40.53V41.6869L37.851 41.6939ZM26.086 40.3489H23.494V39.6829H28.842V39.6949L28.788 39.8649L28.734 40.0349L28.707 40.1949L28.68 40.3549L26.086 40.3489ZM37.937 40.3489H35.344L35.333 40.2669L35.322 40.1829L35.303 40.0829L35.28 39.9829L35.241 39.8599L35.202 39.7369L35.189 39.7029L35.18 39.6829H40.53V40.3539L37.937 40.3489ZM26.354 39.0079H23.494V38.3369H29.879L29.655 38.5369L29.431 38.7369L29.323 38.8689L29.215 39.0009L26.354 39.0079ZM37.671 39.0079H34.811L34.711 38.8899L34.611 38.7719L34.468 38.6279L34.331 38.4829H34.317H34.303L34.22 38.4149L34.137 38.3469H40.53V39.0179L37.671 39.0079Z" fill="#55B5E5"/>
<path d="M32.129 36.8288C31.8455 36.8248 31.5622 36.8445 31.282 36.8878C31.229 36.8998 31.226 36.9028 31.253 36.9368C31.28 36.9708 31.575 37.2438 31.653 37.3068L31.72 37.3628C31.729 37.3698 31.739 37.3718 31.845 37.3818C32.035 37.3988 32.257 37.4158 32.761 37.4518C33.061 37.4728 33.261 37.4888 33.32 37.4948C33.3507 37.4966 33.3814 37.4966 33.412 37.4948C33.4606 37.4953 33.5085 37.4833 33.551 37.4598C33.629 37.4248 33.858 37.3098 33.87 37.2988C33.882 37.2878 33.87 37.2918 33.853 37.2808C33.786 37.2408 33.507 37.1198 33.335 37.0538C32.9481 36.9197 32.544 36.8419 32.135 36.8228L32.129 36.8288ZM31.729 37.5288L31.704 37.5478C31.675 37.5698 31.613 37.6238 31.391 37.8188C31.14 38.0398 31.038 38.1258 31.012 38.1408C31.0035 38.1457 30.9966 38.153 30.992 38.1618C30.9767 38.181 30.9596 38.1987 30.941 38.2148C30.9234 38.2294 30.9073 38.2459 30.893 38.2638C30.925 38.3561 30.9645 38.4458 31.011 38.5318C31.166 38.8648 31.271 39.0808 31.281 39.0888C31.5453 39.1354 31.8127 39.1618 32.081 39.1678C32.733 39.2198 32.981 39.2408 33.067 39.2498C33.107 39.2498 33.12 39.2498 33.173 39.2148C33.297 39.1348 33.724 38.8098 33.82 38.7218L33.857 38.6878L33.841 38.6458C33.789 38.5128 33.616 38.0968 33.503 37.8328C33.4818 37.7706 33.454 37.7109 33.42 37.6548C33.408 37.6548 32.833 37.6078 31.807 37.5338L31.729 37.5288ZM31.011 38.1498C31.021 38.1498 31.022 38.1498 31.022 38.1598C31.022 38.1698 31.022 38.1708 31.011 38.1708C31 38.1708 31 38.1708 31 38.1598C31 38.1488 31.006 38.1538 31.016 38.1538L31.011 38.1498ZM28.929 38.2658C28.85 38.3475 28.7803 38.4377 28.721 38.5348C28.5559 38.7793 28.4187 39.0416 28.312 39.3168C28.28 39.3988 28.254 39.4748 28.224 39.5738C28.209 39.6228 28.193 39.6738 28.189 39.6868C28.185 39.6965 28.1817 39.7065 28.179 39.7168C28.179 39.7288 28.213 39.7498 28.316 39.7988C28.3925 39.8364 28.4709 39.8697 28.551 39.8988L28.583 39.9078C28.603 39.9078 28.628 39.8708 28.706 39.7288C28.817 39.5288 29.114 38.9598 29.179 38.8288L29.196 38.7938L29.188 38.7748C29.165 38.7188 29.01 38.4018 28.958 38.3058C28.937 38.2668 28.936 38.2648 28.927 38.2698L28.929 38.2658ZM30.746 38.3658L30.664 38.3918C30.519 38.4368 30.301 38.5128 29.626 38.7558L29.344 38.8558C29.344 38.8558 28.981 39.5468 28.925 39.6558C28.851 39.7978 28.759 39.9798 28.744 40.0118L28.735 40.0318L28.765 40.0828C28.843 40.2128 29.065 40.5628 29.173 40.7388L29.237 40.8388H29.251L29.412 40.7988C29.689 40.7288 29.678 40.7318 29.68 40.7218C29.682 40.7118 29.7 40.7098 29.703 40.7218C29.706 40.7338 29.703 40.7288 29.967 40.6588C30.0627 40.6438 30.1557 40.6148 30.243 40.5728C30.2645 40.5461 30.2842 40.518 30.302 40.4888C30.492 40.1998 30.75 39.8008 30.922 39.5318C31.094 39.2628 31.106 39.2438 31.122 39.2048L31.14 39.1718L31.105 39.0998C31.0735 39.0415 31.0481 38.9802 31.029 38.9168C31.0289 38.9093 31.0261 38.9022 31.021 38.8968C31.011 38.8868 30.941 38.7498 30.885 38.6328C30.829 38.5158 30.76 38.3838 30.748 38.3708L30.746 38.3658ZM33.968 38.8408C33.958 38.8408 33.813 38.9408 33.537 39.1488L33.299 39.3248L33.256 39.3558V39.4048C33.256 39.4318 33.256 39.4958 33.264 39.5468C33.276 39.6728 33.404 40.8208 33.414 40.8908C33.422 40.9418 33.425 40.9458 33.508 40.9988C33.591 41.0518 34.059 41.3268 34.292 41.4568L34.375 41.5018C34.385 41.5018 34.599 41.3188 35.026 40.9438C35.192 40.7988 35.2 40.7908 35.198 40.7788C35.196 40.7668 35.198 40.7668 35.207 40.7668C35.216 40.7668 35.218 40.7668 35.218 40.7668C35.2325 40.7585 35.2457 40.748 35.257 40.7358L35.357 40.6458L35.417 40.5918L35.385 40.3738C35.342 40.0838 35.32 39.9408 35.306 39.8738C35.306 39.8528 35.3 39.8528 35.231 39.7968C34.946 39.5698 33.98 38.8308 33.968 38.8308V38.8408ZM31.017 38.9038C31.026 38.9038 31.027 38.9038 31.027 38.9138C31.027 38.9238 31.027 38.9238 31.017 38.9238C31.007 38.9238 31.007 38.9238 31.007 38.9138C31.007 38.9038 31.009 38.9008 31.016 38.9008L31.017 38.9038ZM35.729 39.5168C35.6493 39.6091 35.5748 39.706 35.506 39.8068C35.476 39.8628 35.477 39.9008 35.506 40.1288C35.516 40.1998 35.537 40.3358 35.551 40.4288L35.576 40.6048L35.681 40.7508C35.739 40.8318 35.806 40.9228 35.83 40.9508C35.8432 40.9708 35.859 40.9889 35.877 41.0048C35.8879 40.9442 35.8953 40.8831 35.899 40.8218C35.906 40.7428 35.899 40.4698 35.892 40.3558C35.881 40.1819 35.8572 40.0091 35.821 39.8388C35.8002 39.726 35.7666 39.616 35.721 39.5108L35.729 39.5168ZM30.251 40.7458C30.243 40.7458 30.134 40.7708 30.011 40.8018L29.28 40.9898C29.2715 41.0561 29.2665 41.1229 29.265 41.1898L29.258 41.2898L29.269 41.3168L29.281 41.3438L29.269 41.3558L29.257 41.3668V41.5088C29.25 41.7558 29.236 42.1698 29.23 42.2718L29.224 42.3718L29.271 42.4188C29.346 42.4948 29.421 42.5718 29.617 42.7788C29.7548 42.9357 29.902 43.084 30.058 43.2228C30.071 43.2298 30.072 43.2298 30.102 43.2228C30.168 43.2058 30.402 43.1328 30.688 43.0438C30.974 42.9548 30.988 42.9498 30.988 42.9438C30.988 42.9378 31.008 42.9268 31.008 42.9378C31.008 42.9488 31.008 42.9438 31.016 42.9428L31.28 42.8608L31.536 42.7798L31.588 42.4878C31.631 42.2981 31.6604 42.1056 31.676 41.9118C31.676 41.9118 31.227 41.5338 30.811 41.1898C30.584 41.0018 30.35 40.8148 30.29 40.7718C30.2789 40.763 30.2664 40.7563 30.253 40.7518L30.251 40.7458ZM33.337 41.0958L33.311 41.1088C33.239 41.1458 32.97 41.2948 32.579 41.5138C32.346 41.6448 32.203 41.7238 32.172 41.7388C32.157 41.7458 32.148 41.7518 32.152 41.7518C32.156 41.7518 32.16 41.7518 32.16 41.7638C32.16 41.7758 32.16 41.7758 32.15 41.7758C32.14 41.7758 32.139 41.7758 32.138 41.7678C32.137 41.7598 32.132 41.7628 32.099 41.7828L31.957 41.8658L31.848 41.9298C31.842 41.9298 31.799 42.1748 31.743 42.5028C31.698 42.7638 31.697 42.7738 31.704 42.7828C31.929 42.9729 32.1673 43.1466 32.417 43.3028L32.809 43.5788C32.839 43.6008 32.85 43.6058 32.851 43.6008C32.852 43.5958 32.851 43.5948 32.861 43.5958C32.871 43.5968 32.87 43.5958 32.87 43.6088C32.8684 43.6143 32.8684 43.6202 32.87 43.6258C32.8981 43.6479 32.9283 43.6673 32.96 43.6838C32.9697 43.6888 32.9802 43.6921 32.991 43.6938C33.075 43.6556 33.1556 43.6104 33.232 43.5588C33.443 43.4318 34 43.0838 34.08 43.0298C34.099 43.0168 34.102 43.0128 34.104 42.9978C34.106 42.9828 34.142 42.7348 34.185 42.4338C34.291 41.6908 34.295 41.6568 34.276 41.6338C34.257 41.6108 33.583 41.2148 33.387 41.1188L33.337 41.0958ZM29.119 42.4818C29.119 42.4818 29.061 42.4818 28.994 42.4868C28.8687 42.4883 28.7436 42.4997 28.62 42.5208C28.607 42.5208 28.606 42.5278 28.608 42.5388C28.7209 42.7329 28.8521 42.9158 29 43.0848C29.1959 43.3018 29.4126 43.4991 29.647 43.6738C29.702 43.7138 29.826 43.7998 29.869 43.8278C29.8772 43.8333 29.8859 43.838 29.895 43.8418C29.9084 43.8173 29.9169 43.7905 29.92 43.7628C29.927 43.7188 29.937 43.5998 29.944 43.4748C29.95 43.3748 29.95 43.3538 29.944 43.3488C29.885 43.2848 29.244 42.6108 29.171 42.5348L29.12 42.4828L29.119 42.4818ZM34.191 43.1468L33.63 43.4978L33.069 43.8488L32.962 44.0488C32.862 44.2338 32.825 44.3098 32.825 44.3168C32.825 44.3238 32.825 44.3168 32.835 44.3228C33.0526 44.2944 33.2648 44.2344 33.465 44.1448C33.606 44.0878 33.617 44.0838 33.618 44.0728C33.619 44.0618 33.634 44.0578 33.639 44.0658C33.7611 44.0183 33.8789 43.9604 33.991 43.8928C34.1515 43.8019 34.3046 43.6985 34.449 43.5838C34.589 43.4678 34.894 43.1918 34.894 43.1838C34.894 43.1758 34.747 43.1488 34.408 43.1488L34.191 43.1468Z" fill="white"/>
<path d="M31.721 44.5809C31.1933 44.55 30.6765 44.4175 30.199 44.1909C29.8285 44.0209 29.4889 43.7904 29.194 43.5089C28.9415 43.2811 28.7187 43.0224 28.531 42.7389C28.4406 42.6074 28.3626 42.4678 28.298 42.3219C28.2974 42.3067 28.2909 42.2924 28.28 42.2819C28.2131 42.164 28.1607 42.0384 28.124 41.9079C27.9559 41.4224 27.8833 40.909 27.91 40.3959C27.9297 40.1741 27.9631 39.9536 28.01 39.7359C28.1764 39.0654 28.5156 38.4503 28.994 37.9519C29.6478 37.2692 30.517 36.8327 31.455 36.7159C31.821 36.683 32.1894 36.685 32.555 36.7219C33.2509 36.8208 33.9111 37.0916 34.476 37.5099C34.7058 37.6912 34.9196 37.8919 35.115 38.1099C35.603 38.6762 35.9191 39.3701 36.026 40.1099C36.0472 40.284 36.0549 40.4596 36.049 40.6349C36.0574 40.8244 36.0473 41.0143 36.019 41.2019C35.9631 41.5572 35.8623 41.904 35.719 42.2339C35.3826 42.9543 34.8432 43.5608 34.167 43.9789C34.0477 44.0598 33.9195 44.1269 33.785 44.1789C33.785 44.1789 33.77 44.1789 33.761 44.1919C33.5841 44.2831 33.3985 44.3565 33.207 44.4109C32.8823 44.5109 32.5464 44.5697 32.207 44.5859C32.0423 44.6 31.8767 44.6 31.712 44.5859L31.721 44.5809ZM33.058 44.2809C33.546 44.1457 34.0042 43.9201 34.409 43.6159C34.52 43.5299 34.895 43.1929 34.895 43.1789C34.895 43.1649 34.752 43.1429 34.483 43.1429H34.189L33.628 43.4939L33.067 43.8449L32.944 44.0729C32.877 44.1989 32.821 44.3069 32.821 44.3129C32.821 44.3359 32.902 44.3249 33.057 44.2819L33.058 44.2809ZM29.918 43.7719C29.9302 43.6904 29.9379 43.6083 29.941 43.5259L29.95 43.3489L29.603 42.9819C29.412 42.7819 29.224 42.5819 29.186 42.5439L29.116 42.4729L28.861 42.4899C28.652 42.5039 28.606 42.5099 28.602 42.5249C28.7068 42.7149 28.8318 42.8929 28.975 43.0559C29.1891 43.2982 29.4296 43.5159 29.692 43.7049C29.798 43.7799 29.892 43.8409 29.892 43.8409C29.892 43.8409 29.908 43.8099 29.916 43.7719H29.918ZM33.561 43.3579C33.861 43.1719 34.105 43.0159 34.105 43.0119C34.105 43.0079 34.149 42.6999 34.205 42.3279C34.299 41.6779 34.305 41.6509 34.28 41.6279C34.235 41.5819 33.364 41.0849 33.337 41.0899C33.31 41.0949 33.059 41.2369 32.752 41.4109C32.445 41.5849 32.182 41.7309 32.169 41.7349C32.1576 41.7384 32.1471 41.7442 32.138 41.7519C32.138 41.7519 32.067 41.7969 31.989 41.8419L31.844 41.9249C31.838 41.9249 31.697 42.7459 31.697 42.7709C31.697 42.7959 31.797 42.8709 32.264 43.1949C32.576 43.4129 32.84 43.5949 32.85 43.6069C32.8928 43.645 32.9423 43.6749 32.996 43.6949C33.009 43.6949 33.264 43.5439 33.563 43.3579H33.561ZM30.614 43.0579L31.332 42.8309L31.532 42.7679L31.599 42.3949C31.636 42.1899 31.668 41.9949 31.67 41.9589V41.8959L30.97 41.3159C30.546 40.9639 30.261 40.7359 30.246 40.7359C30.231 40.7359 30.006 40.7909 29.746 40.8579L29.27 40.9799L29.259 41.1319C29.253 41.2159 29.249 41.3059 29.249 41.3319C29.249 41.4159 29.229 42.0859 29.221 42.2319L29.213 42.3669L29.301 42.4549C29.349 42.5039 29.534 42.6969 29.711 42.8839C29.8142 43.0106 29.932 43.1248 30.062 43.2239C30.078 43.2239 30.323 43.1499 30.608 43.0599L30.614 43.0579ZM34.785 41.1439L35.301 40.6909L35.415 40.5909L35.361 40.2259C35.332 40.0259 35.303 39.8579 35.299 39.8539C35.209 39.7759 33.978 38.8299 33.966 38.8299C33.954 38.8299 33.792 38.9469 33.599 39.0899L33.249 39.3499V39.4189C33.249 39.4569 33.263 39.6129 33.281 39.7659C33.299 39.9189 33.334 40.2309 33.359 40.4599C33.384 40.6889 33.408 40.8929 33.412 40.9129C33.416 40.9329 33.463 40.9749 33.888 41.2229C34.146 41.3729 34.363 41.4959 34.37 41.4969C34.377 41.4979 34.564 41.3399 34.785 41.1469V41.1439ZM35.898 40.8269C35.9118 40.5152 35.8907 40.2029 35.835 39.8959C35.8141 39.7612 35.7768 39.6296 35.724 39.5039C35.6757 39.5556 35.6313 39.6107 35.591 39.6689C35.447 39.8609 35.455 39.7829 35.527 40.2769L35.574 40.5969L35.723 40.8049C35.7704 40.8748 35.8222 40.9416 35.878 41.0049C35.8884 40.9453 35.8954 40.8852 35.899 40.8249L35.898 40.8269ZM29.498 40.7659C29.748 40.7148 29.9945 40.648 30.236 40.5659C30.257 40.5459 31.078 39.2749 31.113 39.2089L31.139 39.1589L31.08 39.0369C31.0583 38.9989 31.0419 38.9582 31.031 38.9159C31.031 38.9159 31.031 38.9049 31.023 38.8999C30.972 38.8137 30.9263 38.7246 30.886 38.6329C30.8459 38.5406 30.7991 38.4513 30.746 38.3659C30.735 38.3599 30.47 38.4489 30.033 38.6059L29.338 38.8549L29.031 39.4359C28.862 39.7569 28.731 40.0239 28.731 40.0289C28.745 40.0619 29.231 40.8389 29.231 40.8389C29.231 40.8389 29.355 40.8089 29.497 40.7729L29.498 40.7659ZM28.898 39.3469C29.057 39.0469 29.188 38.7909 29.188 38.7829C29.188 38.7749 28.946 38.2729 28.929 38.2569C28.912 38.2409 28.863 38.3079 28.717 38.5169C28.5003 38.8343 28.3318 39.1821 28.217 39.5489C28.196 39.6199 28.174 39.6879 28.169 39.6989C28.164 39.7099 28.196 39.7359 28.353 39.8099C28.4239 39.8473 28.4987 39.8768 28.576 39.8979C28.603 39.8979 28.641 39.8299 28.896 39.3459L28.898 39.3469ZM33.49 38.9769C33.6193 38.8878 33.7405 38.7874 33.852 38.6769C33.852 38.6599 33.433 37.6559 33.421 37.6449C33.409 37.6339 33.037 37.6139 32.571 37.5809L31.731 37.5309L31.69 37.5629C31.668 37.5799 31.51 37.7179 31.34 37.8629C31.17 38.0079 31.023 38.1379 31.013 38.1399C31.0086 38.1405 31.0045 38.1424 31.0012 38.1455C30.998 38.1485 30.9958 38.1525 30.995 38.1569C30.9818 38.1785 30.9641 38.1969 30.943 38.2109C30.922 38.225 30.9043 38.2434 30.891 38.2649C30.891 38.2809 31.265 39.0739 31.279 39.0869C31.568 39.1383 31.8605 39.1671 32.154 39.1729L32.954 39.2379L33.094 39.2499C33.123 39.2499 33.201 39.1979 33.494 38.9779L33.49 38.9769ZM33.666 37.4029C33.775 37.3499 33.866 37.3029 33.866 37.2969C33.6614 37.1848 33.4472 37.0911 33.226 37.0169C32.9378 36.9263 32.6408 36.8663 32.34 36.8379C32.1671 36.8178 31.9926 36.8141 31.819 36.8269C31.62 36.8278 31.4217 36.8513 31.228 36.8969C31.217 36.9079 31.254 36.9499 31.381 37.0679C31.473 37.1549 31.587 37.2579 31.635 37.2969L31.731 37.3739L31.931 37.3919C32.041 37.4019 32.37 37.4269 32.662 37.4469C32.954 37.4669 33.237 37.4879 33.29 37.4939C33.468 37.5129 33.46 37.5139 33.673 37.4099L33.666 37.4029Z" fill="black"/>
<path d="M29.118 26.1588L29.685 25.2308L30.638 23.6718L31.05 22.9978H32.733L32.833 23.1648C33.452 24.1978 33.841 24.8358 34.453 25.8188C34.5365 25.9351 34.6095 26.0586 34.671 26.1878C34.671 26.1878 34.371 26.1878 34.012 26.1938H33.362L33.256 25.9748L33.125 25.7038L33.099 25.6538H30.68L30.551 25.9258L30.422 26.1978H29.092L29.118 26.1588ZM32.743 24.8778C32.743 24.8688 32.594 24.6438 32.389 24.3458C32.145 23.9898 32.02 23.8018 31.931 23.6568C31.9192 23.6361 31.9062 23.616 31.892 23.5968C31.892 23.5968 31.853 23.6518 31.808 23.7198L31.515 24.1578C31.249 24.5578 31.036 24.8748 31.036 24.8788C31.036 24.8828 31.42 24.8788 31.889 24.8788C32.358 24.8788 32.742 24.8788 32.742 24.8788L32.743 24.8778Z" fill="#D8000F"/>
<path d="M30.386 30.5998C29.9253 30.5135 29.5024 30.2872 29.175 29.9518L29.087 29.8668V27.3838H30.397V28.6058V29.8278H33.377V28.6058V27.3838H34.677V29.8838L34.656 29.9008L34.565 29.9798C34.2563 30.2706 33.8826 30.4835 33.475 30.6008L33.412 30.6158H30.46L30.388 30.6038L30.386 30.5998Z" fill="#D8000F"/>
<path d="M29.25 33.6497V32.0327H34.66V32.6827H30.502V33.3277H34.602V33.9367H30.502V34.3207C30.502 34.5317 30.502 34.8317 30.502 34.9857V35.2657H29.25V33.6497Z" fill="#D8000F"/>
<mask id="mask0_40_26331" style="mask-type:luminance" maskUnits="userSpaceOnUse" x="17" y="9" width="30" height="36">
<path d="M17.721 9.73682H46.34V44.6368H17.721V9.73682Z" fill="white"/>
</mask>
<g mask="url(#mask0_40_26331)">
<mask id="mask1_40_26331" style="mask-type:luminance" maskUnits="userSpaceOnUse" x="18" y="9" width="28" height="7">
<path d="M18.286 9.73682H45.87V15.1528H18.286V9.73682Z" fill="white"/>
</mask>
<g mask="url(#mask1_40_26331)">
<path d="M45.818 11.8198L44.082 13.0728L44.746 15.1008L43.021 13.8358L41.294 15.0798L41.967 13.0598L40.24 11.8128L42.373 11.8258L43.029 9.78784L43.685 11.8238L45.818 11.8198Z" fill="#FFC905"/>
<path d="M43.029 9.75684C43.0357 9.75692 43.0421 9.75908 43.0475 9.76303C43.0529 9.76697 43.0569 9.7725 43.059 9.77884L43.708 11.7928H45.819C45.8255 11.793 45.8319 11.7952 45.8371 11.7991C45.8424 11.8031 45.8463 11.8085 45.8484 11.8147C45.8505 11.8209 45.8506 11.8276 45.8487 11.8339C45.8469 11.8402 45.8431 11.8457 45.838 11.8498L44.119 13.0828L44.776 15.0888C44.7778 15.0952 44.7776 15.1019 44.7754 15.1081C44.7732 15.1143 44.7691 15.1197 44.7638 15.1236C44.7584 15.1274 44.752 15.1295 44.7454 15.1295C44.7388 15.1296 44.7324 15.1276 44.727 15.1238L43.021 13.8748L41.312 15.1058C41.3065 15.1094 41.3001 15.1111 41.2935 15.1109C41.287 15.1107 41.2807 15.1084 41.2755 15.1045C41.2702 15.1006 41.2663 15.0952 41.2643 15.089C41.2622 15.0828 41.2621 15.0761 41.264 15.0698L41.93 13.0698L40.222 11.8388C40.2164 11.8349 40.2122 11.8293 40.2101 11.8228C40.2079 11.8163 40.2079 11.8093 40.21 11.8028C40.2124 11.7969 40.2166 11.7918 40.2219 11.7882C40.2273 11.7846 40.2336 11.7828 40.24 11.7828L42.35 11.7958L42.999 9.78284C43.0003 9.77576 43.004 9.76934 43.0095 9.76462C43.0149 9.7599 43.0218 9.75716 43.029 9.75684ZM43.685 11.8568C43.6783 11.8568 43.6718 11.8546 43.6665 11.8506C43.6611 11.8467 43.6571 11.8412 43.655 11.8348L43.029 9.89084L42.403 11.8358C42.401 11.8423 42.3971 11.8479 42.3917 11.8518C42.3862 11.8558 42.3797 11.8579 42.373 11.8578L40.335 11.8448L41.985 13.0348C41.9904 13.0389 41.9944 13.0446 41.9963 13.051C41.9983 13.0575 41.9982 13.0644 41.996 13.0708L41.354 14.9978L43.002 13.8098C43.0074 13.806 43.0139 13.8039 43.0205 13.8039C43.0271 13.8039 43.0336 13.806 43.039 13.8098L44.686 15.0168L44.052 13.0828C44.0501 13.0765 44.0503 13.0697 44.0524 13.0634C44.0546 13.0572 44.0586 13.0517 44.064 13.0478L45.721 11.8478H43.685V11.8568Z" fill="#FFC905"/>
<path d="M37.567 15.0927L35.85 13.8387L34.131 15.0927L34.786 13.0707L33.067 11.8157H35.202L35.856 9.79272L36.505 11.8167L38.641 11.8277L36.908 13.0697L37.567 15.0927Z" fill="#FFC905"/>
<path d="M37.569 15.1239C37.5622 15.124 37.5555 15.1219 37.55 15.1179L35.85 13.8779L34.149 15.1179C34.1436 15.1216 34.1372 15.1236 34.1306 15.1235C34.124 15.1235 34.1176 15.1214 34.1122 15.1176C34.1069 15.1138 34.1028 15.1084 34.1006 15.1022C34.0984 15.0959 34.0982 15.0892 34.1 15.0829L34.748 13.0829L33.048 11.8429C33.0428 11.8389 33.039 11.8334 33.037 11.8271C33.035 11.8208 33.035 11.8141 33.037 11.8079C33.0394 11.8019 33.0436 11.7968 33.0489 11.7932C33.0543 11.7897 33.0606 11.7878 33.067 11.7879H35.179L35.827 9.78787C35.8291 9.78153 35.8331 9.77601 35.8385 9.77206C35.8439 9.76812 35.8503 9.76595 35.857 9.76587C35.8637 9.76595 35.8702 9.76812 35.8755 9.77206C35.8809 9.77601 35.8849 9.78153 35.887 9.78787L36.529 11.7879L38.642 11.7989C38.6485 11.7993 38.6547 11.8016 38.6598 11.8056C38.6649 11.8096 38.6687 11.815 38.6706 11.8212C38.6726 11.8274 38.6726 11.834 38.6707 11.8402C38.6688 11.8464 38.6651 11.8518 38.66 11.8559L36.945 13.0819L37.599 15.0819C37.6004 15.0866 37.6007 15.0916 37.5998 15.0964C37.599 15.1012 37.597 15.1058 37.5941 15.1098C37.5912 15.1137 37.5875 15.117 37.5831 15.1193C37.5787 15.1215 37.5739 15.1238 37.569 15.1239ZM35.85 13.8079C35.8568 13.8077 35.8635 13.8098 35.869 13.8139L37.509 15.0139L36.878 13.0839C36.8761 13.0775 36.8763 13.0707 36.8784 13.0645C36.8806 13.0582 36.8846 13.0527 36.89 13.0489L38.543 11.8589L36.505 11.8489C36.4983 11.8488 36.4919 11.8466 36.4865 11.8427C36.4811 11.8387 36.4771 11.8332 36.475 11.8269L35.856 9.89587L35.232 11.8249C35.2299 11.8312 35.2259 11.8367 35.2205 11.8407C35.2152 11.8446 35.2087 11.8468 35.202 11.8469H33.162L34.802 13.0469C34.8072 13.0509 34.8111 13.0564 34.813 13.0626C34.815 13.0689 34.815 13.0756 34.813 13.0819L34.188 15.0119L35.829 13.8119C35.8353 13.8081 35.8428 13.8067 35.85 13.8079Z" fill="#FFC905"/>
<path d="M28.282 13.8387L26.561 15.0927L27.226 13.0707L25.495 11.8227L27.631 11.8157L28.283 9.79272L28.934 11.8157H31.069L29.348 13.0717L30.011 15.0927L28.282 13.8387Z" fill="#FFC905"/>
<path d="M30.012 15.1279C30.0042 15.1287 29.9963 15.1266 29.99 15.1219L28.282 13.8779L26.58 15.1149C26.5746 15.1186 26.5681 15.1206 26.5615 15.1205C26.555 15.1205 26.5485 15.1184 26.5432 15.1146C26.5378 15.1108 26.5338 15.1054 26.5316 15.0992C26.5294 15.0929 26.5292 15.0862 26.531 15.0799L27.188 13.0799L25.477 11.8489C25.4716 11.845 25.4676 11.8395 25.4654 11.8333C25.4633 11.827 25.4631 11.8202 25.465 11.8139C25.4661 11.8075 25.469 11.8016 25.4735 11.797C25.4779 11.7924 25.4837 11.7892 25.49 11.7879H27.608L28.253 9.78787C28.2551 9.78153 28.2591 9.77601 28.2645 9.77206C28.2698 9.76812 28.2763 9.76595 28.283 9.76587C28.2897 9.76595 28.2961 9.76812 28.3015 9.77206C28.3069 9.77601 28.3109 9.78153 28.313 9.78787L28.957 11.7879H31.069C31.0755 11.7883 31.0816 11.7906 31.0868 11.7946C31.0919 11.7986 31.0956 11.804 31.0976 11.8102C31.0995 11.8164 31.0996 11.823 31.0977 11.8292C31.0958 11.8354 31.0921 11.8408 31.087 11.8449L29.39 13.0879L30.046 15.0879C30.0474 15.0926 30.0476 15.0976 30.0468 15.1024C30.046 15.1072 30.044 15.1118 30.0411 15.1158C30.0382 15.1197 30.0344 15.123 30.0301 15.1253C30.0257 15.1275 30.0209 15.1288 30.016 15.1289L30.012 15.1279ZM28.282 13.8079C28.2888 13.8077 28.2955 13.8098 28.301 13.8139L29.952 15.0139L29.318 13.0819C29.316 13.0756 29.316 13.0689 29.318 13.0626C29.3199 13.0564 29.3238 13.0509 29.329 13.0469L30.972 11.8519H28.934C28.9273 11.8518 28.9208 11.8496 28.9155 11.8457C28.9101 11.8417 28.9061 11.8362 28.904 11.8299L28.283 9.89587L27.661 11.8259C27.6589 11.8322 27.6549 11.8377 27.6495 11.8417C27.6441 11.8456 27.6377 11.8478 27.631 11.8479L25.59 11.8549L27.244 13.0429C27.2494 13.0467 27.2534 13.0522 27.2556 13.0585C27.2577 13.0647 27.2579 13.0715 27.256 13.0779L26.622 15.0069L28.263 13.8139C28.2685 13.8099 28.2752 13.8078 28.282 13.8079Z" fill="#FFC905"/>
<path d="M19.391 15.0758L20.061 13.0598L18.337 11.7898L20.472 11.8028L21.142 9.78979L21.778 11.8228H23.907L22.179 13.0678L22.826 15.0948L21.119 13.8328L19.391 15.0758Z" fill="#FFC905"/>
<path d="M22.826 15.1269C22.8192 15.1271 22.8125 15.125 22.807 15.1209L21.118 13.8719L19.409 15.1019C19.4035 15.1055 19.3971 15.1072 19.3905 15.107C19.384 15.1068 19.3777 15.1046 19.3725 15.1006C19.3672 15.0967 19.3633 15.0913 19.3613 15.0851C19.3592 15.0789 19.3591 15.0722 19.361 15.0659L20.024 13.0719L18.318 11.8179C18.3132 11.8141 18.3096 11.8089 18.3076 11.8031C18.3057 11.7972 18.3054 11.7909 18.307 11.7849C18.3091 11.7786 18.3131 11.7731 18.3185 11.7691C18.3238 11.7652 18.3303 11.763 18.337 11.7629L20.449 11.7759L21.112 9.78494C21.1141 9.7786 21.1181 9.77308 21.1235 9.76913C21.1288 9.76519 21.1353 9.76302 21.142 9.76294C21.1487 9.76302 21.1551 9.76519 21.1605 9.76913C21.1659 9.77308 21.1699 9.7786 21.172 9.78494L21.801 11.7959H23.907C23.9135 11.7963 23.9197 11.7987 23.9248 11.8026C23.9299 11.8066 23.9336 11.8121 23.9356 11.8182C23.9375 11.8244 23.9376 11.831 23.9357 11.8372C23.9338 11.8434 23.9301 11.8489 23.925 11.8529L22.216 13.0849L22.856 15.0849C22.8574 15.0897 22.8576 15.0946 22.8568 15.0995C22.856 15.1043 22.854 15.1089 22.8511 15.1128C22.8482 15.1168 22.8444 15.1201 22.8401 15.1223C22.8357 15.1246 22.8309 15.1268 22.826 15.1269ZM21.119 13.8009C21.1258 13.8008 21.1325 13.8029 21.138 13.8069L22.767 15.0069L22.149 13.0779C22.1471 13.0716 22.1473 13.0648 22.1494 13.0585C22.1516 13.0523 22.1556 13.0468 22.161 13.0429L23.81 11.8569H21.778C21.7713 11.8569 21.7648 11.8547 21.7595 11.8507C21.7541 11.8468 21.7501 11.8413 21.748 11.8349L21.141 9.89294L20.502 11.8159C20.5 11.8224 20.4961 11.828 20.4907 11.8319C20.4852 11.8359 20.4787 11.838 20.472 11.8379L18.432 11.8249L20.079 13.0349C20.0842 13.0389 20.088 13.0444 20.09 13.0507C20.092 13.057 20.092 13.0637 20.09 13.0699L19.451 14.9939L21.1 13.8069C21.1055 13.8029 21.1122 13.8008 21.119 13.8009Z" fill="#FFC905"/>
</g>
</g>
</g>
<defs>
<clipPath id="clip0_40_26331">
<rect width="64" height="64" fill="white"/>
</clipPath>
</defs>
</svg>
