<svg width="64" height="64" viewBox="0 0 64 64" fill="none" xmlns="http://www.w3.org/2000/svg">
<g clip-path="url(#clip0_40_26363)">
<path d="M51.75 10.9509H12.208V46.9139H51.75V10.9509Z" fill="white"/>
<path fill-rule="evenodd" clip-rule="evenodd" d="M64 32C64 38.329 62.1232 44.5159 58.607 49.7782C55.0908 55.0406 50.0931 59.1421 44.2459 61.5641C38.3986 63.9861 31.9645 64.6199 25.7571 63.3851C19.5497 62.1504 13.8479 59.1027 9.3726 54.6274C4.89732 50.1521 1.84961 44.4503 0.614885 38.2429C-0.619842 32.0355 0.013865 25.6014 2.43587 19.7541C4.85787 13.9069 8.95939 8.90918 14.2218 5.39297C19.4841 1.87677 25.671 0 32 0C40.4869 0 48.6263 3.37142 54.6274 9.37258C60.6286 15.3737 64 23.5131 64 32ZM22.932 44.734H16.722C15.9322 44.8387 15.1287 44.7527 14.379 44.483C14.1713 44.3479 13.9984 44.1658 13.8742 43.9514C13.7499 43.737 13.6779 43.4964 13.664 43.249C13.64 42.785 13.964 42.219 14.607 41.087L29.941 14.058C30.593 12.91 30.924 12.336 31.341 12.124C31.5628 12.0116 31.8079 11.953 32.0565 11.953C32.3051 11.953 32.5503 12.0116 32.772 12.124C33.189 12.336 33.519 12.91 34.172 14.058L37.324 19.558L37.34 19.586C37.8577 20.365 38.2671 21.2107 38.557 22.1C38.7299 22.8181 38.7299 23.5669 38.557 24.285C38.2659 25.1832 37.8535 26.0375 37.331 26.824L29.276 41.063L29.255 41.099C28.8436 41.9494 28.3163 42.7386 27.688 43.444C27.1488 43.9605 26.4939 44.3407 25.778 44.553C24.8409 44.734 23.8845 44.7948 22.932 44.734ZM38.615 44.734H47.515C48.3133 44.8415 49.1258 44.7526 49.882 44.475C50.091 44.3394 50.2649 44.1561 50.3892 43.9402C50.5135 43.7242 50.5847 43.4819 50.597 43.233C50.62 42.784 50.304 42.24 49.686 41.174L49.622 41.063L45.165 33.438L45.114 33.352C44.488 32.293 44.171 31.758 43.765 31.552C43.5447 31.4395 43.3009 31.3809 43.0535 31.3809C42.8062 31.3809 42.5623 31.4395 42.342 31.552C41.933 31.764 41.603 32.322 40.951 33.447L36.509 41.072L36.494 41.098C35.844 42.22 35.519 42.781 35.542 43.241C35.5558 43.4895 35.6277 43.7313 35.7519 43.947C35.876 44.1627 36.049 44.3463 36.257 44.483C37.0118 44.7535 37.8202 44.8395 38.615 44.734Z" fill="#E84142"/>
</g>
<defs>
<clipPath id="clip0_40_26363">
<rect width="64" height="64" fill="white"/>
</clipPath>
</defs>
</svg>
