<svg xmlns="http://www.w3.org/2000/svg" width="64" height="64" viewBox="0 0 64 64"><path d="M32,0A32,32,0,1,1,0,32,32,32,0,0,1,32,0Z" fill="#fff" fill-rule="evenodd"/><path d="M236.528,529.288c-10.234,0-18.528-2.957-18.528-6.918,0-2.067,2.259-3.93,5.875-5.242,2.822,1.811,7.558,2.739,12.928,2.739,5.242,0,9.875-1.133,12.723-2.867,3.411,1.3,5.53,3.11,5.53,5.107C255.056,526.075,246.762,529.288,236.528,529.288Z" transform="translate(-204.048 -483.912)"/><path d="M303.748,407.781c-7.757,0-14.048-2.432-14.048-5.434,0-1.664,1.939-3.155,4.979-4.147a23.084,23.084,0,0,0,18.138,0c3.046,1,4.979,2.483,4.979,4.147C317.8,405.349,311.511,407.781,303.748,407.781Z" transform="translate(-271.159 -372.715)"/><path d="M349.561,282.06c-6,0-10.861-2.01-10.861-4.48s4.864-4.48,10.861-4.48,10.861,2.01,10.861,4.48S355.558,282.06,349.561,282.06Z" transform="translate(-317.023 -255.622)"/></svg>