<svg width="64" height="64" viewBox="0 0 64 64" fill="none" xmlns="http://www.w3.org/2000/svg">
<g clip-path="url(#clip0_40_26367)">
<path fill-rule="evenodd" clip-rule="evenodd" d="M32 0C38.329 0 44.5159 1.87677 49.7782 5.39297C55.0406 8.90918 59.1421 13.9069 61.5641 19.7541C63.9861 25.6014 64.6199 32.0355 63.3851 38.2429C62.1504 44.4503 59.1027 50.1521 54.6274 54.6274C50.1521 59.1027 44.4503 62.1504 38.2429 63.3851C32.0355 64.6199 25.6014 63.9861 19.7541 61.5641C13.9069 59.1421 8.90918 55.0406 5.39297 49.7782C1.87677 44.5159 0 38.329 0 32C0 23.5131 3.37142 15.3737 9.37258 9.37258C15.3737 3.37142 23.5131 0 32 0Z" fill="#F5F5F5"/>
<path d="M32.48 45.3759C22.246 45.3759 13.952 42.4189 13.952 38.4579C13.952 36.3909 16.211 34.5279 19.827 33.2159C22.649 35.0269 27.385 35.9549 32.755 35.9549C37.997 35.9549 42.63 34.8219 45.478 33.0879C48.889 34.3879 51.008 36.1979 51.008 38.1949C51.008 42.1629 42.714 45.3759 32.48 45.3759Z" fill="black"/>
<path d="M32.589 35.0661C24.832 35.0661 18.541 32.6341 18.541 29.6321C18.541 27.9681 20.48 26.4771 23.52 25.4851C26.3867 26.7098 29.4717 27.3412 32.589 27.3412C35.7063 27.3412 38.7913 26.7098 41.658 25.4851C44.704 26.4851 46.637 27.9681 46.637 29.6321C46.641 32.6341 40.352 35.0661 32.589 35.0661Z" fill="black"/>
<path d="M32.538 26.438C26.538 26.438 21.677 24.428 21.677 21.958C21.677 19.488 26.541 17.478 32.538 17.478C38.535 17.478 43.399 19.488 43.399 21.958C43.399 24.428 38.535 26.438 32.538 26.438Z" fill="black"/>
</g>
<defs>
<clipPath id="clip0_40_26367">
<rect width="64" height="64" fill="white"/>
</clipPath>
</defs>
</svg>
