<svg width="64" height="64" viewBox="0 0 64 64" fill="none" xmlns="http://www.w3.org/2000/svg">
<g clip-path="url(#clip0_124_77)">
<path d="M0 0H64V64H0V0Z" fill="#144080"/>
<path d="M37.7943 15.4514L37.9886 15.5657C40.08 16.9371 41.76 17.1886 44.32 17.1886C45.2228 17.1886 46.1943 17.0286 47.12 16.7086L47.36 16.6286L48.5714 18.3086L48.4571 18.4686C43.9314 24.3886 47.4514 30.7771 49.9428 33.3257L50.1714 33.5543L49.9428 33.7943C49.6114 34.1143 49.0514 34.6971 48.6285 35.1314L48.48 35.28L48.4914 35.4857V35.5543C48.4914 35.6 48.4914 35.6571 48.5143 35.7486V35.7943C48.72 39.7371 47.6914 42.9714 45.4285 45.4286C43.04 48.0228 39.2571 49.5886 34.8 49.8286L34.6285 49.84L34.5028 49.9543C33.36 50.9828 32.2171 51.8286 32.1943 51.84L32 51.9886L31.7943 51.84C31.7486 51.7943 30.6171 50.96 29.4857 49.9543L29.3714 49.84H29.1886C24.7314 49.5886 20.96 48.0228 18.56 45.4286C16.2971 42.9714 15.2686 39.7371 15.4743 35.7943V35.7486C15.4971 35.6686 15.4971 35.6114 15.4971 35.5657V35.4857L15.5086 35.28L15.3714 35.1314L14.0571 33.7943L13.8286 33.5657L14.0571 33.3371C16.5371 30.7771 20.0571 24.3886 15.5428 18.48L15.4286 18.3086L16.64 16.6286L16.88 16.7086C17.8057 17.0286 18.7771 17.1886 19.68 17.1886C22.24 17.1886 23.92 16.9486 26.0114 15.5771L26.2057 15.4514L26.3886 15.5771C28.0168 16.771 29.981 17.4191 32 17.4286C33.9886 17.4286 35.7714 16.8457 37.6114 15.5771L37.7943 15.4514Z" fill="#E8B909"/>
<path d="M18.2628 30.0571C19.68 26.8571 20.2057 22.7543 17.8286 18.7429C18.4228 18.8457 19.0514 18.9029 19.68 18.9029C22.1143 18.9029 24.0228 18.6857 26.1714 17.4857C27.925 18.562 29.9424 19.1317 32 19.1317C34.0575 19.1317 36.0749 18.562 37.8285 17.4857C39.9771 18.6857 41.8857 18.9029 44.32 18.9029C44.9485 18.9029 45.5771 18.8457 46.1828 18.7314C43.7943 22.7543 44.32 26.8686 45.7257 30.0686H18.2743L18.2628 30.0571Z" fill="white"/>
<path d="M45.7372 30.0571C44.32 26.8571 43.7943 22.7543 46.1829 18.7314C45.5772 18.8457 44.96 18.9029 44.32 18.9029C41.8857 18.9029 39.9772 18.6857 37.8286 17.4857C36.0771 18.5694 34.0597 19.1469 32 19.1543H31.9315V30.0686H45.7372V30.0571Z" fill="#FFDD00"/>
<path d="M42.7086 45.52C45.4172 43.5771 47.0172 40.4571 46.7772 35.8971L46.7086 35.36H42.7086V45.5314V45.52ZM17.1657 35.9657C16.96 40.5714 18.3086 42.9257 20.5943 44.9028V35.4286H17.2229L17.1657 35.9657Z" fill="#0054A4"/>
<path d="M25.1429 47.2686C23.5083 46.7427 21.9715 45.9512 20.5943 44.9257V35.2457H25.1429V47.2686ZM43.4286 44.9829C42.0099 45.9963 40.4752 46.8365 38.8572 47.4857V35.3714H43.4286V44.9714V44.9829ZM32 37.6C32.8457 37.6 33.6229 37.8286 34.2857 38.2057V35.3486H29.7143V38.2172C30.4086 37.8138 31.1971 37.6009 32 37.6ZM29.7143 44.96C30.3772 45.3486 31.1657 45.5772 32 45.5772C32.8457 45.5772 33.6229 45.2343 34.2857 44.8457V48.1143H34.0457C32.8914 48.1372 31.5657 48.1257 30.1029 48.1143H29.7143V44.96Z" fill="#A30046"/>
<path d="M34.2857 35.3372V38.1943C34.8048 38.5963 35.2286 39.108 35.5269 39.6927C35.8252 40.2775 35.9907 40.921 36.0115 41.5772C36.0115 43.0057 35.4057 44.0914 34.2857 44.9486V48.0914C35.7943 48.0114 37.5315 47.8057 38.8572 47.4514V35.3372H34.2857ZM27.8857 41.5886C27.8857 40.1829 28.5029 38.96 29.7143 38.2514V35.4286H25.1429V47.3714C26.56 47.7143 28.1029 47.92 29.7143 48V44.8914C28.6629 44.0343 27.8857 42.9829 27.8857 41.5772V41.5886Z" fill="#0054A4"/>
<path d="M19.2343 22.8571C19.52 24.24 19.5315 24.9943 19.3486 26.2857H24V30.0571H27.4286V26.2857H31.9429V22.8571H27.4286V18.2171C26.9372 18 26.6286 17.76 26.1715 17.4857C25.2572 18 24.88 18.3314 24 18.5371V22.8571H19.2343ZM41.7143 30.1829V18.72C41.1429 18.6057 40.5715 18.4686 40 18.2857V30.1829H41.7143ZM34.8572 30.0914V18.7886C34.3086 18.9257 33.7372 19.0171 33.1429 19.0857V30.0914H34.8572ZM44.5715 30.0343V18.8571C44.1715 18.8571 43.7943 18.8229 43.4286 18.7771V30.0229H44.5715V30.0343ZM38.2515 30.0914V17.7143C38.1143 17.7943 37.9772 17.4971 37.84 17.5657C37.4172 17.7714 36.9829 17.9543 36.5372 18.1257V30.1029H38.2515V30.0914Z" fill="#E31837"/>
<path d="M50.8572 33.5543L50.2972 32.9829C47.8972 30.5371 44.5257 24.4114 48.8343 18.7429L49.1772 18.2971L47.5429 16.0457L46.9715 16.24C46.08 16.5486 45.1657 16.6971 44.32 16.6971C41.8515 16.6971 40.24 16.4686 38.2629 15.1657L37.7943 14.8571L37.3372 15.1771C35.7906 16.3179 33.9218 16.9382 32 16.9486C30.0785 16.9366 28.2102 16.3165 26.6629 15.1771L26.2057 14.8686L25.7486 15.1657C23.76 16.4686 22.1372 16.6971 19.68 16.6971C18.8229 16.6971 17.9086 16.5486 17.04 16.24L16.4457 16.0457L14.8229 18.2971L15.1657 18.7543C19.4743 24.4114 16.08 30.5257 13.7029 32.9829L13.1429 33.5543L13.7143 34.1257C14.0229 34.4229 14.5715 34.9829 15.0172 35.4514V35.5314L14.9943 35.6914V35.7486C14.7657 39.8286 15.8515 43.1886 18.1943 45.7371C20.6857 48.4343 24.5715 50.0571 29.1657 50.3086C30.3086 51.3257 31.4515 52.1714 31.5086 52.2171L32 52.5714L32.4915 52.2171C32.5372 52.1714 33.6915 51.3257 34.8229 50.2971C39.4286 50.0571 43.3029 48.4343 45.7943 45.7371C48.1372 43.1886 49.2229 39.8286 48.9943 35.7486V35.5314L48.9829 35.4514C49.44 34.9943 49.9772 34.4229 50.2857 34.1257L50.8572 33.5543ZM48.1372 35.1543C48.1715 35.5657 48.1486 35.5429 48.1829 35.7829C48.6743 44.88 42.2515 49.1772 34.4915 49.4972C33.3029 50.5943 32 51.5543 32 51.5543C32 51.5543 30.6857 50.5943 29.4972 49.4972C21.7372 49.1772 15.3257 44.88 15.8172 35.7829C15.84 35.5543 15.8172 35.5543 15.8629 35.1543C15.4057 34.6971 14.6743 33.9314 14.2857 33.5543C17.0743 30.6971 20.32 24.1714 15.8172 18.2629L16.7657 17.0057C17.6686 17.3143 18.6743 17.5086 19.6686 17.5086C22.2515 17.5086 24.0229 17.2571 26.1829 15.84C27.874 17.0701 29.9089 17.7377 32 17.7486C34.2172 17.7486 36.08 17.0171 37.7943 15.84C39.9657 17.2571 41.7372 17.5086 44.3086 17.5086C45.3372 17.5086 46.3315 17.3143 47.2229 17.0057L48.1829 18.2629C43.6686 24.1714 46.9257 30.6971 49.7029 33.5429L48.1372 35.1429V35.1543Z" fill="#231F20"/>
<path d="M18.16 30.0114L18.08 30.1829H45.92L45.84 30.0114C44.64 27.2686 43.7257 23.1086 46.2857 18.7886L46.4229 18.56L46.1486 18.6057C45.5429 18.72 44.9257 18.7886 44.32 18.7886C41.84 18.7886 39.9886 18.56 37.8857 17.3829L37.8286 17.3486L37.76 17.3829C36.0273 18.4471 34.0335 19.0105 32 19.0105C29.9665 19.0105 27.9728 18.4471 26.24 17.3829L26.1714 17.3486L26.1143 17.3829C24.0114 18.56 22.16 18.7886 19.68 18.7886C19.0972 18.7886 18.48 18.7314 17.8514 18.6171L17.5886 18.5714L17.7257 18.8C20.2743 23.1086 19.36 27.2686 18.16 30.0114ZM32.0686 19.2686C34.1013 19.2566 36.0925 18.6917 37.8286 17.6343C39.9429 18.8 41.8172 19.0286 44.32 19.0286C44.8457 19.0286 45.3943 18.9829 45.9314 18.8914C43.5429 23.12 44.3657 27.2 45.5429 29.9429H32.0686V19.2686ZM18.0686 18.9029C18.6286 18.9829 19.1657 19.0286 19.68 19.0286C22.1829 19.0286 24.0572 18.8 26.1714 17.6343C28 18.6971 29.84 19.2343 31.8286 19.2686V29.9429H18.4572C19.6229 27.2 20.4572 23.1314 18.0686 18.9029ZM17.1657 35.36C17.1657 35.4971 17.1429 35.5657 17.1314 35.6343L17.0972 35.8971C16.9143 39.3943 17.8057 42.2286 19.7257 44.32C21.9429 46.7086 25.52 48.0686 30.08 48.2629H30.3772C31.5581 48.2675 32.7391 48.2675 33.92 48.2629C38.4915 48.0686 42.0572 46.7086 44.2743 44.3086C46.1943 42.2286 47.0857 39.3943 46.9029 35.8857L46.8686 35.6343V35.6C46.8457 35.5314 46.8457 35.4743 46.8343 35.36L46.8229 35.2457H17.1657V35.36ZM17.3486 35.9086C17.3486 35.7943 17.3714 35.7371 17.3829 35.68L17.4057 35.4857H46.5943L46.6172 35.6229V35.68L46.6514 35.9086C46.8343 39.3371 45.9657 42.1143 44.0915 44.1371C41.92 46.4914 38.4 47.8286 33.92 48.0114H30.0914C25.6 47.8286 22.08 46.4914 19.92 44.1486C18.0343 42.1143 17.1772 39.3486 17.3486 35.92V35.9086ZM31.7143 31.5886C32.0114 31.5886 32.2286 31.7143 32.3657 31.9771L32.3772 32.0114L33.1429 31.6686L33.1314 31.6229C33.0085 31.3575 32.8089 31.1352 32.5583 30.9844C32.3077 30.8337 32.0177 30.7615 31.7257 30.7771C30.72 30.7771 30.0229 31.5771 30.0229 32.72C30.0229 33.9086 30.6857 34.6629 31.6914 34.6629C32.3543 34.6629 32.8343 34.3771 33.12 33.8057L33.1314 33.7714L32.4457 33.3714L32.4115 33.4057C32.2172 33.7257 32.0229 33.8514 31.7257 33.8514C31.2115 33.8514 30.8686 33.3943 30.8686 32.72C30.8686 32.0343 31.2 31.5886 31.7143 31.5886ZM28.4915 31.6457V30.8457H25.7372V34.6171H26.56V33.0514H27.68V32.2514H26.56V31.6457H28.4915ZM36.8914 30.8457C37.6572 30.8457 38.1143 31.2229 38.1143 31.8514C38.1143 32.1486 37.9886 32.4114 37.7714 32.5714C38.0686 32.7314 38.2515 33.0286 38.2515 33.3714C38.2515 34.1486 37.7372 34.6057 36.88 34.6057H35.1314V30.8343H36.8914V30.8457ZM36.8572 31.6H35.9429V32.2286H36.8914C37.1429 32.2286 37.28 32.1143 37.28 31.92C37.28 31.7714 37.2229 31.6 36.8572 31.6ZM35.9429 33.8286H36.8914C37.2229 33.8286 37.3943 33.68 37.3943 33.3943C37.3943 33.0971 37.2343 32.96 36.8914 32.96H35.9429V33.8286ZM32 45.6457C34.2743 45.6457 36.1143 43.8171 36.1143 41.5771C36.1053 40.493 35.6674 39.4565 34.8965 38.6941C34.1256 37.9317 33.0842 37.5055 32 37.5086C29.7143 37.5086 27.8743 39.3371 27.8743 41.5771C27.8834 42.6613 28.3212 43.6978 29.0921 44.4602C29.863 45.2226 30.9044 45.6488 31.9886 45.6457H32ZM32 45.4057C31.2276 45.4092 30.4716 45.1824 29.8286 44.7543C30.7295 44.7311 31.6146 44.5128 32.4229 44.1143C33.0743 43.7257 33.76 43.2457 33.8972 42.6057C34.3657 42.3771 35.28 42.48 35.3943 43.4286C35.0543 44.0292 34.5609 44.5287 33.9645 44.8761C33.3681 45.2235 32.6902 45.4062 32 45.4057ZM30.08 42.4571C30.2743 42.5714 30.5029 42.6629 30.7657 42.6857C31.3143 42.7657 32.0572 42.2286 32.1029 41.6343C32.8457 41.12 33.4172 41.5886 33.5886 42C33.9314 42.8 33.2115 43.3714 32.2972 43.92C31.5772 44.3429 30.3429 44.5371 29.5315 44.5371C29.1086 44.1943 28.7543 43.7486 28.5029 43.2571H28.6057C29.2343 43.2571 29.7829 42.96 30.0914 42.4571H30.08ZM29.4629 40.5143C29.4629 39.9086 29.6 39.3714 29.7372 38.8L29.8515 38.4C30.3657 38.0571 30.9943 37.8286 31.6572 37.76C31.5559 37.8663 31.478 37.9926 31.4285 38.1308C31.379 38.269 31.3589 38.4161 31.3697 38.5625C31.3805 38.7089 31.4218 38.8514 31.491 38.9809C31.5602 39.1104 31.6557 39.224 31.7714 39.3143C31.6572 39.3943 31.5543 39.4971 31.4743 39.6343C31.1315 40.16 31.0857 41.0629 31.8743 41.6343C31.8286 42.0914 31.2229 42.5257 30.8 42.4686C29.9086 42.3543 29.4857 41.5314 29.4629 40.5257V40.5143ZM33.9086 42.3429C33.9072 42.1908 33.8679 42.0416 33.7943 41.9086C33.6 41.4171 32.88 40.8229 31.9886 41.4286C31.7286 41.2441 31.5501 40.9661 31.4905 40.653C31.4308 40.3398 31.4947 40.0157 31.6686 39.7486C32.1257 39.04 33.1429 39.3257 34.08 39.84C34.9009 40.3037 35.5292 41.0454 35.8514 41.9314C35.8172 42.3429 35.7143 42.7314 35.5543 43.0971C35.2914 42.2971 34.4343 42.1714 33.9086 42.3543V42.3429ZM34.1943 39.6457C33.5086 39.2686 32.6286 38.9257 31.9886 39.1886C31.5086 38.8914 31.4172 38.1486 32.0343 37.7486C34.08 37.7714 35.7486 39.3486 35.8629 41.3486C35.4972 40.6629 34.8343 40 34.1943 39.6343V39.6457ZM29.5543 38.6057C29.4917 38.8653 29.4269 39.1244 29.36 39.3829C29.1543 40.2857 29.1543 41.6457 29.8972 42.3086C29.6457 42.7657 29.1772 43.0171 28.6057 43.0171H28.4C28.0917 42.2584 28.0364 41.4204 28.2423 40.6278C28.4482 39.8351 28.9043 39.1299 29.5429 38.6171L29.5543 38.6057Z" fill="#231F20"/>
</g>
<defs>
<clipPath id="clip0_124_77">
<rect width="64" height="64" rx="32" fill="white"/>
</clipPath>
</defs>
</svg>
