<svg width="64" height="64" viewBox="0 0 64 64" fill="none" xmlns="http://www.w3.org/2000/svg">
<g clip-path="url(#clip0_40_26372)">
<path d="M32 64C49.6731 64 64 49.6731 64 32C64 14.3269 49.6731 0 32 0C14.3269 0 0 14.3269 0 32C0 49.6731 14.3269 64 32 64Z" fill="#F5F5F5"/>
<path d="M48.7059 43.7859L32.0799 34.2659L15.2939 43.8258L48.7059 43.7859Z" fill="#662D91"/>
<path d="M32.09 15.1079L32.085 34.2659L48.711 43.7859L32.09 15.1079Z" fill="#9E1F63"/>
<path d="M15.2939 43.8259L32.0799 34.2659L32.0849 15.1079L15.2939 43.8259Z" fill="#FF5000"/>
<path d="M32.046 26.73L25.182 38.194H38.94L32.046 26.73Z" fill="#F5F5F5"/>
<path d="M32.0449 26.324L39.309 38.403H24.809L32.0449 26.324ZM38.5709 37.986L32.046 27.136L25.546 37.986H38.5709Z" fill="#FF5000"/>
</g>
<defs>
<clipPath id="clip0_40_26372">
<rect width="64" height="64" fill="white"/>
</clipPath>
</defs>
</svg>
