<svg xmlns="http://www.w3.org/2000/svg" xmlns:xlink="http://www.w3.org/1999/xlink" width="64" height="64" viewBox="0 0 64 64"><defs><clipPath id="a"><circle cx="32" cy="32" r="32" transform="translate(286 325)" fill="#dedede"/></clipPath></defs><g transform="translate(-286 -325)" clip-path="url(#a)"><g transform="translate(286 325)"><circle cx="32" cy="32" r="32" fill="#0ac18e"/><path d="M41.982,21.255c-1.608-3.647-5.3-4.426-9.827-3.671L30.7,11.947l-3.427.885,1.429,5.62c-.9.227-1.827.422-2.745.682l-1.429-5.588-3.427.885,1.454,5.637c-.739.211-6.92,1.795-6.92,1.795l.942,3.671s2.518-.707,2.493-.65a1.824,1.824,0,0,1,2.363.991l4,15.448a1.267,1.267,0,0,1-.991,1.47c.057.032-2.493.642-2.493.642l.374,4.28s6.124-1.568,6.928-1.771l1.47,5.7,3.427-.885-1.47-5.742q1.413-.329,2.753-.682l1.462,5.71,3.427-.885-1.47-5.693c5.279-1.283,9.007-4.613,8.244-9.706-.487-3.07-3.842-5.588-6.627-5.872a5.661,5.661,0,0,0,1.519-6.636ZM40.333,34.7c.682,5.044-6.327,5.661-8.642,6.27l-2.014-7.545C32,32.812,39.18,30.254,40.333,34.7ZM36.11,24.422c.723,4.483-5.271,5-7.2,5.5L27.07,23.074C29.011,22.595,34.64,20.272,36.11,24.422Z" fill="#fff"/></g></g></svg>