<svg width="64" height="64" viewBox="0 0 64 64" fill="none" xmlns="http://www.w3.org/2000/svg">
<g clip-path="url(#clip0_40_26389)">
<path d="M32 64C49.6731 64 64 49.6731 64 32C64 14.3269 49.6731 0 32 0C14.3269 0 0 14.3269 0 32C0 49.6731 14.3269 64 32 64Z" fill="#006A11"/>
<mask id="mask0_40_26389" style="mask-type:luminance" maskUnits="userSpaceOnUse" x="14" y="13" width="36" height="44">
<path d="M14.2852 13.834H49.7142V56.078H14.2852V13.834Z" fill="white"/>
</mask>
<g mask="url(#mask0_40_26389)">
<path fill-rule="evenodd" clip-rule="evenodd" d="M31.6252 55.8681C30.2782 55.1251 28.8132 54.2601 27.3372 53.2921C26.0892 52.4741 24.8242 51.5751 23.6032 50.6051C22.6732 49.8671 21.7652 49.0831 20.9182 48.2631C20.0895 47.4683 19.3207 46.6133 18.6182 45.7051C18.1699 45.1152 17.7562 44.4999 17.3792 43.8621C16.9775 43.1862 16.6104 42.4903 16.2792 41.7771C15.7479 40.6475 15.3149 39.4741 14.9852 38.2701C14.6914 37.1706 14.4907 36.0483 14.3852 34.9151C14.2962 34.0021 14.2952 31.7151 14.2952 29.5991V28.9591L14.2882 14.6191V13.8291H49.7232V14.6191L49.7142 28.9601V29.6001C49.7142 31.7131 49.7142 34.0001 49.6242 34.9161C49.5185 36.0493 49.3178 37.1715 49.0242 38.2711C48.6944 39.4748 48.2615 40.6478 47.7302 41.7771C47.3991 42.4903 47.0319 43.1862 46.6302 43.8621C46.2532 44.4999 45.8395 45.1152 45.3912 45.7051C44.6888 46.6134 43.92 47.4684 43.0912 48.2631C42.2442 49.0831 41.3362 49.8631 40.4062 50.6051C39.1852 51.5751 37.9202 52.4741 36.6722 53.2921C35.1952 54.2611 33.7312 55.1251 32.3842 55.8681L32.0052 56.0771L31.6252 55.8681Z" fill="#006A0B"/>
</g>
<path fill-rule="evenodd" clip-rule="evenodd" d="M32.0052 55.1761C29.2304 53.6652 26.5843 51.9294 24.0932 49.9861C22.29 48.6003 20.6606 47.0021 19.2402 45.2261C18.3586 44.0496 17.6057 42.782 16.9942 41.4451C16.0013 39.3699 15.3835 37.1355 15.1692 34.8451C15.0692 33.8721 15.0832 31.2141 15.0822 28.9641L15.0752 14.6221H48.9352L48.9272 28.9591C48.9272 31.2101 48.9352 33.8671 48.8402 34.8401C48.6259 37.1305 48.0081 39.3649 47.0152 41.4401C46.4039 42.7774 45.651 44.0453 44.7692 45.2221C43.3488 46.9981 41.7194 48.5963 39.9162 49.9821C37.4256 51.9267 34.7797 53.6638 32.0052 55.1761Z" fill="#FEFEFE"/>
<path fill-rule="evenodd" clip-rule="evenodd" d="M32.4371 54.164C33.5371 53.541 34.6971 52.84 35.8741 52.064C37.0941 51.264 38.3241 50.391 39.5001 49.456C40.4001 48.74 41.2741 47.988 42.0771 47.211C42.8557 46.4654 43.578 45.6632 44.2381 44.811C44.6512 44.2668 45.0325 43.6992 45.3801 43.111C45.7551 42.4797 46.0979 41.8299 46.4071 41.164C46.903 40.11 47.3071 39.0153 47.6151 37.892C47.8885 36.8711 48.0755 35.8291 48.1741 34.777C48.2571 33.922 48.2581 31.677 48.2581 29.598V28.964V21.418H32.4371V54.164Z" fill="#006A0B"/>
<path fill-rule="evenodd" clip-rule="evenodd" d="M33.1911 52.859C33.3911 52.7383 33.5954 52.6153 33.8041 52.49C34.3314 52.168 34.8838 51.8183 35.4611 51.441C36.1081 51.017 36.7341 50.589 37.3271 50.163C37.8891 49.759 38.4558 49.3293 39.0271 48.874C39.4791 48.515 39.9151 48.155 40.3271 47.795C40.7391 47.435 41.1541 47.059 41.5461 46.679C41.9381 46.299 42.3171 45.911 42.6591 45.533C43.0011 45.155 43.3251 44.767 43.6341 44.364C43.8291 44.109 44.0131 43.851 44.1881 43.591C44.3631 43.331 44.5471 43.038 44.7261 42.737C44.9051 42.436 45.0821 42.119 45.2441 41.812C45.4061 41.505 45.5701 41.172 45.7191 40.851C45.9781 40.292 46.2021 39.751 46.3961 39.228C46.5901 38.705 46.7491 38.2 46.8841 37.7C47.0191 37.2 47.1281 36.705 47.2161 36.208C47.3071 35.693 47.3741 35.196 47.4221 34.708C47.4621 34.3 47.4821 33.546 47.4921 32.641C47.5031 31.713 47.5031 30.635 47.5031 29.6V28.96V22.168H33.1831L33.1911 52.859Z" fill="white"/>
<path fill-rule="evenodd" clip-rule="evenodd" d="M31.9401 43.8211C31.1324 43.5396 30.3605 43.1644 29.6401 42.7031C28.9201 42.2695 28.2547 41.7511 27.6581 41.1591C27.2476 40.7262 26.8821 40.2528 26.5671 39.7461C26.2556 39.2475 25.9972 38.7176 25.7961 38.1651C25.6133 37.6532 25.4937 37.1209 25.4401 36.5801C25.385 35.9817 25.3616 35.3809 25.3701 34.7801V25.1321H26.8591V26.2701H27.7241V25.1321H29.2141V26.2701H30.0781V25.1321H31.5681V26.2701H32.4331V25.1321H33.9231V26.2701H34.7881V25.1321H36.2781V26.2701H37.1421V25.1321H38.6311V34.7761C38.6396 35.3769 38.6163 35.9777 38.5611 36.5761C38.5077 37.117 38.3882 37.6493 38.2051 38.1611C38.004 38.7135 37.7456 39.2434 37.4341 39.7421C37.1191 40.249 36.7536 40.7228 36.3431 41.1561C35.7465 41.7478 35.0811 42.2659 34.3611 42.6991C33.6408 43.1604 32.8689 43.5357 32.0611 43.8171L31.9961 43.8371L31.9401 43.8211Z" fill="#006A0B"/>
<path fill-rule="evenodd" clip-rule="evenodd" d="M28.1351 52.0711C29.3121 52.8431 30.4761 53.5451 31.5721 54.1711V21.4141H15.7451V28.9601V29.6001C15.7451 31.6751 15.7451 33.9241 15.8291 34.7791C15.9278 35.8312 16.1148 36.8732 16.3881 37.8941C16.6962 39.0174 17.1003 40.1121 17.5961 41.1661C17.9055 41.8344 18.2486 42.4865 18.6241 43.1201C18.9717 43.7083 19.353 44.2759 19.7661 44.8201C20.4262 45.6723 21.1485 46.4745 21.9271 47.2201C22.7271 47.9971 23.6031 48.7491 24.5031 49.4651C25.6851 50.3981 26.9151 51.2711 28.1351 52.0711Z" fill="#006A0B"/>
<path fill-rule="evenodd" clip-rule="evenodd" d="M15.9602 15.7439H17.0602C17.3273 15.7339 17.5944 15.7629 17.8532 15.8299C18.0357 15.8897 18.1902 16.0137 18.2882 16.1789C18.4176 16.4419 18.4746 16.7346 18.4532 17.0269C18.4707 17.2182 18.4299 17.4102 18.3362 17.5779C18.2131 17.7068 18.0505 17.7909 17.8742 17.8169C18.0805 17.8482 18.2669 17.9574 18.3952 18.1219C18.4998 18.3229 18.5472 18.5488 18.5322 18.7749V19.1929C18.5442 19.4226 18.5102 19.6525 18.4322 19.8689C18.4033 19.9378 18.3605 20 18.3065 20.0517C18.2525 20.1033 18.1884 20.1432 18.1182 20.1689C17.8291 20.239 17.5312 20.2663 17.2342 20.2499H15.9602V15.7439ZM17.0692 16.5149V17.5149H17.1802C17.2892 17.5149 17.3582 17.4859 17.3882 17.4299C17.4301 17.2719 17.4453 17.1079 17.4332 16.9449C17.4392 16.8435 17.4267 16.7418 17.3962 16.6449C17.3879 16.6211 17.3747 16.5993 17.3574 16.5809C17.3402 16.5625 17.3194 16.5478 17.2962 16.5379C17.2211 16.5189 17.1436 16.5112 17.0662 16.5149H17.0692ZM17.0692 18.2149V19.4759C17.1753 19.4864 17.2817 19.4588 17.3692 19.3979C17.4262 19.2935 17.4489 19.1739 17.4342 19.0559V18.6359C17.4494 18.5161 17.4292 18.3944 17.3762 18.2859C17.283 18.2301 17.1741 18.2066 17.0662 18.2189L17.0692 18.2149ZM21.7542 18.3789C21.7542 18.8322 21.7445 19.1526 21.7252 19.3399C21.7058 19.5253 21.6405 19.703 21.5352 19.8569C21.4273 20.014 21.2782 20.1382 21.1042 20.2159C20.9055 20.3029 20.6901 20.3456 20.4732 20.3409C20.2622 20.3441 20.0528 20.3036 19.8582 20.2219C19.6817 20.1476 19.5299 20.0249 19.4202 19.8679C19.3113 19.7158 19.2425 19.5387 19.2202 19.3529C19.1995 19.1662 19.1892 18.8412 19.1892 18.3779V17.6069C19.1892 17.1539 19.1992 16.8339 19.2192 16.6449C19.2378 16.4596 19.3032 16.282 19.4092 16.1289C19.5169 15.9716 19.6661 15.8473 19.8402 15.7699C20.0389 15.6828 20.2543 15.6401 20.4712 15.6449C20.6822 15.6417 20.8916 15.6822 21.0862 15.7639C21.2625 15.8385 21.4143 15.9611 21.5242 16.1179C21.6336 16.2698 21.7024 16.447 21.7242 16.6329C21.7452 16.8189 21.7552 17.1429 21.7552 17.6079L21.7542 18.3789ZM20.6472 16.8989C20.6548 16.7647 20.6437 16.6301 20.6142 16.4989C20.6047 16.4714 20.5862 16.4478 20.5617 16.4321C20.5373 16.4163 20.5082 16.4092 20.4792 16.4119C20.4527 16.4107 20.4264 16.4167 20.403 16.4292C20.3796 16.4417 20.36 16.4602 20.3462 16.4829C20.302 16.6179 20.286 16.7605 20.2992 16.9019V19.0019C20.2913 19.1642 20.3013 19.3268 20.3292 19.4869C20.3383 19.5162 20.3574 19.5415 20.3831 19.5583C20.4089 19.5751 20.4397 19.5824 20.4702 19.5789C20.5028 19.5814 20.5352 19.5723 20.5616 19.553C20.588 19.5338 20.6067 19.5057 20.6142 19.4739C20.6424 19.3088 20.6531 19.1412 20.6462 18.9739L20.6472 16.8989ZM22.4532 15.7409H23.2822C23.6457 15.7263 24.0096 15.7525 24.3672 15.8189C24.5336 15.8576 24.6839 15.947 24.7972 16.0749C24.8937 16.1892 24.9576 16.3274 24.9822 16.4749C25.014 16.7601 25.0263 17.0471 25.0192 17.3339V18.9119C25.0301 19.1838 25.0116 19.456 24.9642 19.7239C24.9359 19.8474 24.8703 19.9591 24.7762 20.0439C24.6801 20.1237 24.5662 20.1792 24.4442 20.2059C24.248 20.2419 24.0486 20.2573 23.8492 20.2519H22.4492L22.4532 15.7409ZM23.5622 16.5119V19.4759C23.7212 19.4759 23.8202 19.4429 23.8572 19.3759C23.9081 19.1963 23.9268 19.009 23.9122 18.8229V17.0739C23.916 16.943 23.91 16.8119 23.8942 16.6819C23.8898 16.6562 23.8801 16.6317 23.8656 16.61C23.8511 16.5883 23.8323 16.5698 23.8102 16.5559C23.7315 16.5219 23.6456 16.5078 23.5602 16.5149L23.5622 16.5119ZM25.7182 15.7409H26.5032C26.8584 15.7289 27.214 15.7503 27.5652 15.8049C27.7534 15.8499 27.9162 15.9674 28.0182 16.1319C28.1542 16.3899 28.2148 16.681 28.1932 16.9719C28.2152 17.2144 28.1725 17.4584 28.0692 17.6789C28.0088 17.7484 27.9339 17.8039 27.8498 17.8414C27.7656 17.8788 27.6743 17.8975 27.5822 17.8959C27.7504 17.9253 27.9052 18.0064 28.0252 18.1279C28.0905 18.2051 28.1382 18.2955 28.1652 18.3929C28.1915 18.6142 28.2008 18.8372 28.1932 19.0599V20.2509H27.1602V18.7509C27.1735 18.5994 27.1548 18.4467 27.1052 18.3029C27.0692 18.2459 26.9752 18.2169 26.8232 18.2169V20.2509H25.7132L25.7182 15.7409ZM26.8272 16.5119V17.5119C26.9176 17.5196 27.0083 17.5009 27.0882 17.4579C27.1382 17.4219 27.1642 17.3039 27.1642 17.1059V16.8609C27.1769 16.7613 27.1508 16.6607 27.0912 16.5799C27.0121 16.5269 26.9168 16.5039 26.8222 16.5149L26.8272 16.5119ZM31.4272 15.7409V18.7609C31.4321 19.001 31.4214 19.2412 31.3952 19.4799C31.3669 19.6345 31.3029 19.7804 31.2082 19.9059C31.1047 20.0522 30.9628 20.1671 30.7982 20.2379C30.6084 20.3173 30.4039 20.3558 30.1982 20.3509C29.9665 20.3558 29.7365 20.31 29.5242 20.2169C29.3493 20.1433 29.1981 20.0229 29.0872 19.8689C28.9941 19.7345 28.9354 19.5793 28.9162 19.4169C28.8982 19.2582 28.8895 18.9249 28.8902 18.4169V15.7439H29.9982V19.1229C29.9911 19.2494 30.0015 19.3763 30.0292 19.4999C30.0371 19.5255 30.0535 19.5475 30.0757 19.5624C30.0979 19.5774 30.1246 19.5842 30.1512 19.5819C30.1808 19.5849 30.2105 19.5775 30.2352 19.5611C30.26 19.5447 30.2784 19.5203 30.2872 19.4919C30.314 19.3509 30.3241 19.2072 30.3172 19.0639V15.7439L31.4272 15.7409ZM35.5602 15.7409V20.2509H34.5912V17.2079L34.2042 20.2499H33.5102L33.1022 17.2769V20.2509H32.1332V15.7439H33.5682C33.6102 16.0146 33.6549 16.3339 33.7022 16.7019L33.8552 17.8489L34.1072 15.7489L35.5602 15.7409ZM38.6372 17.1039H37.6022V16.7699C37.6109 16.6682 37.5973 16.5658 37.5622 16.4699C37.5481 16.4482 37.5284 16.4308 37.5051 16.4195C37.4819 16.4083 37.456 16.4035 37.4302 16.4059C37.3995 16.4046 37.3691 16.412 37.3424 16.4273C37.3157 16.4425 37.2938 16.4649 37.2792 16.4919C37.2399 16.573 37.2223 16.6629 37.2282 16.7529C37.2218 16.8691 37.2416 16.9854 37.2862 17.0929C37.3666 17.2087 37.474 17.3031 37.5992 17.3679C37.9553 17.5606 38.2715 17.8192 38.5312 18.1299C38.6815 18.4268 38.7479 18.7591 38.7232 19.0909C38.7364 19.3324 38.7 19.574 38.6162 19.8009C38.5263 19.9713 38.3815 20.1062 38.2052 20.1839C37.9837 20.2908 37.7401 20.3439 37.4942 20.3389C37.2299 20.3464 36.9683 20.2847 36.7352 20.1599C36.5465 20.0652 36.3997 19.9037 36.3232 19.7069C36.248 19.453 36.2143 19.1886 36.2232 18.9239V18.6289H37.2522V19.1769C37.2427 19.2874 37.2574 19.3986 37.2952 19.5029C37.3122 19.5275 37.3354 19.5472 37.3624 19.5598C37.3895 19.5725 37.4195 19.5777 37.4492 19.5749C37.4826 19.5767 37.5158 19.569 37.545 19.5528C37.5742 19.5365 37.5982 19.5123 37.6142 19.4829C37.6554 19.3981 37.674 19.304 37.6682 19.2099C37.6887 19.0301 37.6538 18.8483 37.5682 18.6889C37.4092 18.536 37.2354 18.3993 37.0492 18.2809C36.8575 18.1527 36.6745 18.0121 36.5012 17.8599C36.4021 17.7565 36.3264 17.6331 36.2792 17.4979C36.2147 17.3081 36.1849 17.1083 36.1912 16.9079C36.1768 16.6527 36.2196 16.3975 36.3162 16.1609C36.405 15.9958 36.5455 15.8644 36.7162 15.7869C36.9279 15.6918 37.1582 15.6456 37.3902 15.6519C37.6435 15.6446 37.8951 15.6949 38.1262 15.7989C38.2995 15.8714 38.4413 16.0033 38.5262 16.1709C38.6063 16.4162 38.6402 16.6742 38.6262 16.9319L38.6372 17.1039ZM39.3622 15.7409H40.4782C40.7139 15.7323 40.9497 15.7576 41.1782 15.8159C41.3122 15.8468 41.4341 15.9165 41.5287 16.0163C41.6233 16.1161 41.6864 16.2415 41.7102 16.3769C41.7445 16.5834 41.7589 16.7927 41.7532 17.0019V17.3939C41.7645 17.6069 41.7364 17.8201 41.6702 18.0229C41.6076 18.1579 41.4972 18.2648 41.3602 18.3229C41.1742 18.4005 40.9736 18.4366 40.7722 18.4289H40.4722V20.2509H39.3602L39.3622 15.7409ZM40.4712 16.5119V17.6609H40.5522C40.5913 17.6653 40.6308 17.6605 40.6677 17.6468C40.7045 17.633 40.7376 17.6108 40.7642 17.5819C40.8142 17.4795 40.8346 17.3652 40.8232 17.2519V16.8819C40.8366 16.777 40.8125 16.6708 40.7552 16.5819C40.669 16.5228 40.5635 16.4988 40.4602 16.5149L40.4712 16.5119ZM44.8852 18.3799C44.8852 18.8332 44.8752 19.1536 44.8552 19.3409C44.8363 19.5263 44.7713 19.704 44.6662 19.8579C44.5583 20.015 44.4092 20.1392 44.2352 20.2169C44.0365 20.3039 43.8211 20.3466 43.6042 20.3419C43.3932 20.3451 43.1838 20.3046 42.9892 20.2229C42.8127 20.1486 42.6609 20.0259 42.5512 19.8689C42.4421 19.7169 42.3733 19.5397 42.3512 19.3539C42.3305 19.1672 42.3202 18.8422 42.3202 18.3789V17.6079C42.3202 17.1549 42.3302 16.8349 42.3502 16.6459C42.3688 16.4606 42.4342 16.283 42.5402 16.1299C42.6476 15.9728 42.7965 15.8485 42.9702 15.7709C43.1693 15.6837 43.385 15.641 43.6022 15.6459C43.8132 15.6427 44.0226 15.6832 44.2172 15.7649C44.3935 15.8395 44.5453 15.9621 44.6552 16.1189C44.7646 16.2708 44.8334 16.448 44.8552 16.6339C44.8762 16.8199 44.8862 17.1439 44.8862 17.6089L44.8852 18.3799ZM43.7782 16.8999C43.7858 16.7657 43.7747 16.6311 43.7452 16.4999C43.7357 16.4724 43.7172 16.4488 43.6927 16.4331C43.6683 16.4173 43.6392 16.4102 43.6102 16.4129C43.5837 16.4117 43.5574 16.4177 43.534 16.4302C43.5106 16.4427 43.491 16.4612 43.4772 16.4839C43.433 16.6189 43.417 16.7615 43.4302 16.9029V19.0029C43.4223 19.1652 43.4324 19.3278 43.4602 19.4879C43.4693 19.5172 43.4884 19.5425 43.5141 19.5593C43.5399 19.5761 43.5707 19.5834 43.6012 19.5799C43.6338 19.5824 43.6662 19.5733 43.6926 19.554C43.719 19.5348 43.7377 19.5067 43.7452 19.4749C43.7734 19.3098 43.7841 19.1422 43.7772 18.9749L43.7782 16.8999ZM45.5842 15.7419H46.3602C46.7154 15.7299 47.071 15.7513 47.4222 15.8059C47.6104 15.8509 47.7732 15.9684 47.8752 16.1329C48.0112 16.3909 48.0718 16.682 48.0502 16.9729C48.0722 17.2154 48.0295 17.4594 47.9262 17.6799C47.8658 17.7494 47.7909 17.8049 47.7067 17.8424C47.6226 17.8798 47.5313 17.8985 47.4392 17.8969C47.6074 17.9263 47.7622 18.0074 47.8822 18.1289C47.9475 18.2061 47.9952 18.2965 48.0222 18.3939C48.0485 18.6152 48.0578 18.8382 48.0502 19.0609V20.2509H47.0232V18.7509C47.0365 18.5994 47.0178 18.4467 46.9682 18.3029C46.9322 18.2459 46.8382 18.2169 46.6862 18.2169V20.2509H45.5772L45.5842 15.7419ZM46.6932 16.5129V17.5129C46.7836 17.5206 46.8743 17.5019 46.9542 17.4589C47.0042 17.4229 47.0302 17.3049 47.0302 17.1069V16.8609C47.0429 16.7613 47.0168 16.6607 46.9572 16.5799C46.8776 16.5264 46.7814 16.5034 46.6862 16.5149L46.6932 16.5129Z" fill="#006A0B"/>
<path fill-rule="evenodd" clip-rule="evenodd" d="M27.1741 43.699L26.3741 48.777L25.1741 48.587L25.6051 45.865C25.6504 45.6297 25.6788 45.3914 25.6901 45.152C25.6868 45.1119 25.6744 45.0731 25.654 45.0385C25.6336 45.0039 25.6056 44.9743 25.5721 44.952C25.4075 44.8707 25.2291 44.8211 25.0461 44.806L24.9281 44.787L25.0221 44.195C25.5626 44.1809 26.0788 43.9671 26.4711 43.595L27.1741 43.699ZM27.3741 47.552L28.5741 47.742C28.5371 47.979 28.5151 48.128 28.5111 48.191C28.5064 48.2506 28.5235 48.3099 28.5591 48.358C28.5788 48.3832 28.6034 48.4041 28.6314 48.4196C28.6594 48.435 28.6903 48.4447 28.7221 48.448C28.7499 48.4533 28.7785 48.453 28.8062 48.447C28.8339 48.441 28.86 48.4294 28.8831 48.413C28.9302 48.3778 28.9626 48.3266 28.9741 48.269C28.9891 48.208 29.0111 48.081 29.0411 47.891L29.1691 47.082C29.0965 47.2024 28.9856 47.2951 28.8541 47.345C28.7071 47.3965 28.549 47.4079 28.3961 47.378C28.1865 47.3483 27.9927 47.2498 27.8451 47.098C27.7066 46.9652 27.6186 46.7885 27.5961 46.598C27.5819 46.3564 27.597 46.1139 27.6411 45.876L27.7051 45.476C27.7419 45.2102 27.7971 44.9472 27.8701 44.689C27.9282 44.5091 28.0328 44.3478 28.1733 44.2214C28.3138 44.095 28.4852 44.0079 28.6701 43.969C28.9003 43.9185 29.1381 43.9138 29.3701 43.955C29.6414 43.9883 29.9026 44.0789 30.1361 44.221C30.3184 44.3372 30.4623 44.5044 30.5501 44.702C30.6329 44.8864 30.6696 45.0882 30.6571 45.29C30.6441 45.49 30.5941 45.865 30.5051 46.424L30.3931 47.129C30.2971 47.7343 30.2251 48.137 30.1771 48.337C30.1271 48.5426 30.0236 48.7313 29.8771 48.884C29.727 49.0465 29.5327 49.1615 29.3181 49.215C29.0747 49.2742 28.8217 49.2821 28.5751 49.238C28.288 49.2046 28.0134 49.1016 27.7751 48.938C27.587 48.8006 27.451 48.6035 27.3891 48.379C27.3241 48.1078 27.3176 47.8259 27.3701 47.552H27.3741ZM28.8231 46.158C28.783 46.2917 28.7886 46.4349 28.8391 46.565C28.8739 46.6168 28.9278 46.6528 28.9891 46.665C29.0253 46.6737 29.0632 46.6721 29.0985 46.6604C29.1338 46.6488 29.1652 46.6275 29.1891 46.599C29.2563 46.4878 29.2964 46.3625 29.3061 46.233L29.4511 45.313C29.486 45.1662 29.4911 45.0138 29.4661 44.865C29.4545 44.829 29.4326 44.7972 29.4031 44.7736C29.3736 44.7499 29.3378 44.7354 29.3001 44.732C29.2374 44.7267 29.1752 44.7465 29.1271 44.787C29.0631 44.832 29.0131 44.971 28.9761 45.205L28.8231 46.158Z" fill="white"/>
<path fill-rule="evenodd" clip-rule="evenodd" d="M35.7431 46.05C35.9195 46.0847 36.0778 46.1807 36.1901 46.321C36.3501 46.6398 36.4395 46.9895 36.4521 47.346C36.5042 47.6647 36.4988 47.9902 36.4361 48.307C36.3795 48.5366 36.2408 48.7376 36.0461 48.8719C35.8066 49.0293 35.5317 49.1245 35.2461 49.149C34.9358 49.2038 34.6163 49.1716 34.3231 49.056C34.1127 48.9696 33.9393 48.8121 33.8331 48.611C33.7073 48.2875 33.6301 47.9471 33.6041 47.601L33.5551 47.201L34.7551 47.053L34.8551 47.882C34.8642 48.0242 34.8942 48.1644 34.9441 48.298C34.9625 48.3268 34.9896 48.349 35.0214 48.3614C35.0532 48.3738 35.0881 48.3757 35.1211 48.367C35.1605 48.3661 35.1985 48.3524 35.2292 48.3278C35.2599 48.3032 35.2817 48.2692 35.2911 48.231C35.3092 48.0306 35.2998 47.8287 35.2631 47.631L35.2201 47.278C35.2108 47.1314 35.172 46.9882 35.1061 46.857C35.0844 46.818 35.0547 46.784 35.0191 46.7571C34.9834 46.7303 34.9426 46.7111 34.8991 46.701C34.7394 46.6828 34.578 46.6862 34.4191 46.711L34.3281 45.97C34.507 45.9567 34.6838 45.9231 34.8551 45.87C34.888 45.8533 34.9165 45.8293 34.9385 45.7998C34.9606 45.7703 34.9755 45.7362 34.9821 45.7C35.0035 45.5772 35.0035 45.4517 34.9821 45.3289L34.9471 45.046C34.9413 44.9244 34.9071 44.8059 34.8471 44.7C34.8271 44.6741 34.8004 44.6543 34.7699 44.6427C34.7394 44.6311 34.7063 44.628 34.6741 44.634C34.6395 44.6345 34.6058 44.6454 34.5773 44.6652C34.5488 44.6849 34.5268 44.7127 34.5141 44.745C34.4889 44.8734 34.4889 45.0055 34.5141 45.134L34.5651 45.554L33.3651 45.702L33.3121 45.266C33.2679 45.0911 33.2624 44.9087 33.2959 44.7315C33.3294 44.5543 33.4011 44.3866 33.5061 44.24C33.7788 44.008 34.1214 43.8742 34.4791 43.86C34.6848 43.8087 34.899 43.8012 35.1077 43.8379C35.3165 43.8746 35.5153 43.9547 35.6911 44.073C35.9451 44.3276 36.0977 44.666 36.1202 45.025C36.1609 45.2356 36.1489 45.4531 36.0851 45.658C36.0075 45.8164 35.8895 45.9515 35.7431 46.05ZM38.6251 43.45L39.2511 48.55L38.0511 48.698L37.7151 45.962C37.6938 45.7232 37.6554 45.4862 37.6001 45.253C37.5863 45.2144 37.5637 45.1796 37.5343 45.1512C37.5048 45.1227 37.4692 45.1014 37.4301 45.089C37.2497 45.0548 37.0645 45.0548 36.8841 45.089L36.7651 45.104L36.6921 44.504C37.2079 44.3406 37.6447 43.9918 37.9181 43.525L38.6251 43.45Z" fill="#006A0B"/>
<path fill-rule="evenodd" clip-rule="evenodd" d="M32.0052 43.6159C30.4447 43.0487 29.0193 42.1633 27.8192 41.0159C27.0222 40.1767 26.4047 39.1838 26.0042 38.0979C25.6658 37.0266 25.5258 35.9025 25.5912 34.7809V25.3469H26.6502V26.4849H27.9502V25.3469H29.0092V26.4849H30.3092V25.3469H31.3682V26.4849H32.6682V25.3469H33.7272V26.4849H35.0272V25.3469H36.0862V26.4849H37.3862V25.3469H38.4452V34.7759C38.5107 35.8975 38.3708 37.0216 38.0322 38.0929C37.632 39.1792 37.0144 40.1725 36.2172 41.0119C35.0101 42.1641 33.5754 43.0511 32.0052 43.6159Z" fill="#FEFEFE"/>
<path fill-rule="evenodd" clip-rule="evenodd" d="M32.0052 34.457C30.2818 35.3761 28.3928 35.9434 26.4482 36.126C26.4332 35.903 26.4252 35.666 26.4202 35.411C27.286 35.3352 28.1422 35.1737 28.9762 34.929L28.0532 28.788C27.9702 28.241 28.3822 27.964 28.9012 27.964H31.1162V27.352C31.1161 27.2716 31.1322 27.1921 31.1635 27.1181C31.1948 27.0441 31.2406 26.9772 31.2982 26.9212C31.3559 26.8653 31.4241 26.8214 31.499 26.7924C31.5739 26.7633 31.6539 26.7496 31.7342 26.752H32.2752C32.3555 26.7496 32.4354 26.7633 32.5103 26.7924C32.5852 26.8214 32.6535 26.8653 32.7111 26.9212C32.7688 26.9772 32.8146 27.0441 32.8458 27.1181C32.8771 27.1921 32.8932 27.2716 32.8932 27.352V27.964H35.1082C35.6272 27.964 36.0392 28.242 35.9562 28.789L35.0332 34.93C35.8672 35.1746 36.7234 35.336 37.5892 35.412C37.5892 35.667 37.5762 35.904 37.5612 36.127C35.6168 35.9441 33.7282 35.3764 32.0052 34.457Z" fill="#006A0B"/>
<path fill-rule="evenodd" clip-rule="evenodd" d="M32.0052 39.155C30.8833 39.7504 29.6881 40.1959 28.4502 40.48L28.4152 40.444C28.2389 40.2595 28.072 40.0663 27.9152 39.865C29.3357 39.5724 30.7102 39.089 32.0012 38.428C33.2921 39.089 34.6666 39.5724 36.0872 39.865C35.9303 40.0663 35.7635 40.2595 35.5872 40.444L35.5522 40.48C34.317 40.1951 33.1246 39.7496 32.0052 39.155Z" fill="#006A0B"/>
<path fill-rule="evenodd" clip-rule="evenodd" d="M32.0052 36.843C30.4653 37.6809 28.7836 38.2268 27.0452 38.453C27.1552 38.681 27.2782 38.908 27.4132 39.131C29.0221 38.897 30.5766 38.379 32.0042 37.601C33.4317 38.3791 34.9863 38.8971 36.5952 39.131C36.7312 38.908 36.8542 38.681 36.9632 38.453C35.2254 38.2265 33.5445 37.6806 32.0052 36.843Z" fill="#006A0B"/>
<path fill-rule="evenodd" clip-rule="evenodd" d="M32.0052 36.0109C30.3575 36.8707 28.5718 37.4346 26.7292 37.6769C26.6505 37.4373 26.589 37.1923 26.5452 36.9439C28.4606 36.7682 30.3192 36.1998 32.0052 35.2739C33.6911 36.1998 35.5498 36.7682 37.4652 36.9439C37.4211 37.1919 37.3596 37.4365 37.2812 37.6759C35.4386 37.434 33.6528 36.8705 32.0052 36.0109Z" fill="#006A0B"/>
<path fill-rule="evenodd" clip-rule="evenodd" d="M29.6141 32.199C29.7399 32.1296 29.8507 32.0362 29.9403 31.924C30.0298 31.8117 30.0964 31.6829 30.1361 31.545L31.0361 29.401C31.2001 29.009 30.9941 28.823 30.6411 28.824H29.3571C29.1791 28.824 29.1411 29.024 29.1571 29.159L29.6141 32.199ZM34.3971 32.199C34.2713 32.1297 34.1605 32.0362 34.0709 31.924C33.9814 31.8118 33.9148 31.683 33.8751 31.545L32.9751 29.401C32.8101 29.009 33.0171 28.823 33.3701 28.824H34.6541C34.8321 28.824 34.8701 29.024 34.8541 29.159L34.3971 32.199Z" fill="white"/>
</g>
<defs>
<clipPath id="clip0_40_26389">
<rect width="64" height="64" fill="white"/>
</clipPath>
</defs>
</svg>
