<svg width="64" height="64" viewBox="0 0 64 64" fill="none" xmlns="http://www.w3.org/2000/svg">
<g clip-path="url(#clip0_494_10947)">
<path d="M64 32C64 14.3269 49.6731 0 32 0C14.3269 0 0 14.3269 0 32C0 49.6731 14.3269 64 32 64C49.6731 64 64 49.6731 64 32Z" fill="#EA5606"/>
<mask id="mask0_494_10947" style="mask-type:luminance" maskUnits="userSpaceOnUse" x="13" y="39" width="23" height="7">
<path d="M13 39.9648L33.8395 39.8163C33.8395 39.8163 35.7036 40.1257 35.7145 42.7304C35.731 45.3352 33.4941 45.3476 33.4941 45.3476L13.0274 45.4961" fill="white"/>
</mask>
<g mask="url(#mask0_494_10947)">
<path d="M33.8398 39.8163L34.0035 38.8298L33.9186 38.8157L33.8326 38.8163L33.8398 39.8163ZM35.7148 42.7304L34.7148 42.7347V42.7368L35.7148 42.7304ZM33.4944 45.3476L33.4888 44.3476H33.4871L33.4944 45.3476ZM13.0074 40.9648L33.8469 40.8163L33.8326 38.8163L12.9932 38.9648L13.0074 40.9648ZM33.8398 39.8163C33.6761 40.8028 33.6754 40.8027 33.6748 40.8026C33.6746 40.8026 33.6739 40.8025 33.6735 40.8024C33.6727 40.8022 33.6719 40.8021 33.6711 40.802C33.6696 40.8017 33.6681 40.8015 33.6668 40.8012C33.6641 40.8008 33.6618 40.8003 33.6599 40.8C33.6561 40.7993 33.6538 40.7988 33.6529 40.7986C33.6511 40.7982 33.6547 40.7989 33.6631 40.8012C33.6801 40.8057 33.7147 40.8158 33.7611 40.8343C33.8548 40.8717 33.9868 40.939 34.1202 41.054C34.355 41.2564 34.7105 41.7035 34.7148 42.7347L36.7148 42.7262C36.7082 41.1526 36.1262 40.1427 35.4261 39.5392C35.0921 39.2512 34.7575 39.0784 34.5014 38.9764C34.3728 38.9251 34.2616 38.8908 34.1766 38.8682C34.134 38.8569 34.0977 38.8484 34.0686 38.8423C34.054 38.8392 34.0412 38.8366 34.0303 38.8346C34.0249 38.8336 34.0199 38.8326 34.0154 38.8319C34.0132 38.8315 34.0111 38.8311 34.0091 38.8307C34.0081 38.8306 34.0071 38.8304 34.0062 38.8303C34.0057 38.8302 34.0051 38.8301 34.0048 38.83C34.0041 38.8299 34.0035 38.8298 33.8398 39.8163ZM34.7148 42.7368C34.7208 43.6859 34.3505 44.0083 34.1027 44.1545C33.9461 44.2469 33.7803 44.2978 33.6476 44.3244C33.5832 44.3372 33.5323 44.3432 33.502 44.3459C33.4871 44.3472 33.4778 44.3477 33.4752 44.3478C33.4739 44.3479 33.4742 44.3478 33.4765 44.3478C33.4776 44.3478 33.4792 44.3477 33.4812 44.3477C33.4822 44.3477 33.4834 44.3477 33.4847 44.3476C33.4853 44.3476 33.4864 44.3476 33.4871 44.3476C33.4869 44.3476 33.4874 44.3476 33.4871 44.3476C33.4877 44.3476 33.4888 44.3476 33.4944 45.3476C33.4999 46.3476 33.5005 46.3476 33.5011 46.3476C33.5013 46.3476 33.5019 46.3476 33.5023 46.3476C33.5031 46.3476 33.504 46.3476 33.5049 46.3475C33.5067 46.3475 33.5087 46.3475 33.5108 46.3475C33.515 46.3474 33.5197 46.3473 33.5251 46.3472C33.5358 46.3469 33.5487 46.3465 33.5638 46.3458C33.5939 46.3445 33.6327 46.3422 33.6789 46.3381C33.7709 46.3299 33.8945 46.3146 34.0396 46.2856C34.3259 46.2284 34.7183 46.1134 35.1189 45.8771C35.9853 45.366 36.7253 44.3797 36.7148 42.7241L34.7148 42.7368ZM33.4871 44.3476L13.0205 44.4961L13.035 46.4961L33.5011 46.3476L33.4871 44.3476Z" fill="white"/>
</g>
<path d="M13.0156 42.7296L33.411 42.5819" stroke="white" stroke-miterlimit="10"/>
<mask id="mask1_494_10947" style="mask-type:luminance" maskUnits="userSpaceOnUse" x="13" y="27" width="24" height="7">
<path d="M13.5352 27.8759L34.3746 27.7274C34.3746 27.7274 36.2387 28.0368 36.2497 30.6416C36.2661 33.2464 34.0292 33.2587 34.0292 33.2587L13.5626 33.4072" fill="white"/>
</mask>
<g mask="url(#mask1_494_10947)">
<path d="M34.3749 27.7274L34.5386 26.7409L34.4538 26.7269L34.3678 26.7275L34.3749 27.7274ZM36.25 30.6416L35.25 30.6458V30.6479L36.25 30.6416ZM34.0295 33.2587L34.024 32.2587L34.0223 32.2588L34.0295 33.2587ZM13.5426 28.8759L34.3821 28.7274L34.3678 26.7275L13.5283 26.876L13.5426 28.8759ZM34.3749 27.7274C34.2112 28.7139 34.2106 28.7138 34.2099 28.7137C34.2097 28.7137 34.2091 28.7136 34.2087 28.7135C34.2078 28.7134 34.2071 28.7132 34.2063 28.7131C34.2047 28.7129 34.2033 28.7126 34.202 28.7124C34.1993 28.7119 34.197 28.7115 34.1951 28.7111C34.1912 28.7104 34.1889 28.7099 34.188 28.7097C34.1862 28.7093 34.1899 28.7101 34.1983 28.7123C34.2153 28.7168 34.2499 28.727 34.2962 28.7454C34.39 28.7828 34.522 28.8501 34.6554 28.9651C34.8901 29.1675 35.2457 29.6147 35.25 30.6458L37.25 30.6374C37.2434 29.0637 36.6613 28.0538 35.9613 27.4503C35.6273 27.1624 35.2926 26.9896 35.0365 26.8875C34.9079 26.8363 34.7968 26.8019 34.7118 26.7793C34.6692 26.768 34.6328 26.7596 34.6037 26.7534C34.5892 26.7503 34.5764 26.7478 34.5655 26.7457C34.5601 26.7447 34.5551 26.7438 34.5506 26.743C34.5484 26.7426 34.5462 26.7422 34.5443 26.7419C34.5433 26.7417 34.5423 26.7415 34.5414 26.7414C34.5409 26.7413 34.5402 26.7412 34.54 26.7412C34.5393 26.741 34.5386 26.7409 34.3749 27.7274ZM35.25 30.6479C35.256 31.5971 34.8857 31.9194 34.6378 32.0656C34.4812 32.158 34.3155 32.209 34.1828 32.2355C34.1184 32.2484 34.0674 32.2543 34.0372 32.257C34.0223 32.2584 34.013 32.2588 34.0103 32.2589C34.009 32.259 34.0094 32.259 34.0116 32.2589C34.0127 32.2589 34.0143 32.2588 34.0164 32.2588C34.0174 32.2588 34.0185 32.2588 34.0198 32.2588C34.0204 32.2588 34.0216 32.2588 34.0223 32.2588C34.0221 32.2588 34.0227 32.2588 34.0223 32.2588C34.0228 32.2587 34.024 32.2587 34.0295 33.2587C34.0351 34.2587 34.0356 34.2587 34.0362 34.2587C34.0364 34.2587 34.037 34.2587 34.0374 34.2587C34.0383 34.2587 34.0391 34.2587 34.04 34.2587C34.0419 34.2587 34.0438 34.2586 34.0459 34.2586C34.0501 34.2585 34.0549 34.2584 34.0602 34.2583C34.0709 34.2581 34.0839 34.2576 34.099 34.257C34.1291 34.2556 34.1678 34.2533 34.214 34.2492C34.3061 34.241 34.4297 34.2257 34.5748 34.1967C34.861 34.1395 35.2534 34.0246 35.654 33.7882C36.5205 33.2771 37.2604 32.2909 37.25 30.6353L35.25 30.6479ZM34.0223 32.2588L13.5556 32.4072L13.5701 34.4072L34.0362 34.2587L34.0223 32.2588Z" fill="white"/>
</g>
<path d="M13.5547 30.6466L33.9501 30.4989" stroke="white" stroke-miterlimit="10"/>
<path d="M13.1172 35.6415H15.1129L13.1994 37.4605C13.1446 37.4605 13.1172 37.4605 13.1172 37.4605V35.6415Z" fill="white"/>
<path d="M47.2849 38.9747C44.0721 42.6003 40.0588 46.226 40.0588 46.226C40.0588 46.226 38.1838 49.8516 33.0959 49.8516C28.008 49.8516 13.1172 49.8516 13.1172 49.8516V48.0325H30.8206C30.8206 48.0325 37.5149 48.4966 37.5149 42.7549C37.5149 37.0133 30.0859 37.5455 30.0859 37.5455H13.1172L13.1994 37.4649L15.1129 35.6459H30.8206C30.8206 35.6459 37.5149 36.1099 37.5149 30.3683C37.5149 27.0396 35.0148 25.8209 32.9204 25.3816H41.4021C41.4021 25.3816 45.2564 24.6576 47.411 26.4518C47.6632 26.6622 47.8935 26.9098 48.0964 27.1944C49.9714 29.9104 49.9714 32.0264 49.9714 32.0264C49.9714 32.0264 50.4978 35.349 47.2849 38.9747Z" fill="white"/>
<path d="M47.4055 26.5949C47.3672 26.6382 47.3233 26.6877 47.2849 26.731C44.0721 30.3629 40.0588 33.9885 40.0588 33.9885C40.0588 33.9885 38.1838 37.6142 33.0959 37.6142H13.1994L15.1129 35.7952H30.8206C30.8206 35.7952 37.5149 36.2592 37.5149 30.5175C37.5149 27.1889 35.0148 25.97 32.9204 25.5307C31.4017 25.2152 30.0914 25.308 30.0914 25.308H13.1172L25.7327 13.2926L25.6011 13.1441H41.3966C41.3966 13.1441 46.2103 12.2408 48.0854 14.9569C49.9604 17.6731 49.9604 19.7891 49.9604 19.7891C49.9604 19.7891 50.4868 23.0249 47.4055 26.5949Z" fill="white"/>
</g>
<defs>
<clipPath id="clip0_494_10947">
<rect width="64" height="64" fill="white"/>
</clipPath>
</defs>
</svg>
