<svg width="64" height="64" viewBox="0 0 64 64" fill="none" xmlns="http://www.w3.org/2000/svg">
<rect width="64" height="64" rx="32" fill="#F7931E"/>
<rect x="2" y="2" width="60" height="60" rx="30" fill="#EA5606"/>
<mask id="mask0_238_440" style="mask-type:luminance" maskUnits="userSpaceOnUse" x="2" y="2" width="60" height="60">
<path d="M32 62C48.5685 62 62 48.5685 62 32C62 15.4315 48.5685 2 32 2C15.4315 2 2 15.4315 2 32C2 48.5685 15.4315 62 32 62Z" fill="white"/>
</mask>
<g mask="url(#mask0_238_440)">
<path d="M18.4273 8.4893C18.2429 8.4893 18.0977 8.34404 18.0977 8.15969C18.0977 7.97533 18.2429 7.83008 18.4273 7.83008C18.6116 7.83008 18.7569 7.97533 18.7569 8.15969C18.7569 8.34404 18.6116 8.4893 18.4273 8.4893Z" stroke="white" stroke-opacity="0.39" stroke-width="0.1" stroke-miterlimit="10"/>
<path d="M18.4297 7.83516V5.43292V2.46086V-0.84082" stroke="white" stroke-opacity="0.39" stroke-width="0.1" stroke-miterlimit="10"/>
<path d="M14.2476 14.7461C14.0632 14.7461 13.918 14.6009 13.918 14.4165C13.918 14.2322 14.0632 14.0869 14.2476 14.0869C14.4319 14.0869 14.5772 14.2322 14.5772 14.4165C14.5772 14.6009 14.4263 14.7461 14.2476 14.7461Z" stroke="white" stroke-opacity="0.39" stroke-width="0.1" stroke-miterlimit="10"/>
<path d="M14.2511 14.0866V11.6843V10.4329V9.80723V9.49996V9.34354C14.2455 9.31561 14.2623 9.29885 14.2846 9.2765L14.3405 9.22063L15.6924 7.86868L16.3684 7.1927L16.7036 6.85751L16.8712 6.68991L16.955 6.60611C16.9662 6.58935 16.9885 6.57817 16.9941 6.56141V6.49996V2.46086V-0.84082" stroke="white" stroke-opacity="0.39" stroke-width="0.1" stroke-miterlimit="10"/>
<path d="M13.2749 12.2774C13.0906 12.2774 12.9453 12.1321 12.9453 11.9478C12.9453 11.7634 13.0906 11.6182 13.2749 11.6182C13.4593 11.6182 13.6045 11.7634 13.6045 11.9478C13.6045 12.1321 13.4537 12.2774 13.2749 12.2774Z" stroke="white" stroke-opacity="0.39" stroke-width="0.1" stroke-miterlimit="10"/>
<path d="M13.2773 11.6173V9.21505V8.9022V8.74577V8.70667C13.2829 8.69549 13.2941 8.68991 13.3053 8.67873L13.3611 8.62287L14.6852 7.29885L15.3444 6.63963L15.674 6.31002L15.8416 6.14242L15.9254 6.05862L15.9645 6.01952C15.9701 6.00276 15.9645 5.98041 15.9645 5.96365V2.46086V-0.84082" stroke="white" stroke-opacity="0.39" stroke-width="0.1" stroke-miterlimit="10"/>
<path d="M29.1187 8.4893C29.3007 8.4893 29.4483 8.34172 29.4483 8.15969C29.4483 7.97765 29.3007 7.83008 29.1187 7.83008C28.9366 7.83008 28.7891 7.97765 28.7891 8.15969C28.7891 8.34172 28.9366 8.4893 29.1187 8.4893Z" stroke="white" stroke-opacity="0.39" stroke-width="0.1" stroke-miterlimit="10"/>
<path d="M29.1211 7.83516V5.43292V2.46086V-0.84082" stroke="white" stroke-opacity="0.39" stroke-width="0.1" stroke-miterlimit="10"/>
<path d="M24.9585 14.7461C24.7742 14.7461 24.6289 14.6009 24.6289 14.4165C24.6289 14.2322 24.7742 14.0869 24.9585 14.0869C25.1429 14.0869 25.2881 14.2322 25.2881 14.4165C25.2881 14.6009 25.1429 14.7461 24.9585 14.7461Z" stroke="white" stroke-opacity="0.39" stroke-width="0.1" stroke-miterlimit="10"/>
<path d="M24.962 14.0866V11.6843V10.4329V9.80723V9.49996V9.34354C24.9564 9.31561 24.9732 9.29885 24.9955 9.2765L25.0514 9.22063L26.4034 7.86868L27.0793 7.1927L27.4145 6.85751L27.5821 6.68991L27.6659 6.60611C27.6771 6.58935 27.6995 6.57817 27.705 6.56141V6.49996V2.46086V-0.84082" stroke="white" stroke-opacity="0.39" stroke-width="0.1" stroke-miterlimit="10"/>
<path d="M23.9624 12.2774C23.7781 12.2774 23.6328 12.1321 23.6328 11.9478C23.6328 11.7634 23.7781 11.6182 23.9624 11.6182C24.1468 11.6182 24.292 11.7634 24.292 11.9478C24.292 12.1321 24.1412 12.2774 23.9624 12.2774Z" stroke="white" stroke-opacity="0.39" stroke-width="0.1" stroke-miterlimit="10"/>
<path d="M23.9648 11.6173V9.21505V8.9022V8.74577V8.70667C23.9704 8.69549 23.9816 8.68991 23.9928 8.67873L24.0486 8.62287L25.3727 7.29885L26.0319 6.63963L26.3615 6.31002L26.5291 6.14242L26.6129 6.05862L26.652 6.01952C26.6576 6.00276 26.652 5.98041 26.652 5.96365V2.46086V-0.84082" stroke="white" stroke-opacity="0.39" stroke-width="0.1" stroke-miterlimit="10"/>
<path d="M22.4546 16.5059C22.2702 16.5059 22.125 16.3606 22.125 16.1763C22.125 15.9919 22.2702 15.8467 22.4546 15.8467C22.639 15.8467 22.7842 15.9919 22.7842 16.1763C22.7842 16.3551 22.639 16.5059 22.4546 16.5059Z" stroke="white" stroke-opacity="0.39" stroke-width="0.1" stroke-miterlimit="10"/>
<path d="M22.4521 15.8463V13.7458L22.2398 13.5335L21.6643 12.9581L21.3738 12.6676L21.2286 12.5223C21.1951 12.5 21.2007 12.4664 21.2007 12.4329V12.3324V10.9134V10.2039V9.85192C21.1951 9.7346 21.2342 9.60052 21.1169 9.53348L20.48 8.89661L20.1616 8.57817L20.0051 8.42175L19.9269 8.34354C19.899 8.3156 19.9213 8.27091 19.9102 8.23739V2.46086V-0.84082" stroke="white" stroke-opacity="0.39" stroke-width="0.1" stroke-miterlimit="10"/>
<path d="M23.7476 16.1309C23.5632 16.1309 23.418 15.9856 23.418 15.8013C23.418 15.6169 23.5632 15.4717 23.7476 15.4717C23.9319 15.4717 24.0772 15.6169 24.0772 15.8013C24.0772 15.9856 23.9319 16.1309 23.7476 16.1309Z" stroke="white" stroke-opacity="0.39" stroke-width="0.1" stroke-miterlimit="10"/>
<path d="M23.7372 15.4726V13.372L23.5249 13.1597L22.9495 12.5843L22.659 12.2938L22.5137 12.1486C22.4802 12.1262 22.4858 12.0927 22.4858 12.0592V11.9586V10.5396V9.83571V9.48375C22.4802 9.36644 22.5193 9.23236 22.402 9.16532L21.7651 8.52845L21.4467 8.21001L21.2903 8.05359L21.2121 7.97537C21.1841 7.94744 21.2065 7.90275 21.1953 7.86923V2.09269V-1.20898" stroke="white" stroke-opacity="0.39" stroke-width="0.1" stroke-miterlimit="10"/>
<path d="M22.7839 6.05224C22.6554 5.92375 22.6554 5.71705 22.7839 5.58856C22.9124 5.46006 23.1191 5.46006 23.2476 5.58856C23.376 5.71705 23.376 5.92375 23.2476 6.05224C23.1191 6.18073 22.9124 6.18073 22.7839 6.05224Z" stroke="white" stroke-opacity="0.39" stroke-width="0.1" stroke-miterlimit="10"/>
<path d="M23.2461 5.58935L23.9668 4.86868V3.4832V2.46086V-0.84082" stroke="white" stroke-opacity="0.39" stroke-width="0.1" stroke-miterlimit="10"/>
<path d="M25.1655 6.05224C25.037 6.18073 24.8303 6.18073 24.7018 6.05224C24.5733 5.92375 24.5733 5.71705 24.7018 5.58856C24.8303 5.46006 25.037 5.46006 25.1655 5.58856C25.294 5.71705 25.294 5.92375 25.1655 6.05224Z" stroke="white" stroke-opacity="0.39" stroke-width="0.1" stroke-miterlimit="10"/>
<path d="M24.6972 5.58935L23.9766 4.86868V3.4832V2.46086V-0.84082" stroke="white" stroke-opacity="0.39" stroke-width="0.1" stroke-miterlimit="10"/>
<path d="M30.2202 8.4893C30.0359 8.4893 29.8906 8.34404 29.8906 8.15969C29.8906 7.97533 30.0359 7.83008 30.2202 7.83008C30.4046 7.83008 30.5498 7.97533 30.5498 8.15969C30.5498 8.34404 30.4046 8.4893 30.2202 8.4893Z" stroke="white" stroke-opacity="0.39" stroke-width="0.1" stroke-miterlimit="10"/>
<path d="M30.2227 7.83516V5.43292V2.46086V-0.84082" stroke="white" stroke-opacity="0.39" stroke-width="0.1" stroke-miterlimit="10"/>
<path d="M34.3999 14.7461C34.2156 14.7461 34.0703 14.6009 34.0703 14.4165C34.0703 14.2322 34.2156 14.0869 34.3999 14.0869C34.5843 14.0869 34.7295 14.2322 34.7295 14.4165C34.7295 14.6009 34.5787 14.7461 34.3999 14.7461Z" stroke="white" stroke-opacity="0.39" stroke-width="0.1" stroke-miterlimit="10"/>
<path d="M34.4032 14.0866V11.6843V10.4329V9.80723V9.49996V9.34354C34.4088 9.31561 34.392 9.29885 34.3697 9.2765L34.3138 9.22063L32.9618 7.86868L32.2859 7.1927L31.9507 6.85751L31.7831 6.68991L31.6993 6.60611C31.6881 6.58935 31.6657 6.57817 31.6602 6.56141V6.49996V2.46086V-0.84082" stroke="white" stroke-opacity="0.39" stroke-width="0.1" stroke-miterlimit="10"/>
<path d="M35.3999 12.2774C35.2156 12.2774 35.0703 12.1321 35.0703 11.9478C35.0703 11.7634 35.2156 11.6182 35.3999 11.6182C35.5843 11.6182 35.7295 11.7634 35.7295 11.9478C35.7295 12.1321 35.5787 12.2774 35.3999 12.2774Z" stroke="white" stroke-opacity="0.39" stroke-width="0.1" stroke-miterlimit="10"/>
<path d="M35.4006 11.6173V9.21505V8.9022V8.74577V8.70667C35.395 8.69549 35.3838 8.68991 35.3726 8.67873L35.3168 8.62287L33.9928 7.29885L33.3335 6.63963L33.0039 6.31002L32.8363 6.14242L32.7525 6.05862L32.7134 6.01952C32.7078 6.00276 32.7134 5.98041 32.7134 5.96365V2.46086V-0.84082" stroke="white" stroke-opacity="0.39" stroke-width="0.1" stroke-miterlimit="10"/>
<path d="M34.0523 4.7559C33.8679 4.7559 33.7227 4.61065 33.7227 4.42629C33.7227 4.24193 33.8679 4.09668 34.0523 4.09668C34.2366 4.09668 34.3819 4.24193 34.3819 4.42629C34.3819 4.61065 34.231 4.7559 34.0523 4.7559Z" stroke="white" stroke-opacity="0.39" stroke-width="0.1" stroke-miterlimit="10"/>
<path d="M34.0547 4.10298V1.70074V-3.98641V-7.28809" stroke="white" stroke-opacity="0.39" stroke-width="0.1" stroke-miterlimit="10"/>
<path d="M43.1109 8.4893C42.9265 8.4893 42.7812 8.34404 42.7812 8.15969C42.7812 7.97533 42.9265 7.83008 43.1109 7.83008C43.2952 7.83008 43.4405 7.97533 43.4405 8.15969C43.4405 8.34404 43.2952 8.4893 43.1109 8.4893Z" stroke="white" stroke-opacity="0.39" stroke-width="0.1" stroke-miterlimit="10"/>
<path d="M43.1094 7.83516V5.43292V2.46086V-0.84082" stroke="white" stroke-opacity="0.39" stroke-width="0.1" stroke-miterlimit="10"/>
<path d="M38.9468 14.7461C38.7624 14.7461 38.6172 14.6009 38.6172 14.4165C38.6172 14.2322 38.7624 14.0869 38.9468 14.0869C39.1312 14.0869 39.2764 14.2322 39.2764 14.4165C39.2764 14.6009 39.1256 14.7461 38.9468 14.7461Z" stroke="white" stroke-opacity="0.39" stroke-width="0.1" stroke-miterlimit="10"/>
<path d="M38.9464 14.0866V11.6843V10.4329V9.80723V9.49996V9.34354C38.9408 9.31561 38.9576 9.29885 38.9799 9.2765L39.0358 9.22063L40.3877 7.86868L41.0637 7.1927L41.3989 6.85751L41.5665 6.68991L41.6503 6.60611C41.6615 6.58935 41.6838 6.57817 41.6894 6.56141V6.49996V2.46086V-0.84082" stroke="white" stroke-opacity="0.39" stroke-width="0.1" stroke-miterlimit="10"/>
<path d="M37.9468 12.2774C38.1288 12.2774 38.2764 12.1298 38.2764 11.9478C38.2764 11.7657 38.1288 11.6182 37.9468 11.6182C37.7648 11.6182 37.6172 11.7657 37.6172 11.9478C37.6172 12.1298 37.7648 12.2774 37.9468 12.2774Z" stroke="white" stroke-opacity="0.39" stroke-width="0.1" stroke-miterlimit="10"/>
<path d="M37.9453 11.6173V9.21505V8.9022V8.74577V8.70667C37.9509 8.69549 37.9621 8.68991 37.9732 8.67873L38.0291 8.62287L39.3531 7.29885L40.0124 6.63963L40.342 6.31002L40.5096 6.14242L40.5934 6.05862L40.6325 6.01952C40.638 6.00276 40.6325 5.98041 40.6325 5.96365V2.46086V-0.84082" stroke="white" stroke-opacity="0.39" stroke-width="0.1" stroke-miterlimit="10"/>
<path d="M49.6421 14.7461C49.4577 14.7461 49.3125 14.6009 49.3125 14.4165C49.3125 14.2322 49.4577 14.0869 49.6421 14.0869C49.8265 14.0869 49.9717 14.2322 49.9717 14.4165C49.9717 14.6009 49.8209 14.7461 49.6421 14.7461Z" stroke="white" stroke-opacity="0.39" stroke-width="0.1" stroke-miterlimit="10"/>
<path d="M49.6417 14.0866V11.6843V10.4329V9.80723V9.49996V9.34354C49.6361 9.31561 49.6529 9.29885 49.6752 9.2765L49.7311 9.22063L51.0831 7.86868L51.759 7.1927L52.0942 6.85751L52.2618 6.68991L52.3456 6.60611C52.3568 6.58935 52.3791 6.57817 52.3847 6.56141V6.49996V2.46086V-0.84082" stroke="white" stroke-opacity="0.39" stroke-width="0.1" stroke-miterlimit="10"/>
<path d="M48.6577 12.2774C48.4734 12.2774 48.3281 12.1321 48.3281 11.9478C48.3281 11.7634 48.4734 11.6182 48.6577 11.6182C48.8421 11.6182 48.9873 11.7634 48.9873 11.9478C48.9873 12.1321 48.8365 12.2774 48.6577 12.2774Z" stroke="white" stroke-opacity="0.39" stroke-width="0.1" stroke-miterlimit="10"/>
<path d="M48.6562 11.6173V9.21505V8.9022V8.74577V8.70667C48.6618 8.69549 48.673 8.68991 48.6842 8.67873L48.74 8.62287L50.0641 7.29885L50.7233 6.63963L51.0529 6.31002L51.2205 6.14242L51.3043 6.05862L51.3434 6.01952C51.349 6.00276 51.3434 5.98041 51.3434 5.96365V2.46086V-0.84082" stroke="white" stroke-opacity="0.39" stroke-width="0.1" stroke-miterlimit="10"/>
<path d="M39.2984 4.7559C39.114 4.7559 38.9688 4.61065 38.9688 4.42629C38.9688 4.24193 39.114 4.09668 39.2984 4.09668C39.4827 4.09668 39.628 4.24193 39.628 4.42629C39.628 4.61065 39.4771 4.7559 39.2984 4.7559Z" stroke="white" stroke-opacity="0.39" stroke-width="0.1" stroke-miterlimit="10"/>
<path d="M39.2969 4.10298V1.70074V-3.98641V-7.28809" stroke="white" stroke-opacity="0.39" stroke-width="0.1" stroke-miterlimit="10"/>
<path d="M47.1734 16.5059C46.989 16.5059 46.8438 16.3606 46.8438 16.1763C46.8438 15.9919 46.989 15.8467 47.1734 15.8467C47.3577 15.8467 47.503 15.9919 47.503 16.1763C47.503 16.3551 47.3577 16.5059 47.1734 16.5059Z" stroke="white" stroke-opacity="0.39" stroke-width="0.1" stroke-miterlimit="10"/>
<path d="M47.1669 15.8463V13.7458L46.9546 13.5335L46.3792 12.9581L46.0887 12.6676L45.9434 12.5223C45.9099 12.5 45.9155 12.4664 45.9155 12.4329V12.3324V10.9134V10.2039V9.85192C45.9099 9.7346 45.949 9.60052 45.8317 9.53348L45.1948 8.89661L44.8764 8.57817L44.72 8.42175L44.6418 8.34354C44.6138 8.3156 44.6362 8.27091 44.625 8.23739V2.46086V-0.84082" stroke="white" stroke-opacity="0.39" stroke-width="0.1" stroke-miterlimit="10"/>
<path d="M48.439 16.1309C48.2546 16.1309 48.1094 15.9856 48.1094 15.8013C48.1094 15.6169 48.2546 15.4717 48.439 15.4717C48.6233 15.4717 48.7686 15.6169 48.7686 15.8013C48.7686 15.9856 48.6233 16.1309 48.439 16.1309Z" stroke="white" stroke-opacity="0.39" stroke-width="0.1" stroke-miterlimit="10"/>
<path d="M48.4325 15.4726V13.372L48.2202 13.1597L47.6448 12.5843L47.3543 12.2938L47.2091 12.1486C47.1755 12.1262 47.1811 12.0927 47.1811 12.0592V11.9586V10.5396V9.83571V9.48375C47.1755 9.36644 47.2146 9.23236 47.0973 9.16532L46.4605 8.52845L46.142 8.21001L45.9856 8.05359L45.9074 7.97537C45.8794 7.94744 45.9018 7.90275 45.8906 7.86923V2.09269V-1.20898" stroke="white" stroke-opacity="0.39" stroke-width="0.1" stroke-miterlimit="10"/>
<path d="M35.4753 6.05224C35.3468 5.92375 35.3468 5.71705 35.4753 5.58856C35.6038 5.46006 35.8105 5.46006 35.939 5.58856C36.0675 5.71705 36.0675 5.92375 35.939 6.05224C35.8161 6.18073 35.6094 6.18073 35.4753 6.05224Z" stroke="white" stroke-opacity="0.39" stroke-width="0.1" stroke-miterlimit="10"/>
<path d="M35.9453 5.58935L36.666 4.86868V3.4832V2.46086V-0.84082" stroke="white" stroke-opacity="0.39" stroke-width="0.1" stroke-miterlimit="10"/>
<path d="M37.8726 6.05224C37.7441 6.18073 37.5374 6.18073 37.4089 6.05224C37.2804 5.92375 37.2804 5.71705 37.4089 5.58856C37.5374 5.46006 37.7441 5.46006 37.8726 5.58856C38.001 5.71705 38.001 5.92375 37.8726 6.05224Z" stroke="white" stroke-opacity="0.39" stroke-width="0.1" stroke-miterlimit="10"/>
<path d="M37.4082 5.58935L36.6875 4.86868V3.4832V2.46086V-0.84082" stroke="white" stroke-opacity="0.39" stroke-width="0.1" stroke-miterlimit="10"/>
<path d="M47.4714 6.05224C47.3429 5.92375 47.3429 5.71705 47.4714 5.58856C47.5999 5.46006 47.8066 5.46006 47.9351 5.58856C48.0636 5.71705 48.0636 5.92375 47.9351 6.05224C47.8066 6.18073 47.5999 6.18073 47.4714 6.05224Z" stroke="white" stroke-opacity="0.39" stroke-width="0.1" stroke-miterlimit="10"/>
<path d="M47.9297 5.58935L48.6504 4.86868V3.4832V2.46086V-0.84082" stroke="white" stroke-opacity="0.39" stroke-width="0.1" stroke-miterlimit="10"/>
<path d="M49.8491 6.05224C49.7206 6.18073 49.5139 6.18073 49.3854 6.05224C49.2569 5.92375 49.2569 5.71705 49.3854 5.58856C49.5139 5.46006 49.7206 5.46006 49.8491 5.58856C49.9832 5.71705 49.9832 5.92375 49.8491 6.05224Z" stroke="white" stroke-opacity="0.39" stroke-width="0.1" stroke-miterlimit="10"/>
<path d="M49.3847 5.58935L48.6641 4.86868V3.4832V2.46086V-0.84082" stroke="white" stroke-opacity="0.39" stroke-width="0.1" stroke-miterlimit="10"/>
<path d="M30.9741 15.0411C30.7898 15.0411 30.6445 14.8958 30.6445 14.7114C30.6445 14.5271 30.7898 14.3818 30.9741 14.3818C31.1585 14.3818 31.3038 14.5271 31.3038 14.7114C31.3038 14.8902 31.1585 15.0411 30.9741 15.0411Z" stroke="white" stroke-opacity="0.39" stroke-width="0.1" stroke-miterlimit="10"/>
<path d="M30.9766 14.3827V11.9805V10.3883V10.0029L33.038 7.94141" stroke="white" stroke-opacity="0.39" stroke-width="0.1" stroke-miterlimit="10"/>
<path d="M28.3804 15.0411C28.196 15.0411 28.0508 14.8958 28.0508 14.7114C28.0508 14.5271 28.196 14.3818 28.3804 14.3818C28.5647 14.3818 28.71 14.5271 28.71 14.7114C28.71 14.8902 28.5647 15.0411 28.3804 15.0411Z" stroke="white" stroke-opacity="0.39" stroke-width="0.1" stroke-miterlimit="10"/>
<path d="M28.374 14.3827V11.9805V10.3883V10.0029L26.3125 7.94141" stroke="white" stroke-opacity="0.39" stroke-width="0.1" stroke-miterlimit="10"/>
<path d="M17.7007 15.0411C17.5163 15.0411 17.3711 14.8958 17.3711 14.7114C17.3711 14.5271 17.5163 14.3818 17.7007 14.3818C17.8851 14.3818 18.0303 14.5271 18.0303 14.7114C18.0303 14.8902 17.8851 15.0411 17.7007 15.0411Z" stroke="white" stroke-opacity="0.39" stroke-width="0.1" stroke-miterlimit="10"/>
<path d="M17.6943 14.3827V11.9805V10.3883V10.0029L15.6328 7.94141" stroke="white" stroke-opacity="0.39" stroke-width="0.1" stroke-miterlimit="10"/>
<path d="M55.5 18.4302C55.5 18.2458 55.6452 18.1006 55.8296 18.1006C56.014 18.1006 56.1592 18.2458 56.1592 18.4302C56.1592 18.6146 56.014 18.7598 55.8296 18.7598C55.6452 18.7598 55.5 18.609 55.5 18.4302Z" stroke="white" stroke-opacity="0.39" stroke-width="0.1" stroke-miterlimit="10"/>
<path d="M56.1641 18.4297H58.5663H61.5328H64.8345" stroke="white" stroke-opacity="0.39" stroke-width="0.1" stroke-miterlimit="10"/>
<path d="M49.9141 14.256H52.3163H53.5677H54.1934H54.5062H54.6627C54.6906 14.2504 54.7074 14.2671 54.7297 14.2895L54.7856 14.3454L56.1375 15.6973L56.8135 16.3733L57.1487 16.7085L57.3163 16.8761L57.4001 16.9599C57.4169 16.971 57.428 16.9934 57.4448 16.999H57.5062H61.5509H64.8526" stroke="white" stroke-opacity="0.39" stroke-width="0.1" stroke-miterlimit="10"/>
<path d="M51.7344 13.2661C51.7344 13.0818 51.8796 12.9365 52.064 12.9365C52.2483 12.9365 52.3936 13.0818 52.3936 13.2661C52.3936 13.4505 52.2483 13.5957 52.064 13.5957C51.8796 13.5957 51.7344 13.4505 51.7344 13.2661Z" stroke="white" stroke-opacity="0.39" stroke-width="0.1" stroke-miterlimit="10"/>
<path d="M52.3984 13.2656H54.8007H55.1135H55.2699H55.3091C55.3202 13.2712 55.3258 13.2824 55.337 13.2936L55.3928 13.3494L56.7169 14.6734L57.3761 15.3327L57.7057 15.6623L57.8733 15.8299L57.9571 15.9137L57.9962 15.9528C58.013 15.9584 58.0353 15.9528 58.0521 15.9528H61.5549H64.8565" stroke="white" stroke-opacity="0.39" stroke-width="0.1" stroke-miterlimit="10"/>
<path d="M55.5 29.1265C55.5 28.9421 55.6452 28.7969 55.8296 28.7969C56.014 28.7969 56.1592 28.9421 56.1592 29.1265C56.1592 29.3108 56.014 29.4561 55.8296 29.4561C55.6452 29.4505 55.5 29.3053 55.5 29.1265Z" stroke="white" stroke-opacity="0.39" stroke-width="0.1" stroke-miterlimit="10"/>
<path d="M56.1641 29.126H58.5663H61.5328H64.8345" stroke="white" stroke-opacity="0.39" stroke-width="0.1" stroke-miterlimit="10"/>
<path d="M49.25 24.9546C49.25 24.7702 49.3952 24.625 49.5796 24.625C49.764 24.625 49.9092 24.7702 49.9092 24.9546C49.9092 25.139 49.764 25.2842 49.5796 25.2842C49.4008 25.2842 49.25 25.1334 49.25 24.9546Z" stroke="white" stroke-opacity="0.39" stroke-width="0.1" stroke-miterlimit="10"/>
<path d="M49.9141 24.9532H52.3163H53.5677H54.1934H54.5062H54.6627C54.6906 24.9476 54.7074 24.9644 54.7297 24.9868L54.7856 25.0426L56.1375 26.3946L56.8135 27.0706L57.1487 27.4057L57.3163 27.5733L57.4001 27.6571C57.4169 27.6683 57.428 27.6907 57.4448 27.6962H57.5062H61.5509H64.8526" stroke="white" stroke-opacity="0.39" stroke-width="0.1" stroke-miterlimit="10"/>
<path d="M51.7344 23.9654C51.7344 23.781 51.8796 23.6357 52.064 23.6357C52.2483 23.6357 52.3936 23.781 52.3936 23.9654C52.3936 24.1497 52.2483 24.295 52.064 24.295C51.8796 24.295 51.7344 24.1497 51.7344 23.9654Z" stroke="white" stroke-opacity="0.39" stroke-width="0.1" stroke-miterlimit="10"/>
<path d="M52.3984 23.9648H54.8007H55.1135H55.2699H55.3091C55.3202 23.9704 55.3258 23.9816 55.337 23.9928L55.3928 24.0486L56.7169 25.3727L57.3761 26.0319L57.7057 26.3615L57.8733 26.5291L57.9571 26.6129L57.9962 26.652C58.013 26.6576 58.0353 26.652 58.0521 26.652H61.5549H64.8565" stroke="white" stroke-opacity="0.39" stroke-width="0.1" stroke-miterlimit="10"/>
<path d="M47.4844 22.4673C47.4844 22.2829 47.6296 22.1377 47.814 22.1377C47.9983 22.1377 48.1436 22.2829 48.1436 22.4673C48.1436 22.6517 47.9983 22.7969 47.814 22.7969C47.6296 22.7969 47.4844 22.6461 47.4844 22.4673Z" stroke="white" stroke-opacity="0.39" stroke-width="0.1" stroke-miterlimit="10"/>
<path d="M48.1484 22.4677H50.249L50.4613 22.2554L51.0367 21.68L51.3272 21.3895L51.4725 21.2442C51.4948 21.2107 51.5283 21.2163 51.5619 21.2163H51.6624H53.0814H53.7909H54.1429C54.2602 21.2107 54.3942 21.2498 54.4613 21.1325L55.0982 20.4956L55.4166 20.1772L55.573 20.0208L55.6512 19.9425C55.6792 19.9146 55.7239 19.937 55.7574 19.9258H61.5283H64.83" stroke="white" stroke-opacity="0.39" stroke-width="0.1" stroke-miterlimit="10"/>
<path d="M47.8594 23.7349C47.8594 23.5505 48.0046 23.4053 48.189 23.4053C48.3733 23.4053 48.5186 23.5505 48.5186 23.7349C48.5186 23.9192 48.3733 24.0645 48.189 24.0645C48.0102 24.0645 47.8594 23.9137 47.8594 23.7349Z" stroke="white" stroke-opacity="0.39" stroke-width="0.1" stroke-miterlimit="10"/>
<path d="M48.5234 23.7343H50.624L50.8363 23.522L51.4117 22.9466L51.7022 22.6561L51.8475 22.5108C51.8698 22.4773 51.9033 22.4829 51.9368 22.4829H52.0374H53.4564H54.1659H54.5178C54.6352 22.4773 54.7692 22.5164 54.8363 22.3991L55.4732 21.7622L55.7916 21.4438L55.948 21.2874L56.0262 21.2091C56.0542 21.1812 56.0989 21.2036 56.1324 21.1924H61.9033H65.205" stroke="white" stroke-opacity="0.39" stroke-width="0.1" stroke-miterlimit="10"/>
<path d="M57.9479 22.7682C58.0764 22.6398 58.2831 22.6398 58.4116 22.7682C58.5401 22.8967 58.5401 23.1034 58.4116 23.2319C58.2831 23.3604 58.0764 23.3604 57.9479 23.2319C57.8194 23.109 57.8194 22.8967 57.9479 22.7682Z" stroke="white" stroke-opacity="0.39" stroke-width="0.1" stroke-miterlimit="10"/>
<path d="M58.4141 23.2383L59.1291 23.9534H60.5146H61.537H64.8386" stroke="white" stroke-opacity="0.39" stroke-width="0.1" stroke-miterlimit="10"/>
<path d="M57.9479 25.1597C57.8194 25.0312 57.8194 24.8245 57.9479 24.696C58.0764 24.5675 58.2831 24.5675 58.4116 24.696C58.5401 24.8245 58.5401 25.0312 58.4116 25.1597C58.2887 25.2882 58.0764 25.2882 57.9479 25.1597Z" stroke="white" stroke-opacity="0.39" stroke-width="0.1" stroke-miterlimit="10"/>
<path d="M58.4141 24.6907L59.1291 23.9756H60.5146H61.537H64.8386" stroke="white" stroke-opacity="0.39" stroke-width="0.1" stroke-miterlimit="10"/>
<path d="M55.5 30.2329C55.5 30.0486 55.6452 29.9033 55.8296 29.9033C56.014 29.9033 56.1592 30.0486 56.1592 30.2329C56.1592 30.4173 56.014 30.5625 55.8296 30.5625C55.6452 30.5625 55.5 30.4117 55.5 30.2329Z" stroke="white" stroke-opacity="0.39" stroke-width="0.1" stroke-miterlimit="10"/>
<path d="M56.1641 30.2334H58.5663H61.5328H64.8345" stroke="white" stroke-opacity="0.39" stroke-width="0.1" stroke-miterlimit="10"/>
<path d="M49.25 34.3999C49.25 34.2156 49.3952 34.0703 49.5796 34.0703C49.764 34.0703 49.9092 34.2156 49.9092 34.3999C49.9092 34.5843 49.764 34.7295 49.5796 34.7295C49.4008 34.7295 49.25 34.5843 49.25 34.3999Z" stroke="white" stroke-opacity="0.39" stroke-width="0.1" stroke-miterlimit="10"/>
<path d="M49.9141 34.4002H52.3163H53.5677H54.1934H54.5062H54.6627C54.6906 34.4058 54.7074 34.3891 54.7297 34.3667L54.7856 34.3109L56.1375 32.9589L56.8135 32.2829L57.1487 31.9477L57.3163 31.7801L57.4001 31.6963C57.4169 31.6852 57.428 31.6628 57.4448 31.6572H57.5062H61.5509H64.8526" stroke="white" stroke-opacity="0.39" stroke-width="0.1" stroke-miterlimit="10"/>
<path d="M51.7344 35.3882C51.7344 35.2038 51.8796 35.0586 52.064 35.0586C52.2483 35.0586 52.3936 35.2038 52.3936 35.3882C52.3936 35.5726 52.2483 35.7178 52.064 35.7178C51.8796 35.7178 51.7344 35.5726 51.7344 35.3882Z" stroke="white" stroke-opacity="0.39" stroke-width="0.1" stroke-miterlimit="10"/>
<path d="M52.3984 35.3889H54.8007H55.1135H55.2699H55.3091C55.3202 35.3833 55.3258 35.3721 55.337 35.3609L55.3928 35.3051L56.7169 33.981L57.3761 33.3218L57.7057 32.9922L57.8733 32.8246L57.9571 32.7408L57.9962 32.7017C58.013 32.6961 58.0353 32.7017 58.0521 32.7017H61.5549H64.8565" stroke="white" stroke-opacity="0.39" stroke-width="0.1" stroke-miterlimit="10"/>
<path d="M59.2266 34.0425C59.2266 33.8581 59.3718 33.7129 59.5562 33.7129C59.7405 33.7129 59.8858 33.8581 59.8858 34.0425C59.8858 34.2269 59.7405 34.3721 59.5562 34.3721C59.3718 34.3721 59.2266 34.2269 59.2266 34.0425Z" stroke="white" stroke-opacity="0.39" stroke-width="0.1" stroke-miterlimit="10"/>
<path d="M59.8906 34.042H62.2929H67.98H71.2761" stroke="white" stroke-opacity="0.39" stroke-width="0.1" stroke-miterlimit="10"/>
<path d="M55.5 43.1099C55.5 42.9255 55.6452 42.7803 55.8296 42.7803C56.014 42.7803 56.1592 42.9255 56.1592 43.1099C56.1592 43.2942 56.014 43.4395 55.8296 43.4395C55.6452 43.4395 55.5 43.2887 55.5 43.1099Z" stroke="white" stroke-opacity="0.39" stroke-width="0.1" stroke-miterlimit="10"/>
<path d="M56.1641 43.1104H58.5663H61.5328H64.8345" stroke="white" stroke-opacity="0.39" stroke-width="0.1" stroke-miterlimit="10"/>
<path d="M49.25 38.9361C49.25 38.7517 49.3952 38.6064 49.5796 38.6064C49.764 38.6064 49.9092 38.7517 49.9092 38.9361C49.9092 39.1204 49.764 39.2657 49.5796 39.2657C49.4008 39.2657 49.25 39.1204 49.25 38.9361Z" stroke="white" stroke-opacity="0.39" stroke-width="0.1" stroke-miterlimit="10"/>
<path d="M49.9141 38.9347H52.3163H53.5677H54.1934H54.5062H54.6627C54.6906 38.9291 54.7074 38.9458 54.7297 38.9682L54.7856 39.0241L56.1375 40.376L56.8135 41.052L57.1487 41.3872L57.3163 41.5548L57.4001 41.6386C57.4169 41.6498 57.428 41.6721 57.4448 41.6777H57.5062H61.5509H64.8526" stroke="white" stroke-opacity="0.39" stroke-width="0.1" stroke-miterlimit="10"/>
<path d="M51.7344 37.9536C51.7344 37.7693 51.8796 37.624 52.064 37.624C52.2483 37.624 52.3936 37.7693 52.3936 37.9536C52.3936 38.138 52.2483 38.2832 52.064 38.2832C51.8796 38.2832 51.7344 38.1324 51.7344 37.9536Z" stroke="white" stroke-opacity="0.39" stroke-width="0.1" stroke-miterlimit="10"/>
<path d="M52.3984 37.9531H54.8007H55.1135H55.2699H55.3091C55.3202 37.9587 55.3258 37.9699 55.337 37.9811L55.3928 38.0369L56.7169 39.3609L57.3761 40.0202L57.7057 40.3498L57.8733 40.5174L57.9571 40.6012L57.9962 40.6403C58.013 40.6459 58.0353 40.6403 58.0521 40.6403H61.5549H64.8565" stroke="white" stroke-opacity="0.39" stroke-width="0.1" stroke-miterlimit="10"/>
<path d="M50.0781 49.6358H52.3128H53.5642H54.1899H54.5027H54.6591C54.6871 49.6303 54.7038 49.647 54.7262 49.6694L54.782 49.7252L56.134 51.0772L56.81 51.7532L57.1452 52.0884L57.3128 52.256L57.3966 52.3398C57.4133 52.3509 57.4245 52.3733 57.4413 52.3789H57.5027H61.5474H64.8491" stroke="white" stroke-opacity="0.39" stroke-width="0.1" stroke-miterlimit="10"/>
<path d="M51.7344 48.646C51.7344 48.4617 51.8796 48.3164 52.064 48.3164C52.2483 48.3164 52.3936 48.4617 52.3936 48.646C52.3936 48.8304 52.2483 48.9756 52.064 48.9756C51.8796 48.9756 51.7344 48.8304 51.7344 48.646Z" stroke="white" stroke-opacity="0.39" stroke-width="0.1" stroke-miterlimit="10"/>
<path d="M52.3984 48.6455H54.8007H55.1135H55.2699H55.3091C55.3202 48.6511 55.3258 48.6623 55.337 48.6734L55.3928 48.7293L56.7169 50.0533L57.3761 50.7125L57.7057 51.0422L57.8733 51.2098L57.9571 51.2936L57.9962 51.3327C58.013 51.3383 58.0353 51.3327 58.0521 51.3327H61.5549H64.8565" stroke="white" stroke-opacity="0.39" stroke-width="0.1" stroke-miterlimit="10"/>
<path d="M59.2266 39.2945C59.2266 39.1101 59.3718 38.9648 59.5562 38.9648C59.7405 38.9648 59.8858 39.1101 59.8858 39.2945C59.8858 39.4788 59.7405 39.6241 59.5562 39.6241C59.3718 39.6241 59.2266 39.4788 59.2266 39.2945Z" stroke="white" stroke-opacity="0.39" stroke-width="0.1" stroke-miterlimit="10"/>
<path d="M59.8906 39.2949H62.2929H67.98H71.2761" stroke="white" stroke-opacity="0.39" stroke-width="0.1" stroke-miterlimit="10"/>
<path d="M47.4844 47.1499C47.4844 46.9656 47.6296 46.8203 47.814 46.8203C47.9983 46.8203 48.1436 46.9656 48.1436 47.1499C48.1436 47.3343 47.9983 47.4795 47.814 47.4795C47.6296 47.4795 47.4844 47.3287 47.4844 47.1499Z" stroke="white" stroke-opacity="0.39" stroke-width="0.1" stroke-miterlimit="10"/>
<path d="M48.1484 47.1483H50.249L50.4613 46.9361L51.0367 46.3606L51.3272 46.0701L51.4725 45.9249C51.4948 45.8914 51.5283 45.8969 51.5619 45.8969H51.6624H53.0814H53.7909H54.1429C54.2602 45.8914 54.3942 45.9305 54.4613 45.8131L55.0982 45.1763L55.4166 44.8578L55.573 44.7014L55.6512 44.6232C55.6792 44.5953 55.7239 44.6176 55.7574 44.6064H61.5283H64.83" stroke="white" stroke-opacity="0.39" stroke-width="0.1" stroke-miterlimit="10"/>
<path d="M47.8594 48.4195C47.8594 48.2351 48.0046 48.0898 48.189 48.0898C48.3733 48.0898 48.5186 48.2351 48.5186 48.4195C48.5186 48.6038 48.3733 48.7491 48.189 48.7491C48.0102 48.7491 47.8594 48.6038 47.8594 48.4195Z" stroke="white" stroke-opacity="0.39" stroke-width="0.1" stroke-miterlimit="10"/>
<path d="M48.5234 48.4179H50.624L50.8363 48.2056L51.4117 47.6302L51.7022 47.3397L51.8475 47.1944C51.8698 47.1609 51.9033 47.1665 51.9368 47.1665H52.0374H53.4564H54.1659H54.5178C54.6352 47.1609 54.7692 47.2 54.8363 47.0827L55.4732 46.4458L55.7916 46.1274L55.948 45.971L56.0262 45.8927C56.0542 45.8648 56.0989 45.8871 56.1324 45.876H61.9033H65.205" stroke="white" stroke-opacity="0.39" stroke-width="0.1" stroke-miterlimit="10"/>
<path d="M57.9479 35.4665C58.0764 35.338 58.2831 35.338 58.4116 35.4665C58.5401 35.595 58.5401 35.8017 58.4116 35.9302C58.2831 36.0587 58.0764 36.0587 57.9479 35.9302C57.8194 35.8017 57.8194 35.595 57.9479 35.4665Z" stroke="white" stroke-opacity="0.39" stroke-width="0.1" stroke-miterlimit="10"/>
<path d="M58.4141 35.9307L59.1291 36.6513H60.5146H61.537H64.8386" stroke="white" stroke-opacity="0.39" stroke-width="0.1" stroke-miterlimit="10"/>
<path d="M57.9479 37.852C57.8194 37.7236 57.8194 37.5169 57.9479 37.3884C58.0764 37.2599 58.2831 37.2599 58.4116 37.3884C58.5401 37.5169 58.5401 37.7236 58.4116 37.852C58.2887 37.9805 58.0764 37.9805 57.9479 37.852Z" stroke="white" stroke-opacity="0.39" stroke-width="0.1" stroke-miterlimit="10"/>
<path d="M58.4141 37.3886L59.1291 36.668H60.5146H61.537H64.8386" stroke="white" stroke-opacity="0.39" stroke-width="0.1" stroke-miterlimit="10"/>
<path d="M57.9479 47.4577C58.0764 47.3292 58.2831 47.3292 58.4116 47.4577C58.5401 47.5862 58.5401 47.7929 58.4116 47.9214C58.2831 48.0499 58.0764 48.0499 57.9479 47.9214C57.8194 47.7929 57.8194 47.5862 57.9479 47.4577Z" stroke="white" stroke-opacity="0.39" stroke-width="0.1" stroke-miterlimit="10"/>
<path d="M58.4141 47.9219L59.1291 48.6425H60.5146H61.537H64.8386" stroke="white" stroke-opacity="0.39" stroke-width="0.1" stroke-miterlimit="10"/>
<path d="M57.9479 49.8423C57.8194 49.7138 57.8194 49.5071 57.9479 49.3786C58.0764 49.2501 58.2831 49.2501 58.4116 49.3786C58.5401 49.5071 58.5401 49.7138 58.4116 49.8423C58.2887 49.9708 58.0764 49.9708 57.9479 49.8423Z" stroke="white" stroke-opacity="0.39" stroke-width="0.1" stroke-miterlimit="10"/>
<path d="M58.4141 49.3789L59.1291 48.6582H60.5146H61.537H64.8386" stroke="white" stroke-opacity="0.39" stroke-width="0.1" stroke-miterlimit="10"/>
<path d="M48.9609 30.9644C48.9609 30.78 49.1062 30.6348 49.2905 30.6348C49.4749 30.6348 49.6202 30.78 49.6202 30.9644C49.6202 31.1487 49.4749 31.294 49.2905 31.294C49.1062 31.294 48.9609 31.1487 48.9609 30.9644Z" stroke="white" stroke-opacity="0.39" stroke-width="0.1" stroke-miterlimit="10"/>
<path d="M49.625 30.9639H52.0216H53.6138H53.9993L56.0608 33.0309" stroke="white" stroke-opacity="0.39" stroke-width="0.1" stroke-miterlimit="10"/>
<path d="M48.9609 28.3833C48.9609 28.199 49.1062 28.0537 49.2905 28.0537C49.4749 28.0537 49.6202 28.199 49.6202 28.3833C49.6202 28.5677 49.4749 28.7129 49.2905 28.7129C49.1062 28.7129 48.9609 28.5621 48.9609 28.3833Z" stroke="white" stroke-opacity="0.39" stroke-width="0.1" stroke-miterlimit="10"/>
<path d="M49.625 28.3827H52.0216H53.6138H53.9993L56.0608 26.3213" stroke="white" stroke-opacity="0.39" stroke-width="0.1" stroke-miterlimit="10"/>
<path d="M48.9609 17.6929C48.9609 17.5085 49.1062 17.3633 49.2905 17.3633C49.4749 17.3633 49.6202 17.5085 49.6202 17.6929C49.6202 17.8772 49.4749 18.0225 49.2905 18.0225C49.1062 18.0225 48.9609 17.8717 48.9609 17.6929Z" stroke="white" stroke-opacity="0.39" stroke-width="0.1" stroke-miterlimit="10"/>
<path d="M49.625 17.6913H52.0216H53.6138H53.9993L56.0608 15.6299" stroke="white" stroke-opacity="0.39" stroke-width="0.1" stroke-miterlimit="10"/>
<path d="M45.5562 55.5127C45.7405 55.5127 45.8858 55.6579 45.8858 55.8423C45.8858 56.0267 45.7405 56.1719 45.5562 56.1719C45.3718 56.1719 45.2266 56.0267 45.2266 55.8423C45.2266 55.6579 45.3718 55.5127 45.5562 55.5127Z" stroke="white" stroke-opacity="0.39" stroke-width="0.1" stroke-miterlimit="10"/>
<path d="M45.5547 56.166V58.5683V61.5403V64.842" stroke="white" stroke-opacity="0.39" stroke-width="0.1" stroke-miterlimit="10"/>
<path d="M49.7359 49.2559C49.9202 49.2559 50.0655 49.4011 50.0655 49.5855C50.0655 49.7698 49.9202 49.9151 49.7359 49.9151C49.5515 49.9151 49.4062 49.7698 49.4062 49.5855C49.4063 49.4011 49.5571 49.2559 49.7359 49.2559Z" stroke="white" stroke-opacity="0.39" stroke-width="0.1" stroke-miterlimit="10"/>
<path d="M49.743 49.916V52.3183V53.5696V54.1953V54.5082V54.6646C49.7486 54.6926 49.7318 54.7093 49.7095 54.7317L49.6536 54.7875L48.3017 56.1395L47.6257 56.8155L47.2905 57.1507L47.1229 57.3183L47.0391 57.402C47.0279 57.4188 47.0056 57.43 47 57.4467V57.5082V61.5529V64.8546" stroke="white" stroke-opacity="0.39" stroke-width="0.1" stroke-miterlimit="10"/>
<path d="M50.728 52.3848C50.9101 52.3848 51.0577 52.2372 51.0577 52.0552C51.0577 51.8732 50.9101 51.7256 50.728 51.7256C50.546 51.7256 50.3984 51.8732 50.3984 52.0552C50.3984 52.2372 50.546 52.3848 50.728 52.3848Z" stroke="white" stroke-opacity="0.39" stroke-width="0.1" stroke-miterlimit="10"/>
<path d="M50.7287 52.3857V54.788V55.1008V55.2573V55.2964C50.7231 55.3075 50.7119 55.3131 50.7008 55.3243L50.6449 55.3802L49.3209 56.7042L48.6617 57.3634L48.3321 57.693L48.1645 57.8606L48.0807 57.9444L48.0415 57.9835C48.036 58.0003 48.0415 58.0226 48.0415 58.0394V61.5422V64.8438" stroke="white" stroke-opacity="0.39" stroke-width="0.1" stroke-miterlimit="10"/>
<path d="M34.8648 56.1661C35.0468 56.1661 35.1944 56.0185 35.1944 55.8364C35.1944 55.6544 35.0468 55.5068 34.8648 55.5068C34.6827 55.5068 34.5352 55.6544 34.5352 55.8364C34.5352 56.0185 34.6827 56.1661 34.8648 56.1661Z" stroke="white" stroke-opacity="0.39" stroke-width="0.1" stroke-miterlimit="10"/>
<path d="M34.8672 56.167V58.5692V61.5413V64.843" stroke="white" stroke-opacity="0.39" stroke-width="0.1" stroke-miterlimit="10"/>
<path d="M39.0249 49.2559C39.2093 49.2559 39.3545 49.4011 39.3545 49.5855C39.3545 49.7698 39.2093 49.9151 39.0249 49.9151C38.8406 49.9151 38.6953 49.7698 38.6953 49.5855C38.6953 49.4011 38.8406 49.2559 39.0249 49.2559Z" stroke="white" stroke-opacity="0.39" stroke-width="0.1" stroke-miterlimit="10"/>
<path d="M39.0321 49.916V52.3183V53.5696V54.1953V54.5082V54.6646C39.0377 54.6926 39.0209 54.7093 38.9986 54.7317L38.9427 54.7875L37.5907 56.1395L36.9148 56.8155L36.5796 57.1507L36.412 57.3183L36.3282 57.402C36.317 57.4188 36.2946 57.43 36.2891 57.4467V57.5082V61.5529V64.8546" stroke="white" stroke-opacity="0.39" stroke-width="0.1" stroke-miterlimit="10"/>
<path d="M40.0093 51.7256C40.1937 51.7256 40.3389 51.8708 40.3389 52.0552C40.3389 52.2395 40.1937 52.3848 40.0093 52.3848C39.8249 52.3848 39.6797 52.2395 39.6797 52.0552C39.6797 51.8708 39.8305 51.7256 40.0093 51.7256Z" stroke="white" stroke-opacity="0.39" stroke-width="0.1" stroke-miterlimit="10"/>
<path d="M40.0099 52.3857V54.788V55.1008V55.2573V55.2964C40.0044 55.3075 39.9932 55.3131 39.982 55.3243L39.9261 55.3802L38.6021 56.7042L37.9429 57.3634L37.6133 57.693L37.4457 57.8606L37.3619 57.9444L37.3228 57.9835C37.3172 58.0003 37.3228 58.0226 37.3228 58.0394V61.5422V64.8438" stroke="white" stroke-opacity="0.39" stroke-width="0.1" stroke-miterlimit="10"/>
<path d="M41.5249 47.4961C41.7093 47.4961 41.8545 47.6413 41.8545 47.8257C41.8545 48.0101 41.7093 48.1553 41.5249 48.1553C41.3406 48.1553 41.1953 48.0101 41.1953 47.8257C41.1953 47.6469 41.3406 47.4961 41.5249 47.4961Z" stroke="white" stroke-opacity="0.39" stroke-width="0.1" stroke-miterlimit="10"/>
<path d="M41.5234 48.1553V50.2558L41.7357 50.4681L42.3111 51.0435L42.6016 51.334L42.7469 51.4793C42.7804 51.5016 42.7748 51.5352 42.7748 51.5687V51.6692V53.0882V53.7977V54.1497C42.7804 54.267 42.7413 54.4011 42.8586 54.4681L43.4955 55.105L43.8139 55.4234L43.9704 55.5799L44.0486 55.6581C44.0765 55.686 44.0542 55.7307 44.0653 55.7642V61.5352V64.8368" stroke="white" stroke-opacity="0.39" stroke-width="0.1" stroke-miterlimit="10"/>
<path d="M40.2671 47.8691C40.4515 47.8691 40.5967 48.0144 40.5967 48.1987C40.5967 48.3831 40.4515 48.5284 40.2671 48.5284C40.0828 48.5284 39.9375 48.3831 39.9375 48.1987C39.9375 48.0144 40.0828 47.8691 40.2671 47.8691Z" stroke="white" stroke-opacity="0.39" stroke-width="0.1" stroke-miterlimit="10"/>
<path d="M40.2656 48.5225V50.623L40.4779 50.8353L41.0533 51.4107L41.3438 51.7012L41.4891 51.8465C41.5226 51.8688 41.517 51.9023 41.517 51.9359V52.0364V53.4554V54.1649V54.5169C41.5226 54.6342 41.4835 54.7683 41.6008 54.8353L42.2377 55.4722L42.5561 55.7906L42.7126 55.947L42.7908 56.0253C42.8187 56.0532 42.7964 56.0979 42.8075 56.1314V61.9023V65.204" stroke="white" stroke-opacity="0.39" stroke-width="0.1" stroke-miterlimit="10"/>
<path d="M41.2085 57.9489C41.337 58.0774 41.337 58.2841 41.2085 58.4126C41.08 58.5411 40.8733 58.5411 40.7448 58.4126C40.6163 58.2841 40.6163 58.0774 40.7448 57.9489C40.8733 57.8204 41.08 57.8204 41.2085 57.9489Z" stroke="white" stroke-opacity="0.39" stroke-width="0.1" stroke-miterlimit="10"/>
<path d="M40.7441 58.4121L40.0234 59.1328V60.5183V61.5406V64.8423" stroke="white" stroke-opacity="0.39" stroke-width="0.1" stroke-miterlimit="10"/>
<path d="M38.8229 57.9489C38.9514 57.8204 39.1581 57.8204 39.2866 57.9489C39.4151 58.0774 39.4151 58.2841 39.2866 58.4126C39.1581 58.5411 38.9514 58.5411 38.8229 58.4126C38.6944 58.2841 38.6944 58.0774 38.8229 57.9489Z" stroke="white" stroke-opacity="0.39" stroke-width="0.1" stroke-miterlimit="10"/>
<path d="M39.2812 58.4121L40.0019 59.1328V60.5183V61.5406V64.8423" stroke="white" stroke-opacity="0.39" stroke-width="0.1" stroke-miterlimit="10"/>
<path d="M33.7515 55.5127C33.9358 55.5127 34.0811 55.6579 34.0811 55.8423C34.0811 56.0267 33.9358 56.1719 33.7515 56.1719C33.5671 56.1719 33.4219 56.0267 33.4219 55.8423C33.4219 55.6579 33.5671 55.5127 33.7515 55.5127Z" stroke="white" stroke-opacity="0.39" stroke-width="0.1" stroke-miterlimit="10"/>
<path d="M33.7539 56.166V58.5683V61.5403V64.842" stroke="white" stroke-opacity="0.39" stroke-width="0.1" stroke-miterlimit="10"/>
<path d="M29.5796 49.2559C29.764 49.2559 29.9092 49.4011 29.9092 49.5855C29.9092 49.7698 29.764 49.9151 29.5796 49.9151C29.3953 49.9151 29.25 49.7698 29.25 49.5855C29.25 49.4011 29.4008 49.2559 29.5796 49.2559Z" stroke="white" stroke-opacity="0.39" stroke-width="0.1" stroke-miterlimit="10"/>
<path d="M29.5831 49.916V52.3183V53.5696V54.1953V54.5082V54.6646C29.5775 54.6926 29.5943 54.7093 29.6166 54.7317L29.6725 54.7875L31.0245 56.1395L31.7004 56.8155L32.0356 57.1507L32.2032 57.3183L32.287 57.402C32.2982 57.4188 32.3205 57.43 32.3261 57.4467V57.5082V61.5529V64.8546" stroke="white" stroke-opacity="0.39" stroke-width="0.1" stroke-miterlimit="10"/>
<path d="M28.603 51.7256C28.7874 51.7256 28.9327 51.8708 28.9327 52.0552C28.9327 52.2395 28.7874 52.3848 28.603 52.3848C28.4187 52.3848 28.2734 52.2395 28.2734 52.0552C28.2734 51.8708 28.4243 51.7256 28.603 51.7256Z" stroke="white" stroke-opacity="0.39" stroke-width="0.1" stroke-miterlimit="10"/>
<path d="M28.6055 52.3857V54.788V55.1008V55.2573V55.2964C28.6111 55.3075 28.6222 55.3131 28.6334 55.3243L28.6893 55.3802L30.0133 56.7042L30.6725 57.3634L31.0021 57.693L31.1697 57.8606L31.2535 57.9444L31.2926 57.9835C31.2982 58.0003 31.2926 58.0226 31.2926 58.0394V61.5422V64.8438" stroke="white" stroke-opacity="0.39" stroke-width="0.1" stroke-miterlimit="10"/>
<path d="M29.9273 59.2451C30.1116 59.2451 30.2569 59.3904 30.2569 59.5747C30.2569 59.7591 30.1116 59.9043 29.9273 59.9043C29.7429 59.9043 29.5977 59.7591 29.5977 59.5747C29.5977 59.3904 29.7485 59.2451 29.9273 59.2451Z" stroke="white" stroke-opacity="0.39" stroke-width="0.1" stroke-miterlimit="10"/>
<path d="M29.9297 59.8984V62.3007V67.9878V71.2895" stroke="white" stroke-opacity="0.39" stroke-width="0.1" stroke-miterlimit="10"/>
<path d="M20.9038 55.5127C21.0882 55.5127 21.2334 55.6579 21.2334 55.8423C21.2334 56.0267 21.0882 56.1719 20.9038 56.1719C20.7195 56.1719 20.5742 56.0267 20.5742 55.8423C20.5742 55.6579 20.7195 55.5127 20.9038 55.5127Z" stroke="white" stroke-opacity="0.39" stroke-width="0.1" stroke-miterlimit="10"/>
<path d="M20.9062 56.166V58.5683V61.5403V64.842" stroke="white" stroke-opacity="0.39" stroke-width="0.1" stroke-miterlimit="10"/>
<path d="M25.0523 49.2559C25.2366 49.2559 25.3819 49.4011 25.3819 49.5855C25.3819 49.7698 25.2366 49.9151 25.0523 49.9151C24.8679 49.9151 24.7227 49.7698 24.7227 49.5855C24.7227 49.4011 24.8735 49.2559 25.0523 49.2559Z" stroke="white" stroke-opacity="0.39" stroke-width="0.1" stroke-miterlimit="10"/>
<path d="M25.0555 49.916V52.3183V53.5696V54.1953V54.5082V54.6646C25.0611 54.6926 25.0443 54.7093 25.022 54.7317L24.9661 54.7875L23.6142 56.1395L22.9382 56.8155L22.603 57.1507L22.4354 57.3183L22.3516 57.402C22.3404 57.4188 22.3181 57.43 22.3125 57.4467V57.5082V61.5529V64.8546" stroke="white" stroke-opacity="0.39" stroke-width="0.1" stroke-miterlimit="10"/>
<path d="M26.352 52.1126C26.3813 51.9329 26.2593 51.7636 26.0796 51.7343C25.9 51.7051 25.7306 51.827 25.7014 52.0067C25.6721 52.1864 25.7941 52.3557 25.9738 52.385C26.1534 52.4142 26.3228 52.2922 26.352 52.1126Z" stroke="white" stroke-opacity="0.39" stroke-width="0.1" stroke-miterlimit="10"/>
<path d="M26.0256 52.3867V54.789V55.1018V55.2582V55.2973C26.02 55.3085 26.0088 55.3141 25.9976 55.3253L25.9418 55.3811L24.6177 56.7052L23.9585 57.3644L23.6289 57.694L23.4613 57.8616L23.3775 57.9454L23.3384 57.9845C23.3328 58.0012 23.3384 58.0236 23.3384 58.0404V61.5431V64.8448" stroke="white" stroke-opacity="0.39" stroke-width="0.1" stroke-miterlimit="10"/>
<path d="M14.3452 49.2559C14.5296 49.2559 14.6748 49.4011 14.6748 49.5855C14.6748 49.7698 14.5296 49.9151 14.3452 49.9151C14.1609 49.9151 14.0156 49.7698 14.0156 49.5855C14.0156 49.4011 14.1665 49.2559 14.3452 49.2559Z" stroke="white" stroke-opacity="0.39" stroke-width="0.1" stroke-miterlimit="10"/>
<path d="M14.3485 49.916V52.3183V53.5696V54.1953V54.5082V54.6646C14.3541 54.6926 14.3373 54.7093 14.315 54.7317L14.2591 54.7875L12.9071 56.1395L12.2312 56.8155L11.896 57.1507L11.7284 57.3183L11.6446 57.402C11.6334 57.4188 11.6111 57.43 11.6055 57.4467V57.5082V61.5529V64.8546" stroke="white" stroke-opacity="0.39" stroke-width="0.1" stroke-miterlimit="10"/>
<path d="M15.3491 51.7256C15.5335 51.7256 15.6787 51.8708 15.6787 52.0552C15.6787 52.2395 15.5335 52.3848 15.3491 52.3848C15.1648 52.3848 15.0195 52.2395 15.0195 52.0552C15.0195 51.8708 15.1704 51.7256 15.3491 51.7256Z" stroke="white" stroke-opacity="0.39" stroke-width="0.1" stroke-miterlimit="10"/>
<path d="M15.3459 52.3857V54.788V55.1008V55.2573V55.2964C15.3403 55.3075 15.3291 55.3131 15.318 55.3243L15.2621 55.3802L13.9381 56.7042L13.2788 57.3634L12.9492 57.693L12.7816 57.8606L12.6978 57.9444L12.6587 57.9835C12.6531 58.0003 12.6587 58.0226 12.6587 58.0394V61.5422V64.8438" stroke="white" stroke-opacity="0.39" stroke-width="0.1" stroke-miterlimit="10"/>
<path d="M24.7007 59.2451C24.8851 59.2451 25.0303 59.3904 25.0303 59.5747C25.0303 59.7591 24.8851 59.9043 24.7007 59.9043C24.5163 59.9043 24.3711 59.7591 24.3711 59.5747C24.3711 59.3904 24.5219 59.2451 24.7007 59.2451Z" stroke="white" stroke-opacity="0.39" stroke-width="0.1" stroke-miterlimit="10"/>
<path d="M24.7031 59.8984V62.3007V67.9878V71.2895" stroke="white" stroke-opacity="0.39" stroke-width="0.1" stroke-miterlimit="10"/>
<path d="M16.8452 48.1553C17.0273 48.1553 17.1748 48.0077 17.1748 47.8257C17.1748 47.6437 17.0273 47.4961 16.8452 47.4961C16.6632 47.4961 16.5156 47.6437 16.5156 47.8257C16.5156 48.0077 16.6632 48.1553 16.8452 48.1553Z" stroke="white" stroke-opacity="0.39" stroke-width="0.1" stroke-miterlimit="10"/>
<path d="M16.8477 48.1553V50.2558L17.0599 50.4681L17.6354 51.0435L17.9259 51.334L18.0711 51.4793C18.1046 51.5016 18.0991 51.5352 18.0991 51.5687V51.6692V53.0882V53.7977V54.1497C18.1046 54.267 18.0655 54.4011 18.1828 54.4681L18.8197 55.105L19.1382 55.4234L19.2946 55.5799L19.3728 55.6581C19.4007 55.686 19.3784 55.7307 19.3896 55.7642V61.5352V64.8368" stroke="white" stroke-opacity="0.39" stroke-width="0.1" stroke-miterlimit="10"/>
<path d="M15.5757 47.8691C15.7601 47.8691 15.9053 48.0144 15.9053 48.1987C15.9053 48.3831 15.7601 48.5284 15.5757 48.5284C15.3913 48.5284 15.2461 48.3831 15.2461 48.1987C15.2461 48.0144 15.3913 47.8691 15.5757 47.8691Z" stroke="white" stroke-opacity="0.39" stroke-width="0.1" stroke-miterlimit="10"/>
<path d="M15.5781 48.5225V50.623L15.7904 50.8353L16.3658 51.4107L16.6563 51.7012L16.8016 51.8465C16.8351 51.8688 16.8295 51.9023 16.8295 51.9359V52.0364V53.4554V54.1649V54.5169C16.8351 54.6342 16.796 54.7683 16.9133 54.8353L17.5502 55.4722L17.8686 55.7906L18.0251 55.947L18.1033 56.0253C18.1312 56.0532 18.1089 56.0979 18.12 56.1314V61.9023V65.204" stroke="white" stroke-opacity="0.39" stroke-width="0.1" stroke-miterlimit="10"/>
<path d="M28.5444 57.9489C28.6729 58.0774 28.6729 58.2841 28.5444 58.4126C28.4159 58.5411 28.2092 58.5411 28.0807 58.4126C27.9523 58.2841 27.9523 58.0774 28.0807 57.9489C28.2036 57.8204 28.4159 57.8204 28.5444 57.9489Z" stroke="white" stroke-opacity="0.39" stroke-width="0.1" stroke-miterlimit="10"/>
<path d="M28.0683 58.4121L27.3477 59.1328V60.5183V61.5406V64.8423" stroke="white" stroke-opacity="0.39" stroke-width="0.1" stroke-miterlimit="10"/>
<path d="M26.1511 57.9489C26.2795 57.8204 26.4863 57.8204 26.6147 57.9489C26.7432 58.0774 26.7432 58.2841 26.6147 58.4126C26.4863 58.5411 26.2795 58.5411 26.1511 58.4126C26.0226 58.2841 26.0226 58.0774 26.1511 57.9489Z" stroke="white" stroke-opacity="0.39" stroke-width="0.1" stroke-miterlimit="10"/>
<path d="M26.6289 58.4121L27.344 59.1328V60.5183V61.5406V64.8423" stroke="white" stroke-opacity="0.39" stroke-width="0.1" stroke-miterlimit="10"/>
<path d="M16.5483 57.9489C16.6768 58.0774 16.6768 58.2841 16.5483 58.4126C16.4198 58.5411 16.2131 58.5411 16.0846 58.4126C15.9562 58.2841 15.9562 58.0774 16.0846 57.9489C16.2131 57.8204 16.4198 57.8204 16.5483 57.9489Z" stroke="white" stroke-opacity="0.39" stroke-width="0.1" stroke-miterlimit="10"/>
<path d="M16.0839 58.4121L15.3633 59.1328V60.5183V61.5406V64.8423" stroke="white" stroke-opacity="0.39" stroke-width="0.1" stroke-miterlimit="10"/>
<path d="M14.1709 57.9489C14.2994 57.8204 14.5061 57.8204 14.6346 57.9489C14.763 58.0774 14.763 58.2841 14.6346 58.4126C14.5061 58.5411 14.2994 58.5411 14.1709 58.4126C14.0368 58.2841 14.0368 58.0774 14.1709 57.9489Z" stroke="white" stroke-opacity="0.39" stroke-width="0.1" stroke-miterlimit="10"/>
<path d="M14.6328 58.4121L15.3535 59.1328V60.5183V61.5406V64.8423" stroke="white" stroke-opacity="0.39" stroke-width="0.1" stroke-miterlimit="10"/>
<path d="M33.0405 48.96C33.2249 48.96 33.3702 49.1052 33.3702 49.2896C33.3702 49.4739 33.2249 49.6192 33.0405 49.6192C32.8562 49.6192 32.7109 49.4739 32.7109 49.2896C32.7109 49.1108 32.8562 48.96 33.0405 48.96Z" stroke="white" stroke-opacity="0.39" stroke-width="0.1" stroke-miterlimit="10"/>
<path d="M33.0341 49.6191V52.0214V53.6136V53.999L30.9727 56.0605" stroke="white" stroke-opacity="0.39" stroke-width="0.1" stroke-miterlimit="10"/>
<path d="M35.603 48.96C35.7874 48.96 35.9327 49.1052 35.9327 49.2896C35.9327 49.4739 35.7874 49.6192 35.603 49.6192C35.4187 49.6192 35.2734 49.4739 35.2734 49.2896C35.2734 49.1108 35.4187 48.96 35.603 48.96Z" stroke="white" stroke-opacity="0.39" stroke-width="0.1" stroke-miterlimit="10"/>
<path d="M35.6055 49.6191V52.0214V53.6136V53.999L37.6669 56.0605" stroke="white" stroke-opacity="0.39" stroke-width="0.1" stroke-miterlimit="10"/>
<path d="M46.3062 48.96C46.4905 48.96 46.6358 49.1052 46.6358 49.2896C46.6358 49.4739 46.4905 49.6192 46.3062 49.6192C46.1218 49.6192 45.9766 49.4739 45.9766 49.2896C45.9766 49.1108 46.1218 48.96 46.3062 48.96Z" stroke="white" stroke-opacity="0.39" stroke-width="0.1" stroke-miterlimit="10"/>
<path d="M46.3047 49.6191V52.0214V53.6136V53.999L48.3661 56.0605" stroke="white" stroke-opacity="0.39" stroke-width="0.1" stroke-miterlimit="10"/>
<path d="M8.14992 45.9043C8.33196 45.9043 8.47953 45.7568 8.47953 45.5747C8.47953 45.3927 8.33196 45.2451 8.14992 45.2451C7.96788 45.2451 7.82031 45.3927 7.82031 45.5747C7.82031 45.7568 7.96788 45.9043 8.14992 45.9043Z" stroke="white" stroke-opacity="0.39" stroke-width="0.1" stroke-miterlimit="10"/>
<path d="M7.81883 45.5742H5.41659H2.45011H-0.851562" stroke="white" stroke-opacity="0.39" stroke-width="0.1" stroke-miterlimit="10"/>
<path d="M14.0753 49.7479H11.673H10.4216H9.79594H9.48309H9.32666C9.29873 49.7535 9.28197 49.7367 9.25962 49.7144L9.20376 49.6585L7.8518 48.3066L7.17582 47.6306L6.84063 47.2954L6.67303 47.1278L6.58923 47.044C6.57247 47.0328 6.5613 47.0105 6.54454 47.0049H6.48309H2.4384H-0.863281" stroke="white" stroke-opacity="0.39" stroke-width="0.1" stroke-miterlimit="10"/>
<path d="M12.2686 50.7359C12.2686 50.9202 12.1233 51.0655 11.939 51.0655C11.7546 51.0655 11.6094 50.9202 11.6094 50.7359C11.6094 50.5515 11.7546 50.4062 11.939 50.4062C12.1178 50.4063 12.2686 50.5515 12.2686 50.7359Z" stroke="white" stroke-opacity="0.39" stroke-width="0.1" stroke-miterlimit="10"/>
<path d="M11.6065 50.7355H9.2043H8.89146H8.73503H8.69592C8.68475 50.7299 8.67916 50.7188 8.66799 50.7076L8.61213 50.6517L7.2881 49.3277L6.62889 48.6685L6.29928 48.3389L6.13168 48.1713L6.04788 48.0875L6.00877 48.0484C5.99201 48.0428 5.96967 48.0484 5.95291 48.0484H2.45011H-0.851562" stroke="white" stroke-opacity="0.39" stroke-width="0.1" stroke-miterlimit="10"/>
<path d="M8.14992 35.2061C8.33196 35.2061 8.47953 35.0585 8.47953 34.8765C8.47953 34.6944 8.33196 34.5469 8.14992 34.5469C7.96788 34.5469 7.82031 34.6944 7.82031 34.8765C7.82031 35.0585 7.96788 35.2061 8.14992 35.2061Z" stroke="white" stroke-opacity="0.39" stroke-width="0.1" stroke-miterlimit="10"/>
<path d="M7.81883 34.876H5.41659H2.45011H-0.851562" stroke="white" stroke-opacity="0.39" stroke-width="0.1" stroke-miterlimit="10"/>
<path d="M14.7413 39.0493C14.7413 39.2337 14.596 39.3789 14.4116 39.3789C14.2273 39.3789 14.082 39.2337 14.082 39.0493C14.082 38.865 14.2273 38.7197 14.4116 38.7197C14.5904 38.7197 14.7413 38.865 14.7413 39.0493Z" stroke="white" stroke-opacity="0.39" stroke-width="0.1" stroke-miterlimit="10"/>
<path d="M14.0753 39.0497H11.673H10.4216H9.79594H9.48309H9.32666C9.29873 39.0552 9.28197 39.0385 9.25962 39.0161L9.20376 38.9603L7.8518 37.6083L7.17582 36.9323L6.84063 36.5971L6.67303 36.4295L6.58923 36.3457C6.57247 36.3346 6.5613 36.3122 6.54454 36.3066H6.48309H2.4384H-0.863281" stroke="white" stroke-opacity="0.39" stroke-width="0.1" stroke-miterlimit="10"/>
<path d="M12.2608 40.0396C12.2608 40.2239 12.1155 40.3692 11.9312 40.3692C11.7468 40.3692 11.6016 40.2239 11.6016 40.0396C11.6016 39.8552 11.7468 39.71 11.9312 39.71C12.1099 39.71 12.2608 39.8552 12.2608 40.0396Z" stroke="white" stroke-opacity="0.39" stroke-width="0.1" stroke-miterlimit="10"/>
<path d="M11.601 40.0392H9.19872H8.88587H8.72944H8.69034C8.67916 40.0337 8.67358 40.0225 8.6624 40.0113L8.60654 39.9554L7.2881 38.6314L6.62888 37.9722L6.29927 37.6426L6.13168 37.475L6.04788 37.3912L6.00877 37.3521C5.99201 37.3465 5.96967 37.3521 5.95291 37.3521H2.45011H-0.851562" stroke="white" stroke-opacity="0.39" stroke-width="0.1" stroke-miterlimit="10"/>
<path d="M16.4834 41.5366C16.4834 41.721 16.3382 41.8662 16.1538 41.8662C15.9695 41.8662 15.8242 41.721 15.8242 41.5366C15.8242 41.3523 15.9695 41.207 16.1538 41.207C16.3382 41.207 16.4834 41.3579 16.4834 41.5366Z" stroke="white" stroke-opacity="0.39" stroke-width="0.1" stroke-miterlimit="10"/>
<path d="M15.83 41.5371H13.7294L13.5172 41.7494L12.9417 42.3248L12.6512 42.6153L12.506 42.7606C12.4836 42.7941 12.4501 42.7885 12.4166 42.7885H12.3216H10.9026H10.1931H9.84118C9.72386 42.7941 9.58978 42.755 9.52274 42.8723L8.88587 43.5092L8.56743 43.8276L8.41101 43.984L8.3328 44.0622C8.30486 44.0902 8.26017 44.0678 8.22665 44.079H2.45011H-0.851562" stroke="white" stroke-opacity="0.39" stroke-width="0.1" stroke-miterlimit="10"/>
<path d="M16.1241 40.2681C16.1241 40.4524 15.9788 40.5977 15.7945 40.5977C15.6101 40.5977 15.4648 40.4524 15.4648 40.2681C15.4648 40.0837 15.6101 39.9385 15.7945 39.9385C15.9732 39.9385 16.1241 40.0893 16.1241 40.2681Z" stroke="white" stroke-opacity="0.39" stroke-width="0.1" stroke-miterlimit="10"/>
<path d="M15.4684 40.2676H13.3678L13.1556 40.4799L12.5801 41.0553L12.2896 41.3458L12.1444 41.491C12.122 41.5246 12.0885 41.519 12.055 41.519H11.9544H10.5354H9.82594H9.47399C9.35667 41.5246 9.22259 41.4855 9.15555 41.6028L8.51868 42.2396L8.20025 42.5581L8.04382 42.7145L7.96561 42.7927C7.93767 42.8207 7.89298 42.7983 7.85946 42.8095H2.08293H-1.21875" stroke="white" stroke-opacity="0.39" stroke-width="0.1" stroke-miterlimit="10"/>
<path d="M6.04443 41.2368C5.91594 41.3653 5.70924 41.3653 5.58074 41.2368C5.45225 41.1083 5.45225 40.9016 5.58074 40.7731C5.70924 40.6446 5.91594 40.6446 6.04443 40.7731C6.17292 40.896 6.17292 41.1083 6.04443 41.2368Z" stroke="white" stroke-opacity="0.39" stroke-width="0.1" stroke-miterlimit="10"/>
<path d="M5.58083 40.7666L4.86575 40.0459H3.48027H2.45793H-0.84375" stroke="white" stroke-opacity="0.39" stroke-width="0.1" stroke-miterlimit="10"/>
<path d="M6.04443 38.8444C6.17292 38.9729 6.17292 39.1796 6.04443 39.3081C5.91594 39.4366 5.70924 39.4366 5.58074 39.3081C5.45225 39.1796 5.45225 38.9729 5.58074 38.8444C5.70365 38.7159 5.91594 38.7159 6.04443 38.8444Z" stroke="white" stroke-opacity="0.39" stroke-width="0.1" stroke-miterlimit="10"/>
<path d="M5.58083 39.3145L4.86575 40.0295H3.48027H2.45793H-0.84375" stroke="white" stroke-opacity="0.39" stroke-width="0.1" stroke-miterlimit="10"/>
<path d="M8.14992 34.0987C8.33196 34.0987 8.47953 33.9511 8.47953 33.7691C8.47953 33.587 8.33196 33.4395 8.14992 33.4395C7.96788 33.4395 7.82031 33.587 7.82031 33.7691C7.82031 33.9511 7.96788 34.0987 8.14992 34.0987Z" stroke="white" stroke-opacity="0.39" stroke-width="0.1" stroke-miterlimit="10"/>
<path d="M7.81883 33.7686H5.41659H2.45011H-0.851562" stroke="white" stroke-opacity="0.39" stroke-width="0.1" stroke-miterlimit="10"/>
<path d="M14.7413 29.603C14.7413 29.7874 14.596 29.9327 14.4116 29.9327C14.2273 29.9327 14.082 29.7874 14.082 29.603C14.082 29.4187 14.2273 29.2734 14.4116 29.2734C14.5904 29.2734 14.7413 29.4187 14.7413 29.603Z" stroke="white" stroke-opacity="0.39" stroke-width="0.1" stroke-miterlimit="10"/>
<path d="M14.0753 29.6017H11.673H10.4216H9.79594H9.48309H9.32666C9.29873 29.5961 9.28197 29.6128 9.25962 29.6352L9.20376 29.6911L7.8518 31.043L7.17582 31.719L6.84063 32.0542L6.67303 32.2218L6.58923 32.3056C6.57247 32.3168 6.5613 32.3391 6.54454 32.3447H6.48309H2.4384H-0.863281" stroke="white" stroke-opacity="0.39" stroke-width="0.1" stroke-miterlimit="10"/>
<path d="M12.2608 28.6138C12.2608 28.7981 12.1155 28.9434 11.9312 28.9434C11.7468 28.9434 11.6016 28.7981 11.6016 28.6138C11.6016 28.4294 11.7468 28.2842 11.9312 28.2842C12.1099 28.2842 12.2608 28.4294 12.2608 28.6138Z" stroke="white" stroke-opacity="0.39" stroke-width="0.1" stroke-miterlimit="10"/>
<path d="M11.601 28.6133H9.19872H8.88587H8.72944H8.69034C8.67916 28.6189 8.67358 28.63 8.6624 28.6412L8.60654 28.6971L7.2881 30.0155L6.62888 30.6747L6.29927 31.0043L6.13168 31.1719L6.04788 31.2557L6.00877 31.2948C5.99201 31.3004 5.96967 31.2948 5.95291 31.2948H2.45011H-0.851562" stroke="white" stroke-opacity="0.39" stroke-width="0.1" stroke-miterlimit="10"/>
<path d="M4.74906 29.9595C4.74906 30.1439 4.60381 30.2891 4.41945 30.2891C4.23509 30.2891 4.08984 30.1439 4.08984 29.9595C4.08984 29.7751 4.23509 29.6299 4.41945 29.6299C4.60381 29.6299 4.74906 29.7751 4.74906 29.9595Z" stroke="white" stroke-opacity="0.39" stroke-width="0.1" stroke-miterlimit="10"/>
<path d="M4.0886 29.96H1.68636H-4.00079H-7.29688" stroke="white" stroke-opacity="0.39" stroke-width="0.1" stroke-miterlimit="10"/>
<path d="M8.14992 21.2217C8.33196 21.2217 8.47953 21.0741 8.47953 20.8921C8.47953 20.7101 8.33196 20.5625 8.14992 20.5625C7.96788 20.5625 7.82031 20.7101 7.82031 20.8921C7.82031 21.0741 7.96788 21.2217 8.14992 21.2217Z" stroke="white" stroke-opacity="0.39" stroke-width="0.1" stroke-miterlimit="10"/>
<path d="M7.81883 20.8926H5.41659H2.45011H-0.851562" stroke="white" stroke-opacity="0.39" stroke-width="0.1" stroke-miterlimit="10"/>
<path d="M14.7413 25.0679C14.7413 25.2522 14.596 25.3975 14.4116 25.3975C14.2273 25.3975 14.082 25.2522 14.082 25.0679C14.082 24.8835 14.2273 24.7383 14.4116 24.7383C14.5904 24.7383 14.7413 24.8835 14.7413 25.0679Z" stroke="white" stroke-opacity="0.39" stroke-width="0.1" stroke-miterlimit="10"/>
<path d="M14.0753 25.0682H11.673H10.4216H9.79594H9.48309H9.32666C9.29873 25.0738 9.28197 25.057 9.25962 25.0347L9.20376 24.9788L7.8518 23.6269L7.17582 22.9509L6.84063 22.6157L6.67303 22.4481L6.58923 22.3643C6.57247 22.3531 6.5613 22.3308 6.54454 22.3252H6.48309H2.4384H-0.863281" stroke="white" stroke-opacity="0.39" stroke-width="0.1" stroke-miterlimit="10"/>
<path d="M12.2608 26.0493C12.2608 26.2337 12.1155 26.3789 11.9312 26.3789C11.7468 26.3789 11.6016 26.2337 11.6016 26.0493C11.6016 25.865 11.7468 25.7197 11.9312 25.7197C12.1099 25.7253 12.2608 25.8706 12.2608 26.0493Z" stroke="white" stroke-opacity="0.39" stroke-width="0.1" stroke-miterlimit="10"/>
<path d="M11.601 26.0493H9.19872H8.88587H8.72944H8.69034C8.67916 26.0437 8.67358 26.0325 8.6624 26.0213L8.60654 25.9655L7.2881 24.647L6.62888 23.9878L6.29927 23.6582L6.13168 23.4906L6.04788 23.4068L6.00877 23.3677C5.99201 23.3621 5.96967 23.3677 5.95291 23.3677H2.45011H-0.851562" stroke="white" stroke-opacity="0.39" stroke-width="0.1" stroke-miterlimit="10"/>
<path d="M13.9306 14.368H11.6848H10.4334H9.80766H9.49481H9.33838C9.31045 14.3736 9.29369 14.3568 9.27134 14.3345L9.21548 14.2786L7.86352 12.9267L7.18754 12.2507L6.85235 11.9155L6.68475 11.7479L6.60095 11.6641C6.58419 11.6529 6.57302 11.6306 6.55626 11.625H6.49481H2.45011H-0.851562" stroke="white" stroke-opacity="0.39" stroke-width="0.1" stroke-miterlimit="10"/>
<path d="M12.2608 15.357C12.2608 15.5413 12.1155 15.6866 11.9312 15.6866C11.7468 15.6866 11.6016 15.5413 11.6016 15.357C11.6016 15.1726 11.7468 15.0273 11.9312 15.0273C12.1099 15.0273 12.2608 15.1726 12.2608 15.357Z" stroke="white" stroke-opacity="0.39" stroke-width="0.1" stroke-miterlimit="10"/>
<path d="M11.601 15.3566H9.19872H8.88587H8.72944H8.69034C8.67916 15.351 8.67358 15.3399 8.6624 15.3287L8.60654 15.2728L7.2881 13.9488L6.62888 13.2896L6.29927 12.96L6.13168 12.7924L6.04788 12.7086L6.00877 12.6695C5.99201 12.6639 5.96967 12.6695 5.95291 12.6695H2.45011H-0.851562" stroke="white" stroke-opacity="0.39" stroke-width="0.1" stroke-miterlimit="10"/>
<path d="M4.74906 24.7105C4.74906 24.8948 4.60381 25.0401 4.41945 25.0401C4.23509 25.0401 4.08984 24.8948 4.08984 24.7105C4.08984 24.5261 4.23509 24.3809 4.41945 24.3809C4.60381 24.3809 4.74906 24.5261 4.74906 24.7105Z" stroke="white" stroke-opacity="0.39" stroke-width="0.1" stroke-miterlimit="10"/>
<path d="M4.0886 24.71H1.68636H-4.00079H-7.29688" stroke="white" stroke-opacity="0.39" stroke-width="0.1" stroke-miterlimit="10"/>
<path d="M16.4834 16.856C16.4834 17.0403 16.3382 17.1856 16.1538 17.1856C15.9695 17.1856 15.8242 17.0403 15.8242 16.856C15.8242 16.6716 15.9695 16.5264 16.1538 16.5264C16.3382 16.5264 16.4834 16.6772 16.4834 16.856Z" stroke="white" stroke-opacity="0.39" stroke-width="0.1" stroke-miterlimit="10"/>
<path d="M15.83 16.8555H13.7294L13.5172 17.0678L12.9417 17.6432L12.6512 17.9337L12.506 18.0789C12.4836 18.1125 12.4501 18.1069 12.4166 18.1069H12.3216H10.9026H10.1931H9.84118C9.72386 18.1125 9.58978 18.0733 9.52274 18.1907L8.88587 18.8275L8.56743 19.146L8.41101 19.3024L8.3328 19.3806C8.30486 19.4085 8.26017 19.3862 8.22665 19.3974H2.45011H-0.851562" stroke="white" stroke-opacity="0.39" stroke-width="0.1" stroke-miterlimit="10"/>
<path d="M16.1241 15.5855C16.1241 15.7698 15.9788 15.9151 15.7945 15.9151C15.6101 15.9151 15.4648 15.7698 15.4648 15.5855C15.4648 15.4011 15.6101 15.2559 15.7945 15.2559C15.9732 15.2559 16.1241 15.4011 16.1241 15.5855Z" stroke="white" stroke-opacity="0.39" stroke-width="0.1" stroke-miterlimit="10"/>
<path d="M15.4684 15.585H13.3678L13.1556 15.7973L12.5801 16.3727L12.2896 16.6632L12.1444 16.8084C12.122 16.8419 12.0885 16.8364 12.055 16.8364H11.9544H10.5354H9.82594H9.47399C9.35667 16.8419 9.22259 16.8028 9.15555 16.9202L8.51868 17.557L8.20025 17.8755L8.04382 18.0319L7.96561 18.1101C7.93767 18.138 7.89298 18.1157 7.85946 18.1269H2.08293H-1.21875" stroke="white" stroke-opacity="0.39" stroke-width="0.1" stroke-miterlimit="10"/>
<path d="M6.04443 28.5366C5.91594 28.6651 5.70924 28.6651 5.58074 28.5366C5.45225 28.4081 5.45225 28.2014 5.58074 28.0729C5.70924 27.9444 5.91594 27.9444 6.04443 28.0729C6.17292 28.2014 6.17292 28.4081 6.04443 28.5366Z" stroke="white" stroke-opacity="0.39" stroke-width="0.1" stroke-miterlimit="10"/>
<path d="M5.58083 28.0742L4.86575 27.3535H3.48027H2.45793H-0.84375" stroke="white" stroke-opacity="0.39" stroke-width="0.1" stroke-miterlimit="10"/>
<path d="M6.04443 26.1501C6.17292 26.2786 6.17292 26.4853 6.04443 26.6138C5.91594 26.7423 5.70924 26.7423 5.58074 26.6138C5.45225 26.4853 5.45225 26.2786 5.58074 26.1501C5.70365 26.0216 5.91594 26.0216 6.04443 26.1501Z" stroke="white" stroke-opacity="0.39" stroke-width="0.1" stroke-miterlimit="10"/>
<path d="M5.58083 26.6143L4.86575 27.3349H3.48027H2.45793H-0.84375" stroke="white" stroke-opacity="0.39" stroke-width="0.1" stroke-miterlimit="10"/>
<path d="M6.04443 16.5464C5.91594 16.6749 5.70924 16.6749 5.58074 16.5464C5.45225 16.4179 5.45225 16.2112 5.58074 16.0827C5.70924 15.9542 5.91594 15.9542 6.04443 16.0827C6.17292 16.2112 6.17292 16.4179 6.04443 16.5464Z" stroke="white" stroke-opacity="0.39" stroke-width="0.1" stroke-miterlimit="10"/>
<path d="M5.58083 16.083L4.86575 15.3623H3.48027H2.45793H-0.84375" stroke="white" stroke-opacity="0.39" stroke-width="0.1" stroke-miterlimit="10"/>
<path d="M6.04443 14.1598C6.17292 14.2883 6.17292 14.495 6.04443 14.6235C5.91594 14.752 5.70924 14.752 5.58074 14.6235C5.45225 14.495 5.45225 14.2883 5.58074 14.1598C5.70365 14.0314 5.91594 14.0314 6.04443 14.1598Z" stroke="white" stroke-opacity="0.39" stroke-width="0.1" stroke-miterlimit="10"/>
<path d="M5.58083 14.623L4.86575 15.3437H3.48027H2.45793H-0.84375" stroke="white" stroke-opacity="0.39" stroke-width="0.1" stroke-miterlimit="10"/>
<path d="M15.0225 33.0405C15.0225 33.2249 14.8772 33.3702 14.6929 33.3702C14.5085 33.3702 14.3633 33.2249 14.3633 33.0405C14.3633 32.8562 14.5085 32.7109 14.6929 32.7109C14.8772 32.7109 15.0225 32.8562 15.0225 33.0405Z" stroke="white" stroke-opacity="0.39" stroke-width="0.1" stroke-miterlimit="10"/>
<path d="M14.3615 33.0397H11.9649H10.3727H9.98723L7.92578 30.9727" stroke="white" stroke-opacity="0.39" stroke-width="0.1" stroke-miterlimit="10"/>
<path d="M15.0225 35.6216C15.0225 35.806 14.8772 35.9512 14.6929 35.9512C14.5085 35.9512 14.3633 35.806 14.3633 35.6216C14.3633 35.4372 14.5085 35.292 14.6929 35.292C14.8772 35.292 15.0225 35.4428 15.0225 35.6216Z" stroke="white" stroke-opacity="0.39" stroke-width="0.1" stroke-miterlimit="10"/>
<path d="M14.3615 35.6211H11.9649H10.3727H9.98723L7.92578 37.6825" stroke="white" stroke-opacity="0.39" stroke-width="0.1" stroke-miterlimit="10"/>
<path d="M15.0225 46.314C15.0225 46.4983 14.8772 46.6436 14.6929 46.6436C14.5085 46.6436 14.3633 46.4983 14.3633 46.314C14.3633 46.1296 14.5085 45.9844 14.6929 45.9844C14.8772 45.9844 15.0225 46.1296 15.0225 46.314Z" stroke="white" stroke-opacity="0.39" stroke-width="0.1" stroke-miterlimit="10"/>
<path d="M14.3615 46.3145H11.9649H10.3727H9.98723L7.92578 48.3759" stroke="white" stroke-opacity="0.39" stroke-width="0.1" stroke-miterlimit="10"/>
</g>
<mask id="path-232-inside-1_238_440" fill="white">
<path d="M12 40.9649L32.8395 40.8164C32.8395 40.8164 34.7036 41.1258 34.7145 43.7305C34.731 46.3353 32.4941 46.3477 32.4941 46.3477L12.0274 46.4962"/>
</mask>
<path d="M32.8395 40.8164L33.0032 39.8299L32.9183 39.8158L32.8323 39.8164L32.8395 40.8164ZM34.7145 43.7305L33.7145 43.7348L33.7145 43.7369L34.7145 43.7305ZM32.4941 46.3477L32.4885 45.3477L32.4868 45.3477L32.4941 46.3477ZM12.0071 41.9649L32.8466 41.8164L32.8323 39.8164L11.9929 39.9649L12.0071 41.9649ZM32.8395 40.8164C32.6758 41.8029 32.6751 41.8028 32.6745 41.8027C32.6743 41.8027 32.6736 41.8026 32.6732 41.8025C32.6724 41.8023 32.6716 41.8022 32.6708 41.8021C32.6693 41.8018 32.6678 41.8016 32.6665 41.8013C32.6638 41.8009 32.6615 41.8004 32.6596 41.8001C32.6558 41.7994 32.6535 41.7989 32.6526 41.7987C32.6508 41.7983 32.6544 41.799 32.6628 41.8013C32.6798 41.8058 32.7144 41.8159 32.7608 41.8344C32.8545 41.8718 32.9865 41.9391 33.1199 42.0541C33.3547 42.2565 33.7102 42.7036 33.7145 43.7348L35.7145 43.7263C35.7079 42.1527 35.1259 41.1428 34.4258 40.5393C34.0918 40.2513 33.7572 40.0785 33.5011 39.9765C33.3725 39.9252 33.2613 39.8909 33.1763 39.8683C33.1337 39.857 33.0974 39.8485 33.0683 39.8424C33.0537 39.8393 33.0409 39.8367 33.03 39.8347C33.0246 39.8337 33.0196 39.8327 33.0151 39.832C33.0129 39.8316 33.0108 39.8312 33.0088 39.8308C33.0078 39.8307 33.0068 39.8305 33.0059 39.8304C33.0054 39.8303 33.0048 39.8302 33.0045 39.8301C33.0038 39.83 33.0032 39.8299 32.8395 40.8164ZM33.7145 43.7369C33.7205 44.686 33.3502 45.0084 33.1024 45.1546C32.9458 45.247 32.78 45.2979 32.6473 45.3245C32.5829 45.3373 32.532 45.3433 32.5017 45.346C32.4868 45.3473 32.4775 45.3478 32.4749 45.3479C32.4736 45.348 32.4739 45.3479 32.4762 45.3479C32.4773 45.3479 32.4789 45.3478 32.4809 45.3478C32.4819 45.3478 32.4831 45.3478 32.4844 45.3477C32.485 45.3477 32.4857 45.3477 32.4864 45.3477C32.4867 45.3477 32.4872 45.3477 32.4874 45.3477C32.488 45.3477 32.4885 45.3477 32.4941 46.3477C32.4996 47.3477 32.5002 47.3477 32.5008 47.3477C32.501 47.3477 32.5016 47.3477 32.502 47.3477C32.5028 47.3477 32.5037 47.3477 32.5046 47.3476C32.5064 47.3476 32.5084 47.3476 32.5105 47.3476C32.5147 47.3475 32.5194 47.3474 32.5248 47.3473C32.5355 47.347 32.5484 47.3466 32.5635 47.3459C32.5936 47.3446 32.6324 47.3423 32.6786 47.3382C32.7706 47.33 32.8942 47.3147 33.0393 47.2857C33.3256 47.2285 33.718 47.1135 34.1186 46.8772C34.985 46.3661 35.725 45.3798 35.7145 43.7242L33.7145 43.7369ZM32.4868 45.3477L12.0202 45.4962L12.0347 47.4962L32.5013 47.3477L32.4868 45.3477Z" fill="white" mask="url(#path-232-inside-1_238_440)"/>
<path d="M12.0156 43.7297L32.411 43.582" stroke="white" stroke-miterlimit="10"/>
<mask id="path-235-inside-2_238_440" fill="white">
<path d="M12.5352 28.876L33.3746 28.7275C33.3746 28.7275 35.2387 29.0369 35.2497 31.6417C35.2661 34.2465 33.0292 34.2588 33.0292 34.2588L12.5626 34.4073"/>
</mask>
<path d="M33.3746 28.7275L33.5383 27.741L33.4535 27.727L33.3675 27.7276L33.3746 28.7275ZM35.2497 31.6417L34.2497 31.6459L34.2497 31.648L35.2497 31.6417ZM33.0292 34.2588L33.0237 33.2588L33.022 33.2589L33.0292 34.2588ZM12.5423 29.876L33.3818 29.7275L33.3675 27.7276L12.528 27.8761L12.5423 29.876ZM33.3746 28.7275C33.2109 29.714 33.2103 29.7139 33.2096 29.7138C33.2094 29.7138 33.2088 29.7137 33.2084 29.7136C33.2075 29.7135 33.2068 29.7133 33.206 29.7132C33.2044 29.713 33.203 29.7127 33.2017 29.7125C33.199 29.712 33.1967 29.7116 33.1948 29.7112C33.1909 29.7105 33.1886 29.71 33.1877 29.7098C33.1859 29.7094 33.1896 29.7102 33.198 29.7124C33.215 29.7169 33.2496 29.7271 33.2959 29.7455C33.3897 29.7829 33.5217 29.8502 33.6551 29.9652C33.8898 30.1676 34.2454 30.6148 34.2497 31.6459L36.2497 31.6375C36.2431 30.0638 35.661 29.0539 34.961 28.4504C34.627 28.1625 34.2923 27.9897 34.0362 27.8876C33.9076 27.8364 33.7965 27.802 33.7115 27.7794C33.6689 27.7681 33.6325 27.7597 33.6034 27.7535C33.5889 27.7504 33.5761 27.7479 33.5652 27.7458C33.5598 27.7448 33.5548 27.7439 33.5503 27.7431C33.5481 27.7427 33.5459 27.7423 33.544 27.742C33.543 27.7418 33.542 27.7416 33.5411 27.7415C33.5406 27.7414 33.5399 27.7413 33.5397 27.7413C33.539 27.7411 33.5383 27.741 33.3746 28.7275ZM34.2497 31.648C34.2557 32.5972 33.8854 32.9195 33.6375 33.0657C33.4809 33.1581 33.3152 33.2091 33.1825 33.2356C33.1181 33.2485 33.0671 33.2544 33.0369 33.2571C33.022 33.2585 33.0127 33.2589 33.01 33.259C33.0087 33.2591 33.0091 33.2591 33.0113 33.259C33.0124 33.259 33.014 33.2589 33.0161 33.2589C33.0171 33.2589 33.0182 33.2589 33.0195 33.2589C33.0201 33.2589 33.0208 33.2589 33.0215 33.2589C33.0219 33.2589 33.0224 33.2589 33.0226 33.2589C33.0231 33.2588 33.0237 33.2588 33.0292 34.2588C33.0348 35.2588 33.0353 35.2588 33.0359 35.2588C33.0361 35.2588 33.0367 35.2588 33.0371 35.2588C33.038 35.2588 33.0388 35.2588 33.0397 35.2588C33.0416 35.2588 33.0435 35.2587 33.0456 35.2587C33.0498 35.2586 33.0546 35.2585 33.0599 35.2584C33.0706 35.2582 33.0836 35.2577 33.0987 35.2571C33.1288 35.2557 33.1675 35.2534 33.2137 35.2493C33.3058 35.2411 33.4294 35.2258 33.5745 35.1968C33.8607 35.1396 34.2531 35.0247 34.6537 34.7883C35.5202 34.2772 36.2601 33.291 36.2497 31.6354L34.2497 31.648ZM33.022 33.2589L12.5553 33.4073L12.5698 35.4073L33.0365 35.2588L33.022 33.2589Z" fill="white" mask="url(#path-235-inside-2_238_440)"/>
<path d="M12.5547 31.6467L32.9501 31.499" stroke="white" stroke-miterlimit="10"/>
<path d="M12.1172 36.6416H14.1129L12.1994 38.4606C12.1446 38.4606 12.1172 38.4606 12.1172 38.4606V36.6416Z" fill="white"/>
<path d="M46.2849 39.9748C43.0721 43.6004 39.0588 47.2261 39.0588 47.2261C39.0588 47.2261 37.1838 50.8518 32.0959 50.8518C27.008 50.8518 12.1172 50.8518 12.1172 50.8518V49.0327H29.8206C29.8206 49.0327 36.5149 49.4968 36.5149 43.7551C36.5149 38.0135 29.0859 38.5456 29.0859 38.5456H12.1172L12.1994 38.4651L14.1129 36.6461H29.8206C29.8206 36.6461 36.5149 37.1101 36.5149 31.3685C36.5149 28.0398 34.0148 26.821 31.9204 26.3817H40.4021C40.4021 26.3817 44.2564 25.6578 46.411 27.452C46.6632 27.6624 46.8935 27.9099 47.0964 28.1945C48.9714 30.9106 48.9714 33.0266 48.9714 33.0266C48.9714 33.0266 49.4978 36.3491 46.2849 39.9748Z" fill="white"/>
<path d="M46.4055 27.595C46.3672 27.6383 46.3233 27.6878 46.2849 27.7311C43.0721 31.363 39.0588 34.9886 39.0588 34.9886C39.0588 34.9886 37.1838 38.6143 32.0959 38.6143H12.1994L14.1129 36.7953H29.8206C29.8206 36.7953 36.5149 37.2593 36.5149 31.5176C36.5149 28.189 34.0148 26.9701 31.9204 26.5308C30.4017 26.2153 29.0914 26.3081 29.0914 26.3081H12.1172L24.7327 14.2927L24.6011 14.1442H40.3966C40.3966 14.1442 45.2103 13.2409 47.0854 15.957C48.9604 18.6732 48.9604 20.7892 48.9604 20.7892C48.9604 20.7892 49.4868 24.025 46.4055 27.595Z" fill="white"/>
</svg>
