<svg width="64" height="64" viewBox="0 0 64 64" fill="none" xmlns="http://www.w3.org/2000/svg">
<g clip-path="url(#clip0_40_26412)">
<path d="M32 64C49.6731 64 64 49.6731 64 32C64 14.3269 49.6731 0 32 0C14.3269 0 0 14.3269 0 32C0 49.6731 14.3269 64 32 64Z" fill="#139C55"/>
<path fill-rule="evenodd" clip-rule="evenodd" d="M28.664 16.9629C27.9202 17.2489 27.2059 17.6062 26.531 18.0299C24.9412 19.1169 23.4085 20.2851 21.939 21.5299C20.5821 22.6409 19.0736 23.5524 17.459 24.2369C17.6185 24.4985 17.7611 24.7701 17.886 25.0499C18.5351 26.9703 18.7935 29.0011 18.646 31.0229C18.646 33.8815 18.6503 36.7392 18.659 39.5959C18.659 41.0149 18.68 42.4649 18.808 43.8789C18.8382 44.5422 18.9604 45.1981 19.171 45.8279L19.192 45.8679L19.208 45.9109C19.4942 46.7753 19.9545 47.5719 20.5604 48.2516C21.1663 48.9313 21.905 49.4796 22.731 49.8629C24.9084 50.7036 27.0379 51.6634 29.11 52.7379C30.1351 53.2606 31.1044 53.8861 32.003 54.6049C32.9016 53.8862 33.871 53.2607 34.896 52.7379C36.968 51.6634 39.0976 50.7036 41.275 49.8629C42.101 49.4796 42.8397 48.9313 43.4456 48.2516C44.0515 47.5719 44.5118 46.7753 44.798 45.9109L44.814 45.8679L44.835 45.8279C45.0458 45.1982 45.1679 44.5422 45.198 43.8789C45.326 42.4659 45.345 41.0149 45.347 39.5959C45.347 36.7369 45.366 33.8809 45.36 31.0229C45.2125 29.0011 45.4709 26.9703 46.12 25.0499C46.2448 24.77 46.3874 24.4985 46.547 24.2369C44.9325 23.5523 43.4239 22.6407 42.067 21.5299C40.5988 20.2894 39.0677 19.1252 37.48 18.0419C36.8042 17.6173 36.0889 17.2593 35.344 16.9729C34.2507 16.7473 33.1373 16.6331 32.021 16.6319H31.992C30.8743 16.6294 29.7593 16.7403 28.664 16.9629Z" fill="#FFD200"/>
<path fill-rule="evenodd" clip-rule="evenodd" d="M28.461 18.5059C28.006 18.7263 27.566 18.9765 27.144 19.2549C25.7301 20.2688 24.3699 21.3556 23.069 22.5109C21.8731 23.5395 20.5337 24.3885 19.093 25.0309C19.2348 25.2752 19.3614 25.528 19.472 25.7879C20.0492 27.5813 20.2783 29.4685 20.147 31.3479V39.3269C20.147 40.6599 20.166 41.9939 20.28 43.3139C20.3066 43.9299 20.4152 44.5396 20.603 45.1269L20.622 45.1639L20.635 45.2039C20.8789 45.9973 21.2817 46.7327 21.819 47.3653C22.3562 47.998 23.0166 48.5147 23.76 48.8839C25.6952 49.6654 27.5845 50.5558 29.419 51.5509C30.3322 52.037 31.1927 52.6161 31.987 53.2789C32.7813 52.6161 33.6419 52.037 34.555 51.5509C36.3895 50.5558 38.2789 49.6654 40.214 48.8839C40.9573 48.5146 41.6177 47.9979 42.1549 47.3652C42.6922 46.7326 43.095 45.9972 43.339 45.2039L43.352 45.1639L43.371 45.1269C43.5588 44.5396 43.6674 43.9299 43.694 43.3139C43.809 41.9989 43.825 40.6469 43.827 39.3269C43.827 36.6599 43.843 34.0069 43.827 31.3479C43.6955 29.4685 43.9246 27.5812 44.502 25.7879C44.6127 25.528 44.7392 25.2752 44.881 25.0309C43.4403 24.3886 42.1009 23.5396 40.905 22.5109C39.6041 21.3556 38.2439 20.2688 36.83 19.2549C36.3645 18.9472 35.8768 18.6745 35.371 18.4389C34.2856 18.0606 33.1385 17.8909 31.99 17.9389H31.961C30.767 17.878 29.5738 18.0726 28.461 18.5099V18.5059Z" fill="#005AFF"/>
<path fill-rule="evenodd" clip-rule="evenodd" d="M20.149 31.5229V34.3679H23.744V31.5229H20.149ZM34.849 18.2429C33.9234 18.0124 32.9707 17.9084 32.017 17.9339H32.004V26.3769H34.849V18.2429ZM43.844 37.214V34.369H39.806V37.214H43.844ZM29.152 51.4049L29.419 51.5599C30.3322 52.0461 31.1928 52.6252 31.987 53.2879V41.9279H29.154L29.152 51.4049Z" fill="#029C55"/>
<path fill-rule="evenodd" clip-rule="evenodd" d="M17.389 31.3519C17.289 27.1969 16.741 25.4029 14.229 23.2799C20.594 23.0399 23.101 17.1279 28.829 15.4319L29.154 15.3679V17.4829C25.943 18.0879 22.154 23.3199 17.973 24.6539C19.2645 26.6292 19.7786 29.0128 19.416 31.3449V34.3639H17.442C17.432 33.4699 17.41 32.4699 17.389 31.3519ZM32.002 15.1679C33.0668 15.1187 34.1334 15.2084 35.175 15.4349C40.9 17.1349 43.407 23.0429 49.775 23.2829C47.263 25.4159 46.711 27.1999 46.615 31.3549V31.5279H44.594V31.3549C44.2315 29.0228 44.7455 26.6392 46.037 24.6639C40.421 22.8829 38.594 17.0829 32.008 17.1969L32.002 15.1679ZM46.562 34.3679C46.7821 37.7951 46.6642 41.2357 46.21 44.6399C45.9941 45.8946 45.5308 47.0939 44.847 48.1679C43.7192 50.0967 41.9203 51.5424 39.794 52.2289C38.879 52.5679 38.114 52.7619 37.202 53.1919C36.3895 53.5651 35.6046 53.9955 34.853 54.4799V52.2529C36.6949 51.249 38.5923 50.3506 40.536 49.5619C41.3708 49.1526 42.1134 48.5773 42.7181 47.8711C43.3228 47.1649 43.7771 46.3427 44.053 45.4549C44.5461 43.4503 44.7259 41.3815 44.586 39.3219V34.3589L46.562 34.3679ZM32.592 56.3859C32.5253 56.4605 32.463 56.5362 32.405 56.6129L32.594 56.3859H32.592ZM32.047 57.0979L31.996 57.1749C30.8625 55.6141 29.3438 54.3737 27.588 53.5749C26.5932 53.0789 25.5606 52.6626 24.5 52.3299C22.2587 51.6677 20.3525 50.179 19.167 48.1649C18.4832 47.0909 18.0199 45.8916 17.804 44.6369C17.404 42.185 17.2926 39.6947 17.472 37.2169H19.429V39.3319C19.2891 41.3915 19.4689 43.4603 19.962 45.4649C20.2379 46.3527 20.6922 47.1749 21.2969 47.8811C21.9017 48.5873 22.6442 49.1626 23.479 49.5719C26.5987 50.6137 29.4937 52.2351 32.012 54.3509V57.1859L32.047 57.0979Z" fill="#1F1960"/>
<path fill-rule="evenodd" clip-rule="evenodd" d="M34.8481 53.318V42.891H32.0001V57.174C32.7492 56.085 33.7184 55.1652 34.8451 54.474L34.8481 53.318ZM45.6161 31.523H40.4991V34.368H46.5601C46.5601 33.515 46.5871 32.568 46.6081 31.523H45.6161ZM29.1571 26.018H32.0021V15.168C31.0491 15.1211 30.094 15.1883 29.1571 15.368V26.018ZM23.2571 37.218V34.373H17.4401C17.4531 35.458 17.4611 36.4 17.4641 37.218H23.2571Z" fill="#FFD200"/>
<path fill-rule="evenodd" clip-rule="evenodd" d="M26.124 25.301H37.857L34.838 28.696V31.523H37.665L41.06 28.504V40.237L37.665 37.218H34.838V40.045L37.857 43.44H26.124L29.143 40.045V37.218H26.316L22.921 40.237V28.504L26.316 31.523H29.143V28.696L26.124 25.301Z" fill="#FFFDFF"/>
<path fill-rule="evenodd" clip-rule="evenodd" d="M32 6.82397L32.691 8.95697H34.939L33.118 10.274L33.818 12.407L32.002 11.074L30.184 12.408L30.884 10.275L29.053 8.95997H31.301L32 6.82397Z" fill="#FFD200"/>
<path fill-rule="evenodd" clip-rule="evenodd" d="M23.7441 8.63208L24.4381 10.7691H26.6861L24.8651 12.0891L25.5651 14.2221L23.7491 12.8891L21.9281 14.2191L22.6281 12.0861L20.8051 10.7691H23.0531L23.7441 8.63208Z" fill="#FFD200"/>
<path fill-rule="evenodd" clip-rule="evenodd" d="M16.995 13.8L17.685 15.938H19.933L18.117 17.251L18.817 19.384L16.995 18.051L15.179 19.384L15.879 17.251L14.056 15.938H16.304L16.995 13.8Z" fill="#FFD200"/>
<path fill-rule="evenodd" clip-rule="evenodd" d="M40.256 8.63208L39.565 10.7651H37.317L39.138 12.0851L38.438 14.2181L40.254 12.8851L42.074 14.2191L41.374 12.0861L43.195 10.7661H40.947L40.256 8.63208Z" fill="#FFD200"/>
<mask id="mask0_40_26412" style="mask-type:luminance" maskUnits="userSpaceOnUse" x="44" y="13" width="6" height="7">
<path d="M44.035 13.731H49.942V19.392H44.035V13.731Z" fill="white"/>
</mask>
<g mask="url(#mask0_40_26412)">
<path fill-rule="evenodd" clip-rule="evenodd" d="M47.006 13.8L46.315 15.933H44.067L45.888 17.25L45.188 19.383L47.004 18.05L48.82 19.383L48.12 17.25L49.941 15.933H47.7L47.006 13.8Z" fill="#FFD200"/>
</g>
<path fill-rule="evenodd" clip-rule="evenodd" d="M27.301 34.6589C27.2974 34.8454 27.3108 35.0318 27.341 35.2159C27.3597 35.3412 27.4134 35.4587 27.496 35.5549C27.5793 35.6413 27.6872 35.6999 27.805 35.7229C27.9696 35.7558 28.1372 35.7709 28.305 35.7679H29.489L29.318 36.6479H28.252C27.9317 36.6553 27.6118 36.6217 27.3 36.5479C27.0647 36.4908 26.8481 36.374 26.671 36.2089C26.5031 36.0382 26.3843 35.8254 26.327 35.5929C26.2525 35.2829 26.2188 34.9645 26.227 34.6459V34.1129C26.2197 33.7973 26.2564 33.4823 26.336 33.1769C26.3942 32.9418 26.5169 32.7277 26.6902 32.5586C26.8635 32.3895 27.0806 32.2722 27.317 32.2199C27.6251 32.1462 27.9414 32.1126 28.258 32.1199H29.471L29.3 32.9999H28.313C28.1452 32.9969 27.9776 33.012 27.813 33.0449C27.6986 33.0683 27.594 33.1258 27.513 33.2099C27.432 33.3051 27.3802 33.4218 27.364 33.5459C27.3361 33.7322 27.3237 33.9205 27.327 34.1089L27.301 34.6589ZM30.264 32.1279H32.333C32.6986 32.0936 33.0647 32.188 33.368 32.3949C33.4818 32.5021 33.5701 32.6335 33.6263 32.7794C33.6826 32.9253 33.7054 33.082 33.693 33.2379V33.3069C33.7126 33.5013 33.669 33.6969 33.5687 33.8646C33.4683 34.0323 33.3166 34.1632 33.136 34.2379C33.3373 34.3005 33.5128 34.4269 33.636 34.5979C33.7655 34.7973 33.8288 35.0324 33.817 35.2699V35.3849C33.8331 35.5629 33.8056 35.7422 33.7367 35.9072C33.6679 36.0723 33.5599 36.218 33.422 36.3319C33.0801 36.5496 32.6775 36.6523 32.273 36.6249H30.26L30.264 32.1279ZM31.245 35.8369H32.2C32.365 35.8526 32.5307 35.8144 32.672 35.7279C32.7232 35.674 32.7619 35.6095 32.7854 35.539C32.8089 35.4685 32.8167 35.3937 32.808 35.3199V35.2369C32.8162 35.1607 32.8078 35.0837 32.7835 35.011C32.7591 34.9384 32.7194 34.8718 32.667 34.8159C32.5203 34.7249 32.348 34.6839 32.176 34.6989H31.245V35.8369ZM31.245 32.9249V33.9059H32.125C32.2798 33.9208 32.4347 33.88 32.562 33.7909C32.6079 33.7435 32.643 33.6868 32.6651 33.6247C32.6872 33.5626 32.6957 33.4965 32.69 33.4309V33.3539C32.6956 33.294 32.688 33.2336 32.6678 33.1769C32.6476 33.1203 32.6153 33.0687 32.573 33.0259C32.4551 32.9477 32.3139 32.9123 32.173 32.9259L31.245 32.9249ZM35.645 36.6339H34.6V32.1269H37.776L37.611 33.0069H35.638V33.9939H37.505L37.34 34.8739H35.64L35.645 36.6339Z" fill="#231E60"/>
</g>
<defs>
<clipPath id="clip0_40_26412">
<rect width="64" height="64" fill="white"/>
</clipPath>
</defs>
</svg>
