<svg width="64" height="64" viewBox="0 0 64 64" fill="none" xmlns="http://www.w3.org/2000/svg">
<g clip-path="url(#clip0_40_26435)">
<path d="M32 64C49.6731 64 64 49.6731 64 32C64 14.3269 49.6731 0 32 0C14.3269 0 0 14.3269 0 32C0 49.6731 14.3269 64 32 64Z" fill="#A6192E"/>
<path d="M55.15 17.468C55.135 17.432 55.1114 17.4002 55.0812 17.3754C55.051 17.3506 55.0152 17.3337 54.977 17.326L53.423 17.015C51.171 16.563 48.854 16.172 46.536 15.851C45.4602 14.2667 44.1355 12.8666 42.613 11.705C40.0449 9.74863 36.9838 8.54433 33.7711 8.22649C30.5584 7.90865 27.3206 8.48977 24.419 9.90501L24.067 10.087C21.5957 11.3754 19.4607 13.2248 17.833 15.487C15.404 15.761 12.977 16.111 10.617 16.53L9.02798 16.812C8.98909 16.8188 8.95248 16.835 8.92141 16.8594C8.89035 16.8837 8.86579 16.9154 8.84994 16.9515C8.8341 16.9877 8.82745 17.0272 8.83059 17.0665C8.83374 17.1059 8.84659 17.1438 8.86798 17.177L9.73698 18.537C11.164 20.772 12.627 23.087 14.086 25.419L14.471 26.034C14.4817 27.7122 14.7302 29.3805 15.209 30.989C14.831 31.096 14.484 31.198 14.156 31.298L13.082 31.626C13.0328 31.6408 12.9897 31.6711 12.9591 31.7124C12.9285 31.7536 12.9119 31.8036 12.912 31.855V46.094C12.9121 46.1314 12.921 46.1681 12.9378 46.2015C12.9547 46.2348 12.9791 46.2637 13.0091 46.286C13.0391 46.3082 13.0739 46.3231 13.1106 46.3296C13.1474 46.336 13.1852 46.3337 13.221 46.323L15.49 45.632C17.035 45.162 18.383 44.752 19.752 44.409V50.448C19.7521 50.4852 19.7608 50.5219 19.7774 50.5551C19.7941 50.5884 19.8183 50.6173 19.8481 50.6396C19.8779 50.6619 19.9124 50.677 19.949 50.6837C19.9856 50.6903 20.0232 50.6884 20.059 50.678L21.437 50.278C23.3405 49.7253 25.283 49.3172 27.248 49.057C28.516 51.217 29.735 53.314 30.873 55.289L31.801 56.899C31.8218 56.9355 31.8519 56.9658 31.8883 56.9869C31.9247 57.008 31.966 57.0191 32.008 57.019C32.0499 57.019 32.091 57.008 32.1273 56.9871C32.1636 56.9662 32.1939 56.9362 32.215 56.9L33.153 55.3C34.363 53.229 35.616 51.1 36.881 48.978C39.072 49.229 41.2379 49.6639 43.356 50.278L44.735 50.678C44.7707 50.6884 44.8084 50.6903 44.845 50.6837C44.8816 50.677 44.9161 50.6619 44.9459 50.6396C44.9756 50.6173 44.9998 50.5884 45.0165 50.5551C45.0332 50.5219 45.0419 50.4852 45.042 50.448V44.998C46.242 45.344 47.434 45.731 48.561 46.098L50.549 46.749C50.5848 46.7612 50.6231 46.7645 50.6605 46.7588C50.6979 46.753 50.7334 46.7383 50.764 46.716C50.7948 46.6939 50.82 46.6648 50.8374 46.6311C50.8548 46.5974 50.8639 46.56 50.864 46.522V32.263C50.8641 32.2124 50.8482 32.1631 50.8186 32.1221C50.789 32.0812 50.7471 32.0507 50.699 32.035L49.655 31.691C49.377 31.6 49.086 31.507 48.77 31.41C49.3099 29.7476 49.6014 28.0146 49.635 26.267L49.996 25.698C51.422 23.448 52.86 21.198 54.27 19.021L55.13 17.69C55.1509 17.6573 55.1637 17.6201 55.1672 17.5815C55.1707 17.5428 55.1648 17.5039 55.15 17.468Z" fill="#D0CFCD"/>
<path d="M49.54 25.411C50.967 23.159 52.407 20.911 53.817 18.729L54.438 17.768L53.316 17.543C50.984 17.075 48.604 16.676 46.223 16.352C45.1559 14.7368 43.8254 13.3121 42.287 12.137C39.8006 10.2418 36.8368 9.07435 33.7258 8.76482C30.6148 8.4553 27.479 9.01586 24.668 10.384L24.315 10.567C21.8473 11.8531 19.7266 13.7159 18.133 15.997C15.642 16.272 13.152 16.629 10.711 17.061L9.56299 17.261L10.19 18.243C11.615 20.475 13.079 22.791 14.542 25.129L15.008 25.875V25.894C15.0052 27.7496 15.3027 29.5935 15.889 31.354C15.362 31.499 14.836 31.654 14.312 31.809L13.45 32.072V45.685L15.329 45.113C17.104 44.573 18.674 44.095 20.291 43.72V50.044L21.291 49.755C23.3353 49.1608 25.424 48.7317 27.537 48.472C28.823 50.661 30.097 52.85 31.344 55.015L32.014 56.178L32.691 55.019C33.932 52.894 35.221 50.708 36.521 48.525L36.598 48.395C38.937 48.6429 41.2493 49.0977 43.508 49.754L44.508 50.043V44.284C45.908 44.669 47.308 45.12 48.734 45.584L50.334 46.107V32.478L49.496 32.202C49.028 32.048 48.559 31.902 48.089 31.761C48.7444 29.9468 49.0889 28.0349 49.108 26.106L49.54 25.411Z" fill="#980321"/>
<path d="M29.575 47.2009L29.13 47.1729L29.9299 44.0299C28.5295 43.8809 27.1206 43.8271 25.713 43.8689C27.8116 47.3989 29.9116 50.9859 32.013 54.6299C33.291 52.4419 34.5686 50.2753 35.8459 48.1299C33.7859 47.6424 31.6879 47.3316 29.575 47.2009Z" fill="#001A31"/>
<path d="M44.902 16.9639C47.1481 19.0772 48.5608 21.9267 48.883 24.9939C50.313 22.7372 51.7396 20.5079 53.163 18.3059C50.4216 17.7572 47.668 17.3099 44.902 16.9639Z" fill="#001A31"/>
<path d="M19.545 16.6309C16.6363 16.9182 13.7363 17.3182 10.845 17.8309C12.293 20.0975 13.7446 22.3945 15.2 24.7219C15.5781 21.574 17.1297 18.6847 19.545 16.6309Z" fill="#001A31"/>
<path d="M24.673 11.2589C20.9081 13.2129 18.0424 16.5443 16.673 20.5589C16.524 20.9979 16.389 21.4439 16.273 21.8989C15.6241 24.4955 15.6165 27.211 16.251 29.8112C16.8855 32.4113 18.143 34.8181 19.915 36.8239C22.6505 39.9401 26.4777 41.8873 30.607 42.2639C31.084 42.3059 31.564 42.3319 32.052 42.3319C32.6507 42.3314 33.2489 42.298 33.844 42.2319C37.9713 41.7635 41.7609 39.7276 44.43 36.5449C46.0818 34.5874 47.2552 32.2723 47.8573 29.7828C48.4594 27.2934 48.4737 24.6979 47.899 22.2019C47.814 21.8309 47.721 21.4629 47.611 21.1019C46.6077 17.7501 44.5538 14.8095 41.7522 12.7137C38.9507 10.6179 35.5497 9.47792 32.051 9.46192C29.609 9.45966 27.1987 10.0151 25.004 11.0859L24.673 11.2589Z" fill="#001A31"/>
<path d="M49.244 32.944C38.0002 29.2027 25.8684 29.0674 14.544 32.557L14.233 32.652V44.638L15.107 44.372C17.255 43.719 19.081 43.164 21.074 42.757V49.011C28.4723 46.8612 36.3297 46.8612 43.728 49.011V43.275C45.422 43.699 47.076 44.225 48.975 44.846L49.55 45.035V44.43C49.55 41.0614 49.55 37.692 49.55 34.322V33.043L49.244 32.944Z" fill="#001A31"/>
<path fill-rule="evenodd" clip-rule="evenodd" d="M15.427 15.7839C15.2379 14.4673 15.3912 13.1241 15.872 11.8839C16.7144 10.2986 18.0985 9.06883 19.772 8.4189C19.772 8.4189 23.082 7.1659 24.337 9.9429L24.084 10.4809L23.778 10.7059L16.331 15.8309L15.671 15.9719L15.427 15.7839Z" fill="#D0CFCD"/>
<path fill-rule="evenodd" clip-rule="evenodd" d="M16.132 16.508C15.8226 14.9888 15.9449 13.4133 16.485 11.96C17.3291 10.6429 18.548 9.60849 19.985 8.99001C19.985 8.99001 23.049 7.93101 23.968 10.711L24.18 12.111L24.216 12.648L16.132 16.508Z" fill="#970522"/>
<path d="M32.079 41.288C40.7333 41.288 47.749 34.2723 47.749 25.618C47.749 16.9637 40.7333 9.948 32.079 9.948C23.4247 9.948 16.409 16.9637 16.409 25.618C16.409 34.2723 23.4247 41.288 32.079 41.288Z" fill="#970522"/>
<path d="M32.079 41.288C40.7333 41.288 47.749 34.2723 47.749 25.618C47.749 16.9637 40.7333 9.948 32.079 9.948C23.4247 9.948 16.409 16.9637 16.409 25.618C16.409 34.2723 23.4247 41.288 32.079 41.288Z" fill="#C00020"/>
<path d="M39.343 38.8891C44.7202 37.1212 46.9663 29.2615 44.3599 21.3339C41.7534 13.4064 35.2814 8.41303 29.9042 10.181C24.527 11.9489 22.2809 19.8086 24.8873 27.7362C27.4938 35.6637 33.9658 40.657 39.343 38.8891Z" fill="#980321"/>
<path d="M44.082 38.5201L37.15 31.2971L26.632 29.7481L24.79 29.6001L24.339 34.0601L23.879 34.7781L22.232 35.1311L22.672 42.0311L40.772 42.3311L44.082 38.5201Z" fill="#001A31"/>
<path d="M45.81 18.063C45.81 18.063 40.458 16.653 20.755 28.657V29.317C20.755 29.317 38.06 18.032 46.104 18.622L45.81 18.063Z" fill="#001A31"/>
<path d="M42.786 14.1761C42.786 14.1761 43.004 15.0271 42.752 15.3491C42.5523 15.5836 42.2992 15.7667 42.014 15.8831C40.4062 13.3097 38.0015 11.3323 35.166 10.2521L33.766 9.95206L33.247 9.87806L32.579 9.83105C36.2175 10.6421 39.386 12.8627 41.39 16.0061C39.9821 16.0067 38.5881 15.7263 37.29 15.1811C35.9587 14.5934 34.5681 14.1509 33.142 13.8611C30.9425 13.5091 28.6934 13.6256 26.542 14.2031C24.3985 14.6985 22.3184 15.4366 20.342 16.4031L20.083 17.2031C22.4782 15.9618 25.0369 15.0652 27.683 14.5401C29.3891 14.2181 31.1359 14.1742 32.856 14.4101C34.1296 14.5741 35.3676 14.9456 36.521 15.5101C36.521 15.5101 39.856 16.8301 41.765 16.5351C41.765 16.5351 42.726 18.1061 42.828 18.3051L43.4 18.1951C43.4 18.1951 42.507 16.5951 42.318 16.3591C42.318 16.3591 43.598 15.9231 43.4 14.7331L42.786 14.1761Z" fill="#001A31"/>
<path d="M43.0939 18.8381C43.4163 19.4619 43.706 20.1021 43.962 20.7561C43.962 20.7561 42.806 20.9971 41.793 23.1421C41.793 23.1421 40.783 25.5111 39.841 27.1961C38.952 28.9737 37.8433 30.6327 36.541 32.1341L37.2599 32.2871L37.378 32.0401C37.378 32.0401 39.316 29.4001 39.69 28.6351C40.4685 27.2727 41.1758 25.8708 41.809 24.4351C41.809 24.4351 42.822 21.5481 44.166 21.2891C44.166 21.2891 47.3659 28.1981 42.8889 36.9581L43.418 37.4211C43.418 37.4211 47.8739 28.7331 44.7469 21.1911C44.7469 21.1911 46.727 20.6911 47.858 24.6011L47.348 22.0801C47.0706 21.6031 46.6613 21.2166 46.1693 20.9669C45.6773 20.7173 45.1236 20.6152 44.575 20.6731L43.697 18.7371L43.0939 18.8381Z" fill="#001A31"/>
<path fill-rule="evenodd" clip-rule="evenodd" d="M24.153 11.5391L23.247 12.0611L23.206 12.7911L23.365 12.9151L23.919 12.8211L24.549 12.1211L24.153 11.5391Z" fill="#001A31"/>
<path d="M47.334 22.0569V22.0629L47.393 22.1629L47.603 23.0719L47.467 22.9719L47.334 22.0569Z" fill="#001A31"/>
<path d="M45.768 18.05L45.86 18.069L46.129 18.5741L46.15 18.615H46.104L46.018 18.596L45.769 18.052L45.768 18.05Z" fill="#001A31"/>
<path d="M43.714 18.7779L43.683 18.7009L43.083 18.7939L43.098 18.8379L43.112 18.8649L43.138 18.9159L43.714 18.7779Z" fill="#001A31"/>
<path fill-rule="evenodd" clip-rule="evenodd" d="M48.153 33.395C47.3917 33.3911 46.6436 33.1965 45.9769 32.829C45.0909 31.993 45.316 30.692 44.845 29.519C45.1866 29.3425 45.4557 29.0519 45.6055 28.6977C45.7553 28.3436 45.7763 27.9481 45.6649 27.58C45.4554 27.6883 45.2204 27.7381 44.985 27.724C45.2072 27.2332 45.2908 26.6909 45.2269 26.1559C45.1629 25.6209 44.9537 25.1136 44.6219 24.689C44.5409 25.811 44.103 26.514 43.067 26.512C41.057 24.597 39.697 24.712 37.101 18.868C36.133 16.688 34.889 14.312 32.549 13.422C29.911 12.422 26.313 13.865 24.537 16.098C22.699 18.409 22.676 21.935 22.603 24.698C22.377 25.126 22.103 25.564 21.925 25.983C20.592 26.134 19.417 26.298 18.567 26.383C15.939 26.65 16.3759 28.672 17.3979 29.91C20.3899 33.534 18.741 34.904 21.638 35.324C22.372 35.81 23.438 35.558 24.367 36.112C24.555 36.17 24.6539 35.667 24.4669 34.753C25.0359 35.206 25.255 35.989 25.867 36.073C27.4053 35.9596 28.9518 36.1129 30.438 36.526C30.708 35.72 29.8039 33.813 28.3869 32.586C27.9869 32.444 27.747 32.726 27.427 32.796C27.07 32.513 27.199 31.517 27.494 31.115C27.6812 31.4125 27.9315 31.6652 28.2272 31.8552C28.5228 32.0453 28.8566 32.1681 29.205 32.215C30.6313 33.0242 32.2346 33.4706 33.8739 33.515C36.7309 37.029 38.4789 35.978 40.6629 36.452C41.5845 37.6239 42.631 38.6919 43.784 39.637C44.521 40.8025 45.6525 41.6642 46.972 42.065C46.493 40.423 46.5919 39.665 46.3719 39.238C45.149 38.6294 44.1973 37.5864 43.703 36.313C44.903 36.639 45.545 36.343 46.235 36.942C46.6861 37.5873 47.0522 38.2881 47.3239 39.027C47.9013 40.0863 48.5456 41.1077 49.2529 42.085M24.0099 33.785C23.6504 33.3666 23.238 32.9969 22.7829 32.685C22.3935 32.7356 22.0135 32.8428 21.655 33.003C21.0132 31.8302 20.4513 30.6154 19.9729 29.367C21.4642 29.645 22.9689 29.8453 24.481 29.967C24.353 31.301 24.172 32.525 24.015 33.795L24.0099 33.785Z" fill="#001A31"/>
<path fill-rule="evenodd" clip-rule="evenodd" d="M23.44 24.0049C23.686 21.9949 23.57 18.0829 25.546 16.2449C26.324 15.3664 27.2834 14.6673 28.358 14.1959C29.3661 13.8372 30.4601 13.7966 31.492 14.0797C32.5239 14.3629 33.444 14.956 34.128 15.7789C35.793 18.0159 36.067 19.7389 37.472 22.1689C39.631 25.8989 42.42 26.9779 43.172 28.2079C44.741 30.7889 43.872 34.0849 47.36 34.1489C48.599 34.1719 47.501 36.6769 49.376 38.5389C49.26 39.1719 49.125 39.6089 48.729 39.4919C48.068 39.3659 47.512 37.4309 46.829 36.4159C46.181 35.4589 44.342 35.8469 43.351 35.2869C41.692 34.3499 41.63 32.2279 39.89 31.0199C40.1927 31.4446 40.4159 31.9206 40.549 32.4249C39.449 31.7529 37.857 31.4869 37.036 29.8399C37.6648 30.3305 38.4384 30.5991 39.236 30.6039C38.1419 29.7982 37.3009 28.6966 36.812 27.4289C36.9957 25.8968 36.8532 24.3431 36.394 22.8699C36.61 26.6939 34.647 29.7269 33.206 30.4199C32.376 30.8199 30.121 29.3579 28.053 29.6589C28.1659 29.2903 28.1514 28.8943 28.012 28.5349C27.912 29.8349 27.267 29.7089 26.606 30.8939C26.3818 31.3255 26.2809 31.8105 26.3144 32.2956C26.3479 32.7808 26.5145 33.2473 26.796 33.6439C26.8756 33.9081 26.9041 34.185 26.88 34.4599C27.0482 34.1581 27.1182 33.8113 27.08 33.4679C27.3991 34.0151 27.5584 34.6407 27.54 35.2739C27.0605 35.3425 26.5762 35.3712 26.092 35.3599C25.634 34.4189 24.705 34.4219 24.813 33.6949C25.122 31.6019 25.032 27.4619 26.323 27.5559C30.023 27.8239 32.291 26.0809 33.645 26.7449C32.745 25.8739 31.145 26.5249 30.317 26.5669C30.2825 25.5644 30.464 24.5662 30.849 23.6399C30.4527 24.0197 30.1371 24.4754 29.921 24.9799C29.7182 23.9938 29.8542 22.9681 30.307 22.0689C29.6033 22.6167 29.0631 23.3468 28.745 24.1799C28.5838 23.5477 28.2565 22.9701 27.797 22.5069C26.586 22.6069 24.944 23.9529 23.116 25.8269C23.3479 25.1566 23.7165 24.5417 24.1985 24.0214C24.6805 23.501 25.2653 23.0864 25.916 22.8039C24.9679 22.8728 24.0822 23.3022 23.441 24.0039" fill="#C00020"/>
<path fill-rule="evenodd" clip-rule="evenodd" d="M26.092 29.7611C26.076 28.5221 27.037 29.1841 27.492 28.3291C27.5 29.4291 26.558 29.6141 26.092 29.7611Z" fill="#191C2E"/>
<path d="M47.121 35.108C45.487 34.952 42.86 34.081 42.271 32.729C41.5601 31.3224 40.4678 30.1442 39.119 29.329C38.0963 28.3752 37.3148 27.192 36.839 25.877C36.8437 26.355 36.8297 26.871 36.797 27.425C37.286 28.6926 38.127 29.7942 39.221 30.6C38.4234 30.5952 37.6499 30.3265 37.021 29.836C37.842 31.483 39.435 31.749 40.534 32.421C40.401 31.9167 40.1777 31.4407 39.875 31.016C41.615 32.224 41.675 34.347 43.336 35.283C44.327 35.843 46.167 35.455 46.814 36.412C47.5 37.427 48.057 39.362 48.714 39.488C48.976 39.565 49.123 39.399 49.227 39.096C48.1807 37.9791 47.4534 36.6018 47.121 35.108Z" fill="#980321"/>
<path d="M27.065 33.4669C27.1032 33.8103 27.0332 34.1571 26.865 34.4589C26.8891 34.184 26.8606 33.9071 26.781 33.6429C26.4995 33.2463 26.3329 32.7798 26.2994 32.2946C26.2659 31.8094 26.3668 31.3244 26.591 30.8929C27.252 29.7079 27.896 29.8369 27.997 28.5339C28.1364 28.8933 28.1509 29.2893 28.038 29.6579C30.106 29.3579 32.361 30.8189 33.191 30.4189C34.353 29.8599 35.853 27.7809 36.278 24.9939C35.892 27.0479 33.734 29.6739 32.83 29.8119C31.87 29.9579 29.595 28.8229 28.514 28.8649C28.4372 28.476 28.2761 28.1087 28.042 27.7889C28.042 27.7889 27.542 28.0769 26.635 28.4889C26.5429 28.5345 26.4426 28.5611 26.34 28.5671C26.2374 28.5732 26.1347 28.5586 26.0378 28.5242C25.941 28.4898 25.8521 28.4362 25.7764 28.3668C25.7006 28.2973 25.6396 28.2134 25.597 28.1199C25.037 29.3129 25.033 32.0959 24.797 33.6909C24.69 34.4179 25.619 34.4139 26.076 35.3559C26.5602 35.3672 27.0445 35.3385 27.524 35.2699C27.5422 34.6378 27.3832 34.0133 27.065 33.4669Z" fill="#980321"/>
<path d="M23.119 25.827C24.947 23.953 26.59 22.611 27.8 22.507C28.2595 22.9702 28.5868 23.5478 28.748 24.18C29.066 23.3469 29.6063 22.6168 30.31 22.069C29.8572 22.9682 29.7212 23.9939 29.924 24.98C30.1401 24.4755 30.4557 24.0198 30.8519 23.64C30.4613 24.5647 30.274 25.5626 30.3029 26.566C31.1762 26.3524 32.0792 26.2878 32.974 26.375C32.596 25.775 32.311 25.319 31.08 25.619C31.0279 24.8361 31.2391 24.0582 31.6799 23.409C31.6799 23.409 34.3259 21.28 33.0959 18.625C30.6959 13.845 27.7799 14.599 25.9429 15.873C25.8099 16 25.679 16.126 25.55 16.245C23.574 18.083 23.691 21.996 23.444 24.005C24.0852 23.3034 24.9709 22.8739 25.9189 22.805C25.2684 23.0874 24.6836 23.5018 24.2017 24.022C23.7197 24.5423 23.351 25.1569 23.119 25.827Z" fill="#980321"/>
<path fill-rule="evenodd" clip-rule="evenodd" d="M37.387 15.4642C37.087 14.8262 35.206 14.9232 33.946 15.1042C34.724 12.3882 33.398 10.6152 30.481 10.0542C29.1944 9.83347 27.8721 9.96428 26.6537 10.4328C25.4353 10.9014 24.3661 11.6903 23.559 12.7162C23.438 10.4042 21.875 9.4352 20.572 9.7082C19.2938 10.2022 18.1742 11.0346 17.333 12.1162C16.5657 14.1941 16.5262 16.4709 17.221 18.5742C16.2342 18.4298 15.2944 18.0581 14.476 17.4882C14.476 17.4882 15.359 21.1442 17.95 21.9272C18.0457 22.1487 18.1794 22.3517 18.345 22.5272C18.2209 24.2743 18.1875 26.0267 18.245 27.7772C18.8158 28.5995 19.5003 29.3369 20.278 29.9672C21.276 30.139 22.2969 30.1278 23.291 29.9342C23.8971 29.3114 24.3793 28.5791 24.712 27.7762C24.207 26.4072 25.603 23.9202 27.599 24.1232C27.9073 23.0787 28.0481 21.9918 28.016 20.9032C28.4438 21.0018 28.8877 21.0089 29.3185 20.9241C29.7493 20.8393 30.1574 20.6646 30.516 20.4112C30.708 20.5775 30.9519 20.6716 31.2059 20.6772C31.4598 20.6829 31.7077 20.5998 31.907 20.4422C35.925 16.1982 37.847 16.4292 37.387 15.4642ZM28.952 17.5052C28.5142 17.2745 28.0234 17.1631 27.529 17.1822C28.1546 16.2533 28.9278 15.4329 29.818 14.7532C29.8381 15.7406 29.5339 16.7073 28.952 17.5052Z" fill="#001A31"/>
<path fill-rule="evenodd" clip-rule="evenodd" d="M18.15 18.5001C18.7071 16.9622 19.7415 15.643 21.102 14.7351C20.2873 13.4597 19.9735 11.928 20.221 10.4351C19.2398 10.9497 18.3807 11.6693 17.702 12.5451C17.6375 12.7351 17.5939 12.9316 17.572 13.1311C18.1098 12.3789 18.8277 11.7738 19.66 11.3711C18.7706 12.1037 18.0372 13.0071 17.503 14.0281C17.497 14.2001 17.495 14.3821 17.497 14.5691C18.583 13.3771 19.336 12.8751 19.863 12.8481C18.8557 13.4925 18.049 14.4059 17.534 15.4851C17.557 15.8151 17.593 16.1521 17.64 16.4851C18.2439 15.4137 19.2438 14.6217 20.425 14.2791C19.2033 15.0104 18.2842 16.1553 17.834 17.5061C17.9136 17.8435 18.0185 18.1744 18.148 18.4961" fill="#D0CFCD"/>
<path fill-rule="evenodd" clip-rule="evenodd" d="M23.0079 14.8162C24.4899 12.2892 26.5209 10.6892 29.5639 10.7162C30.7489 10.8362 32.8149 11.2832 33.3849 12.7892C33.5058 13.2161 33.5393 13.6631 33.4835 14.1033C33.4276 14.5435 33.2836 14.9679 33.0599 15.3512C33.2279 14.1782 33.4599 13.2772 32.7669 12.8252C32.2611 12.0909 31.4975 11.574 30.6279 11.3772C31.3839 11.8872 31.8819 12.3572 31.9879 12.7642C31.6597 12.8582 31.3383 12.9744 31.0259 13.1122C30.6686 12.638 30.221 12.2393 29.7088 11.939C29.1967 11.6386 28.6302 11.4426 28.0419 11.3622C29.0263 11.7665 29.8251 12.5225 30.2829 13.4832C29.8583 13.7208 29.4509 13.9881 29.0639 14.2832C28.1662 13.3546 27.0035 12.726 25.7349 12.4832C26.8401 12.9755 27.775 13.7837 28.4219 14.8062C28.0919 15.0942 27.7759 15.4002 27.4759 15.7152C26.4947 14.9757 25.3993 14.4015 24.2329 14.0152C25.2591 14.631 26.1448 15.455 26.8329 16.4342C26.6229 16.6835 26.4229 16.9352 26.2329 17.1892C25.246 16.2868 24.1678 15.4895 23.0159 14.8102" fill="#D0CFCD"/>
<path fill-rule="evenodd" clip-rule="evenodd" d="M17.51 19.2862C16.5085 19.1828 15.5628 18.7752 14.8 18.1182C14.89 18.5462 15.352 18.9302 15.965 19.2982C15.9352 19.3918 15.9251 19.4907 15.9354 19.5885C15.9458 19.6862 15.9763 19.7808 16.025 19.8662C16.0528 19.6894 16.1282 19.5235 16.243 19.3862C16.4152 19.4527 16.5948 19.498 16.778 19.5212C16.6559 19.8074 16.6488 20.1297 16.758 20.4212C16.8215 20.1082 16.9999 19.8303 17.258 19.6422C17.4162 19.6729 17.5768 19.6903 17.738 19.6942C17.66 19.5688 17.583 19.4355 17.507 19.2942" fill="#D0CFCD"/>
<path fill-rule="evenodd" clip-rule="evenodd" d="M21.857 15.4302C23.1739 15.9085 24.3863 16.6361 25.428 17.5732C25.2226 17.7047 24.9907 17.7893 24.749 17.8212C26.198 18.8072 27.203 17.0832 28.649 17.8972C28.5942 18.1037 28.6083 18.3224 28.689 18.5202C27.937 18.2732 26.579 19.0342 26.519 19.6832C26.642 19.5832 26.762 19.5042 26.884 19.4142C27.3857 19.7717 27.956 20.0216 28.559 20.1482C28.0343 20.2663 27.4861 20.2209 26.988 20.0182C27.3628 21.1195 27.3526 22.3154 26.959 23.4102C24.959 23.4102 23.389 25.8382 23.859 27.6882C23.6312 28.1484 23.3517 28.5812 23.026 28.9782C22.2457 29.1513 21.4481 29.2339 20.649 29.2242C20.213 28.8937 19.8092 28.5227 19.443 28.1162C19.729 28.2262 20.004 28.3362 20.217 28.4372C20.1853 28.2852 20.1235 28.1412 20.0353 28.0136C19.947 27.886 19.834 27.7773 19.703 27.6942C19.5044 27.6095 19.2951 27.553 19.081 27.5262C18.8035 25.7542 18.8469 23.9468 19.209 22.1902L19.444 21.5162C19.2323 21.6279 19.0685 21.8127 18.983 22.0362L18.608 21.4962C18.582 19.1662 19.508 16.1352 21.853 15.4302" fill="#C00020"/>
<path fill-rule="evenodd" clip-rule="evenodd" d="M29.551 17.551C30.845 16.432 34.282 15.446 36.635 15.614C35.9045 15.9571 35.2275 16.404 34.625 16.941C34.2892 16.7381 33.9858 16.486 33.725 16.193C33.8567 16.5687 34.0372 16.9254 34.262 17.254C33.982 17.499 33.695 17.76 33.398 18.034C32.7528 17.7785 32.1648 17.3974 31.668 16.913C31.9627 17.5227 32.4021 18.0511 32.948 18.452C32.695 18.688 32.435 18.931 32.167 19.178C31.3144 18.8492 30.5606 18.3069 29.978 17.603C30.3822 18.4014 30.9853 19.0822 31.729 19.58L31.396 19.88C30.315 20.005 28.761 18.344 29.554 17.55" fill="#D0CFCD"/>
<path fill-rule="evenodd" clip-rule="evenodd" d="M19.4519 20.6412C19.2056 20.0279 19.2113 19.3422 19.4679 18.7332C19.5513 19.3668 19.5459 20.009 19.4519 20.6412Z" fill="#001A31"/>
<path d="M25.876 20.0692L26.376 20.0862C26.2008 20.4323 26.0968 20.8101 26.07 21.1972C25.4132 21.0384 24.7225 21.1009 24.105 21.3752C24.105 21.3752 24.144 21.1132 24.639 20.7162C24.626 20.3372 23.892 19.7602 23.892 19.7602L23.823 20.3142L21.592 21.8782C21.338 22.4757 21.1177 23.087 20.932 23.7092C20.561 24.8542 20.961 28.0582 21.123 29.2092C21.7629 29.202 22.4001 29.1242 23.023 28.9772C23.3488 28.5802 23.6282 28.1474 23.856 27.6872C23.381 25.8362 24.95 23.4062 26.956 23.4092C27.349 22.3131 27.3578 21.1159 26.981 20.0142C27.4791 20.2169 28.0273 20.2623 28.552 20.1442C27.949 20.0176 27.3787 19.7677 26.877 19.4102C26.755 19.5002 26.635 19.5762 26.512 19.6792C26.572 19.0302 27.93 18.2692 28.682 18.5162C28.6428 18.4326 28.6201 18.3423 28.615 18.2502C26.561 17.7622 25.876 20.0692 25.876 20.0692Z" fill="#980321"/>
<path d="M19.4479 21.5132L19.7039 21.2012C19.4149 21.0382 18.6119 21.4942 18.6119 21.4942L18.9869 22.0342C19.0723 21.8104 19.2361 21.6252 19.4479 21.5132Z" fill="#980321"/>
<path fill-rule="evenodd" clip-rule="evenodd" d="M20.6929 20.817C20.4929 19.808 21.2369 18.923 22.3229 18.082C21.6719 19.028 21.2359 19.905 20.6929 20.817Z" fill="#001A31"/>
<path fill-rule="evenodd" clip-rule="evenodd" d="M20.681 21.358C20.8399 21.5818 21.0701 21.7451 21.334 21.821C21.907 20.9969 22.7261 20.3753 23.674 20.045C23.6421 19.6288 23.5463 19.22 23.39 18.833C23.8713 19.2691 24.167 19.8733 24.216 20.521C24.0411 20.6067 23.8738 20.707 23.716 20.821C23.527 21.2646 23.3064 21.694 23.056 22.106C22.6963 22.1856 22.3435 22.2936 22.001 22.429C21.4124 23.2054 21.0069 24.1048 20.815 25.06C20.7101 24.1241 20.828 23.1767 21.159 22.295C20.9424 22.0162 20.7806 21.699 20.682 21.36" fill="#001A31"/>
<path fill-rule="evenodd" clip-rule="evenodd" d="M22.332 23.1202C24.526 23.5352 24.332 21.6722 26.491 22.0282C24.802 20.5912 23.545 22.6172 22.332 23.1202Z" fill="#001A31"/>
<path fill-rule="evenodd" clip-rule="evenodd" d="M20.9669 28.55C21.0789 27.793 22.2029 27.896 22.0769 26.564C21.8769 27.173 21.2269 27.264 20.9569 27.722C20.8657 27.8412 20.8172 27.9877 20.8192 28.1379C20.8212 28.288 20.8726 28.4331 20.9669 28.55Z" fill="#001A31"/>
<path fill-rule="evenodd" clip-rule="evenodd" d="M29.5639 10.7121C26.5209 10.6901 24.4909 12.2891 23.0079 14.8121C23.5279 15.1221 23.9919 15.4251 24.4179 15.7291C24.6413 15.3673 24.8837 15.0174 25.1439 14.6811C24.8789 14.4731 24.5769 14.2521 24.2319 14.0171C24.6259 14.1511 24.9889 14.2951 25.3319 14.4481C25.7446 13.9367 26.2021 13.4632 26.6989 13.0331C26.3916 12.8272 26.0701 12.6431 25.7369 12.4821C26.1386 12.5778 26.5332 12.7011 26.9179 12.8511C27.4724 12.3963 28.089 12.0229 28.7489 11.7421C28.5228 11.5973 28.2873 11.4676 28.0439 11.3541C28.374 11.4281 28.699 11.5229 29.0169 11.6381C30.0068 11.2739 31.0798 11.1983 32.1109 11.4201C31.315 11.0235 30.4504 10.7832 29.5639 10.7121Z" fill="white"/>
<path fill-rule="evenodd" clip-rule="evenodd" d="M20.221 10.436C19.7093 10.6895 19.2343 11.0111 18.809 11.392C18.781 11.561 18.756 11.741 18.736 11.933C19.0059 11.6903 19.3195 11.5009 19.66 11.375C19.2953 11.6214 18.9732 11.9254 18.706 12.275C18.6822 12.6533 18.6822 13.0327 18.706 13.411C19.0287 13.1122 19.4327 12.9156 19.867 12.846C19.4489 13.0978 19.0677 13.406 18.734 13.762C18.7761 14.1859 18.8496 14.6061 18.954 15.019C19.3682 14.6406 19.879 14.3841 20.43 14.278C19.8986 14.5497 19.4312 14.9315 19.059 15.398C19.1526 15.707 19.2634 16.0105 19.391 16.307C19.8652 15.6847 20.4458 15.1511 21.106 14.731C20.2912 13.4576 19.976 11.9279 20.221 10.436Z" fill="white"/>
<path d="M20.893 26.914C20.893 26.914 19.785 24.625 19.773 24.437C19.3827 25.2708 19.1301 26.1624 19.025 27.077L19.096 27.527C19.3641 27.5024 19.6314 27.5823 19.8422 27.7499C20.0529 27.9176 20.1907 28.1602 20.227 28.427L19.441 28.089C19.8029 28.5094 20.21 28.8887 20.655 29.22C20.655 29.22 20.967 29.22 21.244 29.197L21.211 28.412L21.04 28.346L21.02 28.353C20.9964 28.4106 20.9793 28.4706 20.969 28.532C20.8961 28.4574 20.8462 28.3635 20.8251 28.2614C20.804 28.1594 20.8126 28.0534 20.85 27.956C20.8759 27.8553 20.9178 27.7595 20.974 27.672L20.893 26.914Z" fill="#980321"/>
<path d="M49.3719 34.109L49.4569 38.538L49.4149 39.852L48.4969 39.899L48.0139 39.775L47.2419 33.218L48.562 33.359L49.3719 34.109Z" fill="#001A31"/>
<path fill-rule="evenodd" clip-rule="evenodd" d="M20.965 31.639L20.365 30.393H20.473C20.6312 30.5992 20.8314 30.7696 21.0603 30.8928C21.2892 31.0161 21.5417 31.0894 21.801 31.108C21.801 31.108 21.746 30.542 21.911 30.464C22.2268 30.7985 22.6271 31.0415 23.0696 31.1673C23.5121 31.2932 23.9804 31.2972 24.425 31.179L24.791 31.017C24.5148 30.9483 24.2613 30.809 24.0551 30.6129C23.849 30.4167 23.6973 30.1704 23.615 29.898L23.207 29.113L23.033 28.967C22.2445 28.87 21.4444 28.9566 20.695 29.22L19.947 29.514L19.908 30.74L20.965 31.639Z" fill="#001A31"/>
<path d="M26.99 33.282C27.0923 33.3147 27.1925 33.3538 27.2899 33.399C27.3019 33.418 27.4729 34.089 27.4729 34.089L27.116 35.311L26.478 35.804C26.478 35.804 25.889 35.533 25.878 35.504C25.867 35.475 25.7599 34.962 25.7599 34.962L26.99 33.282Z" fill="#191C2E"/>
<path d="M20.633 35.8179L20.556 36.3999L20.815 36.3089L20.974 36.1089L20.633 35.8179Z" fill="#E4E4E5"/>
<path d="M23.415 43.0668L23.304 43.4028C23.1473 44.5655 22.994 45.7281 22.844 46.8908L22.914 47.1908C22.662 47.2388 22.535 47.2638 22.283 47.3148L22.338 46.9848C22.198 45.7968 22.061 44.6085 21.927 43.4198L21.827 43.0598H22.442C22.411 43.1908 22.396 43.2598 22.365 43.3878C22.465 44.2558 22.508 44.6878 22.603 45.5308C22.711 44.6608 22.765 44.2308 22.873 43.3828L22.819 43.0628L23.415 43.0668Z" fill="#C00020"/>
<path d="M24.2039 43.0609L24.142 43.3789C24.134 44.4809 24.126 45.5826 24.118 46.6839L24.1949 46.9619C23.9589 46.9999 23.841 47.0199 23.606 47.0619C23.629 46.9449 23.6409 46.8859 23.6649 46.7689C23.6763 45.6402 23.6876 44.5112 23.6989 43.3819L23.642 43.0569L24.2039 43.0609Z" fill="#C00020"/>
<path d="M25.8599 43.0778C25.8949 43.3838 25.913 43.5358 25.948 43.8398L25.7679 43.7398L25.4409 43.7458C25.4329 44.6652 25.4253 45.5845 25.418 46.5038L25.4949 46.7688C25.2619 46.8008 25.1449 46.8168 24.9119 46.8518L24.976 46.5618C24.984 45.6285 24.9916 44.6928 24.9989 43.7548L24.6789 43.7618L24.4969 43.8758C24.5369 43.5518 24.558 43.3908 24.597 43.0698L25.8599 43.0778Z" fill="#C00020"/>
<path d="M27.243 43.0919C27.358 43.2769 27.416 43.3679 27.532 43.5499C27.523 44.5619 27.519 45.0669 27.51 46.0779C27.391 46.2709 27.332 46.3679 27.21 46.5649C26.91 46.5949 26.767 46.6109 26.471 46.6449C26.356 46.4689 26.299 46.3809 26.184 46.2009C26.193 45.1459 26.197 44.6189 26.207 43.5639C26.325 43.3719 26.384 43.2759 26.502 43.0879L27.243 43.0919ZM26.989 45.9499L27.071 45.8069C27.078 45.0239 27.081 44.6329 27.088 43.8499L27.013 43.7239H26.736L26.65 43.8629C26.643 44.6569 26.6399 45.0539 26.6329 45.8489L26.709 45.9699L26.989 45.9499Z" fill="#C00020"/>
<path d="M28.894 43.1049C29.008 43.2809 29.066 43.3679 29.18 43.5419C29.18 44.0489 29.173 44.3029 29.168 44.8099C29.063 44.9699 29.01 45.0509 28.904 45.2099C29.017 45.5769 29.073 45.7599 29.186 46.1239L29.35 46.3929C29.082 46.4079 28.95 46.4169 28.681 46.4359L28.731 46.2259C28.623 45.8429 28.569 45.6509 28.46 45.2629L28.286 45.2709L28.278 46.2129L28.355 46.4609C28.123 46.4789 28.007 46.4889 27.774 46.5099L27.836 46.2529C27.844 45.2855 27.8523 44.3189 27.861 43.3529L27.808 43.0989L28.894 43.1049ZM28.294 44.6599L28.634 44.6489L28.734 44.5019L28.74 43.8489L28.648 43.7079H28.304L28.294 44.6599Z" fill="#C00020"/>
<path d="M30.12 43.1019L30.059 43.3669C30.053 44.2842 30.0466 45.2016 30.04 46.1189L30.117 46.3579C29.881 46.3679 29.763 46.3729 29.527 46.3859L29.585 46.1499L29.615 43.3649L29.558 43.0979L30.12 43.1019Z" fill="#C00020"/>
<path d="M31.4819 43.1168L31.4159 43.3728C31.5293 44.2815 31.6429 45.1901 31.7569 46.0988L31.8469 46.3168C31.5989 46.3168 31.4749 46.3168 31.2259 46.3248L31.2859 46.0938L31.2389 45.6408L30.8819 45.6458C30.8599 45.8308 30.8489 45.9238 30.8279 46.1088L30.8819 46.3318C30.6329 46.3378 30.5089 46.3418 30.2599 46.3518L30.3529 46.1298C30.4789 45.2125 30.6053 44.2948 30.7319 43.3768L30.6729 43.1118L31.4819 43.1168ZM30.9449 45.0618H31.1779C31.1339 44.6258 31.1129 44.4078 31.0689 43.9708C31.0199 44.4058 30.9949 44.6248 30.9459 45.0628L30.9449 45.0618Z" fill="#C00020"/>
<path d="M33.8289 43.1359L34.1189 43.5659V43.8579L33.6299 44.1669L33.674 43.9129V43.8329L33.5999 43.7159H33.3289L33.243 43.8349C33.243 44.5549 33.2359 44.9149 33.2309 45.6349L33.31 45.7499L33.5889 45.7589L33.67 45.6429V45.0429L33.543 44.8729L34.118 44.5179L34.1059 45.9289L33.806 46.3439C33.506 46.3339 33.3619 46.3299 33.0659 46.3239L32.778 45.8939C32.784 44.9569 32.7869 44.4879 32.7939 43.5519L33.088 43.1289L33.8289 43.1359Z" fill="#C00020"/>
<path d="M35.4859 43.1449L35.421 43.4079C35.537 44.3473 35.6523 45.2869 35.767 46.2269L35.8569 46.4599C35.6089 46.4409 35.485 46.4319 35.237 46.4159L35.296 46.1849C35.277 45.9979 35.268 45.9049 35.248 45.7189L34.8849 45.7009C34.8639 45.8869 34.853 45.9799 34.832 46.1649L34.8869 46.3939C34.6379 46.3799 34.514 46.3739 34.265 46.3629L34.358 46.1489C34.4833 45.2349 34.6079 44.3206 34.7319 43.4059L34.673 43.1389L35.4859 43.1449ZM34.953 45.1149L35.186 45.1239C35.142 44.6779 35.119 44.4549 35.075 44.0109L34.953 45.1149Z" fill="#C00020"/>
<path d="M37.076 43.1548C37.191 43.3378 37.248 43.4298 37.363 43.6168V44.1008C37.186 44.2158 37.097 44.2718 36.92 44.3838V43.8898L36.846 43.7698L36.567 43.7608L36.483 43.8878V44.3038C36.819 44.5928 36.983 44.7408 37.324 45.0448C37.324 45.4768 37.324 45.6928 37.318 46.1258C37.199 46.3008 37.14 46.3868 37.018 46.5598C36.718 46.5298 36.575 46.5158 36.28 46.4908C36.165 46.3038 36.108 46.2118 35.993 46.0278V45.5488L36.436 45.3378V45.7728L36.513 45.8978L36.792 45.9198L36.877 45.7968V45.3968C36.54 45.0968 36.377 44.9478 36.035 44.6598C36.035 44.2328 36.035 44.0198 36.041 43.5928C36.157 43.4178 36.216 43.3298 36.333 43.1528L37.076 43.1548Z" fill="#C00020"/>
<path d="M38.987 43.167L39.077 43.931L38.896 43.821L38.569 43.811C38.5643 44.699 38.5596 45.587 38.555 46.475L38.633 46.752C38.4 46.721 38.283 46.706 38.05 46.678L38.112 46.423C38.117 45.374 38.12 44.849 38.125 43.799L37.805 43.79L37.623 43.884C37.662 43.594 37.682 43.449 37.723 43.158L38.987 43.167Z" fill="#C00020"/>
<path d="M40.5379 43.1838C40.5749 43.5078 40.593 43.6698 40.629 43.9968L40.4469 43.8798L39.8369 43.8578V44.6648L40.269 44.6948L40.4469 44.5998V45.4868L40.2789 45.3708L39.838 45.3308L39.8329 46.2478C40.1249 46.2868 40.2709 46.3078 40.5629 46.3478L40.7439 46.2628C40.7059 46.5848 40.687 46.7448 40.644 47.0628C40.117 46.9698 39.853 46.9268 39.325 46.8488C39.349 46.7488 39.3609 46.6908 39.3859 46.5858C39.3913 45.5491 39.3966 44.5121 39.4019 43.4748L39.3439 43.1748L40.5379 43.1838Z" fill="#C00020"/>
<path d="M41.525 43.1799L41.464 43.5069C41.4586 44.6402 41.453 45.7736 41.447 46.9069L41.524 47.2219C41.289 47.1759 41.172 47.1539 40.937 47.1119L40.995 46.8419C41.0036 45.7252 41.0126 44.6089 41.022 43.4929C40.999 43.3639 40.987 43.2999 40.964 43.1709L41.525 43.1799Z" fill="#C00020"/>
<path d="M43.111 46.6459C43.072 47.0049 43.052 47.1839 43.011 47.5399C42.521 47.4299 42.2759 47.3769 41.7859 47.2789C41.7859 46.8909 41.786 46.6969 41.792 46.3079C41.7903 46.2959 41.7903 46.2838 41.792 46.2719C42.112 45.4489 42.2719 45.0219 42.5919 44.1339V43.9669L42.003 43.9409L41.821 44.0499C41.86 43.7089 41.879 43.5369 41.921 43.1929L43.046 43.2009C43.046 43.5729 43.046 43.7599 43.039 44.1319V44.2069C42.719 45.1419 42.559 45.5899 42.239 46.4559V46.6129C42.512 46.6609 42.649 46.6859 42.922 46.7379L43.111 46.6459Z" fill="#C00020"/>
<path d="M32.014 44.4719L32.062 44.8809H32.41L32.369 44.4719H32.014Z" fill="#C00020"/>
</g>
<defs>
<clipPath id="clip0_40_26435">
<rect width="64" height="64" fill="white"/>
</clipPath>
</defs>
</svg>
