<svg width="64" height="64" viewBox="0 0 64 64" fill="none" xmlns="http://www.w3.org/2000/svg">
<g clip-path="url(#clip0_40_26538)">
<mask id="mask0_40_26538" style="mask-type:luminance" maskUnits="userSpaceOnUse" x="0" y="0" width="64" height="64">
<path d="M64 0H0V64H64V0Z" fill="white"/>
</mask>
<g mask="url(#mask0_40_26538)">
<path d="M32 64C49.6731 64 64 49.6731 64 32C64 14.3269 49.6731 0 32 0C14.3269 0 0 14.3269 0 32C0 49.6731 14.3269 64 32 64Z" fill="#F5F5F5"/>
<path d="M31.84 11.76L22.804 17.054L31.84 22.354L41.046 17.054L31.84 11.76ZM33.326 40.028V50.618L45.6 43.618V33.024L33.326 40.024V40.028ZM42.532 20.38V30.98L33.324 36.28V25.68L42.532 20.38ZM20.368 30.98L29.576 36.28V25.68L20.368 20.38V30.98ZM20.368 45.328L29.576 50.622V40.028L20.368 34.734V45.322V45.328Z" fill="black"/>
</g>
</g>
<defs>
<clipPath id="clip0_40_26538">
<rect width="64" height="64" fill="white"/>
</clipPath>
</defs>
</svg>
