<svg width="64" height="64" viewBox="0 0 64 64" fill="none" xmlns="http://www.w3.org/2000/svg">
<g clip-path="url(#clip0_40_26545)">
<path d="M32 64C49.6731 64 64 49.6731 64 32C64 14.3269 49.6731 0 32 0C14.3269 0 0 14.3269 0 32C0 49.6731 14.3269 64 32 64Z" fill="#F5F5F5"/>
<path d="M18.516 24.3261H13.122L13.873 18.8701H19.267L18.516 24.3261Z" fill="#0F5BAA"/>
<path d="M29.309 24.33H23.915L24.666 18.874H30.06L29.309 24.33Z" fill="#0F5BAA"/>
<path d="M23.161 29.7841H17.767L18.518 24.3281H23.912L23.161 29.7841Z" fill="#0F5BAA"/>
<path d="M27.804 35.2421H22.41L23.161 29.7861H28.555L27.804 35.2421Z" fill="#0F5BAA"/>
<path d="M47.136 31.0642C48.0577 30.5327 48.8545 29.8096 49.4728 28.9438C50.0911 28.0779 50.5164 27.0895 50.72 26.0452C51.451 22.3452 49.681 19.8852 45.914 19.2032L46.192 17.8032H42.259L42.019 19.0162H38.501L38.741 17.8032H34.811L34.571 19.0162H31.348L34.925 25.4112H31.976L29.367 38.6012H32.316L26.209 45.0012H29.433L29.193 46.2122H33.125L33.365 45.0012H36.881L36.641 46.2122H40.574L40.816 44.9872C45.554 44.7872 49.738 42.0962 50.66 37.4362C51.373 33.8302 49.693 31.9922 47.136 31.0732M37.818 23.9342H41.904C44.204 23.9342 45.344 24.9942 44.995 26.7622C44.653 28.4942 43.042 29.6252 40.924 29.6252H36.69L37.818 23.9342ZM40.534 40.0882H34.621L35.845 33.9022H41.612C44.203 33.9022 45.482 35.0022 45.084 37.0122C44.686 39.0222 42.936 40.0782 40.531 40.0782L40.534 40.0882Z" fill="#EA5615"/>
</g>
<defs>
<clipPath id="clip0_40_26545">
<rect width="64" height="64" fill="white"/>
</clipPath>
</defs>
</svg>
