<svg width="64" height="64" viewBox="0 0 64 64" fill="none" xmlns="http://www.w3.org/2000/svg">
<g clip-path="url(#clip0_40_26555)">
<path d="M32 64C49.6731 64 64 49.6731 64 32C64 14.3269 49.6731 0 32 0C14.3269 0 0 14.3269 0 32C0 49.6731 14.3269 64 32 64Z" fill="#139B3A"/>
<path d="M15.063 43.3309V20.6689H23.141C24.6513 20.6159 26.1522 20.927 27.517 21.5759C28.6214 22.1253 29.5309 22.9999 30.123 24.0819C30.7157 25.22 31.0124 26.489 30.986 27.7719C31.0133 29.0451 30.7142 30.3041 30.117 31.4289C29.521 32.4962 28.6088 33.3526 27.506 33.8799C26.1348 34.5066 24.6367 34.8058 23.13 34.7539H17.007V31.8109H22.816C23.7411 31.8444 24.6629 31.6822 25.521 31.3349C26.1728 31.0592 26.7128 30.572 27.054 29.9519C27.3949 29.277 27.5622 28.5278 27.541 27.7719C27.5604 27.0016 27.3915 26.2382 27.049 25.5479C26.7095 24.9102 26.1688 24.4026 25.511 24.1039C24.6462 23.7367 23.7107 23.5659 22.772 23.6039H18.478V43.3339L15.063 43.3309ZM26.246 33.1069L31.846 43.3309H27.946L22.463 33.1069H26.246ZM39.49 46.1639L39.579 17.8369H41.663L41.57 46.1639H39.49ZM45.333 26.6229C45.2904 26.132 45.1368 25.6573 44.8836 25.2346C44.6305 24.8118 44.2846 24.4522 43.872 24.1829C42.9077 23.5732 41.7811 23.2702 40.641 23.3139C39.8157 23.2945 38.995 23.4432 38.229 23.7509C37.6048 24.0015 37.0599 24.4161 36.652 24.9509C36.2837 25.4456 36.0874 26.0472 36.093 26.6639C36.0803 27.1561 36.2132 27.641 36.475 28.0579C36.7349 28.4541 37.0787 28.7883 37.482 29.0369C37.9053 29.3021 38.3559 29.521 38.826 29.6899C39.2795 29.8553 39.7411 29.9975 40.209 30.1159L42.422 30.6909C43.179 30.8789 43.9222 31.1191 44.646 31.4099C45.4018 31.7116 46.1127 32.1154 46.759 32.6099C47.4083 33.1042 47.9457 33.7303 48.336 34.4469C48.7557 35.256 48.9622 36.1588 48.936 37.0699C48.9565 38.2831 48.6116 39.4744 47.946 40.4889C47.2323 41.5294 46.2387 42.3466 45.08 42.8459C43.6496 43.457 42.1039 43.7514 40.549 43.7089C39.0424 43.744 37.5448 43.469 36.149 42.9009C34.9836 42.4203 33.9758 41.6237 33.239 40.6009C32.5205 39.5577 32.1168 38.33 32.076 37.0639H35.506C35.5441 37.8133 35.8249 38.53 36.306 39.1059C36.7899 39.6587 37.4107 40.0746 38.106 40.3119C38.8834 40.581 39.7014 40.714 40.524 40.7049C41.4069 40.7202 42.2844 40.5643 43.108 40.2459C43.8078 39.9834 44.4262 39.5412 44.901 38.9639C45.3359 38.4154 45.5668 37.7328 45.554 37.0329C45.5785 36.4311 45.3749 35.8422 44.984 35.3839C44.555 34.9218 44.0301 34.5593 43.446 34.3219C42.7374 34.0202 42.007 33.7725 41.261 33.5809L38.583 32.8509C36.9948 32.4734 35.5181 31.7265 34.273 30.6709C33.7469 30.1904 33.3321 29.6007 33.0578 28.9431C32.7835 28.2855 32.6563 27.5759 32.685 26.8639C32.6596 25.6393 33.0322 24.4396 33.747 23.4449C34.4875 22.4453 35.4804 21.6605 36.624 21.1709C37.9154 20.6123 39.3111 20.3351 40.718 20.3579C42.1161 20.3302 43.5036 20.6059 44.785 21.1659C45.8898 21.6493 46.8479 22.4149 47.563 23.3859C48.2426 24.3294 48.6136 25.4602 48.625 26.6229H45.333Z" fill="white"/>
</g>
<defs>
<clipPath id="clip0_40_26555">
<rect width="64" height="64" fill="white"/>
</clipPath>
</defs>
</svg>
