<svg width="64" height="64" viewBox="0 0 64 64" fill="none" xmlns="http://www.w3.org/2000/svg">
<g clip-path="url(#clip0_538_11)">
<path d="M32 64C49.6731 64 64 49.6731 64 32C64 14.3269 49.6731 0 32 0C14.3269 0 0 14.3269 0 32C0 49.6731 14.3269 64 32 64Z" fill="#030403"/>
<path d="M14.2978 28.9098C14.2978 28.9098 12.7429 5.17628 39.7917 3V19.6823C39.7917 19.6823 26.8789 20.3093 24.3195 28.9098H14.2978Z" fill="#00FFE6"/>
<path d="M34.1943 14.1926C34.1943 14.1926 57.9278 12.6377 60.1041 39.6865H43.4218C43.4218 39.6865 42.7948 26.7737 34.1943 24.2143V14.1926Z" fill="#E77AEA"/>
<path d="M28.9098 48.7018C28.9098 48.7018 5.17628 50.2567 3 23.2079H19.6823C19.6823 23.2079 20.3093 36.1207 28.9098 38.6801V48.7018Z" fill="#ED1C24"/>
<path d="M48.8084 34.0902C48.8084 34.0902 50.3633 57.8237 23.3145 60V43.3177C23.3145 43.3177 36.2273 42.6907 38.7867 34.0902H48.8084Z" fill="#8CC63F"/>
<path d="M51.4503 26.3177C54.7985 26.3177 57.5128 23.6034 57.5128 20.2552C57.5128 16.9069 54.7985 14.1926 51.4503 14.1926C48.102 14.1926 45.3877 16.9069 45.3877 20.2552C45.3877 23.6034 48.102 26.3177 51.4503 26.3177Z" fill="#00FFE6"/>
<path d="M42.7442 57.0968C46.0925 57.0968 48.8068 54.3825 48.8068 51.0342C48.8068 47.686 46.0925 44.9717 42.7442 44.9717C39.3959 44.9717 36.6816 47.686 36.6816 51.0342C36.6816 54.3825 39.3959 57.0968 42.7442 57.0968Z" fill="#ED1C24"/>
<path d="M11.9659 49.013C15.3141 49.013 18.0284 46.2988 18.0284 42.9505C18.0284 39.6022 15.3141 36.8879 11.9659 36.8879C8.61762 36.8879 5.90332 39.6022 5.90332 42.9505C5.90332 46.2988 8.61762 49.013 11.9659 49.013Z" fill="#00FFE6"/>
<path d="M20.3604 17.9228C23.7087 17.9228 26.423 15.2085 26.423 11.8603C26.423 8.51203 23.7087 5.79773 20.3604 5.79773C17.0122 5.79773 14.2979 8.51203 14.2979 11.8603C14.2979 15.2085 17.0122 17.9228 20.3604 17.9228Z" fill="#E77AEA"/>
</g>
<defs>
<clipPath id="clip0_538_11">
<rect width="64" height="64" fill="white"/>
</clipPath>
</defs>
</svg>
