<svg xmlns="http://www.w3.org/2000/svg" xmlns:xlink="http://www.w3.org/1999/xlink" width="64" height="64" viewBox="0 0 64 64"><defs><clipPath id="a"><circle cx="32" cy="32" r="32" transform="translate(286 419)" fill="#dedede"/></clipPath></defs><g transform="translate(-286 -419)" clip-path="url(#a)"><g transform="translate(286.004 419)"><path d="M63.035,39.741A31.989,31.989,0,1,1,39.733.958a31.991,31.991,0,0,1,23.3,38.783h0Z" fill="#f7931a"/><path d="M46.107,27.441c.637-4.259-2.605-6.548-7.039-8.075L40.507,13.6,37,12.723l-1.4,5.617c-.923-.23-1.871-.447-2.813-.662l1.41-5.654-3.509-.875-1.439,5.767c-.764-.174-1.514-.346-2.242-.527l0-.018-4.842-1.209-.934,3.75s2.605.6,2.55.634a1.869,1.869,0,0,1,1.636,2.042l-1.638,6.572a2.853,2.853,0,0,1,.365.117c-.117-.029-.242-.061-.371-.092l-2.3,9.206a1.278,1.278,0,0,1-1.609.834c.035.051-2.552-.637-2.552-.637l-1.743,4.02,4.57,1.139c.85.213,1.683.436,2.5.646l-1.453,5.835L24.7,50.1l1.439-5.773c.958.26,1.888.5,2.8.726L27.5,50.8l3.512.875,1.453-5.824c5.988,1.133,10.49.676,12.385-4.74,1.527-4.36-.076-6.876-3.226-8.516,2.294-.529,4.023-2.038,4.483-5.156h0Zm-8.023,11.25c-1.085,4.36-8.427,2-10.807,1.412l1.928-7.73c2.38.594,10.013,1.77,8.879,6.318ZM39.17,27.378c-.99,3.966-7.1,1.951-9.083,1.457l1.748-7.011c1.982.494,8.366,1.416,7.335,5.553Z" fill="#fff"/></g></g></svg>