<svg width="64" height="64" viewBox="0 0 64 64" fill="none" xmlns="http://www.w3.org/2000/svg">
<g clip-path="url(#clip0_40_26574)">
<path d="M32 64C49.6731 64 64 49.6731 64 32C64 14.3269 49.6731 0 32 0C14.3269 0 0 14.3269 0 32C0 49.6731 14.3269 64 32 64Z" fill="black"/>
<path d="M31.591 10.5789C28.373 10.6049 25.331 11.9509 22.464 13.3139C19.3411 15.0138 15.8455 15.9132 12.29 15.9319C12.168 18.0589 12.114 20.1909 12.169 22.3219C12.339 29.5319 13.755 36.9269 17.679 43.0729C21.079 48.5069 26.327 52.5359 31.986 55.4139L32 55.4209L32.014 55.4139C37.672 52.5359 42.92 48.5069 46.321 43.0729C50.245 36.9279 51.661 29.5319 51.831 22.3219C51.886 20.1909 51.831 18.0589 51.71 15.9319C48.1544 15.9132 44.6589 15.0138 41.536 13.3139C38.67 11.9509 35.627 10.6049 32.409 10.5789C32.309 10.5789 32.2 10.5789 32.096 10.5789H31.996H31.896C31.8 10.5799 31.695 10.5779 31.591 10.5789Z" fill="black"/>
<path d="M32 12.564C31.908 12.564 31.816 12.564 31.724 12.564C27.588 12.636 23.998 14.964 20.258 16.44C18.3149 17.2014 16.2717 17.6773 14.192 17.853C13.869 25.553 14.737 33.536 18.404 40.418C21.5804 45.9074 26.307 50.3366 31.991 53.15H31.999H32.007C37.6914 50.3378 42.4187 45.9096 45.596 40.421C49.263 33.54 50.131 25.556 49.808 17.856C47.7284 17.6803 45.6852 17.2044 43.742 16.443C40.002 14.967 36.412 12.643 32.276 12.567C32.186 12.565 32.093 12.564 32 12.564Z" fill="white"/>
<path d="M32 15.095C31.92 15.095 31.84 15.095 31.76 15.095C27.59 15.286 24.083 17.841 20.232 19.146C19.0678 19.5417 17.8758 19.8509 16.666 20.071C16.574 26.953 17.619 34.065 21.138 40.071C23.8215 44.3498 27.5611 47.866 31.997 50.281C36.4329 47.866 40.1726 44.3498 42.856 40.071C46.375 34.071 47.42 26.956 47.328 20.071C46.1182 19.8509 44.9263 19.5417 43.762 19.146C39.911 17.841 36.404 15.286 32.234 15.095C32.154 15.095 32.074 15.095 31.994 15.095H32Z" fill="black"/>
<path d="M32.001 18.697L29.3281 26.957H20.6281L27.6741 32.064L24.9741 40.348L32.002 35.218L39.0291 40.348L36.329 32.065L43.381 26.958H34.681L32.0081 18.698L32.001 18.697Z" fill="white"/>
</g>
<defs>
<clipPath id="clip0_40_26574">
<rect width="64" height="64" fill="white"/>
</clipPath>
</defs>
</svg>
