<svg width="64" height="64" viewBox="0 0 64 64" fill="none" xmlns="http://www.w3.org/2000/svg">
<g clip-path="url(#clip0_40_26584)">
<mask id="mask0_40_26584" style="mask-type:luminance" maskUnits="userSpaceOnUse" x="0" y="0" width="64" height="64">
<path d="M32 64C49.6731 64 64 49.6731 64 32C64 14.3269 49.6731 0 32 0C14.3269 0 0 14.3269 0 32C0 49.6731 14.3269 64 32 64Z" fill="white"/>
</mask>
<g mask="url(#mask0_40_26584)">
<path d="M30.3021 0H33.6361C37.1228 0.199897 40.5556 0.952617 43.8061 2.23C51.0896 5.14247 57.041 10.6424 60.5177 17.6741C63.9945 24.7058 64.7517 32.7739 62.6441 40.3298C60.5364 47.8856 55.7125 54.3969 49.098 58.6137C42.4836 62.8306 34.5447 64.456 26.8052 63.1779C19.0657 61.8999 12.071 57.8084 7.16342 51.6888C2.2559 45.5692 -0.218584 37.8528 0.214928 30.0205C0.648439 22.1881 3.9594 14.7919 9.51231 9.25127C15.0652 3.71067 22.4688 0.416132 30.3021 0ZM28.3221 1.45C23.4557 2.05783 18.8035 3.81357 14.749 6.57246C10.6944 9.33136 7.35365 13.0144 5.00206 17.318C1.71175 23.3517 0.539699 30.3145 1.67333 37.0929C2.80697 43.8713 6.1808 50.0738 11.2553 54.7085C16.3299 59.3433 22.812 62.1426 29.6651 62.6588C36.5182 63.175 43.3465 61.3783 49.0581 57.556C53.305 54.733 56.7818 50.8965 59.1745 46.393C61.5671 41.8895 62.8002 36.8609 62.7624 31.7615C62.7246 26.662 61.4171 21.6523 58.9579 17.1848C56.4987 12.7173 52.9654 8.93274 48.6771 6.173C42.6568 2.25817 35.4511 0.586219 28.3221 1.45Z" fill="#00206B"/>
<path d="M29.0931 14.0511C31.8844 13.5936 34.7441 13.7973 37.4423 14.6459C40.1405 15.4945 42.6021 16.9643 44.6291 18.9371C46.4033 20.6246 47.8098 22.6606 48.7602 24.9172C49.7106 27.1739 50.1845 29.6026 50.1521 32.0511C50.1684 34.4859 49.6841 36.8981 48.7294 39.138C47.7747 41.3779 46.3698 43.3977 44.6021 45.0721C42.7074 46.9 40.4378 48.2939 37.9507 49.1573C35.4636 50.0206 32.8185 50.3327 30.1987 50.0718C27.579 49.811 25.0473 48.9835 22.7793 47.6466C20.5112 46.3098 18.5611 44.4957 17.0641 42.3301C15.3178 39.8075 14.2386 36.8838 13.9272 33.8315C13.6158 30.7793 14.0823 27.6979 15.2833 24.8747C16.4842 22.0514 18.3804 19.5782 20.7952 17.6856C23.21 15.793 26.0646 14.5426 29.0931 14.0511ZM30.2031 15.1581C30.2031 16.7487 30.2031 18.3391 30.2031 19.9291C30.9964 19.9291 31.7901 19.9291 32.5841 19.9291C32.5841 18.2971 32.5901 16.6651 32.5841 15.0361C31.7901 15.0621 30.9941 15.1001 30.2001 15.1541M35.9251 20.0021C38.0151 20.2841 40.2611 20.6021 41.9251 22.0151C44.4691 24.3001 44.1391 29.0971 41.0251 30.7541C41.9892 30.9192 42.8891 31.3468 43.626 31.99C44.3629 32.6332 44.9082 33.4671 45.2021 34.4001C45.8021 36.9701 45.3241 40.0541 43.2601 41.8661C41.2151 43.5491 38.4471 43.766 35.9191 44.01C35.9321 45.498 35.9251 46.9861 35.9191 48.4771C38.5814 47.8153 41.0472 46.5273 43.1112 44.72C45.1752 42.9128 46.7776 40.6387 47.7851 38.0871C48.7007 35.7123 49.0683 33.1615 48.8606 30.6248C48.6528 28.0881 47.8749 25.6311 46.5851 23.4371C44.2268 19.4882 40.3973 16.6371 35.9381 15.5101C35.9251 17.0101 35.9251 18.5101 35.9281 20.0101M20.0461 19.9461C22.3461 20.0581 24.6571 20.0321 26.9641 20.0291C26.9641 18.6291 26.9641 17.2231 26.9581 15.8181C24.3969 16.7088 22.0448 18.1135 20.0461 19.9461ZM19.7711 20.1321C18.868 21.2033 18.0596 22.3509 17.3551 23.5621C16.0131 25.8838 15.2446 28.4922 15.1133 31.1707C14.982 33.8491 15.4917 36.5202 16.6001 38.9621C17.5955 41.1292 19.0301 43.0659 20.8131 44.6496C22.5961 46.2332 24.6886 47.4293 26.9581 48.162C26.9641 46.762 26.9581 45.3621 26.9581 43.9621C24.6441 43.9401 22.3241 44.0231 20.0141 43.8981C20.063 42.6092 20.3225 41.3371 20.7821 40.1321C21.9216 40.2407 23.0711 40.1733 24.1901 39.9321C24.8301 39.3941 24.6481 38.5051 24.6831 37.7691C24.6481 33.5611 24.6991 29.3531 24.6611 25.1481C24.6919 24.8033 24.5995 24.4588 24.4003 24.1757C24.2011 23.8927 23.908 23.6894 23.5731 23.6021C22.4028 23.4401 21.2198 23.3899 20.0401 23.4521C19.9223 22.503 19.8669 21.5473 19.8741 20.5911C19.8831 20.4201 19.8537 20.2492 19.7881 20.0911L19.7691 20.1201L19.7711 20.1321ZM30.3021 23.7441V29.9441C32.3721 29.9061 34.6701 30.1361 36.4811 28.9331C36.8264 28.6776 37.1046 28.342 37.2916 27.9553C37.4787 27.5685 37.569 27.1421 37.5548 26.7128C37.5407 26.2834 37.4224 25.8639 37.2103 25.4903C36.9982 25.1167 36.6985 24.8002 36.3371 24.5681C34.5231 23.4961 32.3111 23.8001 30.3021 23.7421M30.3021 33.281V40.1611C32.8591 39.9611 35.7261 40.3851 37.9501 38.8431C38.3098 38.5686 38.5971 38.2106 38.7871 37.7999C38.9771 37.3893 39.0641 36.9385 39.0404 36.4867C39.0168 36.0349 38.8832 35.5956 38.6514 35.2071C38.4196 34.8186 38.0965 34.4924 37.7101 34.2571C35.4831 32.9261 32.7761 33.348 30.3021 33.281ZM30.2091 44.052C30.2091 45.6427 30.2071 47.234 30.2031 48.826C31.0321 48.88 31.8571 48.912 32.6861 48.938C32.6921 47.309 32.6861 45.68 32.6861 44.052H30.2061H30.2091Z" fill="#00206B"/>
<path d="M28.508 3.11011C32.4184 2.63347 36.3848 2.95638 40.1666 4.05923C43.9484 5.16208 47.4666 7.02188 50.5078 9.52574C53.549 12.0296 56.0497 15.1253 57.8582 18.625C59.6666 22.1247 60.745 25.9553 61.0281 29.8844C61.3111 33.8136 60.7928 37.7592 59.5046 41.482C58.2164 45.2047 56.1852 48.6268 53.5342 51.5407C50.8833 54.4546 47.6679 56.7994 44.0832 58.4329C40.4986 60.0664 36.6193 60.9544 32.681 61.0431C25.9212 61.2527 19.305 59.0654 14.002 54.8681C9.4822 51.3112 6.11777 46.4947 4.33365 41.0268C2.54952 35.559 2.42572 29.6851 3.97788 24.1469C5.53003 18.6088 8.68853 13.6548 13.0545 9.91056C17.4204 6.16637 22.798 3.79994 28.508 3.11011ZM27.532 12.5001C24.2689 13.2473 21.2456 14.8016 18.7391 17.0205C16.2326 19.2394 14.3232 22.052 13.1858 25.2004C12.0485 28.3488 11.7196 31.7323 12.2293 35.0409C12.739 38.3494 14.071 41.477 16.1032 44.1371C18.1355 46.7972 20.8029 48.9047 23.861 50.2663C26.9191 51.6279 30.2701 52.2002 33.6068 51.9306C36.9434 51.661 40.1591 50.5582 42.9589 48.7233C45.7588 46.8883 48.0532 44.38 49.632 41.4281C51.4421 38.0439 52.2402 34.2103 51.9311 30.3849C51.622 26.5594 50.2188 22.9037 47.8889 19.854C45.559 16.8042 42.4008 14.4892 38.7912 13.1853C35.1816 11.8813 31.2731 11.6435 27.532 12.5001Z" fill="#EBA809"/>
</g>
</g>
<defs>
<clipPath id="clip0_40_26584">
<rect width="64" height="64" fill="white"/>
</clipPath>
</defs>
</svg>
