<svg width="64" height="64" viewBox="0 0 64 64" fill="none" xmlns="http://www.w3.org/2000/svg">
<g clip-path="url(#clip0_494_11800)">
<mask id="mask0_494_11800" style="mask-type:luminance" maskUnits="userSpaceOnUse" x="0" y="0" width="64" height="64">
<path d="M64 0H0V64H64V0Z" fill="white"/>
</mask>
<g mask="url(#mask0_494_11800)">
<path d="M32 64C49.6731 64 64 49.6731 64 32C64 14.3269 49.6731 0 32 0C14.3269 0 0 14.3269 0 32C0 49.6731 14.3269 64 32 64Z" fill="#F5F5F5"/>
<path d="M32 59C46.9117 59 59 46.9117 59 32C59 17.0883 46.9117 5 32 5C17.0883 5 5 17.0883 5 32C5 46.9117 17.0883 59 32 59Z" fill="#F5F5F5"/>
</g>
<g clip-path="url(#clip1_494_11800)">
<mask id="mask1_494_11800" style="mask-type:luminance" maskUnits="userSpaceOnUse" x="0" y="0" width="64" height="64">
<path d="M64 0H0V64H64V0Z" fill="white"/>
</mask>
<g mask="url(#mask1_494_11800)">
<mask id="mask2_494_11800" style="mask-type:luminance" maskUnits="userSpaceOnUse" x="0" y="0" width="64" height="64">
<path d="M32 64C49.6731 64 64 49.6731 64 32C64 14.3269 49.6731 0 32 0C14.3269 0 0 14.3269 0 32C0 49.6731 14.3269 64 32 64Z" fill="white"/>
</mask>
<g mask="url(#mask2_494_11800)">
<path d="M30.3019 0H33.6359C37.1226 0.199897 40.5554 0.952617 43.8059 2.23C51.0894 5.14247 57.0408 10.6424 60.5175 17.6741C63.9943 24.7058 64.7515 32.7739 62.6439 40.3298C60.5362 47.8856 55.7123 54.3969 49.0978 58.6137C42.4834 62.8306 34.5445 64.456 26.805 63.1779C19.0655 61.8999 12.0708 57.8084 7.16318 51.6888C2.25566 45.5692 -0.218828 37.8528 0.214684 30.0205C0.648195 22.1881 3.95916 14.7919 9.51207 9.25127C15.065 3.71067 22.4686 0.416132 30.3019 0ZM28.3219 1.45C23.4555 2.05783 18.8033 3.81357 14.7488 6.57246C10.6942 9.33136 7.35341 13.0144 5.00182 17.318C1.71151 23.3517 0.539455 30.3145 1.67309 37.0929C2.80673 43.8713 6.18055 50.0738 11.2551 54.7085C16.3297 59.3433 22.8118 62.1426 29.6649 62.6588C36.518 63.175 43.3463 61.3783 49.0579 57.556C53.3048 54.733 56.7816 50.8965 59.1743 46.393C61.5669 41.8895 62.8 36.8609 62.7622 31.7615C62.7244 26.662 61.4169 21.6523 58.9577 17.1848C56.4985 12.7173 52.9652 8.93274 48.6769 6.173C42.6566 2.25817 35.4509 0.586219 28.3219 1.45Z" fill="#00206B"/>
<path d="M29.0928 14.0511C31.8841 13.5936 34.7437 13.7973 37.4419 14.6459C40.1401 15.4945 42.6018 16.9643 44.6288 18.9371C46.403 20.6246 47.8094 22.6606 48.7598 24.9172C49.7102 27.1739 50.1841 29.6026 50.1517 32.0511C50.168 34.4859 49.6837 36.8981 48.729 39.138C47.7743 41.3779 46.3695 43.3977 44.6018 45.0721C42.7071 46.9 40.4374 48.2939 37.9503 49.1573C35.4632 50.0206 32.8182 50.3327 30.1984 50.0718C27.5787 49.811 25.047 48.9835 22.779 47.6466C20.5109 46.3098 18.5608 44.4957 17.0638 42.3301C15.3175 39.8075 14.2383 36.8838 13.9269 33.8315C13.6155 30.7793 14.082 27.6979 15.283 24.8747C16.4839 22.0514 18.3801 19.5782 20.7949 17.6856C23.2097 15.793 26.0643 14.5426 29.0928 14.0511ZM30.2028 15.1581C30.2028 16.7487 30.2028 18.3391 30.2028 19.9291C30.9961 19.9291 31.7897 19.9291 32.5837 19.9291C32.5837 18.2971 32.5897 16.6651 32.5837 15.0361C31.7897 15.0621 30.9938 15.1001 30.1998 15.1541M35.9247 20.0021C38.0147 20.2841 40.2607 20.6021 41.9247 22.0151C44.4687 24.3001 44.1388 29.0971 41.0248 30.7541C41.9889 30.9192 42.8888 31.3468 43.6257 31.99C44.3626 32.6332 44.9078 33.4671 45.2017 34.4001C45.8017 36.9701 45.3238 40.0541 43.2598 41.8661C41.2148 43.5491 38.4468 43.766 35.9188 44.01C35.9318 45.498 35.9248 46.9861 35.9188 48.4771C38.5811 47.8153 41.0468 46.5273 43.1108 44.72C45.1748 42.9128 46.7772 40.6387 47.7847 38.0871C48.7003 35.7123 49.0679 33.1615 48.8602 30.6248C48.6524 28.0881 47.8745 25.6311 46.5847 23.4371C44.2264 19.4882 40.3969 16.6371 35.9377 15.5101C35.9247 17.0101 35.9248 18.5101 35.9278 20.0101M20.0458 19.9461C22.3458 20.0581 24.6568 20.0321 26.9638 20.0291C26.9638 18.6291 26.9638 17.2231 26.9578 15.8181C24.3966 16.7088 22.0445 18.1135 20.0458 19.9461ZM19.7707 20.1321C18.8676 21.2033 18.0593 22.3509 17.3548 23.5621C16.0128 25.8838 15.2443 28.4922 15.113 31.1707C14.9817 33.8491 15.4914 36.5202 16.5998 38.9621C17.5952 41.1292 19.0298 43.0659 20.8128 44.6496C22.5958 46.2332 24.6883 47.4293 26.9578 48.162C26.9638 46.762 26.9578 45.3621 26.9578 43.9621C24.6438 43.9401 22.3237 44.0231 20.0137 43.8981C20.0626 42.6092 20.3222 41.3371 20.7818 40.1321C21.9213 40.2407 23.0708 40.1733 24.1898 39.9321C24.8298 39.3941 24.6478 38.5051 24.6828 37.7691C24.6478 33.5611 24.6988 29.3531 24.6608 25.1481C24.6916 24.8033 24.5992 24.4588 24.4 24.1757C24.2008 23.8927 23.9077 23.6894 23.5728 23.6021C22.4025 23.4401 21.2195 23.3899 20.0398 23.4521C19.922 22.503 19.8666 21.5473 19.8738 20.5911C19.8828 20.4201 19.8533 20.2492 19.7877 20.0911L19.7688 20.1201L19.7707 20.1321ZM30.3018 23.7441V29.9441C32.3718 29.9061 34.6697 30.1361 36.4807 28.9331C36.826 28.6776 37.1043 28.342 37.2913 27.9553C37.4784 27.5685 37.5686 27.1421 37.5544 26.7128C37.5403 26.2834 37.4221 25.8639 37.21 25.4903C36.9979 25.1167 36.6982 24.8002 36.3368 24.5681C34.5228 23.4961 32.3108 23.8001 30.3018 23.7421M30.3018 33.281V40.1611C32.8588 39.9611 35.7258 40.3851 37.9498 38.8431C38.3095 38.5686 38.5968 38.2106 38.7868 37.7999C38.9768 37.3893 39.0638 36.9385 39.0401 36.4867C39.0165 36.0349 38.8829 35.5956 38.6511 35.2071C38.4193 34.8186 38.0961 34.4924 37.7097 34.2571C35.4827 32.9261 32.7758 33.348 30.3018 33.281ZM30.2088 44.052C30.2088 45.6427 30.2068 47.234 30.2028 48.826C31.0318 48.88 31.8568 48.912 32.6858 48.938C32.6918 47.309 32.6858 45.68 32.6858 44.052H30.2058H30.2088Z" fill="#00206B"/>
<path d="M28.5082 3.11011C32.4186 2.63347 36.385 2.95638 40.1668 4.05923C43.9486 5.16208 47.4668 7.02188 50.508 9.52574C53.5492 12.0296 56.0499 15.1253 57.8584 18.625C59.6668 22.1247 60.7452 25.9553 61.0283 29.8844C61.3113 33.8136 60.793 37.7592 59.5048 41.482C58.2166 45.2047 56.1854 48.6268 53.5344 51.5407C50.8835 54.4546 47.6681 56.7994 44.0834 58.4329C40.4988 60.0664 36.6195 60.9544 32.6812 61.0431C25.9214 61.2527 19.3052 59.0654 14.0022 54.8681C9.48244 51.3112 6.11801 46.4947 4.33389 41.0268C2.54976 35.559 2.42596 29.6851 3.97812 24.1469C5.53027 18.6088 8.68877 13.6548 13.0547 9.91056C17.4206 6.16637 22.7982 3.79994 28.5082 3.11011ZM27.5322 12.5001C24.2691 13.2473 21.2458 14.8016 18.7393 17.0205C16.2328 19.2394 14.3234 22.052 13.186 25.2004C12.0487 28.3488 11.7198 31.7323 12.2295 35.0409C12.7392 38.3494 14.0712 41.477 16.1034 44.1371C18.1357 46.7972 20.8031 48.9047 23.8612 50.2663C26.9193 51.6279 30.2703 52.2002 33.607 51.9306C36.9436 51.661 40.1593 50.5582 42.9591 48.7233C45.759 46.8883 48.0534 44.38 49.6322 41.4281C51.4423 38.0439 52.2404 34.2103 51.9313 30.3849C51.6222 26.5594 50.219 22.9037 47.8891 19.854C45.5592 16.8042 42.401 14.4892 38.7914 13.1853C35.1818 11.8813 31.2733 11.6435 27.5322 12.5001Z" fill="#EBA809"/>
</g>
</g>
</g>
</g>
<defs>
<clipPath id="clip0_494_11800">
<rect width="64" height="64" rx="32" fill="white"/>
</clipPath>
<clipPath id="clip1_494_11800">
<rect width="64" height="64" fill="white"/>
</clipPath>
</defs>
</svg>
