<svg width="64" height="64" viewBox="0 0 64 64" fill="none" xmlns="http://www.w3.org/2000/svg">
<g clip-path="url(#clip0_40_26604)">
<path d="M32 64C49.6731 64 64 49.6731 64 32C64 14.3269 49.6731 0 32 0C14.3269 0 0 14.3269 0 32C0 49.6731 14.3269 64 32 64Z" fill="#F0B90B"/>
<path d="M32.0001 11.4482L37.0771 16.6482L24.2931 29.4312L19.2161 24.3542L32.0001 11.4482Z" fill="white"/>
<path d="M39.7071 19.1553L44.7841 24.3553L24.2931 44.8453L19.2161 39.7683L39.7071 19.1553Z" fill="white"/>
<path d="M16.586 26.8623L21.663 32.0623L16.586 37.1393L11.509 32.0613L16.586 26.8623Z" fill="white"/>
<path d="M47.414 26.8623L52.491 32.0623L32 52.5523L26.923 47.4753L47.414 26.8623Z" fill="white"/>
</g>
<defs>
<clipPath id="clip0_40_26604">
<rect width="64" height="64" fill="white"/>
</clipPath>
</defs>
</svg>
