<svg width="64" height="64" viewBox="0 0 64 64" fill="none" xmlns="http://www.w3.org/2000/svg">
<g clip-path="url(#clip0_40_26733)">
<path d="M32 64C49.6731 64 64 49.6731 64 32C64 14.3269 49.6731 0 32 0C14.3269 0 0 14.3269 0 32C0 49.6731 14.3269 64 32 64Z" fill="#F5F5F5"/>
<path fill-rule="evenodd" clip-rule="evenodd" d="M20.065 19.0679C19.9312 18.3929 19.9404 17.6973 20.0918 17.026C20.2433 16.3547 20.5338 15.7227 20.9445 15.1705C21.3551 14.6183 21.877 14.1583 22.4763 13.8201C23.0757 13.482 23.7392 13.2731 24.4242 13.2071C25.1092 13.141 25.8004 13.2192 26.4533 13.4366C27.1062 13.654 27.7063 14.0058 28.215 14.4694C28.7236 14.9329 29.1295 15.4978 29.4065 16.1278C29.6834 16.7578 29.8253 17.4388 29.823 18.1269V24.2409C30.528 24.2409 31.234 24.1229 31.939 24.1229C32.6078 24.1035 33.2771 24.143 33.939 24.2409V18.1269C33.9469 16.8195 34.4698 15.568 35.3944 14.6436C36.3189 13.7192 37.5706 13.1965 38.878 13.1889C39.6057 13.201 40.3224 13.3692 40.9796 13.6821C41.6367 13.995 42.2191 14.4454 42.6872 15.0027C43.1553 15.5601 43.4984 16.2114 43.6931 16.9127C43.8878 17.6141 43.9297 18.349 43.816 19.0679L42.523 26.2389C47.108 28.2389 50.635 31.7649 50.635 36.1149V38.8149C50.635 42.4599 48.284 45.5149 44.874 47.5149C40.9499 49.7859 36.4733 50.9254 31.941 50.8069C27.4091 50.9269 22.9326 49.7892 19.008 47.5199C15.716 45.5209 13.365 42.4639 13.365 38.8189V36.1189C13.365 31.7689 16.775 28.2419 21.36 26.2429L20.065 19.0679ZM40.758 27.1799L42.286 18.7149C42.3799 18.2135 42.3624 17.6976 42.2345 17.2038C42.1066 16.71 41.8716 16.2504 41.5461 15.8576C41.2206 15.4649 40.8127 15.1486 40.3512 14.9312C39.8898 14.7138 39.3861 14.6007 38.876 14.5999C37.9718 14.6002 37.1046 14.9594 36.465 15.5986C35.8255 16.2378 35.4658 17.1047 35.465 18.0089V25.7689C34.9618 25.6713 34.4492 25.6317 33.937 25.6509C33.232 25.6509 32.644 25.5329 31.937 25.5329C31.2296 25.5136 30.5218 25.5531 29.821 25.6509C29.351 25.6509 28.763 25.7689 28.293 25.7689V18.1269C28.2967 17.6496 28.1996 17.1768 28.008 16.7396C27.8165 16.3024 27.5347 15.9106 27.1812 15.5898C26.8277 15.269 26.4104 15.0265 25.9567 14.8782C25.503 14.7298 25.0231 14.6789 24.5483 14.7289C24.0736 14.7788 23.6148 14.9285 23.2019 15.168C22.789 15.4076 22.4314 15.7316 22.1524 16.119C21.8734 16.5063 21.6793 16.9482 21.5829 17.4157C21.4865 17.8832 21.49 18.3658 21.593 18.8319L23.121 27.2969C18.183 29.1779 14.891 32.4699 14.891 36.2319V38.9319C14.891 44.6929 22.533 49.3959 31.939 49.3959C41.345 49.3959 48.987 44.6959 48.987 38.9319V36.2319C49.107 32.3529 45.814 29.0609 40.758 27.1799Z" fill="#633001"/>
<path d="M49.111 38.815C49.111 44.576 41.469 49.279 32.063 49.279C22.657 49.279 15.011 44.58 15.011 38.815V36.115H49.224V38.815H49.111Z" fill="#FEDC90"/>
<path fill-rule="evenodd" clip-rule="evenodd" d="M21.595 18.8319C21.492 18.3658 21.4885 17.8831 21.5849 17.4156C21.6813 16.9481 21.8754 16.5062 22.1544 16.1189C22.4334 15.7316 22.791 15.4075 23.2039 15.168C23.6168 14.9284 24.0756 14.7788 24.5503 14.7288C25.0251 14.6789 25.505 14.7297 25.9587 14.8781C26.4124 15.0265 26.8297 15.269 27.1832 15.5897C27.5367 15.9105 27.8185 16.3023 28.01 16.7396C28.2016 17.1768 28.2987 17.6495 28.295 18.1269V25.8869C29.5052 25.7462 30.7218 25.6678 31.94 25.6519C33.116 25.6519 34.291 25.7699 35.467 25.8869V18.1269C35.4675 17.2226 35.827 16.3556 36.4663 15.7162C37.1057 15.0768 37.9728 14.7174 38.877 14.7169C39.3836 14.7282 39.8819 14.8483 40.3381 15.069C40.7943 15.2897 41.1977 15.6059 41.5211 15.9961C41.8445 16.3863 42.0802 16.8415 42.2123 17.3307C42.3445 17.82 42.3699 18.3319 42.287 18.8319L40.759 27.2969C45.697 29.1779 49.107 32.4699 49.107 36.2319C49.107 41.9929 41.465 46.6959 32.059 46.6959C22.653 46.6959 15.011 41.9929 15.011 36.2319C15.011 32.4699 18.303 29.1779 23.241 27.2969L21.595 18.8319Z" fill="#D1884F"/>
<path d="M27.238 35.4099C27.238 36.9379 26.415 38.2319 25.357 38.2319C24.299 38.2319 23.476 36.9379 23.476 35.4099C23.476 33.8819 24.299 32.5879 25.357 32.5879C26.415 32.5879 27.238 33.8809 27.238 35.4099Z" fill="#633001"/>
<path d="M40.288 35.4099C40.288 36.9379 39.465 38.2319 38.407 38.2319C37.349 38.2319 36.526 36.9379 36.526 35.4099C36.526 33.8819 37.349 32.5879 38.407 32.5879C39.465 32.5879 40.288 33.8809 40.288 35.4099Z" fill="#633001"/>
</g>
<defs>
<clipPath id="clip0_40_26733">
<rect width="64" height="64" fill="white"/>
</clipPath>
</defs>
</svg>
