<svg width="64" height="64" viewBox="0 0 64 64" fill="none" xmlns="http://www.w3.org/2000/svg">
<g clip-path="url(#clip0_538_1451)">
<path d="M32 64C49.6731 64 64 49.6731 64 32C64 14.3269 49.6731 0 32 0C14.3269 0 0 14.3269 0 32C0 49.6731 14.3269 64 32 64Z" fill="#F5F5F5"/>
<path d="M52.0955 36.5067H8.62988L11.4614 33.8636H49.264L52.0955 36.5067Z" fill="#F15A25"/>
<path d="M55.6294 31.7554L55.5927 31.3925C55.8856 31.1162 56.1026 30.7676 56.22 30.3811L57.2195 27.093L57.3085 26.4836C57.3085 26.2357 57.2658 25.982 57.1828 25.7318C57.1093 25.5124 57.0037 25.3026 56.8697 25.1057C56.7618 24.9492 56.6314 24.801 56.5342 24.718C56.5105 24.6919 56.4867 24.6682 56.463 24.6469L56.3445 24.5295C56.3196 24.5034 56.2946 24.4785 56.284 24.469L55.8856 24.0718C55.8346 24.0232 55.78 23.9769 55.7267 23.9366C55.3449 23.6437 54.8919 23.4896 54.4176 23.4896H48.4557L47.7052 22.6252L49.6498 18.5771H44.193L30.6851 3L26.1804 18.5771H24.2773L24.7753 10.8093L24.4445 11.5148C24.3307 11.7579 21.7221 17.3273 21.2691 18.5771H11.0717L13.4326 23.4896H4L5.72051 26.595L4.35216 31.0641C4.12806 31.7992 4.28339 32.596 4.76836 33.1972C4.81579 33.2553 4.86796 33.3134 4.90116 33.3466L5.46439 33.911C5.90548 34.4043 6.5363 34.6877 7.19557 34.6877H11.7939C11.4429 35.9564 11.0646 37.6758 11.0658 39.9132C10.9745 46.4158 14.0302 52.1987 19.8984 56.6333L21.2904 57.7622L21.2786 57.6234C25.7192 60.6257 29.9736 61.8874 30.1562 61.9407L30.3613 62L30.6602 61.9134C30.7289 61.8921 30.8416 61.8565 30.9886 61.8079L31.2281 61.7273H31.3301L31.438 61.655C31.534 61.6206 31.6384 61.5838 31.7498 61.5435L31.8198 61.5174C31.9467 61.4712 32.083 61.4202 32.2277 61.3644C32.3961 61.3016 32.5739 61.2305 32.7435 61.1629L32.804 61.1392C32.983 61.0668 33.168 60.9909 33.3103 60.9269L33.3731 60.9044C37.9382 58.9728 48.6561 53.2469 49.5822 41.814C49.5988 41.6112 49.6106 41.4049 49.6201 41.1974L51.145 39.4721C52.0438 38.456 52.9426 38.4927 52.9509 38.4892L52.9912 38.4915L57.7223 38.3291C58.1669 38.3149 58.5974 38.2117 59.0005 38.0244L60.4685 37.3426L55.6294 31.7554Z" fill="#F15A25"/>
<path fill-rule="evenodd" clip-rule="evenodd" d="M45.6481 24.309H30.3639H15.0797C14.3671 31.7898 11.8023 34.0344 11.8047 39.9228C11.5818 55.8105 30.3639 61.2329 30.3639 61.2329C30.3639 61.2329 49.146 55.8105 48.9231 39.9228C48.9243 34.0344 46.3607 31.7886 45.6481 24.309Z" fill="#165A9F"/>
<path d="M17.8438 50.6536C20.8306 54.7788 25.4432 57.838 30.3652 59.5443C38.7199 56.6487 46.1912 49.858 46.3062 40.563C40.3941 41.1072 28.9838 42.376 23.131 44.4676C19.2465 45.8573 18.0441 48.39 17.8438 50.6536Z" fill="#165A9F"/>
<path d="M42.5854 46.4326C42.5854 46.4326 42.1692 46.9733 40.7807 47.3966C39.3187 47.8958 37.5341 47.9989 35.6702 47.8661C34.7571 47.827 33.7327 47.7392 32.5766 47.5839C25.6293 46.7942 20.9694 46.678 19.2014 49.2617C19.0757 49.4455 18.924 49.6091 18.7544 49.7574L18.0098 51.8751C18.0098 51.8751 18.1675 52.6944 22.078 55.6576C25.9886 58.6208 30.3628 57.3165 30.3628 57.3165C33.7588 56.5078 35.9132 54.3533 35.9132 54.3533C32.8244 55.8663 30.1837 55.041 30.1837 55.041C38.6677 53.7735 42.5854 46.4326 42.5854 46.4326Z" fill="#5A99D2"/>
<path d="M45.5274 34.9854C45.4124 34.587 45.2879 34.1922 45.1515 33.7997C44.3867 31.5883 43.7725 29.2607 43.3504 26.9449H30.3641H17.3767C16.9546 29.2607 16.3404 31.5883 15.5756 33.7997C15.4404 34.191 15.3147 34.587 15.1997 34.9854C15.0373 35.5499 14.8974 36.1202 14.7835 36.6965C13.7081 42.1129 15.08 46.8381 17.8427 50.6538C18.0431 48.3902 19.2455 45.8575 23.13 44.4678C28.9816 42.375 40.3931 41.1074 46.3052 40.5632C46.3206 39.3181 46.2092 38.0292 45.9448 36.6965C45.8297 36.1202 45.6898 35.5499 45.5274 34.9854Z" fill="#F15A25"/>
<path d="M27.3696 40.1244L26.3297 39.4462C26.3297 39.4462 19.7655 39.6762 16.7881 44.3622C16.7881 44.3622 17.1509 44.7168 17.8896 44.1286C18.6295 43.5405 19.2935 43.0318 19.2935 43.0318C19.2935 43.0318 20.0939 42.3714 20.7662 42.9607C21.2773 43.435 21.5631 43.9022 21.5631 43.9022L27.3696 40.1244Z" fill="#161941"/>
<path fill-rule="evenodd" clip-rule="evenodd" d="M52.2839 36.8601C52.2839 36.8601 45.926 46.5132 35.9243 46.1504C25.9226 45.7875 20.167 45.5468 19.0192 49.7574C18.5852 51.7601 20.0401 53.228 20.0401 53.228L20.4148 56.1023C20.4148 56.1023 16.0122 52.5486 16.7592 48.5384C17.6698 43.6508 22.7128 39.7521 35.0421 37.8858C47.3702 36.0194 52.2839 36.8601 52.2839 36.8601Z" fill="#161941"/>
<path d="M51.3814 36.79L59.2761 37.0841L58.6963 37.3533C58.3844 37.4979 58.0477 37.5786 57.7038 37.5904L53.013 37.7517C53.013 37.7517 51.7715 37.6544 50.5977 38.9813L51.3814 36.79Z" fill="#161941"/>
<path fill-rule="evenodd" clip-rule="evenodd" d="M50.0577 39.5682C50.0577 39.5682 36.1597 39.4224 27.5441 41.7322C18.5965 44.131 15.4887 47.9455 18.0072 53.388C19.0815 55.0243 20.4143 56.1034 20.4143 56.1034L20.0396 53.2291C20.0396 53.2291 18.5847 51.7612 19.0186 49.7585C20.1664 45.5479 25.922 45.7874 35.9237 46.1515C42.4228 46.3862 47.3803 42.3939 50.0577 39.5682Z" fill="#161941"/>
<path d="M48.8527 41.7511C48.1424 42.3677 47.176 43.1147 45.9393 43.8807C44.335 51.4706 37.6889 57.0056 30.3634 59.5443C26.4932 58.2032 22.8115 56.025 19.9633 53.1496C19.9621 53.9132 19.9633 54.627 19.9681 54.7148C19.9799 54.9069 20.4032 56.0713 20.4127 56.0974C25.2659 59.7542 30.3634 61.2316 30.3634 61.2316C30.3634 61.2316 47.6812 56.2242 48.8527 41.7511Z" fill="#161941"/>
<path d="M33.1549 36.7616C33.1549 36.7616 45.3692 33.1581 59.2756 37.0841L31.0146 4.50708C31.0146 4.50708 38.4694 21.8367 33.1549 36.7616Z" fill="#161941"/>
<path d="M31.6641 13.8021C31.6641 13.8021 40.7492 23.4932 50.5991 36.7616C50.5991 36.7616 42.4045 34.6723 33.1569 36.7616C33.1569 36.7616 36.7272 23.1185 31.6641 13.8021Z" fill="#161941"/>
<path d="M31.0156 4.5072L20.6807 40.2501C20.6807 40.2501 26.6675 37.6356 33.1558 36.7617L31.0156 4.5072Z" fill="#161941"/>
<path d="M23.7958 14.766C23.7958 14.766 19.7121 26.2451 17.6441 31.7173C15.5762 37.1895 14.5031 41.0633 15.8051 46.0185C15.8051 46.0185 16.1679 42.823 20.2053 41.4843L23.7958 14.766Z" fill="#161941"/>
<path d="M50.5638 21.9933H10.1621L12.7944 24.4501H47.9326L50.5638 21.9933Z" fill="#F15A25"/>
<path d="M48.4815 19.3134H12.2441L14.6049 24.2271H46.1207L48.4815 19.3134Z" fill="#161941"/>
<path d="M12.2441 19.3134L14.6049 24.2271H17.1934L14.8053 19.3134H12.2441Z" fill="#165A9F"/>
<path d="M48.4825 19.3136L46.1217 24.2273H43.5332L45.9213 19.3136H48.4825Z" fill="#165A9F"/>
<path d="M56.573 26.4824C56.573 26.314 56.5445 26.1421 56.4864 25.9702C56.4864 25.969 56.4852 25.9666 56.4852 25.9654C56.4342 25.8125 56.3619 25.6666 56.2647 25.5243C56.1864 25.4117 56.0975 25.3109 55.9991 25.222C55.986 25.2077 55.9718 25.1947 55.9576 25.1817C55.9564 25.1805 55.9552 25.1793 55.954 25.1781C55.9398 25.1639 55.9256 25.1496 55.9101 25.1354C55.9054 25.1307 55.9018 25.1259 55.8971 25.1224C55.8959 25.1212 55.8959 25.1212 55.8959 25.12C55.8935 25.1176 55.8912 25.1153 55.8888 25.1129C55.8841 25.1081 55.8793 25.1034 55.8746 25.0987C55.8698 25.0939 55.8639 25.088 55.8592 25.0832C55.8426 25.0666 55.826 25.05 55.8094 25.0334C55.7963 25.0204 55.7833 25.0062 55.769 24.9943C55.7667 24.9919 55.7643 24.9896 55.7619 24.9872C55.7572 24.9825 55.7536 24.9777 55.7489 24.9742C55.7453 24.9706 55.743 24.9682 55.7394 24.9647C55.7323 24.9576 55.7252 24.9504 55.7192 24.9445C55.7169 24.9421 55.7157 24.941 55.7133 24.9386C55.7098 24.935 55.7074 24.9327 55.7038 24.9291C55.6896 24.9149 55.6766 24.9006 55.6623 24.8876C55.654 24.8793 55.6457 24.871 55.6374 24.8615C55.6351 24.858 55.6315 24.8556 55.6291 24.8532C55.6256 24.8497 55.622 24.8461 55.6196 24.8425C55.6042 24.8271 55.5888 24.8105 55.5722 24.7951C55.5663 24.7892 55.5604 24.7832 55.5544 24.7773C55.5509 24.7726 55.5461 24.769 55.5414 24.7655C55.539 24.7631 55.5366 24.7607 55.5331 24.7572C55.5319 24.756 55.5307 24.7548 55.5283 24.7524C55.5236 24.7477 55.52 24.7441 55.5153 24.7406C55.5082 24.7323 55.5011 24.7251 55.494 24.718C55.4904 24.7145 55.4868 24.7109 55.4833 24.7074C55.4762 24.7002 55.4691 24.6931 55.4631 24.686C55.4596 24.6825 55.456 24.6789 55.4524 24.6753C55.4501 24.673 55.4477 24.6706 55.4442 24.667C55.4359 24.6587 55.4275 24.6504 55.4181 24.641C55.4169 24.6398 55.4169 24.6398 55.4157 24.6386C55.3742 24.5971 55.3291 24.5568 55.2841 24.5212C55.0315 24.3291 54.7339 24.226 54.4232 24.226H54.2051H50.2648H49.6957H46.646H45.1104H40.952H40.3746H37.3178H35.7348H34.9522H32.4361H30.6207H30.0112H29.3389H27.673H26.0117H25.4876H21.3293H20.753H16.7072H16.1381H13.0884H11.5528H10.0054H7.5723H7.39444H5.253L6.51937 26.5109L5.05972 31.2787C4.90676 31.7803 5.01348 32.3234 5.3443 32.7336V32.7324C5.37395 32.7692 5.40596 32.806 5.44035 32.8392C5.4522 32.8522 5.46525 32.8641 5.4771 32.8759C5.48066 32.8795 5.48422 32.883 5.48777 32.8866C5.50082 32.9008 5.51386 32.9139 5.52809 32.9269C5.53046 32.9293 5.53165 32.9317 5.53402 32.9328C5.5352 32.934 5.53639 32.9352 5.53876 32.9376C5.55181 32.9506 5.56485 32.9637 5.57789 32.9767C5.57908 32.9779 5.57908 32.9779 5.57908 32.9779C5.58382 32.9826 5.58856 32.9874 5.59331 32.9921C5.59449 32.9933 5.59568 32.9945 5.59686 32.9957C5.60279 33.0016 5.60872 33.0075 5.61465 33.0135C5.61821 33.017 5.62058 33.0194 5.62295 33.0229C5.62769 33.0277 5.63244 33.0324 5.63718 33.0372C5.65022 33.0514 5.66445 33.0645 5.67868 33.0775C5.68105 33.0799 5.68342 33.0822 5.68579 33.0846C5.69884 33.0977 5.71188 33.1107 5.72492 33.1226C5.72611 33.1237 5.72729 33.1249 5.72848 33.1261C5.73085 33.1297 5.73322 33.132 5.73559 33.1344C5.74508 33.1439 5.75457 33.1534 5.76524 33.1641C5.76879 33.1688 5.77354 33.1724 5.7771 33.1759C5.78065 33.1795 5.78303 33.1818 5.7854 33.1842C5.79725 33.1973 5.8103 33.2091 5.82334 33.2222C5.82453 33.2233 5.82453 33.2233 5.82571 33.2233C5.82927 33.2281 5.83283 33.2316 5.83638 33.2352C5.84705 33.2459 5.85773 33.2565 5.8684 33.2672C5.87077 33.2708 5.87433 33.2731 5.8767 33.2755C5.87788 33.2767 5.87907 33.2779 5.87907 33.2791C5.8933 33.2933 5.90634 33.3075 5.92057 33.3206C5.92057 33.3218 5.92176 33.3218 5.92176 33.3218C5.92531 33.3253 5.92887 33.3289 5.93243 33.3324C5.94428 33.3455 5.95733 33.3573 5.96918 33.3692C5.97037 33.3716 5.97274 33.3727 5.97393 33.3739C5.97749 33.3775 5.97986 33.3799 5.98341 33.3834C5.98934 33.3905 5.99527 33.3965 6.0012 33.4024C6.30001 33.7474 6.73873 33.949 7.19761 33.949H7.5723H10.1548H11.8481H14.8978H16.5116H19.3562H21.1336H21.8059H23.5276H24.4264H25.7698H28.8196H30.4251H31.0974H33.8803H34.5443H36.0798H39.1367H40.7576H41.4299H45.4081H48.4578H50.0716H50.7439H52.4656H53.2422H53.3644H55.1762L54.907 31.887L54.824 31.0582C55.1596 30.8554 55.4062 30.5388 55.52 30.1641L56.5149 26.8974L56.5089 26.8951C56.5504 26.7611 56.573 26.6188 56.573 26.4824Z" fill="#161941"/>
<path d="M10.9274 28.5384C11.0009 28.4957 11.0566 28.4269 11.0815 28.3451L11.8214 25.9096C11.8262 25.9048 11.8285 25.887 11.8285 25.8574C11.8285 25.823 11.8214 25.7827 11.806 25.7376C11.7906 25.6926 11.7692 25.6499 11.742 25.6108C11.7147 25.5716 11.685 25.5384 11.6518 25.5135C11.6186 25.4886 11.5854 25.4756 11.5511 25.4756H7.39267L7.79701 26.2771C7.83614 26.3542 7.84325 26.4431 7.81835 26.525L6.25199 31.6438C6.18677 31.8584 6.34685 32.0754 6.57214 32.0754H9.52937C9.56969 32.0754 9.6183 32.0588 9.67522 32.0268C9.73332 31.9948 9.78905 31.9557 9.84359 31.9106C9.89932 31.8655 9.94675 31.8181 9.98944 31.7683C10.0321 31.7185 10.0582 31.6758 10.0677 31.6414L10.7874 29.296L10.3084 28.8917L10.9274 28.5384ZM9.02425 30.566C8.98156 30.7059 8.85113 30.8019 8.7041 30.8019H7.88001L8.06261 30.2067L9.37878 29.4075L9.02425 30.566ZM9.98351 27.4475C9.9598 27.5245 9.91 27.5898 9.84241 27.6324L8.61161 28.415L9.05033 26.9862C9.09302 26.8463 9.22345 26.7503 9.3693 26.7503H10.1934L9.98351 27.4475Z" fill="white"/>
<path d="M16.4139 25.8575C16.4139 25.8231 16.4068 25.7828 16.3914 25.7378C16.376 25.6927 16.3547 25.65 16.3286 25.6109C16.3013 25.5718 16.2705 25.5386 16.2385 25.5137C16.2052 25.4888 16.1721 25.4757 16.1377 25.4757H13.0879C12.9409 25.4757 12.8117 25.5718 12.7678 25.7117L10.9524 31.6416C10.9477 31.6463 10.9453 31.6641 10.9453 31.6937C10.9453 31.734 10.9524 31.7744 10.9678 31.817C10.9833 31.8585 11.0046 31.9 11.0319 31.9404C11.0591 31.9795 11.0888 32.0127 11.122 32.0376C11.1552 32.0625 11.1884 32.0755 11.2228 32.0755H14.2725C14.4195 32.0755 14.5488 31.9795 14.5926 31.8396L16.408 25.9097C16.4116 25.9061 16.4139 25.8883 16.4139 25.8575ZM13.6168 30.5661C13.5741 30.706 13.4437 30.802 13.2978 30.802H12.571L13.7425 26.9852C13.7852 26.8452 13.9156 26.7492 14.0614 26.7492H14.7883L13.6168 30.5661Z" fill="white"/>
<path d="M21.0303 25.8575C21.0303 25.8231 21.0232 25.7828 21.0078 25.7378C20.9924 25.6927 20.971 25.65 20.9438 25.6109C20.9165 25.5718 20.8857 25.5386 20.8537 25.5137C20.8205 25.4888 20.7873 25.4757 20.7529 25.4757H16.7071L17.1115 26.2773C17.1506 26.3543 17.1577 26.4433 17.1328 26.5251L15.5664 31.6439C15.5012 31.8585 15.6613 32.0755 15.8866 32.0755H18.7312C18.7715 32.0755 18.8201 32.0589 18.877 32.0269C18.9339 31.9949 18.9909 31.9558 19.0454 31.9107C19.0999 31.8657 19.1486 31.8182 19.1912 31.7684C19.2339 31.7186 19.26 31.6759 19.2695 31.6416L21.0232 25.9109C21.028 25.9061 21.0303 25.8883 21.0303 25.8575ZM18.2332 30.5661C18.1905 30.706 18.0601 30.802 17.9142 30.802H17.1945L18.366 26.9852C18.4087 26.8452 18.5391 26.7492 18.6849 26.7492H19.4047L18.2332 30.5661Z" fill="white"/>
<path d="M25.7579 25.9109C25.7627 25.9062 25.765 25.8884 25.765 25.8587C25.765 25.8244 25.7579 25.784 25.7425 25.739C25.7271 25.6939 25.7058 25.6512 25.6785 25.6121C25.6512 25.573 25.6216 25.5398 25.5884 25.5149C25.5552 25.49 25.522 25.4769 25.4876 25.4769H21.3292L21.7335 26.2785C21.7727 26.3556 21.7798 26.4445 21.7549 26.5263L20.1885 31.6451C20.1233 31.8598 20.2834 32.0768 20.5087 32.0768H21.181C21.328 32.0768 21.4573 31.9807 21.4999 31.8408L22.988 26.9864C23.0307 26.8465 23.1612 26.7504 23.307 26.7504H23.6793C23.9046 26.7504 24.0647 26.9686 23.9983 27.1832L23.6307 28.3772C23.6058 28.4591 23.5501 28.5278 23.4754 28.5693L22.5209 29.1088C22.4058 29.1741 22.3406 29.2998 22.3525 29.4302L22.5683 31.7732C22.5837 31.9451 22.7284 32.0768 22.9015 32.0768H23.8003C23.9983 32.0768 24.1524 31.906 24.1323 31.7092L23.958 29.9697C23.9449 29.8381 24.0102 29.7112 24.124 29.646L24.6078 29.3697C24.6813 29.327 24.737 29.2582 24.7619 29.1764L25.7579 25.9109Z" fill="white"/>
<path d="M54.6751 25.7378C54.6597 25.6927 54.6384 25.65 54.6111 25.6109C54.5838 25.5718 54.5542 25.5386 54.521 25.5137C54.4878 25.4888 54.4546 25.4757 54.4202 25.4757H50.2618L50.6661 26.2773C50.7053 26.3543 50.7124 26.4433 50.6875 26.5251L49.1211 31.6439C49.0559 31.8585 49.216 32.0755 49.4413 32.0755H50.1136C50.2606 32.0755 50.3899 31.9795 50.4326 31.8396L51.9207 26.9852C51.9633 26.8452 52.0938 26.7492 52.2396 26.7492H52.6119C52.8372 26.7492 52.9973 26.9674 52.9309 27.182L52.5633 28.376C52.5384 28.4578 52.4827 28.5266 52.408 28.5681L51.4535 29.1076C51.3385 29.1728 51.2732 29.2985 51.2851 29.429L51.5009 31.772C51.5163 31.9439 51.661 32.0755 51.8341 32.0755H52.7329C52.9309 32.0755 53.0851 31.9048 53.0649 31.708L52.8906 29.9685C52.8776 29.8369 52.9428 29.71 53.0566 29.6448L53.5404 29.3685C53.6139 29.3258 53.6696 29.257 53.6945 29.1752L54.6894 25.9085C54.6941 25.9038 54.6965 25.886 54.6965 25.8563C54.6977 25.8231 54.6905 25.7828 54.6751 25.7378Z" fill="white"/>
<path d="M29.0175 25.7118L27.5294 30.5662C27.4867 30.7061 27.3563 30.8021 27.2104 30.8021H26.4907L27.9918 25.9074C28.0582 25.6928 27.897 25.4758 27.6729 25.4758H26.0116L26.416 26.2774C26.4551 26.3544 26.4622 26.4434 26.4373 26.5252L24.8733 31.6405C24.8686 31.6452 24.8662 31.663 24.8662 31.6926C24.8662 31.7329 24.8733 31.7733 24.8887 31.8159C24.9042 31.8574 24.9243 31.8989 24.9528 31.9393C24.98 31.9784 25.0097 32.0116 25.0429 32.0365C25.0749 32.0614 25.1093 32.0744 25.1437 32.0744H28.1934C28.3404 32.0744 28.4697 31.9784 28.5124 31.8385L30.3301 25.9062C30.3965 25.6916 30.2352 25.4746 30.0111 25.4746H29.3388C29.1894 25.4758 29.0602 25.5718 29.0175 25.7118Z" fill="white"/>
<path d="M34.6778 25.6192L33.2763 27.6278C33.1767 27.7713 32.9514 27.712 32.936 27.5377L32.7688 25.7781C32.7522 25.6061 32.6087 25.4757 32.4356 25.4757H30.6202L31.0245 26.2773C31.0637 26.3543 31.0708 26.4433 31.0459 26.5251L29.4795 31.6439C29.4143 31.8585 29.5744 32.0755 29.7997 32.0755H30.472C30.619 32.0755 30.7483 31.9795 30.7921 31.8396L31.5818 29.2594L31.8143 30.6953C31.8486 30.9052 32.1095 30.9835 32.253 30.8269L33.6569 29.2973L32.936 31.6451C32.8696 31.8597 33.0308 32.0779 33.2549 32.0779H33.9189C34.066 32.0779 34.1952 31.9819 34.2379 31.8419L36.0556 25.9097C36.122 25.6951 35.9608 25.4781 35.7367 25.4781H34.9541C34.8438 25.4757 34.7407 25.5291 34.6778 25.6192Z" fill="white"/>
<path d="M38.0607 26.7491H39.0199L38.8551 27.2886L39.9496 28.1957L40.6456 25.9108C40.6503 25.906 40.6527 25.8883 40.6527 25.8586C40.6527 25.8242 40.6456 25.7839 40.6302 25.7389C40.6148 25.6938 40.5934 25.6511 40.5662 25.612C40.5389 25.5729 40.5092 25.5396 40.476 25.5147C40.4428 25.4898 40.4096 25.4768 40.3752 25.4768H37.3184C37.1714 25.4768 37.0421 25.5729 36.9983 25.7128L36.2987 28.0001C36.2619 28.121 36.2963 28.2514 36.3864 28.338L37.8959 29.7905C37.9872 29.8783 38.0204 30.0099 37.9836 30.1308L37.8484 30.5672C37.8046 30.7071 37.6753 30.802 37.5295 30.802H36.8014L37.0184 30.1047L35.9323 29.206L35.1829 31.6403C35.1782 31.645 35.1758 31.6628 35.1758 31.6924C35.1758 31.7328 35.1829 31.7731 35.1983 31.8158C35.2137 31.8573 35.2351 31.8988 35.2623 31.9391C35.2896 31.9782 35.3193 32.0114 35.3525 32.0363C35.3857 32.0612 35.4189 32.0743 35.4532 32.0743H38.5101C38.6571 32.0743 38.7864 31.9782 38.8302 31.8383L39.5974 29.334C39.6342 29.2143 39.601 29.0838 39.5097 28.9961L37.8591 27.4001L38.0607 26.7491Z" fill="white"/>
<path d="M45.38 25.9108C45.3847 25.906 45.3871 25.8883 45.3871 25.8586C45.3871 25.8242 45.38 25.7839 45.3646 25.7389C45.3492 25.6938 45.3278 25.6511 45.3006 25.612C45.2733 25.5729 45.2436 25.5396 45.2104 25.5147C45.1772 25.4898 45.144 25.4768 45.1097 25.4768H40.9513L41.3556 26.2784C41.3947 26.3554 41.4018 26.4444 41.3769 26.5262L39.8106 31.645C39.7454 31.8596 39.9054 32.0766 40.1307 32.0766H40.8031C40.9501 32.0766 41.0793 31.9806 41.122 31.8407L41.3307 31.1601C41.3556 31.0794 41.409 31.0118 41.4825 30.9692L44.2322 29.3708C44.3057 29.3281 44.3591 29.2605 44.384 29.1787L45.38 25.9108ZM43.254 28.3759C43.2291 28.4578 43.1733 28.5265 43.0986 28.568L41.9212 29.2344L42.6101 26.9863C42.6528 26.8463 42.7832 26.7503 42.9291 26.7503H43.3014C43.5267 26.7503 43.6868 26.9685 43.6204 27.1831L43.254 28.3759Z" fill="white"/>
<path d="M49.9706 25.8575C49.9706 25.8231 49.9635 25.7828 49.9481 25.7378C49.9326 25.6927 49.9113 25.65 49.8852 25.6109C49.8579 25.5718 49.8271 25.5386 49.7951 25.5137C49.7619 25.4888 49.7287 25.4757 49.6943 25.4757H46.6446C46.4976 25.4757 46.3683 25.5718 46.3244 25.7117L44.5091 31.6416C44.5043 31.6463 44.502 31.6641 44.502 31.6937C44.502 31.734 44.5091 31.7744 44.5245 31.817C44.5399 31.8585 44.5612 31.9 44.5885 31.9404C44.6158 31.9795 44.6454 32.0127 44.6786 32.0376C44.7118 32.0625 44.745 32.0755 44.7794 32.0755H47.8291C47.9762 32.0755 48.1054 31.9795 48.1493 31.8396L49.9647 25.9097C49.9682 25.9061 49.9706 25.8883 49.9706 25.8575ZM47.1734 30.5661C47.1307 30.706 47.0003 30.802 46.8545 30.802H46.1276L47.2991 26.9852C47.3418 26.8452 47.4722 26.7492 47.6181 26.7492H48.3449L47.1734 30.5661Z" fill="white"/>
<path d="M22.6377 30.1058L22.7895 31.7528C22.7954 31.8121 22.8428 31.856 22.9021 31.856H23.8009C23.8448 31.856 23.872 31.8323 23.8851 31.818C23.8969 31.8038 23.9183 31.7754 23.9135 31.7315L23.7511 30.1058H22.6377Z" fill="#C6C6C5"/>
<path d="M27.9035 30.106L27.7423 30.6313C27.6711 30.8661 27.4577 31.0238 27.2111 31.0238H26.4913C26.4214 31.0238 26.355 30.9906 26.3135 30.9337C26.272 30.8768 26.2589 30.8044 26.2803 30.7369L26.4735 30.1049H25.5736L25.0838 31.7056C25.0791 31.7234 25.0708 31.74 25.0625 31.7554L25.0957 31.7436C25.1052 31.7685 25.117 31.7934 25.1336 31.8171C25.1514 31.842 25.1657 31.8562 25.1751 31.8621L28.1917 31.855C28.2415 31.855 28.2853 31.823 28.2996 31.7744L28.8106 30.1049H27.9035V30.106Z" fill="#C6C6C5"/>
<path d="M20.8905 30.1061L20.3996 31.7092C20.3854 31.7566 20.4043 31.7922 20.4174 31.81C20.4304 31.8278 20.4589 31.8562 20.5087 31.8562H21.181C21.2308 31.8562 21.2747 31.8242 21.2889 31.7756L21.8011 30.1061H20.8905Z" fill="#C6C6C5"/>
<path d="M30.1805 30.1058L29.6896 31.709C29.6754 31.7564 29.6944 31.7931 29.7074 31.8097C29.7205 31.8275 29.7489 31.856 29.7987 31.856H30.471C30.5208 31.856 30.5647 31.824 30.5789 31.7754L31.09 30.1058H30.1805Z" fill="#C6C6C5"/>
<path d="M18.6059 30.106L18.4447 30.6313C18.3723 30.8661 18.1601 31.0238 17.9135 31.0238H17.1937C17.1238 31.0238 17.0574 30.9906 17.0159 30.9337C16.9744 30.8768 16.9613 30.8044 16.9827 30.7369L17.1759 30.1049H16.2665L15.7756 31.708C15.7613 31.7554 15.7803 31.7922 15.7934 31.8088C15.8064 31.8266 15.8349 31.855 15.8847 31.855H18.7292C18.8134 31.8076 18.8597 31.7756 18.9047 31.7388C18.9474 31.7032 18.9866 31.6653 19.0209 31.625C19.0506 31.5906 19.0577 31.574 19.0577 31.574L19.5071 30.1049H18.6059V30.106Z" fill="#C6C6C5"/>
<path d="M13.9905 30.106L13.8293 30.6313C13.7569 30.8661 13.5447 31.0238 13.298 31.0238H12.5712C12.5012 31.0238 12.4348 30.9906 12.3933 30.9337C12.3518 30.8767 12.3388 30.8044 12.3601 30.7368L12.5534 30.1048H11.6546L11.1649 31.7056C11.1602 31.7234 11.153 31.7388 11.1436 31.753L11.1756 31.7411C11.1851 31.7672 11.1981 31.7921 11.2147 31.8158C11.2325 31.8396 11.2467 31.8538 11.255 31.8597L14.2715 31.8538C14.3213 31.8538 14.3652 31.8206 14.3794 31.7732L14.8905 30.1036H13.9905V30.106Z" fill="#C6C6C5"/>
<path d="M9.39659 30.1058L9.23532 30.6311C9.16418 30.8659 8.95075 31.0236 8.70411 31.0236H7.88002C7.81007 31.0236 7.74366 30.9904 7.70216 30.9335C7.66066 30.8766 7.64762 30.8042 7.66896 30.7366L7.85157 30.1426C7.85631 30.1272 7.87291 30.1189 7.88002 30.1058H6.95396L6.46307 31.709C6.44884 31.7564 6.46781 31.7931 6.48085 31.8097C6.49389 31.8275 6.52235 31.856 6.57215 31.856H9.52939C9.61476 31.8086 9.65982 31.7765 9.70488 31.741C9.74875 31.7054 9.78788 31.6675 9.82227 31.6259C9.85191 31.5916 9.85902 31.575 9.85902 31.575L10.3096 30.1058H9.39659Z" fill="#C6C6C5"/>
<path d="M47.5481 30.1061L47.3869 30.6314C47.3145 30.8662 47.1011 31.0239 46.8557 31.0239H46.1288C46.0588 31.0239 45.9924 30.9907 45.9509 30.9338C45.9094 30.8769 45.8964 30.8045 45.9177 30.7369L46.111 30.1049H45.2122L44.7225 31.7057C44.7178 31.7235 44.7107 31.7389 44.7012 31.7531L44.7332 31.7413C44.7427 31.7674 44.7557 31.7923 44.7723 31.816C44.7889 31.8397 44.8043 31.8539 44.8126 31.861L47.8292 31.8539C47.879 31.8539 47.9228 31.8219 47.9371 31.7733L48.4481 30.1038H47.5481V30.1061Z" fill="#C6C6C5"/>
<path d="M49.8241 30.1058L49.3332 31.709C49.319 31.7564 49.3379 31.792 49.351 31.8097C49.364 31.8275 49.3925 31.856 49.4423 31.856H50.1146C50.1644 31.856 50.2083 31.824 50.2225 31.7754L50.7347 30.1058H49.8241Z" fill="#C6C6C5"/>
<path d="M51.5723 30.1058L51.724 31.7528C51.73 31.8121 51.7774 31.856 51.8367 31.856H52.7355C52.7793 31.856 52.8066 31.8335 52.8197 31.818C52.8327 31.8038 52.8529 31.7742 52.8481 31.7315L52.6857 30.1058H51.5723Z" fill="#C6C6C5"/>
<path d="M40.5126 30.1058L40.0217 31.709C40.0074 31.7564 40.0264 31.792 40.0394 31.8097C40.0525 31.8275 40.0809 31.856 40.1307 31.856H40.8031C40.8529 31.856 40.8967 31.824 40.911 31.7754L41.1197 31.0947C41.1612 30.9608 41.2513 30.8481 41.3722 30.777L42.5271 30.1058H40.5126Z" fill="#C6C6C5"/>
<path d="M33.6358 30.1061L33.1437 31.7092C33.1295 31.7566 33.1485 31.7922 33.1604 31.81C33.1734 31.8278 33.2019 31.8562 33.2517 31.8562H33.9157C33.9655 31.8562 34.0093 31.8242 34.0236 31.7756L34.5346 30.1061H33.6358Z" fill="#C6C6C5"/>
<path d="M31.9404 30.1058L32.0305 30.6596L32.0886 30.6762L32.6116 30.1058H31.9404Z" fill="#C6C6C5"/>
<path d="M38.2078 30.106C38.2031 30.1357 38.2019 30.1665 38.1924 30.1962L38.0572 30.6337C37.9849 30.8673 37.7714 31.0238 37.526 31.0238H36.798C36.728 31.0238 36.6616 30.9906 36.6201 30.9337C36.5786 30.8768 36.5667 30.8033 36.5869 30.7369L36.76 30.1819L36.6687 30.106H35.8838L35.3905 31.7068C35.3857 31.7234 35.3786 31.74 35.3691 31.7542L35.4012 31.7424C35.4106 31.7685 35.4237 31.7934 35.4403 31.8171C35.4581 31.8408 35.4723 31.855 35.4806 31.8609L38.5054 31.855C38.5552 31.855 38.5991 31.823 38.6133 31.7744L39.1244 30.1049H38.2078V30.106Z" fill="#C6C6C5"/>
<path d="M35.8135 42.5077C27.3592 43.1029 20.9206 44.6183 19.1361 47.77C17.3504 50.9217 19.9626 53.1497 19.9626 53.1497L19.9673 53.1485C19.6816 52.8213 18.6428 51.4909 19.0187 49.7573C20.1665 45.5468 25.9221 45.7863 35.9238 46.1503C39.9138 46.295 43.3204 44.8448 45.9777 43.0508C45.9397 43.0342 43.5754 41.9611 35.8135 42.5077Z" fill="#161941"/>
<path fill-rule="evenodd" clip-rule="evenodd" d="M50.0585 39.5682C50.0585 39.5682 38.5699 38.609 27.0588 41.7524C17.9689 44.4238 15.7444 49.213 18.008 53.388C18.008 53.388 15.4528 50.0549 18.0104 46.3874C20.517 42.7946 26.0627 40.7872 34.6878 39.4461C43.1232 38.1347 50.872 38.7003 50.872 38.7003L50.0585 39.5682Z" fill="#5A99D2"/>
<path d="M20.2528 21.2525C20.248 21.0296 20.0654 20.8423 19.8472 20.8423C19.6291 20.847 19.4453 21.0344 19.4453 21.2525V22.5841C19.45 22.8414 19.6326 22.9861 19.8472 22.9861C20.0702 22.9813 20.2528 22.7987 20.2528 22.5841V22.2568H20.8195V22.5841C20.8195 23.1118 20.3832 23.5493 19.8461 23.5493C19.3184 23.5493 18.8809 23.113 18.8809 22.5841V21.2525C18.8809 20.7118 19.3172 20.2743 19.8461 20.2743C20.3832 20.2743 20.8195 20.7106 20.8195 21.2525V21.5715H20.2528V21.2525Z" fill="white"/>
<path d="M23.6581 22.724L23.4613 23.5314H22.8945L23.6842 20.2968H24.4526L25.2423 23.5314H24.6743L24.4775 22.724H23.6581ZM24.0684 21.0473L23.7886 22.1999H24.3518L24.0684 21.0473Z" fill="white"/>
<path d="M29.2176 22.5627C29.2176 23.0951 28.7813 23.5314 28.2441 23.5314C27.7117 23.5314 27.2754 23.0951 27.2754 22.5627V21.2702C27.2754 20.7331 27.7117 20.2968 28.2441 20.2968C28.7813 20.2968 29.2176 20.7331 29.2176 21.2702H28.6544C28.6497 21.0473 28.4623 20.8683 28.2441 20.8683C28.0212 20.8683 27.8386 21.0604 27.8386 21.2702V22.5627C27.8434 22.7809 28.0307 22.9647 28.2441 22.9647C28.4706 22.9599 28.6544 22.7809 28.6544 22.5627V22.2354H28.2441V21.6675H29.2176V22.5627Z" fill="white"/>
<path d="M32.4964 20.2968C33.0336 20.2968 33.4699 20.7331 33.4699 21.2702V22.5627C33.4699 23.0951 33.0336 23.5314 32.4964 23.5314H31.5312V20.2968H32.4964ZM32.4964 22.9647C32.7194 22.9599 32.9067 22.7809 32.9067 22.5627V21.2702C32.902 21.0438 32.7194 20.8647 32.4964 20.8647H32.0992V22.9647H32.4964Z" fill="white"/>
<path d="M36.2675 22.724L36.0707 23.5314H35.5039L36.2936 20.2968H37.062L37.8517 23.5314H37.2837L37.0869 22.724H36.2675ZM36.679 21.0473L36.3991 22.1999H36.9624L36.679 21.0473Z" fill="white"/>
<path d="M40.8724 22.9647C41.0906 22.9647 41.2471 22.8331 41.2471 22.6457C41.2471 22.3623 40.7716 22.2568 40.4088 22.0481C40.1515 21.9047 39.9072 21.6248 39.9072 21.2323C39.9072 20.6952 40.3436 20.298 40.8724 20.298C41.4096 20.298 41.8459 20.7343 41.8459 21.2715H41.2827C41.2696 21.0485 41.0953 20.8659 40.8724 20.8659C40.6495 20.8659 40.5013 20.975 40.5013 21.1932C40.5013 21.4375 40.9068 21.5643 41.2436 21.7434C41.5364 21.9047 41.8459 22.1667 41.8459 22.6078C41.8459 23.1354 41.4096 23.5327 40.8724 23.5327C40.3448 23.5327 39.9072 23.0963 39.9072 22.5639H40.4705C40.4788 22.7809 40.6542 22.9647 40.8724 22.9647Z" fill="white"/>
<path d="M20.1374 23.2218H19.5635V23.983H20.1374V23.2218Z" fill="white"/>
<path d="M41.1618 23.2218H40.5879V23.983H41.1618V23.2218Z" fill="white"/>
<path d="M28.6816 20.0803V19.7518H27.8101V20.0803H28.6816Z" fill="white"/>
<path d="M25.6891 51.2618H26.85V51.761H25.1484V51.3685C25.1484 50.931 25.4034 50.5124 26.001 50.2349C26.1385 50.1697 26.3543 50.0334 26.3543 49.7737C26.3543 49.5828 26.1871 49.4192 26.001 49.4192C25.8101 49.4192 25.6429 49.5828 25.6429 49.7737H25.1484C25.1484 49.3018 25.5291 48.9211 26.001 48.9211C26.4694 48.9211 26.85 49.3018 26.85 49.7737C26.85 50.3986 26.3626 50.5503 26.1456 50.6677C26.0093 50.7412 25.6891 50.9618 25.6891 51.2618Z" fill="white"/>
<path d="M29.7551 49.7738V50.9346C29.7551 51.3959 29.3745 51.7753 28.9061 51.7753C28.4461 51.7753 28.0654 51.3947 28.0654 50.9346V49.7738C28.0654 49.3019 28.4461 48.9213 28.9061 48.9213C29.3745 48.9213 29.7551 49.3019 29.7551 49.7738ZM28.5563 49.7738V50.592L29.116 49.488C29.0591 49.443 28.9832 49.4157 28.9061 49.4157C28.7164 49.4157 28.5563 49.5841 28.5563 49.7738ZM29.2642 50.9346V50.0287L28.6702 51.2003C28.7342 51.2536 28.8184 51.2844 28.9061 51.2844C29.1006 51.2856 29.2642 51.1173 29.2642 50.9346Z" fill="white"/>
<path d="M31.5124 51.2619H32.6732V51.7611H30.9717V51.3686C30.9717 50.9311 31.2266 50.5125 31.8242 50.2351C31.9618 50.1698 32.1776 50.0335 32.1776 49.7738C32.1776 49.5829 32.0104 49.4193 31.8242 49.4193C31.6333 49.4193 31.4661 49.5829 31.4661 49.7738H30.9717C30.9717 49.3019 31.3523 48.9213 31.8242 48.9213C32.2926 48.9213 32.6732 49.3019 32.6732 49.7738C32.6732 50.3987 32.1859 50.5505 31.9689 50.6679C31.8325 50.7414 31.5124 50.9619 31.5124 51.2619Z" fill="white"/>
<path d="M33.8896 51.2666H34.4873V49.4358H33.8896V48.9413H34.9817V51.2678H35.5793V51.7622H33.8896V51.2666Z" fill="white"/>
</g>
<defs>
<clipPath id="clip0_538_1451">
<rect width="64" height="64" fill="white"/>
</clipPath>
</defs>
</svg>
