<svg width="64" height="64" viewBox="0 0 64 64" fill="none" xmlns="http://www.w3.org/2000/svg">
<g clip-path="url(#clip0_40_26741)">
<path d="M32.0005 64C49.6736 64 64.0005 49.6731 64.0005 32C64.0005 14.3269 49.6736 0 32.0005 0C14.3274 0 0.000488281 14.3269 0.000488281 32C0.000488281 49.6731 14.3274 64 32.0005 64Z" fill="black"/>
<path d="M16.793 47.6029C14.7109 46.5252 13.1041 44.7116 12.285 42.5149C11.5818 40.5261 11.3197 38.4081 11.517 36.3079C11.7875 33.9037 12.4948 31.569 13.604 29.4189C15.229 25.7889 16.657 22.6019 11.249 17.6409L10.34 16.8069L11.09 15.8289L14.643 11.1929L15.189 10.4819L16.063 10.7069C17.4896 11.0904 18.9397 11.381 20.404 11.5769C21.7749 11.7599 23.1628 11.778 24.538 11.6309C24.485 11.6379 24.471 11.6409 24.597 11.6239L24.669 11.6149L24.598 11.6249L24.542 11.6319L24.676 11.6129C24.753 11.6039 24.728 11.6079 24.676 11.6129C24.9506 11.5782 25.2506 11.5295 25.576 11.4669C25.8726 11.4095 26.159 11.3429 26.435 11.2669C27.8133 10.9134 29.1109 10.2983 30.257 9.45488L30.304 9.42088L31.233 8.78288L32.004 8.25488L32.775 8.78388L33.704 9.42188L33.741 9.44788L33.746 9.45288C33.9146 9.57822 34.1396 9.73022 34.421 9.90888C34.7023 10.0875 34.9356 10.2255 35.121 10.3229C36.4338 11.0065 37.8606 11.4444 39.331 11.6149C40.7494 11.7795 42.1827 11.7667 43.598 11.5769C45.0626 11.381 46.5129 11.0904 47.94 10.7069L48.814 10.4819L49.36 11.1929L52.915 15.8289L53.664 16.8069L52.755 17.6409C47.229 22.7099 48.728 25.9649 50.455 29.7119C51.5272 31.7742 52.2644 33.9939 52.639 36.2879C52.7105 36.8492 52.7509 37.4141 52.76 37.9799C52.7691 38.5569 52.7397 39.1338 52.672 39.7069C52.5072 41.378 51.9194 42.9795 50.9642 44.3605C50.0089 45.7415 48.7175 46.8563 47.212 47.5999L32.649 55.3999L32.006 55.7449L31.363 55.3999L16.793 47.6029ZM14.827 41.5549C15.418 43.1402 16.5775 44.449 18.08 45.2269L32.004 52.6789L45.924 45.2259C47.0384 44.6774 47.9946 43.8541 48.7026 42.8335C49.4105 41.8129 49.8467 40.6288 49.97 39.3929C50.0227 38.9355 50.0451 38.4752 50.037 38.0149C50.0294 37.5467 49.996 37.0794 49.937 36.6149C49.5914 34.5973 48.9335 32.6459 47.987 30.8309C45.922 26.3449 44.116 22.4209 50.024 16.5089L47.744 13.5359C46.4875 13.8498 45.2141 14.0915 43.93 14.2599C42.2919 14.475 40.6334 14.4845 38.993 14.2879C37.1952 14.0766 35.4512 13.5385 33.847 12.6999C33.491 12.5105 33.1943 12.3409 32.957 12.1909C32.7323 12.0489 32.4676 11.8649 32.163 11.6389L32.004 11.5309L31.845 11.6399C30.4283 12.681 28.826 13.4423 27.124 13.8829C26.7793 13.9742 26.4326 14.0535 26.084 14.1209C25.7646 14.1822 25.4096 14.2379 25.019 14.2879H25.006C23.3675 14.484 21.711 14.4746 20.075 14.2599C18.7909 14.0915 17.5174 13.8498 16.261 13.5359L13.981 16.5089C19.761 22.2999 18.034 26.1549 16.081 30.5169C15.1161 32.3811 14.4929 34.403 14.241 36.4869C14.0695 38.1987 14.2694 39.9274 14.827 41.5549ZM25.004 14.2899C25.238 14.2649 24.547 14.3509 25.004 14.2899Z" fill="black"/>
<path d="M17.353 46.4689C13.33 44.3179 12.497 40.2449 12.769 36.4129C13.309 28.8129 21.128 24.8939 12.053 16.5839L15.628 11.9289C18.5959 12.8265 21.7082 13.1483 24.797 12.8769C27.0617 12.6272 29.2216 11.7891 31.062 10.4459L31.997 9.80591L32.932 10.4459C34.7724 11.7891 36.9323 12.6272 39.197 12.8769C42.2862 13.1499 45.3991 12.8294 48.368 11.9329L51.943 16.5879C42.868 24.8989 50.443 28.8879 51.391 36.4709C51.85 40.1279 51.02 44.1339 46.644 46.4709L31.997 54.2979L17.353 46.4689Z" fill="white"/>
<path d="M44.804 13.3529L16.142 28.6769C16.7802 27.4618 17.1819 26.1367 17.326 24.7719C17.788 22.2049 17.164 19.4889 13.753 16.0499L15.872 13.2689C16.9965 13.5552 18.1386 13.767 19.291 13.9029L19.471 13.9259C21.0061 14.1288 22.5606 14.1379 24.098 13.9529H24.111C24.4777 13.9062 24.811 13.8539 25.111 13.7959C25.4377 13.7292 25.763 13.6542 26.087 13.5709C26.452 13.4709 26.815 13.3629 27.164 13.2389H27.156C28.4144 12.8249 29.5982 12.2114 30.662 11.4219C33.1684 13.2487 36.2131 14.1863 39.313 14.0859C40.1615 14.0866 41.0092 14.0335 41.851 13.9269C42.794 13.8099 43.736 13.6329 44.678 13.4199L44.804 13.3529ZM24.104 13.9529C24.323 13.9289 23.675 14.0099 24.104 13.9529Z" fill="black"/>
<path d="M20.26 32.2159L21.597 31.5479C21.721 31.7406 21.8003 31.8656 21.835 31.9229C21.995 32.1614 22.0917 32.4367 22.116 32.7229C22.108 32.8679 22.0665 33.009 21.9946 33.1352C21.9228 33.2614 21.8226 33.3691 21.702 33.4499C21.1961 33.8174 20.6552 34.134 20.087 34.3949C19.2523 34.8123 18.649 35.0946 18.277 35.2419C17.992 35.3684 17.6877 35.4458 17.377 35.4709C17.1874 35.4785 16.9995 35.4335 16.834 35.3409C16.6478 35.2218 16.4877 35.0664 16.363 34.8839C16.2356 34.7099 16.0303 34.3839 15.747 33.9059C15.471 33.4393 15.2813 33.0983 15.178 32.8829C15.0903 32.7152 15.0325 32.5335 15.007 32.3459C14.9995 32.1746 15.037 32.0043 15.1155 31.8519C15.1941 31.6995 15.3111 31.5703 15.455 31.4769C16.1463 31.0047 16.8763 30.5916 17.637 30.2419C18.203 29.9593 18.621 29.7656 18.891 29.6609C19.112 29.5688 19.3456 29.5102 19.584 29.4869C19.8143 29.4684 20.044 29.5302 20.234 29.6619C20.4672 29.8521 20.6599 30.0871 20.801 30.3529L20.916 30.5529L19.58 31.2209C19.5239 31.1315 19.4614 31.0463 19.393 30.9659C19.3552 30.9272 19.3068 30.9004 19.254 30.8889C19.1008 30.8873 18.9495 30.9216 18.812 30.9889C18.5933 31.0729 18.273 31.2209 17.851 31.4329C17.429 31.6449 17.1446 31.7979 16.998 31.8919C16.8817 31.9549 16.7843 32.0477 16.716 32.1609C16.6723 32.2849 16.6762 32.4207 16.727 32.5419C16.8214 32.7827 16.9382 33.0141 17.076 33.2329C17.1983 33.4532 17.3402 33.6621 17.5 33.8569C17.581 33.9562 17.6948 34.0232 17.821 34.0459C17.965 34.0561 18.1094 34.0314 18.242 33.9739C18.4166 33.9073 18.7116 33.7713 19.127 33.5659C19.6383 33.3106 19.9746 33.1326 20.136 33.0319C20.257 32.9717 20.3563 32.8752 20.42 32.7559C20.459 32.6479 20.405 32.4659 20.26 32.2119V32.2159ZM20.83 28.7259L25.691 26.2979L26.252 27.2449L22.711 29.0139L23.056 29.5959L26.417 27.9159L26.941 28.8009L23.58 30.4809L23.962 31.1269L27.526 29.3419L28.099 30.3099L23.216 32.7499L20.83 28.7259ZM33.501 27.6139L32.721 27.1199L29.821 28.5699L29.849 29.4399L28.323 30.2029L28.263 25.0119L30.339 23.9749L35.019 26.8569L33.501 27.6139ZM31.73 26.4719L29.982 25.3719L29.716 25.5049L29.774 27.4519L31.73 26.4719ZM35.439 26.6459L33.054 22.6179L36.283 21.0039C37.0416 20.6273 37.5 20.4079 37.658 20.3459C37.822 20.2829 37.9976 20.2556 38.173 20.2659C38.3813 20.2703 38.582 20.3446 38.743 20.4769C38.9626 20.6858 39.1472 20.9286 39.29 21.1959C39.4252 21.4067 39.5337 21.6334 39.613 21.8709C39.6558 22.017 39.6459 22.1735 39.585 22.3129C39.4863 22.498 39.3399 22.6534 39.161 22.7629C39.3883 22.6484 39.6493 22.62 39.896 22.6829C40.0129 22.7253 40.1165 22.7982 40.196 22.8939C40.3551 23.1088 40.5004 23.3336 40.631 23.5669L40.853 23.9419L39.536 24.5999L39.408 24.3839C39.3169 24.2205 39.2129 24.0647 39.097 23.9179C39.0364 23.8418 38.9566 23.7832 38.866 23.7479C38.781 23.7264 38.6915 23.7305 38.609 23.7599C38.4187 23.833 38.233 23.9175 38.053 24.0129L36.17 24.9539L36.777 25.9779L35.439 26.6459ZM35.573 23.9459L37.453 23.0069C37.777 22.8369 37.969 22.7339 38.03 22.6979C38.0845 22.667 38.1308 22.6234 38.165 22.5709C38.2026 22.5082 38.2148 22.4334 38.199 22.3619C38.1676 22.2485 38.1191 22.1406 38.055 22.0419C38 21.9384 37.9272 21.8453 37.84 21.7669C37.7774 21.7156 37.6977 21.6899 37.617 21.6949C37.5513 21.7004 37.4871 21.717 37.427 21.7439C37.36 21.7719 37.171 21.8629 36.861 22.0149L34.985 22.9529L35.573 23.9459ZM46.343 21.1949L45.563 20.7009L42.663 22.1499L42.691 23.0199L41.165 23.7829L41.105 18.5919L43.181 17.5549L47.861 20.4369L46.343 21.1949ZM44.572 20.0529L42.823 18.9529L42.557 19.0859L42.615 21.0339L44.572 20.0529ZM44.184 17.6069L44.496 16.3499L45.575 16.1279L44.446 17.8159L44.184 17.6069Z" fill="black"/>
<path d="M34.119 14.5168L34.377 14.9918L34.636 15.4668H36.309L35.632 15.7608L34.955 16.0538L35.213 16.5288L35.472 17.0038L34.795 16.7108L34.118 16.4168L33.441 16.7108L32.764 17.0038L33.023 16.5288L33.282 16.0538L32.605 15.7608L31.928 15.4668H33.601L33.859 14.9918L34.118 14.5168H34.119Z" fill="white"/>
<path d="M29.353 13.554L29.683 14.07L30.014 14.586H32.154L31.288 14.905L30.423 15.224L30.754 15.74L31.085 16.256L30.22 15.937L29.355 15.618L28.489 15.937L27.624 16.256L27.954 15.74L28.285 15.224L27.42 14.905L26.555 14.586H28.694L29.024 14.07L29.355 13.554H29.353Z" fill="white"/>
<path d="M23.694 14.3879L24.053 14.9149L24.414 15.4409H26.744L25.801 15.7669L24.858 16.0919L25.218 16.6189L25.579 17.1449L24.637 16.8199L23.695 16.4939L22.752 16.8199L21.81 17.1449L22.17 16.6189L22.53 16.0919L21.588 15.7669L20.646 15.4409H22.976L23.336 14.9149L23.697 14.3879H23.694Z" fill="white"/>
<path d="M19.1259 17.1299L19.4969 17.7659L19.8689 18.4009H22.2689L21.2959 18.7939L20.3229 19.1869L20.6939 19.8219L21.0659 20.4569L20.0929 20.0649L19.1199 19.6719L18.1469 20.0649L17.174 20.4569L17.5449 19.8219L17.917 19.1869L16.9439 18.7939L15.9709 18.4009H18.3709L18.7419 17.7659L19.1139 17.1299H19.1259Z" fill="white"/>
<path d="M23.451 48.55V35.921L14.084 40.5099C14.1792 41.1389 14.347 41.7546 14.584 42.345C15.2114 43.8728 16.3889 45.1099 17.884 45.812L18.04 45.89L17.932 45.837L23.451 48.55ZM31.985 52.72L26.826 50.1V34.267L36.953 29.3049V50.145L31.985 52.72ZM40.266 27.674L46.312 24.731C45.825 27.345 46.95 29.7309 48.18 32.2209C48.7239 33.2693 49.2015 34.3508 49.61 35.459C49.8509 36.2027 50.0354 36.9635 50.162 37.735C50.2178 38.1568 50.2495 38.5815 50.257 39.007C50.2652 39.4414 50.2425 39.8758 50.189 40.307C49.9988 42.0098 49.1592 43.5736 47.845 44.673C47.2865 45.1286 46.6783 45.5198 46.032 45.839L45.006 46.3549L40.737 48.501L45.004 46.3549L40.264 48.72V27.674H40.266Z" fill="black"/>
<path d="M23.323 20.044L23.775 20.811C23.925 21.066 24.075 21.322 24.228 21.577H27.159L25.973 22.051L24.787 22.525C24.937 22.781 25.087 23.036 25.24 23.292C25.393 23.548 25.54 23.803 25.694 24.058L24.508 23.585L23.322 23.111L22.136 23.585L20.95 24.058L21.403 23.292C21.553 23.037 21.703 22.781 21.857 22.525L20.671 22.049L19.486 21.575H22.416L22.869 20.809L23.323 20.042V20.044Z" fill="white"/>
<path d="M29.808 50.0218V48.2638H29.416L29.58 47.9348H30.202V50.0218H29.808Z" fill="white"/>
<path d="M32.3569 50.0218V48.2638H31.9659L32.1299 47.9348H32.7519V50.0218H32.3569Z" fill="white"/>
<path d="M31.622 48.0788C31.5584 48.017 31.4828 47.9689 31.3999 47.9374C31.317 47.9059 31.2286 47.8918 31.14 47.8958C31.0469 47.8914 30.9538 47.9054 30.8662 47.937C30.7785 47.9685 30.6979 48.0171 30.629 48.0798C30.5645 48.1431 30.5139 48.2193 30.4807 48.3033C30.4474 48.3874 30.4322 48.4775 30.436 48.5678C30.4298 48.7282 30.4865 48.8846 30.594 49.0038C30.6461 49.0597 30.7095 49.1038 30.7801 49.1331C30.8506 49.1624 30.9266 49.1763 31.003 49.1738C31.0487 49.1746 31.0944 49.1699 31.139 49.1598C31.1793 49.1506 31.2183 49.1361 31.255 49.1168L30.696 50.0228H31.165C31.3919 49.6901 31.5786 49.3316 31.721 48.9548C31.7721 48.8313 31.7999 48.6994 31.803 48.5658C31.8074 48.4766 31.7936 48.3874 31.7625 48.3037C31.7314 48.22 31.6836 48.1435 31.622 48.0788ZM31.338 48.7788C31.3115 48.8077 31.2792 48.8304 31.2431 48.8456C31.207 48.8608 31.1681 48.8681 31.129 48.8668C31.0877 48.8691 31.0464 48.8628 31.0077 48.8483C30.969 48.8338 30.9337 48.8116 30.904 48.7828C30.876 48.7517 30.8544 48.7154 30.8405 48.6759C30.8266 48.6364 30.8206 48.5946 30.823 48.5528C30.8212 48.5119 30.8276 48.4711 30.8417 48.4326C30.8557 48.3942 30.8772 48.3589 30.905 48.3288C30.964 48.274 31.0415 48.2436 31.122 48.2436C31.2025 48.2436 31.28 48.274 31.339 48.3288C31.3666 48.3595 31.3879 48.3953 31.4017 48.4343C31.4154 48.4733 31.4213 48.5146 31.419 48.5558C31.4204 48.6364 31.3915 48.7146 31.338 48.7748V48.7788Z" fill="white"/>
<path d="M34.243 49.2207V47.8958H33.885L32.941 49.3177V49.4987H33.885V50.0218H34.243V49.4987H34.449V49.2207H34.243ZM33.893 48.3968C33.893 48.4308 33.893 48.4808 33.893 48.5468V49.2217H33.349L33.772 48.5737C33.8 48.5297 33.825 48.4848 33.848 48.4398C33.8705 48.3952 33.8905 48.3495 33.908 48.3027C33.899 48.3307 33.896 48.3578 33.893 48.3958V48.3968Z" fill="white"/>
</g>
<defs>
<clipPath id="clip0_40_26741">
<rect width="64" height="64" fill="white"/>
</clipPath>
</defs>
</svg>
