<svg xmlns="http://www.w3.org/2000/svg" width="64" height="64" viewBox="0 0 64 64"><g transform="translate(-479 -7217.403)"><circle cx="32" cy="32" r="32" transform="translate(479 7217.403)" fill="#0d00ff"/><path d="M20.714,29.913c-.047,0-.066-.027-.088-.066l-4.91-15.292a.084.084,0,0,1,.033-.074L29.412.027A.105.105,0,0,1,29.479,0l16.76.014a.1.1,0,0,1,.094.1.071.071,0,0,1-.02.054L24.032,25.241a.161.161,0,0,0-.047.113.166.166,0,0,0,.269.127l11.6-9.251a.542.542,0,0,1,.181-.066l16.323-.181a.107.107,0,0,1,.068.167l-13.8,13.743a.108.108,0,0,1-.067.033Z" transform="translate(476.918 7234.439)" fill="#fff"/></g></svg>