<svg width="64" height="64" viewBox="0 0 64 64" fill="none" xmlns="http://www.w3.org/2000/svg">
<g clip-path="url(#clip0_40_26762)">
<path d="M32 64C49.6731 64 64 49.6731 64 32C64 14.3269 49.6731 0 32 0C14.3269 0 0 14.3269 0 32C0 49.6731 14.3269 64 32 64Z" fill="#0D00FF"/>
<path d="M18.632 46.9491C18.585 46.9491 18.566 46.9221 18.544 46.8831L13.634 31.5911C13.6328 31.577 13.6352 31.5628 13.641 31.5499C13.6467 31.537 13.6557 31.5257 13.667 31.5171L27.33 17.0631C27.3484 17.0465 27.3721 17.0369 27.397 17.0361L44.157 17.0501C44.1824 17.0517 44.2063 17.0629 44.2238 17.0815C44.2413 17.1001 44.251 17.1246 44.251 17.1501C44.2516 17.16 44.2501 17.17 44.2467 17.1793C44.2432 17.1886 44.2379 17.197 44.231 17.2041L21.95 42.2771C21.92 42.3071 21.9031 42.3477 21.903 42.3901C21.9036 42.4211 21.9128 42.4512 21.9296 42.4772C21.9464 42.5031 21.9701 42.5239 21.9981 42.5371C22.026 42.5503 22.0571 42.5554 22.0879 42.5519C22.1186 42.5484 22.1477 42.5363 22.172 42.5171L33.772 33.2661C33.8279 33.2335 33.8892 33.2111 33.953 33.2001L50.276 33.0191C50.2936 33.0224 50.3102 33.03 50.3241 33.0414C50.3381 33.0527 50.3489 33.0674 50.3557 33.084C50.3625 33.1007 50.3649 33.1187 50.3629 33.1366C50.3608 33.1544 50.3543 33.1715 50.344 33.1861L36.544 46.9291C36.5263 46.9478 36.5025 46.9595 36.477 46.9621L18.632 46.9491Z" fill="white"/>
</g>
<defs>
<clipPath id="clip0_40_26762">
<rect width="64" height="64" fill="white"/>
</clipPath>
</defs>
</svg>
