<svg xmlns="http://www.w3.org/2000/svg" width="64" height="64" viewBox="0 0 64 64"><g transform="translate(-93 -78)"><circle cx="32" cy="32" r="32" transform="translate(93 78)" fill="#e8d91f"/><g transform="translate(107.497 83.097)"><path d="M307.09,186.647a.332.332,0,0,0,.219-.065,2.343,2.343,0,0,1,1.26.116,1.9,1.9,0,0,1,.877,1.538l-.357-.078a1.722,1.722,0,0,0-.7.168c-.206-.22-.342-.439-.534-.685a7.328,7.328,0,0,0-1.014-.917l.246-.078" transform="translate(-304.596 -180.998)" fill="#f3ce1d"/><path d="M330.923,395.954,341.144,420.9l10.6-24.633Z" transform="translate(-323.581 -379.75)" fill="#fff"/><path d="M259.481,238.13l-.017-.252c-.05.1-.068.2.017.252" transform="translate(-247.752 -212.251)" fill="#ffdf1b"/><path d="M259.491,240.32c-.034-.1-.152-.116-.253-.135-.084.1.1.084.084.185.067,0,.151.119.2,0l-.034-.05" transform="translate(-247.627 -213.65)" fill="#ffdf1b"/><path d="M259.743,241.373h.033l.05-.116Z" transform="translate(-247.947 -214.299)" fill="#ffdf1b"/><path d="M261.064,241.785c-.067-.168.017-.438-.253-.488.152.2.116.336.253.488" transform="translate(-248.594 -214.324)" fill="#ffdf1b"/><path d="M260.349,242.064h-.05v.152c.067-.033.033-.1.05-.152" transform="translate(-248.284 -214.789)" fill="#ffdf1b"/><path d="M260.827,243.369c-.084-.067,0-.2-.1-.236.017.084.033.2.1.236" transform="translate(-248.543 -215.437)" fill="#ffdf1b"/><path d="M261.9,243.8c-.017-.05-.067-.034-.116-.034-.034.084.05.116.116.1V243.8" transform="translate(-249.182 -215.821)" fill="#ffdf1b"/><path d="M262.863,236.625c.017-.135-.151-.219-.252-.286-.135.152-.354.2-.454.3-.2.05-.235.286-.353.42-.219.2-.488-.05-.656.185-.05.017-.151.05-.2-.017-.068-.084.05-.1,0-.2.218-.2.4-.168.673-.168,0-.1.134-.272.168-.37l-.353.253-.337-.017c-.1.034-.05.135-.116.2-.084.1-.185-.034-.253-.067a.72.72,0,0,1,.269-.4c-.1.017-.152.168-.219.116-.084.185-.218.32-.135.5-.05.152.219.253.253.388a1.326,1.326,0,0,1-.723-.067l.152.135c-.286.185.135.286.017.5.1-.05.185.034.252.017.337.151.353.621.353.959.134.152.286-.067.388-.151a.874.874,0,0,1,.168.185c-.017,0-.034.05-.068.033v.1a2.072,2.072,0,0,1,.269.067c.168-.152.1-.354.05-.538.034-.152,0-.488.286-.539.235-.116.068-.37.151-.589a.17.17,0,0,1-.084-.2c.05-.051.1-.1.185-.084.168-.05.084-.2.05-.32-.2.068-.235.3-.32.421-.05-.068-.185.017-.2-.116a.754.754,0,0,1,.3-.5c.134.016.3-.1.4,0l.116.116c-.135.471.353.5.555.841l-.067.05c-.219.152-.219.454-.438.621-.2-.168-.017-.353-.185-.538-.151,0-.05.151-.084.2-.1.151.084.2.185.286a.191.191,0,0,1-.051.135c-.084.135-.235,0-.336-.034l.084.337c.034.034.135.017.116.1-.084.135-.2.253-.319.084a2.085,2.085,0,0,0-.084.421c.235.219-.168.252-.218.471a4.532,4.532,0,0,1,.656.605c.135-.083.067-.235.084-.354-.05-.218-.438-.605-.084-.757.116.034.2.185.286.219v-.033c.116-.286-.134-.555.017-.776.135-.1.253.085.269.2.067.084-.051.219.1.219.034-.135-.1-.235.034-.353-.116-.1.05-.185.067-.337.067-.067.2,0,.235.067,0,.016-.017.033-.033.016l.033.051c-.134.32.017.538.034.841-.135.135-.3-.05-.438-.017a1.975,1.975,0,0,0,.168.757c-.135.135-.236-.151-.37-.116.068.1.034.235.1.319.185.353.185,1.043.639,1.043.05.084.269.051.151.219-.05.067-.219.116-.235.034-.2-.017-.017.253-.2.286l.135.134-.152.236a.9.9,0,0,0,.724-.4,5.2,5.2,0,0,1-.1-.74.539.539,0,0,1-.218-.253c0-.067-.017-.2.068-.252-.068-.253-.32-.421-.337-.673.135-.05.286.135.42.151-.235-.488.084-.841.1-1.346-.152-.219.05-.438-.116-.657,0-.084.116-.134.2-.1a2.5,2.5,0,0,1,.185.606.5.5,0,0,1,.135-.337c.034.017.05.067.084.067.033-.05.084,0,.116.033.033.1-.067.135-.05.218a1.844,1.844,0,0,0-.438,1.128c.286-.034.336-.37.589-.471-.135-.388.051-.841-.151-1.194a.853.853,0,0,1-.034-.455,3.049,3.049,0,0,1,0-.874c-.336-.253-.706-.05-1.008-.034.168.084.116.253.168.37-.017.1-.135.269.017.337.151.168-.084.253-.185.269-.067-.068-.017-.185-.116-.219a.429.429,0,0,1,.017-.4c-.084-.286-.4-.3-.5-.521" transform="translate(-248.207 -211.318)" fill="#ffdf1b"/><path d="M279.961,228.921a.484.484,0,0,0-.4,0,1.094,1.094,0,0,0-.942.472c.05.05-.017.084-.033.135.185-.135.454.3.5-.051.152-.05.185.152.3.152.017.151.135.3-.017.42-.2-.116-.219.168-.421.067-.168.219-.353-.185-.5.034-.051.05-.017.116.033.152l.034-.051.135.134c-.116.051-.034.185-.185.152s-.32-.135-.32-.32c-.286.286-.084.706,0,.942l.252-.219a.69.69,0,0,1,.488.017c-.034.388.388.5.521.808a1.835,1.835,0,0,0,.185.471.784.784,0,0,0,.471-.084c.135-.253-.252-.2-.286-.388.068-.3.32-.017.454,0,.286-.068.051-.286.085-.454.084-.168-.068-.319-.017-.488a1.343,1.343,0,0,1,.438-.219c-.286-.388.1-.69.269-.975.017-.1-.168-.084-.084-.185-.235-.135-.37-.353-.69-.421,0,.068-.151.1-.033.168.1.151.236.353.116.521a.69.69,0,0,1-.337.32c-.168-.05-.337.134-.454-.017a.617.617,0,0,0,.185-.32c-.017-.2-.269-.116-.4-.168-.05-.185.068-.337.151-.5a.3.3,0,0,1,.236.1c-.161.291.31.226.336.516a.452.452,0,0,0-.252-.432l.185-.286" transform="translate(-259.013 -206.794)" fill="#ffdf1b"/><path d="M285.63,231.822a.209.209,0,0,0,.034-.269c-.05.152-.3.185-.253.353l.218-.084" transform="translate(-263.505 -208.416)" fill="#ffdf1b"/><path d="M285.7,232.807c-.1.116-.168-.084-.236-.1.135.067,0,.185.135.236.051-.067.152-.034.135-.135H285.7" transform="translate(-263.541 -209.115)" fill="#ffdf1b"/><path d="M284.62,234.2v-.084h-.033l-.017.116c.033.034,0,.084.017.1v-.107c.011-.01.022-.025.033-.025" transform="translate(-262.999 -209.97)" fill="#ffdf1b"/><path d="M285.531,234.587c-.051,0-.152,0-.116.068.05,0,.134-.017.116-.068" transform="translate(-263.507 -210.256)" fill="#ffdf1b"/><path d="M278.326,234.772c-.219-.116-.269.388-.454.1a2.134,2.134,0,0,0,.051.724c.1-.1.168-.236.253-.337.5.017-.05.388.05.572l.135-.252c.05,0,.168-.05.218.05-.116.354.336.74-.084,1.008-.068.116.05.219-.084.286-.05.017-.135.05-.152-.017-.32-.269.32-.438.068-.791-.033.236-.269.185-.353.37a.481.481,0,0,0-.084.354,2.909,2.909,0,0,0-.37,1.363c.168.2.1.488.286.656.1.033.185.168.286.135.1-.2-.1-.1-.168-.2a.641.641,0,0,1-.152-.539c.2-.218-.253-.32-.084-.522.168-.168.3.116.42.219-.033.2-.134.353-.033.538.116-.151-.135-.42.152-.471.3-.033.1.337.135.488.084.32.471.337.639.606.269.168.185.5.4.723l.033-.084c.05.034.2,0,.253.067-.1.3-.269.673-.05.959.1-.084,0-.2.067-.269.116,0,.286-.05.3.135.253.168.05-.218.2-.319.084-.034.068.152.168.05.2-.236-.135-.354-.235-.539a5,5,0,0,0-1.008-1.447l.033-.067c-.218-.37.034-.758.1-1.094.42-.185,0,.353.42.3a.885.885,0,0,1-.32.42c.017.116-.084.286.068.388a1.269,1.269,0,0,0,.673-.2.73.73,0,0,0,.116-.488c.068-.084,0-.319.2-.3.168.034.084.168.116.272.269-.116.235.253.286.388l.168-.32a.644.644,0,0,1-.05-.555c.1.017.319-.017.269.1a2.171,2.171,0,0,1,.286-.488,1.156,1.156,0,0,1,.69-.135c.034-.151-.2-.185-.286-.286v.067c-.2.135-.454-.017-.621.2a.54.54,0,0,1-.168-.218c-.084.32-.488.421-.639.706l-.185-.185a.263.263,0,0,0,.135-.253c-.084-.116,0-.353-.116-.5.033-.067.067-.269.218-.2a.233.233,0,0,1,.084.135l.1-.084c0-.135-.084-.286,0-.4.084-.151.219,0,.269.084l-.068-.3c-.152-.1-.017-.488-.32-.3l.034.354a.973.973,0,0,1-.488.673c.168.1-.034.185-.1.253-.269.168-.555,0-.774-.152-.42-.218-.219-.707-.555-.925a.216.216,0,0,1-.337-.033c.034-.017.034-.051.034-.1-.084-.017-.152.017-.219-.1a.342.342,0,0,1,.135-.253" transform="translate(-258.724 -210.357)" fill="#ffdf1b"/><path d="M282.345,218.809h.067l-.067-.033Z" transform="translate(-261.65 -200.67)" fill="#e7e8e8"/><path d="M283.747,218.821c-.033-.05-.1-.017-.116.017.05-.017.116.017.116-.017" transform="translate(-262.43 -200.682)" fill="#e7e8e8"/><path d="M281.13,218.895v-.034h-.068Z" transform="translate(-260.873 -200.722)" fill="#e7e8e8"/><path d="M282.262,217.84l-.168-.2c-.975-.016-2.12.017-3.028-.016a.42.42,0,0,0-.319.488c.05.051.134.185.218.2.185.051.253-.084.336-.2a.142.142,0,0,0-.168-.134l.084.084a1.031,1.031,0,0,1-.2.185c-.084-.084-.185-.219-.151-.337.1-.084.151-.185.269-.2.135.05.286.017.388.151l2.035-.017a.43.43,0,0,1,.286-.168c.1.068.269.034.32.185-.017.1.05.3-.116.353-.1-.017-.253-.116-.185-.252a.1.1,0,0,0-.068.017c-.1.1,0,.235.1.286.116-.017.253.05.353-.051-.017-.116.1-.235.017-.37" transform="translate(-259.464 -199.97)" fill="#e7e8e8"/><path d="M266.279,218.911c-.017-.034-.084-.034-.084.017.033,0,.084.017.084-.017" transform="translate(-251.859 -200.737)" fill="#e7e8e8"/><path d="M267.6,218.913c-.017-.05-.05,0-.084,0l.05.034.033-.034" transform="translate(-252.661 -200.739)" fill="#e7e8e8"/><path d="M263.638,218.947h-.1c-.034.067.1.034.1,0" transform="translate(-250.244 -200.774)" fill="#e7e8e8"/><path d="M264.971,218.967c-.034,0-.084-.034-.1,0h.1" transform="translate(-251.055 -200.777)" fill="#e7e8e8"/><path d="M281.092,224.767c.1.116.2.334.367.419a.2.2,0,0,1-.047.019c.017.017.034,0,.047-.019.112-.062.007-.194.039-.284-.084-.235.1-.5-.034-.656a6.71,6.71,0,0,1-3.011.555.4.4,0,0,0,.068.269c.084-.033.185-.016.253-.084.168.017.05.168.152.218l.033-.033c.033-.05-.017-.1-.068-.152.05-.017.084-.1.168-.067.152.05.3-.068.438-.034a.429.429,0,0,0,.034.4l.168-.051.033.135c-.033.116-.151.1-.253.116-.454.084-.05-.253-.253-.455-.2.135-.017.522-.336.539l-.269-.454h-.068c.017.218-.134.353-.1.572a15.875,15.875,0,0,0,2.052-.253c.051-.067.068.034.1.017.152-.135.4-.05.572-.168v-.034l.168-.017c0-.017.051-.05,0-.067-.116.034-.32.067-.269-.1-.034.017-.068-.017-.084.017.033.05.067.1,0,.168-.269,0-.5.067-.724.084a.749.749,0,0,0-.067-.5c-.084.033.033.084-.034.116-.05.068-.084,0-.135-.017a.5.5,0,0,0,.1.42c-.1.033-.253.1-.354.017.084-.116.017-.286-.017-.4-.034.017-.068.067-.1.067-.033-.016-.116-.067-.084-.116.185-.2.605-.116.892-.236.051-.017.084.1.116,0l.05.051a.375.375,0,0,1,.017.3c.337.2.084-.3.3-.471.084,0,.116.1.134.168" transform="translate(-259.287 -203.986)" fill="#e7e8e8"/><path d="M264.818,218.083c-.051-.1-.034-.252-.185-.3a29.906,29.906,0,0,0-3.23.017l-.068.116c-.034.152-.168.37.033.488a.432.432,0,0,0,.388-.05c.034-.068.1-.185.017-.253-.034,0-.1-.017-.1.017l.033.084c-.068.034-.068.168-.168.135-.068-.034-.084-.1-.135-.152.033-.151.017-.3.2-.353.134.116.3-.05.37.152.4.05.992-.034,1.43,0,.286-.051.656.116.875-.152a.529.529,0,0,1,.353.084.306.306,0,0,1-.116.421c-.084-.068-.185-.185-.134-.253-.152-.017,0,.116-.1.152a.241.241,0,0,0,.337.168c.185,0,.134-.219.2-.32" transform="translate(-248.867 -200.045)" fill="#e7e8e8"/><path d="M264.521,225.077a6.836,6.836,0,0,1-1.48-.4c-.051.337.017.74-.051,1.094.051-.034.168,0,.253.017a9.084,9.084,0,0,0,1.766.3l.017-.152c.084-.286.5-.32.388-.673l-.438-.05a1.028,1.028,0,0,1-.454-.135" transform="translate(-249.916 -204.245)" fill="#e7e8e8"/><path d="M283.765,227.616a11.478,11.478,0,0,1-1.206.237l.337.05a8.318,8.318,0,0,1,.757.4l.112.112v-.8" transform="translate(-261.78 -206.029)" fill="#e7e8e8"/><path d="M263.418,229.446v1.134c.041.194.353-.03.471.162.135.017.269.067.388-.068.185-.522.269-.925.438-1.446.152-.286.539-.4.471-.791a10.494,10.494,0,0,1-1.766-.3,4.3,4.3,0,0,1,0,.523v.789" transform="translate(-250.175 -206.343)" fill="#e7e8e8"/><path d="M267.524,234.723v-1.38a2.013,2.013,0,0,0-.555,1.008c.235.084.2.538.555.37" transform="translate(-252.328 -209.501)" fill="#e7e8e8"/><path d="M263.417,219.536v1.728c.239.2.615.147.808.34l.05-.033a6.58,6.58,0,0,0,1.019.219v-2.3c-.05-.024-.123.07-.194.041-.253-.269-.538.168-.74-.067-.116-.051-.185.1-.3.084-.213-.181-.411.007-.639-.015" transform="translate(-250.174 -201.074)" fill="#e7e8e8"/><path d="M282.724,221.051V219.4a.568.568,0,0,1-.365-.039c-.151-.05-.319.116-.471.017-.168-.152-.269.134-.438.034-.2-.23-.427.1-.609.007v2.109c.095.078.175-.012.256-.012a6.333,6.333,0,0,0,1.626-.468" transform="translate(-260.739 -201.007)" fill="#e7e8e8"/><path d="M279.727,216.676a.578.578,0,0,0,.072.12l2.254-.017c.132-.074.429.1.471-.1h-2.8" transform="translate(-260.063 -199.397)" fill="#e7e8e8"/><path d="M264.982,216.676h-2.811c-.016.061.072.128.086.171.808.05,1.6-.034,2.4,0,.138-.016.3-.017.32-.171" transform="translate(-249.418 -199.397)" fill="#e7e8e8"/><path d="M265.973,246.388c.209-.258-.261-.192-.272-.437l-.016.37c.084,0,.185.116.286.067m-2.81.185a3.8,3.8,0,0,1-.42-.976l-.034.051c-.116.151-.151.319.05.437a.136.136,0,0,1-.033.219c-.185-.033-.135.252-.152.37.051.235.286.034.454.1.084-.033.185-.084.134-.2m5.434-.673c.034-.185-.168-.353-.2-.521,0,.42-.017.773.017,1.177l.354.051c.05-.236-.116-.488-.168-.707m-2.843-.336c.033-.116.2-.253.017-.37.034.135-.05.236-.017.37m-3.886-.286a.314.314,0,0,0-.235-.169c-.5.589.42.724.218,1.313.067,0,.253.2.3.033a.161.161,0,0,1,.168.051c.051-.084-.017-.2.051-.286.116-.116-.185-.236-.219-.3-.05.152-.134-.017-.2.05-.252-.05.05-.185-.017-.319l-.116.033a.4.4,0,0,1-.116-.2.237.237,0,0,0,.168-.2m2.927.438-.32-.32c-.185-.033-.067-.454-.319-.336,0,.084-.068.168,0,.235a1.72,1.72,0,0,0-.168.621c.3.168.168.621.286.875.135.017.253-.1.37-.1a.538.538,0,0,0,.3-.639c-.05-.116-.05-.286-.152-.336m2.691-.522a.8.8,0,0,1-.538-.42c.05.152-.05.253-.05.37.05.116-.017.337-.017.454l.034.051a1.876,1.876,0,0,0-.1.807c.2-.134.438.236.606-.033l-.32-.219c-.235-.4.37-.606.388-1.008m-2.759.116a4.094,4.094,0,0,1-.1-.572.469.469,0,0,0,.1.572m-3.466-.37a.626.626,0,0,1-.337-.235c.05.1.068.319.185.437Zm-.085-.374.018.02c.068.1.2.084.3.084a.438.438,0,0,0,.217-.1h.373c-.061.085-.239.15-.272.289a4.531,4.531,0,0,1,.656.605c.135-.083.067-.235.084-.354-.034-.146-.218-.367-.231-.543h.421l.011,0v0h.32a2.414,2.414,0,0,0,.168.643c-.135.135-.236-.151-.37-.116.067.1.034.235.1.319.185.353.185,1.043.639,1.043.05.084.269.051.151.219-.05.067-.219.116-.235.034-.2-.017-.017.253-.2.286l.135.134-.152.236a.9.9,0,0,0,.724-.4,5.2,5.2,0,0,1-.1-.74.539.539,0,0,1-.218-.253c0-.067-.017-.2.067-.252-.067-.253-.32-.421-.337-.673.135-.05.286.135.42.151a.9.9,0,0,1-.053-.627h.29a1.554,1.554,0,0,0-.018.239.5.5,0,0,0,.329-.237h.495a.335.335,0,0,1-.033.121c-.068.673.589,1.3.185,2-.236.235-.621.218-.79.471.116,0,.168-.135.253-.185.084-.034.134.116.168.2-.068,0-.084.067-.1.116a4.707,4.707,0,0,0,.942-.42l-.134-.152c.116-.116.05-.3.067-.4-.168-.37.068-.858.017-1.245a1,1,0,0,0,.069-.511l.562,0-.026.071c-.252.623.388,1.161.168,1.784-.033.116-.067.286.084.37l-.185.185c-.068.252.253.084.32.151.152.051.152.337.336.185-.151-.1.034-.2.051-.286-.589-.3-.253-.992-.219-1.463a6.974,6.974,0,0,0,.011-.994l.514,0a.48.48,0,0,0,.131.239c.1.033.185.168.286.135.1-.2-.1-.1-.168-.2a.6.6,0,0,1-.111-.171h.6c.135.214.445.258.591.491.269.168.185.5.4.723l.033-.084c.05.034.2,0,.253.068-.1.3-.269.673-.05.959.1-.084,0-.2.067-.269.116,0,.286-.05.3.135.253.168.05-.218.2-.319.084-.034.068.152.168.05.2-.236-.135-.354-.235-.539a7.215,7.215,0,0,0-.769-1.215h.31l.393.474c.134.32.218.639.555.808a.97.97,0,0,0,.218-.657l-.32-.185a.17.17,0,0,1-.185.085c-.067.016-.1-.085-.116-.135l-.349-.391h.38a.207.207,0,0,1,.036.039c.084-.017.185.083.286.1l.027-.138h.5l0,.609a2.845,2.845,0,0,1-.977,2l-.229.01c.027-.082.084-.184.022-.258-.135.034-.3.116-.454.168-.1-.033-.067-.134-.084-.2a1.815,1.815,0,0,1-.724-.219c-.05-.572-.017-1.094-.05-1.615-.067-.017-.134-.152-.235-.1a2.814,2.814,0,0,1-.572,1.06c.152.218.454.152.589.388-.185.134-.135.2-.068.37a2.754,2.754,0,0,1-.976-.1,7.768,7.768,0,0,1,.673.621.815.815,0,0,1-.707.236c-.319.185-.388-.388-.723-.219-.388-.05-.1-.5-.151-.69-.051,0-.1.017-.135-.017-.1.134.067.37-.135.5l-1.026.421-.572-.219a1.668,1.668,0,0,1-.757.32c-.2,0-.32-.286-.555-.152-.116-.168.116-.3.185-.454l-.488-.017c-.151.068-.253-.134-.388.017.022.053.047.106.073.157h-.5a1.775,1.775,0,0,1-.1-.191c-.506-.882-.911-1.619-1.356-2.424Z" transform="translate(-248.222 -216.303)" fill="#221f20"/><path d="M260.32,225.861a1.131,1.131,0,0,1,.107-.092.756.756,0,0,1,.246-.13l.043.163a.751.751,0,0,0-.278.178l-.119-.119m7.223-2.5a1.16,1.16,0,0,1,.14-.019.756.756,0,0,1,.277.025l-.052.16a.752.752,0,0,0-.33,0Zm-6.384-3.223c.168.068.4.068.589.135a.142.142,0,0,0-.034.2l.017.034.116-.135c-.034,0-.017-.034-.017-.051.05-.05.185,0,.253.034-.185.116-.269.37-.454.5-.152-.185-.017-.69-.32-.606l-.067.37h.185c-.034.05,0,.135-.084.135l-.388-.1c.068.005.074-.146.152-.24-.084-.084.067-.2-.068-.269a.1.1,0,0,0-.034.152c-.084.151-.3.016-.3.218l.067.084c-.067.085-.2.017-.269-.033l-.05-.034c.168-.033.084-.219.168-.3l-.068-.2c.116-.134.235.085.388.034.017.116.151.05.218.067m1.28.337c-.168.134.017.3-.116.454-.134.017-.252.067-.353-.05-.067-.168.235-.168.1-.32-.034-.269.3-.168.37-.084m.354-3.956h-2.811c-.016.061.072.128.086.171.808.05,1.6-.034,2.4,0,.138-.016.3-.017.32-.171m4.1,0a.576.576,0,0,0,.072.12l2.254-.017c.132-.074.429.1.471-.1Zm2.321,2.765v-1.648a.567.567,0,0,1-.365-.039c-.151-.05-.319.116-.471.017-.168-.152-.269.134-.437.034-.2-.23-.427.1-.609.007v2.108c.095.078.175-.012.256-.012a6.332,6.332,0,0,0,1.626-.468m-8.742-1.583v1.728c.239.2.615.147.808.34l.05-.033a6.579,6.579,0,0,0,1.019.219v-2.3c-.05-.024-.123.07-.194.041-.253-.269-.538.168-.74-.067-.116-.051-.185.1-.3.084-.213-.181-.411.007-.639-.015m-.521,9.521c-.017-.05-.068-.034-.116-.034-.034.084.05.116.116.1Zm-.438-.05c-.084-.068,0-.2-.1-.236.017.084.033.2.1.236m-.218-.657h-.05v.152c.067-.033.033-.1.05-.152m.4.185c-.068-.168.017-.438-.253-.488.152.2.116.336.253.488m-.673-.388h.033l.05-.116Zm5.888-.152-.05-.1c-.05.388-.253.757-.067,1.127l-.033.034c.05.067.068.219.116.219a2.724,2.724,0,0,0,.033-1.28m-5.821-.252c-.034-.1-.152-.116-.253-.135-.084.1.1.084.084.185.067,0,.151.119.2,0Zm2.591-.388c-.017-.236-.168-.084-.3-.034.116.084.168,0,.3.034m7.469-.135a.646.646,0,0,0,.253-.3.631.631,0,0,0-.253.3m-.621-.5c-.185-.051-.337.067-.488.033l.05.051c.084.017.2.151.286.017l.033.034c.033-.034.1-.084.116-.134m-9.572.235-.017-.252c-.05.1-.067.2.017.252m7.554-.1c.084-.024,0-.083-.043-.126a.08.08,0,0,0-.008-.042c-.014.009-.007.024.008.042,0,.052-.039.1.043.126m-7.116-.168c-.084.05-.2.05-.168.168.034.067.1.067.135.084.033-.084-.034-.168.033-.253m11.271.017c-.084-.068-.337-.168-.253-.32-.1.1-.253.219-.388.116a.762.762,0,0,0-.336.555l.1-.067c.253,0,.253-.337.521-.269.068.1-.017.168.084.269l.116-.152Zm-11.473-.388c-.151-.067-.135.235-.185.3a.354.354,0,0,0,.185-.3m9.421.134a.291.291,0,0,0,.2-.336l-.235.168c0,.05-.084.185.033.168m-7.9-.8c-.185-.116-.421.051-.656,0-.218.168-.538.168-.757.37.017.1.185.152.134.286a2.164,2.164,0,0,0,.3-.269c.219.05.354-.236.539-.152.116.1,0,.2-.068.272l-.034-.017-.067.084.253.017c.269-.1.151-.42.353-.589m8.546-.235c-.051,0-.152,0-.116.068.05,0,.134-.017.116-.068m-.4-.1v-.084h-.036l-.017.116c.033.034,0,.084.017.1v-.109c.011-.01.022-.025.033-.025m-4.256-.2c-.269.05-.42-.152-.689-.168-.034.05-.135.116-.068.185.269-.116.438.051.656.168.235.067.438-.1.673-.253-.218.034-.4.135-.572.068m-2.17,1.195v-1.381a2.013,2.013,0,0,0-.555,1.008c.235.084.2.538.555.37m3.549-1.178c-.116-.1-.185-.5-.4-.3l.1.185-.757.521c-.4.185-.572-.151-.942-.185-.067.1-.135-.05-.219-.05v.286c.2.218-.068.471,0,.706a1.259,1.259,0,0,1,.825.05c.084-.084.017-.337.185-.354a6.347,6.347,0,0,0,.32.909,1.851,1.851,0,0,0,.218-.673c.084-.067-.05-.152.084-.2.116-.084.219.05.269.116l.269-.236c.134-.05.151-.2.168-.286Zm3.413-.353c-.1.116-.168-.084-.236-.1.135.067,0,.185.135.236.051-.067.152-.034.135-.135Zm-3.365-.286c.017-.017,0-.116-.068-.084,0,.067-.033.185.034.2Zm3.331,0a.209.209,0,0,0,.034-.269c-.05.152-.3.185-.253.353Zm-2.557-.388a.194.194,0,0,1-.068-.168l-.135.185a.947.947,0,0,1,.5.084v-.033a.285.285,0,0,0-.3-.067m-1.211-.3c-.218,0-.084.236-.185.336a2.087,2.087,0,0,0,.286.269l-.034-.421c.017-.1-.151-.084-.067-.185m-2.321-.5h-.068c-.2.37-.336.757-.5,1.127l-.017,1.666.05.034c-.1.034.017.1-.034.168h.067a1.566,1.566,0,0,1,.69-.033c-.068-.067.1-.152.033-.253.219-.168-.1-.353,0-.5-.067-.253.116-.454.168-.673-.068-.488-.353-1.008-.388-1.531m4.912-.085a.484.484,0,0,0-.4,0,1.094,1.094,0,0,0-.942.472c.05.05-.017.084-.033.135.185-.135.454.3.5-.051.152-.05.185.152.3.152.017.151.135.3-.017.42-.2-.116-.219.168-.421.067-.168.219-.353-.185-.5.034-.051.05-.017.116.033.152l.034-.051.135.134c-.116.051-.034.185-.185.152s-.32-.135-.32-.32c-.286.286-.084.706,0,.942l.252-.219a.69.69,0,0,1,.488.017c-.034.388.388.5.521.808a1.834,1.834,0,0,0,.185.471.784.784,0,0,0,.471-.084c.135-.253-.252-.2-.286-.388.068-.3.32-.017.454,0,.286-.068.051-.286.085-.454.084-.168-.068-.319-.017-.488a1.343,1.343,0,0,1,.438-.219c-.286-.388.1-.69.269-.976.017-.1-.168-.084-.084-.185-.235-.135-.37-.353-.69-.421,0,.068-.151.1-.033.168.1.151.236.353.116.521a.69.69,0,0,1-.337.32c-.168-.05-.337.134-.454-.017a.617.617,0,0,0,.185-.32c-.017-.2-.269-.116-.4-.168-.05-.185.068-.337.151-.5a.3.3,0,0,1,.236.1c-.161.291.31.226.336.516a.452.452,0,0,0-.252-.432Zm-1.11-.151c-.135-.034-.253.017-.353-.034l-.219.084.1.471.286-.32c.067-.034.185-.135.185-.2m-6.594,1.127v1.134c.041.194.353-.03.471.162.135.017.269.067.388-.068.185-.522.269-.925.438-1.446.152-.286.539-.4.471-.791a10.493,10.493,0,0,1-1.766-.3,4.282,4.282,0,0,1,0,.523Zm8.742-1.516a11.484,11.484,0,0,1-1.206.237l.337.05a8.31,8.31,0,0,1,.757.4l.112.112Zm-7.377-.752a6.836,6.836,0,0,1-1.48-.4c-.051.337.017.74-.051,1.094.051-.034.168,0,.253.017a9.085,9.085,0,0,0,1.766.3l.017-.152c.084-.286.5-.32.388-.673l-.438-.05a1.028,1.028,0,0,1-.454-.135m1.346-2.793c-.051-.1-.034-.252-.185-.3a29.9,29.9,0,0,0-3.23.017l-.068.116c-.034.152-.168.37.033.488a.432.432,0,0,0,.388-.05c.034-.068.1-.185.017-.253-.034,0-.1-.017-.1.017l.033.084c-.068.034-.068.168-.168.135-.068-.034-.084-.1-.135-.152.033-.151.017-.3.2-.353.134.116.3-.05.37.152.4.05.992-.034,1.43,0,.286-.051.656.116.875-.152a.529.529,0,0,1,.353.084.306.306,0,0,1-.116.421c-.084-.068-.185-.185-.134-.253-.152-.017,0,.116-.1.152a.241.241,0,0,0,.337.168c.185,0,.134-.219.2-.32m5.854,2.743c.1.116.2.334.367.419a.2.2,0,0,1-.047.019c.017.017.034,0,.047-.019.112-.062.007-.194.039-.284-.084-.235.1-.5-.034-.656a6.71,6.71,0,0,1-3.011.555.4.4,0,0,0,.067.269c.084-.033.185-.016.253-.084.168.017.05.168.152.218l.033-.033c.033-.05-.017-.1-.067-.152.05-.017.084-.1.168-.067.152.05.3-.068.438-.034a.429.429,0,0,0,.034.4l.168-.051.033.135c-.033.116-.151.1-.253.116-.454.084-.05-.253-.253-.455-.2.135-.017.522-.336.539l-.269-.454h-.068c.017.218-.134.353-.1.572a15.872,15.872,0,0,0,2.052-.253c.051-.067.068.034.1.017.152-.135.4-.05.572-.168v-.034l.168-.017c0-.017.051-.05,0-.067-.116.034-.32.067-.269-.1-.034.017-.068-.017-.084.017.033.05.068.1,0,.168-.269,0-.5.067-.724.084a.749.749,0,0,0-.067-.5c-.084.033.033.084-.034.116-.05.068-.084,0-.135-.017a.5.5,0,0,0,.1.42c-.1.033-.253.1-.353.017.084-.116.017-.286-.017-.4-.034.017-.068.067-.1.067-.033-.016-.116-.067-.084-.116.185-.2.605-.116.892-.236.051-.017.084.1.116,0l.05.051a.375.375,0,0,1,.017.3c.337.2.084-.3.3-.471.084,0,.116.1.134.168m-7.889-2.591c-.034,0-.084-.034-.1,0Zm-.522-.017h-.1c-.034.067.1.034.1,0m1.547,0c-.017-.05-.05,0-.084,0l.05.034Zm-.521,0c-.017-.034-.084-.034-.084.017.033,0,.084.017.084-.017m4.525,2.894h-.05c.033.319-.185.538-.337.776a.957.957,0,0,1,.1.555c-.2.269.084.521.236.723.605-.2.05-.74.084-1.127-.253-.32.152-.572-.033-.925m-2.423-.388c-.068-.152.152-.539-.185-.388,0,.252-.084.471-.084.723a6.071,6.071,0,0,0,.4,2.541c.116.085.3.017.37.152.134-.051.32.152.488.05a2.04,2.04,0,0,1-.555-.522c-.1.017-.2.067-.286-.017.033-.135.05-.2.084-.32.116-.1.253-.168.37-.016.152.286.37.74.79.74a.267.267,0,0,0,.269-.168,7.635,7.635,0,0,1-1.06-1.161,3.038,3.038,0,0,1-.605-1.616m1.144-.776c-.235.034-.471.134-.689-.017-.034.135-.253.168-.219.3a1.943,1.943,0,0,0,.555.116c0-.1-.116-.219.017-.3a.51.51,0,0,1,.2.05c-.034.1.134.2.017.3-.067.084-.2.084-.2,0l-.084.168a2.387,2.387,0,0,1-.488-.068,8.431,8.431,0,0,0,.151.858c.235.05.116.286.152.388l.05-.033c.1.1.2-.068.32-.068.017-.2.1-.37-.017-.538.034-.068.1-.185.2-.152a.886.886,0,0,1,.1.589c.084.337-.32.388-.522.42a1.8,1.8,0,0,0,.417.525c.017-.116.135-.3.033-.454a.233.233,0,0,1,.2-.116c.3.3-.151.673.084.942l.017-.1c.116-.135.218-.32.388-.116a1.718,1.718,0,0,0,0-.589c-.033-.286-.42-.084-.471-.337.068-.218.388-.05.5-.05-.185-.051.033-.168.05-.253.388.116-.017-.5.42-.437l-.017-.2c-.068-.151-.218-.4-.454-.42l-.05.185a1.03,1.03,0,0,1-.555.033c-.05-.319.336-.134.488-.269-.2-.116-.589,0-.606-.353m.068-1.245c-.152-.185-.37-.168-.621-.168-.1.033-.084.116-.034.168.353-.116.168.253.253.42.168-.017.4.471.538.067l-.116-.286-.269.05c-.151-.033-.067-.168-.033-.253.084.05.185-.017.235-.017.051.034-.05.116.051.135Zm.252-.421c-.05-.185-.353-.235-.521-.269-.2.034-.522.1-.539.3a.481.481,0,0,0,.286-.067c.218.1.605-.051.74.286.068.135.017.353.116.4.1-.253-.068-.454-.084-.656m-1.951,2.642c-.05-.152.084-.337-.017-.488-.319.269-.235.572-.253.925-.454.252-.42.824-.572,1.178-.621.437-.572,1.28-.841,1.9a.589.589,0,0,1-.471.235l.135.067c.033.068.084.152.033.236a.952.952,0,0,0,.4-.319c.05-.673.757-1.008.892-1.666-.116.116-.218-.017-.253-.116.068-.168.286-.116.421-.219a3.082,3.082,0,0,0,.521-1.733m6.763-3.012-.168-.2c-.976-.016-2.12.017-3.028-.016a.42.42,0,0,0-.319.488c.05.051.134.185.218.2.185.051.253-.084.336-.2a.142.142,0,0,0-.168-.134l.084.084a1.03,1.03,0,0,1-.2.185c-.084-.084-.185-.219-.151-.337.1-.084.151-.185.269-.2.135.05.286.017.388.151l2.035-.017a.431.431,0,0,1,.286-.168c.1.067.269.034.32.185-.017.1.05.3-.116.353-.1-.017-.253-.116-.185-.252a.1.1,0,0,0-.067.017c-.1.1,0,.235.1.286.116-.017.253.05.353-.051-.017-.116.1-.235.017-.37m-2.54.3v-.035h-.071Zm1.06-.034c-.033-.05-.1-.017-.116.017.05-.017.116.017.116-.017m-.621,0h.067l-.067-.033ZM266.313,227.5a.757.757,0,0,1-.039-.367c.2-.218-.253-.32-.084-.522.168-.168.3.116.42.219-.033.2-.134.353-.033.538.116-.151-.135-.42.152-.471.3-.033.1.337.135.488a.4.4,0,0,0,.048.112Zm-3.491,0a3.611,3.611,0,0,0,.155-.72c-.152-.219.05-.438-.116-.657,0-.084.116-.134.2-.1a2.5,2.5,0,0,1,.185.606.5.5,0,0,1,.135-.337c.034.017.05.068.084.068.033-.05.084,0,.116.033.033.1-.068.135-.05.218a2.059,2.059,0,0,0-.422.889Zm-1.057,0v-.03c.116-.286-.134-.555.017-.776.135-.1.253.085.269.2.068.084-.051.219.1.219.034-.135-.1-.235.034-.353-.116-.1.05-.185.067-.337.067-.068.2,0,.235.067,0,.016-.017.033-.033.016l.033.051c-.134.32.017.538.034.841-.135.135-.3-.05-.438-.017a.886.886,0,0,0,0,.112Zm-.432,0a.2.2,0,0,1,.147-.216c.112.033.194.172.275.214Zm-2.133,0c-.169-.3-.344-.621-.532-.958l-.114-1.041c0-.168.033-.253.033-.4.235-.388.286-1.008.656-1.195.033-.067.218-.1.353-.135.1-.18.363-.144.548-.209v-2.295a.353.353,0,0,0-.128-.1c-.05-.286.151-.639.084-1.008-.067-.168.116-.388-.033-.521.064-.144-.054-.271.078-.371v-1.426a.817.817,0,0,1-.582-.054.712.712,0,0,1-.151-.69.69.69,0,0,1,.336-.32c.1-.1-.044-.2-.081-.281h.056v-.078h3.2v.078h.138c-.136.217.121.272.267.432a1.125,1.125,0,0,1,.067.623.679.679,0,0,1-.725.287v2.186l.068-.017c.017-.1.067-.269.116-.286.168-.388.639-.42.942-.5.3-.134.185-.538.185-.723-.235-.286-.134-.555-.2-.858.017-.32.353-.454.589-.623l.034.033c.218-.168.454,0,.656-.017.353.168.42.471.521.757.235.555-.673.909-.388,1.43a1.31,1.31,0,0,1,.555.152c.269.017.37.3.538.454.151.033.353-.068.42.033A2.792,2.792,0,0,0,267,219.8v-1.985a.659.659,0,0,1-.68-.238.8.8,0,0,1,.135-.776c.051-.1.235-.033.2-.2a.3.3,0,0,0-.054-.112h.1v-.078h3.2v.078h.043a.256.256,0,0,0-.047.18c.135-.017.218.168.32.235.033.236.116.4,0,.64-.152.269-.438.253-.69.253v1.043c.034.017.05-.017.084-.017a.357.357,0,0,1,.218.3c-.151.2-.084.37-.151.589-.084.319.168.757-.152.993v1.329a1.831,1.831,0,0,1,.152.555c.2.5-.421,1.06-.034,1.513.084.134,0,.336.152.4l.134-.116.05.05c.051.017.051-.05.1-.05.168.033.353-.168.5-.236.116.017.1.236.068.353a.9.9,0,0,0,.353.253c-.067.185-.32.437-.017.555.015.026.078.552-.235.437-.253-.017-.5-.067-.673.152a7.95,7.95,0,0,1-.488,1.008l.005.588h-.5l.074-.384-.068-.051c-.168-.808-.152.3-.5.236,0,.092.093.155.149.2h-.38l-.072-.081c-.05.017-.168-.034-.135.067l.011.014h-.31a2.1,2.1,0,0,0-.24-.233l.033-.067c-.218-.37.034-.758.1-1.094.42-.185,0,.353.42.3a.885.885,0,0,1-.32.42c.017.116-.084.286.068.388a1.269,1.269,0,0,0,.673-.2.73.73,0,0,0,.116-.488c.068-.084,0-.319.2-.3.168.034.084.168.116.271.269-.116.235.253.286.388l.168-.32a.643.643,0,0,1-.05-.555c.1.017.319-.017.269.1a2.17,2.17,0,0,1,.286-.488,1.156,1.156,0,0,1,.69-.135c.034-.151-.2-.185-.286-.286v.067c-.2.135-.454-.017-.621.2a.54.54,0,0,1-.168-.218c-.084.32-.488.421-.639.706l-.185-.185a.263.263,0,0,0,.135-.253c-.084-.116,0-.353-.116-.5.033-.067.068-.269.218-.2a.233.233,0,0,1,.084.135l.1-.084c0-.135-.084-.286,0-.4.084-.151.219,0,.269.084l-.067-.3c-.152-.1-.017-.488-.32-.3l.034.354a.973.973,0,0,1-.488.673c.168.1-.034.185-.1.253-.269.168-.555,0-.774-.152-.42-.218-.219-.707-.555-.925a.216.216,0,0,1-.337-.033c.034-.017.034-.051.034-.1-.084-.017-.152.017-.219-.1a.343.343,0,0,1,.135-.253c-.219-.116-.269.388-.454.1a2.134,2.134,0,0,0,.051.724c.1-.1.168-.236.253-.337.5.017-.05.388.05.572l.135-.252c.05,0,.168-.05.218.05-.116.354.336.74-.084,1.008-.068.116.05.219-.084.286-.05.017-.135.05-.152-.017-.32-.269.32-.438.068-.791-.033.236-.269.185-.353.37a.48.48,0,0,0-.084.354,2.91,2.91,0,0,0-.37,1.363,1,1,0,0,1,.155.414l-.514,0a1.2,1.2,0,0,1,.124-.468c-.116-.37.084-.656.135-.959a2.533,2.533,0,0,0,.168-1.818l-.286.286c-.522.017-.286.706-.74.858.05.488.135.909.218,1.43l.135-.017c.152.135.068.269.168.4-.068.034-.116.1-.185.1-.135-.034-.116-.1-.135-.219l-.142.4h-.562a3.009,3.009,0,0,1-.086-1.241l.068-.135a.691.691,0,0,0-.068.135c-.1.084-.336.522-.438.152a2.42,2.42,0,0,0,.353-.69c.084.017.219.017.219.1.05-.253.219-.572.135-.841-.185.067-.3-.168-.4-.285a.621.621,0,0,0-.572.05,5.3,5.3,0,0,0,.017,1.161,7.659,7.659,0,0,1,.152,1.06c.05.033.168-.1.218.033.034.051.1.135,0,.185-.237-.052-.216.152-.236.316h-.5a.659.659,0,0,1,.26-.233c-.135-.388.051-.841-.151-1.194a.853.853,0,0,1-.034-.455,3.048,3.048,0,0,1,0-.874c-.336-.253-.706-.05-1.009-.034.168.084.116.253.168.37-.017.1-.135.269.017.337.151.168-.084.253-.185.269-.067-.067-.017-.185-.116-.219a.429.429,0,0,1,.017-.4c-.084-.286-.4-.3-.5-.521.017-.135-.151-.219-.252-.286-.135.152-.354.2-.454.3-.2.05-.235.286-.353.42-.219.2-.488-.05-.656.185-.05.017-.151.05-.2-.017-.068-.084.05-.1,0-.2.218-.2.4-.168.673-.168,0-.1.134-.272.168-.37l-.353.253-.337-.017c-.1.034-.05.135-.116.2-.084.1-.185-.034-.253-.067a.72.72,0,0,1,.269-.4c-.1.017-.152.168-.219.116-.084.185-.218.32-.135.5-.05.152.219.253.253.388a1.326,1.326,0,0,1-.723-.067l.152.135c-.286.185.135.286.017.5.1-.05.185.034.252.017.337.151.354.621.354.959.134.152.286-.067.388-.151a.875.875,0,0,1,.168.185c-.017,0-.034.05-.067.033v.1a2.077,2.077,0,0,1,.269.067c.168-.152.1-.354.05-.538.034-.152,0-.488.286-.539.235-.116.068-.37.151-.589a.17.17,0,0,1-.084-.2c.05-.051.1-.1.185-.084.168-.05.084-.2.05-.32-.2.067-.235.3-.32.421-.05-.068-.185.017-.2-.116a.754.754,0,0,1,.3-.5c.134.016.3-.1.4,0l.116.116c-.135.471.353.5.555.841l-.068.05c-.219.152-.219.454-.438.621-.2-.168-.017-.353-.185-.538-.151,0-.05.151-.084.2-.1.151.084.2.185.286a.191.191,0,0,1-.051.135c-.084.135-.235,0-.336-.034l.084.337c.034.034.135.017.116.1-.084.135-.2.253-.319.084a2.084,2.084,0,0,0-.084.421c.085.078.087.133.052.181h-.373a.134.134,0,0,0,.052-.116c-.151.084-.3-.067-.471-.05-.046.078-.161.1-.119.163Z" transform="translate(-247.226 -199.234)" fill="#221f20"/><path d="M273.834,218.7c-.05-.185-.353-.235-.521-.269-.2.034-.522.1-.539.3a.481.481,0,0,0,.286-.067c.218.1.605-.051.74.286.067.135.017.353.116.4.1-.253-.068-.454-.084-.656" transform="translate(-255.847 -200.462)" fill="#eeb210"/><path d="M271.32,224.664c-.068-.152.152-.539-.185-.388,0,.252-.084.471-.084.723a6.072,6.072,0,0,0,.4,2.541c.116.085.3.017.37.152.134-.051.32.152.488.05a2.039,2.039,0,0,1-.555-.522c-.1.017-.2.067-.286-.017.033-.135.05-.2.084-.32.116-.1.253-.168.37-.016.152.286.37.74.79.74a.266.266,0,0,0,.269-.168,7.633,7.633,0,0,1-1.06-1.161,3.039,3.039,0,0,1-.605-1.616" transform="translate(-254.797 -203.984)" fill="#eeb210"/><path d="M273.953,233.309c-.116-.1-.185-.5-.4-.3l.1.185-.757.521c-.4.185-.572-.151-.942-.185-.068.1-.135-.05-.219-.05v.286c.2.218-.068.471,0,.706a1.259,1.259,0,0,1,.825.05c.084-.084.017-.337.185-.354a6.346,6.346,0,0,0,.32.909,1.85,1.85,0,0,0,.218-.673c.084-.067-.05-.152.084-.2.116-.084.219.05.269.116l.269-.236c.134-.05.151-.2.168-.286l-.116-.488" transform="translate(-255.209 -209.264)" fill="#eeb210"/><path d="M272.685,233.559c-.269.05-.42-.152-.689-.168-.034.05-.135.116-.068.185.269-.116.438.051.656.168.235.067.438-.1.673-.253-.218.034-.4.135-.572.068" transform="translate(-255.321 -209.531)" fill="#eeb210"/><path d="M279.172,230.995a.194.194,0,0,1-.068-.168l-.135.185a.947.947,0,0,1,.5.084v-.033a.285.285,0,0,0-.3-.067" transform="translate(-259.604 -207.976)" fill="#ffdf1b"/><path d="M284,236.718a.291.291,0,0,0,.2-.336l-.235.168c0,.05-.084.185.033.168" transform="translate(-262.616 -211.344)" fill="#ffdf1b"/><path d="M287.806,237.386c-.084-.068-.337-.168-.253-.32-.1.1-.253.219-.388.116a.762.762,0,0,0-.336.555l.1-.068c.253,0,.253-.337.521-.269.067.1-.017.168.084.269l.116-.152.152-.134" transform="translate(-264.368 -211.759)" fill="#ffdf1b"/><path d="M278.667,238c.084-.024,0-.083-.043-.126a.08.08,0,0,0-.008-.042c-.014.009-.007.024.008.042,0,.052-.039.1.043.126" transform="translate(-259.385 -212.225)" fill="#ffdf1b"/><path d="M283.129,237.9c-.185-.051-.337.067-.488.033l.05.051c.084.017.2.151.286.017l.033.034c.033-.034.1-.084.116-.134" transform="translate(-261.829 -212.257)" fill="#ffdf1b"/><path d="M285.464,238.736a.646.646,0,0,0,.253-.3.631.631,0,0,0-.253.3" transform="translate(-263.541 -212.588)" fill="#ffdf1b"/><path d="M284.67,243.07l-.067-.051c-.168-.808-.152.3-.5.236,0,.116.152.185.185.236.084-.017.185.083.286.1l.1-.522" transform="translate(-262.713 -215.189)" fill="#ffdf1b"/><path d="M283.532,244.844l-.42-.471c-.05.017-.168-.034-.135.067l.4.488c.134.32.218.639.555.808a.97.97,0,0,0,.218-.657l-.32-.185a.17.17,0,0,1-.185.085c-.067.016-.1-.085-.116-.135" transform="translate(-262.029 -216.189)" fill="#ffdf1b"/><path d="M277.663,245.519a.8.8,0,0,1-.538-.42c.05.152-.05.253-.05.37.05.116-.017.337-.017.454l.034.051a1.876,1.876,0,0,0-.1.807c.2-.134.438.236.606-.033l-.32-.219c-.235-.4.37-.606.388-1.008" transform="translate(-258.398 -216.629)" fill="#ffdf1b"/><path d="M281.216,247.16c.034-.185-.168-.353-.2-.521,0,.42-.017.773.017,1.177l.354.051c.05-.236-.116-.488-.168-.707" transform="translate(-260.841 -217.563)" fill="#e7e8e8"/><path d="M267.194,225.076c-.05-.152.084-.337-.017-.488-.319.269-.235.572-.253.925-.454.252-.42.824-.572,1.178-.621.437-.572,1.28-.841,1.9a.589.589,0,0,1-.471.235l.135.067c.033.068.084.152.033.236a.952.952,0,0,0,.4-.319c.05-.673.757-1.008.892-1.666-.116.116-.218-.017-.253-.116.068-.168.286-.116.421-.219a3.082,3.082,0,0,0,.521-1.733" transform="translate(-251.159 -204.193)" fill="#fff9d1"/><path d="M273.757,219.926c-.152-.185-.37-.168-.621-.168-.1.033-.084.116-.034.168.353-.116.168.253.253.42.168-.017.4.471.538.067l-.116-.286-.269.05c-.151-.033-.067-.168-.033-.253.084.05.185-.017.235-.017.051.034-.05.116.051.135v-.116" transform="translate(-256.022 -201.265)" fill="#fff9d1"/><path d="M273.25,223.323c-.235.034-.471.134-.689-.017-.034.135-.253.168-.219.3a1.943,1.943,0,0,0,.555.116c0-.1-.116-.219.017-.3a.51.51,0,0,1,.2.05c-.034.1.134.2.017.3-.067.084-.2.084-.2,0l-.084.168a2.388,2.388,0,0,1-.488-.068,8.43,8.43,0,0,0,.151.858c.235.05.116.286.152.388l.05-.033c.1.1.2-.067.32-.067.017-.2.1-.37-.017-.538.034-.068.1-.185.2-.152a.886.886,0,0,1,.1.589c.084.337-.32.388-.522.42a1.8,1.8,0,0,0,.419.523c.017-.116.135-.3.033-.454a.233.233,0,0,1,.2-.116c.3.3-.151.673.084.942l.017-.1c.116-.135.218-.32.388-.116a1.716,1.716,0,0,0,0-.589c-.033-.286-.42-.084-.471-.337.068-.218.388-.05.5-.05-.185-.051.033-.168.05-.253.388.116-.017-.5.42-.437l-.017-.2c-.068-.151-.218-.4-.454-.42l-.05.185a1.03,1.03,0,0,1-.555.033c-.05-.319.336-.134.488-.269-.2-.116-.589,0-.606-.353" transform="translate(-255.584 -203.416)" fill="#fff9d1"/><path d="M277.306,226.3h-.05c.033.319-.185.538-.337.776a.957.957,0,0,1,.1.555c-.2.269.084.521.236.723.605-.2.05-.74.084-1.127-.253-.32.152-.572-.033-.925" transform="translate(-258.361 -205.232)" fill="#fff9d1"/><path d="M276.121,230.485c-.218,0-.084.236-.185.336a2.088,2.088,0,0,0,.286.269l-.034-.421c.017-.1-.151-.084-.067-.185" transform="translate(-257.764 -207.769)" fill="#fff9d1"/><path d="M275.9,238.157a2.533,2.533,0,0,0,.168-1.818l-.286.286c-.522.017-.286.706-.74.858.05.488.135.909.218,1.43l.135-.017c.152.135.067.269.168.4-.068.034-.116.1-.185.1-.135-.034-.116-.1-.135-.219l-.168.471c-.252.623.388,1.161.168,1.784-.033.116-.067.286.084.37l-.185.185c-.068.252.253.084.32.151.152.051.152.337.336.185-.151-.1.034-.2.051-.286-.589-.3-.253-.992-.219-1.463.1-.522-.116-.959.135-1.464-.116-.37.084-.656.135-.959" transform="translate(-257.206 -211.318)" fill="#fff9d1"/><path d="M271.764,240.7c.247-.543-.213-1.225-.017-1.75l.068-.135a.694.694,0,0,0-.068.135c-.1.084-.336.522-.438.152a2.421,2.421,0,0,0,.353-.69c.084.017.219.017.219.1.05-.253.219-.572.135-.841-.185.067-.3-.168-.4-.285a.621.621,0,0,0-.572.05,5.3,5.3,0,0,0,.017,1.161,7.659,7.659,0,0,1,.152,1.06c.05.033.168-.1.218.033.034.051.1.135,0,.185-.3-.067-.185.286-.269.438-.068.673.589,1.3.185,2-.236.235-.621.218-.79.471.116,0,.168-.135.253-.185.084-.034.134.116.168.2-.068,0-.084.067-.1.116a4.707,4.707,0,0,0,.942-.42l-.134-.152c.116-.116.05-.3.067-.4-.168-.37.067-.858.017-1.245" transform="translate(-254.501 -211.921)" fill="#fff9d1"/><path d="M261.84,235.121c-.185-.116-.421.051-.656,0-.218.168-.538.168-.757.37.017.1.185.152.134.286a2.165,2.165,0,0,0,.3-.269c.219.05.354-.236.539-.152.116.1,0,.2-.068.272l-.034-.017-.068.084.253.017c.269-.1.151-.42.353-.589" transform="translate(-248.362 -210.554)" fill="#ffdf1b"/><path d="M259.885,236.885c-.151-.068-.135.235-.185.3a.354.354,0,0,0,.185-.3" transform="translate(-247.921 -211.643)" fill="#ffdf1b"/><path d="M260.415,237.834c-.084.05-.2.05-.168.168.034.067.1.067.135.084.033-.084-.034-.168.033-.253" transform="translate(-248.249 -212.224)" fill="#ffdf1b"/><path d="M263.264,244.208c-.151.084-.3-.067-.471-.05-.05.084-.185.1-.1.185.068.1.2.084.3.084.116-.017.286-.116.269-.219" transform="translate(-249.719 -216.058)" fill="#ffdf1b"/><path d="M271.465,245.586a4.094,4.094,0,0,1-.1-.572.469.469,0,0,0,.1.572" transform="translate(-254.959 -216.577)" fill="#ffdf1b"/><path d="M263.846,246.122a.314.314,0,0,0-.235-.169c-.5.589.42.724.218,1.313.067,0,.253.2.3.033a.161.161,0,0,1,.168.051c.051-.084-.017-.2.051-.286.116-.116-.185-.236-.219-.3-.05.152-.134-.017-.2.05-.252-.05.05-.185-.017-.319l-.116.033a.4.4,0,0,1-.116-.2.237.237,0,0,0,.168-.2" transform="translate(-250.199 -217.146)" fill="#ffdf1b"/><path d="M274.3,246.537c.033-.116.2-.253.017-.37.034.135-.05.236-.017.37" transform="translate(-256.768 -217.276)" fill="#ffdf1b"/><path d="M266.826,248.169a3.8,3.8,0,0,1-.42-.976l-.034.051c-.116.151-.151.319.05.437a.136.136,0,0,1-.033.219c-.185-.033-.135.253-.152.37.051.235.286.034.454.1.084-.033.185-.084.134-.2" transform="translate(-251.885 -217.899)" fill="#ffdf1b"/><path d="M274.426,248.529c.209-.258-.261-.192-.272-.437l-.016.37c.084,0,.185.116.286.067" transform="translate(-256.675 -218.443)" fill="#ffdf1b"/><path d="M266.028,239.347c-.017-.236-.168-.084-.3-.034.116.084.168,0,.3.034" transform="translate(-251.574 -213.064)" fill="#ffdf1b"/><path d="M274.393,241.012l-.05-.1c-.05.388-.253.757-.068,1.127l-.033.034c.05.067.068.219.116.219a2.723,2.723,0,0,0,.033-1.28" transform="translate(-256.711 -214.09)" fill="#ffdf1b"/><path d="M256.322,205.077s2.243-1.535,7.32-1.535a17.683,17.683,0,0,1,7.851,1.506l-15.171.029" transform="translate(-245.873 -191.434)" fill="#e52428"/><path d="M271.542,196.586c.307-.071.649.083.909.047.083.059.189-.012.272.024-.035.083-.141.012-.212.059-.3.047-.461.331-.567.567a.9.9,0,0,0,.13.708l.3.272c-.52-.071-1.193-.047-1.735-.13-.685.047-1.405.012-2.031.059-.035-.083-.059.024-.106.012a5.91,5.91,0,0,0-1.3.116c.059-.13.236-.2.319-.355a.934.934,0,0,0,.071-.685.808.808,0,0,0-.732-.543l-.012-.035a5.577,5.577,0,0,0,.85-.106l.024.035c.035-.083.095.035.13-.047.413,0,.768-.047,1.193-.059.815.023,1.7-.047,2.5.059m-.183.637c-.519-.212-1.1-.427-1.653-.637-.225.116-.472.165-.685.3l-.024-.024a7.71,7.71,0,0,1-.885.366c-.024.071-.116.095-.071.2a9.983,9.983,0,0,0,1.1.472c.225.047.449.224.673.177.507-.26,1.1-.388,1.559-.649.059-.059.012-.142-.012-.2" transform="translate(-252.251 -187.178)" fill="#f3ce1d"/><path d="M255.168,173.644a1.993,1.993,0,0,1,.012.839c.095.189.388.071.555.13a1.134,1.134,0,0,1,1.05.839,2.716,2.716,0,0,1-.177,1.157,5.131,5.131,0,0,1-.957,1.806.142.142,0,0,0-.142.095c-.047.555-.165,1.04.26,1.441a1.294,1.294,0,0,0,1.251-.189c.225-.13.366-.388.555-.519a.6.6,0,0,0,.354.059c.189.5.507,1.145,1.086,1.311a2.361,2.361,0,0,0,.5.035c.024.035.047.035.071.011.024-.047.083,0,.116,0a1.868,1.868,0,0,0,1.086-.614c.177-.116.272-.33.508-.165l.035-.024c.035.1.236-.023.2.13.095.225.177.472.307.72a1.4,1.4,0,0,0,1.358.791.357.357,0,0,1,.189-.059,3.461,3.461,0,0,0,1.2-.78c.095-.011.2.083.307.071a2.116,2.116,0,0,0,.507,1.474c.047-.035.071.095.142.071.13.106.295.023.437.083a1.7,1.7,0,0,0,1.2-.721c.095.035.177.155.248.213a3.264,3.264,0,0,1-1.9,1.311c-.142-.106-.449-.071-.543-.26-.059-.023-.116-.13-.177-.2a5.994,5.994,0,0,1-.4-.931.183.183,0,0,0-.236-.059,2.082,2.082,0,0,1-1.263.555c-.106-.023-.284-.012-.366-.071-.047.035-.095-.024-.142-.047-.059.095-.059-.035-.13-.024-.059-.036-.165.024-.2-.071a.97.97,0,0,1-.578-.543,2.3,2.3,0,0,1-.355-.791.194.194,0,0,0-.236-.012,1.991,1.991,0,0,1-.921.768c-.472.26-.921-.024-1.346-.035a1.245,1.245,0,0,1-.72-.945c-.024-.023-.071-.059-.035-.083-.035-.106-.012-.283-.177-.294-.224.047-.236.33-.342.5a1.433,1.433,0,0,1-1.169.637c-.637.035-.992-.543-1.241-1.063-.024-.083,0-.116-.035-.2-.071-.071-.155-.213-.26-.116l-.095.106.024.012c-.2.555-.5,1.252-1.228,1.276-.047-.035-.083.047-.106-.012a.886.886,0,0,1-.46-.059,1.469,1.469,0,0,1-.815-.886c-.047-.083-.177-.213-.284-.116-.035.059-.142.155-.071.236a1.374,1.374,0,0,1-.815,1.086,1.976,1.976,0,0,1-1.724-.178,4.181,4.181,0,0,1-.555-.567.194.194,0,0,0-.236.13,1.745,1.745,0,0,1-.956,1.346,1.905,1.905,0,0,1-1.441-.024c-.012-.071-.106-.023-.142-.071-.236-.059-.4-.461-.649-.248-.213.519-.342,1.241-.98,1.405l-.024-.035a.9.9,0,0,1-.354,0,3.534,3.534,0,0,1-1.653-1.228c.011-.106.165-.155.2-.225.13.189.378.307.543.5.106,0,.2.116.318.141a1.206,1.206,0,0,0,1.027-.141,1.884,1.884,0,0,0,.388-1.228c.024-.059.012-.13.035-.213l.307-.083a2.1,2.1,0,0,0,1.842.791c.673-.142,1.015-.921,1.181-1.513.047-.116.189-.071.307-.095.213-.259.319.095.472.177a.669.669,0,0,0,.284.225,1.419,1.419,0,0,0,1.216.33.223.223,0,0,0,.212-.059,1.251,1.251,0,0,0,.756-.52l-.024-.011c.141-.142.141-.248.247-.4.106-.119.071-.5.342-.378a.31.31,0,0,1,.177-.024,1.748,1.748,0,0,0,1.688.709,1.338,1.338,0,0,0,.342-1.464,4.6,4.6,0,0,1-1.027-1.606,1.743,1.743,0,0,1-.141-.343,3.468,3.468,0,0,1-.165-.886c.071-.082,0-.224.047-.307a.978.978,0,0,1,.756-.732,2.224,2.224,0,0,1,.673-.083c.236-.165.071-.427.071-.626h-.035a1.582,1.582,0,0,0,.106-.307.811.811,0,0,1,.721-.13c.059.035.116.119.2.106m-1.063,1.513c-.106-.2-.388-.177-.531-.2a.74.74,0,0,0-.614.507c.023.083-.059.178-.024.237l-.024.035a2.766,2.766,0,0,0,.342,1.417c.047.236.319.473.461.673.094.047.177.225.283.165s.106-.142.13-.236c-.011-.377-.024-.768-.035-1.074.024-.5,0-.957.011-1.523m2.208,0a.877.877,0,0,0-.9-.141c-.142.035-.071.189-.106.283l.012.72c.012.437-.024,1.016.024,1.429a.853.853,0,0,0,.024.484c.047.059.083.035.165.035a1.937,1.937,0,0,0,.732-1.015,1.36,1.36,0,0,0,.2-.72c.116-.107-.059-.248.059-.355a1.225,1.225,0,0,0-.213-.72m-1.287.591c-.106-.106-.189-.26-.354-.237a.706.706,0,0,0-.342.685,5.339,5.339,0,0,0,0,1.889c.095.059.059.2.071.237.059.116.142.284.3.272a.31.31,0,0,0,.272-.106,4.527,4.527,0,0,0,.059-2.74" transform="translate(-237.247 -173.223)" fill="#f3ce1d"/><path d="M229.783,205.284h35.006l-17.507,41.005Zm8.177,4.521,9.442,22.772,9.439-22.772Z" transform="translate(-229.783 -192.49)" fill="#221f20" fill-rule="evenodd"/><path d="M273.914,246.24l-.162-11.86,10.295-24.249H273.768v-3.615h16.764Z" transform="translate(-256.44 -193.236)" fill="#006bb6"/><path d="M248.85,206.514v3.615H238.571l9.91,23.836,0,12.259-16.8-39.71Z" transform="translate(-230.932 -193.236)" fill="#faea26"/><path d="M281.57,198.1c-.106-.259-.284-.307-.543-.342a.455.455,0,0,0-.378.272.513.513,0,0,0,0,.437c.024.155.213.237.33.26.059-.035.095.13.142.012.106.047.225-.083.319-.116a.617.617,0,0,0,.13-.52" transform="translate(-260.592 -187.93)" fill="#e52428"/><path d="M266.434,198.191c-.106-.048-.142-.236-.283-.272a.533.533,0,0,0-.614.177.714.714,0,0,0-.035.52c.035.083.142.141.225.212a.525.525,0,0,0,.461-.012c.116-.095.259-.2.272-.355a.688.688,0,0,1-.024-.272" transform="translate(-251.418 -188.004)" fill="#e52428"/><path d="M294.9,200.611a.588.588,0,0,0-.659-.095.6.6,0,0,0-.177.638c.13.272.366.284.614.284a.7.7,0,0,0,.342-.366.712.712,0,0,0-.116-.461" transform="translate(-268.734 -189.563)" fill="#e52428"/><path d="M253.021,200.99c-.083-.177-.248-.177-.378-.26-.047.059-.106-.024-.177.012-.106.116-.212.035-.283.2a.616.616,0,0,0-.071.5.528.528,0,0,0,.472.318c.13-.059.284-.035.378-.177a.627.627,0,0,0,.059-.59" transform="translate(-243.306 -189.729)" fill="#e52428"/><path d="M249.494,174.722c-.011.567.012,1.027-.011,1.523.011.307.024.7.035,1.074-.024.095-.024.189-.13.236s-.189-.116-.283-.165c-.142-.2-.413-.437-.461-.673a2.766,2.766,0,0,1-.342-1.417l.024-.035c-.035-.059.047-.155.024-.237a.74.74,0,0,1,.614-.507c.142.024.427,0,.531.2m-.319.106c-.165,0-.366-.024-.472.155a2.163,2.163,0,0,0,.035,1.252,2.082,2.082,0,0,0,.46.756,2.931,2.931,0,0,0-.024-.461,16.325,16.325,0,0,0,0-1.7m2.527-.106a1.225,1.225,0,0,1,.213.72c-.116.107.059.248-.059.355a1.36,1.36,0,0,1-.2.72,1.937,1.937,0,0,1-.732,1.015c-.083,0-.116.024-.165-.035a.853.853,0,0,1-.024-.484c-.047-.413-.012-.992-.024-1.429l-.012-.72c.035-.095-.035-.247.106-.283a.877.877,0,0,1,.9.141m-.2.236c-.116-.177-.295-.142-.484-.116,0,.72,0,1.405.047,2.125a2.25,2.25,0,0,0,.437-2.007m-1.216,1.583a3.727,3.727,0,0,0-.165-1.086l-.071.142a4.359,4.359,0,0,0,.083,2.208,3.834,3.834,0,0,0,.155-1.086c.047-.047-.035-.141,0-.177m.13-1.228a4.527,4.527,0,0,1-.059,2.74.31.31,0,0,1-.272.106c-.155.012-.236-.153-.3-.272-.012-.035.024-.177-.071-.237a5.34,5.34,0,0,1,0-1.889.707.707,0,0,1,.342-.685c.165-.023.248.13.354.237m.762,7.641c-.355-.155-.721-.3-1.086-.413a11.113,11.113,0,0,1-1.039.413,2.65,2.65,0,0,1,.5.224c.155.024.331.116.484.142.165.116.342-.1.5-.1a5.113,5.113,0,0,1,.65-.271m.567-.119c.024.059.071.142.012.2-.46.259-1.051.388-1.559.649-.225.047-.449-.13-.673-.177a9.993,9.993,0,0,1-1.1-.472c-.047-.107.047-.13.071-.2a7.714,7.714,0,0,0,.886-.366l.024.024c.212-.13.46-.177.685-.3.555.213,1.133.427,1.653.637m-1.435-9.989a.54.54,0,0,1,.484.272,1.492,1.492,0,0,1,.106.721l.071.059.024-.023a1.548,1.548,0,0,1,1.393.827,2.416,2.416,0,0,1,.035,1.121c-.083.047.012.107-.035.155a5.245,5.245,0,0,1-1.2,2.291,1.481,1.481,0,0,0,.153,1.016,1.294,1.294,0,0,0,1.3-.615c-.116-.212-.355-.437-.284-.72a.417.417,0,0,1,.035-.307.9.9,0,0,1,.659-.6.957.957,0,0,1,.98.427,1.1,1.1,0,0,0,.083.177.981.981,0,0,1-.13.838c-.071.2-.531.225-.283.5a1.332,1.332,0,0,0,.886.921c.012,0,0,.047.035.035.116-.024.247.047.366,0a1.427,1.427,0,0,0,.886-.448,1.505,1.505,0,0,1-1.393-.815c-.024-.153-.165-.342-.095-.543l-.047-.035a2.325,2.325,0,0,1,.4-1.417c.155-.177.366-.116.567-.106l.035.035a.249.249,0,0,1,.212.059c.2.106.342.165.531.272-.035-.248-.071-.543-.083-.791a.4.4,0,0,1,.024-.307c-.059-.059,0-.153,0-.225a1.028,1.028,0,0,1,.661-.779l.2-.024H257a3.762,3.762,0,0,1,1.3.272l.047.071a.071.071,0,0,0,.012-.047,1.207,1.207,0,0,1,.614.661c-.059.047.035.094.024.141a2.454,2.454,0,0,1-.637,1.476l.024.047a3.24,3.24,0,0,1,.827.012.662.662,0,0,1,.283.189l.059.047c-.035.071.116.141.024.236.142.307-.083.543-.071.874-.2.555-.59,1.169-1.263,1.192a1.961,1.961,0,0,1-.827-.141c-.059.095.047.165.047.248a1.574,1.574,0,0,0,.7.661c.614.165,1.157-.308,1.546-.709-.083-.2-.2-.388-.26-.567a1.134,1.134,0,0,1,.3-.767,1.1,1.1,0,0,1,.378-.213l.024.024a.92.92,0,0,1,.756.083,1.008,1.008,0,0,1,.388.709.848.848,0,0,1-.272.708c-.116.142-.342.155-.437.307.083.461.083.97.437,1.241.354.189.744-.035,1.039-.225l.116-.155a3.36,3.36,0,0,0-.5-.047,1,1,0,0,1-.449-.284,1.888,1.888,0,0,1,.26-1.5,1.028,1.028,0,0,1,.827-.427c.024.047.059.047.095.012.024,0,.035.035.059.047.083-.047.213.071.319.071.13-.178.165-.413.307-.543a1.446,1.446,0,0,1,.543-.449,2.357,2.357,0,0,1,1.605.012c.083.024.225.035.236.13.095-.048.155.047.26.083.177.307-.272.213-.4.366a5.392,5.392,0,0,0-1.228,1.417c.035.283.26.5.116.791a.9.9,0,0,1-.756.638c-.095.047-.248-.012-.33,0a4,4,0,0,1-1.784,1.417.8.8,0,0,1,.225.708.71.71,0,0,1-.6.488,7.266,7.266,0,0,1,.247,1.122c-.187.119-.5.422-.747.6,0,0-5.282-.147-4.7-.175.012-.106-.083-.012-.116-.035-.012-.023.012-.023.012-.035a.2.2,0,0,1-.142-.012c-.259-.047-.626-.13-.886-.153a7.807,7.807,0,0,0-1.039-.155.935.935,0,0,0-.307-.035,2.506,2.506,0,0,0-.8-.083,20.692,20.692,0,0,0-4.758.024c-.059.023-.116-.047-.155.023-.342-.011-.72.119-1.063.1v.024c-.7.142-1.4.236-2.042.413a.51.51,0,0,1,.053.013.876.876,0,0,0,.092-.005c.033-.005.029,0,0,0-.03.024-.056.016-.092.005-.69.029-4.233.052-4.711.048l-.029.021a.065.065,0,0,1-.059-.024l.088,0c-.194-.251-.856-.2-.678-.652l.224-.839c-.155-.071-.33-.071-.427-.236-.116-.035-.142-.177-.2-.272a.782.782,0,0,1,.213-.7,4.429,4.429,0,0,1-1.771-1.393c-.142,0-.26-.035-.427-.024a.943.943,0,0,1-.7-.661,1.377,1.377,0,0,1,.116-.779,4.792,4.792,0,0,0-1.476-1.523l-.141-.012c.047-.13-.142.012-.035-.095a.2.2,0,0,1-.039-.015s.054.005.039-.044c.083-.141.259-.071.354-.2.095-.035.142.024.189-.071l.142-.012a1.137,1.137,0,0,1,.318-.106c.213-.071.378.011.626-.036.012.059.116,0,.155.071.059-.035.142-.012.236.012a1.534,1.534,0,0,1,.909,1.015c.272-.071.659-.225.97-.024a1.857,1.857,0,0,1,.72,1.406c-.059.177-.035.388-.213.531-.225.236-.543.142-.815.2a1.081,1.081,0,0,0,.886.437.629.629,0,0,0,.5-.331,3.43,3.43,0,0,0,.165-1.05.952.952,0,0,1-.673-.709,1.081,1.081,0,0,1,.177-.756.975.975,0,0,1,.991-.3.939.939,0,0,1,.614.614c.012.165.095.437-.059.591a.854.854,0,0,1-.165.307,2.111,2.111,0,0,0,1.241.744,1.058,1.058,0,0,0,.91-.543,3.923,3.923,0,0,1,.2-.378l-.035-.047a1.457,1.457,0,0,1-1.441-.024,2.5,2.5,0,0,1-.8-1.748l.047-.059a.37.37,0,0,1,.142-.4c.26-.225.5-.165.779-.165.106-.095.189.071.307-.024a3.814,3.814,0,0,1-.555-.862l.024-.035c-.13-.116-.083-.3-.142-.449a.97.97,0,0,1,.567-.921c.165-.116.4-.094.6-.213a1.478,1.478,0,0,1,1.594.213.991.991,0,0,1,.189.5,3.556,3.556,0,0,1-.035,1.275l.035.024a2.254,2.254,0,0,1,.931-.437c.035.082.083-.024.116.012.6.213.614,1.015.659,1.582a1.346,1.346,0,0,1-.578,1.11,1.677,1.677,0,0,1-.9.236v.071a1.638,1.638,0,0,0,.767.388,1.527,1.527,0,0,0,.659-.059,2.179,2.179,0,0,0,.484-.449,2.056,2.056,0,0,0,.295-.661,1.167,1.167,0,0,1-.531-.732.957.957,0,0,1,.448-.921,1.452,1.452,0,0,1,.567-.106.994.994,0,0,1,.756.578,1.018,1.018,0,0,1-.26,1.051,1.37,1.37,0,0,0,1.252.626c.318-.248.272-.7.213-1.063a4.7,4.7,0,0,1-.461-.543l.024-.012a3.748,3.748,0,0,1-.673-1.287,2.29,2.29,0,0,1-.012-1.889c.024-.024.059-.059.024-.083a1.246,1.246,0,0,1,.7-.427c.142-.1.331-.059.5-.142.059.011.142.047.142-.047.012-.024-.024-.024-.024-.035.116-.119.011-.26.024-.355-.036-.224.224-.427.272-.519.141-.035.259-.155.437-.107.083,0,.225-.071.3.024m-9.8,11.821a4.926,4.926,0,0,0-.8-.366,7.014,7.014,0,0,0-.26.944c.26.165.508.189.72.355.059-.024.095.083.116-.012.047-.318.189-.614.225-.92m20.189-.308-.035-.2c-.272.012-.555.284-.85.366.142.319.142.614.272.945.225-.083.448-.225.673-.3a.241.241,0,0,0,.155-.095.142.142,0,0,0-.035-.116,6.124,6.124,0,0,0-.177-.6m-11.027-.259a2.026,2.026,0,0,1-.378-.012c-.992.106-1.912.116-2.857.307-.295,0-.626.107-.9.116-.65.142-1.275.284-1.96.449a1.811,1.811,0,0,1-.437.106c-.437.177-.827.224-1.287.427-.071.011-.2.071-.272.047a1.28,1.28,0,0,1-.52.2l.012.047.591-.035.035.035c.448-.059.909.035,1.358-.035a.856.856,0,0,1,.283-.047,24.832,24.832,0,0,1,3.625-.767,5.922,5.922,0,0,1,1.287-.106,8.17,8.17,0,0,1,1.724-.095l.024-.023a6.161,6.161,0,0,0,.659.011c.508-.024.909.024,1.405.035.059.012.165.059.224.024a23.544,23.544,0,0,1,2.81.378,7.934,7.934,0,0,1,1.323.295.822.822,0,0,1,.33.059,3.25,3.25,0,0,0,1.1.153c.378-.023.626,0,.992-.023.059-.024.2.011.272-.012l.024.024c.035-.035.155.012.142-.047a1,1,0,0,0-.3-.083c-.531-.248-1.074-.307-1.594-.5a8.893,8.893,0,0,1-1.11-.3v.024a16.846,16.846,0,0,0-2.327-.4v-.023c-.567-.083-1.18-.116-1.806-.178-.059.035-.13-.106-.189-.012a21.707,21.707,0,0,0-2.291-.047m-7.32-.047c-.083-.177-.248-.177-.378-.26-.047.059-.106-.024-.177.012-.106.116-.212.035-.283.2a.616.616,0,0,0-.071.5.528.528,0,0,0,.472.318c.13-.059.284-.035.378-.177a.627.627,0,0,0,.059-.59m16.446-.213a.588.588,0,0,0-.659-.095.6.6,0,0,0-.177.638c.13.272.366.284.614.284a.7.7,0,0,0,.342-.366.712.712,0,0,0-.116-.461m-17.379-.236a5.277,5.277,0,0,1-.626.189c-.2.142-.508.153-.708.307.259.189.685.165.8.507-.059.319-.213.673-.26.98a8.155,8.155,0,0,1,.97-.366c.071-.059.177,0,.189-.106a.834.834,0,0,1-.366-1.513m17.934,0c-.165-.047-.354-.083-.507-.142a1.054,1.054,0,0,1,.342.342c.047.2.142.531-.035.744a.8.8,0,0,1-.673.46c.342.083.7.213,1.015.319.047.011.155.106.236.071l-.035-.012c-.047-.3-.189-.65-.26-.945.083-.224.343-.224.508-.354a2.061,2.061,0,0,0,.283-.116c.024-.059-.071-.047-.082-.107-.236.024-.449-.177-.659-.2-.048-.059-.13-.012-.13-.059m-13.967-.012a.388.388,0,0,0-.437-.224c-.508.116-1.086.212-1.594.295a.315.315,0,0,0-.177.283c-.012.1-.012.284.142.343a5.274,5.274,0,0,0,1.074-.13c.388-.165,1.027.035.992-.567m10.98-.047-.413-.071c-.484.012-.944-.331-1.4-.083-.083.047-.071.225-.071.331.047.095.142.224.26.224.3.107.661.071.992.178a1.943,1.943,0,0,0,.862.035c.116-.059.13-.272.095-.366-.012-.189-.189-.213-.319-.248m-8.714-.567c-.106-.048-.142-.236-.283-.272a.533.533,0,0,0-.614.177.714.714,0,0,0-.035.52c.035.083.142.141.225.212a.525.525,0,0,0,.461-.012c.116-.095.26-.2.272-.354a.687.687,0,0,1-.024-.272m5.962-.012c-.106-.259-.284-.307-.543-.342a.455.455,0,0,0-.378.272.514.514,0,0,0,0,.437c.024.155.213.237.33.26.059-.035.095.13.142.012.106.047.225-.083.319-.116a.617.617,0,0,0,.13-.52m-6.659-.614c-.756.024-1.57.283-2.337.378-.142.024-.272.116-.437.083-.72.225-1.606.388-2.338.649.13.047.377-.024.531.142.189.095.272.319.355.449a1.091,1.091,0,0,1-.248.886c.116,0,.26-.13.413-.106.224-.095.427-.083.673-.189a.681.681,0,0,1-.659-.319.69.69,0,0,1-.012-.659.779.779,0,0,1,.673-.354c.035,0,.165-.071.225-.035l.047-.035a4.115,4.115,0,0,1,1.5-.142.752.752,0,0,1,.4.52.812.812,0,0,1-.247.578,7.5,7.5,0,0,0,.9-.153,1.439,1.439,0,0,0,.567-.083c-.236-.012-.377-.213-.5-.342a.838.838,0,0,1-.059-.779.925.925,0,0,1,.555-.484m.047-.012.083.012v-.024Zm6.872.048a2.74,2.74,0,0,0-.5-.071,1.049,1.049,0,0,0,.165.035l-.012.024.284.248a.944.944,0,0,1,.082.85.9.9,0,0,1-.578.461c.284.059.6.035.931.116a1.48,1.48,0,0,1-.13-.567.8.8,0,0,1,.472-.508c.059.012.177-.024.272-.024.071.035.2.024.26.071.378.035.8.141,1.2.177a1.051,1.051,0,0,1,.531.212.729.729,0,0,1,.155.7.6.6,0,0,1-.354.366,1.26,1.26,0,0,0,.437.142c.142-.035.236.142.355.059.142.119.272.071.437.142-.012-.047-.106-.035-.083-.106-.142-.012-.059-.189-.177-.248a.864.864,0,0,1,.212-.886.769.769,0,0,1,.567-.236v-.023c-.388-.1-.744-.237-1.122-.308-.427-.083-.732-.189-1.122-.248-.13-.059-.3-.035-.427-.082a12.454,12.454,0,0,0-1.865-.295m-1.948-.189c-.8-.106-1.688-.035-2.5-.059-.427.011-.779.059-1.193.059-.035.083-.094-.035-.13.047l-.024-.035a5.574,5.574,0,0,1-.85.106l.012.035a.808.808,0,0,1,.732.543.934.934,0,0,1-.071.685c-.083.155-.26.225-.319.355a5.909,5.909,0,0,1,1.3-.116c.047.012.071-.095.106-.012.626-.047,1.346-.012,2.031-.059.543.083,1.216.059,1.735.13l-.3-.272a.9.9,0,0,1-.13-.708c.106-.236.272-.52.567-.567.071-.047.177.024.212-.059-.083-.035-.189.035-.272-.024-.26.035-.6-.116-.909-.047m-10.508-.035a4.8,4.8,0,0,1-.708-.331,3.244,3.244,0,0,1-.272.661,7.948,7.948,0,0,0,.98-.331m18.171-.461c-.225.1-.484.272-.673.342.13.116.331.059.472.155a.944.944,0,0,0,.472.13,6.21,6.21,0,0,1-.272-.626m-9.067-.59c-.177-.047-.342.024-.519-.035a2.791,2.791,0,0,1-.7.023c-.236.083-.437,0-.661.071a28.411,28.411,0,0,0-3.695.437c-.083-.036-.13.106-.189.024-.272.095-.543.106-.791.213l-.036-.024c-.448.083-.909.237-1.381.342-.095.083-.271.047-.388.142a21.578,21.578,0,0,0-3.01,1.027.823.823,0,0,0-.13.272.454.454,0,0,0,.342.4c.732-.272,1.629-.6,2.432-.874.248-.094.531-.141.768-.224.484-.13,1.039-.284,1.559-.378l.047-.047.024.035a24.882,24.882,0,0,1,6.081-.7c.071.047.153-.035.212.012a1.453,1.453,0,0,1,.213-.023l.024.023c.024,0,.035-.023.047-.023a25.407,25.407,0,0,1,2.987.224,1,1,0,0,1,.272.024c.116.011.248.035.355.035a36.535,36.535,0,0,1,3.825.815c.578.13,1.145.4,1.712.543.13.106.377.116.507.224.189.012.366.142.555.155a.412.412,0,0,0,.272-.177c.116-.165.012-.319-.071-.46-.437-.178-.815-.319-1.241-.484a5.907,5.907,0,0,1-1.063-.355l-.012.047c-.059-.083-.177-.024-.236-.095a6.424,6.424,0,0,1-.85-.26c-.082.048-.247-.024-.318-.071-.083-.024-.2.011-.26-.071-.165.059-.307-.094-.472-.071-.083,0-.095-.095-.165-.023-.9-.284-1.877-.319-2.822-.52l-.059.035c-.555-.083-.98-.13-1.571-.189a5.567,5.567,0,0,1-.791-.035c-.26.083-.543-.071-.8.012m-5.891.225a2.741,2.741,0,0,1-.7-.484,4.86,4.86,0,0,1-.377.744c.284-.071.578-.107.838-.189.059-.023.2-.011.236-.071m12.1.153c-.155-.236-.26-.484-.4-.72a3.32,3.32,0,0,1-.709.5l.059.047.035-.035c.3.094.638.106,1.016.212m-8.969-.59a4.209,4.209,0,0,1-.519-.508,1.839,1.839,0,0,1-.331.591c.2.012.388-.035.567-.012.071-.047.213-.035.284-.071m5.6.012a2.552,2.552,0,0,1-.331-.555,2.771,2.771,0,0,1-.495.5,2.735,2.735,0,0,0,.827.083Zm-15.891-.427a.652.652,0,0,0-.508-.307.733.733,0,0,0-.6.427.882.882,0,0,0,.095.567.857.857,0,0,0,.295.225.617.617,0,0,0,.721-.909m13.176.272a2.341,2.341,0,0,1-.507-.685,2.731,2.731,0,0,1-.5.709c.13-.012.284.035.437.012a1.73,1.73,0,0,0,.567-.036m13.271-.4a.585.585,0,0,0-.342-.307c-.213-.142-.4.011-.6.083a.582.582,0,0,0-.213.377.652.652,0,0,0,.284.638.671.671,0,0,0,.507.059.835.835,0,0,0,.378-.377.6.6,0,0,0-.012-.473M238.76,180.2a1.308,1.308,0,0,0-.567-.78c-.236-.106-.427.047-.638.142.106.189.024.484.13.659.189-.035.355-.141.543-.189a.17.17,0,0,1,.142.213,1.532,1.532,0,0,1-.5.259c-.059.036-.012.107,0,.142.012.106-.035.319.083.355a1.391,1.391,0,0,0,.732-.035c.236-.224.095-.472.071-.767m23.944-.8a.888.888,0,0,0-.555-.177c-.448.141-.578.649-.685,1.039.035.155-.071.388.106.52a.993.993,0,0,0,.838.012c-.059-.155.047-.272.012-.438a3.417,3.417,0,0,0-.461-.2.161.161,0,0,1-.023-.26.957.957,0,0,1,.637.177,2.822,2.822,0,0,0,.13-.673m-22.256-.13a.6.6,0,0,0-1.074-.083.659.659,0,0,0,.083.756c.106.083.248.2.388.142l.024.035a.621.621,0,0,0,.472-.177.734.734,0,0,0,.106-.673m20.473-.2a.644.644,0,0,0-.65-.331.811.811,0,0,0-.484.46.7.7,0,0,0,.3.721c.071-.024.141.095.212.059.225-.011.413,0,.555-.224a.659.659,0,0,0,.071-.685m-23.826.071a1.847,1.847,0,0,0-.272-.427,1.563,1.563,0,0,0-1.228-.295c-.165.094-.413.083-.543.177.106.106.248.189.378.307v.071c.155,0,.283.224.354.331l.024-.012c.165.225.388.461.52.685.047-.011.035.083.095.071.116-.083.272-.189.4-.142a.935.935,0,0,1,.472.024,3.866,3.866,0,0,0-.2-.791m27.915-.835a.275.275,0,0,1-.189-.059,1.913,1.913,0,0,0-1.086.106c-.543.26-.673.921-.756,1.405l.308-.071a1.416,1.416,0,0,1,.6.153c.177-.2.295-.4.46-.626a6.463,6.463,0,0,1,.874-.838Zm-21.193-.082a.483.483,0,0,0-.272-.189.694.694,0,0,0-.567.142.624.624,0,0,0-.142.732,1,1,0,0,0,.388.319.524.524,0,0,0,.484-.1c.035.035.059-.047.106-.047a.714.714,0,0,0,.155-.659c-.059-.071-.083-.178-.155-.2m13.5-.095a.578.578,0,0,0-.72-.13.588.588,0,0,0-.307.413.554.554,0,0,0,.155.543.623.623,0,0,0,.59.177c.142-.083.319-.141.366-.318a.4.4,0,0,0,.059-.224.512.512,0,0,0-.142-.461m-15.1-.236a3.808,3.808,0,0,0-.626-.071.685.685,0,0,0-.555.1.456.456,0,0,0-.094.283,1.792,1.792,0,0,0,.909,1.583,1.161,1.161,0,0,0,1.1-.307c-.307-.142-.331-.427-.52-.638a6.029,6.029,0,0,1-.944.119c-.083-.036-.177-.083-.142-.189.13-.213.4-.142.6-.165.2-.071.342-.011.531-.106.024-.071-.024-.13.047-.189-.035-.177-.189-.272-.307-.413m17.026-.107c-.355-.224-.827-.047-1.181-.012l-.342.378a.333.333,0,0,1,.083.272l.024-.036.035.036c.342,0,.591.071.931.083a.194.194,0,0,1,.13.212c-.071.165-.319.095-.413.116-.225-.059-.5-.071-.709-.106a1.373,1.373,0,0,1-.377.579c-.095-.035-.083.059-.095.106a1.349,1.349,0,0,0,.886.284,1.047,1.047,0,0,0,.85-.673,1.552,1.552,0,0,0,.177-1.241m-11.665-.059a.737.737,0,0,0-.427-.355.639.639,0,0,0-.59.189.667.667,0,0,0-.106.685.633.633,0,0,0,.578.343.514.514,0,0,0,.448-.225.688.688,0,0,0,.095-.637m6.14-.165a.631.631,0,0,0-.543-.248.727.727,0,0,0-.531.5.773.773,0,0,0,.248.637.737.737,0,0,0,.472.083.707.707,0,0,0,.427-.307.633.633,0,0,0-.071-.661m-8.524-.673c-.047,0-.106.047-.142-.012l-.012.047c-.413.2-1.074.355-1.1.933l.248.247c.284-.106.626-.224.921-.331.035.024.106-.071.142.024a.17.17,0,0,1,.059.213c-.331.2-.659.236-.98.413a2.263,2.263,0,0,1-.142.779l.342.059c.047-.059.13.012.189-.047l.035.024a1.234,1.234,0,0,1,.342-.142,1.191,1.191,0,0,0,.5-1.11,1.644,1.644,0,0,0-.4-1.1m10.756.342a5.025,5.025,0,0,0-.614-.355c-.047,0-.142-.071-.165-.024-.3-.071-.3.3-.413.472.012.2-.153.388-.071.6-.095.059.059.106-.024.165a1.416,1.416,0,0,0,.213.649,1.168,1.168,0,0,0,1,.427c.071-.059.177.024.213-.094a1.089,1.089,0,0,1-.142-.709c.024-.083-.106-.083-.142-.083-.295-.153-.637-.165-.862-.354-.059-.083.024-.142.035-.2s.095-.012.13-.047c.047.071.13-.024.142.094.071-.035.155-.011.165.036a4.434,4.434,0,0,1,.555.189c.177.106.2-.155.342-.2a.608.608,0,0,0-.366-.567m-12.257-1.913c-.378-.272-.862-.083-1.263,0a1.377,1.377,0,0,0-.838.5c-.165.72.295,1.241.779,1.771.177.106.319.567.567.236.116-.13-.047-.388-.059-.578a3.157,3.157,0,0,0-.106-.449c-.059-.247-.071-.413-.142-.637.012-.095.116-.095.165-.13.106-.011.13.116.177.165.116.508.259,1.015.366,1.513a2.583,2.583,0,0,1,.284.012,2.118,2.118,0,0,0,.13-.437c.012-.071.083-.165.035-.2.141-.591.307-1.287-.095-1.759m13.778-.155a4.087,4.087,0,0,0-.4-.106c-.283.035-.637.116-.708.427-.059.047.047.116-.047.141l.024.035a.934.934,0,0,1-.071.342c.035.213.047.413.071.614a.858.858,0,0,0,.071.248c.083.26.142.507.236.744.106-.012.307.071.318-.119,0-.13.059-.247.047-.342l.024-.035c.095-.355.155-.756.272-1.134a.19.19,0,0,1,.155-.071.241.241,0,0,1,.142.177c-.106.472-.189.91-.307,1.358-.142.225.095.319.248.4a10.2,10.2,0,0,0,.732-.827,2.013,2.013,0,0,0,.427-1.145c-.177-.555-.732-.626-1.228-.709m-6.907-1.948c-.083.012-.142-.071-.2-.106a.811.811,0,0,0-.721.13,1.579,1.579,0,0,1-.106.307h.035c0,.2.165.461-.071.626a2.224,2.224,0,0,0-.673.083.978.978,0,0,0-.756.732c-.047.083.024.225-.047.307a3.468,3.468,0,0,0,.165.886,1.743,1.743,0,0,0,.141.342,4.6,4.6,0,0,0,1.027,1.606,1.335,1.335,0,0,1-.342,1.464,1.748,1.748,0,0,1-1.688-.709.31.31,0,0,0-.177.024c-.272-.116-.236.259-.342.378-.106.155-.106.259-.247.4l.024.011a1.251,1.251,0,0,1-.756.52.223.223,0,0,1-.212.059,1.419,1.419,0,0,1-1.216-.33.669.669,0,0,1-.284-.225c-.153-.083-.259-.437-.472-.177-.116.024-.26-.023-.307.095-.165.59-.508,1.37-1.181,1.513a2.1,2.1,0,0,1-1.842-.791l-.307.083c-.024.083-.012.155-.035.213a1.884,1.884,0,0,1-.388,1.228,1.206,1.206,0,0,1-1.027.141c-.116-.024-.212-.141-.318-.141-.165-.189-.413-.308-.543-.5-.035.071-.189.116-.2.225a3.534,3.534,0,0,0,1.653,1.228.9.9,0,0,0,.354,0l.024.035c.638-.165.767-.886.98-1.405.248-.213.413.189.649.248.035.047.13,0,.142.071a1.905,1.905,0,0,0,1.441.024,1.745,1.745,0,0,0,.957-1.346.194.194,0,0,1,.236-.13,4.178,4.178,0,0,0,.555.567,1.978,1.978,0,0,0,1.724.178,1.374,1.374,0,0,0,.815-1.086c-.071-.083.035-.177.071-.236.106-.095.236.035.284.116a1.469,1.469,0,0,0,.815.886.886.886,0,0,0,.46.059c.024.059.059-.023.106.012.732-.024,1.027-.721,1.228-1.276l-.024-.012.095-.106c.106-.1.189.047.26.116.035.083.012.116.035.2.247.519.6,1.1,1.241,1.063a1.432,1.432,0,0,0,1.169-.637c.106-.165.116-.449.342-.5.165.011.142.189.177.294-.035.024.012.059.035.083a1.245,1.245,0,0,0,.72.945c.427.012.874.3,1.346.035a1.991,1.991,0,0,0,.921-.768.194.194,0,0,1,.236.012,2.3,2.3,0,0,0,.355.791.97.97,0,0,0,.578.543c.035.1.142.035.2.071.071-.012.071.116.13.024.047.023.095.083.142.047.083.059.26.047.366.071a2.082,2.082,0,0,0,1.263-.555.183.183,0,0,1,.236.059,6,6,0,0,0,.4.931c.059.071.116.177.177.2.095.189.4.155.543.26a3.264,3.264,0,0,0,1.9-1.311c-.071-.059-.155-.177-.248-.213a1.7,1.7,0,0,1-1.2.721c-.142-.059-.307.023-.437-.083-.071.023-.095-.107-.142-.071a2.112,2.112,0,0,1-.507-1.474c-.106.011-.213-.083-.307-.071a3.461,3.461,0,0,1-1.2.78.357.357,0,0,0-.189.059,1.4,1.4,0,0,1-1.358-.791c-.13-.247-.213-.5-.307-.72.035-.153-.165-.035-.2-.13l-.035.024c-.236-.165-.331.047-.508.165a1.868,1.868,0,0,1-1.086.614c-.035,0-.095-.047-.116,0-.024.024-.047.024-.071-.011a2.362,2.362,0,0,1-.5-.035c-.579-.165-.9-.815-1.086-1.311a.6.6,0,0,1-.354-.059c-.189.13-.331.388-.555.519a1.294,1.294,0,0,1-1.251.189c-.427-.4-.307-.886-.26-1.441a.142.142,0,0,1,.142-.095,5.131,5.131,0,0,0,.957-1.806,2.715,2.715,0,0,0,.177-1.157,1.134,1.134,0,0,0-1.05-.839c-.165-.059-.461.059-.555-.13a1.993,1.993,0,0,0-.012-.839" transform="translate(-232.636 -172.789)" fill="#221f20"/><path d="M247.848,188.662a.6.6,0,0,0-1.074-.083.659.659,0,0,0,.083.756c.106.083.248.2.388.142l.024.035a.621.621,0,0,0,.472-.177.734.734,0,0,0,.106-.673" transform="translate(-240.034 -182.183)" fill="#f3ce1d"/><path d="M243.486,190.358a1.309,1.309,0,0,0-.567-.78c-.236-.106-.427.047-.638.142.106.189.024.484.13.659.189-.035.355-.141.543-.189a.17.17,0,0,1,.142.213,1.533,1.533,0,0,1-.5.259c-.059.036-.012.107,0,.142.012.106-.035.319.083.355a1.391,1.391,0,0,0,.732-.035c.236-.224.095-.472.071-.767" transform="translate(-237.361 -182.947)" fill="#f3ce1d"/><path d="M240.315,191.861a.652.652,0,0,0-.508-.307.733.733,0,0,0-.6.427.882.882,0,0,0,.095.567.857.857,0,0,0,.295.225.617.617,0,0,0,.721-.909" transform="translate(-235.485 -184.166)" fill="#f3ce1d"/><path d="M257.5,193.869c-.177-.047-.342.024-.519-.035a2.791,2.791,0,0,1-.7.023c-.236.083-.437,0-.661.071a28.411,28.411,0,0,0-3.695.437c-.083-.036-.13.106-.189.024-.272.095-.543.106-.791.213l-.036-.024c-.448.083-.909.237-1.381.342-.095.083-.272.047-.388.142a21.571,21.571,0,0,0-3.01,1.027.822.822,0,0,0-.13.272.454.454,0,0,0,.342.4c.732-.271,1.629-.6,2.432-.874.248-.094.531-.141.768-.224.484-.13,1.039-.284,1.559-.378l.047-.047.024.035a24.882,24.882,0,0,1,6.081-.7c.071.047.153-.035.212.012a1.458,1.458,0,0,1,.213-.023l.024.023c.024,0,.035-.023.047-.023a25.406,25.406,0,0,1,2.987.224,1,1,0,0,1,.272.024c.116.011.248.035.355.035a36.528,36.528,0,0,1,3.825.815c.578.13,1.145.4,1.712.543.13.106.377.116.507.224.189.012.366.142.555.155a.412.412,0,0,0,.272-.177c.116-.165.012-.319-.071-.46-.437-.178-.815-.319-1.241-.484a5.906,5.906,0,0,1-1.063-.355l-.012.047c-.059-.083-.177-.024-.236-.095a6.423,6.423,0,0,1-.85-.26c-.082.048-.247-.024-.318-.071-.083-.024-.2.011-.26-.071-.165.059-.307-.094-.472-.071-.083,0-.095-.095-.165-.023-.9-.284-1.877-.319-2.822-.52l-.059.035c-.555-.083-.98-.13-1.571-.189a5.572,5.572,0,0,1-.791-.035c-.259.083-.543-.071-.8.012" transform="translate(-239.617 -185.548)" fill="#f3ce1d"/><path d="M282.87,197.053a2.741,2.741,0,0,0-.5-.071,1.048,1.048,0,0,0,.165.035l-.012.024.284.248a.944.944,0,0,1,.082.85.9.9,0,0,1-.578.461c.284.059.6.035.931.116a1.48,1.48,0,0,1-.13-.567.8.8,0,0,1,.472-.508c.059.012.177-.024.272-.024.071.035.2.024.26.071.378.035.8.141,1.2.177a1.05,1.05,0,0,1,.531.212.728.728,0,0,1,.155.7.6.6,0,0,1-.354.366,1.259,1.259,0,0,0,.437.142c.142-.035.236.142.355.059.142.119.272.071.437.142-.012-.047-.106-.035-.083-.106-.142-.012-.059-.189-.177-.248a.864.864,0,0,1,.212-.886.769.769,0,0,1,.567-.236v-.023c-.388-.1-.744-.237-1.122-.308-.427-.083-.732-.189-1.122-.248-.13-.059-.3-.035-.427-.082a12.454,12.454,0,0,0-1.865-.295" transform="translate(-261.632 -187.457)" fill="#f3ce1d"/><path d="M258.281,197.072c-.756.024-1.57.283-2.337.378-.142.024-.272.116-.437.083-.72.225-1.605.388-2.337.649.13.047.377-.024.531.142.189.095.272.319.355.449a1.091,1.091,0,0,1-.248.886c.116,0,.26-.13.413-.106.224-.095.427-.083.673-.189a.681.681,0,0,1-.659-.319.69.69,0,0,1-.012-.659.779.779,0,0,1,.673-.354c.035,0,.165-.071.225-.035l.047-.035a4.115,4.115,0,0,1,1.5-.142.753.753,0,0,1,.4.52.812.812,0,0,1-.247.578,7.5,7.5,0,0,0,.9-.153,1.439,1.439,0,0,0,.567-.083c-.236-.012-.377-.213-.5-.342a.838.838,0,0,1-.059-.779.925.925,0,0,1,.555-.484" transform="translate(-243.962 -187.511)" fill="#f3ce1d"/><path d="M287.141,199.725l-.413-.071c-.484.012-.944-.331-1.4-.083-.083.047-.071.225-.071.331.047.095.142.224.259.224.3.107.661.071.992.178a1.943,1.943,0,0,0,.862.035c.116-.059.13-.272.095-.366-.012-.189-.189-.213-.319-.248" transform="translate(-263.412 -188.972)" fill="#f3ce1d"/><path d="M258.757,199.863a.388.388,0,0,0-.437-.224c-.508.116-1.086.212-1.594.295a.315.315,0,0,0-.177.283c-.012.1-.012.284.142.343a5.272,5.272,0,0,0,1.074-.13c.388-.165,1.027.035.992-.567" transform="translate(-246.008 -189.062)" fill="#f3ce1d"/><path d="M296.293,200.033c-.165-.047-.354-.083-.507-.142a1.054,1.054,0,0,1,.342.342c.047.2.142.531-.035.744a.8.8,0,0,1-.673.46c.342.083.7.213,1.015.319.047.011.155.106.236.071l-.035-.012c-.047-.3-.189-.65-.26-.945.083-.224.342-.224.508-.354a2.06,2.06,0,0,0,.283-.116c.024-.059-.071-.047-.082-.107-.236.024-.449-.177-.659-.2-.048-.059-.13-.012-.13-.059" transform="translate(-269.577 -189.221)" fill="#f3ce1d"/><path d="M250.034,200.249a5.277,5.277,0,0,1-.626.189c-.2.142-.508.153-.708.307.259.189.685.165.8.507-.059.319-.213.673-.26.98a8.158,8.158,0,0,1,.97-.366c.071-.059.177,0,.189-.106a.834.834,0,0,1-.366-1.513" transform="translate(-241.252 -189.436)" fill="#f3ce1d"/><path d="M259.8,201.493a2.026,2.026,0,0,1-.378-.012c-.992.106-1.912.116-2.857.307-.295,0-.626.107-.9.116-.65.142-1.275.284-1.96.449a1.81,1.81,0,0,1-.437.106c-.437.177-.827.224-1.287.427-.071.011-.2.071-.272.047a1.28,1.28,0,0,1-.52.2l.012.047.591-.035.035.035c.448-.059.909.035,1.358-.035a.856.856,0,0,1,.283-.047,24.832,24.832,0,0,1,3.625-.767,5.92,5.92,0,0,1,1.287-.106,8.17,8.17,0,0,1,1.724-.095l.024-.023a6.161,6.161,0,0,0,.659.011c.508-.024.909.024,1.405.035.059.012.165.059.224.024a23.544,23.544,0,0,1,2.81.378,7.931,7.931,0,0,1,1.323.295.822.822,0,0,1,.331.059,3.249,3.249,0,0,0,1.1.153c.378-.023.626,0,.992-.023.059-.024.2.011.272-.012l.024.024c.035-.035.155.012.142-.047a1,1,0,0,0-.3-.083c-.531-.248-1.074-.307-1.594-.5a8.9,8.9,0,0,1-1.11-.3v.024a16.841,16.841,0,0,0-2.327-.4v-.023c-.567-.083-1.18-.116-1.806-.178-.059.035-.13-.106-.188-.012a21.708,21.708,0,0,0-2.291-.047" transform="translate(-242.761 -190.184)" fill="#f3ce1d"/><path d="M299.694,201.861l-.035-.2c-.272.012-.555.284-.85.366.142.319.142.614.272.945.225-.083.448-.225.673-.3a.241.241,0,0,0,.155-.095.142.142,0,0,0-.035-.116,6.139,6.139,0,0,0-.177-.6" transform="translate(-271.631 -190.293)" fill="#f3ce1d"/><path d="M248.143,202.387a4.928,4.928,0,0,0-.8-.366,7.014,7.014,0,0,0-.26.944c.26.165.508.189.72.355.059-.024.095.083.116-.012.047-.318.189-.614.225-.92" transform="translate(-240.27 -190.512)" fill="#f3ce1d"/><path d="M273.6,197.965c-.355-.155-.721-.3-1.086-.413a11.124,11.124,0,0,1-1.039.413,2.651,2.651,0,0,1,.5.224c.155.024.331.116.484.142.165.116.342-.1.5-.1a5.113,5.113,0,0,1,.65-.272" transform="translate(-255.061 -187.802)" fill="#f3ce1d"/><path d="M290.986,178.644a4.1,4.1,0,0,0-.4-.106c-.283.035-.637.116-.708.427-.059.047.047.116-.047.141l.024.035a.935.935,0,0,1-.071.342c.035.213.047.413.071.614a.86.86,0,0,0,.071.248c.083.259.142.507.236.744.106-.012.307.071.318-.119,0-.13.059-.247.047-.342l.024-.035c.095-.355.155-.756.272-1.134a.191.191,0,0,1,.155-.071.241.241,0,0,1,.142.177c-.106.472-.189.91-.307,1.358-.142.225.095.319.248.4a10.2,10.2,0,0,0,.732-.827,2.013,2.013,0,0,0,.427-1.145c-.177-.555-.732-.626-1.228-.709" transform="translate(-266.159 -176.275)" fill="#f3ce1d"/><path d="M254.557,178.977c-.378-.272-.862-.083-1.263,0a1.377,1.377,0,0,0-.838.5c-.165.72.295,1.241.779,1.771.177.106.319.567.567.236.116-.13-.047-.388-.059-.578a3.155,3.155,0,0,0-.106-.449c-.059-.247-.071-.413-.142-.637.012-.095.116-.095.165-.13.106-.011.13.116.177.165.116.508.26,1.015.366,1.513a2.571,2.571,0,0,1,.284.012,2.116,2.116,0,0,0,.13-.437c.012-.071.083-.165.035-.2.141-.591.307-1.287-.095-1.759" transform="translate(-243.508 -176.455)" fill="#f3ce1d"/><path d="M286.978,183.449a5.025,5.025,0,0,0-.614-.355c-.047,0-.142-.071-.165-.024-.3-.071-.3.3-.413.472.012.2-.153.388-.071.6-.095.059.059.106-.024.165a1.415,1.415,0,0,0,.213.649,1.168,1.168,0,0,0,1,.427c.071-.059.177.024.213-.094a1.089,1.089,0,0,1-.142-.709c.024-.083-.106-.083-.142-.083-.295-.153-.637-.165-.862-.354-.059-.083.024-.142.035-.2s.095-.012.13-.047c.047.071.13-.024.142.094.071-.035.155-.011.165.036a4.434,4.434,0,0,1,.555.189c.177.106.2-.155.342-.2a.608.608,0,0,0-.366-.567" transform="translate(-263.673 -179.013)" fill="#f3ce1d"/><path d="M259.725,183.169c-.047,0-.106.047-.142-.012l-.012.047c-.413.2-1.074.355-1.1.933l.248.247c.284-.106.626-.224.921-.331.035.024.106-.071.142.024a.169.169,0,0,1,.059.213c-.331.2-.659.236-.98.413a2.264,2.264,0,0,1-.142.779l.342.059c.047-.059.13.012.189-.047l.035.024a1.234,1.234,0,0,1,.342-.142,1.191,1.191,0,0,0,.5-1.11,1.644,1.644,0,0,0-.4-1.1" transform="translate(-247.177 -179.075)" fill="#f3ce1d"/><path d="M281.646,184.513a.631.631,0,0,0-.543-.248.727.727,0,0,0-.531.5.773.773,0,0,0,.248.637.737.737,0,0,0,.472.083.708.708,0,0,0,.427-.307.633.633,0,0,0-.071-.661" transform="translate(-260.574 -179.746)" fill="#f3ce1d"/><path d="M265.9,184.751a.737.737,0,0,0-.427-.355.639.639,0,0,0-.59.189.667.667,0,0,0-.106.685.633.633,0,0,0,.578.343.514.514,0,0,0,.448-.225.688.688,0,0,0,.095-.637" transform="translate(-250.97 -179.819)" fill="#f3ce1d"/><path d="M294.391,185.293c-.355-.224-.827-.047-1.181-.012l-.342.378a.333.333,0,0,1,.083.272l.024-.036.035.036c.342,0,.591.071.931.083a.194.194,0,0,1,.13.212c-.071.165-.319.095-.413.116-.225-.059-.5-.071-.709-.106a1.373,1.373,0,0,1-.377.579c-.095-.035-.083.059-.095.106a1.348,1.348,0,0,0,.886.284,1.047,1.047,0,0,0,.85-.673,1.552,1.552,0,0,0,.177-1.241" transform="translate(-267.792 -180.302)" fill="#f3ce1d"/><path d="M252.134,185.593a3.8,3.8,0,0,0-.626-.071.685.685,0,0,0-.555.1.456.456,0,0,0-.094.283,1.792,1.792,0,0,0,.909,1.583,1.161,1.161,0,0,0,1.1-.307c-.307-.142-.331-.427-.52-.638a6.029,6.029,0,0,1-.944.119c-.083-.036-.177-.083-.142-.189.13-.213.4-.142.6-.165.2-.071.342-.011.531-.106.024-.071-.024-.13.047-.189-.035-.177-.189-.272-.307-.413" transform="translate(-242.561 -180.495)" fill="#f3ce1d"/><path d="M290.841,186.024a.578.578,0,0,0-.72-.13.588.588,0,0,0-.307.413.554.554,0,0,0,.155.543.623.623,0,0,0,.59.177c.142-.083.319-.141.366-.318a.4.4,0,0,0,.059-.224.512.512,0,0,0-.142-.461" transform="translate(-266.167 -180.691)" fill="#f3ce1d"/><path d="M256.572,186.266a.482.482,0,0,0-.272-.189.694.694,0,0,0-.567.142.624.624,0,0,0-.142.732,1,1,0,0,0,.388.319.524.524,0,0,0,.484-.1c.035.035.059-.047.106-.047a.714.714,0,0,0,.155-.659c-.059-.071-.083-.178-.155-.2" transform="translate(-245.393 -180.837)" fill="#f3ce1d"/><path d="M308.876,186.64a.275.275,0,0,1-.189-.059,1.913,1.913,0,0,0-1.086.106c-.543.26-.673.921-.756,1.405l.308-.071a1.417,1.417,0,0,1,.6.153c.177-.2.295-.4.46-.626a6.464,6.464,0,0,1,.874-.838l-.212-.071" transform="translate(-276.504 -181.13)" fill="#f3ce1d"/><path d="M299.862,188.22a.644.644,0,0,0-.648-.329.811.811,0,0,0-.484.46.7.7,0,0,0,.3.721c.071-.024.141.095.212.059.225-.011.413,0,.555-.224a.659.659,0,0,0,.071-.685" transform="translate(-271.575 -181.942)" fill="#f3ce1d"/><path d="M304.243,189.3a.888.888,0,0,0-.555-.177c-.448.141-.578.649-.685,1.039.035.155-.071.388.106.52a.992.992,0,0,0,.838.012c-.059-.155.047-.272.012-.438a3.421,3.421,0,0,0-.461-.2.161.161,0,0,1-.023-.26.957.957,0,0,1,.637.177,2.82,2.82,0,0,0,.13-.673" transform="translate(-274.175 -182.693)" fill="#f3ce1d"/><path d="M307.422,191.441a.585.585,0,0,0-.342-.307c-.213-.142-.4.011-.6.083a.582.582,0,0,0-.213.377.652.652,0,0,0,.284.638.671.671,0,0,0,.507.059.836.836,0,0,0,.378-.377.6.6,0,0,0-.012-.473" transform="translate(-276.148 -183.876)" fill="#f3ce1d"/><path d="M257.408,208.168a1.221,1.221,0,0,0-.207-.078,1.522,1.522,0,0,0-.4-.047.941.941,0,0,0-.474.131,1.033,1.033,0,0,0-.392.423,1.624,1.624,0,0,0-.163.756,1.52,1.52,0,0,0,.3.97.96.96,0,0,0,.767.362,1.862,1.862,0,0,0,.362-.033,1.4,1.4,0,0,0,.212-.058l-.02-.534a1.328,1.328,0,0,1-.155.078.853.853,0,0,1-.313.058.523.523,0,0,1-.427-.231,1.018,1.018,0,0,1-.172-.6,1.068,1.068,0,0,1,.16-.615.51.51,0,0,1,.43-.228.784.784,0,0,1,.294.054,1.017,1.017,0,0,1,.171.092l.026-.5" transform="translate(-245.541 -194.163)" fill="#221f20"/><path d="M261.508,209.707h-.515l.272-1.062h.007Zm.246,1h.551l-.734-2.553h-.59l-.76,2.553h.518l.155-.571h.718Z" transform="translate(-248.236 -194.231)" fill="#221f20" fill-rule="evenodd"/><path d="M266.658,208.6h.138a.507.507,0,0,1,.455.229,1.144,1.144,0,0,1,.142.623,1.086,1.086,0,0,1-.136.579.482.482,0,0,1-.427.23h-.171V208.6m-.538,2.107h.744a1.122,1.122,0,0,0,.54-.13.97.97,0,0,0,.4-.408,1.539,1.539,0,0,0,.155-.718,1.732,1.732,0,0,0-.151-.764.931.931,0,0,0-.378-.412,1,1,0,0,0-.494-.123h-.815Z" transform="translate(-251.813 -194.231)" fill="#221f20" fill-rule="evenodd"/><rect width="0.538" height="2.553" transform="translate(16.494 13.925)" fill="#221f20"/><path d="M273.834,210.709h1.5v-.461h-.9l.888-1.625v-.468h-1.468v.461h.865l-.888,1.6Z" transform="translate(-256.49 -194.231)" fill="#221f20"/><path d="M282.088,208.168a1.221,1.221,0,0,0-.207-.078,1.523,1.523,0,0,0-.4-.047.94.94,0,0,0-.473.131,1.034,1.034,0,0,0-.392.423,1.624,1.624,0,0,0-.163.756,1.52,1.52,0,0,0,.3.97.96.96,0,0,0,.767.362,1.861,1.861,0,0,0,.362-.033,1.416,1.416,0,0,0,.212-.058l-.02-.534a1.311,1.311,0,0,1-.155.078.851.851,0,0,1-.313.058.523.523,0,0,1-.427-.231,1.015,1.015,0,0,1-.172-.6,1.071,1.071,0,0,1,.16-.615.508.508,0,0,1,.43-.228.784.784,0,0,1,.294.054,1.046,1.046,0,0,1,.171.092l.026-.5" transform="translate(-260.504 -194.163)" fill="#221f20"/><rect width="0.472" height="0.548" transform="translate(21.872 15.93)" fill="#221f20"/><path d="M287.565,210.709h.518v-1.068h.721v-.446h-.721V208.6h.751v-.446h-1.268Z" transform="translate(-264.815 -194.231)" fill="#221f20"/><rect width="0.472" height="0.548" transform="translate(24.048 15.93)" fill="#221f20"/></g></g></svg>