<svg width="64" height="64" viewBox="0 0 64 64" fill="none" xmlns="http://www.w3.org/2000/svg">
<g clip-path="url(#clip0_40_26766)">
<path d="M32 64C49.6731 64 64 49.6731 64 32C64 14.3269 49.6731 0 32 0C14.3269 0 0 14.3269 0 32C0 49.6731 14.3269 64 32 64Z" fill="#5292CB"/>
<path d="M32.058 17.148H30.901C31.0607 15.5512 30.8957 13.9385 30.416 12.407C29.928 12.207 29.421 12.484 29.781 13.183C30.176 13.951 29.96 14.495 29.181 14.572C28.546 14.633 27.681 14.505 27.245 13.028C26.712 11.26 27.922 10.828 29.874 9.02803C30.6795 8.33799 31.4124 7.5673 32.061 6.72803C32.7095 7.56739 33.4423 8.33809 34.248 9.02803C36.2 10.836 37.397 11.268 36.877 13.028C36.44 14.505 35.577 14.628 34.941 14.572C34.162 14.495 33.941 13.953 34.341 13.183C34.701 12.483 34.194 12.204 33.706 12.407C33.2261 13.9384 33.0611 15.5512 33.221 17.148H32.058Z" fill="#D50632"/>
<path d="M32.0559 57.274L28.3229 35.6741C29.0051 35.4957 29.612 35.103 30.0542 34.5537C30.4963 34.0044 30.7504 33.3276 30.7789 32.623H33.3579C33.3864 33.3276 33.6404 34.0044 34.0826 34.5537C34.5248 35.103 35.1317 35.4957 35.8139 35.6741L32.0559 57.274Z" fill="#D50632"/>
<path d="M19.0219 23.46C18.7867 23.2218 18.5691 22.9668 18.3709 22.697C18.2847 22.7604 18.1825 22.7987 18.0758 22.8075C17.9691 22.8164 17.8621 22.7955 17.7666 22.7471C17.671 22.6988 17.5908 22.6249 17.5347 22.5337C17.4787 22.4425 17.449 22.3375 17.449 22.2305C17.449 22.1234 17.4787 22.0185 17.5347 21.9273C17.5908 21.8361 17.671 21.7622 17.7666 21.7139C17.8621 21.6655 17.9691 21.6446 18.0758 21.6535C18.1825 21.6623 18.2847 21.7006 18.3709 21.764C18.5693 21.4953 18.7869 21.2413 19.0219 21.004C19.1384 20.901 19.2779 20.8275 19.4287 20.7897C19.5795 20.7518 19.7372 20.7507 19.8885 20.7865C20.0398 20.8222 20.1803 20.8938 20.2982 20.9952C20.4161 21.0966 20.5079 21.2248 20.5659 21.369C20.7659 21.369 21.3949 21.369 21.7469 21.342C22.1709 21.315 22.4879 21.315 21.9839 20.947L21.7409 20.766C21.4062 20.5627 21.1425 20.2609 20.9859 19.902C20.9646 19.854 20.9443 19.8023 20.9249 19.747C20.8986 19.6732 20.8789 19.5972 20.8659 19.52C20.8125 19.254 20.8168 18.9796 20.8788 18.7154C20.9408 18.4512 21.0589 18.2035 21.2251 17.989C21.3913 17.7745 21.6017 17.5983 21.842 17.4723C22.0824 17.3464 22.347 17.2736 22.618 17.259C22.7461 17.2476 22.8752 17.253 23.002 17.275L23.1349 17.302C23.3412 17.3547 23.5388 17.4365 23.722 17.545L23.7749 17.58C24.3986 18.024 24.8817 18.6376 25.1669 19.348C24.7708 19.1978 24.3593 19.0915 23.9399 19.031C23.2009 18.884 22.7399 19.226 22.8549 19.924C23.0279 20.972 24.455 21.236 24.455 21.236H26.9379V23.227H24.455C24.455 23.227 23.0389 23.494 22.8549 24.539C22.7399 25.239 23.2019 25.576 23.9399 25.432C24.3593 25.3715 24.7707 25.2652 25.1669 25.115C24.8817 25.8254 24.3986 26.439 23.7749 26.883L23.722 26.918C23.5388 27.0265 23.3412 27.1083 23.1349 27.161L23.002 27.188C22.8752 27.21 22.7461 27.2154 22.618 27.204C22.1348 27.1779 21.6801 26.9676 21.3473 26.6164C21.0145 26.2652 20.829 25.7998 20.8289 25.316C20.8294 25.1907 20.8421 25.0658 20.8669 24.943C20.8799 24.8658 20.8997 24.7898 20.9259 24.716C20.9449 24.663 20.9659 24.616 20.9869 24.561C21.1436 24.2021 21.4073 23.9003 21.7419 23.697L21.985 23.516C22.485 23.148 22.169 23.148 21.748 23.121C21.396 23.1 20.767 23.094 20.567 23.094C20.5089 23.2382 20.4171 23.3664 20.2992 23.4678C20.1813 23.5692 20.0408 23.6407 19.8895 23.6765C19.7382 23.7123 19.5805 23.7112 19.4297 23.6733C19.2789 23.6355 19.1394 23.562 19.0229 23.459" fill="#D50632"/>
<path d="M44.977 23.46C45.212 23.2216 45.4295 22.9666 45.628 22.697C45.7142 22.7604 45.8163 22.7987 45.923 22.8075C46.0297 22.8164 46.1368 22.7954 46.2323 22.7471C46.3278 22.6988 46.4081 22.6249 46.4641 22.5337C46.5202 22.4425 46.5499 22.3375 46.5499 22.2305C46.5499 22.1234 46.5202 22.0185 46.4641 21.9273C46.4081 21.8361 46.3278 21.7622 46.2323 21.7138C46.1368 21.6655 46.0297 21.6446 45.923 21.6535C45.8163 21.6623 45.7142 21.7006 45.628 21.764C45.4295 21.4954 45.2119 21.2414 44.977 21.004C44.8606 20.9008 44.7211 20.8271 44.5702 20.7891C44.4194 20.7511 44.2616 20.75 44.1102 20.7857C43.9588 20.8215 43.8183 20.8932 43.7004 20.9947C43.5825 21.0962 43.4908 21.2246 43.433 21.369C43.233 21.369 42.604 21.369 42.252 21.342C41.828 21.315 41.511 21.315 42.015 20.947L42.2579 20.766C42.5934 20.563 42.8578 20.2612 43.015 19.902C43.036 19.854 43.058 19.802 43.076 19.747C43.1023 19.6732 43.122 19.5972 43.1349 19.52C43.1885 19.2537 43.184 18.9791 43.1219 18.7147C43.0597 18.4503 42.9413 18.2024 42.7748 17.9879C42.6083 17.7734 42.3975 17.5972 42.1568 17.4714C41.9161 17.3456 41.6512 17.2732 41.3799 17.259C41.2518 17.2476 41.1227 17.253 40.9959 17.275L40.8629 17.302C40.6568 17.3548 40.4591 17.4366 40.2759 17.545L40.2229 17.58C39.5993 18.024 39.1162 18.6376 38.8309 19.348C39.2271 19.1978 39.6386 19.0915 40.058 19.031C40.799 18.884 41.2579 19.226 41.1429 19.924C40.9699 20.972 39.5429 21.236 39.5429 21.236H37.0599V23.227H39.5429C39.5429 23.227 40.9589 23.494 41.1429 24.539C41.2579 25.239 40.796 25.576 40.058 25.432C39.6386 25.3715 39.2271 25.2651 38.8309 25.115C39.1162 25.8254 39.5993 26.439 40.2229 26.883L40.2759 26.918C40.4591 27.0264 40.6567 27.1082 40.8629 27.161L40.9959 27.188C41.1227 27.21 41.2518 27.2153 41.3799 27.204C41.6512 27.1898 41.9161 27.1173 42.1568 26.9915C42.3975 26.8658 42.6083 26.6896 42.7748 26.4751C42.9413 26.2605 43.0597 26.0126 43.1219 25.7483C43.184 25.4839 43.1885 25.2092 43.1349 24.943C43.1221 24.8657 43.1024 24.7897 43.076 24.716C43.057 24.663 43.036 24.616 43.015 24.561C42.8578 24.2018 42.5934 23.9 42.2579 23.697L42.015 23.516C41.515 23.148 41.828 23.148 42.252 23.121C42.607 23.1 43.233 23.094 43.433 23.094C43.491 23.2382 43.5828 23.3664 43.7007 23.4678C43.8186 23.5692 43.9591 23.6407 44.1104 23.6765C44.2617 23.7123 44.4194 23.7112 44.5702 23.6733C44.721 23.6355 44.8605 23.562 44.977 23.459" fill="#D50632"/>
<path d="M35.664 31.394C34.6832 32.4875 33.4931 33.3733 32.164 33.9989L32.012 34.0789L31.86 33.9989C30.5328 33.3701 29.3433 32.4847 28.36 31.394C26.0333 28.3559 24.8029 24.62 24.869 20.7939H39.169C39.2224 24.6195 37.9899 28.3523 35.669 31.394" fill="white"/>
<path d="M38.7899 19.9619C39.0475 23.9879 37.845 27.9718 35.4029 31.1829C34.4498 32.2434 33.2936 33.102 32.0029 33.7079C30.7144 33.0983 29.5589 32.2403 28.6029 31.1829C26.1591 27.973 24.9583 23.9877 25.2219 19.9619H38.7899Z" fill="#6CACE4"/>
<path d="M35.744 18.8861C34.5984 18.2634 33.3149 17.9378 32.011 17.9392C30.701 17.8847 29.4036 18.2138 28.278 18.8861C28.0747 18.7583 27.8945 18.597 27.745 18.4091C27.7396 18.2407 27.7823 18.0742 27.868 17.9291C28.0285 17.6507 28.2498 17.4121 28.5154 17.2311C28.781 17.0502 29.0841 16.9316 29.402 16.8841C30.1002 16.3638 30.9731 16.1344 31.837 16.2441C31.8915 16.272 31.9518 16.2865 32.013 16.2865C32.0742 16.2865 32.1345 16.272 32.189 16.2441C33.0525 16.1346 33.925 16.364 34.623 16.8841C34.9407 16.9316 35.2436 17.0503 35.509 17.2312C35.7745 17.4122 35.9956 17.6508 36.156 17.9291C36.2419 18.0741 36.2846 18.2407 36.279 18.4091C36.1294 18.597 35.9492 18.7583 35.746 18.8861" fill="#B2852F"/>
<path d="M35.595 18.3449C35.654 18.3449 36.531 18.345 36.435 17.212C36.382 16.572 35.694 15.6409 35.102 16.1449C35.0733 16.513 34.9831 16.8737 34.835 17.212C34.726 17.745 34.667 18.3879 35.6 18.3429M32.32 15.18C32.5249 15.7465 32.5864 16.3549 32.499 16.9509C32.475 17.0819 32.47 17.2179 32.599 17.2839C34.82 18.3719 35.46 13.777 32.332 15.184M31.756 15.184C28.615 13.784 29.256 18.3839 31.489 17.2839C31.62 17.2199 31.614 17.0839 31.589 16.9509C31.5013 16.3549 31.5628 15.7464 31.768 15.18M28.488 18.3429C29.421 18.3879 29.363 17.735 29.253 17.212C29.1049 16.8737 29.0147 16.513 28.986 16.1449C28.386 15.6449 27.698 16.582 27.653 17.212C27.553 18.353 28.434 18.3429 28.493 18.3449M32.064 14.9659C33.964 14.1149 34.896 14.814 35.091 15.766C37.427 15.201 37.224 18.6989 35.791 19.2329L35.591 19.6489C34.4333 19.4081 33.2534 19.2911 32.071 19.2999C30.8642 19.2987 29.6582 19.3611 28.458 19.4869L28.358 19.234C26.918 18.701 26.702 15.2049 29.043 15.7669C29.238 14.8039 30.166 14.106 32.07 14.967" fill="#B2852F"/>
<path d="M35.8189 19.3719L35.2859 20.2439C35.2967 20.2564 35.3024 20.2725 35.3019 20.2889V20.3079C35.2987 20.33 35.2873 20.35 35.2699 20.3639C35.2645 20.3729 35.2571 20.3804 35.2482 20.386C35.2394 20.3915 35.2293 20.3949 35.2189 20.3959H35.1999C35.1696 20.394 35.1407 20.3828 35.1169 20.3639C34.9329 20.2759 34.7539 20.1929 34.5839 20.1209C34.3468 20.0292 34.1047 19.9508 33.8589 19.8859C33.6178 19.8208 33.373 19.7701 33.1259 19.7339C32.8876 19.6977 32.647 19.678 32.4059 19.6749C32.2823 19.6687 32.1585 19.6687 32.0349 19.6749C31.914 19.6687 31.7929 19.6687 31.6719 19.6749C31.4292 19.6777 31.1869 19.6975 30.9469 19.7339C30.6997 19.7694 30.4549 19.8202 30.2139 19.8859C29.9671 19.9507 29.7249 20.0319 29.4889 20.1289C29.3099 20.1979 29.1319 20.2759 28.9559 20.3639C28.9316 20.3817 28.9029 20.3928 28.8729 20.3959C28.8617 20.3957 28.8506 20.3927 28.8408 20.3871C28.831 20.3815 28.8228 20.3736 28.8169 20.3639C28.8068 20.3577 28.7982 20.3493 28.7918 20.3393C28.7854 20.3293 28.7813 20.318 28.7797 20.3062C28.7782 20.2945 28.7793 20.2825 28.783 20.2712C28.7866 20.2599 28.7928 20.2496 28.8009 20.2409L28.2679 19.3689C29.4114 18.6868 30.718 18.3267 32.0494 18.3267C33.3809 18.3267 34.6875 18.6868 35.8309 19.3689" fill="#B2852F"/>
<path d="M31.7289 13.6741H32.2969L32.197 14.0051L32.477 13.9051V14.4701L32.197 14.3701L32.2969 14.8151H31.7289L31.8289 14.3701L31.549 14.4701V13.9051L31.8289 14.0051L31.7289 13.6741Z" fill="#B2852F"/>
<path d="M33.0909 17.564C33.0465 17.5182 33.0217 17.4568 33.0219 17.393C33.0218 17.3268 33.0464 17.263 33.0909 17.214C33.1107 17.1928 33.1321 17.173 33.1549 17.155C33.1788 17.1486 33.2019 17.1396 33.2239 17.128C33.2451 17.1246 33.2667 17.1246 33.2879 17.128C33.3107 17.1235 33.3343 17.1236 33.3571 17.1283C33.3799 17.1329 33.4016 17.142 33.4209 17.155C33.4451 17.1732 33.4682 17.1929 33.4899 17.214C33.5284 17.2588 33.5509 17.315 33.5539 17.374V17.411C33.551 17.47 33.5285 17.5263 33.4899 17.571C33.4697 17.5915 33.4464 17.6087 33.4209 17.622C33.4023 17.6365 33.3803 17.6459 33.3569 17.649H33.3219C33.3401 17.7434 33.3796 17.8324 33.4373 17.9092C33.4951 17.986 33.5696 18.0487 33.6553 18.0923C33.7409 18.136 33.8353 18.1596 33.9314 18.1613C34.0276 18.1629 34.1228 18.1427 34.2099 18.102C34.2973 18.0568 34.3745 17.9942 34.4369 17.918C34.4072 17.8911 34.3857 17.8565 34.3749 17.818H34.3109L34.2739 17.837C34.2446 17.8453 34.2166 17.8577 34.1909 17.874H34.1749C34.1552 17.8848 34.1365 17.8972 34.1189 17.911C34.092 17.9238 34.0662 17.9389 34.0419 17.956L34.0099 17.975C33.9937 17.9884 33.9766 18.0007 33.9589 18.012L33.9139 18.031H33.8749C33.8611 18.0276 33.8483 18.0212 33.8372 18.0125C33.8261 18.0037 33.8169 17.9926 33.8104 17.98C33.8039 17.9675 33.8001 17.9537 33.7993 17.9395C33.7986 17.9254 33.8008 17.9112 33.8059 17.898C33.8299 17.853 33.8249 17.834 33.8569 17.798C33.8628 17.795 33.8676 17.7904 33.871 17.7847C33.8744 17.7791 33.876 17.7726 33.8759 17.766V17.734C33.8735 17.7117 33.8671 17.69 33.8569 17.67C33.8401 17.6031 33.8467 17.5325 33.8759 17.47L33.9079 17.411C33.9391 17.3651 33.9838 17.3302 34.0359 17.311C34.0446 17.3092 34.0524 17.3047 34.0582 17.298C34.064 17.2913 34.0674 17.2828 34.0679 17.274C34.0679 17.159 34.0869 17.127 34.1129 17.109H34.1319C34.141 17.1043 34.1511 17.1019 34.1614 17.1019C34.1716 17.1019 34.1817 17.1043 34.1909 17.109C34.2229 17.109 34.2599 17.16 34.2679 17.248C34.2649 17.2628 34.2649 17.2782 34.2679 17.293C34.2674 17.348 34.2783 17.4024 34.2999 17.453L34.3449 17.517C34.3679 17.5482 34.3877 17.5817 34.4039 17.617C34.4234 17.5898 34.4491 17.5677 34.4788 17.5524C34.5085 17.5371 34.5414 17.5291 34.5749 17.529L34.5479 17.505C34.4888 17.4649 34.444 17.4072 34.4199 17.34C34.3963 17.2885 34.3776 17.2349 34.3639 17.18C34.342 17.1511 34.3223 17.1207 34.3049 17.089C34.2995 17.074 34.2984 17.0578 34.3018 17.0423C34.3051 17.0267 34.3128 17.0124 34.3239 17.001C34.3458 16.9924 34.3696 16.9896 34.3929 16.9929C34.4162 16.9963 34.4382 17.0056 34.4569 17.02C34.4939 17.047 34.4809 17.047 34.5209 17.089C34.5609 17.131 34.5849 17.089 34.6089 17.089C34.6457 17.0754 34.6847 17.0689 34.7239 17.07H34.7879C34.828 17.0775 34.8654 17.0951 34.8969 17.121C34.9187 17.1508 34.934 17.1849 34.9419 17.221C34.9411 17.2316 34.9424 17.2423 34.9459 17.2523C34.9494 17.2624 34.955 17.2716 34.9622 17.2794C34.9694 17.2872 34.9782 17.2934 34.988 17.2976C34.9977 17.3019 35.0082 17.304 35.0189 17.304C35.0518 17.297 35.0859 17.297 35.1189 17.304C35.1879 17.323 35.2389 17.349 35.2519 17.381C35.2649 17.413 35.2329 17.45 35.2009 17.469C35.1689 17.488 35.1739 17.469 35.1009 17.469C35.0279 17.469 35.0129 17.496 34.9489 17.52C34.8852 17.562 34.8086 17.58 34.7329 17.571H34.7039C34.731 17.5905 34.7532 17.6162 34.7685 17.6459C34.7838 17.6756 34.7918 17.7086 34.7919 17.742C34.8502 17.7283 34.9048 17.702 34.9519 17.665C35.0079 17.628 35.0399 17.565 35.1119 17.545C35.1474 17.5345 35.1839 17.5281 35.2209 17.526C35.2979 17.526 35.3209 17.595 35.2899 17.659C35.2589 17.723 35.2629 17.686 35.2209 17.715C35.1789 17.744 35.2209 17.803 35.2209 17.835C35.2307 17.8758 35.2307 17.9184 35.221 17.9592C35.2112 18 35.192 18.038 35.1649 18.07C35.1009 18.158 35.0129 18.185 35.0179 18.235C35.0288 18.2738 35.0273 18.3151 35.0134 18.3529C34.9996 18.3908 34.9742 18.4234 34.9409 18.446C34.9219 18.446 34.8209 18.446 34.8209 18.286C34.8249 18.2087 34.8158 18.1312 34.7939 18.057C34.7699 17.993 34.7299 17.993 34.7249 17.905C34.6864 17.9336 34.6398 17.9494 34.5919 17.95C34.5879 18.0402 34.6051 18.13 34.642 18.2124C34.6789 18.2947 34.7345 18.3673 34.8045 18.4243C34.8744 18.4814 34.9567 18.5212 35.0448 18.5408C35.1329 18.5604 35.2244 18.5591 35.3119 18.537C35.406 18.5233 35.4966 18.4918 35.5789 18.444C35.5531 18.4104 35.5391 18.3693 35.5389 18.327C35.5389 18.2874 35.5506 18.2488 35.5726 18.2159C35.5946 18.183 35.6258 18.1574 35.6623 18.1422C35.6989 18.1271 35.7391 18.1231 35.7779 18.1308C35.8167 18.1386 35.8523 18.1576 35.8803 18.1856C35.9083 18.2135 35.9273 18.2492 35.9351 18.288C35.9428 18.3268 35.9388 18.367 35.9237 18.4035C35.9085 18.4401 35.8829 18.4713 35.85 18.4933C35.8171 18.5153 35.7784 18.527 35.7389 18.527H35.6859C35.6639 18.6095 35.6682 18.6967 35.6981 18.7766C35.7281 18.8566 35.7821 18.9252 35.8528 18.973C35.9235 19.0208 36.0073 19.0455 36.0926 19.0435C36.1779 19.0415 36.2605 19.013 36.3289 18.962C36.3077 18.9362 36.2955 18.9043 36.2939 18.871C36.2072 18.9057 36.1179 18.9335 36.0269 18.954C36.0183 18.9548 36.0096 18.9536 36.0015 18.9507C35.9934 18.9477 35.986 18.9431 35.9799 18.937C35.9738 18.9308 35.9691 18.9235 35.9662 18.9154C35.9632 18.9073 35.9621 18.8986 35.9629 18.89C35.9629 18.866 35.9869 18.839 36.0139 18.813C36.0409 18.787 36.0139 18.698 36.0509 18.642C36.069 18.6058 36.1006 18.5781 36.1389 18.565C36.1899 18.538 36.1899 18.565 36.2159 18.528C36.2269 18.5183 36.2359 18.5065 36.2422 18.4933C36.2486 18.48 36.2522 18.4657 36.2529 18.451C36.254 18.4431 36.257 18.4355 36.2617 18.4291C36.2664 18.4226 36.2726 18.4174 36.2799 18.414C36.2897 18.4087 36.3007 18.4059 36.3119 18.4059C36.3231 18.4059 36.3341 18.4087 36.3439 18.414C36.354 18.4262 36.3615 18.4402 36.3661 18.4553C36.3708 18.4704 36.3724 18.4863 36.3709 18.502C36.3709 18.545 36.3709 18.654 36.3709 18.713C36.3943 18.6994 36.4208 18.6922 36.4479 18.692H36.4669C36.4779 18.6241 36.4849 18.5557 36.4879 18.487V18.396C36.4998 18.3847 36.5155 18.3785 36.5319 18.3785C36.5483 18.3785 36.564 18.3847 36.5759 18.396C36.6029 18.423 36.6639 18.537 36.7169 18.537H36.8319C36.8829 18.537 36.9839 18.67 36.9839 18.721C36.9839 18.772 36.9839 18.748 36.9569 18.772C36.9299 18.796 36.8049 18.772 36.6899 18.772L36.5809 18.796C36.5809 18.809 36.5299 18.841 36.4739 18.887C36.4435 18.9096 36.4157 18.9354 36.3909 18.964H36.3749C36.3266 19.0223 36.267 19.0701 36.1995 19.1045C36.1321 19.1389 36.0584 19.1592 35.9829 19.164H35.9269C35.8511 19.1582 35.7766 19.1411 35.7059 19.113C35.4819 19.025 35.5219 18.668 35.5219 18.613C35.4578 18.6663 35.3803 18.7008 35.2979 18.713C35.1256 18.7443 34.9481 18.7287 34.7839 18.668C34.5039 18.559 34.4529 18.177 34.4529 18.076C34.3909 18.159 34.3066 18.2228 34.2099 18.26C34.0518 18.3432 33.8693 18.3677 33.6949 18.329C33.4149 18.252 33.3269 18.062 33.1949 17.884C33.1709 17.9166 33.143 17.9461 33.1119 17.972C32.9636 18.0989 32.774 18.1672 32.5789 18.164C32.4642 18.1398 32.3557 18.0923 32.2602 18.0243C32.1648 17.9563 32.0843 17.8694 32.0239 17.769C31.9651 17.8692 31.8861 17.9561 31.792 18.0241C31.6978 18.0921 31.5905 18.1397 31.4769 18.164C31.2804 18.1668 31.09 18.0954 30.9439 17.964C30.9114 17.9416 30.8833 17.9135 30.8609 17.881C30.7329 18.06 30.6449 18.249 30.3609 18.326C30.1884 18.3646 30.0078 18.3401 29.8519 18.257C29.7552 18.2198 29.6709 18.156 29.6089 18.073C29.6089 18.173 29.5579 18.556 29.2779 18.665C29.1134 18.7259 28.9355 18.7415 28.7629 18.71C28.6793 18.6966 28.6005 18.6622 28.5339 18.61C28.5339 18.669 28.5709 19.023 28.3549 19.11C28.2832 19.1383 28.2077 19.1555 28.1309 19.161H28.0749C27.9994 19.1561 27.9256 19.1359 27.8582 19.1015C27.7908 19.0671 27.7311 19.0193 27.6829 18.961H27.6619C27.6368 18.9275 27.6075 18.8972 27.5749 18.871C27.5402 18.8431 27.5038 18.8174 27.4659 18.794C27.4326 18.7757 27.3964 18.7632 27.3589 18.757C27.2703 18.7445 27.1804 18.7445 27.0919 18.757C27.0549 18.757 27.0679 18.757 27.0679 18.706C27.0679 18.655 27.1679 18.546 27.2199 18.522C27.2719 18.498 27.2569 18.522 27.3349 18.522C27.4129 18.522 27.4499 18.407 27.4759 18.381C27.4878 18.3697 27.5035 18.3635 27.5199 18.3635C27.5363 18.3635 27.552 18.3697 27.5639 18.381C27.5909 18.408 27.5639 18.381 27.5639 18.472C27.5669 18.5407 27.5739 18.6091 27.5849 18.677H27.6039C27.6319 18.6767 27.6596 18.684 27.6839 18.698C27.6839 18.639 27.6839 18.527 27.6839 18.487C27.6802 18.4557 27.6888 18.4241 27.7079 18.399C27.7177 18.3937 27.7287 18.3909 27.7399 18.3909C27.7511 18.3909 27.7621 18.3937 27.7719 18.399C27.7785 18.4028 27.7842 18.4081 27.7884 18.4146C27.7926 18.421 27.7951 18.4284 27.7959 18.436C27.7966 18.4507 27.8002 18.465 27.8066 18.4782C27.813 18.4915 27.8219 18.5033 27.8329 18.513C27.8569 18.54 27.8569 18.513 27.9099 18.55C27.9629 18.587 27.9739 18.574 27.9979 18.627C28.0219 18.68 27.9979 18.774 28.0349 18.798C28.0494 18.8052 28.0618 18.8161 28.0707 18.8296C28.0797 18.8432 28.0849 18.8588 28.0859 18.875C28.0866 18.8836 28.0855 18.8923 28.0826 18.9004C28.0796 18.9085 28.0749 18.9158 28.0688 18.922C28.0627 18.9281 28.0554 18.9327 28.0473 18.9357C28.0392 18.9386 28.0305 18.9398 28.0219 18.939C27.9308 18.9184 27.8415 18.8907 27.7549 18.856C27.7534 18.8893 27.7411 18.9213 27.7199 18.947C28.0909 19.171 28.4079 18.899 28.3599 18.51H28.3089C28.2637 18.5107 28.2196 18.496 28.1838 18.4685C28.148 18.4409 28.1226 18.402 28.1117 18.3582C28.1009 18.3143 28.1052 18.2681 28.1239 18.227C28.1427 18.1859 28.1748 18.1523 28.215 18.1318C28.2553 18.1113 28.3013 18.105 28.3456 18.114C28.3899 18.123 28.4298 18.1467 28.4589 18.1813C28.488 18.2159 28.5045 18.2593 28.5058 18.3044C28.5071 18.3496 28.493 18.3938 28.4659 18.43C28.5485 18.4769 28.639 18.5084 28.7329 18.523C28.8206 18.5449 28.9123 18.5461 29.0006 18.5265C29.0889 18.507 29.1714 18.4672 29.2417 18.4102C29.312 18.3533 29.3681 18.2809 29.4056 18.1986C29.4431 18.1163 29.461 18.0264 29.4579 17.936C29.4049 17.937 29.3535 17.9181 29.3139 17.883C29.3139 17.983 29.2739 17.983 29.2499 18.046C29.228 18.1203 29.2189 18.1977 29.2229 18.275C29.2229 18.427 29.1229 18.44 29.1029 18.435C29.0695 18.4124 29.0441 18.3798 29.0303 18.3419C29.0165 18.3041 29.0149 18.2628 29.0259 18.224C29.0259 18.173 28.9429 18.147 28.8789 18.059C28.8517 18.027 28.8325 17.989 28.8228 17.9482C28.813 17.9074 28.8131 17.8648 28.8229 17.824C28.8229 17.792 28.8549 17.741 28.8229 17.704C28.7909 17.667 28.7779 17.685 28.7539 17.648C28.7444 17.6355 28.7387 17.6206 28.7374 17.6049C28.7361 17.5893 28.7392 17.5736 28.7464 17.5597C28.7536 17.5458 28.7647 17.5342 28.7782 17.5263C28.7917 17.5184 28.8072 17.5145 28.8229 17.515C28.8569 17.5167 28.8906 17.5231 28.9229 17.534C28.9999 17.561 29.0319 17.617 29.0879 17.654C29.1334 17.6875 29.1827 17.7154 29.2349 17.737C29.2438 17.6675 29.2797 17.6043 29.3349 17.561H29.3059C29.2276 17.5695 29.1487 17.5516 29.0819 17.51C29.0259 17.486 29.0129 17.454 28.9349 17.459C28.8986 17.4619 28.8622 17.4619 28.8259 17.459C28.7939 17.459 28.7669 17.39 28.7809 17.371C28.8141 17.3322 28.859 17.3052 28.9089 17.294C28.9419 17.2877 28.9758 17.2877 29.0089 17.294C29.0679 17.294 29.0729 17.243 29.0859 17.211C29.0938 17.1749 29.1091 17.1409 29.1309 17.111C29.1622 17.0849 29.1998 17.0674 29.2399 17.06H29.3039C29.3411 17.0586 29.3783 17.0651 29.4129 17.079C29.4449 17.079 29.4689 17.124 29.5129 17.079C29.5569 17.034 29.5319 17.034 29.5769 17.01C29.5955 16.9956 29.6175 16.9863 29.6409 16.9829C29.6642 16.9796 29.688 16.9824 29.7099 16.991C29.721 17.0024 29.7286 17.0167 29.732 17.0323C29.7353 17.0478 29.7343 17.064 29.7289 17.079C29.7123 17.1106 29.6936 17.141 29.6729 17.17C29.6591 17.2249 29.6404 17.2785 29.6169 17.33C29.5928 17.3972 29.548 17.455 29.4889 17.495L29.4489 17.522C29.4844 17.5204 29.5198 17.5276 29.5519 17.5429C29.584 17.5583 29.6118 17.5813 29.6329 17.61C29.6599 17.546 29.7099 17.49 29.7329 17.445C29.7606 17.3818 29.7759 17.3139 29.7779 17.245C29.7779 17.093 29.8869 17.085 29.9109 17.098C29.9349 17.111 29.9749 17.135 29.9749 17.277C29.9749 17.328 30.0749 17.322 30.1269 17.416C30.1585 17.4519 30.1799 17.4956 30.1889 17.5425C30.1979 17.5895 30.1941 17.638 30.1779 17.683C30.1779 17.715 30.1409 17.771 30.1779 17.811C30.2149 17.851 30.2099 17.87 30.2289 17.911C30.2361 17.9269 30.2391 17.9445 30.2374 17.9619C30.2358 17.9793 30.2295 17.996 30.2194 18.0103C30.2093 18.0245 30.1956 18.0359 30.1797 18.0432C30.1639 18.0505 30.1463 18.0536 30.1289 18.052C30.0916 18.0399 30.0575 18.0198 30.0289 17.993C29.9409 17.937 29.9199 17.929 29.8639 17.893C29.8211 17.8623 29.7734 17.839 29.7229 17.824L29.6589 17.8C29.6484 17.8384 29.6272 17.8731 29.5979 17.9C29.6601 17.9763 29.7374 18.0389 29.8249 18.084C29.912 18.1247 30.0072 18.1449 30.1033 18.1433C30.1994 18.1416 30.2939 18.118 30.3795 18.0743C30.4651 18.0307 30.5397 17.968 30.5974 17.8912C30.6552 17.8144 30.6947 17.7254 30.7129 17.631C30.6476 17.6227 30.5876 17.5911 30.5438 17.542C30.5001 17.4928 30.4757 17.4295 30.4751 17.3637C30.4744 17.2979 30.4977 17.2342 30.5405 17.1842C30.5833 17.1342 30.6427 17.1015 30.7078 17.092C30.7729 17.0825 30.8392 17.0969 30.8945 17.1326C30.9498 17.1682 30.9903 17.2227 31.0084 17.2859C31.0266 17.3491 31.0213 17.4168 30.9934 17.4764C30.9656 17.536 30.9171 17.5834 30.8569 17.61C30.8748 17.6428 30.8955 17.6739 30.9189 17.703C30.9895 17.7918 31.0838 17.8587 31.1908 17.896C31.2979 17.9334 31.4134 17.9396 31.5239 17.914C31.6258 17.8957 31.7201 17.8481 31.7954 17.7771C31.8707 17.7061 31.9237 17.6146 31.9479 17.514C31.9036 17.5039 31.8624 17.4834 31.8276 17.4542C31.7928 17.4249 31.7655 17.3879 31.7479 17.346C31.7415 17.3993 31.7211 17.45 31.6889 17.493C31.6447 17.5487 31.6061 17.6086 31.5739 17.672C31.5541 17.7179 31.5282 17.761 31.4969 17.8C31.4869 17.81 31.4748 17.8176 31.4615 17.8223C31.4481 17.827 31.4339 17.8286 31.4199 17.827C31.3987 17.8196 31.3801 17.8063 31.3664 17.7885C31.3528 17.7707 31.3446 17.7494 31.3429 17.727C31.3426 17.6663 31.3335 17.606 31.3159 17.548C31.2889 17.497 31.1749 17.46 31.1749 17.305C31.1749 17.15 31.2629 17.126 31.2899 17.076C31.2855 17.0052 31.2765 16.9347 31.2629 16.865C31.2629 16.814 31.2999 16.765 31.3269 16.765C31.3546 16.7669 31.3815 16.7747 31.4058 16.788C31.4302 16.8013 31.4513 16.8197 31.4679 16.842C31.4908 16.8883 31.5252 16.9279 31.5679 16.957C31.6163 16.9904 31.6595 17.0308 31.6959 17.077C31.7138 17.1007 31.7264 17.128 31.7329 17.157C31.7471 17.1106 31.773 17.0686 31.808 17.035C31.843 17.0014 31.886 16.9773 31.9329 16.965H31.8979C31.8198 16.9436 31.75 16.8989 31.6979 16.837C31.6469 16.786 31.6469 16.749 31.5699 16.722C31.4929 16.695 31.4929 16.695 31.4699 16.671C31.4593 16.6565 31.4536 16.639 31.4536 16.621C31.4536 16.603 31.4593 16.5855 31.4699 16.571C31.4904 16.5532 31.515 16.5405 31.5414 16.5341C31.5678 16.5277 31.5954 16.5276 31.6219 16.534C31.657 16.5409 31.6907 16.5534 31.7219 16.571C31.7729 16.598 31.7859 16.571 31.8099 16.571C31.8339 16.571 31.8659 16.483 31.9099 16.456C31.9367 16.4391 31.9677 16.4302 31.9994 16.4302C32.0311 16.4302 32.0621 16.4391 32.0889 16.456C32.1307 16.4861 32.1649 16.5254 32.1889 16.571C32.2209 16.598 32.2339 16.608 32.2889 16.571C32.32 16.5535 32.3538 16.541 32.3889 16.534C32.4153 16.5276 32.4429 16.5277 32.4694 16.5341C32.4958 16.5405 32.5203 16.5532 32.5409 16.571C32.5515 16.5855 32.5572 16.603 32.5572 16.621C32.5572 16.639 32.5515 16.6565 32.5409 16.671C32.5169 16.698 32.5169 16.698 32.4409 16.722C32.3649 16.746 32.3639 16.786 32.3129 16.837C32.2578 16.9008 32.184 16.9456 32.1019 16.965H32.0749C32.1221 16.9762 32.1657 16.9993 32.2016 17.032C32.2375 17.0647 32.2644 17.106 32.2799 17.152C32.2877 17.1244 32.3013 17.0988 32.3199 17.077C32.3247 17.067 32.3311 17.0579 32.3389 17.05C32.3606 17.0273 32.3836 17.0059 32.4079 16.986C32.4189 16.9739 32.4313 16.9632 32.4449 16.954C32.4578 16.9496 32.4691 16.9412 32.4769 16.93C32.5078 16.9078 32.5317 16.8773 32.5459 16.842C32.5658 16.8165 32.5925 16.7971 32.6229 16.786C32.642 16.7738 32.6642 16.7673 32.6869 16.767C32.7055 16.7764 32.7213 16.7907 32.7325 16.8083C32.7438 16.8259 32.7501 16.8461 32.7509 16.867C32.7373 16.9366 32.7286 17.0072 32.7249 17.078C32.7354 17.0944 32.7478 17.1095 32.7619 17.123C32.8061 17.1666 32.8313 17.2259 32.8319 17.288V17.325C32.829 17.3826 32.8043 17.4369 32.7629 17.477C32.738 17.4965 32.7164 17.5198 32.6989 17.546C32.6839 17.6046 32.6749 17.6646 32.6719 17.725C32.6713 17.7428 32.6664 17.7601 32.6575 17.7755C32.6486 17.7908 32.636 17.8037 32.6209 17.813C32.6121 17.8156 32.6027 17.8156 32.5939 17.813H32.5489C32.5423 17.8132 32.5358 17.8115 32.5301 17.8081C32.5245 17.8047 32.5199 17.7999 32.5169 17.794C32.4989 17.7779 32.4837 17.759 32.4719 17.738C32.4657 17.7132 32.4549 17.6897 32.4399 17.669L32.4029 17.605L32.3339 17.496C32.2972 17.4518 32.2739 17.398 32.2669 17.341C32.2486 17.3834 32.2205 17.4207 32.1849 17.45C32.1492 17.4792 32.107 17.4995 32.0619 17.509C32.0866 17.6107 32.1408 17.7029 32.2176 17.7741C32.2945 17.8452 32.3906 17.8921 32.4939 17.909C32.6036 17.9336 32.7181 17.9268 32.8241 17.8895C32.9302 17.8522 33.0237 17.7859 33.0939 17.698C33.1182 17.6667 33.1396 17.6332 33.1579 17.598H33.1309C33.1053 17.5848 33.0834 17.5656 33.0669 17.542" fill="white"/>
<path d="M28.913 16.9079C28.913 16.8424 28.9323 16.7784 28.9687 16.724C29.0051 16.6696 29.0568 16.6272 29.1173 16.6021C29.1778 16.5771 29.2443 16.5705 29.3085 16.5833C29.3727 16.596 29.4317 16.6276 29.478 16.6739C29.5243 16.7201 29.5558 16.7791 29.5686 16.8433C29.5814 16.9075 29.5748 16.9741 29.5497 17.0346C29.5247 17.0951 29.4823 17.1468 29.4279 17.1831C29.3734 17.2195 29.3094 17.2389 29.244 17.2389C29.1562 17.2389 29.072 17.204 29.0099 17.142C28.9478 17.0799 28.913 16.9957 28.913 16.9079Z" fill="white"/>
<path d="M29.0609 15.0729C29.0639 15.013 29.0842 14.9552 29.1194 14.9066C29.1545 14.858 29.203 14.8206 29.259 14.7991C29.315 14.7775 29.3761 14.7726 29.4348 14.7851C29.4935 14.7975 29.5473 14.8267 29.5897 14.8691C29.6321 14.9115 29.6614 14.9654 29.6738 15.0241C29.6862 15.0828 29.6814 15.1438 29.6598 15.1998C29.6382 15.2558 29.6008 15.3043 29.5522 15.3395C29.5036 15.3747 29.4459 15.395 29.3859 15.3979C29.2997 15.3979 29.217 15.3637 29.1561 15.3028C29.0951 15.2418 29.0609 15.1591 29.0609 15.0729Z" fill="white"/>
<path d="M29.5829 14.729C29.5873 14.6646 29.6149 14.6041 29.6605 14.5585C29.706 14.5129 29.7666 14.4854 29.8309 14.481C29.8799 14.4812 29.9278 14.4959 29.9685 14.5232C30.0092 14.5505 30.0409 14.5892 30.0597 14.6345C30.0785 14.6798 30.0835 14.7296 30.0741 14.7777C30.0647 14.8258 30.0414 14.8701 30.0069 14.905C29.9838 14.9281 29.9564 14.9464 29.9261 14.9587C29.8959 14.9711 29.8636 14.9773 29.8309 14.977C29.7651 14.977 29.702 14.9508 29.6555 14.9043C29.609 14.8578 29.5829 14.7947 29.5829 14.729Z" fill="white"/>
<path d="M30.0529 14.5909C30.0479 14.5427 30.0576 14.494 30.0807 14.4514C30.1039 14.4087 30.1394 14.3741 30.1827 14.3521C30.2259 14.3301 30.2748 14.3217 30.3229 14.328C30.371 14.3343 30.4161 14.355 30.4521 14.3875C30.4882 14.4199 30.5136 14.4626 30.525 14.5097C30.5363 14.5569 30.5331 14.6064 30.5158 14.6517C30.4984 14.697 30.4677 14.736 30.4278 14.7636C30.3878 14.7911 30.3404 14.8059 30.2919 14.8059C30.2325 14.8062 30.1751 14.7844 30.1309 14.7446C30.0867 14.7049 30.0589 14.6501 30.0529 14.5909Z" fill="white"/>
<path d="M30.5439 14.5769C30.5439 14.5374 30.5557 14.4987 30.5776 14.4658C30.5996 14.433 30.6308 14.4073 30.6674 14.3922C30.7039 14.377 30.7442 14.3731 30.783 14.3808C30.8218 14.3885 30.8574 14.4076 30.8853 14.4355C30.9133 14.4635 30.9324 14.4991 30.9401 14.5379C30.9478 14.5767 30.9438 14.6169 30.9287 14.6535C30.9136 14.69 30.8879 14.7213 30.855 14.7433C30.8222 14.7652 30.7835 14.777 30.7439 14.777C30.6909 14.777 30.64 14.7559 30.6025 14.7184C30.565 14.6809 30.5439 14.63 30.5439 14.5769Z" fill="white"/>
<path d="M30.939 14.6299C30.939 14.5904 30.9507 14.5517 30.9727 14.5188C30.9947 14.4859 31.0259 14.4603 31.0624 14.4451C31.099 14.43 31.1392 14.4261 31.178 14.4338C31.2168 14.4415 31.2524 14.4605 31.2804 14.4885C31.3084 14.5165 31.3274 14.5521 31.3351 14.5909C31.3429 14.6297 31.3389 14.6699 31.3238 14.7065C31.3086 14.743 31.283 14.7742 31.2501 14.7962C31.2172 14.8182 31.1785 14.8299 31.139 14.8299C31.0859 14.8299 31.0351 14.8089 30.9976 14.7713C30.9601 14.7338 30.939 14.683 30.939 14.6299Z" fill="white"/>
<path d="M31.3199 14.719C31.3199 14.6899 31.3286 14.6615 31.3447 14.6374C31.3609 14.6132 31.3838 14.5943 31.4107 14.5832C31.4375 14.5721 31.4671 14.5692 31.4956 14.5748C31.5241 14.5805 31.5503 14.5945 31.5709 14.6151C31.5915 14.6356 31.6054 14.6618 31.6111 14.6904C31.6168 14.7189 31.6139 14.7484 31.6028 14.7753C31.5916 14.8021 31.5728 14.8251 31.5486 14.8412C31.5244 14.8574 31.496 14.866 31.4669 14.866C31.428 14.866 31.3906 14.8505 31.363 14.823C31.3354 14.7954 31.3199 14.758 31.3199 14.719Z" fill="white"/>
<path d="M31.6019 14.831C31.606 14.8044 31.6186 14.7797 31.6378 14.7608C31.657 14.7419 31.6818 14.7297 31.7085 14.726C31.7352 14.7223 31.7624 14.7274 31.786 14.7405C31.8096 14.7535 31.8283 14.7738 31.8394 14.7984C31.8505 14.823 31.8534 14.8505 31.8476 14.8768C31.8418 14.9031 31.8276 14.9269 31.8072 14.9445C31.7867 14.9621 31.7612 14.9726 31.7343 14.9745C31.7074 14.9764 31.6806 14.9696 31.6579 14.955C31.6377 14.9419 31.6217 14.9232 31.6118 14.9012C31.6018 14.8792 31.5984 14.8549 31.6019 14.831Z" fill="white"/>
<path d="M31.8309 14.9611C31.8309 14.908 31.852 14.8572 31.8895 14.8196C31.927 14.7821 31.9779 14.7611 32.0309 14.7611C32.0574 14.7604 32.0837 14.7651 32.1083 14.7749C32.1328 14.7847 32.1552 14.7994 32.1739 14.8181C32.1926 14.8368 32.2073 14.8591 32.2171 14.8837C32.2269 14.9083 32.2316 14.9346 32.2309 14.9611C32.2325 14.9877 32.2284 15.0145 32.2189 15.0394C32.2095 15.0644 32.1948 15.0871 32.1759 15.106C32.157 15.1249 32.1343 15.1396 32.1093 15.1491C32.0843 15.1586 32.0576 15.1627 32.0309 15.1611C32.0044 15.1619 31.978 15.1573 31.9534 15.1475C31.9288 15.1378 31.9064 15.1231 31.8876 15.1043C31.8689 15.0856 31.8542 15.0632 31.8444 15.0386C31.8347 15.0139 31.8301 14.9876 31.8309 14.9611Z" fill="white"/>
<path d="M31.797 15.387C31.7967 15.3568 31.8025 15.3269 31.8139 15.299C31.8253 15.2711 31.8422 15.2458 31.8635 15.2244C31.8848 15.2031 31.9102 15.1863 31.9381 15.1748C31.966 15.1634 31.9959 15.1577 32.026 15.158C32.0713 15.158 32.1156 15.1714 32.1532 15.1966C32.1909 15.2217 32.2203 15.2575 32.2376 15.2993C32.2549 15.3412 32.2595 15.3872 32.2506 15.4316C32.2418 15.4761 32.22 15.5169 32.1879 15.5489C32.1559 15.5809 32.1151 15.6027 32.0707 15.6116C32.0263 15.6204 31.9802 15.6159 31.9384 15.5985C31.8965 15.5812 31.8608 15.5518 31.8356 15.5142C31.8104 15.4765 31.797 15.4322 31.797 15.387Z" fill="white"/>
<path d="M31.7579 15.89C31.7573 15.8338 31.7735 15.7786 31.8043 15.7316C31.8352 15.6846 31.8794 15.6479 31.9312 15.6261C31.983 15.6043 32.0402 15.5985 32.0954 15.6093C32.1505 15.6201 32.2012 15.6471 32.241 15.6869C32.2808 15.7266 32.3078 15.7773 32.3186 15.8325C32.3294 15.8877 32.3235 15.9448 32.3018 15.9967C32.28 16.0485 32.2432 16.0927 32.1962 16.1236C32.1492 16.1544 32.0941 16.1706 32.0379 16.17C32.0006 16.1718 31.9634 16.1659 31.9286 16.1525C31.8938 16.1391 31.8621 16.1185 31.8358 16.0921C31.8094 16.0657 31.7888 16.0341 31.7754 15.9993C31.762 15.9645 31.756 15.9272 31.7579 15.89Z" fill="white"/>
<path d="M31.6719 16.5251C31.6728 16.4429 31.7023 16.3635 31.7551 16.3006C31.808 16.2377 31.8811 16.1951 31.9619 16.1801C32.0428 16.165 32.1263 16.1785 32.1983 16.2182C32.2703 16.2579 32.3262 16.3213 32.3567 16.3977C32.3871 16.474 32.3901 16.5586 32.3651 16.6369C32.3401 16.7152 32.2888 16.7825 32.2197 16.8271C32.1507 16.8718 32.0684 16.8911 31.9867 16.8818C31.905 16.8725 31.8291 16.8351 31.7719 16.7761C31.7068 16.7089 31.6708 16.6187 31.6719 16.5251Z" fill="white"/>
<path d="M27.261 18.477C27.261 18.4177 27.2786 18.3597 27.3116 18.3103C27.3445 18.261 27.3914 18.2225 27.4462 18.1998C27.501 18.1771 27.5613 18.1712 27.6195 18.1828C27.6777 18.1943 27.7312 18.2229 27.7731 18.2649C27.8151 18.3068 27.8436 18.3603 27.8552 18.4185C27.8668 18.4767 27.8609 18.537 27.8382 18.5918C27.8155 18.6466 27.777 18.6935 27.7277 18.7264C27.6783 18.7594 27.6203 18.777 27.561 18.777C27.4814 18.777 27.4051 18.7454 27.3488 18.6891C27.2926 18.6329 27.261 18.5566 27.261 18.477Z" fill="white"/>
<path d="M26.954 17.927C26.9535 17.85 26.9798 17.7752 27.0282 17.7154C27.0767 17.6556 27.1444 17.6144 27.2198 17.5989C27.2952 17.5834 27.3736 17.5944 27.4417 17.6302C27.5099 17.666 27.5635 17.7243 27.5936 17.7951C27.6236 17.866 27.6282 17.9451 27.6065 18.0189C27.5847 18.0928 27.5381 18.1568 27.4745 18.2002C27.4109 18.2436 27.3343 18.2635 27.2576 18.2567C27.1809 18.25 27.109 18.2168 27.054 18.163C27.0226 18.1322 26.9975 18.0955 26.9804 18.055C26.9632 18.0145 26.9542 17.971 26.954 17.927Z" fill="white"/>
<path d="M26.854 17.3261C26.8536 17.2651 26.8713 17.2052 26.9049 17.1542C26.9385 17.1032 26.9864 17.0633 27.0427 17.0395C27.0989 17.0157 27.161 17.0092 27.221 17.0206C27.2809 17.0321 27.3362 17.061 27.3797 17.1039C27.4233 17.1467 27.4531 17.2015 27.4656 17.2613C27.478 17.3211 27.4724 17.3832 27.4495 17.4398C27.4267 17.4965 27.3875 17.545 27.337 17.5794C27.2866 17.6138 27.2271 17.6325 27.166 17.6331C27.1253 17.6335 27.085 17.6259 27.0473 17.6107C27.0096 17.5954 26.9753 17.5729 26.9463 17.5444C26.9173 17.5159 26.8942 17.4819 26.8784 17.4445C26.8626 17.407 26.8543 17.3668 26.854 17.3261Z" fill="white"/>
<path d="M26.975 16.748C26.9731 16.7108 26.9791 16.6735 26.9925 16.6387C27.0059 16.6039 27.0265 16.5723 27.0528 16.5459C27.0792 16.5195 27.1109 16.499 27.1457 16.4855C27.1805 16.4721 27.2177 16.4662 27.255 16.468C27.2935 16.4657 27.3321 16.4713 27.3683 16.4845C27.4046 16.4977 27.4378 16.5181 27.4659 16.5446C27.494 16.571 27.5163 16.6029 27.5316 16.6383C27.5469 16.6738 27.5548 16.712 27.5548 16.7505C27.5548 16.7891 27.5469 16.8273 27.5316 16.8627C27.5163 16.8981 27.494 16.93 27.4659 16.9565C27.4378 16.983 27.4046 17.0034 27.3683 17.0166C27.3321 17.0297 27.2935 17.0353 27.255 17.033C27.2173 17.035 27.1796 17.0289 27.1444 17.0151C27.1092 17.0014 27.0774 16.9804 27.0509 16.9535C27.0244 16.9266 27.004 16.8943 26.9909 16.8589C26.9778 16.8235 26.9724 16.7857 26.975 16.748Z" fill="white"/>
<path d="M27.215 16.289C27.215 16.2362 27.2306 16.1846 27.2599 16.1406C27.2893 16.0967 27.331 16.0625 27.3798 16.0423C27.4285 16.0221 27.4822 16.0168 27.534 16.0271C27.5858 16.0374 27.6334 16.0628 27.6707 16.1002C27.7081 16.1375 27.7335 16.1851 27.7438 16.2369C27.7541 16.2887 27.7488 16.3424 27.7286 16.3912C27.7084 16.4399 27.6742 16.4816 27.6303 16.511C27.5864 16.5403 27.5348 16.556 27.482 16.556C27.4112 16.556 27.3432 16.5278 27.2932 16.4778C27.2431 16.4277 27.215 16.3598 27.215 16.289Z" fill="white"/>
<path d="M27.5779 15.9459C27.5779 15.9016 27.591 15.8583 27.6156 15.8215C27.6402 15.7846 27.6753 15.7559 27.7162 15.739C27.7571 15.722 27.8021 15.7176 27.8456 15.7262C27.889 15.7349 27.929 15.7562 27.9603 15.7875C27.9916 15.8189 28.0129 15.8588 28.0216 15.9022C28.0302 15.9457 28.0258 15.9907 28.0089 16.0316C27.9919 16.0726 27.9632 16.1076 27.9263 16.1322C27.8895 16.1568 27.8462 16.1699 27.8019 16.1699C27.7427 16.1691 27.6862 16.1453 27.6443 16.1035C27.6025 16.0616 27.5787 16.0051 27.5779 15.9459Z" fill="white"/>
<path d="M27.985 15.7581C27.985 15.7185 27.9967 15.6799 28.0187 15.647C28.0407 15.6141 28.0719 15.5885 28.1085 15.5733C28.145 15.5582 28.1852 15.5542 28.224 15.5619C28.2628 15.5697 28.2984 15.5887 28.3264 15.6167C28.3544 15.6447 28.3734 15.6803 28.3811 15.7191C28.3889 15.7579 28.3849 15.7981 28.3698 15.8346C28.3546 15.8712 28.329 15.9024 28.2961 15.9244C28.2632 15.9464 28.2246 15.9581 28.185 15.9581C28.132 15.9581 28.0811 15.937 28.0436 15.8995C28.0061 15.862 27.985 15.8111 27.985 15.7581Z" fill="white"/>
<path d="M28.3799 15.6781C28.3799 15.6327 28.3979 15.5893 28.43 15.5572C28.462 15.5251 28.5055 15.5071 28.5509 15.5071C28.575 15.5045 28.5994 15.507 28.6226 15.5144C28.6457 15.5219 28.667 15.5341 28.685 15.5504C28.7031 15.5666 28.7176 15.5864 28.7274 15.6086C28.7373 15.6308 28.7425 15.6548 28.7425 15.6791C28.7425 15.7034 28.7373 15.7274 28.7274 15.7496C28.7176 15.7718 28.7031 15.7916 28.685 15.8078C28.667 15.8241 28.6457 15.8363 28.6226 15.8437C28.5994 15.8512 28.575 15.8537 28.5509 15.8511C28.5055 15.8511 28.462 15.8331 28.43 15.801C28.3979 15.769 28.3799 15.7254 28.3799 15.6801" fill="white"/>
<path d="M34.479 16.9079C34.479 16.8424 34.4984 16.7784 34.5348 16.724C34.5712 16.6696 34.6228 16.6272 34.6833 16.6021C34.7438 16.5771 34.8104 16.5705 34.8746 16.5833C34.9388 16.596 34.9977 16.6276 35.044 16.6739C35.0903 16.7201 35.1219 16.7791 35.1346 16.8433C35.1474 16.9075 35.1409 16.9741 35.1158 17.0346C35.0908 17.0951 35.0483 17.1468 34.9939 17.1831C34.9395 17.2195 34.8755 17.2389 34.81 17.2389C34.7222 17.2389 34.638 17.204 34.5759 17.142C34.5139 17.0799 34.479 16.9957 34.479 16.9079Z" fill="white"/>
<path d="M34.345 15.0729C34.3479 15.013 34.3682 14.9552 34.4034 14.9066C34.4386 14.858 34.4871 14.8206 34.5431 14.7991C34.5991 14.7775 34.6601 14.7726 34.7188 14.7851C34.7775 14.7975 34.8314 14.8267 34.8738 14.8691C34.9162 14.9115 34.9454 14.9654 34.9579 15.0241C34.9703 15.0828 34.9654 15.1438 34.9438 15.1998C34.9223 15.2558 34.8849 15.3043 34.8363 15.3395C34.7877 15.3747 34.7299 15.395 34.67 15.3979C34.5838 15.3979 34.5011 15.3637 34.4402 15.3028C34.3792 15.2418 34.345 15.1591 34.345 15.0729Z" fill="white"/>
<path d="M33.9739 14.729C33.9739 14.6632 34 14.6001 34.0465 14.5536C34.093 14.5071 34.1561 14.481 34.2219 14.481C34.2862 14.4854 34.3467 14.5129 34.3923 14.5585C34.4379 14.6041 34.4655 14.6646 34.4699 14.729C34.4699 14.7947 34.4438 14.8578 34.3973 14.9043C34.3508 14.9508 34.2877 14.977 34.2219 14.977C34.1892 14.9774 34.1568 14.9712 34.1265 14.9589C34.0962 14.9466 34.0688 14.9283 34.0456 14.9052C34.0225 14.8821 34.0043 14.8546 33.992 14.8243C33.9796 14.7941 33.9735 14.7616 33.9739 14.729Z" fill="white"/>
<path d="M33.5229 14.5909C33.5179 14.5427 33.5276 14.494 33.5507 14.4514C33.5739 14.4087 33.6094 14.3741 33.6526 14.3521C33.6959 14.3301 33.7448 14.3217 33.7929 14.328C33.841 14.3343 33.886 14.355 33.9221 14.3875C33.9582 14.4199 33.9836 14.4626 33.995 14.5097C34.0063 14.5569 34.0031 14.6064 33.9857 14.6517C33.9684 14.697 33.9377 14.736 33.8978 14.7636C33.8578 14.7911 33.8104 14.8059 33.7619 14.8059C33.7025 14.806 33.6452 14.7841 33.6011 14.7444C33.557 14.7046 33.5291 14.65 33.5229 14.5909Z" fill="white"/>
<path d="M33.116 14.5769C33.116 14.5374 33.1277 14.4987 33.1497 14.4658C33.1716 14.433 33.2029 14.4073 33.2394 14.3922C33.276 14.377 33.3162 14.3731 33.355 14.3808C33.3938 14.3885 33.4294 14.4076 33.4574 14.4355C33.4854 14.4635 33.5044 14.4991 33.5121 14.5379C33.5198 14.5767 33.5159 14.6169 33.5007 14.6535C33.4856 14.69 33.46 14.7213 33.4271 14.7433C33.3942 14.7652 33.3555 14.777 33.3159 14.777C33.2629 14.777 33.212 14.7559 33.1745 14.7184C33.137 14.6809 33.116 14.63 33.116 14.5769Z" fill="white"/>
<path d="M32.728 14.63C32.7269 14.6041 32.731 14.5783 32.7402 14.554C32.7494 14.5298 32.7633 14.5077 32.7813 14.489C32.7992 14.4703 32.8207 14.4555 32.8446 14.4453C32.8684 14.4352 32.894 14.43 32.9199 14.43C32.9485 14.4254 32.9777 14.4271 33.0056 14.4349C33.0334 14.4428 33.0592 14.4565 33.0813 14.4753C33.1033 14.4941 33.121 14.5174 33.1331 14.5437C33.1452 14.57 33.1515 14.5986 33.1515 14.6275C33.1515 14.6564 33.1452 14.685 33.1331 14.7113C33.121 14.7375 33.1033 14.7609 33.0813 14.7796C33.0592 14.7984 33.0334 14.8122 33.0056 14.82C32.9777 14.8278 32.9485 14.8295 32.9199 14.825C32.894 14.825 32.8684 14.8198 32.8446 14.8096C32.8207 14.7995 32.7992 14.7846 32.7813 14.766C32.7633 14.7473 32.7494 14.7252 32.7402 14.7009C32.731 14.6767 32.7269 14.6509 32.728 14.625" fill="white"/>
<path d="M32.4419 14.7191C32.4422 14.6994 32.4463 14.68 32.4541 14.662C32.4619 14.6439 32.4732 14.6276 32.4873 14.6139C32.5014 14.6003 32.5181 14.5895 32.5364 14.5823C32.5547 14.5752 32.5743 14.5717 32.5939 14.5721C32.6133 14.5716 32.6326 14.5752 32.6506 14.5824C32.6687 14.5897 32.685 14.6005 32.6988 14.6142C32.7125 14.6279 32.7233 14.6443 32.7306 14.6623C32.7378 14.6803 32.7413 14.6996 32.7409 14.7191C32.7413 14.7387 32.7378 14.7582 32.7306 14.7765C32.7234 14.7948 32.7127 14.8115 32.699 14.8257C32.6854 14.8398 32.669 14.8511 32.651 14.8589C32.633 14.8667 32.6136 14.8708 32.5939 14.871C32.5538 14.8703 32.5156 14.854 32.4873 14.8257C32.4589 14.7973 32.4427 14.7591 32.4419 14.7191Z" fill="white"/>
<path d="M32.2129 14.8309C32.2135 14.8065 32.2212 14.7827 32.2352 14.7627C32.2492 14.7426 32.2687 14.727 32.2914 14.7179C32.3142 14.7088 32.339 14.7066 32.363 14.7115C32.387 14.7165 32.4089 14.7283 32.4262 14.7456C32.4435 14.7629 32.4554 14.7849 32.4603 14.8088C32.4652 14.8328 32.463 14.8577 32.4539 14.8804C32.4448 14.9031 32.4293 14.9227 32.4092 14.9366C32.3891 14.9506 32.3654 14.9584 32.3409 14.9589C32.307 14.9589 32.2744 14.9455 32.2504 14.9215C32.2264 14.8975 32.2129 14.8649 32.2129 14.8309Z" fill="white"/>
<path d="M36.434 17.9279C36.4338 17.8522 36.4598 17.7788 36.5075 17.7201C36.5553 17.6614 36.6219 17.621 36.696 17.6058C36.7702 17.5906 36.8473 17.6015 36.9143 17.6367C36.9813 17.6718 37.0341 17.729 37.0638 17.7987C37.0934 17.8683 37.098 17.9461 37.0769 18.0187C37.0558 18.0914 37.0102 18.1545 36.9478 18.1974C36.8854 18.2403 36.8101 18.2603 36.7347 18.254C36.6593 18.2477 36.5884 18.2155 36.534 18.1629C36.5026 18.1323 36.4776 18.0958 36.4604 18.0554C36.4432 18.0151 36.4342 17.9718 36.434 17.9279Z" fill="white"/>
<path d="M36.599 17.326C36.5976 17.2661 36.6142 17.2071 36.6466 17.1567C36.679 17.1063 36.7258 17.0668 36.7809 17.0432C36.836 17.0196 36.8969 17.0131 36.9557 17.0245C37.0145 17.0358 37.0686 17.0645 37.111 17.1069C37.1534 17.1493 37.1821 17.2034 37.1934 17.2622C37.2048 17.321 37.1983 17.3819 37.1747 17.437C37.1511 17.4921 37.1116 17.5389 37.0612 17.5713C37.0108 17.6037 36.9519 17.6203 36.892 17.619C36.8148 17.6172 36.7413 17.5857 36.6868 17.5312C36.6322 17.4766 36.6007 17.4031 36.599 17.326Z" fill="white"/>
<path d="M36.5289 16.7489C36.5289 16.6961 36.5446 16.6445 36.5739 16.6006C36.6033 16.5567 36.645 16.5225 36.6938 16.5023C36.7425 16.4821 36.7962 16.4768 36.848 16.4871C36.8998 16.4974 36.9474 16.5228 36.9847 16.5601C37.0221 16.5975 37.0475 16.645 37.0578 16.6968C37.0681 16.7486 37.0628 16.8023 37.0426 16.8511C37.0224 16.8999 36.9882 16.9416 36.9443 16.9709C36.9004 17.0003 36.8487 17.0159 36.7959 17.0159C36.7251 17.0159 36.6572 16.9878 36.6071 16.9377C36.5571 16.8877 36.5289 16.8197 36.5289 16.7489Z" fill="white"/>
<path d="M36.3379 16.289C36.3379 16.24 36.3524 16.192 36.3797 16.1512C36.4069 16.1105 36.4457 16.0787 36.491 16.0599C36.5363 16.0411 36.5862 16.0362 36.6343 16.0458C36.6824 16.0553 36.7266 16.079 36.7613 16.1137C36.7959 16.1483 36.8196 16.1925 36.8291 16.2406C36.8387 16.2887 36.8338 16.3386 36.815 16.3839C36.7962 16.4292 36.7644 16.468 36.7237 16.4952C36.6829 16.5225 36.6349 16.537 36.5859 16.537C36.5201 16.537 36.457 16.5109 36.4105 16.4644C36.364 16.4179 36.3379 16.3548 36.3379 16.289Z" fill="white"/>
<path d="M36.032 15.946C36.0326 15.9024 36.046 15.86 36.0707 15.8241C36.0953 15.7881 36.13 15.7603 36.1705 15.744C36.2109 15.7277 36.2552 15.7238 36.2979 15.7326C36.3406 15.7415 36.3797 15.7628 36.4103 15.7938C36.4409 15.8248 36.4617 15.8642 36.4699 15.907C36.4782 15.9498 36.4737 15.9941 36.4569 16.0343C36.4401 16.0745 36.4117 16.1088 36.3755 16.133C36.3392 16.1571 36.2966 16.17 36.253 16.17C36.1943 16.1685 36.1386 16.1443 36.0974 16.1025C36.0562 16.0608 36.0327 16.0047 36.032 15.946Z" fill="white"/>
<path d="M35.6779 15.7579C35.6772 15.7315 35.6819 15.7052 35.6917 15.6806C35.7016 15.656 35.7162 15.6337 35.735 15.615C35.7537 15.5963 35.776 15.5816 35.8006 15.5718C35.8251 15.5619 35.8515 15.5572 35.8779 15.5579C35.9249 15.5654 35.9677 15.5894 35.9986 15.6256C36.0294 15.6618 36.0464 15.7079 36.0464 15.7554C36.0464 15.803 36.0294 15.849 35.9986 15.8852C35.9677 15.9214 35.9249 15.9454 35.8779 15.9529C35.8515 15.9536 35.8251 15.9489 35.8006 15.9391C35.776 15.9293 35.7537 15.9146 35.735 15.8959C35.7162 15.8772 35.7016 15.8548 35.6917 15.8303C35.6819 15.8057 35.6772 15.7794 35.6779 15.7529" fill="white"/>
<path d="M35.318 15.6781C35.318 15.6327 35.336 15.5893 35.3681 15.5572C35.4001 15.5251 35.4436 15.5071 35.489 15.5071C35.5131 15.5045 35.5376 15.507 35.5607 15.5144C35.5838 15.5219 35.6051 15.5341 35.6231 15.5504C35.6412 15.5666 35.6557 15.5864 35.6656 15.6086C35.6755 15.6308 35.6806 15.6548 35.6806 15.6791C35.6806 15.7034 35.6755 15.7274 35.6656 15.7496C35.6557 15.7718 35.6412 15.7916 35.6231 15.8078C35.6051 15.8241 35.5838 15.8363 35.5607 15.8437C35.5376 15.8512 35.5131 15.8537 35.489 15.8511C35.4436 15.8511 35.4001 15.8331 35.3681 15.801C35.336 15.769 35.318 15.7254 35.318 15.6801" fill="white"/>
<path d="M28.7179 15.6049C28.7175 15.528 28.7437 15.4532 28.7922 15.3934C28.8406 15.3336 28.9083 15.2924 28.9837 15.2769C29.0591 15.2613 29.1375 15.2724 29.2057 15.3082C29.2738 15.3439 29.3275 15.4022 29.3575 15.4731C29.3876 15.544 29.3921 15.6231 29.3704 15.6969C29.3487 15.7708 29.3021 15.8348 29.2385 15.8782C29.1749 15.9215 29.0982 15.9415 29.0216 15.9347C28.9449 15.9279 28.8729 15.8948 28.8179 15.8409C28.7865 15.8102 28.7615 15.7735 28.7443 15.7329C28.7271 15.6924 28.7182 15.6489 28.7179 15.6049Z" fill="white"/>
<path d="M28.7179 15.6049C28.7175 15.528 28.7437 15.4532 28.7922 15.3934C28.8406 15.3336 28.9083 15.2924 28.9837 15.2769C29.0591 15.2613 29.1375 15.2724 29.2057 15.3082C29.2738 15.3439 29.3275 15.4022 29.3575 15.4731C29.3876 15.544 29.3921 15.6231 29.3704 15.6969C29.3487 15.7708 29.3021 15.8348 29.2385 15.8782C29.1749 15.9215 29.0982 15.9415 29.0216 15.9347C28.9449 15.9279 28.8729 15.8948 28.8179 15.8409C28.7865 15.8102 28.7615 15.7735 28.7443 15.7329C28.7271 15.6924 28.7182 15.6489 28.7179 15.6049Z" fill="white"/>
<path d="M28.5909 16.275C28.5905 16.1862 28.6208 16.1 28.6767 16.0311C28.7326 15.9621 28.8107 15.9146 28.8976 15.8968C28.9846 15.8789 29.0751 15.8917 29.1537 15.933C29.2322 15.9744 29.2941 16.0416 29.3286 16.1234C29.3632 16.2051 29.3684 16.2964 29.3433 16.3815C29.3182 16.4667 29.2643 16.5405 29.1909 16.5904C29.1175 16.6404 29.0291 16.6633 28.9407 16.6554C28.8523 16.6475 28.7693 16.6092 28.706 16.547C28.6698 16.5115 28.641 16.4691 28.6213 16.4225C28.6015 16.3758 28.5912 16.3256 28.5909 16.275Z" fill="white"/>
<path d="M34.683 15.6031C34.6824 15.5609 34.69 15.519 34.7056 15.4798C34.7212 15.4406 34.7444 15.4048 34.7739 15.3746C34.8034 15.3444 34.8385 15.3203 34.8773 15.3038C34.9161 15.2872 34.9578 15.2785 35 15.2781C35.0862 15.2781 35.1689 15.3123 35.2298 15.3733C35.2908 15.4342 35.325 15.5169 35.325 15.6031C35.3246 15.6453 35.3159 15.687 35.2993 15.7258C35.2828 15.7646 35.2587 15.7997 35.2285 15.8292C35.1983 15.8587 35.1625 15.8819 35.1233 15.8975C35.0841 15.9131 35.0422 15.9208 35 15.9201C34.9582 15.9205 34.9168 15.9126 34.8781 15.8968C34.8394 15.881 34.8042 15.8577 34.7746 15.8282C34.745 15.7987 34.7216 15.7636 34.7057 15.7249C34.6898 15.6863 34.6817 15.6449 34.682 15.6031" fill="white"/>
<path d="M34.6969 16.289C34.6969 16.2136 34.7192 16.14 34.7611 16.0773C34.803 16.0146 34.8625 15.9658 34.9321 15.937C35.0017 15.9081 35.0783 15.9006 35.1523 15.9153C35.2262 15.93 35.294 15.9663 35.3473 16.0196C35.4006 16.0728 35.4369 16.1407 35.4516 16.2146C35.4663 16.2885 35.4587 16.3651 35.4299 16.4348C35.4011 16.5044 35.3522 16.5639 35.2896 16.6058C35.2269 16.6476 35.1533 16.67 35.0779 16.67C34.9769 16.67 34.88 16.6298 34.8085 16.5584C34.7371 16.4869 34.6969 16.39 34.6969 16.289Z" fill="white"/>
<path d="M32.011 19.398L31.246 18.926L32.011 18.449L32.776 18.926C32.509 19.083 32.261 19.233 32.011 19.398Z" fill="white"/>
<path d="M32.0119 18.5781C32.1989 18.6901 32.3769 18.8231 32.5719 18.9221L32.0119 19.2711L31.4569 18.9221L32.0119 18.5781Z" fill="white"/>
<path d="M34.589 19.17L33.3889 18.759L33.2 19.364L34.3999 19.775L34.589 19.17Z" fill="white"/>
<path d="M34.476 19.23L33.444 18.875L33.319 19.27L34.351 19.625L34.476 19.23Z" fill="white"/>
<path d="M35.728 19.5291L35.709 19.929L35.368 20.084L35.085 19.569L35.728 19.5291Z" fill="white"/>
<path d="M35.773 19.5621L35.096 19.5751L35.419 20.0951C35.448 20.1461 35.376 20.2021 35.355 20.1801L35.006 19.5131C35.006 19.5131 35.083 19.5001 35.806 19.4541C35.835 19.4541 35.838 19.5541 35.779 19.5541" fill="white"/>
<path d="M29.4349 19.17L30.6349 18.759L30.8239 19.364L29.6239 19.775L29.4349 19.17Z" fill="white"/>
<path d="M29.5569 19.23L30.5889 18.875L30.7119 19.27L29.6799 19.625L29.5569 19.23Z" fill="white"/>
<path d="M28.351 19.5291L28.3699 19.929L28.7109 20.084L28.994 19.569L28.351 19.5291Z" fill="white"/>
<path d="M28.308 19.5621L28.985 19.5751L28.662 20.0951C28.633 20.1461 28.702 20.2021 28.726 20.1801L29.075 19.5131C29.075 19.5131 28.998 19.5001 28.275 19.4541C28.246 19.4541 28.243 19.5541 28.302 19.5541" fill="white"/>
<path d="M36.2079 18.4731C36.2079 18.4138 36.2255 18.3558 36.2585 18.3064C36.2914 18.2571 36.3382 18.2186 36.3931 18.1959C36.4479 18.1732 36.5082 18.1673 36.5664 18.1789C36.6246 18.1904 36.6781 18.219 36.72 18.261C36.762 18.3029 36.7905 18.3564 36.8021 18.4146C36.8137 18.4728 36.8078 18.5331 36.7851 18.5879C36.7624 18.6427 36.7239 18.6896 36.6746 18.7225C36.6252 18.7555 36.5672 18.7731 36.5079 18.7731C36.4283 18.7731 36.352 18.7415 36.2957 18.6852C36.2395 18.629 36.2079 18.5527 36.2079 18.4731Z" fill="white"/>
<path d="M27.572 22.3421C27.6499 24.1518 28.1236 25.9225 28.9598 27.5293C29.7961 29.1361 30.9745 30.54 32.412 31.6421C32.145 31.9091 31.903 32.1421 31.785 32.2661C30.1881 30.9573 28.9017 29.3104 28.0185 27.4441C27.1353 25.5779 26.6775 23.5388 26.678 21.4741H36.969V22.3461L27.572 22.3421Z" fill="white"/>
<path d="M36.9709 23.3901H28.8939C29.0131 24.874 29.4665 26.3117 30.2202 27.5955C30.9738 28.8793 32.0083 29.9759 33.2459 30.8031C33.4249 30.6161 33.6539 30.3871 33.8089 30.2381C32.7844 29.5739 31.913 28.6991 31.2528 27.672C30.5926 26.6449 30.1587 25.489 29.9799 24.2811H36.9709V23.3901Z" fill="white"/>
</g>
<defs>
<clipPath id="clip0_40_26766">
<rect width="64" height="64" fill="white"/>
</clipPath>
</defs>
</svg>
