<svg width="64" height="64" viewBox="0 0 64 64" fill="none" xmlns="http://www.w3.org/2000/svg">
<g clip-path="url(#clip0_40_26834)">
<g style="mix-blend-mode:multiply">
<path d="M32 64C49.6731 64 64 49.6731 64 32C64 14.3269 49.6731 0 32 0C14.3269 0 0 14.3269 0 32C0 49.6731 14.3269 64 32 64Z" fill="#813DAA"/>
</g>
<path d="M32 64C49.6731 64 64 49.6731 64 32C64 14.3269 49.6731 0 32 0C14.3269 0 0 14.3269 0 32C0 49.6731 14.3269 64 32 64Z" fill="#813DAA" fill-opacity="0.63"/>
<path d="M16.4871 29.366H19.7991C19.7961 28.7237 19.7537 28.0821 19.6721 27.445C19.5909 26.7727 19.3757 26.1236 19.0391 25.536C18.6731 24.9182 18.1441 24.413 17.5101 24.076C16.6418 23.6515 15.6803 23.4537 14.7151 23.501C13.6881 23.4523 12.666 23.67 11.7481 24.133C11.0245 24.5413 10.4366 25.1529 10.0571 25.892C9.63918 26.7373 9.38183 27.6528 9.29806 28.592C9.17873 29.7354 9.12164 30.8844 9.12706 32.034C9.12185 33.1863 9.1796 34.338 9.30006 35.484C9.38415 36.4201 9.64116 37.3326 10.0581 38.175C10.4323 38.9092 11.0225 39.5112 11.7491 39.9C12.6739 40.3401 13.6928 40.5462 14.7161 40.5C15.6285 40.5347 16.5368 40.3609 17.3721 39.992C18.0221 39.6838 18.5722 39.1986 18.9591 38.592C19.3507 37.9516 19.6127 37.2404 19.7301 36.499C19.8713 35.6631 19.9405 34.8167 19.9371 33.969H16.6221C16.6357 34.6894 16.5818 35.4096 16.4611 36.12C16.3896 36.5637 16.2417 36.9917 16.0241 37.385C15.8773 37.6517 15.6468 37.8626 15.3681 37.985C15.108 38.0861 14.8311 38.137 14.5521 38.135C14.2281 38.1399 13.9082 38.0628 13.6221 37.911C13.3095 37.7113 13.0743 37.4112 12.9551 37.06C12.744 36.4866 12.6125 35.8871 12.5641 35.278C12.4693 34.2766 12.4273 33.2708 12.4381 32.265C12.4381 31.0997 12.4687 30.1147 12.5301 29.31C12.5669 28.6487 12.6748 27.9932 12.8521 27.355C12.9542 26.9413 13.1736 26.5659 13.4841 26.274C13.7744 26.0445 14.1373 25.9264 14.5071 25.941C14.8172 25.9101 15.1296 25.971 15.4055 26.1161C15.6814 26.2611 15.9087 26.484 16.0591 26.757C16.3952 27.5837 16.5415 28.4753 16.4871 29.366ZM21.8221 23.823V40.245H25.1341V32.954H28.9981V40.245H32.3101V23.823H28.9991V30.102H25.1351V23.823H21.8221ZM34.6101 23.823V40.245H37.9221V33.115H43.4421V30.401H37.9221V26.537H43.7871V23.823H34.6101ZM54.8731 23.823H44.3861V26.537H47.9741V40.245H51.2861V26.537H54.8741L54.8731 23.823Z" fill="white"/>
</g>
<defs>
<clipPath id="clip0_40_26834">
<rect width="64" height="64" fill="white"/>
</clipPath>
</defs>
</svg>
