<svg width="64" height="64" viewBox="0 0 64 64" fill="none" xmlns="http://www.w3.org/2000/svg">
<rect width="64" height="64" rx="32" fill="#FF1256"/>
<path d="M22.0823 19.52L29.0455 15.2192C29.6599 14.8608 29.6599 14.144 29.2247 13.7088L23.4135 8.0768C23.3111 7.9744 23.1063 7.9744 23.0039 8.0768L22.4407 8.64C21.7239 9.3568 21.7495 10.4832 22.4407 11.2L24.7191 13.2992C25.1031 13.6832 25.0263 14.3232 24.5655 14.6048L21.8519 16.2688C21.0071 16.7808 20.7511 17.9072 21.2631 18.752L21.6727 19.4176C21.7495 19.5456 21.9287 19.5968 22.0823 19.52Z" fill="white"/>
<path d="M28.7895 42.56C29.3527 40.0768 28.6871 37.4912 26.9719 35.5968L22.5687 30.6048C20.1111 27.84 20.7255 23.5136 23.8487 21.5424L31.0423 16.9344C31.5031 16.6272 32.1175 16.704 32.5271 17.0624C35.1639 19.4944 44.3287 28.224 43.9191 37.2608C43.9191 37.2608 43.9191 51.2896 30.1207 56.5376C28.0983 57.3056 26.0247 55.4624 26.5623 53.3376C28.4823 45.7856 28.8151 42.5088 28.8151 42.5088L28.7895 42.56ZM30.5815 20.9536C29.4807 21.6448 27.3559 23.0016 25.5383 24.1536C24.3095 24.9216 24.0791 26.5856 25.0263 27.6864L29.6343 33.0112C32.2711 35.904 33.3207 39.9232 32.4247 43.7376L31.6567 47.1168C31.3239 48.576 33.0647 49.6 34.1911 48.6272C39.0295 44.4544 45.8391 34.3936 31.6567 21.056C31.3751 20.7744 30.9399 20.7488 30.5815 20.9536Z" fill="white"/>
</svg>
