<svg width="64" height="64" viewBox="0 0 64 64" fill="none" xmlns="http://www.w3.org/2000/svg">
<path d="M9.36262 9.32401C13.845 4.86561 19.5469 1.83279 25.7502 0.607502C31.9535 -0.617783 38.3808 0.0192617 44.2227 2.43841C50.0645 4.85755 55.0596 8.95061 58.5789 14.2021C62.0983 19.4536 63.9844 25.6287 63.9999 31.9497C64.0184 38.2859 62.1523 44.4845 58.6387 49.7581C55.125 55.0317 50.1225 59.1421 44.2666 61.567C38.4107 63.992 31.9659 64.622 25.751 63.3771C19.5361 62.1322 13.8317 59.0685 9.36262 54.5754C3.36723 48.5707 0 40.4335 0 31.9497C0 23.4659 3.36723 15.3286 9.36262 9.32401ZM31.9963 3.51207C16.3856 3.51207 3.54863 16.2024 3.54863 31.9497C3.54863 47.5015 16.439 60.3873 31.9963 60.3873C47.5536 60.3873 60.4439 47.5015 60.4439 31.9497C60.4439 16.2024 47.6069 3.51207 31.9963 3.51207Z" fill="#002E60"/>
<path d="M31.9962 1.73471C26.0262 1.75215 20.1946 3.53449 15.2355 6.85742C10.2765 10.1803 6.41141 14.8954 4.12683 20.4091C1.84225 25.9229 1.24021 31.9889 2.39649 37.8439C3.55276 43.6989 6.41568 49.0812 10.6249 53.3134C16.3024 58.9616 23.9864 62.1324 31.9962 62.1324C40.0061 62.1324 47.69 58.9616 53.3675 53.3134C56.1759 50.509 58.4038 47.1787 59.9239 43.5129C61.4439 39.8472 62.2263 35.9179 62.2263 31.9497C62.2263 27.9815 61.4439 24.0522 59.9239 20.3864C58.4038 16.7207 56.1759 13.3904 53.3675 10.5859C47.6975 4.92264 40.0115 1.73938 31.9962 1.73471Z" fill="#7BB1DD"/>
<path d="M31.9963 12.3988C26.8158 12.4159 21.8537 14.487 18.1991 18.1574C14.5274 21.8107 12.4556 26.771 12.4385 31.9497C12.4556 37.1283 14.5274 42.0886 18.1991 45.7419C21.8537 49.4124 26.8158 51.4834 31.9963 51.5005C37.1767 51.4834 42.1388 49.4124 45.7934 45.7419C49.4651 42.0886 51.5369 37.1283 51.554 31.9497C51.5369 26.771 49.4651 21.8107 45.7934 18.1574C42.1388 14.487 37.1767 12.4159 31.9963 12.3988ZM31.9963 10.6215C43.2686 10.6215 53.332 20.6813 53.332 31.9497C53.332 43.8935 44.2643 53.2779 31.9963 53.2779C26.3377 53.2779 20.9108 51.0308 16.9096 47.031C12.9084 43.0312 10.6605 37.6063 10.6605 31.9497C10.6605 19.8637 20.7239 10.6215 31.9963 10.6215Z" fill="#002E60"/>
<path d="M49.776 31.9497C49.776 36.6635 47.9028 41.1843 44.5684 44.5175C41.234 47.8506 36.7117 49.7232 31.9962 49.7232C27.2807 49.7232 22.7584 47.8506 19.424 44.5175C16.0897 41.1843 14.2164 36.6635 14.2164 31.9497C14.2164 27.2359 16.0897 22.7151 19.424 19.3819C22.7584 16.0487 27.2807 14.1762 31.9962 14.1762C36.7117 14.1762 41.234 16.0487 44.5684 19.3819C47.9028 22.7151 49.776 27.2359 49.776 31.9497Z" fill="#7BB1DD"/>
<path d="M17.3101 18.0508C16.3247 22.4284 15.9064 26.9144 16.0656 31.3987C15.9944 46.2396 27.2313 50.8607 31.9962 52.2648C36.7434 50.8607 47.9802 46.2396 47.8914 31.3987C47.9269 28.1284 47.9269 23.3651 46.6468 18.0686C39.2859 16.8066 34.8054 16.9133 31.9962 16.8955C29.187 16.8955 24.7065 16.8066 17.3279 18.0508H17.3101ZM27.0357 54.8775L26.7156 54.5931C25.6133 53.8822 24.3332 54.5753 24.262 55.9084C24.2427 56.2788 24.3527 56.6444 24.5732 56.9427C24.7938 57.241 25.1111 57.4534 25.4711 57.5435C26.1467 57.6502 26.6445 57.3658 27.1068 56.957L27.818 57.6679C27.5494 57.9718 27.2178 58.2134 26.8462 58.3761C26.4747 58.5388 26.0722 58.6186 25.6666 58.6099C24.2087 58.4677 23.3908 57.7035 23.1775 56.4771C23.1029 56.1299 23.0994 55.7711 23.1672 55.4225C23.2351 55.0739 23.3728 54.7426 23.5722 54.4487C23.7715 54.1547 24.0284 53.9041 24.3272 53.7121C24.6261 53.52 24.9607 53.3905 25.311 53.3312C25.7525 53.2363 26.2109 53.255 26.6431 53.3856C27.0754 53.5161 27.4674 53.7543 27.7824 54.0777L27.0357 54.8775ZM29.6137 53.2779H28.4403V58.6099H29.6137V53.2779ZM35.3566 54.3976H33.7742V58.6099H32.6363V54.3976H31.0717V53.3312H35.3566V54.3976ZM40.4416 53.3312L38.4325 56.5304V58.6632H37.3302V56.5304L35.3744 53.3312H36.7079L37.9169 55.5173L39.1615 53.3312H40.4594H40.4416ZM12.0118 23.1695L11.5139 24.1471L7.10455 21.801L7.65573 20.7346L10.1627 20.5746L8.88253 18.3352L9.41592 17.2687L13.8609 19.6504L13.3275 20.6279L10.4116 19.0639L11.6917 21.41L9.11367 21.6588L12.0118 23.1695ZM18.0036 14.9582L17.1857 15.8113L16.0478 15.367L14.5898 16.9488L15.1055 18.0686L14.3409 18.8861L12.1362 13.7851L12.8296 13.0209L17.9858 14.9582H18.0036ZM15.1055 14.976L13.4342 14.3183L14.1809 15.9713L15.1055 14.976ZM18.7147 14.4072L16.1189 10.0882L16.9723 9.51949L20.5994 10.9947L18.9992 8.29312L19.9238 7.74214L22.5018 12.0789L21.7017 12.5765L17.968 11.0836L19.6393 13.8562L18.7147 14.4072ZM26.2534 7.10229L25.8622 6.90678C24.6532 6.55131 23.6042 7.54663 23.9064 8.82632C24.0842 9.59058 24.831 10.0882 25.4888 10.0171C26.1645 9.94605 26.5201 9.51949 26.8579 9.0396L27.6935 9.51949C27.4624 9.9816 27.1601 10.4437 26.4489 10.7992C26.3245 10.8703 26.1645 10.9414 25.9156 10.9769C24.511 11.2435 23.5331 10.7636 22.9819 9.6439C22.8194 9.33282 22.7204 8.99257 22.6907 8.64291C22.6609 8.29326 22.7009 7.94117 22.8085 7.60712C22.916 7.27307 23.0889 6.96371 23.317 6.69703C23.5452 6.43034 23.8241 6.21165 24.1376 6.05366C24.5286 5.85063 24.9638 5.74762 25.4044 5.75382C25.845 5.76003 26.2772 5.87525 26.6623 6.0892L26.2534 7.10229ZM48.887 12.6832L47.678 11.7412L45.2777 14.976L44.3887 14.3006L46.8068 11.1013L45.5978 10.1416L46.2201 9.32398L49.5093 11.8834L48.887 12.6832ZM28.8492 5.11166L28.9559 10.1949L30.0227 10.1593L29.9871 8.11538L32.0496 8.06206L32.0851 10.1238L33.1519 10.0882L33.063 4.98724L31.9429 5.02279L31.9962 7.04897L29.9516 7.10229L29.916 5.09389L28.8492 5.11166ZM35.8189 5.28939L39.4993 6.12475L39.2682 7.08452L36.6723 6.49799L36.4412 7.52886L38.5925 7.97319L38.0947 8.86187L36.2456 8.47085L36.0145 9.53726L38.6814 10.1238L38.4681 11.0658L34.7521 10.266L35.8189 5.28939ZM42.4507 9.69722C41.7929 9.19957 41.7929 8.91519 41.9707 8.68413C42.1307 8.48863 42.3263 8.48863 42.5396 8.55972C42.8952 8.68413 43.1619 8.91519 43.3753 9.19957C43.4998 9.34175 43.5886 9.50172 43.6775 9.6439L44.531 9.1107C44.3887 8.8441 44.0509 8.13316 43.0197 7.68882C42.5396 7.47554 41.384 7.26225 40.8861 8.48863C40.6728 9.02183 40.7617 9.34175 40.8861 9.57281C41.1528 10.0527 41.6151 10.3726 42.0063 10.7281C42.184 10.8703 42.3618 11.0302 42.433 11.2613C42.4685 11.4213 42.433 11.5634 42.3085 11.6701C41.704 12.2033 40.6372 11.0836 40.4239 10.4793L39.4993 10.9236C39.9971 11.8834 40.8328 12.7543 42.1307 12.8076C42.4032 12.7924 42.6661 12.7011 42.8892 12.544C43.1124 12.3869 43.287 12.1703 43.3931 11.9189C43.5709 11.4568 43.6064 11.0302 43.3753 10.6748C43.1302 10.2946 42.8167 9.96319 42.4507 9.69722ZM51.0562 13.3763L53.4386 16.3267L52.6919 16.9666L50.985 14.8693L50.1672 15.5269L51.6429 17.3043L50.6472 17.6598L49.456 16.1668L48.6203 16.8422L50.3805 18.975L49.6338 19.6148L47.1979 16.6289L51.0562 13.3763ZM54.8255 20.7879L54.3099 19.757L53.0475 20.4147L53.5275 21.41C53.7765 21.9432 54.2032 22.0143 54.5232 21.9076C54.8788 21.7832 55.1099 21.3033 54.8255 20.7879ZM52.1763 24.5203L51.6073 23.3651L52.5497 21.6588L52.1407 20.859L50.7183 21.5877L50.2383 20.5924L54.6832 18.3174L55.6433 20.2547C55.7678 20.5035 55.8211 20.6635 55.8922 20.8768C56.0286 21.2304 56.0349 21.6209 55.91 21.9787C55.5011 22.9918 54.1676 23.5072 53.2253 22.6008L52.1763 24.5203Z" fill="#002E60"/>
<path d="M59.2527 32.945H59.6438V32.3229H59.2527V30.1723H58.7015L57.1013 32.4118L57.1902 32.945H58.6659V33.727H59.2527V32.945ZM58.6837 31.2565V32.3585H57.8303L58.6837 31.2565ZM54.4699 32.1452C54.8255 32.5718 55.4478 32.6784 55.8745 32.2518C55.8745 32.785 55.4478 33.5315 54.6122 32.7495L54.2921 33.336C54.5944 33.6026 54.95 33.7626 55.43 33.7093C55.5944 33.6924 55.7527 33.6377 55.8923 33.5493C56.319 33.2294 56.5146 32.5895 56.5146 31.8964C56.5146 31.6298 56.479 31.3987 56.4435 31.1854C56.3949 30.8563 56.2234 30.5578 55.9634 30.3501C55.7838 30.2323 55.5737 30.1696 55.3589 30.1696C55.1441 30.1696 54.934 30.2323 54.7544 30.3501C54.5739 30.4536 54.4355 30.6171 54.3632 30.8122C54.2921 30.9899 54.2388 31.1676 54.221 31.3987C54.221 31.6831 54.3099 31.9497 54.4699 32.1452ZM55.5011 30.8299C55.6201 30.8584 55.7257 30.927 55.8002 31.0241C55.8746 31.1211 55.9134 31.2409 55.9101 31.3632C55.9101 31.5053 55.8212 31.8964 55.4122 31.9319C55.3098 31.9084 55.2089 31.8787 55.11 31.843C54.9144 31.7719 54.7544 31.3454 54.9677 31.0255C55.0215 30.9409 55.1033 30.878 55.1989 30.8477C55.2978 30.8205 55.4022 30.8205 55.5011 30.8477V30.8299ZM4.54431 30.4745L4.72211 31.0788L5.32662 30.8833V33.727H6.10893V30.1723H5.48664L4.54431 30.4745ZM9.77156 32.7495C9.77156 32.3585 9.55821 32.0385 9.14927 31.8608C9.32707 31.7897 9.46931 31.6831 9.50487 31.5764C9.55433 31.5079 9.5893 31.43 9.60764 31.3475C9.62598 31.265 9.62731 31.1796 9.61155 31.0965C9.55821 30.4745 9.02481 30.1723 8.40252 30.1723C8.22472 30.1723 8.08249 30.2079 7.94025 30.2256C7.80416 30.2565 7.67663 30.3172 7.56687 30.4034C7.45571 30.4587 7.36305 30.5452 7.30018 30.6522C7.03348 31.1499 7.1935 31.5942 7.62021 31.8608C7.21128 32.0919 7.1046 32.2696 7.08682 32.7495C7.1046 33.4604 7.86913 33.6915 8.4203 33.727C8.65144 33.727 8.82924 33.727 8.98925 33.6737C9.41597 33.5671 9.77156 33.2471 9.77156 32.7495ZM8.93591 31.221C8.93591 31.3276 8.88258 31.4342 8.81146 31.5231C8.56254 31.6831 8.27806 31.6475 8.10027 31.5231C8.06067 31.4834 8.0293 31.4363 8.00795 31.3844C7.98659 31.3326 7.97567 31.277 7.97581 31.221C7.97581 31.0965 8.02915 31.0077 8.10027 30.9188C8.18917 30.8477 8.27806 30.8122 8.45586 30.8122C8.58032 30.8122 8.72256 30.8477 8.81146 30.9188C8.88258 31.0077 8.93591 31.0965 8.93591 31.221ZM8.34918 32.2163C8.61588 32.1985 9.02481 32.3051 9.02481 32.6428C9.02481 32.9272 8.75812 33.1405 8.4203 33.1405C8.1536 33.1405 7.81579 32.9628 7.81579 32.6428C7.81579 32.4118 8.08249 32.2518 8.34918 32.2163Z" fill="#7BB1DD"/>
<path d="M18.8392 18.9217C18.1309 22.0019 17.6731 25.1343 17.4701 28.2883C17.3192 31.0896 17.4382 33.8989 17.8257 36.6774C18.0924 38.0282 18.4836 39.4501 19.2126 40.9075C20.7594 43.7513 22.9463 46.2395 24.9376 47.5726C27.0843 49.1627 29.4822 50.3822 32.0318 51.1806C33.7386 50.6474 36.4589 49.5454 39.1081 47.5726C41.4938 45.8097 43.4507 43.5314 44.8332 40.9075C45.58 39.4501 45.9889 38.0282 46.22 36.6774C46.6645 34.1002 46.6467 31.1676 46.5756 28.2883C46.4156 25.6223 46.0067 22.4586 45.2066 18.9217C38.5747 17.7308 34.5743 17.8552 32.0318 17.8197C29.4893 17.8375 25.471 17.7308 18.857 18.9217H18.8392Z" fill="#FFBB59"/>
<path d="M32.0317 51.1451C33.7386 50.6119 36.4589 49.5455 39.1081 47.5548C41.4937 45.792 43.4507 43.5137 44.8332 40.8898C45.5799 39.4323 45.9889 38.0105 46.22 36.6597C46.6645 34.0647 46.6467 31.1499 46.5756 28.2706C46.4156 25.6045 46.0066 22.4409 45.2065 18.9039C38.5747 17.7131 34.5742 17.8375 32.0317 17.802" fill="#E9AB00"/>
<path d="M18.4836 31.9319C18.4285 30.5394 18.4523 29.1449 18.5547 27.7551C18.6792 25.4623 18.8392 22.8141 19.6037 19.7926C25.471 18.8328 29.4537 18.8506 31.9784 18.7795C34.4854 18.8328 38.468 18.8151 44.3531 19.7926C45.0999 22.8319 45.2599 25.4801 45.4021 27.7551C45.5088 29.2303 45.5266 30.5989 45.4733 31.9497L18.4836 31.9319Z" fill="#F5F5F5"/>
<path d="M45.42 33.727C44.7977 41.2452 41.2596 46.4529 31.9963 49.7232C22.733 46.4351 19.1949 41.2452 18.5726 33.727H45.42Z" fill="#7BB1DD"/>
<path d="M40.9395 44.4267C40.2283 45.1554 39.4104 45.8486 38.4859 46.4884L27.818 33.7448H31.9963L40.9395 44.4267ZM44.7266 37.7616C44.3888 39.0413 43.9087 40.2499 43.2686 41.3519L36.9213 33.727H41.3662L44.7444 37.7616H44.7266ZM35.1255 48.4257C34.1654 48.8701 33.1164 49.3144 31.9785 49.7232L18.5547 33.727H22.9108L35.1255 48.4079V48.4257Z" fill="#A8C9E8"/>
<path d="M35.3211 29.8879C37.2057 29.7991 39.126 29.4969 40.0149 29.2659C39.8371 30.7411 38.3436 30.5811 39.1971 31.9497H37.2946C36.5835 31.7008 35.8367 31.3987 35.1966 31.3454C35.0232 31.3136 34.8443 31.3321 34.681 31.3987C32.6897 32.163 31.0895 31.2921 29.6138 31.2565C29.5604 31.4342 29.2582 31.6475 28.6003 31.7186C27.5335 31.8608 26.769 31.3987 25.9334 31.3631C25.6311 31.3631 25.3289 31.4698 25.0799 31.9497C24.6532 31.3454 24.4043 30.8833 23.7998 30.1723C22.9108 29.728 22.0929 29.3725 21.2928 29.0881L21.3284 28.9104C23.8887 29.6924 25.8089 29.9946 27.5513 30.1545C29.6849 30.2434 31.9963 30.3856 34.0765 30.2256C34.6632 29.9946 34.8944 29.9057 35.3211 29.8702V29.8879Z" fill="#FBC24E"/>
<path d="M39.7482 29.4614C39.517 30.4034 38.1124 30.7766 39.0548 31.9497H37.9346C37.2235 31.7008 35.9789 31.1498 34.6276 31.1498C34.112 31.5409 33.2052 31.7186 31.8006 31.3987C31.1606 31.2565 30.2716 31.0432 29.3648 31.0432C29.1514 31.9319 26.2711 31.5764 25.2399 30.2256L23.942 29.9057L23.6397 29.6746C27.0649 30.4222 30.5789 30.6795 34.0764 30.4389C34.5032 30.2967 34.6098 30.2612 34.8232 30.1545C35.1432 29.9946 35.5166 30.0301 35.8366 30.0301C37.6324 29.8879 38.8059 29.6391 39.7482 29.4791V29.4614Z" fill="#EAAA00"/>
<path d="M30.9294 29.8524C31.1606 29.4969 31.5162 29.2837 31.9962 29.1948V30.3145H32.4052L32.3696 29.1237C33.6997 28.993 35.0425 29.1014 36.3345 29.4436V29.8346L36.6901 29.8169V29.3547L40.495 28.0217C39.4282 26.5999 39.5171 24.9291 39.7838 23.2229C39.5882 24.076 39.0726 25.6579 37.7924 27.1153C36.7612 28.2528 36.8857 28.5016 36.7079 28.8215L36.6368 21.1256L35.7478 21.41C35.57 21.4633 35.6944 21.5522 35.5344 21.6233L34.6632 21.9787L35.6766 21.9254C35.8011 21.9254 35.7122 21.7121 35.8544 21.6944L36.3878 21.641L36.3345 29.2659C35.7478 28.3239 34.681 27.2042 35.1255 24.8225C34.0587 28.8571 30.6627 28.4127 30.9117 29.8524H30.9294ZM29.4359 25.5868C28.5114 28.7327 25.7911 28.3417 25.9511 29.6036C26.36 29.2481 26.769 29.2126 27.1601 29.1059V30.119L27.5157 30.1723V29.0526C28.5114 28.946 29.3826 29.0526 30.2716 29.1415C29.5604 27.9862 29.1159 26.8131 29.4359 25.5868Z" fill="#EAAA00"/>
<path d="M39.8194 23.2051C39.606 24.0582 39.1082 25.6401 37.828 27.0797C36.7968 28.235 36.8679 28.6438 36.6723 28.9637V24.3071L39.8016 23.2051H39.8194ZM30.3605 26.4043L35.1611 24.7692C34.1298 28.9282 30.645 28.395 30.9295 29.8169C30.1116 29.0881 29.3293 27.6485 30.3605 26.4043ZM25.4711 26.9731L29.436 25.5868C28.5114 28.7327 25.7911 28.3417 25.9511 29.6036C25.0444 28.6971 25.0088 27.5952 25.4711 26.9731Z" fill="#FFBB59"/>
<path d="M32.4052 20.1481V18.7795L31.5162 19.0817C31.3384 19.1172 31.4629 19.2061 31.3029 19.2772L30.4317 19.6326L31.4451 19.5793C31.5696 19.5793 31.4807 19.366 31.6229 19.3483L32.1563 19.3127V20.2725L32.4052 20.1481ZM27.4802 23.5428V21.8721L26.609 22.1743C26.4312 22.2276 26.5379 22.3164 26.3779 22.3875L25.5422 22.7075L26.5201 22.6719C26.6624 22.6719 26.5735 22.4764 26.6979 22.4409L27.2491 22.4053V23.6495L27.4802 23.5428Z" fill="#EAAA00"/>
<path d="M33.9165 19.6326C32.5119 22.3342 30.6095 21.8721 30.3961 23.1873C29.6494 22.583 29.9694 21.3744 30.4317 20.8412L33.9165 19.6326Z" fill="#FFBB59"/>
<path d="M34.3076 21.9609C34.0224 21.6533 33.8333 21.2689 33.7638 20.8552C33.6943 20.4415 33.7474 20.0165 33.9165 19.6326C32.5118 22.3342 30.6094 21.8721 30.3961 23.1873C31.1961 22.1031 33.5964 22.0142 34.3076 21.9609Z" fill="#EAAA00"/>
<path d="M30.485 26.1555C29.6493 24.9469 29.6493 23.7383 30.3961 23.3828C31.694 22.9385 33.3831 22.3875 34.3254 21.9787C33.6854 24.5026 30.7695 24.7159 30.485 26.1555Z" fill="#FFBB59"/>
<path d="M34.3076 21.961C33.6497 24.5204 30.7338 24.7514 30.4316 26.1911C31.0539 25.3557 32.4763 24.8047 35.1432 24.7159C34.8126 24.3451 34.5679 23.9059 34.4265 23.4297C34.2851 22.9535 34.2506 22.452 34.3253 21.961H34.3076Z" fill="#EAAA00"/>
<path d="M28.7604 23.0984C27.6403 23.4539 26.6268 23.8627 25.7378 24.1649C25.3111 24.5914 24.8133 25.7289 25.56 26.6887C25.4178 25.569 27.8892 25.3201 28.7604 23.0984Z" fill="#FFBB59"/>
<path d="M25.56 26.6887C25.4178 25.569 27.8358 25.1602 28.7604 23.0984C28.7248 23.5961 28.5293 24.6803 29.436 25.569C28.0314 25.6401 26.2357 25.8533 25.56 26.6887Z" fill="#EAAA00"/>
<path d="M25.1688 24.3071C23.5593 25.3607 22.278 26.8448 21.4706 28.5905C22.0929 28.5372 22.7152 28.5372 23.6042 28.7149C22.893 28.235 22.7508 27.684 25.1688 24.3071Z" fill="#FFBB59"/>
<path d="M24.2976 28.8749L23.5864 28.7327C22.8752 28.2528 22.733 27.7018 25.151 24.3248C24.671 25.2135 23.9064 26.8131 24.2976 28.8749Z" fill="#EAAA00"/>
<path d="M32.2452 35.5755L32.8141 36.2864C32.8853 36.393 32.8675 36.4641 32.8675 36.553C33.2586 36.5175 33.7031 36.6597 33.9698 37.0329C34.2365 37.4417 34.4499 37.6372 34.681 37.7972C34.9655 38.0282 35.2678 38.1171 35.5345 38.2059C35.9256 38.3304 36.2279 38.5792 36.4234 39.0946C36.4768 39.0946 36.5301 39.0591 36.7257 39.1302L37.4902 39.379L37.6502 39.4679C37.6858 39.539 37.7214 39.5923 37.7214 39.6456C37.7214 39.7167 37.7214 39.7878 37.6858 39.8589L37.1168 40.6587C37.0813 40.7298 36.9568 40.7476 36.9391 40.7476C37.0991 41.103 37.1169 41.6007 36.7968 41.9917C36.5543 42.2712 36.3727 42.598 36.2634 42.9515C36.1745 43.147 36.1567 43.538 36.1567 43.9823C36.1567 44.32 35.9789 44.64 35.6234 44.871V45.8308C35.6234 45.9374 35.6234 46.0263 35.5878 46.1152C35.5167 46.2396 35.41 46.2929 35.2855 46.2929C35.1789 46.2929 35.09 46.2929 35.0544 46.2573L34.2365 45.9907C34.1476 45.9374 34.1476 45.9019 34.1476 45.9019C33.3298 46.5595 32.6363 45.9552 31.9785 45.9374C31.3029 45.9552 30.6272 46.5595 29.8094 45.9019L29.7027 45.9907L28.8848 46.2573L28.6537 46.2751C28.5381 46.2564 28.4319 46.2002 28.3514 46.1152C28.3056 46.0278 28.293 45.9268 28.3159 45.8308V44.9954L28.3336 44.871C27.9425 44.64 27.8002 44.32 27.8002 43.9823C27.8002 43.538 27.7647 43.147 27.6936 42.9515C27.5871 42.6021 27.405 42.2805 27.1602 42.0095C26.8224 41.6007 26.8757 41.1208 27.0179 40.7653C26.9485 40.7505 26.8859 40.713 26.8401 40.6587L26.2534 39.8589C26.2335 39.8274 26.2214 39.7916 26.2183 39.7544C26.2152 39.7173 26.2212 39.68 26.2356 39.6456C26.2356 39.5923 26.2534 39.5212 26.3067 39.4679L26.4668 39.379L27.2135 39.1302C27.4269 39.0591 27.4624 39.1124 27.5336 39.1124C27.7114 38.5614 28.0136 38.3126 28.4225 38.2237C28.6892 38.1526 28.9737 38.046 29.276 37.7972C29.5071 37.6372 29.6849 37.4061 29.9872 37.0329C30.2539 36.6597 30.6984 36.5175 31.0895 36.553C31.0895 36.4819 31.0362 36.3753 31.1251 36.2864L31.694 35.5755C31.7829 35.4688 31.9074 35.4688 31.9429 35.451C32.0674 35.4688 32.1563 35.4688 32.2452 35.5755Z" fill="#002E60"/>
<path d="M31.7651 38.3481C31.5873 38.1704 31.2673 38.0282 30.9295 38.3126C30.877 38.3409 30.8291 38.3769 30.7872 38.4192C30.485 38.6858 30.4316 38.9524 30.1294 39.1124C29.6849 39.3079 28.9026 39.3079 29.1693 40.161C29.2582 40.4098 29.2582 40.3565 29.027 40.321C28.6181 40.2321 28.2625 40.0011 28.2269 39.5567C28.1914 39.1479 28.4047 38.8458 28.7603 38.7214C28.9737 38.6503 29.2226 38.6325 29.6849 38.3126C30.2361 37.9393 30.3072 37.4594 30.7161 37.2462C30.9507 37.1558 31.2105 37.1558 31.4451 37.2462C31.8362 37.4239 31.9251 37.8505 31.8896 38.3126C31.8896 38.4725 31.8185 38.4014 31.7651 38.3481Z" fill="#E41819"/>
<path d="M31.8541 40.5876V39.1657C31.8896 38.8458 31.7474 38.6325 31.4629 38.5614C31.3439 38.5305 31.2178 38.5431 31.1073 38.597C30.9295 38.6858 30.8584 38.8458 30.7162 39.0057C30.59 39.1729 30.4253 39.307 30.2361 39.3968C30.0761 39.4679 29.8805 39.4856 29.7383 39.5745C29.5605 39.6811 29.4182 39.8055 29.436 40.0722C29.436 40.1966 29.5071 40.3388 29.6138 40.4276C29.7383 40.5165 29.8627 40.5698 30.0227 40.6054L31.2496 40.9964C31.3384 41.0319 31.374 40.9964 31.4273 40.9253C31.5696 40.7298 31.6763 40.712 31.7829 40.6765C31.8541 40.712 31.8541 40.6409 31.8541 40.5876ZM32.2986 38.3481C32.4764 38.1704 32.7964 38.0282 33.1342 38.3126C33.1875 38.3126 33.2231 38.3659 33.2764 38.4192C33.5787 38.6858 33.632 38.9524 33.9343 39.1124C34.3788 39.3079 35.1433 39.3079 34.8944 40.161C34.8055 40.4098 34.8055 40.3565 35.0366 40.321C35.4456 40.2321 35.8012 40.0011 35.8367 39.5567C35.8545 39.1479 35.6589 38.8458 35.3033 38.7214C35.09 38.6503 34.8233 38.6325 34.3788 38.3126C33.8276 37.9393 33.7565 37.4594 33.3476 37.2462C33.113 37.1558 32.8532 37.1558 32.6186 37.2462C32.2274 37.4239 32.1385 37.8505 32.1741 38.3126C32.1741 38.4725 32.2452 38.4014 32.2986 38.3481Z" fill="#E41819"/>
<path d="M32.2096 40.5876V39.1657C32.1741 38.8458 32.3163 38.6325 32.583 38.5614C32.7075 38.526 32.8408 38.5387 32.9564 38.597C33.1164 38.6859 33.2053 38.8458 33.3475 39.0058C33.4898 39.1835 33.6498 39.3257 33.8276 39.3968C33.9876 39.4679 34.1832 39.4857 34.3254 39.5745C34.5032 39.6812 34.6454 39.8056 34.6277 40.0722C34.6277 40.1966 34.5565 40.3388 34.4499 40.4277C34.3215 40.5159 34.1762 40.5765 34.0231 40.6054L32.8141 40.9964C32.7963 41.032 32.743 41.032 32.7252 41.032L32.6897 40.9964C32.5119 40.7298 32.4052 40.7298 32.2452 40.6765C32.2096 40.6765 32.1741 40.6409 32.2096 40.5876ZM34.0587 43.7869C34.3076 43.8402 34.6454 43.7513 34.7699 43.3425C34.7699 43.2892 34.7699 43.2181 34.8055 43.1648C34.8766 42.756 34.7699 42.5072 34.9477 42.1872C35.1788 41.7607 35.8189 41.2986 35.1077 40.7654C34.8944 40.6409 34.8944 40.6587 35.1255 40.5698C35.5167 40.3921 35.9256 40.3921 36.2278 40.712C36.4768 41.032 36.5301 41.3874 36.299 41.7074C36.1567 41.9206 35.9789 42.0628 35.7833 42.596C35.5878 43.2181 35.7833 43.6624 35.57 44.0712C35.4278 44.3023 35.2144 44.4267 34.9655 44.48C34.5388 44.5689 34.2365 44.2667 33.9876 43.8579C33.9165 43.7513 34.0054 43.7691 34.0587 43.7869Z" fill="#E41819"/>
<path d="M32.6541 42.045L33.5075 43.2003C33.6676 43.4669 33.9165 43.5913 34.1832 43.4669C34.2445 43.4502 34.3008 43.4188 34.3473 43.3755C34.3938 43.3321 34.429 43.2781 34.4499 43.2181C34.5032 43.0581 34.5032 42.8626 34.5032 42.6493C34.5388 42.4361 34.5565 42.205 34.681 42.045L34.9655 41.6185C35.0544 41.4407 35.0899 41.263 34.9299 41.0497C34.8879 40.9922 34.8348 40.9437 34.7737 40.9071C34.7126 40.8705 34.6448 40.8465 34.5743 40.8364C34.3965 40.8364 34.2899 40.8898 34.1298 40.9253L32.903 41.3519C32.8497 41.3519 32.7963 41.4052 32.8141 41.4763C32.8497 41.7607 32.7252 41.8673 32.6363 41.9384C32.6186 41.9562 32.6363 42.0095 32.6541 42.045ZM29.9871 43.7868C29.8341 43.8191 29.6745 43.7909 29.5419 43.708C29.4093 43.6251 29.314 43.4941 29.276 43.3425C29.2582 43.2892 29.2582 43.2181 29.2226 43.1648C29.1693 42.756 29.276 42.5071 29.0982 42.1872C28.867 41.7607 28.2092 41.2985 28.9204 40.7653C29.1337 40.6409 29.1337 40.6587 28.9204 40.5698C28.5292 40.3921 28.1025 40.3921 27.818 40.712C27.5513 41.0319 27.5158 41.3874 27.7469 41.7073C27.8714 41.9206 28.0669 42.0628 28.2447 42.596C28.4581 43.2181 28.2447 43.6624 28.4759 44.0712C28.6181 44.3023 28.8315 44.4267 29.0626 44.48C29.5071 44.5689 29.8093 44.2667 30.0583 43.8579C30.1472 43.7513 30.0583 43.7691 29.9871 43.7868Z" fill="#E41819"/>
<path d="M31.3739 42.0451L30.5383 43.2003C30.3605 43.4669 30.1294 43.5913 29.8449 43.4669C29.7868 43.4478 29.7341 43.4153 29.6908 43.3721C29.6476 43.3289 29.6151 43.2761 29.596 43.2181C29.5249 43.0581 29.5249 42.8626 29.5249 42.6494C29.5071 42.4361 29.4893 42.205 29.3648 42.0451C29.2759 41.9206 29.1337 41.7607 29.0626 41.6185C28.9737 41.4408 28.9559 41.263 29.1159 41.0497C29.1579 40.9923 29.2111 40.9438 29.2721 40.9071C29.3332 40.8705 29.401 40.8465 29.4715 40.8365C29.6493 40.8365 29.756 40.8898 29.916 40.9253L31.125 41.3519C31.1962 41.3519 31.2139 41.3874 31.2495 41.4408C31.1962 41.6363 31.285 41.7785 31.4095 41.9206C31.4095 41.9562 31.4095 42.0095 31.3739 42.0451ZM33.6498 44.0712C33.5964 44.3201 33.4364 44.6044 32.9741 44.6044H32.7963C32.4052 44.5511 32.2096 44.3556 31.854 44.4267C31.3739 44.5156 30.7339 44.9777 30.4672 44.1601C30.3961 43.9113 30.4138 43.929 30.2538 44.1068C29.9871 44.4267 29.8271 44.8177 30.076 45.1732C30.3072 45.5287 30.645 45.6709 31.0184 45.5464C31.2495 45.4753 31.4451 45.3509 32.014 45.3154C32.6897 45.3154 33.0275 45.6353 33.4542 45.5464C33.5741 45.5204 33.687 45.4688 33.7852 45.3952C33.8834 45.3216 33.9646 45.2277 34.0231 45.1199C34.2365 44.7289 34.0587 44.3556 33.7387 44.0001C33.6498 43.9113 33.6498 44.0001 33.6498 44.0712Z" fill="#E41819"/>
<path d="M32.4052 42.1872L33.2586 43.3425C33.4542 43.5558 33.5075 43.8402 33.2942 44.0535C33.21 44.1463 33.0975 44.2088 32.9741 44.2312C32.7963 44.2667 32.6186 44.1956 32.4052 44.1423C32.2096 44.089 31.9963 44.0357 31.7829 44.089L31.2851 44.2312C31.0895 44.2312 30.8939 44.2312 30.7517 44.0179C30.6628 43.9113 30.645 43.7691 30.6983 43.6091C30.7339 43.4314 30.8228 43.3603 30.9295 43.2181L31.6762 42.1872C31.7296 42.1517 31.7473 42.0984 31.8185 42.1161C31.8952 42.1566 31.9806 42.1778 32.0674 42.1778C32.1541 42.1778 32.2396 42.1566 32.3163 42.1161L32.4052 42.1872Z" fill="#E41819"/>
<path d="M32.5296 41.4407C32.5296 41.6896 32.3163 41.9206 32.0496 41.9206C31.9865 41.9206 31.9241 41.9082 31.8659 41.8841C31.8076 41.86 31.7547 41.8246 31.7101 41.7801C31.6655 41.7355 31.6302 41.6826 31.6061 41.6244C31.5819 41.5662 31.5695 41.5038 31.5695 41.4407C31.5695 41.1919 31.7651 40.9608 32.0496 40.9608C32.2985 40.9608 32.5296 41.1919 32.5296 41.4407Z" fill="#FEBE53"/>
<path d="M31.5873 36.8018C31.5339 36.7485 31.5339 36.7307 31.6051 36.6774C31.7473 36.5175 31.854 36.322 31.9962 36.1087L32.3874 36.6774C32.4229 36.7485 32.4585 36.7485 32.4051 36.8018C32.212 36.9509 32.0692 37.1556 31.9962 37.3884C31.9315 37.1516 31.787 36.9445 31.5873 36.8018ZM36.2989 39.6278C36.3167 39.5567 36.3345 39.5923 36.4056 39.6101C36.619 39.6812 36.8145 39.7522 37.0812 39.8056C36.9034 39.9833 36.779 40.1788 36.6367 40.3565C36.6012 40.4276 36.6012 40.4454 36.5301 40.4099C36.3309 40.26 36.0856 40.1845 35.8366 40.1966C36.1211 40.0188 36.1922 39.8056 36.2989 39.6278ZM27.4979 40.3921C27.4268 40.4276 27.4268 40.3921 27.3735 40.3388C27.2668 40.161 27.1246 39.9833 26.9645 39.8056L27.6224 39.5923C27.6935 39.5567 27.7113 39.539 27.7468 39.5923C27.818 39.7878 27.9246 40.0188 28.1736 40.1788C27.8713 40.161 27.6402 40.2854 27.4979 40.3921ZM35.0543 44.8888C35.1255 44.8888 35.1255 44.9066 35.1255 44.9954L35.1432 45.6886C34.93 45.6001 34.71 45.5288 34.4854 45.4753C34.4143 45.4753 34.3965 45.4753 34.3965 45.3864C34.4707 45.1542 34.4644 44.9037 34.3787 44.6755C34.6276 44.8532 34.8588 44.8532 35.0543 44.8888ZM29.6493 45.3509C29.6493 45.422 29.6493 45.422 29.5426 45.4398L28.9025 45.6708C28.9381 45.422 28.9381 45.1909 28.9025 44.9777C28.9025 44.9066 28.9025 44.8888 28.9737 44.871C29.187 44.8355 29.4181 44.8177 29.6493 44.6222C29.584 44.8547 29.584 45.1006 29.6493 45.3331V45.3509Z" fill="#E41819"/>
</svg>
