<svg width="64" height="64" viewBox="0 0 64 64" fill="none" xmlns="http://www.w3.org/2000/svg">
<g clip-path="url(#clip0_40_26844)">
<path d="M32 64C49.6731 64 64 49.6731 64 32C64 14.3269 49.6731 0 32 0C14.3269 0 0 14.3269 0 32C0 49.6731 14.3269 64 32 64Z" fill="#25376C"/>
<path d="M42.746 13.3569H21.184L18.684 24.3459H45.395L42.746 13.3569ZM25.009 39.441V32.1409L18.609 28.105L11.376 33.457L21.252 50.639H25.219L29.876 46.257V44.1L25.009 39.441Z" fill="white"/>
<path d="M38.9919 26.0168H25.08L27.3799 32.1388L26.6849 39.0259H37.3979L36.7029 32.1388L38.9919 26.0168Z" fill="white"/>
<path d="M45.389 28.032L39.0591 32.132V39.432L34.259 44.0909V46.2479L38.9181 50.5599H42.818L52.626 33.449L45.389 28.032Z" fill="white"/>
</g>
<defs>
<clipPath id="clip0_40_26844">
<rect width="64" height="64" fill="white"/>
</clipPath>
</defs>
</svg>
