<svg width="64" height="64" viewBox="0 0 64 64" fill="none" xmlns="http://www.w3.org/2000/svg">
<g clip-path="url(#clip0_40_26850)">
<path d="M32 64C49.6731 64 64 49.6731 64 32C64 14.3269 49.6731 0 32 0C14.3269 0 0 14.3269 0 32C0 49.6731 14.3269 64 32 64Z" fill="#086554"/>
<path fill-rule="evenodd" clip-rule="evenodd" d="M32.0009 63.3691C38.2031 63.3606 44.2636 61.5138 49.4166 58.062C54.5695 54.6102 58.5836 49.7084 60.9515 43.976C63.3195 38.2436 63.9351 31.9379 62.7205 25.8558C61.5058 19.7737 58.5155 14.188 54.1275 9.80483C49.7394 5.42164 44.1505 2.4376 38.067 1.22976C31.9835 0.0219208 25.6785 0.644532 19.9487 3.01888C14.219 5.39324 9.32165 9.41276 5.87561 14.5695C2.42956 19.7263 0.589478 25.7889 0.587891 31.9911C0.593724 40.3174 3.90629 48.3004 9.79711 54.1847C15.6879 60.0689 23.6747 63.3726 32.0009 63.3691Z" fill="#006554"/>
<path fill-rule="evenodd" clip-rule="evenodd" d="M32.0009 62.095C37.9541 62.095 43.7736 60.3297 48.7235 57.0222C53.6735 53.7148 57.5315 49.0139 59.8097 43.5138C62.0878 38.0138 62.6839 31.9616 61.5225 26.1228C60.3611 20.284 57.4944 14.9206 53.2848 10.7111C49.0752 6.50152 43.7119 3.63482 37.8731 2.4734C32.0343 1.31199 25.9822 1.90804 20.4821 4.18623C14.9821 6.46443 10.2811 10.3224 6.97364 15.2724C3.66621 20.2223 1.90088 26.0418 1.90088 31.995C1.90406 39.9771 5.07632 47.6313 10.7205 53.2754C16.3646 58.9196 24.0188 62.0918 32.0009 62.095Z" fill="white"/>
<path fill-rule="evenodd" clip-rule="evenodd" d="M32.0008 60.9062C37.7161 60.9062 43.303 59.2117 48.0553 56.0368C52.8075 52.8619 56.5117 48.3491 58.6995 43.0692C60.8873 37.7893 61.4605 31.9793 60.3466 26.3736C59.2327 20.768 56.4818 15.6185 52.4415 11.5761C48.4013 7.5338 43.2532 4.78016 37.6481 3.66335C32.0431 2.54655 26.2327 3.11671 20.9517 5.30178C15.6706 7.48685 11.156 11.1887 7.97865 15.9394C4.80127 20.69 3.1038 26.276 3.10083 31.9912C3.09897 39.6579 6.14271 47.0114 11.5625 52.434C16.9823 57.8566 24.3341 60.9041 32.0008 60.9062Z" fill="#006554"/>
<path fill-rule="evenodd" clip-rule="evenodd" d="M32.0009 53.2782C36.2086 53.2766 40.3214 52.0275 43.8194 49.6888C47.3173 47.3501 50.0433 44.0268 51.6528 40.139C53.2622 36.2512 53.6829 31.9735 52.8615 27.8467C52.0402 23.7199 50.0137 19.9293 47.0383 16.954C44.0629 13.9787 40.2722 11.9525 36.1453 11.1313C32.0185 10.3101 27.7408 10.731 23.8531 12.3406C19.9654 13.9502 16.6422 16.6764 14.3037 20.1745C11.9651 23.6725 10.7162 27.7854 10.7148 31.9932C10.7159 37.6382 12.9589 43.0516 16.9506 47.0431C20.9423 51.0346 26.3559 53.2774 32.0009 53.2782Z" fill="white"/>
<path fill-rule="evenodd" clip-rule="evenodd" d="M31.9999 52.21C35.9964 52.2084 39.9027 51.022 43.2249 48.8007C46.5472 46.5794 49.1364 43.4229 50.665 39.7303C52.1937 36.0378 52.5932 31.9749 51.8131 28.0553C51.0331 24.1357 49.1084 20.5353 46.2825 17.7094C43.4566 14.8835 39.8562 12.9588 35.9366 12.1788C32.017 11.3987 27.9541 11.7982 24.2615 13.3269C20.569 14.8556 17.4125 17.4447 15.1912 20.767C12.9699 24.0893 11.7834 27.9955 11.7819 31.992C11.7816 34.6471 12.3044 37.2764 13.3203 39.7294C14.3363 42.1825 15.8255 44.4114 17.703 46.2889C19.5805 48.1663 21.8094 49.6556 24.2625 50.6716C26.7156 51.6875 29.3447 52.2103 31.9999 52.21Z" fill="#006554"/>
<path fill-rule="evenodd" clip-rule="evenodd" d="M45.2439 30.545C45.2269 28.597 44.4859 27.5291 43.1599 27.5291C41.6959 27.5291 40.9379 29.079 40.9379 32.129C40.9379 33.507 41.0589 35.0391 41.8679 35.8671C42.0566 36.0509 42.2806 36.1945 42.5264 36.2892C42.7722 36.3839 43.0346 36.4276 43.2979 36.418C44.4349 36.418 45.2438 35.4181 45.4338 33.7831L47.4829 33.92C47.2249 36.744 45.6059 38.415 43.1599 38.415C42.63 38.4271 42.103 38.331 41.6115 38.1326C41.1199 37.9342 40.674 37.6375 40.3009 37.261C39.1503 35.7483 38.5272 33.9001 38.5272 31.9995C38.5272 30.0989 39.1503 28.2508 40.3009 26.738C40.6879 26.355 41.1482 26.0539 41.6542 25.8527C42.1602 25.6515 42.7015 25.5543 43.2458 25.567C45.7588 25.567 47.1899 27.167 47.4829 30.355L45.2439 30.543V30.545Z" fill="white"/>
<path fill-rule="evenodd" clip-rule="evenodd" d="M31.4489 29.115V31.027H34.1699V32.609H31.4489V35.8979H29.7789V27.4771H34.8599V29.113L31.4489 29.115Z" fill="white"/>
<path fill-rule="evenodd" clip-rule="evenodd" d="M23.2339 30.545C23.1999 28.597 22.4758 27.529 21.1498 27.529C19.6858 27.529 18.9279 29.079 18.9279 32.129C18.9279 33.507 19.0488 35.0391 19.8578 35.8671C20.0464 36.0508 20.2702 36.1943 20.5159 36.2891C20.7615 36.3838 21.0238 36.4276 21.2869 36.418C22.4239 36.418 23.2339 35.4181 23.4229 33.7831L25.4718 33.92C25.1968 36.744 23.5948 38.415 21.1498 38.415C20.6199 38.4271 20.093 38.331 19.6015 38.1326C19.1099 37.9342 18.664 37.6375 18.2909 37.261C17.1401 35.7483 16.517 33.9001 16.517 31.9995C16.517 30.0989 17.1401 28.2507 18.2909 26.738C18.6779 26.355 19.1382 26.054 19.6442 25.8528C20.1502 25.6516 20.6915 25.5544 21.2359 25.567C23.7489 25.567 25.1628 27.167 25.4718 30.355L23.2329 30.543L23.2339 30.545Z" fill="white"/>
<path fill-rule="evenodd" clip-rule="evenodd" d="M57.5919 40.7051V40.051C57.7369 40.0137 57.8683 39.9361 57.9709 39.827C58.1341 39.6428 58.2416 39.416 58.2809 39.173L58.5909 38.053L57.5909 37.777V37.1061L59.2619 37.5541L58.7619 39.449C58.6958 39.8167 58.5152 40.1541 58.2459 40.413C58.0585 40.5688 57.8319 40.6702 57.5909 40.7061L57.5919 40.7051ZM57.5919 35.2631V34.7131L59.6589 34.8511L59.6249 35.3851L57.5929 35.2651L57.5919 35.2631ZM57.5919 32.335V31.681L59.8479 31.819L59.7959 32.473L57.5919 32.335ZM57.5919 28.116V27.462L59.4179 27.2211L59.5039 27.876L57.5919 28.116ZM57.5919 25.894V25.136C57.8126 24.9913 57.9794 24.7779 58.0666 24.5287C58.1537 24.2796 58.1563 24.0088 58.0739 23.7581C57.988 23.4983 57.8185 23.2743 57.5919 23.121V22.413C57.8344 22.5386 58.0493 22.7116 58.2238 22.9216C58.3983 23.1317 58.5289 23.3746 58.6079 23.636C58.7455 24.0715 58.7179 24.5423 58.5305 24.9588C58.3431 25.3753 58.009 25.7082 57.5919 25.894ZM57.5919 22.415V23.121C57.2864 22.9761 56.9539 22.8966 56.6159 22.8876C56.2779 22.8787 55.9417 22.9405 55.6289 23.069C55.5349 23.0898 55.4429 23.1186 55.3539 23.155V22.413L55.4539 22.3621C56.1484 22.1185 56.9078 22.1366 57.5899 22.413L57.5919 22.415ZM57.5919 25.136V25.894L57.2989 25.3431C57.4043 25.2861 57.5026 25.2159 57.5919 25.136ZM57.5919 27.462V28.116L55.3529 28.3911V27.736L57.5919 27.462ZM57.5919 31.681V32.335L56.5419 32.2651C56.197 32.2148 55.8449 32.2626 55.5259 32.4031C55.4614 32.4393 55.4033 32.4859 55.3539 32.5411V31.7661C55.743 31.6158 56.1641 31.5682 56.5769 31.6281L57.5919 31.681ZM57.5919 34.7111V35.262L56.3519 35.1931C56.0095 35.1795 55.6716 35.1095 55.3519 34.986V34.313L55.3689 34.3301C55.6565 34.5575 56.0193 34.6682 56.3849 34.6401L57.5919 34.7111ZM57.5919 37.105L57.5909 37.777L56.9549 37.605L56.6959 38.569C56.568 38.8748 56.5496 39.2153 56.6439 39.533C56.6924 39.6534 56.7694 39.7602 56.8684 39.8442C56.9673 39.9281 57.0852 39.9868 57.2119 40.0151C57.3329 40.06 57.4637 40.0721 57.5909 40.05V40.704C57.4351 40.7185 57.278 40.707 57.1259 40.67C56.8594 40.6109 56.6225 40.459 56.4576 40.2414C56.2928 40.0238 56.2106 39.7546 56.2259 39.4821C56.1379 39.6555 56.0138 39.8082 55.8621 39.93C55.7103 40.0517 55.5344 40.1397 55.3459 40.188V39.5681C55.489 39.5367 55.6247 39.4783 55.7459 39.3961C55.9752 39.191 56.122 38.9095 56.1589 38.6041L56.4689 37.467L55.3489 37.1741V36.485L57.5879 37.105H57.5919ZM55.3529 26.496V25.913C55.4509 25.9154 55.5489 25.9098 55.6459 25.8961L55.6979 26.496C55.5836 26.5135 55.4672 26.5135 55.3529 26.496ZM55.3529 22.4141V23.155C55.0288 23.2814 54.7254 23.4557 54.4529 23.6721C54.2573 23.829 54.1122 24.04 54.0357 24.2788C53.9592 24.5176 53.9548 24.7737 54.0229 25.0151C54.1101 25.2926 54.2885 25.5325 54.5292 25.6959C54.7699 25.8593 55.0588 25.9365 55.3489 25.915V26.501C54.9386 26.5251 54.5324 26.4085 54.1973 26.1705C53.8622 25.9325 53.6183 25.5874 53.5059 25.1921C53.0629 23.7931 54.1649 22.813 55.3529 22.413V22.4141ZM55.3529 27.736V28.3911L54.9219 28.4421L55.2319 30.8361L54.6459 30.905L54.2839 27.874L55.3529 27.736ZM55.3529 31.7661V32.5411C55.1657 32.7829 55.0628 33.0793 55.0599 33.3851C55.0419 33.5519 55.0586 33.7207 55.109 33.8807C55.1594 34.0408 55.2425 34.1887 55.3529 34.3151V34.9871C55.2163 34.9172 55.089 34.8305 54.9739 34.7291C54.7917 34.5422 54.6538 34.3167 54.5704 34.0694C54.4869 33.8221 54.4601 33.5591 54.4919 33.3C54.4897 33.0449 54.5407 32.7922 54.6416 32.5579C54.7425 32.3235 54.8911 32.1128 55.0779 31.939C55.1631 31.8719 55.2553 31.8133 55.3529 31.7661ZM55.3529 36.485V37.1741L54.6309 36.967L54.3039 38.1901C54.2039 38.4674 54.1979 38.7699 54.2869 39.051C54.3385 39.1745 54.4184 39.2841 54.5202 39.371C54.622 39.4578 54.7429 39.5195 54.8729 39.551C55.0305 39.5909 55.1949 39.5968 55.3549 39.5681V40.188C55.1326 40.234 54.9026 40.2282 54.6829 40.171C54.4775 40.125 54.2859 40.0308 54.1242 39.896C53.9625 39.7612 53.8352 39.5898 53.7529 39.3961C53.5861 38.9745 53.5922 38.5041 53.7699 38.087L54.2699 36.1921L55.3549 36.485H55.3529ZM50.9449 48.7131V46.819C51.0009 46.8039 51.059 46.7982 51.1169 46.8021C51.3727 46.8021 51.618 46.9037 51.7989 47.0845C51.9798 47.2654 52.0814 47.5107 52.0814 47.7665C52.0814 48.0223 51.9798 48.2677 51.7989 48.4485C51.618 48.6294 51.3727 48.7311 51.1169 48.7311C51.059 48.7344 51.0009 48.7283 50.9449 48.7131ZM50.9449 19.5911V18.558L52.2539 20.504L51.7719 20.8311L50.9449 19.5911ZM50.9449 18.491V17.7131L54.3549 15.405L54.7339 15.939L50.9449 18.488V18.491ZM50.9449 13.2731V12.373L51.3579 11.973L51.8059 12.438L50.9449 13.2731ZM50.9449 12.373V13.2731L48.4449 15.6151L50.0989 17.3541L49.6859 17.754L48.2719 16.254V14.894L50.9419 12.381L50.9449 12.373ZM50.9449 17.7131L50.0649 18.2991L50.9449 19.5911V18.558L50.9099 18.506L50.9449 18.4891V17.7131ZM50.9449 46.819V48.7131C50.7241 48.6705 50.5247 48.553 50.3804 48.3805C50.2361 48.208 50.1557 47.9909 50.1529 47.7661C50.1529 47.5404 50.2322 47.3219 50.377 47.1487C50.5217 46.9756 50.7228 46.8589 50.9449 46.819ZM48.2749 11.9091V9.53107L48.3439 9.46204L48.9439 9.91003L48.2749 11.9091ZM48.2749 9.53302V11.913L47.8959 13.0311V11.0681L48.1889 10.207L47.8959 10.431V9.79407L48.2749 9.53607V9.53302ZM48.2749 14.889V16.249L47.8959 15.834V15.248L48.2749 14.889ZM47.8959 9.78906V10.426L47.1209 10.96V10.34L47.8959 9.78906ZM47.8959 11.063V13.0261L47.1899 15.0751L47.1209 15.006V13.2531L47.1559 13.1531L47.1209 13.136V12.5161L47.3279 12.671L47.8959 11.071V11.063ZM47.8959 15.248V15.834L47.5859 15.524L47.8959 15.248ZM47.1209 10.34V10.96L46.0529 11.7181L47.1209 12.5101V13.1301L45.6209 12.0101L44.6049 12.7321V12.113L47.1179 10.3391L47.1209 10.34ZM47.1209 13.251V15.0131L46.6559 14.686L47.1209 13.251ZM44.6079 55.858V54.913L45.8819 56.257L45.2819 56.533L44.6079 55.858ZM44.6079 50.881V50.4161L44.8659 50.6041L44.6079 50.879V50.881ZM44.6079 9.42804V8.54803C44.6768 8.37669 44.6768 8.18538 44.6079 8.01404V7.17206C44.8255 7.29763 45.0089 7.47483 45.1419 7.68805C45.2432 7.86186 45.3009 8.05767 45.31 8.25867C45.319 8.45966 45.2792 8.65982 45.1939 8.84204C45.0733 9.10006 44.8659 9.30749 44.6079 9.42804ZM44.6079 7.17206V8.01605C44.5859 7.96095 44.557 7.90884 44.5219 7.86102C44.3752 7.66084 44.1707 7.51045 43.9359 7.43005L42.8859 6.91302L42.4379 7.82605V6.34503L42.5239 6.15704L44.2809 7.01807C44.4019 7.07007 44.5049 7.11706 44.6079 7.17206ZM44.6079 8.55005V9.42908C44.3687 9.53077 44.1036 9.55487 43.8499 9.49805V9.51508C44.1012 9.69488 44.2797 9.95876 44.3531 10.2589C44.4265 10.5591 44.3899 10.8756 44.2499 11.1511C44.1655 11.3434 44.0375 11.5135 43.8761 11.648C43.7147 11.7825 43.5243 11.8776 43.3199 11.926C43.0246 11.9859 42.7181 11.9559 42.4399 11.84V11.2531C42.6416 11.3353 42.8623 11.3592 43.0769 11.322C43.2088 11.2972 43.3326 11.2402 43.4372 11.1561C43.5419 11.0721 43.6242 10.9635 43.6769 10.84C43.7408 10.7022 43.7739 10.552 43.7739 10.4C43.7739 10.248 43.7408 10.0979 43.6769 9.96002C43.5158 9.70021 43.2737 9.50063 42.9879 9.39203L42.4379 9.13507V8.58307L43.0379 8.87604C43.3213 9.0505 43.6534 9.12904 43.9849 9.10004C44.1128 9.0755 44.2329 9.02042 44.335 8.93945C44.437 8.85849 44.5179 8.75407 44.5709 8.63507C44.5879 8.61807 44.5879 8.58307 44.6059 8.54907L44.6079 8.55005ZM44.6079 12.1151V12.735L44.3489 12.9421L43.9009 12.6151L44.6079 12.1151ZM44.6079 50.415V50.881L43.6919 51.934L43.4339 51.7271L44.4159 50.2631L44.6039 50.418L44.6079 50.415ZM44.6079 54.91V55.858L44.1599 55.392L42.4379 56.2191V55.668L43.8159 55.0131L42.4379 53.5491V52.6381L44.6079 54.9111V54.91ZM42.4379 57.889V56.2891L42.6619 57.7891L42.4379 57.889ZM42.4379 6.34503V7.82605L42.1449 8.42505L42.4379 8.58008V9.13202L41.9209 8.87402L41.0939 10.5961L42.2309 11.147L42.4379 11.2471V11.8331C42.2946 11.7905 42.1561 11.7328 42.0249 11.6611L40.2679 10.8171L42.4379 6.33905V6.34503ZM42.4379 52.636V53.5471L42.0249 53.1171L42.3869 55.7001L42.4389 55.6661V56.217H42.4219L42.4389 56.2861V57.886L42.1799 58.007L41.4579 52.6171L42.1299 52.29L42.4399 52.636H42.4379ZM33.2919 58.3231V57.8231L34.0839 57.788L33.2919 55.67V54.637H33.5669L35.5129 59.717L34.8589 59.7521L34.2589 58.2711L33.2949 58.3231H33.2919ZM33.2919 8.02307V5.45703C33.4428 5.8354 33.5244 6.23778 33.5329 6.64502C33.5362 7.11349 33.4546 7.57873 33.2919 8.01807V8.02307ZM35.4099 9.59003L36.1849 5.04303L34.7209 4.78503L34.8209 4.23407L38.3509 4.82007L38.2649 5.38806L36.8199 5.14703L36.0449 9.69403L35.4079 9.59406L35.4099 9.59003ZM40.1289 58.6901L36.4609 54.952L37.5609 59.326L37.0449 59.4641L35.7709 54.452L36.5629 54.2451L39.9729 57.7451L38.9399 53.645L39.4739 53.507L40.7309 58.5361L40.1309 58.691L40.1289 58.6901ZM33.2919 5.45203V8.01807C33.1725 8.40796 32.9338 8.75056 32.6095 8.99774C32.2852 9.24493 31.8915 9.38425 31.4839 9.39606H31.4149V8.87903H31.4669C32.5669 8.84503 32.8809 7.57008 32.8449 6.69208C32.8575 6.20065 32.745 5.71408 32.5179 5.27808C32.41 5.07911 32.2514 4.91213 32.0583 4.79413C31.8651 4.67613 31.6442 4.61128 31.4179 4.60608V4.07202C31.8358 4.07581 32.2419 4.21095 32.5787 4.45825C32.9156 4.70555 33.1661 5.05253 33.2949 5.45007L33.2919 5.45203ZM33.2919 54.6381V55.67L33.1709 55.3441L32.4989 57.876L33.2909 57.824V58.324L32.3439 58.376L31.9819 59.892L31.4309 59.926L32.8309 54.673L33.2919 54.6381ZM31.4149 4.07507V4.60907H31.3979C30.2439 4.64307 29.9529 5.88302 29.9689 6.80902C29.9859 7.68802 30.3689 8.85804 31.4159 8.87604V9.39307C29.9869 9.39307 29.3159 8.10103 29.2979 6.82703C29.2629 5.53503 29.8659 4.10604 31.3639 4.07104L31.4149 4.07507ZM28.7279 57.413V56.879C28.8812 56.9202 29.0418 56.9261 29.1976 56.8963C29.3535 56.8665 29.5006 56.8018 29.6279 56.707C29.8206 56.5469 29.9444 56.3189 29.9739 56.0701C30.0012 55.9321 29.9916 55.7894 29.9461 55.6563C29.9006 55.5232 29.8209 55.4045 29.7149 55.3121C29.5217 55.1495 29.2784 55.0584 29.0259 55.0541L28.7329 55.02V54.452L29.0949 54.504C29.5143 54.5305 29.9134 54.6939 30.2309 54.9691C30.3834 55.1268 30.497 55.318 30.5628 55.5273C30.6286 55.7366 30.6447 55.9584 30.6099 56.175C30.5802 56.4714 30.4523 56.7493 30.2464 56.9646C30.0406 57.1799 29.7686 57.3201 29.4739 57.363L30.1629 59.876L29.4919 59.7911L28.8549 57.4321L28.7279 57.413ZM28.7279 54.451V55.019L27.7459 54.881L27.4879 56.7061L28.6939 56.8781L28.7279 56.879V57.413L27.4189 57.2401L27.1089 59.4631L26.4709 59.376L27.1769 54.2441L28.7279 54.451ZM26.0759 10.0881V9.53705C26.2432 9.55934 26.4132 9.54778 26.5759 9.50305C27.6609 9.24505 27.6959 7.93607 27.4889 7.07507C27.3834 6.59951 27.1649 6.1563 26.8519 5.78302C26.6532 5.5485 26.3793 5.39016 26.0769 5.33502V4.78406C26.5994 4.87005 27.0812 5.11971 27.4527 5.49713C27.8242 5.87455 28.0662 6.36019 28.1439 6.88403C28.4369 8.10703 28.1439 9.67407 26.7149 10.0181C26.5052 10.065 26.2908 10.0875 26.0759 10.085V10.0881ZM26.0759 4.78802V5.33905C25.921 5.31916 25.7639 5.32494 25.6109 5.35608C24.4739 5.63208 24.4569 6.92303 24.6809 7.81903C24.8529 8.54203 25.3179 9.40408 26.0759 9.54108V10.092C25.5508 10.005 25.0671 9.75271 24.6953 9.37177C24.3236 8.99082 24.0831 8.50116 24.0089 7.97406C23.7159 6.71706 24.0089 5.20103 25.4559 4.84003C25.6581 4.7871 25.8674 4.76685 26.0759 4.78003V4.78802ZM23.6479 57.0131V56.4791L24.3889 56.738L24.4229 54.1381L23.6479 55.171V54.327L24.3539 53.3801L25.0599 53.621L25.0079 59.063L24.3709 58.8391L24.3539 57.2551L23.6479 57.0131ZM23.6479 54.327V55.171L22.8729 56.22L23.6479 56.478V57.012L22.5479 56.6331L21.8249 57.649V56.7891L23.6499 54.326L23.6479 54.327ZM21.8229 54.8771C22.0326 54.7304 22.204 54.5356 22.3229 54.309C22.4281 54.1092 22.4913 53.8901 22.5085 53.6649C22.5257 53.4398 22.4966 53.2135 22.4229 53.0001C22.2907 52.7192 22.0829 52.4806 21.8229 52.311V53.1381C21.9005 53.367 21.9005 53.6151 21.8229 53.8441V54.8771ZM21.8229 11.702V10.5831L22.2359 11.5131L21.8229 11.702ZM21.8229 9.01508V8.44702L22.9229 7.94702L23.1299 8.42908L21.8229 9.01508ZM21.8229 6.63806V6.03802L22.4089 5.76306L22.6499 6.28003L21.8229 6.63806ZM21.8229 6.03802V6.63806L20.5999 7.18805V6.56903L21.8229 6.03503V6.03802ZM21.8229 8.44904V9.01703L21.2379 9.27502L21.8229 10.5831V11.7031L21.6509 11.7891L20.5999 9.48907V7.90308L21.0129 8.81604L21.8229 8.44904ZM21.8229 52.313V53.1401C21.8184 53.1401 21.8141 53.1383 21.8109 53.1351C21.8077 53.1319 21.8059 53.1276 21.8059 53.123C21.697 52.8953 21.5063 52.7168 21.2719 52.623L20.5999 52.261V51.6611L21.4799 52.1091C21.6009 52.1781 21.7039 52.247 21.8259 52.316L21.8229 52.313ZM21.8229 53.8461V54.8801C21.6957 54.9636 21.5564 55.027 21.4099 55.0681C21.1455 55.1457 20.8643 55.1457 20.5999 55.0681V54.5001C20.7784 54.5572 20.9693 54.5631 21.1509 54.517C21.4023 54.4303 21.6116 54.2517 21.7369 54.017C21.7709 53.965 21.7879 53.8961 21.8229 53.8441V53.8461ZM21.8229 56.7911V57.652L21.6349 57.91L21.1179 57.738L21.8229 56.7911ZM20.5999 6.57202V7.19104L20.3419 7.31104L20.5999 7.89703V9.48407L19.5149 7.07104L20.5999 6.57202ZM20.5999 51.6591V52.259L20.2729 52.087L19.3419 53.8441L20.3059 54.361C20.4059 54.413 20.5129 54.461 20.5989 54.499V55.0671C20.4324 55.0126 20.2711 54.9433 20.1169 54.86L19.0839 54.326L18.1019 56.186L17.5329 55.876L19.9439 51.295L20.5979 51.657L20.5999 51.6591ZM14.9169 17.059V15.4401C15.0957 15.6642 15.1874 15.9456 15.1749 16.2321C15.1736 16.5278 15.0834 16.8163 14.9159 17.0601L14.9169 17.059ZM14.9169 13.132L15.9849 15.819L16.3979 15.473L15.7979 14.0281L17.2789 12.8051L18.6389 13.632L19.1549 13.201L14.9179 10.5311V11.2731L16.8469 12.5131L15.6239 13.5291L14.9179 11.772L14.9169 13.132ZM14.9169 10.532V11.274L14.6589 11.1021L14.9169 11.774V13.134L14.5709 12.29V10.313L14.9169 10.532ZM14.9169 15.4401V17.059C14.8309 17.18 14.7289 17.3 14.6239 17.438L14.5729 17.507V15.0961C14.6069 15.1131 14.6239 15.148 14.6589 15.165C14.7536 15.2482 14.8397 15.3406 14.9159 15.441L14.9169 15.4401ZM14.5709 10.313V12.2941L14.2609 11.5021V10.537L14.5359 10.296L14.5709 10.313ZM14.5709 15.1011V17.512L14.2609 17.8911V17.011C14.4255 16.8243 14.5224 16.5876 14.5359 16.3391C14.5441 16.2162 14.5235 16.0931 14.4757 15.9796C14.428 15.866 14.3544 15.7652 14.2609 15.6851V14.9291C14.3681 14.9797 14.471 15.0372 14.5709 15.1011ZM14.2609 10.537V11.5021L13.9679 10.7791L14.2609 10.537ZM14.2609 14.9291V15.6871C14.2439 15.6701 14.2259 15.652 14.2089 15.652C14.0926 15.5504 13.9543 15.4772 13.8049 15.4384C13.6554 15.3995 13.499 15.3959 13.3479 15.428C13.0552 15.5231 12.8053 15.7182 12.6419 15.9791L12.3319 16.358V15.566C12.4812 15.3917 12.5718 15.1748 12.5909 14.946C12.5978 14.8273 12.5781 14.7085 12.5333 14.5983C12.4885 14.4881 12.4197 14.3893 12.3319 14.309V13.5341C12.4386 13.5745 12.5376 13.6326 12.6249 13.7061C12.8388 13.8721 12.9872 14.1083 13.0439 14.373C13.1006 14.6377 13.062 14.914 12.9349 15.1531L12.9519 15.17C13.1286 15.0166 13.343 14.9129 13.5731 14.8697C13.8031 14.8265 14.0405 14.8452 14.2609 14.9241V14.9291ZM14.2609 17.0131V17.8931L13.3999 18.9431L12.3319 18.082V17.238L13.3829 18.0991L14.1749 17.1171C14.2089 17.0831 14.2269 17.048 14.2609 17.017V17.0131ZM12.3329 48.735V46.806H12.3849C12.6407 46.806 12.886 46.9077 13.0669 47.0886C13.2478 47.2694 13.3494 47.5148 13.3494 47.7706C13.3494 48.0264 13.2478 48.2717 13.0669 48.4526C12.886 48.6335 12.6407 48.735 12.3849 48.735H12.3329ZM12.3329 20.509V19.751L12.7639 20.009L12.4179 20.577L12.3329 20.509ZM9.6969 36.9561C9.88103 37.1387 10.0272 37.356 10.1269 37.5955C10.2266 37.8349 10.278 38.0917 10.278 38.3511C10.278 38.6104 10.2266 38.8672 10.1269 39.1066C10.0272 39.3461 9.88103 39.5634 9.6969 39.746V38.5751C9.7485 38.395 9.7485 38.2041 9.6969 38.024V36.9561ZM12.3319 13.5341V14.309L12.2809 14.2581C12.1771 14.1657 12.0497 14.1039 11.9129 14.0795C11.7761 14.0552 11.6352 14.0692 11.5059 14.1201C11.2825 14.2206 11.0916 14.3817 10.9549 14.585L10.2149 15.498L11.5239 16.566L12.1609 15.7911C12.2225 15.7198 12.2799 15.645 12.3329 15.5671V16.3591L11.9029 16.8931L12.3329 17.2391V18.0831L9.6969 15.9291V15.274L10.6269 14.155C10.8344 13.8445 11.1363 13.6089 11.4879 13.483C11.766 13.3957 12.0666 13.4132 12.3319 13.5341ZM12.3329 19.751V20.509L9.6969 18.925V18.1671L12.3329 19.751ZM12.3329 46.806V48.735C12.0865 48.7215 11.8547 48.614 11.6853 48.4346C11.5158 48.2553 11.4215 48.0178 11.4219 47.7711C11.4172 47.5226 11.5099 47.2821 11.6801 47.1011C11.8504 46.92 12.0846 46.8127 12.3329 46.8021V46.806ZM9.6969 27.3621V26.725L9.8849 26.673L9.7849 27.345L9.6969 27.3621ZM9.6969 25.623V24.951L10.3859 25.158L10.2139 25.7781L9.6969 25.623ZM9.6969 22.4711V21.7651L11.4199 22.525L11.1439 23.11L9.6969 22.4711ZM8.0789 36.4561C8.36839 36.4287 8.66042 36.4588 8.93825 36.5446C9.21607 36.6304 9.47323 36.7703 9.6969 36.9561L9.6979 38.007C9.4909 37.232 8.8179 37.0421 8.1139 37.0601L8.0789 36.4561ZM9.6969 39.746C9.27066 40.1631 8.74182 40.4601 8.1639 40.6071C7.72753 40.7317 7.27152 40.7728 6.8199 40.728V40.0391C7.22686 40.0633 7.63495 40.0167 8.0259 39.9011C8.45343 39.8006 8.85336 39.6066 9.1969 39.3331C9.43944 39.1395 9.61447 38.8742 9.6969 38.5751V39.746ZM9.6969 15.274V15.9291L9.3869 15.671L9.6969 15.274ZM9.6969 18.1671V18.925L7.9969 17.892L8.32491 17.342L9.6969 18.1671ZM9.6969 21.767V22.473L6.9419 21.2501L6.8209 21.491V20.0961L7.26891 19.0801L7.7859 19.3041L7.19991 20.647L9.6969 21.767ZM9.6969 24.9531V25.6251L6.8209 24.764V24.092L9.6969 24.9531ZM9.6969 26.7271V27.3621L7.4239 27.9631L7.2169 29.392L9.4389 29.702L9.35291 30.3571L6.8209 29.978V28.478L6.8729 28.0991C6.943 27.8479 6.92464 27.5803 6.8209 27.3411V26.4301C6.97056 26.5332 7.09693 26.6666 7.19183 26.8217C7.28674 26.9767 7.34808 27.1499 7.3719 27.3301L9.6969 26.73V26.7271ZM6.8209 35.6481V34.959H6.9589C7.8389 34.907 9.0259 34.4771 8.9589 33.3751C8.8899 32.3251 7.7019 32.032 6.8229 32.066V31.394C8.0459 31.377 9.3889 31.945 9.4749 33.342C9.5749 34.823 8.2869 35.5641 6.9949 35.6331C6.93851 35.6458 6.88065 35.6509 6.8229 35.6481H6.8209ZM6.8199 40.728C6.40482 40.6922 6.01261 40.5264 5.69718 40.2543C5.38175 39.9821 5.16015 39.6174 5.0639 39.212C4.94226 38.7714 4.98718 38.3013 5.19008 37.8917C5.39298 37.482 5.73965 37.1613 6.1639 36.991L6.4399 37.54C5.8539 37.886 5.3899 38.349 5.5959 39.09C5.67145 39.358 5.83106 39.5948 6.05123 39.7653C6.2714 39.9357 6.5405 40.031 6.8189 40.037V40.7261L6.8199 40.728ZM6.8209 20.0961V21.496L6.33891 22.5961L5.8229 22.3701L6.8229 20.097L6.8209 20.0961ZM6.8209 24.0961V24.7681L5.2369 24.3021L5.4249 23.6821L6.8199 24.095L6.8209 24.0961ZM6.8209 26.438V27.3491C6.8001 27.2903 6.76586 27.2372 6.7209 27.194C6.64485 27.0936 6.54916 27.0097 6.43964 26.9475C6.33013 26.8853 6.20909 26.846 6.0839 26.832C5.94603 26.804 5.80319 26.8132 5.67 26.8585C5.53681 26.9039 5.41806 26.9837 5.3259 27.09C5.16043 27.2816 5.0686 27.5259 5.0669 27.7791L4.8789 29.053L6.7049 29.311L6.82491 28.485V29.985L4.2249 29.6061L4.5179 27.694C4.54597 27.2766 4.71606 26.8814 4.9999 26.574C5.15423 26.422 5.34221 26.3085 5.54861 26.2426C5.75502 26.1768 5.97403 26.1605 6.1879 26.1951C6.41599 26.2252 6.63401 26.3076 6.82491 26.436L6.8209 26.438ZM6.8209 31.3981V32.0701H6.7209C6.2287 32.0879 5.74823 32.2251 5.3209 32.47C5.12276 32.5877 4.96038 32.7571 4.85116 32.9601C4.74194 33.163 4.69 33.3919 4.7009 33.6221C4.7529 34.7221 5.9069 35 6.8189 34.965V35.6541C5.5789 35.6711 4.2529 35.103 4.1669 33.675C4.1499 33.675 4.1499 33.6581 4.1499 33.6411V33.452C4.22706 32.86 4.52595 32.3193 4.98623 31.939C5.44651 31.5587 6.03393 31.3672 6.62991 31.4031L6.8209 31.3981Z" fill="white"/>
<path fill-rule="evenodd" clip-rule="evenodd" d="M27.7809 14.1162C24.3709 16.0972 20.9809 21.8482 20.6339 22.4342C20.2719 23.0202 17.2239 20.1612 17.6199 19.5762C19.4046 17.1473 21.8496 15.2823 24.6639 14.2032C26.9719 13.3752 28.6079 13.5302 27.7809 14.1162Z" fill="white"/>
<path fill-rule="evenodd" clip-rule="evenodd" d="M29.3829 15.2342C27.3679 18.0062 25.8529 23.8622 25.6829 24.5162C25.5109 25.1882 21.4469 23.6722 21.7049 22.9492C22.4171 21.3539 23.3193 19.8503 24.3919 18.4712C25.4869 16.9118 26.8726 15.5785 28.4729 14.5442C29.1939 14.1842 30.0889 14.2872 29.3829 15.2342Z" fill="white"/>
<path fill-rule="evenodd" clip-rule="evenodd" d="M31.6049 25.2232C31.6049 25.9812 26.6099 25.5162 26.7309 24.6552C26.8509 23.8112 28.1759 17.8002 30.3309 15.1482C30.4414 14.9938 30.5765 14.8587 30.7309 14.7482C30.8034 14.6926 30.8903 14.6587 30.9814 14.6506C31.0725 14.6425 31.164 14.6605 31.2453 14.7024C31.3265 14.7443 31.3942 14.8085 31.4403 14.8875C31.4865 14.9664 31.5092 15.0568 31.5059 15.1482C31.6049 18.6622 31.6049 24.4482 31.6049 25.2232Z" fill="white"/>
<path fill-rule="evenodd" clip-rule="evenodd" d="M27.7809 49.7292C24.3709 47.7292 20.9809 41.9952 20.6339 41.4112C20.2719 40.8262 17.2239 43.6671 17.6199 44.2521C19.4035 46.6818 21.8489 48.5468 24.6639 49.6242C26.9719 50.4702 28.6079 50.2982 27.7809 49.7292Z" fill="white"/>
<path fill-rule="evenodd" clip-rule="evenodd" d="M29.3829 48.6111C27.3679 45.8381 25.8529 39.9661 25.6829 39.2951C25.5109 38.6411 21.4469 40.1752 21.7049 40.8952C22.4213 42.4883 23.3232 43.9913 24.3919 45.3731C25.487 46.9324 26.8726 48.2658 28.4729 49.3001C29.1939 49.6611 30.0889 49.5581 29.3829 48.6111Z" fill="white"/>
<path fill-rule="evenodd" clip-rule="evenodd" d="M31.6049 38.6031C31.6049 37.8281 26.6099 38.3101 26.7309 39.1541C26.8509 40.0151 28.1759 46.0431 30.3309 48.6951C30.4461 48.8454 30.5806 48.9799 30.7309 49.0951C31.0409 49.3191 31.5409 49.1641 31.5059 48.8881C31.6049 45.3731 31.6049 39.3621 31.6049 38.6031Z" fill="white"/>
<path fill-rule="evenodd" clip-rule="evenodd" d="M36.2728 49.7292C39.6828 47.7292 43.0729 41.9972 43.4199 41.4112C43.7819 40.8262 46.8299 43.6671 46.4509 44.2521C44.6632 46.6778 42.219 48.5419 39.4068 49.6242C37.0808 50.4702 35.4448 50.2982 36.2728 49.7292Z" fill="white"/>
<path fill-rule="evenodd" clip-rule="evenodd" d="M34.6699 48.6102C36.7019 45.8372 38.2009 39.9652 38.3699 39.2932C38.5419 38.6392 42.6069 40.1722 42.3479 40.8932C41.6388 42.4901 40.7364 43.9941 39.6609 45.3712C38.5657 46.9302 37.1802 48.2631 35.58 49.2971C34.859 49.6601 33.9639 49.5572 34.6699 48.6102Z" fill="white"/>
<path fill-rule="evenodd" clip-rule="evenodd" d="M32.4479 38.6031C32.4479 37.8281 37.4429 38.3101 37.3219 39.1541C37.2009 40.0151 35.8749 46.0431 33.7219 48.6951C33.6143 48.845 33.4868 48.9796 33.3429 49.0951C33.0159 49.3191 32.5339 49.1641 32.5509 48.8881C32.4479 45.3731 32.4479 39.3621 32.4479 38.6031Z" fill="white"/>
<path fill-rule="evenodd" clip-rule="evenodd" d="M36.1849 14.115C39.5779 16.096 42.985 21.848 43.333 22.433C43.694 23.019 46.7429 20.16 46.3469 19.575C44.5628 17.1459 42.1181 15.2808 39.3039 14.202C36.9959 13.374 35.3589 13.529 36.1849 14.115Z" fill="white"/>
<path fill-rule="evenodd" clip-rule="evenodd" d="M34.5839 15.2342C36.5989 18.0062 38.1139 23.8622 38.2839 24.5162C38.4559 25.1882 42.5209 23.6722 42.2619 22.9492C41.5501 21.3539 40.6482 19.8503 39.5759 18.4712C38.4807 16.9116 37.0946 15.5782 35.4938 14.5442C34.7738 14.1842 33.8739 14.2872 34.5839 15.2342Z" fill="white"/>
<path fill-rule="evenodd" clip-rule="evenodd" d="M32.3619 25.2232C32.3619 25.9812 37.3568 25.5162 37.2358 24.6552C37.1148 23.8112 35.7889 17.8002 33.6359 15.1482C33.5254 14.9938 33.3902 14.8587 33.2358 14.7482C33.1633 14.6926 33.0764 14.6587 32.9854 14.6506C32.8943 14.6425 32.8028 14.6605 32.7215 14.7024C32.6402 14.7443 32.5726 14.8085 32.5264 14.8875C32.4803 14.9664 32.4576 15.0568 32.4609 15.1482C32.3619 18.6622 32.3619 24.4482 32.3619 25.2232Z" fill="white"/>
</g>
<defs>
<clipPath id="clip0_40_26850">
<rect width="64" height="64" fill="white"/>
</clipPath>
</defs>
</svg>
