<svg width="64" height="64" viewBox="0 0 64 64" fill="none" xmlns="http://www.w3.org/2000/svg">
<g clip-path="url(#clip0_40_26875)">
<path d="M32 64C49.6731 64 64 49.6731 64 32C64 14.3269 49.6731 0 32 0C14.3269 0 0 14.3269 0 32C0 49.6731 14.3269 64 32 64Z" fill="#003080"/>
<path fill-rule="evenodd" clip-rule="evenodd" d="M32.08 0.000100009C38.4056 0.015914 44.5846 1.90611 49.8364 5.43192C55.0882 8.95772 59.1773 13.961 61.587 19.8096C63.9968 25.6582 64.6191 32.0898 63.3753 38.2919C62.1316 44.494 59.0776 50.1884 54.5991 54.6556C50.1207 59.1229 44.4187 62.1627 38.2135 63.391C32.0083 64.6192 25.5783 63.9809 19.7357 61.5565C13.8931 59.1322 8.90015 55.0306 5.38747 49.77C1.87479 44.5094 1.97677e-05 38.3257 1.56255e-10 32.0001C-1.31531e-05 27.7911 0.830335 23.6234 2.44349 19.7357C4.05664 15.8481 6.42089 12.3169 9.40085 9.34435C12.3808 6.37183 15.9179 4.01639 19.8096 2.41296C23.7012 0.809517 27.871 -0.0104226 32.08 0.000100009Z" fill="#003080"/>
<path fill-rule="evenodd" clip-rule="evenodd" d="M32.08 0.850941C38.2372 0.867347 44.2513 2.70814 49.3628 6.14079C54.4743 9.57345 58.4538 14.444 60.7987 20.1371C63.1436 25.8303 63.7486 32.0907 62.5373 38.1275C61.3261 44.1644 58.3529 49.7068 53.9934 54.0548C49.6338 58.4027 44.0835 61.3612 38.0434 62.5564C32.0034 63.7515 25.7446 63.1299 20.0577 60.7698C14.3708 58.4098 9.51091 54.4174 6.09187 49.2967C2.67283 44.1761 0.848044 38.1571 0.848022 31.9999C0.848008 27.9024 1.65644 23.8451 3.22701 20.0605C4.79758 16.2759 7.09943 12.8384 10.0007 9.94487C12.9019 7.05134 16.3456 4.75865 20.1343 3.19815C23.9231 1.63766 27.9825 0.840022 32.08 0.850941Z" fill="white"/>
<path fill-rule="evenodd" clip-rule="evenodd" d="M32.093 1.70097C38.0787 1.71085 43.9271 3.49485 48.8992 6.82752C53.8714 10.1602 57.744 14.8919 60.0278 20.4248C62.3116 25.9577 62.904 32.0434 61.7302 37.9129C60.5564 43.7824 57.669 49.1722 53.433 53.4012C49.197 57.6303 43.8024 60.5087 37.931 61.6729C32.0596 62.837 25.9749 62.2345 20.4457 59.9416C14.9166 57.6487 10.1913 53.7683 6.86681 48.7906C3.54236 43.813 1.76801 37.9617 1.76801 31.976C1.768 27.996 2.55274 24.0551 4.07733 20.3787C5.60191 16.7023 7.83643 13.3626 10.653 10.5506C13.4696 7.73867 16.813 5.50967 20.4919 3.99115C24.1708 2.47263 28.113 1.6944 32.093 1.70097Z" fill="#003080"/>
<path fill-rule="evenodd" clip-rule="evenodd" d="M32.101 10.867C36.2739 10.8765 40.3504 12.1226 43.8155 14.4478C47.2805 16.7731 49.9786 20.0731 51.5689 23.9311C53.1593 27.7891 53.5705 32.0319 52.7506 36.1235C51.9306 40.2151 49.9164 43.9719 46.9624 46.9192C44.0083 49.8665 40.247 51.8722 36.1536 52.6828C32.0601 53.4934 27.8183 53.0726 23.9639 51.4735C20.1095 49.8744 16.8156 47.1688 14.4982 43.6985C12.1809 40.2282 10.944 36.1489 10.944 31.976C10.944 29.1999 11.4916 26.451 12.5554 23.8868C13.6193 21.3226 15.1784 18.9935 17.1437 17.0327C19.1089 15.0719 21.4416 13.518 24.0082 12.46C26.5748 11.402 29.3249 10.8607 32.101 10.867Z" fill="white"/>
<path fill-rule="evenodd" clip-rule="evenodd" d="M32.056 11.7601C36.0516 11.7708 39.9545 12.9654 43.2715 15.1932C46.5885 17.4209 49.1709 20.5817 50.6923 24.2764C52.2138 27.9711 52.6061 32.0338 51.8196 35.9513C51.0332 39.8688 49.1034 43.4653 46.2739 46.2866C43.4444 49.1078 39.8423 51.0272 35.9225 51.8022C32.0027 52.5771 27.9411 52.173 24.2509 50.6408C20.5607 49.1086 17.4074 46.517 15.1894 43.1936C12.9713 39.8701 11.788 35.9637 11.789 31.9681C11.7897 29.3095 12.3147 26.6772 13.3342 24.2219C14.3537 21.7666 15.8475 19.5366 17.7301 17.6594C19.6127 15.7823 21.8471 14.295 24.3054 13.2827C26.7637 12.2704 29.3975 11.753 32.056 11.7601Z" fill="#003080"/>
<path fill-rule="evenodd" clip-rule="evenodd" d="M32.059 12.5391C35.9 12.5466 39.6527 13.6925 42.8428 15.8319C46.0329 17.9714 48.5172 21.0084 49.9819 24.5592C51.4466 28.1101 51.826 32.0154 51.072 35.7817C50.3181 39.5481 48.4646 43.0065 45.7459 45.7199C43.0272 48.4333 39.5652 50.2799 35.7974 51.0265C32.0296 51.7731 28.125 51.3861 24.5771 49.9145C21.0291 48.4428 17.9969 45.9526 15.8637 42.7583C13.7305 39.5641 12.592 35.8092 12.592 31.9681C12.592 29.4134 13.0958 26.8839 14.0746 24.5242C15.0533 22.1644 16.4879 20.0209 18.296 18.2163C20.1042 16.4116 22.2505 14.9813 24.6122 14.0071C26.9738 13.033 29.5043 12.5341 32.059 12.5391Z" fill="white"/>
<path fill-rule="evenodd" clip-rule="evenodd" d="M36.587 40.686C34.0405 41.4757 31.6062 42.5899 29.344 44.001C26.6001 45.6185 24.2466 47.8211 22.451 50.452L21.446 51.945L8.85901 20.118L9.84801 19.818C14.1945 18.5728 18.7462 18.21 23.235 18.751C26.4639 19.1143 29.6334 19.8872 32.667 21.051L33.046 21.195L33.546 22.376C35.5965 23.0307 37.6804 23.5755 39.789 24.008C41.7129 24.4177 43.6706 24.649 45.637 24.699C46.8236 24.8749 48.0346 24.7827 49.1808 24.4292C50.3271 24.0756 51.3796 23.4697 52.261 22.656C53.0576 21.7448 53.6171 20.6511 53.89 19.472C54.7427 21.2105 55.2032 23.115 55.239 25.051C55.2816 27.4943 54.6878 29.9066 53.516 32.051C52.231 34.2836 50.459 36.1978 48.332 37.651C45.212 39.7385 41.7667 41.293 38.137 42.251L37.313 42.491L36.587 40.686Z" fill="white"/>
<path fill-rule="evenodd" clip-rule="evenodd" d="M10.109 20.725L21.653 49.915C23.5204 47.1734 25.9709 44.8786 28.829 43.195C31.4092 41.586 34.2034 40.3488 37.129 39.52L37.857 41.341C41.3852 40.4157 44.7342 38.9079 47.766 36.88C49.7815 35.5066 51.4598 33.6946 52.675 31.58C54.2933 28.6575 54.6929 25.2144 53.787 21.999C52.47 24.69 49.52 25.687 45.608 25.642C41.2506 25.4194 36.9471 24.5776 32.827 23.142L32.318 21.931C29.3588 20.7976 26.2673 20.0458 23.118 19.694C18.7562 19.1692 14.3336 19.5218 10.11 20.731" fill="#003080"/>
<path fill-rule="evenodd" clip-rule="evenodd" d="M18.312 38.1471L22.021 47.4381C23.7306 45.3663 25.7868 43.6069 28.098 42.2381C31.0829 40.4042 34.3391 39.0542 37.746 38.2381L38.421 39.9291C41.5285 39.2284 44.4786 37.9561 47.121 36.1771C49.076 34.8638 50.7154 33.1332 51.921 31.1101C52.418 30.2354 52.8014 29.3008 53.062 28.3291C51.228 30.2565 49.0218 31.7915 46.577 32.8411C43.4222 34.2127 40.0731 35.0852 36.65 35.4271L36.114 34.0981C32.7364 33.9853 29.3579 34.2971 26.058 35.0261C23.3095 35.5804 20.6876 36.6393 18.325 38.1491M52.01 24.9551C51.3009 25.5355 50.4575 25.9285 49.557 26.0981C48.2665 26.3808 46.9468 26.508 45.626 26.4771C43.4998 26.4356 41.3818 26.2013 39.298 25.7771C36.8774 25.3168 34.4836 24.7256 32.127 24.0061L31.556 22.5551C28.8094 21.5818 25.9519 20.9556 23.05 20.6911C19.2466 20.2848 15.401 20.5777 11.703 21.5551L14.003 27.3041C16.2811 26.5141 18.657 26.041 21.064 25.8981C25.0639 25.6305 29.0807 25.7753 33.051 26.3301L33.544 27.5911C37.7239 28.1793 41.9661 28.1722 46.144 27.5701C48.3209 27.3318 50.3687 26.4181 52 24.9571L52.01 24.9551Z" fill="white"/>
<path fill-rule="evenodd" clip-rule="evenodd" d="M36.635 35.4271L38.422 39.9341C39.145 39.7451 39.854 39.5471 40.555 39.3291L38.779 35.1291C38.077 35.2464 37.366 35.3464 36.646 35.4291M34.352 24.6481C33.645 24.4591 32.912 24.2481 32.128 24.0081L33.547 27.5971C34.2757 27.6771 34.9867 27.7454 35.68 27.8021L34.352 24.6481Z" fill="#D0D9E3"/>
<path fill-rule="evenodd" clip-rule="evenodd" d="M33.536 27.595L36.636 35.427C37.3593 35.3436 38.0703 35.2436 38.769 35.127L35.676 27.808C34.9773 27.7493 34.2663 27.681 33.543 27.603" fill="#092B66"/>
<path d="M59.808 30.488H59.325L58.573 30.736L58.688 31.216L59.221 31.072V33.546H59.821L59.808 30.488Z" fill="white"/>
<path d="M5.37898 30.4751H4.89598L4.14398 30.7231L4.25898 31.2031L4.79198 31.0591V33.5341H5.37898V30.4751Z" fill="white"/>
<path d="M7.38403 31.984C7.24238 31.9922 7.103 31.9456 6.99482 31.8538C6.88664 31.762 6.81795 31.6321 6.80303 31.491C6.79475 31.418 6.80267 31.344 6.82621 31.2744C6.84975 31.2049 6.88833 31.1413 6.93922 31.0883C6.9901 31.0353 7.05204 30.9942 7.12062 30.9679C7.18921 30.9415 7.26275 30.9306 7.33603 30.936C7.74703 30.936 7.95202 31.187 7.94102 31.469C7.94118 31.542 7.92633 31.6143 7.89738 31.6814C7.86843 31.7484 7.82601 31.8088 7.77275 31.8588C7.71949 31.9088 7.65652 31.9473 7.58776 31.9719C7.519 31.9965 7.44591 32.0068 7.37303 32.002M8.57302 31.954C8.6032 31.5734 8.50803 31.1934 8.30202 30.872C8.18772 30.7264 8.04013 30.6105 7.87167 30.5339C7.70321 30.4574 7.51882 30.4224 7.33403 30.432C7.1869 30.4277 7.04041 30.453 6.90324 30.5063C6.76607 30.5597 6.641 30.64 6.53544 30.7426C6.42988 30.8452 6.34598 30.9679 6.28871 31.1035C6.23144 31.2391 6.20196 31.3848 6.20203 31.532C6.20747 31.6683 6.24077 31.8021 6.29986 31.9251C6.35896 32.0481 6.4426 32.1577 6.54565 32.2472C6.64869 32.3366 6.76896 32.4041 6.89904 32.4453C7.02912 32.4865 7.16626 32.5007 7.30202 32.487C7.42586 32.4905 7.54911 32.4686 7.66417 32.4227C7.77923 32.3768 7.88366 32.3078 7.97103 32.22C7.95203 32.679 7.70402 33.041 7.30202 33.06C7.17021 33.0616 7.03956 33.0351 6.91883 32.9822C6.79811 32.9292 6.69009 32.8511 6.60203 32.753L6.29502 33.206C6.57853 33.4449 6.93723 33.5763 7.30803 33.577C7.47231 33.5736 7.63413 33.5364 7.78333 33.4676C7.93253 33.3987 8.06588 33.2998 8.17503 33.177C8.45864 32.8294 8.60551 32.3902 8.58803 31.942L8.57302 31.954Z" fill="white"/>
<path d="M56.811 33.005C57.238 32.6984 57.625 32.3396 57.963 31.937C58.0656 31.7824 58.1237 31.6025 58.131 31.417C58.1325 31.2472 58.0883 31.08 58.003 30.9331C57.9176 30.7862 57.7943 30.6649 57.646 30.582C57.4627 30.4896 57.2592 30.4446 57.054 30.451C56.8437 30.4633 56.6395 30.5264 56.459 30.635C56.2659 30.7638 56.1045 30.9348 55.987 31.135L56.403 31.452C56.4656 31.3245 56.5591 31.2147 56.6752 31.1328C56.7912 31.0508 56.9259 30.9994 57.067 30.983C57.128 30.9819 57.1886 30.9932 57.2451 31.0162C57.3017 31.0392 57.3529 31.0734 57.3958 31.1168C57.4388 31.1602 57.4724 31.2118 57.4948 31.2686C57.5172 31.3253 57.5278 31.3861 57.526 31.447C57.516 31.562 57.4813 31.6735 57.4241 31.7738C57.367 31.8741 57.2888 31.9608 57.195 32.028L55.939 33.095V33.546H58.155V33.013L56.811 33.005Z" fill="white"/>
<path d="M33.357 4.89396C33.818 4.90996 34.229 5.03497 34.213 5.53397C34.197 6.03297 33.773 6.13396 33.313 6.11296L32.532 6.08397L32.575 4.86296L33.357 4.89396ZM31.457 8.30196L32.449 8.33696L32.497 6.97396L33.228 6.99496L34.103 8.39497L35.268 8.43797L34.247 6.85097C34.5323 6.77005 34.7834 6.59805 34.962 6.36119C35.1405 6.12433 35.2368 5.83559 35.236 5.53897C35.2533 5.33539 35.2253 5.1305 35.1538 4.93907C35.0824 4.74764 34.9694 4.57444 34.823 4.43196C34.3988 4.11544 33.8762 3.95954 33.348 3.99197L31.616 3.93896L31.457 8.30196Z" fill="white"/>
<path d="M21.835 6.97598C22.259 6.79698 22.608 6.84298 22.776 7.24298C22.944 7.64298 22.757 7.94298 22.304 8.13598L21.675 8.40298L21.192 7.24598L21.835 6.97598ZM21.614 10.835L22.531 10.451L22.024 9.23998L22.515 9.02698C23.299 8.68798 23.608 8.35798 23.747 7.99198C23.8852 7.6186 23.8708 7.20584 23.707 6.84298C23.6271 6.64537 23.5053 6.46747 23.3499 6.32157C23.1945 6.17567 23.0093 6.06527 22.807 5.99798C22.3068 5.88115 21.7811 5.95233 21.33 6.19798L19.919 6.78698L21.614 10.835Z" fill="white"/>
<path d="M12.563 13.2511C12.6803 13.1284 12.8212 13.0307 12.9772 12.964C13.1333 12.8973 13.3013 12.8629 13.471 12.8629C13.6407 12.8629 13.8087 12.8973 13.9647 12.964C14.1208 13.0307 14.2617 13.1284 14.379 13.2511C14.5055 13.364 14.6074 13.5018 14.6784 13.6558C14.7494 13.8098 14.788 13.9768 14.7918 14.1464C14.7955 14.3159 14.7644 14.4844 14.7002 14.6415C14.6361 14.7985 14.5404 14.9406 14.419 15.0591L13.886 15.5921L12.051 13.7811L12.563 13.2511ZM13.843 16.9281L14.923 15.8211C15.2912 15.4864 15.5559 15.0533 15.686 14.5731C15.7751 14.2102 15.7673 13.8303 15.6634 13.4714C15.5595 13.1125 15.3631 12.7872 15.094 12.5281C14.854 12.2795 14.5565 12.0939 14.2277 11.9879C13.8989 11.8818 13.549 11.8585 13.209 11.9201C12.6702 12.0299 12.1833 12.3159 11.825 12.7331L10.714 13.8721L13.843 16.9281Z" fill="white"/>
<path fill-rule="evenodd" clip-rule="evenodd" d="M27.235 5.29597C27.4907 5.22447 27.7619 5.23097 28.0139 5.31463C28.2659 5.3983 28.4872 5.55531 28.6494 5.76555C28.8116 5.97579 28.9073 6.22967 28.9242 6.49465C28.9412 6.75963 28.8786 7.02364 28.7445 7.25282C28.6104 7.48201 28.411 7.66593 28.1717 7.78102C27.9324 7.8961 27.6642 7.9371 27.4014 7.89876C27.1387 7.86043 26.8934 7.74449 26.697 7.56583C26.5006 7.38717 26.362 7.15391 26.299 6.89597C26.2522 6.72941 26.2394 6.55514 26.2615 6.38354C26.2835 6.21194 26.3399 6.04655 26.4272 5.89722C26.5146 5.74789 26.6311 5.61769 26.7699 5.51439C26.9087 5.41109 27.0669 5.3368 27.235 5.29597ZM27.019 4.39597C27.5354 4.28476 28.0745 4.35579 28.5445 4.59699C29.0146 4.83819 29.3866 5.23469 29.5974 5.71911C29.8082 6.20353 29.8448 6.746 29.701 7.25435C29.5572 7.7627 29.2418 8.20558 28.8084 8.50774C28.375 8.8099 27.8504 8.95271 27.3237 8.91189C26.797 8.87108 26.3006 8.64917 25.919 8.28386C25.5373 7.91855 25.2939 7.43237 25.2301 6.90793C25.1663 6.38349 25.2861 5.85313 25.569 5.40697C25.7309 5.15012 25.9426 4.92832 26.1916 4.75467C26.4407 4.58103 26.722 4.45906 27.019 4.39597Z" fill="white"/>
<path fill-rule="evenodd" clip-rule="evenodd" d="M51.654 12.7279C51.8329 12.9241 51.9491 13.1691 51.9878 13.4318C52.0266 13.6944 51.986 13.9626 51.8713 14.202C51.7566 14.4415 51.5731 14.6412 51.3441 14.7756C51.1152 14.9101 50.8514 14.9731 50.5864 14.9566C50.3215 14.9402 50.0675 14.845 49.857 14.6832C49.6464 14.5215 49.489 14.3006 49.4049 14.0488C49.3207 13.797 49.3136 13.5259 49.3846 13.27C49.4555 13.0142 49.6012 12.7854 49.803 12.6129C49.9304 12.4956 50.0803 12.4052 50.2435 12.3473C50.4068 12.2894 50.5801 12.265 50.753 12.2758C50.9259 12.2865 51.0948 12.3321 51.2497 12.4098C51.4045 12.4875 51.542 12.5957 51.654 12.7279ZM52.371 12.1359C52.7009 12.5471 52.8784 13.0598 52.8733 13.5869C52.8681 14.1141 52.6807 14.6232 52.3429 15.0279C52.005 15.4326 51.5375 15.7079 51.0197 15.807C50.5019 15.9061 49.9658 15.823 49.5023 15.5718C49.0389 15.3205 48.6766 14.9166 48.4771 14.4286C48.2776 13.9407 48.2532 13.3987 48.4079 12.8947C48.5626 12.3907 48.887 11.9558 49.326 11.6639C49.7649 11.3719 50.2914 11.2408 50.816 11.2929C51.1184 11.3223 51.4118 11.4121 51.6789 11.5569C51.946 11.7017 52.1813 11.8986 52.371 12.1359Z" fill="white"/>
<path d="M40.64 5.15494L37.112 4.31494L36.901 5.20594L38.173 5.50594L37.373 8.86894L38.352 9.10094L39.152 5.73794L40.429 6.03794L40.64 5.15494Z" fill="white"/>
<path d="M42.5677 5.86028L40.915 9.90894L41.8334 10.2838L43.4861 6.23519L42.5677 5.86028Z" fill="white"/>
<path d="M17.981 7.81104L15.224 9.64804L17.648 13.288L20.44 11.421L19.94 10.677L17.979 11.987L17.502 11.27L19.202 10.137L18.714 9.40404L17.011 10.536L16.544 9.83604L18.475 8.55104L17.981 7.81104Z" fill="white"/>
<path d="M49.049 9.30702L48.121 8.73902L45.605 10.725L46.226 7.57802L45.285 6.99902L44.485 11.66L45.242 12.124L49.049 9.30702Z" fill="white"/>
<path d="M43.976 52.3949C43.7906 52.501 43.6296 52.6448 43.5033 52.8171C43.377 52.9894 43.2883 53.1862 43.243 53.3949C43.1918 53.7287 43.2678 54.0696 43.456 54.3499C43.5409 54.4872 43.6545 54.6044 43.789 54.6936C43.9234 54.7829 44.0756 54.842 44.235 54.8669C44.5038 54.8938 44.7753 54.8694 45.035 54.7949C45.392 54.7179 46.15 54.3659 46.368 54.7389C46.507 54.9789 46.293 55.2189 46.101 55.3439C45.6637 55.5927 45.1519 55.6767 44.658 55.5809L44.498 56.4659C44.8563 56.5427 45.2262 56.548 45.5865 56.4815C45.9469 56.4151 46.2906 56.2783 46.598 56.0789C46.9444 55.8656 47.2036 55.536 47.329 55.1489C47.3743 54.9665 47.3799 54.7765 47.3454 54.5917C47.3109 54.4069 47.2371 54.2317 47.129 54.0779C47.022 53.9072 46.8715 53.7678 46.693 53.6742C46.5145 53.5805 46.3144 53.5359 46.113 53.5449C45.75 53.5738 45.3917 53.6463 45.046 53.7609C44.833 53.8169 44.305 54.0039 44.179 53.6359C44.1564 53.53 44.1705 53.4195 44.219 53.3226C44.2675 53.2257 44.3476 53.1483 44.446 53.1029C44.8234 52.8858 45.2656 52.8093 45.694 52.8869L45.75 51.9939C45.1317 51.9032 44.5014 52.0377 43.974 52.3729" fill="white"/>
<path d="M41.664 53.6909L38.533 54.7759L39.965 58.9069L43.136 57.8069L42.843 56.9639L40.611 57.7369L40.328 56.9369L42.261 56.2679L41.973 55.4339L40.04 56.1029L39.773 55.3029L41.965 54.5429L41.664 53.6909Z" fill="white"/>
<path fill-rule="evenodd" clip-rule="evenodd" d="M39.619 54.08L40.339 53.832L40.96 52.932L40.005 52.876L39.619 54.08Z" fill="white"/>
<path d="M37.448 55.0911L36.368 55.2241L35.637 58.3441L34.163 55.4941L33.063 55.6271L35.34 59.7681L36.223 59.6591L37.448 55.0911Z" fill="white"/>
<path d="M30.293 57.9901L29.888 56.6301L29.218 57.8901L30.293 57.9901ZM31.906 59.9901L30.861 59.8901L30.561 58.8951L28.773 58.7231L28.285 59.6401L27.269 59.5401L29.569 55.3511L30.454 55.4361L31.906 59.9901Z" fill="white"/>
<path d="M20.026 55.0021L20.203 53.5921L19.082 54.4671L20.026 55.0021ZM20.69 57.4851L19.775 56.9701L19.906 55.9411L18.335 55.0581L17.516 55.6981L16.628 55.1981L20.428 52.2981L21.204 52.7331L20.69 57.4851Z" fill="white"/>
<path d="M24.85 54.3391L23.903 54.0391L22.588 58.2101L25.599 59.1591L25.866 58.3081L23.801 57.6591L24.85 54.3391Z" fill="white"/>
<path fill-rule="evenodd" clip-rule="evenodd" d="M19.483 28.4919L20.227 30.3589L21.315 30.0919L20.899 29.0249L21.558 28.9099C21.8934 28.8382 22.238 28.8203 22.579 28.8569C22.9024 28.904 23.2117 29.0204 23.486 29.1979C23.8355 29.4202 24.1099 29.7425 24.2735 30.123C24.437 30.5035 24.4822 30.9244 24.403 31.3309C24.3395 31.5306 24.2256 31.7105 24.0723 31.8534C23.9191 31.9963 23.7316 32.0974 23.528 32.1469L22.293 32.5419L21.821 31.3819L20.76 31.6919L21.584 33.7689L23.96 33.0459C24.3583 32.9451 24.7146 32.7213 24.9785 32.4065C25.2424 32.0916 25.4004 31.7017 25.43 31.2919L25.473 28.9159L26.953 30.5719L26.321 30.6439V31.4709L27.566 31.3139L28.307 32.1809L29.131 32.0719L25.438 27.9409L24.681 28.0129L24.641 29.2129C24.2676 28.6993 23.7094 28.3505 23.084 28.2399C21.8784 28.0821 20.6532 28.1729 19.484 28.5069" fill="white"/>
</g>
<defs>
<clipPath id="clip0_40_26875">
<rect width="64" height="64" fill="white"/>
</clipPath>
</defs>
</svg>
