<svg width="64" height="64" viewBox="0 0 64 64" fill="none" xmlns="http://www.w3.org/2000/svg">
<g clip-path="url(#clip0_40_26910)">
<path d="M32 64C49.6731 64 64 49.6731 64 32C64 14.3269 49.6731 0 32 0C14.3269 0 0 14.3269 0 32C0 49.6731 14.3269 64 32 64Z" fill="#1FA5FF"/>
<path d="M11.148 46.4401L25.857 19.1921L38.83 13.4761L24.119 40.7241L11.148 46.4401Z" fill="white"/>
<path d="M25.82 40.2112L36.996 19.5112L43.339 25.7392L32.316 46.4962L25.82 40.2112Z" fill="white"/>
<path d="M44.581 26.3691L52.853 29.3691L48.726 36.9261L38.698 37.2691L44.581 26.3691Z" fill="white"/>
</g>
<defs>
<clipPath id="clip0_40_26910">
<rect width="64" height="64" fill="white"/>
</clipPath>
</defs>
</svg>
