<svg xmlns="http://www.w3.org/2000/svg" width="64" height="64" viewBox="0 0 64 64"><g transform="translate(-286 -889)"><circle cx="32" cy="32" r="32" transform="translate(286 889)" fill="#008de4"/><g transform="translate(301.757 907.814)"><path d="M92.467,0H80.641L79.66,5.48l10.674.013c5.258,0,6.808,1.911,6.764,5.075a23.039,23.039,0,0,1-1.031,5.258c-.81,2.373-2.474,5.075-8.713,5.068l-10.377-.006L76,26.373H87.8c4.163,0,5.929-.487,7.808-1.348,4.157-1.93,6.631-6.03,7.625-11.383C104.7,5.669,102.869,0,92.467,0" transform="translate(-71.191)" fill="#fff"/><path d="M4.347,164.9c-3.1,0-3.543,2.018-3.834,3.24C.127,169.734,0,170.386,0,170.386H12.111c3.1,0,3.543-2.018,3.834-3.24.386-1.595.513-2.246.513-2.246Z" transform="translate(0 -154.466)" fill="#fff"/></g></g></svg>