<svg width="64" height="64" viewBox="0 0 64 64" fill="none" xmlns="http://www.w3.org/2000/svg">
<g clip-path="url(#clip0_40_26917)">
<path d="M32 64C49.6731 64 64 49.6731 64 32C64 14.3269 49.6731 0 32 0C14.3269 0 0 14.3269 0 32C0 49.6731 14.3269 64 32 64Z" fill="#008DE4"/>
<path d="M37.033 18.814H25.207L24.226 24.294L34.9 24.307C40.158 24.307 41.708 26.218 41.664 29.382C41.526 31.1688 41.18 32.9334 40.633 34.64C39.823 37.013 38.159 39.715 31.92 39.708L21.543 39.702L20.566 45.187H32.366C36.529 45.187 38.295 44.7 40.174 43.839C44.331 41.909 46.805 37.809 47.799 32.456C49.266 24.483 47.435 18.814 37.033 18.814Z" fill="white"/>
<path d="M20.104 29.248C17.004 29.248 16.561 31.2661 16.27 32.4881C15.884 34.0821 15.757 34.7341 15.757 34.7341H27.868C30.968 34.7341 31.411 32.716 31.702 31.494C32.088 29.899 32.215 29.248 32.215 29.248H20.104Z" fill="white"/>
</g>
<defs>
<clipPath id="clip0_40_26917">
<rect width="64" height="64" fill="white"/>
</clipPath>
</defs>
</svg>
