<svg width="64" height="64" viewBox="0 0 64 64" fill="none" xmlns="http://www.w3.org/2000/svg">
<g clip-path="url(#clip0_494_11666)">
<mask id="mask0_494_11666" style="mask-type:luminance" maskUnits="userSpaceOnUse" x="0" y="0" width="64" height="64">
<path d="M64 0H0V64H64V0Z" fill="white"/>
</mask>
<g mask="url(#mask0_494_11666)">
<path d="M32 64C49.6731 64 64 49.6731 64 32C64 14.3269 49.6731 0 32 0C14.3269 0 0 14.3269 0 32C0 49.6731 14.3269 64 32 64Z" fill="#030403"/>
</g>
<path d="M29.2731 37.5297C29.9039 39.07 31.6732 40.5107 33.0841 41.3473C33.1749 41.4013 33.2805 41.4256 33.3862 41.417C36.5 41.1448 40.0387 41.1946 41.6554 44.159C41.7063 44.2519 41.7118 44.3471 41.672 44.4445C40.8554 46.3389 39.6802 48.0518 38.1465 49.5833C36.2975 51.4323 32.2376 51.5352 29.9072 50.4564C25.5219 48.4214 21.2164 44.959 19.4371 40.3016C18.3748 37.5241 17.7573 34.5166 17.5847 31.2788C17.3457 26.8404 18.7798 22.4917 20.5989 18.4318C22.7268 13.6814 26.3519 11.5269 31.3745 11.112C33.821 10.9095 36.7822 10.8033 38.7507 12.4332C43.064 16.0096 44.8799 20.6449 44.1982 26.3392C43.9459 28.4173 43.2787 30.9236 41.2106 31.9228C37.8887 33.5273 34.402 34.6372 30.7504 35.2524C29.625 35.4416 28.8117 36.3977 29.2731 37.5297ZM37.9706 14.6308C37.0179 13.6349 35.2452 14.8731 34.8867 15.723C33.7713 18.3754 37.8411 27.0197 40.2346 28.5501C41.7052 29.4895 42.6181 27.8728 42.6413 26.6081C42.7254 21.9584 41.1685 17.9659 37.9706 14.6308ZM27.7893 30.5485C30.4549 36.2151 33.2899 33.1776 33.2136 28.7426C33.1494 24.9117 32.1015 21.3719 30.0699 18.1231C28.9545 16.3371 26.5842 16.513 25.6614 18.1662C24.214 20.7589 26.571 27.9558 27.7893 30.5485ZM38.5288 30.3028C38.5477 30.2563 38.5003 30.1851 38.3972 30.105C38.294 30.0248 38.1435 29.9421 37.9787 29.8752C37.8139 29.8083 37.6484 29.7626 37.5185 29.7482C37.3887 29.7337 37.3051 29.7518 37.2862 29.7982C37.2673 29.8447 37.3147 29.9159 37.4179 29.9961C37.521 30.0763 37.6716 30.1589 37.8363 30.2258C38.0011 30.2927 38.1666 30.3384 38.2965 30.3529C38.4264 30.3673 38.5099 30.3493 38.5288 30.3028ZM36.4137 30.17L36.0718 31.0796C36.0599 31.1152 36.0603 31.1537 36.0731 31.189C36.0859 31.2242 36.1103 31.2541 36.1423 31.2738C36.1742 31.2934 36.2119 31.3016 36.2491 31.2971C36.2863 31.2926 36.3209 31.2756 36.3473 31.2489C36.6261 30.9479 36.7158 30.5927 36.6162 30.1833C36.6109 30.1613 36.5987 30.1415 36.5814 30.1269C36.564 30.1122 36.5425 30.1035 36.5198 30.1021C36.4972 30.1006 36.4747 30.1064 36.4556 30.1186C36.4365 30.1308 36.4218 30.1489 36.4137 30.17Z" fill="#5FC3E5"/>
<path d="M37.9708 14.6309C41.1687 17.966 42.7256 21.9584 42.6415 26.6081C42.6183 27.8729 41.7054 29.4896 40.2348 28.5501C37.8413 27.0198 33.7714 18.3754 34.8868 15.723C35.2453 14.8732 37.018 13.635 37.9708 14.6309ZM37.7152 16.1214C36.0587 13.9935 34.6843 15.6002 35.0794 17.6152C35.7234 20.9116 37.7849 26.5782 40.58 28.3476C40.6386 28.3845 40.7049 28.4073 40.7738 28.4142C40.8426 28.4211 40.912 28.4119 40.9765 28.3874C41.0409 28.3629 41.0987 28.3238 41.1451 28.2731C41.1915 28.2223 41.2254 28.1615 41.2439 28.0953C42.3295 24.2611 40.0356 19.1057 37.7152 16.1214Z" fill="black"/>
<path d="M35.0791 17.6152C34.6841 15.6002 36.0584 13.9935 37.7149 16.1213C40.0353 19.1057 42.3292 24.2611 41.2437 28.0953C41.2251 28.1615 41.1913 28.2223 41.1449 28.273C41.0984 28.3237 41.0407 28.3629 40.9762 28.3874C40.9118 28.4119 40.8423 28.4211 40.7735 28.4141C40.7047 28.4072 40.6383 28.3844 40.5798 28.3476C37.7846 26.5782 35.7231 20.9116 35.0791 17.6152Z" fill="#E1DC01"/>
<path d="M33.2138 28.7426C33.2901 33.1776 30.4552 36.2151 27.7895 30.5485C26.5712 27.9558 24.2142 20.7588 25.6616 18.1662C26.5845 16.513 28.9547 16.3371 30.0701 18.123C32.1017 21.3719 33.1496 24.9117 33.2138 28.7426ZM28.9182 18.8965C27.192 15.9918 25.4458 18.2293 25.5853 20.4368C25.8077 23.9191 27.1621 31.0862 30.2759 33.2042C30.3326 33.2428 30.3972 33.2681 30.465 33.2782C30.5329 33.2883 30.6021 33.2829 30.6675 33.2625C30.733 33.242 30.793 33.2071 30.843 33.1602C30.893 33.1133 30.9318 33.0557 30.9564 32.9917C32.6627 28.5733 31.2552 22.8336 28.9182 18.8965Z" fill="black"/>
<path d="M25.585 20.4369C25.4456 18.2293 27.1917 15.9919 28.9179 18.8966C31.2549 22.8337 32.6624 28.5733 30.9562 32.9918C30.9315 33.0557 30.8927 33.1133 30.8427 33.1602C30.7927 33.2071 30.7327 33.2421 30.6673 33.2625C30.6018 33.2829 30.5326 33.2883 30.4648 33.2782C30.3969 33.2681 30.3323 33.2428 30.2756 33.2042C27.1618 31.0863 25.8074 23.9192 25.585 20.4369Z" fill="#E1DC01"/>
<path d="M25.9534 49.0322C29.605 51.5319 31.7329 52.1825 36.2211 51.6315C36.3848 51.6116 36.418 51.668 36.3206 51.8008C35.5472 52.8631 32.7554 53.0423 31.5702 52.9925C26.3551 52.7734 19.7092 46.9309 17.9398 42.1772C16.1738 37.4467 15.4169 32.2813 16.5057 27.2952C17.2228 24.0176 18.4311 20.9071 20.1308 17.9637C20.1573 17.9194 20.1949 17.8851 20.2436 17.8608C20.3499 17.8055 20.3764 17.832 20.3233 17.9405C18.3116 22.1099 16.6418 27.2521 17.0468 31.8332C17.724 39.4451 19.6461 44.7167 25.9534 49.0322Z" fill="#E1DC01"/>
<path d="M37.8363 30.2258C38.1795 30.3652 38.4895 30.3996 38.5288 30.3028C38.5681 30.206 38.3219 30.0145 37.9787 29.8752C37.6356 29.7359 37.3255 29.7014 37.2862 29.7982C37.2469 29.8951 37.4932 30.0865 37.8363 30.2258Z" fill="black"/>
<path d="M36.414 30.17C36.4221 30.1488 36.4368 30.1308 36.4559 30.1186C36.475 30.1063 36.4975 30.1006 36.5201 30.102C36.5428 30.1035 36.5643 30.1122 36.5817 30.1268C36.599 30.1414 36.6112 30.1612 36.6165 30.1833C36.7161 30.5927 36.6265 30.9479 36.3476 31.2489C36.3213 31.2756 36.2866 31.2926 36.2494 31.2971C36.2122 31.3016 36.1745 31.2934 36.1426 31.2737C36.1106 31.2541 36.0862 31.2242 36.0734 31.189C36.0606 31.1537 36.0602 31.1152 36.0721 31.0796L36.414 30.17Z" fill="black"/>
<path d="M40.367 35.6774C39.7872 35.1462 39.3313 34.5188 38.9993 33.7951C38.9775 33.7473 38.9655 33.6956 38.964 33.643C38.9626 33.5905 38.9717 33.5382 38.9909 33.4892C39.0101 33.4403 39.039 33.3957 39.0758 33.3581C39.1126 33.3206 39.1566 33.2908 39.2051 33.2706L41.6019 32.2781C41.6415 32.262 41.6847 32.2568 41.727 32.2628C41.7693 32.2689 41.8092 32.286 41.8424 32.3125C41.8757 32.3389 41.9011 32.3737 41.916 32.4132C41.9309 32.4527 41.9348 32.4954 41.9272 32.537C41.8044 33.2773 41.7679 35.5147 40.9513 35.7969C40.7322 35.8743 40.5374 35.8345 40.367 35.6774Z" fill="#FEEAAE"/>
<path d="M38.4658 33.9942C38.4838 33.9878 38.5037 33.9887 38.5211 33.9968C38.5385 34.0049 38.552 34.0194 38.5587 34.0374L38.572 34.0772C38.6547 34.3167 38.6341 34.5809 38.5146 34.8118C38.395 35.0428 38.1865 35.2215 37.9346 35.3088L37.6126 35.4184C37.3603 35.5049 37.0857 35.4927 36.8492 35.3844C36.6126 35.2761 36.4335 35.0805 36.3512 34.8408L36.3379 34.8042C36.3348 34.7951 36.3335 34.7854 36.3342 34.7758C36.3348 34.7661 36.3374 34.7567 36.3417 34.7481C36.346 34.7394 36.352 34.7317 36.3593 34.7254C36.3667 34.7191 36.3752 34.7143 36.3844 34.7113L38.4658 33.9942Z" fill="#FEEAAE"/>
<path d="M35.0247 36.3588C35.6755 36.1673 36.1338 35.7767 36.0483 35.4865C35.9629 35.1963 35.3662 35.1163 34.7154 35.3079C34.0646 35.4994 33.6063 35.8899 33.6918 36.1801C33.7772 36.4703 34.3739 36.5503 35.0247 36.3588Z" fill="#FEEAAE"/>
<path d="M30.0825 36.2781C30.0667 36.2589 30.059 36.2344 30.0608 36.2097C30.0627 36.185 30.074 36.1619 30.0925 36.1453L30.1223 36.1188C30.37 35.9069 30.6427 35.7291 30.9248 35.5955C31.2069 35.462 31.4929 35.3753 31.7664 35.3405C32.0398 35.3057 32.2955 35.3233 32.5186 35.3925C32.7418 35.4617 32.9281 35.581 33.0669 35.7436L33.1399 35.8299C33.2787 35.9924 33.3673 36.195 33.4008 36.4261C33.4342 36.6571 33.4117 36.9122 33.3346 37.1767C33.2576 37.4412 33.1274 37.71 32.9516 37.9676C32.7758 38.2252 32.5578 38.4667 32.31 38.6782L32.2801 38.7048C32.2703 38.7129 32.259 38.719 32.2469 38.7227C32.2347 38.7264 32.2219 38.7277 32.2093 38.7265C32.1966 38.7252 32.1843 38.7215 32.1731 38.7155C32.1619 38.7095 32.152 38.7013 32.144 38.6915L30.0825 36.2781Z" fill="#FEEAAE"/>
<path d="M44.3672 37.3936C43.9799 37.637 44.0286 37.9933 44.5133 38.4625C44.5819 38.5267 44.656 38.5344 44.7357 38.4857L45.2469 38.177C47.003 39.7638 51.0795 45.2412 46.6777 46.3267C44.4037 46.8844 43.4078 44.9192 42.4053 43.0702C40.7753 40.0559 38.1329 40.036 35.1187 39.7439C35.0886 39.7416 35.0598 39.7307 35.0357 39.7127C35.0115 39.6947 34.993 39.6701 34.9822 39.642C34.9714 39.6138 34.9689 39.5832 34.9748 39.5536C34.9807 39.5241 34.9949 39.4968 35.0158 39.475C35.9165 38.4968 37.0363 38.0453 38.3752 38.1206C38.2579 38.3662 38.1274 38.5444 37.9835 38.655C37.9177 38.7051 37.8703 38.7755 37.8486 38.8553C37.8269 38.935 37.8322 39.0197 37.8636 39.0962C37.895 39.1727 37.9508 39.2366 38.0223 39.2781C38.0939 39.3196 38.1771 39.3363 38.2591 39.3256L40.045 39.1198C40.0827 39.1148 40.121 39.1192 40.1563 39.1325C40.1917 39.1458 40.223 39.1677 40.2475 39.1961C40.4976 39.4838 40.8152 39.6233 41.2003 39.6144C41.3375 39.61 41.4293 39.5436 41.4758 39.4152L41.7082 38.7912L42.9829 39.6011L42.7406 39.9696C42.6587 40.0958 42.6764 40.2053 42.7937 40.2983L43.0825 40.5306C43.3016 40.7055 43.3702 40.659 43.2883 40.3912L43.1024 39.7804C43.0792 38.9538 41.3297 37.5662 40.7189 36.9853C40.6237 36.8967 40.6392 36.8348 40.7654 36.7994C42.0955 36.4298 43.2961 36.6279 44.3672 37.3936ZM43.081 37.6878C43.1344 37.6049 43.1425 37.4976 43.1033 37.3894C43.0641 37.2812 42.981 37.1811 42.8723 37.111C42.7635 37.0408 42.6379 37.0065 42.5232 37.0156C42.4085 37.0246 42.3141 37.0762 42.2607 37.1591C42.2073 37.242 42.1993 37.3493 42.2384 37.4575C42.2776 37.5657 42.3607 37.6659 42.4694 37.736C42.5782 37.8061 42.7038 37.8404 42.8185 37.8314C42.9332 37.8223 43.0276 37.7707 43.081 37.6878ZM44.8513 40.1641C44.8868 40.1387 44.9121 40.1 44.9259 40.05C44.9397 40 44.9417 39.9397 44.9317 39.8726C44.9217 39.8055 44.9 39.7329 44.8677 39.659C44.8354 39.585 44.7933 39.5111 44.7437 39.4416C44.6941 39.372 44.6379 39.3081 44.5785 39.2535C44.5191 39.199 44.4575 39.1548 44.3973 39.1235C44.3372 39.0922 44.2795 39.0744 44.2278 39.0712C44.176 39.0679 44.1311 39.0793 44.0956 39.1046C44.0601 39.1299 44.0347 39.1687 44.0209 39.2187C44.0071 39.2687 44.0052 39.329 44.0151 39.3961C44.0251 39.4632 44.0469 39.5358 44.0791 39.6097C44.1114 39.6837 44.1535 39.7576 44.2032 39.8271C44.2528 39.8967 44.3089 39.9606 44.3683 40.0151C44.4278 40.0697 44.4893 40.1139 44.5495 40.1452C44.6097 40.1765 44.6673 40.1943 44.7191 40.1975C44.7709 40.2007 44.8158 40.1894 44.8513 40.1641ZM45.1557 41.8204C45.2043 41.7719 45.215 41.6894 45.1855 41.5913C45.156 41.4931 45.0887 41.3872 44.9984 41.297C44.9082 41.2067 44.8023 41.1394 44.7041 41.1099C44.606 41.0804 44.5235 41.0911 44.475 41.1397C44.4264 41.1883 44.4157 41.2707 44.4452 41.3689C44.4747 41.467 44.542 41.5729 44.6323 41.6631C44.7225 41.7534 44.8284 41.8207 44.9265 41.8502C45.0247 41.8797 45.1071 41.869 45.1557 41.8204ZM47.8089 43.2846C47.8924 43.2568 47.9565 43.182 47.9871 43.0767C48.0177 42.9714 48.0122 42.8442 47.972 42.7231C47.952 42.6631 47.9241 42.6064 47.8898 42.5562C47.8556 42.5061 47.8156 42.4635 47.7723 42.4308C47.7289 42.3981 47.683 42.376 47.6371 42.3658C47.5913 42.3555 47.5464 42.3573 47.505 42.3711C47.4215 42.3989 47.3574 42.4736 47.3268 42.5789C47.2962 42.6843 47.3017 42.8115 47.342 42.9326C47.3619 42.9926 47.3898 43.0493 47.4241 43.0994C47.4583 43.1496 47.4983 43.1922 47.5416 43.2249C47.585 43.2576 47.6309 43.2797 47.6768 43.2899C47.7226 43.3002 47.7675 43.2983 47.8089 43.2846ZM44.3688 44.0454C44.4347 43.9925 44.4658 43.9019 44.4555 43.7936C44.4451 43.6853 44.394 43.5682 44.3135 43.468C44.2329 43.3678 44.1295 43.2928 44.026 43.2594C43.9225 43.226 43.8273 43.237 43.7614 43.29C43.6956 43.343 43.6644 43.4335 43.6747 43.5418C43.6851 43.6501 43.7362 43.7672 43.8167 43.8674C43.8973 43.9676 44.0007 44.0426 44.1042 44.076C44.2077 44.1094 44.3029 44.0984 44.3688 44.0454Z" fill="#E1DC01"/>
<path d="M42.4703 37.7359C42.6968 37.8819 42.9706 37.8604 43.0819 37.6878C43.1931 37.5152 43.0996 37.2569 42.8731 37.1109C42.6465 36.9649 42.3727 36.9865 42.2615 37.1591C42.1502 37.3317 42.2437 37.59 42.4703 37.7359Z" fill="#9DD274"/>
<path d="M44.3684 37.3936L45.2481 38.177L44.7369 38.4857C44.6572 38.5344 44.5831 38.5267 44.5144 38.4625C44.0298 37.9933 43.9811 37.637 44.3684 37.3936Z" fill="#9DD274"/>
<path d="M38.3757 38.1206L41.7086 38.7912L41.4763 39.4153C41.4298 39.5436 41.3379 39.61 41.2007 39.6144C40.8156 39.6233 40.4981 39.4839 40.248 39.1962C40.2235 39.1677 40.1921 39.1458 40.1568 39.1325C40.1214 39.1192 40.0832 39.1148 40.0455 39.1198L38.2595 39.3256C38.1775 39.3363 38.0943 39.3196 38.0228 39.2781C37.9513 39.2366 37.8955 39.1727 37.8641 39.0962C37.8327 39.0198 37.8274 38.9351 37.8491 38.8553C37.8708 38.7755 37.9182 38.7051 37.984 38.6551C38.1278 38.5444 38.2584 38.3663 38.3757 38.1206Z" fill="#9DD274"/>
<path d="M44.2045 39.8271C44.4132 40.1197 44.7033 40.2705 44.8526 40.164C45.0019 40.0576 44.9537 39.7341 44.745 39.4416C44.5363 39.149 44.2462 38.9982 44.0969 39.1046C43.9477 39.2111 43.9958 39.5346 44.2045 39.8271Z" fill="#9DD274"/>
<path d="M42.9823 39.6011C43.0088 39.694 43.0487 39.7538 43.1018 39.7803L43.2877 40.3911C43.3696 40.6589 43.301 40.7054 43.0819 40.5306L42.7931 40.2982C42.6758 40.2052 42.6581 40.0957 42.7399 39.9696L42.9823 39.6011Z" fill="#9DD274"/>
<path d="M44.6324 41.6632C44.8204 41.8512 45.0547 41.9216 45.1558 41.8205C45.257 41.7194 45.1865 41.485 44.9986 41.297C44.8106 41.1091 44.5762 41.0386 44.4751 41.1398C44.374 41.2409 44.4444 41.4752 44.6324 41.6632Z" fill="#9DD274"/>
<path d="M47.3423 42.9325C47.4262 43.1848 47.6352 43.3424 47.8092 43.2845C47.9832 43.2266 48.0562 42.9752 47.9722 42.723C47.8883 42.4707 47.6793 42.3131 47.5053 42.371C47.3314 42.4289 47.2584 42.6803 47.3423 42.9325Z" fill="#9DD274"/>
<path d="M43.8177 43.8674C43.9854 44.076 44.2326 44.1557 44.3698 44.0455C44.5069 43.9352 44.4822 43.6767 44.3144 43.4681C44.1467 43.2594 43.8995 43.1797 43.7624 43.29C43.6252 43.4003 43.65 43.6588 43.8177 43.8674Z" fill="#9DD274"/>
</g>
<defs>
<clipPath id="clip0_494_11666">
<rect width="64" height="64" fill="white"/>
</clipPath>
</defs>
</svg>
