<svg xmlns="http://www.w3.org/2000/svg" width="64" height="64" viewBox="0 0 64 64"><circle cx="32" cy="32" r="32" fill="#f92821"/><circle cx="29" cy="29" r="29" transform="translate(3 3)" fill="none" stroke="#fff" stroke-width="1"/><path d="M44.162,37.3a3.066,3.066,0,0,1-4.144,1.09L30.46,32.97V29.53L33.5,27.81l9.556,5.418a2.949,2.949,0,0,1,1.11,4.07Zm-15.13,7.318a3.034,3.034,0,0,1-6.068,0V33.78L26,32.06l3.034,1.72ZM11.978,38.39A3.066,3.066,0,0,1,7.834,37.3a2.952,2.952,0,0,1,1.11-4.07l9.556-5.42,3.036,1.722v3.44ZM8.944,20.772a2.952,2.952,0,0,1-1.11-4.07,3.066,3.066,0,0,1,4.144-1.092l9.558,5.42v3.44L18.5,26.19Zm14.02-11.39a3.034,3.034,0,0,1,6.068,0V20.218L26,21.94l-3.034-1.72Zm7.5,16.708,1.608.91-1.608.91Zm-3.034-3.34,1.606-.912V23.66Zm-4.462.91V21.84l1.606.91Zm-1.428,4.25L19.928,27l1.608-.91Zm3.034,3.34-1.606.912V30.34Zm4.462-.91v1.82l-1.606-.91ZM26,30.44l-3.034-1.72V25.28L26,23.56l3.034,1.72v3.44Zm14.02-14.83A3.066,3.066,0,0,1,44.162,16.7a2.949,2.949,0,0,1-1.11,4.07L33.5,26.192,30.46,24.47V21.03Zm3.748,16.4L34.924,27l8.842-5.014A4.34,4.34,0,0,0,45.4,16a4.508,4.508,0,0,0-6.1-1.6L30.46,19.41V9.38a4.463,4.463,0,0,0-8.924,0V19.41L12.692,14.4A4.5,4.5,0,0,0,6.6,16a4.34,4.34,0,0,0,1.634,5.986L17.072,27l-8.84,5.014A4.34,4.34,0,0,0,6.6,38a4.508,4.508,0,0,0,6.1,1.6l8.844-5.014V44.618a4.463,4.463,0,0,0,8.924,0V34.59L39.3,39.6A4.508,4.508,0,0,0,45.4,38a4.34,4.34,0,0,0-1.634-5.986Z" transform="translate(6.002 5)" fill="#fff" fill-rule="evenodd"/></svg>