<svg width="64" height="64" viewBox="0 0 64 64" fill="none" xmlns="http://www.w3.org/2000/svg">
<g clip-path="url(#clip0_40_27284)">
<path d="M32 64C49.6731 64 64 49.6731 64 32C64 14.3269 49.6731 0 32 0C14.3269 0 0 14.3269 0 32C0 49.6731 14.3269 64 32 64Z" fill="#F92821"/>
<path d="M32 61C48.0163 61 61 48.0163 61 32C61 15.9837 48.0163 3 32 3C15.9837 3 3 15.9837 3 32C3 48.0163 15.9837 61 32 61Z" stroke="white"/>
<path fill-rule="evenodd" clip-rule="evenodd" d="M50.164 42.3C49.7524 42.9868 49.0884 43.4854 48.314 43.6891C47.5397 43.8928 46.7163 43.7854 46.02 43.39L36.462 37.97V34.53L39.502 32.81L49.058 38.228C49.4015 38.419 49.7033 38.6768 49.9458 38.9861C50.1882 39.2955 50.3664 39.6501 50.4698 40.0293C50.5732 40.4085 50.5998 40.8045 50.548 41.1941C50.4962 41.5837 50.367 41.959 50.168 42.298L50.164 42.3ZM35.034 49.618C35.034 50.4227 34.7144 51.1944 34.1454 51.7634C33.5764 52.3324 32.8047 52.652 32 52.652C31.1954 52.652 30.4236 52.3324 29.8547 51.7634C29.2857 51.1944 28.966 50.4227 28.966 49.618V38.78L32.002 37.06L35.036 38.78L35.034 49.618ZM17.98 43.39C17.2837 43.7854 16.4604 43.8928 15.686 43.6891C14.9116 43.4854 14.2476 42.9868 13.836 42.3C13.6375 41.9609 13.5086 41.5857 13.457 41.1961C13.4054 40.8066 13.4321 40.4107 13.5355 40.0317C13.6389 39.6526 13.8169 39.298 14.0591 38.9886C14.3013 38.6792 14.6028 38.4213 14.946 38.23L24.502 32.81L27.538 34.532V37.972L17.98 43.39ZM14.946 25.772C14.6028 25.5807 14.3013 25.3228 14.0591 25.0134C13.8169 24.704 13.6389 24.3494 13.5355 23.9703C13.4321 23.5913 13.4054 23.1954 13.457 22.8059C13.5086 22.4164 13.6375 22.0411 13.836 21.702C14.2473 21.0148 14.9111 20.5158 15.6856 20.3118C16.46 20.1077 17.2835 20.2147 17.98 20.61L27.538 26.03V29.47L24.502 31.19L14.946 25.772ZM28.966 14.382C28.966 13.5773 29.2857 12.8056 29.8547 12.2366C30.4236 11.6677 31.1954 11.348 32 11.348C32.8047 11.348 33.5764 11.6677 34.1454 12.2366C34.7144 12.8056 35.034 13.5773 35.034 14.382V25.218L32.002 26.94L28.968 25.22L28.966 14.382ZM36.466 31.09L38.074 32L36.466 32.91V31.09ZM33.432 27.75L35.038 26.838V28.66L33.432 27.75ZM28.97 28.66V26.84L30.576 27.75L28.97 28.66ZM27.542 32.91L25.93 32L27.538 31.09L27.542 32.91ZM30.576 36.25L28.97 37.162V35.34L30.576 36.25ZM35.038 35.34V37.16L33.432 36.25L35.038 35.34ZM32.002 35.44L28.968 33.72V30.28L32.002 28.56L35.036 30.28V33.72L32.002 35.44ZM46.022 20.61C46.7181 20.2152 47.541 20.1082 48.3149 20.3119C49.0888 20.5155 49.7524 21.0137 50.164 21.7C50.363 22.039 50.4922 22.4143 50.544 22.8039C50.5958 23.1935 50.5692 23.5895 50.4658 23.9687C50.3624 24.3479 50.1842 24.7025 49.9418 25.0119C49.6993 25.3212 49.3975 25.579 49.054 25.77L39.502 31.192L36.462 29.47V26.03L46.022 20.61ZM49.77 37.01L40.926 32L49.768 26.986C50.2731 26.7049 50.7169 26.3258 51.0734 25.8708C51.4299 25.4159 51.6919 24.8943 51.8442 24.3367C51.9964 23.7791 52.0357 23.1967 51.9597 22.6237C51.8838 22.0508 51.6942 21.4987 51.402 21C50.7963 19.9887 49.8186 19.2549 48.6784 18.9558C47.5381 18.6567 46.3261 18.8162 45.302 19.4L36.462 24.41V14.38C36.4373 13.213 35.9564 12.1021 35.1223 11.2854C34.2882 10.4688 33.1673 10.0115 32 10.0115C30.8327 10.0115 29.7119 10.4688 28.8778 11.2854C28.0437 12.1021 27.5627 13.213 27.538 14.38V24.41L18.694 19.4C17.6712 18.8166 16.4604 18.6574 15.3214 18.9565C14.1825 19.2556 13.2062 19.9893 12.602 21C12.3099 21.4987 12.1202 22.0508 12.0443 22.6237C11.9684 23.1967 12.0077 23.7791 12.1599 24.3367C12.3121 24.8943 12.5742 25.4159 12.9307 25.8708C13.2872 26.3258 13.731 26.7049 14.236 26.986L23.074 32L14.234 37.014C13.7292 37.2953 13.2856 37.6745 12.9292 38.1296C12.5729 38.5846 12.3111 39.1062 12.1591 39.6638C12.007 40.2213 11.9679 40.8037 12.044 41.3766C12.1201 41.9495 12.3098 42.5014 12.602 43C13.2077 44.0113 14.1854 44.7451 15.3257 45.0442C16.4659 45.3433 17.6779 45.1838 18.702 44.6L27.546 39.586V49.618C27.5707 50.785 28.0517 51.896 28.8858 52.7126C29.7199 53.5292 30.8407 53.9865 32.008 53.9865C33.1753 53.9865 34.2962 53.5292 35.1303 52.7126C35.9644 51.896 36.4453 50.785 36.47 49.618V39.59L45.302 44.6C46.3261 45.1838 47.5381 45.3433 48.6784 45.0442C49.8186 44.7451 50.7963 44.0113 51.402 43C51.6942 42.5013 51.8838 41.9492 51.9597 41.3763C52.0357 40.8033 51.9964 40.2209 51.8442 39.6633C51.6919 39.1057 51.4299 38.5841 51.0734 38.1292C50.7169 37.6742 50.2731 37.2951 49.768 37.014L49.77 37.01Z" fill="white"/>
</g>
<defs>
<clipPath id="clip0_40_27284">
<rect width="64" height="64" fill="white"/>
</clipPath>
</defs>
</svg>
