<svg width="64" height="64" viewBox="0 0 64 64" fill="none" xmlns="http://www.w3.org/2000/svg">
<g clip-path="url(#clip0_40_27288)">
<mask id="mask0_40_27288" style="mask-type:luminance" maskUnits="userSpaceOnUse" x="0" y="0" width="64" height="64">
<path d="M32 64C49.6731 64 64 49.6731 64 32C64 14.3269 49.6731 0 32 0C14.3269 0 0 14.3269 0 32C0 49.6731 14.3269 64 32 64Z" fill="white"/>
</mask>
<g mask="url(#mask0_40_27288)">
<path d="M31.9999 61.2789C48.1703 61.2789 61.2789 48.1703 61.2789 31.9999C61.2789 15.8296 48.1703 2.72095 31.9999 2.72095C15.8296 2.72095 2.72095 15.8296 2.72095 31.9999C2.72095 48.1703 15.8296 61.2789 31.9999 61.2789Z" fill="#002352" stroke="#0066CC" stroke-width="5.442" stroke-miterlimit="10"/>
<path d="M15.5929 24.4H36.2679C36.2679 24.4 43.4039 24.333 38.4679 33.537C37.2131 35.7388 35.3842 37.5587 33.1763 38.8025C30.9684 40.0464 28.4642 40.6677 25.9309 40.6L30.7459 28.3C30.804 28.1542 30.8259 27.9966 30.8099 27.8405C30.7939 27.6843 30.7405 27.5344 30.654 27.4034C30.5676 27.2724 30.4508 27.1642 30.3136 27.0881C30.1764 27.0119 30.0228 26.9701 29.8659 26.966L23.5299 26.859L15.5299 46.334C16.9034 46.4754 18.2852 46.5198 19.6649 46.467L18.8649 48.467H22.6399C22.7445 48.4678 22.8468 48.4362 22.9327 48.3766C23.0186 48.317 23.084 48.2323 23.1199 48.134L23.7999 46.334L25.3999 46.201L24.4659 48.4691H28.1479C28.2834 48.47 28.416 48.4296 28.528 48.3534C28.64 48.2771 28.7261 48.1685 28.7749 48.042L29.7999 45.406C29.7999 45.406 40.9999 43.538 46.0729 34.468C46.0729 34.468 52.8729 23.93 44.8729 20.195C43.3133 19.4798 41.6455 19.029 39.9379 18.861L40.8719 16.553C40.9002 16.4845 40.9112 16.4101 40.9041 16.3364C40.897 16.2626 40.8719 16.1917 40.831 16.1299C40.7902 16.068 40.7348 16.0171 40.6698 15.9816C40.6048 15.946 40.532 15.927 40.4579 15.926H36.9999L35.9329 18.726H34.4679L35.2949 16.552C35.3203 16.4824 35.3288 16.4077 35.3196 16.3342C35.3105 16.2606 35.2839 16.1903 35.2422 16.129C35.2005 16.0678 35.1448 16.0173 35.0797 15.9818C35.0146 15.9464 34.942 15.9269 34.8679 15.925H31.3999L30.3329 18.725H19.5549C19.2653 18.724 18.9807 18.8015 18.7317 18.9495C18.4827 19.0974 18.2785 19.3102 18.1409 19.565L15.5929 24.4Z" fill="white"/>
</g>
</g>
<defs>
<clipPath id="clip0_40_27288">
<rect width="64" height="64" fill="white"/>
</clipPath>
</defs>
</svg>
