<svg xmlns="http://www.w3.org/2000/svg" xmlns:xlink="http://www.w3.org/1999/xlink" width="64" height="64" viewBox="0 0 64 64"><defs><clipPath id="a"><circle cx="32" cy="32" r="32" transform="translate(286 983)" fill="#dedede"/></clipPath></defs><g transform="translate(-286 -983)" clip-path="url(#a)"><g transform="translate(286 983)"><circle cx="29.279" cy="29.279" r="29.279" transform="translate(2.721 2.721)" fill="#002352" stroke="#06c" stroke-miterlimit="10" stroke-width="5.442"/><path d="M15.593,24.4H36.268s7.136-.067,2.2,9.137A14,14,0,0,1,25.931,40.6l4.815-12.3a.974.974,0,0,0-.88-1.334l-6.336-.107-8,19.475a29.407,29.407,0,0,0,4.135.133l-.8,2h3.775a.507.507,0,0,0,.48-.333l.68-1.8,1.6-.133-.934,2.268h3.682a.667.667,0,0,0,.627-.427L29.8,45.406S41,43.538,46.073,34.468c0,0,6.8-10.538-1.2-14.273a15.473,15.473,0,0,0-4.935-1.334l.934-2.308a.454.454,0,0,0-.414-.627H37l-1.067,2.8H34.468l.827-2.174a.467.467,0,0,0-.427-.627H31.4l-1.067,2.8H19.555a1.6,1.6,0,0,0-1.414.84Z" fill="#fff"/></g></g></svg>