<svg width="64" height="64" viewBox="0 0 64 64" fill="none" xmlns="http://www.w3.org/2000/svg">
<g clip-path="url(#clip0_40_27296)">
<path d="M32 64C49.6731 64 64 49.6731 64 32C64 14.3269 49.6731 0 32 0C14.3269 0 0 14.3269 0 32C0 49.6731 14.3269 64 32 64Z" fill="#17773A"/>
<mask id="mask0_40_27296" style="mask-type:luminance" maskUnits="userSpaceOnUse" x="11" y="13" width="42" height="42">
<path d="M11.058 13.3521H52.943V54.6521H11.058V13.3521Z" fill="white"/>
</mask>
<g mask="url(#mask0_40_27296)">
<path d="M43.566 47.3771C46.5951 44.5246 48.9945 41.0702 50.61 37.2357C52.2255 33.4012 53.0215 29.2714 52.947 25.1111C52.8741 21.1517 52.2858 17.2186 51.197 13.4111C48.5417 15.8371 45.1031 17.2283 41.508 17.3311C36.108 17.3681 32.008 13.4111 32.008 13.4111C32.008 13.4111 27.908 17.3681 22.508 17.3311C18.9128 17.2283 15.4742 15.8371 12.819 13.4111C11.7301 17.2186 11.1418 21.1517 11.069 25.1111C10.9929 29.2706 11.7872 33.4 13.4008 37.2344C15.0144 41.0688 17.4117 44.5236 20.439 47.3771C23.8238 50.4764 27.7407 52.9386 32.001 54.6451C36.2623 52.9389 40.1802 50.4767 43.566 47.3771Z" fill="#231F20"/>
</g>
<path d="M32.001 24.19V34.124C31.8786 34.0323 31.7614 33.9338 31.65 33.829C30.9222 33.1096 30.443 32.1767 30.282 31.166C30.1827 30.3993 30.1763 29.6233 30.263 28.855C30.337 28.541 30.67 28.596 31.021 28.818C31.372 29.04 31.539 28.873 31.779 28.633C32.019 28.393 31.927 28.356 31.76 28.208C31.727 28.1725 31.7024 28.1299 31.6881 28.0836C31.6737 28.0372 31.6699 27.9883 31.6771 27.9403C31.6842 27.8923 31.7019 27.8465 31.7291 27.8063C31.7563 27.7661 31.7921 27.7325 31.834 27.708C31.982 27.634 31.908 27.523 31.742 27.449C31.576 27.375 31.557 27.283 31.557 27.116C31.557 26.949 31.52 26.816 31.335 26.802C31.15 26.788 30.91 26.691 30.928 26.488C30.946 26.285 30.965 26.063 30.595 26.044C30.225 26.025 29.895 26.025 29.895 26.025C29.895 26.025 29.92 25.31 29.451 25.285C28.982 25.26 28.145 25.359 27.873 25.753C27.7144 26.1633 27.6796 26.6112 27.773 27.041C27.5964 26.9505 27.4032 26.8967 27.2052 26.883C27.0072 26.8692 26.8085 26.8958 26.621 26.961C26.6838 27.022 26.7339 27.0949 26.7682 27.1754C26.8025 27.2559 26.8205 27.3425 26.821 27.43C26.6535 27.61 26.4294 27.7272 26.186 27.762C26.186 27.762 26.538 27.947 26.87 28.151C27.202 28.355 27.184 28.484 26.685 28.706C26.4204 28.7956 26.1804 28.9459 25.9843 29.1449C25.7883 29.3439 25.6416 29.5861 25.556 29.852C25.408 30.444 25.534 30.652 25.926 30.629C26.3158 30.6017 26.6946 30.4879 27.035 30.296C26.4735 30.8152 25.9824 31.4055 25.574 32.052C25.2612 32.4555 25.0438 32.9246 24.9381 33.424C24.8325 33.9235 24.8413 34.4405 24.964 34.936C25.241 35.75 26.203 36.452 27.238 37.192C27.8228 37.518 28.3055 38.0002 28.632 38.5847C28.9585 39.1693 29.1161 39.8331 29.087 40.502C29.1238 41.5684 28.8825 42.626 28.387 43.571C27.9598 43.9951 27.4214 44.2897 26.834 44.421C26.316 44.587 25.965 44.721 25.965 45.068C25.965 45.415 26.131 45.438 26.557 45.438C26.9389 45.4696 27.321 45.3789 27.648 45.179C27.907 44.979 28.073 44.865 28.314 45.031C28.4061 45.1116 28.5181 45.1661 28.6383 45.1889C28.7586 45.2118 28.8827 45.2022 28.998 45.161C29.22 45.069 29.386 44.884 29.349 44.699C29.2586 44.4998 29.1333 44.3182 28.979 44.163C28.979 44.163 29.293 44.292 29.404 44.107C29.4497 44.0251 29.4737 43.9329 29.4737 43.839C29.4737 43.7452 29.4497 43.653 29.404 43.571C29.3589 43.4342 29.3462 43.2886 29.367 43.146C29.5719 43.0828 29.7614 42.9778 29.9237 42.8377C30.086 42.6976 30.2175 42.5255 30.31 42.332C30.698 41.632 30.902 41.001 31.031 40.779C31.139 40.594 31.48 40.356 32.011 40.641V51.841C28.4253 50.2808 25.1221 48.1386 22.235 45.501C19.2299 42.6866 16.908 39.2223 15.447 35.373C14.2524 32.0767 13.6465 28.5961 13.657 25.09C13.657 25.032 13.657 24.974 13.657 24.916C13.6914 22.5019 13.9549 20.0964 14.444 17.732C16.9005 19.1233 19.6672 19.875 22.49 19.918C25.9168 19.8416 29.2387 18.7214 32.012 16.707V23.623H31.357V21.144H30.725V24.173H31.996V24.185" fill="#2C9D55"/>
<path d="M32.001 14.5439C34.6721 16.7909 38.0214 18.074 41.51 18.1869C44.849 18.1131 48.0766 16.9721 50.72 14.9309C51.5616 18.1982 52.0227 21.5518 52.094 24.9249C52.094 24.9863 52.094 25.0476 52.094 25.1089C52.1033 28.8186 51.4602 32.501 50.194 35.9879C48.6418 40.0849 46.1732 43.7725 42.977 46.7689C39.7516 49.7123 36.0377 52.0706 32.002 53.7379C27.966 52.0708 24.2517 49.7124 21.026 46.7689C17.8301 43.7735 15.3615 40.0869 13.809 35.9909C12.5429 32.504 11.8998 28.8216 11.909 25.1119C11.909 25.0506 11.909 24.9893 11.909 24.9279C11.9804 21.5548 12.4415 18.2012 13.283 14.9339C15.9262 16.9748 19.1534 18.1159 22.492 18.1899C25.981 18.0772 29.3307 16.794 32.002 14.5469M22.485 19.0689C19.4108 19.0129 16.4154 18.0868 13.846 16.3979C13.1985 19.1936 12.8465 22.0497 12.796 24.9189C12.796 24.9789 12.796 25.0379 12.796 25.0979C12.7864 28.7034 13.4105 32.2825 14.64 35.6719C16.1464 39.6424 18.5407 43.2158 21.64 46.1189C24.6927 48.9057 28.1961 51.1543 32.001 52.7689C35.8067 51.154 39.3107 48.9051 42.364 46.1179C45.4635 43.215 47.8579 39.6415 49.364 35.6709C50.5937 32.2816 51.2179 28.7024 51.208 25.0969C51.208 25.0376 51.208 24.9779 51.208 24.9179C51.1576 22.0487 50.8057 19.1926 50.158 16.3969C47.5884 18.0861 44.5927 19.0126 41.518 19.0689C38.0644 18.9767 34.7306 17.7833 32.003 15.6629C29.2751 17.7834 25.941 18.9768 22.487 19.0689" fill="white"/>
<path d="M34.811 41.1511C35.045 41.4321 34.959 41.5951 34.848 41.8511C34.8038 42.0112 34.8165 42.1817 34.884 42.3334C34.9515 42.4851 35.0695 42.6088 35.218 42.6831C35.532 42.8311 35.791 42.7571 35.902 42.8831C36.013 43.0091 35.625 43.2721 35.347 43.5491C35.069 43.8261 35.329 44.1221 35.458 44.3261C35.587 44.5301 35.791 44.6961 35.624 44.8441C35.5473 44.9098 35.4505 44.9473 35.3497 44.9506C35.2488 44.9539 35.1498 44.9226 35.069 44.8621C34.884 44.7511 34.736 44.5481 34.551 44.5621C34.366 44.5761 34.292 44.9501 33.959 45.0981C33.5714 45.2508 33.1544 45.314 32.739 45.2831C32.517 45.2271 32.258 45.0431 32.406 44.8211C32.5065 44.665 32.6427 44.5349 32.8034 44.4417C32.964 44.3485 33.1445 44.2949 33.33 44.2851C33.774 44.2851 34.057 44.2781 34.162 43.9851C34.2429 43.7831 34.2781 43.5656 34.2654 43.3483C34.2526 43.1311 34.192 42.9193 34.088 42.7281C33.5639 42.0503 32.9755 41.4247 32.331 40.8601C31.61 40.2501 31.148 40.5461 31.018 40.7681C30.888 40.9901 30.685 41.6181 30.297 42.3211C30.2044 42.5145 30.0729 42.6866 29.9106 42.8267C29.7483 42.9668 29.5588 43.0718 29.354 43.1351C29.3333 43.2777 29.3459 43.4232 29.391 43.5601C29.4367 43.6421 29.4607 43.7343 29.4607 43.8281C29.4607 43.9219 29.4367 44.0142 29.391 44.0961C29.28 44.2811 28.966 44.1521 28.966 44.1521C29.1203 44.3073 29.2456 44.4888 29.336 44.6881C29.373 44.8731 29.207 45.0581 28.985 45.1501C28.8697 45.1913 28.7456 45.2009 28.6253 45.178C28.5051 45.1552 28.3931 45.1007 28.301 45.0201C28.061 44.8541 27.894 44.9651 27.635 45.1681C27.308 45.368 26.9259 45.4587 26.544 45.4271C26.119 45.4271 25.952 45.4091 25.952 45.0571C25.952 44.7051 26.304 44.5761 26.821 44.4101C27.4083 44.2785 27.9466 43.9839 28.374 43.5601C28.8697 42.6152 29.1109 41.5575 29.074 40.4911C29.1031 39.8222 28.9455 39.1584 28.619 38.5738C28.2925 37.9893 27.8098 37.5071 27.225 37.1811C26.189 36.4421 25.225 35.7391 24.951 34.9261C24.8284 34.4306 24.8196 33.9136 24.9253 33.4142C25.0309 32.9147 25.2483 32.4456 25.561 32.0421C25.9694 31.3953 26.4606 30.8047 27.022 30.2851C26.6816 30.477 26.3028 30.5908 25.913 30.6181C25.521 30.6411 25.395 30.4331 25.543 29.8411C25.6283 29.5752 25.7748 29.333 25.9707 29.134C26.1666 28.935 26.4065 28.7847 26.671 28.6951C27.171 28.4731 27.189 28.3441 26.856 28.1401C26.523 27.9361 26.172 27.7511 26.172 27.7511C26.4154 27.7163 26.6395 27.5991 26.807 27.4191C26.8065 27.3316 26.7885 27.245 26.7542 27.1645C26.7199 27.084 26.6698 27.0111 26.607 26.9501C26.7945 26.8849 26.9932 26.8584 27.1912 26.8722C27.3892 26.8859 27.5823 26.9396 27.759 27.0301C27.6658 26.6002 27.7005 26.1525 27.859 25.7421C28.13 25.3481 28.968 25.2491 29.437 25.2741C29.906 25.2991 29.881 26.0141 29.881 26.0141C29.881 26.0141 30.214 26.0141 30.581 26.0331C30.948 26.0521 30.932 26.2731 30.914 26.4771C30.896 26.6811 31.136 26.7771 31.321 26.7911C31.506 26.8051 31.543 26.9391 31.543 27.1051C31.543 27.2711 31.562 27.3641 31.728 27.4381C31.894 27.5121 31.968 27.6231 31.82 27.6971C31.7781 27.7216 31.7423 27.7552 31.7151 27.7954C31.688 27.8356 31.6702 27.8814 31.6631 27.9294C31.656 27.9774 31.6597 28.0263 31.6741 28.0727C31.6884 28.119 31.713 28.1616 31.746 28.1971C31.912 28.3451 32.005 28.3821 31.765 28.6221C31.525 28.8621 31.358 29.0291 31.007 28.8071C30.656 28.5851 30.323 28.5301 30.249 28.8441C30.1622 29.6124 30.1686 30.3884 30.268 31.1551C30.429 32.1657 30.9082 33.0987 31.636 33.8181C32.4171 34.5313 33.426 34.9441 34.483 34.9831C34.9351 33.8812 35.5389 32.8479 36.277 31.9131C37.331 30.6921 39.642 29.4911 41.377 30.7481C43.112 32.0051 43.429 34.6861 43.023 36.4241C42.8658 37.4407 42.4308 38.3941 41.766 39.1791C41.875 38.5382 41.9059 37.8865 41.858 37.2381C41.8774 36.5998 41.6525 35.9781 41.229 35.5001C41.4645 36.5507 41.4004 37.6462 41.044 38.6621C40.7504 39.4071 40.2085 40.0277 39.51 40.4191C39.7092 39.5569 39.7279 38.6629 39.565 37.7931C39.4759 37.2358 39.1869 36.7299 38.752 36.3701C39.0312 37.3573 39.0183 38.4041 38.715 39.3841C38.5796 39.7695 38.3623 40.121 38.0782 40.4144C37.7941 40.7079 37.4498 40.9363 37.069 41.0841C37.1502 40.5985 37.1315 40.1013 37.014 39.6231C36.891 39.3347 36.6747 39.0959 36.3998 38.9451C36.1249 38.7942 35.8074 38.74 35.498 38.7911C35.336 38.7908 35.1758 38.8255 35.0286 38.8931C34.8813 38.9606 34.7504 39.0593 34.645 39.1823C34.5396 39.3053 34.4621 39.4497 34.4179 39.6056C34.3737 39.7615 34.3638 39.9251 34.389 40.0851C34.3825 40.2792 34.4152 40.4725 34.4851 40.6536C34.5551 40.8347 34.6608 40.9998 34.796 41.1391" fill="white"/>
<path d="M15.089 21.1511H16.425C17.445 21.1511 17.656 22.0191 17.656 22.5931C17.656 23.2421 17.399 24.1781 16.4 24.1781H15.089V21.1511ZM15.709 23.6511H16.324C16.838 23.6511 17.011 23.1331 17.011 22.6351C17.011 21.7411 16.585 21.6701 16.311 21.6701H15.709V23.6511Z" fill="white"/>
<path d="M20.957 21.6861H19.351V22.3231H20.826V22.8591H19.351V23.6431H21.029V24.1781H18.729V21.1511H20.955V21.6861" fill="white"/>
<path d="M23.988 21.1511H24.578V24.1781H23.946L22.711 22.0211H22.703V24.1801H22.113V21.1511H22.779L23.979 23.2591H23.987L23.988 21.1511Z" fill="white"/>
<path d="M26.365 24.1771H25.733V21.1501H26.365V24.1771ZM26.302 20.7501H25.796V20.2251H26.302V20.7501Z" fill="white"/>
<path d="M34.48 24.1771H33.848V21.1501H34.48V24.1771ZM34.417 20.7501H33.911V20.2251H34.417V20.7501Z" fill="white"/>
<path d="M29.708 24.1781H27.343V23.6431L28.907 21.6871H27.385V21.1521H29.7V21.6521L28.115 23.6461H29.708V24.1811" fill="white"/>
<path d="M36.124 23.246C36.124 23.415 36.213 23.735 36.765 23.735C37.065 23.735 37.397 23.663 37.397 23.343C37.397 23.107 37.169 23.043 36.849 22.968L36.524 22.892C36.035 22.778 35.563 22.669 35.563 22.003C35.563 21.666 35.744 21.071 36.727 21.071C37.654 21.071 37.903 21.678 37.907 22.049H37.3C37.283 21.914 37.233 21.594 36.68 21.594C36.44 21.594 36.153 21.682 36.153 21.957C36.153 22.193 36.347 22.244 36.473 22.273L37.211 22.454C37.624 22.554 38.004 22.724 38.004 23.267C38.004 24.178 37.077 24.258 36.811 24.258C35.711 24.258 35.517 23.622 35.517 23.246H36.124Z" fill="white"/>
<path d="M39.716 24.1782H39.084V21.1512H40.467C40.5952 21.1425 40.7238 21.162 40.8438 21.2081C40.9638 21.2543 41.0723 21.326 41.1618 21.4183C41.2513 21.5106 41.3195 21.6213 41.3619 21.7427C41.4042 21.8641 41.4196 21.9932 41.407 22.1212C41.4122 22.2493 41.3908 22.3771 41.3441 22.4965C41.2975 22.616 41.2266 22.7245 41.136 22.8151C41.0453 22.9058 40.9368 22.9767 40.8174 23.0233C40.6979 23.07 40.5701 23.0914 40.442 23.0862H39.717V24.1782M40.303 22.5632C40.775 22.5632 40.775 22.2262 40.775 22.0912C40.775 21.7912 40.611 21.6742 40.219 21.6742H39.719V22.5642H40.303" fill="white"/>
<path d="M43.813 21.0711C44.1343 21.0417 44.457 21.1101 44.7387 21.2673C45.0205 21.4246 45.2481 21.6633 45.3917 21.9522C45.5353 22.2412 45.5883 22.5667 45.5435 22.8863C45.4988 23.2058 45.3585 23.5044 45.1411 23.7427C44.9236 23.9811 44.6392 24.1482 44.3251 24.222C44.011 24.2958 43.682 24.273 43.3811 24.1565C43.0802 24.0399 42.8216 23.8351 42.6392 23.569C42.4568 23.3029 42.3591 22.9878 42.359 22.6651C42.3323 22.4614 42.3505 22.2544 42.4121 22.0584C42.4738 21.8625 42.5774 21.6823 42.7159 21.5305C42.8543 21.3788 43.0242 21.259 43.2137 21.1797C43.4032 21.1003 43.6077 21.0633 43.813 21.0711ZM43.813 23.7231C44.155 23.7231 44.635 23.5121 44.635 22.6651C44.635 21.8181 44.154 21.6071 43.813 21.6071C43.472 21.6071 42.991 21.8181 42.991 22.6651C42.991 23.5121 43.472 23.7231 43.813 23.7231Z" fill="white"/>
<path d="M46.3719 21.1512H47.9019C48.0223 21.1369 48.1443 21.1485 48.2599 21.1852C48.3754 21.2218 48.4818 21.2827 48.572 21.3637C48.6622 21.4447 48.734 21.544 48.7828 21.6549C48.8316 21.7659 48.8562 21.886 48.8549 22.0072C48.8644 22.1616 48.824 22.315 48.7397 22.4448C48.6555 22.5745 48.5319 22.6739 48.387 22.7282C48.636 22.8382 48.771 22.9282 48.771 23.4952C48.771 23.9382 48.7709 24.0472 48.9059 24.0952V24.1752H48.206C48.1525 23.9761 48.1299 23.7701 48.1389 23.5642C48.1389 23.1512 48.114 22.9912 47.646 22.9912H46.993V24.1762H46.373V21.1512M47.735 22.4832C48.064 22.4832 48.224 22.3692 48.224 22.0702C48.224 21.9102 48.1519 21.6701 47.7809 21.6701H46.993V22.4802H47.735" fill="white"/>
<path d="M34.977 47.148C34.8888 47.2143 34.8157 47.2987 34.7626 47.3954C34.7095 47.4921 34.6776 47.599 34.669 47.709C34.7528 47.6361 34.8508 47.5816 34.9569 47.5487C35.0629 47.5158 35.1747 47.5054 35.285 47.518C35.4059 47.5291 35.5227 47.5671 35.627 47.6293C35.7312 47.6915 35.8202 47.7763 35.8874 47.8774C35.9545 47.9785 35.9982 48.0934 36.0151 48.2136C36.032 48.3338 36.0217 48.4563 35.985 48.572C35.9601 48.776 35.8633 48.9644 35.7118 49.1034C35.5604 49.2423 35.3644 49.3227 35.159 49.33C35.0318 49.3456 34.9028 49.3347 34.78 49.298C34.6573 49.2614 34.5434 49.1998 34.4456 49.1171C34.3477 49.0343 34.2681 48.9323 34.2115 48.8174C34.155 48.7024 34.1228 48.577 34.117 48.449C34.0476 48.1599 34.0617 47.857 34.1576 47.5755C34.2536 47.294 34.4274 47.0456 34.659 46.859C34.9328 46.6636 35.2596 46.5561 35.596 46.551L35.738 46.945C35.4699 46.9234 35.2025 46.994 34.98 47.145M34.641 48.086C34.6047 48.2977 34.644 48.5154 34.752 48.701C34.7838 48.7615 34.8313 48.8122 34.8897 48.8478C34.948 48.8834 35.0149 48.9025 35.0832 48.9031C35.1515 48.9038 35.2187 48.8859 35.2777 48.8513C35.3366 48.8168 35.3851 48.7669 35.418 48.707C35.4787 48.5951 35.5018 48.4665 35.4837 48.3405C35.4657 48.2144 35.4076 48.0975 35.318 48.007C35.2116 47.9453 35.0881 47.9195 34.9659 47.9338C34.8437 47.948 34.7303 48.0014 34.641 48.086Z" fill="white"/>
<path d="M32.939 47.148C32.8508 47.2143 32.7778 47.2987 32.7247 47.3954C32.6716 47.4921 32.6397 47.599 32.631 47.709C32.7148 47.6361 32.8129 47.5816 32.9189 47.5487C33.025 47.5158 33.1367 47.5054 33.247 47.518C33.3679 47.5291 33.4848 47.5671 33.589 47.6293C33.6933 47.6915 33.7823 47.7763 33.8494 47.8774C33.9166 47.9785 33.9602 48.0934 33.9771 48.2136C33.994 48.3338 33.9837 48.4563 33.947 48.572C33.9222 48.776 33.8253 48.9644 33.6739 49.1034C33.5225 49.2423 33.3264 49.3227 33.121 49.33C32.9938 49.3457 32.8648 49.335 32.7419 49.2984C32.6191 49.2618 32.5052 49.2002 32.4073 49.1174C32.3094 49.0347 32.2298 48.9326 32.1733 48.8176C32.1168 48.7025 32.0847 48.5771 32.079 48.449C32.0098 48.1599 32.0239 47.857 32.1198 47.5756C32.2158 47.2941 32.3896 47.0456 32.621 46.859C32.8948 46.6636 33.2217 46.5561 33.558 46.551L33.7 46.945C33.432 46.9234 33.1646 46.994 32.942 47.145M32.603 48.086C32.5666 48.2977 32.6059 48.5154 32.714 48.701C32.7458 48.7615 32.7934 48.8122 32.8517 48.8478C32.91 48.8834 32.9769 48.9025 33.0452 48.9031C33.1136 48.9038 33.1808 48.8859 33.2397 48.8513C33.2987 48.8168 33.3472 48.7669 33.38 48.707C33.4407 48.5951 33.4638 48.4665 33.4458 48.3405C33.4278 48.2144 33.3696 48.0975 33.28 48.007C33.1736 47.9453 33.0501 47.9195 32.9279 47.9338C32.8057 47.948 32.6924 48.0014 32.603 48.086Z" fill="white"/>
<path d="M30.983 48.7011C31.0697 48.641 31.1417 48.5622 31.1936 48.4704C31.2456 48.3786 31.2761 48.2763 31.283 48.171C31.1992 48.2439 31.1011 48.2985 30.9951 48.3314C30.889 48.3643 30.7773 48.3747 30.667 48.3621C30.5449 48.3495 30.4272 48.3099 30.3225 48.246C30.2177 48.1821 30.1285 48.0957 30.0614 47.9929C29.9944 47.8902 29.9511 47.7738 29.9347 47.6522C29.9184 47.5306 29.9294 47.4069 29.967 47.2901C29.9937 47.0883 30.0918 46.9027 30.2435 46.7669C30.3952 46.6312 30.5904 46.5543 30.794 46.5501C30.9208 46.5364 31.0491 46.5487 31.171 46.5861C31.293 46.6235 31.4061 46.6852 31.5035 46.7675C31.6009 46.8499 31.6806 46.9512 31.7378 47.0652C31.7949 47.1793 31.8283 47.3037 31.836 47.4311C31.9052 47.7202 31.8911 48.0231 31.7952 48.3045C31.6992 48.586 31.5254 48.8344 31.294 49.0211C30.9898 49.221 30.6329 49.3255 30.269 49.3211L30.215 48.9331C30.4892 48.9358 30.7577 48.8541 30.984 48.6991M31.312 47.7891C31.3485 47.5774 31.3092 47.3597 31.201 47.1741C31.1692 47.1136 31.1216 47.0628 31.0633 47.0272C31.005 46.9916 30.9381 46.9726 30.8698 46.9719C30.8014 46.9713 30.7342 46.9892 30.6753 47.0238C30.6163 47.0583 30.5678 47.1082 30.535 47.1681C30.4744 47.28 30.4515 47.4085 30.4695 47.5346C30.4875 47.6606 30.5455 47.7775 30.635 47.8681C30.7414 47.9298 30.8649 47.9555 30.9871 47.9412C31.1093 47.927 31.2236 47.8737 31.313 47.7891" fill="white"/>
<path d="M28.698 47.2271V48.9711C28.6923 49.0668 28.6782 49.1618 28.656 49.2551H29.27C29.2439 49.165 29.2298 49.0718 29.228 48.978V46.562H28.957C28.7576 46.7323 28.5156 46.8451 28.257 46.8881V47.1721C28.4048 47.1707 28.5521 47.1892 28.695 47.2271" fill="white"/>
<path d="M31.36 23.6301H32.86V24.1781H30.723V21.1511H31.355V23.6301" fill="white"/>
</g>
<defs>
<clipPath id="clip0_40_27296">
<rect width="64" height="64" fill="white"/>
</clipPath>
</defs>
</svg>
