<svg xmlns="http://www.w3.org/2000/svg" xmlns:xlink="http://www.w3.org/1999/xlink" width="64" height="64" viewBox="0 0 64 64">
  <defs>
    <clipPath id="clip-path">
      <path id="Path_7640" data-name="Path 7640" d="M32,64A32,32,0,1,0,0,32.07,32.021,32.021,0,0,0,32,64Z" fill="#fff"/>
    </clipPath>
    <clipPath id="clip-path-2">
      <path id="Path_7642" data-name="Path 7642" d="M32,64A32,32,0,1,0,0,32.07,32.021,32.021,0,0,0,32,64Z" fill="#7e1bcc"/>
    </clipPath>
  </defs>
  <g id="dodo" transform="translate(-478.93 -7217.402)">
    <g id="Group_5290" data-name="Group 5290" transform="translate(478.93 7217.402)">
      <g id="Group_5315" data-name="Group 5315">
        <g id="Mask_Group_10" data-name="Mask Group 10" clip-path="url(#clip-path)">
          <g id="dodo-logo_logotyp.us" data-name="dodo-logo@logotyp.us" transform="translate(-27.733 -10.667)">
            <circle id="Ellipse_139" data-name="Ellipse 139" cx="32" cy="32" r="32" transform="translate(27.733 10.667)" fill="#ffe804"/>
            <g id="Group_5322" data-name="Group 5322" transform="translate(-9.067 -3.185)">
              <g id="Group_5321" data-name="Group 5321">
                <path id="Path_10007" data-name="Path 10007" d="M73.485,29.348a4.389,4.389,0,0,0,.343-1.44c.114-.96-.114-1.714-.686-1.943-.549-.229-1.257.137-1.874.846v-.137c0-1.966-.914-3.589-2.057-3.589s-2.057,1.6-2.057,3.589a2.484,2.484,0,0,0,.023.411c-.686-.914-1.6-1.394-2.24-1.1-.8.389-.914,1.829-.229,3.246a6.5,6.5,0,0,0,.526.846c-8.8,1.371-13.806,8.32-14.446,19.748H55.7c.526-9.417,5.394-14.766,13.509-14.766,7.269,0,12.709,5.12,12.64,14.766h4.914c.091-11.383-6.354-18.743-13.737-19.7a3.664,3.664,0,0,0,.457-.777Z" fill-rule="evenodd"/>
                <path id="Path_10008" data-name="Path 10008" d="M63.04,41.623V44.8a1.669,1.669,0,0,0,3.246,0V41.623a1.669,1.669,0,0,0-3.246,0Zm10.011-1.28a1.414,1.414,0,0,0-1.509,1.28V44.8a1.4,1.4,0,0,0,1.509,1.28A1.414,1.414,0,0,0,74.56,44.8V41.623a1.414,1.414,0,0,0-1.509-1.28" fill-rule="evenodd"/>
              </g>
              <path id="Path_10009" data-name="Path 10009" d="M65.6,58.354a2.743,2.743,0,0,1-.526.914,2.291,2.291,0,0,1-.8.594,2.385,2.385,0,0,1-.983.229,2.073,2.073,0,0,1-.983-.229,2.521,2.521,0,0,1-.8-.594,2.807,2.807,0,0,1-.526-.914,3.238,3.238,0,0,1-.183-1.143,3.74,3.74,0,0,1,.183-1.143,2.743,2.743,0,0,1,.526-.914,2.291,2.291,0,0,1,.8-.594,2.472,2.472,0,0,1,.983-.229,2.073,2.073,0,0,1,.983.229,2.521,2.521,0,0,1,.8.594,2.743,2.743,0,0,1,.526.914,3.74,3.74,0,0,1,.183,1.143,2.675,2.675,0,0,1-.183,1.143m2.331-3.04A4.979,4.979,0,0,0,66.9,53.76a4.9,4.9,0,0,0-3.451-1.417,4.951,4.951,0,0,0-3.474,1.417,4.73,4.73,0,0,0-1.029,1.554,4.938,4.938,0,0,0,0,3.84,4.853,4.853,0,0,0,1.029,1.554,4.911,4.911,0,0,0,3.474,1.417,4.9,4.9,0,0,0,4.48-6.811m-13.3,3.04a3.5,3.5,0,0,1-.48.914,2.05,2.05,0,0,1-.731.594,1.985,1.985,0,0,1-.891.229H51.04v-5.76h1.486a1.728,1.728,0,0,1,.891.229,2.7,2.7,0,0,1,.731.617,2.9,2.9,0,0,1,.48.914,3.74,3.74,0,0,1,.183,1.143,3.486,3.486,0,0,1-.183,1.12m2.537-3.04a4.979,4.979,0,0,0-1.029-1.554,4.635,4.635,0,0,0-1.531-1.029,4.855,4.855,0,0,0-1.9-.389H48.8V62.1h3.909a4.837,4.837,0,0,0,1.9-.366,4.752,4.752,0,0,0,1.531-1.029,4.846,4.846,0,0,0,1.394-3.451,4.534,4.534,0,0,0-.366-1.943M86.1,58.354a2.743,2.743,0,0,1-.526.914,2.291,2.291,0,0,1-.8.594,2.385,2.385,0,0,1-.983.229,2.073,2.073,0,0,1-.983-.229,2.521,2.521,0,0,1-.8-.594,2.807,2.807,0,0,1-.526-.914,3.238,3.238,0,0,1-.183-1.143,3.74,3.74,0,0,1,.183-1.143,2.743,2.743,0,0,1,.526-.914,2.521,2.521,0,0,1,.8-.594,2.385,2.385,0,0,1,.983-.229,2.012,2.012,0,0,1,.983.229,2.291,2.291,0,0,1,.8.594,2.743,2.743,0,0,1,.526.914,3.156,3.156,0,0,1,.183,1.143,2.675,2.675,0,0,1-.183,1.143m2.309-3.04a4.979,4.979,0,0,0-1.029-1.554,4.9,4.9,0,0,0-3.451-1.417,4.951,4.951,0,0,0-3.474,1.417,4.73,4.73,0,0,0-1.029,1.554,4.564,4.564,0,0,0-.366,1.92,4.95,4.95,0,0,0,.366,1.92,4.853,4.853,0,0,0,1.029,1.554,4.911,4.911,0,0,0,3.474,1.417A4.88,4.88,0,0,0,88.8,57.234a4.51,4.51,0,0,0-.389-1.92m-13.28,3.04a3.5,3.5,0,0,1-.48.914,2.05,2.05,0,0,1-.731.594,1.985,1.985,0,0,1-.891.229H71.543v-5.76h1.486a1.728,1.728,0,0,1,.891.229,2.7,2.7,0,0,1,.731.617,2.9,2.9,0,0,1,.48.914,3.74,3.74,0,0,1,.183,1.143,4.252,4.252,0,0,1-.183,1.12m2.537-3.04A4.979,4.979,0,0,0,76.64,53.76a4.635,4.635,0,0,0-1.531-1.029,4.855,4.855,0,0,0-1.9-.389H69.3V62.1h3.909a4.837,4.837,0,0,0,1.9-.366,4.752,4.752,0,0,0,1.531-1.029,4.846,4.846,0,0,0,1.394-3.451,4.534,4.534,0,0,0-.366-1.943" fill-rule="evenodd"/>
            </g>
          </g>
        </g>
      </g>
    </g>
  </g>
</svg>
