<svg width="64" height="64" viewBox="0 0 64 64" fill="none" xmlns="http://www.w3.org/2000/svg">
<g clip-path="url(#clip0_40_27323)">
<mask id="mask0_40_27323" style="mask-type:luminance" maskUnits="userSpaceOnUse" x="0" y="0" width="64" height="64">
<path d="M32.0001 64C38.3321 64 44.5217 62.1215 49.7856 58.6021C55.0495 55.0828 59.1509 50.081 61.5709 44.2297C63.9908 38.3783 64.6204 31.9406 63.38 25.7313C62.1396 19.522 59.0849 13.8203 54.6026 9.34783C50.1203 4.87535 44.4119 1.83318 38.1999 0.606374C31.988 -0.620436 25.5516 0.0232661 19.7056 2.45601C13.8596 4.88875 8.86676 9.00116 5.35899 14.2727C1.85121 19.5443 -0.0137746 25.7381 7.65974e-05 32.07C0.0241544 40.5431 3.40553 48.6612 9.40349 54.6461C15.4014 60.6309 23.527 63.9945 32.0001 64Z" fill="white"/>
</mask>
<g mask="url(#mask0_40_27323)">
<path d="M32 64C49.6731 64 64 49.6731 64 32C64 14.3269 49.6731 0 32 0C14.3269 0 0 14.3269 0 32C0 49.6731 14.3269 64 32 64Z" fill="#FFE804"/>
<path fill-rule="evenodd" clip-rule="evenodd" d="M36.685 15.4959C36.8801 15.0388 36.9961 14.5519 37.028 14.0559C37.142 13.0959 36.914 12.3419 36.342 12.1129C35.793 11.8839 35.085 12.2499 34.468 12.9589V12.8219C34.468 10.8559 33.554 9.23291 32.411 9.23291C31.268 9.23291 30.354 10.8329 30.354 12.8219C30.3503 12.9593 30.358 13.0968 30.377 13.2329C29.691 12.3189 28.777 11.8389 28.137 12.1329C27.337 12.5219 27.223 13.9619 27.908 15.3789C28.0615 15.674 28.2373 15.9568 28.434 16.2249C19.634 17.5959 14.628 24.5449 13.988 35.9729H18.9C19.426 26.5559 24.294 21.2069 32.409 21.2069C39.678 21.2069 45.118 26.3269 45.049 35.9729H49.963C50.054 24.5899 43.609 17.2299 36.226 16.2729C36.4098 16.0337 36.5633 15.7727 36.683 15.4959H36.685Z" fill="black"/>
<path fill-rule="evenodd" clip-rule="evenodd" d="M26.24 27.7709V30.9479C26.3274 31.3126 26.5351 31.6371 26.8295 31.8693C27.124 32.1015 27.488 32.2278 27.863 32.2278C28.238 32.2278 28.602 32.1015 28.8964 31.8693C29.1909 31.6371 29.3986 31.3126 29.486 30.9479V27.7709C29.3986 27.4063 29.1909 27.0817 28.8964 26.8495C28.602 26.6173 28.238 26.4911 27.863 26.4911C27.488 26.4911 27.124 26.6173 26.8295 26.8495C26.5351 27.0817 26.3274 27.4063 26.24 27.7709ZM36.251 26.4909C35.882 26.4645 35.5174 26.5837 35.2353 26.823C34.9532 27.0623 34.7761 27.4026 34.742 27.7709V30.9479C34.7726 31.3177 34.9487 31.6602 35.2316 31.9002C35.5145 32.1402 35.8812 32.2581 36.251 32.2279C36.62 32.2544 36.9846 32.1351 37.2667 31.8959C37.5488 31.6566 37.7259 31.3163 37.76 30.9479V27.7709C37.7259 27.4026 37.5488 27.0623 37.2667 26.823C36.9846 26.5837 36.62 26.4645 36.251 26.4909Z" fill="black"/>
<path fill-rule="evenodd" clip-rule="evenodd" d="M28.8 44.502C28.6854 44.8378 28.5068 45.1482 28.274 45.416C28.0541 45.6703 27.781 45.8731 27.474 46.01C27.1664 46.1556 26.8313 46.2337 26.491 46.239C26.1495 46.2448 25.8118 46.1661 25.508 46.01C25.2045 45.8672 24.9325 45.6652 24.708 45.416C24.4765 45.1473 24.298 44.8372 24.182 44.502C24.0528 44.1351 23.9909 43.7479 23.999 43.359C24.0003 42.9708 24.0621 42.5852 24.182 42.216C24.2966 41.8802 24.4752 41.5698 24.708 41.302C24.9279 41.0477 25.201 40.8449 25.508 40.708C25.8164 40.5649 26.1511 40.4869 26.491 40.479C26.8325 40.4732 27.1702 40.5518 27.474 40.708C27.7775 40.8508 28.0495 41.0527 28.274 41.302C28.5068 41.5698 28.6854 41.8802 28.8 42.216C28.9199 42.5852 28.9817 42.9708 28.983 43.359C29.0062 43.7488 28.9437 44.1389 28.8 44.502ZM31.131 41.462C30.8883 40.8837 30.5385 40.3564 30.1 39.908C29.1815 38.9991 27.9412 38.4898 26.649 38.491C25.3499 38.4893 24.1023 38.9982 23.175 39.908C22.7323 40.3526 22.3825 40.8809 22.146 41.462C21.8896 42.0696 21.7574 42.7225 21.7574 43.382C21.7574 44.0415 21.8896 44.6944 22.146 45.302C22.3854 45.8816 22.7348 46.4093 23.175 46.856C24.0998 47.7695 25.3491 48.279 26.649 48.273C27.4554 48.2677 28.248 48.0635 28.9566 47.6785C29.6651 47.2935 30.2677 46.7396 30.7108 46.0658C31.154 45.3921 31.424 44.6194 31.497 43.8163C31.5699 43.0132 31.4435 42.2045 31.129 41.462M17.829 44.502C17.7151 44.8287 17.5533 45.1367 17.349 45.416C17.1547 45.668 16.9045 45.8714 16.618 46.01C16.343 46.155 16.0378 46.2335 15.727 46.239H14.24V40.479H15.726C16.0382 40.4734 16.3461 40.5526 16.617 40.708C16.8954 40.8685 17.143 41.0775 17.348 41.325C17.5614 41.5985 17.724 41.9081 17.828 42.239C17.9479 42.6082 18.0097 42.9938 18.011 43.382C18.0116 43.7628 17.9498 44.1412 17.828 44.502M20.365 41.462C20.1229 40.8838 19.7738 40.3566 19.336 39.908C18.8998 39.4659 18.3791 39.1159 17.805 38.879C17.2043 38.6229 16.5581 38.4906 15.905 38.49H12V48.248H15.909C16.5605 48.2552 17.2068 48.1307 17.809 47.882C18.3816 47.6423 18.9018 47.2927 19.34 46.853C19.7883 46.398 20.1423 45.8589 20.3815 45.2667C20.6208 44.6744 20.7405 44.0407 20.734 43.402C20.7564 42.7353 20.6315 42.0718 20.368 41.459M49.3 44.502C49.1854 44.8378 49.0068 45.1482 48.774 45.416C48.5541 45.6703 48.281 45.8731 47.974 46.01C47.6664 46.1556 47.3313 46.2337 46.991 46.239C46.6495 46.2448 46.3118 46.1661 46.008 46.01C45.7045 45.8672 45.4325 45.6652 45.208 45.416C44.9765 45.1473 44.798 44.8372 44.682 44.502C44.5528 44.1351 44.4909 43.7479 44.499 43.359C44.5003 42.9708 44.5621 42.5852 44.682 42.216C44.7966 41.8802 44.9752 41.5698 45.208 41.302C45.4325 41.0527 45.7045 40.8508 46.008 40.708C46.3156 40.5624 46.6507 40.4843 46.991 40.479C47.3328 40.4706 47.6711 40.5494 47.974 40.708C48.281 40.8449 48.5541 41.0477 48.774 41.302C49.0068 41.5698 49.1854 41.8802 49.3 42.216C49.4309 42.5825 49.493 42.97 49.483 43.359C49.5062 43.7488 49.4437 44.1389 49.3 44.502ZM51.609 41.462C51.3669 40.8838 51.0178 40.3566 50.58 39.908C49.6615 38.9991 48.4212 38.4898 47.129 38.491C45.8299 38.4893 44.5823 38.9982 43.655 39.908C43.2123 40.3526 42.8625 40.8809 42.626 41.462C42.3668 42.0681 42.2419 42.7231 42.26 43.382C42.2532 44.04 42.3776 44.6927 42.626 45.302C42.8654 45.8816 43.2148 46.4093 43.655 46.856C44.5798 47.7695 45.8291 48.279 47.129 48.273C47.77 48.2718 48.4045 48.1444 48.9963 47.8979C49.588 47.6514 50.1254 47.2908 50.5778 46.8366C51.0301 46.3824 51.3885 45.8435 51.6326 45.2508C51.8766 44.658 52.0014 44.023 52 43.382C52.0126 42.7212 51.8798 42.0658 51.611 41.462M38.331 44.502C38.2171 44.8287 38.0553 45.1367 37.851 45.416C37.6567 45.668 37.4065 45.8714 37.12 46.01C36.845 46.155 36.5398 46.2335 36.229 46.239H34.743V40.479H36.229C36.5412 40.4734 36.8491 40.5526 37.12 40.708C37.3984 40.8685 37.646 41.0775 37.851 41.325C38.0644 41.5985 38.227 41.9081 38.331 42.239C38.4509 42.6082 38.5127 42.9938 38.514 43.382C38.5033 43.7618 38.4418 44.1385 38.331 44.502ZM40.868 41.462C40.6262 40.8839 40.2774 40.3567 39.84 39.908C39.4038 39.4659 38.8831 39.1159 38.309 38.879C37.7083 38.6229 37.0621 38.4906 36.409 38.49H32.5V48.248H36.409C37.0605 48.2552 37.7068 48.1307 38.309 47.882C38.8816 47.6423 39.4018 47.2927 39.84 46.853C40.2883 46.398 40.6423 45.8589 40.8815 45.2667C41.1208 44.6744 41.2405 44.0407 41.234 43.402C41.2564 42.7353 41.1315 42.0718 40.868 41.459" fill="black"/>
</g>
</g>
<defs>
<clipPath id="clip0_40_27323">
<rect width="64" height="64" fill="white"/>
</clipPath>
</defs>
</svg>
