<svg width="64" height="64" viewBox="0 0 64 64" fill="none" xmlns="http://www.w3.org/2000/svg">
<g clip-path="url(#clip0_40_30063)">
<path d="M32 64C49.6731 64 64 49.6731 64 32C64 14.3269 49.6731 0 32 0C14.3269 0 0 14.3269 0 32C0 49.6731 14.3269 64 32 64Z" fill="#F5F5F5"/>
<path d="M32 18.965C36.473 18.965 40.099 16.8558 40.099 14.254C40.099 11.6522 36.473 9.54297 32 9.54297C27.527 9.54297 23.901 11.6522 23.901 14.254C23.901 16.8558 27.527 18.965 32 18.965Z" fill="#E6007A"/>
<path d="M32 54.4579C36.473 54.4579 40.099 52.3487 40.099 49.7469C40.099 47.1451 36.473 45.0359 32 45.0359C27.527 45.0359 23.901 47.1451 23.901 49.7469C23.901 52.3487 27.527 54.4579 32 54.4579Z" fill="#E6007A"/>
<path d="M20.7141 25.4852C22.9506 21.6116 22.9359 17.4162 20.6813 16.1144C18.4267 14.8127 14.786 16.8976 12.5495 20.7712C10.313 24.6448 10.3277 28.8402 12.5823 30.1419C14.8369 31.4436 18.4777 29.3588 20.7141 25.4852Z" fill="#E6007A"/>
<path d="M51.4489 43.2302C53.6854 39.3566 53.6719 35.1619 51.4187 33.861C49.1655 32.5601 45.526 34.6456 43.2895 38.5192C41.053 42.3928 41.0665 46.5876 43.3197 47.8885C45.5729 49.1894 49.2125 47.1038 51.4489 43.2302Z" fill="#E6007A"/>
<path d="M20.6823 47.8865C22.9369 46.5848 22.9516 42.3894 20.7151 38.5158C18.4786 34.6422 14.8379 32.5573 12.5833 33.8591C10.3287 35.1608 10.314 39.3562 12.5505 43.2298C14.787 47.1034 18.4277 49.1883 20.6823 47.8865Z" fill="#E6007A"/>
<path d="M51.4207 30.1419C53.6739 28.841 53.6874 24.6463 51.451 20.7727C49.2145 16.8991 45.5749 14.8136 43.3217 16.1145C41.0686 17.4154 41.055 21.6101 43.2915 25.4837C45.528 29.3573 49.1676 31.4428 51.4207 30.1419Z" fill="#E6007A"/>
</g>
<defs>
<clipPath id="clip0_40_30063">
<rect width="64" height="64" fill="white"/>
</clipPath>
</defs>
</svg>
