<svg width="64" height="64" viewBox="0 0 64 64" fill="none" xmlns="http://www.w3.org/2000/svg">
<path d="M32 64C49.6731 64 64 49.6731 64 32C64 14.3269 49.6731 0 32 0C14.3269 0 0 14.3269 0 32C0 49.6731 14.3269 64 32 64Z" fill="#211839"/>
<path d="M25.6075 17.5623H18.9946L29.1449 32.3473L18.9946 47.8832H25.3043L32.3791 37.0543L39.815 47.8832H46.4278L25.6075 17.5623Z" fill="#2E3092"/>
<path d="M44.9839 17.5623H38.9486L34.877 24.2617L37.9524 29.1131L44.9839 17.5623Z" fill="#EE008E"/>
<path fill-rule="evenodd" clip-rule="evenodd" d="M24.8279 8.23499C27.138 7.54194 29.5926 7.32536 32.1193 7.32536C38.5878 7.32536 44.4931 9.62109 48.9691 13.6639C49.0826 13.7641 49.231 13.8157 49.3822 13.8076C49.5335 13.7995 49.6755 13.7324 49.7776 13.6206C49.8295 13.564 49.8695 13.4977 49.8955 13.4255C49.9214 13.3532 49.9327 13.2766 49.9286 13.2C49.9246 13.1234 49.9053 13.0483 49.872 12.9792C49.8386 12.9101 49.7918 12.8484 49.7343 12.7976C46.3771 9.75038 42.2865 7.62686 37.8625 6.63475C33.4385 5.64265 28.8327 5.81593 24.4958 7.13766C24.3668 7.19464 24.2631 7.29682 24.2043 7.42494C24.1455 7.55307 24.1355 7.69829 24.1764 7.83323C24.2172 7.96818 24.306 8.08352 24.426 8.15753C24.546 8.23153 24.6889 8.25908 24.8279 8.23499ZM51.2215 15.7575C51.568 15.7575 51.8568 15.4687 51.8568 15.1077C51.8568 14.7468 51.568 14.458 51.2215 14.458C50.8605 14.458 50.5718 14.7468 50.5718 15.1077C50.5718 15.4687 50.8605 15.7575 51.2215 15.7575ZM51.2215 16.4072C51.929 16.4072 52.521 15.8297 52.521 15.1077C52.521 14.3858 51.929 13.8083 51.2215 13.8083C50.4996 13.8083 49.922 14.3858 49.922 15.1077C49.922 15.8297 50.4996 16.4072 51.2215 16.4072ZM9.85511 19.627C10.1439 19.7714 10.2449 20.1179 10.0861 20.3922C8.1893 24.0366 7.22683 28.0949 7.28505 32.2029C7.28505 37.8628 9.01767 43.0896 12.1942 47.2912C12.2531 47.4121 12.268 47.5498 12.2363 47.6805C12.2045 47.8112 12.1282 47.9268 12.0204 48.0072C11.9126 48.0876 11.78 48.1279 11.6457 48.1211C11.5114 48.1143 11.3836 48.0608 11.2845 47.9698C7.84859 43.4322 5.99257 37.8946 6.00002 32.2029C6.00002 27.727 7.11179 23.5398 9.08987 19.858C9.16301 19.7282 9.28347 19.6318 9.42606 19.5887C9.56866 19.5457 9.72238 19.5594 9.85511 19.627ZM54.8167 43.7682C55.0766 43.9126 55.1632 44.2736 55.0188 44.5479C51.8524 50.3344 46.5778 54.6781 40.2915 56.6763C40.2214 56.6959 40.148 56.7013 40.0757 56.6923C40.0034 56.6832 39.9337 56.6599 39.8705 56.6236C39.8073 56.5873 39.752 56.5388 39.7078 56.4809C39.6636 56.423 39.6313 56.3569 39.6129 56.2864C39.5712 56.1447 39.5853 55.9924 39.6525 55.8608C39.7196 55.7292 39.8346 55.6283 39.9739 55.5789C45.9813 53.6656 51.0221 49.514 54.0514 43.9848C54.1958 43.7105 54.5424 43.6094 54.8167 43.7682ZM20.1209 10.0254C20.1811 10.0056 20.2362 9.97295 20.2824 9.9296C20.3286 9.88625 20.3648 9.83329 20.3883 9.77446C20.4118 9.71562 20.4221 9.65235 20.4185 9.5891C20.4149 9.52585 20.3974 9.46417 20.3674 9.40839C20.3374 9.3526 20.2955 9.30409 20.2447 9.26627C20.1938 9.22844 20.1353 9.20223 20.0733 9.18947C20.0112 9.17671 19.9471 9.17771 19.8855 9.19242C19.8239 9.20712 19.7662 9.23516 19.7166 9.27456C19.0236 9.64997 18.345 10.0542 17.6952 10.4874C17.6385 10.513 17.588 10.5504 17.5471 10.5973C17.5061 10.6441 17.4758 10.6992 17.458 10.7588C17.4403 10.8185 17.4356 10.8812 17.4443 10.9428C17.453 11.0044 17.4749 11.0634 17.5084 11.1158C17.5419 11.1682 17.5864 11.2127 17.6386 11.2464C17.6909 11.2801 17.7499 11.3021 17.8114 11.311C17.873 11.3199 17.9357 11.3154 17.9954 11.2979C18.0551 11.2803 18.1103 11.2501 18.1573 11.2093C18.7926 10.7762 19.4567 10.3863 20.1209 10.0254ZM16.3091 12.5377C16.3649 12.5074 16.4133 12.4652 16.4509 12.4142C16.4886 12.3631 16.5146 12.3044 16.527 12.2422C16.5395 12.18 16.5382 12.1158 16.5231 12.0542C16.508 11.9926 16.4796 11.935 16.4399 11.8856C16.4001 11.8361 16.35 11.7961 16.293 11.7681C16.236 11.7402 16.1736 11.7251 16.1102 11.724C16.0468 11.7228 15.9839 11.7356 15.9259 11.7615C15.868 11.7873 15.8164 11.8255 15.7749 11.8735C15.1685 12.3644 14.5765 12.8842 14.0134 13.4473C13.9583 13.5299 13.9332 13.6289 13.9424 13.7277C13.9516 13.8266 13.9944 13.9193 14.0638 13.9903C14.1331 14.0613 14.2247 14.1064 14.3233 14.1179C14.4219 14.1295 14.5215 14.1068 14.6054 14.0537C15.154 13.5195 15.7316 13.0141 16.3091 12.5377ZM13.0316 15.7141C13.0806 15.6264 13.0976 15.5243 13.0796 15.4254C13.0615 15.3264 13.0097 15.2369 12.9329 15.172C12.8561 15.1071 12.7591 15.071 12.6585 15.0698C12.558 15.0686 12.4602 15.1025 12.3819 15.1655C11.714 15.9419 11.0921 16.7566 10.5193 17.6056C10.4842 17.6529 10.4591 17.7068 10.4455 17.7642C10.432 17.8215 10.4302 17.881 10.4405 17.939C10.4507 17.997 10.4726 18.0523 10.505 18.1015C10.5373 18.1508 10.5793 18.1929 10.6285 18.2253C10.6776 18.2578 10.7329 18.2799 10.7909 18.2902C10.8488 18.3006 10.9083 18.299 10.9657 18.2856C11.023 18.2722 11.077 18.2472 11.1244 18.2122C11.1718 18.1772 11.2115 18.1329 11.2412 18.0821C11.7912 17.2585 12.3891 16.4678 13.0316 15.7141ZM15.3417 50.7853C15.2554 50.7258 15.1504 50.6995 15.0462 50.7115C14.9421 50.7235 14.8458 50.7729 14.7752 50.8505C14.7047 50.9281 14.6647 51.0286 14.6626 51.1335C14.6606 51.2383 14.6967 51.3404 14.7642 51.4206C15.5084 52.0803 16.2893 52.6974 17.1033 53.2688C17.291 53.4131 17.5653 53.3698 17.6952 53.1677C17.7538 53.0763 17.776 52.9662 17.7573 52.8592C17.7385 52.7523 17.6803 52.6562 17.5942 52.5901C16.8097 52.0266 16.0577 51.4192 15.3417 50.7709V50.7853ZM19.8754 54.0051C19.8259 53.9688 19.7693 53.9435 19.7092 53.9307C19.6491 53.918 19.587 53.9182 19.527 53.9312C19.467 53.9443 19.4105 53.97 19.3612 54.0066C19.3119 54.0432 19.2709 54.0898 19.241 54.1435C19.2111 54.1971 19.193 54.2565 19.1877 54.3177C19.1825 54.3788 19.1904 54.4404 19.2108 54.4983C19.2312 54.5563 19.2636 54.6092 19.3061 54.6536C19.3485 54.698 19.3998 54.7329 19.4567 54.7559C20.2797 55.2035 21.1172 55.6222 21.969 55.9688C22.0664 55.9879 22.1675 55.9729 22.2552 55.9264C22.3429 55.88 22.412 55.8048 22.4509 55.7134C22.4898 55.6221 22.4961 55.5202 22.4689 55.4247C22.4416 55.3293 22.3824 55.2461 22.3011 55.1891C21.4781 54.8426 20.6696 54.4527 19.8754 54.0051ZM24.8423 56.0987C24.7386 56.0822 24.6324 56.1039 24.5435 56.1598C24.4545 56.2157 24.389 56.302 24.359 56.4027C24.3289 56.5033 24.3365 56.6114 24.3803 56.7069C24.424 56.8024 24.501 56.8787 24.5968 56.9217C25.492 57.1816 26.3872 57.3982 27.2969 57.5714C27.3561 57.5942 27.4196 57.6037 27.4828 57.5992C27.5461 57.5948 27.6076 57.5764 27.6631 57.5456C27.7185 57.5147 27.7665 57.4721 27.8036 57.4206C27.8407 57.3692 27.8661 57.3102 27.8779 57.2479C27.8897 57.1855 27.8877 57.1214 27.872 57.0599C27.8563 56.9984 27.8273 56.9412 27.787 56.8922C27.7467 56.8431 27.6962 56.8036 27.6389 56.7762C27.5817 56.7489 27.5191 56.7345 27.4557 56.734C26.5894 56.5752 25.7086 56.3586 24.8423 56.0987ZM30.1268 57.0805C30.0641 57.0599 29.9975 57.0538 29.9322 57.0628C29.8668 57.0717 29.8043 57.0955 29.7495 57.1324C29.6947 57.1692 29.6491 57.218 29.6161 57.2751C29.583 57.3323 29.5635 57.3962 29.559 57.4621C29.5544 57.5279 29.565 57.5939 29.5899 57.6551C29.6147 57.7162 29.6532 57.7709 29.7025 57.8148C29.7517 57.8588 29.8103 57.891 29.8738 57.9089C29.9373 57.9267 30.0041 57.9298 30.069 57.918C30.5311 57.9613 30.9931 57.9757 31.4551 57.9902C31.5171 58.0036 31.5813 58.0033 31.6432 57.9892C31.705 57.9751 31.7631 57.9476 31.8131 57.9086C31.8632 57.8696 31.904 57.8201 31.9329 57.7636C31.9617 57.7071 31.9777 57.6449 31.9799 57.5815C31.982 57.5181 31.9702 57.455 31.9453 57.3967C31.9204 57.3383 31.8829 57.2862 31.8356 57.2439C31.7883 57.2016 31.7323 57.1702 31.6716 57.152C31.6108 57.1337 31.5468 57.1291 31.484 57.1383C31.0364 57.1383 30.5744 57.1094 30.1268 57.0805Z" fill="url(#paint0_linear_317_66)"/>
<defs>
<linearGradient id="paint0_linear_317_66" x1="18.2728" y1="9.26012" x2="45.6338" y2="55.8966" gradientUnits="userSpaceOnUse">
<stop stop-color="#2B3E9B"/>
<stop offset="1" stop-color="#D4078F"/>
</linearGradient>
</defs>
</svg>
