<svg width="64" height="64" viewBox="0 0 64 64" fill="none" xmlns="http://www.w3.org/2000/svg">
<path d="M31.6014 0.00061521C25.2898 0.0792573 19.1424 2.02282 13.9327 5.58668C8.72301 9.15055 4.68367 14.1756 2.32275 20.0296C-0.0381711 25.8836 -0.61513 32.305 0.664426 38.4862C1.94398 44.6673 5.02281 50.3319 9.51377 54.7674C14.0047 59.203 19.7071 62.2113 25.9035 63.4139C32.0999 64.6164 38.5137 63.9595 44.3377 61.5258C50.1617 59.0922 55.1359 54.9904 58.6345 49.7366C62.1332 44.4828 63.9999 38.3116 64 31.9995C63.9464 23.4598 60.503 15.2911 54.4272 9.2903C48.3513 3.28946 40.1408 -0.0521366 31.6014 0.00061521Z" fill="#00EDBE"/>
<path d="M44.4047 20.1668C44.318 18.5667 44.7083 16.9769 45.5262 15.5989H19.4093C19.1753 15.598 18.9434 15.6433 18.7268 15.7321C18.5102 15.8209 18.3133 15.9515 18.1472 16.1164C17.9811 16.2813 17.8491 16.4773 17.7587 16.6933C17.6684 16.9092 17.6214 17.1408 17.6206 17.3749V22.9576C17.6214 23.1917 17.6684 23.4233 17.7587 23.6392C17.8491 23.8552 17.9811 24.0512 18.1472 24.2161C18.3133 24.381 18.5102 24.5116 18.7268 24.6004C18.9434 24.6892 19.1753 24.7345 19.4093 24.7336H45.5262C44.7083 23.3556 44.318 21.7658 44.4047 20.1657" fill="#141BEB"/>
<path d="M13.5505 32.0889C13.6357 33.6891 13.2439 35.2785 12.4248 36.6557H38.5416C38.7757 36.6566 39.0076 36.6113 39.2242 36.5225C39.4407 36.4337 39.6377 36.3031 39.8038 36.1382C39.9699 35.9733 40.1019 35.7773 40.1922 35.5614C40.2826 35.3454 40.3295 35.1138 40.3303 34.8798V29.297C40.3295 29.0629 40.2826 28.8313 40.1922 28.6154C40.1019 28.3995 39.9699 28.2034 39.8038 28.0385C39.6377 27.8736 39.4407 27.743 39.2242 27.6542C39.0076 27.5654 38.7757 27.5202 38.5416 27.521H12.4248C13.2426 28.899 13.6329 30.4888 13.5462 32.0889" fill="#141BEB"/>
<path d="M44.4047 44.0105C44.318 42.4105 44.7083 40.8206 45.5262 39.4426H19.4093C19.1753 39.4418 18.9434 39.4871 18.7268 39.5759C18.5102 39.6647 18.3133 39.7952 18.1472 39.9602C17.9811 40.1251 17.8491 40.3211 17.7587 40.537C17.6684 40.753 17.6214 40.9845 17.6206 41.2186V46.8014C17.6214 47.0354 17.6684 47.2671 17.7587 47.483C17.8491 47.6989 17.9811 47.8949 18.1472 48.0598C18.3133 48.2248 18.5102 48.3554 18.7268 48.4442C18.9434 48.5329 19.1753 48.5782 19.4093 48.5774H45.5262C44.7083 47.1994 44.318 45.6096 44.4047 44.0095" fill="#141BEB"/>
</svg>
