<svg width="64" height="64" viewBox="0 0 64 64" fill="none" xmlns="http://www.w3.org/2000/svg">
<path d="M43.3724 19.1183H29.7998C17.4295 19.1183 15.9937 28.6998 18.6541 28.6998H64C63.8311 27.0511 63.5326 25.4444 63.1273 23.8768C63.1273 23.762 62.17 20.5374 61.5422 19.1183H43.3724Z" fill="#6DFECC"/>
<path d="M63.1132 40.4674C63.1216 40.3528 63.8339 36.9461 64 35.2974H18.657C15.9965 35.2974 17.4294 44.8789 29.8027 44.8789H50.6668C46.5395 50.7656 39.7322 54.4157 32.1844 54.4157C19.7521 54.4157 9.63669 44.3583 9.63669 31.9972C9.63669 19.6362 19.7492 9.58155 32.1844 9.58155C35.2587 9.58155 38.2767 10.2085 41.0581 11.3925H56.7111C53.955 8.12876 50.557 5.41918 46.7113 3.45417C46.6635 3.42897 46.6156 3.40658 46.5677 3.38139C46.3312 3.26382 46.0947 3.14626 45.8582 3.03429C41.6071 1.05248 36.9451 0 32.1844 0C14.4368 0 0 14.3541 0 32C0 49.6459 14.4368 64 32.1844 64C36.061 64 39.8307 63.3226 43.3724 62.0154C43.5019 61.9678 43.6341 61.9174 43.7636 61.8671C43.8425 61.8363 43.9213 61.8027 44.0001 61.7718C53.2906 58.0658 60.4443 50.1889 63.1132 40.4674Z" fill="#6DFECC"/>
</svg>
