<svg width="64" height="64" viewBox="0 0 64 64" fill="none" xmlns="http://www.w3.org/2000/svg">
<g clip-path="url(#clip0_494_11213)">
<mask id="mask0_494_11213" style="mask-type:luminance" maskUnits="userSpaceOnUse" x="0" y="0" width="64" height="64">
<path d="M64 0H0V64H64V0Z" fill="white"/>
</mask>
<g mask="url(#mask0_494_11213)">
<path d="M32 64C49.6731 64 64 49.6731 64 32C64 14.3269 49.6731 0 32 0C14.3269 0 0 14.3269 0 32C0 49.6731 14.3269 64 32 64Z" fill="#6DFECC"/>
</g>
<path d="M41.2734 21.4298H29.6094C18.9787 21.4298 17.7448 29.6639 20.0311 29.6639H59.0002C58.8551 28.2471 58.5985 26.8663 58.2502 25.5191C58.2502 25.4205 57.4276 22.6493 56.888 21.4298H41.2734Z" fill="white"/>
<path d="M58.2379 39.7767C58.2451 39.6782 58.8573 36.7506 59 35.3337H20.0334C17.747 35.3337 18.9784 43.5678 29.6117 43.5678H47.5418C43.9949 48.6267 38.1449 51.7635 31.6585 51.7635C20.9745 51.7635 12.2815 43.1204 12.2815 32.4976C12.2815 21.8749 20.972 13.2341 31.6585 13.2341C34.3004 13.2341 36.894 13.7729 39.2843 14.7904H52.7361C50.3676 11.9857 47.4474 9.65711 44.1425 7.96843C44.1014 7.94677 44.0603 7.92753 44.0191 7.90588C43.8159 7.80485 43.6126 7.70382 43.4094 7.60759C39.7561 5.90448 35.7497 5 31.6585 5C16.4066 5 4 17.3356 4 32.5C4 47.6644 16.4066 60 31.6585 60C34.9899 60 38.2295 59.4179 41.2732 58.2945C41.3844 58.2536 41.4981 58.2103 41.6093 58.167C41.6771 58.1406 41.7449 58.1117 41.8126 58.0851C49.7966 54.9003 55.9443 48.1311 58.2379 39.7767Z" fill="white"/>
</g>
<defs>
<clipPath id="clip0_494_11213">
<rect width="64" height="64" fill="white"/>
</clipPath>
</defs>
</svg>
