<svg width="64" height="64" viewBox="0 0 64 64" fill="none" xmlns="http://www.w3.org/2000/svg">
<path d="M32.0001 64C38.3321 64 44.5217 62.1215 49.7856 58.6021C55.0495 55.0828 59.1509 50.081 61.5709 44.2297C63.9908 38.3783 64.6204 31.9406 63.38 25.7313C62.1396 19.522 59.0849 13.8203 54.6026 9.34783C50.1203 4.87535 44.4119 1.83318 38.1999 0.606374C31.988 -0.620436 25.5516 0.0232661 19.7056 2.45601C13.8596 4.88875 8.86676 9.00116 5.35899 14.2727C1.85121 19.5443 -0.0137746 25.7381 7.65974e-05 32.07C0.0241544 40.5431 3.40553 48.6612 9.40349 54.6461C15.4014 60.6309 23.527 63.9945 32.0001 64Z" fill="#F5F5F5"/>
<path d="M42.6615 19.9234H29.9372C18.34 19.9234 16.994 28.9061 19.4881 28.9061H61.9999C61.8415 27.3604 61.5617 25.8541 61.1817 24.3845C61.1817 24.2769 60.2843 21.2538 59.6957 19.9234H42.6615Z" fill="#6DFECC"/>
<path d="M61.1686 39.9382C61.1765 39.8307 61.8443 36.637 62 35.0913H19.4909C16.9967 35.0913 18.3401 44.074 29.94 44.074H49.5001C45.6308 49.5927 39.2489 53.0147 32.1729 53.0147C20.5176 53.0147 11.0344 43.5859 11.0344 31.9974C11.0344 20.4089 20.5149 10.9827 32.1729 10.9827C35.055 10.9827 37.8844 11.5705 40.492 12.6805H55.1667C52.5828 9.62071 49.3972 7.08048 45.7918 5.23828C45.747 5.21466 45.7021 5.19367 45.6572 5.17005C45.4355 5.05983 45.2138 4.94962 44.9921 4.84465C41.0067 2.9867 36.636 2 32.1729 2C15.5345 2 2 15.457 2 32C2 48.543 15.5345 62 32.1729 62C35.8072 62 39.3413 61.3649 42.6616 60.1394C42.783 60.0948 42.907 60.0476 43.0284 60.0004C43.1023 59.9715 43.1762 59.94 43.2501 59.9111C51.9599 56.4367 58.6665 49.0521 61.1686 39.9382Z" fill="#6DFECC"/>
</svg>
