<svg width="64" height="64" viewBox="0 0 64 64" fill="none" xmlns="http://www.w3.org/2000/svg">
<g clip-path="url(#clip0_40_30072)">
<path d="M32 64C49.6731 64 64 49.6731 64 32C64 14.3269 49.6731 0 32 0C14.3269 0 0 14.3269 0 32C0 49.6731 14.3269 64 32 64Z" fill="#2B5EBA"/>
<path d="M40.781 38.3249C44.2781 38.3249 47.113 35.49 47.113 31.9929C47.113 28.4958 44.2781 25.6609 40.781 25.6609C37.284 25.6609 34.449 28.4958 34.449 31.9929C34.449 35.49 37.284 38.3249 40.781 38.3249Z" fill="white"/>
<path d="M32.779 23.284C34.4651 23.284 35.832 21.9171 35.832 20.231C35.832 18.5449 34.4651 17.178 32.779 17.178C31.0929 17.178 29.726 18.5449 29.726 20.231C29.726 21.9171 31.0929 23.284 32.779 23.284Z" fill="white"/>
<path d="M32.779 46.8221C34.4651 46.8221 35.832 45.4552 35.832 43.7691C35.832 42.0829 34.4651 40.7161 32.779 40.7161C31.0929 40.7161 29.726 42.0829 29.726 43.7691C29.726 45.4552 31.0929 46.8221 32.779 46.8221Z" fill="white"/>
<path d="M31.381 36.5649C31.5656 36.6252 31.7588 36.6556 31.953 36.6549C32.2839 36.6539 32.6089 36.5669 32.8961 36.4026C33.1833 36.2382 33.4229 36.002 33.5913 35.7172C33.7598 35.4324 33.8513 35.1087 33.8571 34.7778C33.8628 34.447 33.7824 34.1203 33.6239 33.8298C33.4653 33.5394 33.2341 33.2951 32.9527 33.1209C32.6714 32.9467 32.3496 32.8486 32.0189 32.8362C31.6882 32.8238 31.36 32.8975 31.0664 33.0502C30.7728 33.2028 30.5239 33.4291 30.344 33.7069V33.7219C30.2845 33.7987 30.2388 33.8853 30.209 33.9779C28.102 37.6909 23.876 35.2109 23.876 35.2109C23.2677 34.8506 22.5845 34.6354 21.8795 34.582C21.1745 34.5286 20.4667 34.6385 19.811 34.903C19.1554 35.1675 18.5695 35.5796 18.0989 36.1073C17.6284 36.635 17.2858 37.264 17.0977 37.9455C16.9097 38.6271 16.8813 39.3428 17.0148 40.0371C17.1482 40.7314 17.4399 41.3856 17.8672 41.9489C18.2945 42.5122 18.8458 42.9694 19.4785 43.2851C20.1111 43.6007 20.808 43.7662 21.515 43.7689C22.3565 43.7707 23.1822 43.5404 23.9011 43.1032C24.6201 42.666 25.2045 42.0388 25.59 41.2909V41.2759C25.7247 41.0158 25.8355 40.744 25.921 40.4639C28.121 35.4249 31.381 36.5649 31.381 36.5649ZM30.298 29.8109C30.3911 29.9816 30.5075 30.1384 30.644 30.2769C30.8767 30.5101 31.1661 30.6788 31.4837 30.7665C31.8013 30.8541 32.1363 30.8576 32.4557 30.7767C32.7751 30.6958 33.0679 30.5332 33.3055 30.305C33.5431 30.0767 33.7172 29.7905 33.8108 29.4746C33.9044 29.1587 33.9142 28.8239 33.8393 28.503C33.7644 28.1822 33.6074 27.8863 33.3836 27.6445C33.1598 27.4026 32.877 27.2232 32.5629 27.1236C32.2488 27.0241 31.9142 27.008 31.592 27.0769H31.577C31.4779 27.093 31.3815 27.1233 31.291 27.1669C27.17 28.3099 25.937 23.5569 25.937 23.5569C25.7129 22.664 25.2256 21.8592 24.5383 21.2468C23.8511 20.6344 22.9956 20.2428 22.0829 20.1227C21.1703 20.0027 20.2426 20.1597 19.4203 20.5735C18.5981 20.9873 17.9192 21.6387 17.4718 22.4432C17.0244 23.2477 16.8292 24.1681 16.9115 25.085C16.9938 26.0018 17.3498 26.8727 17.9333 27.5847C18.5168 28.2966 19.3009 28.8167 20.1837 29.0775C21.0665 29.3382 22.0073 29.3276 22.884 29.0469H22.899C23.1775 28.9508 23.4488 28.8352 23.711 28.7009C28.809 26.6829 30.298 29.8109 30.298 29.8109Z" fill="white"/>
</g>
<defs>
<clipPath id="clip0_40_30072">
<rect width="64" height="64" fill="white"/>
</clipPath>
</defs>
</svg>
