<svg width="64" height="64" viewBox="0 0 64 64" fill="none" xmlns="http://www.w3.org/2000/svg">
<g clip-path="url(#clip0_40_30080)">
<path d="M32 64C49.6731 64 64 49.6731 64 32C64 14.3269 49.6731 0 32 0C14.3269 0 0 14.3269 0 32C0 49.6731 14.3269 64 32 64Z" fill="#005F9B"/>
<path d="M15.515 39.699C15.515 30.936 22.944 23.8311 32.115 23.8311C41.286 23.8311 48.7061 30.931 48.7061 39.699C48.7061 48.467 41.277 55.566 32.115 55.566C22.953 55.566 15.515 48.461 15.515 39.699Z" fill="#DC1620"/>
<path d="M17.5099 39.714C17.4787 39.5727 17.4921 39.4253 17.5481 39.2919C17.6042 39.1585 17.7001 39.0458 17.8228 38.9692C17.9455 38.8926 18.089 38.8559 18.2334 38.8642C18.3779 38.8724 18.5161 38.9252 18.6293 39.0152C18.7425 39.1053 18.825 39.2282 18.8655 39.3671C18.906 39.506 18.9025 39.654 18.8554 39.7908C18.8083 39.9276 18.7201 40.0464 18.6027 40.131C18.4853 40.2155 18.3446 40.2616 18.2 40.263C18.0361 40.2797 17.8721 40.2316 17.7432 40.129C17.6143 40.0264 17.5305 39.8774 17.5099 39.714Z" fill="#FAC600"/>
<path d="M45.0631 39.714C45.0318 39.5726 45.0452 39.425 45.1014 39.2915C45.1576 39.158 45.2537 39.0452 45.3766 38.9687C45.4996 38.8922 45.6433 38.8557 45.7879 38.8643C45.9325 38.8728 46.0708 38.926 46.1839 39.0165C46.297 39.107 46.3792 39.2303 46.4193 39.3695C46.4593 39.5087 46.4551 39.6568 46.4074 39.7936C46.3597 39.9303 46.2708 40.0489 46.1529 40.133C46.035 40.2171 45.8938 40.2625 45.749 40.263C45.5855 40.2794 45.4222 40.2311 45.294 40.1285C45.1658 40.0259 45.0829 39.877 45.0631 39.714Z" fill="#FAC600"/>
<path d="M21.6221 32.7671L20.969 32.9011C21.0269 33.0068 21.0541 33.1265 21.0475 33.2468C21.041 33.3671 21.001 33.4833 20.932 33.5821C20.698 33.9371 20.2081 33.8341 19.8381 33.6321C19.4681 33.4301 19.13 33.0661 19.298 32.6791C19.3387 32.5701 19.4079 32.4741 19.4983 32.4009C19.5887 32.3278 19.697 32.2802 19.8121 32.2631L19.621 31.6631C19.4274 31.7013 19.2455 31.784 19.0893 31.9046C18.9331 32.0252 18.8071 32.1805 18.7211 32.3581C18.5819 32.7134 18.5833 33.1084 18.725 33.4626C18.8668 33.8169 19.1382 34.1039 19.484 34.2651C19.8027 34.4791 20.1921 34.5605 20.5697 34.4922C20.9474 34.4239 21.2837 34.2111 21.5071 33.899C21.6115 33.7317 21.676 33.5427 21.696 33.3464C21.7159 33.1502 21.6907 32.952 21.6221 32.7671Z" fill="#FAC600"/>
<path d="M22.636 29.9812C22.8016 30.1089 22.9102 30.2967 22.9381 30.504C22.966 30.7112 22.911 30.9212 22.785 31.0881L22.585 31.2971L21.4 30.1461L21.6 29.9401C21.7453 29.8119 21.9344 29.7445 22.1281 29.7519C22.3217 29.7594 22.505 29.8411 22.64 29.9801M23.145 29.4571C22.8701 29.1989 22.5061 29.0569 22.129 29.0606C21.7519 29.0643 21.3907 29.2136 21.121 29.4771L20.421 30.2011L22.5701 32.2721L23.264 31.5512C23.3944 31.4062 23.4946 31.2369 23.5592 31.053C23.6238 30.8691 23.6513 30.6742 23.6401 30.4796C23.629 30.285 23.5794 30.0946 23.4943 29.9193C23.4091 29.7439 23.2901 29.5872 23.144 29.4581" fill="#FAC600"/>
<path d="M39.5419 30.367L41.124 27.834L40.524 27.453L39.624 28.89L39.652 26.914L39.046 26.532L37.465 29.061L38.075 29.441L38.9689 28.009L38.941 29.985L39.5419 30.367Z" fill="#FAC600"/>
<path d="M35.978 27.4119L35.46 27.2809L35.932 26.491L35.978 27.4119ZM36.778 28.754L36.447 25.6619L35.8571 25.5129L34.1121 28.088L34.7679 28.4189L35.093 27.8779L36.009 28.1089L36.0439 28.736L36.778 28.754Z" fill="#FAC600"/>
<path d="M32.947 26.1501C32.947 26.4051 32.676 26.5502 32.425 26.5502H32.309V25.7441H32.425C32.676 25.7441 32.947 25.8942 32.947 26.1442M33.671 26.1442C33.645 25.8381 33.4998 25.5545 33.2667 25.3544C33.0337 25.1543 32.7315 25.0536 32.425 25.0741H31.594V28.0591H32.309V27.2131H32.425C32.7316 27.2347 33.0342 27.1346 33.2675 26.9345C33.5007 26.7344 33.6457 26.4504 33.671 26.1442Z" fill="#FAC600"/>
<path d="M30.449 27.2721C30.362 26.8281 30.0101 26.6311 29.5731 26.5091L29.3641 26.4531C29.1441 26.3921 28.964 26.3601 28.975 26.1821C28.9754 26.1284 28.9934 26.0763 29.0265 26.0339C29.0597 25.9916 29.1059 25.9614 29.158 25.9482C29.2314 25.9182 29.3114 25.9084 29.3898 25.9198C29.4683 25.9313 29.5423 25.9635 29.6041 26.0132L29.924 25.4521C29.7959 25.3591 29.648 25.2967 29.492 25.2699C29.336 25.243 29.1759 25.2524 29.024 25.2972C28.7941 25.3456 28.5902 25.4774 28.4517 25.6672C28.3132 25.857 28.2499 26.0914 28.274 26.3251C28.366 26.8101 28.7941 26.9681 29.2661 27.1101L29.4421 27.1661C29.5891 27.2141 29.724 27.2661 29.751 27.4161C29.763 27.4883 29.7487 27.5624 29.7108 27.625C29.6728 27.6875 29.6136 27.7344 29.544 27.7571C29.4503 27.7963 29.3456 27.8003 29.2492 27.7685C29.1528 27.7368 29.071 27.6713 29.019 27.5841L28.675 28.1681C28.812 28.2865 28.9755 28.3703 29.1515 28.4126C29.3276 28.4548 29.5112 28.4543 29.6871 28.4111C29.9376 28.3578 30.1575 28.2091 30.3005 27.9966C30.4434 27.784 30.4981 27.5243 30.4531 27.2721" fill="#FAC600"/>
<path d="M27.754 28.774L27.485 28.1691L26.509 28.6011L26.275 28.0831L27.0751 27.7321L26.806 27.124L26.006 27.4761L25.835 27.0941L26.766 26.6801L26.493 26.071L24.91 26.78L26.127 29.504L27.754 28.774Z" fill="#FAC600"/>
<path d="M43.9969 30.7529L43.688 30.0859L42.302 30.486L42.802 29.129L42.156 28.772L41.5699 30.6719L40.7419 31.4429L41.2419 31.9739L42.066 31.202L43.9969 30.7529Z" fill="#FAC600"/>
<path d="M44.561 33.9009C44.134 34.1469 43.6681 34.2219 43.4531 33.8509C43.2381 33.4799 43.536 33.116 43.966 32.866C44.396 32.616 44.8601 32.5449 45.0731 32.9169C45.2861 33.2889 44.991 33.6499 44.561 33.9009ZM44.9221 34.5279C45.1159 34.362 45.2582 34.1442 45.3327 33.9002C45.4072 33.6562 45.4108 33.396 45.3428 33.1501C45.2748 32.9042 45.1381 32.6827 44.9488 32.5116C44.7596 32.3406 44.5254 32.227 44.2739 32.1841C44.0224 32.1413 43.7639 32.1709 43.5287 32.2696C43.2934 32.3684 43.0912 32.532 42.9455 32.7415C42.7999 32.951 42.7169 33.1976 42.7064 33.4526C42.6959 33.7075 42.7583 33.9602 42.8861 34.181C43.1126 34.4936 43.4526 34.705 43.8332 34.7698C44.2138 34.8347 44.6048 34.7479 44.9221 34.5279Z" fill="#FAC600"/>
<path d="M44.327 37.861L44.9741 37.7L44.7181 36.688L46.967 36.128L46.7961 35.428L43.8961 36.149L44.327 37.861Z" fill="#FAC600"/>
<path d="M19.066 43.6021C18.8697 43.6733 18.6534 43.6649 18.4632 43.5788C18.273 43.4927 18.124 43.3355 18.048 43.1411L17.978 42.86L19.5779 42.4601L19.65 42.7391C19.6819 42.9305 19.639 43.1269 19.5301 43.2875C19.4212 43.4482 19.2556 43.5608 19.066 43.6021ZM19.241 44.3021C19.6049 44.2058 19.9177 43.9731 20.1143 43.6522C20.311 43.3313 20.3763 42.9469 20.2969 42.579L20.053 41.6021L17.159 42.3221L17.402 43.295C17.4552 43.4827 17.5451 43.6579 17.6667 43.8104C17.7883 43.9629 17.939 44.0897 18.11 44.1833C18.2811 44.277 18.4692 44.3356 18.6631 44.3558C18.8571 44.376 19.0532 44.3575 19.2399 44.3011" fill="#FAC600"/>
<path d="M19.3849 47.6901L19.967 47.3671L19.449 46.4321L19.949 46.157L20.371 46.9211L20.952 46.5981L20.532 45.8381L20.899 45.6321L21.3911 46.524L21.9741 46.1981L21.1349 44.686L18.523 46.129L19.3849 47.6901Z" fill="#FAC600"/>
<path d="M23.418 50.4312C23.29 50.5922 23.084 50.5261 22.842 50.3421L22.7551 50.2701L23.101 49.8241L23.1931 49.8941C23.4481 50.0941 23.544 50.2691 23.418 50.4301M24.018 49.4601C23.925 49.5821 23.791 49.5751 23.57 49.4061L23.485 49.3421L23.774 48.9721L23.8531 49.0311C24.0741 49.2071 24.109 49.3481 24.018 49.4601ZM23.945 50.9271C24.0413 50.7969 24.0933 50.6391 24.0933 50.4771C24.0933 50.3151 24.0413 50.1574 23.945 50.0271C24.0781 50.0664 24.22 50.0646 24.352 50.022C24.484 49.9793 24.6001 49.8979 24.685 49.7881C25.007 49.3781 24.709 48.8521 24.261 48.4991L23.623 48.0051L21.787 50.3571L22.482 50.8922C22.965 51.2742 23.6 51.3801 23.95 50.9281" fill="#FAC600"/>
<path d="M26.587 51.927L26.098 51.708L26.6981 51.008L26.587 51.927ZM27.147 53.388L27.3591 50.288L26.805 50.043L24.6401 52.276L25.232 52.71L25.644 52.239L26.508 52.622L26.431 53.246L27.147 53.388Z" fill="#FAC600"/>
<path d="M30.119 52.0311C30.087 52.2381 29.836 52.3171 29.625 52.2851L29.5131 52.2681L29.613 51.6091L29.7271 51.6241C30.0581 51.6781 30.1509 51.8131 30.1169 52.0301M30.854 53.9361L30.21 52.8661C30.3694 52.8118 30.5116 52.7159 30.6215 52.5883C30.7314 52.4606 30.805 52.3058 30.835 52.1401C30.8536 51.8516 30.7587 51.5672 30.5706 51.3477C30.3824 51.1281 30.116 50.9908 29.828 50.9651L29.009 50.8401L28.543 53.7851L29.251 53.8981L29.403 52.9251L29.514 52.9411L30.176 54.1411L30.854 53.9361Z" fill="#FAC600"/>
<path d="M34.325 53.6891L33.8581 53.2131C33.8023 53.3194 33.7176 53.4077 33.6137 53.4677C33.5098 53.5277 33.3909 53.5569 33.271 53.5521C32.848 53.5521 32.662 53.0771 32.632 52.6571C32.602 52.2371 32.7221 51.7571 33.1401 51.6871C33.2533 51.661 33.3715 51.6666 33.4817 51.7033C33.592 51.74 33.6901 51.8063 33.7651 51.8951L34.1651 51.4061C34.0276 51.2639 33.8585 51.1562 33.6716 51.0915C33.4846 51.0269 33.285 51.0073 33.089 51.0341C32.7166 51.1112 32.3874 51.3268 32.168 51.6374C31.9486 51.948 31.8553 52.3304 31.907 52.7071C31.9 53.09 32.0422 53.4605 32.3035 53.7404C32.5648 54.0204 32.9246 54.1877 33.307 54.2071C33.5044 54.2041 33.6983 54.1556 33.8738 54.0655C34.0493 53.9753 34.2017 53.8458 34.319 53.6871" fill="#FAC600"/>
<path d="M37.534 53.2212L37.342 52.5812L36.32 52.8962L36.152 52.3522L36.986 52.1002L36.7919 51.4632L35.957 51.7202L35.838 51.3202L36.812 51.0202L36.612 50.3872L34.955 50.8872L35.825 53.7442L37.534 53.2212Z" fill="#FAC600"/>
<path d="M41.965 48.665C42.31 49.019 42.495 49.4539 42.187 49.7479C41.879 50.0419 41.454 49.848 41.112 49.491C40.77 49.134 40.578 48.7029 40.884 48.4059C41.19 48.1089 41.618 48.3059 41.965 48.6639M42.488 48.1539C42.2795 48.0057 42.0332 47.9199 41.7777 47.9066C41.5222 47.8933 41.2683 47.953 41.0455 48.0787C40.8227 48.2045 40.6403 48.391 40.5196 48.6166C40.399 48.8422 40.3451 49.0974 40.3642 49.3525C40.3834 49.6076 40.4748 49.8519 40.6277 50.057C40.7806 50.2621 40.9887 50.4194 41.2278 50.5105C41.4668 50.6016 41.7269 50.6227 41.9775 50.5715C42.2281 50.5202 42.459 50.3986 42.6431 50.2209C42.894 49.9252 43.0184 49.5425 42.9894 49.1556C42.9604 48.7688 42.7803 48.409 42.488 48.1539Z" fill="#FAC600"/>
<path d="M40.681 51.65L40.358 51.07L39.449 51.577L38.326 49.551L37.694 49.898L39.1481 52.506L40.681 51.65Z" fill="#FAC600"/>
<path d="M45.755 42.546L45.642 43.073L44.834 42.624M47.0709 41.7L43.988 42.1349L43.8619 42.727L46.4969 44.3799L46.797 43.714L46.2469 43.414L46.447 42.489L47.075 42.434L47.0709 41.7Z" fill="#FAC600"/>
<path d="M45.9451 45.7079L43.334 44.262L42.989 44.89L44.468 45.7079L42.495 45.783L42.144 46.4089L44.755 47.853L45.103 47.2289L43.6211 46.41L45.599 46.334L45.9451 45.7079Z" fill="#FAC600"/>
<path d="M18.271 35.957C18.48 36.003 18.5419 36.257 18.4969 36.468L18.47 36.576L17.822 36.429L17.8459 36.317C17.9199 35.993 18.066 35.909 18.271 35.957ZM20.228 35.357L19.119 35.922C19.076 35.7587 18.9899 35.6101 18.8698 35.4915C18.7496 35.3729 18.5998 35.2889 18.436 35.248C18.151 35.2089 17.862 35.2829 17.631 35.4543C17.3999 35.6257 17.2451 35.8809 17.2 36.165L17.011 36.974L19.9189 37.647L20.08 36.947L19.12 36.725L19.1429 36.617L20.387 36.036L20.228 35.357Z" fill="#FAC600"/>
<path d="M21.155 39.6942C21.155 34.0452 26.062 29.4612 32.113 29.4612C38.164 29.4612 43.064 34.0452 43.064 39.6942C43.064 45.3432 38.164 49.9242 32.113 49.9242C26.062 49.9242 21.155 45.3442 21.155 39.6942Z" fill="white"/>
<path d="M39.975 17.5121C39.9419 17.8525 39.8702 18.188 39.761 18.5121C39.754 18.5411 39.739 18.566 39.729 18.595C39.719 18.624 39.704 18.6671 39.697 18.6951C39.677 18.7441 39.669 18.7771 39.655 18.8171C39.641 18.8571 39.6181 18.895 39.6011 18.933C39.5876 18.9804 39.5695 19.0263 39.547 19.0701C39.526 19.1191 39.504 19.164 39.484 19.217C39.464 19.27 39.427 19.3221 39.4 19.3751C39.373 19.4281 39.337 19.4901 39.307 19.5461C39.277 19.6021 39.2351 19.677 39.2001 19.746C39.0877 19.9356 38.9654 20.1192 38.834 20.2961C38.7006 20.436 38.5966 20.6011 38.5279 20.7817C38.4593 20.9624 38.4273 21.1549 38.434 21.3481C38.069 21.3508 37.713 21.4607 37.41 21.6641C37.325 21.7221 37.256 21.8211 37.175 21.8771C37.175 21.8821 37.152 21.8861 37.142 21.8851C37.1405 21.8739 37.1382 21.8629 37.135 21.8521C37.135 21.8521 37.145 21.832 37.142 21.824C37.135 21.768 37.124 21.6901 37.113 21.6321C37.0686 21.4265 36.9666 21.2379 36.819 21.0881C36.7487 21.0155 36.6729 20.9486 36.592 20.8881C36.424 20.7621 36.462 20.8121 36.592 20.6821C36.8092 20.3889 36.9808 20.0645 37.1011 19.72C37.5368 18.8183 37.826 17.8528 37.958 16.86C38.0149 16.4645 38.0219 16.0634 37.979 15.6661C38.1425 15.6227 38.3101 15.5961 38.479 15.587C38.7107 15.5669 38.9438 15.6054 39.1569 15.6989C39.3699 15.7924 39.5559 15.9379 39.698 16.1221C39.7496 16.1809 39.7965 16.2437 39.838 16.3101C39.9719 16.6291 40.0211 16.9774 39.9809 17.321C39.9829 17.3851 39.9813 17.4492 39.9761 17.5131M35.4 18.675C35.3 18.912 35.193 19.1491 35.089 19.3831C34.9442 19.6256 34.8478 19.8938 34.805 20.173C34.8062 20.3182 34.827 20.4625 34.8671 20.6021C34.6484 20.6462 34.4417 20.7371 34.2613 20.8684C34.081 20.9997 33.9312 21.1685 33.822 21.363C33.7451 21.1556 33.6252 20.9669 33.4701 20.8091C33.315 20.6514 33.1281 20.5284 32.922 20.4481C33.0194 20.3037 33.0846 20.14 33.113 19.9681C33.1291 19.7949 33.1331 19.6208 33.125 19.4471V14.8121C33.4564 14.6423 33.8172 14.5374 34.188 14.5031C34.4139 14.4767 34.6427 14.4964 34.8608 14.5609C35.0789 14.6253 35.2817 14.7332 35.457 14.8781C35.633 15.0173 35.7706 15.199 35.857 15.4061C36.23 16.3511 35.691 17.97 35.395 18.678M30.479 21.287C30.467 21.324 30.459 21.3561 30.448 21.4001C30.3941 21.3379 30.3459 21.2709 30.3039 21.2001C30.0673 20.9101 29.7365 20.7123 29.369 20.6411C29.4192 20.4311 29.4257 20.213 29.3882 20.0004C29.3507 19.7878 29.2699 19.5852 29.151 19.4051C29.03 19.1481 28.899 18.881 28.801 18.605C28.227 17.059 27.61 14.7141 29.847 14.5361C30.2873 14.5302 30.7222 14.6333 31.113 14.8361C31.15 15.2111 31.121 15.6461 31.121 16.0361V18.7661C31.0935 19.1925 31.0985 19.6204 31.136 20.0461C31.1691 20.1977 31.2317 20.3414 31.3201 20.4691C31.1313 20.5387 30.959 20.6467 30.8141 20.7863C30.6692 20.9259 30.5547 21.0941 30.478 21.2801M27.655 20.9401C27.5559 21.0128 27.4677 21.0994 27.3931 21.1971C27.2136 21.3999 27.1177 21.6633 27.125 21.9341C26.9126 21.7406 26.6647 21.5901 26.395 21.4911C26.2135 21.4425 26.0287 21.407 25.842 21.3851C25.8544 21.2046 25.8293 21.0235 25.7684 20.8531C25.7075 20.6827 25.6121 20.5268 25.488 20.3951C25.3483 20.2079 25.2187 20.0132 25.1 19.8121C24.9124 19.5019 24.7521 19.176 24.621 18.8381C24.264 18.0379 24.225 17.1319 24.512 16.3041C24.6287 16.1056 24.7941 15.9401 24.9925 15.8232C25.1909 15.7064 25.4158 15.642 25.646 15.636C25.8644 15.6282 26.0826 15.6563 26.292 15.7191C26.2481 16.0938 26.2532 16.4726 26.307 16.8461C26.445 17.8743 26.7418 18.8749 27.187 19.8121C27.2922 20.1239 27.4417 20.4189 27.631 20.688C27.6814 20.7439 27.7349 20.7969 27.791 20.847C27.74 20.877 27.702 20.9071 27.656 20.9391M42.012 16.7151C41.9693 16.3522 41.8751 15.9973 41.732 15.6611C41.615 15.3848 41.4609 15.1257 41.274 14.8911C41.024 14.5484 40.7084 14.2589 40.3454 14.0393C39.9825 13.8197 39.5796 13.6745 39.16 13.6121C38.7283 13.5441 38.2878 13.5549 37.86 13.644C37.765 13.662 37.305 13.8441 37.26 13.8281C37.1941 13.7542 37.1324 13.6768 37.0751 13.5961C36.9259 13.4238 36.7582 13.2685 36.5751 13.1331C35.9194 12.6488 35.1119 12.4157 34.2991 12.4761C34.0101 12.5021 33.758 12.576 33.499 12.613C33.504 12.521 33.515 12.4251 33.519 12.3221V12.274C33.519 12.24 33.5191 12.2041 33.5131 12.1741C33.5113 12.1625 33.5113 12.1506 33.5131 12.139C33.5127 12.1256 33.5111 12.1122 33.508 12.0991C33.508 12.0871 33.5031 12.077 33.5021 12.066C33.4918 12.007 33.4784 11.9486 33.462 11.8911C33.4589 11.8787 33.4544 11.8666 33.449 11.855C33.4335 11.804 33.4135 11.7545 33.389 11.707C33.3803 11.6842 33.3702 11.6618 33.359 11.6401C33.333 11.5951 33.305 11.546 33.275 11.501C33.2649 11.4837 33.2528 11.4677 33.239 11.4531C33.2124 11.4155 33.1836 11.3794 33.1529 11.345C33.1409 11.337 33.136 11.3261 33.123 11.3171C32.9524 11.1372 32.7375 11.0052 32.5 10.9341V10.1401H33.3V9.34009H32.5V8.54004H31.7001V9.34009H30.9V10.1401H31.7001V10.9341L31.677 10.9431C31.564 10.9784 31.4565 11.0289 31.357 11.0931C31.3412 11.0999 31.3261 11.1082 31.312 11.118C31.2484 11.1593 31.1891 11.2069 31.135 11.2601C30.9441 11.4368 30.8057 11.6628 30.735 11.9131C30.6593 12.1521 30.6496 12.407 30.707 12.6511C30.3834 12.5791 30.0542 12.5349 29.723 12.519C28.9477 12.5031 28.1923 12.7657 27.594 13.259C27.375 13.444 27.202 13.6841 26.994 13.8791L26.984 13.8951C26.943 13.9061 26.8561 13.8451 26.8201 13.8311C26.655 13.7697 26.4854 13.7209 26.313 13.6851C26.129 13.6581 25.959 13.6531 25.785 13.6291H25.772C25.5661 13.6156 25.3593 13.6318 25.1579 13.6771C25.0829 13.6921 25.017 13.698 24.946 13.709C24.295 13.8606 23.7026 14.1994 23.2418 14.6836C22.781 15.1678 22.4721 15.7763 22.353 16.4341C22.2948 16.7371 22.2763 17.0463 22.298 17.3541C22.3981 18.5625 22.7774 19.7312 23.406 20.7681C23.6078 21.2425 23.9202 21.6619 24.317 21.9911C24.2457 22.0796 24.1847 22.1759 24.135 22.2781C24.0345 22.5425 24.0282 22.8335 24.1171 23.1021C24.4331 24.0311 25.8881 24.2671 26.7731 23.7391C26.9717 23.6371 27.1387 23.4829 27.2563 23.2932C27.374 23.1035 27.4379 22.8853 27.441 22.662C27.6427 22.8452 27.8787 22.9864 28.1354 23.0776C28.392 23.1688 28.6643 23.2082 28.9363 23.1934C29.2083 23.1786 29.4746 23.11 29.7198 22.9915C29.9651 22.873 30.1844 22.707 30.365 22.5031C30.4348 22.3817 30.4915 22.2534 30.534 22.1201C30.6222 22.2742 30.7334 22.4138 30.864 22.5341C31.234 22.7933 31.6747 22.9324 32.1265 22.9324C32.5782 22.9324 33.0191 22.7933 33.389 22.5341C33.5422 22.253 33.7787 22.0263 34.066 21.8853C34.3533 21.7442 34.6772 21.6956 34.9933 21.7463C35.3093 21.7969 35.602 21.9443 35.8308 22.1682C36.0596 22.392 36.2134 22.6812 36.271 22.996C36.4772 22.8998 36.6672 22.7719 36.834 22.6171C36.834 23.5271 37.804 24.0631 38.76 23.9711C39.1822 23.9342 39.5815 23.7628 39.899 23.4821C40.0638 23.3325 40.1802 23.1373 40.2336 22.9213C40.2871 22.7052 40.275 22.4782 40.199 22.269C40.1392 22.1515 40.0725 22.0376 39.999 21.928C40.2464 21.7552 40.4472 21.5241 40.584 21.2551C41.0065 20.6149 41.3512 19.9268 41.611 19.2051C41.9219 18.4161 42.0616 17.5701 42.021 16.7231" fill="#FAC600"/>
<path d="M25.6499 15.6461C25.4197 15.652 25.1949 15.7164 24.9965 15.8332C24.7981 15.9501 24.6326 16.1156 24.5159 16.3141C24.2295 17.1421 24.2689 18.048 24.626 18.8481C24.7572 19.1858 24.917 19.5117 25.1039 19.8221C25.2234 20.023 25.3533 20.2176 25.4929 20.4051C25.6167 20.5368 25.712 20.6925 25.773 20.8627C25.8339 21.0328 25.8591 21.2138 25.8469 21.3941C26.034 21.4156 26.2191 21.451 26.4009 21.5001C26.6704 21.5994 26.9184 21.7498 27.131 21.9431C27.1233 21.6724 27.2187 21.4089 27.398 21.2061C27.4728 21.1086 27.561 21.0221 27.6599 20.9491C27.7069 20.9171 27.7439 20.8871 27.7959 20.8571C27.7396 20.8068 27.6859 20.7537 27.6349 20.6981C27.4458 20.4288 27.2963 20.1338 27.1909 19.8221C26.7456 18.885 26.4487 17.8844 26.3109 16.8561C26.2566 16.4827 26.2515 16.1038 26.2959 15.7291C26.0866 15.6663 25.8683 15.6382 25.6499 15.6461Z" fill="#DC1620"/>
<path d="M34.192 14.5019C33.8212 14.5361 33.4604 14.641 33.129 14.8109V19.4489C33.1373 19.6223 33.1333 19.7961 33.1169 19.969C33.0889 20.1409 33.0238 20.3047 32.926 20.4489C32.9418 20.6849 33.0419 20.9073 33.208 21.0755C33.3742 21.2437 33.5952 21.3465 33.8309 21.3652C34.0666 21.3839 34.3012 21.3172 34.4918 21.1772C34.6824 21.0373 34.8163 20.8334 34.869 20.6029C34.8292 20.4634 34.8083 20.3191 34.807 20.1739C34.8498 19.8947 34.9461 19.6265 35.0909 19.3839C35.1909 19.1489 35.3 18.9119 35.402 18.6759C35.702 17.9679 36.236 16.3489 35.864 15.4029C35.7773 15.1963 35.6396 15.0151 35.464 14.8759C35.2888 14.7309 35.086 14.623 34.8679 14.5585C34.6498 14.4941 34.4208 14.4745 34.1949 14.5009" fill="#DC1620"/>
<path d="M29.8519 14.5442C27.6159 14.7222 28.2319 17.0662 28.8069 18.6132C28.9069 18.8852 29.036 19.1521 29.157 19.4131C29.2758 19.5933 29.3564 19.796 29.3939 20.0086C29.4314 20.2212 29.4249 20.4392 29.3749 20.6492C29.742 20.7206 30.0725 20.9184 30.309 21.2082C30.3511 21.2789 30.3992 21.3458 30.4529 21.4081C30.4639 21.3641 30.4719 21.3312 30.4839 21.2952C30.5606 21.1092 30.6752 20.9411 30.8201 20.8015C30.965 20.6619 31.1372 20.5539 31.3259 20.4842C31.2379 20.3567 31.1755 20.2134 31.142 20.0622C31.105 19.6365 31.1003 19.2086 31.1279 18.7822V16.0522C31.1279 15.6622 31.157 15.2272 31.12 14.8522C30.7289 14.6492 30.2935 14.5462 29.8529 14.5522" fill="#DC1620"/>
<path d="M38.477 15.5901C38.308 15.5993 38.1405 15.6257 37.977 15.6691C38.0201 16.0668 38.013 16.4682 37.956 16.8641C37.8235 17.8568 37.5343 18.8222 37.099 19.7241C36.9785 20.0685 36.8069 20.3927 36.59 20.6861C36.46 20.8161 36.421 20.7661 36.59 20.8911C36.6705 20.9517 36.7461 21.0186 36.8161 21.0911C36.9637 21.2406 37.0659 21.4289 37.111 21.6341C37.122 21.6921 37.1331 21.7701 37.1401 21.8261C37.1401 21.8341 37.133 21.8581 37.133 21.8581C37.1365 21.8671 37.1389 21.8765 37.1401 21.8861C37.1491 21.8861 37.17 21.8861 37.172 21.8781C37.253 21.8221 37.322 21.7231 37.407 21.6651C37.7103 21.4625 38.0663 21.353 38.4311 21.3501C38.4244 21.1569 38.4564 20.9644 38.5251 20.7838C38.5938 20.6032 38.6977 20.438 38.831 20.2981C38.9625 20.1213 39.0847 19.9377 39.1971 19.7481C39.2331 19.6811 39.268 19.6151 39.304 19.5481C39.34 19.4811 39.366 19.4361 39.397 19.3771C39.428 19.3181 39.454 19.2691 39.48 19.2191C39.506 19.1691 39.523 19.1191 39.544 19.0721C39.5663 19.0286 39.5845 18.983 39.5981 18.9361C39.6151 18.8971 39.6371 18.8621 39.6511 18.8201C39.6651 18.7781 39.674 18.7461 39.693 18.6981C39.7 18.6671 39.715 18.6361 39.725 18.5981C39.735 18.5601 39.75 18.5451 39.757 18.5151C39.8661 18.191 39.9379 17.8555 39.971 17.5151C39.9749 17.4512 39.9749 17.387 39.971 17.3231C40.0111 16.9794 39.9619 16.6312 39.8281 16.3121C39.7863 16.2459 39.7395 16.1831 39.688 16.1241C39.5458 15.9401 39.3597 15.7946 39.1468 15.7012C38.9338 15.6077 38.7008 15.5692 38.469 15.5891" fill="#DC1620"/>
<path d="M43.068 39.6951C43.0667 38.2941 42.7596 36.9102 42.168 35.6401L28.468 49.3401C29.6452 49.7275 30.8767 49.9243 32.116 49.9232C32.7244 49.9225 33.3319 49.8747 33.933 49.7802L43.0131 40.6992C43.0483 40.3647 43.066 40.0285 43.066 39.6921" fill="#0E7BC0"/>
<path d="M37.873 30.9922L23.21 45.6542C24.0713 46.7681 25.1429 47.702 26.364 48.4031L41.021 33.7472C40.1624 32.6314 39.0928 31.6953 37.873 30.9922Z" fill="#0E7BC0"/>
<path d="M32.113 29.4612C31.5103 29.4618 30.9085 29.5085 30.313 29.6011L21.213 38.7082C21.0324 40.4381 21.3262 42.1846 22.063 43.7602L35.775 30.0482C34.5956 29.658 33.3612 29.4598 32.119 29.4612" fill="#0E7BC0"/>
</g>
<defs>
<clipPath id="clip0_40_30080">
<rect width="64" height="64" fill="white"/>
</clipPath>
</defs>
</svg>
