<svg xmlns="http://www.w3.org/2000/svg" xmlns:xlink="http://www.w3.org/1999/xlink" width="64" height="64" viewBox="0 0 64 64"><defs><linearGradient id="a" x1="0.224" y1="0.08" x2="0.881" y2="1.123" gradientUnits="objectBoundingBox"><stop offset="0" stop-color="#fff"/><stop offset="0.117" stop-color="#b0f4f9"/><stop offset="0.439" stop-color="#a95aa2"/><stop offset="0.706" stop-color="#28dbe8"/><stop offset="1" stop-color="#a260a4"/></linearGradient><linearGradient id="b" x1="0.187" y1="0.08" x2="1" y2="1" gradientUnits="objectBoundingBox"><stop offset="0" stop-color="#fff"/><stop offset="0.519" stop-color="#0fbdb7"/><stop offset="1" stop-color="#fff"/></linearGradient></defs><circle cx="32" cy="32" r="32" transform="translate(0 0)" fill="url(#a)"/><g transform="translate(10.291 15.571)"><path d="M58.45,36.345c1.083.135,2.212.226,3.295.406,2.121.406,2.843,1.489,2.482,3.656a1.819,1.819,0,0,1-1.535,1.58,5.853,5.853,0,0,1-1.535.09c-7.041,0-14.037.045-21.078.045a18.667,18.667,0,0,0-3.159.271c-3.475.542-4.829,1.986-5.1,5.506-.135,1.625-.135,1.625,1.535,1.625h28.8a2.553,2.553,0,0,1,1.264.361c1.264.812.948,2.121.9,3.295a1.716,1.716,0,0,1-1.625,1.67,5.752,5.752,0,0,1-1.264.09H32.724c-1.038,0-1.038,0-.948,1.038a15.323,15.323,0,0,0,.361,2.843,4.328,4.328,0,0,0,3.25,3.295,23.074,23.074,0,0,0,5.822.677H61.745a2.346,2.346,0,0,1,2.212.9,2.877,2.877,0,0,1-.948,3.972,1.4,1.4,0,0,1-.587.271,15.752,15.752,0,0,1-4.6.632c-6.454.135-12.863.135-19.272,0a32.512,32.512,0,0,1-5.913-.677c-4.559-.948-6.86-3.295-7.628-7.9-.181-1.038-.271-2.121-.406-3.2V48.4c.09-.812.181-1.67.271-2.482.587-5.19,2.934-7.763,8.034-8.937a45.846,45.846,0,0,1,5.506-.677Z" transform="translate(-23.788 -35.488)" fill="url(#b)"/><path d="M47.172,68.486c-3.25,0-6.454-.045-9.659-.09a30.335,30.335,0,0,1-6.048-.722c-4.92-1.038-7.447-3.656-8.26-8.53a20.449,20.449,0,0,1-.271-2.257c-.045-.316-.09-.632-.135-.993V47.318l.09-.812c.045-.587.135-1.128.181-1.67.632-5.551,3.25-8.395,8.711-9.614a35.442,35.442,0,0,1,4.243-.587l1.354-.135H57.6a7.381,7.381,0,0,0,.993.09,22.412,22.412,0,0,1,2.347.316c2.573.5,3.566,1.941,3.114,4.559A2.632,2.632,0,0,1,61.8,41.721a10.009,10.009,0,0,1-1.67.135c-7,.045-14.037.09-21.032.09a17.121,17.121,0,0,0-3.024.271c-3.114.5-4.152,1.625-4.423,4.784,0,.271-.045.542-.045.767H61.164a3.554,3.554,0,0,1,1.67.451c1.535.993,1.4,2.482,1.309,3.566,0,.135-.045.316-.045.451a2.511,2.511,0,0,1-2.257,2.392,7.528,7.528,0,0,1-1.4.09H31.6V54.9a13.936,13.936,0,0,0,.361,2.753,3.5,3.5,0,0,0,2.663,2.663,21,21,0,0,0,5.642.632c5.326.045,10.742.045,16.023.045H60.8A3.1,3.1,0,0,1,63.691,62.3a3.614,3.614,0,0,1,.451,2.8,3.735,3.735,0,0,1-1.67,2.3,4,4,0,0,1-.767.361,17.271,17.271,0,0,1-4.829.677C53.672,68.441,50.422,68.486,47.172,68.486ZM24.425,55.758a6.733,6.733,0,0,1,.09.948l.271,2.166c.722,4.243,2.753,6.319,7,7.221a31.063,31.063,0,0,0,5.777.677c6.364.135,12.863.135,19.272,0a16.635,16.635,0,0,0,4.333-.587c.135-.045.271-.135.406-.181a2.315,2.315,0,0,0,.948-1.309,1.977,1.977,0,0,0-.271-1.58c-.271-.406-.632-.542-1.489-.542H56.244c-5.236,0-10.7,0-16.023-.045a21.024,21.024,0,0,1-6.048-.722,4.99,4.99,0,0,1-3.791-3.882,13.838,13.838,0,0,1-.361-3.024v-.045c-.045-.632-.09-1.083.271-1.489s.858-.406,1.489-.406H60.487a4.764,4.764,0,0,0,1.128-.09c.722-.135.9-.451.948-.9,0-.181.045-.316.045-.5.09-1.128.09-1.67-.542-2.076a1.689,1.689,0,0,0-.812-.226H32.368c-.993,0-1.58,0-2.031-.451s-.361-1.083-.316-2.031c.316-3.882,1.941-5.642,5.777-6.228a26.279,26.279,0,0,1,3.295-.316c7.041,0,14.037-.045,21.078-.045a7.061,7.061,0,0,0,1.4-.09.961.961,0,0,0,.858-.858c.316-1.805-.135-2.392-1.85-2.753a17.756,17.756,0,0,0-2.166-.271,7.381,7.381,0,0,0-.993-.09H37.469l-1.354.135a30.306,30.306,0,0,0-4.062.542c-4.739,1.173-6.815,3.475-7.357,8.35-.045.542-.135,1.083-.181,1.67l-.09.767v8.26Z" transform="translate(-22.8 -34.5)" fill="url(#b)"/></g></svg>