<svg width="64" height="64" viewBox="0 0 64 64" fill="none" xmlns="http://www.w3.org/2000/svg">
<g clip-path="url(#clip0_40_30118)">
<path d="M32 64C49.6731 64 64 49.6731 64 32C64 14.3269 49.6731 0 32 0C14.3269 0 0 14.3269 0 32C0 49.6731 14.3269 64 32 64Z" fill="url(#paint0_linear_40_30118)"/>
<path d="M44.953 16.428C46.036 16.563 47.165 16.654 48.248 16.834C50.369 17.24 51.091 18.323 50.73 20.49C50.6821 20.885 50.5061 21.2534 50.2288 21.5387C49.9516 21.8241 49.5884 22.0107 49.195 22.07C48.6895 22.1673 48.1734 22.1976 47.66 22.16C40.619 22.16 33.623 22.205 26.582 22.205C25.5232 22.2055 24.4664 22.2962 23.423 22.476C19.948 23.018 18.594 24.462 18.323 27.982C18.188 29.607 18.188 29.607 19.858 29.607H48.658C49.1036 29.6149 49.5394 29.7394 49.922 29.968C51.186 30.78 50.87 32.089 50.822 33.263C50.811 33.6947 50.6376 34.1065 50.3364 34.4161C50.0351 34.7256 49.6283 34.9102 49.197 34.933C48.7802 35.0094 48.3563 35.0396 47.933 35.023H19.227C18.189 35.023 18.189 35.023 18.279 36.061C18.3102 37.0178 18.4311 37.9697 18.64 38.904C18.8143 39.7045 19.2122 40.4391 19.7875 41.0224C20.3629 41.6057 21.0919 42.0137 21.89 42.199C23.794 42.6712 25.7504 42.8987 27.712 42.876H48.248C48.6635 42.8142 49.0879 42.8651 49.477 43.0234C49.8661 43.1818 50.2056 43.4416 50.46 43.776C50.6599 44.0986 50.794 44.4577 50.8546 44.8324C50.9152 45.2071 50.901 45.5901 50.8128 45.9593C50.7247 46.3285 50.5644 46.6767 50.3411 46.9836C50.1179 47.2906 49.8361 47.5504 49.512 47.748C49.3401 47.8829 49.1391 47.9757 48.925 48.019C47.4313 48.4557 45.8811 48.6687 44.325 48.651C37.871 48.786 31.462 48.786 25.053 48.651C23.0654 48.6066 21.0861 48.3799 19.14 47.974C14.581 47.026 12.28 44.679 11.512 40.074C11.331 39.036 11.241 37.953 11.106 36.874V28.483C11.196 27.671 11.287 26.813 11.377 26.001C11.964 20.811 14.311 18.238 19.411 17.064C21.2309 16.7274 23.0696 16.5013 24.917 16.387L44.953 16.428Z" fill="url(#paint1_linear_40_30118)"/>
<path d="M34.663 49.557C31.413 49.557 28.209 49.512 25.004 49.467C22.9689 49.4299 20.9426 49.188 18.956 48.745C14.036 47.707 11.509 45.089 10.696 40.215C10.5639 39.4683 10.4734 38.7148 10.425 37.958C10.38 37.642 10.335 37.326 10.29 36.965V28.389L10.38 27.577C10.425 26.99 10.515 26.449 10.561 25.907C11.193 20.356 13.811 17.512 19.272 16.293C20.6732 16.012 22.0901 15.816 23.515 15.706L24.869 15.571H45.091C45.4196 15.6234 45.7513 15.6535 46.084 15.661C46.8713 15.7249 47.6548 15.8304 48.431 15.977C51.004 16.477 51.997 17.918 51.545 20.536C51.4679 21.1069 51.2057 21.6368 50.7986 22.0443C50.3914 22.4518 49.8618 22.7145 49.291 22.792C48.7391 22.8836 48.1804 22.9288 47.621 22.927C40.621 22.972 33.584 23.017 26.589 23.017C25.5749 23.0176 24.563 23.1083 23.565 23.288C20.451 23.788 19.413 24.913 19.142 28.072C19.142 28.343 19.097 28.614 19.097 28.839H48.655C49.2403 28.8495 49.814 29.0045 50.325 29.29C51.86 30.283 51.725 31.772 51.634 32.856C51.634 32.991 51.589 33.172 51.589 33.307C51.5634 33.9106 51.3211 34.4846 50.9066 34.924C50.492 35.3633 49.933 35.6385 49.332 35.699C48.8691 35.7726 48.4004 35.8027 47.932 35.789H19.091V35.971C19.1194 36.8984 19.2403 37.8207 19.452 38.724C19.5958 39.3756 19.923 39.9724 20.3948 40.4442C20.8666 40.9161 21.4634 41.2432 22.115 41.387C23.9584 41.8521 25.8564 42.0647 27.757 42.019C33.083 42.064 38.499 42.064 43.78 42.064H48.291C48.8459 42.0013 49.4075 42.0896 49.9164 42.3197C50.4252 42.5497 50.8625 42.913 51.182 43.371C51.4421 43.7832 51.6161 44.2438 51.6936 44.725C51.7711 45.2061 51.7505 45.698 51.633 46.171C51.4012 47.1278 50.801 47.9544 49.963 48.471C49.7208 48.6182 49.4637 48.7392 49.196 48.832C47.6264 49.285 46.0006 49.5129 44.367 49.509C41.163 49.512 37.913 49.557 34.663 49.557ZM11.916 36.829C11.9683 37.1425 11.9984 37.4593 12.006 37.777L12.277 39.943C12.999 44.186 15.03 46.262 19.277 47.164C21.1772 47.5699 23.1114 47.7966 25.054 47.841C31.418 47.976 37.917 47.976 44.326 47.841C45.7898 47.8369 47.2468 47.6395 48.659 47.254C48.794 47.209 48.93 47.119 49.065 47.073C49.528 46.7648 49.8645 46.3001 50.013 45.764C50.0806 45.4964 50.0915 45.2175 50.0448 44.9453C49.9981 44.6732 49.895 44.4139 49.742 44.184C49.471 43.778 49.11 43.642 48.253 43.642H43.735C38.499 43.642 33.035 43.642 27.712 43.597C25.6716 43.6512 23.6342 43.408 21.664 42.875C20.7249 42.6627 19.8674 42.1832 19.1947 41.4944C18.5221 40.8055 18.063 39.9369 17.873 38.993C17.6418 38.0014 17.5207 36.9873 17.512 35.969V35.924C17.467 35.292 17.422 34.841 17.783 34.435C18.144 34.029 18.641 34.029 19.272 34.029H47.978C48.3562 34.044 48.7349 34.0138 49.106 33.939C49.828 33.804 50.006 33.488 50.054 33.039C50.054 32.858 50.099 32.723 50.099 32.539C50.189 31.411 50.189 30.869 49.557 30.463C49.3098 30.3203 49.0304 30.2425 48.745 30.237H19.859C18.866 30.237 18.279 30.237 17.828 29.786C17.377 29.335 17.467 28.703 17.512 27.755C17.828 23.873 19.453 22.113 23.289 21.527C24.3796 21.3526 25.4801 21.247 26.584 21.211C33.625 21.211 40.621 21.166 47.662 21.166C48.1305 21.1826 48.5995 21.1524 49.062 21.076C49.2818 21.0535 49.4872 20.9559 49.6435 20.7996C49.7998 20.6433 49.8974 20.4379 49.92 20.218C50.236 18.413 49.785 17.826 48.07 17.465C47.3542 17.3304 46.6309 17.2399 45.904 17.194C45.5754 17.1417 45.2436 17.1116 44.911 17.104H24.96L23.606 17.239C22.2413 17.3279 20.8842 17.5089 19.544 17.781C14.805 18.954 12.729 21.256 12.187 26.131C12.142 26.673 12.052 27.214 12.006 27.801L11.916 28.568V36.829Z" fill="url(#paint2_linear_40_30118)"/>
</g>
<defs>
<linearGradient id="paint0_linear_40_30118" x1="14.336" y1="5.12" x2="56.384" y2="71.872" gradientUnits="userSpaceOnUse">
<stop stop-color="white"/>
<stop offset="0.117" stop-color="#B0F4F9"/>
<stop offset="0.439" stop-color="#A95AA2"/>
<stop offset="0.706" stop-color="#28DBE8"/>
<stop offset="1" stop-color="#A260A4"/>
</linearGradient>
<linearGradient id="paint1_linear_40_30118" x1="18.5459" y1="18.9762" x2="43.6787" y2="53.9375" gradientUnits="userSpaceOnUse">
<stop stop-color="white"/>
<stop offset="0.519" stop-color="#0FBDB7"/>
<stop offset="1" stop-color="white"/>
</linearGradient>
<linearGradient id="paint2_linear_40_30118" x1="18.0411" y1="18.2899" x2="44.4982" y2="54.804" gradientUnits="userSpaceOnUse">
<stop stop-color="white"/>
<stop offset="0.519" stop-color="#0FBDB7"/>
<stop offset="1" stop-color="white"/>
</linearGradient>
<clipPath id="clip0_40_30118">
<rect width="64" height="64" fill="white"/>
</clipPath>
</defs>
</svg>
