<svg width="64" height="64" viewBox="0 0 64 64" fill="none" xmlns="http://www.w3.org/2000/svg">
<g clip-path="url(#clip0_40_30123)">
<path d="M32 64C49.6731 64 64 49.6731 64 32C64 14.3269 49.6731 0 32 0C14.3269 0 0 14.3269 0 32C0 49.6731 14.3269 64 32 64Z" fill="black"/>
<path d="M32 10.28L21.835 24.268L17.578 44.945L32 53.72L46.422 44.945L42.078 24.18L32 10.28ZM19.924 43.99L23.138 28.264L30.438 50.419L19.924 43.99ZM24.178 24.702L32 13.929L39.819 24.702L32 48.334L24.178 24.702ZM33.478 50.419L40.778 28.264L43.99 43.99L33.478 50.419Z" fill="white"/>
</g>
<defs>
<clipPath id="clip0_40_30123">
<rect width="64" height="64" fill="white"/>
</clipPath>
</defs>
</svg>
