<svg width="64" height="64" viewBox="0 0 64 64" fill="none" xmlns="http://www.w3.org/2000/svg">
<g clip-path="url(#clip0_40_30128)">
<path fill-rule="evenodd" clip-rule="evenodd" d="M32 64C38.329 64 44.5159 62.1232 49.7782 58.607C55.0406 55.0908 59.1421 50.0931 61.5641 44.2459C63.9861 38.3986 64.6199 31.9645 63.3851 25.7571C62.1504 19.5497 59.1027 13.8479 54.6274 9.3726C50.1521 4.89732 44.4503 1.84961 38.2429 0.614885C32.0355 -0.619842 25.6014 0.013865 19.7541 2.43587C13.9069 4.85787 8.90918 8.95939 5.39297 14.2218C1.87677 19.4841 0 25.671 0 32C0 40.4869 3.37142 48.6263 9.37258 54.6274C15.3737 60.6286 23.5131 64 32 64Z" fill="black"/>
<path fill-rule="evenodd" clip-rule="evenodd" d="M32 1.36108C38.0602 1.36108 43.9844 3.15815 49.0233 6.52502C54.0621 9.8919 57.9894 14.6774 60.3086 20.2763C62.6277 25.8752 63.2345 32.0361 62.0522 37.9799C60.87 43.9236 57.9517 49.3833 53.6664 53.6685C49.3812 57.9537 43.9216 60.872 37.9778 62.0543C32.034 63.2366 25.8731 62.6298 20.2742 60.3107C14.6753 57.9915 9.88983 54.0642 6.52295 49.0253C3.15607 43.9864 1.35901 38.0623 1.35901 32.0021C1.35901 23.8756 4.58726 16.0819 10.3336 10.3356C16.0799 4.58933 23.8735 1.36108 32 1.36108Z" fill="#FFED00"/>
<path fill-rule="evenodd" clip-rule="evenodd" d="M32.438 6.89444C38.7424 7.00985 45.0281 7.61694 51.238 8.71035L51.511 8.4003C51.652 8.5163 51.787 8.63335 51.926 8.75235L51.639 9.09121C52.314 11.5742 52.5508 14.1558 52.339 16.7201C52.1156 19.1609 51.6065 21.567 50.822 23.8891C52.481 23.6701 54.122 23.3893 55.755 23.0683C57.498 22.7333 59.222 22.3253 60.908 21.8393C60.969 22.0093 61.028 22.1824 61.085 22.3534C59.354 22.8624 57.6241 23.2723 55.8571 23.6073C54.1981 23.9483 52.5011 24.2072 50.8051 24.4462C52.3831 29.1612 52.063 33.8132 51.564 38.4862C53.8388 38.9606 56.0808 39.5808 58.276 40.3432C59.253 40.6642 60.212 40.9822 61.176 41.2602L61.017 41.7831C60.057 41.5031 59.075 41.1832 58.105 40.8642C55.9806 40.1242 53.8121 39.5178 51.6121 39.0482C51.8999 41.3148 52.0602 43.5957 52.092 45.8803C52.1378 48.2296 51.951 50.5775 51.5341 52.89L52.5341 53.89C52.6831 54.032 52.8341 54.1733 52.9771 54.3163C52.8441 54.4413 52.711 54.5663 52.577 54.6903C52.435 54.5503 52.296 54.4104 52.155 54.2714C51.816 53.9504 51.476 53.6094 51.136 53.2714C44.9678 54.3705 38.7231 54.9853 32.459 55.1103V54.5702C38.6757 54.4356 44.8728 53.8215 50.995 52.7333C51.4033 50.4725 51.5901 48.1773 51.553 45.8803C51.516 43.5624 51.349 41.2483 51.053 38.9491C50.853 38.9101 50.633 38.888 50.433 38.849C44.4614 39.4691 38.4595 39.7499 32.4561 39.6894V39.1503H32.4771C38.467 39.2 44.4551 38.9189 50.4141 38.309H50.495C50.675 38.33 50.855 38.371 51.035 38.392C51.535 33.737 51.856 29.1022 50.235 24.4872C44.3467 23.6621 38.4067 23.2629 32.4611 23.2924V22.7343C38.4152 22.7157 44.3632 23.1164 50.261 23.934C51.0544 21.5848 51.571 19.151 51.8 16.682C52.018 14.1856 51.7949 11.6705 51.141 9.25137C44.9708 8.1725 38.7267 7.57042 32.464 7.45108V6.89346L32.438 6.89444ZM11.924 55.121C11.784 55 11.649 54.8772 11.512 54.7572C11.812 54.4682 12.1011 54.1834 12.4041 53.8954C12.7241 53.5734 13.0621 53.2374 13.4041 52.8954C12.9777 50.5845 12.791 48.2354 12.847 45.8861C12.8814 43.6227 13.0346 41.3625 13.306 39.1151C11.806 39.4941 10.269 39.9711 8.77197 40.4311C6.89972 41.0815 4.98743 41.6102 3.047 42.0141C2.98633 41.8401 2.92733 41.6658 2.87 41.4911C4.81291 41.0779 6.73021 40.5523 8.61206 39.9164C10.1901 39.4354 11.769 38.916 13.366 38.558C12.866 33.864 12.544 29.191 14.125 24.476C13.746 24.415 13.366 24.3763 12.967 24.3163C9.56237 23.9506 6.18489 23.3648 2.85596 22.5624C2.91396 22.3844 2.97296 22.2075 3.03296 22.0321C6.32845 22.8323 9.67309 23.4151 13.045 23.7763C13.405 23.8173 13.745 23.8764 14.105 23.9164C13.319 21.5879 12.8095 19.175 12.587 16.7274C12.3751 14.1628 12.6119 11.5804 13.287 9.09707L12.62 8.3041L13.032 7.97207L13.704 8.73623C19.7518 7.4211 25.9306 6.80482 32.119 6.89932H32.439V7.45742H32.119C25.9636 7.35338 19.8169 7.96332 13.802 9.2753C13.1515 11.6876 12.9284 14.1948 13.1429 16.684C13.3729 19.1525 13.8894 21.5863 14.682 23.9355C20.5706 23.1707 26.501 22.7716 32.439 22.7411V23.2992C26.5066 23.3111 20.5814 23.7101 14.701 24.494C13.083 29.13 13.401 33.7634 13.901 38.4164C14.081 38.3774 14.261 38.3553 14.441 38.3163L14.48 38.2963L14.52 38.3163C20.512 38.8163 26.486 39.1162 32.438 39.1562V39.6962C26.464 39.6752 20.474 39.3553 14.501 38.8563C14.301 38.8963 14.0811 38.937 13.8831 38.996C13.587 41.2824 13.4201 43.5838 13.3831 45.8891C13.3474 48.1983 13.5342 50.5058 13.941 52.7792C19.9101 54.0818 26.0104 54.6856 32.119 54.579H32.439V55.1181H32.119C25.9564 55.2369 19.8014 54.6271 13.782 53.3012C13.442 53.6402 13.123 53.9602 12.782 54.2792C12.502 54.5582 12.224 54.8374 11.925 55.1264L11.924 55.121Z" fill="black"/>
<path fill-rule="evenodd" clip-rule="evenodd" d="M24.6508 6.27295C17.1328 11.2209 11.7242 17.744 10.1982 30.084H6.87201V35.2988H10.4482C12.6882 44.5878 18.477 53.477 27.788 57.689C28.626 56.331 29.464 54.9717 30.288 53.5947C20.662 47.4947 16.388 41.3889 15.726 35.2949H26.9921V30.0811H15.2919C16.1489 22.0521 20.7232 15.5598 27.6142 10.4038L24.6581 6.27002L24.6508 6.27295Z" fill="#E31E24"/>
<path fill-rule="evenodd" clip-rule="evenodd" d="M43.6817 5.59399C40.209 9.88866 36.7339 14.1834 33.2559 18.478C28.9629 24.89 30.7434 32.6 39.1504 33.501C45.9594 34.159 51.8368 34.3009 47.7598 39.4529C42.8848 44.4859 39.1505 48.022 34.2715 53.053C35.4515 54.372 36.613 55.7091 37.793 57.0271C42.4297 52.2331 47.0702 47.433 51.7149 42.627C56.3479 37.194 56.547 31.9609 48.836 29.7429C44.441 28.3429 37.1716 28.8039 36.4356 25.8879C35.8186 24.4689 37.073 21.8559 39.709 18.8979C42.369 15.6219 45.0252 12.3671 47.6602 9.09106C46.3422 7.91106 45.0256 6.75406 43.6836 5.59106L43.6817 5.59399Z" fill="black"/>
<path fill-rule="evenodd" clip-rule="evenodd" d="M33.4997 45.0237V44.5061H33.5153C33.5654 44.5098 33.6163 44.4999 33.6618 44.4788C33.7073 44.4576 33.7457 44.4257 33.7751 44.385C33.8186 44.3365 33.8536 44.2807 33.8747 44.219C33.8958 44.1573 33.9028 44.0907 33.8981 44.0256C33.9063 43.8877 33.8623 43.7519 33.7751 43.6448C33.7421 43.603 33.7015 43.5692 33.654 43.5452C33.6065 43.5212 33.5548 43.5079 33.5016 43.5061V43.0256C33.5789 43.0074 33.6588 43.0011 33.738 43.0061C33.8606 43.0061 33.9804 43.0308 34.0934 43.0784C34.2064 43.1259 34.3085 43.1958 34.3942 43.2834C34.485 43.3796 34.5562 43.4931 34.6013 43.6174C34.6463 43.7418 34.666 43.8741 34.6579 44.0061C34.6603 44.1869 34.618 44.365 34.5349 44.5256C34.4411 44.68 34.3127 44.8103 34.1599 44.9065C33.9642 44.9892 33.753 45.0293 33.5407 45.0237H33.5036H33.4997ZM33.4997 42.4846V41.967C33.6896 41.9624 33.8781 41.996 34.0544 42.0667C34.1868 42.1046 34.3049 42.1805 34.3942 42.2854C34.4911 42.4014 34.5607 42.5387 34.5954 42.6858L33.7946 42.7854C33.7927 42.739 33.7819 42.6943 33.7614 42.6526C33.7409 42.6109 33.711 42.5731 33.6755 42.5432C33.627 42.5026 33.5646 42.4831 33.5016 42.4885L33.4997 42.4846ZM35.3141 42.0295H37.2516V42.6897H35.9294L35.8708 43.1233C35.9568 43.0883 36.0425 43.0575 36.1325 43.0295C36.216 43.0057 36.3017 42.9914 36.3884 42.9866C36.5217 42.9811 36.6546 43.0046 36.779 43.053C36.9034 43.1013 37.0183 43.1737 37.113 43.2678C37.2032 43.3516 37.2739 43.4533 37.322 43.5667C37.37 43.68 37.3928 43.8029 37.3903 43.926C37.3929 44.1215 37.3447 44.3138 37.2497 44.4846C37.1505 44.6482 37.0129 44.7858 36.8493 44.885C36.6366 44.9841 36.4042 45.032 36.1696 45.0256C36.0013 45.0291 35.8332 45.0109 35.6696 44.9709C35.552 44.9288 35.4389 44.875 35.3317 44.8108C35.2354 44.7378 35.1531 44.648 35.0895 44.5452C35.0171 44.4445 34.9622 44.3322 34.9274 44.2131L35.7731 44.1272C35.7862 44.2399 35.8373 44.346 35.9157 44.428C35.9884 44.4892 36.0804 44.5223 36.1755 44.5217C36.2298 44.5235 36.2833 44.5112 36.3317 44.4866C36.3802 44.4619 36.4223 44.4241 36.4528 44.3792C36.4973 44.3281 36.5297 44.2698 36.5505 44.2053C36.5713 44.1409 36.5802 44.0716 36.5739 44.0042C36.5801 43.9355 36.5712 43.8668 36.5505 43.801C36.5297 43.7353 36.4974 43.674 36.4528 43.6213C36.3715 43.5459 36.263 43.507 36.152 43.51C36.0742 43.5077 35.9977 43.5278 35.9313 43.5686C35.859 43.5963 35.7971 43.6451 35.7536 43.7092L35.0524 43.6096L35.3102 42.0315L35.3141 42.0295ZM33.4997 41.969V42.4866C33.4342 42.4832 33.3703 42.5003 33.3161 42.5374C33.2619 42.5744 33.2216 42.6294 33.2009 42.6917C33.1099 42.8842 33.067 43.0961 33.0759 43.3088C33.1556 43.2115 33.2577 43.1344 33.3747 43.0881C33.4137 43.0681 33.4528 43.0495 33.4958 43.0295V43.5061C33.4411 43.5043 33.3866 43.517 33.3376 43.5413C33.2886 43.5655 33.2463 43.6022 33.2145 43.6467C33.1267 43.7458 33.0818 43.874 33.0895 44.0061C33.0842 44.0714 33.0934 44.1376 33.1149 44.1995C33.1365 44.2613 33.1698 44.3177 33.2145 44.3655C33.2449 44.4116 33.2863 44.4501 33.3356 44.4749C33.385 44.4996 33.4407 44.5094 33.4958 44.5061V45.0237C33.2597 45.0232 33.027 44.9696 32.8141 44.8674C32.6285 44.7511 32.4812 44.5824 32.3903 44.3831C32.2785 44.1054 32.2264 43.8072 32.238 43.5081C32.2033 43.0941 32.3222 42.6817 32.572 42.3499C32.6925 42.2263 32.8362 42.1286 32.9958 42.0627C33.1553 41.9969 33.3271 41.9645 33.4997 41.967V41.969ZM30.6599 45.0237V44.5237C30.7246 44.5262 30.7876 44.5069 30.8415 44.4709C30.8954 44.435 30.9381 44.3832 30.9606 44.3225C31.0415 44.1276 31.0827 43.9183 31.0817 43.7073C30.9916 43.793 30.89 43.8683 30.7809 43.928C30.7399 43.949 30.7048 43.949 30.6618 43.969V43.4885C30.7139 43.4898 30.7661 43.4794 30.8141 43.4592C30.8622 43.4391 30.9055 43.4094 30.9411 43.3713C31.025 43.2618 31.0679 43.1264 31.0622 42.9885C31.0705 42.8576 31.027 42.7283 30.9411 42.6292C30.9089 42.5853 30.8665 42.5505 30.8181 42.5256C30.7696 42.5008 30.7162 42.4872 30.6618 42.4866V41.967C30.8915 41.9683 31.1178 42.024 31.322 42.1292C31.5112 42.2429 31.6624 42.4103 31.7575 42.6096C31.8726 42.8872 31.9273 43.1862 31.9177 43.4866C31.9503 43.9009 31.8302 44.3131 31.5798 44.6448C31.4631 44.7704 31.3203 44.8684 31.1618 44.9338C31.0034 44.9993 30.8331 45.0304 30.6618 45.0237H30.6599ZM28.6208 41.969V44.969H27.8044V43.0061C27.6807 43.1007 27.548 43.1808 27.4059 43.2444C27.2624 43.3295 27.1089 43.3978 26.9489 43.4456V42.7717C27.176 42.6984 27.3905 42.5908 27.5856 42.4534C27.7438 42.325 27.8651 42.158 27.9411 41.969H28.6208ZM30.6599 41.969V42.4866H30.6403C30.5907 42.4844 30.5407 42.4928 30.4958 42.5139C30.4509 42.535 30.4125 42.5681 30.3825 42.6077C30.3379 42.6559 30.3025 42.7116 30.2809 42.7737C30.2594 42.8358 30.2523 42.9035 30.2575 42.969C30.2512 43.0369 30.2578 43.1053 30.279 43.1702C30.3001 43.235 30.3354 43.2948 30.3806 43.3459C30.4109 43.3916 30.4528 43.4267 30.5016 43.4514C30.5505 43.4761 30.6051 43.4892 30.6599 43.4866V43.969C30.5818 43.9864 30.5014 43.9926 30.4216 43.9885C30.2979 43.9927 30.1742 43.9703 30.0602 43.9221C29.9463 43.8739 29.8446 43.8009 29.7614 43.7092C29.6699 43.6174 29.5968 43.5072 29.5485 43.387C29.5002 43.2667 29.4775 43.1396 29.4802 43.01C29.4834 42.8209 29.53 42.6331 29.6169 42.4651C29.7075 42.3126 29.8387 42.1899 29.9958 42.1077C30.1903 42.0146 30.4032 41.9648 30.6188 41.9651L30.6599 41.969ZM30.6599 44.5237V45.0237H30.6403C30.4579 45.0232 30.2763 44.9968 30.1013 44.9456C29.9718 44.8911 29.8555 44.8097 29.7595 44.7073C29.6598 44.5932 29.5898 44.4551 29.5583 44.3069L30.3591 44.2073C30.368 44.3002 30.4112 44.3866 30.4802 44.4495C30.5285 44.496 30.5927 44.5215 30.6599 44.5217V44.5237Z" fill="black"/>
<path fill-rule="evenodd" clip-rule="evenodd" d="M30.3228 49.8391L30.6235 50.7336H31.5415L30.7837 51.2805L31.0825 52.175L30.3267 51.6243L29.5649 52.175L29.8657 51.2805L29.1021 50.7336H30.0435L30.3228 49.8391Z" fill="#E31E24"/>
<path fill-rule="evenodd" clip-rule="evenodd" d="M33.8928 49.8391L34.1935 50.7336H35.1349L34.3713 51.2805L34.6525 52.175L33.8947 51.6243L33.1525 52.175L33.4318 51.2805L32.676 50.7336H33.6135L33.8928 49.8391Z" fill="black"/>
<path fill-rule="evenodd" clip-rule="evenodd" d="M32.1198 47.3608L32.4206 48.2554H33.3425L32.5807 48.7983L32.8796 49.6987L32.1218 49.1421L31.36 49.6987L31.6608 48.7983L30.8991 48.2554H31.8405L32.1198 47.3608Z" fill="#009846"/>
</g>
<defs>
<clipPath id="clip0_40_30128">
<rect width="64" height="64" fill="white"/>
</clipPath>
</defs>
</svg>
