<svg width="64" height="64" viewBox="0 0 64 64" fill="none" xmlns="http://www.w3.org/2000/svg">
<path d="M32 63.9993C49.6731 63.9993 64 49.6724 64 31.9993C64 14.3262 49.6731 -0.000732422 32 -0.000732422C14.3269 -0.000732422 0 14.3262 0 31.9993C0 49.6724 14.3269 63.9993 32 63.9993Z" fill="#F5F5F5"/>
<path fill-rule="evenodd" clip-rule="evenodd" d="M53.9556 20.9905C53.4408 37.4828 46.8306 50.1053 32.3978 58.177L32.049 58.3763L31.6836 58.2102C25.6381 55.5362 20.6722 50.9191 17.1014 45.4051C12.2849 38.0309 10.0427 29.2616 9.46145 20.5255L9.41162 19.6619L53.9889 20.1601L53.9556 20.9905Z" fill="white"/>
<path fill-rule="evenodd" clip-rule="evenodd" d="M53.142 20.9575L10.2588 20.4758C11.6207 41.0538 21.6522 52.9122 31.9993 57.4796C44.6384 50.4044 52.5939 39.0441 53.142 20.9575Z" fill="#2500C1"/>
<path fill-rule="evenodd" clip-rule="evenodd" d="M49.3052 24.5448L14.2612 24.1462C15.1249 30.8063 17.1345 37.3666 20.805 43.0135C23.5786 47.2985 27.3321 51.0022 31.8496 53.3938C42.7282 46.7006 48.1094 37.0344 49.3052 24.5448Z" fill="#1C1C30"/>
<path d="M55.4338 30.4409C54.8027 29.0292 52.0623 26.6375 49.953 26.023C47.8603 25.4085 46.1662 25.8902 44.7213 25.8071C43.4757 25.7241 42.3961 25.3421 42.0805 24.9103C42.0307 24.8438 41.9975 24.7774 41.9809 24.7109C41.6155 22.9172 40.3865 20.2599 40.0543 19.745C39.9214 19.5457 39.8384 19.3464 39.6889 19.1637C39.473 18.8814 39.1574 18.6488 38.5097 18.4994C37.4302 18.2668 36.9651 18.5824 36.9651 18.5824C36.9651 18.5824 36.0683 18.1506 34.6565 18.0675C33.2448 18.0011 31.8497 18.5824 31.8497 18.5824C31.8497 18.5824 30.4712 18.0011 29.0429 18.0675C27.6311 18.134 26.7343 18.5824 26.7343 18.5824C26.7343 18.5824 26.2692 18.2668 25.1897 18.4994C24.5254 18.6488 24.2264 18.8814 24.0105 19.1637C23.8776 19.3464 23.778 19.5457 23.6451 19.745C23.3295 20.2599 22.0839 22.9172 21.7185 24.7109C21.7019 24.7774 21.6687 24.8438 21.6189 24.9103C21.2867 25.3255 20.2237 25.7241 18.9781 25.8071C17.5332 25.9068 15.8557 25.4251 13.7464 26.023C11.6538 26.6375 8.89675 29.0458 8.26562 30.4409C8.26562 30.4409 10.5908 31.8028 12.7499 32.0187L11.7036 32.683C11.7036 32.683 13.763 33.2477 15.9554 32.8657L16.5533 32.3675L17.4501 32.6166C17.4501 32.6166 20.3732 31.5204 20.8715 30.8063C20.8715 30.8063 21.0043 31.2381 20.9877 31.9523C20.9711 32.683 20.7718 33.1149 20.9379 34.211C21.104 35.2906 21.9843 35.9715 22.7649 36.6192C23.5455 37.267 23.2465 38.2801 23.5621 39.3929C23.861 40.5056 24.6582 41.3195 24.6582 41.3195C24.6582 41.3195 24.6582 42.4987 24.6416 42.864C24.6084 43.2294 23.8776 44.0931 24.8077 45.5878C24.8077 45.5878 24.4257 45.9864 24.6084 46.601C24.7911 47.2155 25.4886 48.1456 26.618 47.7968C26.618 47.7968 26.8173 48.4445 27.5979 48.4279C27.5979 48.4279 28.2955 49.2085 28.7273 49.6071C29.1591 50.0057 29.5909 50.1552 30.1722 50.0721C30.7535 49.9725 30.9695 49.8894 31.8663 49.8894C32.7466 49.8894 32.9791 49.9891 33.5604 50.0721C34.1417 50.1718 34.5735 50.0223 35.0053 49.6071C35.4371 49.2085 36.1347 48.4279 36.1347 48.4279C36.8987 48.4445 37.1146 47.7968 37.1146 47.7968C38.2606 48.1289 38.9415 47.1989 39.1242 46.601C39.3069 45.9864 38.9249 45.5878 38.9249 45.5878C39.855 44.0931 39.1076 43.2294 39.091 42.864C39.0578 42.4987 39.0744 41.3195 39.0744 41.3195C39.0744 41.3195 39.8716 40.5056 40.1706 39.3929C40.4695 38.2801 40.1872 37.2836 40.9678 36.6192C41.7484 35.9715 42.6286 35.2906 42.7947 34.211C42.9608 33.1315 42.7449 32.683 42.7449 31.9523C42.7283 31.2215 42.8611 30.8063 42.8611 30.8063C43.3594 31.537 46.2825 32.6166 46.2825 32.6166L47.1794 32.3675L47.7773 32.8657C49.9696 33.2477 52.029 32.683 52.029 32.683L50.9827 32.0187C53.1086 31.8028 55.4338 30.4409 55.4338 30.4409Z" fill="#E2BC00"/>
<path d="M38.6926 29.5606L36.9819 31.0387L37.6463 31.4373C37.6463 31.4373 38.4933 31.4041 38.8089 31.1716C39.1244 30.9391 39.5729 30.2913 39.5729 30.2913L39.7057 29.5273L38.6926 29.5606Z" fill="#EEC400"/>
<path d="M51.099 23.3988C48.2423 24.3289 46.0168 24.8438 42.0806 24.9102C42.0308 24.8438 41.9975 24.7773 41.9809 24.7109C41.6155 22.9172 40.3865 20.2598 40.0544 19.745C39.9215 19.5457 39.8384 19.3464 39.689 19.1637C42.8944 19.6121 43.4923 19.5291 45.4521 19.363C47.4285 19.1803 50.0195 18.2502 50.2021 17.4862C50.4014 16.7222 48.4416 15.4766 47.4285 12.869C46.4154 10.2615 48.4084 8.60066 48.7406 8.43457C48.7406 8.43457 49.0063 11.258 50.1523 12.5203C51.2983 13.7825 53.4906 15.1278 54.2712 17.536C55.0684 19.9609 53.856 22.4854 51.099 23.3988Z" fill="#C2AC8B"/>
<path d="M46.9969 19.6453C46.9969 19.6453 44.8544 20.0439 43.7749 20.1601C42.6953 20.2764 42.0144 20.4591 41.9313 20.6086C41.8483 20.758 42.5126 20.9573 43.4261 20.9407C44.3396 20.9241 45.6018 20.8245 46.8474 20.4259C48.0931 20.0439 48.6412 19.8778 48.6412 19.8778C48.6412 19.8778 46.5651 20.0937 45.7347 20.2266L46.9969 19.6453Z" fill="#F2DBBD"/>
<path d="M42.9444 22.1864C42.9444 22.1864 45.6018 21.8708 46.8474 21.4556C47.2294 21.3228 47.7609 21.4058 47.9104 21.4556C48.0599 21.5055 50.3518 21.2397 51.1823 20.2764C51.1823 20.2764 50.2522 20.8743 49.455 20.9076C49.455 20.9076 50.5844 20.4757 51.0494 19.828C51.5144 19.1637 51.4978 18.3665 51.4978 18.3665C51.4978 18.3665 51.1657 19.3297 50.5345 19.7782C50.5345 19.7782 50.8833 19.2135 50.9497 18.7817C50.9497 18.7817 50.3851 19.8778 48.8405 20.509C47.2959 21.1401 44.7382 21.6882 44.7382 21.6882L43.4095 21.7712L42.6787 22.0369L42.9444 22.1864Z" fill="#F2DBBD"/>
<path d="M45.668 21.8375C45.668 21.8375 46.1662 21.7711 46.6645 21.987C47.1627 22.2029 47.6278 22.5019 47.7606 22.5849C47.8935 22.6679 48.6741 23.1828 48.6741 23.1828L47.8437 23.1164L47.279 22.6513L46.1496 21.9704C46.1496 21.9704 45.9005 21.8375 45.668 21.8375Z" fill="#F2DBBD"/>
<path d="M46.9969 19.6453C46.9969 19.6453 44.8544 20.0439 43.7749 20.1601C42.6953 20.2764 42.0144 20.4591 41.9313 20.6086C41.8483 20.758 42.5126 20.9573 43.4261 20.9407C44.3396 20.9241 45.6018 20.8245 46.8474 20.4259C48.0931 20.0439 48.6412 19.8778 48.6412 19.8778C48.6412 19.8778 46.5651 20.0937 45.7347 20.2266L46.9969 19.6453Z" fill="#F2DBBD"/>
<path d="M42.9444 22.1864C42.9444 22.1864 45.6018 21.8708 46.8474 21.4556C47.2294 21.3228 47.7609 21.4058 47.9104 21.4556C48.0599 21.5055 50.3518 21.2397 51.1823 20.2764C51.1823 20.2764 50.2522 20.8743 49.455 20.9076C49.455 20.9076 50.5844 20.4757 51.0494 19.828C51.5144 19.1637 51.4978 18.3665 51.4978 18.3665C51.4978 18.3665 51.1657 19.3297 50.5345 19.7782C50.5345 19.7782 50.8833 19.2135 50.9497 18.7817C50.9497 18.7817 50.3851 19.8778 48.8405 20.509C47.2959 21.1401 44.7382 21.6882 44.7382 21.6882L43.4095 21.7712L42.6787 22.0369L42.9444 22.1864Z" fill="#F2DBBD"/>
<path d="M45.668 21.8375C45.668 21.8375 46.1662 21.7711 46.6645 21.987C47.1627 22.2029 47.6278 22.5019 47.7606 22.5849C47.8935 22.6679 48.6741 23.1828 48.6741 23.1828L47.8437 23.1164L47.279 22.6513L46.1496 21.9704C46.1496 21.9704 45.9005 21.8375 45.668 21.8375Z" fill="#F2DBBD"/>
<path d="M12.6339 23.3988C15.4906 24.3289 17.7161 24.8438 21.6523 24.9102C21.7021 24.8438 21.7354 24.7773 21.752 24.7109C22.1174 22.9172 23.3464 20.2598 23.6786 19.745C23.8114 19.5457 23.8945 19.3464 24.0439 19.1637C20.8385 19.6121 20.2406 19.5291 18.2808 19.363C16.3044 19.1803 13.7134 18.2502 13.5308 17.4862C13.2982 16.7222 15.258 15.4766 16.2712 12.869C17.2843 10.2615 15.2913 8.60066 14.9591 8.43457C14.9591 8.43457 14.6933 11.258 13.5474 12.5203C12.4014 13.7825 10.2091 15.1278 9.42845 17.536C8.64785 19.9609 9.86027 22.4854 12.6339 23.3988Z" fill="#C2AC8B"/>
<path d="M16.736 19.6453C16.736 19.6453 18.8785 20.0439 19.9581 20.1601C21.0376 20.2764 21.7186 20.4591 21.8016 20.6086C21.8847 20.7746 21.2203 20.9573 20.3069 20.9407C19.3934 20.9241 18.1312 20.8245 16.8855 20.4259C15.6399 20.0439 15.0918 19.8778 15.0918 19.8778C15.0918 19.8778 17.1679 20.0937 17.9983 20.2266L16.736 19.6453Z" fill="#F2DBBD"/>
<path d="M20.7717 22.1864C20.7717 22.1864 18.1144 21.8708 16.8687 21.4556C16.4867 21.3228 15.9552 21.4058 15.8058 21.4556C15.6563 21.5055 13.3643 21.2397 12.5339 20.2764C12.5339 20.2764 13.464 20.8743 14.2612 20.9076C14.2612 20.9076 13.1318 20.4757 12.6668 19.828C12.2017 19.1637 12.2183 18.3665 12.2183 18.3665C12.2183 18.3665 12.5505 19.3297 13.1816 19.7782C13.1816 19.7782 12.8329 19.2135 12.7664 18.7817C12.7664 18.7817 13.3311 19.8778 14.8757 20.509C16.4203 21.1401 18.978 21.6882 18.978 21.6882L20.3067 21.7712L21.0707 22.0203L20.7717 22.1864Z" fill="#F2DBBD"/>
<path d="M32.2485 20.6086C32.2485 20.6086 32.5143 19.9442 33.3945 19.7117C34.2748 19.4792 35.0055 19.7615 35.0055 19.7615L34.2748 19.8944C34.2748 19.8944 34.0256 20.1767 33.5108 20.2598C32.9959 20.3428 32.8132 20.3096 32.7302 20.2598C32.7302 20.2598 32.3814 20.4757 32.2485 20.6086Z" fill="#EEC400"/>
<path d="M33.0789 20.9075C33.627 20.376 34.7397 20.2266 35.5535 20.5089C36.3674 20.7912 36.6165 21.522 35.9854 21.9538C35.9854 21.9538 36.1681 21.5718 36.1016 21.2231C36.1016 21.2231 35.8525 21.904 35.2546 22.203C34.6733 22.5019 33.4277 22.8175 32.6471 23.5981C32.6471 23.5981 32.946 23.0002 33.5107 22.5684C33.5107 22.5684 32.6138 22.8839 32.4311 22.2196C32.2484 21.5552 33.4277 20.8743 33.9757 20.7248C33.9923 20.7248 33.4609 20.7248 33.0789 20.9075Z" fill="#EEC400"/>
<path d="M33.4443 26.1226C33.4443 26.1226 34.2249 24.6776 35.5536 24.1129C36.8823 23.5482 37.8954 23.6479 37.8954 23.6479C37.8954 23.6479 37.3639 23.7974 37.2145 23.9967C37.8124 23.8804 38.4269 24.2458 38.5598 24.5281C38.5598 24.5281 37.4138 24.6444 36.4173 25.2589C36.4173 25.2589 37.2643 25.0264 37.8124 25.1759C37.8124 25.1759 36.4007 25.3087 35.3709 25.9565C35.3709 25.9565 35.0055 25.3586 36.3508 24.3787C36.3342 24.3787 34.6734 24.5281 33.4443 26.1226Z" fill="#EEC400"/>
<path d="M34.3911 28.564C34.3911 28.564 35.3046 28.8962 36.1682 28.3481C36.1682 28.3481 35.9689 28.7799 35.8194 28.8795C36.0852 28.7965 36.6167 28.182 36.6997 28.0159C36.6997 28.0159 36.9488 28.3813 37.7792 28.0989C38.6097 27.8 39.7723 26.5211 39.8553 26.2554C39.9384 25.9897 39.8055 25.5911 39.191 25.6575C38.5765 25.7073 37.7294 26.2388 37.1813 27.2685C37.1813 27.036 37.4969 26.4381 37.4969 26.4381C37.4969 26.4381 37.1149 26.8201 36.9322 27.1855C36.7495 27.5509 36.434 27.8498 36.434 27.8498L36.8492 27.0194C36.8492 27.0194 35.6368 28.4643 34.3911 28.564Z" fill="#EEC400"/>
<path d="M38.3936 32.0519C38.3936 32.0519 38.8586 32.1682 39.5728 31.6035C40.3036 31.0388 40.4365 30.4409 40.4365 30.4409C40.4365 30.4409 40.4365 31.3544 39.8552 31.9689C39.2739 32.5834 38.5597 32.6997 38.2607 32.6665C38.6427 32.6332 39.224 32.0852 39.224 32.0852C39.224 32.0852 38.8586 32.2346 38.3936 32.0519Z" fill="#EEC400"/>
<path d="M40.536 31.3708C40.536 31.3708 41.1339 31.5037 41.0509 32.384C40.9845 33.2642 39.9049 34.4268 38.8586 34.377C38.8586 34.377 39.5229 34.078 39.689 33.696C39.689 33.696 39.0911 34.0282 38.4434 33.8289C38.4434 33.8289 39.4565 33.7459 39.8717 33.0317L39.5395 33.1646C39.5395 33.1646 40.0544 32.8324 40.3201 32.2345C40.5859 31.6366 40.536 31.3708 40.536 31.3708Z" fill="#EEC400"/>
<path d="M41.6154 29.6436C41.6154 29.6436 41.4327 30.4075 41.7483 30.9888C41.7483 30.9888 41.6154 31.2878 41.6154 31.5203C41.6154 31.5203 41.3995 31.1383 41.1338 30.9556C41.1338 30.9556 41.1504 30.557 41.1836 30.3245C41.2002 30.092 41.4494 29.7266 41.6154 29.6436Z" fill="#EEC400"/>
<path d="M34.3412 38.878C35.1716 38.5126 36.0851 38.961 36.7993 39.5091C37.5134 40.0572 37.9286 41.0869 38.0283 41.5353C38.0283 41.5353 37.4968 40.3561 36.2844 40.3063C35.072 40.2565 34.1419 41.8841 34.1419 41.8841C34.1419 41.8841 34.4575 41.2032 34.5405 41.0205C34.4907 40.8212 34.6069 40.5388 34.6069 40.5388C34.6069 40.5388 33.8928 40.6883 33.4443 41.7346C33.4609 41.0537 34.308 39.6752 36.1515 39.9077C36.1515 39.9077 35.8692 39.4427 34.7232 39.2932C34.7232 39.2932 34.8062 39.1105 35.1218 39.0275C34.9059 38.878 34.4741 38.8614 34.3412 38.878Z" fill="#EEC400"/>
<path d="M36.2678 44.4419C36.6497 44.5581 37.2144 44.5083 37.6463 44.0433C38.0781 43.5782 38.0615 42.7644 38.0615 42.7644C38.0615 42.7644 38.3272 43.462 37.8123 44.1927C37.2975 44.9235 36.5335 45.1228 35.8525 44.8239C35.8525 44.8239 36.4006 44.9069 36.849 44.6744C36.5169 44.6412 36.2678 44.4419 36.2678 44.4419Z" fill="#EEC400"/>
<path d="M32.9458 46.8169C33.0787 47.0328 32.9956 47.2321 32.9956 47.2321L33.2115 47.2986C33.2115 47.2986 33.2614 47.0328 33.2614 46.9996C33.2614 46.9664 33.2115 46.8335 33.1949 46.8169C33.1783 46.8169 32.9624 46.7671 32.9624 46.7671L32.9458 46.8169Z" fill="#EEC400"/>
<path d="M38.4933 46.9165C38.2774 47.1656 37.912 47.4812 37.4968 47.4148C37.2311 47.3649 37.3473 47.149 37.5798 47.1989C37.7957 47.2487 38.2608 47.0826 38.4933 46.9165Z" fill="#EEC400"/>
<path d="M43.5421 26.2556C43.5421 26.2556 44.4057 26.6874 46.7309 25.857L45.1365 25.8071L43.3594 25.9234L43.5421 26.2556Z" fill="#EEC400"/>
<path d="M42.7617 28.2319C42.7617 28.2319 43.8247 28.4312 44.9707 27.8831C44.9707 27.8831 44.5721 27.8665 44.024 27.9994C44.6883 27.335 45.7181 26.8534 47.1796 26.8202C47.1796 26.8202 46.1831 26.7371 45.6848 26.8202C45.6848 26.8202 46.9969 25.7738 49.073 26.1392C49.073 26.1392 48.0599 25.8071 47.2959 25.8237C47.2959 25.8237 47.8938 25.641 48.7574 25.7074C49.6211 25.7738 51.6473 26.8202 51.6473 26.8202L53.7234 28.3316L54.4209 29.3945C54.4209 29.3945 51.8134 27.7835 49.92 27.5344C48.0266 27.2852 46.8474 27.7835 46.8474 27.7835L45.7181 28.2817L43.9742 28.6305L42.6953 28.7966L42.7617 28.2319Z" fill="#EEC400"/>
<path d="M46.731 31.5868C46.731 31.5868 48.2922 31.7529 48.7738 31.8359C49.2555 31.9189 50.1357 32.1515 50.1357 32.1515C50.1357 32.1515 49.4548 31.7861 49.3551 31.62C49.3551 31.62 51.1654 31.5702 51.7467 31.321C51.7467 31.321 50.6672 31.1882 50.4679 30.9889C50.4679 30.9889 53.0422 30.8892 53.8394 30.4906C53.8394 30.4906 52.2284 30.175 51.481 30.1584L52.1952 30.4408C52.1952 30.4408 50.5841 30.2415 50.252 30.1584C49.9198 30.092 49.6873 30.1584 49.6873 30.1584C49.6873 30.1584 49.3551 30.7231 48.6409 30.856L50.036 31.0719L48.7904 31.1383C48.7738 31.1549 48.6575 31.4539 46.731 31.5868Z" fill="#EEC400"/>
<path d="M37.2144 30.9224C37.5299 30.939 37.8289 30.7065 38.1444 30.4242C38.46 30.1584 38.9416 29.9259 39.1243 30.0422C39.307 30.1584 38.9084 30.8062 38.7756 30.9224C38.6427 31.0387 39.0081 30.9889 39.0081 30.9889L39.689 29.8595L39.6724 29.6436C39.6724 29.6436 39.0247 29.5771 39.0081 29.5771C38.9915 29.5771 38.3271 29.7765 38.3105 29.7931C38.2773 29.8263 37.314 30.6235 37.314 30.6235L37.2144 30.9224Z" fill="#EEC400"/>
<path d="M31.468 20.6086C31.468 20.6086 31.2022 19.9442 30.322 19.7117C29.4417 19.4792 28.7109 19.7615 28.7109 19.7615L29.4417 19.8944C29.4417 19.8944 29.6908 20.1767 30.2057 20.2598C30.7206 20.3428 30.9033 20.3096 30.9863 20.2598C31.0029 20.2598 31.3517 20.4757 31.468 20.6086Z" fill="#EEC400"/>
<path d="M30.6541 20.9075C30.106 20.376 28.9933 20.2266 28.1794 20.5089C27.3656 20.7912 27.1165 21.522 27.7476 21.9538C27.7476 21.9538 27.5649 21.5718 27.6314 21.2231C27.6314 21.2231 27.8805 21.904 28.4784 22.203C29.0597 22.5019 30.3053 22.8175 31.0859 23.5981C31.0859 23.5981 30.787 23.0002 30.2223 22.5684C30.2223 22.5684 31.1191 22.8839 31.3018 22.2196C31.4845 21.5552 30.3053 20.8743 29.7572 20.7248C29.7406 20.7248 30.2555 20.7248 30.6541 20.9075Z" fill="#EEC400"/>
<path d="M30.2888 26.1226C30.2888 26.1226 29.5082 24.6776 28.1795 24.1129C26.8508 23.5482 25.8377 23.6479 25.8377 23.6479C25.8377 23.6479 26.3692 23.7974 26.5186 23.9967C25.9207 23.8804 25.3062 24.2458 25.1733 24.5281C25.1733 24.5281 26.3193 24.6444 27.3158 25.2589C27.3158 25.2589 26.4688 25.0264 25.9207 25.1759C25.9207 25.1759 27.3324 25.3087 28.3622 25.9565C28.3622 25.9565 28.7276 25.3586 27.3823 24.3787C27.3989 24.3787 29.0431 24.5281 30.2888 26.1226Z" fill="#EEC400"/>
<path d="M29.3254 28.564C29.3254 28.564 28.4119 28.8962 27.5483 28.3481C27.5483 28.3481 27.7476 28.7799 27.8971 28.8795C27.6313 28.7965 27.0999 28.182 27.0168 28.0159C27.0168 28.0159 26.7677 28.3813 25.9373 28.0989C25.1068 27.8 23.9442 26.5211 23.8612 26.2554C23.7782 25.9897 23.911 25.5911 24.5255 25.6575C25.1401 25.7073 25.9871 26.2388 26.5352 27.2685C26.5352 27.036 26.2196 26.4381 26.2196 26.4381C26.2196 26.4381 26.6016 26.8201 26.7843 27.1855C26.967 27.5509 27.2826 27.8498 27.2826 27.8498L26.8673 27.0194C26.884 27.0194 28.0964 28.4643 29.3254 28.564Z" fill="#EEC400"/>
<path d="M34.6068 33.53C34.4407 31.62 32.9127 31.2214 32.5307 31.238C32.1653 31.2546 31.8498 31.7363 31.8498 31.7363C31.8498 31.7363 31.5508 31.2713 31.1688 31.238C30.8034 31.2214 29.2589 31.62 29.0928 33.53C29.0928 33.53 29.4582 32.4006 30.0561 32.2179C30.0561 32.2179 29.0429 33.9452 29.9398 35.2075C29.9398 35.2075 29.8235 34.7424 29.8734 34.4601C29.8734 34.4601 30.1059 34.8421 30.4381 34.8587C30.7702 34.8753 31.3183 34.3438 31.5508 33.9618C31.7834 33.5798 31.7667 33.4968 31.8498 33.4968C31.9328 33.4968 31.9162 33.5798 32.1487 33.9618C32.3813 34.3438 32.9293 34.8753 33.2615 34.8587C33.5937 34.8421 33.8262 34.4601 33.8262 34.4601C33.876 34.7424 33.7598 35.2075 33.7598 35.2075C34.6566 33.9452 33.6435 32.2179 33.6435 32.2179C34.258 32.4006 34.6068 33.53 34.6068 33.53Z" fill="#EEC400"/>
<path d="M25.3392 32.0519C25.3392 32.0519 24.8742 32.1682 24.16 31.6035C23.4293 31.0388 23.2964 30.4409 23.2964 30.4409C23.2964 30.4409 23.2964 31.3544 23.8777 31.9689C24.459 32.5834 25.1731 32.6997 25.4721 32.6665C25.0901 32.6332 24.5088 32.0852 24.5088 32.0852C24.5088 32.0852 24.8576 32.2346 25.3392 32.0519Z" fill="#EEC400"/>
<path d="M23.18 31.3708C23.18 31.3708 22.5821 31.5037 22.6651 32.384C22.7316 33.2642 23.8111 34.4268 24.8575 34.377C24.8575 34.377 24.1931 34.078 24.027 33.696C24.027 33.696 24.6249 34.0282 25.2727 33.8289C25.2727 33.8289 24.2596 33.7459 23.8443 33.0317L24.1765 33.1646C24.1765 33.1646 23.6616 32.8324 23.3959 32.2345C23.1302 31.6366 23.18 31.3708 23.18 31.3708Z" fill="#EEC400"/>
<path d="M22.1006 29.6436C22.1006 29.6436 22.2833 30.4075 21.9678 30.9888C21.9678 30.9888 22.1006 31.2878 22.1006 31.5203C22.1006 31.5203 22.3166 31.1383 22.5823 30.9556C22.5823 30.9556 22.5657 30.557 22.5325 30.3245C22.5159 30.092 22.2667 29.7266 22.1006 29.6436Z" fill="#EEC400"/>
<path d="M29.3917 38.878C28.5613 38.5126 27.6478 38.961 26.9336 39.5091C26.2195 40.0572 25.8042 41.0869 25.7046 41.5353C25.7046 41.5353 26.2361 40.3561 27.4485 40.3063C28.6609 40.2565 29.591 41.8841 29.591 41.8841C29.591 41.8841 29.2754 41.2032 29.1924 41.0205C29.2422 40.8212 29.1259 40.5388 29.1259 40.5388C29.1259 40.5388 29.8401 40.6883 30.2885 41.7346C30.2719 41.0537 29.4249 39.6752 27.5814 39.9077C27.5814 39.9077 27.8637 39.4427 29.0097 39.2932C29.0097 39.2932 28.9266 39.1105 28.6111 39.0275C28.8104 38.878 29.2422 38.8614 29.3917 38.878Z" fill="#EEC400"/>
<path d="M27.4487 44.4419C27.0667 44.5581 26.502 44.5083 26.0702 44.0433C25.6384 43.5782 25.655 42.7644 25.655 42.7644C25.655 42.7644 25.3892 43.462 25.9041 44.1927C26.419 44.9235 27.183 45.1228 27.8639 44.8239C27.8639 44.8239 27.3158 44.9069 26.8674 44.6744C27.1996 44.6412 27.4487 44.4419 27.4487 44.4419Z" fill="#EEC400"/>
<path d="M33.2783 48.511C33.2451 48.2453 32.4977 47.8965 31.8499 47.8965C31.2022 47.8965 30.4714 48.2453 30.4216 48.511C30.3884 48.7767 31.0527 49.1421 31.5178 49.1919C31.5178 49.1919 31.3185 49.0757 31.2354 48.9594C31.2354 48.9594 31.551 49.0093 31.8499 49.0093C32.1489 49.0093 32.4645 48.9594 32.4645 48.9594C32.3814 49.0757 32.1821 49.1919 32.1821 49.1919C32.6471 49.1421 33.3281 48.7767 33.2783 48.511Z" fill="#EEC400"/>
<path d="M31.8666 47.0659C31.385 47.0659 30.239 47.1822 29.7407 47.4811C29.7407 47.4811 30.8203 47.1988 31.8666 47.1988C32.9129 47.1988 33.9925 47.4811 33.9925 47.4811C33.4776 47.1822 32.3483 47.0659 31.8666 47.0659Z" fill="#EEC400"/>
<path d="M33.8265 46.2853C33.3946 46.1524 31.8666 45.9697 31.8666 45.9697C31.8666 45.9697 30.3387 46.1524 29.9068 46.2853C29.475 46.4182 27.3159 47.232 27.3159 47.232C29.4086 46.4182 31.4847 46.3185 31.8666 46.3185C32.2486 46.3185 34.3081 46.4015 36.4174 47.232C36.4008 47.232 34.2583 46.4015 33.8265 46.2853Z" fill="#EEC400"/>
<path d="M25.2397 46.9165C25.4557 47.1656 25.821 47.4812 26.2363 47.4148C26.502 47.3649 26.3857 47.149 26.1532 47.1989C25.9373 47.2487 25.4557 47.0826 25.2397 46.9165Z" fill="#EEC400"/>
<path d="M20.1908 26.2556C20.1908 26.2556 19.3271 26.6874 17.002 25.857L18.5964 25.8071L20.3735 25.9234L20.1908 26.2556Z" fill="#EEC400"/>
<path d="M20.9546 28.2319C20.9546 28.2319 19.8916 28.4312 18.7457 27.8831C18.7457 27.8831 19.1443 27.8665 19.6923 27.9994C19.028 27.335 17.9983 26.8534 16.5367 26.8202C16.5367 26.8202 17.5332 26.7371 18.0315 26.8202C18.0315 26.8202 16.7194 25.7738 14.6433 26.1392C14.6433 26.1392 15.6565 25.8071 16.4205 25.8237C16.4205 25.8237 15.8226 25.641 14.9589 25.7074C14.0953 25.7738 12.069 26.8202 12.069 26.8202L9.99297 28.3482L9.29541 29.4111C9.29541 29.4111 11.9029 27.8001 13.7963 27.551C15.6897 27.3018 16.8689 27.8001 16.8689 27.8001L17.9983 28.2983L19.7422 28.6471L21.021 28.8132L20.9546 28.2319Z" fill="#EEC400"/>
<path d="M17.002 31.5868C17.002 31.5868 15.4408 31.7529 14.9591 31.8359C14.4775 31.9189 13.5973 32.1515 13.5973 32.1515C13.5973 32.1515 14.2782 31.7861 14.3779 31.62C14.3779 31.62 12.5675 31.5702 11.9862 31.321C11.9862 31.321 13.0658 31.1882 13.2651 30.9889C13.2651 30.9889 10.6908 30.8892 9.89355 30.4906C9.89355 30.4906 11.5046 30.175 12.252 30.1584L11.5378 30.4408C11.5378 30.4408 13.1488 30.2415 13.481 30.1584C13.8132 30.092 14.0457 30.1584 14.0457 30.1584C14.0457 30.1584 14.3779 30.7231 15.092 30.856L13.6969 31.0719L14.9425 31.1383C14.9591 31.1549 15.0588 31.4539 17.002 31.5868Z" fill="#EEC400"/>
<path d="M33.1618 37.3997C33.3611 36.8018 33.2116 35.8883 32.7134 35.4897C32.9957 35.5395 33.3445 35.7886 33.3445 35.7886C33.112 35.3568 32.3978 35.0579 31.8663 35.0579C31.3348 35.0579 30.6207 35.3568 30.3882 35.7886C30.3882 35.7886 30.7369 35.5561 31.0193 35.4897C30.5376 35.8883 30.3882 36.8018 30.5709 37.3997C30.5709 37.3997 29.8401 37.5159 29.2754 37.3166C29.2754 37.3166 30.2885 37.9145 31.8663 37.9145C33.4441 37.9145 34.4572 37.3166 34.4572 37.3166C33.8926 37.4993 33.1618 37.3997 33.1618 37.3997Z" fill="#EEC400"/>
<path d="M24.9741 29.5606L26.6847 31.0387L26.0204 31.4373C26.0204 31.4373 25.1734 31.4041 24.8578 31.1716C24.5422 30.9391 24.0938 30.2913 24.0938 30.2913L23.9609 29.5273L24.9741 29.5606Z" fill="#EEC400"/>
<path d="M26.4356 30.9224C26.12 30.939 25.8211 30.7065 25.5055 30.4242C25.19 30.1584 24.7083 29.9259 24.5256 30.0422C24.3429 30.1584 24.7415 30.8062 24.8744 30.9224C25.0073 31.0387 24.6419 30.9889 24.6419 30.9889L23.9609 29.8595L23.9775 29.6436C23.9775 29.6436 24.6253 29.5771 24.6419 29.5771C24.6585 29.5771 25.3228 29.7765 25.3394 29.7931C25.3727 29.8263 26.336 30.6235 26.336 30.6235L26.4356 30.9224Z" fill="#EEC400"/>
<path d="M18.0481 21.8375C18.0481 21.8375 17.5499 21.7711 17.0516 21.987C16.5534 22.2029 16.0883 22.5019 15.9555 22.5849C15.8226 22.6679 15.042 23.1828 15.042 23.1828L15.8724 23.1164L16.4371 22.6513L17.5665 21.9704C17.5665 21.9704 17.8322 21.8375 18.0481 21.8375Z" fill="#F2DBBD"/>
<path d="M42.5292 31.6034C42.5292 31.3211 42.5292 30.9723 42.5292 30.5737C42.5292 29.9259 42.5292 29.1121 42.496 28.1488C42.4462 26.6873 41.5327 25.9233 41.5161 25.9233L41.4663 25.8901L41.4497 25.8402C41.0511 24.3953 39.8386 23.3656 39.822 23.3656L39.7722 23.3324L39.7556 23.2825C38.7923 19.9608 37.1813 18.9477 36.8657 18.7816L37.0484 18.4495C37.3806 18.6322 39.0913 19.6951 40.1044 23.1331C40.3369 23.3324 41.3832 24.3289 41.7818 25.7074C41.9811 25.8901 42.795 26.7205 42.8448 28.1654C42.878 29.1453 42.878 29.9592 42.878 30.6069C42.878 31.0055 42.878 31.3377 42.878 31.62L42.5292 31.6034Z" fill="#2500C1"/>
<path d="M41.9977 25.093L41.9479 25.0266C41.8815 24.9435 41.8316 24.8439 41.815 24.7608C41.4662 23.0336 40.2372 20.3762 39.9216 19.8613C39.8718 19.7949 39.8386 19.7285 39.8054 19.662C39.739 19.5292 39.6559 19.4129 39.5729 19.2967L39.2905 18.9313L39.739 18.9977C42.8614 19.4295 43.4925 19.3631 45.336 19.197L45.4689 19.1804C47.6114 18.9811 49.92 18.0178 50.0694 17.4365C50.1359 17.1708 49.7705 16.7223 49.3055 16.1576C48.6909 15.4103 47.8605 14.3805 47.2958 12.9356C46.2495 10.2284 48.2757 8.4679 48.6909 8.2686L48.9401 8.15234L48.9733 8.41808C48.9733 8.4513 49.239 11.1917 50.3518 12.4041C50.6507 12.7363 51.0327 13.0851 51.4313 13.4338C52.5441 14.4304 53.9226 15.6594 54.5039 17.4863C55.351 20.1105 53.9558 22.6682 51.1822 23.5816C48.2591 24.5449 46.0502 25.0432 42.114 25.1096L41.9977 25.093ZM40.0877 19.4129C40.1043 19.4295 40.1043 19.4461 40.121 19.4627C40.1542 19.5292 40.204 19.5956 40.2372 19.662C40.586 20.2101 41.815 22.8841 42.1804 24.6944C42.1804 24.711 42.1804 24.7276 42.197 24.7442C46.017 24.6612 48.1927 24.1796 51.0493 23.2329C53.6071 22.4024 54.9025 20.0274 54.1219 17.6192C53.5738 15.8919 52.2784 14.7459 51.149 13.7328C50.7338 13.3674 50.3518 13.0186 50.0362 12.6699C49.0729 11.6069 48.7076 9.58068 48.6079 8.78347C48.3754 8.98277 48.0266 9.34816 47.7609 9.8298C47.2626 10.7599 47.2128 11.7564 47.628 12.8027C48.1595 14.1812 48.9733 15.1943 49.5712 15.9251C50.1525 16.6227 50.5179 17.0877 50.4182 17.5361C50.1691 18.4994 47.2958 19.3963 45.5021 19.5458L45.3692 19.5624C43.5589 19.7285 42.9112 19.7783 40.0877 19.4129Z" fill="#2500C1"/>
<path d="M33.8594 50.3047C33.7432 50.3047 33.6269 50.288 33.5107 50.2714C33.3778 50.2548 33.2615 50.2216 33.1453 50.205C32.7965 50.1386 32.5142 50.0887 31.8498 50.0887C31.1855 50.0887 30.9031 50.1386 30.5544 50.205C30.4381 50.2216 30.3218 50.2548 30.189 50.2714C29.5745 50.3711 29.0596 50.205 28.5779 49.7566C28.2126 49.4078 27.6645 48.8099 27.4984 48.6272C26.9669 48.6106 26.6514 48.2784 26.5019 48.0293C25.3559 48.2784 24.6251 47.3649 24.4092 46.6674C24.2597 46.1525 24.4424 45.7705 24.5587 45.5878C23.8611 44.392 24.1767 43.5616 24.3594 43.1132C24.3926 43.0135 24.4424 42.9139 24.4424 42.864C24.459 42.5651 24.459 41.6682 24.459 41.4191C24.2763 41.2032 23.6452 40.4558 23.3629 39.4593C23.2466 39.0607 23.2134 38.6621 23.1802 38.3133C23.1137 37.6656 23.0805 37.1673 22.6321 36.7853C22.5823 36.7521 22.5324 36.7023 22.4826 36.6691C21.7518 36.0546 20.9048 35.357 20.7387 34.2774C20.6225 33.5301 20.6889 33.0816 20.7387 32.6332C20.7719 32.4173 20.7885 32.218 20.7885 31.9855C20.7885 31.6699 20.7719 31.4042 20.7387 31.2215C19.8751 31.919 17.7658 32.7162 17.5001 32.8159L17.4502 32.8325L16.5866 32.5834L16.0219 33.0484L15.9721 33.065C13.7632 33.447 11.7203 32.8989 11.6373 32.8823L11.222 32.7661L12.202 32.1515C10.1923 31.8028 8.24913 30.6568 8.14948 30.607L8 30.5239L8.06643 30.3744C8.382 29.6603 9.22903 28.697 10.3086 27.8001C11.4546 26.8534 12.6836 26.1393 13.6635 25.8569C15.0918 25.4417 16.3209 25.5248 17.417 25.5912C17.9485 25.6244 18.4634 25.6576 18.9284 25.6244C20.2073 25.5414 21.1872 25.1428 21.4363 24.8106C21.4695 24.7608 21.4861 24.7275 21.5027 24.6943C21.8681 22.884 23.0971 20.2266 23.4459 19.662C23.4791 19.5955 23.529 19.5291 23.5622 19.4627C23.6452 19.3298 23.7116 19.1969 23.8113 19.064C24.0936 18.6987 24.4922 18.4661 25.1068 18.3333C25.987 18.134 26.5019 18.3001 26.7012 18.3997C26.9669 18.2834 27.7973 17.9679 28.9932 17.9015C30.272 17.835 31.501 18.2834 31.8 18.3997C32.1156 18.2834 33.3446 17.835 34.6068 17.9015C35.8026 17.9679 36.6497 18.2834 36.8988 18.3997C37.0981 18.3001 37.613 18.1506 38.4932 18.3333C39.1077 18.4661 39.5063 18.6987 39.7887 19.064C39.8883 19.1969 39.9714 19.3298 40.0378 19.4627C40.071 19.5291 40.1209 19.5955 40.1541 19.662C40.5028 20.21 41.7319 22.884 42.0973 24.6943C42.0973 24.7275 42.1305 24.7608 42.1637 24.8106C42.4294 25.1428 43.3927 25.5414 44.6716 25.6244C45.1532 25.6576 45.6515 25.6244 46.183 25.5912C47.2791 25.5248 48.5081 25.4417 49.9365 25.8569C50.933 26.1393 52.1454 26.8534 53.2914 27.8001C54.3709 28.697 55.218 29.6603 55.5335 30.3744L55.6 30.5239L55.4505 30.607C55.3675 30.6568 53.4077 31.7862 51.398 32.1515L52.3779 32.7661L51.9627 32.8823C51.8797 32.8989 49.8368 33.447 47.6279 33.065L47.5781 33.0484L47.0134 32.5834L46.1497 32.8325L46.0999 32.8159C45.8342 32.7162 43.7083 31.919 42.8613 31.2215C42.828 31.4042 42.8114 31.6699 42.8114 31.9855C42.8114 32.218 42.8446 32.4173 42.8613 32.6332C42.9111 33.065 42.9775 33.5301 42.8613 34.2774C42.6952 35.357 41.8647 36.0546 41.1174 36.6691C41.0675 36.7023 41.0177 36.7521 40.9679 36.7853C40.5195 37.1673 40.4696 37.6656 40.4198 38.3133C40.3866 38.6621 40.3534 39.0607 40.2371 39.4593C39.9714 40.4558 39.3403 41.2032 39.1409 41.4191C39.1409 41.6848 39.141 42.5651 39.1576 42.864C39.1576 42.9139 39.1908 43.0135 39.2406 43.1132C39.4067 43.5616 39.7389 44.392 39.0413 45.5878C39.1576 45.7705 39.3403 46.1525 39.1908 46.6674C38.9749 47.3649 38.2441 48.2784 37.0981 48.0293C36.9486 48.295 36.6331 48.6106 36.1016 48.6272C35.9355 48.8265 35.3874 49.4244 35.022 49.7566C34.7397 50.122 34.3411 50.3047 33.8594 50.3047ZM31.8664 49.7234C32.564 49.7234 32.8795 49.7898 33.2283 49.8562C33.3446 49.8728 33.4442 49.906 33.5771 49.9227C34.092 50.0057 34.474 49.8894 34.856 49.5074C35.2712 49.1088 35.9687 48.3448 35.9687 48.3282L36.0185 48.2618H36.1016C36.7161 48.2784 36.8822 47.7802 36.8988 47.7635L36.9486 47.5975L37.1147 47.6473C38.2109 47.9629 38.7756 46.9829 38.9084 46.5677C39.0579 46.0695 38.7756 45.7539 38.759 45.7373L38.6593 45.6377L38.7257 45.5214C39.4067 44.4252 39.1243 43.6945 38.9583 43.2626C38.9084 43.1298 38.8586 43.0135 38.8586 42.9139C38.8254 42.5485 38.842 41.4025 38.842 41.3693V41.2862L38.8918 41.2364C38.8918 41.2364 39.6558 40.4392 39.9382 39.3762C40.0378 39.0109 40.071 38.6455 40.1042 38.2967C40.1707 37.6324 40.2205 36.9846 40.7852 36.5196C40.835 36.4864 40.8848 36.4365 40.9347 36.4033C41.6488 35.8054 42.3962 35.1743 42.5457 34.2276C42.6453 33.5301 42.5955 33.0982 42.5457 32.6996C42.5125 32.4837 42.4959 32.2678 42.4793 32.0187C42.4626 31.2713 42.5955 30.8229 42.5955 30.8063L42.7118 30.4243L42.9277 30.7398C43.3097 31.2879 45.3691 32.1516 46.2162 32.4671L47.1629 32.2014L47.794 32.7328C49.322 32.982 50.7835 32.7827 51.4811 32.6332L50.3683 31.919L50.8998 31.8692C52.6769 31.6865 54.6035 30.69 55.1515 30.391C54.4208 28.9959 51.8298 26.8036 49.87 26.2223C48.5081 25.8237 47.3123 25.9068 46.2494 25.9732C45.7013 26.0064 45.1864 26.0396 44.6882 26.0064C43.4259 25.9234 42.28 25.5248 41.9146 25.0431C41.8481 24.9601 41.7983 24.8604 41.7817 24.7774C41.4329 23.0501 40.2039 20.3927 39.8883 19.8779C39.8385 19.8114 39.8053 19.745 39.7721 19.6786C39.7056 19.5457 39.6226 19.4294 39.5396 19.3132C39.3735 19.0973 39.1243 18.8647 38.46 18.7153C37.4801 18.4994 37.0649 18.7651 37.0649 18.7651L36.9818 18.8315L36.8822 18.7817C36.8656 18.7817 36.0019 18.3665 34.64 18.2834C33.2781 18.217 31.9329 18.7817 31.9162 18.7817L31.8498 18.8149L31.7834 18.7817C31.7668 18.7817 30.4215 18.217 29.0596 18.2834C27.6977 18.3499 26.8174 18.7651 26.8174 18.7817L26.7178 18.8315L26.6347 18.7651C26.6347 18.7651 26.2195 18.4994 25.2396 18.7153C24.5753 18.8647 24.3262 19.0973 24.1601 19.3132C24.077 19.4294 24.0106 19.5457 23.9276 19.6786C23.8943 19.745 23.8445 19.8114 23.8113 19.8779C23.4791 20.3927 22.2667 23.0501 21.9179 24.7774C21.9013 24.877 21.8515 24.9601 21.7851 25.0431C21.4197 25.5248 20.2737 25.9234 19.0114 26.0064C18.5132 26.0396 17.9983 26.0064 17.4502 25.9732C16.3873 25.9068 15.1915 25.8237 13.8296 26.2223C11.8698 26.787 9.27885 28.9959 8.54808 30.391C9.09616 30.69 11.0227 31.6865 12.7999 31.8692L13.3313 31.919L12.2186 32.6332C12.9161 32.7661 14.3943 32.982 15.9056 32.7328L16.5368 32.2014L17.4835 32.4671C18.3305 32.1516 20.3899 31.2879 20.7719 30.7398L20.9879 30.4243L21.1041 30.8063C21.1041 30.8229 21.237 31.2713 21.2204 32.0187C21.2204 32.2678 21.1872 32.5003 21.1539 32.6996C21.1041 33.1148 21.0543 33.5301 21.1539 34.2276C21.3034 35.1743 22.0508 35.7888 22.765 36.4033C22.8148 36.4365 22.8646 36.4864 22.9144 36.5196C23.4791 37.0012 23.5456 37.6324 23.5954 38.2967C23.6286 38.6455 23.6618 39.0109 23.7615 39.3762C24.0438 40.4226 24.8078 41.2198 24.8078 41.2364L24.8576 41.2862V41.3693C24.8576 41.4191 24.8576 42.5485 24.841 42.9139C24.841 43.0135 24.7912 43.1298 24.7414 43.2626C24.5753 43.6945 24.2929 44.4252 24.9739 45.5214L25.0569 45.6377L24.9573 45.7373C24.9407 45.7539 24.6583 46.0695 24.8078 46.5677C24.9407 46.9829 25.5054 47.9629 26.6015 47.6473L26.7842 47.5975L26.834 47.7802C26.834 47.7968 27.0167 48.295 27.6313 48.2784H27.7143L27.7641 48.3448C27.7641 48.3448 28.4617 49.1254 28.8769 49.524C29.2589 49.8894 29.6575 50.0223 30.1557 49.9393C30.2886 49.9227 30.4049 49.8894 30.5045 49.8728C30.8533 49.7732 31.1689 49.7234 31.8664 49.7234Z" fill="#2500C1"/>
<path d="M21.1872 31.6034L20.8218 31.5868C20.8218 31.3045 20.8218 30.9723 20.8218 30.5737C20.8218 29.926 20.8218 29.1121 20.855 28.1322C20.9048 26.6873 21.7186 25.8569 21.9179 25.6742C22.3165 24.2957 23.3629 23.2992 23.5954 23.0999C24.6085 19.6785 26.3192 18.599 26.6514 18.4163L26.8341 18.7484C26.5185 18.9145 24.9241 19.9276 23.9442 23.2493L23.9276 23.2992L23.8777 23.3324C23.8611 23.349 22.6487 24.3787 22.2501 25.807L22.2335 25.8569L22.1837 25.8901C22.1671 25.8901 21.2536 26.6707 21.2038 28.1156C21.1706 29.0789 21.1706 29.8927 21.1706 30.5405C21.2038 30.9723 21.2038 31.3211 21.1872 31.6034Z" fill="#2500C1"/>
<path d="M21.7353 25.0928H21.6356C17.6994 25.0263 15.4905 24.5281 12.5674 23.5648C9.79375 22.6679 8.39863 20.0936 9.24567 17.4695C9.82697 15.6425 11.2055 14.4135 12.3182 13.417C12.7168 13.0516 13.0988 12.7194 13.3978 12.3873C14.494 11.1749 14.7597 8.43445 14.7763 8.40123L14.8095 8.1355L15.0586 8.25176C15.4739 8.46767 17.5167 10.2116 16.4538 12.9187C15.8891 14.3637 15.042 15.3934 14.4441 16.1574C13.9791 16.7221 13.6137 17.1871 13.6801 17.4363C13.8296 18.0176 16.1216 18.9809 18.2807 19.1802L18.4136 19.1968C20.2737 19.3628 20.8882 19.4293 24.0106 18.9975L24.4591 18.931L24.1767 19.2964C24.0937 19.4127 24.0272 19.5289 23.9442 19.6618C23.911 19.7282 23.8612 19.7947 23.8279 19.8611C23.4958 20.376 22.2833 23.0333 21.9346 24.7606C21.918 24.8603 21.8681 24.9433 21.8017 25.0263L21.7353 25.0928ZM15.1085 8.76662C15.0088 9.54722 14.6434 11.5901 13.6801 12.653C13.3646 13.0018 12.9826 13.3506 12.5674 13.716C11.438 14.7291 10.1591 15.8751 9.59445 17.6023C8.81385 20.0272 10.1093 22.3856 12.667 23.216C15.5403 24.1461 17.6994 24.6444 21.5194 24.7274C21.5194 24.7108 21.536 24.6942 21.536 24.6776C21.9013 22.8672 23.1304 20.2099 23.4792 19.6452C23.5124 19.5788 23.5622 19.5123 23.5954 19.4459C23.612 19.4293 23.612 19.4127 23.6286 19.3961C20.8052 19.7781 20.1408 19.7116 18.3471 19.5455L18.2143 19.5289C16.4205 19.3628 13.5473 18.4826 13.2981 17.5193C13.1819 17.0709 13.5639 16.6058 14.1452 15.9083C14.7431 15.1775 15.5569 14.1644 16.0884 12.7859C16.5036 11.7395 16.4538 10.7264 15.9555 9.81296C15.6898 9.33131 15.341 8.96592 15.1085 8.76662Z" fill="#2500C1"/>
<path d="M26.7012 47.9794L26.5518 47.6472C27.2493 47.3317 29.807 46.468 31.8665 46.468V46.8334C29.7074 46.8334 27.1331 47.7967 26.7012 47.9794Z" fill="#2500C1"/>
<path d="M33.2949 24.5282C33.4278 24.3123 33.6271 24.113 33.8264 23.9469C34.0257 23.7808 34.2416 23.6313 34.4741 23.4985C34.7066 23.3822 34.9558 23.266 35.2049 23.1995C35.3212 23.1497 35.454 23.1331 35.5869 23.0999C35.7198 23.0833 35.8526 23.0667 35.9689 23.05C35.8526 23.0999 35.7198 23.1497 35.6035 23.1995C35.4872 23.2493 35.371 23.2992 35.2547 23.349C35.0222 23.4487 34.7897 23.5649 34.5738 23.6812C34.3579 23.7974 34.142 23.9303 33.926 24.0632C33.7101 24.2293 33.5108 24.3787 33.2949 24.5282Z" fill="#2500C1"/>
<path d="M34.4243 24.2624C34.607 24.0631 34.8229 23.9137 35.0554 23.7642C35.288 23.6313 35.5205 23.4984 35.7696 23.4154C36.0187 23.3157 36.2845 23.2327 36.5336 23.1995C36.7993 23.1497 37.0651 23.1331 37.3308 23.1331C37.0817 23.2161 36.8159 23.2825 36.5834 23.3656C36.3343 23.4486 36.0852 23.5317 35.8526 23.6313C35.6035 23.731 35.371 23.8306 35.1385 23.9303C34.8894 24.0133 34.6568 24.1296 34.4243 24.2624Z" fill="#2500C1"/>
<path d="M42.6453 33.3806C42.6287 33.2976 42.6287 33.2146 42.6121 33.1315C42.5955 33.0485 42.5789 32.9654 42.5623 32.8824C42.5291 32.7163 42.4792 32.5502 42.4294 32.3841C42.3132 32.052 42.1803 31.7198 42.0806 31.371C41.981 31.0222 41.9312 30.6568 41.9146 30.2915V30.0257C41.9146 29.9427 41.9312 29.843 41.9312 29.76L41.9478 29.6271L41.9644 29.4943L41.9976 29.2285C42.0142 29.4112 42.0142 29.5939 42.0308 29.76C42.0474 29.843 42.0474 29.9427 42.064 30.0257L42.0972 30.2915C42.1637 30.6402 42.2467 30.9724 42.363 31.288C42.4792 31.6035 42.6453 31.9191 42.7616 32.2679C42.7782 32.3177 42.7948 32.3509 42.8114 32.4007L42.8612 32.5336C42.8778 32.5834 42.8945 32.6167 42.8945 32.6665C42.9111 32.7163 42.9277 32.7495 42.9277 32.7993C42.9443 32.899 42.9609 32.982 42.9775 33.0817C42.9941 33.1813 42.9941 33.2644 42.9941 33.364L42.6453 33.3806Z" fill="#2500C1"/>
<path d="M38.327 25.6409C38.327 25.6409 37.9948 25.8568 37.4468 25.9896C36.8987 26.1225 36.5831 26.5211 36.417 26.7536C36.2509 26.9695 35.653 27.3183 35.1714 27.3682C35.1714 27.3682 35.653 27.2187 35.9686 26.8699C36.2675 26.5211 36.5167 26.2222 36.6828 26.1391C36.6828 26.1391 36.1181 26.272 35.8025 26.737C35.8025 26.737 35.952 26.1557 36.7326 25.8236C37.5132 25.4914 37.8952 25.7571 38.327 25.6409Z" fill="#2500C1"/>
<path d="M34.4077 27.9994C34.4077 27.9994 34.8894 28.1157 35.4374 27.8997C36.0021 27.7004 36.2845 27.1025 36.2845 27.1025C36.2845 27.1025 35.3876 27.8167 34.4077 27.9994Z" fill="#2500C1"/>
<path d="M33.6765 28.4645C33.6765 28.4645 33.361 29.6105 34.5069 30.3413C35.6529 31.0721 36.9318 30.4243 37.0647 30.3413C37.0647 30.3413 36.3173 30.524 35.7858 30.4077C35.7858 30.4077 36.9982 30.3579 37.5961 29.6936C38.2106 29.0458 38.6923 28.4977 39.0078 28.1324C39.3234 27.7836 40.0708 27.0362 41.0673 27.0528C41.0673 27.0528 40.5358 26.7705 39.7054 27.2189C38.875 27.6507 38.4099 28.1988 38.0612 28.3649C37.729 28.531 37.1145 28.5808 36.7989 28.4147C36.7989 28.4147 36.4335 29.378 35.437 29.6105C35.437 29.6105 36.2508 29.1289 36.4667 28.4811C36.4667 28.4811 35.6031 29.4278 34.6398 29.4943C34.6398 29.4943 35.4868 29.1953 35.8024 28.6306C35.8024 28.6306 35.1547 29.2451 34.4571 29.1455C33.8094 29.0458 33.6765 28.5642 33.6765 28.4645Z" fill="#2500C1"/>
<path d="M38.4932 37.3831C38.7257 36.835 39.224 36.2039 40.453 35.7222C41.682 35.2572 42.1969 34.1777 42.1304 33.314C42.064 32.4338 41.8149 31.8026 41.8813 31.4373C41.8813 31.4373 41.6986 31.703 41.7318 32.2345C41.7318 32.2345 41.4495 31.6366 41.0343 31.4373C41.3 31.9023 41.4329 32.4338 41.1838 32.9818C40.9346 33.5299 40.3035 34.2109 39.7056 34.3936C40.4364 34.377 41.0177 33.7957 41.0177 33.7957C41.0177 33.7957 40.5028 34.6759 39.4731 34.9416C39.4731 34.9416 40.2205 35.0081 40.7852 34.5763C40.7852 34.5763 39.7222 35.5229 38.46 35.5396C38.46 35.5396 38.8087 35.7555 39.1409 35.7222C39.1409 35.7056 38.4101 36.5028 38.4932 37.3831Z" fill="#2500C1"/>
<path d="M37.5796 19.0143C37.5796 19.0143 38.7422 18.6987 39.4231 18.9478L39.938 19.5125L41.0009 21.7048C41.0009 21.7048 40.9179 21.9872 40.7186 21.5055C40.5193 21.0239 39.8383 19.9942 39.1906 19.8115C38.5429 19.6454 38.1775 19.8281 38.1775 19.8281L37.5796 19.0143Z" fill="#2500C1"/>
<path d="M43.7082 26.1559C45.2528 26.3054 46.1164 25.7241 46.1164 25.7241C44.4556 25.9732 43.3594 25.5746 42.8944 25.4252C42.4293 25.2757 41.9145 24.8106 41.9145 24.8106C41.9145 24.8106 41.5989 23.7643 41.4826 23.4155C41.3664 23.0667 40.702 21.655 40.0543 21.0903C40.4529 21.9374 40.8017 23.1996 40.8017 23.1996C40.4363 22.2363 39.772 21.4723 39.772 21.4723C40.0377 22.2695 40.0875 23.1332 40.0709 23.2328L40.7851 24.0633L41.3166 25.2258C41.3166 25.2258 41.0508 26.2556 42.3629 26.704C43.675 27.1524 45.6016 26.322 45.6016 26.322C44.7379 26.5545 43.7082 26.1559 43.7082 26.1559ZM41.7982 25.4085C41.6653 25.0265 41.765 24.8272 41.765 24.8272C41.765 24.8272 41.9145 25.3919 42.3131 25.7739C42.3131 25.7739 41.9311 25.7905 41.7982 25.4085Z" fill="#2500C1"/>
<path d="M55.4337 30.4408L54.869 29.5439C52.9923 27.8665 50.0194 27.2021 47.8769 27.1025C45.7344 27.0028 44.9704 27.6339 44.9704 27.6339C44.9704 27.6339 45.9669 27.3848 46.5316 27.5509C46.1496 27.5675 45.5351 28.0492 44.2728 28.3315C43.0106 28.6304 42.7282 28.3979 42.7282 28.3979V29.3944C42.7282 29.3944 42.5954 30.1584 42.8279 30.8228C43.0438 31.4705 46.2492 32.6331 46.2492 32.6331L46.6977 32.5002C46.6977 32.5002 45.1863 31.8691 44.1566 31.2712C43.1268 30.6733 43.0604 30.2083 43.0604 30.2083C43.3427 30.391 44.4555 30.5903 44.4555 30.5903C44.0071 30.6733 43.3427 30.5404 43.3427 30.5404C43.3427 30.5404 44.2894 31.3376 45.9337 31.2048C47.5779 31.0553 48.4582 30.0754 48.4582 30.0754C47.7938 30.5072 46.3489 30.2581 46.3489 30.2581C46.3489 30.2581 46.9302 30.1252 48.2755 29.8263C49.6208 29.5107 51.6968 29.9093 51.6968 29.9093C50.7501 29.3778 48.9232 29.245 48.9232 29.245C51.0657 29.0124 53.3078 30.0256 53.3078 30.0256C50.9328 28.2817 46.7807 28.3315 46.7807 28.3315C49.4879 27.0194 53.8725 29.7432 53.8725 29.7432C53.5238 29.411 52.6767 28.7799 52.6767 28.7799C53.6566 29.1287 55.1846 30.391 55.1846 30.391L55.4337 30.4408ZM43.542 29.0789C44.6714 28.5474 45.9004 28.9294 45.9004 28.9294C44.6216 29.2616 43.542 29.0789 43.542 29.0789Z" fill="#2500C1"/>
<path d="M42.5459 27.169C42.5459 27.169 43.0109 27.4514 43.5092 27.3849C44.0074 27.3019 45.004 26.9863 45.004 26.9863C45.004 26.9863 44.1569 27.5012 43.8248 27.7503C43.4926 27.9828 42.9777 28.1821 42.6622 28.0327L42.5459 27.169Z" fill="#2500C1"/>
<path d="M45.6846 26.8367C45.7842 26.7702 45.8839 26.7204 45.9835 26.6706C46.0832 26.6208 46.1994 26.5875 46.2991 26.5377C46.515 26.4547 46.7475 26.4049 46.9634 26.355C47.4119 26.272 47.8935 26.2388 48.3585 26.2554C48.4748 26.2554 48.5911 26.272 48.7073 26.2886C48.8236 26.3052 48.9398 26.3218 49.0561 26.3384C49.2886 26.3716 49.5045 26.4381 49.737 26.5045C50.1855 26.6374 50.6007 26.8367 50.9993 27.0858C50.5509 26.9695 50.119 26.8699 49.6706 26.7868C49.4547 26.7536 49.2388 26.7038 49.0063 26.6872C48.7904 26.654 48.5578 26.6374 48.3419 26.6208C47.8935 26.5875 47.4617 26.6042 47.0133 26.6374C46.5814 26.6872 46.133 26.737 45.6846 26.8367Z" fill="#2500C1"/>
<path d="M55.2843 30.7399C55.0019 30.9226 54.703 31.0554 54.3874 31.1385C54.0718 31.2215 53.7563 31.2713 53.4407 31.288C53.1252 31.3046 52.8096 31.288 52.494 31.2547C52.1785 31.2215 51.8795 31.1717 51.564 31.0886C51.8795 31.0886 52.1785 31.0886 52.494 31.072C52.793 31.0554 53.1086 31.0222 53.4075 30.989C53.7065 30.9392 54.0054 30.8893 54.2878 30.7897C54.5701 30.7067 54.8358 30.5904 55.085 30.4409L55.2843 30.7399Z" fill="#2500C1"/>
<path d="M45.3027 31.4873C45.5851 31.5703 45.8508 31.6036 46.1332 31.6534C46.4155 31.6866 46.6812 31.7364 46.9636 31.7697L47.794 31.8693L48.2092 31.9191C48.3421 31.9357 48.4916 31.9523 48.641 31.969C48.5082 32.0188 48.3587 32.0354 48.2092 32.052C48.0597 32.0686 47.9269 32.0686 47.7774 32.0852C47.4951 32.0852 47.2127 32.0686 46.9138 32.0354C46.6314 32.0022 46.3491 31.9523 46.0667 31.8693C45.801 31.7696 45.5186 31.6534 45.3027 31.4873Z" fill="#2500C1"/>
<path d="M39.9713 19.2633C39.9713 19.2633 40.2536 19.7283 41.2833 19.8944C42.3297 20.0605 43.9905 19.8944 43.9905 19.8944C43.9905 19.8944 43.1435 20.1934 42.0307 20.1934C40.9013 20.1934 40.7519 20.4093 40.7519 20.4923C40.7519 20.592 41.1671 20.9408 42.3131 21.0736C43.459 21.2065 44.0736 21.1567 44.0736 21.1567C44.0736 21.1567 43.4424 21.4058 42.612 21.4058C42.612 21.4058 44.8209 21.6549 46.133 21.3228C46.133 21.3228 44.0902 22.0867 42.9608 22.1698C42.9608 22.1698 44.6881 22.3525 45.4022 22.3027C45.4022 22.3027 44.223 22.7345 43.4756 22.7013C43.4756 22.7013 44.14 22.8507 45.1863 22.7843C46.2327 22.7179 46.8804 22.6514 46.8804 22.6514C46.8804 22.6514 46.1164 21.8874 45.668 21.8376C46.432 21.738 47.9267 23.0833 48.4084 23.1331L47.6278 22.4854C47.6278 22.4854 48.4582 22.3525 48.8236 22.1366C48.8236 22.1366 47.5779 22.3525 47.3786 22.3525L47.1627 22.2196C47.1627 22.2196 48.6907 22.0369 50.2021 21.3228C51.7301 20.6086 52.6103 19.0142 52.029 17.9844C52.029 17.9844 52.1287 19.3463 51.0823 20.2432C51.0823 20.2432 52.2117 18.6654 51.3315 16.9547C51.3315 16.9547 51.647 18.3498 51.1156 18.7817C51.1156 18.7817 51.4145 18.3166 51.099 17.4696C50.7668 16.6226 48.7738 15.1112 48.7738 15.1112C48.7738 15.1112 47.9766 14.3306 47.4451 12.9022C46.897 11.4905 47.2624 10.3445 47.5447 9.86289C47.8271 9.38124 48.2921 8.81655 48.7572 8.46777C48.7572 8.46777 47.1129 10.9757 48.9897 13.0683C48.9897 13.0683 48.0264 11.1584 48.508 10.2117C48.508 10.2117 48.3419 11.0255 48.8568 11.7064C49.3717 12.3874 50.1855 13.5832 50.1855 13.5832C50.1855 13.5832 50.2021 13.3008 50.036 12.9853C50.036 12.9853 50.6671 13.251 50.7834 15.2773L50.8664 14.1147C50.8664 14.1147 53.7065 16.39 53.6234 17.7851C53.6234 17.7851 53.2913 16.9713 52.6934 16.5893C53.2913 17.3865 53.856 18.8481 53.2747 20.0605C53.2747 20.0605 53.856 19.5456 53.9888 18.8979C53.9888 18.8979 54.0553 20.2432 52.1785 21.7878C52.1785 21.7878 53.1584 21.356 53.5072 20.8909C53.5072 20.8909 53.2248 22.1698 49.9862 23.1497C46.7475 24.1296 42.5456 24.4285 41.9311 24.2625L40.6356 21.057L39.8218 19.3962L39.9713 19.2633Z" fill="#2500C1"/>
<path d="M50.0363 16.4897C50.2024 16.7057 50.3518 16.9548 50.4681 17.2205C50.5179 17.3534 50.5677 17.4863 50.601 17.6357C50.6176 17.7022 50.6342 17.7852 50.6342 17.8516C50.6508 17.9181 50.6508 18.0011 50.6508 18.0676C50.6508 18.3665 50.5677 18.6655 50.4017 18.898C50.3186 19.0142 50.219 19.1305 50.1193 19.2135C50.0031 19.2966 49.9034 19.3796 49.7705 19.4461C49.8702 19.363 49.9698 19.2634 50.0529 19.1637C50.1359 19.0641 50.219 18.9478 50.2688 18.8315C50.3851 18.599 50.4183 18.3333 50.3851 18.0842C50.3518 17.835 50.2688 17.5859 50.1359 17.3534C50.0197 17.1209 49.8702 16.905 49.7041 16.7057L50.0363 16.4897Z" fill="#2500C1"/>
<path d="M50.4514 17.8847C50.4182 17.7186 50.385 17.5692 50.385 17.4031L50.0196 17.5193C50.0528 17.5692 50.0694 17.6854 50.0528 17.8183C50.0362 17.9345 49.9864 18.0674 49.92 18.1837C49.7705 18.4328 49.5546 18.6487 49.2888 18.8314C49.0231 19.0141 48.7408 19.1802 48.4418 19.2964C48.1429 19.4293 47.8107 19.529 47.4951 19.612C47.8273 19.5788 48.1595 19.5456 48.4916 19.4625C48.8238 19.3961 49.156 19.2798 49.4715 19.1304C49.7871 18.9809 50.1027 18.7816 50.3518 18.4826C50.4182 18.4162 50.468 18.3332 50.5179 18.2667C50.5179 18.1671 50.4846 18.0176 50.4514 17.8847Z" fill="#2500C1"/>
<path d="M45.1367 21.0902C45.4523 20.9906 45.7845 20.9076 46.1 20.8411L47.0633 20.6086L48.0266 20.3761C48.3422 20.293 48.6743 20.21 48.9899 20.127C48.7075 20.3096 48.392 20.4591 48.093 20.5754C47.7775 20.6916 47.4619 20.7913 47.1297 20.8743C46.7976 20.9574 46.4654 21.0072 46.1332 21.057C45.8011 21.0736 45.4689 21.0902 45.1367 21.0902Z" fill="#2500C1"/>
<path d="M34.8396 43.6446C34.8396 43.6446 34.7731 42.3824 35.6368 41.4357C36.5004 40.5056 37.663 40.7548 37.8623 41.9506C37.8623 41.9506 37.6298 41.5354 37.1648 41.3361C37.1648 41.3361 37.5966 41.8841 37.1481 43.0467C36.6997 44.2093 35.8029 44.01 35.6866 43.8107C35.6866 43.8107 35.8859 44.5581 36.5336 44.691C36.5336 44.691 35.1717 44.8405 35.0887 43.0301C35.1053 43.0467 34.906 43.2959 34.8396 43.6446Z" fill="#2500C1"/>
<path d="M36.8823 44.3422C36.8823 44.3422 37.4968 44.1263 37.7626 43.4287C38.0117 42.7478 37.7626 42.2661 37.7626 42.2661C37.7626 42.2661 37.8456 43.5284 36.8823 44.3422Z" fill="#2500C1"/>
<path d="M39.2904 45.2889C39.2406 45.4052 39.1576 45.5048 39.0745 45.5878C39.0413 45.6211 38.9915 45.6709 38.9583 45.7041C38.925 45.7373 38.8752 45.7705 38.842 45.8038C38.759 45.8702 38.6759 45.9366 38.6095 46.0031C38.5264 46.0695 38.4434 46.1359 38.3604 46.219C38.4268 46.0031 38.543 45.8204 38.6593 45.6377C38.7257 45.538 38.7756 45.455 38.842 45.3719C38.8918 45.2889 38.9416 45.1892 38.9749 45.1062L39.2904 45.2889Z" fill="#2500C1"/>
<path d="M33.1783 47.7802L32.9624 47.4813C32.9956 47.4647 33.2447 47.2654 33.0454 46.8502L33.3776 46.6841C33.66 47.2488 33.3776 47.6474 33.1783 47.7802Z" fill="#2500C1"/>
<path d="M21.1872 31.6034L20.8218 31.5868C20.8218 31.3045 20.8218 30.9723 20.8218 30.5737C20.8218 29.926 20.8218 29.1121 20.855 28.1322C20.9048 26.6873 21.7186 25.8569 21.9179 25.6742C22.3165 24.2957 23.3629 23.2992 23.5954 23.0999C24.6085 19.6785 26.3192 18.599 26.6514 18.4163L26.8341 18.7484C26.5185 18.9145 24.9241 19.9276 23.9442 23.2493L23.9276 23.2992L23.8777 23.3324C23.8611 23.349 22.6487 24.3787 22.2501 25.807L22.2335 25.8569L22.1837 25.8901C22.1671 25.8901 21.2536 26.6707 21.2038 28.1156C21.1706 29.0789 21.1706 29.8927 21.1706 30.5405C21.2038 30.9723 21.2038 31.3211 21.1872 31.6034Z" fill="#2500C1"/>
<path d="M21.7353 25.0928H21.6356C17.6994 25.0263 15.4905 24.5281 12.5674 23.5648C9.79375 22.6679 8.39863 20.0936 9.24567 17.4695C9.82697 15.6425 11.2055 14.4135 12.3182 13.417C12.7168 13.0516 13.0988 12.7194 13.3978 12.3873C14.494 11.1749 14.7597 8.43445 14.7763 8.40123L14.8095 8.1355L15.0586 8.25176C15.4739 8.46767 17.5167 10.2116 16.4538 12.9187C15.8891 14.3637 15.042 15.3934 14.4441 16.1574C13.9791 16.7221 13.6137 17.1871 13.6801 17.4363C13.8296 18.0176 16.1216 18.9809 18.2807 19.1802L18.4136 19.1968C20.2737 19.3628 20.8882 19.4293 24.0106 18.9975L24.4591 18.931L24.1767 19.2964C24.0937 19.4127 24.0272 19.5289 23.9442 19.6618C23.911 19.7282 23.8612 19.7947 23.8279 19.8611C23.4958 20.376 22.2833 23.0333 21.9346 24.7606C21.918 24.8603 21.8681 24.9433 21.8017 25.0263L21.7353 25.0928ZM15.1085 8.76662C15.0088 9.54722 14.6434 11.5901 13.6801 12.653C13.3646 13.0018 12.9826 13.3506 12.5674 13.716C11.438 14.7291 10.1591 15.8751 9.59445 17.6023C8.81385 20.0272 10.1093 22.3856 12.667 23.216C15.5403 24.1461 17.6994 24.6444 21.5194 24.7274C21.5194 24.7108 21.536 24.6942 21.536 24.6776C21.9013 22.8672 23.1304 20.2099 23.4792 19.6452C23.5124 19.5788 23.5622 19.5123 23.5954 19.4459C23.612 19.4293 23.612 19.4127 23.6286 19.3961C20.8052 19.7781 20.1408 19.7116 18.3471 19.5455L18.2143 19.5289C16.4205 19.3628 13.5473 18.4826 13.2981 17.5193C13.1819 17.0709 13.5639 16.6058 14.1452 15.9083C14.7431 15.1775 15.5569 14.1644 16.0884 12.7859C16.5036 11.7395 16.4538 10.7264 15.9555 9.81296C15.6898 9.33131 15.341 8.96592 15.1085 8.76662Z" fill="#2500C1"/>
<path d="M37.0151 47.9794C36.5999 47.7967 34.0256 46.8334 31.8665 46.8334C29.7074 46.8334 27.133 47.7967 26.7178 47.9794L26.5684 47.6472C27.2659 47.3317 29.8236 46.468 31.8831 46.468C33.9425 46.468 36.5002 47.3317 37.1978 47.6472L37.0151 47.9794Z" fill="#2500C1"/>
<path d="M36.0519 48.6273C35.6201 48.6273 35.0886 48.4446 34.4907 48.2453C33.6935 47.9795 32.7966 47.664 31.8665 47.664C30.9365 47.664 30.023 47.9795 29.2424 48.2453C28.5947 48.4612 28.0466 48.6605 27.5981 48.6273L27.6148 48.2619C27.9801 48.2785 28.5116 48.0958 29.1095 47.8965C29.9399 47.6141 30.87 47.2986 31.8665 47.2986C32.863 47.2986 33.7931 47.6141 34.6235 47.8965C35.2214 48.0958 35.7529 48.2785 36.1183 48.2619L36.1349 48.6273C36.1017 48.6273 36.0851 48.6273 36.0519 48.6273Z" fill="#2500C1"/>
<path d="M42.6622 27.9164C42.413 26.322 41.6324 25.7739 41.6324 25.7739C41.6324 25.7739 41.3999 25.1262 40.9349 24.3124C40.4699 23.4985 39.955 23.1996 39.955 23.1996C39.1412 19.8945 37.198 18.8315 37.198 18.8315C37.198 18.8315 36.2347 18.3997 34.3745 18.5824C32.5144 18.7651 31.85 19.28 31.85 19.28C31.85 19.28 31.2023 18.7651 29.3255 18.5824C27.4654 18.3997 26.5021 18.8315 26.5021 18.8315C26.5021 18.8315 24.5589 19.8945 23.7451 23.1996C23.7451 23.1996 23.2302 23.4985 22.7652 24.3124C22.3001 25.1262 22.0676 25.7739 22.0676 25.7739C22.0676 25.7739 21.287 26.3054 21.0379 27.9164C20.7888 29.5108 20.9881 30.8727 20.9881 30.8727C20.9881 30.8727 21.1542 28.614 21.2372 27.8832C21.3036 27.1524 22.4828 25.9234 23.6454 26.6375C23.6454 26.6375 23.4295 26.322 23.0974 26.1891C22.7652 26.0562 22.6157 26.1227 22.7486 25.8237C22.8814 25.5248 23.9776 24.794 25.8544 24.9767C25.8544 24.9767 25.4225 24.8106 24.7582 24.7276C24.0939 24.6445 23.8613 24.5947 24.2101 24.3456C24.5755 24.0964 25.5886 23.8805 25.9042 23.8639C25.0073 23.6812 23.7285 23.9636 23.2302 24.2625C23.2302 24.2625 23.961 23.4321 26.0205 23.3823C25.5222 23.1165 23.9942 23.3491 23.9942 23.3491C23.9942 23.3491 25.6717 22.1699 28.3456 22.7013C27.6149 22.3193 26.5685 22.2363 26.3692 21.7712C26.1699 21.3062 26.8343 20.2931 28.4287 20.0107C28.4287 20.0107 27.4488 19.8447 26.1533 20.3761C26.1533 20.3761 27.1 19.4461 29.3754 19.363C28.2128 19.0973 27.0336 19.4128 26.3526 19.6952C26.9837 19.1471 27.7976 18.9478 29.3255 18.981C30.8535 19.0142 31.8168 19.9941 31.8168 19.9941C31.8168 19.9941 32.7801 19.0142 34.3081 18.981C35.8361 18.9478 36.6499 19.1471 37.281 19.6952C36.6001 19.3962 35.4375 19.0973 34.2583 19.363C36.5502 19.4461 37.4803 20.3761 37.4803 20.3761C36.1849 19.8613 35.205 20.0107 35.205 20.0107C36.816 20.2931 37.4637 21.2896 37.2644 21.7712C37.0651 22.2363 36.0354 22.3193 35.288 22.7013C37.962 22.1699 39.6394 23.3491 39.6394 23.3491C39.6394 23.3491 38.0948 23.0999 37.6132 23.3823C39.6893 23.4321 40.4034 24.2625 40.4034 24.2625C39.8886 23.9636 38.6097 23.6812 37.7294 23.8639C38.045 23.8805 39.0581 24.0964 39.4235 24.3456C39.7889 24.5947 39.5564 24.6445 38.8754 24.7276C38.2111 24.8106 37.7793 24.9767 37.7793 24.9767C39.656 24.794 40.7356 25.5248 40.8851 25.8237C41.0179 26.1227 40.8685 26.0562 40.5363 26.1891C40.2041 26.322 39.9882 26.6375 39.9882 26.6375C41.1508 25.9068 42.33 27.1524 42.3964 27.8832C42.4629 28.614 42.6456 30.8727 42.6456 30.8727C42.6456 30.8727 42.9279 29.5274 42.6622 27.9164Z" fill="#2500C1"/>
<path d="M32.7301 23.8306C32.5142 23.9967 32.3481 24.0299 32.1654 23.6811C31.9827 23.3323 31.8665 22.6348 31.8665 22.6348C31.8665 22.6348 31.7502 23.3323 31.5675 23.6811C31.3848 24.0299 31.2187 23.9967 31.0028 23.8306C30.7869 23.6645 30.3385 23.4154 30.1226 23.3489C30.1226 23.3489 30.8866 24.0299 31.3184 24.6776C31.7502 25.3253 31.8831 25.8734 31.8831 25.8734C31.8831 25.8734 32.0159 25.3253 32.4477 24.6776C32.8796 24.0299 33.6436 23.3489 33.6436 23.3489C33.3944 23.4154 32.946 23.6645 32.7301 23.8306Z" fill="#2500C1"/>
<path d="M31.8664 20.3927C31.1688 19.5955 30.3218 19.446 30.3218 19.446C31.119 19.8446 31.7169 20.592 31.8664 20.7249C32.0158 20.592 32.6137 19.8446 33.411 19.446C33.3943 19.4627 32.5639 19.5955 31.8664 20.3927Z" fill="#2500C1"/>
<path d="M30.4215 24.5282C30.2222 24.3621 30.0063 24.2126 29.7904 24.0798C29.5745 23.9469 29.3586 23.814 29.1427 23.6978C28.9268 23.5815 28.6942 23.4653 28.4617 23.3656C28.3455 23.3158 28.2292 23.266 28.1129 23.2161C27.9967 23.1663 27.8804 23.1165 27.7476 23.0667C27.8804 23.0833 28.0133 23.0833 28.1296 23.1165C28.2624 23.1497 28.3787 23.1663 28.5115 23.2161C28.7607 23.2826 29.0098 23.3988 29.2423 23.5151C29.4748 23.6313 29.6908 23.7974 29.8901 23.9635C30.106 24.1296 30.2887 24.3123 30.4215 24.5282Z" fill="#2500C1"/>
<path d="M29.3088 24.2624C29.0763 24.1461 28.8438 24.0298 28.5947 23.9136C28.3621 23.7973 28.113 23.6977 27.8805 23.6146C27.6314 23.515 27.3989 23.4319 27.1497 23.3489C26.9006 23.2659 26.6515 23.1994 26.4023 23.1164C26.6681 23.0998 26.9338 23.133 27.1996 23.1828C27.4653 23.2326 27.7144 23.3157 27.9635 23.3987C28.2127 23.4984 28.4618 23.6146 28.6777 23.7475C28.9102 23.897 29.1261 24.0631 29.3088 24.2624Z" fill="#2500C1"/>
<path d="M42.5788 34.2442C42.1304 35.44 40.918 35.9881 40.3035 36.2539C39.772 36.4864 39.0578 37.0012 38.8585 37.3666C38.6592 37.732 38.2108 38.3631 37.7458 38.6455C37.2807 38.9278 37.2475 38.6953 37.2973 38.4628C37.3472 38.2469 37.6627 37.6822 37.8454 36.7023C38.0281 35.7224 37.6461 34.8421 37.6461 34.8421C37.5631 36.6857 37.1645 37.0843 37.0482 37.0677C36.9319 37.0677 36.9485 36.8684 36.9485 36.6857C36.9485 36.503 36.8987 36.2373 36.716 35.3902C36.5333 34.5432 36.7326 33.9951 37.0648 33.829C37.3804 33.6629 37.6461 34.0117 37.6461 34.0117C37.6959 33.7128 37.098 33.2477 37.098 33.2477C38.3603 34.0615 39.39 33.3308 39.39 33.3308C39.1243 33.4138 38.7921 33.3308 38.7921 33.3308C40.2038 32.9322 40.2702 31.6201 40.2702 31.6201C40.1872 31.9024 39.7554 32.5502 38.9416 32.7993C38.1278 33.0484 37.4634 32.7993 37.1977 32.4837C36.9319 32.1682 36.3672 31.7696 36.3672 31.7696C36.3672 31.7696 36.5001 31.753 37.1645 32.1516C37.8454 32.5502 38.3603 32.2346 38.3603 32.2346C37.862 32.2512 37.3638 31.9357 37.4136 31.836C37.4634 31.7364 37.8786 31.7197 38.4433 31.5204C39.7056 31.0554 39.9879 29.7433 39.9879 29.7433C40.0211 29.7267 40.0543 29.7101 40.0876 29.7101C40.0377 30.0589 39.7056 31.5204 38.1942 31.8692C38.1942 31.8692 39.1243 31.919 39.8218 31.0056C40.3367 30.3412 40.4695 29.8928 40.5028 29.6935C40.7353 29.7267 40.9512 29.8098 40.9512 29.8098C40.7021 29.5274 39.772 29.1288 38.9748 29.3946C39.689 28.8465 40.5194 29.0956 40.5194 29.0956C40.5194 29.0956 40.0211 28.7634 39.4896 28.8465C39.9713 28.3814 40.8017 28.8299 40.8017 28.8299C40.6855 28.3316 40.4696 28.1323 40.4696 28.1323C41.5159 28.1655 41.4827 29.5606 41.4827 29.5606C41.4827 29.5606 42.3297 28.0825 41.5491 27.5344C40.7685 26.9863 39.8384 27.7503 39.8384 27.7503C40.154 27.6174 40.5028 27.6341 40.5028 27.6341C40.1706 27.6839 39.6225 28.0991 39.2571 28.4645C38.8917 28.8299 38.0281 29.9592 37.1645 30.5738C36.3008 31.1883 35.2877 31.1384 34.3908 30.5738C33.5106 30.0091 33.0954 29.0624 33.494 28.2153C33.8926 27.3683 34.6234 27.1358 34.6234 27.1358C34.1417 27.086 33.876 27.3517 33.876 27.3517C34.3576 25.9732 35.3043 25.259 35.3043 25.259C34.0587 25.6742 33.0289 28.3648 33.0289 28.3648C32.9293 28.016 32.9957 27.3019 32.9957 27.3019C32.7134 28.2486 32.1653 29.3613 31.8996 29.3613C31.6338 29.3613 31.0857 28.2486 30.8034 27.3019C30.8034 27.3019 30.8532 28.016 30.7702 28.3648C30.7702 28.3648 29.7405 25.6909 28.4948 25.259C28.4948 25.259 29.4415 25.9732 29.9231 27.3517C29.9231 27.3517 29.674 27.086 29.1758 27.1358C29.1758 27.1358 29.9065 27.3683 30.3051 28.2153C30.7037 29.0624 30.2885 30.0091 29.4083 30.5738C28.528 31.1384 27.4983 31.1883 26.6347 30.5738C25.771 29.9592 24.9074 28.8299 24.542 28.4645C24.1766 28.0991 23.6285 27.6839 23.2964 27.6341C23.2964 27.6341 23.6451 27.6174 23.9607 27.7503C23.9607 27.7503 23.0306 26.9863 22.25 27.5344C21.4694 28.0825 22.3165 29.5606 22.3165 29.5606C22.3165 29.5606 22.2832 28.1655 23.3296 28.1323C23.3296 28.1323 23.1137 28.3316 22.9974 28.8299C22.9974 28.8299 23.8278 28.398 24.3095 28.8465C23.7946 28.78 23.2797 29.0956 23.2797 29.0956C23.2797 29.0956 24.1102 28.8299 24.8243 29.3946C24.0271 29.1454 23.0971 29.544 22.8479 29.8098C22.8479 29.8098 23.0472 29.7267 23.2964 29.6935C23.3296 29.8928 23.4458 30.3578 23.9773 31.0056C24.6915 31.9024 25.6049 31.8692 25.6049 31.8692C24.0936 31.5204 23.7614 30.0589 23.7116 29.7101C23.7448 29.7267 23.778 29.7267 23.8112 29.7433C23.8112 29.7433 24.0936 31.0554 25.3558 31.5204C25.9205 31.7364 26.3523 31.7364 26.3855 31.836C26.4354 31.9357 25.9205 32.2678 25.4389 32.2346C25.4389 32.2346 25.9537 32.5502 26.6347 32.1516C27.3156 31.753 27.4319 31.7696 27.4319 31.7696C27.4319 31.7696 26.8838 32.1682 26.6014 32.4837C26.3357 32.7993 25.6714 33.0484 24.8576 32.7993C24.0437 32.5502 23.5953 31.9024 23.5289 31.6201C23.5289 31.6201 23.6119 32.9322 25.007 33.3308C25.007 33.3308 24.6749 33.4138 24.4091 33.3308C24.4091 33.3308 25.4389 34.0615 26.7011 33.2477C26.7011 33.2477 26.1198 33.7128 26.153 34.0117C26.153 34.0117 26.4021 33.6629 26.7343 33.829C27.0499 33.9951 27.2658 34.5266 27.0831 35.3902C26.9004 36.2373 26.8506 36.503 26.8506 36.6857C26.8506 36.8684 26.8672 37.0677 26.7509 37.0677C26.6347 37.0677 26.2361 36.6691 26.153 34.8421C26.153 34.8421 25.771 35.7058 25.9537 36.7023C26.1364 37.6822 26.452 38.2469 26.5018 38.4628C26.5516 38.6787 26.5184 38.9278 26.0534 38.6455C25.5883 38.3631 25.1233 37.7486 24.9406 37.3666C24.7413 37.0012 24.0437 36.4864 23.4957 36.2539C22.8645 35.9881 21.6687 35.44 21.2203 34.2442L21.0376 34.2276C21.0376 34.2276 21.6355 35.7888 22.6984 36.503L23.4126 37.0677C23.4126 37.0677 24.0437 39.8745 24.924 41.253L24.7081 41.3029L24.7579 42.8807C24.7579 42.8807 24.8742 43.7443 25.4222 44.2758C25.0901 43.3125 25.2395 41.9008 26.0201 40.3728C26.8007 38.8448 28.6111 38.0642 30.355 38.7784C30.1058 38.496 29.1425 38.3133 28.6111 37.9313C28.0796 37.5327 27.7807 36.4366 27.8471 35.9217C27.5149 36.3369 27.3654 37.5161 27.3488 37.9313C27.1163 37.1673 27.3488 35.9549 27.7973 35.4068C27.98 35.656 28.5114 36.038 28.5114 36.6193C28.7439 35.7722 27.9633 34.6761 27.9135 33.746C27.8637 32.8159 28.063 32.3841 28.2125 32.1516C27.9966 32.9654 28.0298 34.1446 28.4782 34.4269C28.0962 33.364 28.4284 32.4007 28.9765 31.6699C29.5245 30.9391 30.5377 30.5405 30.5377 30.5405C30.5377 30.5405 29.591 31.1218 29.0097 31.9523C28.4118 32.7827 28.7439 33.5633 28.7439 33.5633C28.7439 33.5633 28.6775 32.7827 29.2754 32.0851C29.8733 31.3876 30.9695 30.8395 31.4179 30.8893C31.8663 30.9391 31.9328 31.2879 31.9328 31.2879C31.9328 31.2879 31.9992 30.9558 32.4476 30.8893C32.8961 30.8395 33.9922 31.3876 34.5901 32.0851C35.188 32.7827 35.1216 33.5633 35.1216 33.5633C35.1216 33.5633 35.4372 32.7827 34.8559 31.9523C34.258 31.1218 33.3279 30.5405 33.3279 30.5405C33.3279 30.5405 34.341 30.9391 34.8891 31.6699C35.4372 32.4007 35.7693 33.364 35.3873 34.4269C35.8358 34.1446 35.8524 32.9654 35.6531 32.1516C35.8026 32.3841 36.0019 32.8159 35.952 33.746C35.9022 34.6761 35.1382 35.7888 35.3541 36.6193C35.3541 36.0213 35.8856 35.6394 36.0683 35.4068C36.5001 35.9549 36.7492 37.1673 36.5167 37.9313C36.5001 37.5161 36.3506 36.3369 36.0185 35.9217C36.0849 36.4366 35.786 37.5327 35.2545 37.9313C34.723 38.3299 33.7597 38.496 33.5106 38.7784C35.2379 38.0642 37.0648 38.8448 37.8454 40.3728C38.626 41.9008 38.7755 43.3125 38.4433 44.2758C38.9914 43.7443 39.1077 42.8807 39.1077 42.8807L39.1575 41.3029L38.9416 41.253C39.8218 39.8745 40.4529 37.0677 40.4529 37.0677L41.1671 36.503C42.2301 35.7888 42.828 34.2276 42.828 34.2276L42.5788 34.2442ZM37.9783 30.3246C38.244 30.0589 39.008 29.5606 39.5727 29.7599C39.5727 29.7599 39.39 30.5239 38.6592 30.9724C37.9118 31.4208 37.4966 31.2381 37.3305 30.9225C37.3139 30.9225 37.7125 30.5904 37.9783 30.3246ZM25.0735 30.9724C24.3261 30.5239 24.16 29.7599 24.16 29.7599C24.7247 29.5606 25.4887 30.0589 25.7544 30.3246C26.0202 30.5904 26.4188 30.9225 26.4188 30.9225C26.2361 31.2381 25.8208 31.4042 25.0735 30.9724ZM30.5211 30.1752C30.5211 30.1752 30.8532 29.8596 30.9197 29.1786C30.9197 29.1786 31.202 29.8264 30.5211 30.1752ZM32.7964 29.1786C32.8629 29.8596 33.195 30.1752 33.195 30.1752C32.5307 29.8264 32.7964 29.1786 32.7964 29.1786Z" fill="#2500C1"/>
<path d="M20.7056 33.3474C20.7222 33.2478 20.7388 33.1647 20.7554 33.0651C20.772 32.982 20.7886 32.8824 20.8218 32.7993C20.8717 32.6167 20.9381 32.4506 21.0045 32.2845C21.1374 31.9523 21.3035 31.6367 21.4197 31.3046C21.536 30.9724 21.6356 30.6402 21.6855 30.2915L21.7187 30.0257C21.7353 29.9427 21.7353 29.843 21.7353 29.76V29.6271V29.4943V29.2285L21.7685 29.3614L21.7851 29.4943L21.8017 29.6271L21.8183 29.76C21.8183 29.843 21.8349 29.9427 21.8349 30.0257L21.8516 30.2915C21.8516 30.3911 21.8516 30.4742 21.8349 30.5738C21.8349 30.6236 21.8349 30.6735 21.8183 30.7067L21.8017 30.8395C21.7685 31.0222 21.7353 31.2049 21.6855 31.3876C21.5858 31.7364 21.4529 32.0852 21.3201 32.4007C21.2536 32.5668 21.2038 32.7163 21.1706 32.8824C21.154 32.9654 21.1374 33.0485 21.1042 33.1315C21.1042 33.1647 21.0876 33.2146 21.0876 33.2478L21.071 33.364L20.7056 33.3474Z" fill="#2500C1"/>
<path d="M25.3892 25.6409C25.3892 25.6409 25.7213 25.8568 26.2694 25.9896C26.8175 26.1225 27.1331 26.5211 27.2991 26.7536C27.4652 26.9695 28.0631 27.3183 28.5448 27.3682C28.5448 27.3682 28.0631 27.2187 27.7476 26.8699C27.4486 26.5211 27.1995 26.2222 27.0334 26.1391C27.0334 26.1391 27.5981 26.272 27.9137 26.737C27.9137 26.737 27.7642 26.1557 26.9836 25.8236C26.203 25.4914 25.821 25.7571 25.3892 25.6409Z" fill="#2500C1"/>
<path d="M29.3089 27.9994C29.3089 27.9994 28.8272 28.1157 28.2792 27.8997C27.7145 27.7004 27.4321 27.1025 27.4321 27.1025C27.4321 27.1025 28.3456 27.8167 29.3089 27.9994Z" fill="#2500C1"/>
<path d="M30.0558 28.4645C30.0558 28.4645 30.3714 29.6105 29.2254 30.3413C28.0794 31.0721 26.8006 30.4243 26.6677 30.3413C26.6677 30.3413 27.4151 30.524 27.9465 30.4077C27.9465 30.4077 26.7341 30.3579 26.1362 29.6936C25.5217 29.0458 25.0401 28.4977 24.7245 28.1324C24.4089 27.7836 23.6615 27.0362 22.665 27.0528C22.665 27.0528 23.1965 26.7705 24.0269 27.2189C24.8574 27.6507 25.3224 28.1988 25.6712 28.3649C26.0033 28.531 26.6179 28.5808 26.9334 28.4147C26.9334 28.4147 27.2988 29.378 28.2953 29.6105C28.2953 29.6105 27.4815 29.1289 27.2656 28.4811C27.2656 28.4811 28.1292 29.4278 29.0925 29.4943C29.0925 29.4943 28.2455 29.1953 27.9299 28.6306C27.9299 28.6306 28.5777 29.2451 29.2752 29.1455C29.923 29.0458 30.0392 28.5642 30.0558 28.4645Z" fill="#2500C1"/>
<path d="M25.223 37.3831C24.9905 36.835 24.4922 36.2039 23.2632 35.7222C22.0342 35.2572 21.5193 34.1777 21.5857 33.314C21.6522 32.4338 21.9013 31.8026 21.8349 31.4373C21.8349 31.4373 22.0176 31.703 21.9844 32.2345C21.9844 32.2345 22.2667 31.6366 22.6819 31.4373C22.4162 31.9023 22.2833 32.4338 22.5324 32.9818C22.7816 33.5299 23.4127 34.2109 24.0106 34.3936C23.2798 34.377 22.6985 33.7957 22.6985 33.7957C22.6985 33.7957 23.2134 34.6759 24.2431 34.9416C24.2431 34.9416 23.4957 35.0081 22.931 34.5763C22.931 34.5763 23.994 35.5229 25.2562 35.5396C25.2562 35.5396 24.9074 35.7555 24.5753 35.7222C24.5753 35.7056 25.3227 36.5028 25.223 37.3831Z" fill="#2500C1"/>
<path d="M26.1533 19.0143C26.1533 19.0143 24.9907 18.6987 24.3097 18.9478L23.7949 19.5125L22.7319 21.7048C22.7319 21.7048 22.815 21.9872 23.0143 21.5055C23.2136 21.0239 23.8945 19.9942 24.5423 19.8115C25.19 19.6454 25.5554 19.8281 25.5554 19.8281L26.1533 19.0143Z" fill="#2500C1"/>
<path d="M20.0078 26.1559C18.4633 26.3054 17.5996 25.7241 17.5996 25.7241C19.2605 25.9732 20.3566 25.5746 20.8217 25.4252C21.2867 25.2757 21.8016 24.8106 21.8016 24.8106C21.8016 24.8106 22.1171 23.7643 22.2334 23.4155C22.3496 23.0667 23.014 21.655 23.6617 21.0903C23.2631 21.9374 22.9143 23.1996 22.9143 23.1996C23.2797 22.2363 23.9441 21.4723 23.9441 21.4723C23.6783 22.2695 23.6285 23.1332 23.6451 23.2328L22.9309 24.0633L22.3995 25.2258C22.3995 25.2258 22.6652 26.2556 21.3531 26.704C20.0411 27.1524 18.1145 26.322 18.1145 26.322C18.9947 26.5545 20.0078 26.1559 20.0078 26.1559ZM21.9344 25.4085C22.0673 25.0265 21.9676 24.8272 21.9676 24.8272C21.9676 24.8272 21.8182 25.3919 21.4196 25.7739C21.4196 25.7739 21.8016 25.7905 21.9344 25.4085Z" fill="#2500C1"/>
<path d="M8.28223 30.4408L8.84692 29.5439C10.7237 27.8665 13.6966 27.2021 15.8391 27.1025C17.9816 27.0028 18.7456 27.6339 18.7456 27.6339C18.7456 27.6339 17.7491 27.3848 17.1844 27.5509C17.5664 27.5675 18.1809 28.0492 19.4431 28.3315C20.7054 28.6304 20.9877 28.3979 20.9877 28.3979V29.3944C20.9877 29.3944 21.1206 30.1584 20.8881 30.8228C20.6722 31.4705 17.4667 32.6331 17.4667 32.6331L17.0183 32.5002C17.0183 32.5002 18.5297 31.8691 19.5594 31.2712C20.5891 30.6733 20.6556 30.2083 20.6556 30.2083C20.3732 30.391 19.2604 30.5903 19.2604 30.5903C19.7089 30.6733 20.3732 30.5404 20.3732 30.5404C20.3732 30.5404 19.4265 31.3376 17.7823 31.2048C16.138 31.0553 15.2578 30.0754 15.2578 30.0754C15.9221 30.5072 17.3671 30.2581 17.3671 30.2581C17.3671 30.2581 16.7858 30.1252 15.4405 29.8263C14.0952 29.5107 12.0191 29.9093 12.0191 29.9093C12.9658 29.3778 14.7928 29.245 14.7928 29.245C12.6503 29.0124 10.4081 30.0256 10.4081 30.0256C12.7831 28.2651 16.9353 28.3149 16.9353 28.3149C14.2281 27.0028 9.84343 29.7266 9.84343 29.7266C10.1922 29.3944 11.0392 28.7633 11.0392 28.7633C10.0593 29.1121 8.53135 30.3743 8.53135 30.3743L8.28223 30.4408ZM20.1905 29.0789C19.0611 28.5474 17.8321 28.9294 17.8321 28.9294C19.111 29.2616 20.1905 29.0789 20.1905 29.0789Z" fill="#2500C1"/>
<path d="M21.1871 27.169C21.1871 27.169 20.722 27.4514 20.2238 27.3849C19.7255 27.3019 18.729 26.9863 18.729 26.9863C18.729 26.9863 19.576 27.5012 19.9082 27.7503C20.2404 27.9828 20.7552 28.1821 21.0708 28.0327L21.1871 27.169Z" fill="#2500C1"/>
<path d="M18.0481 26.8369C17.5997 26.7373 17.1513 26.6874 16.7028 26.6542C16.2544 26.621 15.806 26.621 15.3742 26.6376C15.1582 26.6542 14.9257 26.6708 14.7098 26.704C14.4939 26.7207 14.2614 26.7705 14.0455 26.8037C13.6137 26.8867 13.1652 26.9864 12.7168 27.1026C13.0988 26.8535 13.5306 26.6542 13.979 26.5213C14.195 26.4549 14.4275 26.3885 14.66 26.3553C14.7763 26.3387 14.8925 26.322 15.0088 26.3054C15.125 26.2888 15.2413 26.2888 15.3575 26.2722C15.8226 26.239 16.2876 26.2722 16.7527 26.3719C16.9852 26.4217 17.2011 26.4715 17.417 26.5546C17.5333 26.5878 17.6329 26.6376 17.7326 26.6874C17.8488 26.7207 17.9485 26.7705 18.0481 26.8369Z" fill="#2500C1"/>
<path d="M8.64754 30.4243C8.89667 30.5738 9.16241 30.6901 9.44475 30.7731C9.7271 30.8561 10.026 30.9226 10.325 30.9724C10.624 31.0222 10.9229 31.0388 11.2385 31.0554C11.5374 31.072 11.853 31.072 12.1685 31.072C11.8696 31.1551 11.554 31.2049 11.2385 31.2381C10.9229 31.2713 10.6073 31.288 10.2918 31.2714C9.97622 31.2547 9.66066 31.2049 9.3451 31.1219C9.02954 31.0388 8.73059 30.9226 8.44824 30.7233L8.64754 30.4243Z" fill="#2500C1"/>
<path d="M18.4301 31.4873C18.1976 31.67 17.9152 31.7697 17.6495 31.8527C17.3672 31.9357 17.0848 31.9856 16.8025 32.0188C16.5201 32.052 16.2378 32.0686 15.9388 32.0686C15.7894 32.0686 15.6565 32.052 15.507 32.0354C15.3575 32.0188 15.2247 32.0022 15.0752 31.9523C15.2247 31.9357 15.3575 31.9191 15.507 31.9025L15.9222 31.8527L16.7527 31.753C17.035 31.7198 17.3007 31.6866 17.5831 31.6368C17.882 31.6036 18.1478 31.5537 18.4301 31.4873Z" fill="#2500C1"/>
<path d="M23.7449 19.2633C23.7449 19.2633 23.4626 19.7283 22.4328 19.8944C21.3865 20.0605 19.7257 19.8944 19.7257 19.8944C19.7257 19.8944 20.5727 20.1934 21.6855 20.1934C22.8148 20.1934 22.9643 20.4093 22.9643 20.4923C22.9643 20.592 22.5491 20.9408 21.4031 21.0736C20.2571 21.2065 19.6426 21.1567 19.6426 21.1567C19.6426 21.1567 20.2737 21.4058 21.1042 21.4058C21.1042 21.4058 18.8952 21.6549 17.5832 21.3228C17.5832 21.3228 19.626 22.0867 20.7554 22.1698C20.7554 22.1698 19.0281 22.3525 18.3139 22.3027C18.3139 22.3027 19.4931 22.7345 20.2405 22.7013C20.2405 22.7013 19.5762 22.8507 18.5298 22.7843C17.4835 22.7179 16.8358 22.6514 16.8358 22.6514C16.8358 22.6514 17.5998 21.8874 18.0482 21.8376C17.2842 21.738 15.7894 23.0833 15.3078 23.1331L16.0884 22.4854C16.0884 22.4854 15.258 22.3525 14.8926 22.1366C14.8926 22.1366 16.1382 22.3525 16.3375 22.3525L16.5534 22.2196C16.5534 22.2196 15.0255 22.0369 13.5141 21.3228C11.9861 20.6086 11.1058 19.0142 11.6871 17.9844C11.6871 17.9844 11.5875 19.3463 12.6338 20.2432C12.6338 20.2432 11.5045 18.6654 12.3847 16.9547C12.3847 16.9547 12.0691 18.3498 12.6006 18.7817C12.6006 18.7817 12.3017 18.3166 12.6172 17.4696C12.9494 16.6226 14.9424 15.1112 14.9424 15.1112C14.9424 15.1112 15.7396 14.3306 16.2711 12.9022C16.8192 11.4905 16.4538 10.3445 16.1714 9.86289C15.8891 9.38124 15.4241 8.81655 14.959 8.46777C14.959 8.46777 16.6033 10.9757 14.7265 13.0683C14.7265 13.0683 15.6898 11.1584 15.2081 10.2117C15.2081 10.2117 15.3742 11.0255 14.8594 11.7064C14.3445 12.3874 13.5307 13.5832 13.5307 13.5832C13.5307 13.5832 13.5141 13.3008 13.6802 12.9853C13.6802 12.9853 13.049 13.251 12.9328 15.2773L12.8497 14.1147C12.8497 14.1147 10.0097 16.39 10.0927 17.7851C10.0927 17.7851 10.4249 16.9713 11.0228 16.5893C10.4249 17.3865 9.86021 18.8481 10.4415 20.0605C10.4415 20.0605 9.86021 19.5456 9.72734 18.8979C9.72734 18.8979 9.66091 20.2432 11.5377 21.7878C11.5377 21.7878 10.5578 21.356 10.209 20.8909C10.209 20.8909 10.4913 22.1698 13.73 23.1497C16.9686 24.1296 21.1706 24.4285 21.7851 24.2625L23.0806 21.057L23.8944 19.3962L23.7449 19.2633Z" fill="#2500C1"/>
<path d="M14.0121 16.689C13.8792 16.9216 13.7463 17.1375 13.6467 17.37C13.5304 17.6025 13.4474 17.835 13.4142 18.0676C13.3976 18.1838 13.3976 18.3167 13.4142 18.4329C13.4308 18.5492 13.464 18.6821 13.5138 18.7983C13.6135 19.0308 13.7796 19.2468 13.9622 19.4461C13.846 19.3796 13.7463 19.2966 13.6467 19.1969C13.547 19.0973 13.464 18.9976 13.3809 18.8814C13.2315 18.6489 13.165 18.3499 13.165 18.0676C13.165 17.7852 13.2315 17.5029 13.3477 17.2371C13.4474 16.9714 13.5803 16.7223 13.7131 16.4897L14.0121 16.689Z" fill="#2500C1"/>
<path d="M13.2647 17.8847C13.2979 17.7186 13.3311 17.5692 13.3311 17.4031L13.6965 17.5193C13.6633 17.5692 13.6467 17.6854 13.6633 17.8183C13.6799 17.9345 13.7297 18.0674 13.7961 18.1837C13.9456 18.4328 14.1615 18.6487 14.4273 18.8314C14.693 19.0141 14.9754 19.1802 15.2743 19.2964C15.5733 19.4293 15.9054 19.529 16.221 19.612C15.8888 19.5788 15.5566 19.5456 15.2245 19.4625C14.8923 19.3961 14.5601 19.2798 14.2446 19.1304C13.929 18.9809 13.6135 18.7816 13.3643 18.4826C13.2979 18.4162 13.2481 18.3332 13.1982 18.2667C13.2149 18.1671 13.2315 18.0176 13.2647 17.8847Z" fill="#2500C1"/>
<path d="M18.5963 21.0903C18.2642 21.1069 17.9154 21.0736 17.5832 21.0404C17.2511 21.0072 16.9189 20.9408 16.5867 20.8577C16.2545 20.7747 15.939 20.6916 15.6234 20.5588C15.3079 20.4425 14.9923 20.293 14.7266 20.1104C15.0587 20.1934 15.3743 20.2764 15.6899 20.3595L16.6532 20.592L17.6164 20.8245C17.9486 20.9076 18.2642 20.9906 18.5963 21.0903Z" fill="#2500C1"/>
<path d="M32.5142 39.1935C32.398 38.9278 32.946 38.4129 33.5439 38.197C34.1418 37.9811 34.8394 37.815 34.8394 37.815C34.8394 37.815 34.092 37.815 33.4277 37.898C32.7633 37.9977 32.4478 38.197 31.8665 38.197C31.2852 38.197 30.9696 37.9977 30.3053 37.898C29.6409 37.7984 28.8936 37.815 28.8936 37.815C28.8936 37.815 29.5911 37.9811 30.189 38.197C30.7869 38.4129 31.3184 38.9278 31.2187 39.1935C31.0527 39.6087 29.807 38.961 29.342 39.2433C29.342 39.2433 29.7074 39.1603 30.4049 39.5423C31.1025 39.9077 31.717 39.9409 31.8665 39.9409C32.016 39.9409 32.6305 39.9077 33.328 39.5423C34.0256 39.1769 34.391 39.2433 34.391 39.2433C33.9259 38.961 32.6803 39.6253 32.5142 39.1935Z" fill="#2500C1"/>
<path d="M37.8786 46.4515C39.1906 44.4917 38.8419 44.0101 38.8419 44.0101C38.3768 45.4218 37.264 45.5713 37.264 45.5713C38.0613 45.0066 37.9948 44.226 37.9948 44.226C37.8786 44.6246 37.1976 45.2889 36.2343 45.1394C35.271 44.99 34.8392 44.0433 34.8392 44.0433C34.6565 44.2094 34.5403 44.5582 34.5403 44.5582C34.5403 44.5582 34.1583 43.5782 34.7894 42.1665C35.4039 40.7548 36.4336 40.4558 36.4336 40.4558C35.7859 40.406 34.9222 41.0039 34.5735 41.7015C34.2413 42.3658 33.8427 43.0468 33.8427 43.0468L34.1416 42.1831C34.0088 42.3824 33.361 42.9637 33.1784 42.8973C32.9957 42.8309 32.9458 42.1665 32.9458 41.8842C32.9458 41.6018 33.0953 40.5555 34.0088 40.0739C34.9222 39.5922 35.7195 39.7749 35.7195 39.7749C35.2046 39.3597 34.0586 39.4926 33.3943 39.7749C32.7299 40.0572 32.1652 40.2233 31.8663 40.2233C31.5673 40.2233 31.0026 40.0572 30.3383 39.7749C29.674 39.4926 28.528 39.3597 28.0131 39.7749C28.0131 39.7749 28.8103 39.5922 29.7238 40.0739C30.6373 40.5555 30.7867 41.6018 30.7867 41.8842C30.7867 42.1665 30.7369 42.8309 30.5542 42.8973C30.3715 42.9637 29.7238 42.3824 29.5909 42.1831L29.8899 43.0468C29.8899 43.0468 29.4913 42.3658 29.1591 41.7015C28.8103 41.0039 27.9467 40.406 27.2989 40.4558C27.2989 40.4558 28.3287 40.7548 28.9432 42.1665C29.5577 43.5782 29.1923 44.5582 29.1923 44.5582C29.1923 44.5582 29.0761 44.226 28.8934 44.0433C28.8934 44.0433 28.4615 44.99 27.4982 45.1394C26.535 45.2889 25.854 44.6246 25.7377 44.226C25.7377 44.226 25.6547 45.0066 26.4685 45.5713C26.4685 45.5713 25.3557 45.4384 24.8907 44.0101C24.8907 44.0101 24.5585 44.4917 25.854 46.4515C25.854 46.4515 25.5384 46.8003 25.007 46.3187C25.007 46.3187 25.4222 47.2487 26.535 46.8833C26.535 46.8833 26.4021 47.3318 26.8173 47.6141L27.1162 47.5145C27.1162 47.5145 26.8505 47.3484 26.8339 47.066C26.8173 46.7837 27.0332 46.4681 27.3322 46.4183C27.1827 46.5678 27.1661 46.7505 27.1661 46.7505C27.1661 46.7505 28.4449 46.3685 29.5577 46.0031C30.6705 45.6377 31.6504 45.5381 31.8829 45.5381C32.1154 45.5381 33.0953 45.6211 34.2081 46.0031C35.3209 46.3685 36.5997 46.7505 36.5997 46.7505C36.5997 46.7505 36.5831 46.5678 36.4336 46.4183C36.7326 46.4681 36.9485 46.7837 36.9319 47.066C36.9153 47.3484 36.6495 47.5145 36.6495 47.5145L36.9485 47.6141C37.3637 47.3318 37.2308 46.8833 37.2308 46.8833C38.3436 47.2653 38.7588 46.3187 38.7588 46.3187C38.1941 46.8003 37.8786 46.4515 37.8786 46.4515Z" fill="#2500C1"/>
<path d="M28.8934 43.6446C28.8934 43.6446 28.9598 42.3824 28.0961 41.4357C27.2325 40.5056 26.0699 40.7548 25.8706 41.9506C25.8706 41.9506 26.1031 41.5354 26.5682 41.3361C26.5682 41.3361 26.1363 41.8841 26.5848 43.0467C27.0332 44.2093 27.9301 44.01 28.0463 43.8107C28.0463 43.8107 27.847 44.5581 27.1993 44.691C27.1993 44.691 28.5612 44.8405 28.6442 43.0301C28.6276 43.0467 28.8103 43.2959 28.8934 43.6446Z" fill="#2500C1"/>
<path d="M26.8342 44.3422C26.8342 44.3422 26.2197 44.1263 25.954 43.4287C25.7049 42.7478 25.954 42.2661 25.954 42.2661C25.954 42.2661 25.8876 43.5284 26.8342 44.3422Z" fill="#2500C1"/>
<path d="M24.758 45.1228C24.8078 45.1892 24.8576 45.2723 24.924 45.3553L25.0237 45.4882C25.0569 45.538 25.0901 45.5712 25.1233 45.6211C25.1898 45.7041 25.2396 45.8037 25.2894 45.92C25.3392 46.0197 25.3725 46.1359 25.3725 46.2522C25.2562 46.0695 25.0901 45.92 24.924 45.7871C24.841 45.7207 24.758 45.6543 24.6749 45.5712C24.5919 45.4882 24.5088 45.4051 24.4258 45.3055L24.758 45.1228Z" fill="#2500C1"/>
<path d="M34.5736 48.0791L33.3944 47.6805L32.8796 47.5311L32.1488 47.4812L31.8498 47.3982L31.5509 47.4812L30.8201 47.5311L30.3052 47.6805L29.126 48.0791L27.814 48.4445L27.8638 48.594C28.1794 48.5608 28.6776 49.0258 28.9766 49.3248C29.2755 49.6237 29.6077 49.6736 30.1392 49.5905C30.6706 49.5241 30.9696 49.3746 31.5343 49.4244C31.335 49.2916 30.8367 49.1587 30.5378 49.0756C30.2222 48.9926 29.9232 48.7103 29.9897 48.4445C30.0561 48.1788 31.1523 47.6971 31.8498 47.6971C32.5474 47.6971 33.6602 48.1788 33.71 48.4445C33.7764 48.7103 33.4775 48.9926 33.1619 49.0756C32.8463 49.1587 32.3481 49.275 32.1654 49.4244C32.7301 49.3746 33.029 49.5241 33.5605 49.5905C34.092 49.6569 34.4408 49.6071 34.7231 49.3248C35.0221 49.0258 35.5037 48.5608 35.8359 48.594L35.8857 48.4445L34.5736 48.0791Z" fill="#2500C1"/>
<path d="M30.5543 47.7802L30.7702 47.4813C30.737 47.4647 30.4879 47.2654 30.6872 46.8502L30.355 46.6841C30.056 47.2488 30.355 47.6474 30.5543 47.7802Z" fill="#2500C1"/>
<path d="M31.8664 45.8535C30.5045 45.8535 28.9932 46.6175 28.9932 46.6175C29.8734 46.2687 31.3682 46.1525 31.8664 46.1525C32.3647 46.1525 33.8761 46.2521 34.7397 46.6175C34.7397 46.6175 33.2283 45.8535 31.8664 45.8535Z" fill="#2500C1"/>
<path d="M32.1652 34.6429C31.9659 34.4269 31.8662 33.9785 31.8662 33.9785C31.8662 33.9785 31.7666 34.4269 31.5672 34.6429C31.3679 34.8588 30.77 34.9916 30.7202 35.1411C30.8697 35.0082 31.5672 34.9252 31.8662 34.9252C32.1652 34.9252 32.8627 35.0082 33.0122 35.1411C32.9624 34.9916 32.3478 34.8588 32.1652 34.6429Z" fill="#2500C1"/>
<path d="M29.3421 8.91612C29.8735 9.18185 30.2389 9.72994 30.2389 10.3611C30.2389 11.2579 29.5248 11.9721 28.6279 11.9721C27.731 11.9721 27.0169 11.2579 27.0003 10.3611C27.0003 9.91263 27.183 9.51402 27.4653 9.23168L24.5754 6.37502L24.2433 10.2946C24.9906 10.4275 25.5719 11.0918 25.5719 11.8724C25.5719 12.7693 24.8578 13.4835 23.9609 13.4835C23.1305 13.4835 22.4495 12.8689 22.3499 12.0717L19.3438 11.6399L22.6488 15.4765L31.7669 13.0184L31.7503 4L29.3421 8.91612Z" fill="url(#paint0_linear_318_2874)"/>
<path d="M31.7832 13.0353L31.7666 4.01685L34.2081 8.89975C33.6766 9.16548 33.3112 9.71356 33.3112 10.3447C33.3112 11.2415 34.042 11.9557 34.9388 11.9557C35.8357 11.9557 36.5499 11.2249 36.5499 10.3447C36.5499 9.89626 36.3672 9.49765 36.0848 9.21531L38.9747 6.34204L39.3235 10.2616C38.5761 10.3945 37.9948 11.0589 37.9948 11.8561C37.9948 12.7529 38.7256 13.4671 39.6224 13.4671C40.4529 13.4671 41.1172 12.8526 41.2168 12.0554L44.2064 11.6235L40.9179 15.4767L31.7832 13.0353Z" fill="url(#paint1_linear_318_2874)"/>
<path d="M41.2168 12.0385C41.1172 12.8357 40.4362 13.4502 39.6224 13.4502C38.7256 13.4502 38.0114 12.7361 37.9948 11.8392C37.9948 11.042 38.5595 10.3777 39.3235 10.2448L38.9747 6.32519L36.0848 9.19846C36.3672 9.49742 36.5499 9.89602 36.5499 10.3278C36.5499 11.2247 35.8357 11.9389 34.9388 11.9389C34.042 11.9389 33.3278 11.2247 33.3112 10.3278C33.3112 9.69672 33.6766 9.14864 34.2081 8.8829L31.7666 4L31.7832 13.0184L31.7666 5.44494L33.4441 8.70021C32.979 9.11542 32.7133 9.69672 32.7133 10.3444C32.7133 11.5569 33.7098 12.5534 34.9388 12.5534C36.1679 12.5534 37.1478 11.5569 37.1478 10.3278C37.1478 9.94585 37.0481 9.58046 36.8654 9.24829L38.493 7.63726L38.6923 9.81298C37.9284 10.1618 37.4135 10.9424 37.4135 11.8226C37.4135 13.035 38.41 14.0315 39.639 14.0315C40.5857 14.0315 41.4161 13.417 41.8147 12.8191L42.8279 12.6696L42.1137 14.0648L40.9345 15.4433L44.223 11.5901L41.2168 12.0385Z" fill="url(#paint2_linear_318_2874)"/>
<path d="M22.3663 16.307L26.3524 13.6496L31.8 13.2178L37.2476 13.6164L41.2336 16.2571L41.5326 16.8384C41.5326 16.8384 40.1707 18.001 40.1707 19.2301L31.8 17.2702L23.4459 19.2799C23.4459 18.0508 22.0674 16.8883 22.0674 16.8883L22.3663 16.307Z" fill="url(#paint3_linear_318_2874)"/>
<path d="M37.2475 13.6164L31.8 13.2178L26.3524 13.6496L24.4258 14.9451L24.4424 15.0945C26.8838 13.8655 32.182 13.4337 33.6767 14.8288C34.8393 15.925 34.8227 17.2702 31.8166 17.2869L40.1873 19.2467C40.1873 18.0176 41.5491 16.855 41.5491 16.855L41.2502 16.2737L37.2475 13.6164Z" fill="url(#paint4_linear_318_2874)"/>
<path d="M41.2337 16.2737L37.2477 13.633L31.8001 13.2344L26.3525 13.6662L24.0938 15.1776C26.0037 14.2475 28.5448 13.6662 31.3517 13.6662C35.8027 13.6496 39.6227 15.0945 41.2669 17.1374C41.433 16.9713 41.5493 16.8716 41.5493 16.8716L41.2337 16.2737Z" fill="url(#paint5_linear_318_2874)"/>
<path d="M31.7833 12.3708C31.6338 12.3708 31.4844 12.3708 31.3349 12.3708C27.598 12.3875 24.2763 13.3175 22.167 14.9286L22.6652 15.4932L24.3261 15.0448C25.6548 14.4303 27.2492 13.9819 29.0263 13.7826L31.7999 13.0352L31.7833 12.3708Z" fill="url(#paint6_linear_318_2874)"/>
<path d="M31.8 13.5334C36.2179 13.5168 40.0046 14.8953 41.5492 16.8385C42.0475 16.39 41.7153 15.6759 41.516 15.46C39.5728 13.5998 35.9521 12.3542 31.8 12.3708C27.6479 12.3874 24.0438 13.6496 22.1006 15.5098C21.9013 15.7091 21.5858 16.4399 22.0674 16.8883C23.5954 14.9451 27.3655 13.55 31.8 13.5334Z" fill="url(#paint7_linear_318_2874)"/>
<path d="M24.0438 20.3264C24.0438 20.1105 24.2265 19.8946 24.5752 19.6953C25.7046 19.0641 28.5115 18.5991 31.7999 18.5991C36.0849 18.5825 39.5561 19.3465 39.5561 20.2932C39.5561 20.4593 39.9215 20.343 39.7222 20.4925C40.3699 20.1603 40.2703 20.0274 40.2703 19.6288C40.2703 19.197 39.8551 18.7984 39.1243 18.4496C37.6627 17.7521 34.9223 17.2704 31.7833 17.287C27.0997 17.3036 23.313 18.3666 23.313 19.6787" fill="url(#paint8_linear_318_2874)"/>
<path d="M39.8387 20.2764C40.2207 20.0771 39.9383 20.3262 40.1044 20.0937C40.1044 20.0771 40.1044 20.0438 40.1044 20.0272C40.1044 18.8314 36.4672 17.8681 31.9995 17.8847C28.5781 17.9013 25.655 18.466 24.4758 19.2632C24.3097 19.3795 24.1935 19.4958 24.0938 19.612C24.0772 19.6286 24.0606 19.6618 24.044 19.6785C24.044 19.6785 24.044 19.6951 24.0274 19.6951C24.0108 19.7283 23.9942 19.7615 23.9776 19.7947C23.9776 19.8113 23.961 19.8279 23.961 19.8445C23.961 19.8611 23.9443 19.8778 23.9443 19.8778C23.9443 19.8944 23.9277 19.911 23.9277 19.9276C23.9277 19.9442 23.9277 19.9442 23.9277 19.9608C23.9277 19.994 23.9277 20.0272 23.9277 20.0604C23.9277 20.1933 23.9776 19.7615 24.0772 19.8944C24.0606 19.8445 24.044 20.376 24.044 20.3262C24.044 20.1103 24.2267 19.8944 24.5755 19.6951C25.7048 19.0639 28.5117 18.5989 31.8002 18.5989C36.0852 18.5823 39.6726 19.3463 39.6726 20.293C39.6726 20.4591 40.038 20.1269 39.8387 20.2764Z" fill="url(#paint9_linear_318_2874)"/>
<path d="M29.3421 8.91635L31.7669 4.03345V5.46178L30.1061 8.71705L29.3421 8.91635ZM24.5754 6.37525L24.2433 10.2949L24.8744 9.87964L25.0571 7.70393L26.6847 9.29834L27.4653 9.23191L24.5754 6.37525ZM20.8551 12.4706L21.453 12.5536L22.5824 12.7197C22.4661 12.537 22.3831 12.3211 22.3499 12.0886L19.3438 11.6568L19.9417 12.3377L20.8551 12.4706Z" fill="url(#paint10_linear_318_2874)"/>
<path d="M31.7999 17.2703C27.1163 17.2869 23.3296 18.3498 23.3296 19.6619C23.3296 19.9941 23.6618 19.9775 24.0936 20.2598C23.9109 20.0605 23.7448 20.1934 23.7448 19.9774C23.7448 18.5989 27.598 17.4696 32.348 17.453C34.9389 17.453 37.2641 17.7685 38.8419 18.3C37.3306 17.6855 34.7396 17.2703 31.7999 17.2703Z" fill="url(#paint11_linear_318_2874)"/>
<path d="M22.4162 16.3735C22.5325 16.2074 22.6653 16.0081 22.7982 15.8088C23.4625 14.9285 25.5054 13.0518 30.1392 12.4539C26.7012 12.7362 23.7615 13.8988 22.084 15.5098C21.8847 15.7091 21.5692 16.4399 22.0508 16.8883C22.0508 16.8883 23.4293 18.0343 23.4293 19.28C23.6951 17.835 22.6653 16.6226 22.4162 16.3735Z" fill="url(#paint12_linear_318_2874)"/>
<path d="M39.5892 47.481L40.7019 49.4241L42.9441 49.6068L41.4327 51.2843L41.9642 53.46L39.9047 52.5466L37.9782 53.7258L38.2273 51.4836L36.5166 50.0221L38.7255 49.557L39.5892 47.481Z" fill="url(#paint13_linear_318_2874)" stroke="#2000FF" stroke-miterlimit="10"/>
<path d="M23.5789 47.481L24.6917 49.4241L26.9338 49.6068L25.4391 51.2843L25.9539 53.46L23.8945 52.5466L21.9845 53.7258L22.217 51.4836L20.5063 50.0221L22.7153 49.557L23.5789 47.481Z" fill="url(#paint14_linear_318_2874)" stroke="#2000FF" stroke-miterlimit="10"/>
<path d="M28.445 50.3046L31.6338 51.7163L34.6067 49.8894L34.2413 53.3606L36.8987 55.6027L33.4939 56.3501L32.1819 59.5722L30.4214 56.5494L26.9502 56.2837L29.2754 53.6928L28.445 50.3046Z" fill="url(#paint15_linear_318_2874)" stroke="#2000FF" stroke-miterlimit="10"/>
<defs>
<linearGradient id="paint0_linear_318_2874" x1="28.1925" y1="16.9288" x2="25.8181" y2="8.72801" gradientUnits="userSpaceOnUse">
<stop stop-color="#2500C1"/>
<stop offset="1" stop-color="#FFE400"/>
</linearGradient>
<linearGradient id="paint1_linear_318_2874" x1="34.4258" y1="14.024" x2="40.616" y2="3.2474" gradientUnits="userSpaceOnUse">
<stop stop-color="#2500C1"/>
<stop offset="1" stop-color="#FFE400"/>
</linearGradient>
<linearGradient id="paint2_linear_318_2874" x1="34.7973" y1="16.4961" x2="37.6267" y2="8.80999" gradientUnits="userSpaceOnUse">
<stop stop-color="#2500C1"/>
<stop offset="1" stop-color="#FFE400"/>
</linearGradient>
<linearGradient id="paint3_linear_318_2874" x1="31.8089" y1="20.5043" x2="31.7917" y2="13.4975" gradientUnits="userSpaceOnUse">
<stop stop-color="#2500C1"/>
<stop offset="1" stop-color="#FFE400"/>
</linearGradient>
<linearGradient id="paint4_linear_318_2874" x1="32.3149" y1="17.0667" x2="39.5544" y2="7.97171" gradientUnits="userSpaceOnUse">
<stop stop-color="#2500C1"/>
<stop offset="1" stop-color="#FFE400"/>
</linearGradient>
<linearGradient id="paint5_linear_318_2874" x1="24.0866" y1="15.1992" x2="41.5311" y2="15.1566" gradientUnits="userSpaceOnUse">
<stop stop-color="#2500C1"/>
<stop offset="1" stop-color="#FFE400"/>
</linearGradient>
<linearGradient id="paint6_linear_318_2874" x1="22.1732" y1="13.9465" x2="31.7927" y2="13.9229" gradientUnits="userSpaceOnUse">
<stop stop-color="#2500C1"/>
<stop offset="1" stop-color="#FFE400"/>
</linearGradient>
<linearGradient id="paint7_linear_318_2874" x1="31.8089" y1="20.5044" x2="31.7917" y2="13.4975" gradientUnits="userSpaceOnUse">
<stop stop-color="#2500C1"/>
<stop offset="1" stop-color="#FFE400"/>
</linearGradient>
<linearGradient id="paint8_linear_318_2874" x1="31.8107" y1="20.2607" x2="31.7949" y2="13.7831" gradientUnits="userSpaceOnUse">
<stop stop-color="#2500C1"/>
<stop offset="1" stop-color="#FFE400"/>
</linearGradient>
<linearGradient id="paint9_linear_318_2874" x1="30.0442" y1="21.1332" x2="36.4042" y2="17.1718" gradientUnits="userSpaceOnUse">
<stop stop-color="#2500C1"/>
<stop offset="1" stop-color="#FFE400"/>
</linearGradient>
<linearGradient id="paint10_linear_318_2874" x1="19.3465" y1="8.39207" x2="31.7793" y2="8.36165" gradientUnits="userSpaceOnUse">
<stop stop-color="#2500C1"/>
<stop offset="1" stop-color="#FFE400"/>
</linearGradient>
<linearGradient id="paint11_linear_318_2874" x1="30.4839" y1="18.9943" x2="21.3949" y2="17.4687" gradientUnits="userSpaceOnUse">
<stop stop-color="#2500C1"/>
<stop offset="1" stop-color="#FFE400"/>
</linearGradient>
<linearGradient id="paint12_linear_318_2874" x1="30.8944" y1="16.5527" x2="21.8051" y2="15.027" gradientUnits="userSpaceOnUse">
<stop stop-color="#2500C1"/>
<stop offset="1" stop-color="#FFE400"/>
</linearGradient>
<linearGradient id="paint13_linear_318_2874" x1="39.1473" y1="51.6305" x2="41.9718" y2="49.6208" gradientUnits="userSpaceOnUse">
<stop stop-color="#FFE400"/>
<stop offset="1" stop-color="#FDAF17"/>
</linearGradient>
<linearGradient id="paint14_linear_318_2874" x1="23.137" y1="51.6305" x2="25.9615" y2="49.6208" gradientUnits="userSpaceOnUse">
<stop stop-color="#FFE400"/>
<stop offset="1" stop-color="#FDAF17"/>
</linearGradient>
<linearGradient id="paint15_linear_318_2874" x1="31.702" y1="55.8876" x2="33.387" y2="50.7944" gradientUnits="userSpaceOnUse">
<stop stop-color="#FFE400"/>
<stop offset="1" stop-color="#FDAF17"/>
</linearGradient>
</defs>
</svg>
