<svg xmlns="http://www.w3.org/2000/svg" width="64" height="64" viewBox="0 0 64 64"><g transform="translate(-286 -1359)"><circle cx="32" cy="32" r="32" transform="translate(286 1359)" fill="#f5f5f5"/><g transform="translate(303 1366.572)"><path d="M383.828,0,383.5,1.113v32.3l.328.327,15-8.864Z" transform="translate(-368.832)" fill="#343434"/><path d="M15,0,0,24.881l15,8.864V0Z" fill="#8c8c8c"/><path d="M387.425,733.749l-.185.225v11.508l.185.539,15-21.131Z" transform="translate(-372.429 -697.165)" fill="#3c3c3b"/><path d="M15,746.021V733.749L0,724.89Z" transform="translate(0 -697.165)" fill="#8c8c8c"/><path d="M392.07,488.01l15-8.864-15-6.816Z" transform="translate(-377.074 -454.265)" fill="#141414"/><path d="M0,479.146l15,8.864V472.33Z" transform="translate(0 -454.265)" fill="#393939"/></g></g></svg>