<svg width="64" height="64" viewBox="0 0 64 64" fill="none" xmlns="http://www.w3.org/2000/svg">
<g clip-path="url(#clip0_40_30153)">
<path d="M32 64C49.6731 64 64 49.6731 64 32C64 14.3269 49.6731 0 32 0C14.3269 0 0 14.3269 0 32C0 49.6731 14.3269 64 32 64Z" fill="#003399"/>
<path d="M38.0939 27.1081L36.7449 30.0341H18.0649L19.1299 27.1081H38.0939ZM35.5509 32.8751L34.1729 35.8301H18.0649L19.1299 32.8751H35.5509ZM41.5599 19.3951L39.8839 22.9891C39.3435 22.5273 38.7636 22.1137 38.1509 21.7531C37.5157 21.3792 36.8387 21.0811 36.1339 20.8651C35.3834 20.6381 34.603 20.5255 33.8189 20.5311C32.3756 20.5095 30.9612 20.9365 29.7709 21.7531C28.5041 22.6745 27.534 23.9459 26.9799 25.4111C26.2482 27.3445 25.903 29.4028 25.9639 31.4691C25.9022 33.5332 26.2471 35.5892 26.9789 37.5201C27.5335 38.981 28.5038 40.2474 29.7699 41.1631C30.962 41.9752 32.3758 42.3992 33.8179 42.3771C34.6087 42.3831 35.3961 42.2729 36.1549 42.0501C36.8502 41.8451 37.5181 41.5567 38.1439 41.1911C38.7143 40.8578 39.258 40.4806 39.7699 40.0631L41.4889 43.6431C40.4745 44.5574 39.2857 45.2571 37.9939 45.7001C36.6516 46.1683 35.2395 46.405 33.8179 46.4001C31.5811 46.4415 29.3827 45.8148 27.5039 44.6001C25.609 43.3233 24.1144 41.536 23.1929 39.4451C22.0941 36.933 21.5609 34.2101 21.6309 31.4691C21.5606 28.7202 22.0942 25.9894 23.1939 23.4691C24.1142 21.3792 25.607 19.5924 27.4999 18.3151C29.3787 17.1004 31.5771 16.4737 33.8139 16.5151C35.2587 16.5027 36.6935 16.7555 38.0469 17.2611C39.3405 17.7477 40.5319 18.4715 41.5599 19.3951Z" fill="white"/>
</g>
<defs>
<clipPath id="clip0_40_30153">
<rect width="64" height="64" fill="white"/>
</clipPath>
</defs>
</svg>
