<svg width="64" height="64" viewBox="0 0 64 64" fill="none" xmlns="http://www.w3.org/2000/svg">
<path d="M31.994 64C49.626 64 64 49.628 64 32C64 14.382 49.626 0 31.994 0C14.376 0 0 14.382 0 32C0 49.628 14.374 64 31.994 64Z" fill="black"/>
<path d="M31.9959 62C48.5239 62 61.9999 48.512 61.9999 31.992C61.9999 15.472 48.5239 2 31.9959 2C15.4759 2 1.99994 15.476 1.99994 31.994C1.99994 48.514 15.4759 62 31.9959 62Z" fill="#F5F5F5"/>
<path d="M31.994 53.084C43.61 53.084 53.08 43.604 53.08 32.002C53.08 20.398 43.61 10.93 31.994 10.93C20.39 10.93 10.92 20.398 10.92 32.002C10.92 43.604 20.39 53.084 31.994 53.084Z" fill="black"/>
<path d="M14.226 22.654C17.532 16.4 24.044 12.082 31.548 11.914C29.324 14.9 26.564 17.58 23.398 19.526C21.502 20.6987 19.4403 21.5793 17.282 22.138C16.27 22.396 15.258 22.554 14.226 22.654ZM29.096 51.89C19.398 50.47 11.902 42.084 11.902 32C11.902 29.24 12.468 26.6 13.482 24.2C13.512 24.674 13.542 25.152 13.59 25.618C14.086 30.56 15.894 35.622 18.644 40.238C21.334 44.724 24.928 48.784 29.096 51.89ZM50.52 24.2C51.532 26.6 52.098 29.24 52.098 32C52.098 42.084 44.602 50.472 34.904 51.89C39.072 48.784 42.666 44.724 45.356 40.238C48.146 35.564 49.964 30.422 50.43 25.418C50.47 25.012 50.498 24.606 50.518 24.198L50.52 24.2ZM32.442 11.912C39.958 12.082 46.47 16.4 49.774 22.652C48.9131 22.5747 48.0581 22.4424 47.214 22.256C44.8753 21.7144 42.6416 20.7921 40.602 19.526C37.436 17.58 34.676 14.9 32.442 11.912Z" fill="#E1001D"/>
<path d="M15.1139 23.416H49.0799C40.3239 21.516 35.4219 16.7299 31.9939 12.0919C28.6519 16.6379 23.1539 21.858 15.1139 23.416ZM21.6899 34H16.1099C16.9165 36.0771 17.9001 38.0812 19.0499 39.99C21.8499 44.674 25.6419 48.884 30.0599 52C30.3459 52.03 30.6239 52.05 30.9119 52.07C31.0719 51.106 30.9919 46.6599 30.9619 46.4499C30.7948 46.2479 30.5795 46.0911 30.3359 45.994C30.041 45.9004 29.7333 45.8538 29.4239 45.856C29.1169 45.8529 28.8104 45.8831 28.5099 45.9459C28.2319 45.9939 27.9439 46.086 27.5979 46.204C27.2779 46.304 27.0219 46.402 26.7439 46.402C26.4439 46.402 26.1679 46.292 25.8499 45.984C25.7915 45.9338 25.7355 45.8811 25.6819 45.8259C25.4419 45.5859 25.2039 45.3499 24.9359 45.3499C24.6346 45.3612 24.3334 45.3241 24.0439 45.2399C23.7746 45.1606 23.5265 45.0218 23.3179 44.834C22.8519 44.386 22.8519 43.7619 22.8619 43.2539C22.8619 43.0379 22.8619 42.858 22.8219 42.778C22.7619 42.65 22.5539 42.49 22.2959 42.342C22.0238 42.1794 21.7419 42.0338 21.4519 41.9059C21.043 41.7238 20.722 41.3884 20.5579 40.972C20.4145 40.5715 20.3507 40.1469 20.3699 39.722C20.3837 39.5464 20.377 39.3699 20.3499 39.1959C20.3299 39.0659 20.2999 38.956 20.2419 38.896L20.2319 38.888C20.0919 38.728 19.9439 38.56 19.8339 38.352C19.7022 38.1118 19.634 37.8419 19.6359 37.568C19.6359 37.3 19.7159 37.072 19.8439 36.902C19.9123 36.8063 20.0015 36.7273 20.1046 36.6709C20.2078 36.6144 20.3224 36.582 20.4399 36.576C20.9359 36.556 21.4219 37.0319 21.7299 37.3499C21.7599 37.3699 21.7799 37.3979 21.8099 37.4179C21.9499 37.5679 22.1179 37.7259 22.2859 37.8559C22.4371 37.9726 22.6087 38.0601 22.7919 38.1139C23.1299 38.1939 23.3979 38.184 23.6259 38.174H23.6659C24.0739 38.164 24.3719 38.214 24.6199 38.372C24.8679 38.52 25.0459 38.76 25.2239 39.136C25.4239 39.532 25.5839 39.532 25.8699 39.532C25.9699 39.524 26.0699 39.524 26.1879 39.532C26.8319 39.564 26.9919 39.86 27.2499 40.346C27.2899 40.426 27.3299 40.5059 27.3779 40.5739C27.4779 40.7539 27.5679 40.894 27.6679 41.012C27.7559 41.112 27.8359 41.18 27.9059 41.232C28.0139 41.29 28.1139 41.3099 28.2319 41.3399C28.4319 41.3799 28.6599 41.4299 29.0179 41.6579C29.2359 41.7979 29.3839 41.994 29.4939 42.222C29.5939 42.442 29.6539 42.6799 29.7019 42.9179C29.8119 43.3939 29.8899 43.82 30.0599 44.138C30.2199 44.446 30.4659 44.6839 30.9219 44.8539C30.9219 44.8039 30.9339 44.7539 30.9339 44.6839C31.0139 43.1959 31.0419 42.2519 30.9619 41.6279C30.9019 41.0619 30.7439 40.7739 30.4459 40.5759C29.5402 39.9493 28.6268 39.3339 27.7059 38.7299C26.9674 38.2465 26.2059 37.7993 25.4239 37.3899C25.3088 37.3678 25.1926 37.3511 25.0759 37.34C24.9359 37.33 24.8179 37.33 24.6979 37.32H24.5779C23.9939 37.31 23.4479 37.29 22.8419 36.872C22.5169 36.6627 22.256 36.3679 22.0879 36.02C22.0198 35.8678 21.9862 35.7024 21.9897 35.5357C21.9932 35.369 22.0335 35.2052 22.1079 35.056C22.1379 34.996 22.1679 34.956 22.1879 34.916C22.2479 34.798 22.2759 34.748 22.1779 34.65C22.0006 34.4877 21.8524 34.2963 21.7399 34.084C21.7199 34.054 21.6999 34.04 21.6899 34ZM29.7319 34H24.4899C24.6179 34.17 24.8079 34.184 25.0059 34.234C25.2059 34.274 25.4139 34.322 25.6319 34.452C25.7999 34.552 25.9599 34.69 26.0879 34.868C26.2179 35.048 26.3159 35.2759 26.3759 35.5439L26.4159 35.764C26.4559 35.98 26.4859 36.13 26.7539 36.338C27.7459 37.072 28.7079 37.6979 29.5819 38.2739C30.2079 38.6699 30.7819 39.048 31.2899 39.414L31.2799 39.4059C31.2899 39.4059 31.2999 39.416 31.3099 39.416C31.3174 39.283 31.3107 39.1495 31.2899 39.018C31.2598 38.838 31.2231 38.6592 31.1799 38.4819C30.4359 37.5879 29.9699 36.974 29.6919 36.448C29.417 35.9522 29.3024 35.3835 29.3639 34.82C29.3802 34.5768 29.4632 34.3429 29.6039 34.144C29.6319 34.084 29.6819 34.05 29.7319 34ZM40.2339 34H34.1399C34.0519 34.11 33.9619 34.194 33.8739 34.282C34.0719 34.512 34.2099 34.73 34.3099 34.948C34.4499 35.236 34.4979 35.5039 34.4979 35.7719C34.4879 36.3279 34.2399 36.8139 33.8939 37.2519C33.5799 37.6439 33.223 37.9994 32.8299 38.312C32.7635 38.6568 32.7635 39.0111 32.8299 39.3559C32.8399 39.3559 32.8499 39.3659 32.8599 39.3759H32.8899C32.8999 39.3759 32.8999 39.376 32.9099 39.366H32.9199L33.5359 39.018C34.7559 38.332 36.2159 37.518 37.6359 36.486C37.7483 36.4026 37.84 36.2945 37.9039 36.1699C37.9545 36.0228 37.9776 35.8675 37.9719 35.712C37.9797 35.4568 38.052 35.2077 38.1819 34.9879C38.3198 34.7606 38.5105 34.5698 38.7379 34.4319C38.9959 34.2819 39.2839 34.282 39.5619 34.292C39.7999 34.292 40.0279 34.302 40.1279 34.152C40.1679 34.104 40.1939 34.06 40.2339 34ZM32.9579 52.08C33.2839 52.06 33.6119 52.04 33.9399 52C38.3579 48.884 42.1499 44.674 44.9499 39.99C46.099 38.0812 47.082 36.0771 47.8879 34H42.9339C42.8859 34.11 42.8259 34.1839 42.7659 34.2719C42.6604 34.4292 42.5441 34.5789 42.4179 34.72C42.2199 34.958 42.2099 35.286 42.2099 35.602C42.2099 36.218 42.2099 36.822 41.2279 37.212C40.9518 37.3193 40.6657 37.399 40.3739 37.45C40.1259 37.498 39.8959 37.4979 39.5899 37.5099C39.3699 37.5179 39.1619 37.5299 38.9739 37.5579C38.7867 37.5819 38.6071 37.6467 38.4479 37.748C38.0799 37.966 37.6539 38.214 37.1959 38.472C35.9159 39.206 34.3759 40.0999 33.6619 40.7239C33.3839 40.9639 33.2059 41.24 33.0959 41.788C32.9879 42.372 32.9679 43.2679 33.0079 44.7239C33.0179 44.9039 33.0179 44.9639 33.0179 44.9639C33.0379 44.9719 33.1459 44.9139 33.2759 44.8539C33.5159 44.7339 33.7919 44.5359 34.0099 44.3379C34.2099 44.1579 34.3479 43.9999 34.3679 43.9199L34.4179 43.6419C34.5459 43.0179 34.7339 42.074 35.2419 41.748C35.4899 41.578 35.7579 41.538 36.0359 41.498C36.2085 41.4841 36.3786 41.4478 36.5419 41.3899C36.6099 41.3699 36.6819 41.19 36.7619 40.984C36.9479 40.486 37.1759 39.882 37.9919 39.852C38.0919 39.842 38.1899 39.8419 38.2899 39.8419C38.6659 39.8419 38.9739 39.842 39.1819 39.424C39.3719 39.048 39.5299 38.8199 39.7579 38.6699C39.9859 38.5099 40.2639 38.4699 40.6719 38.4819H40.7799C41.0799 38.4919 41.6639 38.512 41.9719 38.442C42.0539 38.429 42.1323 38.3993 42.2022 38.3545C42.272 38.3098 42.3319 38.251 42.3779 38.1819C42.4379 38.1139 42.4979 38.044 42.5879 37.956L42.7079 37.8359C42.9639 37.5679 43.1819 37.3399 43.6479 37.3499C43.8079 37.3599 43.9959 37.38 44.1659 37.47C44.3659 37.578 44.5039 37.768 44.5039 38.104C44.4867 38.3334 44.422 38.5568 44.3139 38.7599C44.2027 38.9965 44.0593 39.2166 43.8879 39.414L43.8779 39.424C43.7919 39.5495 43.7339 39.692 43.7079 39.8419C43.6479 40.0899 43.6079 40.368 43.6199 40.556C43.6299 40.984 43.6099 41.37 43.4899 41.708C43.4218 41.9024 43.3118 42.0795 43.1677 42.2267C43.0236 42.374 42.8488 42.4877 42.6559 42.5599C42.4879 42.6399 42.2999 42.7 42.1299 42.76C41.7739 42.88 41.4259 42.9979 41.2959 43.1859C41.2459 43.2559 41.2279 43.494 41.1959 43.762C41.1479 44.278 41.0979 44.8939 40.6919 45.1719C40.4713 45.3167 40.2186 45.4052 39.9559 45.43C39.6879 45.47 39.3999 45.47 39.0819 45.47C38.9283 45.4833 38.7811 45.5379 38.6559 45.6279C38.4479 45.7679 38.2499 45.986 38.0999 46.164C37.5039 46.888 37.0199 46.6699 36.4119 46.4039C36.2719 46.3439 36.1339 46.2839 35.9859 46.2239C35.7579 46.1539 35.5199 46.074 35.2619 46.024C35.0273 45.9686 34.7869 45.9417 34.5459 45.944C34.1679 45.944 33.8419 45.976 33.5639 46.064C33.3118 46.1472 33.0857 46.2947 32.9079 46.4919C32.8479 46.8679 32.8579 50.0139 32.8679 50.6699C32.8779 51.1359 32.8979 51.602 32.9579 52.08Z" fill="#00417F"/>
<path d="M50.082 24H13.92C13.96 27.406 14.674 30.086 15.936 33.51H21.574V33.47C21.574 33.37 21.574 33.272 21.594 33.182C21.6298 32.9365 21.757 32.7137 21.95 32.558C22.13 32.418 22.348 32.358 22.586 32.358C22.9151 32.3583 23.2389 32.4408 23.528 32.598C23.738 32.718 23.928 32.884 24.076 33.124C24.164 33.272 24.224 33.392 24.274 33.51H29.784C29.5985 33.2549 29.4447 32.9782 29.326 32.686C29.1374 32.2481 29.0558 31.7716 29.088 31.296C29.1078 31.0282 29.2005 30.7709 29.356 30.552C29.476 30.372 29.644 30.196 29.852 30.026L29.822 29.878C29.614 29.004 29.346 27.862 30.964 26.8C30.994 26.204 31.074 25.748 31.264 25.39C31.3652 25.1869 31.5056 25.0059 31.6773 24.8576C31.849 24.7093 32.0484 24.5965 32.264 24.526H32.424C32.91 24.706 33.258 25.012 33.466 25.46C33.666 25.856 33.734 26.362 33.694 26.968C35.084 28.308 34.588 29.362 34.31 29.928C34.49 30.116 34.648 30.334 34.766 30.572C34.946 30.92 35.046 31.286 35.066 31.564C35.094 32.042 34.946 32.568 34.716 33.044C34.6444 33.2046 34.5623 33.3602 34.47 33.51H40.504C40.544 33.45 40.584 33.382 40.624 33.312C40.7433 33.1015 40.9096 32.9215 41.11 32.786C41.2993 32.6694 41.5142 32.6007 41.736 32.586C41.9064 32.5782 42.0769 32.5958 42.242 32.638C42.442 32.686 42.628 32.778 42.778 32.904C42.9357 33.0478 43.0317 33.247 43.046 33.46V33.51H48.068C49.328 30.086 50.042 27.406 50.082 24Z" fill="#FFED00"/>
<path d="M32.46 52.0899C32.302 52.0999 32.154 52.0999 31.994 52.0999C31.806 52.0999 31.618 52.0999 31.438 52.0899C31.458 51.8619 31.468 51.4039 31.478 51.1759C31.498 50.6199 31.498 49.9839 31.498 49.4199C31.498 49.3199 31.508 49.2299 31.508 49.1399C31.508 48.6259 31.508 48.0299 31.498 47.5039C31.5006 47.0983 31.4711 46.693 31.41 46.2919L31.36 46.1919C31.1388 45.9064 30.8434 45.6871 30.506 45.5579C30.1577 45.4399 29.7917 45.3831 29.424 45.3899C29.0878 45.3824 28.7518 45.4119 28.422 45.4779C28.0925 45.5535 27.7673 45.6469 27.448 45.7579C27.17 45.8459 26.942 45.9359 26.744 45.9259C26.564 45.9259 26.386 45.8559 26.168 45.6459L26.018 45.4979C25.71 45.1899 25.394 44.8839 24.926 44.8839C24.6749 44.8921 24.424 44.8618 24.182 44.7939C23.9775 44.7375 23.7901 44.6317 23.636 44.4859C23.318 44.1879 23.328 43.6719 23.328 43.2659C23.328 42.9879 23.328 42.7499 23.248 42.5699C23.14 42.3519 22.862 42.1339 22.544 41.9359C22.2521 41.7653 21.9502 41.6124 21.64 41.4779C21.4926 41.4124 21.3597 41.3182 21.2492 41.2008C21.1386 41.0833 21.0525 40.945 20.996 40.7939C20.8736 40.454 20.8225 40.0925 20.846 39.7319C20.846 39.5319 20.846 39.3159 20.818 39.1259C20.8019 38.9142 20.7136 38.7145 20.568 38.5599L20.578 38.5699C20.458 38.4299 20.33 38.2919 20.242 38.1239C20.1502 37.953 20.1021 37.762 20.102 37.5679C20.0985 37.4327 20.1408 37.3002 20.222 37.1919C20.29 37.1019 20.382 37.0419 20.46 37.0419C20.748 37.0319 21.144 37.4199 21.402 37.6779C21.432 37.7079 21.452 37.7259 21.472 37.7579C21.632 37.9159 21.81 38.0839 22.008 38.2319C22.2084 38.394 22.4419 38.51 22.692 38.5719C23.092 38.6599 23.388 38.6499 23.636 38.6499H23.676C23.994 38.6399 24.212 38.6699 24.37 38.7699C24.53 38.8699 24.658 39.0459 24.808 39.3439C25.136 40.0099 25.394 40.0099 25.88 39.9999H26.168C26.546 40.0199 26.654 40.2279 26.832 40.5759C26.872 40.6439 26.912 40.7159 26.972 40.8139C27.082 41.0119 27.2 41.1799 27.31 41.3099C27.4078 41.44 27.5284 41.5511 27.666 41.6379C27.846 41.7379 27.986 41.7659 28.134 41.7979C28.294 41.8359 28.482 41.8759 28.768 42.0539C28.8985 42.1482 29.0019 42.2751 29.068 42.4219C29.146 42.5999 29.206 42.8079 29.246 43.0059C29.354 43.5339 29.434 43.9699 29.642 44.3559C29.85 44.7639 30.178 45.0819 30.764 45.2899C31.052 45.3979 31.2 45.3499 31.31 45.1699C31.39 45.0499 31.39 44.9119 31.398 44.7039C31.478 43.1959 31.518 42.2339 31.438 41.5679C31.35 40.8439 31.132 40.4659 30.714 40.1879C29.792 39.5519 28.838 38.9079 27.954 38.3419C27.1965 37.8351 26.4113 37.3711 25.602 36.9519L25.542 36.9319C25.2699 36.8838 24.9943 36.857 24.718 36.8519H24.59C24.084 36.8319 23.596 36.8239 23.11 36.4859C22.8612 36.326 22.6591 36.1031 22.524 35.8399C22.4816 35.7495 22.4604 35.6506 22.4622 35.5508C22.4639 35.4509 22.4885 35.3528 22.534 35.2639L22.594 35.1359C22.782 34.7979 22.872 34.6499 22.494 34.3019C22.3562 34.1785 22.2423 34.0307 22.158 33.8659C22.0852 33.7418 22.044 33.6017 22.038 33.4579C22.038 33.3899 22.048 33.3179 22.058 33.2599C22.078 33.0999 22.148 32.9919 22.238 32.9319C22.3419 32.8585 22.4668 32.8206 22.594 32.8239C22.8386 32.835 23.0782 32.8962 23.298 33.0039C23.438 33.0819 23.578 33.1999 23.678 33.3699C23.786 33.5479 23.836 33.6879 23.884 33.8159C23.944 33.9439 23.984 34.0639 24.074 34.1919C24.302 34.5519 24.59 34.6199 24.908 34.6899C25.066 34.7299 25.234 34.7579 25.394 34.8579C25.514 34.9279 25.622 35.0179 25.702 35.1459C25.802 35.2739 25.87 35.4339 25.92 35.6519C25.93 35.7119 25.94 35.7819 25.96 35.8399C26.01 36.1679 26.048 36.3959 26.476 36.7139C27.458 37.4479 28.442 38.0839 29.336 38.6599C29.95 39.0659 30.526 39.4339 31.022 39.7899C31.102 39.8399 31.172 39.8799 31.242 39.8999C31.32 39.9199 31.4 39.9199 31.478 39.8999C31.5616 39.879 31.6335 39.8258 31.678 39.7519C31.708 39.7119 31.718 39.6719 31.738 39.6319C31.7825 39.4095 31.7825 39.1804 31.738 38.9579C31.708 38.7179 31.678 38.4319 31.568 38.2119C30.834 37.3299 30.368 36.7319 30.108 36.2279C29.8779 35.8103 29.7815 35.3321 29.832 34.8579C29.852 34.6979 29.892 34.5399 29.99 34.4019C30.17 34.1419 30.446 34.0039 30.714 33.8459C30.318 33.4379 29.98 33.0419 29.762 32.5059C29.6037 32.1364 29.5318 31.7355 29.552 31.3339C29.57 31.1485 29.6355 30.9708 29.742 30.8179C29.9177 30.5822 30.132 30.378 30.376 30.2139C30.276 29.7559 30.128 29.3099 30.148 28.8439C30.168 27.9999 30.754 27.4839 31.428 27.0559C31.438 26.5799 31.458 26.0359 31.668 25.5959C31.811 25.3188 32.0509 25.1038 32.342 24.9919C32.6468 25.1257 32.8956 25.3611 33.046 25.6579C33.266 26.1239 33.246 26.6499 33.206 27.1559C33.672 27.5819 34.12 28.0979 34.138 28.7739C34.148 29.2499 33.91 29.6379 33.732 30.0639C34 30.2719 34.188 30.4699 34.348 30.7779C34.488 31.0659 34.576 31.3739 34.596 31.6019C34.616 31.9899 34.486 32.4259 34.288 32.8419C34.0322 33.3866 33.6593 33.868 33.196 34.2519C33.464 34.5199 33.722 34.7879 33.882 35.1459C33.9743 35.3382 34.0222 35.5487 34.022 35.7619C34.01 36.1979 33.812 36.6039 33.522 36.9619C33.2067 37.3459 32.8513 37.6952 32.462 38.0039C32.312 38.2439 32.312 38.5499 32.312 38.8279C32.312 39.0679 32.332 39.3039 32.382 39.4819C32.392 39.5219 32.412 39.5719 32.442 39.6019C32.4919 39.6935 32.5727 39.7644 32.67 39.8019C32.78 39.8419 32.898 39.8619 33.018 39.8299C33.0641 39.8182 33.1075 39.7979 33.146 39.7699C33.426 39.6099 33.594 39.5219 33.762 39.4239C34.992 38.7379 36.482 37.9039 37.912 36.8639C38.0991 36.7365 38.244 36.5561 38.328 36.3459C38.4047 36.1467 38.4453 35.9354 38.448 35.7219C38.4505 35.5472 38.4988 35.3762 38.588 35.2259C38.6817 35.0693 38.8104 34.9365 38.964 34.8379C39.112 34.7479 39.342 34.7579 39.55 34.7579C39.928 34.7679 40.284 34.7779 40.522 34.4099C40.612 34.2719 40.682 34.1519 40.762 34.0039C40.83 33.8759 40.92 33.7259 41.02 33.5579C41.1028 33.4088 41.2176 33.2797 41.356 33.1799C41.4784 33.1032 41.6196 33.0617 41.764 33.0599C41.8868 33.0498 42.0105 33.06 42.13 33.0899C42.2497 33.1186 42.3617 33.1732 42.458 33.2499C42.4932 33.2787 42.5213 33.3151 42.5404 33.3563C42.5594 33.3975 42.5689 33.4425 42.568 33.4879C42.576 33.5279 42.568 33.5779 42.558 33.6279C42.5234 33.7689 42.4586 33.9006 42.368 34.0139C42.288 34.1439 42.17 34.2819 42.06 34.4119C41.744 34.7879 41.744 35.1959 41.744 35.6019C41.744 36.0599 41.744 36.5059 41.058 36.7619C40.8125 36.8661 40.5563 36.9433 40.294 36.9919C40.086 37.0219 39.866 37.0319 39.58 37.0419C39.34 37.0519 39.122 37.0519 38.894 37.0919C38.648 37.128 38.4114 37.2123 38.198 37.3399C37.872 37.5379 37.434 37.7859 36.968 38.0639C35.668 38.8079 34.098 39.7119 33.344 40.3659C32.996 40.6859 32.758 41.0219 32.64 41.6959C32.52 42.3219 32.49 43.2459 32.54 44.7439C32.55 45.1699 32.68 45.3599 32.898 45.4179C33.086 45.4679 33.264 45.3779 33.482 45.2699C33.762 45.1299 34.078 44.9119 34.326 44.6839C34.586 44.4559 34.784 44.2079 34.824 44.0299C34.844 43.9099 34.864 43.8299 34.884 43.7299C34.992 43.1859 35.15 42.3619 35.498 42.1339C35.658 42.0339 35.876 42.0039 36.104 41.9639C36.304 41.9359 36.5 41.9039 36.71 41.8239C36.968 41.7359 37.076 41.4579 37.196 41.1499C37.336 40.7839 37.504 40.3359 38.01 40.3159C38.11 40.3059 38.21 40.3059 38.288 40.3059C38.834 40.3059 39.27 40.3059 39.608 39.6319C39.758 39.3339 39.868 39.1559 40.006 39.0559H40.016C40.156 38.9679 40.342 38.9479 40.66 38.9479C40.69 38.9479 40.72 38.9579 40.77 38.9579C41.088 38.9679 41.702 38.9859 42.08 38.8979C42.458 38.8179 42.566 38.6879 42.746 38.4799C42.786 38.4199 42.846 38.3599 42.914 38.2919L43.042 38.1619C43.222 37.9739 43.37 37.8159 43.638 37.8259C43.738 37.8259 43.858 37.8359 43.938 37.8759C43.986 37.9039 44.026 37.9759 44.026 38.1039C44.026 38.2239 43.976 38.3819 43.886 38.5599C43.798 38.7599 43.666 38.9579 43.54 39.0959L43.548 39.0859C43.3991 39.2707 43.2975 39.489 43.252 39.7219C43.1851 39.9978 43.1482 40.2801 43.142 40.5639C43.152 40.9439 43.142 41.2799 43.052 41.5479C43.0021 41.682 42.924 41.8037 42.8229 41.9048C42.7217 42.0059 42.6 42.0841 42.466 42.1339C42.3091 42.207 42.1466 42.2672 41.98 42.3139C41.554 42.4599 41.136 42.5999 40.92 42.9179C40.79 43.0959 40.76 43.3839 40.73 43.7219C40.69 44.1379 40.65 44.6239 40.422 44.7819C40.26 44.8832 40.0763 44.9449 39.886 44.9619C39.658 45.0019 39.39 45.0019 39.082 45.0019C38.8345 45.0098 38.5952 45.0928 38.396 45.2399C38.1451 45.4148 37.9213 45.6257 37.732 45.8659C37.364 46.3119 37.026 46.1619 36.6 45.9739C36.203 45.7927 35.7871 45.6558 35.36 45.5659C34.7212 45.4154 34.0542 45.4326 33.424 45.6159C33.076 45.7359 32.778 45.9239 32.51 46.2319L32.46 46.3319C32.372 46.7179 32.38 47.7719 32.39 48.7119V49.1999C32.39 49.6659 32.39 50.1919 32.402 50.6799C32.402 50.8399 32.412 50.9959 32.412 51.1459C32.422 51.3859 32.442 51.8519 32.462 52.0899H32.46Z" fill="#39A642"/>
<path d="M32.512 28.128C32.3293 28.3887 32.182 28.6725 32.074 28.972C32.044 29.072 32.006 29.182 31.984 29.28C31.984 29.3 31.974 29.32 31.964 29.35C31.9335 29.5005 31.9135 29.6528 31.904 29.806C31.864 30.522 32.044 31.126 32.224 31.722C32.3858 32.1993 32.4983 32.6918 32.56 33.192C32.7421 33.0893 32.9014 32.9505 33.028 32.784C33.096 32.684 33.176 32.606 33.286 32.684C33.394 32.764 33.346 32.874 33.266 32.974C33.0957 33.2193 32.8572 33.4091 32.58 33.52C32.59 33.866 32.57 34.244 32.52 34.592C32.46 34.948 32.352 35.276 32.194 35.524C32.114 35.634 31.994 35.724 31.894 35.644C31.776 35.554 31.866 35.444 31.934 35.336C32.064 35.136 32.154 34.85 32.214 34.542C32.262 34.224 32.274 33.896 32.274 33.588C32.1281 33.5964 31.9821 33.5733 31.846 33.52C31.683 33.454 31.5422 33.3431 31.44 33.2C31.2876 33.0176 31.2123 32.783 31.23 32.546C31.24 32.438 31.28 32.338 31.41 32.366C31.55 32.386 31.538 32.476 31.53 32.596C31.5298 32.7466 31.5782 32.8931 31.668 33.014C31.748 33.102 31.846 33.182 31.966 33.232C32.058 33.2659 32.1562 33.2796 32.254 33.272C32.244 33.232 32.244 33.182 32.234 33.142C32.184 32.666 32.054 32.238 31.926 31.812C31.736 31.186 31.548 30.562 31.588 29.796C31.598 29.648 31.618 29.518 31.638 29.38C31.5672 29.3208 31.5034 29.2537 31.448 29.18C31.3687 29.0713 31.3147 28.9463 31.29 28.814C31.27 28.734 31.26 28.626 31.4 28.594C31.528 28.566 31.568 28.666 31.588 28.744C31.618 28.874 31.648 28.934 31.698 28.992C31.7049 29.0069 31.7144 29.0204 31.726 29.032C31.8458 28.65 32.0231 28.2885 32.252 27.96C32.292 27.89 32.382 27.832 32.482 27.9C32.57 27.96 32.562 28.06 32.512 28.128ZM41.554 40.446C40.434 41.796 39.43 42.302 38.546 42.76C37.832 43.126 37.196 43.454 36.62 44.18C36.56 44.26 36.422 44.28 36.342 44.208C36.262 44.14 36.254 44.01 36.312 43.94C36.938 43.146 37.612 42.8 38.368 42.412C39.222 41.974 40.174 41.478 41.256 40.188C41.316 40.118 41.446 40.1 41.536 40.168C41.5751 40.203 41.5989 40.2519 41.6023 40.3043C41.6057 40.3567 41.5883 40.4063 41.554 40.446ZM22.852 39.812C23.934 41.152 24.888 41.648 25.74 42.094C26.486 42.492 27.15 42.84 27.766 43.634C27.826 43.714 27.846 43.832 27.736 43.912C27.636 43.972 27.516 43.952 27.458 43.872C26.902 43.146 26.266 42.81 25.562 42.442C24.678 41.976 23.676 41.46 22.544 40.06C22.5148 40.0178 22.5018 39.9665 22.5073 39.9154C22.5128 39.8644 22.5365 39.817 22.574 39.782C22.615 39.7497 22.6671 39.7347 22.7191 39.7403C22.771 39.746 22.8187 39.7717 22.852 39.812ZM55.352 48.72L56.008 49.18L55.588 49.774L54.934 49.318L55.352 48.72ZM56.186 47.53L56.842 47.988L56.424 48.584L55.768 48.126L56.186 47.53Z" fill="black"/>
<path d="M54.9559 49.848L54.5199 50.462L51.8099 48.566C51.3419 48.238 51.0059 47.922 50.8059 47.624C50.5965 47.3143 50.4985 46.9426 50.5279 46.57C50.5479 46.174 50.7179 45.748 51.0359 45.29C51.3439 44.854 51.6699 44.546 52.0179 44.376C52.3471 44.2028 52.7274 44.1532 53.0899 44.236C53.4679 44.316 53.8939 44.536 54.3899 44.884L57.0999 46.78L56.6739 47.394L53.9639 45.498C53.5559 45.22 53.2299 45.042 52.9819 44.982C52.7413 44.9239 52.4879 44.9522 52.2659 45.062C52.0072 45.1904 51.7875 45.3858 51.6299 45.628C51.3139 46.084 51.1939 46.482 51.2639 46.828C51.3339 47.168 51.6599 47.534 52.2459 47.95L54.9559 49.848ZM60.3059 36.966L61.1019 37.096L60.9819 37.824L60.1959 37.694L60.3059 36.966ZM60.5339 35.528L61.3319 35.658L61.2119 36.384L60.4239 36.254L60.5339 35.528Z" fill="black"/>
<path d="M60.496 38.114L60.376 38.87L57.11 38.352C56.6497 38.2944 56.203 38.1571 55.79 37.946C55.4717 37.7555 55.2245 37.4661 55.086 37.122C54.926 36.744 54.898 36.288 54.976 35.752C55.066 35.216 55.224 34.8 55.462 34.492C55.6822 34.1915 56.003 33.98 56.366 33.896C56.734 33.806 57.22 33.806 57.816 33.906L61.082 34.422L60.962 35.166L57.706 34.65C57.21 34.57 56.842 34.562 56.594 34.62C56.3516 34.6708 56.1345 34.8045 55.98 34.998C55.8072 35.2309 55.697 35.5043 55.66 35.792C55.572 36.338 55.64 36.754 55.85 37.022C56.07 37.302 56.526 37.49 57.23 37.598L60.496 38.114ZM55.274 29.42L60.992 29.22L61.022 29.966L55.978 30.144L56.068 32.964L55.394 32.984L55.274 29.42ZM60.584 26.422L60.764 27.156L57.558 27.952C57 28.09 56.534 28.14 56.178 28.1C55.8093 28.0477 55.4675 27.8772 55.204 27.614C54.916 27.334 54.708 26.928 54.578 26.394C54.4449 25.9592 54.4284 25.4972 54.53 25.054C54.6078 24.6884 54.8198 24.3652 55.124 24.148C55.432 23.92 55.88 23.732 56.464 23.584L59.672 22.788L59.86 23.524L56.654 24.318C56.168 24.438 55.83 24.576 55.622 24.716C55.4174 24.859 55.2695 25.0692 55.204 25.31C55.1367 25.5916 55.1436 25.8858 55.224 26.164C55.352 26.7 55.572 27.058 55.88 27.226C56.176 27.396 56.674 27.396 57.38 27.216L60.584 26.422ZM51.88 19.604L56.932 16.912L57.29 17.578L54.788 18.918L58.628 20.09L59.106 20.992L55.93 19.972L54.104 23.782L53.636 22.9L55.236 19.732L53.994 19.336L52.236 20.268L51.88 19.604ZM32.124 6.71999L32.848 6.70999C32.8482 6.95982 32.9101 7.20574 33.028 7.42599C33.1606 7.63616 33.3499 7.80462 33.574 7.91199C33.822 8.03999 34.11 8.11999 34.436 8.13999C34.724 8.15999 34.982 8.13999 35.212 8.06999C35.4111 8.01615 35.5904 7.90569 35.728 7.75199C35.8449 7.61555 35.915 7.44521 35.928 7.26599C35.9412 7.09676 35.8944 6.92828 35.796 6.78999C35.6727 6.6232 35.504 6.49544 35.31 6.42199C34.987 6.28299 34.6557 6.1641 34.318 6.06599C33.9437 5.96233 33.5817 5.81884 33.238 5.63799C33.0008 5.49661 32.8022 5.29873 32.66 5.06199C32.538 4.81999 32.4882 4.548 32.5165 4.27847C32.5449 4.00894 32.6503 3.75328 32.82 3.54199C33.0116 3.29621 33.2752 3.11649 33.574 3.02799C33.892 2.91799 34.248 2.87799 34.634 2.89799C35.054 2.92799 35.42 3.02799 35.738 3.18599C36.056 3.34599 36.284 3.56399 36.442 3.84199C36.602 4.11999 36.67 4.42799 36.662 4.75599L35.936 4.76599C35.916 4.39799 35.808 4.11999 35.588 3.92199C35.38 3.71199 35.052 3.60199 34.616 3.57399C34.158 3.54399 33.822 3.60399 33.604 3.75399C33.5031 3.81687 33.4182 3.90238 33.3561 4.00374C33.2939 4.10511 33.2562 4.21954 33.246 4.33799C33.2351 4.43269 33.2465 4.52862 33.2791 4.61818C33.3117 4.70774 33.3647 4.78848 33.434 4.85399C33.564 5.00399 33.94 5.16199 34.546 5.33999C35.142 5.52999 35.56 5.67999 35.778 5.79799C36.0649 5.93898 36.3057 6.15892 36.472 6.43199C36.6195 6.68021 36.6859 6.96825 36.662 7.25599C36.6368 7.56317 36.5228 7.85639 36.334 8.09999C36.1315 8.36566 35.8554 8.56596 35.54 8.67599C35.202 8.80399 34.834 8.85599 34.428 8.82599C33.912 8.78599 33.484 8.68599 33.148 8.50599C32.8248 8.34001 32.5557 8.08541 32.372 7.77199C32.1946 7.45062 32.1088 7.08674 32.124 6.71999ZM25.196 9.58999L23.904 4.00999L27.934 3.07799L28.084 3.73199L24.798 4.49599L25.186 6.20399L28.272 5.48999L28.422 6.14399L25.342 6.85999L25.782 8.75599L29.206 7.97199L29.354 8.62599L25.196 9.58999ZM23.656 9.73999C23.904 9.27199 23.974 8.72599 23.864 8.08999L23.09 8.21999C23.19 8.70599 23.16 9.11399 22.99 9.45999C22.817 9.81133 22.5209 10.0868 22.158 10.234C21.8428 10.373 21.496 10.4248 21.154 10.384C20.7974 10.3385 20.4679 10.1702 20.222 9.90799C19.9188 9.59825 19.676 9.2347 19.506 8.83599C19.3544 8.49309 19.2604 8.1275 19.228 7.75399C19.1846 7.39446 19.262 7.0307 19.448 6.71999C19.6585 6.38956 19.9668 6.133 20.33 5.98599C20.678 5.82599 21.006 5.78599 21.314 5.85799C21.622 5.93799 21.918 6.12599 22.206 6.45199L22.822 5.99599C22.5061 5.59869 22.0659 5.31905 21.572 5.20199C21.0651 5.09433 20.5367 5.16056 20.072 5.38999C19.6317 5.58352 19.2467 5.88394 18.952 6.26399C18.6647 6.64651 18.4982 7.10618 18.474 7.58399C18.444 8.08999 18.554 8.60599 18.792 9.15199C19.02 9.64999 19.318 10.076 19.694 10.432C20.074 10.78 20.49 11 20.946 11.068C21.282 11.12 21.644 11.084 22.036 10.964L22.096 11.654C22.2198 11.596 22.35 11.553 22.484 11.526C22.564 11.516 22.634 11.526 22.674 11.546C22.714 11.566 22.742 11.606 22.762 11.646C22.902 11.932 22.474 12.2 22.306 12.27C22.236 12.3 22.126 12.35 21.968 12.41L21.958 12.786C22.1929 12.726 22.4224 12.6464 22.644 12.548C22.99 12.4 23.22 12.21 23.328 12.002C23.438 11.794 23.458 11.594 23.378 11.416C23.3489 11.3518 23.3064 11.2946 23.2532 11.2484C23.2001 11.2021 23.1376 11.1679 23.07 11.148C22.922 11.088 22.742 11.098 22.454 11.188L22.426 10.82L22.474 10.8C22.9813 10.5982 23.4003 10.2224 23.656 9.73999ZM15.794 15.01L12.27 10.502L12.866 10.036L14.314 11.892L16.658 10.056L15.208 8.19999L15.814 7.73399L19.338 12.25L18.732 12.716L17.074 10.592L14.732 12.418L16.39 14.544L15.794 15.01ZM17.034 51.9L18.852 50.54L18.126 52.714L19.884 54.034H17.69L17.034 56.04L16.38 54.036H14.196L15.942 52.716L15.228 50.542L17.034 51.9ZM36.402 55.722L36.242 55.116L39.59 54.284L39.718 54.78C39.4405 55.298 39.2275 55.8481 39.084 56.418C38.904 57.072 38.804 57.738 38.784 58.392C38.764 58.858 38.804 59.356 38.894 59.872L38.24 60.04C38.1429 59.5326 38.0993 59.0165 38.11 58.5C38.12 57.886 38.21 57.28 38.358 56.676C38.4849 56.1278 38.6783 55.5972 38.934 55.096L36.402 55.722ZM24.55 59.732L23.924 59.544L25.046 55.644L23.914 55.304L24.074 54.778C24.758 54.958 25.126 54.978 25.562 54.452L26.03 54.58L24.55 59.732ZM46.974 51.9L45.148 50.54L45.874 52.714L44.116 54.034H46.31L46.974 56.04L47.63 54.036H49.814L48.068 52.716L48.772 50.542L46.974 51.9ZM14.106 47.236L9.40999 50.522L7.19799 47.354L7.75399 46.968L9.52999 49.52L10.99 48.496L9.43999 46.302L9.99599 45.906L11.536 48.11L13.67 46.62L14.106 47.236ZM8.54599 33.548L2.81799 33.35L2.96799 29.23L3.64199 29.25L3.52199 32.616L5.26999 32.686L5.38999 29.528L6.05399 29.538L5.94599 32.706L7.89199 32.774L8.01999 29.27L8.69599 29.29L8.54599 33.548ZM9.45999 38.94L3.81199 39.832L3.68199 39.068L7.65399 35.394L3.21599 36.1L3.10799 35.384L8.75599 34.482L8.87599 35.256L4.90399 38.928L9.35199 38.224L9.45999 38.94ZM11.496 43.524L6.26399 45.846L4.58599 42.066L5.20199 41.796L6.57199 44.884L8.17999 44.17L6.88999 41.28L7.50399 41.002L8.79599 43.902L10.572 43.108L9.14199 39.89L9.75799 39.622L11.496 43.524ZM32.184 58.184C32.134 57.55 32.154 57.044 32.254 56.644C32.3247 56.2915 32.4972 55.9675 32.75 55.712C33.0035 55.4727 33.3339 55.3316 33.682 55.314C33.9425 55.2874 34.2055 55.3252 34.448 55.424C34.6761 55.5191 34.8748 55.673 35.024 55.87C35.182 56.08 35.31 56.328 35.42 56.636C35.53 56.932 35.608 57.35 35.648 57.876C35.708 58.502 35.688 59.008 35.588 59.406C35.5172 59.7584 35.3448 60.0824 35.092 60.338C34.8386 60.5774 34.5081 60.7185 34.16 60.736C33.9294 60.7684 33.6944 60.7446 33.475 60.6666C33.2556 60.5886 33.0583 60.4587 32.9 60.288C32.512 59.882 32.274 59.176 32.184 58.184ZM32.858 58.124C32.938 58.998 33.088 59.564 33.316 59.832C33.544 60.11 33.812 60.23 34.11 60.198C34.408 60.178 34.646 60.01 34.824 59.702C35.004 59.394 35.052 58.81 34.984 57.936C34.904 57.062 34.756 56.486 34.526 56.218C34.288 55.95 34.03 55.832 33.722 55.862C33.5802 55.8699 33.4427 55.9141 33.3229 55.9905C33.2032 56.0668 33.105 56.1727 33.038 56.298C32.838 56.646 32.778 57.25 32.858 58.124ZM27.37 59.108L27.994 59.128C28.014 59.424 28.084 59.644 28.222 59.802C28.352 59.95 28.542 60.042 28.768 60.07C28.9476 60.0914 29.1297 60.0662 29.2968 59.9969C29.4639 59.9275 29.6103 59.8163 29.722 59.674C29.842 59.534 29.95 59.336 30.05 59.088C30.138 58.828 30.21 58.572 30.238 58.304C30.238 58.274 30.248 58.234 30.248 58.174C30.0934 58.3677 29.8916 58.5186 29.662 58.612C29.4245 58.7135 29.1637 58.748 28.908 58.712C28.6983 58.6912 28.4954 58.6265 28.3124 58.5221C28.1295 58.4177 27.9705 58.2759 27.846 58.106C27.586 57.746 27.488 57.31 27.546 56.794C27.618 56.248 27.826 55.842 28.184 55.554C28.3565 55.412 28.5569 55.3077 28.7722 55.2478C28.9875 55.1878 29.2129 55.1736 29.434 55.206C29.782 55.246 30.08 55.386 30.348 55.604C30.6128 55.8338 30.8029 56.1374 30.894 56.476C31.002 56.836 31.014 57.34 30.934 57.986C30.854 58.66 30.714 59.196 30.516 59.574C30.3515 59.9228 30.0851 60.2136 29.752 60.408C29.4283 60.5857 29.055 60.6517 28.69 60.596C28.319 60.566 27.9721 60.4001 27.716 60.13C27.4779 59.844 27.3546 59.4798 27.37 59.108ZM30.308 57.092C30.356 56.724 30.298 56.416 30.118 56.168C30.0412 56.0551 29.9415 55.9597 29.8254 55.8881C29.7092 55.8164 29.5793 55.77 29.444 55.752C29.3002 55.7375 29.1549 55.7539 29.018 55.8001C28.8811 55.8463 28.7556 55.9213 28.65 56.02C28.3966 56.2436 28.2402 56.5571 28.214 56.894C28.1897 57.0427 28.1956 57.1948 28.2313 57.3411C28.267 57.4875 28.3319 57.6252 28.422 57.746C28.6 57.986 28.838 58.126 29.136 58.164C29.2738 58.1831 29.4141 58.1727 29.5475 58.1333C29.681 58.094 29.8046 58.0267 29.91 57.936C30.1477 57.7173 30.2905 57.4145 30.308 57.092ZM12.2 19.336L9.13199 14.024L9.64999 13.39L15.576 15.166L15.03 15.842L13.262 15.266L11.754 17.132L12.706 18.712L12.2 19.336ZM11.416 16.566L12.636 15.058C12.636 15.058 10.146 14.224 9.84799 14.094C10.086 14.382 11.416 16.566 11.416 16.566ZM10.206 23.286L5.15199 20.596L6.15399 18.7C6.31346 18.38 6.53275 18.0935 6.79999 17.856C7.01858 17.6815 7.28501 17.5776 7.56399 17.558C7.83095 17.5345 8.09915 17.5865 8.33799 17.708C8.55372 17.8254 8.73241 18.0006 8.85399 18.214C8.98749 18.4492 9.05001 18.718 9.03399 18.988C9.25599 18.7502 9.54824 18.5897 9.86799 18.53C10.1781 18.48 10.496 18.5364 10.77 18.69C10.9869 18.8011 11.1762 18.9593 11.324 19.1531C11.4718 19.3469 11.5743 19.5714 11.624 19.81C11.6514 20.0396 11.6352 20.2724 11.576 20.496C11.516 20.744 11.396 21.032 11.228 21.36L10.206 23.286ZM9.95599 22.294L10.632 21.042C10.742 20.824 10.82 20.666 10.852 20.576C10.9016 20.4258 10.9246 20.2681 10.92 20.11C10.9062 19.9633 10.8545 19.8227 10.77 19.702C10.6757 19.5639 10.5458 19.454 10.394 19.384C10.2219 19.2874 10.0243 19.2462 9.82799 19.266C9.63532 19.2863 9.45606 19.3741 9.32199 19.514C9.12594 19.7181 8.9651 19.9533 8.84599 20.21L8.22999 21.37L9.95599 22.294ZM7.62399 21.054L8.20999 19.96C8.36999 19.672 8.45799 19.444 8.48799 19.296C8.53355 19.1235 8.51581 18.9405 8.43799 18.78C8.35866 18.6205 8.22945 18.4913 8.06999 18.412C7.91581 18.3256 7.74055 18.284 7.56399 18.292C7.39653 18.3119 7.24005 18.3856 7.11799 18.502C6.92543 18.7229 6.76516 18.9701 6.64199 19.236L6.10599 20.248L7.62399 21.052V21.054ZM8.78599 28.546L3.20599 27.256L3.78199 24.784C3.88999 24.288 4.02999 23.92 4.18799 23.684C4.35364 23.4493 4.5908 23.2746 4.86399 23.186C5.15218 23.0882 5.46222 23.0744 5.75799 23.146C6.15399 23.246 6.46199 23.444 6.66999 23.762C6.87999 24.08 6.96999 24.516 6.91799 25.072C7.02296 24.9266 7.15058 24.799 7.29599 24.694C7.5704 24.5082 7.86749 24.3583 8.17999 24.248L9.91599 23.632L9.70799 24.556L8.37799 25.032C8.07339 25.1303 7.77487 25.2465 7.48399 25.38C7.31787 25.4516 7.164 25.5487 7.02799 25.668C6.92799 25.768 6.84799 25.868 6.79999 25.976C6.74339 26.1059 6.70308 26.2422 6.67999 26.382L6.48199 27.236L8.95399 27.812L8.78599 28.546ZM5.83599 27.086L6.20399 25.5C6.28399 25.16 6.31399 24.894 6.28399 24.686C6.26734 24.4934 6.18219 24.3132 6.04399 24.178C5.92156 24.0408 5.75812 23.9468 5.57799 23.91C5.4561 23.8783 5.32864 23.8744 5.20505 23.8987C5.08146 23.9229 4.9649 23.9746 4.86399 24.05C4.65599 24.198 4.49599 24.486 4.39799 24.894L3.98999 26.66L5.83599 27.088V27.086ZM46.926 13.86L51.046 9.88799L52.802 11.714C53.16 12.082 53.398 12.388 53.508 12.656C53.616 12.916 53.626 13.192 53.556 13.492C53.4773 13.7867 53.3196 14.0543 53.1 14.266C52.8298 14.5325 52.4675 14.685 52.088 14.692C51.7 14.692 51.294 14.524 50.856 14.186C50.9192 14.3547 50.9562 14.5321 50.966 14.712C50.976 15.01 50.936 15.338 50.856 15.694L50.43 17.492L49.764 16.806L50.102 15.426C50.19 15.03 50.25 14.722 50.29 14.494C50.3203 14.3133 50.3203 14.1287 50.29 13.948C50.2684 13.8221 50.2251 13.701 50.162 13.59C50.122 13.52 50.022 13.41 49.894 13.272L49.278 12.638L47.452 14.404L46.926 13.86ZM49.754 12.18L50.886 13.352C51.126 13.6 51.342 13.778 51.522 13.868C51.6945 13.952 51.8888 13.9799 52.078 13.948C52.2578 13.9145 52.4235 13.8281 52.554 13.7C52.6476 13.615 52.7211 13.5102 52.7692 13.3933C52.8172 13.2764 52.8387 13.1502 52.832 13.024C52.822 12.756 52.662 12.478 52.374 12.17L51.114 10.87L49.754 12.18ZM43.094 8.27999C43.55 7.44599 44.134 6.91999 44.842 6.69999C45.546 6.47199 46.262 6.55999 46.966 6.94799C47.422 7.20799 47.78 7.54399 48.026 7.97199C48.276 8.39799 48.386 8.86399 48.366 9.37199C48.346 9.86799 48.186 10.372 47.908 10.87C47.6612 11.3506 47.2965 11.7608 46.848 12.062C46.4458 12.3437 45.9671 12.4958 45.476 12.498C44.9896 12.492 44.5122 12.3663 44.086 12.132C43.6379 11.8913 43.2664 11.5296 43.014 11.088C42.7688 10.664 42.6547 10.1768 42.686 9.68799C42.716 9.18199 42.846 8.71599 43.094 8.27999ZM43.768 8.66599C43.432 9.27199 43.332 9.83799 43.46 10.364C43.6 10.89 43.908 11.288 44.394 11.564C44.6233 11.6973 44.8786 11.7798 45.1426 11.8056C45.4067 11.8315 45.6731 11.8003 45.924 11.714C46.44 11.546 46.876 11.138 47.234 10.494C47.462 10.086 47.58 9.68799 47.62 9.31199C47.6498 8.95087 47.5741 8.58887 47.402 8.26999C47.2302 7.95205 46.9677 7.69238 46.648 7.52399C46.4262 7.39591 46.181 7.31331 45.9269 7.28104C45.6728 7.24876 45.4148 7.26744 45.168 7.33599C44.652 7.46599 44.186 7.91199 43.768 8.66599ZM37.226 9.12199L38.994 3.67199L41.048 4.34799C41.3296 4.4254 41.6025 4.53197 41.862 4.66599C42.0912 4.77766 42.2917 4.94052 42.448 5.14199C42.588 5.32199 42.676 5.53999 42.716 5.80799C42.7529 6.07525 42.7255 6.34747 42.636 6.60199C42.5067 7.03986 42.2119 7.41008 41.814 7.63399C41.416 7.85399 40.83 7.84199 40.066 7.59399L38.666 7.13799L37.952 9.35199L37.226 9.12199ZM38.874 6.50199L40.284 6.95799C40.75 7.10799 41.108 7.12799 41.356 7.01799C41.4877 6.96002 41.6044 6.87279 41.6973 6.76293C41.7901 6.65307 41.8567 6.52347 41.892 6.38399C41.9625 6.17539 41.9694 5.95056 41.912 5.73799C41.8528 5.5451 41.7265 5.37978 41.556 5.27199C41.3471 5.16041 41.1273 5.07061 40.9 5.00399L39.51 4.55599L38.874 6.50199ZM54.36 38.888L59.712 40.942L58.936 42.948C58.8206 43.2856 58.6383 43.5965 58.4 43.862C58.2052 44.0635 57.9519 44.1986 57.676 44.248C57.4147 44.3086 57.141 44.2877 56.892 44.188C56.6638 44.1029 56.4641 43.9553 56.316 43.762C56.1539 43.542 56.0576 43.2805 56.038 43.008C55.8545 43.2753 55.5848 43.4716 55.274 43.564C54.9731 43.6569 54.6489 43.6391 54.36 43.514C54.1179 43.4242 53.9006 43.2782 53.726 43.088C53.5654 42.9267 53.4461 42.7291 53.378 42.512C53.3184 42.2884 53.3048 42.055 53.338 41.826C53.368 41.568 53.448 41.27 53.578 40.924L54.36 38.888ZM54.718 39.842L54.212 41.172C54.122 41.4 54.072 41.558 54.052 41.658C54.0192 41.8113 54.0158 41.9694 54.042 42.124C54.062 42.264 54.132 42.384 54.232 42.512C54.3561 42.6457 54.5126 42.7453 54.6863 42.801C54.8601 42.8567 55.0452 42.8667 55.224 42.83C55.4109 42.7857 55.576 42.6765 55.69 42.522C55.82 42.372 55.95 42.114 56.088 41.776L56.554 40.546L54.718 39.842ZM57.19 40.784L56.742 41.944C56.6494 42.1676 56.5829 42.4011 56.544 42.64C56.5245 42.817 56.566 42.9953 56.6617 43.1455C56.7573 43.2957 56.9014 43.4088 57.07 43.466C57.233 43.5347 57.4131 43.5514 57.586 43.514C57.7531 43.4844 57.9026 43.3921 58.004 43.256C58.112 43.116 58.242 42.858 58.39 42.472L58.808 41.41L57.19 40.784Z" fill="black"/>
</svg>
