<svg xmlns="http://www.w3.org/2000/svg" width="64" height="64" viewBox="0 0 64 64">
  <g id="fet" transform="translate(-479 -7217.402)">
    <g id="Group_5290" data-name="Group 5290">
      <circle id="Ellipse_115" data-name="Ellipse 115" cx="32" cy="32" r="32" transform="translate(479 7217.402)" fill="#202944"/>
      <g id="Group_5289" data-name="Group 5289">
        <rect id="Rectangle_1597" data-name="Rectangle 1597" width="38" height="40" transform="translate(492 7229.402)" fill="#fff"/>
        <path id="cdnlogo.com_fetch-ai" d="M0,0V42.732H42.049V0ZM14.7,4.957h3.931v4.1H14.7Zm-9.914,0h4.1v4.1h-4.1Zm3.931,9.914v4.1h-4.1v-4.1ZM7.692,37.434H5.983V35.9H7.521v1.538Zm1.2-8.2h-4.1V25.3h4.1Zm8.717,8.2H16.067V35.9h1.538Zm0-9.572H16.067V26.323h1.538Zm1.2-8.717H14.7v-4.1h4.1ZM27.52,37.434H25.981V35.9H27.52Zm0-9.572H25.981V26.323H27.52Zm0-10.085H25.981V16.238H27.52Zm1.367-8.717h-4.1v-4.1h4.1ZM37.6,37.434H36.066V35.9H37.6Zm0-9.572H36.066V26.323H37.6Zm0-10.085H36.066V16.238H37.6Zm0-9.914H36.066V6.324H37.6Z" transform="translate(489.976 7228.036)" fill="#202944"/>
      </g>
    </g>
  </g>
</svg>
