<svg width="64" height="64" viewBox="0 0 64 64" fill="none" xmlns="http://www.w3.org/2000/svg">
<g clip-path="url(#clip0_40_30157)">
<path d="M32 64C49.6731 64 64 49.6731 64 32C64 14.3269 49.6731 0 32 0C14.3269 0 0 14.3269 0 32C0 49.6731 14.3269 64 32 64Z" fill="#202944"/>
<path d="M51 12H13V52H51V12Z" fill="white"/>
<path d="M10.9761 10.6343V53.3663H53.0251V10.6343H10.9761ZM25.6761 15.5913H29.6071V19.6913H25.6761V15.5913ZM15.7621 15.5913H19.8621V19.6913H15.7621V15.5913ZM19.6931 25.5053V29.6053H15.5931V25.5053H19.6931ZM18.6681 48.0683H16.9591V46.5343H18.4971V48.0723L18.6681 48.0683ZM19.8681 39.8683H15.7681V35.9343H19.8681V39.8683ZM28.5851 48.0683H27.0431V46.5343H28.5811L28.5851 48.0683ZM28.5851 38.4963H27.0431V36.9573H28.5811L28.5851 38.4963ZM29.7851 29.7793H25.6761V25.6793H29.7761L29.7851 29.7793ZM38.4961 48.0683H36.9571V46.5343H38.4961V48.0683ZM38.4961 38.4963H36.9571V36.9573H38.4961V38.4963ZM38.4961 28.4113H36.9571V26.8723H38.4961V28.4113ZM39.8631 19.6943H35.7631V15.5943H39.8631V19.6943ZM48.5761 48.0683H47.0421V46.5343H48.5761V48.0683ZM48.5761 38.4963H47.0421V36.9573H48.5761V38.4963ZM48.5761 28.4113H47.0421V26.8723H48.5761V28.4113ZM48.5761 18.4973H47.0421V16.9583H48.5761V18.4973Z" fill="#202944"/>
</g>
<defs>
<clipPath id="clip0_40_30157">
<rect width="64" height="64" fill="white"/>
</clipPath>
</defs>
</svg>
