<svg width="64" height="64" viewBox="0 0 64 64" fill="none" xmlns="http://www.w3.org/2000/svg">
<g clip-path="url(#clip0_40_30164)">
<path d="M32 64C49.6731 64 64 49.6731 64 32C64 14.3269 49.6731 0 32 0C14.3269 0 0 14.3269 0 32C0 49.6731 14.3269 64 32 64Z" fill="#0B4080"/>
<path fill-rule="evenodd" clip-rule="evenodd" d="M13.116 27.2191H50.8839V17.6721H13.116V27.2191ZM15.687 21.8191H17.313V22.7101H15.687V25.2831H14.48V19.5651H17.418V20.4571H15.688L15.687 21.8191ZM39.6069 21.8191H41.338V22.7101H39.6069V24.3361H41.548V25.2801H38.401V19.5621H41.496V20.4541H39.6069V21.8191ZM26.5449 19.5631H30.375V20.5071H29.064V25.2831H27.8049V20.5091H26.546L26.5449 19.5631ZM41.9149 19.5631H45.324V20.5071C45.324 20.9541 43.214 23.7131 43.069 24.3371H45.4299V24.9661C45.5429 24.7861 46.13 22.6411 46.23 22.2491C46.349 21.7741 46.483 21.3491 46.619 20.8541C46.685 20.6101 46.873 19.5631 47.111 19.5631L48.511 19.5691L50.052 25.2811H48.9519C48.7329 25.2811 48.552 24.2491 48.532 24.0221H46.908L46.5909 25.2811H41.818V24.2811C41.818 24.1651 43.887 20.9581 44.126 20.5041H41.926L41.9149 19.5631ZM25.391 22.5011C26.026 22.5541 26.105 22.9611 26.174 23.5541C26.201 23.7931 26.174 24.1861 26.174 24.4431C26.174 24.8071 26.281 24.9431 26.281 25.2801H25.1809C24.6639 25.2801 25.453 22.9201 24.395 22.9201H23.817V25.2801H22.611V19.5621H24.028C25.355 19.5621 26.1279 19.6711 26.1279 21.0301V21.1891C26.1249 22.2641 25.681 22.1031 25.39 22.4981L25.391 22.5011ZM17.991 22.6011V21.8671C17.991 20.4391 18.4469 19.5061 19.8779 19.5061H19.9309C20.1883 19.4873 20.4466 19.525 20.6879 19.6167C20.9291 19.7084 21.1473 19.8516 21.3273 20.0366C21.5072 20.2216 21.6444 20.4437 21.7294 20.6874C21.8143 20.931 21.8449 21.1903 21.819 21.4471V23.0741C21.819 24.2151 21.389 25.3291 20.298 25.3291H19.564C18.273 25.3311 17.995 23.9401 17.995 22.6031L17.991 22.6011ZM31 25.2761L29.928 25.2691L31.528 19.5581H32.944C33.158 19.5581 33.363 20.6421 33.437 20.9011C33.563 21.3441 33.7529 21.9381 33.8319 22.3421C33.9699 23.0511 34.6089 24.6851 34.6219 25.2751H33.3779L33.1019 24.0181H31.424C31.403 24.2621 31.2209 25.2831 31.0029 25.2831L31 25.2761ZM35.038 19.5581H36.298V24.2261H38.0289V25.2761H35.0389L35.038 19.5581Z" fill="#FEFEFE"/>
<path fill-rule="evenodd" clip-rule="evenodd" d="M31.2579 53.2439L31.266 29.1089L15.151 29.1159L31.2579 53.2439Z" fill="#2861A6"/>
<path fill-rule="evenodd" clip-rule="evenodd" d="M32.683 53.2379L48.783 29.1089H32.683V53.2379Z" fill="#E1251B"/>
<path fill-rule="evenodd" clip-rule="evenodd" d="M12.015 28.4271L31.896 58.1691H31.9961L51.9811 28.3691V16.5691H12.01L12.015 28.4271ZM13.115 17.6731H50.884V27.2201H13.115V17.6731ZM31.928 56.2451L13.0951 28.0251L50.832 28.0101L31.928 56.2451Z" fill="#2861A6"/>
<path d="M32.0439 58.25H31.8521L31.828 58.2141L11.928 28.451V16.49H52.062V28.398L52.049 28.419L32.0439 58.25ZM31.944 58.087H31.9611L51.9091 28.349V16.649H12.101V28.398L31.944 58.087ZM31.933 56.387L12.948 27.939H13.1L50.99 27.925L50.905 28.051L31.933 56.387ZM13.2531 28.102L31.933 56.094L50.684 28.088L13.2531 28.102ZM50.972 27.302H13.035V17.592H50.967L50.972 27.302ZM13.203 27.138H50.808V17.758H13.203V27.138Z" fill="#FEFEFE"/>
<path fill-rule="evenodd" clip-rule="evenodd" d="M31.928 56.2411L50.828 28.0081L13.0909 28.0231L31.928 56.2411ZM15.151 29.1151L31.266 29.1081L31.257 53.2441L15.151 29.1151ZM32.682 29.1081H48.782L32.682 53.2371V29.1081Z" fill="#FEFEFE"/>
<path fill-rule="evenodd" clip-rule="evenodd" d="M47.1069 19.561C46.8689 19.561 46.682 20.608 46.615 20.853C46.48 21.353 46.344 21.773 46.226 22.247C46.126 22.639 45.5419 24.7851 45.4259 24.9641V24.334H43.0649C43.2099 23.712 45.3209 20.951 45.3209 20.505V19.5601H41.9109V20.505H44.111C43.872 20.958 41.803 24.165 41.803 24.282V25.282H46.5759L46.8929 24.023H48.517C48.536 24.251 48.7169 25.283 48.9369 25.283H50.037L48.496 19.571L47.1069 19.561ZM47.6969 20.7711L48.3059 23.13H47.1179L47.6969 20.7711Z" fill="#2861A6"/>
<path fill-rule="evenodd" clip-rule="evenodd" d="M25.3921 22.499C25.6811 22.099 26.1271 22.2651 26.1271 21.1871V21.0291C26.1271 19.6701 25.3571 19.561 24.0271 19.561H22.6101V25.2791H23.816V22.918H24.394C25.452 22.918 24.663 25.2791 25.181 25.2791H26.281C26.281 24.9421 26.175 24.805 26.175 24.441C26.175 24.185 26.199 23.7911 26.175 23.5521C26.106 22.9591 26.0271 22.5521 25.3921 22.5001M23.8701 20.506H24.447C24.804 20.506 24.972 20.773 24.972 21.136V21.188C24.972 21.788 24.7281 22.0281 24.1331 22.0281H23.8701V20.506Z" fill="#2861A6"/>
<path fill-rule="evenodd" clip-rule="evenodd" d="M17.995 22.603C17.995 23.94 18.273 25.33 19.568 25.33H20.302C21.394 25.33 21.824 24.215 21.824 23.075V21.449C21.8501 21.1922 21.8197 20.9327 21.7347 20.6889C21.6498 20.4451 21.5125 20.2228 21.3324 20.0378C21.1523 19.8527 20.9338 19.7094 20.6924 19.6179C20.451 19.5264 20.1924 19.4889 19.9349 19.508H19.8829C18.4509 19.508 17.995 20.442 17.995 21.868V22.603ZM19.2009 21.921C19.2009 21.276 19.26 20.4 19.882 20.4H19.9869C20.5629 20.4 20.6169 21.215 20.6169 21.816V23.285C20.6169 23.785 20.4729 24.439 19.9869 24.439H19.83C19.196 24.439 19.2 23.281 19.2 22.604L19.2009 21.921Z" fill="#2861A6"/>
<path fill-rule="evenodd" clip-rule="evenodd" d="M31.004 25.2791C31.223 25.2791 31.4041 24.2631 31.4241 24.0201H33.1021L33.3781 25.2771H34.6221C34.6101 24.6871 33.97 23.0531 33.832 22.3441C33.753 21.9441 33.563 21.3441 33.432 20.9021C33.359 20.6431 33.1541 19.5591 32.9391 19.5591H31.524L29.9241 25.2701L31.004 25.2791ZM32.2831 20.7591L32.869 23.1221H31.656L32.2831 20.7591Z" fill="#2861A6"/>
<path fill-rule="evenodd" clip-rule="evenodd" d="M39.6071 20.4531H41.495V19.561H38.395V25.2791H41.5431V24.335H39.6021V22.7081H41.333V21.817H39.6021L39.6071 20.4531Z" fill="#2861A6"/>
<path fill-rule="evenodd" clip-rule="evenodd" d="M15.6859 20.4531H17.417V19.561H14.479V25.2791H15.6859V22.709H17.3119V21.8181H15.6859V20.4531Z" fill="#2861A6"/>
<path fill-rule="evenodd" clip-rule="evenodd" d="M26.5439 20.5051H27.803V25.2791H29.062V20.5051H30.3739V19.561H26.5439V20.5051Z" fill="#2861A6"/>
<path fill-rule="evenodd" clip-rule="evenodd" d="M35.042 25.2791H38.0321V24.2291H36.2991V19.561H35.0391L35.042 25.2791Z" fill="#2861A6"/>
<path fill-rule="evenodd" clip-rule="evenodd" d="M19.202 21.92V22.6021C19.202 23.2791 19.202 24.4371 19.832 24.4371H19.989C20.474 24.4371 20.618 23.7851 20.618 23.2831V21.8201C20.618 21.2201 20.565 20.4041 19.989 20.4041H19.8829C19.2609 20.4041 19.202 21.279 19.202 21.925" fill="#FEFEFE"/>
<path fill-rule="evenodd" clip-rule="evenodd" d="M23.87 22.022H24.1331C24.7281 22.022 24.972 21.778 24.972 21.183V21.13C24.972 20.768 24.804 20.5 24.447 20.5H23.87V22.022Z" fill="#FEFEFE"/>
<path fill-rule="evenodd" clip-rule="evenodd" d="M31.652 23.1201H32.865L32.2791 20.7571L31.652 23.1201Z" fill="#FEFEFE"/>
<path fill-rule="evenodd" clip-rule="evenodd" d="M47.119 23.131H48.307L47.698 20.772L47.119 23.131Z" fill="#FEFEFE"/>
<path fill-rule="evenodd" clip-rule="evenodd" d="M32 5.75L32.9409 8.64099L36.0029 8.63501L33.522 10.416L34.474 13.303L32 11.513L29.526 13.303L30.478 10.416L27.9969 8.63501L31.059 8.64099L32 5.75Z" fill="#BA8843"/>
</g>
<defs>
<clipPath id="clip0_40_30164">
<rect width="64" height="64" fill="white"/>
</clipPath>
</defs>
</svg>
