<svg width="64" height="64" viewBox="0 0 64 64" fill="none" xmlns="http://www.w3.org/2000/svg">
<g clip-path="url(#clip0_40_30187)">
<path d="M32 64C49.6731 64 64 49.6731 64 32C64 14.3269 49.6731 0 32 0C14.3269 0 0 14.3269 0 32C0 49.6731 14.3269 64 32 64Z" fill="black"/>
<mask id="mask0_40_30187" style="mask-type:luminance" maskUnits="userSpaceOnUse" x="12" y="21" width="40" height="22">
<path d="M51.634 21.5959H12.366V42.4039H51.634V21.5959Z" fill="white"/>
</mask>
<g mask="url(#mask0_40_30187)">
<path d="M17.0759 27.0279V30.5529H21.8469V33.6799H17.0759V40.5899H13.7369V24.9599C13.7369 24.1129 14.067 23.7849 14.913 23.7849H22.812V27.0269L17.0759 27.0279Z" fill="white"/>
<path d="M23.939 40.5899V24.9589C23.939 24.1119 24.268 23.7849 25.114 23.7849H27.275V40.5849L23.939 40.5899Z" fill="white"/>
<path d="M36.9349 32.1269C37.7349 31.7519 38.9349 30.8109 38.9349 28.2269C38.9349 25.8769 37.335 23.7859 33.929 23.7859H30.144C29.299 23.7859 28.968 24.1139 28.968 24.9609V40.5909H34.068C36.936 40.5909 39.051 38.9909 39.051 35.7909C39.051 33.5119 37.8289 32.4309 36.9349 32.1249M32.235 26.6249H33.693C34.2195 26.6482 34.7166 26.8737 35.0809 27.2545C35.4452 27.6353 35.6485 28.1419 35.6485 28.6689C35.6485 29.1959 35.4452 29.7025 35.0809 30.0833C34.7166 30.4641 34.2195 30.6896 33.693 30.7129H32.235V26.6249ZM33.718 37.6949H32.235V33.5139H33.718C34.2401 33.561 34.7257 33.8017 35.0794 34.1888C35.4331 34.5758 35.6292 35.0811 35.6292 35.6054C35.6292 36.1297 35.4331 36.635 35.0794 37.022C34.7257 37.409 34.2401 37.6498 33.718 37.6969" fill="white"/>
<path d="M45.372 23.4089C41.189 23.4089 40.483 26.6759 40.483 27.9669V40.5899H43.822V34.9239H46.922V40.5899H50.261V27.9669C50.261 26.6759 49.554 23.4089 45.371 23.4089M46.922 31.7989H43.822V28.3439C43.822 27.6379 44.056 26.4439 45.372 26.4439C46.688 26.4439 46.923 27.6439 46.923 28.3439L46.922 31.7989Z" fill="white"/>
</g>
</g>
<defs>
<clipPath id="clip0_40_30187">
<rect width="64" height="64" fill="white"/>
</clipPath>
</defs>
</svg>
