<svg xmlns="http://www.w3.org/2000/svg" xmlns:xlink="http://www.w3.org/1999/xlink" width="64" height="64" viewBox="0 0 64 64"><defs><clipPath id="a"><rect width="39.268" height="20.808" fill="#fff"/></clipPath></defs><g transform="translate(-99 -72)"><circle cx="32" cy="32" r="32" transform="translate(99 72)"/><g transform="translate(111.366 93.596)"><g clip-path="url(#a)"><path d="M582.264,282.168v3.525h4.771v3.127h-4.771v6.91h-3.339V280.1c0-.847.33-1.175,1.176-1.175H588v3.242Z" transform="translate(-577.554 -276.736)" fill="#fff"/><path d="M615.82,295.731V280.1c0-.847.329-1.174,1.175-1.174h2.161v16.8Z" transform="translate(-604.247 -276.737)" fill="#fff"/><path d="M641.97,287.264c.8-.375,2-1.316,2-3.9,0-2.35-1.6-4.441-5.006-4.441h-3.785c-.845,0-1.176.328-1.176,1.175v15.63h5.1c2.868,0,4.983-1.6,4.983-4.8,0-2.279-1.222-3.36-2.116-3.666m-4.7-5.5h1.458a2.046,2.046,0,0,1,0,4.088h-1.458Zm1.483,11.07h-1.483v-4.181h1.483a2.1,2.1,0,0,1,0,4.183" transform="translate(-617.401 -276.733)" fill="#fff"/><path d="M680.543,277.565c-4.183,0-4.889,3.267-4.889,4.558v12.623h3.339V289.08h3.1v5.666h3.339V282.123c0-1.291-.707-4.558-4.89-4.558m1.551,8.39h-3.1V282.5c0-.706.234-1.9,1.55-1.9s1.551,1.2,1.551,1.9Z" transform="translate(-647.537 -275.752)" fill="#fff"/></g></g></g></svg>