<svg xmlns="http://www.w3.org/2000/svg" width="64" height="64.001" viewBox="0 0 64 64.001"><g transform="translate(0 0.001)"><path d="M32,64A32,32,0,1,1,64,32.32,32.128,32.128,0,0,1,32,64" transform="translate(0 0)" fill="#0090ff" fill-rule="evenodd"/><path d="M28.8,24.384l-.96,5.12,9.12,1.28-.64,2.4L27.36,31.9c-.64,2.08-.96,4.32-1.76,6.24-.8,2.24-1.6,4.48-2.56,6.56a8.637,8.637,0,0,1-6.56,5.12,6.411,6.411,0,0,1-5.12-.96,2.131,2.131,0,0,1-.96-1.44,2.292,2.292,0,0,1,.8-1.76,2.884,2.884,0,0,1,1.6.16,7.1,7.1,0,0,1,1.28,1.76,2.284,2.284,0,0,0,3.52.48,9.666,9.666,0,0,0,2.72-4.8c.96-3.84,1.92-7.52,2.72-11.36v-.64l-8.48-1.28.32-2.4,8.8,1.28L24.8,23.9l-9.12-1.44L16,19.9l9.44,1.28c.32-.96.48-1.76.8-2.56.8-2.88,1.6-5.76,3.52-8.32s4.16-4.16,7.52-4a4.963,4.963,0,0,1,3.84,1.6,1.36,1.36,0,0,1,.48.8,2.682,2.682,0,0,1-.48,1.92,1.538,1.538,0,0,1-2.08-.32c-.48-.48-.8-.96-1.28-1.44a2.182,2.182,0,0,0-3.52-.32,10.248,10.248,0,0,0-2.08,3.04c-1.12,3.36-1.92,6.88-3.04,10.4l8.8,1.28-.64,2.4-8.48-1.28" transform="translate(6.24 3.776)" fill="#fff" fill-rule="evenodd"/></g></svg>