<svg width="64" height="64" viewBox="0 0 64 64" fill="none" xmlns="http://www.w3.org/2000/svg">
<g clip-path="url(#clip0_40_30199)">
<path fill-rule="evenodd" clip-rule="evenodd" d="M32 64.001C25.6574 64.0007 19.458 62.1156 14.1889 58.585C8.91986 55.0544 4.81879 50.0377 2.40648 44.1718C-0.00583959 38.3059 -0.620583 31.8554 0.640302 25.6395C1.90119 19.4235 4.98082 13.7224 9.48817 9.26016C13.9955 4.79788 19.7273 1.7757 25.9556 0.577345C32.1839 -0.621007 38.6279 0.058533 44.4692 2.52968C50.3106 5.00083 55.2859 9.15211 58.7633 14.4564C62.2407 19.7607 64.0634 25.9787 64 32.321C63.8826 40.7419 60.4635 48.78 54.4786 54.705C48.4937 60.6301 40.4216 63.9683 32 64.001Z" fill="#0090FF"/>
<path fill-rule="evenodd" clip-rule="evenodd" d="M35.04 28.1609L34.08 33.2809L43.2 34.5609L42.56 36.9609L33.6 35.6769C32.96 37.7569 32.64 39.9969 31.84 41.9169C31.04 44.1569 30.24 46.3969 29.28 48.4769C28.7062 49.8137 27.8041 50.984 26.6573 51.879C25.5104 52.7741 24.1561 53.365 22.72 53.5969C21.8469 53.8041 20.94 53.8257 20.0581 53.6604C19.1761 53.495 18.3387 53.1463 17.6 52.6369C17.3481 52.4774 17.1326 52.2668 16.9672 52.0187C16.8019 51.7707 16.6904 51.4907 16.64 51.1969C16.6371 50.863 16.7071 50.5324 16.8453 50.2284C16.9835 49.9244 17.1865 49.6543 17.44 49.4369C17.9777 49.3375 18.5326 49.393 19.04 49.5969C19.5546 50.1143 19.9863 50.7079 20.32 51.3569C20.4963 51.6483 20.7356 51.8965 21.0203 52.0835C21.305 52.2704 21.6279 52.3913 21.9654 52.4374C22.3028 52.4834 22.6463 52.4533 22.9707 52.3494C23.295 52.2455 23.5921 52.0704 23.84 51.8369C25.1937 50.5351 26.1389 48.8672 26.56 47.0369C27.52 43.1969 28.48 39.5169 29.28 35.6769V35.0369L20.8 33.7569L21.12 31.3569L29.92 32.6369L31.04 27.6769L21.92 26.2369L22.24 23.6769L31.68 24.9569C32 23.9969 32.16 23.1969 32.48 22.3969C33.28 19.5169 34.08 16.6369 36 14.0769C37.92 11.5169 40.16 9.9169 43.52 10.0769C44.2377 10.0499 44.9527 10.1789 45.6157 10.4552C46.2787 10.7314 46.8738 11.1482 47.36 11.6769C47.6093 11.8786 47.7793 12.162 47.84 12.4769C47.9306 13.1547 47.7589 13.8415 47.36 14.3969C47.0375 14.6179 46.643 14.7078 46.2567 14.6483C45.8703 14.5889 45.5211 14.3846 45.28 14.0769C44.8 13.5969 44.48 13.1169 44 12.6369C43.8238 12.3404 43.5798 12.0898 43.2881 11.9059C42.9964 11.7219 42.6652 11.6096 42.3217 11.5784C41.9782 11.5472 41.6322 11.5978 41.312 11.7262C40.9919 11.8546 40.7067 12.057 40.48 12.3169C39.6087 13.1963 38.904 14.2263 38.4 15.3569C37.28 18.7169 36.48 22.2369 35.36 25.7569L44.16 27.0369L43.52 29.4369L35.04 28.1569" fill="white"/>
</g>
<defs>
<clipPath id="clip0_40_30199">
<rect width="64" height="64.001" fill="white"/>
</clipPath>
</defs>
</svg>
