<svg width="64" height="64" viewBox="0 0 64 64" fill="none" xmlns="http://www.w3.org/2000/svg">
<g clip-path="url(#clip0_40_30203)">
<path d="M32 64C49.6731 64 64 49.6731 64 32C64 14.3269 49.6731 0 32 0C14.3269 0 0 14.3269 0 32C0 49.6731 14.3269 64 32 64Z" fill="#222222"/>
<path fill-rule="evenodd" clip-rule="evenodd" d="M26.67 17.6281C26.8168 17.5196 26.9873 17.4475 27.1674 17.4177C27.3475 17.388 27.5321 17.4015 27.706 17.4571C28.4449 17.6888 29.1149 18.1 29.6559 18.6541C30.1969 19.2082 30.5921 19.8878 30.806 20.6321C30.8984 21.1379 31.1267 21.609 31.4666 21.9948C31.8064 22.3807 32.2449 22.6667 32.735 22.8221C33.2448 23.0104 33.7776 23.1295 34.319 23.1761V22.0761C34.319 21.4606 34.5635 20.8702 34.9988 20.4349C35.4341 19.9997 36.0244 19.7551 36.64 19.7551C37.2556 19.7551 37.8459 19.9997 38.2812 20.4349C38.7165 20.8702 38.961 21.4606 38.961 22.0761V24.4091C38.9611 24.7185 38.8389 25.0155 38.621 25.2351C38.5135 25.3435 38.3856 25.4295 38.2447 25.4882C38.1038 25.5469 37.9526 25.5771 37.8 25.5771C35.869 25.9241 35.479 28.0131 35.479 29.0771C35.479 32.0771 37.728 36.0771 41.148 36.0771C41.3119 36.058 41.478 36.0744 41.635 36.1251C42.603 36.4371 42.235 37.4251 42.735 38.0641C44.042 39.7431 45.92 40.5261 45.92 43.0931C45.9157 43.7219 45.7338 44.3366 45.3954 44.8665C45.0569 45.3963 44.5756 45.8198 44.007 46.0881C43.0205 46.4784 41.9615 46.652 40.902 46.5971C36.889 46.5971 34.25 43.8421 33.079 42.8971C28.904 39.5021 25.569 34.9591 21.572 31.3611C19.6626 29.5492 18.4301 27.1389 18.079 24.5301C18.0514 24.2659 18.1141 24.0001 18.257 23.7761C18.3995 23.5528 18.614 23.3848 18.865 23.3001L21.831 22.3021C22.1164 21.5176 22.6005 20.8206 23.236 20.2791C24.257 19.4021 26.67 17.6281 26.67 17.6281ZM28.549 21.1791C28.4692 20.9094 28.333 20.6597 28.1494 20.4466C27.9658 20.2335 27.739 20.0619 27.484 19.9431C26.884 20.3941 25.407 21.4871 24.746 22.0571C24.4599 22.3325 24.2291 22.66 24.066 23.0221L25.866 25.3141C26.849 26.5021 24.919 27.9321 24.049 26.7631L22.349 24.5961L20.619 25.1781C20.9447 26.8919 21.8228 28.4517 23.119 29.6191C27.083 33.1871 30.395 37.7121 34.541 41.0761C35.835 42.1251 37.511 43.8121 39.941 44.1831C36.568 41.7181 31.441 36.1411 29.677 32.5831C29.977 32.9361 30.993 33.5491 31.377 33.2761C31.5693 33.1345 31.7004 32.925 31.7436 32.6902C31.7869 32.4554 31.7391 32.2129 31.61 32.0121C31.2331 31.4882 30.8065 31.0019 30.336 30.5601C29.458 29.6681 28.52 28.7161 28.52 27.9111C28.5055 27.7547 28.5255 27.597 28.5786 27.4492C28.6318 27.3014 28.7167 27.1671 28.8274 27.0557C28.9381 26.9443 29.072 26.8586 29.2195 26.8045C29.367 26.7505 29.5245 26.7296 29.681 26.7431C30.331 26.7431 30.887 27.9021 32.002 27.9021C32.1561 27.9089 32.3099 27.8836 32.4537 27.8278C32.5975 27.772 32.7282 27.6869 32.8373 27.5779C32.9465 27.4689 33.0318 27.3384 33.0879 27.1947C33.1439 27.051 33.1695 26.8972 33.163 26.7431C33.1818 26.3853 33.0884 26.0304 32.8959 25.7282C32.7033 25.426 32.4213 25.1914 32.089 25.0571C31.2165 24.7676 30.4328 24.259 29.813 23.58C29.1932 22.901 28.758 22.0744 28.549 21.1791ZM40.914 39.5021C40.6722 39.1892 40.4803 38.8407 40.345 38.4691C39.629 38.5471 38.962 38.7841 38.962 39.5931C38.962 41.9601 41.596 43.2401 43.314 43.8331C43.542 43.7071 43.604 43.5751 43.604 43.0891C43.605 41.4211 41.827 40.6791 40.914 39.5021Z" fill="#F9D549"/>
<path d="M40.56 26.8142C41.632 27.2502 41.332 28.6662 40.76 29.3912C40.5046 29.7273 40.1553 29.9802 39.7563 30.118C39.3573 30.2557 38.9264 30.2721 38.518 30.1652C38.3411 30.0897 38.1852 29.9722 38.0639 29.823C37.9426 29.6737 37.8596 29.4971 37.8219 29.3084C37.7843 29.1198 37.7932 28.9248 37.848 28.7404C37.9027 28.556 38.0016 28.3877 38.136 28.2502C38.2456 28.1422 38.3754 28.0569 38.518 27.9993C38.6606 27.9416 38.8132 27.9127 38.967 27.9142C38.9667 27.7237 39.0127 27.5359 39.1011 27.3672C39.1895 27.1984 39.3176 27.0537 39.4743 26.9454C39.6311 26.8372 39.8118 26.7687 40.001 26.7458C40.1901 26.7229 40.382 26.7464 40.56 26.8142Z" fill="#F9D549"/>
<path d="M40.451 30.5872C40.5586 30.4776 40.6867 30.3903 40.8281 30.3303C40.9694 30.2703 41.1213 30.2388 41.2748 30.2376C41.4284 30.2364 41.5807 30.2655 41.723 30.3233C41.8653 30.381 41.9948 30.4663 42.104 30.5742C42.3474 30.9226 42.4617 31.3449 42.4274 31.7685C42.3931 32.1921 42.2123 32.5905 41.916 32.8952C41.6979 33.1604 41.4243 33.3746 41.1146 33.5228C40.8048 33.6711 40.4664 33.7497 40.123 33.7532C39.8132 33.7532 39.5162 33.6302 39.2971 33.4111C39.0781 33.1921 38.955 32.895 38.955 32.5852C38.955 32.2754 39.0781 31.9784 39.2971 31.7593C39.5162 31.5403 39.8132 31.4172 40.123 31.4172C40.1186 31.1081 40.2365 30.8098 40.451 30.5872Z" fill="#F9D549"/>
</g>
<defs>
<clipPath id="clip0_40_30203">
<rect width="64" height="64" fill="white"/>
</clipPath>
</defs>
</svg>
