<svg width="64" height="64" viewBox="0 0 64 64" fill="none" xmlns="http://www.w3.org/2000/svg">
<g clip-path="url(#clip0_40_30209)">
<path d="M32 64C49.6731 64 64 49.6731 64 32C64 14.3269 49.6731 0 32 0C14.3269 0 0 14.3269 0 32C0 49.6731 14.3269 64 32 64Z" fill="black"/>
<path d="M10.5371 32.0001C10.5371 27.755 11.796 23.6051 14.1544 20.0754C16.5129 16.5456 19.8652 13.7946 23.7872 12.17C27.7092 10.5454 32.0249 10.1204 36.1885 10.9486C40.3521 11.7768 44.1767 13.821 47.1785 16.8228C50.1803 19.8246 52.2245 23.6491 53.0527 27.8127C53.8809 31.9763 53.4558 36.292 51.8313 40.2141C50.2067 44.1361 47.4556 47.4883 43.9259 49.8468C40.3961 52.2053 36.2463 53.4642 32.0011 53.4642C29.1824 53.4642 26.3913 52.909 23.7872 51.8303C21.1831 50.7516 18.8169 49.1706 16.8238 47.1775C14.8307 45.1844 13.2496 42.8182 12.171 40.2141C11.0923 37.6099 10.5371 34.8188 10.5371 32.0001Z" fill="white"/>
<path d="M46.6004 46.6025C54.6651 38.5377 54.6651 25.4623 46.6004 17.3975C38.5356 9.33282 25.4601 9.33282 17.3954 17.3975C9.33071 25.4623 9.33071 38.5377 17.3954 46.6025C25.4601 54.6672 38.5356 54.6672 46.6004 46.6025Z" fill="#EE2E24"/>
<path d="M25.2119 60.7836L26.0609 56.8976L24.9609 56.6577L25.1209 55.9276L25.2209 55.9496C25.9509 56.1096 26.4629 55.9276 26.7049 55.3496L27.5289 55.5297L26.3289 61.0297L25.2119 60.7836Z" fill="white"/>
<path d="M29.4043 60.137C29.3743 60.558 29.4913 60.821 29.8723 60.849C30.4723 60.892 30.6143 60.296 30.6723 59.471L30.6913 59.201H30.6753C30.5408 59.3523 30.371 59.4679 30.181 59.5377C29.991 59.6075 29.7867 59.6292 29.5863 59.601C28.5863 59.53 28.2663 58.757 28.3383 57.749C28.4303 56.463 29.0453 55.782 30.2983 55.871C31.8693 55.983 31.9783 57.251 31.8803 58.624C31.7663 60.224 31.6273 61.724 29.7703 61.592C28.9613 61.534 28.2473 61.141 28.3083 60.06L29.4043 60.137ZM30.0353 58.787C30.4873 58.819 30.6833 58.53 30.7353 57.768C30.7733 57.125 30.7193 56.651 30.1873 56.612C29.6313 56.573 29.5343 57.044 29.4873 57.679C29.4323 58.44 29.5863 58.754 30.0303 58.786L30.0353 58.787Z" fill="white"/>
<path d="M35.8282 61.3655L32.3682 61.6125C32.3396 61.135 32.4205 60.6573 32.6045 60.2157C32.7885 59.7741 33.071 59.3804 33.4302 59.0645L33.8602 58.6035C34.0536 58.4462 34.2018 58.2403 34.2896 58.007C34.3774 57.7737 34.4018 57.5213 34.3602 57.2755C34.3272 56.8075 34.1122 56.5915 33.7552 56.6165C33.1842 56.6575 33.1642 57.1605 33.1982 57.7565L32.0982 57.8345L32.0832 57.6195C32.0092 56.5805 32.5142 55.9545 33.7132 55.8685C34.8402 55.7875 35.4352 56.3115 35.5042 57.2795C35.5369 57.6247 35.4862 57.9728 35.3564 58.2944C35.2266 58.616 35.0214 58.9017 34.7582 59.1275L34.1652 59.7595C33.9164 59.9961 33.7363 60.2958 33.6442 60.6265L35.7632 60.4755L35.8282 61.3655Z" fill="white"/>
<path d="M37.9931 56.6569C37.9011 56.2369 37.7151 56.0169 37.3421 56.0989C36.7511 56.2279 36.7871 56.8389 36.9641 57.6479L37.0231 57.9189H37.0391C37.1229 57.7335 37.2519 57.5722 37.4145 57.4499C37.577 57.3275 37.7678 57.2481 37.9691 57.2189C38.9481 57.0049 39.4691 57.6559 39.6891 58.6429C39.9651 59.9019 39.5671 60.7299 38.3391 60.9979C36.8001 61.3339 36.3391 60.1489 36.0391 58.8039C35.6991 57.2489 35.4061 55.7579 37.2251 55.3599C37.4153 55.288 37.619 55.2594 37.8216 55.2761C38.0243 55.2928 38.2206 55.3543 38.3965 55.4563C38.5723 55.5582 38.7233 55.698 38.8384 55.8656C38.9536 56.0331 39.03 56.2242 39.0621 56.4249L37.9931 56.6569ZM38.2331 60.2569C38.7771 60.1379 38.7331 59.6569 38.6011 59.0359C38.4381 58.2899 38.2011 58.0359 37.7671 58.1269C37.3331 58.2179 37.2181 58.5559 37.3801 59.3019C37.5271 59.9269 37.7121 60.3669 38.2331 60.2529V60.2569Z" fill="white"/>
<path d="M9.5763 51.511L7.5293 48.911L8.2993 48.306L9.6073 49.971L10.7073 49.11L9.4763 47.543L10.2463 46.938L11.4773 48.505L13.5013 46.915L14.2403 47.855L9.5763 51.511Z" fill="white"/>
<path d="M6.41727 47.0832L5.69727 45.7932L10.1103 41.5361L10.7173 42.6241L9.75526 43.4742L10.5233 44.8521L11.7523 44.4801L12.3573 45.5621L6.41727 47.0832ZM9.56727 45.1472L9.00127 44.1321L6.95226 45.9322L6.96027 45.9461L9.56727 45.1472Z" fill="white"/>
<path d="M3.48633 40.4962L4.40533 40.1572L4.85333 41.3722L9.49533 39.6602L9.90933 40.7822L5.26733 42.4941L5.71533 43.7092L4.79633 44.0471L3.48633 40.4962Z" fill="white"/>
<path d="M8.98736 37.9629L3.21236 39.2989L2.94336 38.1319L8.71836 36.7959L8.98736 37.9629Z" fill="white"/>
<path d="M2.60663 36.5882L2.49863 35.3982L4.75563 35.1982L4.62963 33.8091L2.37263 34.0092L2.26562 32.8192L8.16563 32.2852L8.27363 33.4761L5.65263 33.7132L5.77863 35.1021L8.39963 34.8651L8.50763 36.0562L2.60663 36.5882Z" fill="white"/>
<path d="M2.65041 27.4725L4.98941 27.8805V27.8645L2.9104 25.9645L3.1334 24.6885L5.35941 26.7115L9.00441 25.5275L8.7714 26.8565L6.16541 27.6405L6.7524 28.1895L8.4864 28.4895L8.2804 29.6675L2.44141 28.6475L2.65041 27.4725Z" fill="white"/>
<path d="M3.89453 22.3909L4.40753 21.0049L10.5075 21.5909L10.0755 22.7589L8.80453 22.5809L8.25653 24.0599L9.33753 24.7519L8.90553 25.9199L3.89453 22.3909ZM7.41353 23.5249L7.81353 22.4349L5.11353 22.0469L5.10753 22.0629L7.41353 23.5249Z" fill="white"/>
<path d="M5.5332 18.4104L6.66621 16.5104C6.74976 16.3163 6.87616 16.1437 7.03593 16.0054C7.19569 15.8672 7.38469 15.7669 7.58874 15.712C7.79279 15.6572 8.0066 15.6493 8.21416 15.6888C8.42171 15.7284 8.61762 15.8144 8.7872 15.9404C9.09028 16.0641 9.33556 16.2975 9.47404 16.5941C9.61251 16.8907 9.634 17.2286 9.5342 17.5404L9.5482 17.5484C10.0582 16.9054 10.5072 17.0284 11.5912 17.6574C12.1302 17.9694 12.4252 18.1074 12.6392 17.9744L12.6822 17.9994L12.0182 19.1114C11.8006 19.1065 11.5888 19.0403 11.4072 18.9204L10.4142 18.3654C10.3374 18.3043 10.2478 18.2612 10.1522 18.2391C10.0565 18.217 9.9571 18.2166 9.86125 18.2379C9.76541 18.2592 9.67553 18.3016 9.59818 18.3621C9.52084 18.4226 9.45797 18.4995 9.4142 18.5874L9.0862 19.1364L11.2382 20.4234L10.6252 21.4494L5.5332 18.4104ZM8.3702 18.7104L8.62621 18.2824C8.70555 18.1885 8.76156 18.0771 8.78967 17.9574C8.81777 17.8377 8.81718 17.713 8.78793 17.5936C8.75868 17.4741 8.70159 17.3633 8.62135 17.2701C8.54111 17.177 8.43998 17.104 8.3262 17.0574C8.23733 16.9878 8.13363 16.9396 8.02312 16.9164C7.91262 16.8933 7.79828 16.8959 7.68895 16.924C7.57961 16.9522 7.47822 17.0051 7.3926 17.0787C7.30698 17.1523 7.23944 17.2446 7.19521 17.3484L6.9052 17.8324L8.3702 18.7104Z" fill="white"/>
<path d="M9.21484 12.9596L10.1908 11.8496L15.6788 14.5856L14.8568 15.5206L13.7348 14.8986L12.6928 16.0836L13.4538 17.1176L12.6318 18.0526L9.21484 12.9596ZM12.0928 15.2806L12.8608 14.4076L10.4808 13.0776L10.4698 13.0896L12.0928 15.2806Z" fill="white"/>
<path d="M15.3137 9.59258C15.0417 9.24658 14.5407 8.93259 14.1627 9.23159C13.7057 9.59159 13.8937 10.2046 14.8077 11.3656C15.6917 12.4876 16.3507 13.1096 16.8917 12.6836C17.0449 12.5211 17.1298 12.3059 17.1288 12.0826C17.1279 11.8593 17.0412 11.6448 16.8867 11.4836L16.5117 11.0076L15.8917 11.4956L15.3477 10.8046L16.8677 9.60459L18.8457 12.1156L18.1547 12.6596L17.8157 12.2286L17.8027 12.2386C17.8386 12.4854 17.8046 12.7374 17.7043 12.9658C17.6041 13.1942 17.4417 13.3899 17.2357 13.5306C16.0817 14.4396 15.1747 13.7586 13.9067 12.1476C12.6737 10.5826 12.4067 9.49258 13.6067 8.54758C13.783 8.36155 14.0007 8.21974 14.2421 8.13367C14.4835 8.0476 14.7418 8.01971 14.996 8.05225C15.2502 8.08479 15.4931 8.17687 15.7051 8.32097C15.917 8.46508 16.092 8.65714 16.2157 8.88158L15.3137 9.59258Z" fill="white"/>
<path d="M16.4258 5.062L17.2478 4.62698L17.7058 5.493L16.8838 5.92799L16.4258 5.062ZM17.5078 6.077L19.4428 9.73099C19.7188 10.252 20.0488 10.575 20.5428 10.314C21.0368 10.053 20.9528 9.59899 20.6778 9.07799L18.7428 5.42499L19.7998 4.86499L21.7348 8.519C21.8865 8.73008 21.9876 8.97327 22.0302 9.22972C22.0729 9.48617 22.0558 9.749 21.9805 9.99782C21.9052 10.2466 21.7735 10.4748 21.5958 10.6645C21.4181 10.8543 21.1991 11.0005 20.9558 11.092C20.7455 11.2488 20.5012 11.3537 20.2426 11.3979C19.9841 11.4421 19.7187 11.4245 19.4683 11.3465C19.2179 11.2684 18.9895 11.1322 18.8019 10.9489C18.6142 10.7656 18.4727 10.5405 18.3888 10.292L16.4538 6.63899L17.5078 6.077ZM17.6878 4.394L18.5098 3.95898L18.9688 4.825L18.1468 5.25999L17.6878 4.394Z" fill="white"/>
<path d="M21.3535 4.15565L23.0625 3.67065L25.0185 7.46466H25.0345L24.7155 3.20566L26.4155 2.72266L28.0325 8.42265L26.9785 8.72266L25.6875 4.17065H25.6715L25.9485 9.01065L25.0535 9.26465L22.7485 4.99965H22.7325L24.0235 9.55266L22.9695 9.85266L21.3535 4.15565Z" fill="white"/>
<path d="M28.1836 2.49305L30.3836 2.35205C30.5908 2.31088 30.8045 2.31712 31.0089 2.37028C31.2133 2.42345 31.403 2.52216 31.5638 2.65904C31.7247 2.79592 31.8525 2.96742 31.9376 3.16069C32.0228 3.35395 32.0631 3.56399 32.0556 3.77505C32.1253 4.09428 32.0722 4.42804 31.9069 4.7099C31.7416 4.99175 31.4762 5.20101 31.1636 5.29605V5.31305C31.9826 5.36905 32.1356 5.81304 32.2326 7.05804C32.2806 7.67904 32.3326 8.00004 32.5656 8.10104V8.15104L31.2736 8.23405C31.1542 8.05193 31.0887 7.83978 31.0846 7.62205L30.9786 6.48904C30.9316 6.02604 30.7066 5.75804 30.2266 5.78904L29.5886 5.83004L29.7496 8.33004L28.5566 8.40706L28.1836 2.49305ZM29.5426 5.00105L30.0426 4.96905C30.1651 4.98109 30.2888 4.96394 30.4034 4.91902C30.518 4.8741 30.6204 4.80268 30.7021 4.7106C30.7839 4.61852 30.8427 4.5084 30.8737 4.38925C30.9047 4.27009 30.9071 4.1453 30.8806 4.02505C30.8876 3.91234 30.8686 3.79951 30.825 3.69532C30.7814 3.59114 30.7144 3.49839 30.6293 3.42424C30.5441 3.35008 30.443 3.29651 30.3338 3.2677C30.2246 3.23888 30.1103 3.23559 29.9996 3.25805L29.4366 3.29405L29.5426 5.00105Z" fill="white"/>
<path d="M34.8164 2.43828L34.3324 6.54428C34.2634 7.12928 34.3514 7.58327 34.9044 7.64427C35.4574 7.70527 35.6484 7.28928 35.7174 6.70328L36.2014 2.59727L37.3884 2.73727L36.9044 6.84328C36.9093 7.1029 36.8544 7.36016 36.7439 7.59517C36.6334 7.83017 36.4704 8.03663 36.2674 8.19855C36.0644 8.36047 35.8269 8.47352 35.5732 8.52896C35.3195 8.5844 35.0565 8.58075 34.8044 8.51828C34.5423 8.52766 34.2817 8.47484 34.0439 8.36415C33.8062 8.25346 33.598 8.08803 33.4365 7.88142C33.2749 7.67481 33.1646 7.43289 33.1145 7.17545C33.0645 6.918 33.0761 6.65236 33.1484 6.40027L33.6324 2.29428L34.8164 2.43828ZM34.5024 0.988281L35.4254 1.09727L35.3104 2.07028L34.3874 1.96127L34.5024 0.988281ZM35.9204 1.15527L36.8434 1.26428L36.7284 2.23727L35.8054 2.12828L35.9204 1.15527Z" fill="white"/>
<path d="M40.0683 3.41843L39.3763 5.68942H39.3923L41.5303 3.85843L42.7693 4.23543L40.4883 6.19643L41.2163 9.95943L39.9303 9.56743L39.4713 6.88443L38.8543 7.39943L38.3413 9.08342L37.1973 8.73543L38.9253 3.06543L40.0683 3.41843Z" fill="white"/>
<path d="M44.8499 9.82946L44.7579 9.97746C44.4649 10.4495 44.4099 10.8365 44.9449 11.1695C45.0243 11.2243 45.1144 11.2617 45.2093 11.2791C45.3042 11.2966 45.4017 11.2938 45.4955 11.2708C45.5892 11.2478 45.677 11.2053 45.7531 11.1459C45.8292 11.0866 45.8918 11.0118 45.9369 10.9265C46.2219 10.4685 46.0949 10.1545 45.5699 9.50546C44.8609 8.63346 44.6769 8.00545 45.1989 7.16245C45.3099 6.94651 45.4678 6.75818 45.6612 6.61131C45.8545 6.46443 46.0783 6.36275 46.3161 6.31373C46.5539 6.26471 46.7997 6.26961 47.0353 6.32806C47.271 6.3865 47.4906 6.497 47.6779 6.65145C48.5779 7.21345 48.9939 8.00845 48.3939 8.97445L48.3059 9.11546L47.3329 8.51046C47.6269 8.03846 47.6329 7.66246 47.2479 7.42146C47.175 7.3628 47.0897 7.32163 46.9984 7.30111C46.9071 7.28059 46.8124 7.28127 46.7214 7.30309C46.6304 7.32492 46.5457 7.36732 46.4736 7.42701C46.4016 7.48671 46.3442 7.56212 46.3059 7.64745C46.1129 7.95745 46.0859 8.20445 46.4059 8.65545L46.9779 9.48046C47.2211 9.7364 47.3671 10.0693 47.3909 10.4215C47.4146 10.7737 47.3145 11.1232 47.1079 11.4094C46.4459 12.4734 45.4989 12.5495 44.3989 11.8655C43.2499 11.1505 43.1319 10.3345 43.7109 9.40345L43.8379 9.20345L44.8499 9.82946Z" fill="white"/>
<path d="M50.4508 8.67578L52.0128 10.0678C52.1906 10.2131 52.3344 10.3955 52.4342 10.6023C52.5339 10.8091 52.5872 11.0352 52.5902 11.2648C52.5933 11.4944 52.546 11.7219 52.4518 11.9312C52.3576 12.1406 52.2187 12.3268 52.0449 12.4768C51.8955 12.6765 51.703 12.8399 51.4818 12.955C51.2605 13.07 51.0161 13.1337 50.7669 13.1413C50.5176 13.1489 50.2698 13.1002 50.042 12.9988C49.8141 12.8974 49.6121 12.746 49.4508 12.5558L48.9738 12.1308L47.3988 13.8968L46.5059 13.0968L50.4508 8.67578ZM49.5588 11.4758L49.9589 11.8298C50.0401 11.9104 50.1384 11.9718 50.2466 12.0094C50.3547 12.047 50.4699 12.06 50.5837 12.0472C50.6975 12.0344 50.8069 11.9963 50.9041 11.9357C51.0012 11.8751 51.0834 11.7934 51.1448 11.6968C51.5318 11.2628 51.5788 10.8608 51.1328 10.4628L50.7608 10.1308L49.5588 11.4758Z" fill="white"/>
<path d="M55.4358 13.5897C56.5448 14.9987 55.6778 15.9657 54.2618 17.0797C52.8458 18.1937 51.7018 18.8077 50.5938 17.3977C49.4858 15.9877 50.3518 15.0217 51.7678 13.9077C53.1838 12.7937 54.3268 12.1807 55.4358 13.5897ZM51.2858 16.8537C51.7218 17.4087 52.2698 17.1257 53.5228 16.1397C54.7758 15.1537 55.1798 14.6887 54.7438 14.1337C54.3078 13.5787 53.7528 13.8677 52.5068 14.8477C51.2608 15.8277 50.8488 16.2987 51.2858 16.8537Z" fill="white"/>
<path d="M57.4238 16.5479L58.4498 18.5039C58.5718 18.6764 58.6532 18.8743 58.6878 19.0827C58.7225 19.2911 58.7095 19.5047 58.6498 19.7074C58.5902 19.9101 58.4854 20.0967 58.3434 20.2532C58.2014 20.4096 58.0258 20.5319 57.8298 20.6109C57.566 20.8041 57.2391 20.8909 56.9142 20.8538C56.5893 20.8167 56.2903 20.6586 56.0768 20.4109L56.0618 20.4189C56.3448 21.1889 56.0058 21.5079 54.9028 22.1049C54.3558 22.4049 54.0838 22.5819 54.0848 22.8339L54.0408 22.8569L53.4408 21.7099C53.5586 21.5269 53.7257 21.381 53.9228 21.2889L54.9148 20.7309C55.0076 20.6975 55.0918 20.6436 55.161 20.5734C55.2303 20.5031 55.2828 20.4182 55.3149 20.325C55.3469 20.2317 55.3577 20.1324 55.3462 20.0344C55.3348 19.9364 55.3015 19.8422 55.2488 19.7589L54.9488 19.1929L52.7288 20.3578L52.1738 19.2989L57.4238 16.5479ZM55.6858 18.8099L55.9168 19.2509C55.9559 19.3671 56.0218 19.4726 56.1093 19.5586C56.1967 19.6446 56.3032 19.7087 56.4201 19.7458C56.537 19.7829 56.6611 19.792 56.7821 19.7722C56.9032 19.7524 57.0178 19.7043 57.1168 19.6319C57.2226 19.5924 57.3179 19.5291 57.3954 19.4469C57.4728 19.3647 57.5303 19.2657 57.5634 19.1577C57.5965 19.0497 57.6042 18.9356 57.5861 18.8241C57.568 18.7126 57.5244 18.6068 57.4588 18.5149L57.1968 18.0149L55.6858 18.8099Z" fill="white"/>
<path d="M60.8605 24.998L58.5415 25.5081V25.524L61.1845 26.4901L61.4625 27.7551L58.6355 26.7271L55.7125 29.2061L55.4245 27.8921L57.5385 26.1781L56.7875 25.8931L55.0685 26.2711L54.8125 25.1031L60.6015 23.8311L60.8605 24.998Z" fill="white"/>
<path d="M61.6359 30.1335L57.5049 30.2935C56.9159 30.3165 56.4819 30.4745 56.5049 31.0305C56.5279 31.5865 56.9709 31.7105 57.5609 31.6875L61.6919 31.5275L61.7389 32.7225L57.6079 32.8825C57.3518 32.9279 57.0886 32.9137 56.8388 32.841C56.5891 32.7683 56.3594 32.639 56.1677 32.4631C55.976 32.2873 55.8274 32.0697 55.7335 31.8271C55.6395 31.5845 55.6027 31.3235 55.6259 31.0645C55.5879 30.0935 55.8759 29.1645 57.4609 29.0995L61.5919 28.9395L61.6359 30.1335Z" fill="white"/>
<path d="M55.7607 33.5059L61.6417 34.2458L61.4926 35.4319L56.5836 34.8148L56.3196 36.9149L55.3477 36.7928L55.7607 33.5059Z" fill="white"/>
<path d="M60.6348 39.8883L56.6748 38.6983C56.1108 38.5283 55.6478 38.5373 55.4878 39.0703C55.3278 39.6033 55.7088 39.8643 56.2728 40.0343L60.2318 41.2243L59.8878 42.3693L55.9288 41.1793C55.6719 41.139 55.4278 41.0401 55.2154 40.8903C55.0029 40.7405 54.8278 40.5437 54.7036 40.3153C54.5795 40.0869 54.5096 39.8329 54.4994 39.5732C54.4891 39.3134 54.5389 39.0547 54.6448 38.8173C54.6809 38.5575 54.778 38.3099 54.9283 38.0949C55.0785 37.8799 55.2775 37.7036 55.5091 37.5804C55.7406 37.4571 55.9981 37.3905 56.2603 37.386C56.5226 37.3815 56.7821 37.4391 57.0178 37.5543L60.9768 38.7443L60.6348 39.8883ZM61.7058 41.1983L61.4378 42.0883L60.4998 41.8063L60.7678 40.9163L61.7058 41.1983ZM62.1168 39.8303L61.8488 40.7203L60.9108 40.4383L61.1778 39.5483L62.1168 39.8303Z" fill="white"/>
<path d="M59.2976 43.8398L58.3847 45.6198C57.9377 46.4918 57.2917 46.9538 56.2787 46.4348C56.0127 46.3257 55.7929 46.1274 55.6571 45.874C55.5214 45.6205 55.4781 45.3277 55.5346 45.0458L55.5197 45.0388C55.3332 45.3073 55.0492 45.4924 54.7282 45.5544C54.4072 45.6164 54.0747 45.5505 53.8016 45.3708C53.575 45.2791 53.3722 45.137 53.2086 44.9553C53.045 44.7735 52.9249 44.5569 52.8574 44.3219C52.79 44.0868 52.7769 43.8395 52.8192 43.5987C52.8615 43.3579 52.9581 43.1298 53.1017 42.9318L54.0216 41.1318L59.2976 43.8398ZM54.2607 42.6018L54.0487 43.0158C53.969 43.1166 53.9145 43.2348 53.8894 43.3607C53.8643 43.4866 53.8694 43.6167 53.9044 43.7402C53.9393 43.8638 54.0031 43.9773 54.0904 44.0715C54.1777 44.1656 54.2861 44.2377 54.4067 44.2818C54.5081 44.3531 54.625 44.3995 54.7478 44.4173C54.8705 44.435 54.9957 44.4236 55.1132 44.384C55.2308 44.3444 55.3373 44.2776 55.4242 44.1892C55.5112 44.1007 55.5761 43.993 55.6137 43.8748L55.8486 43.4168L54.2607 42.6018ZM56.5877 43.7938L56.4327 44.0938C56.1327 44.6778 56.1967 45.0458 56.6917 45.2988C57.1867 45.5518 57.5037 45.4078 57.7727 44.8828L57.9727 44.4988L56.5877 43.7938Z" fill="white"/>
<path d="M55.9976 49.4927L52.7166 46.9777C52.2486 46.6187 51.8166 46.4637 51.4746 46.9047C51.1326 47.3457 51.3996 47.7267 51.8676 48.0847L55.1486 50.5997L54.4216 51.5488L51.1406 49.0337C50.9146 48.9051 50.7213 48.7261 50.5757 48.5107C50.43 48.2953 50.3359 48.0492 50.3007 47.7916C50.2655 47.534 50.2902 47.2717 50.3727 47.0251C50.4552 46.7785 50.5934 46.5543 50.7766 46.3697C50.9025 46.1396 51.0811 45.9426 51.2977 45.7948C51.5144 45.647 51.763 45.5525 52.0232 45.5193C52.2834 45.486 52.5477 45.5148 52.7946 45.6034C53.0415 45.6919 53.2639 45.8377 53.4436 46.0287L56.7246 48.5437L55.9976 49.4927ZM56.5356 51.0977L55.9696 51.8357L55.1926 51.2357L55.7586 50.4977L56.5356 51.0977ZM57.4036 49.9637L56.8386 50.7017L56.0606 50.1017L56.6266 49.3638L57.4036 49.9637Z" fill="white"/>
<path d="M2.60927 38.2956L1.70312 38.5049L1.92366 39.4597L2.82981 39.2505L2.60927 38.2956Z" fill="white"/>
<path d="M22.5542 39.4914C22.1155 39.492 21.6842 39.6044 21.301 39.818C20.9178 40.0317 20.5954 40.3395 20.3642 40.7124C20.3702 40.6384 20.3752 40.5644 20.3752 40.4884C20.3757 40.0625 20.2702 39.6432 20.0682 39.2684C20.615 39.5615 21.2489 39.6484 21.8544 39.5131C22.4598 39.3777 22.9964 39.0292 23.3663 38.5312C23.7362 38.0331 23.9147 37.4187 23.8693 36.7999C23.8239 36.1812 23.5575 35.5994 23.1188 35.1608C22.6801 34.7221 22.0984 34.4557 21.4796 34.4103C20.8609 34.3648 20.2465 34.5433 19.7484 34.9132C19.2503 35.2831 18.9019 35.8198 18.7665 36.4252C18.6312 37.0307 18.718 37.6646 19.0112 38.2114C18.5672 37.9725 18.0629 37.8688 17.5606 37.913C17.0584 37.9572 16.58 38.1473 16.1845 38.4601C15.789 38.7728 15.4936 39.1944 15.3347 39.6729C15.1759 40.1515 15.1605 40.666 15.2905 41.1532C15.4205 41.6404 15.6902 42.0789 16.0663 42.4147C16.4424 42.7504 16.9086 42.9689 17.4073 43.043C17.9061 43.1171 18.4156 43.0437 18.8731 42.8317C19.3306 42.6198 19.7162 42.2787 19.9822 41.8504C19.9762 41.9244 19.9712 41.9994 19.9712 42.0744C19.971 42.5855 20.1224 43.0852 20.4063 43.5103C20.6901 43.9354 21.0937 44.2668 21.5659 44.4625C22.0381 44.6582 22.5577 44.7094 23.0591 44.6098C23.5604 44.5101 24.0209 44.264 24.3824 43.9025C24.7438 43.5411 24.9899 43.0806 25.0896 42.5792C25.1893 42.0779 25.138 41.5583 24.9423 41.0861C24.7466 40.6138 24.4153 40.2103 23.9902 39.9264C23.5651 39.6426 23.0654 39.4912 22.5542 39.4914ZM21.2872 35.4454C21.593 35.4454 21.8919 35.536 22.1461 35.7059C22.4004 35.8758 22.5985 36.1172 22.7155 36.3997C22.8325 36.6822 22.8631 36.9931 22.8035 37.293C22.7438 37.5929 22.5966 37.8683 22.3804 38.0846C22.1642 38.3008 21.8887 38.448 21.5888 38.5077C21.2889 38.5673 20.9781 38.5367 20.6956 38.4197C20.4131 38.3027 20.1716 38.1045 20.0018 37.8503C19.8319 37.596 19.7412 37.2971 19.7412 36.9914C19.7415 36.5812 19.9046 36.188 20.1947 35.8981C20.4848 35.6082 20.8771 35.4454 21.2872 35.4454ZM17.7872 42.0333C17.4814 42.0333 17.1825 41.9427 16.9283 41.7728C16.6741 41.6029 16.4759 41.3615 16.3589 41.079C16.2419 40.7965 16.2113 40.4856 16.2709 40.1858C16.3306 39.8859 16.4778 39.6104 16.694 39.3942C16.9102 39.178 17.1857 39.0307 17.4856 38.9711C17.7855 38.9114 18.0963 38.942 18.3788 39.059C18.6613 39.1761 18.9028 39.3742 19.0727 39.6284C19.2425 39.8827 19.3332 40.1816 19.3332 40.4874C19.3327 40.8964 19.1703 41.2885 18.8816 41.5782C18.5928 41.8679 18.2012 42.0315 17.7922 42.0333H17.7872ZM22.5502 43.6204C22.2444 43.6204 21.9455 43.5297 21.6913 43.3598C21.4371 43.1899 21.2389 42.9485 21.1219 42.666C21.0049 42.3835 20.9743 42.0727 21.0339 41.7728C21.0936 41.4729 21.2408 41.1974 21.457 40.9812C21.6732 40.7649 21.9487 40.6177 22.2486 40.5581C22.5485 40.4984 22.8593 40.529 23.1418 40.646C23.4243 40.7631 23.6658 40.9612 23.8357 41.2154C24.0055 41.4697 24.0962 41.7686 24.0962 42.0744C24.0959 42.4836 23.9335 42.8761 23.6445 43.1659C23.3555 43.4556 22.9635 43.619 22.5542 43.6204H22.5502Z" fill="white"/>
<path d="M39.4071 38.5713C39.4069 39.0824 39.5583 39.5821 39.8421 40.0071C40.1259 40.4322 40.5294 40.7636 41.0016 40.9593C41.4737 41.155 41.9933 41.2063 42.4946 41.1068C42.9959 41.0072 43.4565 40.7611 43.8179 40.3998C44.1794 40.0385 44.4256 39.578 44.5254 39.0768C44.6252 38.5755 44.5741 38.0559 44.3785 37.5836C44.183 37.1114 43.8518 36.7078 43.4268 36.4238C43.0019 36.1399 42.5022 35.9883 41.9911 35.9883C41.3061 35.9888 40.6493 36.2611 40.1649 36.7454C39.6804 37.2296 39.4079 37.8863 39.4071 38.5713ZM40.4451 38.5713C40.4451 38.2655 40.5358 37.9666 40.7057 37.7124C40.8755 37.4581 41.117 37.26 41.3995 37.143C41.682 37.026 41.9928 36.9953 42.2927 37.055C42.5926 37.1146 42.8681 37.2619 43.0843 37.4781C43.3005 37.6943 43.4478 37.9698 43.5074 38.2697C43.5671 38.5696 43.5364 38.8804 43.4194 39.1629C43.3024 39.4454 43.1043 39.6869 42.85 39.8568C42.5958 40.0266 42.2969 40.1173 41.9911 40.1173C41.5814 40.1165 41.1888 39.9533 40.8992 39.6635C40.6096 39.3738 40.4457 38.981 40.4451 38.5713ZM38.5781 44.4483C38.5781 44.9594 38.7297 45.459 39.0137 45.884C39.2976 46.3089 39.7013 46.6401 40.1735 46.8357C40.6457 47.0312 41.1653 47.0824 41.6666 46.9826C42.1679 46.8828 42.6283 46.6366 42.9896 46.2751C43.351 45.9136 43.597 45.4531 43.6966 44.9518C43.7962 44.4505 43.7449 43.9309 43.5491 43.4587C43.3534 42.9866 43.0221 42.5831 42.597 42.2993C42.1719 42.0155 41.6722 41.8641 41.1611 41.8643C40.4761 41.8651 39.8194 42.1376 39.3352 42.6221C38.8509 43.1065 38.5787 43.7633 38.5781 44.4483ZM39.6161 44.4483C39.6161 44.1425 39.7068 43.8436 39.8767 43.5894C40.0466 43.3351 40.288 43.137 40.5705 43.02C40.853 42.9029 41.1638 42.8723 41.4637 42.932C41.7636 42.9916 42.0391 43.1389 42.2553 43.3551C42.4715 43.5713 42.6188 43.8468 42.6784 44.1467C42.7381 44.4466 42.7074 44.7574 42.5904 45.0399C42.4734 45.3224 42.2753 45.5639 42.021 45.7337C41.7668 45.9036 41.4679 45.9943 41.1621 45.9943C40.7522 45.9938 40.3593 45.8307 40.0695 45.5409C39.7797 45.2511 39.6166 44.8581 39.6161 44.4483ZM44.2721 40.1693C43.8497 40.5919 43.5869 41.148 43.5284 41.7426C43.47 42.3373 43.6195 42.9339 43.9516 43.4307C44.2837 43.9275 44.7777 44.2938 45.3496 44.4672C45.9214 44.6405 46.5357 44.6103 47.0878 44.3816C47.6398 44.1528 48.0955 43.7398 48.3771 43.2127C48.6588 42.6857 48.749 42.0773 48.6324 41.4913C48.5158 40.9052 48.1996 40.3777 47.7377 39.9986C47.2758 39.6195 46.6967 39.4123 46.0991 39.4123C45.7595 39.4112 45.423 39.4776 45.1092 39.6075C44.7954 39.7375 44.5106 39.9284 44.2711 40.1693H44.2721ZM44.5531 41.9963C44.5531 41.6905 44.6438 41.3916 44.8137 41.1374C44.9835 40.8831 45.225 40.685 45.5075 40.568C45.79 40.4509 46.1008 40.4203 46.4007 40.48C46.7006 40.5396 46.9761 40.6869 47.1923 40.9031C47.4085 41.1193 47.5558 41.3948 47.6154 41.6947C47.6751 41.9946 47.6444 42.3054 47.5274 42.5879C47.4104 42.8704 47.2123 43.1119 46.958 43.2817C46.7038 43.4516 46.4049 43.5423 46.0991 43.5423C45.8956 43.5438 45.6939 43.5048 45.5056 43.4276C45.3173 43.3504 45.1463 43.2366 45.0023 43.0928C44.8584 42.949 44.7445 42.778 44.6672 42.5897C44.5899 42.4015 44.5508 42.1998 44.5521 41.9963H44.5531Z" fill="white"/>
<path d="M21.7908 16.9656C23.3704 17.7059 24.862 18.6209 26.2377 19.6936C27.5845 20.8901 28.4891 22.5052 28.8058 24.2786C27.1102 24.0364 25.5698 23.1597 24.4958 21.8256C23.3893 20.3283 22.4802 18.6949 21.7908 16.9656ZM29.6308 22.5366C29.8102 21.9259 29.9027 21.293 29.9057 20.6566C29.9084 18.1637 28.9948 15.7568 27.3387 13.8936C27.3387 18.6396 27.5678 20.4736 29.6268 22.5366H29.6308ZM30.4308 23.6136C30.4308 23.6136 33.2048 19.9226 33.2048 16.6446C33.2244 15.7926 33.1162 14.9425 32.8838 14.1226C31.5918 14.7786 30.4337 15.9566 30.4337 23.6136H30.4308ZM33.9147 19.2346C33.0087 20.646 32.4075 22.2312 32.1497 23.8885C33.5772 23.2141 34.8086 22.1862 35.7274 20.9023C36.6462 19.6185 37.2218 18.1212 37.3997 16.5526C36.0076 17.0971 34.7996 18.0275 33.9178 19.2346H33.9147ZM43.6358 19.8776C42.4915 20.6406 41.5441 21.6635 40.8708 22.8627C40.1975 24.0619 39.8175 25.4034 39.7617 26.7776C39.7952 27.4405 39.9186 28.0959 40.1288 28.7256C42.5158 27.8556 43.6387 24.8986 43.6387 19.8786L43.6358 19.8776ZM47.3728 22.1696C46.4192 22.5228 45.5625 23.0964 44.8728 23.8436C44.0388 24.7263 43.4825 25.8345 43.2728 27.0306C44.3654 26.7259 45.3411 26.0994 46.0729 25.2326C46.8047 24.3658 47.2586 23.2989 47.3757 22.1706L47.3728 22.1696ZM50.5587 26.6626C49.8604 26.4854 49.1463 26.3778 48.4268 26.3416C47.3939 26.4131 46.3868 26.6963 45.4679 27.1735C44.5491 27.6507 43.7383 28.3117 43.0858 29.1156C46.1688 29.3786 48.7658 28.7416 50.5618 26.6636L50.5587 26.6626ZM49.7798 34.2505C48.5568 31.6505 46.0968 30.1366 42.1228 29.9866C42.268 30.715 42.597 31.3943 43.0784 31.9599C43.5599 32.5255 44.1779 32.9588 44.8737 33.2186C46.4094 33.9342 48.0889 34.2876 49.7827 34.2516L49.7798 34.2505ZM32.2018 43.5366C32.1387 43.579 32.0656 43.6042 31.9898 43.6094C31.9139 43.6147 31.838 43.5999 31.7697 43.5666C30.6482 40.4096 29.9076 37.1301 29.5638 33.7976C30.1918 33.3796 31.1407 32.6686 31.1407 32.6686C35.0117 31.6686 36.5537 28.9206 36.3217 24.8516C33.5939 26.5879 31.5027 29.162 30.3618 32.1876C30.3618 32.1876 29.9768 32.8306 29.4908 32.6646C29.4768 32.3296 29.4678 31.9946 29.4678 31.6646C29.545 29.2916 29.8677 26.933 30.4308 24.6266C30.4308 24.6266 28.6888 26.1626 28.6888 32.8336C28.6888 32.9596 28.6888 33.0846 28.6888 33.2096C28.5948 34.2186 28.0437 33.5416 28.0437 33.5416C26.1217 28.4346 24.4358 26.2596 20.3438 24.5086C20.8342 26.47 21.7088 28.3147 22.9169 29.9359C24.1249 31.5571 25.6425 32.9227 27.3817 33.9536C28.0005 34.2448 28.5011 34.7388 28.8008 35.3536C29.0289 37.8343 29.4794 40.2895 30.1468 42.6896C27.9838 40.5806 26.0697 38.9896 24.4707 38.7456C28.5957 41.9456 31.1708 45.8456 31.6458 50.6666L32.8148 50.1666C32.7111 49.6226 32.6652 49.0692 32.6777 48.5156C32.3337 43.7246 37.9957 42.2576 39.3257 41.1566C37.0992 41.0251 34.9103 41.7748 33.2318 43.2436C35.1598 33.4046 39.9688 31.0906 41.7558 28.5706C36.5748 31.4646 33.0038 35.8786 32.2048 43.5386L32.2018 43.5366Z" fill="white"/>
</g>
<defs>
<clipPath id="clip0_40_30209">
<rect width="64" height="64" fill="white"/>
</clipPath>
</defs>
</svg>
