<svg width="64" height="64" viewBox="0 0 64 64" fill="none" xmlns="http://www.w3.org/2000/svg">
<rect width="64" height="64" rx="32" fill="#FCE7D0"/>
<path d="M23.0522 24.0129C24.8733 21.9009 29.4513 21.0283 31.4242 21.0283C33.397 21.0283 37.9877 21.9009 39.8088 24.0255C39.6823 24.9108 40.0997 27.6425 41.3011 29.2106L31.4368 28.0471L21.5599 29.198C22.5726 27.6614 23.0932 25.8527 23.0522 24.0129Z" fill="#302E2E"/>
<path d="M22.8751 23.9624C23.1101 24.7456 23.1424 25.5756 22.969 26.3747C22.7957 27.1737 22.4224 27.9157 21.884 28.5312C21.3457 29.1466 20.6599 29.6153 19.891 29.8934C19.1221 30.1715 18.2952 30.2499 17.4877 30.1213C12.1888 27.6805 10.7345 23.7474 10.6586 20.8514C10.6412 19.3516 10.9435 17.8654 11.5454 16.4916C12.1472 15.1178 13.0348 13.888 14.149 12.8841C14.7814 12.2517 15.6919 12.8841 15.4769 13.744C15.3758 14.1234 15.2872 14.5155 15.2366 14.9201C14.2882 22.3184 22.8751 23.9624 22.8751 23.9624Z" fill="#F7941C"/>
<path d="M14.7181 13.2635C14.7181 13.2635 14.6801 13.2635 14.6169 13.3267C13.566 14.2729 12.7291 15.4325 12.1621 16.7279C11.5951 18.0233 11.311 19.4248 11.3288 20.8387C11.392 23.5072 12.7199 27.1747 17.6774 29.5143C18.3444 29.6077 19.0242 29.5383 19.6586 29.3119C20.293 29.0856 20.8631 28.7091 21.3204 28.2145C21.7777 27.7199 22.1085 27.1221 22.2845 26.4719C22.4605 25.8217 22.4766 25.1386 22.3313 24.4809C20.9134 24.1197 19.5636 23.5303 18.335 22.7357C16.1598 21.3067 14.0731 18.8406 14.5916 14.8443C14.6422 14.4143 14.7181 13.997 14.8445 13.5796C14.8825 13.4026 14.8066 13.3141 14.756 13.2761H14.7181V13.2635ZM23.0015 23.3428L23.3936 23.4186L23.5074 23.798C24.6456 27.7185 21.3575 31.348 17.3865 30.7536L17.2853 30.741L17.2094 30.6904C11.645 28.1358 10.0768 23.9751 10.0009 20.864C9.98057 19.2774 10.2982 17.7046 10.9327 16.2502C11.5673 14.7958 12.5041 13.4931 13.6811 12.4288C13.9157 12.1912 14.2255 12.0424 14.5576 12.0078C14.8898 11.9732 15.2236 12.0549 15.5022 12.2391C16.0207 12.5806 16.2862 13.2255 16.1092 13.8832C16.0207 14.2626 15.9448 14.6293 15.8942 14.9961C15.6876 16.3029 15.88 17.6417 16.4464 18.8375C17.0127 20.0333 17.9265 21.0305 19.0685 21.6987C20.2672 22.4754 21.5947 23.0321 22.9889 23.3428H23.0015Z" fill="#221E21"/>
<path d="M40.1249 23.9624C39.89 24.7456 39.8577 25.5756 40.031 26.3747C40.2044 27.1737 40.5777 27.9157 41.116 28.5312C41.6544 29.1466 42.3401 29.6153 43.109 29.8934C43.8779 30.1715 44.7049 30.2499 45.5123 30.1213C50.8112 27.6805 52.2656 23.7474 52.3414 20.8514C52.3588 19.3516 52.0565 17.8654 51.4547 16.4916C50.8528 15.1178 49.9652 13.888 48.851 12.8841C48.2187 12.2517 47.3081 12.8841 47.5231 13.744C47.6243 14.1234 47.7128 14.5155 47.7634 14.9201C48.7119 22.3184 40.1249 23.9624 40.1249 23.9624Z" fill="#F7941C"/>
<path d="M23.9626 24.5315L23.7729 23.6715L28.3763 21.7113V22.4954C28.3749 22.5211 28.3657 22.5458 28.3498 22.5661C28.334 22.5865 28.3124 22.6015 28.2878 22.6092L27.4151 22.8621C27.5163 23.7474 27.5796 24.443 27.0863 25.227C25.8976 27.0734 23.9121 25.4547 25.8596 23.3301L24.1523 24.5947C24.0891 24.6453 23.9879 24.62 23.9626 24.5315ZM38.9488 24.5315L39.1511 23.6715L34.5351 21.7113V22.4954C34.5351 22.546 34.5731 22.5839 34.6237 22.6092L35.4963 22.8621C35.4077 23.7474 35.3319 24.443 35.8377 25.227C37.0139 27.0734 38.9994 25.4547 37.0518 23.3301L38.7591 24.5947C38.8223 24.6453 38.9235 24.62 38.9488 24.5315Z" fill="#58595B"/>
<path d="M18.2718 23.4439C19.557 24.3827 21.02 25.0497 22.5716 25.4041C22.2681 29.3751 19.3467 29.9316 17.905 29.3751C16.5024 28.7184 15.253 27.7749 14.2375 26.6055C12.9394 25.1837 12.1261 23.3866 11.9148 21.4729C11.7034 19.5593 12.1049 17.628 13.0614 15.9572C10.9621 23.4439 14.8572 25.9732 15.6919 26.5549L13.8961 24.0256C16.4127 26.8964 18.7397 27.0608 18.2718 23.4439ZM44.7157 23.4439C43.4267 24.3842 41.9592 25.0513 40.4032 25.4041C40.7067 29.3751 43.6281 29.9316 45.0698 29.3751C46.4724 28.7184 47.7218 27.7749 48.7372 26.6055C50.2169 24.9615 52.5439 21.1169 49.9134 15.9572C52.0127 23.4439 48.1176 25.9732 47.2829 26.5549L49.0787 24.0256C46.562 26.8964 44.2351 27.0608 44.7157 23.4439Z" fill="#AF5B03"/>
<path d="M17.2221 45.4488C14.6169 41.7813 16.3242 36.8997 18.1453 33.9784L24.4306 32.7137L31.4242 32.4229L38.658 32.777L45.133 34.0416C47.03 36.9503 48.7878 41.8445 46.0815 45.4994C43.0463 49.6095 36.4954 50.7477 31.4242 50.7477C26.5173 50.7477 20.1688 49.5589 17.2221 45.4361V45.4488Z" fill="white"/>
<path d="M31.9047 46.4227C30.5895 46.4227 29.7548 44.8166 29.8181 43.6531C30.7033 43.6531 31.4874 43.3116 31.9047 42.3884C32.0781 42.7925 32.374 43.132 32.7507 43.3589C33.1274 43.5858 33.5658 43.6887 34.0041 43.6531C34.0546 44.8166 33.22 46.4227 31.9047 46.4227Z" fill="#E92F78"/>
<path d="M31.9173 41.8067L32.1323 42.3126C32.5117 43.1725 33.3464 43.4761 33.9787 43.4255L34.2316 43.6531C34.2695 44.2854 34.0672 45.0189 33.6752 45.6007C33.2831 46.1824 32.6761 46.6503 31.9046 46.6503C31.1459 46.6503 30.5388 46.1824 30.1341 45.6007C29.753 45.0241 29.5587 44.344 29.5777 43.6531L29.818 43.4255C30.2353 43.4255 30.6021 43.3496 30.9182 43.1725C31.2344 42.9955 31.5 42.7173 31.677 42.2999L31.9173 41.7941V41.8067ZM30.0456 43.8807C30.0709 44.3613 30.248 44.9051 30.5515 45.3477C30.8803 45.8536 31.3608 46.1951 31.9046 46.1951C32.4484 46.1951 32.9164 45.8536 33.2705 45.3477C33.5613 44.9051 33.7384 44.374 33.7637 43.8934C33.3963 43.8817 33.0368 43.7841 32.7139 43.6084C32.3911 43.4327 32.1139 43.1838 31.9046 42.8817C31.7023 43.1852 31.4494 43.4128 31.1585 43.5646C30.817 43.7543 30.4503 43.8554 30.0456 43.8807Z" fill="#141313"/>
<path d="M24.5065 41.3387C26.0494 39.8844 28.4522 38.2403 31.4241 38.2403C34.2666 38.2395 36.9976 39.3464 39.0373 41.3261C39.5432 41.794 40.3526 41.8446 40.9343 41.4399C42.7183 40.0533 44.9751 39.4221 47.2196 39.682C46.8276 38.2909 45.8917 35.3443 45.2974 34.5602C44.5386 33.5738 38.8856 32.6 31.4241 32.6C24.2535 32.6 18.8029 33.5738 18.082 34.5602C17.513 35.3443 16.6151 38.3036 16.2357 39.682C18.9167 39.3279 21.1299 40.4535 22.5589 41.4525C23.1407 41.8825 23.9753 41.8319 24.5065 41.3261V41.3387Z" fill="#F6A426"/>
<path d="M29.5651 39.9097C29.6916 39.5809 30.1469 39.4038 30.4883 39.4038H33.0935C33.435 39.4038 33.8776 39.5809 34.0041 39.9097C34.257 40.542 33.65 41.149 32.9797 41.4652C32.6003 41.6549 32.2083 41.7055 31.7909 41.7055C31.3736 41.7055 30.9689 41.6549 30.6022 41.4652C29.9193 41.149 29.3375 40.5294 29.5651 39.9097Z" fill="#141313"/>
<path d="M30.855 39.8716C30.9056 39.7831 31.0953 39.7451 31.2344 39.7451H32.3347C32.4738 39.7451 32.6635 39.7831 32.7141 39.8716C32.8279 40.0233 32.575 40.1751 32.2841 40.251C32.1323 40.3016 31.9553 40.3142 31.7782 40.3142C31.6138 40.3142 31.4494 40.3142 31.285 40.2636C31.0068 40.1751 30.7539 40.0233 30.855 39.8716Z" fill="white"/>
<path d="M32.145 44.0576C32.145 44.6014 32.0438 45.0441 31.9047 45.0441C31.7782 45.0441 31.6644 44.6014 31.6644 44.0576C31.6644 43.5265 31.7782 43.0839 31.9174 43.0839C32.0438 43.0839 32.145 43.5265 32.145 44.0576Z" fill="#141313"/>
<path d="M31.4241 28.0598C24.8732 28.0977 20.6999 29.6026 17.0071 31.7905V33.6875L18.8661 34.383C22.091 33.0046 25.1135 32.486 31.4241 32.486C37.7474 32.486 40.7572 33.0046 43.9948 34.383L45.8411 33.7001V31.8031C42.1484 29.6026 37.9877 28.0977 31.4241 28.0471V28.0598Z" fill="#94959A"/>
<path d="M31.4241 27.4274C38.1268 27.4654 42.4013 29.0083 46.1953 31.2593C46.385 31.3732 46.4988 31.5755 46.4988 31.7905V33.6875C46.4988 33.953 46.3344 34.1933 46.0815 34.2819L44.2351 34.9774C44.071 35.0381 43.89 35.0336 43.7292 34.9648C40.6182 33.6369 37.6968 33.1184 31.4241 33.1184C25.1515 33.1184 22.2428 33.6242 19.1317 34.9648C18.9693 35.0295 18.7883 35.0295 18.6259 34.9648L16.7668 34.2819C16.6466 34.2384 16.5424 34.1596 16.4679 34.0557C16.3934 33.9519 16.3521 33.8279 16.3495 33.7001V31.8031C16.3495 31.5755 16.476 31.3732 16.6657 31.2593C20.4596 29.0083 24.7341 27.4654 31.4241 27.4148V27.4274ZM17.6647 32.1446V33.2575L18.8535 33.7001C22.1037 32.3469 25.2273 31.8537 31.4241 31.8537C37.6209 31.8537 40.7446 32.3596 44.0074 33.7001L45.1835 33.2575V32.1446C41.6678 30.1211 37.6715 28.73 31.4241 28.6794C25.1894 28.73 21.1805 30.1211 17.6647 32.1446Z" fill="#221E21"/>
<path d="M22.7486 31.6263C25.603 31.0396 28.51 30.7472 31.4241 30.7536C33.574 30.7536 37.8106 31.0066 40.0996 31.6263C41.1746 31.9045 41.5413 30.7536 41.5413 30.7536L42.553 31.2216C42.4898 31.4113 42.3128 31.8286 42.0725 31.9677C42.2748 31.9424 42.7048 31.8918 42.8566 31.3354L44.6524 32.2586C44.5259 32.4103 44.2983 32.7644 44.3489 32.9415C44.3994 33.1312 44.6524 33.2197 44.7662 33.2324L43.9315 33.6371C42.2622 33.2324 39.9226 31.8539 31.4241 31.8539C22.9383 31.8539 20.5987 33.245 18.9293 33.6371L18.082 33.2324C18.2085 33.2197 18.4614 33.1312 18.4994 32.9415C18.55 32.7644 18.3223 32.4103 18.2085 32.2586L20.0043 31.3354C20.1434 31.8918 20.5734 31.9424 20.7757 31.9677C20.5355 31.8412 20.3584 31.4113 20.2952 31.2089L21.3069 30.7536C21.3069 30.7536 21.6863 31.9045 22.7486 31.6263Z" fill="#58595B"/>
<path d="M25.9861 38.8095C26.8714 38.8095 27.6049 37.8357 27.6049 36.6343C27.6049 35.4202 26.8714 34.4464 25.9861 34.4464C25.1009 34.4464 24.3674 35.4202 24.3674 36.6343C24.3674 36.8113 24.38 36.9884 24.418 37.1528C22.8498 37.2286 21.661 38.6324 21.2563 39.3406C21.8128 38.6703 23.2545 37.4816 24.6456 37.861L24.7088 37.9621C20.3332 41.5917 23.4063 46.4859 23.4063 46.4859C23.4063 46.4859 21.1678 41.0479 25.4929 38.7209C25.6447 38.7842 25.8091 38.8221 25.9861 38.8221V38.8095Z" fill="#141313"/>
<path d="M26.9979 36.4067C26.9979 36.8493 26.7576 37.2034 26.4667 37.2034C26.1632 37.2034 25.9229 36.8493 25.9229 36.4067C25.9229 35.9514 26.1758 35.5973 26.4667 35.5973C26.7576 35.5973 26.9979 35.9514 26.9979 36.4067Z" fill="white"/>
<path d="M37.7095 38.8095C36.8242 38.8095 36.0907 37.8357 36.0907 36.6343C36.0907 35.4202 36.8116 34.4464 37.7095 34.4464C38.5947 34.4464 39.3282 35.4202 39.3282 36.6343C39.3282 36.8113 39.3029 36.9884 39.2776 37.1528C40.8458 37.2286 42.0346 38.6324 42.4393 39.3406C41.8828 38.6703 40.4411 37.4816 39.05 37.861L38.9867 37.9621C43.3498 41.5917 40.2767 46.4859 40.2767 46.4859C40.2767 46.4859 42.5278 41.0479 38.2027 38.7209C38.0469 38.7881 37.879 38.8225 37.7095 38.8221V38.8095Z" fill="#141313"/>
<path d="M36.6851 36.4067C36.6851 36.8493 36.938 37.2034 37.2289 37.2034C37.5324 37.2034 37.7727 36.8493 37.7727 36.4067C37.7727 35.9514 37.5197 35.5973 37.2289 35.5973C36.938 35.5973 36.6977 35.9514 36.6977 36.4067H36.6851Z" fill="white"/>
<path d="M31.6644 41.2375H32.145V41.9331C32.145 43.1598 31.108 43.8174 30.1215 43.8554C29.6157 43.8807 29.1098 43.7542 28.7051 43.4507C28.4926 43.2864 28.3205 43.0756 28.2021 42.8344C28.0837 42.5933 28.0222 42.3282 28.0222 42.0596C28.0222 41.9331 28.1234 41.8193 28.2499 41.8066C28.3763 41.8066 28.5028 41.9078 28.5028 42.0343C28.5028 42.5401 28.7178 42.8816 29.0086 43.0966C29.2869 43.3116 29.6916 43.4254 30.0962 43.4001C30.9056 43.3622 31.6644 42.8437 31.6644 41.9331V41.2375Z" fill="#141313"/>
<path d="M32.145 41.2375H31.6644V41.9331C31.6644 43.1598 32.7014 43.8174 33.6879 43.8554C34.1937 43.8807 34.6996 43.7542 35.1043 43.4507C35.509 43.1472 35.7745 42.6793 35.7998 42.0596C35.7998 41.9331 35.6987 41.8193 35.5596 41.8066C35.4331 41.8066 35.3193 41.9078 35.3066 42.0343C35.3066 42.5401 35.1043 42.8816 34.8008 43.0966C34.5225 43.3116 34.1305 43.4254 33.7258 43.4001C32.9038 43.3622 32.145 42.8437 32.145 41.9331V41.2375Z" fill="#141313"/>
<path d="M47.9151 39.3153C47.5394 37.3024 46.7655 35.3848 45.6388 33.675L44.8294 34.1808C45.8896 35.7828 46.6204 37.5798 46.9793 39.4671C47.1858 40.4455 47.1879 41.4561 46.9855 42.4354C46.7832 43.4147 46.3806 44.3416 45.8032 45.158C44.3488 47.1056 42.0471 48.3955 39.4293 49.1922C36.8115 49.989 33.9407 50.2798 31.4241 50.2798V51.203C34.0166 51.203 36.9885 50.8995 39.7202 50.0648C42.4392 49.2428 44.9685 47.8644 46.5746 45.6892C47.2222 44.7774 47.6753 43.7422 47.9059 42.6479C48.1366 41.5536 48.1397 40.4235 47.9151 39.328V39.3153ZM15.5527 39.3659C15.8941 37.2413 16.8047 35.2431 17.7405 33.7508L18.5499 34.2188C17.5268 35.8306 16.8267 37.626 16.4885 39.505C16.2902 40.4796 16.2888 41.4839 16.4842 42.4591C16.6797 43.4342 17.0681 44.3604 17.6267 45.1833C19.0178 47.1309 21.231 48.4082 23.7476 49.1922C26.2516 49.989 29.0086 50.2798 31.4241 50.2798V51.203C28.9453 51.203 26.0746 50.8995 23.4441 50.0648C20.8136 49.2428 18.3855 47.877 16.83 45.7018C16.2066 44.7837 15.7725 43.7504 15.5532 42.6625C15.3338 41.5746 15.3337 40.4539 15.5527 39.3659ZM26.8713 21.1423C28.4774 20.6238 30.1468 20.3329 31.4241 20.3329C32.714 20.3329 34.3834 20.6238 35.9768 21.1423C37.5703 21.6481 39.1637 22.4069 40.2513 23.3807L40.479 23.5957L40.4537 23.8992C40.3652 25.1639 40.3652 26.125 40.7698 27.0355C41.1619 27.9461 42.0092 28.8819 43.7924 29.9695C44.627 30.3616 45.4238 30.8042 46.1952 31.2595C46.3354 31.3438 46.4374 31.4792 46.4799 31.6372C46.5223 31.7952 46.5019 31.9635 46.4228 32.1068C46.3357 32.2508 46.1976 32.3568 46.0359 32.4037C45.8743 32.4505 45.7009 32.4348 45.5502 32.3597C44.627 31.9171 43.8303 31.4998 43.1474 31.0824C40.0996 29.6534 36.508 28.7175 31.4241 28.6796C26.3402 28.7175 22.7612 29.6534 19.7134 31.0824C19.0178 31.4998 18.2211 31.9171 17.3106 32.3597C17.1586 32.4386 16.9822 32.4563 16.8176 32.4093C16.653 32.3623 16.5126 32.254 16.4253 32.1068C16.3473 31.962 16.3288 31.7926 16.3737 31.6344C16.4185 31.4762 16.5232 31.3418 16.6656 31.2595C17.437 30.8042 18.2337 30.3742 19.0684 29.9695C20.8389 28.8819 21.6862 27.9461 22.0909 27.0355C22.4956 26.125 22.4956 25.1512 22.3944 23.8992L22.3692 23.5957L22.5968 23.3807C23.8556 22.3532 25.3098 21.5917 26.8713 21.1423ZM22.6727 28.6037C25.1261 27.8702 27.9463 27.4402 31.4241 27.4149C34.9019 27.4402 37.7347 27.8702 40.1881 28.5911C39.9352 28.2496 39.7202 27.8955 39.5558 27.5414C39.1266 26.4533 38.9787 25.2746 39.1258 24.1142C38.0506 23.3186 36.8432 22.7192 35.5595 22.3437C34.0672 21.8631 32.537 21.5975 31.4241 21.5975C30.3238 21.5975 28.7936 21.8505 27.2887 22.3437C25.9102 22.7863 24.6329 23.3933 23.735 24.1142C23.8759 25.2715 23.7237 26.4457 23.2924 27.5288C23.1406 27.9082 22.9256 28.2496 22.66 28.5911L22.6727 28.6037Z" fill="#221E21"/>
<path d="M31.4242 18.7266C31.7277 18.7266 32.1577 18.7266 32.5497 18.7898C33.3338 18.9163 33.7512 19.4221 33.9662 19.928C34.1432 20.3706 34.1938 20.8765 34.2317 21.2053V21.2559C34.4417 23.2719 34.6609 25.2869 34.8893 27.3009L34.9399 27.7562L34.9526 27.9206L35.0285 28.6288H27.9464L28.0223 27.9206L28.0349 27.7562L28.0855 27.3009C28.3111 25.2866 28.5303 23.2716 28.7431 21.2559V21.2053C28.7811 20.8765 28.8317 20.3706 29.0087 19.928C29.2237 19.4221 29.641 18.9163 30.4251 18.7898C30.7666 18.7392 31.1333 18.7266 31.4242 18.7266ZM29.4008 27.3641H33.5741C33.3528 25.3667 33.1378 23.3685 32.9291 21.3697C32.9109 21.0379 32.8471 20.7102 32.7394 20.3959C32.6383 20.1556 32.5245 20.0671 32.3474 20.0418C31.7766 19.9659 31.1983 19.9659 30.6275 20.0418C30.4504 20.0671 30.3366 20.1683 30.2354 20.3959C30.1216 20.6615 30.0837 21.0029 30.0457 21.3697C29.844 23.3688 29.6332 25.3669 29.4134 27.3641H29.4008Z" fill="#221E21"/>
<path d="M28.6799 27.9967C28.6799 27.9967 29.0972 24.2533 29.3881 21.3193C29.464 20.6238 29.5651 19.5488 30.5263 19.4224C31.1636 19.3291 31.8112 19.3291 32.4485 19.4224C33.4097 19.5488 33.5108 20.6238 33.5867 21.3193C33.8776 24.2533 34.2949 27.9967 34.2949 27.9967H28.6799Z" fill="#94959A"/>
<path d="M30.1089 23.7852C30.5895 24.7589 31.1206 24.8854 31.4242 24.8854C31.7277 24.8854 32.2715 24.7589 32.7394 23.7852L33.1061 27.5285H29.7548L30.1089 23.7852Z" fill="#58595B"/>
<path d="M48.282 13.2635C48.282 13.2635 48.3199 13.2635 48.3831 13.3267C49.434 14.2729 50.2709 15.4325 50.8379 16.7279C51.4049 18.0233 51.689 19.4248 51.6712 20.8387C51.608 23.5072 50.2801 27.1747 45.3227 29.5143C44.6556 29.6077 43.9759 29.5383 43.3415 29.3119C42.7071 29.0856 42.1369 28.7091 41.6796 28.2145C41.2223 27.7199 40.8916 27.1221 40.7155 26.4719C40.5395 25.8217 40.5235 25.1386 40.6688 24.4809C42.0867 24.1197 43.4364 23.5303 44.6651 22.7357C46.8403 21.3067 48.9269 18.8406 48.4084 14.8443C48.3507 14.4179 48.2662 13.9955 48.1555 13.5796C48.1176 13.4026 48.1934 13.3141 48.244 13.2761H48.282V13.2635ZM39.9985 23.3428L39.6064 23.4186L39.4926 23.798C39.2309 24.6855 39.1983 25.6248 39.3979 26.5283C39.5975 27.4318 40.0228 28.27 40.6341 28.9646C41.2453 29.6592 42.0226 30.1876 42.8934 30.5004C43.7642 30.8133 44.7 30.9004 45.6135 30.7536L45.7147 30.741L45.7906 30.6904C51.3551 28.1358 52.9232 23.9751 52.9991 20.864C53.0195 19.2774 52.7018 17.7046 52.0673 16.2502C51.4328 14.7958 50.4959 13.4931 49.319 12.4288C49.0844 12.1912 48.7745 12.0424 48.4424 12.0078C48.1103 11.9732 47.7764 12.0549 47.4979 12.2391C46.9794 12.5806 46.7138 13.2255 46.8908 13.8832C46.9794 14.2626 47.0552 14.6293 47.1058 14.9961C47.3124 16.3029 47.12 17.6417 46.5537 18.8375C45.9874 20.0333 45.0735 21.0305 43.9316 21.6987C42.7329 22.4754 41.4053 23.0321 40.0111 23.3428H39.9985Z" fill="#221E21"/>
</svg>
