<svg width="64" height="64" viewBox="0 0 64 64" fill="none" xmlns="http://www.w3.org/2000/svg">
<g clip-path="url(#clip0_448_408)">
<path d="M32 64C49.6731 64 64 49.6731 64 32C64 14.3269 49.6731 0 32 0C14.3269 0 0 14.3269 0 32C0 49.6731 14.3269 64 32 64Z" fill="#7F1622"/>
<path d="M32 64C49.6731 64 64 49.6731 64 32C49.5 32 49.6731 32 32 32C14.3269 32 14.5 32 0 32C0 49.6731 14.3269 64 32 64Z" fill="#016438"/>
<path fill-rule="evenodd" clip-rule="evenodd" d="M31.6006 11.0013C26.7883 16.9688 20.5725 19.2969 13.0025 17.823C12.8274 37.347 21.8323 46.5711 31.6019 54C41.2681 46.6694 50.4381 37.2903 50.1836 17.8406C42.3226 19.3007 36.4558 17.0356 31.6006 11V11.0013Z" fill="white" stroke="#911729" stroke-miterlimit="2.61"/>
<path fill-rule="evenodd" clip-rule="evenodd" d="M46.0422 32.8999C43.9119 38.7402 39.703 44.8111 31.59 51.4123C23.5703 44.8451 19.3639 38.7289 17.2109 32.8999H46.0422Z" fill="#016438"/>
<path fill-rule="evenodd" clip-rule="evenodd" d="M15.0918 20.2217C24.9546 20.325 27.7904 18.3358 31.5924 14.113C35.6967 18.2111 38.4166 20.3489 48.0967 20.2217C48.0589 24.1018 47.6772 27.9857 46.3658 31.9704H16.8857C15.5365 27.9366 15.1346 24.0376 15.0918 20.2204V20.2217Z" fill="#7F1622"/>
<path fill-rule="evenodd" clip-rule="evenodd" d="M26.9629 21.0734C27.293 21.1767 27.9518 20.9537 28.3109 21.6491C28.4897 21.9955 28.8072 22.3785 28.9143 23.1155L30.9564 22.798C30.7271 21.9943 30.8858 21.9754 30.6843 21.3455C31.9478 21.2246 33.1723 20.9524 34.315 20.3477C34.8743 20.8164 35.3744 21.2094 36.0396 21.4815C33.5074 22.8988 33.7657 24.0465 33.9521 24.7948L34.9499 25.9752C34.9096 23.4985 36.5044 21.9187 38.4899 21.4375C37.1318 20.7043 35.8242 19.8716 34.5871 18.8965C32.3283 19.6914 29.5391 20.5884 28.3701 19.7128L26.9629 21.0746V21.0734Z" fill="white"/>
<path fill-rule="evenodd" clip-rule="evenodd" d="M24.9238 26.8454C24.9163 26.9222 26.6333 25.9787 27.0554 26.1853L26.8966 25.2102C28.9009 24.312 30.9456 23.9315 33.7208 24.3939C33.7397 23.9555 33.7246 23.6304 33.9249 23.192C33.0028 23.0257 32.0806 22.9955 31.137 22.9199C30.4794 22.9804 29.5107 23.0812 28.8014 23.3054C28.0922 23.5297 27.3237 23.8307 26.6699 23.895C26.016 23.9592 25.7024 23.7514 25.1052 23.6002C24.6139 24.1671 24.3267 24.4165 23.5859 25.0741C24.1856 24.9368 25.0876 25.146 24.9541 26.5254L24.9226 26.8454H24.9238Z" fill="white"/>
<path fill-rule="evenodd" clip-rule="evenodd" d="M35.7058 23.5046C37.6597 24.2303 37.7063 23.5475 38.5453 23.4807L39.0429 24.4507C36.4667 25.2154 35.2598 28.2842 37.1495 30.0366C35.3077 30.3868 34.2155 28.0915 35.6856 25.2961C35.7713 25.1348 35.6743 24.8765 35.7776 24.7115L35.2334 24.5692C35.3279 24.1434 35.5181 23.9065 35.7071 23.5034L35.7058 23.5046Z" fill="white"/>
<path fill-rule="evenodd" clip-rule="evenodd" d="M36.8399 26.3201C36.627 26.6514 36.438 27.1011 36.4141 27.5975C37.4194 27.9439 37.9913 28.507 38.3781 29.8437C38.3894 29.884 38.4096 29.923 38.4259 29.9646C38.9349 31.2723 41.4469 31.3063 41.8815 30.8641C41.9924 30.3589 41.8424 30.044 41.3839 29.918C40.856 29.9218 40.919 30.4509 40.4365 30.3199C39.8457 30.112 39.5194 29.855 39.3771 29.3574C39.1642 28.6154 39.5837 27.8167 40.72 27.5509L40.1518 26.7698C39.0281 26.829 37.8993 26.829 36.8386 26.3201H36.8399Z" fill="white"/>
<path fill-rule="evenodd" clip-rule="evenodd" d="M35.3033 25.8702L35.0425 25.7997L34.9947 26.0365L34.8762 26.0844L34.5449 25.6825C33.425 25.549 32.3038 25.5402 31.1838 25.6586L31.1133 26.9599C32.4386 26.8579 33.7248 26.9121 34.9241 27.125C35.011 26.6828 35.098 26.2646 35.3033 25.8702Z" fill="white"/>
<path fill-rule="evenodd" clip-rule="evenodd" d="M28.8231 24.7796L28.7324 31.309L30.6372 31.2183L30.7279 30.1752L32.1338 30.0845L32.3606 30.3112C31.3628 33.0626 31.9373 34.7242 34.084 35.2987L34.1293 35.0266C32.7083 34.0289 32.4966 31.5043 34.3561 30.1752L33.7665 28.996C32.6629 28.7025 31.6047 29.5 30.7292 28.9053L31.0466 24.4167C30.3512 24.4772 29.6105 24.447 28.8244 24.7796H28.8231Z" fill="white"/>
<path fill-rule="evenodd" clip-rule="evenodd" d="M26.4201 37.1127L26.1934 38.836C28.7721 39.3903 31.5953 39.5226 34.8997 38.3825C36.5777 37.8081 38.2091 37.1882 39.9325 37.4755C39.5999 36.9766 41.2175 33.9393 42.6083 35.7067L43.3793 35.7521C43.0316 35.0567 43.0467 34.6788 44.1049 34.0741C42.9408 33.938 42.0943 34.0287 41.2943 33.3938C37.7657 36.6856 32.3537 38.3548 26.4226 37.1114L26.4201 37.1127Z" fill="white"/>
<path fill-rule="evenodd" clip-rule="evenodd" d="M33.5402 31.3995C33.2454 31.9135 33.1094 32.2234 33.1774 32.7374C33.9181 32.8055 34.5682 33.1683 34.8554 33.7125L34.8781 31.3088L33.5402 31.3995Z" fill="white"/>
<path fill-rule="evenodd" clip-rule="evenodd" d="M28.7833 32.8344L28.5742 37.294C29.2734 37.3999 29.8176 37.4225 30.4563 37.4074L30.5924 32.8281L28.7833 32.8344Z" fill="white"/>
<path fill-rule="evenodd" clip-rule="evenodd" d="M28.5275 39.3123C29.3236 39.413 30.0064 39.3715 30.6137 39.4017C30.7787 42.1115 31.8016 43.205 34.0692 43.9293C34.524 44.0742 35.0821 44.2254 35.4134 44.437C30.0027 44.9435 30.0165 41.4602 27.599 44.1196L26.9414 43.1899C27.754 42.4252 28.2314 40.9273 28.5287 39.3135L28.5275 39.3123Z" fill="white"/>
<path fill-rule="evenodd" clip-rule="evenodd" d="M28.5624 26.0479C25.2819 26.3678 22.2937 28.221 19.7326 32.3165C19.5335 32.6025 19.1329 33.0497 19.0586 33.1341C19.3937 33.1921 19.6368 33.4516 19.7918 33.5977C21.1171 36.0014 22.5746 37.3947 24.0801 38.1808C24.2942 37.6189 24.3383 37.0571 24.4164 36.4952C23.4842 36.0795 21.4622 34.249 21.6525 32.2485C22.6187 29.6987 25.7077 27.4853 28.5611 27.5306V26.0479H28.5624Z" fill="white"/>
<path fill-rule="evenodd" clip-rule="evenodd" d="M25.0291 28.8976C25.6035 28.3962 26.2258 28.0409 26.9452 27.9729L27.0132 31.7094C28.564 31.339 30.276 31.305 31.8268 31.4071L31.6983 32.619C30.1148 32.653 28.3624 32.653 26.7449 33.1922C26.498 35.6185 26.2838 37.944 25.5657 40.2696C26.7449 40.6626 27.3407 41.1792 27.6217 41.7524L27.0825 42.764C26.3291 41.7246 25.5884 41.1741 24.1837 41.416L23.5098 40.8088C24.9925 37.9667 24.8288 32.4476 25.0316 28.8976H25.0291Z" fill="white"/>
<path fill-rule="evenodd" clip-rule="evenodd" d="M27.7545 44.112C27.9056 44.0616 28.3617 44.9208 29.1364 45.14C29.1742 45.1765 29.6756 45.1224 29.4224 45.0216C29.1692 44.9221 28.6968 44.2796 28.4108 43.5225C28.4108 43.5225 27.602 44.1624 27.7532 44.112H27.7545Z" fill="white"/>
</g>
<defs>
<clipPath id="clip0_448_408">
<rect width="64" height="64" fill="white"/>
</clipPath>
</defs>
</svg>
