<svg width="64" height="64" viewBox="0 0 64 64" fill="none" xmlns="http://www.w3.org/2000/svg">
<g clip-path="url(#clip0_40_30247)">
<path d="M32 64C49.6731 64 64 49.6731 64 32C64 14.3269 49.6731 0 32 0C14.3269 0 0 14.3269 0 32C0 49.6731 14.3269 64 32 64Z" fill="#D6131B"/>
<path d="M32.001 53.0231C33.9491 51.2638 36.1805 49.8465 38.601 48.8311L39.575 48.3121C42.2315 46.937 44.6137 45.0871 46.604 42.8541C47.4637 41.5175 47.8888 39.9478 47.821 38.3601V14.0141L46.645 13.8561C41.7841 13.2689 36.8922 12.9754 31.996 12.9771C27.0998 12.9754 22.2079 13.2689 17.347 13.8561L16.172 14.0061V38.3521C16.1042 39.9398 16.5293 41.5096 17.389 42.8461C19.3793 45.0791 21.7615 46.929 24.418 48.3041L25.392 48.8231C27.8148 49.8404 30.048 51.2605 31.997 53.0231" fill="#D4B943"/>
<path d="M17.529 38.223C17.4677 39.5211 17.8021 40.8072 18.488 41.911C20.2916 44.0469 22.5127 45.7916 25.015 47.038C27.742 48.499 28.837 49.069 32 50.916C35.165 49.068 36.258 48.503 38.985 47.038C41.4873 45.7917 43.7085 44.047 45.512 41.911C46.198 40.8069 46.5325 39.5204 46.471 38.222V15.188C41.6688 14.6116 36.8366 14.3221 32 14.321C27.1711 14.3218 22.3465 14.6103 17.552 15.185L17.529 38.222" fill="white"/>
<path d="M27.024 14.9631C22.642 15.1481 19.253 15.5181 18.062 15.6631V38.2271C18.0011 39.4115 18.2991 40.5868 18.917 41.5991C20.6622 43.6838 22.8255 45.379 25.267 46.5751L26.241 47.0941L27.032 47.5181V14.9701" fill="#E41D25"/>
<path d="M36.977 14.9631V47.5111L37.771 47.0851L38.745 46.5691C41.1866 45.3728 43.3499 43.6772 45.095 41.5921C45.7136 40.58 46.0123 39.4047 45.952 38.2201V15.6551C44.759 15.5141 41.365 15.1441 36.99 14.9551" fill="#E41D25"/>
<path d="M20.889 33.059H22.014V30.466H24.337V29.434H22.014V27.99H24.707V26.958H20.889V33.059Z" fill="white"/>
<path d="M32.848 29.327C32.7654 29.4614 32.6426 29.5663 32.497 29.627C32.2082 29.7087 31.9076 29.7408 31.608 29.722H30.992V27.991H31.535C31.805 27.9826 32.0752 27.9963 32.343 28.032C32.5213 28.0653 32.682 28.161 32.796 28.302C32.9189 28.4583 32.9821 28.6534 32.974 28.852C32.9777 29.0192 32.9347 29.184 32.848 29.327ZM33.009 27.051C32.5682 26.9704 32.1197 26.9395 31.672 26.959H29.88V33.059H31.005V30.759H31.735C32.1256 30.7686 32.5162 30.7392 32.901 30.671C33.1132 30.6162 33.3114 30.5174 33.483 30.381C33.6854 30.221 33.8472 30.0154 33.955 29.781C34.0874 29.4841 34.1507 29.161 34.14 28.836C34.1583 28.416 34.045 28.0007 33.816 27.648C33.6282 27.3602 33.3449 27.1477 33.016 27.048" fill="#E41D25"/>
<path d="M43.113 27.99V26.958H39.298V33.058H40.423V30.465H42.746V29.433H40.423V27.989H43.116" fill="white"/>
</g>
<defs>
<clipPath id="clip0_40_30247">
<rect width="64" height="64" fill="white"/>
</clipPath>
</defs>
</svg>
