<svg xmlns="http://www.w3.org/2000/svg" width="64" height="64" viewBox="0 0 64 64"><circle cx="32" cy="32" r="32" fill="#031aed"/><path d="M12.855.351a3.674,3.674,0,0,1,3.133,0l9.078,4.77a1.53,1.53,0,0,1,.883,1.134h.009V30.234a1.491,1.491,0,0,1-.891,1.248l-9.078,4.77a3.674,3.674,0,0,1-3.133,0l-9.078-4.77a1.477,1.477,0,0,1-.872-1.248c0-.046,0-.085,0-.117V6.409q0-.039,0-.078V6.255h0a1.458,1.458,0,0,1,.868-1.134ZM24.528,19.633l-8.54,4.488a3.674,3.674,0,0,1-3.133,0L4.334,19.643V30.186l8.521,4.454a3.864,3.864,0,0,0,1.469.537l.1,0a3.6,3.6,0,0,0,1.5-.5l8.6-4.534Zm-23.1,10.08a4.4,4.4,0,0,0,.32,1.948,2.486,2.486,0,0,0,.925.95l.028.019c.106.071.223.146.366.233l.168.1.516.31-.74,1.216-.577-.347-.1-.059c-.167-.1-.305-.19-.434-.277C.525,32.882.01,31.874,0,29.776v-.064ZM13.707,13.206a1.3,1.3,0,0,0-.184.078l-9.078,4.77-.027.015-.008,0,.014.008.021.011,9.078,4.77a1.3,1.3,0,0,0,.184.078Zm1.429,0v9.736a1.3,1.3,0,0,0,.184-.078l9.078-4.77.027-.015.008,0-.014-.008-.021-.011-9.078-4.77A1.3,1.3,0,0,0,15.136,13.206Zm9.392-5.25-8.143,4.279,8.143,4.279Zm-20.194.01V16.5l8.124-4.269ZM15.321,1.608a2.266,2.266,0,0,0-1.8,0L4.445,6.378l-.027.015-.008,0,.014.008.021.011,9.078,4.77a2.266,2.266,0,0,0,1.8,0L24.4,6.417l.027-.015.008,0-.014-.008L24.4,6.378Zm10.549.523.577.347.1.059c.167.1.305.191.434.277,1.379.925,1.893,1.933,1.9,4.031v.064H27.453a4.4,4.4,0,0,0-.32-1.948,2.486,2.486,0,0,0-.925-.95l-.028-.019c-.106-.071-.223-.146-.366-.234l-.168-.1-.516-.31Z" transform="translate(17.559 13.699)" fill="#fff"/></svg>