<svg width="64" height="64" viewBox="0 0 64 64" fill="none" xmlns="http://www.w3.org/2000/svg">
<g clip-path="url(#clip0_40_30259)">
<path d="M32 64C49.6731 64 64 49.6731 64 32C64 14.3269 49.6731 0 32 0C14.3269 0 0 14.3269 0 32C0 49.6731 14.3269 64 32 64Z" fill="#031AED"/>
<path d="M30.414 14.0499C30.904 13.819 31.4389 13.6992 31.9805 13.6992C32.5222 13.6992 33.0571 13.819 33.547 14.0499L42.625 18.8199C42.8538 18.9222 43.054 19.079 43.208 19.2768C43.3619 19.4745 43.465 19.707 43.508 19.9539H43.517V43.9329C43.4955 44.2021 43.4012 44.4604 43.2443 44.6802C43.0873 44.9 42.8736 45.0731 42.626 45.1809L33.548 49.9509C33.0581 50.1819 32.5232 50.3016 31.9815 50.3016C31.4399 50.3016 30.905 50.1819 30.415 49.9509L21.337 45.1809C21.0921 45.0717 20.8815 44.8978 20.7278 44.6779C20.5742 44.4581 20.4834 44.2005 20.465 43.9329C20.465 43.8869 20.465 43.8479 20.465 43.8159V20.1079C20.465 20.0819 20.465 20.0559 20.465 20.0299V19.9539C20.5003 19.7063 20.5987 19.472 20.7507 19.2734C20.9027 19.0748 21.1032 18.9186 21.333 18.8199L30.414 14.0499ZM42.087 33.3319L33.547 37.8199C33.0571 38.0509 32.5222 38.1706 31.9805 38.1706C31.4389 38.1706 30.904 38.0509 30.414 37.8199L21.893 33.3419V43.8849L30.414 48.3389C30.862 48.6162 31.3619 48.7989 31.883 48.8759H31.983C32.5139 48.8225 33.0263 48.6517 33.483 48.3759L42.083 43.8419L42.087 33.3319ZM18.987 43.4119C18.9448 44.0771 19.0542 44.7432 19.307 45.3599C19.5237 45.7545 19.8434 46.0828 20.232 46.3099L20.26 46.3289C20.366 46.3999 20.483 46.4749 20.626 46.5619L20.794 46.6619L21.31 46.9719L20.57 48.1879L19.993 47.8409L19.893 47.7819C19.726 47.6819 19.588 47.5919 19.459 47.5049C18.084 46.5809 17.569 45.5729 17.559 43.4749V43.4109L18.987 43.4119ZM31.266 26.9049C31.2028 26.9262 31.1413 26.9522 31.082 26.9829L22.004 31.7529L21.977 31.7679H21.969L21.983 31.7759L22.004 31.7869L31.082 36.5569C31.1413 36.5876 31.2028 36.6137 31.266 36.6349V26.9049ZM32.695 26.9049V36.6409C32.7583 36.6197 32.8198 36.5936 32.879 36.5629L41.957 31.7929L41.984 31.7779H41.992L41.978 31.7699L41.957 31.7589L32.879 26.9889C32.82 26.9562 32.7584 26.9281 32.695 26.9049ZM42.087 21.6549L33.944 25.9339L42.087 30.2129V21.6549ZM21.893 21.6649V30.1989L30.017 25.9299L21.893 21.6649ZM32.88 15.3069C32.5959 15.184 32.2896 15.1205 31.98 15.1205C31.6704 15.1205 31.3641 15.184 31.08 15.3069L22.004 20.0769L21.977 20.0919H21.969L21.983 20.0999L22.004 20.1109L31.082 24.8809C31.3661 25.0039 31.6724 25.0673 31.982 25.0673C32.2916 25.0673 32.5979 25.0039 32.882 24.8809L41.959 20.1159L41.986 20.1009H41.994L41.98 20.0929L41.959 20.0769L32.88 15.3069ZM43.429 15.8299L44.006 16.1769L44.106 16.2359C44.273 16.3359 44.411 16.4269 44.54 16.5129C45.919 17.4379 46.433 18.4459 46.44 20.5439V20.6079H45.012C45.0543 19.9427 44.9449 19.2766 44.692 18.6599C44.4754 18.2653 44.1557 17.937 43.767 17.7099L43.739 17.6909C43.633 17.6199 43.516 17.5449 43.373 17.4569L43.205 17.3569L42.689 17.0469L43.429 15.8299Z" fill="white"/>
</g>
<defs>
<clipPath id="clip0_40_30259">
<rect width="64" height="64" fill="white"/>
</clipPath>
</defs>
</svg>
