<svg width="64" height="64" viewBox="0 0 64 64" fill="none" xmlns="http://www.w3.org/2000/svg">
<g clip-path="url(#clip0_40_30262)">
<path d="M32 64C49.6731 64 64 49.6731 64 32C64 14.3269 49.6731 0 32 0C14.3269 0 0 14.3269 0 32C0 49.6731 14.3269 64 32 64Z" fill="#0F1519"/>
<path d="M24.3901 16.7661C32.7661 16.7661 41.1428 16.7661 49.5201 16.7661C49.5201 19.4734 49.5201 22.1804 49.5201 24.8871C41.1434 24.8871 32.7668 24.8871 24.3901 24.8871C24.3854 22.1811 24.3854 19.4741 24.3901 16.7661Z" fill="#02A6C2"/>
<path d="M14.4931 27.9441C17.1957 27.9301 19.8984 27.9301 22.6011 27.9441C22.6151 30.6468 22.6151 33.3494 22.6011 36.0521C19.8977 36.0661 17.1951 36.0661 14.4931 36.0521C14.4784 33.3501 14.4784 30.6474 14.4931 27.9441Z" fill="#5FCADE"/>
<path d="M24.393 27.945C30.439 27.9324 36.4844 27.9324 42.529 27.945C42.5417 30.6477 42.5417 33.3504 42.529 36.0531C36.4837 36.0657 30.4384 36.0657 24.393 36.0531C24.3804 33.3504 24.3804 30.6477 24.393 27.945Z" fill="#5FCADE"/>
<path d="M24.4011 39.1262C27.0991 39.0969 29.7964 39.0969 32.4931 39.1262C32.5211 41.8222 32.5211 44.5196 32.4931 47.2183C29.7951 47.245 27.0978 47.245 24.4011 47.2183C24.3738 44.5196 24.3738 41.8222 24.4011 39.1262Z" fill="#ABEBF4"/>
</g>
<defs>
<clipPath id="clip0_40_30262">
<rect width="64" height="64" fill="white"/>
</clipPath>
</defs>
</svg>
