<svg xmlns="http://www.w3.org/2000/svg" width="64" height="64" viewBox="0 0 64 64"><path d="M32,0A32,32,0,1,1,0,32,32,32,0,0,1,32,0Z" fill="#3771ff"/><path d="M209.5,217.8l8.3-8.3a1.778,1.778,0,0,0-2.514-2.514l-8.3,8.3A1.778,1.778,0,1,0,209.5,217.8Zm19.611,3.017-8.3,8.3a1.778,1.778,0,1,0,2.514,2.514l8.3-8.3a1.778,1.778,0,0,0-2.514-2.514Zm.943-14.644-23.884,23.884a1.778,1.778,0,1,0,2.514,2.514l23.884-23.884a1.778,1.778,0,0,0-2.514-2.514Z" transform="translate(-187.372 -187.372)" fill="#fff"/></svg>