<svg width="64" height="64" viewBox="0 0 64 64" fill="none" xmlns="http://www.w3.org/2000/svg">
<g clip-path="url(#clip0_40_30270)">
<path d="M32 0C38.329 0 44.5159 1.87677 49.7782 5.39297C55.0406 8.90918 59.1421 13.9069 61.5641 19.7541C63.9861 25.6014 64.6199 32.0355 63.3851 38.2429C62.1504 44.4503 59.1027 50.1521 54.6274 54.6274C50.1521 59.1027 44.4503 62.1504 38.2429 63.3851C32.0355 64.6199 25.6014 63.9861 19.7541 61.5641C13.9069 59.1421 8.90918 55.0406 5.39297 49.7782C1.87677 44.5159 0 38.329 0 32C0 23.5131 3.37142 15.3737 9.37258 9.37258C15.3737 3.37142 23.5131 0 32 0Z" fill="#3771FF"/>
<path d="M22.128 30.4281L30.428 22.1281C30.7508 21.7926 30.9291 21.3438 30.9246 20.8782C30.9201 20.4127 30.7331 19.9674 30.4039 19.6382C30.0747 19.309 29.6295 19.122 29.1639 19.1175C28.6983 19.113 28.2496 19.2913 27.914 19.6141L19.614 27.9141C19.4437 28.078 19.3077 28.2742 19.2141 28.4912C19.1205 28.7083 19.0711 28.9418 19.0688 29.1782C19.0665 29.4146 19.1113 29.6491 19.2008 29.8679C19.2902 30.0867 19.4223 30.2855 19.5895 30.4527C19.7566 30.6198 19.9554 30.752 20.1742 30.8414C20.3931 30.9308 20.6275 30.9756 20.8639 30.9734C21.1003 30.9711 21.3338 30.9217 21.5509 30.828C21.768 30.7344 21.9642 30.5985 22.128 30.4281ZM41.739 33.4451L33.439 41.7451C33.2687 41.909 33.1327 42.1052 33.0391 42.3222C32.9455 42.5393 32.8961 42.7728 32.8938 43.0092C32.8915 43.2456 32.9364 43.4801 33.0258 43.6989C33.1152 43.9177 33.2473 44.1165 33.4145 44.2837C33.5816 44.4508 33.7804 44.583 33.9992 44.6724C34.2181 44.7618 34.4525 44.8066 34.6889 44.8044C34.9253 44.8021 35.1588 44.7527 35.3759 44.659C35.5929 44.5654 35.7892 44.4294 35.953 44.2591L44.253 35.9591C44.5758 35.6235 44.7541 35.1748 44.7496 34.7092C44.7451 34.2437 44.5582 33.7984 44.2289 33.4692C43.8997 33.14 43.4545 32.953 42.9889 32.9485C42.5233 32.944 42.0746 33.1223 41.739 33.4451ZM42.682 18.8011L18.798 42.6851C18.6277 42.849 18.4917 43.0452 18.3981 43.2622C18.3045 43.4793 18.2551 43.7128 18.2528 43.9492C18.2505 44.1856 18.2954 44.4201 18.3848 44.6389C18.4742 44.8577 18.6063 45.0565 18.7735 45.2237C18.9406 45.3908 19.1394 45.523 19.3582 45.6124C19.5771 45.7018 19.8115 45.7467 20.0479 45.7444C20.2843 45.7421 20.5178 45.6927 20.7349 45.599C20.952 45.5054 21.1482 45.3694 21.312 45.1991L45.196 21.3151C45.5188 20.9795 45.6971 20.5308 45.6926 20.0652C45.6881 19.5997 45.5012 19.1544 45.1719 18.8252C44.8427 18.496 44.3975 18.309 43.9319 18.3045C43.4663 18.3 43.0176 18.4783 42.682 18.8011Z" fill="white"/>
</g>
<defs>
<clipPath id="clip0_40_30270">
<rect width="64" height="64" fill="white"/>
</clipPath>
</defs>
</svg>
