<svg width="64" height="64" viewBox="0 0 64 64" fill="none" xmlns="http://www.w3.org/2000/svg">
<g clip-path="url(#clip0_40_30273)">
<path fill-rule="evenodd" clip-rule="evenodd" d="M32 64.001C25.6574 64.0007 19.458 62.1156 14.1889 58.585C8.91986 55.0544 4.81879 50.0377 2.40648 44.1718C-0.00583959 38.3059 -0.620583 31.8554 0.640302 25.6395C1.90119 19.4235 4.98082 13.7224 9.48817 9.26016C13.9955 4.79788 19.7273 1.7757 25.9556 0.577345C32.1839 -0.621007 38.6279 0.058533 44.4692 2.52968C50.3106 5.00083 55.2859 9.15211 58.7633 14.4564C62.2407 19.7607 64.0634 25.9787 64 32.321C63.8826 40.7419 60.4635 48.78 54.4786 54.705C48.4937 60.6301 40.4216 63.9683 32 64.001Z" fill="#060606"/>
<path fill-rule="evenodd" clip-rule="evenodd" d="M13.333 42.0671C13.843 42.3381 14.512 42.7521 14.989 43.0671C15.164 43.1861 15.363 43.2901 15.554 43.4091C15.654 43.4731 15.721 43.5091 15.817 43.5681C15.8601 43.6002 15.9052 43.6296 15.952 43.6561L16.095 43.7361L22.233 47.5141C22.321 47.5621 22.4 47.6141 22.496 47.6731L28.063 51.1051C28.127 51.1451 28.151 51.1531 28.206 51.1931L30.866 52.8261C30.985 52.8901 31.033 52.9691 31.166 52.9771V32.1921L30.322 31.7061C30.242 31.6661 30.195 31.6341 30.115 31.5871L29.452 31.2031C28.512 30.7091 27.636 30.1031 26.689 29.6101C26.589 29.5621 26.562 29.5301 26.458 29.4831L25.614 28.9971C25.1903 28.728 24.7516 28.4832 24.3 28.2641V31.5451L27.756 33.5451C27.856 33.6011 27.915 33.6451 28.003 33.6881C28.0832 33.7445 28.172 33.7873 28.266 33.8151V47.8871C27.661 47.4811 27.016 47.1151 26.395 46.7401L24.89 45.8081C24.277 45.3941 23.616 45.0511 23.003 44.6451C22.931 44.5971 22.892 44.5811 22.82 44.5341L21.49 43.7141C21.3581 43.642 21.2305 43.5622 21.108 43.4751C20.622 43.1481 20.097 42.8621 19.603 42.5431C19.468 42.4551 19.356 42.4001 19.221 42.3121C18.488 41.8181 17.7 41.3721 16.951 40.9181C16.887 40.8781 16.832 40.8381 16.776 40.7991L16.195 40.4411V23.5511C16.084 23.4791 15.972 23.4161 15.845 23.3441C15.718 23.2721 15.622 23.2171 15.495 23.1371L13.699 22.1181C13.564 22.0461 13.46 21.9671 13.333 21.9031V42.0671Z" fill="white"/>
<path fill-rule="evenodd" clip-rule="evenodd" d="M32.884 32.16V40.1481L33.9431 39.548C34.4291 39.293 34.8751 38.9831 35.3611 38.7281C35.4252 38.6965 35.4864 38.6593 35.5441 38.6171C35.6081 38.5771 35.6711 38.5531 35.7351 38.5171V33.8101C35.8073 33.7956 35.8756 33.7656 35.9351 33.722C36.0071 33.674 36.0541 33.6581 36.1261 33.6221C36.5001 33.4071 36.8671 33.1521 37.2491 32.9611C37.7671 32.7061 38.2601 32.388 38.7541 32.093C38.8811 32.021 38.9851 31.9581 39.1201 31.8781L39.869 31.4561L40.052 31.345C40.379 31.178 40.6811 30.9551 41.0161 30.7801L41.382 30.565C41.446 30.525 41.5091 30.5011 41.5731 30.4651L44.0181 29.0471C44.5361 28.7761 45.018 28.447 45.523 28.179L46.2801 27.733C46.5351 27.582 46.78 27.446 47.037 27.287C47.172 27.207 47.284 27.1521 47.403 27.0721L47.803 26.8491V40.4751C47.7162 40.4984 47.635 40.5388 47.5641 40.5941L46.864 41.024C46.792 41.072 46.737 41.1121 46.649 41.1671C46.561 41.2221 46.4901 41.2671 46.4101 41.3181C46.3301 41.3691 46.275 41.406 46.187 41.453L45.4781 41.875C44.8411 42.241 44.2441 42.655 43.6071 43.022L41.744 44.177C41.656 44.233 41.6091 44.2571 41.5211 44.3121C40.6851 44.8771 39.7931 45.347 38.9491 45.897C38.7981 45.997 38.6381 46.0881 38.4871 46.1841L36.1541 47.6171C36.0821 47.6571 36.0031 47.7051 35.9311 47.7521C35.2381 48.2061 34.5131 48.596 33.8211 49.052L32.873 49.6331V52.9781C33.0704 52.8935 33.2573 52.7865 33.4301 52.6591C33.6211 52.5401 33.8041 52.444 33.9951 52.317C34.5291 51.959 35.1101 51.664 35.6431 51.306C35.7431 51.242 35.8261 51.1871 35.9221 51.1311L37.3321 50.263C37.4321 50.207 37.499 50.163 37.595 50.104L45.0951 45.485C45.1951 45.421 45.2861 45.3661 45.3741 45.3101L50.3831 42.2281C50.4752 42.1665 50.571 42.1107 50.67 42.0611V21.9351C50.5682 21.9631 50.4733 22.0118 50.3911 22.078C50.2911 22.134 50.2161 22.178 50.1201 22.229L48.4561 23.1931C47.8911 23.4931 47.3651 23.8701 46.7921 24.1571L42.3401 26.7211C42.1401 26.8321 41.9821 26.9361 41.7911 27.0471L40.9711 27.5251C40.3901 27.8201 39.5451 28.3251 39.0121 28.6561C38.9121 28.7201 38.8371 28.7441 38.7411 28.8071L36.9331 29.858C36.8837 29.8845 36.8359 29.9138 36.7901 29.946L36.2251 30.257C35.8911 30.432 35.596 30.6471 35.261 30.8221C35.181 30.8621 35.1811 30.878 35.1181 30.91L34.5531 31.2211C34.0157 31.5641 33.4603 31.8779 32.8891 32.1611L32.884 32.16Z" fill="white"/>
<path fill-rule="evenodd" clip-rule="evenodd" d="M14.4401 20.5651C14.5398 20.5982 14.6339 20.6465 14.7191 20.7081C15.0931 20.9081 15.4281 21.1461 15.8101 21.3371L18.8401 23.0901C20.2811 23.9661 21.7791 24.7461 23.2281 25.6221L23.4991 25.7731C23.5991 25.8291 23.6741 25.8731 23.7701 25.9241L25.4181 26.8801C25.4901 26.9201 25.4821 26.9201 25.5371 26.9521C26.3091 27.4221 27.1221 27.8201 27.8861 28.3061L30.3401 29.7171C30.4401 29.7731 30.5071 29.8171 30.6031 29.8761C31.0596 30.1704 31.5331 30.4375 32.0211 30.6761C32.4573 30.4823 32.8756 30.2504 33.2711 29.9831L33.7011 29.7281C33.8441 29.6401 33.9721 29.5851 34.1151 29.4971L34.5291 29.2581L35.3651 28.7641C35.5081 28.6761 35.6361 28.6131 35.7711 28.5251L37.0371 27.8081C37.1171 27.7681 37.1721 27.7281 37.2441 27.6891C37.311 27.646 37.3801 27.6063 37.4511 27.5701L38.2951 27.0841C38.4321 26.9843 38.5821 26.9039 38.7411 26.8451C38.7171 26.7451 38.7011 26.7571 38.6221 26.7101L35.9221 25.1571C34.8471 25.7221 33.8281 26.3831 32.7601 26.9651C32.6775 27.0107 32.5977 27.0612 32.5211 27.1161C32.3541 27.2161 32.2021 27.3071 32.0271 27.4031L30.4021 26.4631C29.8371 26.1761 29.3191 25.8021 28.7541 25.5071C28.6271 25.4351 28.4991 25.3561 28.3881 25.2921L25.0881 23.3921C25.0241 23.3521 24.9691 23.3201 24.9051 23.2811C24.8411 23.2421 24.7861 23.2171 24.7141 23.1811L20.4921 20.7411C20.4345 20.692 20.3659 20.6577 20.2921 20.6411C20.3801 20.5141 20.4831 20.5061 20.6261 20.4181C20.7451 20.3381 20.8571 20.2991 20.9841 20.2271L24.6551 18.2441C24.7062 18.2078 24.7592 18.1744 24.8141 18.1441C24.8801 18.1155 24.9439 18.0821 25.0051 18.0441C25.1321 17.9641 25.2601 17.9091 25.3871 17.8441L29.9661 15.3751C30.0461 15.3351 30.0661 15.3111 30.1491 15.2641L32.0131 14.2641C32.1131 14.2641 33.5261 15.0841 33.8531 15.2511C33.9331 15.2911 33.9881 15.3151 34.0681 15.3621C34.1414 15.4108 34.2187 15.4533 34.2991 15.4891L39.3641 18.2211C39.8101 18.5001 41.1641 19.2091 41.6421 19.4471C42.1841 19.7181 42.7011 20.0471 43.2421 20.3151L46.2521 21.9481C46.3521 22.0041 46.3871 22.0201 46.4831 22.0751C46.8411 22.2901 46.8491 22.1071 47.4311 21.7881L48.5061 21.1751C48.8561 20.9544 49.2176 20.7524 49.5891 20.5701C49.5571 20.4701 49.4621 20.4271 49.3661 20.3701L48.2751 19.7701C47.7261 19.4911 47.1751 19.1491 46.6271 18.8861L45.5401 18.3041C45.1661 18.1131 44.7911 17.9381 44.4401 17.7151L38.9401 14.7451C38.8463 14.7013 38.7557 14.6508 38.6691 14.5941L36.4521 13.3981C36.3521 13.3421 36.2851 13.2981 36.1811 13.2471C36.1251 13.2151 36.1011 13.2071 36.0541 13.1831L33.1471 11.6061C32.7823 11.3822 32.4016 11.1853 32.0081 11.0171C31.7216 11.1448 31.4425 11.2883 31.1721 11.4471L24.8721 14.8551C24.7767 14.898 24.6836 14.9457 24.5931 14.9981L20.1821 17.3801C20.0821 17.4361 20.0311 17.4801 19.9111 17.5311L19.5111 17.7461C19.4311 17.7861 19.4311 17.8021 19.3681 17.8341C19.2801 17.8901 19.1851 17.9141 19.0891 17.9771L18.2451 18.4311C18.1341 18.4871 18.0781 18.5311 17.9741 18.5821L16.6921 19.2821C16.6621 19.2939 16.6327 19.3072 16.6041 19.3221C16.4211 19.4221 16.2301 19.4971 16.0551 19.6171C15.9646 19.6695 15.8715 19.7172 15.7761 19.7601L14.5401 20.4461C14.4401 20.5021 14.4681 20.4541 14.4401 20.5651Z" fill="white"/>
</g>
<defs>
<clipPath id="clip0_40_30273">
<rect width="64" height="64.001" fill="white"/>
</clipPath>
</defs>
</svg>
