<svg width="64" height="64" viewBox="0 0 64 64" fill="none" xmlns="http://www.w3.org/2000/svg">
<g clip-path="url(#clip0_124_135)">
<path d="M32 0H64V64H32V0Z" fill="#F59C00"/>
<path d="M0 0H32V64H0V0Z" fill="#A71A17"/>
<path d="M32 53.7143C39.5772 53.7143 45.7143 45.7829 45.7143 36C45.7143 26.2171 39.5772 18.2857 32 18.2857C24.4229 18.2857 18.2857 26.2171 18.2857 36C18.2857 45.7829 24.4229 53.7143 32 53.7143ZM27.2686 9.14285L28.64 11.1543L31.04 10.5714L29.5314 12.4914L30.8229 14.56L28.5143 13.7371L26.9371 15.6L27.0057 13.1657L24.7429 12.2514L27.0971 11.5657L27.2686 9.14285ZM21.3486 14.6857L23.2343 13.1429L22.72 15.52L24.7772 16.8343L22.3429 17.0629L21.7143 19.4286L20.72 17.2L18.2743 17.3371L20.1029 15.7257L19.2114 13.4514L21.3371 14.6857H21.3486ZM39.2571 12.2514L36.9029 11.5657L36.7314 9.14285L35.36 11.1543L32.96 10.5714L34.4686 12.4914L33.1772 14.56L35.4857 13.7371L37.0629 15.6L36.9829 13.1657L39.2686 12.2514H39.2571ZM44.7772 13.4514L43.8857 15.7257L45.7143 17.3371L43.2686 17.2L42.2743 19.4286L41.6572 17.0743L39.2229 16.8343L41.28 15.52L40.7543 13.1429L42.6514 14.6857L44.7772 13.4514Z" fill="white"/>
<path d="M36.0114 33.5771L30.5029 29.6114C30.1376 29.3574 29.8438 29.0138 29.6497 28.6135C29.4555 28.2133 29.3676 27.7698 29.3943 27.3257C29.4226 26.8809 29.5659 26.4512 29.8104 26.0785C30.0548 25.7058 30.3919 25.4031 30.7886 25.2C31.3902 24.8895 32.0885 24.8232 32.7378 25.0148C33.3872 25.2064 33.9376 25.6412 34.2743 26.2286C34.4914 26.6171 34.6057 26.9828 34.6057 27.4286H36.6857C36.6629 26.2331 36.1817 25.0921 35.3415 24.2413C34.5014 23.3905 33.3665 22.895 32.1714 22.8571C31.3726 22.831 30.5803 23.0082 29.8687 23.372C29.1571 23.7358 28.5495 24.2743 28.1029 24.9371C27.4369 25.9393 27.1885 27.1618 27.4105 28.3444C27.6325 29.527 28.3074 30.5762 29.2914 31.2686L34.9372 35.04C35.5543 35.52 36.0572 36.1486 36.3772 36.8686H38.4C37.9649 35.55 37.1301 34.3996 36.0114 33.5771ZM32 43.7943C31.0366 43.7942 30.0944 43.5115 29.29 42.9813C28.4856 42.4512 27.8543 41.6967 27.4743 40.8114C27.211 40.1892 27.082 39.5184 27.0958 38.8429C27.1096 38.1674 27.2658 37.5024 27.5543 36.8914H25.5429C25.0875 38.2809 25.1027 39.7818 25.5861 41.1618C26.0695 42.5418 26.9942 43.7241 28.2172 44.5257C29.0287 45.0638 29.9463 45.4214 30.908 45.5743C31.8696 45.7271 32.8529 45.6716 33.7913 45.4115C34.7297 45.1515 35.6012 44.6929 36.3471 44.0669C37.0929 43.4409 37.6955 42.6619 38.1143 41.7829C38.5257 40.8914 38.7314 39.8286 38.7314 38.8571H36.9029C36.8914 40.1371 36.3657 41.4857 35.4514 42.4C34.5265 43.2952 33.2872 43.7917 32 43.7829V43.7943Z" fill="#F59C00"/>
<path d="M40.8571 36.5714H36.3771V38.8571H39.0057C39.0136 39.8546 38.8081 40.8422 38.4029 41.7538C37.9977 42.6653 37.4023 43.4796 36.6565 44.142C35.9107 44.8044 35.0318 45.2997 34.0789 45.5945C33.126 45.8894 32.121 45.9769 31.1314 45.8514C29.8233 45.6868 28.5877 45.1582 27.5653 44.3257C26.5429 43.4933 25.7749 42.3904 25.3485 41.1428C24.931 39.8955 24.8792 38.5548 25.1992 37.2789C25.5191 36.0031 26.1975 34.8455 27.1543 33.9428C28.1116 33.0278 29.3081 32.4018 30.6057 32.1371L29.3028 31.2686C29.0057 31.0628 28.7314 30.8343 28.5028 30.5714C26.9036 31.2347 25.5259 32.3389 24.5303 33.7553C23.5348 35.1718 22.9624 36.8421 22.88 38.5714C22.8044 40.306 23.2326 42.0254 24.1127 43.522C24.9929 45.0187 26.2874 46.2286 27.84 47.0057C29.0002 47.5915 30.2712 47.9251 31.5696 47.9847C32.8679 48.0443 34.1641 47.8284 35.3731 47.3513C36.5821 46.8742 37.6764 46.1466 38.5841 45.2164C39.4919 44.2863 40.1925 43.1745 40.64 41.9543C41.2114 40.3314 41.3257 38.2628 40.8685 36.5714H40.8571ZM36.96 34.0571L38.48 32.5371L38.4685 32.5257C37.4906 31.5634 36.3097 30.832 35.0125 30.3851C33.7153 29.9382 32.3346 29.7871 30.9714 29.9428L34.4 32.4114C35.3714 32.7657 36.24 33.3257 36.96 34.0571Z" fill="#A71A17"/>
<path d="M29.6 38.8571H29.0972V37.28H28.4572V36.9714C28.5714 36.9714 28.6857 36.9714 28.7772 36.9486C28.866 36.9343 28.9513 36.9033 29.0286 36.8571C29.0972 36.8229 29.1429 36.7771 29.1886 36.7314C29.2275 36.6865 29.2515 36.6306 29.2572 36.5714H29.6V38.8571ZM30.8457 36.9486C30.8 36.9486 30.7543 36.9486 30.7086 36.9714C30.6661 36.986 30.6272 37.0094 30.5943 37.04C30.545 37.0844 30.506 37.139 30.48 37.2C30.4434 37.3035 30.4434 37.4165 30.48 37.52L30.5943 37.6686L30.72 37.7257C30.7657 37.7371 30.8114 37.7486 30.8572 37.7371L30.9943 37.7257C31.0458 37.7082 31.0929 37.6797 31.1324 37.6422C31.1718 37.6047 31.2027 37.5591 31.2229 37.5086C31.2651 37.3982 31.2651 37.2761 31.2229 37.1657C31.2015 37.1147 31.1657 37.0711 31.12 37.04C31.087 37.0096 31.0481 36.9863 31.0057 36.9714C30.954 36.9552 30.8999 36.9475 30.8457 36.9486ZM30.5372 38.2971V38.3771L30.6057 38.4571L30.6857 38.5143L30.8 38.5371H30.8457C30.9143 38.5371 30.9829 38.5257 31.04 38.4914C31.1086 38.4457 31.1543 38.4 31.1772 38.3429C31.224 38.2423 31.2512 38.1337 31.2572 38.0229C31.2572 37.9886 31.2572 37.9543 31.2343 37.9086C31.1886 37.9771 31.12 38.0229 31.04 38.0571C30.9916 38.0729 30.9419 38.0843 30.8914 38.0914H30.6972L30.5486 38.0686C30.4623 38.0515 30.3805 38.0164 30.3086 37.9657C30.213 37.9068 30.1342 37.8241 30.08 37.7257C30.0239 37.6081 29.9964 37.4788 30 37.3486C30 37.2114 30.0343 37.0629 30.1143 36.9371C30.2034 36.8029 30.33 36.6978 30.4783 36.6348C30.6266 36.5718 30.7901 36.5537 30.9486 36.5829C31.0629 36.5829 31.2 36.6286 31.3029 36.6971L31.4857 36.8229L31.5886 36.9943C31.6764 37.1964 31.723 37.414 31.7257 37.6343C31.7257 37.8057 31.7029 37.9657 31.6572 38.1257C31.6343 38.2629 31.5772 38.4 31.4972 38.5371C31.4278 38.6552 31.3182 38.7445 31.1886 38.7886C30.9566 38.8697 30.7053 38.8777 30.4686 38.8114C30.3754 38.7799 30.2897 38.7293 30.2172 38.6629C30.1632 38.6156 30.1203 38.5571 30.0914 38.4914C30.0613 38.4311 30.0457 38.3646 30.0457 38.2971H30.5372ZM33.04 38.32C33.0972 38.1257 33.1314 37.92 33.1086 37.7143C33.1314 37.5314 33.1086 37.3371 33.0629 37.1543C33.0377 37.0891 32.9887 37.036 32.9257 37.0057C32.8679 36.9812 32.8057 36.9686 32.7429 36.9686C32.68 36.9686 32.6179 36.9812 32.56 37.0057C32.5014 37.0382 32.4566 37.0911 32.4343 37.1543C32.3886 37.3371 32.3657 37.5314 32.3772 37.7257C32.3772 37.9086 32.3772 38.0914 32.4343 38.2743C32.4572 38.3429 32.5029 38.3886 32.56 38.4343C32.6774 38.4813 32.8084 38.4813 32.9257 38.4343C32.9765 38.4114 33.0171 38.3707 33.04 38.32ZM32.1486 38.6514C32.046 38.543 31.9749 38.4086 31.9429 38.2629C31.8579 37.9059 31.8579 37.5341 31.9429 37.1771C31.9676 37.0369 32.0309 36.9063 32.1257 36.8C32.2016 36.7211 32.2958 36.6622 32.4 36.6286C32.6286 36.5486 32.8686 36.5486 33.0857 36.6286C33.2 36.6629 33.3029 36.72 33.3714 36.8C33.4629 36.9143 33.52 37.04 33.5429 37.1771C33.6221 37.5309 33.6221 37.8977 33.5429 38.2514C33.5193 38.3899 33.4603 38.5198 33.3714 38.6286C33.2953 38.7071 33.2011 38.766 33.0972 38.8C32.8746 38.8741 32.634 38.8741 32.4114 38.8C32.3129 38.773 32.2225 38.722 32.1486 38.6514ZM34.2514 38.2171C34.2514 38.2857 34.2743 38.3543 34.32 38.4114L34.4572 38.48L34.6172 38.4914C34.6743 38.4914 34.7314 38.4914 34.7772 38.4686C34.8223 38.4481 34.8616 38.4167 34.8914 38.3771C34.9557 38.2875 34.9879 38.1788 34.9829 38.0686C34.9904 37.9721 34.9663 37.8759 34.9143 37.7943C34.8755 37.7439 34.8243 37.7045 34.7657 37.68C34.7154 37.6573 34.6609 37.6457 34.6057 37.6457H34.56C34.5029 37.6457 34.4457 37.6686 34.4 37.6914C34.3504 37.7159 34.3102 37.7561 34.2857 37.8057H33.84L34.0686 36.5714H35.3829V36.96H34.3657L34.2857 37.4171C34.3568 37.3724 34.4337 37.3378 34.5143 37.3143C34.5482 37.3074 34.5826 37.3035 34.6172 37.3029H34.8229C34.9143 37.3029 34.9943 37.3371 35.0629 37.36C35.2 37.4057 35.2914 37.4971 35.36 37.6114C35.4408 37.744 35.4835 37.8962 35.4835 38.0514C35.4835 38.2066 35.4408 38.3589 35.36 38.4914C35.2882 38.6045 35.1902 38.6985 35.0743 38.7657C34.9327 38.8362 34.7749 38.8678 34.6172 38.8571C34.4974 38.8606 34.3778 38.8451 34.2629 38.8114C34.1804 38.7771 34.1034 38.7309 34.0343 38.6743C33.9567 38.6238 33.8905 38.5576 33.84 38.48C33.7945 38.3958 33.771 38.3014 33.7714 38.2057H34.2514" fill="#201D1A"/>
</g>
<defs>
<clipPath id="clip0_124_135">
<rect width="64" height="64" rx="32" fill="white"/>
</clipPath>
</defs>
</svg>
