<svg width="64" height="64" viewBox="0 0 64 64" fill="none" xmlns="http://www.w3.org/2000/svg">
<g clip-path="url(#clip0_6_11)">
<path d="M32 64C49.6731 64 64 49.6731 64 32C64 14.3269 49.6731 0 32 0C14.3269 0 0 14.3269 0 32C0 49.6731 14.3269 64 32 64Z" fill="#1C325B"/>
<path d="M15.8375 48.1125V52.9375H20.7V51.6625H18.8375V49.8125H22.575V53.0375C22.575 54.0125 21.775 54.7875 20.8 54.7875H15.75C14.775 54.7875 13.9875 54.0125 13.9875 53.0375V48.0125C13.9875 47.0375 14.775 46.2625 15.75 46.2625H20.8C21.775 46.2625 22.575 47.1375 22.575 48.1125H15.8375Z" fill="white"/>
<path d="M31.7 50.2V48.1125H26.8375V50.2H31.7ZM31.7875 46.2625C32.7625 46.2625 33.5625 47.0375 33.5625 48.0125V54.7875H31.6875V52.0375H26.825V54.7875H24.975V48.0125C24.975 47.0375 25.7625 46.2625 26.7375 46.2625H31.7875Z" fill="white"/>
<path d="M43.7125 46.2625H45.6375V54.7875H43.775V49.075C42.8125 50.2125 41.775 51.4625 40.8125 52.575L37.8375 49.0875V54.8H36V46.275H37.9125L40.825 49.725L43.7125 46.2625Z" fill="white"/>
<path d="M50.0125 46.2625H48.15V54.7875H50.0125V46.2625Z" fill="white"/>
<path d="M38 33.275V37.475C38 37.9 37.65 38.25 37.2125 38.25H26.9625C26.525 38.25 26.175 37.9 26.175 37.475V33.275C26.175 32.85 25.825 32.5 25.3875 32.5H21.1625C20.725 32.5 20.375 32.15 20.375 31.725V15.7375C20.375 15.3125 20.725 14.9625 21.1625 14.9625H25.3875C25.825 14.9625 26.175 14.6125 26.175 14.1875V9.98752C26.175 9.56252 26.525 9.21252 26.9625 9.21252H37.2125C37.65 9.21252 38 9.56252 38 9.98752V14.5375C38 14.9625 37.65 15.3125 37.2125 15.3125H27.25C26.8125 15.3125 26.4625 15.6625 26.4625 16.0875V31.375C26.4625 31.8 26.8125 32.15 27.25 32.15H36.9125C37.35 32.15 37.7 31.8 37.7 31.375V27.525C37.7 27.1 37.35 26.75 36.9125 26.75H32.6875C32.25 26.75 31.9 26.4 31.9 25.975V21.4875C31.9 21.0625 32.25 20.7125 32.6875 20.7125H43C43.4375 20.7125 43.7875 21.0625 43.7875 21.4875V31.725C43.7875 32.15 43.4375 32.5 43 32.5H38.775C38.35 32.5 38 32.85 38 33.275Z" fill="white"/>
</g>
<defs>
<clipPath id="clip0_6_11">
<rect width="64" height="64" fill="white"/>
</clipPath>
</defs>
</svg>
