<svg width="64" height="64" viewBox="0 0 64 64" fill="none" xmlns="http://www.w3.org/2000/svg">
<g clip-path="url(#clip0_40_30280)">
<mask id="mask0_40_30280" style="mask-type:luminance" maskUnits="userSpaceOnUse" x="0" y="0" width="64" height="64">
<path d="M64 0H0V64H64V0Z" fill="white"/>
</mask>
<g mask="url(#mask0_40_30280)">
<path d="M32 64C49.6731 64 64 49.6731 64 32C64 14.3269 49.6731 0 32 0C14.3269 0 0 14.3269 0 32C0 49.6731 14.3269 64 32 64Z" fill="#1C325B"/>
<path d="M15.8375 48.1124V52.9375H20.7V51.6624H18.8375V49.8125H22.575V53.0374C22.575 54.0124 21.775 54.7874 20.8 54.7874H15.75C14.775 54.7874 13.9875 54.0124 13.9875 53.0374V48.0125C13.9875 47.0375 14.775 46.2625 15.75 46.2625H20.8C21.775 46.2625 22.575 47.1374 22.575 48.1124H15.8375Z" fill="white"/>
<path d="M31.7 50.2V48.1124H26.8375V50.2H31.7ZM31.7875 46.2625C32.7625 46.2625 33.5625 47.0375 33.5625 48.0125V54.7874H31.6875V52.0374H26.825V54.7874H24.975V48.0125C24.975 47.0375 25.7625 46.2625 26.7375 46.2625H31.7875Z" fill="white"/>
<path d="M43.7125 46.2625H45.6375V54.7874H43.775V49.075C42.8125 50.2125 41.775 51.4625 40.8125 52.575L37.8375 49.0875V54.7999H36V46.275H37.9125L40.825 49.7249L43.7125 46.2625Z" fill="white"/>
<path d="M50.0125 46.2625H48.15V54.7874H50.0125V46.2625Z" fill="white"/>
<path d="M38 33.2749V37.4749C38 37.8999 37.65 38.2499 37.2125 38.2499H26.9625C26.525 38.2499 26.175 37.8999 26.175 37.4749V33.2749C26.175 32.8499 25.825 32.4999 25.3875 32.4999H21.1625C20.725 32.4999 20.375 32.1499 20.375 31.7249V15.7374C20.375 15.3124 20.725 14.9624 21.1625 14.9624H25.3875C25.825 14.9624 26.175 14.6124 26.175 14.1874V9.9874C26.175 9.5624 26.525 9.2124 26.9625 9.2124H37.2125C37.65 9.2124 38 9.5624 38 9.9874V14.5374C38 14.9624 37.65 15.3124 37.2125 15.3124H27.25C26.8125 15.3124 26.4625 15.6624 26.4625 16.0874V31.3749C26.4625 31.7999 26.8125 32.1499 27.25 32.1499H36.9125C37.35 32.1499 37.7 31.7999 37.7 31.3749V27.5249C37.7 27.0999 37.35 26.7499 36.9125 26.7499H32.6875C32.25 26.7499 31.9 26.3999 31.9 25.9749V21.4874C31.9 21.0624 32.25 20.7124 32.6875 20.7124H43C43.4375 20.7124 43.7875 21.0624 43.7875 21.4874V31.7249C43.7875 32.1499 43.4375 32.4999 43 32.4999H38.775C38.35 32.4999 38 32.8499 38 33.2749Z" fill="white"/>
</g>
</g>
<defs>
<clipPath id="clip0_40_30280">
<rect width="64" height="64" fill="white"/>
</clipPath>
</defs>
</svg>
