<svg width="64" height="64" viewBox="0 0 64 64" fill="none" xmlns="http://www.w3.org/2000/svg">
<g clip-path="url(#clip0_40_30291)">
<path d="M31.989 0.0040444C39.4146 -0.0177392 46.6179 2.53721 52.3702 7.23312C58.1224 11.929 62.0675 18.4751 63.5326 25.7548C64.9976 33.0345 63.8918 40.597 60.4038 47.1525C56.9159 53.708 51.2617 58.8504 44.4057 61.7028C37.5497 64.5552 29.9166 64.9408 22.808 62.7938C15.6995 60.6469 9.55592 56.1004 5.42507 49.9298C1.29422 43.7592 -0.56803 36.3466 0.155927 28.9563C0.879884 21.566 4.14521 14.6557 9.39499 9.40405C12.357 6.42718 15.8775 4.06442 19.7548 2.45134C23.632 0.838257 27.7896 0.00658198 31.989 0.0040444Z" fill="#161615"/>
<path d="M54.319 9.68312C59.4501 14.8436 62.6345 21.6228 63.3301 28.8668C64.0256 36.1108 62.1895 43.3721 58.134 49.4147C54.0785 55.4573 48.0544 59.9078 41.087 62.0089C34.1195 64.1099 26.6393 63.7316 19.9194 60.9383C13.1995 58.145 7.65514 53.1093 4.23005 46.6884C0.80496 40.2674 -0.289244 32.858 1.13367 25.7211C2.55658 18.5842 6.40868 12.161 12.0344 7.54451C17.66 2.92806 24.7116 0.403722 31.989 0.401127C36.1393 0.398989 40.249 1.21801 44.0814 2.81104C47.9137 4.40407 51.3931 6.73961 54.319 9.68312Z" fill="white"/>
<path d="M16.086 16.0891C12.4212 19.7698 10.1456 24.607 9.64671 29.7771C9.14782 34.9471 10.4565 40.1302 13.3498 44.4438C16.2432 48.7573 20.5423 51.9346 25.5151 53.4344C30.4879 54.9343 35.8268 54.664 40.6227 52.6696C45.4186 50.6752 49.3749 47.0801 51.8179 42.4964C54.2608 37.9127 55.0394 32.6239 54.0209 27.5307C53.0025 22.4375 50.25 17.8548 46.2323 14.563C42.2146 11.2712 37.18 9.47383 31.986 9.47706C29.0311 9.47938 26.1057 10.0646 23.3773 11.1992C20.6489 12.3338 18.1712 13.9955 16.086 16.0891Z" fill="#CC9554"/>
<path d="M24.0029 11.3792C19.2062 13.2432 15.212 16.7253 12.7113 21.2231C10.2107 25.7209 9.36097 30.9513 10.3092 36.0093C11.2575 41.0674 13.944 45.6349 17.904 48.9215C21.864 52.2081 26.8483 54.007 31.9944 54.007C37.1406 54.007 42.1249 52.2081 46.0849 48.9215C50.0449 45.6349 52.7314 41.0674 53.6797 36.0093C54.6279 30.9513 53.7782 25.7209 51.2776 21.2231C48.7769 16.7253 44.7827 13.2432 39.9859 11.3792C41.6796 12.2345 43.2274 13.3524 44.5719 14.6912C47.2211 17.3469 48.961 20.7735 49.5419 24.4793C50.1229 28.1852 49.5151 31.9798 47.8057 35.3188C46.0964 38.6579 43.3733 41.3696 40.0272 43.065C36.6811 44.7605 32.8839 45.3525 29.1805 44.7561C25.4771 44.1597 22.0578 42.4055 19.4131 39.7453C16.7685 37.0851 15.0344 33.6556 14.4597 29.9487C13.885 26.2419 14.4993 22.4483 16.2143 19.1122C17.9293 15.7761 20.657 13.0689 24.0059 11.3792H24.0029Z" fill="#D5000C"/>
<path d="M31.9889 9.87794C27.9606 9.87399 24.0556 11.2672 20.9394 13.82C17.8233 16.3729 15.6888 19.9274 14.9 23.8777C14.1111 27.828 14.7166 31.9297 16.6133 35.4836C18.5099 39.0375 21.5803 41.8236 25.3012 43.3672C29.0221 44.9107 33.1631 45.1162 37.0185 43.9484C40.8738 42.7807 44.2049 40.312 46.444 36.9633C48.683 33.6145 49.6915 29.5929 49.2974 25.5839C48.9033 21.5749 47.1312 17.8266 44.283 14.9779C42.67 13.3609 40.7538 12.078 38.6442 11.2028C36.5345 10.3277 34.2729 9.87745 31.9889 9.87794Z" fill="#161615"/>
<path d="M31.117 15.791H28.277L30.568 17.476L29.697 20.169L31.977 18.508L34.303 20.208L33.421 17.481L35.721 15.796H32.868L31.997 13.115L31.117 15.791Z" fill="#CC9554"/>
<path d="M27.402 51.5271H26.761V47.4631H26.001V46.9221H27.401L27.402 51.5271Z" fill="#161615"/>
<path d="M30.645 48.504C30.6513 48.2355 30.551 47.9755 30.366 47.7809C30.2814 47.6857 30.1774 47.6097 30.061 47.558C29.9445 47.5062 29.8184 47.48 29.691 47.4809C29.5621 47.4749 29.4333 47.4956 29.3128 47.5419C29.1923 47.5882 29.0827 47.6591 28.991 47.7499C28.9016 47.8455 28.8323 47.958 28.7871 48.0808C28.7419 48.2036 28.7219 48.3342 28.728 48.465C28.7234 48.5934 28.7445 48.7215 28.79 48.8417C28.8355 48.9619 28.9045 49.0718 28.993 49.165C29.0805 49.2554 29.1859 49.3265 29.3025 49.3737C29.4191 49.4209 29.5443 49.4431 29.67 49.439C29.7978 49.4418 29.9248 49.419 30.0435 49.3718C30.1622 49.3245 30.2702 49.2538 30.361 49.1639C30.4512 49.0793 30.5229 48.9771 30.5718 48.8635C30.6206 48.75 30.6456 48.6276 30.645 48.504ZM29.58 51.527H28.832L29.878 49.964C29.8177 49.9898 29.7551 50.0099 29.691 50.024C29.6358 50.0362 29.5795 50.0426 29.523 50.043C29.3291 50.0454 29.137 50.0061 28.9597 49.9277C28.7823 49.8494 28.6239 49.7339 28.495 49.589C28.2155 49.2941 28.0632 48.9012 28.071 48.495C28.0714 48.3483 28.0915 48.2023 28.131 48.061C28.1729 47.9104 28.2333 47.7656 28.311 47.6299C28.4414 47.3814 28.638 47.1737 28.879 47.03C29.1218 46.889 29.3983 46.8168 29.679 46.821C29.8886 46.8195 30.0963 46.8599 30.29 46.9399C30.4818 47.0207 30.655 47.1398 30.799 47.29C30.9463 47.4402 31.065 47.6161 31.149 47.809C31.2304 47.9922 31.273 48.1904 31.274 48.391C31.2021 48.9705 30.9724 49.5191 30.61 49.977L30.594 50.0019L29.58 51.521" fill="#161615"/>
<path d="M34.617 51.527H31.702V50.884L33.314 49.337L33.339 49.3119C33.6704 49.0632 33.8972 48.6999 33.975 48.293C33.9775 48.1829 33.9576 48.0735 33.9164 47.9714C33.8753 47.8693 33.8138 47.7767 33.7356 47.6991C33.6575 47.6215 33.5644 47.5607 33.462 47.5203C33.3596 47.4798 33.2501 47.4607 33.14 47.464C33.0281 47.4572 32.9162 47.4757 32.8123 47.5179C32.7085 47.5601 32.6154 47.625 32.54 47.7079C32.3884 47.9002 32.3126 48.1415 32.327 48.386V48.4369H31.698V48.4239C31.6778 48.0005 31.8255 47.5862 32.109 47.271C32.2489 47.1257 32.4181 47.0118 32.6053 46.9368C32.7925 46.8618 32.9935 46.8275 33.195 46.836C33.3835 46.8349 33.5704 46.8712 33.7448 46.9429C33.9192 47.0145 34.0776 47.12 34.211 47.2533C34.3444 47.3866 34.45 47.5449 34.5217 47.7192C34.5935 47.8936 34.6299 48.0804 34.629 48.269C34.6296 48.4906 34.5757 48.709 34.472 48.905C34.3372 49.1429 34.1638 49.3568 33.959 49.538L32.527 50.886H34.614L34.617 51.527Z" fill="#161615"/>
<path d="M34.986 50.116H35.607C35.6078 50.3524 35.697 50.58 35.857 50.754C35.9316 50.834 36.0223 50.8973 36.1231 50.9398C36.224 50.9822 36.3326 51.0027 36.442 51C36.5599 51.0031 36.6772 50.9818 36.7865 50.9374C36.8958 50.893 36.9947 50.8265 37.077 50.742C37.1605 50.6582 37.2261 50.5585 37.2699 50.4487C37.3138 50.3388 37.3349 50.2212 37.332 50.103C37.3392 49.98 37.3194 49.8568 37.2742 49.7422C37.2289 49.6275 37.1593 49.524 37.07 49.439C36.8615 49.2699 36.5969 49.1856 36.329 49.203H36.229H36.169V48.583H36.221H36.305C36.4943 48.5966 36.6826 48.5455 36.839 48.438C36.9007 48.3845 36.9491 48.3173 36.9804 48.2418C37.0116 48.1663 37.0249 48.0846 37.019 48.003C37.0238 47.853 36.9692 47.7071 36.867 47.597C36.8189 47.5448 36.7602 47.5035 36.6949 47.4757C36.6295 47.4479 36.559 47.4344 36.488 47.436C36.4148 47.4327 36.3416 47.4442 36.2728 47.4698C36.2041 47.4954 36.1413 47.5346 36.088 47.585C35.9834 47.6973 35.9257 47.8455 35.927 47.999H35.32C35.3171 47.679 35.4412 47.3708 35.665 47.142C35.7776 47.0344 35.9107 46.9507 36.0564 46.8957C36.2021 46.8407 36.3574 46.8156 36.513 46.822C36.6632 46.8228 36.8119 46.8532 36.9504 46.9114C37.0889 46.9696 37.2145 47.0545 37.3202 47.1613C37.4259 47.2681 37.5095 47.3946 37.5662 47.5337C37.623 47.6728 37.6518 47.8218 37.651 47.972C37.6552 48.1433 37.6181 48.3131 37.543 48.467C37.4625 48.6161 37.346 48.7426 37.204 48.835C37.4402 48.9227 37.6407 49.0863 37.774 49.3C37.9117 49.5313 37.9811 49.7969 37.974 50.066C37.9792 50.2699 37.944 50.4728 37.8704 50.663C37.7967 50.8531 37.6862 51.0268 37.545 51.174C37.4098 51.3194 37.2454 51.4346 37.0625 51.512C36.8797 51.5894 36.6825 51.6272 36.484 51.623C36.2855 51.6337 36.0868 51.6037 35.9002 51.535C35.7137 51.4662 35.5431 51.36 35.399 51.223C35.1206 50.923 34.9721 50.5251 34.986 50.116Z" fill="#161615"/>
<path d="M30.707 55.5959L31.107 55.636C31.0655 55.8715 30.941 56.0844 30.756 56.236C30.5518 56.3588 30.3134 56.4125 30.0763 56.3889C29.8392 56.3653 29.616 56.2657 29.44 56.105C29.359 56.017 29.2967 55.9135 29.2568 55.8008C29.2169 55.688 29.2003 55.5683 29.208 55.449L29.608 55.488C29.6089 55.6156 29.6562 55.7386 29.741 55.834C29.8375 55.9233 29.9636 55.9738 30.095 55.976C30.2316 56.007 30.3749 55.9841 30.495 55.912C30.6038 55.8379 30.6798 55.7247 30.707 55.5959Z" fill="#161615"/>
<path d="M2.34094 35.885L2.65394 37.542L2.15394 37.642L1.84094 35.974L2.34094 35.885Z" fill="#161615"/>
<path d="M52.451 13.7171L53.757 15.1042L51.89 14.7491L50.973 16.3991L50.744 14.5312L48.865 14.1642L50.595 13.3641L50.366 11.4731L51.661 12.8601L53.368 12.0692L52.451 13.7171Z" fill="#161615"/>
<path d="M11.538 13.7171L10.243 15.1042L12.11 14.7491L13.027 16.3991L13.256 14.5312L15.135 14.1642L13.405 13.3641L13.634 11.4731L12.339 12.8601L10.632 12.0692L11.538 13.7171Z" fill="#161615"/>
<path d="M4.60705 20.5971C4.7139 20.313 4.88256 20.0563 5.10082 19.8455C5.31909 19.6346 5.58149 19.475 5.86905 19.378C6.50874 19.2102 7.18597 19.2584 7.79543 19.5152C8.40488 19.772 8.9124 20.223 9.23905 20.798C9.37151 21.0768 9.44115 21.3812 9.44305 21.6898C9.44495 21.9984 9.37907 22.3037 9.25005 22.5841C9.07373 23.0376 8.74772 23.4172 8.32605 23.66C8.13328 23.7744 7.91959 23.8491 7.69753 23.8796C7.47548 23.9102 7.24956 23.8961 7.03305 23.838L7.27505 23.258C7.42004 23.2927 7.57052 23.298 7.71757 23.2734C7.86461 23.2488 8.00522 23.195 8.13105 23.115C8.41104 22.9214 8.62415 22.6457 8.74105 22.326C8.83025 22.1268 8.87087 21.9092 8.85957 21.6912C8.84827 21.4732 8.78537 21.261 8.67605 21.072C8.39098 20.6498 7.98955 20.3194 7.52043 20.1208C7.0513 19.9221 6.53463 19.8639 6.03305 19.953C5.82008 20.0197 5.62553 20.135 5.46481 20.2898C5.30409 20.4446 5.1816 20.6347 5.10705 20.845C5.00047 21.0869 4.95853 21.3523 4.98536 21.6153C5.01218 21.8782 5.10683 22.1297 5.26005 22.345C5.33813 22.4448 5.43124 22.5318 5.53605 22.603C5.65364 22.6894 5.78082 22.7619 5.91505 22.819L5.96906 22.842L6.54605 21.4591L7.05205 21.6701L6.24505 23.604L3.90405 22.6271L4.05905 22.254L4.67505 22.342L4.65005 22.293C4.5146 22.0322 4.44033 21.7438 4.43288 21.45C4.42543 21.1561 4.48499 20.8645 4.60705 20.5971Z" fill="#161615"/>
<path d="M3.43598 24.2632L8.11898 25.2582L7.39098 28.6832L7.11198 28.6242L6.83298 28.5652L7.42498 25.7762L5.98798 25.4712L5.45198 28.0172L5.17298 27.9582L4.89398 27.8992L5.43498 25.3542L3.86198 25.0202L3.26198 27.8442L2.98298 27.7852L2.70398 27.7262L3.43598 24.2632Z" fill="#161615"/>
<path d="M2.50694 29.803L2.51694 29.489L2.52694 29.175L7.31194 29.3221L7.29994 29.711L7.28794 30.103L3.32594 32.373L7.21394 32.493L7.20394 32.807L7.19394 33.121L2.40894 32.974L2.41994 32.618L2.43094 32.262L6.40894 29.924L2.50694 29.803Z" fill="#161615"/>
<path d="M4.86202 38.337C4.33055 38.3663 3.80629 38.2033 3.38502 37.878C2.98858 37.5484 2.73403 37.079 2.67402 36.567C2.61647 36.2752 2.62561 35.9741 2.70076 35.6863C2.77592 35.3985 2.91514 35.1314 3.10802 34.905C3.55959 34.4167 4.17422 34.1104 4.83602 34.044C5.49183 33.9076 6.17493 34.0225 6.75002 34.366C7.19142 34.6863 7.50551 35.1522 7.63688 35.6815C7.76825 36.2108 7.70844 36.7695 7.46802 37.259C7.23966 37.6497 6.86623 37.9343 6.42902 38.051L6.32902 37.43C6.61128 37.34 6.84755 37.1438 6.98802 36.883C7.12762 36.5949 7.1694 36.269 7.10702 35.955C7.0813 35.7372 7.00449 35.5286 6.88284 35.3461C6.76119 35.1636 6.59816 35.0125 6.40702 34.905C5.95283 34.67 5.43136 34.5994 4.93102 34.705C4.41702 34.749 3.93275 34.9646 3.55602 35.317C3.41108 35.4789 3.3066 35.673 3.25115 35.8831C3.19569 36.0933 3.19085 36.3136 3.23702 36.526C3.27829 36.8647 3.45104 37.1735 3.71802 37.386C4.02034 37.6057 4.38529 37.7225 4.75902 37.719L4.86202 38.337Z" fill="#161615"/>
<path d="M3.49805 39.901L8.04605 38.406L8.14605 38.713L8.24604 39.024L4.24205 40.339L4.99705 42.639L4.72605 42.728L4.45505 42.817L3.49805 39.901Z" fill="#161615"/>
<path d="M4.94604 43.97L9.20405 41.782L10.804 44.896L10.55 45.026L10.2961 45.156L8.99605 42.62L7.68905 43.292L8.87804 45.607L8.62405 45.737L8.37005 45.867L7.18105 43.552L5.75105 44.287L7.07005 46.855L6.81605 46.985L6.56205 47.115L4.94604 43.97Z" fill="#161615"/>
<path d="M9.86603 47.3381L10.834 48.6102C10.9613 48.8093 11.1598 48.9523 11.389 49.0101C11.5019 49.0191 11.6155 49.0048 11.7226 48.9682C11.8298 48.9316 11.9283 48.8733 12.012 48.7971C12.1062 48.7376 12.1863 48.6583 12.2467 48.5647C12.3071 48.4711 12.3465 48.3654 12.362 48.2551C12.3536 48.0099 12.2582 47.7756 12.093 47.5941L11.155 46.3602L9.86603 47.3381ZM11.194 45.5101L11.389 45.7661L12.541 47.2802C12.814 47.5913 12.969 47.9884 12.979 48.4022C12.9646 48.5828 12.9092 48.7577 12.8171 48.9136C12.7249 49.0696 12.5983 49.2025 12.447 49.3021C12.3059 49.4215 12.1396 49.5076 11.9605 49.5538C11.7815 49.6001 11.5944 49.6053 11.413 49.5692C11.3239 49.5493 11.2369 49.5212 11.153 49.4852L11.177 49.6021C11.1959 49.7699 11.1687 49.9398 11.0982 50.0933C11.0277 50.2467 10.9166 50.3781 10.777 50.4731L10.097 51.0231C10.0107 51.0849 9.93821 51.1639 9.88403 51.2551C9.85261 51.3344 9.84736 51.4217 9.86903 51.5042L9.78802 51.5662L9.30602 50.9321C9.36795 50.8488 9.43907 50.7726 9.51803 50.7051C9.63869 50.5918 9.77669 50.4705 9.93202 50.3411L10.224 50.1011C10.3203 50.0373 10.4031 49.9551 10.4674 49.8591C10.5318 49.7632 10.5765 49.6554 10.599 49.5421C10.5979 49.3017 10.5073 49.0704 10.345 48.8931L9.41902 47.6752L7.77902 48.9232L7.57903 48.6652L7.37903 48.4052L11.189 45.5051" fill="#161615"/>
<path d="M13.074 50.9781L13.924 51.7611C14.1095 51.9615 14.3552 52.096 14.624 52.1442C14.7365 52.1477 14.8483 52.1245 14.9502 52.0765C15.052 52.0286 15.1411 51.9572 15.21 51.8682C15.2833 51.8006 15.3389 51.7162 15.3722 51.6223C15.4055 51.5283 15.4154 51.4278 15.401 51.3292C15.3314 51.0918 15.1895 50.882 14.995 50.7291L14.083 49.8892L13.074 50.9781ZM11.588 52.5911L12.556 53.4841C12.7518 53.6965 13.0143 53.8355 13.3 53.8781C13.4253 53.8769 13.5488 53.8473 13.661 53.7916C13.7732 53.7358 13.8714 53.6553 13.948 53.5562C14.0311 53.4788 14.0931 53.3815 14.1281 53.2736C14.163 53.1656 14.1699 53.0505 14.148 52.9391C14.0546 52.6577 13.8808 52.4098 13.648 52.2261L12.713 51.3641L11.584 52.5901M13.973 49.0371L14.21 49.2551L15.52 50.4622C15.7933 50.6909 15.975 51.0103 16.032 51.3621C16.0537 51.5184 16.0392 51.6776 15.9896 51.8275C15.94 51.9773 15.8567 52.1137 15.746 52.2261C15.6301 52.3636 15.4823 52.4707 15.3154 52.5378C15.1486 52.6049 14.9678 52.6301 14.789 52.6111C14.7038 52.6041 14.6196 52.5876 14.538 52.5621C14.6117 52.6992 14.6655 52.8459 14.698 52.9981C14.7362 53.1786 14.7288 53.3658 14.6764 53.5427C14.624 53.7195 14.5283 53.8805 14.398 54.0111C14.2714 54.1628 14.1113 54.2831 13.9303 54.3624C13.7493 54.4417 13.5524 54.4779 13.355 54.4681C12.9024 54.4183 12.4816 54.2113 12.166 53.8831L10.966 52.7761L10.729 52.5571L13.973 49.0371Z" fill="#161615"/>
<path d="M18.192 55.1332L19.592 55.8962C19.7896 56.0268 20.0296 56.0768 20.263 56.0361C20.3697 55.9981 20.4675 55.9385 20.5502 55.8611C20.6329 55.7837 20.6989 55.6901 20.744 55.5862C20.8059 55.4935 20.847 55.3884 20.8643 55.2782C20.8815 55.168 20.8746 55.0554 20.844 54.9482C20.7367 54.7249 20.5529 54.5475 20.326 54.4482L18.964 53.7081L18.192 55.1332ZM18.652 52.9211L18.935 53.0751L20.607 53.9832C20.9835 54.1548 21.2879 54.4531 21.467 54.8262C21.5287 54.997 21.5505 55.1797 21.5308 55.3604C21.511 55.541 21.4502 55.7147 21.353 55.8682C21.2733 56.035 21.157 56.1817 21.0128 56.2974C20.8686 56.413 20.7001 56.4946 20.52 56.5361C20.4304 56.5546 20.3394 56.5646 20.248 56.5662L20.318 56.6661C20.4043 56.8112 20.4495 56.9771 20.4486 57.1459C20.4478 57.3147 20.4008 57.48 20.313 57.6241L19.919 58.4052C19.8653 58.4972 19.8312 58.5993 19.819 58.7051C19.8228 58.7902 19.8536 58.8718 19.907 58.9382L19.858 59.0281L19.158 58.6481C19.1802 58.5467 19.2138 58.4481 19.258 58.3541C19.3246 58.2008 19.4006 58.0341 19.486 57.8541L19.653 57.5151C19.7145 57.4173 19.7561 57.3083 19.7753 57.1943C19.7945 57.0804 19.791 56.9637 19.765 56.8511C19.6647 56.6323 19.4864 56.4586 19.265 56.3641L17.92 55.6342L16.937 57.4462L16.653 57.2911L16.366 57.1351L18.65 52.9271" fill="#161615"/>
<path d="M21.098 59.501L22.666 54.9771L22.972 55.083L23.281 55.1901L21.9 59.175L24.186 59.967L24.093 60.236L24 60.505L21.098 59.501Z" fill="#161615"/>
<path d="M29.305 61.5689C29.0019 61.5527 28.7062 61.4692 28.4394 61.3247C28.1725 61.1801 27.9411 60.9779 27.762 60.7329C27.4088 60.1736 27.2503 59.5133 27.3113 58.8546C27.3722 58.196 27.6492 57.5759 28.099 57.091C28.3248 56.8805 28.5942 56.7222 28.8879 56.6273C29.1817 56.5325 29.4927 56.5033 29.799 56.5419C30.2831 56.5743 30.7417 56.7708 31.099 57.099C31.2664 57.2483 31.4021 57.4297 31.4983 57.6323C31.5945 57.835 31.6491 58.0548 31.659 58.2789L31.033 58.223C31.0223 58.0742 30.9818 57.9291 30.9139 57.7963C30.8461 57.6635 30.7523 57.5458 30.638 57.45C30.3691 57.2413 30.0421 57.1212 29.702 57.106C29.4852 57.0811 29.2655 57.108 29.061 57.1845C28.8566 57.2609 28.6733 57.3849 28.526 57.546C28.2096 57.9453 28.0157 58.4278 27.9679 58.9351C27.9202 59.4423 28.0206 59.9526 28.257 60.4039C28.3846 60.5872 28.5532 60.7382 28.7493 60.845C28.9455 60.9517 29.1638 61.0113 29.387 61.0189C29.6498 61.0475 29.9155 61.0073 30.1579 60.9021C30.4004 60.7969 30.6114 60.6304 30.77 60.419C30.8417 60.3144 30.8967 60.1994 30.933 60.078C30.9799 59.94 31.0108 59.797 31.025 59.6519L31.03 59.5939L29.538 59.461L29.587 58.9149L31.674 59.101L31.449 61.627L31.049 61.591L30.949 60.9769L30.909 61.0159C30.7012 61.2238 30.4487 61.3817 30.1708 61.4775C29.8929 61.5733 29.5968 61.6046 29.305 61.5689Z" fill="#161615"/>
<path d="M40.717 56.6872C40.6713 56.5593 40.5992 56.4425 40.5053 56.3444C40.4114 56.2464 40.2978 56.1693 40.172 56.1182C39.8862 56.0209 39.5758 56.0241 39.292 56.1272C39.0067 56.1934 38.7501 56.3494 38.56 56.5722C38.4909 56.6689 38.4466 56.7812 38.4309 56.899C38.4153 57.0168 38.4286 57.1367 38.47 57.2482C38.4877 57.3256 38.5244 57.3974 38.5768 57.4571C38.6292 57.5168 38.6956 57.5625 38.77 57.5902C39.0342 57.6487 39.3065 57.6616 39.575 57.6282L40.43 57.5762C40.7907 57.5298 41.157 57.5899 41.484 57.7492C41.775 57.9572 41.9746 58.2695 42.0413 58.6209C42.108 58.9724 42.0366 59.336 41.842 59.6362C41.5474 60.0109 41.1359 60.2763 40.673 60.3902C40.1794 60.573 39.637 60.5752 39.142 60.3962C38.9366 60.3072 38.7544 60.1723 38.6093 60.0019C38.4642 59.8315 38.3601 59.6301 38.305 59.4132L38.295 59.3792L38.868 59.2052C38.9104 59.3541 38.9866 59.4912 39.0906 59.6059C39.1947 59.7205 39.3239 59.8096 39.468 59.8662C39.8092 59.9767 40.1777 59.969 40.514 59.8442C40.8217 59.7718 41.1019 59.612 41.321 59.3842C41.398 59.2932 41.4497 59.1836 41.471 59.0664C41.4922 58.9491 41.4822 58.8284 41.442 58.7162C41.4215 58.6228 41.3798 58.5353 41.3202 58.4606C41.2605 58.3859 41.1845 58.3259 41.098 58.2852C40.8145 58.2095 40.5191 58.1895 40.228 58.2262L39.371 58.2782C39.0361 58.3207 38.6959 58.2738 38.385 58.1422C38.2678 58.0746 38.1655 57.9839 38.0844 57.8756C38.0033 57.7673 37.945 57.6436 37.913 57.5122C37.8445 57.3185 37.8206 57.1119 37.8431 56.9078C37.8656 56.7036 37.9339 56.5072 38.043 56.3332C38.3022 55.9577 38.69 55.6903 39.133 55.5812C39.5692 55.423 40.0479 55.4276 40.481 55.5942C40.6746 55.6801 40.8475 55.8066 40.9879 55.9652C41.1284 56.1237 41.2331 56.3106 41.295 56.5132L40.717 56.6872Z" fill="#161615"/>
<path d="M43.073 56.6169L44.223 56.0429C44.4693 55.9453 44.6708 55.7601 44.789 55.523C44.8243 55.4066 44.8346 55.2841 44.8193 55.1635C44.8039 55.0428 44.7633 54.9268 44.7 54.8229C44.6594 54.7204 44.5955 54.6288 44.5135 54.5552C44.4314 54.4816 44.3333 54.4281 44.227 54.3989C43.9676 54.3691 43.7056 54.426 43.482 54.5609L42.332 55.1339L43.073 56.6169ZM41.503 54.9249L41.791 54.7809L43.376 53.991C43.7181 53.794 44.1218 53.7326 44.507 53.8189C44.6805 53.8699 44.8406 53.9584 44.9761 54.0781C45.1116 54.1979 45.2191 54.346 45.291 54.512C45.3881 54.6815 45.4492 54.8693 45.4707 55.0635C45.4922 55.2577 45.4736 55.4542 45.416 55.6409C45.3446 55.8256 45.2371 55.9941 45.0997 56.1367C44.9624 56.2792 44.7979 56.3929 44.616 56.471C44.07 56.7376 43.6403 56.9542 43.327 57.1209L44.227 58.921L43.937 59.0649L43.644 59.2109L41.509 54.926" fill="#161615"/>
<path d="M50.029 54.1771C50.0214 53.6679 49.8529 53.1743 49.5475 52.7669C49.2421 52.3595 48.8155 52.0591 48.329 51.909C48.1056 51.8637 47.8752 51.866 47.6528 51.9159C47.4304 51.9658 47.221 52.0621 47.0384 52.1985C46.8558 52.335 46.7041 52.5084 46.5932 52.7076C46.4824 52.9067 46.4148 53.127 46.395 53.3541C46.4026 53.8632 46.5711 54.3568 46.8765 54.7643C47.1819 55.1717 47.6084 55.472 48.095 55.6221C48.3183 55.6666 48.5485 55.6637 48.7706 55.6134C48.9927 55.5631 49.2017 55.4667 49.384 55.3302C49.5664 55.1938 49.718 55.0206 49.8289 54.8217C49.9399 54.6228 50.0077 54.4029 50.028 54.1761L50.029 54.1771ZM47.958 56.2411C47.3135 56.0757 46.745 55.695 46.3467 55.162C45.9483 54.6291 45.7441 53.976 45.768 53.3111C45.8596 52.6858 46.195 52.1222 46.701 51.7435C47.2069 51.3647 47.8422 51.2017 48.468 51.2901C49.1119 51.4565 49.6798 51.8375 50.078 52.3702C50.4761 52.9029 50.6807 53.5554 50.658 54.2201C50.5642 54.8443 50.2282 55.4065 49.7228 55.7848C49.2175 56.1631 48.5834 56.327 47.958 56.2411Z" fill="#161615"/>
<path d="M51.016 51.068L52.097 49.8901C52.2721 49.7303 52.3795 49.5095 52.397 49.273C52.3859 49.1602 52.3518 49.0509 52.2968 48.9518C52.2417 48.8527 52.1669 48.7661 52.077 48.6971C52.0013 48.6142 51.9083 48.549 51.8046 48.506C51.7009 48.4629 51.5891 48.4432 51.477 48.448C51.2343 48.4978 51.0175 48.633 50.866 48.829L49.818 49.971L51.016 51.068ZM48.982 50.0851L49.2 49.8481L50.486 48.448C50.7439 48.1248 51.1069 47.9022 51.512 47.8191C51.6928 47.8007 51.8753 47.824 52.0457 47.8871C52.2161 47.9502 52.3698 48.0514 52.495 48.183C52.6374 48.3008 52.7515 48.4492 52.8287 48.6171C52.9059 48.785 52.9443 48.9682 52.941 49.1531C52.9371 49.2443 52.9247 49.3351 52.904 49.424L53.015 49.38C53.1767 49.3314 53.3486 49.3279 53.5121 49.3698C53.6757 49.4118 53.8246 49.4976 53.943 49.618L54.604 50.19C54.6801 50.2641 54.7706 50.3216 54.87 50.359C54.9536 50.3761 55.0405 50.3659 55.118 50.3301L55.193 50.399L54.655 50.9861C54.562 50.9396 54.4744 50.8829 54.394 50.8171C54.2606 50.7184 54.1166 50.604 53.962 50.474L53.674 50.229C53.5942 50.1456 53.4987 50.0787 53.393 50.0324C53.2873 49.986 53.1734 49.9611 53.058 49.959C52.8219 50.0029 52.6105 50.133 52.465 50.324L51.431 51.4521L52.949 52.846L52.73 53.0851L52.509 53.326L48.982 50.089" fill="#161615"/>
<path d="M53.477 44.409L53.62 44.119L53.764 43.826L55.851 44.853L54.792 41.736L54.992 41.336L55.192 40.936L56.053 43.62L59.504 43.015L59.319 43.392L59.132 43.772L56.259 44.2531L56.566 45.207L58.066 45.944L57.923 46.234L57.779 46.527L53.477 44.409Z" fill="#161615"/>
<path d="M59.27 37.6881C59.5203 37.7334 59.7575 37.8334 59.9647 37.9809C60.1719 38.1284 60.344 38.3199 60.4687 38.5415C60.5934 38.7632 60.6677 39.0097 60.6862 39.2633C60.7048 39.517 60.6671 39.7716 60.576 40.0091C60.5374 40.2633 60.4412 40.5053 60.2948 40.7166C60.1484 40.9279 59.9556 41.1029 59.7312 41.2284C59.5068 41.3538 59.2566 41.4263 58.9999 41.4403C58.7432 41.4543 58.4867 41.4094 58.25 41.3091L55.331 40.4871L55.419 40.1751L55.508 39.8601L58.382 40.6701C58.7273 40.7944 59.1067 40.7844 59.445 40.6421C59.7294 40.4592 59.9372 40.1786 60.0293 39.8532C60.1214 39.5278 60.0914 39.1799 59.945 38.8751C59.7298 38.578 59.4113 38.3722 59.052 38.2981L56.178 37.4881L56.266 37.1761L56.355 36.8611L59.27 37.6881Z" fill="#161615"/>
<path d="M61.228 36.5451L56.469 36.0271L56.504 35.7051L56.539 35.3801L60.731 35.8371L60.993 33.4321L61.276 33.4631L61.559 33.4941L61.228 36.5451Z" fill="#161615"/>
<path d="M59.689 28.9381C59.941 28.9033 60.1976 28.9246 60.4404 29.0004C60.6832 29.0762 60.9063 29.2046 61.0938 29.3765C61.2812 29.5484 61.4285 29.7596 61.525 29.9949C61.6215 30.2303 61.6648 30.484 61.652 30.7381C61.6946 30.9917 61.6788 31.2518 61.6056 31.4984C61.5324 31.7449 61.4038 31.9715 61.2296 32.1608C61.0555 32.3501 60.8404 32.4971 60.6008 32.5906C60.3611 32.684 60.1033 32.7215 59.847 32.7001L56.817 32.8271L56.803 32.5031L56.789 32.1761L59.772 32.0511C60.1383 32.0614 60.4951 31.934 60.772 31.6941C60.9848 31.4315 61.0945 31.1002 61.0803 30.7625C61.0661 30.4248 60.9291 30.1039 60.695 29.8601C60.3981 29.6449 60.0314 29.5486 59.667 29.5901L56.684 29.7151L56.67 29.3921L56.656 29.0651L59.689 28.9381ZM55.547 31.8381L55.521 31.2321L56.207 31.2031L56.232 31.8091L55.546 31.8381M55.501 30.7571L55.476 30.1511L56.162 30.1221L56.187 30.7281L55.501 30.7571Z" fill="#161615"/>
<path d="M60.538 26.7671L60.252 25.4811C60.2124 25.1951 60.0762 24.9311 59.866 24.7331C59.7624 24.6626 59.6441 24.6164 59.5201 24.5983C59.3961 24.5801 59.2695 24.5903 59.15 24.6281C59.0376 24.6439 58.931 24.6883 58.8405 24.7569C58.7501 24.8255 58.6786 24.9161 58.633 25.0201C58.5483 25.3036 58.5483 25.6057 58.633 25.8891L58.91 27.1301L60.538 26.7671ZM58.398 27.2441L58.147 26.1161C58.1093 25.8472 57.9854 25.5978 57.794 25.4051C57.7036 25.338 57.5985 25.2932 57.4875 25.2744C57.3764 25.2557 57.2625 25.2634 57.155 25.2971C57.0564 25.3109 56.9625 25.3485 56.8817 25.4067C56.8008 25.4649 56.7354 25.5419 56.691 25.6311C56.6121 25.8662 56.6086 26.12 56.681 26.3571L56.951 27.5681L58.399 27.2451M56.55 28.3241L56.48 28.0091L56.093 26.2701C55.999 25.9266 56.0317 25.5606 56.185 25.2391C56.2564 25.0984 56.3592 24.976 56.4854 24.8814C56.6117 24.7867 56.758 24.7223 56.913 24.6931C57.0867 24.6461 57.2691 24.6424 57.4445 24.6824C57.6199 24.7223 57.7828 24.8046 57.919 24.9221C57.9849 24.9768 58.0446 25.0385 58.097 25.1061C58.1146 24.9517 58.154 24.8005 58.214 24.6571C58.2853 24.4871 58.398 24.3374 58.5417 24.2219C58.6854 24.1063 58.8556 24.0283 59.037 23.9951C59.2276 23.9426 59.4278 23.935 59.6218 23.973C59.8158 24.011 59.9983 24.0936 60.155 24.2141C60.4984 24.5133 60.7259 24.9235 60.798 25.3731L61.153 26.9681L61.223 27.2821L56.55 28.3231" fill="#161615"/>
<path d="M56.889 19.517C57.1129 19.3962 57.3608 19.3264 57.6148 19.3124C57.8689 19.2985 58.1229 19.3407 58.3587 19.4363C58.5945 19.5318 58.8063 19.6782 58.9791 19.865C59.1518 20.0518 59.2812 20.2744 59.358 20.517C59.4868 20.7393 59.5632 20.9881 59.5812 21.2445C59.5992 21.5008 59.5584 21.7579 59.4619 21.9961C59.3655 22.2343 59.2159 22.4473 59.0245 22.6188C58.8332 22.7904 58.6052 22.916 58.358 22.986L55.564 24.166L55.438 23.866L55.311 23.566L58.062 22.404C58.4092 22.2855 58.6993 22.041 58.875 21.719C58.9827 21.3985 58.9695 21.0498 58.838 20.7383C58.7065 20.4269 58.4657 20.1743 58.161 20.028C57.8076 19.9305 57.4306 19.9687 57.104 20.135L54.353 21.297L54.227 20.997L54.1 20.697L56.889 19.517ZM54.025 23.687L53.789 23.128L54.422 22.861L54.658 23.42L54.025 23.687ZM53.604 22.687L53.368 22.128L54.001 21.861L54.237 22.42L53.604 22.687Z" fill="#161615"/>
<path d="M19.727 8.27205L21.082 7.61505L19.49 6.02504L19.727 8.27205ZM18.881 5.53905L19.212 5.37904L19.545 5.21704L23.18 8.77504L22.867 8.92705L22.554 9.07904L21.509 8.04204L19.791 8.87505L19.944 10.344L19.644 10.489L19.344 10.636L18.881 5.53604" fill="#161615"/>
<path d="M24.179 8.48007L23.879 8.56407L23.579 8.64807L22.301 4.03407L22.676 3.93407L23.054 3.83408L26.396 6.94507L25.357 3.19608L25.657 3.11208L25.957 3.02808L27.235 7.64207L26.891 7.74207L26.547 7.84207L23.135 4.73508L24.179 8.48007Z" fill="#161615"/>
<path d="M27.631 2.73196L27.953 2.70297L28.279 2.67397L28.486 4.99097L30.598 2.46696L31.041 2.42697L31.488 2.38696L29.643 4.51797L31.954 7.15297L31.536 7.18997L31.115 7.22797L29.215 5.02296L28.56 5.78098L28.709 7.44397L28.387 7.47296L28.062 7.50197L27.631 2.73196Z" fill="#161615"/>
<path d="M33.784 5.33908L35.284 5.48108L34.749 3.29509L33.784 5.33908ZM34.484 2.56308L34.85 2.59808L35.219 2.63309L36.478 7.56209L36.132 7.52908L35.786 7.49608L35.431 6.06708L33.531 5.88708L32.899 7.22208L32.568 7.19109L32.234 7.15909L34.484 2.55908" fill="#161615"/>
<path d="M38.288 5.33003L39.827 5.76404C40.0485 5.84755 40.2936 5.84327 40.512 5.75204C40.6077 5.69135 40.6899 5.61166 40.7536 5.51791C40.8172 5.42417 40.8609 5.31836 40.882 5.20703C40.9216 5.1028 40.938 4.99118 40.9301 4.87996C40.9221 4.76874 40.89 4.66058 40.836 4.56303C40.6823 4.36887 40.4641 4.2362 40.221 4.18904L38.729 3.76804L38.288 5.33003ZM38.249 3.07104L38.559 3.15804L40.39 3.67503C40.7949 3.75967 41.1573 3.98369 41.414 4.30804C41.5118 4.46109 41.5732 4.63444 41.5936 4.81487C41.6141 4.99529 41.593 5.17801 41.532 5.34904C41.4911 5.52927 41.4101 5.69793 41.2949 5.8425C41.1798 5.98707 41.0335 6.10381 40.867 6.18404C40.7837 6.22206 40.697 6.25219 40.608 6.27403L40.697 6.35304C40.8134 6.47549 40.8941 6.62738 40.9304 6.79234C40.9667 6.95731 40.9572 7.12905 40.903 7.28903L40.691 8.13704C40.6593 8.23814 40.6488 8.34469 40.66 8.45004C40.6827 8.53232 40.731 8.6052 40.798 8.65804L40.77 8.75804L40.003 8.54204C40.0024 8.43812 40.0134 8.33446 40.036 8.23303C40.064 8.0697 40.1013 7.88971 40.148 7.69304L40.237 7.32603C40.2755 7.21711 40.292 7.10167 40.2856 6.98634C40.2793 6.87101 40.2502 6.75808 40.2 6.65404C40.0545 6.46303 39.8431 6.33293 39.607 6.28903L38.134 5.87303L37.574 7.85704L37.262 7.76904L36.947 7.68004L38.247 3.07204" fill="#161615"/>
<path d="M43.033 7.66811L44.385 8.33112L44.657 6.09711L43.033 7.66811ZM44.665 5.31812L44.995 5.4801L45.328 5.64311L44.763 10.6991L44.451 10.5461L44.139 10.3931L44.312 8.93111L42.598 8.0901L41.535 9.11511L41.235 8.96912L40.935 8.82111L44.665 5.32111" fill="#161615"/>
<path d="M32.805 56.759L33.128 56.744L33.455 56.729L33.677 61.512L33.354 61.527L33.027 61.542L32.805 56.759Z" fill="#161615"/>
<path d="M32.756 55.7001L33.079 55.6851L33.405 55.6702L33.443 56.4882L33.12 56.5032L32.794 56.5181L32.756 55.7001Z" fill="#161615"/>
<path d="M26.169 56.0781L26.485 56.1511L26.803 56.2241L25.733 60.8911L25.418 60.8191L25.1 60.7461L26.169 56.0781Z" fill="#161615"/>
<path d="M26.406 55.0452L26.722 55.1171L27.041 55.1902L26.858 55.9902L26.542 55.9182L26.223 55.8452L26.406 55.0452Z" fill="#161615"/>
<path d="M17.304 51.9121L17.566 52.1011L17.831 52.2921L15.031 56.1751L14.769 55.9861L14.504 55.7951L17.304 51.9121Z" fill="#161615"/>
<path d="M17.924 51.052L18.1859 51.241L18.4509 51.4319L17.9719 52.0959L17.7099 51.907L17.4449 51.7159L17.924 51.052Z" fill="#161615"/>
<path d="M30.797 10.3941C30.8974 10.3922 30.9975 10.3845 31.097 10.3711L31.441 12.5481C31.361 12.6281 31.269 12.7081 31.177 12.7891L30.797 10.3941Z" fill="#CC9554"/>
<path d="M29.742 10.5121C29.8362 10.4903 29.9318 10.4749 30.028 10.4661L30.864 13.0331C30.784 13.0901 30.692 13.1481 30.6 13.2051L29.742 10.5121Z" fill="#CC9554"/>
<path d="M28.636 10.691C28.736 10.668 28.842 10.657 28.945 10.634L30.32 13.373C30.24 13.419 30.148 13.465 30.057 13.511L28.636 10.691Z" fill="#CC9554"/>
<path d="M27.448 10.978C27.5499 10.9459 27.6533 10.9192 27.758 10.8979L29.758 13.6599C29.6684 13.7031 29.5766 13.7415 29.483 13.775L27.448 10.978Z" fill="#CC9554"/>
<path d="M26.191 11.3791L26.5 11.2791L29.146 13.9151C29.0412 13.9552 28.934 13.9886 28.825 14.0151L26.191 11.3791Z" fill="#CC9554"/>
<path d="M24.828 11.952L25.137 11.814L28.368 14.1519C28.231 14.1859 28.105 14.221 27.979 14.244L24.828 11.952Z" fill="#CC9554"/>
<path d="M23.35 12.7421C23.45 12.6851 23.556 12.6271 23.659 12.5591L27.199 14.3691C27.004 14.3921 26.821 14.4031 26.638 14.4151L23.35 12.7421Z" fill="#CC9554"/>
<path d="M21.769 13.82C21.869 13.74 21.964 13.6711 22.069 13.6021L26.652 15.092C26.664 15.192 26.675 15.298 26.686 15.413L21.769 13.82Z" fill="#CC9554"/>
<path d="M20.121 15.253L20.384 14.989L26.784 16.009C26.7974 16.113 26.8165 16.2161 26.841 16.318L20.121 15.253Z" fill="#CC9554"/>
<path d="M18.481 17.132C18.55 17.032 18.63 16.937 18.71 16.832H26.982C27.017 16.932 27.051 17.027 27.082 17.132H18.481Z" fill="#CC9554"/>
<path d="M16.98 19.5151C17.037 19.4001 17.094 19.2971 17.152 19.1831L27.246 17.5901C27.292 17.6821 27.326 17.7731 27.372 17.8651L16.98 19.5151Z" fill="#CC9554"/>
<path d="M15.811 22.4031L15.911 22.0591L27.563 18.2661L27.701 18.5411L15.811 22.4031Z" fill="#CC9554"/>
<path d="M15.158 25.734C15.169 25.619 15.181 25.4931 15.192 25.3791L27.921 18.8931C27.978 18.9731 28.035 19.0651 28.093 19.1451L15.158 25.734Z" fill="#CC9554"/>
<path d="M15.211 29.358C15.1997 29.2434 15.1883 29.1287 15.177 29.014L28.33 19.468C28.387 19.548 28.456 19.617 28.513 19.697L15.211 29.358Z" fill="#CC9554"/>
<path d="M16.121 33.0711C16.087 32.9711 16.052 32.8651 16.006 32.7621L28.792 19.9851C28.861 20.0651 28.929 20.1341 28.998 20.2031L16.121 33.0711Z" fill="#CC9554"/>
<path d="M17.9189 36.6121C17.8619 36.5201 17.8039 36.4401 17.7469 36.3481L29.2959 20.4651C29.3649 20.5221 29.4449 20.5911 29.5249 20.6481L17.9189 36.6121Z" fill="#CC9554"/>
<path d="M46.253 36.3491C46.196 36.4411 46.138 36.5211 46.07 36.6131L34.475 20.6501C34.555 20.5931 34.624 20.524 34.704 20.467L46.253 36.3491Z" fill="#CC9554"/>
<path d="M47.983 32.7621L47.883 33.0711L35.005 20.2021C35.074 20.1331 35.143 20.0641 35.211 19.9841L47.983 32.7621Z" fill="#CC9554"/>
<path d="M48.819 29.015C48.8095 29.1303 48.7941 29.2452 48.773 29.359L35.473 19.699C35.542 19.619 35.61 19.55 35.668 19.47L48.819 29.015Z" fill="#CC9554"/>
<path d="M48.795 25.382C48.818 25.497 48.829 25.623 48.841 25.737L35.906 19.148C35.963 19.068 36.02 18.976 36.067 18.896L48.795 25.382Z" fill="#CC9554"/>
<path d="M46.849 19.1831C46.906 19.2981 46.964 19.4011 47.021 19.5151L36.629 17.8651C36.6721 17.7755 36.7105 17.6837 36.744 17.5901L46.849 19.1831Z" fill="#CC9554"/>
<path d="M45.29 16.834C45.37 16.934 45.439 17.029 45.519 17.134H36.919C36.9545 17.0356 36.9849 16.9355 37.01 16.834H45.29Z" fill="#CC9554"/>
<path d="M43.606 14.989C43.698 15.081 43.789 15.161 43.881 15.253L37.149 16.318L37.218 16.009L43.606 14.989Z" fill="#CC9554"/>
<path d="M41.933 13.606C42.0334 13.6721 42.1293 13.7449 42.22 13.8239L37.32 15.4169C37.331 15.3019 37.343 15.1989 37.343 15.0959L41.933 13.606Z" fill="#CC9554"/>
<path d="M40.341 12.5591C40.441 12.6281 40.547 12.6851 40.641 12.7421L37.364 14.4151C37.181 14.4041 36.986 14.3921 36.791 14.3691L40.341 12.5591Z" fill="#CC9554"/>
<path d="M38.852 11.814L39.161 11.952L36.022 14.244C35.8909 14.2199 35.761 14.1892 35.633 14.1519L38.852 11.814Z" fill="#CC9554"/>
<path d="M37.488 11.2761L37.797 11.3761L35.162 14.0121C35.0571 13.984 34.9536 13.9506 34.852 13.9121L37.488 11.2761Z" fill="#CC9554"/>
<path d="M36.24 10.8979C36.3414 10.9192 36.4415 10.9459 36.54 10.978L34.512 13.778C34.414 13.7465 34.3185 13.7081 34.226 13.663L36.24 10.8979Z" fill="#CC9554"/>
<path d="M35.059 10.634C35.159 10.657 35.265 10.668 35.368 10.691L33.924 13.51C33.832 13.464 33.752 13.418 33.66 13.372L35.059 10.634Z" fill="#CC9554"/>
<path d="M33.959 10.4622C34.051 10.4732 34.154 10.4851 34.259 10.5081L33.377 13.2012C33.297 13.1442 33.205 13.0862 33.125 13.0292L33.959 10.4622Z" fill="#CC9554"/>
<path d="M32.894 10.3711C32.9934 10.3849 33.0936 10.3926 33.194 10.3941L32.816 12.7891C32.725 12.7091 32.633 12.6291 32.553 12.5481L32.894 10.3711Z" fill="#CC9554"/>
<path d="M31.989 10.3481C32.046 10.3481 32.089 10.3591 32.138 10.3591V12.0891C32.092 12.0201 32.038 11.9511 31.989 11.8831C31.9431 11.9544 31.8933 12.0232 31.84 12.0891V10.3591C31.897 10.3591 31.943 10.3481 31.989 10.3481Z" fill="#CC9554"/>
<path d="M48.189 22.4031L36.289 18.5411C36.346 18.4491 36.389 18.3581 36.438 18.2661L48.09 22.0591L48.189 22.4031Z" fill="#CC9554"/>
<path d="M31.817 30.264C31.184 29.9539 30.4818 29.8117 29.778 29.851C29.1788 29.8962 28.6148 30.152 28.186 30.573C28.2645 31.3323 28.2142 32.0994 28.037 32.842C27.843 33.6254 27.5665 34.3859 27.212 35.111C27.568 35.8312 27.8447 36.588 28.037 37.368C28.2138 38.1146 28.2642 38.8857 28.186 39.649C28.619 40.0622 29.1813 40.3133 29.778 40.36C30.4822 40.405 31.1858 40.2625 31.817 39.947V30.264ZM26.364 29.336C26.605 29.462 26.845 29.6 27.097 29.749C27.397 29.932 27.697 30.104 27.979 30.287C28.4574 29.8284 29.0818 29.5526 29.743 29.508C30.5192 29.4567 31.2949 29.6149 31.989 29.966C32.6835 29.6159 33.4589 29.4577 34.235 29.508C34.9036 29.5502 35.5361 29.8259 36.022 30.287C36.309 30.104 36.606 29.932 36.904 29.749C37.145 29.6 37.397 29.462 37.637 29.336C36.1286 27.8664 34.1059 27.044 32 27.044C29.8941 27.044 27.8724 27.8664 26.364 29.336ZM37.637 40.887C37.396 40.749 37.144 40.612 36.904 40.463C36.604 40.291 36.304 40.12 36.022 39.936C35.5303 40.3883 34.9011 40.6626 34.235 40.715C33.4593 40.7594 32.6854 40.6016 31.989 40.257C31.293 40.6026 30.5188 40.7605 29.743 40.715C29.0844 40.6602 28.4632 40.3859 27.979 39.936C27.693 40.12 27.395 40.291 27.097 40.463C26.845 40.612 26.604 40.749 26.364 40.887C27.8688 42.3634 29.8929 43.1905 32.001 43.1905C34.1092 43.1905 36.1322 42.3634 37.637 40.887ZM26.112 40.624C26.387 40.475 26.65 40.324 26.926 40.166C27.202 40.008 27.526 39.811 27.843 39.605C27.9097 38.8833 27.8593 38.1556 27.694 37.45C27.5112 36.701 27.246 35.9745 26.903 35.284H23.924C23.9692 37.273 24.7485 39.1751 26.112 40.624ZM23.924 34.924H26.904C27.2488 34.2342 27.5142 33.5076 27.695 32.758C27.8607 32.0565 27.911 31.3326 27.844 30.615C27.523 30.409 27.214 30.225 26.927 30.054C26.64 29.883 26.389 29.745 26.113 29.596C24.7498 31.0403 23.9693 32.9385 23.924 34.924ZM40.068 35.279H37.089C36.7514 35.9717 36.4867 36.6976 36.299 37.445C36.1374 38.1512 36.0908 38.8789 36.161 39.6C36.482 39.806 36.791 39.989 37.078 40.161C37.365 40.333 37.616 40.47 37.891 40.619C39.2516 39.1691 40.0271 37.2668 40.068 35.279ZM37.891 29.595C37.616 29.744 37.353 29.895 37.078 30.053C36.803 30.211 36.478 30.408 36.161 30.614C36.0905 31.3311 36.1371 32.0549 36.299 32.757C36.4848 33.505 36.7496 34.231 37.089 34.923H40.068C40.0269 32.9387 39.2512 31.0403 37.891 29.595ZM32.174 39.943C32.8052 40.2585 33.5088 40.4011 34.213 40.356C34.8125 40.3111 35.3779 40.0598 35.813 39.645C35.7368 38.8822 35.783 38.1121 35.95 37.364C36.1465 36.5837 36.4269 35.827 36.786 35.107C36.4284 34.3821 36.1482 33.6216 35.95 32.838C35.7827 32.0939 35.7364 31.3278 35.813 30.569C35.3819 30.1465 34.815 29.8907 34.213 29.847C33.5092 29.8077 32.8071 29.9499 32.174 30.26V39.943ZM23.72 33.563L20.59 39.714C20.51 39.645 20.43 39.576 20.361 39.508L24.132 32.098L24.139 32.08C24.3486 31.5341 24.6148 31.0115 24.933 30.521L24.943 30.502L29.836 20.887C29.916 20.944 30.008 20.987 30.088 21.047L25.888 29.297L25.88 29.315C25.9334 29.259 25.9874 29.2033 26.042 29.148C26.7352 28.4645 27.5388 27.9029 28.419 27.487V27.475L30.437 21.252L30.712 21.39L28.789 27.315V27.322C29.2697 27.1228 29.7678 26.9688 30.277 26.862V26.848L31.111 21.574C31.2006 21.6171 31.2924 21.6555 31.386 21.689L30.58 26.789V26.8C30.9941 26.729 31.413 26.6895 31.833 26.682V21.845C31.8846 21.8534 31.9347 21.8689 31.982 21.891C32.0305 21.872 32.0803 21.8566 32.131 21.845V26.682C32.552 26.6892 32.9718 26.728 33.387 26.798V26.789L32.578 21.689C32.6763 21.6576 32.7723 21.6192 32.865 21.574L33.703 26.854V26.862C34.2114 26.968 34.7089 27.121 35.189 27.319V27.305L33.269 21.391C33.361 21.345 33.452 21.299 33.533 21.253L35.556 27.473V27.482C36.4399 27.8971 37.246 28.461 37.939 29.149C37.9964 29.2057 38.0524 29.263 38.107 29.321L38.102 29.306L33.904 21.05C33.984 20.993 34.064 20.95 34.145 20.89L38.997 30.403L39.031 30.471C39.3764 30.9917 39.6622 31.5495 39.883 32.134V32.143L43.641 39.512C43.561 39.581 43.492 39.649 43.412 39.718L40.284 33.578V33.607C40.373 34.102 40.4179 34.604 40.418 35.107C40.4196 36.5325 40.0571 37.9348 39.365 39.181V39.195L40.276 41.995C40.184 42.041 40.093 42.095 40.001 42.144L39.158 39.544V39.528C38.4173 40.7226 37.3925 41.7155 36.175 42.418V42.437L36.359 43.596C36.2577 43.6173 36.1575 43.644 36.059 43.676L35.887 42.59V42.58C34.7279 43.1902 33.4417 43.5196 32.132 43.542V43.553V44.174H31.832V43.542C30.5256 43.5181 29.2432 43.1876 28.088 42.577V42.586L27.915 43.68C27.8217 43.6467 27.7261 43.62 27.629 43.6L27.813 42.436V42.425C26.5875 41.7262 25.5589 40.7286 24.823 39.525V39.535L23.977 42.142C23.885 42.096 23.805 42.042 23.713 41.993L24.621 39.193V39.181C23.9316 37.9342 23.5706 36.5326 23.572 35.108C23.5719 34.5959 23.6181 34.0848 23.71 33.581V33.564" fill="#CC9554"/>
</g>
<defs>
<clipPath id="clip0_40_30291">
<rect width="64" height="64" fill="white"/>
</clipPath>
</defs>
</svg>
