<svg width="64" height="64" viewBox="0 0 64 64" fill="none" xmlns="http://www.w3.org/2000/svg">
<g clip-path="url(#clip0_333_10382)">
<path d="M32 64C49.6731 64 64 49.6731 64 32C64 14.3269 49.6731 0 32 0C14.3269 0 0 14.3269 0 32C0 49.6731 14.3269 64 32 64Z" fill="#F5F5F5"/>
<path d="M19.4149 51.4608C19.3289 51.4549 19.2163 51.4815 19.16 51.4401C18.4963 50.9393 17.7467 50.5482 17.1749 49.9319C16.92 49.6564 17.1215 49.4667 17.3615 49.3926C18.2415 49.123 18.9497 48.5986 19.5156 47.9052C20.3719 46.8445 20.7867 45.6504 20.5674 44.2519C20.4786 43.6889 20.3126 43.1793 20.0963 42.6667C19.7319 41.8193 19.7971 40.9541 20.0963 40.1067C20.9408 37.7393 22.2178 35.5912 23.6371 33.5408C24.2237 32.6964 25.0178 31.9912 26.1526 31.7482C27.5274 31.4519 28.7215 30.7438 29.6252 29.6326C30.0874 29.0638 30.3423 28.3852 30.5082 27.6712C30.7867 26.4771 30.4045 25.3956 29.9689 24.3171C29.6489 23.5319 29.803 22.7526 30.0311 21.9793C30.283 21.126 30.7748 20.3852 31.1482 19.5912C31.5245 18.7882 31.9274 18.0001 32.4015 17.2564C32.9052 16.4623 33.4652 15.6978 34.04 14.9512C34.523 14.323 35.1778 13.9645 35.9541 13.7393C37.5008 13.2949 38.763 12.3912 39.8267 11.1764C40.3897 10.5304 41.1186 10.5038 41.7763 10.9956C42.04 11.1941 42.0074 11.5171 41.9008 11.7126C41.2904 12.8089 40.7274 13.9467 39.9186 14.9156C39.2637 15.7038 38.3186 16.0238 37.323 16.2282C35.5334 16.5926 34.3423 17.6801 33.7556 19.3986C33.3052 20.7171 33.3793 22.0267 33.886 23.3304C34.286 24.3734 34.286 25.4015 33.7882 26.4682C33.0919 27.9586 32.206 29.3364 31.4178 30.7734C31.0356 31.4756 30.5734 32.1304 30.1467 32.803C29.5778 33.6978 28.6741 34.083 27.7408 34.2341C25.6489 34.5838 24.4193 35.8015 23.8237 37.7452C23.563 38.5926 23.4237 39.4845 23.7023 40.3497C23.8949 40.9541 24.0667 41.5586 24.2208 42.1689C24.443 43.0489 24.3245 43.8786 23.9215 44.6875C23.1334 46.2519 22.2267 47.7512 21.3793 49.2801C21.0474 49.8786 20.6237 50.4149 20.2889 51.0164C20.12 51.2889 19.7941 51.4815 19.4149 51.4608Z" fill="#FF5804"/>
<path d="M22.7332 52.6784C22.6591 52.4591 22.7954 52.231 22.8843 52.0236C23.7347 50.0858 24.6739 48.1954 25.8828 46.4443C26.3954 45.7036 26.9702 45.0191 27.6339 44.4295C28.0813 44.0325 28.7421 44.0236 29.2932 43.8043C30.6295 43.271 31.8265 42.5421 32.5761 41.2591C33.388 39.8754 33.4265 38.4177 32.7984 36.9717C32.5821 36.471 32.5169 35.9377 32.3332 35.431C32.2591 35.2325 32.4695 34.8028 32.5791 34.4858C33.4532 31.9406 34.7184 29.6088 36.3569 27.4695C37.0384 26.5777 37.8265 25.9732 38.9406 25.7036C40.0013 25.4488 40.985 24.9184 41.7821 24.1599C42.4932 23.4843 42.9139 22.6073 43.1006 21.6354C43.3228 20.474 42.9969 19.4191 42.5287 18.3554C42.1998 17.6117 42.351 16.7732 42.6087 16.0117C43.0117 14.8206 43.5717 13.7006 44.2117 12.6191C44.2591 12.5391 44.2621 12.4591 44.4221 12.4799C45.0235 12.5688 45.7198 13.2177 45.8265 13.7688C45.9006 14.1569 45.6724 14.4621 45.5213 14.7199C44.6858 16.1243 44.6561 17.5703 45.228 19.034C45.7495 20.3643 45.7198 21.6088 45.0413 22.8769C44.0132 24.7969 42.9406 26.6932 41.7643 28.5184C41.1332 29.5021 40.1673 30.0828 38.9732 30.2695C37.5895 30.4858 36.4991 31.2147 35.7435 32.3851C35.148 33.3066 34.8606 34.3495 34.905 35.4547C34.9347 36.228 35.1658 36.9628 35.4265 37.6828C35.8413 38.8266 35.6606 39.9021 35.0739 40.9421C34.3302 42.2606 33.628 43.6088 32.8576 44.9125C32.3806 45.7214 32.0073 46.5984 31.2873 47.2621C30.668 47.834 29.9628 48.1303 29.1421 48.3021C27.3939 48.6636 26.1228 49.6088 25.4947 51.3717C25.2517 52.0532 25.1065 52.714 25.151 53.4191C25.1924 54.1273 24.9791 54.2695 24.2621 53.9851C23.9361 53.8547 23.5954 53.751 23.2784 53.6058C22.8754 53.428 22.7302 53.1614 22.7332 52.6784Z" fill="#FF5804"/>
<path d="M28.9675 8.97754C29.2994 9.04273 29.6964 9.08717 30.0727 9.19977C30.5557 9.34199 30.8401 9.63828 30.929 10.1865C31.0594 10.9657 31.4298 11.6828 31.5572 12.4768C31.649 13.0457 31.5216 13.5939 31.3083 14.0176C30.2149 16.2072 28.9794 18.3228 27.6964 20.4087C27.009 21.5228 25.9335 21.9998 24.7127 22.1776C23.9512 22.2872 23.3142 22.6309 22.7483 23.0842C21.0001 24.4887 20.455 26.7287 21.1394 28.7998C21.4801 29.8339 21.7587 30.8472 21.4209 31.9435C21.2787 32.3998 21.0387 32.7968 20.8164 33.2028C19.8594 34.9657 18.8727 36.708 17.8031 38.4087C17.1246 39.4872 16.1409 40.0442 14.8816 40.2309C13.7824 40.3909 12.8846 40.9805 12.1705 41.8339C12.1498 41.8605 12.135 41.8931 12.1142 41.9198C11.5512 42.6191 11.2787 42.5835 10.8935 41.7717C10.0372 39.9731 9.44458 38.0976 9.10088 36.1361C9.04162 35.7954 9.10088 35.425 8.90828 35.0902C8.82828 34.9509 8.82532 34.7109 9.06236 34.6013C9.31717 34.4857 9.40606 34.6931 9.51569 34.8354C10.2772 35.8724 11.2342 36.6428 12.5201 36.8887C13.9898 37.1702 15.3616 36.9035 16.5172 35.8991C17.3053 35.2146 17.9127 34.4235 18.1409 33.345C18.3898 32.1657 18.2772 31.0546 17.7824 29.9909C17.3616 29.0902 17.412 28.1835 17.7735 27.3391C18.7068 25.1731 19.729 23.0457 21.1542 21.1435C21.8861 20.1657 22.7127 19.3865 23.9601 19.0428C25.492 18.6191 26.8046 17.7805 27.5483 16.2961C28.4342 14.5242 28.0016 11.7983 26.1705 10.5687C25.9394 10.4146 25.8238 10.1865 25.8772 9.8931C25.9187 9.66495 26.0757 9.54939 26.2831 9.49014C27.1453 9.2531 28.0194 9.09014 28.9675 8.97754Z" fill="#FF5804"/>
<path d="M47.4734 34.4296C47.6097 35.4903 47.029 36.3259 46.5667 37.1881C45.6719 38.8474 44.7238 40.4711 43.7253 42.0711C43.0556 43.1437 42.0868 43.7126 40.8661 43.9022C39.6305 44.0948 38.7031 44.6963 37.9683 45.757C37.5061 46.4237 37.1743 47.0933 37.0676 47.8578C36.8424 49.4281 37.3164 50.7703 38.4571 51.8992C38.9964 52.4355 39.6038 52.8059 40.3001 53.0785C40.5845 53.1881 40.638 53.4222 40.395 53.6533C40.2972 53.7481 40.1787 53.84 40.0513 53.8844C38.5698 54.4118 37.0735 54.8977 35.4883 55.0044C34.718 55.0548 34.4217 54.6726 34.5965 53.9348C34.8335 52.9333 34.7327 51.9526 34.2971 51.037C33.7193 49.8222 33.9267 48.6578 34.4156 47.5052C35.0942 45.9081 35.9327 44.3822 36.8601 42.9215C37.4675 41.9644 38.0809 40.954 39.0854 40.3259C39.6631 39.9644 40.3298 39.7689 40.9846 39.6207C42.5165 39.277 44.3564 37.434 44.5667 35.9081C44.709 34.8563 44.6765 33.8281 44.1846 32.8326C43.6987 31.8548 43.8675 30.8266 44.2082 29.837C44.5253 28.9185 45.0409 28.0859 45.4706 27.2178C46.1965 25.754 47.0942 24.4148 48.0719 23.1052C49.2275 21.5555 50.6735 21.6533 52.0009 22.317C53.4735 23.0548 54.1342 24.394 54.5075 25.9111C54.5993 26.2815 54.2291 26.5718 53.8646 26.4148C53.0794 26.0829 52.2734 25.8903 51.4171 25.8548C49.6186 25.7748 47.8409 27.0281 47.1417 28.8355C46.6024 30.237 46.6912 31.5585 47.2156 32.9037C47.4023 33.3955 47.5386 33.8963 47.4734 34.4296Z" fill="#FF5804"/>
<path d="M8.9135 29.2533C9.04091 28.2696 9.19498 27.194 9.4972 26.1422C9.60683 25.757 9.69572 25.3689 9.78165 24.9748C9.9772 24.0681 10.6202 23.6592 11.4527 23.4726C12.3239 23.28 13.1179 22.8918 13.8379 22.397C15.1239 21.517 15.7994 20.2903 15.8261 18.6963C15.8409 17.9289 15.6661 17.2237 15.435 16.5155C15.3016 16.1066 15.4646 15.7511 15.6898 15.4696C16.2439 14.7852 16.9372 14.237 17.6483 13.7274C18.069 13.4281 18.4868 13.6474 18.5224 14.1748C18.5787 15.0192 18.5876 15.8696 18.9579 16.6518C19.509 17.8192 19.3165 18.9303 18.7565 20.0237C17.8083 21.8755 16.6853 23.6296 15.675 25.4459C15.0409 26.5807 14.1313 27.28 12.9224 27.5111C12.0779 27.6711 11.3135 27.9437 10.6202 28.4118C10.1609 28.72 9.82905 29.1822 9.48239 29.6148C9.38757 29.7363 9.23646 29.834 9.0972 29.7748C8.93424 29.7126 8.84831 29.5466 8.9135 29.2533Z" fill="#FF5804"/>
<path d="M55.1601 34.7584C55.0031 35.7243 54.9646 36.631 54.689 37.4784C54.4905 38.0888 53.9779 38.3791 53.3349 38.4354C52.5468 38.5006 51.7972 38.7169 51.1542 39.1791C49.3794 40.4473 48.7542 42.5273 49.1631 44.5895C49.3023 45.2888 49.6075 45.9406 49.7231 46.6606C49.8268 47.3065 49.3942 47.594 49.1157 47.9228C48.5912 48.5391 47.9216 49.0251 47.3231 49.5762C47.169 49.7184 46.9468 49.8428 46.8194 49.7184C46.6564 49.5614 46.4046 49.3954 46.4757 49.0814C46.686 48.1628 46.4757 47.2828 46.1112 46.4532C45.6342 45.3569 45.7468 44.3228 46.2001 43.2532C46.6742 42.1303 47.1957 41.0369 47.7972 39.9821C48.446 38.8414 49.166 37.751 49.9927 36.7228C50.6031 35.9643 51.3438 35.5554 52.2623 35.351C52.9409 35.1999 53.5364 34.8206 54.1379 34.474C54.5823 34.2191 55.0268 34.3199 55.1453 34.714C55.1572 34.7643 55.1838 34.8088 55.1601 34.7584Z" fill="#FF5804"/>
</g>
<defs>
<clipPath id="clip0_333_10382">
<rect width="64" height="64" fill="white"/>
</clipPath>
</defs>
</svg>
