<svg xmlns="http://www.w3.org/2000/svg" width="64" height="64" viewBox="0 0 64 64"><circle cx="32" cy="32" r="32" fill="#fff"/><path d="M29.5,5.288,31.9,7.7l-4.554,4.68a9.019,9.019,0,0,1,1.476,4.958A8.9,8.9,0,0,1,26.31,23.6a8.366,8.366,0,0,1-4.434,2.452v4.078a8.546,8.546,0,0,1,4.426,2.44,9.052,9.052,0,0,1,0,12.542,8.541,8.541,0,0,1-12.28,0,9.055,9.055,0,0,1-.006-12.534,8.366,8.366,0,0,1,4.434-2.45v-4.08a8.548,8.548,0,0,1-4.426-2.44,9.052,9.052,0,0,1,0-12.542,8.524,8.524,0,0,1,6.14-2.606,8.42,8.42,0,0,1,4.79,1.5L29.5,5.288ZM20.164,33.4a5.06,5.06,0,0,0-3.714,1.58,5.569,5.569,0,0,0,0,7.71,5.16,5.16,0,0,0,3.714,1.58,5.06,5.06,0,0,0,3.712-1.58,5.569,5.569,0,0,0-.006-7.716A5.054,5.054,0,0,0,20.164,33.4Zm3.706-12.18a5.508,5.508,0,0,0,1.556-3.862,5.4,5.4,0,0,0-1.55-3.856,5.156,5.156,0,0,0-3.712-1.58A5.06,5.06,0,0,0,16.45,13.5a5.569,5.569,0,0,0,0,7.71,5.16,5.16,0,0,0,3.714,1.58A5.055,5.055,0,0,0,23.87,21.222Z" transform="translate(11.5 5.288)" fill="#333"/></svg>