<svg width="64" height="64" viewBox="0 0 64 64" fill="none" xmlns="http://www.w3.org/2000/svg">
<g clip-path="url(#clip0_40_30374)">
<path d="M32 64C49.6731 64 64 49.6731 64 32C64 14.3269 49.6731 0 32 0C14.3269 0 0 14.3269 0 32C0 49.6731 14.3269 64 32 64Z" fill="#F5F5F5"/>
<path d="M41 10.5759L43.4 12.9879L38.846 17.6679C39.8116 19.141 40.3247 20.8646 40.322 22.6259C40.339 24.9621 39.4367 27.2112 37.81 28.8879C36.621 30.1439 35.0719 31.0006 33.376 31.3399V35.4179C35.0636 35.7664 36.6064 36.617 37.802 37.8579C39.4216 39.5439 40.3261 41.7911 40.3261 44.1289C40.3261 46.4668 39.4216 48.714 37.802 50.3999C37.0055 51.2236 36.0515 51.8786 34.9967 52.326C33.9418 52.7733 32.8078 53.0038 31.662 53.0038C30.5162 53.0038 29.3822 52.7733 28.3273 52.326C27.2725 51.8786 26.3185 51.2236 25.522 50.3999C23.9046 48.7148 23.001 46.4698 22.9999 44.1341C22.9988 41.7984 23.9002 39.5526 25.516 37.8659C26.7053 36.6106 28.2543 35.7547 29.95 35.4159V31.3359C28.2625 30.9873 26.7197 30.1368 25.524 28.8959C23.9044 27.21 22.9999 24.9628 22.9999 22.6249C22.9999 20.2871 23.9044 18.0399 25.524 16.3539C26.3197 15.5291 27.2735 14.8732 28.3285 14.4254C29.3835 13.9777 30.5179 13.7472 31.664 13.7479C33.376 13.7493 35.047 14.2726 36.454 15.2479L41 10.5759ZM31.664 38.6879C30.9697 38.6824 30.2816 38.8198 29.6426 39.0916C29.0037 39.3634 28.4275 39.7638 27.95 40.2679C26.9554 41.3049 26.4 42.6861 26.4 44.1229C26.4 45.5598 26.9554 46.941 27.95 47.9779C28.4311 48.4773 29.008 48.8746 29.6461 49.1461C30.2842 49.4176 30.9705 49.5577 31.664 49.5579C32.358 49.5632 33.0457 49.4257 33.6843 49.1539C34.3229 48.882 34.8987 48.4818 35.376 47.9779C36.3716 46.9399 36.927 45.557 36.9258 44.1187C36.9247 42.6804 36.3672 41.2984 35.37 40.2619C34.8931 39.7596 34.318 39.3607 33.6805 39.0899C33.043 38.8192 32.3566 38.6823 31.664 38.6879ZM35.37 26.5079C36.374 25.4738 36.9326 24.0873 36.926 22.6459C36.9351 21.9327 36.8028 21.2247 36.5368 20.5628C36.2708 19.901 35.8762 19.2984 35.376 18.7899C34.8952 18.2906 34.3187 17.8933 33.6809 17.6218C33.0432 17.3503 32.3572 17.2102 31.664 17.2099C30.9698 17.2041 30.2818 17.3412 29.6429 17.6127C29.0039 17.8841 28.4277 18.2842 27.95 18.7879C26.9554 19.8249 26.4 21.2061 26.4 22.6429C26.4 24.0798 26.9554 25.461 27.95 26.4979C28.4311 26.9973 29.008 27.3947 29.6461 27.6661C30.2842 27.9376 30.9705 28.0776 31.664 28.0779C32.3562 28.0842 33.0423 27.9483 33.6797 27.6786C34.3172 27.4089 34.8925 27.0111 35.37 26.5099V26.5079Z" fill="#333333"/>
</g>
<defs>
<clipPath id="clip0_40_30374">
<rect width="64" height="64" fill="white"/>
</clipPath>
</defs>
</svg>
