<svg xmlns="http://www.w3.org/2000/svg" width="64" height="64" viewBox="0 0 64 64"><circle cx="32" cy="32" r="32" fill="#f5f5f5"/><g transform="translate(-151.885 -190.612)"><path d="M196.5,206.485a12.283,12.283,0,0,1,7.466,11.874c-8.39,0-16.781.071-25.171-.071a12.665,12.665,0,0,1,3.555-9.1A13.012,13.012,0,0,1,196.5,206.485Z" transform="translate(-4.479)" fill="#5fc0c1"/><path d="M197.334,251.9c.5,0,.924.284.924.64s-.427.64-.924.64h-13.51c-.5,0-.924-.284-.924-.64s.427-.64.924-.64Z" transform="translate(-5.664 -13.418)" fill="#e1177c"/><circle cx="0.924" cy="0.924" r="0.924" transform="translate(174.321 237.913)" fill="#e1177c"/><circle cx="0.924" cy="0.924" r="0.924" transform="translate(182.427 234.5)" fill="#e1177c"/><path d="M208.05,246.3a.924.924,0,1,1,0,1.849H194.824a.924.924,0,1,1,0-1.849Z" transform="translate(-8.842 -11.8)" fill="#e1177c"/><circle cx="0.924" cy="0.924" r="0.924" transform="translate(165.078 231.087)" fill="#e1177c"/><path d="M180.8,241.5a.924.924,0,1,1,0,1.849H169.924a.924.924,0,0,1,0-1.849Z" transform="translate(-1.647 -10.413)" fill="#e1177c"/><path d="M210.74,241.5a.924.924,0,0,1,0,1.849H189.124a.924.924,0,1,1,0-1.849Z" transform="translate(-7.195 -10.413)" fill="#e1177c"/><path d="M203.046,236.7a.924.924,0,1,1,0,1.849H176.524a.924.924,0,1,1,0-1.849Z" transform="translate(-3.554 -9.026)" fill="#e1177c"/><circle cx="0.924" cy="0.924" r="0.924" transform="translate(169.131 227.674)" fill="#e1177c"/><path d="M195.246,232a.924.924,0,0,1,0,1.849H168.724a.924.924,0,0,1,0-1.849Z" transform="translate(-1.3 -7.668)" fill="#e1177c"/><circle cx="0.924" cy="0.924" r="0.924" transform="translate(163.3 224.332)" fill="#e1177c"/><circle cx="0.924" cy="0.924" r="0.924" transform="translate(169.131 220.919)" fill="#e1177c"/><path d="M205.693,227.2a.924.924,0,1,1,0,1.849H176.824a.924.924,0,0,1,0-1.849Z" transform="translate(-3.641 -6.281)" fill="#e1177c"/></g></svg>