<svg width="64" height="64" viewBox="0 0 64 64" fill="none" xmlns="http://www.w3.org/2000/svg">
<g clip-path="url(#clip0_40_30377)">
<path d="M32 64C49.6731 64 64 49.6731 64 32C64 14.3269 49.6731 0 32 0C14.3269 0 0 14.3269 0 32C0 49.6731 14.3269 64 32 64Z" fill="#F5F5F5"/>
<path d="M40.136 15.8729C42.4436 16.8535 44.3959 18.5168 45.7305 20.6394C47.0651 22.7621 47.7182 25.2423 47.602 27.7469C39.212 27.7469 30.821 27.8179 22.431 27.6759C22.3915 25.9993 22.6855 24.3315 23.2957 22.7693C23.906 21.2072 24.8204 19.7818 25.986 18.5759C27.8163 16.782 30.1355 15.5684 32.6528 15.0876C35.1701 14.6067 37.7734 14.8799 40.136 15.8729Z" fill="#5FC0C1"/>
<path d="M39.785 47.8699C40.285 47.8699 40.709 48.1539 40.709 48.5099C40.709 48.8659 40.282 49.1499 39.785 49.1499H26.275C25.775 49.1499 25.351 48.8659 25.351 48.5099C25.351 48.1539 25.778 47.8699 26.275 47.8699H39.785Z" fill="#E1177C"/>
<path d="M23.36 49.1488C23.8703 49.1488 24.284 48.7351 24.284 48.2248C24.284 47.7145 23.8703 47.3008 23.36 47.3008C22.8497 47.3008 22.436 47.7145 22.436 48.2248C22.436 48.7351 22.8497 49.1488 23.36 49.1488Z" fill="#E1177C"/>
<path d="M31.4661 45.7359C31.9764 45.7359 32.3901 45.3223 32.3901 44.8119C32.3901 44.3016 31.9764 43.8879 31.4661 43.8879C30.9557 43.8879 30.5421 44.3016 30.5421 44.8119C30.5421 45.3223 30.9557 45.7359 31.4661 45.7359Z" fill="#E1177C"/>
<path d="M47.323 43.8879C47.5682 43.8879 47.8034 43.9853 47.9768 44.1587C48.1501 44.3321 48.2475 44.5672 48.2475 44.8124C48.2475 45.0576 48.1501 45.2928 47.9768 45.4662C47.8034 45.6395 47.5682 45.7369 47.323 45.7369H34.097C33.8519 45.7369 33.6167 45.6395 33.4433 45.4662C33.2699 45.2928 33.1725 45.0576 33.1725 44.8124C33.1725 44.5672 33.2699 44.3321 33.4433 44.1587C33.6167 43.9853 33.8519 43.8879 34.097 43.8879H47.323Z" fill="#E1177C"/>
<path d="M14.1171 42.3229C14.6274 42.3229 15.0411 41.9092 15.0411 41.3989C15.0411 40.8885 14.6274 40.4749 14.1171 40.4749C13.6067 40.4749 13.1931 40.8885 13.1931 41.3989C13.1931 41.9092 13.6067 42.3229 14.1171 42.3229Z" fill="#E1177C"/>
<path d="M27.268 40.4749C27.5132 40.4749 27.7484 40.5723 27.9218 40.7456C28.0951 40.919 28.1925 41.1542 28.1925 41.3994C28.1925 41.6445 28.0951 41.8797 27.9218 42.0531C27.7484 42.2264 27.5132 42.3239 27.268 42.3239H16.392C16.1468 42.3239 15.9117 42.2264 15.7383 42.0531C15.5649 41.8797 15.4675 41.6445 15.4675 41.3994C15.4675 41.1542 15.5649 40.919 15.7383 40.7456C15.9117 40.5723 16.1468 40.4749 16.392 40.4749H27.268Z" fill="#E1177C"/>
<path d="M51.66 40.4749C51.9052 40.4749 52.1404 40.5723 52.3137 40.7456C52.4871 40.919 52.5845 41.1542 52.5845 41.3994C52.5845 41.6445 52.4871 41.8797 52.3137 42.0531C52.1404 42.2264 51.9052 42.3239 51.66 42.3239H30.044C29.7988 42.3239 29.5637 42.2264 29.3903 42.0531C29.2169 41.8797 29.1195 41.6445 29.1195 41.3994C29.1195 41.1542 29.2169 40.919 29.3903 40.7456C29.5637 40.5723 29.7988 40.4749 30.044 40.4749H51.66Z" fill="#E1177C"/>
<path d="M47.607 37.062C47.8522 37.062 48.0874 37.1594 48.2607 37.3328C48.4341 37.5062 48.5315 37.7413 48.5315 37.9865C48.5315 38.2317 48.4341 38.4669 48.2607 38.6402C48.0874 38.8136 47.8522 38.911 47.607 38.911H21.085C20.8398 38.911 20.6047 38.8136 20.4313 38.6402C20.2579 38.4669 20.1605 38.2317 20.1605 37.9865C20.1605 37.7413 20.2579 37.5062 20.4313 37.3328C20.6047 37.1594 20.8398 37.062 21.085 37.062H47.607Z" fill="#E1177C"/>
<path d="M18.17 38.91C18.6803 38.91 19.094 38.4963 19.094 37.986C19.094 37.4757 18.6803 37.062 18.17 37.062C17.6597 37.062 17.246 37.4757 17.246 37.986C17.246 38.4963 17.6597 38.91 18.17 38.91Z" fill="#E1177C"/>
<path d="M42.061 33.72C42.3062 33.72 42.5413 33.8174 42.7147 33.9908C42.8881 34.1641 42.9855 34.3993 42.9855 34.6445C42.9855 34.8897 42.8881 35.1248 42.7147 35.2982C42.5413 35.4716 42.3062 35.569 42.061 35.569H15.539C15.2938 35.569 15.0587 35.4716 14.8853 35.2982C14.7119 35.1248 14.6145 34.8897 14.6145 34.6445C14.6145 34.3993 14.7119 34.1641 14.8853 33.9908C15.0587 33.8174 15.2938 33.72 15.539 33.72H42.061Z" fill="#E1177C"/>
<path d="M12.339 35.568C12.8494 35.568 13.263 35.1543 13.263 34.644C13.263 34.1337 12.8494 33.72 12.339 33.72C11.8287 33.72 11.415 34.1337 11.415 34.644C11.415 35.1543 11.8287 35.568 12.339 35.568Z" fill="#E1177C"/>
<path d="M18.17 32.1549C18.6803 32.1549 19.094 31.7412 19.094 31.2309C19.094 30.7206 18.6803 30.3069 18.17 30.3069C17.6597 30.3069 17.246 30.7206 17.246 31.2309C17.246 31.7412 17.6597 32.1549 18.17 32.1549Z" fill="#E1177C"/>
<path d="M50.167 30.3069C50.4122 30.3069 50.6474 30.4043 50.8208 30.5777C50.9941 30.751 51.0915 30.9862 51.0915 31.2314C51.0915 31.4766 50.9941 31.7117 50.8208 31.8851C50.6474 32.0585 50.4122 32.1559 50.167 32.1559H21.298C21.0528 32.1559 20.8177 32.0585 20.6443 31.8851C20.4709 31.7117 20.3735 31.4766 20.3735 31.2314C20.3735 30.9862 20.4709 30.751 20.6443 30.5777C20.8177 30.4043 21.0528 30.3069 21.298 30.3069H50.167Z" fill="#E1177C"/>
</g>
<defs>
<clipPath id="clip0_40_30377">
<rect width="64" height="64" fill="white"/>
</clipPath>
</defs>
</svg>
