<svg width="64" height="64" viewBox="0 0 64 64" fill="none" xmlns="http://www.w3.org/2000/svg">
<g clip-path="url(#clip0_40_30394)">
<path d="M32 64C49.6731 64 64 49.6731 64 32C64 14.3269 49.6731 0 32 0C14.3269 0 0 14.3269 0 32C0 49.6731 14.3269 64 32 64Z" fill="#1D1D1B"/>
<path d="M10.2295 44.8017C10.2295 44.8017 8.82722 53.0046 16.1316 54.4626C23.4359 55.9206 31.1623 51.691 36.8452 47.4394C42.5281 43.1878 48.095 36.8962 51.0376 30.9078C53.9803 24.9194 55.3831 18.2278 51.5182 14.3072C47.6533 10.3867 39.8179 12.8875 39.8179 12.8875C39.8179 12.8875 48.051 11.1043 50.5124 17.2098C52.9733 23.3154 46.9333 33.0864 46.9333 33.0864C46.9333 33.0864 41.9623 41.1635 33.3055 47.091C24.6487 53.0185 18.415 52.9211 15.6643 52.2574C12.9142 51.5942 10.0817 48.8904 10.2295 44.8017Z" fill="url(#paint0_linear_40_30394)"/>
<path d="M28.9229 48.0111H31.9496C32.3472 47.7572 32.749 47.4952 33.1577 47.2152C37.3739 44.3282 40.7125 40.9328 43.0319 38.2076V32.2268H28.5849V37.821H37.4377V42.4169H28.9229C24.229 42.4169 20.4098 38.5978 20.4098 33.9021C20.4098 29.2076 24.229 25.3885 28.9229 25.3885H43.0324V19.7937H28.9229C21.1443 19.7937 14.8151 26.123 14.8151 33.9027C14.8151 41.6818 21.1443 48.0111 28.9229 48.0111Z" fill="white"/>
<path d="M36.6974 47.5636C36.498 47.7132 36.2951 47.8621 36.0905 48.0111H43.0325V41.9126C41.0313 44.0071 38.8736 45.9358 36.6974 47.5636Z" fill="white"/>
<path d="M28.9229 48.0111H31.9496C32.3472 47.7572 32.749 47.4952 33.1577 47.2152C37.3739 44.3282 40.7125 40.9328 43.0319 38.2076V32.2268H28.5849V37.821H37.4377V42.4169H28.9229C24.229 42.4169 20.4098 38.5978 20.4098 33.9021C20.4098 29.2076 24.229 25.3885 28.9229 25.3885H43.0324V19.7937H28.9229C21.1443 19.7937 14.8151 26.123 14.8151 33.9027C14.8151 41.6818 21.1443 48.0111 28.9229 48.0111Z" fill="white"/>
<path d="M36.6974 47.5636C36.498 47.7132 36.2951 47.8621 36.0905 48.0111H43.0325V41.9126C41.0313 44.0071 38.8736 45.9358 36.6974 47.5636Z" fill="white"/>
<path d="M38.7165 14.6442C34.749 15.0117 30.8858 16.9503 27.6139 19.214C29.0295 19.094 31.2869 19.0123 34.5345 19.1972C34.9374 19.0216 35.3461 18.8523 35.7629 18.694C43.2446 15.8546 47.3449 19.4987 47.4962 23.0268C47.4962 23.0268 49.1843 13.6749 38.7165 14.6442Z" fill="url(#paint1_linear_40_30394)"/>
<path d="M16.1444 45.6272C16.1444 45.6272 15.2284 43.5779 16.3565 41.9124L14.5154 38.2678C14.5154 38.2678 11.5084 42.1309 13.1768 46.1373C13.1768 46.1373 13.2499 46.3304 13.4168 46.6295C14.1131 47.873 16.4458 50.9449 21.9803 49.5396C21.9803 49.5396 17.3015 49.2915 16.1444 45.6272Z" fill="url(#paint2_linear_40_30394)"/>
<path d="M16.9438 16.3002C17.3774 16.277 17.8603 16.2399 18.3965 16.179C18.3965 16.179 17.8215 16.1008 16.9386 16.0944C16.8922 15.9025 16.742 15.7605 16.5478 15.7239C16.5247 15.2903 16.4876 14.8074 16.4267 14.2712C16.4267 14.2712 16.3484 14.8463 16.342 15.7292C16.1513 15.7755 16.0093 15.9239 15.9722 16.117C15.5212 16.1419 15.0307 16.1877 14.52 16.2689C14.52 16.2689 15.0365 16.3361 15.9786 16.3297C16.0261 16.5187 16.1739 16.6584 16.3652 16.6955C16.3902 17.1465 16.4365 17.637 16.5171 18.1477C16.5171 18.1477 16.5844 17.6312 16.578 16.6892C16.767 16.6422 16.9073 16.4932 16.9438 16.3002Z" fill="url(#paint3_linear_40_30394)"/>
<path d="M20.9844 15.6637C21.2586 15.6492 21.56 15.6266 21.8991 15.5883C21.8991 15.5883 21.5333 15.5408 20.9809 15.5361C20.9519 15.4144 20.8568 15.324 20.7333 15.3008C20.7188 15.0266 20.6962 14.7251 20.658 14.386C20.658 14.386 20.6104 14.7518 20.6058 15.3043C20.4846 15.3332 20.3948 15.4272 20.371 15.5495C20.087 15.5651 19.778 15.5941 19.4562 15.6445C19.4562 15.6445 19.7844 15.6863 20.3751 15.6828C20.4046 15.8022 20.498 15.8903 20.6191 15.9135C20.6348 16.1976 20.6638 16.5066 20.7142 16.8283C20.7142 16.8283 20.7559 16.5002 20.7525 15.9095C20.873 15.8799 20.9617 15.786 20.9844 15.6637Z" fill="url(#paint4_linear_40_30394)"/>
<path d="M20.6197 19.8627C20.9739 19.8441 21.364 19.8152 21.8023 19.7653C21.8023 19.7653 21.3339 19.7015 20.6151 19.6963C20.5768 19.5398 20.4545 19.4239 20.2956 19.3943C20.2771 19.0401 20.2481 18.6499 20.1982 18.2117C20.1982 18.2117 20.1345 18.6801 20.1293 19.3989C19.9739 19.4366 19.8585 19.5578 19.8278 19.7149C19.4603 19.7352 19.0609 19.7728 18.6452 19.8383C18.6452 19.8383 19.069 19.8923 19.8324 19.8876C19.8713 20.0418 19.9913 20.156 20.1478 20.1862C20.1681 20.5537 20.2058 20.9531 20.2713 21.3688C20.2713 21.3688 20.3252 20.945 20.3206 20.1815C20.4759 20.1427 20.5907 20.021 20.6197 19.8627Z" fill="url(#paint5_linear_40_30394)"/>
<path d="M27.178 29.8244C27.5322 29.8058 27.9223 29.7768 28.3606 29.727C28.3606 29.727 27.8922 29.6632 27.1733 29.658C27.1351 29.5015 27.0128 29.3855 26.8539 29.3559C26.8354 29.0017 26.8064 28.6116 26.7565 28.1733C26.7565 28.1733 26.6928 28.6417 26.6875 29.3606C26.5322 29.3983 26.4168 29.5194 26.3861 29.6765C26.0186 29.6968 25.6191 29.7345 25.2035 29.8C25.2035 29.8 25.6273 29.8539 26.3907 29.8493C26.429 30.0035 26.5496 30.1177 26.7061 30.1478C26.7264 30.5154 26.7641 30.9148 26.8296 31.3304C26.8296 31.3304 26.8835 30.9067 26.8789 30.1432C27.0342 30.1038 27.149 29.982 27.178 29.8244Z" fill="url(#paint6_linear_40_30394)"/>
<path d="M11.502 23.31C11.7252 23.2984 11.971 23.2799 12.247 23.2486C12.247 23.2486 11.949 23.2097 11.4991 23.2063C11.4754 23.1071 11.3983 23.0335 11.2974 23.015C11.2858 22.7918 11.2672 22.546 11.2359 22.27C11.2359 22.27 11.1971 22.568 11.1936 23.0179C11.0951 23.041 11.0214 23.1181 11.0023 23.2173C10.771 23.23 10.5194 23.2532 10.2574 23.295C10.2574 23.295 10.5246 23.3286 11.0052 23.3257C11.0296 23.4231 11.1055 23.495 11.2041 23.5141C11.2168 23.7454 11.24 23.997 11.2817 24.259C11.2817 24.259 11.3159 23.9918 11.3125 23.5106C11.411 23.4863 11.4835 23.4097 11.502 23.31Z" fill="url(#paint7_linear_40_30394)"/>
<path d="M13.2702 33.3601C13.4933 33.3485 13.7391 33.3299 14.0151 33.2986C14.0151 33.2986 13.7171 33.2598 13.2673 33.2563C13.2435 33.1572 13.1664 33.0836 13.0655 33.065C13.0539 32.8418 13.0354 32.596 13.0041 32.3201C13.0041 32.3201 12.9652 32.6181 12.9617 33.0679C12.8632 33.0911 12.7896 33.1682 12.7704 33.2673C12.5391 33.2801 12.2875 33.3033 12.0255 33.345C12.0255 33.345 12.2928 33.3786 12.7733 33.3757C12.7977 33.4731 12.8736 33.545 12.9722 33.5636C12.9849 33.7949 13.0081 34.0465 13.0499 34.3085C13.0499 34.3085 13.0835 34.0413 13.0806 33.5601C13.1797 33.5369 13.2522 33.4598 13.2702 33.3601Z" fill="url(#paint8_linear_40_30394)"/>
<path d="M31.1003 11.3415C31.5484 11.3178 32.0482 11.2789 32.6024 11.2163C32.6024 11.2163 32.0076 11.1351 31.0951 11.1288C31.047 10.9305 30.8922 10.7833 30.6916 10.7456C30.6679 10.2975 30.629 9.79777 30.5664 9.24414C30.5664 9.24414 30.4853 9.83893 30.4789 10.7514C30.2818 10.7995 30.1351 10.9531 30.0963 11.1525C29.6302 11.178 29.1229 11.2262 28.5948 11.3096C28.5948 11.3096 29.1293 11.3792 30.1026 11.3728C30.1519 11.5682 30.3044 11.7125 30.5026 11.7508C30.5282 12.2169 30.5763 12.7241 30.6592 13.2522C30.6592 13.2522 30.7287 12.7178 30.7224 11.7444C30.9177 11.6946 31.0626 11.5409 31.1003 11.3415Z" fill="url(#paint9_linear_40_30394)"/>
<path d="M26.309 10.3758C26.5702 10.3758 26.782 10.164 26.782 9.90273C26.782 9.64147 26.5702 9.42969 26.309 9.42969C26.0477 9.42969 25.8359 9.64147 25.8359 9.90273C25.8359 10.164 26.0477 10.3758 26.309 10.3758Z" fill="url(#paint10_linear_40_30394)"/>
<path d="M28.5316 14.9445C28.6971 14.9445 28.8313 14.8103 28.8313 14.6448C28.8313 14.4792 28.6971 14.345 28.5316 14.345C28.3661 14.345 28.2319 14.4792 28.2319 14.6448C28.2319 14.8103 28.3661 14.9445 28.5316 14.9445Z" fill="url(#paint11_linear_40_30394)"/>
<path d="M10.2655 31.2678C10.4929 31.2678 10.6771 31.0835 10.6771 30.8562C10.6771 30.6289 10.4929 30.4446 10.2655 30.4446C10.0382 30.4446 9.85394 30.6289 9.85394 30.8562C9.85394 31.0835 10.0382 31.2678 10.2655 31.2678Z" fill="url(#paint12_linear_40_30394)"/>
<path d="M11.6417 35.9704C11.9203 35.9704 12.1461 35.7446 12.1461 35.4661C12.1461 35.1875 11.9203 34.9617 11.6417 34.9617C11.3632 34.9617 11.1374 35.1875 11.1374 35.4661C11.1374 35.7446 11.3632 35.9704 11.6417 35.9704Z" fill="url(#paint13_linear_40_30394)"/>
<path d="M13.0493 38.4532C13.1972 38.4532 13.3171 38.3333 13.3171 38.1854C13.3171 38.0375 13.1972 37.9175 13.0493 37.9175C12.9013 37.9175 12.7814 38.0375 12.7814 38.1854C12.7814 38.3333 12.9013 38.4532 13.0493 38.4532Z" fill="url(#paint14_linear_40_30394)"/>
<path d="M12.9061 28.6152C13.1334 28.6152 13.3177 28.4309 13.3177 28.2036C13.3177 27.9763 13.1334 27.792 12.9061 27.792C12.6788 27.792 12.4945 27.9763 12.4945 28.2036C12.4945 28.4309 12.6788 28.6152 12.9061 28.6152Z" fill="url(#paint15_linear_40_30394)"/>
<path d="M15.9531 23.7913C16.101 23.7913 16.2209 23.6714 16.2209 23.5235C16.2209 23.3756 16.101 23.2556 15.9531 23.2556C15.8052 23.2556 15.6852 23.3756 15.6852 23.5235C15.6852 23.6714 15.8052 23.7913 15.9531 23.7913Z" fill="url(#paint16_linear_40_30394)"/>
<path d="M24.418 29.7717C24.6696 29.7717 24.8736 29.5677 24.8736 29.316C24.8736 29.0644 24.6696 28.8604 24.418 28.8604C24.1663 28.8604 23.9623 29.0644 23.9623 29.316C23.9623 29.5677 24.1663 29.7717 24.418 29.7717Z" fill="url(#paint17_linear_40_30394)"/>
<path d="M27.7264 27.2134C27.8394 27.2134 27.9311 27.1218 27.9311 27.0088C27.9311 26.8958 27.8394 26.8042 27.7264 26.8042C27.6134 26.8042 27.5218 26.8958 27.5218 27.0088C27.5218 27.1218 27.6134 27.2134 27.7264 27.2134Z" fill="url(#paint18_linear_40_30394)"/>
</g>
<defs>
<linearGradient id="paint0_linear_40_30394" x1="9.83082" y1="33.9447" x2="54.1647" y2="32.9158" gradientUnits="userSpaceOnUse">
<stop stop-color="#1EB0A0"/>
<stop offset="0.4202" stop-color="#00B4E1"/>
<stop offset="0.6324" stop-color="#258EC7"/>
<stop offset="1" stop-color="#6C4493"/>
</linearGradient>
<linearGradient id="paint1_linear_40_30394" x1="44.1589" y1="15.0995" x2="34.5384" y2="23.8711" gradientUnits="userSpaceOnUse">
<stop stop-color="#1EB0A0"/>
<stop offset="0.4202" stop-color="#00B4E1"/>
<stop offset="0.6324" stop-color="#258EC7"/>
<stop offset="1" stop-color="#6C4493"/>
</linearGradient>
<linearGradient id="paint2_linear_40_30394" x1="24.9428" y1="46.3774" x2="13.5537" y2="43.3266" gradientUnits="userSpaceOnUse">
<stop stop-color="#1EB0A0"/>
<stop offset="0.4202" stop-color="#00B4E1"/>
<stop offset="0.6324" stop-color="#258EC7"/>
<stop offset="1" stop-color="#6C4493"/>
</linearGradient>
<linearGradient id="paint3_linear_40_30394" x1="16.4577" y1="14.2714" x2="16.4577" y2="18.1482" gradientUnits="userSpaceOnUse">
<stop stop-color="#1EB0A0"/>
<stop offset="0.4202" stop-color="#00B4E1"/>
<stop offset="0.6324" stop-color="#258EC7"/>
<stop offset="1" stop-color="#6C4493"/>
</linearGradient>
<linearGradient id="paint4_linear_40_30394" x1="20.678" y1="14.3862" x2="20.678" y2="16.8289" gradientUnits="userSpaceOnUse">
<stop stop-color="#1EB0A0"/>
<stop offset="0.4202" stop-color="#00B4E1"/>
<stop offset="0.6324" stop-color="#258EC7"/>
<stop offset="1" stop-color="#6C4493"/>
</linearGradient>
<linearGradient id="paint5_linear_40_30394" x1="20.2237" y1="18.2119" x2="20.2237" y2="21.369" gradientUnits="userSpaceOnUse">
<stop stop-color="#1EB0A0"/>
<stop offset="0.4202" stop-color="#00B4E1"/>
<stop offset="0.6324" stop-color="#258EC7"/>
<stop offset="1" stop-color="#6C4493"/>
</linearGradient>
<linearGradient id="paint6_linear_40_30394" x1="26.7819" y1="28.1732" x2="26.7819" y2="31.3303" gradientUnits="userSpaceOnUse">
<stop stop-color="#1EB0A0"/>
<stop offset="0.4202" stop-color="#00B4E1"/>
<stop offset="0.6324" stop-color="#258EC7"/>
<stop offset="1" stop-color="#6C4493"/>
</linearGradient>
<linearGradient id="paint7_linear_40_30394" x1="11.2523" y1="22.2698" x2="11.2523" y2="24.259" gradientUnits="userSpaceOnUse">
<stop stop-color="#1EB0A0"/>
<stop offset="0.4202" stop-color="#00B4E1"/>
<stop offset="0.6324" stop-color="#258EC7"/>
<stop offset="1" stop-color="#6C4493"/>
</linearGradient>
<linearGradient id="paint8_linear_40_30394" x1="13.0209" y1="32.3201" x2="13.0209" y2="34.3093" gradientUnits="userSpaceOnUse">
<stop stop-color="#1EB0A0"/>
<stop offset="0.4202" stop-color="#00B4E1"/>
<stop offset="0.6324" stop-color="#258EC7"/>
<stop offset="1" stop-color="#6C4493"/>
</linearGradient>
<linearGradient id="paint9_linear_40_30394" x1="30.5978" y1="9.24375" x2="30.5978" y2="13.2518" gradientUnits="userSpaceOnUse">
<stop stop-color="#1EB0A0"/>
<stop offset="0.4202" stop-color="#00B4E1"/>
<stop offset="0.6324" stop-color="#258EC7"/>
<stop offset="1" stop-color="#6C4493"/>
</linearGradient>
<linearGradient id="paint10_linear_40_30394" x1="26.7812" y1="9.89058" x2="25.8356" y2="9.91252" gradientUnits="userSpaceOnUse">
<stop stop-color="#1EB0A0"/>
<stop offset="0.4202" stop-color="#00B4E1"/>
<stop offset="0.6324" stop-color="#258EC7"/>
<stop offset="1" stop-color="#6C4493"/>
</linearGradient>
<linearGradient id="paint11_linear_40_30394" x1="28.8307" y1="14.6362" x2="28.2318" y2="14.6501" gradientUnits="userSpaceOnUse">
<stop stop-color="#1EB0A0"/>
<stop offset="0.4202" stop-color="#00B4E1"/>
<stop offset="0.6324" stop-color="#258EC7"/>
<stop offset="1" stop-color="#6C4493"/>
</linearGradient>
<linearGradient id="paint12_linear_40_30394" x1="10.6774" y1="30.8454" x2="9.85475" y2="30.8644" gradientUnits="userSpaceOnUse">
<stop stop-color="#1EB0A0"/>
<stop offset="0.4202" stop-color="#00B4E1"/>
<stop offset="0.6324" stop-color="#258EC7"/>
<stop offset="1" stop-color="#6C4493"/>
</linearGradient>
<linearGradient id="paint13_linear_40_30394" x1="12.1465" y1="35.4526" x2="11.138" y2="35.476" gradientUnits="userSpaceOnUse">
<stop stop-color="#1EB0A0"/>
<stop offset="0.4202" stop-color="#00B4E1"/>
<stop offset="0.6324" stop-color="#258EC7"/>
<stop offset="1" stop-color="#6C4493"/>
</linearGradient>
<linearGradient id="paint14_linear_40_30394" x1="13.3182" y1="38.1776" x2="12.7824" y2="38.19" gradientUnits="userSpaceOnUse">
<stop stop-color="#1EB0A0"/>
<stop offset="0.4202" stop-color="#00B4E1"/>
<stop offset="0.6324" stop-color="#258EC7"/>
<stop offset="1" stop-color="#6C4493"/>
</linearGradient>
<linearGradient id="paint15_linear_40_30394" x1="12.8774" y1="28.6155" x2="12.9442" y2="27.7953" gradientUnits="userSpaceOnUse">
<stop stop-color="#1EB0A0"/>
<stop offset="0.4202" stop-color="#00B4E1"/>
<stop offset="0.6324" stop-color="#258EC7"/>
<stop offset="1" stop-color="#6C4493"/>
</linearGradient>
<linearGradient id="paint16_linear_40_30394" x1="15.9359" y1="23.7923" x2="15.9793" y2="23.2581" gradientUnits="userSpaceOnUse">
<stop stop-color="#1EB0A0"/>
<stop offset="0.4202" stop-color="#00B4E1"/>
<stop offset="0.6324" stop-color="#258EC7"/>
<stop offset="1" stop-color="#6C4493"/>
</linearGradient>
<linearGradient id="paint17_linear_40_30394" x1="24.8735" y1="29.3038" x2="23.9626" y2="29.3249" gradientUnits="userSpaceOnUse">
<stop stop-color="#1EB0A0"/>
<stop offset="0.4202" stop-color="#00B4E1"/>
<stop offset="0.6324" stop-color="#258EC7"/>
<stop offset="1" stop-color="#6C4493"/>
</linearGradient>
<linearGradient id="paint18_linear_40_30394" x1="27.931" y1="27.0021" x2="27.5224" y2="27.0116" gradientUnits="userSpaceOnUse">
<stop stop-color="#1EB0A0"/>
<stop offset="0.4202" stop-color="#00B4E1"/>
<stop offset="0.6324" stop-color="#258EC7"/>
<stop offset="1" stop-color="#6C4493"/>
</linearGradient>
<clipPath id="clip0_40_30394">
<rect width="64" height="64" fill="white"/>
</clipPath>
</defs>
</svg>
