<svg width="64" height="64" viewBox="0 0 64 64" fill="none" xmlns="http://www.w3.org/2000/svg">
<path d="M32 64C49.6731 64 64 49.6731 64 32C64 14.3269 49.6731 0 32 0C14.3269 0 0 14.3269 0 32C0 49.6731 14.3269 64 32 64Z" fill="#1D1D1B"/>
<path d="M10.2295 44.8017C10.2295 44.8017 8.8272 53.0046 16.1316 54.4626C23.4359 55.9206 31.1623 51.691 36.8452 47.4394C42.5281 43.1878 48.095 36.8962 51.0376 30.9078C53.9803 24.9194 55.3831 18.2278 51.5182 14.3072C47.6533 10.3867 39.8179 12.8875 39.8179 12.8875C39.8179 12.8875 48.051 11.1043 50.5124 17.2098C52.9733 23.3154 46.9333 33.0864 46.9333 33.0864C46.9333 33.0864 41.9623 41.1635 33.3055 47.091C24.6487 53.0185 18.415 52.9211 15.6643 52.2574C12.9142 51.5942 10.0817 48.8904 10.2295 44.8017Z" fill="url(#paint0_linear_6_142)"/>
<path d="M28.9229 48.011H31.9496C32.3472 47.7571 32.749 47.4951 33.1577 47.2151C37.3739 44.3281 40.7125 40.9327 43.0319 38.2075V32.2267H28.5849V37.8209H37.4377V42.4168H28.9229C24.229 42.4168 20.4098 38.5977 20.4098 33.902C20.4098 29.2075 24.229 25.3884 28.9229 25.3884H43.0324V19.7936H28.9229C21.1443 19.7936 14.8151 26.1229 14.8151 33.9026C14.8151 41.6817 21.1443 48.011 28.9229 48.011Z" fill="white"/>
<path d="M36.6974 47.5635C36.498 47.7131 36.2951 47.862 36.0905 48.011H43.0325V41.9125C41.0313 44.007 38.8736 45.9357 36.6974 47.5635Z" fill="white"/>
<path d="M28.9229 48.011H31.9496C32.3472 47.7571 32.749 47.4951 33.1577 47.2151C37.3739 44.3281 40.7125 40.9327 43.0319 38.2075V32.2267H28.5849V37.8209H37.4377V42.4168H28.9229C24.229 42.4168 20.4098 38.5977 20.4098 33.902C20.4098 29.2075 24.229 25.3884 28.9229 25.3884H43.0324V19.7936H28.9229C21.1443 19.7936 14.8151 26.1229 14.8151 33.9026C14.8151 41.6817 21.1443 48.011 28.9229 48.011Z" fill="white"/>
<path d="M36.6974 47.5635C36.498 47.7131 36.2951 47.862 36.0905 48.011H43.0325V41.9125C41.0313 44.007 38.8736 45.9357 36.6974 47.5635Z" fill="white"/>
<path d="M38.7165 14.6441C34.749 15.0116 30.8858 16.9502 27.6139 19.2139C29.0295 19.0939 31.2869 19.0122 34.5345 19.1971C34.9374 19.0215 35.3461 18.8522 35.7629 18.6939C43.2446 15.8545 47.3449 19.4986 47.4962 23.0267C47.4968 23.0267 49.1843 13.6748 38.7165 14.6441Z" fill="url(#paint1_linear_6_142)"/>
<path d="M16.1444 45.6273C16.1444 45.6273 15.2284 43.578 16.3565 41.9125L14.5154 38.2679C14.5154 38.2679 11.5084 42.131 13.1768 46.1374C13.1768 46.1374 13.2499 46.3305 13.4168 46.6296C14.1131 47.8731 16.4458 50.945 21.9803 49.5397C21.9803 49.5403 17.3015 49.2916 16.1444 45.6273Z" fill="url(#paint2_linear_6_142)"/>
<path d="M16.9438 16.3003C17.3774 16.2771 17.8603 16.24 18.3965 16.1791C18.3965 16.1791 17.8215 16.1009 16.9386 16.0945C16.8922 15.9026 16.742 15.7606 16.5478 15.724C16.5247 15.2904 16.4876 14.8075 16.4267 14.2713C16.4267 14.2713 16.3484 14.8464 16.342 15.7293C16.1513 15.7756 16.0093 15.924 15.9722 16.1171C15.5212 16.142 15.0307 16.1878 14.52 16.269C14.52 16.269 15.0365 16.3362 15.9786 16.3298C16.0261 16.5188 16.1739 16.6585 16.3652 16.6956C16.3902 17.1466 16.4365 17.6371 16.5171 18.1478C16.5171 18.1478 16.5844 17.6313 16.578 16.6893C16.767 16.6423 16.9073 16.4933 16.9438 16.3003Z" fill="url(#paint3_linear_6_142)"/>
<path d="M20.9844 15.6638C21.2586 15.6493 21.56 15.6267 21.8991 15.5884C21.8991 15.5884 21.5333 15.5409 20.9809 15.5362C20.9519 15.4145 20.8568 15.3241 20.7333 15.3009C20.7188 15.0267 20.6962 14.7252 20.658 14.3861C20.658 14.3861 20.6104 14.7519 20.6058 15.3044C20.4846 15.3333 20.3948 15.4273 20.371 15.5496C20.087 15.5652 19.778 15.5942 19.4562 15.6446C19.4562 15.6446 19.7844 15.6864 20.3751 15.6829C20.4046 15.8023 20.498 15.8904 20.6191 15.9136C20.6348 16.1977 20.6638 16.5067 20.7142 16.8284C20.7142 16.8284 20.7559 16.5003 20.7525 15.9096C20.873 15.88 20.9617 15.7861 20.9844 15.6638Z" fill="url(#paint4_linear_6_142)"/>
<path d="M20.6197 19.8626C20.9739 19.844 21.364 19.8151 21.8023 19.7652C21.8023 19.7652 21.3339 19.7014 20.6151 19.6962C20.5768 19.5397 20.4545 19.4238 20.2956 19.3942C20.2771 19.04 20.2481 18.6498 20.1982 18.2116C20.1982 18.2116 20.1345 18.68 20.1293 19.3988C19.9739 19.4365 19.8585 19.5577 19.8278 19.7148C19.4603 19.7351 19.0609 19.7727 18.6452 19.8382C18.6452 19.8382 19.069 19.8922 19.8324 19.8875C19.8713 20.0417 19.9913 20.1559 20.1478 20.1861C20.1681 20.5536 20.2058 20.953 20.2713 21.3687C20.2713 21.3687 20.3252 20.9449 20.3206 20.1814C20.4759 20.1426 20.5907 20.0209 20.6197 19.8626Z" fill="url(#paint5_linear_6_142)"/>
<path d="M27.178 29.8244C27.5322 29.8058 27.9223 29.7768 28.3606 29.727C28.3606 29.727 27.8922 29.6632 27.1733 29.658C27.1351 29.5015 27.0128 29.3855 26.8539 29.3559C26.8354 29.0017 26.8064 28.6116 26.7565 28.1733C26.7565 28.1733 26.6928 28.6417 26.6875 29.3606C26.5322 29.3983 26.4168 29.5194 26.3861 29.6765C26.0186 29.6968 25.6191 29.7345 25.2035 29.8C25.2035 29.8 25.6273 29.8539 26.3907 29.8493C26.429 30.0035 26.5496 30.1177 26.7061 30.1478C26.7264 30.5154 26.7641 30.9148 26.8296 31.3304C26.8296 31.3304 26.8835 30.9067 26.8789 30.1432C27.0342 30.1038 27.149 29.982 27.178 29.8244Z" fill="url(#paint6_linear_6_142)"/>
<path d="M11.502 23.3101C11.7252 23.2985 11.971 23.28 12.247 23.2487C12.247 23.2487 11.949 23.2098 11.4991 23.2064C11.4754 23.1072 11.3983 23.0336 11.2974 23.0151C11.2858 22.7919 11.2672 22.5461 11.2359 22.2701C11.2359 22.2701 11.1971 22.5681 11.1936 23.018C11.0951 23.0411 11.0214 23.1182 11.0023 23.2174C10.771 23.2301 10.5194 23.2533 10.2574 23.2951C10.2574 23.2951 10.5246 23.3287 11.0052 23.3258C11.0296 23.4232 11.1055 23.4951 11.2041 23.5142C11.2168 23.7455 11.24 23.9971 11.2817 24.2591C11.2817 24.2591 11.3159 23.9919 11.3125 23.5107C11.411 23.4864 11.4835 23.4098 11.502 23.3101Z" fill="url(#paint7_linear_6_142)"/>
<path d="M13.2702 33.36C13.4933 33.3484 13.7391 33.3298 14.0151 33.2985C14.0151 33.2985 13.7171 33.2597 13.2673 33.2562C13.2435 33.1571 13.1664 33.0835 13.0655 33.0649C13.0539 32.8417 13.0354 32.5959 13.0041 32.32C13.0041 32.32 12.9652 32.618 12.9617 33.0678C12.8632 33.091 12.7896 33.1681 12.7704 33.2672C12.5391 33.28 12.2875 33.3032 12.0255 33.3449C12.0255 33.3449 12.2928 33.3785 12.7733 33.3756C12.7977 33.473 12.8736 33.5449 12.9722 33.5635C12.9849 33.7948 13.0081 34.0464 13.0499 34.3084C13.0499 34.3084 13.0835 34.0412 13.0806 33.56C13.1797 33.5368 13.2522 33.4597 13.2702 33.36Z" fill="url(#paint8_linear_6_142)"/>
<path d="M31.1003 11.3414C31.5484 11.3177 32.0482 11.2788 32.6024 11.2162C32.6024 11.2162 32.0076 11.135 31.0951 11.1287C31.047 10.9304 30.8922 10.7832 30.6916 10.7455C30.6679 10.2974 30.629 9.79766 30.5664 9.24403C30.5664 9.24403 30.4853 9.83882 30.4789 10.7513C30.2818 10.7994 30.1351 10.953 30.0963 11.1524C29.6302 11.1779 29.1229 11.2261 28.5948 11.3095C28.5948 11.3095 29.1293 11.3791 30.1026 11.3727C30.1519 11.5681 30.3044 11.7124 30.5026 11.7507C30.5282 12.2168 30.5763 12.724 30.6592 13.2521C30.6592 13.2521 30.7287 12.7177 30.7224 11.7443C30.9177 11.6945 31.0626 11.5408 31.1003 11.3414Z" fill="url(#paint9_linear_6_142)"/>
<path d="M26.309 10.3757C26.5702 10.3757 26.782 10.1639 26.782 9.90261C26.782 9.64135 26.5702 9.42957 26.309 9.42957C26.0477 9.42957 25.8359 9.64135 25.8359 9.90261C25.8359 10.1639 26.0477 10.3757 26.309 10.3757Z" fill="url(#paint10_linear_6_142)"/>
<path d="M28.5316 14.9444C28.6971 14.9444 28.8313 14.8102 28.8313 14.6447C28.8313 14.4791 28.6971 14.3449 28.5316 14.3449C28.3661 14.3449 28.2319 14.4791 28.2319 14.6447C28.2319 14.8102 28.3661 14.9444 28.5316 14.9444Z" fill="url(#paint11_linear_6_142)"/>
<path d="M10.2655 31.2678C10.4929 31.2678 10.6771 31.0835 10.6771 30.8562C10.6771 30.6289 10.4929 30.4446 10.2655 30.4446C10.0382 30.4446 9.85394 30.6289 9.85394 30.8562C9.85394 31.0835 10.0382 31.2678 10.2655 31.2678Z" fill="url(#paint12_linear_6_142)"/>
<path d="M11.6417 35.9704C11.9203 35.9704 12.1461 35.7446 12.1461 35.4661C12.1461 35.1875 11.9203 34.9617 11.6417 34.9617C11.3632 34.9617 11.1374 35.1875 11.1374 35.4661C11.1374 35.7446 11.3632 35.9704 11.6417 35.9704Z" fill="url(#paint13_linear_6_142)"/>
<path d="M13.0493 38.4533C13.1972 38.4533 13.3171 38.3334 13.3171 38.1855C13.3171 38.0376 13.1972 37.9176 13.0493 37.9176C12.9013 37.9176 12.7814 38.0376 12.7814 38.1855C12.7814 38.3334 12.9013 38.4533 13.0493 38.4533Z" fill="url(#paint14_linear_6_142)"/>
<path d="M12.9061 28.6151C13.1334 28.6151 13.3177 28.4308 13.3177 28.2035C13.3177 27.9762 13.1334 27.7919 12.9061 27.7919C12.6788 27.7919 12.4945 27.9762 12.4945 28.2035C12.4945 28.4308 12.6788 28.6151 12.9061 28.6151Z" fill="url(#paint15_linear_6_142)"/>
<path d="M15.9531 23.7913C16.101 23.7913 16.2209 23.6714 16.2209 23.5235C16.2209 23.3756 16.101 23.2556 15.9531 23.2556C15.8052 23.2556 15.6852 23.3756 15.6852 23.5235C15.6852 23.6714 15.8052 23.7913 15.9531 23.7913Z" fill="url(#paint16_linear_6_142)"/>
<path d="M24.418 29.7716C24.6696 29.7716 24.8736 29.5676 24.8736 29.3159C24.8736 29.0643 24.6696 28.8603 24.418 28.8603C24.1663 28.8603 23.9623 29.0643 23.9623 29.3159C23.9623 29.5676 24.1663 29.7716 24.418 29.7716Z" fill="url(#paint17_linear_6_142)"/>
<path d="M27.7264 27.2133C27.8394 27.2133 27.9311 27.1217 27.9311 27.0087C27.9311 26.8957 27.8394 26.8041 27.7264 26.8041C27.6134 26.8041 27.5218 26.8957 27.5218 27.0087C27.5218 27.1217 27.6134 27.2133 27.7264 27.2133Z" fill="url(#paint18_linear_6_142)"/>
<defs>
<linearGradient id="paint0_linear_6_142" x1="9.8308" y1="33.9447" x2="54.1647" y2="32.9158" gradientUnits="userSpaceOnUse">
<stop stop-color="#1EB0A0"/>
<stop offset="0.4202" stop-color="#00B4E1"/>
<stop offset="0.6324" stop-color="#258EC7"/>
<stop offset="1" stop-color="#6C4493"/>
</linearGradient>
<linearGradient id="paint1_linear_6_142" x1="44.1589" y1="15.0994" x2="34.5384" y2="23.871" gradientUnits="userSpaceOnUse">
<stop stop-color="#1EB0A0"/>
<stop offset="0.4202" stop-color="#00B4E1"/>
<stop offset="0.6324" stop-color="#258EC7"/>
<stop offset="1" stop-color="#6C4493"/>
</linearGradient>
<linearGradient id="paint2_linear_6_142" x1="24.9428" y1="46.3775" x2="13.5537" y2="43.3267" gradientUnits="userSpaceOnUse">
<stop stop-color="#1EB0A0"/>
<stop offset="0.4202" stop-color="#00B4E1"/>
<stop offset="0.6324" stop-color="#258EC7"/>
<stop offset="1" stop-color="#6C4493"/>
</linearGradient>
<linearGradient id="paint3_linear_6_142" x1="16.4577" y1="14.2715" x2="16.4577" y2="18.1483" gradientUnits="userSpaceOnUse">
<stop stop-color="#1EB0A0"/>
<stop offset="0.4202" stop-color="#00B4E1"/>
<stop offset="0.6324" stop-color="#258EC7"/>
<stop offset="1" stop-color="#6C4493"/>
</linearGradient>
<linearGradient id="paint4_linear_6_142" x1="20.678" y1="14.3863" x2="20.678" y2="16.829" gradientUnits="userSpaceOnUse">
<stop stop-color="#1EB0A0"/>
<stop offset="0.4202" stop-color="#00B4E1"/>
<stop offset="0.6324" stop-color="#258EC7"/>
<stop offset="1" stop-color="#6C4493"/>
</linearGradient>
<linearGradient id="paint5_linear_6_142" x1="20.2237" y1="18.2118" x2="20.2237" y2="21.3689" gradientUnits="userSpaceOnUse">
<stop stop-color="#1EB0A0"/>
<stop offset="0.4202" stop-color="#00B4E1"/>
<stop offset="0.6324" stop-color="#258EC7"/>
<stop offset="1" stop-color="#6C4493"/>
</linearGradient>
<linearGradient id="paint6_linear_6_142" x1="26.7819" y1="28.1732" x2="26.7819" y2="31.3303" gradientUnits="userSpaceOnUse">
<stop stop-color="#1EB0A0"/>
<stop offset="0.4202" stop-color="#00B4E1"/>
<stop offset="0.6324" stop-color="#258EC7"/>
<stop offset="1" stop-color="#6C4493"/>
</linearGradient>
<linearGradient id="paint7_linear_6_142" x1="11.2523" y1="22.2699" x2="11.2523" y2="24.2591" gradientUnits="userSpaceOnUse">
<stop stop-color="#1EB0A0"/>
<stop offset="0.4202" stop-color="#00B4E1"/>
<stop offset="0.6324" stop-color="#258EC7"/>
<stop offset="1" stop-color="#6C4493"/>
</linearGradient>
<linearGradient id="paint8_linear_6_142" x1="13.0209" y1="32.32" x2="13.0209" y2="34.3092" gradientUnits="userSpaceOnUse">
<stop stop-color="#1EB0A0"/>
<stop offset="0.4202" stop-color="#00B4E1"/>
<stop offset="0.6324" stop-color="#258EC7"/>
<stop offset="1" stop-color="#6C4493"/>
</linearGradient>
<linearGradient id="paint9_linear_6_142" x1="30.5978" y1="9.24364" x2="30.5978" y2="13.2517" gradientUnits="userSpaceOnUse">
<stop stop-color="#1EB0A0"/>
<stop offset="0.4202" stop-color="#00B4E1"/>
<stop offset="0.6324" stop-color="#258EC7"/>
<stop offset="1" stop-color="#6C4493"/>
</linearGradient>
<linearGradient id="paint10_linear_6_142" x1="26.7812" y1="9.89046" x2="25.8356" y2="9.9124" gradientUnits="userSpaceOnUse">
<stop stop-color="#1EB0A0"/>
<stop offset="0.4202" stop-color="#00B4E1"/>
<stop offset="0.6324" stop-color="#258EC7"/>
<stop offset="1" stop-color="#6C4493"/>
</linearGradient>
<linearGradient id="paint11_linear_6_142" x1="28.8307" y1="14.6361" x2="28.2318" y2="14.65" gradientUnits="userSpaceOnUse">
<stop stop-color="#1EB0A0"/>
<stop offset="0.4202" stop-color="#00B4E1"/>
<stop offset="0.6324" stop-color="#258EC7"/>
<stop offset="1" stop-color="#6C4493"/>
</linearGradient>
<linearGradient id="paint12_linear_6_142" x1="10.6774" y1="30.8454" x2="9.85475" y2="30.8644" gradientUnits="userSpaceOnUse">
<stop stop-color="#1EB0A0"/>
<stop offset="0.4202" stop-color="#00B4E1"/>
<stop offset="0.6324" stop-color="#258EC7"/>
<stop offset="1" stop-color="#6C4493"/>
</linearGradient>
<linearGradient id="paint13_linear_6_142" x1="12.1465" y1="35.4526" x2="11.138" y2="35.476" gradientUnits="userSpaceOnUse">
<stop stop-color="#1EB0A0"/>
<stop offset="0.4202" stop-color="#00B4E1"/>
<stop offset="0.6324" stop-color="#258EC7"/>
<stop offset="1" stop-color="#6C4493"/>
</linearGradient>
<linearGradient id="paint14_linear_6_142" x1="13.3182" y1="38.1777" x2="12.7824" y2="38.1901" gradientUnits="userSpaceOnUse">
<stop stop-color="#1EB0A0"/>
<stop offset="0.4202" stop-color="#00B4E1"/>
<stop offset="0.6324" stop-color="#258EC7"/>
<stop offset="1" stop-color="#6C4493"/>
</linearGradient>
<linearGradient id="paint15_linear_6_142" x1="12.8774" y1="28.6154" x2="12.9442" y2="27.7952" gradientUnits="userSpaceOnUse">
<stop stop-color="#1EB0A0"/>
<stop offset="0.4202" stop-color="#00B4E1"/>
<stop offset="0.6324" stop-color="#258EC7"/>
<stop offset="1" stop-color="#6C4493"/>
</linearGradient>
<linearGradient id="paint16_linear_6_142" x1="15.9359" y1="23.7923" x2="15.9793" y2="23.2581" gradientUnits="userSpaceOnUse">
<stop stop-color="#1EB0A0"/>
<stop offset="0.4202" stop-color="#00B4E1"/>
<stop offset="0.6324" stop-color="#258EC7"/>
<stop offset="1" stop-color="#6C4493"/>
</linearGradient>
<linearGradient id="paint17_linear_6_142" x1="24.8735" y1="29.3037" x2="23.9626" y2="29.3248" gradientUnits="userSpaceOnUse">
<stop stop-color="#1EB0A0"/>
<stop offset="0.4202" stop-color="#00B4E1"/>
<stop offset="0.6324" stop-color="#258EC7"/>
<stop offset="1" stop-color="#6C4493"/>
</linearGradient>
<linearGradient id="paint18_linear_6_142" x1="27.931" y1="27.002" x2="27.5224" y2="27.0115" gradientUnits="userSpaceOnUse">
<stop stop-color="#1EB0A0"/>
<stop offset="0.4202" stop-color="#00B4E1"/>
<stop offset="0.6324" stop-color="#258EC7"/>
<stop offset="1" stop-color="#6C4493"/>
</linearGradient>
</defs>
</svg>
