<?xml version="1.0" encoding="utf-8"?>
<!-- Generator: Adobe Illustrator 27.2.0, SVG Export Plug-In . SVG Version: 6.00 Build 0)  -->
<svg version="1.1" id="katman_1" xmlns="http://www.w3.org/2000/svg" xmlns:xlink="http://www.w3.org/1999/xlink" x="0px" y="0px"
	 viewBox="0 0 1157.46 1157.46" style="enable-background:new 0 0 1157.46 1157.46;" xml:space="preserve">
<style type="text/css">
	.st0{fill:#1D1D1B;}
	.st1{fill:url(#SVGID_1_);}
	.st2{fill:#FFFFFF;}
	.st3{fill:url(#SVGID_00000168809039523349352600000007737921503213469627_);}
	.st4{fill:url(#SVGID_00000065059592438440862830000018189029250278199437_);}
	.st5{fill:url(#SVGID_00000003094658730312179170000011461643819123714202_);}
	.st6{fill:url(#SVGID_00000126297952413505554300000001694948551123503003_);}
	.st7{fill:url(#SVGID_00000181049170114549205180000008028820623058030734_);}
	.st8{fill:url(#SVGID_00000178178349207079733540000004793372995275701160_);}
	.st9{fill:url(#SVGID_00000073721748197074112480000013940177683204394371_);}
	.st10{fill:url(#SVGID_00000138539807666427129310000015668536230346090679_);}
	.st11{fill:url(#SVGID_00000163059840366951380580000004930290767700397970_);}
	.st12{fill:url(#SVGID_00000074418323352957930840000000751548977490442387_);}
	.st13{fill:url(#SVGID_00000165940127943482131130000003046882049452179126_);}
	.st14{fill:url(#SVGID_00000008112504587485463450000012728034028313102478_);}
	.st15{fill:url(#SVGID_00000061462504294930883450000018088721439972543895_);}
	.st16{fill:url(#SVGID_00000078038483161044377540000008747726115834584989_);}
	.st17{fill:url(#SVGID_00000116938404288529384190000018175064037230500535_);}
	.st18{fill:url(#SVGID_00000007426685480235730360000004562881250436709027_);}
	.st19{fill:url(#SVGID_00000083053948280776724390000010776900556996976010_);}
	.st20{fill:url(#SVGID_00000020371176562093701140000016284658557888918688_);}
</style>
<g>
	<circle class="st0" cx="578.73" cy="578.73" r="552"/>
	
		<linearGradient id="SVGID_1_" gradientUnits="userSpaceOnUse" x1="180.0039" y1="553.7053" x2="944.9933" y2="553.7053" gradientTransform="matrix(0.9997 -0.0232 0.0232 0.9997 3.5162 62.9125)">
		<stop  offset="0" style="stop-color:#1EB0A0"/>
		<stop  offset="0.4202" style="stop-color:#00B4E1"/>
		<stop  offset="0.6324" style="stop-color:#258EC7"/>
		<stop  offset="1" style="stop-color:#6C4493"/>
	</linearGradient>
	<path class="st1" d="M203.19,799.56c0,0-24.19,141.5,101.81,166.65s259.28-47.81,357.31-121.15s194.06-181.87,244.82-285.17
		c50.76-103.3,74.96-218.73,8.29-286.36s-201.83-24.49-201.83-24.49s142.02-30.76,184.48,74.56
		c42.45,105.32-61.74,273.87-61.74,273.87S750.58,736.8,601.25,839.05s-256.86,100.57-304.31,89.12
		C249.5,916.73,200.64,870.09,203.19,799.56z"/>
	<g>
		<path class="st2" d="M525.65,854.92h52.21c6.86-4.38,13.79-8.9,20.84-13.73c72.73-49.8,130.32-108.37,170.33-155.38V582.64H519.82
			v96.5h152.71v79.28H525.65c-80.97,0-146.85-65.88-146.85-146.88c0-80.98,65.88-146.86,146.85-146.86h243.39v-96.51H525.65
			c-134.18,0-243.36,109.18-243.36,243.38C282.29,745.74,391.47,854.92,525.65,854.92z"/>
		<path class="st2" d="M659.76,847.2c-3.44,2.58-6.94,5.15-10.47,7.72h119.75v-105.2C734.52,785.85,697.3,819.12,659.76,847.2z"/>
	</g>
	<g>
		<path class="st2" d="M525.65,854.92h52.21c6.86-4.38,13.79-8.9,20.84-13.73c72.73-49.8,130.32-108.37,170.33-155.38V582.64H519.82
			v96.5h152.71v79.28H525.65c-80.97,0-146.85-65.88-146.85-146.88c0-80.98,65.88-146.86,146.85-146.86h243.39v-96.51H525.65
			c-134.18,0-243.36,109.18-243.36,243.38C282.29,745.74,391.47,854.92,525.65,854.92z"/>
		<path class="st2" d="M659.76,847.2c-3.44,2.58-6.94,5.15-10.47,7.72h119.75v-105.2C734.52,785.85,697.3,819.12,659.76,847.2z"/>
	</g>
	
		<linearGradient id="SVGID_00000129180611797199592580000014321105123174622887_" gradientUnits="userSpaceOnUse" x1="788.4706" y1="287.1943" x2="622.5183" y2="438.5038">
		<stop  offset="0" style="stop-color:#1EB0A0"/>
		<stop  offset="0.4202" style="stop-color:#00B4E1"/>
		<stop  offset="0.6324" style="stop-color:#258EC7"/>
		<stop  offset="1" style="stop-color:#6C4493"/>
	</linearGradient>
	<path style="fill:url(#SVGID_00000129180611797199592580000014321105123174622887_);" d="M694.59,279.34
		c-68.44,6.34-135.08,39.78-191.52,78.83c24.42-2.07,63.36-3.48,119.38-0.29c6.95-3.03,14-5.95,21.19-8.68
		c129.06-48.98,199.79,13.88,202.4,74.74C846.05,423.94,875.16,262.62,694.59,279.34z"/>
	
		<linearGradient id="SVGID_00000121981901955217703420000007441013674963473060_" gradientUnits="userSpaceOnUse" x1="456.9933" y1="826.7418" x2="260.531" y2="774.1143">
		<stop  offset="0" style="stop-color:#1EB0A0"/>
		<stop  offset="0.4202" style="stop-color:#00B4E1"/>
		<stop  offset="0.6324" style="stop-color:#258EC7"/>
		<stop  offset="1" style="stop-color:#6C4493"/>
	</linearGradient>
	<path style="fill:url(#SVGID_00000121981901955217703420000007441013674963473060_);" d="M305.22,813.8c0,0-15.8-35.35,3.66-64.08
		l-31.76-62.87c0,0-51.87,66.64-23.09,135.75c0,0,1.26,3.33,4.14,8.49c12.01,21.45,52.25,74.44,147.72,50.2
		C405.89,881.3,325.18,877.01,305.22,813.8z"/>
	<g>
		
			<linearGradient id="SVGID_00000005948064312028610450000018373592804161911473_" gradientUnits="userSpaceOnUse" x1="310.6248" y1="272.9138" x2="310.6248" y2="339.7878">
			<stop  offset="0" style="stop-color:#1EB0A0"/>
			<stop  offset="0.4202" style="stop-color:#00B4E1"/>
			<stop  offset="0.6324" style="stop-color:#258EC7"/>
			<stop  offset="1" style="stop-color:#6C4493"/>
		</linearGradient>
		<path style="fill:url(#SVGID_00000005948064312028610450000018373592804161911473_);" d="M319.01,307.91
			c7.48-0.4,15.81-1.04,25.06-2.09c0,0-9.92-1.35-25.15-1.46c-0.8-3.31-3.39-5.76-6.74-6.39c-0.4-7.48-1.04-15.81-2.09-25.06
			c0,0-1.35,9.92-1.46,25.15c-3.29,0.8-5.74,3.36-6.38,6.69c-7.78,0.43-16.24,1.22-25.05,2.62c0,0,8.91,1.16,25.16,1.05
			c0.82,3.26,3.37,5.67,6.67,6.31c0.43,7.78,1.23,16.24,2.62,25.05c0,0,1.16-8.91,1.05-25.16
			C315.96,313.81,318.38,311.24,319.01,307.91z"/>
		
			<linearGradient id="SVGID_00000000940795542206761600000003810827654731389569_" gradientUnits="userSpaceOnUse" x1="383.4254" y1="274.8938" x2="383.4254" y2="317.0299">
			<stop  offset="0" style="stop-color:#1EB0A0"/>
			<stop  offset="0.4202" style="stop-color:#00B4E1"/>
			<stop  offset="0.6324" style="stop-color:#258EC7"/>
			<stop  offset="1" style="stop-color:#6C4493"/>
		</linearGradient>
		<path style="fill:url(#SVGID_00000000940795542206761600000003810827654731389569_);" d="M388.71,296.93
			c4.73-0.25,9.93-0.64,15.78-1.3c0,0-6.31-0.82-15.84-0.9c-0.5-2.1-2.14-3.66-4.27-4.06c-0.25-4.73-0.64-9.93-1.3-15.78
			c0,0-0.82,6.31-0.9,15.84c-2.09,0.5-3.64,2.12-4.05,4.23c-4.9,0.27-10.23,0.77-15.78,1.64c0,0,5.66,0.72,15.85,0.66
			c0.51,2.06,2.12,3.58,4.21,3.98c0.27,4.9,0.77,10.23,1.64,15.78c0,0,0.72-5.66,0.66-15.85
			C386.79,300.66,388.32,299.04,388.71,296.93z"/>
		
			<linearGradient id="SVGID_00000147206366688908602770000012446696150661646497_" gradientUnits="userSpaceOnUse" x1="375.5883" y1="340.8846" x2="375.5883" y2="395.3443">
			<stop  offset="0" style="stop-color:#1EB0A0"/>
			<stop  offset="0.4202" style="stop-color:#00B4E1"/>
			<stop  offset="0.6324" style="stop-color:#258EC7"/>
			<stop  offset="1" style="stop-color:#6C4493"/>
		</linearGradient>
		<path style="fill:url(#SVGID_00000147206366688908602770000012446696150661646497_);" d="M382.42,369.36
			c6.11-0.32,12.84-0.82,20.4-1.68c0,0-8.08-1.1-20.48-1.19c-0.66-2.7-2.77-4.7-5.51-5.21c-0.32-6.11-0.82-12.84-1.68-20.4
			c0,0-1.1,8.08-1.19,20.48c-2.68,0.65-4.67,2.74-5.2,5.45c-6.34,0.35-13.23,1-20.4,2.13c0,0,7.31,0.93,20.48,0.85
			c0.67,2.66,2.74,4.63,5.44,5.15c0.35,6.34,1,13.23,2.13,20.4c0,0,0.93-7.31,0.85-20.48C379.94,374.19,381.92,372.09,382.42,369.36
			z"/>
		
			<linearGradient id="SVGID_00000082350828407003009530000006803917285032147357_" gradientUnits="userSpaceOnUse" x1="488.7172" y1="512.7183" x2="488.7172" y2="567.1775">
			<stop  offset="0" style="stop-color:#1EB0A0"/>
			<stop  offset="0.4202" style="stop-color:#00B4E1"/>
			<stop  offset="0.6324" style="stop-color:#258EC7"/>
			<stop  offset="1" style="stop-color:#6C4493"/>
		</linearGradient>
		<path style="fill:url(#SVGID_00000082350828407003009530000006803917285032147357_);" d="M495.55,541.2
			c6.11-0.32,12.84-0.82,20.4-1.68c0,0-8.08-1.1-20.48-1.19c-0.66-2.7-2.77-4.7-5.51-5.21c-0.32-6.11-0.82-12.84-1.68-20.4
			c0,0-1.1,8.08-1.19,20.48c-2.68,0.65-4.67,2.74-5.2,5.45c-6.34,0.35-13.23,1-20.4,2.13c0,0,7.31,0.93,20.48,0.85
			c0.66,2.66,2.74,4.63,5.44,5.15c0.35,6.34,1,13.23,2.13,20.4c0,0,0.93-7.31,0.85-20.48C493.07,546.02,495.05,543.92,495.55,541.2z
			"/>
		
			<linearGradient id="SVGID_00000097498216545872472970000011330771564434407091_" gradientUnits="userSpaceOnUse" x1="220.8317" y1="410.8861" x2="220.8317" y2="445.1999">
			<stop  offset="0" style="stop-color:#1EB0A0"/>
			<stop  offset="0.4202" style="stop-color:#00B4E1"/>
			<stop  offset="0.6324" style="stop-color:#258EC7"/>
			<stop  offset="1" style="stop-color:#6C4493"/>
		</linearGradient>
		<path style="fill:url(#SVGID_00000097498216545872472970000011330771564434407091_);" d="M225.14,428.83
			c3.85-0.2,8.09-0.52,12.85-1.06c0,0-5.14-0.67-12.9-0.73c-0.41-1.71-1.74-2.98-3.48-3.3c-0.2-3.85-0.52-8.09-1.06-12.85
			c0,0-0.67,5.14-0.73,12.9c-1.7,0.4-2.97,1.73-3.3,3.44c-3.99,0.22-8.33,0.62-12.85,1.34c0,0,4.61,0.58,12.9,0.53
			c0.42,1.68,1.73,2.92,3.43,3.25c0.22,3.99,0.62,8.33,1.34,12.85c0,0,0.59-4.61,0.53-12.91
			C223.57,431.87,224.82,430.55,225.14,428.83z"/>
		
			<linearGradient id="SVGID_00000125561485617402068990000004829097291715901116_" gradientUnits="userSpaceOnUse" x1="251.3412" y1="584.2497" x2="251.3412" y2="618.5635">
			<stop  offset="0" style="stop-color:#1EB0A0"/>
			<stop  offset="0.4202" style="stop-color:#00B4E1"/>
			<stop  offset="0.6324" style="stop-color:#258EC7"/>
			<stop  offset="1" style="stop-color:#6C4493"/>
		</linearGradient>
		<path style="fill:url(#SVGID_00000125561485617402068990000004829097291715901116_);" d="M255.64,602.19
			c3.85-0.2,8.09-0.52,12.85-1.06c0,0-5.14-0.67-12.9-0.73c-0.41-1.71-1.74-2.98-3.48-3.3c-0.2-3.85-0.52-8.09-1.06-12.85
			c0,0-0.67,5.14-0.73,12.9c-1.7,0.4-2.97,1.73-3.3,3.44c-3.99,0.22-8.33,0.62-12.85,1.34c0,0,4.61,0.58,12.9,0.53
			c0.42,1.68,1.73,2.92,3.43,3.24c0.22,3.99,0.62,8.33,1.34,12.85c0,0,0.58-4.61,0.53-12.91
			C254.08,605.24,255.33,603.91,255.64,602.19z"/>
		
			<linearGradient id="SVGID_00000178190919819789211600000010225486373083945397_" gradientUnits="userSpaceOnUse" x1="554.5418" y1="186.1832" x2="554.5418" y2="255.322">
			<stop  offset="0" style="stop-color:#1EB0A0"/>
			<stop  offset="0.4202" style="stop-color:#00B4E1"/>
			<stop  offset="0.6324" style="stop-color:#258EC7"/>
			<stop  offset="1" style="stop-color:#6C4493"/>
		</linearGradient>
		<path style="fill:url(#SVGID_00000178190919819789211600000010225486373083945397_);" d="M563.21,222.37
			c7.73-0.41,16.35-1.08,25.91-2.16c0,0-10.26-1.4-26-1.51c-0.83-3.42-3.5-5.96-6.96-6.61c-0.41-7.73-1.08-16.35-2.16-25.9
			c0,0-1.4,10.26-1.51,26c-3.4,0.83-5.93,3.48-6.6,6.92c-8.04,0.44-16.79,1.27-25.9,2.71c0,0,9.22,1.2,26.01,1.09
			c0.85,3.37,3.48,5.86,6.9,6.52c0.44,8.04,1.27,16.79,2.7,25.9c0,0,1.2-9.22,1.09-26.01C560.06,228.46,562.56,225.81,563.21,222.37
			z"/>
		
			<linearGradient id="SVGID_00000133514878555893004940000010726310555334614203_" gradientUnits="userSpaceOnUse" x1="481.9543" y1="145.653" x2="465.6391" y2="145.653" gradientTransform="matrix(0.9997 -0.0232 0.0232 0.9997 3.5162 62.9125)">
			<stop  offset="0" style="stop-color:#1EB0A0"/>
			<stop  offset="0.4202" style="stop-color:#00B4E1"/>
			<stop  offset="0.6324" style="stop-color:#258EC7"/>
			<stop  offset="1" style="stop-color:#6C4493"/>
		</linearGradient>
		<circle style="fill:url(#SVGID_00000133514878555893004940000010726310555334614203_);" cx="480.56" cy="197.55" r="8.16"/>
		
			<linearGradient id="SVGID_00000026875064030554715310000015131610914423941531_" gradientUnits="userSpaceOnUse" x1="515.4004" y1="228.3165" x2="505.0674" y2="228.3165" gradientTransform="matrix(0.9997 -0.0232 0.0232 0.9997 3.5162 62.9125)">
			<stop  offset="0" style="stop-color:#1EB0A0"/>
			<stop  offset="0.4202" style="stop-color:#00B4E1"/>
			<stop  offset="0.6324" style="stop-color:#258EC7"/>
			<stop  offset="1" style="stop-color:#6C4493"/>
		</linearGradient>
		<circle style="fill:url(#SVGID_00000026875064030554715310000015131610914423941531_);" cx="518.9" cy="279.35" r="5.17"/>
		
			<linearGradient id="SVGID_00000072260508834217759470000005581258428426011819_" gradientUnits="userSpaceOnUse" x1="195.8436" y1="500.5939" x2="181.6484" y2="500.5939" gradientTransform="matrix(0.9997 -0.0232 0.0232 0.9997 3.5162 62.9125)">
			<stop  offset="0" style="stop-color:#1EB0A0"/>
			<stop  offset="0.4202" style="stop-color:#00B4E1"/>
			<stop  offset="0.6324" style="stop-color:#258EC7"/>
			<stop  offset="1" style="stop-color:#6C4493"/>
		</linearGradient>
		<circle style="fill:url(#SVGID_00000072260508834217759470000005581258428426011819_);" cx="203.81" cy="559" r="7.1"/>
		
			<linearGradient id="SVGID_00000155125300857632140080000003258482652788222640_" gradientUnits="userSpaceOnUse" x1="219.3365" y1="580.6381" x2="201.9336" y2="580.6381" gradientTransform="matrix(0.9997 -0.0232 0.0232 0.9997 3.5162 62.9125)">
			<stop  offset="0" style="stop-color:#1EB0A0"/>
			<stop  offset="0.4202" style="stop-color:#00B4E1"/>
			<stop  offset="0.6324" style="stop-color:#258EC7"/>
			<stop  offset="1" style="stop-color:#6C4493"/>
		</linearGradient>
		<circle style="fill:url(#SVGID_00000155125300857632140080000003258482652788222640_);" cx="227.55" cy="638.52" r="8.7"/>
		
			<linearGradient id="SVGID_00000134225954099952270930000016917556196072474019_" gradientUnits="userSpaceOnUse" x1="238.4517" y1="628.1035" x2="229.2064" y2="628.1035" gradientTransform="matrix(0.9997 -0.0232 0.0232 0.9997 3.5162 62.9125)">
			<stop  offset="0" style="stop-color:#1EB0A0"/>
			<stop  offset="0.4202" style="stop-color:#00B4E1"/>
			<stop  offset="0.6324" style="stop-color:#258EC7"/>
			<stop  offset="1" style="stop-color:#6C4493"/>
		</linearGradient>
		<circle style="fill:url(#SVGID_00000134225954099952270930000016917556196072474019_);" cx="251.83" cy="685.43" r="4.62"/>
		
			<linearGradient id="SVGID_00000043414807868267115300000008922235899600518293_" gradientUnits="userSpaceOnUse" x1="4442.8232" y1="3349.7205" x2="4428.6279" y2="3349.7205" gradientTransform="matrix(-0.0811 0.9967 -0.9967 -0.0811 3947.8447 -3636.1536)">
			<stop  offset="0" style="stop-color:#1EB0A0"/>
			<stop  offset="0.4202" style="stop-color:#00B4E1"/>
			<stop  offset="0.6324" style="stop-color:#258EC7"/>
			<stop  offset="1" style="stop-color:#6C4493"/>
		</linearGradient>
		<circle style="fill:url(#SVGID_00000043414807868267115300000008922235899600518293_);" cx="249.36" cy="513.24" r="7.1"/>
		
			<linearGradient id="SVGID_00000163793752462522572260000017034143276604807352_" gradientUnits="userSpaceOnUse" x1="4355.6187" y1="3303.8833" x2="4346.3735" y2="3303.8833" gradientTransform="matrix(-0.0811 0.9967 -0.9967 -0.0811 3947.8447 -3636.1536)">
			<stop  offset="0" style="stop-color:#1EB0A0"/>
			<stop  offset="0.4202" style="stop-color:#00B4E1"/>
			<stop  offset="0.6324" style="stop-color:#258EC7"/>
			<stop  offset="1" style="stop-color:#6C4493"/>
		</linearGradient>
		<circle style="fill:url(#SVGID_00000163793752462522572260000017034143276604807352_);" cx="301.92" cy="432.51" r="4.62"/>
		
			<linearGradient id="SVGID_00000082354543237572441220000014795861023598977428_" gradientUnits="userSpaceOnUse" x1="441.2845" y1="479.6876" x2="425.5666" y2="479.6876" gradientTransform="matrix(0.9997 -0.0232 0.0232 0.9997 3.5162 62.9125)">
			<stop  offset="0" style="stop-color:#1EB0A0"/>
			<stop  offset="0.4202" style="stop-color:#00B4E1"/>
			<stop  offset="0.6324" style="stop-color:#258EC7"/>
			<stop  offset="1" style="stop-color:#6C4493"/>
		</linearGradient>
		<circle style="fill:url(#SVGID_00000082354543237572441220000014795861023598977428_);" cx="447.94" cy="532.43" r="7.86"/>
		
			<linearGradient id="SVGID_00000179638289163835829400000004923383323602214035_" gradientUnits="userSpaceOnUse" x1="494.9341" y1="441.2169" x2="487.884" y2="441.2169" gradientTransform="matrix(0.9997 -0.0232 0.0232 0.9997 3.5162 62.9125)">
			<stop  offset="0" style="stop-color:#1EB0A0"/>
			<stop  offset="0.4202" style="stop-color:#00B4E1"/>
			<stop  offset="0.6324" style="stop-color:#258EC7"/>
			<stop  offset="1" style="stop-color:#6C4493"/>
		</linearGradient>
		<circle style="fill:url(#SVGID_00000179638289163835829400000004923383323602214035_);" cx="505.01" cy="492.63" r="3.53"/>
	</g>
</g>
</svg>
