<svg width="64" height="64" viewBox="0 0 64 64" fill="none" xmlns="http://www.w3.org/2000/svg">
<g clip-path="url(#clip0_40_30419)">
<path d="M32 64C49.6731 64 64 49.6731 64 32C64 14.3269 49.6731 0 32 0C14.3269 0 0 14.3269 0 32C0 49.6731 14.3269 64 32 64Z" fill="#72F596"/>
<path fill-rule="evenodd" clip-rule="evenodd" d="M18.208 28.696C18.3036 28.7041 18.3999 28.6923 18.4907 28.6613C18.5815 28.6303 18.6649 28.5808 18.7356 28.5159C18.8063 28.451 18.8627 28.3721 18.9013 28.2842C18.9399 28.1964 18.9598 28.1015 18.9598 28.0055C18.9598 27.9095 18.9399 27.8146 18.9013 27.7268C18.8627 27.6389 18.8063 27.56 18.7356 27.4951C18.6649 27.4302 18.5815 27.3807 18.4907 27.3497C18.3999 27.3187 18.3036 27.3069 18.208 27.315H12.827C12.654 27.3297 12.4929 27.4089 12.3754 27.5367C12.258 27.6646 12.1928 27.8319 12.1928 28.0055C12.1928 28.1791 12.258 28.3464 12.3754 28.4743C12.4929 28.6021 12.654 28.6813 12.827 28.696H18.208ZM16.649 33.934C16.6493 34.1177 16.7224 34.2938 16.8523 34.4237C16.9822 34.5536 17.1583 34.6267 17.342 34.627H22.72C22.893 34.6123 23.0541 34.5331 23.1716 34.4053C23.289 34.2774 23.3542 34.1101 23.3542 33.9365C23.3542 33.7629 23.289 33.5956 23.1716 33.4677C23.0541 33.3399 22.893 33.2607 22.72 33.246H17.343C17.2523 33.2452 17.1623 33.2624 17.0783 33.2966C16.9942 33.3307 16.9178 33.3812 16.8533 33.4451C16.7889 33.509 16.7378 33.585 16.7029 33.6687C16.668 33.7524 16.65 33.8423 16.65 33.933L16.649 33.934ZM21.171 30.274H15.197C15.0131 30.274 14.8367 30.3471 14.7066 30.4771C14.5766 30.6072 14.5035 30.7836 14.5035 30.9675C14.5035 31.1514 14.5766 31.3278 14.7066 31.4579C14.8367 31.5879 15.0131 31.661 15.197 31.661H21.165C21.2606 31.6691 21.3569 31.6573 21.4477 31.6263C21.5385 31.5953 21.6219 31.5458 21.6926 31.4809C21.7633 31.416 21.8197 31.3371 21.8583 31.2492C21.8969 31.1614 21.9168 31.0665 21.9168 30.9705C21.9168 30.8745 21.8969 30.7796 21.8583 30.6918C21.8197 30.6039 21.7633 30.525 21.6926 30.4601C21.6219 30.3952 21.5385 30.3457 21.4477 30.3147C21.3569 30.2837 21.2606 30.2719 21.165 30.28L21.171 30.274ZM13.408 31.674C13.5919 31.674 13.7683 31.6009 13.8984 31.4709C14.0284 31.3408 14.1015 31.1644 14.1015 30.9805C14.1015 30.7966 14.0284 30.6202 13.8984 30.4901C13.7683 30.3601 13.5919 30.287 13.408 30.287H13.135C12.9511 30.287 12.7747 30.3601 12.6446 30.4901C12.5146 30.6202 12.4415 30.7966 12.4415 30.9805C12.4415 31.1644 12.5146 31.3408 12.6446 31.4709C12.7747 31.6009 12.9511 31.674 13.135 31.674H13.408ZM25.74 36.898C25.74 36.7158 25.6676 36.5411 25.5388 36.4122C25.4099 36.2834 25.2352 36.211 25.053 36.211H13.437C13.264 36.2257 13.1029 36.3049 12.9854 36.4327C12.868 36.5606 12.8028 36.7279 12.8028 36.9015C12.8028 37.0751 12.868 37.2424 12.9854 37.3703C13.1029 37.4981 13.264 37.5773 13.437 37.592H25.053C25.1437 37.592 25.2336 37.574 25.3173 37.5391C25.401 37.5042 25.477 37.4531 25.5409 37.3887C25.6048 37.3242 25.6553 37.2478 25.6894 37.1637C25.7236 37.0797 25.7408 36.9887 25.74 36.898Z" fill="#231F20"/>
<path fill-rule="evenodd" clip-rule="evenodd" d="M47.121 36.1261C44.999 35.2731 43.956 34.7811 43.085 35.5931C43.529 34.7101 43.352 34.6571 42.978 34.0051C42.237 32.6951 40.27 30.5501 39.594 26.4611C40.1679 24.9189 40.5655 23.3167 40.779 21.6851C40.779 21.6851 41.194 20.5001 39.379 21.0921C38.2537 21.7838 37.0637 22.3646 35.826 22.8261C33.568 22.5591 30.255 20.9261 29.035 18.4051C29.035 18.4051 30.054 16.2781 29.165 15.7861C28.572 15.4481 26.723 17.3501 26.723 17.3501L20.732 24.3401L20.27 25.1991C20.1698 25.3844 20.125 25.5946 20.1407 25.8046C20.1565 26.0147 20.2323 26.2158 20.359 26.3841C21.945 28.5001 28.205 36.8381 31.773 41.2471C21.573 41.3301 16.063 42.8941 19.973 43.4401C23.173 43.8841 30.48 43.7541 35.973 43.7401C36.6127 43.926 37.2642 44.0687 37.923 44.1671L47.123 44.2561C48.308 44.1911 49.399 44.1021 50.258 44.0071C50.5365 43.9763 50.8012 43.8693 51.0228 43.6978C51.2444 43.5263 51.4143 43.297 51.514 43.0351C52.504 40.3861 50.945 37.6601 47.123 36.1351L47.121 36.1261ZM28.75 31.0491L28.445 23.9371L30.531 28.2991L32.777 27.3991L33.37 34.2731L31 29.9941L28.75 31.0491Z" fill="#231F20"/>
</g>
<defs>
<clipPath id="clip0_40_30419">
<rect width="64" height="64" fill="white"/>
</clipPath>
</defs>
</svg>
