<svg xmlns="http://www.w3.org/2000/svg" width="64" height="64" viewBox="0 0 64 64"><circle cx="32" cy="32" r="32" fill="#72f596"/><g transform="translate(12.02 15.326)"><path d="M6.188,25.222a.693.693,0,1,0,0-1.381H.807a.693.693,0,0,0,0,1.381ZM4.629,30.46a.694.694,0,0,0,.693.693H10.7a.693.693,0,0,0,0-1.381H5.323a.687.687,0,0,0-.693.687ZM9.151,26.8H3.177a.693.693,0,0,0,0,1.387H9.145a.693.693,0,1,0,0-1.381l.006-.006ZM1.388,28.2a.693.693,0,0,0,0-1.387H1.115a.693.693,0,0,0,0,1.387ZM13.72,33.424a.687.687,0,0,0-.687-.687H1.417a.693.693,0,0,0,0,1.381H13.033a.687.687,0,0,0,.687-.693Z" transform="translate(0 -11.852)" fill="#231f20" fill-rule="evenodd"/><path d="M41.776,20.8c-2.122-.853-3.165-1.345-4.036-.533.444-.883.267-.936-.107-1.588-.741-1.31-2.708-3.455-3.384-7.544a21.809,21.809,0,0,0,1.185-4.776s.415-1.185-1.4-.593A20.386,20.386,0,0,1,30.481,7.5c-2.258-.267-5.571-1.9-6.791-4.421,0,0,1.019-2.127.13-2.619-.593-.338-2.442,1.564-2.442,1.564L15.387,9.014l-.462.859a1.1,1.1,0,0,0,.089,1.185C16.6,13.174,22.86,21.512,26.428,25.921c-10.2.083-15.71,1.647-11.8,2.193,3.2.444,10.507.314,16,.3a14.851,14.851,0,0,0,1.95.427l9.2.089c1.185-.065,2.276-.154,3.135-.249a1.523,1.523,0,0,0,1.256-.972c.99-2.649-.569-5.375-4.391-6.9ZM23.405,15.723,23.1,8.611l2.086,4.362,2.246-.9.593,6.874-2.37-4.279Z" transform="translate(-6.675)" fill="#231f20" fill-rule="evenodd"/></g></svg>