<svg width="64" height="64" viewBox="0 0 64 64" fill="none" xmlns="http://www.w3.org/2000/svg">
<g clip-path="url(#clip0_40_30424)">
<mask id="mask0_40_30424" style="mask-type:luminance" maskUnits="userSpaceOnUse" x="0" y="0" width="64" height="64">
<path d="M64 0H0V64H64V0Z" fill="white"/>
</mask>
<g mask="url(#mask0_40_30424)">
<path d="M32 64C49.6731 64 64 49.6731 64 32C64 14.3269 49.6731 0 32 0C14.3269 0 0 14.3269 0 32C0 49.6731 14.3269 64 32 64Z" fill="#F5F5F5"/>
<path fill-rule="evenodd" clip-rule="evenodd" d="M31.533 36.133C29.8454 36.133 28.1956 35.6326 26.7924 34.695C25.3891 33.7574 24.2954 32.4247 23.6496 30.8655C23.0037 29.3063 22.8347 27.5906 23.164 25.9353C23.4932 24.2801 24.3059 22.7597 25.4993 21.5663C26.6927 20.3729 28.2131 19.5603 29.8683 19.231C31.5236 18.9018 33.2393 19.0707 34.7985 19.7166C36.3577 20.3624 37.6903 21.4561 38.628 22.8594C39.5656 24.2626 40.066 25.9124 40.066 27.6001C40.0695 28.7216 39.8511 29.8327 39.4235 30.8695C38.9959 31.9064 38.3675 32.8484 37.5744 33.6414C36.7814 34.4345 35.8393 35.063 34.8025 35.4906C33.7657 35.9182 32.6546 36.1365 31.533 36.133ZM31.533 14.8C34.0646 14.8 36.5394 15.5508 38.6443 16.9572C40.7493 18.3637 42.3899 20.3628 43.3587 22.7017C44.3275 25.0406 44.581 27.6142 44.0871 30.0972C43.5932 32.5802 42.3741 34.861 40.584 36.6511C38.7939 38.4412 36.5131 39.6602 34.0302 40.1541C31.5472 40.648 28.9736 40.3946 26.6347 39.4258C24.2958 38.457 22.2967 36.8163 20.8902 34.7113C19.4837 32.6064 18.733 30.1317 18.733 27.6001C18.733 24.2053 20.0816 20.9496 22.4821 18.5491C24.8825 16.1486 28.1383 14.8 31.533 14.8ZM43.733 41.0672C43.9383 41.2594 44.1019 41.4916 44.2138 41.7496C44.3257 42.0076 44.3834 42.2859 44.3834 42.5672C44.3834 42.8484 44.3257 43.1265 44.2138 43.3845C44.1019 43.6425 43.9383 43.8749 43.733 44.0672L35.2 52.6002C34.8022 52.998 34.2626 53.2215 33.7 53.2215C33.1374 53.2215 32.5979 52.998 32.2 52.6002C31.8022 52.2023 31.5787 51.6628 31.5787 51.1002C31.5787 50.5375 31.8022 49.998 32.2 49.6002L40.733 41.0672C40.9253 40.862 41.1577 40.6985 41.4157 40.5867C41.6737 40.4749 41.9519 40.4172 42.233 40.4172C42.5142 40.4172 42.7924 40.4749 43.0504 40.5867C43.3084 40.6985 43.5407 40.862 43.733 41.0672ZM48.666 16.9341C48.6658 17.3559 48.5406 17.7682 48.3061 18.1188C48.0716 18.4695 47.7384 18.7427 47.3486 18.904C46.9588 19.0653 46.53 19.1074 46.1163 19.0249C45.7026 18.9425 45.3226 18.7393 45.0244 18.441C44.7262 18.1426 44.5232 17.7625 44.4409 17.3488C44.3587 16.9351 44.401 16.5063 44.5625 16.1166C44.724 15.7269 44.9974 15.3938 45.3481 15.1595C45.6989 14.9251 46.1112 14.8 46.533 14.8C47.0975 14.804 47.6378 15.03 48.0369 15.4291C48.4361 15.8283 48.6621 16.3696 48.666 16.9341Z" fill="url(#paint0_linear_40_30424)"/>
</g>
</g>
<defs>
<linearGradient id="paint0_linear_40_30424" x1="33.6995" y1="14.8" x2="33.6995" y2="53.2215" gradientUnits="userSpaceOnUse">
<stop stop-color="#B5F1FB"/>
<stop offset="1" stop-color="#14B5BB"/>
</linearGradient>
<clipPath id="clip0_40_30424">
<rect width="64" height="64" fill="white"/>
</clipPath>
</defs>
</svg>
