<svg width="64" height="64" viewBox="0 0 64 64" fill="none" xmlns="http://www.w3.org/2000/svg">
<g clip-path="url(#clip0_40_30431)">
<path d="M32 64C49.6731 64 64 49.6731 64 32C64 14.3269 49.6731 0 32 0C14.3269 0 0 14.3269 0 32C0 49.6731 14.3269 64 32 64Z" fill="#F5F5F5"/>
<path d="M47.235 48.558L36.817 48.463C34.4048 48.1503 32.0914 47.309 30.042 45.999C29.9293 45.923 29.8283 45.831 29.742 45.726C27.255 42.738 22.67 36.787 16.107 28.05C15.7809 27.6479 15.5789 27.1596 15.5256 26.6446C15.4724 26.1297 15.5701 25.6104 15.807 25.15L16.327 24.181C16.3735 24.0921 16.4303 24.0089 16.496 23.933L23.225 16.079C26.062 13.111 27.289 13.793 27.689 14.011C28.318 14.4302 28.8248 15.0085 29.158 15.687C30.0108 17.2406 31.3368 18.4818 32.9432 19.2305C34.5496 19.9791 36.3528 20.1961 38.091 19.85C38.5576 19.6452 39.0713 19.5715 39.5767 19.6371C40.0821 19.7026 40.56 19.9049 40.959 20.222C41.186 20.4704 41.3474 20.7715 41.4286 21.0981C41.5098 21.4246 41.5082 21.7663 41.424 22.092C41.186 23.8847 40.75 25.6455 40.124 27.342C40.5872 29.7107 41.5675 31.9479 42.995 33.894C43.278 34.315 43.522 34.683 43.707 35.009L43.84 35.235C43.9224 35.3673 43.9972 35.5042 44.064 35.645C45.1653 35.8196 46.2365 36.1485 47.246 36.622L47.67 36.791C52.57 38.752 54.821 42.482 53.403 46.291C53.204 46.8298 52.8584 47.3022 52.4052 47.6549C51.9519 48.0076 51.4091 48.2266 50.838 48.287C49.855 48.387 48.617 48.487 47.235 48.558ZM31.735 43.787C33.3531 44.7788 35.1565 45.4301 37.035 45.701L47.179 45.787C48.413 45.721 49.593 45.622 50.531 45.519C50.5891 45.5128 50.6445 45.4909 50.6911 45.4557C50.7378 45.4205 50.774 45.3732 50.796 45.319C51.654 43.013 50.058 40.731 46.633 39.361L46.207 39.187C44.519 38.507 43.807 38.257 43.566 38.487C43.3286 38.7102 43.0203 38.8426 42.695 38.8612C42.3698 38.8798 42.0484 38.7833 41.7872 38.5886C41.526 38.3939 41.3416 38.1135 41.2664 37.7966C41.1912 37.4796 41.23 37.1463 41.376 36.855C41.414 36.779 41.443 36.718 41.466 36.668V36.656L41.298 36.371C41.146 36.095 40.934 35.787 40.688 35.432C38.9637 33.0609 37.812 30.3227 37.323 27.432C37.2824 27.1924 37.3062 26.9464 37.392 26.719C37.8928 25.3715 38.285 23.9861 38.565 22.576C36.2802 23.0159 33.9149 22.7268 31.8034 21.7493C29.6919 20.7719 27.941 19.1557 26.798 17.129C26.732 17.022 26.656 16.9 26.583 16.785C26.119 17.1322 25.6842 17.5168 25.283 17.935L18.697 25.614L18.249 26.448C24.742 34.93 29.251 40.787 31.735 43.787Z" fill="#231F20"/>
<path d="M31.982 58.9411C26.283 58.9336 20.7335 57.1171 16.1332 53.7532C11.5328 50.3894 8.11916 45.6519 6.38404 40.2235C4.64892 34.795 4.68195 28.9559 6.47835 23.5474C8.27476 18.1389 11.7418 13.4404 16.3799 10.1288C21.018 6.8172 26.5877 5.06353 32.2864 5.12049C37.9851 5.17744 43.5186 7.04207 48.0896 10.4457C52.6606 13.8493 56.033 18.6162 57.721 24.0595C59.4089 29.5028 59.3252 35.3414 57.482 40.7341C57.4235 40.9048 57.3319 41.0624 57.2125 41.1977C57.0932 41.333 56.9483 41.4435 56.7862 41.5229C56.6241 41.6022 56.448 41.6489 56.2679 41.6601C56.0878 41.6714 55.9072 41.6471 55.7365 41.5886C55.5658 41.5301 55.4082 41.4386 55.2729 41.3192C55.1376 41.1998 55.0271 41.0549 54.9477 40.8928C54.8684 40.7308 54.8217 40.5546 54.8105 40.3745C54.7992 40.1944 54.8235 40.0138 54.882 39.8431C56.6926 34.5516 56.6127 28.796 54.6559 23.5567C52.6992 18.3174 48.9866 13.9185 44.1506 11.1093C39.3146 8.30003 33.6543 7.25421 28.1337 8.14994C22.6131 9.04567 17.5739 11.8275 13.8742 16.0217C10.1745 20.2159 8.04324 25.563 7.84346 31.1522C7.64368 36.7414 9.38773 42.2269 12.7785 46.6746C16.1693 51.1222 20.9971 54.2568 26.4396 55.5443C31.8822 56.8319 37.6027 56.1929 42.627 53.7361C42.9527 53.5817 43.3261 53.5617 43.6664 53.6804C44.0068 53.799 44.2867 54.0469 44.4458 54.3703C44.6049 54.6937 44.6303 55.0668 44.5166 55.4088C44.4029 55.7508 44.1591 56.0344 43.838 56.1981C40.1502 58.014 36.0926 58.9527 31.982 58.9411Z" fill="#231F20"/>
<path d="M37.467 48.4071H20.419C20.0575 48.3974 19.714 48.2469 19.4617 47.9878C19.2094 47.7286 19.0682 47.3813 19.0682 47.0196C19.0682 46.6579 19.2094 46.3105 19.4617 46.0514C19.714 45.7922 20.0575 45.6418 20.419 45.6321H37.467C37.8285 45.6418 38.172 45.7922 38.4243 46.0514C38.6766 46.3105 38.8177 46.6579 38.8177 47.0196C38.8177 47.3813 38.6766 47.7286 38.4243 47.9878C38.172 48.2469 37.8285 48.3974 37.467 48.4071Z" fill="#231F20"/>
<path d="M27.379 42.9119H16.247C16.0618 42.9169 15.8775 42.8847 15.7049 42.8173C15.5323 42.7499 15.375 42.6485 15.2423 42.5193C15.1095 42.39 15.004 42.2355 14.9319 42.0648C14.8599 41.8941 14.8228 41.7107 14.8228 41.5254C14.8228 41.3402 14.8599 41.1568 14.9319 40.9861C15.004 40.8154 15.1095 40.6608 15.2423 40.5316C15.375 40.4024 15.5323 40.301 15.7049 40.2336C15.8775 40.1662 16.0618 40.134 16.247 40.1389H27.379C27.5642 40.134 27.7485 40.1662 27.9211 40.2336C28.0937 40.301 28.251 40.4024 28.3837 40.5316C28.5165 40.6608 28.622 40.8154 28.6941 40.9861C28.7661 41.1568 28.8032 41.3402 28.8032 41.5254C28.8032 41.7107 28.7661 41.8941 28.6941 42.0648C28.622 42.2355 28.5165 42.39 28.3837 42.5193C28.251 42.6485 28.0937 42.7499 27.9211 42.8173C27.7485 42.8847 27.5642 42.9169 27.379 42.9119Z" fill="#231F20"/>
<path d="M23.052 37.449H12.771C12.4098 37.4393 12.0665 37.289 11.8144 37.03C11.5623 36.771 11.4213 36.4239 11.4213 36.0625C11.4213 35.7011 11.5623 35.354 11.8144 35.095C12.0665 34.836 12.4098 34.6857 12.771 34.676H23.052C23.4133 34.6857 23.7565 34.836 24.0086 35.095C24.2607 35.354 24.4018 35.7011 24.4018 36.0625C24.4018 36.4239 24.2607 36.771 24.0086 37.03C23.7565 37.289 23.4133 37.4393 23.052 37.449Z" fill="#231F20"/>
<path d="M19.1339 31.948H11.0869C10.7257 31.9383 10.3824 31.788 10.1303 31.5291C9.87825 31.2701 9.73718 30.923 9.73718 30.5616C9.73718 30.2001 9.87825 29.853 10.1303 29.594C10.3824 29.3351 10.7257 29.1848 11.0869 29.175H19.1339C19.4952 29.1848 19.8384 29.3351 20.0905 29.594C20.3426 29.853 20.4837 30.2001 20.4837 30.5616C20.4837 30.923 20.3426 31.2701 20.0905 31.5291C19.8384 31.788 19.4952 31.9383 19.1339 31.948Z" fill="#231F20"/>
<path d="M32.801 37.2891C32.5765 37.2889 32.3553 37.2342 32.1566 37.1297C31.9578 37.0252 31.7874 36.874 31.66 36.6891L28.349 31.9071C28.213 31.7109 28.1298 31.483 28.1077 31.2453C28.0855 31.0077 28.125 30.7683 28.2225 30.5504C28.3199 30.3325 28.472 30.1434 28.6639 30.0014C28.8558 29.8595 29.0811 29.7695 29.318 29.7401L30.28 29.6231L28.211 26.6231C28.002 26.3199 27.922 25.9462 27.9886 25.5841C28.0552 25.2219 28.2629 24.9011 28.566 24.6921C28.8692 24.4831 29.2429 24.4031 29.605 24.4697C29.9672 24.5362 30.288 24.7439 30.497 25.0471L33.868 29.9231C34.0033 30.1195 34.0858 30.3474 34.1074 30.585C34.129 30.8225 34.089 31.0616 33.9913 31.2791C33.8936 31.4967 33.7415 31.6855 33.5497 31.8272C33.3578 31.9689 33.1327 32.0587 32.896 32.0881L31.939 32.2051L33.946 35.1051C34.0896 35.3132 34.1735 35.5567 34.1888 35.8091C34.2042 36.0615 34.1502 36.3132 34.0329 36.5372C33.9155 36.7612 33.7392 36.9489 33.523 37.08C33.3068 37.2111 33.0589 37.2806 32.806 37.2811L32.801 37.2891Z" fill="#231F20"/>
</g>
<defs>
<clipPath id="clip0_40_30431">
<rect width="64" height="64" fill="white"/>
</clipPath>
</defs>
</svg>
