<svg xmlns="http://www.w3.org/2000/svg" xmlns:xlink="http://www.w3.org/1999/xlink" width="64" height="64" viewBox="0 0 64 64"><defs><linearGradient id="a" x1="0.101" y1="0.86" x2="0.961" y2="0.14" gradientUnits="objectBoundingBox"><stop offset="0" stop-color="#b9b9b9"/><stop offset="1" stop-color="#d6d6d6"/></linearGradient></defs><circle cx="32" cy="32" r="32" fill="url(#a)"/><g transform="translate(15.507 13.787)"><path d="M31.728,34.771,21.31,34.676a16.524,16.524,0,0,1-6.775-2.464,1.406,1.406,0,0,1-.3-.273C11.748,28.951,7.163,23,.6,14.263a2.667,2.667,0,0,1-.3-2.9l.52-.969a1.3,1.3,0,0,1,.169-.248L7.718,2.292C10.555-.676,11.782.006,12.182.224A4.282,4.282,0,0,1,13.651,1.9a8.334,8.334,0,0,0,8.933,4.163,2.8,2.8,0,0,1,2.868.372,2.022,2.022,0,0,1,.465,1.87,24.463,24.463,0,0,1-1.3,5.25,16.4,16.4,0,0,0,2.871,6.552c.283.421.527.789.712,1.115l.133.226a4.076,4.076,0,0,1,.224.41,11.867,11.867,0,0,1,3.182.977l.424.169h0c4.9,1.961,7.151,5.691,5.733,9.5A3.08,3.08,0,0,1,35.331,34.5C34.348,34.6,33.11,34.7,31.728,34.771ZM16.228,30a13.955,13.955,0,0,0,5.3,1.914L31.672,32c1.234-.066,2.414-.165,3.352-.268a.323.323,0,0,0,.265-.2c.858-2.306-.738-4.588-4.163-5.958L30.7,25.4c-1.688-.68-2.4-.93-2.641-.7a1.387,1.387,0,0,1-2.19-1.632c.038-.076.067-.137.09-.187v-.012l-.168-.285c-.152-.276-.364-.584-.61-.939a18.988,18.988,0,0,1-3.365-8,1.371,1.371,0,0,1,.069-.713,26.962,26.962,0,0,0,1.173-4.143A11.1,11.1,0,0,1,11.291,3.342c-.066-.107-.142-.229-.215-.344a10.615,10.615,0,0,0-1.3,1.15L3.19,11.827l-.448.834C9.235,21.143,13.744,27,16.228,30Z" transform="translate(0 0)" fill="#231f20"/></g><path d="M67.694,94.781a26.911,26.911,0,1,1,25.5-18.207,1.374,1.374,0,1,1-2.6-.891A24.178,24.178,0,1,0,78.339,89.576a1.372,1.372,0,0,1,1.211,2.462A26.668,26.668,0,0,1,67.694,94.781Z" transform="translate(-35.712 -35.84)" fill="#231f20"/><path d="M171.005,367.831H153.957a1.388,1.388,0,0,1,0-2.775h17.048a1.388,1.388,0,0,1,0,2.775Z" transform="translate(-133.538 -319.424)" fill="#231f20"/><path d="M131.4,323.883H120.268a1.387,1.387,0,1,1,0-2.773H131.4a1.387,1.387,0,1,1,0,2.773Z" transform="translate(-104.021 -280.971)" fill="#231f20"/><path d="M102.743,280.18H92.462a1.387,1.387,0,0,1,0-2.773h10.281a1.387,1.387,0,0,1,0,2.773Z" transform="translate(-79.691 -242.731)" fill="#231f20"/><path d="M87.038,236.172H78.991a1.387,1.387,0,0,1,0-2.773h8.047a1.387,1.387,0,0,1,0,2.773Z" transform="translate(-67.904 -204.224)" fill="#231f20"/><path d="M228.556,208.446a1.387,1.387,0,0,1-1.141-.6l-3.311-4.782a1.387,1.387,0,0,1,.969-2.167l.962-.117-2.069-3a1.388,1.388,0,0,1,2.286-1.576l3.371,4.876a1.388,1.388,0,0,1-.972,2.165l-.957.117,2.007,2.9a1.388,1.388,0,0,1-1.14,2.176Z" transform="translate(-195.755 -171.157)" fill="#231f20"/></svg>