<svg width="64" height="64" viewBox="0 0 64 64" fill="none" xmlns="http://www.w3.org/2000/svg">
<g clip-path="url(#clip0_40_30441)">
<path d="M32 0C25.671 0 19.4841 1.87677 14.2218 5.39297C8.95939 8.90918 4.85787 13.9069 2.43587 19.7541C0.013865 25.6014 -0.619842 32.0355 0.614885 38.2429C1.84961 44.4503 4.89732 50.1521 9.3726 54.6274C13.8479 59.1027 19.5497 62.1504 25.7571 63.3851C31.9645 64.6199 38.3986 63.9861 44.2459 61.5641C50.0931 59.1421 55.0908 55.0406 58.607 49.7782C62.1232 44.5159 64 38.329 64 32C64 23.5131 60.6286 15.3737 54.6274 9.37258C48.6263 3.37142 40.4869 0 32 0Z" fill="#222222"/>
<path d="M45.0079 45.84H40.9439V37.2H23.0559V45.84H18.9919V17.824H23.0559V26.256H40.9439V17.824H45.0079V45.84ZM23.2479 33.968H41.1359V29.504H23.2479V33.968Z" fill="white"/>
</g>
<defs>
<clipPath id="clip0_40_30441">
<rect width="64" height="64" fill="white"/>
</clipPath>
</defs>
</svg>
