<svg width="64" height="64" viewBox="0 0 64 64" fill="none" xmlns="http://www.w3.org/2000/svg">
<g clip-path="url(#clip0_40_30444)">
<path d="M32 64C49.6731 64 64 49.6731 64 32C64 14.3269 49.6731 0 32 0C14.3269 0 0 14.3269 0 32C0 49.6731 14.3269 64 32 64Z" fill="#F5F5F5"/>
<path d="M13.65 18.064C13.067 18.11 12.612 18.203 12.637 18.272C12.867 18.829 14.317 22.107 14.337 22.126C14.5854 22.1646 14.8365 22.1844 15.088 22.185C16.7011 22.2162 18.2866 22.61 19.727 23.337C20.7317 23.8183 21.6453 24.4703 22.427 25.264C23.6172 26.4279 24.4757 27.888 24.914 29.494C24.967 29.685 25.014 29.856 25.014 29.883C24.5353 29.9539 24.05 29.9683 23.568 29.926C22.768 29.926 22.085 29.939 22.043 29.956C21.6764 30.575 21.3707 31.2281 21.13 31.906C20.669 32.964 20.287 33.853 20.28 33.883C20.257 33.969 20.534 34.044 21.226 34.147C21.368 34.17 22.218 34.193 23.226 34.206L24.975 34.226L24.87 34.588C24.2323 36.5881 22.9964 38.3445 21.3291 39.62C19.6618 40.8955 17.6432 41.6289 15.546 41.721C15.292 41.737 14.96 41.754 14.805 41.754H14.525L13.658 43.737C12.917 45.437 12.801 45.724 12.851 45.737C13.4721 45.8538 14.1054 45.8914 14.736 45.849C15.888 45.8821 17.0398 45.7774 18.167 45.537C20.5401 45.1006 22.7759 44.1078 24.691 42.64C26.6061 41.1721 28.1458 39.2712 29.184 37.093C29.5653 36.217 29.8545 35.3038 30.047 34.368L30.07 34.207H33.816L33.829 34.279C34.037 35.4129 34.3973 36.5136 34.9 37.551C36.5592 40.8482 39.3843 43.4114 42.827 44.743C44.9778 45.6045 47.2818 46.0183 49.598 45.959C50.567 45.929 51.338 45.821 51.298 45.718C51.265 45.632 49.624 41.867 49.614 41.857C49.604 41.847 49.265 41.834 48.853 41.817C47.8348 41.7915 46.824 41.6366 45.845 41.356C44.3261 40.9174 42.9125 40.1744 41.69 39.172C40.2876 38.016 39.2346 36.4925 38.649 34.772C38.586 34.581 38.524 34.38 38.514 34.321L38.491 34.216L39.901 34.206C40.675 34.199 41.334 34.183 41.361 34.17C41.404 34.147 43.091 30.322 43.091 30.246C42.8385 30.1163 42.5636 30.0358 42.281 30.009C41.5912 29.9411 40.8977 29.918 40.205 29.94L38.467 29.918L38.533 29.684C39.0883 27.9331 40.0935 26.3586 41.448 25.1179C42.8026 23.8772 44.4591 23.0138 46.252 22.614C47.1414 22.3966 48.0516 22.2753 48.967 22.252C49.6 22.226 49.679 22.216 49.718 22.163C49.744 22.127 50.133 21.254 50.581 20.222C50.878 19.6034 51.1404 18.9688 51.367 18.321C51.0726 18.2403 50.7713 18.1874 50.467 18.163C49.5529 18.11 48.6365 18.1143 47.723 18.176C43.9735 18.465 40.4398 20.0438 37.723 22.644C35.7365 24.5355 34.3831 26.9947 33.848 29.685L33.808 29.926H30.123L30.11 29.85C30.1 29.81 30.064 29.623 30.024 29.432C29.4173 26.6208 27.9295 24.0764 25.777 22.169C23.2794 19.9526 20.1616 18.5564 16.845 18.169C15.785 18.0415 14.716 18.0063 13.65 18.064Z" fill="#007F88"/>
</g>
<defs>
<clipPath id="clip0_40_30444">
<rect width="64" height="64" fill="white"/>
</clipPath>
</defs>
</svg>
