<svg width="64" height="64" viewBox="0 0 64 64" fill="none" xmlns="http://www.w3.org/2000/svg">
<g clip-path="url(#clip0_494_11821)">
<path d="M32 64C49.6731 64 64 49.6731 64 32C64 14.3269 49.6731 0 32 0C14.3269 0 0 14.3269 0 32C0 49.6731 14.3269 64 32 64Z" fill="#F5F5F5"/>
<path d="M29.9288 34.8645C31.3964 34.8732 32.8623 34.8775 34.3266 34.8775C37.7974 34.8791 37.8412 39.7818 34.0717 39.7834C30.6723 39.7855 27.2724 39.7861 23.8719 39.785C23.5602 39.7839 23.3113 39.9138 23.1252 40.1746C22.7713 40.673 22.9385 42.5172 22.9385 43.1552C22.9385 43.3916 23.0324 43.6182 23.1995 43.7854C23.3667 43.9525 23.5933 44.0464 23.8297 44.0464H29.8379C29.8594 44.0464 29.8801 44.055 29.8953 44.0702C29.9105 44.0854 29.9191 44.1061 29.9191 44.1276V48.9085C29.9191 48.9658 29.8904 48.9945 29.833 48.9945C24.4888 49.001 19.1489 49.0016 13.8134 48.9961C13.2463 48.9951 12.8009 48.9253 12.4773 48.7867C10.3864 47.8874 10.5552 44.8906 12.7289 44.2006C13.7988 43.8614 15.6478 44.0416 16.8524 44.048C17.5699 44.0529 17.9855 43.7282 17.9855 43.0074C17.9877 36.0777 17.9877 29.1474 17.9855 22.2166C17.9855 21.4504 17.7533 20.9342 16.9319 20.9163C16.4081 20.9055 15.4 20.9049 13.9075 20.9147C13.3134 20.9179 12.8507 20.8508 12.5195 20.7134C10.5568 19.9 10.4676 17.1094 12.4254 16.2182C12.7381 16.0764 13.19 16.005 13.7809 16.0039C19.1349 16.0007 24.4872 16.0007 29.8379 16.0039C29.8594 16.0039 29.8801 16.0125 29.8953 16.0277C29.9105 16.0429 29.9191 16.0635 29.9191 16.0851V20.7929C29.9191 20.847 29.8926 20.8817 29.8395 20.8968C29.5846 20.9682 29.2843 20.9406 29.0798 20.9715C25.031 21.59 22.3037 25.1469 23.0602 29.2313C23.6495 32.418 26.7129 34.845 29.9288 34.8645Z" fill="url(#paint0_linear_494_11821)" style="mix-blend-mode:multiply"/>
<path d="M29.9288 34.8645C31.3964 34.8732 32.8623 34.8775 34.3266 34.8775C37.7974 34.8791 37.8412 39.7818 34.0717 39.7834C30.6723 39.7855 27.2724 39.7861 23.8719 39.785C23.5602 39.7839 23.3113 39.9138 23.1252 40.1746C22.7713 40.673 22.9385 42.5172 22.9385 43.1552C22.9385 43.3916 23.0324 43.6182 23.1995 43.7854C23.3667 43.9525 23.5933 44.0464 23.8297 44.0464H29.8379C29.8594 44.0464 29.8801 44.055 29.8953 44.0702C29.9105 44.0854 29.9191 44.1061 29.9191 44.1276V48.9085C29.9191 48.9658 29.8904 48.9945 29.833 48.9945C24.4888 49.001 19.1489 49.0016 13.8134 48.9961C13.2463 48.9951 12.8009 48.9253 12.4773 48.7867C10.3864 47.8874 10.5552 44.8906 12.7289 44.2006C13.7988 43.8614 15.6478 44.0416 16.8524 44.048C17.5699 44.0529 17.9855 43.7282 17.9855 43.0074C17.9877 36.0777 17.9877 29.1474 17.9855 22.2166C17.9855 21.4504 17.7533 20.9342 16.9319 20.9163C16.4081 20.9055 15.4 20.9049 13.9075 20.9147C13.3134 20.9179 12.8507 20.8508 12.5195 20.7134C10.5568 19.9 10.4676 17.1094 12.4254 16.2182C12.7381 16.0764 13.19 16.005 13.7809 16.0039C19.1349 16.0007 24.4872 16.0007 29.8379 16.0039C29.8594 16.0039 29.8801 16.0125 29.8953 16.0277C29.9105 16.0429 29.9191 16.0635 29.9191 16.0851V20.7929C29.9191 20.847 29.8926 20.8817 29.8395 20.8968C29.5846 20.9682 29.2843 20.9406 29.0798 20.9715C25.031 21.59 22.3037 25.1469 23.0602 29.2313C23.6495 32.418 26.7129 34.845 29.9288 34.8645Z" fill="url(#paint1_linear_494_11821)" style="mix-blend-mode:multiply"/>
<path d="M29.9603 30.3662C26.6275 30.3727 26.5025 25.4262 30.2542 25.4214C33.5464 25.417 36.8376 25.4165 40.1277 25.4197C40.8631 25.4197 41.3631 25.1535 41.3647 24.3759C41.3658 23.6432 41.3652 22.91 41.3631 22.1762C41.3614 21.3921 41.0887 20.9229 40.2689 20.9213C38.3327 20.9148 36.3982 20.9121 34.4653 20.9132C34.4437 20.9132 34.4231 20.9045 34.4079 20.889C34.3926 20.8734 34.3841 20.8524 34.3841 20.8304V16.0869C34.3841 16.0653 34.3926 16.0447 34.4079 16.0295C34.4231 16.0142 34.4437 16.0057 34.4653 16.0057C39.8712 15.9981 45.2722 15.9981 50.6684 16.0057C53.4314 16.0089 54.3454 19.556 51.9119 20.6729C50.8502 21.1616 48.5791 20.9181 47.3712 20.9116C46.5238 20.9083 46.316 21.5025 46.316 22.2671C46.316 29.2694 46.316 36.2332 46.316 43.1586C46.316 43.2757 46.3392 43.3916 46.3841 43.4998C46.429 43.6079 46.4948 43.7061 46.5778 43.7888C46.6607 43.8714 46.7592 43.9369 46.8675 43.9814C46.9758 44.0259 47.0918 44.0486 47.2089 44.0482C48.3096 44.045 49.4725 44.0444 50.6976 44.0466C53.394 44.0498 54.3632 47.6603 51.8762 48.7707C51.5407 48.92 51.0347 48.9947 50.3583 48.9947C45.0595 48.999 39.7619 48.9996 34.4653 48.9963C34.4437 48.9963 34.4231 48.9878 34.4079 48.9725C34.3926 48.9573 34.3841 48.9367 34.3841 48.9151V44.1618C34.3841 44.0882 34.4209 44.0514 34.4945 44.0514C37.5757 44.0368 40.1829 42.0888 41.0806 39.1731C42.2348 35.4182 39.8923 31.5886 36.1715 30.6C34.3841 30.126 31.8857 30.3646 29.9603 30.3662Z" fill="url(#paint2_linear_494_11821)" style="mix-blend-mode:multiply"/>
<path d="M29.9603 30.3662C26.6275 30.3727 26.5025 25.4262 30.2542 25.4214C33.5464 25.417 36.8376 25.4165 40.1277 25.4197C40.8631 25.4197 41.3631 25.1535 41.3647 24.3759C41.3658 23.6432 41.3652 22.91 41.3631 22.1762C41.3614 21.3921 41.0887 20.9229 40.2689 20.9213C38.3327 20.9148 36.3982 20.9121 34.4653 20.9132C34.4437 20.9132 34.4231 20.9045 34.4079 20.889C34.3926 20.8734 34.3841 20.8524 34.3841 20.8304V16.0869C34.3841 16.0653 34.3926 16.0447 34.4079 16.0295C34.4231 16.0142 34.4437 16.0057 34.4653 16.0057C39.8712 15.9981 45.2722 15.9981 50.6684 16.0057C53.4314 16.0089 54.3454 19.556 51.9119 20.6729C50.8502 21.1616 48.5791 20.9181 47.3712 20.9116C46.5238 20.9083 46.316 21.5025 46.316 22.2671C46.316 29.2694 46.316 36.2332 46.316 43.1586C46.316 43.2757 46.3392 43.3916 46.3841 43.4998C46.429 43.6079 46.4948 43.7061 46.5778 43.7888C46.6607 43.8714 46.7592 43.9369 46.8675 43.9814C46.9758 44.0259 47.0918 44.0486 47.2089 44.0482C48.3096 44.045 49.4725 44.0444 50.6976 44.0466C53.394 44.0498 54.3632 47.6603 51.8762 48.7707C51.5407 48.92 51.0347 48.9947 50.3583 48.9947C45.0595 48.999 39.7619 48.9996 34.4653 48.9963C34.4437 48.9963 34.4231 48.9878 34.4079 48.9725C34.3926 48.9573 34.3841 48.9367 34.3841 48.9151V44.1618C34.3841 44.0882 34.4209 44.0514 34.4945 44.0514C37.5757 44.0368 40.1829 42.0888 41.0806 39.1731C42.2348 35.4182 39.8923 31.5886 36.1715 30.6C34.3841 30.126 31.8857 30.3646 29.9603 30.3662Z" fill="url(#paint3_linear_494_11821)" style="mix-blend-mode:multiply"/>
</g>
<defs>
<linearGradient id="paint0_linear_494_11821" x1="23.9574" y1="16.0015" x2="23.9574" y2="48.9998" gradientUnits="userSpaceOnUse">
<stop stop-color="#55EB71"/>
<stop offset="1" stop-color="#026D39"/>
</linearGradient>
<linearGradient id="paint1_linear_494_11821" x1="23.9574" y1="16.0015" x2="23.9574" y2="48.9998" gradientUnits="userSpaceOnUse">
<stop stop-color="white"/>
<stop offset="1" stop-color="white"/>
</linearGradient>
<linearGradient id="paint2_linear_494_11821" x1="40.3857" y1="16" x2="40.3857" y2="48.9984" gradientUnits="userSpaceOnUse">
<stop stop-color="#55EB71"/>
<stop offset="1" stop-color="#026D39"/>
</linearGradient>
<linearGradient id="paint3_linear_494_11821" x1="40.3857" y1="16" x2="40.3857" y2="48.9984" gradientUnits="userSpaceOnUse">
<stop stop-color="white"/>
<stop offset="1" stop-color="white"/>
</linearGradient>
<clipPath id="clip0_494_11821">
<rect width="64" height="64" fill="white"/>
</clipPath>
</defs>
</svg>
