<svg xmlns="http://www.w3.org/2000/svg" xmlns:xlink="http://www.w3.org/1999/xlink" width="64" height="64" viewBox="0 0 64 64">
  <defs>
    <linearGradient id="linear-gradient" x1="0.5" x2="0.5" y2="1" gradientUnits="objectBoundingBox">
      <stop offset="0" stop-color="#5c2277"/>
      <stop offset="1" stop-color="#282459"/>
    </linearGradient>
    <clipPath id="clip-path">
      <path id="Path_7642" data-name="Path 7642" d="M32,64A32,32,0,1,0,0,32.07,32.021,32.021,0,0,0,32,64Z" fill="#7e1bcc"/>
    </clipPath>
    <clipPath id="clip-path-2">
      <rect id="Rectangle_1655" data-name="Rectangle 1655" width="20.867" height="46.749" fill="none"/>
    </clipPath>
  </defs>
  <g id="ilv" transform="translate(-478.93 -7217.402)">
    <g id="Group_5290" data-name="Group 5290" transform="translate(478.93 7217.402)">
      <g id="Group_5315" data-name="Group 5315">
        <path id="Path_7640" data-name="Path 7640" d="M32,64A32,32,0,1,0,0,32.07,32.021,32.021,0,0,0,32,64Z" fill="url(#linear-gradient)"/>
      </g>
      <g id="Group_5324" data-name="Group 5324" transform="translate(21.566 8.625)">
        <g id="Group_5323" data-name="Group 5323" transform="translate(0 0)" clip-path="url(#clip-path-2)">
          <path id="Path_10010" data-name="Path 10010" d="M15.245,10.962c-.074,5.412-.008,10.826-.1,16.238-.045,2.814-.036,5.629-.028,8.446a5.189,5.189,0,0,1-1.309,3.807,2.592,2.592,0,0,0-.256.344.537.537,0,0,0,.166.842c2.314,1.669,4.532,3.462,6.751,5.252.1.086.192.211.393.186A29.713,29.713,0,0,1,19.2,40.983a13.118,13.118,0,0,1-.385-2.029c-.144-1.69-.1-3.386-.135-5.079-.056-2.9-.028-5.8-.04-8.7a20.712,20.712,0,0,1,.181-2.963,7.663,7.663,0,0,1,1.323-3.69c.539-.714.547-.711.02-1.465a23.774,23.774,0,0,1-3.5-8.652A72.13,72.13,0,0,1,15.426,0h-.11c-.037,3.657-.022,7.309-.071,10.962M.364,17.567c-.173.222-.092.389.077.566A5.781,5.781,0,0,1,1.725,20.5a13.538,13.538,0,0,1,.5,3.313c.079,1.723.054,3.447.022,5.171q-.065,3.447-.035,6.894a22.435,22.435,0,0,1-1.139,7.411C.759,44.227.443,45.166,0,46.16a1.415,1.415,0,0,0,.208-.086c2.312-1.86,4.614-3.733,7.022-5.469a.52.52,0,0,0,.124-.792,8.869,8.869,0,0,0-.619-.83,4.04,4.04,0,0,1-.911-2.634c-.02-1.278-.045-2.556-.061-3.833-.055-4.71-.02-9.42-.077-14.133C5.614,12.337,5.613,6.291,5.581.246V0H5.495c-.266,2.4-.537,4.794-1,7.164A24.369,24.369,0,0,1,.364,17.567ZM1.937,46.69l.017.059c.074-.036.152-.068.224-.109a27.355,27.355,0,0,1,4.784-1.989,10.87,10.87,0,0,1,6.353-.173,26,26,0,0,1,5.3,2.1c.105.055.193.165.347.133a.338.338,0,0,0-.056-.077l-7.947-6.1a.737.737,0,0,0-1.039.025q-3.986,3.077-7.98,6.134M10.46,6.056c-.253,7.678-.245,15.943,0,23.669.217-7.723.224-15.99,0-23.669" transform="translate(0 0)" fill="#fff"/>
        </g>
      </g>
    </g>
  </g>
</svg>
