<svg width="64" height="64" viewBox="0 0 64 64" fill="none" xmlns="http://www.w3.org/2000/svg">
<g clip-path="url(#clip0_40_30450)">
<path d="M32.0001 64C38.3321 64 44.5217 62.1215 49.7856 58.6021C55.0495 55.0828 59.1509 50.081 61.5709 44.2297C63.9908 38.3783 64.6204 31.9406 63.38 25.7313C62.1396 19.522 59.0849 13.8203 54.6026 9.34783C50.1203 4.87535 44.4119 1.83318 38.1999 0.606374C31.988 -0.620436 25.5516 0.0232661 19.7056 2.45601C13.8596 4.88875 8.86676 9.00116 5.35899 14.2727C1.85121 19.5443 -0.0137746 25.7381 7.65974e-05 32.07C0.0241544 40.5431 3.40553 48.6612 9.40349 54.6461C15.4014 60.6309 23.527 63.9945 32.0001 64Z" fill="url(#paint0_linear_40_30450)"/>
<mask id="mask0_40_30450" style="mask-type:luminance" maskUnits="userSpaceOnUse" x="21" y="8" width="22" height="48">
<path d="M42.433 8.625H21.566V55.374H42.433V8.625Z" fill="white"/>
</mask>
<g mask="url(#mask0_40_30450)">
<path d="M36.811 19.587C36.737 24.999 36.803 30.413 36.711 35.825C36.666 38.639 36.675 41.454 36.683 44.271C36.7295 44.9608 36.6376 45.6529 36.4128 46.3066C36.188 46.9604 35.8348 47.5626 35.374 48.078C35.2794 48.1854 35.1937 48.3005 35.118 48.422C35.0625 48.484 35.0221 48.558 35 48.6382C34.9779 48.7185 34.9748 48.8028 34.9909 48.8844C35.007 48.9661 35.0419 49.0429 35.0928 49.1087C35.1436 49.1746 35.2091 49.2278 35.284 49.264C37.598 50.933 39.816 52.726 42.035 54.516C42.135 54.602 42.227 54.727 42.428 54.702C41.7218 53.0575 41.1655 51.3526 40.766 49.608C40.5846 48.9428 40.4559 48.2644 40.381 47.579C40.237 45.889 40.281 44.193 40.246 42.5C40.19 39.6 40.218 36.7 40.206 33.8C40.1954 32.8093 40.2559 31.8191 40.387 30.837C40.5007 29.5131 40.9566 28.2415 41.71 27.147C42.249 26.433 42.257 26.436 41.73 25.682C40.0032 23.0576 38.8136 20.1169 38.23 17.03C37.6526 14.2551 37.2392 11.4486 36.992 8.625L36.882 8.625C36.845 12.282 36.86 15.934 36.811 19.587ZM21.93 26.192C21.757 26.414 21.838 26.581 22.007 26.758C22.6154 27.4349 23.0553 28.2459 23.291 29.125C23.5942 30.2044 23.7622 31.3172 23.791 32.438C23.87 34.161 23.845 35.885 23.813 37.609C23.7697 39.907 23.758 42.205 23.778 44.503C23.8168 47.0197 23.4317 49.5251 22.639 51.914C22.325 52.852 22.009 53.791 21.566 54.785C21.6375 54.7619 21.7071 54.7331 21.774 54.699C24.086 52.839 26.388 50.966 28.796 49.23C28.8619 49.1909 28.9183 49.1378 28.9613 49.0744C29.0042 49.011 29.0327 48.9389 29.0445 48.8632C29.0563 48.7875 29.0513 48.7102 29.0298 48.6367C29.0083 48.5632 28.9708 48.4953 28.92 48.438C28.73 48.1495 28.5234 47.8724 28.301 47.608C27.6945 46.8659 27.3717 45.9323 27.39 44.974C27.37 43.696 27.345 42.418 27.329 41.141C27.274 36.431 27.309 31.721 27.252 27.008C27.18 20.962 27.179 14.916 27.147 8.871V8.625H27.061C26.795 11.025 26.524 13.419 26.061 15.789C25.5099 19.5302 24.0956 23.0918 21.93 26.192ZM23.503 55.315L23.52 55.374C23.594 55.338 23.672 55.306 23.744 55.265C25.2722 54.4521 26.874 53.7862 28.528 53.276C30.5812 52.5867 32.7934 52.5265 34.881 53.103C36.7193 53.6066 38.4967 54.3108 40.181 55.203C40.286 55.258 40.374 55.368 40.528 55.336C40.5131 55.3078 40.4942 55.2819 40.472 55.259L32.525 49.159C32.3837 49.0251 32.1951 48.9525 32.0004 48.9572C31.8057 48.9619 31.6208 49.0434 31.486 49.184C28.8287 51.2353 26.1687 53.28 23.506 55.318M32.026 14.681C31.773 22.359 31.781 30.624 32.026 38.35C32.243 30.627 32.25 22.36 32.026 14.681Z" fill="white"/>
</g>
</g>
<defs>
<linearGradient id="paint0_linear_40_30450" x1="32" y1="0" x2="32" y2="64" gradientUnits="userSpaceOnUse">
<stop stop-color="#5C2277"/>
<stop offset="1" stop-color="#282459"/>
</linearGradient>
<clipPath id="clip0_40_30450">
<rect width="64" height="64" fill="white"/>
</clipPath>
</defs>
</svg>
