<svg width="64" height="64" viewBox="0 0 64 64" fill="none" xmlns="http://www.w3.org/2000/svg">
<g clip-path="url(#clip0_40_30461)">
<path d="M32 64C49.6731 64 64 49.6731 64 32C64 14.3269 49.6731 0 32 0C14.3269 0 0 14.3269 0 32C0 49.6731 14.3269 64 32 64Z" fill="#EFAB11"/>
<path d="M41.3946 51.6731L38.3946 48.4911C38.371 48.4662 38.343 48.4463 38.3116 48.4325C38.2802 48.4188 38.2463 48.4114 38.212 48.4109C38.1777 48.4105 38.1432 48.4169 38.1114 48.4298C38.0796 48.4427 38.0507 48.4619 38.0265 48.4861L36.7364 49.777C36.712 49.8014 36.6835 49.8207 36.6515 49.8337C36.6194 49.8466 36.5844 49.8529 36.5499 49.8522C36.5154 49.8516 36.4818 49.844 36.4503 49.8299C36.4188 49.8158 36.3898 49.7954 36.3663 49.7701L32.0118 45.0461C31.9877 45.0193 31.9578 44.9978 31.9249 44.9832C31.892 44.9685 31.8564 44.961 31.8204 44.961C31.7844 44.961 31.7488 44.9685 31.7159 44.9832C31.683 44.9978 31.6541 45.0193 31.63 45.0461L27.4708 49.8171C27.4476 49.8439 27.4189 49.8657 27.3868 49.8809C27.3547 49.8961 27.3198 49.9045 27.2843 49.9054C27.2488 49.9064 27.2136 49.8999 27.1807 49.8864C27.1479 49.8729 27.1184 49.8527 27.0938 49.8271L25.7432 48.427C25.7191 48.4017 25.6904 48.3815 25.6583 48.3677C25.6261 48.3539 25.5917 48.3468 25.5567 48.3468C25.5217 48.3468 25.4873 48.3539 25.4552 48.3677C25.423 48.3815 25.3933 48.4017 25.3692 48.427L22.5577 51.4731C22.5333 51.5006 22.5036 51.5226 22.4698 51.5373C22.4361 51.552 22.3992 51.5591 22.3624 51.5581C22.3256 51.5572 22.2899 51.5482 22.2569 51.5318C22.224 51.5154 22.1949 51.4918 22.172 51.463C20.922 49.863 13.872 40.125 19.295 29.692C19.3144 29.6566 19.3243 29.6169 19.3243 29.5766C19.3243 29.5362 19.3144 29.4965 19.295 29.4611C18.816 28.5831 15.8867 22.679 20.9347 18.255C20.9623 18.2316 20.9847 18.2025 21.0001 18.1697C21.0154 18.1369 21.0232 18.1013 21.0235 18.0651L20.963 12.537C20.962 12.4888 20.9742 12.4413 20.9991 12.4001C21.024 12.3588 21.0605 12.3254 21.1036 12.3039C21.1467 12.2823 21.1953 12.2734 21.2432 12.2782C21.2912 12.283 21.3371 12.3014 21.3751 12.3311C24.4476 14.8112 28.0951 16.4772 31.9815 17.1751C32.0034 17.178 32.026 17.178 32.0479 17.1751C32.4719 17.1221 37.1152 16.4641 42.5372 12.2981C42.5741 12.2685 42.6191 12.2496 42.6661 12.2437C42.7131 12.2378 42.7607 12.2451 42.8038 12.2647C42.8469 12.2843 42.8838 12.3154 42.9102 12.3546C42.9367 12.3939 42.9512 12.4398 42.9532 12.4871L43.0724 18.2671C43.0726 18.3014 43.0807 18.3351 43.0948 18.3662C43.1089 18.3974 43.1288 18.4253 43.1544 18.448C44.6161 19.7825 45.5635 21.5878 45.8302 23.549C46.0968 25.5102 45.6658 27.5028 44.6134 29.1791C44.592 29.2157 44.5811 29.2572 44.5811 29.2996C44.5811 29.3419 44.592 29.3835 44.6134 29.4201C45.2864 30.5531 50.4139 40.006 41.8009 51.641C41.7761 51.6744 41.7433 51.7015 41.7061 51.7201C41.669 51.7387 41.6286 51.7483 41.587 51.7481C41.5516 51.7495 41.5156 51.7435 41.4825 51.7306C41.4495 51.7177 41.4197 51.6982 41.3946 51.6731ZM31.9688 26.8051C31.3688 27.3461 29.6134 29.2441 31.9864 31.0351C32.0319 31.0695 32.0876 31.088 32.1446 31.088C32.2016 31.088 32.2573 31.0695 32.3028 31.0351C32.8438 30.6041 34.4934 28.9961 32.3194 26.8191C32.2692 26.7699 32.2022 26.7422 32.1319 26.7421C32.0712 26.7413 32.0134 26.7639 31.9688 26.8051ZM32.6182 24.6131C32.6181 25.2313 32.7402 25.8435 32.9766 26.4147C33.2131 26.9859 33.5601 27.5049 33.9972 27.942C34.4343 28.3792 34.9534 28.7261 35.5245 28.9627C36.0956 29.1993 36.7071 29.3211 37.3253 29.3211C37.9436 29.3212 38.5567 29.1995 39.128 28.9629C39.6993 28.7264 40.2181 28.3797 40.6554 27.9425C41.0926 27.5053 41.4392 26.9862 41.6759 26.415C41.9125 25.8437 42.0343 25.2314 42.0343 24.6131C42.0343 23.9948 41.9125 23.3825 41.6759 22.8113C41.4392 22.2401 41.0927 21.7211 40.6554 21.284C40.2181 20.8469 39.6993 20.5003 39.128 20.2638C38.5567 20.0274 37.9436 19.9058 37.3253 19.906C36.0771 19.9063 34.8807 20.4024 33.9981 21.2851C33.1156 22.1678 32.6182 23.3649 32.6182 24.6131ZM21.9249 24.6131C21.9249 25.8617 22.4209 27.0593 23.3038 27.9422C24.1867 28.8251 25.3843 29.3211 26.6329 29.3211C27.2512 29.3212 27.8633 29.1995 28.4347 28.9629C29.006 28.7264 29.5247 28.3797 29.962 27.9425C30.3993 27.5053 30.7468 26.9862 30.9835 26.415C31.2201 25.8437 31.3419 25.2314 31.3419 24.6131C31.3418 23.9948 31.2192 23.3826 30.9825 22.8114C30.7458 22.2403 30.3993 21.7214 29.962 21.2843C29.5247 20.8472 29.0059 20.5005 28.4347 20.2641C27.8634 20.0276 27.2512 19.9059 26.6329 19.906C25.3844 19.906 24.1867 20.402 23.3038 21.2847C22.4209 22.1674 21.9252 23.3646 21.9249 24.6131ZM35.0694 24.6961C35.0694 24.0821 35.314 23.4933 35.7481 23.0591C36.1823 22.625 36.7709 22.381 37.3849 22.381C37.9987 22.3813 38.5867 22.6254 39.0206 23.0595C39.4545 23.4936 39.6983 24.0823 39.6983 24.6961C39.6983 25.3099 39.4545 25.8986 39.0206 26.3327C38.5867 26.7668 37.9987 27.0108 37.3849 27.011C37.0807 27.0113 36.7792 26.9517 36.4981 26.8355C36.217 26.7193 35.9614 26.5488 35.7462 26.3338C35.531 26.1188 35.3607 25.8634 35.2442 25.5824C35.1278 25.3014 35.0675 25.0003 35.0675 24.6961H35.0694ZM24.252 24.6961C24.252 24.0821 24.4956 23.4933 24.9298 23.0591C25.3639 22.625 25.9525 22.381 26.5665 22.381C27.1803 22.3813 27.7693 22.6254 28.2032 23.0595C28.6371 23.4936 28.8809 24.0823 28.8809 24.6961C28.8809 25.3099 28.6371 25.8986 28.2032 26.3327C27.7693 26.7668 27.1803 27.0108 26.5665 27.011C26.2624 27.0112 25.9617 26.9514 25.6807 26.8351C25.3998 26.7188 25.1439 26.5484 24.9288 26.3334C24.7137 26.1184 24.5432 25.8631 24.4268 25.5822C24.3104 25.3013 24.252 25.0002 24.252 24.6961Z" fill="white"/>
</g>
<defs>
<clipPath id="clip0_40_30461">
<rect width="64" height="64" fill="white"/>
</clipPath>
</defs>
</svg>
