<svg width="66" height="66" viewBox="0 0 66 66" fill="none" xmlns="http://www.w3.org/2000/svg">
<path d="M33 65C50.6731 65 65 50.6731 65 33C65 15.3269 50.6731 1 33 1C15.3269 1 1 15.3269 1 33C1 50.6731 15.3269 65 33 65Z" stroke="#0068B3" stroke-width="2" stroke-miterlimit="10"/>
<path d="M32.8408 62.5713C49.2587 62.5713 62.568 49.2619 62.568 32.844C62.568 16.4261 49.2587 3.11676 32.8408 3.11676C16.4229 3.11676 3.11353 16.4261 3.11353 32.844C3.11353 49.2619 16.4229 62.5713 32.8408 62.5713Z" fill="#0068B3"/>
<path d="M19.2093 18.3703C25.0185 18.3289 29.2107 16.9666 32.9763 15.2509C36.6369 16.9379 40.5713 18.4372 46.8166 18.3703L47.1476 40.8687C46.6574 47.5787 43 53.2351 32.9763 56.7684C24.7289 54.0564 19.4226 49.1957 18.8496 40.8687L19.2093 18.3703Z" fill="#BFAE76"/>
<path d="M21.2339 15.4896L21.5203 13.7739L20.3267 12.6057L21.966 12.4434L22.7745 10.8168L23.5321 12.4434L25.1841 12.6057L24.0159 13.7739L24.3151 15.4896L22.7745 14.7575L21.2339 15.4896Z" fill="#BFAE76"/>
<path d="M27.8613 13.9012L28.1478 12.1855L26.9541 11.0173L28.5934 10.855L29.4019 9.22839L30.1595 10.855L31.8116 11.0173L30.6433 12.1855L30.9426 13.9012L29.4019 13.1691L27.8613 13.9012Z" fill="#BFAE76"/>
<path d="M34.9978 13.9012L35.2842 12.1855L34.0906 11.0173L35.7299 10.855L36.5384 9.22839L37.296 10.855L38.948 11.0173L37.7798 12.1855L38.079 13.9012L36.5384 13.1691L34.9978 13.9012Z" fill="#BFAE76"/>
<path d="M41.6186 15.4896L41.9051 13.7739L40.7114 12.6057L42.3507 12.4434L43.1592 10.8168L43.9168 12.4434L45.5689 12.6057L44.4007 13.7739L44.6999 15.4896L43.1592 14.7575L41.6186 15.4896Z" fill="#BFAE76"/>
<path d="M19.9414 19.182C25.4291 19.1438 29.389 17.8355 32.9445 16.1962C36.4014 17.8101 40.1193 19.2488 46.0176 19.182L46.3296 40.7286C45.8776 47.1299 42.5671 52.1815 32.9445 55.9567C25.1076 52.8118 20.1292 48.5782 19.6008 40.7286L19.9414 19.182Z" fill="#0068B3"/>
<path d="M36.777 51.6754C35.5452 52.3566 34.2496 52.8468 32.97 53.4739C31.6172 52.9423 30.3567 52.3502 29.1948 51.6754V33.5125C31.1938 35.7375 34.7589 35.6292 36.777 33.5125V51.6754Z" fill="#FFFEFF"/>
<path d="M29.1918 33.5093V51.6723C25.0569 49.2785 22.2748 45.8694 22.0552 40.5568L22.1602 30.3135C22.1602 30.3135 25.8113 29.3744 27.6766 29.1898C27.7243 31.087 28.3132 32.5289 29.1918 33.5093Z" fill="#00AB49"/>
<path d="M36.7771 51.6754C40.3454 49.7019 43.3725 46.958 43.8309 41.2252L43.8118 30.2243C43.8118 30.2243 40.1353 29.3585 38.2604 29.1866C38.2827 31.0583 37.7289 32.5098 36.7771 33.5093V51.6754Z" fill="#F11126"/>
<path d="M29.2776 31.8158C28.3608 26.8533 33.1069 26.9075 34.6698 27.4677C32.1137 22.9031 26.9411 28.2507 29.2776 31.8158Z" fill="#BFAE76"/>
<path d="M36.6021 32.0674C32.7028 35.4096 30.3441 30.6159 30.2804 29.2758C27.7753 33.9709 34.8355 36.0017 36.6021 32.0674Z" fill="#BFAE76"/>
<path d="M33.1802 25.2618C37.6748 27.2354 35.246 31.3257 33.9982 32.3188C38.9639 32.3889 37.4233 25.1822 33.1802 25.2618Z" fill="#BFAE76"/>
<path d="M30.866 28.8492H31.8082V29.0434H31.1175V29.4317H31.6904V29.6609H31.1175V30.2498H30.8564L30.866 28.8492Z" fill="#BFAE76"/>
<path d="M32.1423 30.2529H32.3811V28.8492H32.1423V30.2529Z" fill="#BFAE76"/>
<path d="M32.9797 30.2529C32.8619 30.2529 32.7568 30.1256 32.7568 30.011V29.1261C32.7568 29.0083 32.8619 28.8492 32.9797 28.8492H33.5272C33.6322 28.8492 33.7723 28.9415 33.7723 29.0465V29.2312H33.5049V29.1229C33.5049 29.0847 33.4571 29.0497 33.4189 29.0497H33.1165C33.0751 29.0497 33.0369 29.1038 33.0369 29.1452V29.9028C33.0369 29.9442 33.0751 30.0047 33.1165 30.0047H33.4189C33.4571 30.0047 33.5049 29.9792 33.5049 29.941V29.8073L33.3744 29.7627V29.5431H33.7723V29.9633C33.7723 30.0842 33.6481 30.2529 33.5272 30.2529H32.9797Z" fill="#BFAE76"/>
<path d="M34.9086 29.8805L35.176 29.8741V30.046C35.176 30.1447 35.0487 30.2593 34.95 30.2593H34.3961C34.2879 30.2593 34.1829 30.1288 34.1829 30.0206V29.1166C34.1829 28.9988 34.3038 28.8524 34.4216 28.8524H34.9532C35.055 28.8524 35.1792 28.9638 35.1792 29.0656V29.2407H34.9118V29.1548C34.9118 29.1166 34.8736 29.072 34.8354 29.072H34.498C34.4598 29.072 34.412 29.1166 34.412 29.1548V29.9569C34.412 30.0015 34.4471 30.0619 34.4916 30.0619H34.8386C34.8577 30.0619 34.915 30.0269 34.915 30.0015L34.9086 29.8805Z" fill="#BFAE76"/>
<path d="M22.1919 28.4736V27.5664C24.3182 27.0316 26.4923 26.8056 28.6536 26.5605C28.4436 26.8598 28.3194 27.1622 28.243 27.4295C26.1772 27.6301 24.1559 27.9452 22.1919 28.4736Z" fill="#BFAE76"/>
<path d="M43.8119 28.5054V27.5982C41.6855 27.0634 39.5114 26.8374 37.3501 26.5923C37.5602 26.8916 37.6843 27.194 37.7607 27.4613C39.8266 27.6619 41.8479 27.977 43.8119 28.5054Z" fill="#BFAE76"/>
<path d="M22.1826 25.8284L22.9816 25.5992V21.1906L22.1826 21.3657V25.8284Z" fill="#BFAE76"/>
<path d="M25.6774 25.0549L26.5401 24.9148V21.2606L27.6287 21.0664V20.347L24.6079 20.8404V21.5948L25.6806 21.3847V25.0549H25.6774Z" fill="#BFAE76"/>
<path d="M31.4421 22.8108L30.0893 22.8999V21.1078C30.0893 21.0187 30.2007 20.9391 30.2898 20.9327L31.213 20.8723C31.2957 20.8659 31.4421 20.9455 31.4421 21.0314V22.8108ZM29.3031 24.587L30.1434 24.5169L30.1498 23.7339L31.4167 23.6702L31.4294 24.4787L32.2984 24.4501L32.2602 20.6017C32.257 20.3534 31.9865 20.0542 31.7382 20.0669L29.9238 20.1656C29.6023 20.1847 29.2744 20.5635 29.2776 20.885L29.3031 24.587Z" fill="#BFAE76"/>
<path d="M34.0459 24.447L34.0841 20.0606L34.9085 20.0861V23.7499L36.6083 23.8867L36.5956 24.5934L34.0459 24.447Z" fill="#BFAE76"/>
<path d="M38.3433 24.8353L39.1581 24.934V20.5254L38.3433 20.3503V24.8353Z" fill="#BFAE76"/>
<path d="M41.3481 20.8341C41.1253 20.8373 40.8452 20.9996 40.842 21.2034L40.7815 25.1281L41.6378 25.3032L41.6505 24.3833L42.8792 24.6443L42.8919 25.6024L43.7132 25.8253L43.6622 21.8368C43.659 21.5694 43.4012 21.2861 43.1402 21.2288L41.4372 20.8437C41.4086 20.8373 41.3799 20.8341 41.3481 20.8341ZM41.7396 21.6649C41.746 21.6649 41.7555 21.6649 41.7619 21.6649L42.7296 21.8495C42.8028 21.8654 42.8919 21.9355 42.8919 22.0119L42.8537 23.8008L41.625 23.5525L41.6378 21.8018C41.6378 21.7477 41.6855 21.6745 41.7396 21.6649Z" fill="#BFAE76"/>
</svg>
