<svg width="64" height="64" viewBox="0 0 64 64" fill="none" xmlns="http://www.w3.org/2000/svg">
<g clip-path="url(#clip0_333_10343)">
<path d="M32 63.0303C49.1376 63.0303 63.0303 49.1376 63.0303 32C63.0303 14.8625 49.1376 0.969727 32 0.969727C14.8625 0.969727 0.969727 14.8625 0.969727 32C0.969727 49.1376 14.8625 63.0303 32 63.0303Z" stroke="#0068B3" stroke-width="2" stroke-miterlimit="10"/>
<path d="M31.846 60.6754C47.7664 60.6754 60.6724 47.7693 60.6724 31.8489C60.6724 15.9285 47.7664 3.02246 31.846 3.02246C15.9256 3.02246 3.01953 15.9285 3.01953 31.8489C3.01953 47.7693 15.9256 60.6754 31.846 60.6754Z" fill="#0068B3"/>
<path d="M18.6271 17.8134C24.2603 17.7733 28.3254 16.4523 31.9769 14.7886C35.5266 16.4245 39.3418 17.8783 45.3978 17.8134L45.7188 39.6301C45.2435 46.1367 41.6969 51.6217 31.9769 55.048C23.9795 52.4181 18.834 47.7047 18.2783 39.6301L18.6271 17.8134Z" fill="#BFAE76"/>
<path d="M20.5906 15.0205L20.8684 13.3567L19.7109 12.2239L21.3006 12.0666L22.0846 10.4893L22.8192 12.0666L24.4211 12.2239L23.2883 13.3567L23.5785 15.0205L22.0846 14.3105L20.5906 15.0205Z" fill="#BFAE76"/>
<path d="M27.0174 13.4799L27.2952 11.8162L26.1377 10.6834L27.7273 10.526L28.5113 8.94873L29.246 10.526L30.848 10.6834L29.7151 11.8162L30.0053 13.4799L28.5113 12.77L27.0174 13.4799Z" fill="#BFAE76"/>
<path d="M33.9373 13.4799L34.215 11.8162L33.0576 10.6834L34.6472 10.526L35.4312 8.94873L36.1659 10.526L37.7678 10.6834L36.635 11.8162L36.9252 13.4799L35.4312 12.77L33.9373 13.4799Z" fill="#BFAE76"/>
<path d="M40.3572 15.0205L40.6351 13.3567L39.4775 12.2239L41.0672 12.0666L41.8512 10.4893L42.5858 12.0666L44.1878 12.2239L43.055 13.3567L43.3452 15.0205L41.8512 14.3105L40.3572 15.0205Z" fill="#BFAE76"/>
<path d="M19.3371 18.6009C24.6585 18.5638 28.4984 17.2952 31.9462 15.7056C35.2983 17.2706 38.9036 18.6657 44.6231 18.6009L44.9257 39.4946C44.4874 45.7019 41.2772 50.6004 31.9462 54.2612C24.3468 51.2116 19.5192 47.1063 19.0068 39.4946L19.3371 18.6009Z" fill="#0068B3"/>
<path d="M35.663 50.1096C34.4685 50.7701 33.2122 51.2455 31.9713 51.8536C30.6595 51.3381 29.4372 50.7639 28.3105 50.1096V32.4971C30.249 34.6546 33.706 34.5496 35.663 32.4971V50.1096Z" fill="#FFFEFF"/>
<path d="M28.3071 32.4938V50.1064C24.2975 47.7851 21.5997 44.4793 21.3867 39.3277L21.4885 29.3948C21.4885 29.3948 25.029 28.4842 26.8378 28.3052C26.884 30.1449 27.4551 31.5431 28.3071 32.4938Z" fill="#00AB49"/>
<path d="M35.6631 50.1096C39.1233 48.1959 42.0586 45.5351 42.5031 39.976L42.4846 29.3085C42.4846 29.3085 38.9195 28.4689 37.1014 28.3022C37.1231 30.1172 36.586 31.5247 35.6631 32.494V50.1096Z" fill="#F11126"/>
<path d="M28.3905 30.8519C27.5015 26.0398 32.1038 26.0923 33.6193 26.6356C31.1407 22.2093 26.1248 27.3948 28.3905 30.8519Z" fill="#BFAE76"/>
<path d="M35.4926 31.0957C31.7114 34.3366 29.4242 29.6882 29.3624 28.3887C26.9333 32.9415 33.7795 34.9108 35.4926 31.0957Z" fill="#BFAE76"/>
<path d="M32.1748 24.4962C36.5332 26.41 34.178 30.3764 32.968 31.3394C37.7832 31.4074 36.2893 24.4191 32.1748 24.4962Z" fill="#BFAE76"/>
<path d="M29.9302 27.9751H30.8439V28.1634H30.1741V28.5399H30.7296V28.7622H30.1741V29.3333H29.9209L29.9302 27.9751Z" fill="#BFAE76"/>
<path d="M31.168 29.3363H31.3995V27.9751H31.168V29.3363Z" fill="#BFAE76"/>
<path d="M31.9808 29.3363C31.8666 29.3363 31.7646 29.2128 31.7646 29.1017V28.2436C31.7646 28.1294 31.8666 27.9751 31.9808 27.9751H32.5117C32.6135 27.9751 32.7494 28.0646 32.7494 28.1664V28.3455H32.4901V28.2405C32.4901 28.2035 32.4437 28.1695 32.4067 28.1695H32.1134C32.0733 28.1695 32.0363 28.222 32.0363 28.2621V28.9968C32.0363 29.0369 32.0733 29.0956 32.1134 29.0956H32.4067C32.4437 29.0956 32.4901 29.0709 32.4901 29.0338V28.9042L32.3635 28.8609V28.648H32.7494V29.0554C32.7494 29.1727 32.6289 29.3363 32.5117 29.3363H31.9808Z" fill="#BFAE76"/>
<path d="M33.8512 28.975L34.1105 28.9688V29.1355C34.1105 29.2312 33.987 29.3423 33.8913 29.3423H33.3542C33.2493 29.3423 33.1475 29.2157 33.1475 29.1108V28.2342C33.1475 28.12 33.2647 27.978 33.3789 27.978H33.8944C33.9931 27.978 34.1136 28.0861 34.1136 28.1848V28.3546H33.8543V28.2713C33.8543 28.2342 33.8172 28.191 33.7802 28.191H33.453C33.416 28.191 33.3696 28.2342 33.3696 28.2713V29.0491C33.3696 29.0923 33.4037 29.1509 33.4468 29.1509H33.7833C33.8018 29.1509 33.8574 29.1169 33.8574 29.0923L33.8512 28.975Z" fill="#BFAE76"/>
<path d="M21.5195 27.611V26.7313C23.5814 26.2127 25.6896 25.9935 27.7854 25.7559C27.5818 26.0461 27.4613 26.3393 27.3873 26.5985C25.3841 26.793 23.424 27.0986 21.5195 27.611Z" fill="#BFAE76"/>
<path d="M42.4847 27.6417V26.762C40.4228 26.2434 38.3146 26.0243 36.2188 25.7866C36.4225 26.0769 36.5428 26.3701 36.6169 26.6293C38.6202 26.8238 40.5803 27.1294 42.4847 27.6417Z" fill="#BFAE76"/>
<path d="M21.5107 25.0456L22.2855 24.8233V20.5483L21.5107 20.7181V25.0456Z" fill="#BFAE76"/>
<path d="M24.8994 24.2957L25.736 24.1599V20.6164L26.7916 20.4281V19.7305L23.8623 20.2089V20.9405L24.9025 20.7367V24.2957H24.8994Z" fill="#BFAE76"/>
<path d="M30.4896 22.1196L29.1778 22.206V20.4682C29.1778 20.3818 29.2858 20.3046 29.3722 20.2984L30.2674 20.2399C30.3476 20.2337 30.4896 20.3109 30.4896 20.3941V22.1196ZM28.4154 23.842L29.2302 23.774L29.2364 23.0148L30.4649 22.953L30.4772 23.737L31.3199 23.7093L31.2829 19.9775C31.2798 19.7367 31.0175 19.4466 30.7767 19.4589L29.0173 19.5546C28.7055 19.5731 28.3875 19.9404 28.3906 20.2522L28.4154 23.842Z" fill="#BFAE76"/>
<path d="M33.0146 23.7061L33.0517 19.4526L33.8511 19.4774V23.0301L35.4994 23.1628L35.4871 23.8481L33.0146 23.7061Z" fill="#BFAE76"/>
<path d="M37.1816 24.0825L37.9717 24.1782V19.9032L37.1816 19.7334V24.0825Z" fill="#BFAE76"/>
<path d="M40.0953 20.2026C39.8793 20.2057 39.6077 20.3631 39.6046 20.5607L39.5459 24.3665L40.3762 24.5363L40.3886 23.6443L41.58 23.8974L41.5923 24.8264L42.3888 25.0426L42.3393 21.175C42.3362 20.9157 42.0862 20.6409 41.8331 20.5854L40.1817 20.2119C40.154 20.2057 40.1262 20.2026 40.0953 20.2026ZM40.475 21.0083C40.4812 21.0083 40.4904 21.0083 40.4966 21.0083L41.435 21.1873C41.5059 21.2027 41.5923 21.2707 41.5923 21.3447L41.5553 23.0794L40.3638 22.8387L40.3762 21.141C40.3762 21.0886 40.4225 21.0176 40.475 21.0083Z" fill="#BFAE76"/>
</g>
<defs>
<clipPath id="clip0_333_10343">
<rect width="64" height="64" fill="white"/>
</clipPath>
</defs>
</svg>
