<svg width="64" height="64" viewBox="0 0 64 64" fill="none" xmlns="http://www.w3.org/2000/svg">
<path d="M32 64C49.6731 64 64 49.6731 64 32C64 14.3269 49.6731 0 32 0C14.3269 0 0 14.3269 0 32C0 49.6731 14.3269 64 32 64Z" fill="#F5F5F5"/>
<path d="M64 27.1884V36.7956C63.639 36.9543 63.2559 37.0569 62.864 37.0998C60.208 36.9717 61.056 39.3575 60.32 40.6065C59.584 41.8554 60.224 42.3197 61.088 42.8641C61.2667 42.9559 61.4223 43.0871 61.543 43.2478C61.6638 43.4085 61.7465 43.5945 61.785 43.7918C61.8235 43.9891 61.8168 44.1926 61.7654 44.3869C61.7139 44.5812 61.6191 44.7613 61.488 44.9137L57.904 51.1103C57.584 51.6547 57.104 52.3112 56.512 51.9109C54.256 50.4058 53.424 52.4553 52.128 53.5121C51.328 54.1526 51.04 54.7771 51.632 55.7058C52.224 56.6345 51.904 57.5151 50.832 58.0916C48.864 59.1804 46.912 60.3172 44.976 61.4861C44.08 62.0305 43.376 62.0145 42.816 61.0538C42.256 60.0931 41.44 60.0771 40.32 60.2372C38 60.5734 36.848 61.6783 36.832 64H27.2C27.088 63.6317 26.928 63.2634 26.848 62.8792C26.688 62.0145 27.008 60.8296 25.584 60.8136C24.16 60.7976 22.384 58.8441 21.04 61.1819C20.528 62.0786 19.792 61.9344 19.008 61.4701C17.008 60.2852 14.992 59.1163 12.976 57.9795C12.064 57.4671 11.696 56.8106 12.288 55.8819C12.4405 55.707 12.5495 55.4985 12.6061 55.2734C12.6628 55.0483 12.6655 54.813 12.614 54.5867C12.5626 54.3603 12.4584 54.1494 12.31 53.971C12.1615 53.7926 11.9731 53.6518 11.76 53.5602C10.592 52.8717 10.16 50.5819 8.144 51.7348C7.04 52.3433 6.544 51.7348 5.936 50.8702C4.944 49.0608 3.936 47.2674 2.832 45.5221C2.096 44.3373 1.824 43.3925 3.28 42.5759C3.49469 42.4911 3.67379 42.3351 3.78736 42.134C3.90094 41.9329 3.94211 41.6989 3.904 41.4711C3.96922 40.3411 3.60185 39.2287 2.87661 38.3601C2.15138 37.4916 1.12276 36.9321 0 36.7956L0 27.1884C0.418804 27.2341 0.842528 27.1898 1.24285 27.0584C1.64317 26.9271 2.01086 26.7117 2.32135 26.4268C2.63184 26.1418 2.87797 25.7938 3.04329 25.406C3.20861 25.0183 3.28931 24.5996 3.28 24.1781C3.44 22.8491 4.128 21.6642 2.512 20.7676C1.84 20.3833 2.16 19.6948 2.512 19.1664L6.064 12.9377C6.13831 12.7584 6.24842 12.5963 6.38758 12.4611C6.52675 12.3259 6.69203 12.2206 6.8733 12.1517C7.05457 12.0827 7.24801 12.0515 7.44176 12.06C7.6355 12.0685 7.82546 12.1166 8 12.2012C9.824 12.7776 12.8 9.79935 12.176 7.97398C12.0953 7.7938 12.0521 7.5991 12.0489 7.40169C12.0457 7.20428 12.0826 7.00828 12.1575 6.82559C12.2323 6.6429 12.3434 6.47733 12.4841 6.33893C12.6248 6.20054 12.7922 6.09221 12.976 6.02052C14.704 5.02777 16.448 4.05104 18.16 3.02627C19.344 2.32174 20.48 1.53715 21.472 3.28246C21.5505 3.43011 21.6789 3.54501 21.8342 3.60661C21.9896 3.66822 22.1618 3.67251 22.32 3.61871C23.6908 3.36432 25.0352 2.98375 26.336 2.48186C27.2 2.08156 26.816 0.88066 27.2 0H36.8C36.8 2.19365 38.128 3.05829 40.112 3.2024C40.912 3.2024 41.808 4.29122 42.464 3.31449C43.616 1.56918 44.8 2.35377 45.952 3.17038C47.552 4.16312 49.28 5.10783 50.944 6.06855C51.456 6.37278 52.24 6.77308 51.92 7.36552C50.656 9.71929 52.848 10.4078 53.808 11.7048C54.416 12.5214 55.024 12.8256 55.984 12.2972C56.944 11.7688 57.584 12.2972 58.032 13.1619C59.072 15.0193 60.08 16.8927 61.232 18.67C61.984 19.8389 62.064 20.7035 60.784 21.4721C60.384 21.6963 60.016 22.0005 60.192 22.5929C60.4313 23.8919 60.8012 25.1633 61.296 26.3878C61.744 27.1884 63.104 26.7561 64 27.1884ZM58.976 31.992C59.0032 26.6841 57.4624 21.4865 54.5473 17.052C51.6322 12.6176 47.4727 9.14407 42.5913 7.06778C37.7099 4.99149 32.3243 4.40501 27.1109 5.38201C21.8975 6.35901 17.0888 8.85591 13.2889 12.5591C9.48894 16.2623 6.86718 21.0066 5.75291 26.1962C4.63865 31.3857 5.08157 36.789 7.02604 41.7275C8.97051 46.6659 12.3298 50.9192 16.682 53.9532C21.0342 56.9871 26.1852 58.6664 31.488 58.7801C35.0516 58.8373 38.5913 58.1884 41.9033 56.871C45.2153 55.5535 48.2341 53.5934 50.7861 51.1035C53.338 48.6137 55.3726 45.6433 56.7727 42.3633C58.1728 39.0833 58.9107 35.5586 58.944 31.992H58.976Z" fill="#F6931E"/>
<path d="M58.9442 31.9918C58.9058 37.323 57.2873 42.5229 54.2935 46.9328C51.2997 51.3427 47.0654 54.7642 42.127 56.7639C37.1886 58.7636 31.7682 59.2515 26.5525 58.1658C21.3368 57.0801 16.5604 54.4697 12.8283 50.6652C9.09623 46.8607 6.57643 42.0333 5.58807 36.7945C4.59971 31.5557 5.18726 26.1412 7.27631 21.2369C9.36535 16.3325 12.8619 12.159 17.323 9.2449C21.7842 6.33083 27.0091 4.80735 32.3362 4.86743C39.4542 4.94772 46.2506 7.84701 51.2374 12.9306C56.2243 18.0143 58.9954 24.8681 58.9442 31.9918ZM32.0002 56.5062C36.8664 56.4965 41.621 55.0461 45.6651 52.3374C49.7092 49.6288 52.8619 45.7831 54.7262 41.2848C56.5905 36.7865 57.083 31.8367 56.1417 27.0587C55.2004 22.2808 52.8674 17.8885 49.4364 14.435C46.0055 10.9814 41.6301 8.62116 36.8613 7.65138C32.0925 6.68161 27.1436 7.14572 22.6379 8.98527C18.1322 10.8248 14.2712 13.9575 11.5411 17.9888C8.81106 22.0201 7.33407 26.7698 7.29617 31.6395C7.27931 34.8976 7.90574 38.127 9.13948 41.1422C10.3732 44.1574 12.19 46.8989 14.4854 49.2095C16.7809 51.5201 19.5098 53.3541 22.5155 54.6063C25.5212 55.8584 28.7444 56.5041 32.0002 56.5062Z" fill="#FCFDFE"/>
<path d="M32.0002 56.5068C27.121 56.4877 22.3572 55.0203 18.3118 52.2903C14.2665 49.5604 11.1214 45.6907 9.27476 41.171C7.42813 36.6514 6.96298 31.6851 7.93819 26.9007C8.9134 22.1164 11.2851 17.7292 14.7531 14.2945C18.2211 10.8598 22.6295 8.53204 27.4201 7.60589C32.2107 6.67973 37.1682 7.19684 41.665 9.09174C46.1618 10.9866 49.9957 14.1741 52.6814 18.2507C55.3671 22.3273 56.7838 27.1097 56.7522 31.9924C56.6972 38.5214 54.0637 44.7636 49.4264 49.3564C44.789 53.9492 38.5245 56.5197 32.0002 56.5068ZM36.0002 26.3562V22.3852C36.0002 21.1203 35.5042 20.784 34.4002 21.5045L28.2882 24.9471L23.2802 27.8453C22.6882 28.1976 22.0002 28.5819 22.4162 29.3664C22.8322 30.151 23.4562 29.5266 24.0162 29.3664C25.6162 28.7099 27.2162 28.0214 28.8162 27.3169C30.0482 26.7725 30.6882 26.9326 30.6082 28.4698C30.5042 29.7967 30.5042 31.1298 30.6082 32.4568C30.7213 33.1463 30.5937 33.8538 30.247 34.4603C29.9003 35.0668 29.3555 35.5354 28.7042 35.7873C25.9834 37.055 23.5415 38.8511 21.5202 41.0712C20.7841 41.8476 20.2309 42.779 19.9012 43.7972C19.5715 44.8153 19.4736 45.8944 19.6148 46.9553C19.7559 48.0162 20.1325 49.0321 20.7169 49.9284C21.3013 50.8248 22.0787 51.5789 22.9922 52.1355C28.1122 55.3379 34.5282 51.9274 35.7922 45.5546C36.2247 42.9088 36.3268 40.2195 36.0962 37.5486C35.9742 36.6875 36.1324 35.81 36.5473 35.0459C36.9622 34.2817 37.6119 33.6715 38.4002 33.3054C41.4722 31.7042 44.4642 30.0069 47.4722 28.3096C48.1442 27.9414 49.1842 27.5411 48.6722 26.5964C48.1602 25.6517 47.2642 26.5964 46.6722 26.8526C43.6428 28.2296 40.6455 29.66 37.6802 31.1438C36.2242 31.8803 35.7762 31.448 35.8562 29.9429C35.9842 28.79 35.9362 27.5411 35.9202 26.3562H36.0002ZM36.0002 14.8756C36.0002 14.3885 35.904 13.9062 35.7173 13.4564C35.5306 13.0066 35.2569 12.5981 34.912 12.2545C34.5671 11.9108 34.1577 11.6387 33.7075 11.4537C33.2572 11.2688 32.7749 11.1747 32.2882 11.1768C31.8267 11.1789 31.3701 11.2722 30.9447 11.4514C30.5194 11.6305 30.1335 11.892 29.8094 12.2208C29.4853 12.5496 29.2293 12.9393 29.0561 13.3674C28.8829 13.7955 28.7959 14.2536 28.8002 14.7155C28.7805 15.1983 28.8595 15.6801 29.0322 16.1314C29.205 16.5827 29.4678 16.994 29.8048 17.3402C30.1417 17.6863 30.5456 17.9601 30.9919 18.1448C31.4381 18.3295 31.9173 18.4212 32.4002 18.4142C33.3262 18.3684 34.2027 17.9818 34.8613 17.3287C35.5199 16.6755 35.9141 15.8019 35.9682 14.8756H36.0002Z" fill="#F6931E"/>
<path d="M35.9197 26.3559C35.9197 27.5408 35.9197 28.7417 35.9197 29.9426C35.8397 31.4477 36.2877 31.88 37.7437 31.1435C40.7197 29.6597 43.717 28.2293 46.7357 26.8523C47.3277 26.5641 48.1117 25.4752 48.7357 26.5961C49.3597 27.7169 48.2077 27.9411 47.5357 28.3094C44.5277 30.0066 41.5997 31.7519 38.3997 33.3051C37.5608 33.6262 36.8524 34.2173 36.386 34.9855C35.9197 35.7537 35.7219 36.6552 35.8237 37.5483C36.0543 40.2192 35.9522 42.9085 35.5197 45.5543C34.3357 51.9591 27.9197 55.2576 22.7997 52.1352C21.8863 51.5786 21.1088 50.8245 20.5244 49.9281C19.94 49.0318 19.5635 48.0159 19.4223 46.955C19.2812 45.8941 19.379 44.815 19.7087 43.7969C20.0384 42.7788 20.5916 41.8473 21.3277 41.0709C23.349 38.8508 25.791 37.0547 28.5117 35.787C29.163 35.5351 29.7078 35.0665 30.0545 34.46C30.4013 33.8535 30.5288 33.146 30.4157 32.4565C30.3117 31.1295 30.3117 29.7964 30.4157 28.4695C30.4957 26.8683 29.8557 26.7722 28.6237 27.3166C27.0237 28.0211 25.4237 28.7097 23.8237 29.3662C23.3437 29.5743 22.7357 30.2468 22.2237 29.3662C21.7117 28.4855 22.4957 28.1973 23.0877 27.845L28.0957 24.9468L34.1437 21.4722C35.2317 20.8157 35.7437 21.0879 35.7437 22.3529L35.9197 26.3559ZM30.3997 41.2311C30.3997 40.5585 30.3997 39.9021 30.3997 39.2295C30.3997 38.557 30.1437 38.2368 29.4237 38.6531C27.0557 40.0462 24.7357 41.4872 23.8237 44.3054C23.4702 45.0014 23.3976 45.8068 23.6209 46.5549C23.8443 47.303 24.3466 47.9365 25.0237 48.3244C26.6237 49.2371 27.9837 48.2283 28.9117 46.9153C30.0181 45.2355 30.541 43.2379 30.3997 41.2311Z" fill="#F5F5F5"/>
<path d="M35.968 14.8748C35.9127 15.8117 35.5094 16.694 34.8375 17.3487C34.1655 18.0034 33.2734 18.3831 32.336 18.4135C31.8586 18.4117 31.3863 18.3136 30.9476 18.1251C30.5089 17.9365 30.1126 17.6614 29.7825 17.3161C29.4525 16.9709 29.1953 16.5625 29.0265 16.1156C28.8577 15.6686 28.7807 15.1921 28.8 14.7147C28.7958 14.2528 28.8828 13.7947 29.056 13.3666C29.2292 12.9385 29.4852 12.5489 29.8093 12.2201C30.1334 11.8913 30.5192 11.6298 30.9446 11.4506C31.37 11.2714 31.8265 11.1781 32.288 11.176C33.2655 11.1803 34.2015 11.5718 34.8912 12.265C35.5808 12.9582 35.968 13.8966 35.968 14.8748Z" fill="#F5F5F5"/>
<path d="M30.4 41.231C30.5366 43.2397 30.008 45.2375 28.896 46.9153C27.968 48.2283 26.672 49.237 25.008 48.3243C24.3309 47.9365 23.8287 47.303 23.6053 46.5549C23.3819 45.8068 23.4545 45.0014 23.808 44.3053C24.72 41.4872 27.008 40.0461 29.408 38.6531C30.128 38.2368 30.368 38.541 30.384 39.2295C30.4 39.918 30.4 40.5585 30.4 41.231Z" fill="#F6931E"/>
</svg>
