<svg width="64" height="64" viewBox="0 0 64 64" fill="none" xmlns="http://www.w3.org/2000/svg">
<g clip-path="url(#clip0_40_30549)">
<path d="M32 64C49.6731 64 64 49.6731 64 32C64 14.3269 49.6731 0 32 0C14.3269 0 0 14.3269 0 32C0 49.6731 14.3269 64 32 64Z" fill="#141414"/>
<path d="M26.1638 48.054V15.054H32.1638V48.054H26.1638ZM43.0828 48.033L32.1628 37.1029V33.184H36.1238L50.8239 48.033H43.0828Z" fill="white"/>
<path d="M11.1729 48.054H16.6899L26.1758 33.2539H36.1848L46.8049 19.947L48.9268 21.499L50.2058 11.9409L41.0149 15.8L43.1018 17.2319L33.179 28.385H25.002L11.1729 48.054Z" fill="#FFEA1A"/>
</g>
<defs>
<clipPath id="clip0_40_30549">
<rect width="64" height="64" fill="white"/>
</clipPath>
</defs>
</svg>
