<svg width="64" height="64" viewBox="0 0 64 64" fill="none" xmlns="http://www.w3.org/2000/svg">
<g clip-path="url(#clip0_40_30555)">
<path d="M32 64C49.6731 64 64 49.6731 64 32C64 14.3269 49.6731 0 32 0C14.3269 0 0 14.3269 0 32C0 49.6731 14.3269 64 32 64Z" fill="#00442E"/>
<path fill-rule="evenodd" clip-rule="evenodd" d="M20.547 46.6588C20.236 46.3576 19.9481 46.0334 19.686 45.6889L47.696 19.6378V21.3199L20.547 46.6569V46.6588ZM16.336 36.9929C16.318 36.7929 16.318 36.4798 16.318 36.2928V35.3929L39.824 13.4429H41.674L16.337 36.9889L16.336 36.9929Z" fill="white"/>
<path fill-rule="evenodd" clip-rule="evenodd" d="M32.025 54.5518C31.4113 53.6818 30.6028 52.9671 29.664 52.4648C26.79 50.9998 23.273 49.4988 20.547 46.6648L47.697 21.3088V36.5768C47.6806 38.8307 47.1219 41.0475 46.068 43.0398C43.414 48.3098 38.526 50.3809 34.407 52.4499C33.4603 52.9562 32.6452 53.6771 32.027 54.5548L32.025 54.5518Z" fill="#DB000C"/>
<path fill-rule="evenodd" clip-rule="evenodd" d="M19.7 45.6939C18.5668 44.2813 17.6872 42.683 17.1 40.9699C16.6284 39.6924 16.3725 38.3453 16.343 36.9839L41.683 13.4539H47.699V19.6209L19.7 45.6939Z" fill="#00892D"/>
<path fill-rule="evenodd" clip-rule="evenodd" d="M16.302 35.4129L16.32 13.4519H39.812L16.302 35.4129Z" fill="#DB000C"/>
<path fill-rule="evenodd" clip-rule="evenodd" d="M30.139 48.0137H29.8311V46.3317H29.473V46.1007H30.1381V48.0157L30.139 48.0137ZM31.9111 46.7577C31.9125 46.7008 31.9022 46.6442 31.8807 46.5914C31.8593 46.5386 31.8272 46.4909 31.7865 46.4511C31.7458 46.4113 31.6972 46.3803 31.644 46.3601C31.5907 46.3399 31.5339 46.3309 31.4771 46.3337C31.3605 46.3301 31.2467 46.37 31.158 46.4457C31.1196 46.4836 31.0898 46.5293 31.0704 46.5796C31.0511 46.63 31.0428 46.6839 31.046 46.7377C31.0426 46.7928 31.0508 46.8479 31.0701 46.8996C31.0894 46.9513 31.1193 46.9984 31.158 47.0378C31.2436 47.1156 31.3564 47.1569 31.472 47.1527C31.5873 47.156 31.6993 47.1148 31.785 47.0378C31.8249 47.0039 31.8569 46.9617 31.8788 46.9142C31.9007 46.8667 31.9121 46.815 31.912 46.7627L31.9111 46.7577ZM31.4271 48.0127H31.0891L31.5681 47.3687C31.5376 47.3702 31.5076 47.3776 31.48 47.3907C31.458 47.3907 31.43 47.3967 31.408 47.3967C31.2292 47.3975 31.0573 47.3283 30.9291 47.2037C30.8694 47.144 30.8224 47.0728 30.7911 46.9944C30.7598 46.916 30.7449 46.8321 30.7471 46.7477C30.749 46.6907 30.7583 46.6343 30.775 46.5797C30.7927 46.516 30.8186 46.4548 30.8521 46.3977C30.9135 46.2928 31.0028 46.207 31.11 46.1498C31.222 46.0918 31.347 46.0635 31.473 46.0677C31.568 46.0686 31.6624 46.0834 31.7531 46.1117C31.8363 46.1506 31.914 46.2004 31.9841 46.2597C32.0478 46.3225 32.1014 46.3946 32.1431 46.4737C32.1777 46.5478 32.1945 46.629 32.1921 46.7107C32.1643 46.9553 32.0623 47.1856 31.9 47.3707L31.884 47.3817L31.4271 48.0147V48.0127ZM33.171 48.0127H32.858V46.3307H32.5001V46.0997H33.173V48.0147L33.171 48.0127ZM35.163 48.0127H33.837V47.7488L34.566 47.0997L34.577 47.0887C34.777 46.9241 34.8771 46.7864 34.8771 46.6758C34.8763 46.6275 34.866 46.5798 34.8467 46.5356C34.8275 46.4913 34.7998 46.4512 34.7651 46.4177C34.687 46.3562 34.5893 46.3249 34.4901 46.3297C34.441 46.3265 34.3919 46.3331 34.3455 46.3493C34.2991 46.3654 34.2564 46.3908 34.22 46.4237C34.1529 46.5037 34.1174 46.6054 34.1201 46.7098V46.7317H33.84V46.7207C33.8354 46.6326 33.8493 46.5445 33.8806 46.4621C33.912 46.3796 33.9601 46.3046 34.022 46.2417C34.1588 46.1191 34.3386 46.0558 34.522 46.0657C34.6918 46.061 34.857 46.1211 34.9841 46.2337C35.045 46.2875 35.0936 46.3537 35.1267 46.4279C35.1598 46.5021 35.1766 46.5825 35.176 46.6637C35.1723 46.7534 35.1499 46.8413 35.11 46.9217C35.0348 47.0165 34.954 47.1067 34.868 47.1917L34.2241 47.7477H35.17V48.0118L35.163 48.0127Z" fill="white"/>
<path fill-rule="evenodd" clip-rule="evenodd" d="M36.8671 25.9788C37.0006 25.8654 37.1676 25.799 37.3425 25.7898C37.5174 25.7805 37.6906 25.8289 37.8353 25.9276C37.9801 26.0262 38.0884 26.1696 38.1438 26.3358C38.1992 26.502 38.1985 26.6817 38.1418 26.8475C38.0851 27.0132 37.9756 27.1558 37.8301 27.2533C37.6846 27.3508 37.5111 27.3978 37.3362 27.3871C37.1614 27.3765 36.9949 27.3088 36.8622 27.1944C36.7296 27.0799 36.6382 26.9252 36.6021 26.7538C36.5723 26.6127 36.5812 26.4662 36.6279 26.3298C36.6745 26.1934 36.7572 26.0721 36.8671 25.9788ZM39.842 25.3908L39.334 24.8398L39.624 24.1208L37.1351 21.4518L36.3931 21.6608L35.879 21.1088L38.1741 18.9638L38.7001 19.5278L38.5001 20.2648L39.4 21.2288L39.6801 19.1548L38.946 18.7908L38.673 18.4978L40.973 16.3528L41.2731 16.6648L40.959 18.0648L40.6841 20.3648L42.702 20.4448L44.853 20.1448L45.147 20.4538L42.6981 22.7308L42.3571 22.3648L42.1381 21.6558L40.4971 21.5838L40.4341 22.3378L40.9271 22.8728L41.636 22.6658L42.162 23.2298L39.84 25.3838L39.842 25.3908ZM32.423 31.3598L32.5031 32.1218L31.665 32.8978L30.472 31.6238L31.183 30.6548C31.686 30.5797 32.1746 30.4287 32.6321 30.2068C32.9121 30.1182 33.1692 29.969 33.3851 29.7698C33.5475 29.6268 33.6757 29.4491 33.7601 29.2498C33.7806 29.175 33.7822 29.0962 33.7647 29.0207C33.7473 28.9451 33.7113 28.875 33.66 28.8168C33.6091 28.7673 33.5462 28.732 33.4774 28.7145C33.4086 28.6969 33.3364 28.6977 33.2681 28.7168C33.0315 28.7747 32.8121 28.8882 32.6281 29.0478L31.9871 29.5108C31.4331 29.9413 30.7918 30.2457 30.108 30.4028C29.8716 30.4407 29.6293 30.4182 29.4039 30.3372C29.1785 30.2563 28.9773 30.1195 28.819 29.9398C28.643 29.7467 28.5172 29.5132 28.4527 29.26C28.3882 29.0068 28.3869 28.7416 28.449 28.4878C28.6007 27.8565 28.9382 27.2852 29.418 26.8478C29.6811 26.6123 29.9777 26.4172 30.298 26.2688C30.5759 26.1497 30.877 26.0946 31.1791 26.1078L31.1581 25.3968L31.9901 24.6268L33.069 25.7768L32.381 26.7858C31.9546 26.8149 31.5359 26.9146 31.142 27.0808C30.8907 27.1313 30.6569 27.246 30.4631 27.4138C30.3086 27.5399 30.1988 27.7124 30.15 27.9058C30.1217 27.9781 30.112 28.0564 30.1218 28.1334C30.1316 28.2105 30.1606 28.2838 30.2061 28.3468C30.2615 28.3985 30.3305 28.4334 30.4051 28.4474C30.4796 28.4614 30.5566 28.4539 30.6271 28.4258C30.8875 28.3389 31.1356 28.2185 31.3651 28.0678L31.9481 27.6248C32.4998 27.2237 33.1282 26.9405 33.7941 26.7928C34.027 26.7554 34.2656 26.7769 34.4882 26.8553C34.7107 26.9337 34.91 27.0666 35.0681 27.2418C35.2623 27.4344 35.4055 27.6725 35.4846 27.9344C35.5637 28.1963 35.5762 28.4738 35.5211 28.7418C35.371 29.4063 35.0074 30.0033 34.486 30.4418C34.1895 30.7188 33.8502 30.9461 33.4811 31.1148C33.1544 31.2809 32.7925 31.3656 32.426 31.3618L32.423 31.3598ZM28.7961 33.5108C28.929 33.3992 29.0948 33.3342 29.2682 33.3259C29.4416 33.3175 29.6129 33.3662 29.756 33.4644C29.8991 33.5627 30.006 33.7051 30.0605 33.8699C30.1149 34.0347 30.1138 34.2128 30.0574 34.377C30.001 34.5411 29.8924 34.6823 29.7481 34.7788C29.6039 34.8753 29.4319 34.922 29.2587 34.9115C29.0854 34.901 28.9204 34.8341 28.7888 34.7209C28.6572 34.6077 28.5663 34.4545 28.53 34.2848C28.4999 34.1438 28.5088 33.9972 28.5557 33.8609C28.6025 33.7245 28.6856 33.6035 28.7961 33.5108ZM23.1531 40.8348L22.642 40.2808L22.9321 39.5618L20.441 36.8928L19.699 37.1018L19.1821 36.5478L21.4821 34.4058L22.0081 34.9698L21.808 35.7068L22.7081 36.6708L22.988 34.5968L22.254 34.2328L21.9811 33.9398L24.2811 31.7948L24.5811 32.1068L24.267 33.5068L23.9921 35.8068L26.0101 35.8868L28.1611 35.5868L28.4551 35.8958L26.014 38.1808L25.67 37.8118L25.451 37.1028L23.8101 37.0308L23.7471 37.7848L24.2401 38.3198L24.949 38.1128L25.475 38.6768L23.1561 40.8338L23.1531 40.8348Z" fill="white"/>
<path fill-rule="evenodd" clip-rule="evenodd" d="M27.268 21.507V20.357L26.173 20.011L27.268 19.675V18.525L27.961 19.461L29.023 19.136L28.368 20.016L29.033 20.907L27.955 20.571L27.267 21.506L27.268 21.507ZM22.734 15.901C23.4253 15.9026 24.1057 16.0743 24.715 16.401C25.1603 16.6418 25.5576 16.9625 25.887 17.347C25.5156 17.095 25.1074 16.9021 24.677 16.775C23.8264 16.56 22.9256 16.6822 22.163 17.116C21.6469 17.4063 21.2184 17.8301 20.9225 18.343C20.6265 18.8558 20.474 19.4389 20.481 20.031C20.478 20.8579 20.7781 21.6572 21.3247 22.2776C21.8713 22.8981 22.6263 23.2967 23.447 23.398C24.0802 23.4495 24.7164 23.3466 25.301 23.098C25.516 22.982 25.714 22.845 25.928 22.698C25.6422 23.0412 25.3048 23.3381 24.928 23.578C24.3824 23.9168 23.7656 24.1245 23.1261 24.1847C22.4867 24.2449 21.842 24.1559 21.2427 23.9248C20.6435 23.6937 20.106 23.3268 19.6725 22.8529C19.239 22.379 18.9213 21.811 18.7445 21.1935C18.5676 20.5761 18.5365 19.926 18.6533 19.2944C18.7702 18.6629 19.0318 18.067 19.4179 17.5537C19.8039 17.0404 20.3038 16.6237 20.8782 16.3362C21.4525 16.0487 22.0857 15.8984 22.728 15.897L22.734 15.901Z" fill="white"/>
</g>
<defs>
<clipPath id="clip0_40_30555">
<rect width="64" height="64" fill="white"/>
</clipPath>
</defs>
</svg>
