<svg width="64" height="64" viewBox="0 0 64 64" fill="none" xmlns="http://www.w3.org/2000/svg">
<g clip-path="url(#clip0_40_30566)">
<path d="M32 64C49.6731 64 64 49.6731 64 32C64 14.3269 49.6731 0 32 0C14.3269 0 0 14.3269 0 32C0 49.6731 14.3269 64 32 64Z" fill="#025221"/>
<path fill-rule="evenodd" clip-rule="evenodd" d="M31.91 54.4209C30.1421 53.3783 28.484 52.1598 26.961 50.7839C25.4506 49.4169 24.085 47.8979 22.886 46.2509C21.1546 43.7791 19.7147 41.1154 18.595 38.3129C17.3475 35.347 16.4092 32.2603 15.795 29.1019C15.495 27.4489 15.219 25.6349 15.011 23.7689C14.7929 21.8511 14.6791 19.923 14.67 17.9929V15.3769L14.742 15.3239C16.07 14.3512 17.4033 13.3846 18.742 12.4239C20.0807 11.4632 21.414 10.5209 22.742 9.59689L22.842 9.5249L22.942 9.59689C24.2665 10.5481 25.7466 11.2611 27.316 11.7039C30.3828 12.5109 33.6062 12.5109 36.673 11.7039C38.2422 11.2606 39.7223 10.5476 41.047 9.59689L41.147 9.5249L41.247 9.59689C42.5663 10.5162 43.8997 11.4586 45.247 12.4239C46.5943 13.3892 47.9277 14.3559 49.247 15.3239L49.319 15.3769V17.9929C49.31 19.923 49.1962 21.8512 48.978 23.7689C48.77 25.6519 48.49 27.4619 48.194 29.1019C47.5796 32.2603 46.6414 35.3469 45.394 38.3129C44.274 41.1153 42.8341 43.7789 41.103 46.2509C39.9039 47.8978 38.5384 49.4168 37.028 50.7839C35.5051 52.1599 33.8469 53.3784 32.079 54.4209L31.988 54.4739L31.91 54.4209Z" fill="#1B1918"/>
<path fill-rule="evenodd" clip-rule="evenodd" d="M43.101 25.7969L43.3329 26.5219H44.098L43.477 26.9729L43.717 27.6959L43.0959 27.2559L42.485 27.6959L42.72 26.9789L42.094 26.5259H42.867L43.101 25.7969Z" fill="#FFFF00"/>
<path fill-rule="evenodd" clip-rule="evenodd" d="M28.5309 51.6559C29.6291 52.5355 30.7873 53.3374 31.9969 54.0559C32.2869 53.8779 32.5743 53.7002 32.8589 53.5229V23.4449L36.8 22.0289V50.5119C38.291 49.1641 39.6394 47.6666 40.824 46.0429C40.9273 45.9022 41.0296 45.7592 41.131 45.6139V20.4749L45.072 19.0589V38.1759C46.3086 35.2357 47.2388 32.1759 47.848 29.0449C48.141 27.3939 48.421 25.5919 48.629 23.7119C48.8464 21.8075 48.9603 19.8927 48.97 17.9759V15.5439C47.656 14.5839 46.3476 13.6372 45.045 12.7039C43.7423 11.7706 42.4423 10.8532 41.145 9.9519C39.8131 10.8897 38.3317 11.5947 36.764 12.0369C33.6345 12.8628 30.3444 12.8628 27.215 12.0369C25.6472 11.5947 24.1659 10.8897 22.834 9.9519C21.522 10.8672 20.222 11.7846 18.934 12.7039C17.646 13.6232 16.3376 14.5699 15.009 15.5439V17.9759C15.0193 19.8927 15.1334 21.8075 15.351 23.7119C15.556 25.5789 15.836 27.3839 16.132 29.0449C16.156 29.1729 16.177 29.3119 16.204 29.4319L20.246 27.9789V41.1359C21.0767 42.8513 22.0508 44.4935 23.158 46.0449C23.6093 46.6616 24.0813 47.2589 24.574 47.8369V26.4239L28.5259 25.0119L28.5309 51.6559Z" fill="#00682E"/>
<path fill-rule="evenodd" clip-rule="evenodd" d="M30.041 32.5869L33.353 36.6609C33.844 37.2719 34.253 37.9379 34.982 38.0239H35.331V38.3729H32.888C32.511 38.3969 32.1342 38.3216 31.7954 38.1546C31.4566 37.9876 31.1675 37.7346 30.957 37.4209L28.336 33.9539L27.973 34.2709V36.7159C27.973 37.6159 28.029 37.9559 28.728 38.0489H29.028V38.3979H24.553V38.0489H24.894C25.601 38.0489 25.606 37.2759 25.606 36.7159V30.1609C25.606 29.5719 25.627 28.8279 24.881 28.8279H24.54V28.4869H29.02V28.8279H28.7C27.967 28.8279 27.953 29.5399 27.953 30.1609V32.9319L31.321 30.0729C31.742 29.7159 31.932 29.5399 31.932 29.3239C31.932 28.9909 31.988 28.8239 31.703 28.8239H31.119V28.4829H34.791V28.8319C34.335 28.8319 34.291 28.8689 34.119 29.0109C34.007 29.1039 33.3559 29.6909 32.7859 30.2029L30.041 32.5869Z" fill="white"/>
<path fill-rule="evenodd" clip-rule="evenodd" d="M36.022 35.1438V38.3438H35.697C35.5101 37.5922 35.0634 36.9309 34.436 36.4768C33.8657 36.0195 33.1539 35.7752 32.423 35.7858C31.9686 35.7375 31.5104 35.8308 31.111 36.0528C30.9596 36.1389 30.8328 36.262 30.7423 36.4108C30.6518 36.5595 30.6008 36.7288 30.594 36.9028C30.572 37.0952 30.61 37.2898 30.7029 37.4598C30.9239 37.731 31.1957 37.9566 31.503 38.1238C32.1101 38.4293 32.7334 38.7017 33.37 38.9398C34.3859 39.2865 35.3335 39.808 36.17 40.4808C36.4222 40.7368 36.6128 41.047 36.7275 41.3876C36.8422 41.7282 36.8779 42.0904 36.832 42.4469C36.786 42.8034 36.6596 43.1447 36.4623 43.4451C36.2649 43.7455 36.0019 43.9971 35.693 44.1808C34.8486 44.7821 33.8289 45.087 32.793 45.0478C32.425 45.0478 32.073 44.9888 31.774 44.9628C31.3627 44.8839 30.9579 44.7742 30.563 44.6348C30.3449 44.5575 30.117 44.5117 29.886 44.4988C29.7283 44.4915 29.5719 44.5293 29.4349 44.6078C29.2691 44.7237 29.1292 44.8729 29.024 45.0458H28.6559V41.4208H29.008C29.2137 42.3205 29.7242 43.1215 30.4529 43.6878C31.1179 44.2108 31.938 44.4978 32.784 44.5038C33.3164 44.5188 33.8404 44.3686 34.284 44.0738C34.4468 43.9759 34.5814 43.8374 34.6748 43.672C34.7682 43.5066 34.8172 43.3197 34.817 43.1298C34.8062 42.9135 34.7431 42.7032 34.633 42.5168C34.4435 42.2837 34.2109 42.0891 33.9479 41.9438C33.4597 41.6669 32.9485 41.4326 32.42 41.2438C31.6291 40.9401 30.8662 40.568 30.14 40.1318C29.6884 39.898 29.3032 39.5541 29.02 39.1318C28.7815 38.7534 28.6403 38.3219 28.6089 37.8758C28.6247 37.4877 28.7327 37.1089 28.924 36.7708C29.1153 36.4327 29.3844 36.1451 29.709 35.9318C30.4348 35.3865 31.3246 35.1044 32.232 35.1318C32.5907 35.1367 32.9479 35.1786 33.298 35.2568C33.6393 35.3277 33.9739 35.4281 34.298 35.5568C34.5529 35.6777 34.8215 35.7674 35.098 35.8238C35.2517 35.8165 35.3976 35.754 35.509 35.6478C35.658 35.4718 35.634 35.4288 35.733 35.1138L36.022 35.1438Z" fill="white"/>
<path fill-rule="evenodd" clip-rule="evenodd" d="M29.446 47.4849H29.523V49.4099C29.5199 49.4338 29.5199 49.458 29.523 49.4819C29.5271 49.4931 29.5336 49.5033 29.542 49.5118C29.5521 49.5219 29.564 49.53 29.577 49.5358C29.5991 49.5443 29.6224 49.5498 29.646 49.5519H29.787V49.6519H28.923V49.5519H29.067C29.0899 49.5495 29.1124 49.544 29.134 49.5358L29.168 49.5118C29.1765 49.5045 29.1836 49.4957 29.189 49.4858C29.1922 49.4626 29.1922 49.4391 29.189 49.4158V47.9518C29.1913 47.9186 29.1913 47.8852 29.189 47.8519C29.1905 47.8396 29.1905 47.8272 29.189 47.8149C29.1833 47.8058 29.1762 47.7977 29.168 47.7908C29.1604 47.784 29.1515 47.7785 29.142 47.7748H29.11C29.0878 47.7717 29.0652 47.7717 29.043 47.7748C29.0112 47.7838 28.9801 47.7952 28.95 47.8088H28.934L28.891 47.7258L29.446 47.4849Z" fill="white"/>
<path fill-rule="evenodd" clip-rule="evenodd" d="M30.358 49.6718V49.5968H30.377C30.4443 49.5961 30.5114 49.588 30.577 49.5728C30.6407 49.5577 30.7025 49.5352 30.761 49.5058C30.8236 49.4734 30.8817 49.4331 30.934 49.3858C30.997 49.3285 31.0542 49.2651 31.105 49.1968C31.1593 49.1241 31.2065 49.0464 31.246 48.9648C31.2788 48.8969 31.3056 48.8263 31.326 48.7538C31.2611 48.7917 31.1923 48.8229 31.121 48.8468C31.0492 48.8728 30.9734 48.8863 30.897 48.8868C30.8202 48.8878 30.744 48.8732 30.673 48.8438C30.6029 48.8125 30.5394 48.768 30.486 48.7128C30.4291 48.6544 30.3855 48.5845 30.358 48.5078C30.3274 48.4222 30.3128 48.3317 30.315 48.2408C30.3141 48.15 30.3286 48.0597 30.358 47.9738C30.3868 47.8887 30.4301 47.8091 30.486 47.7388C30.5484 47.6546 30.6295 47.5862 30.723 47.5388C30.8164 47.4934 30.9192 47.4707 31.023 47.4728C31.1151 47.471 31.2064 47.4901 31.29 47.5288C31.3734 47.5677 31.4479 47.6231 31.509 47.6918C31.5881 47.7792 31.6495 47.8811 31.69 47.9918C31.7311 48.1081 31.7518 48.2305 31.751 48.3538C31.752 48.4694 31.7368 48.5845 31.706 48.6958C31.6746 48.8069 31.6289 48.9135 31.57 49.0128C31.5082 49.1105 31.4347 49.2001 31.351 49.2798C31.2642 49.3664 31.1675 49.4426 31.063 49.5068C30.9804 49.5609 30.8905 49.603 30.796 49.6318C30.6986 49.6603 30.5975 49.6748 30.496 49.6748H30.384L30.358 49.6718Z" fill="white"/>
<path fill-rule="evenodd" clip-rule="evenodd" d="M31.364 48.59C31.3675 48.5326 31.3745 48.4755 31.385 48.4189C31.3877 48.3726 31.3877 48.3262 31.385 48.28C31.3893 48.2294 31.3893 48.1785 31.385 48.1279C31.3756 48.072 31.3622 48.0169 31.345 47.9629C31.3291 47.9111 31.3076 47.8612 31.281 47.814C31.2595 47.7733 31.2319 47.7361 31.199 47.7039C31.17 47.6764 31.1361 47.6547 31.099 47.6399C31.0645 47.6254 31.0274 47.6182 30.99 47.6189C30.9456 47.6186 30.9019 47.6285 30.862 47.6479C30.8194 47.6698 30.7814 47.6997 30.75 47.7359C30.7139 47.7788 30.6877 47.8289 30.673 47.8829C30.6541 47.9506 30.6449 48.0207 30.646 48.0909C30.6442 48.1874 30.656 48.2837 30.681 48.3769C30.7 48.4538 30.7339 48.5262 30.781 48.59C30.8113 48.6286 30.8495 48.6603 30.893 48.6829C30.9341 48.7042 30.9797 48.7152 31.026 48.715C31.0516 48.7176 31.0774 48.7176 31.103 48.715L31.196 48.6909C31.2282 48.6806 31.2593 48.6672 31.289 48.6509C31.3153 48.6371 31.3404 48.6211 31.364 48.603V48.59Z" fill="#00682E"/>
<path fill-rule="evenodd" clip-rule="evenodd" d="M33.452 47.499V47.576H33.433C33.3684 47.5812 33.3043 47.591 33.241 47.605C33.189 47.6163 33.1381 47.6323 33.089 47.653C33.0431 47.6739 32.9993 47.699 32.958 47.728C32.9121 47.7604 32.8686 47.7962 32.828 47.835C32.7856 47.8756 32.7465 47.9193 32.711 47.966C32.6737 48.0112 32.6403 48.0593 32.611 48.11C32.5806 48.1631 32.5539 48.2183 32.531 48.275C32.512 48.32 32.496 48.375 32.48 48.422C32.543 48.3842 32.6101 48.3537 32.68 48.331C32.7573 48.3048 32.8384 48.2913 32.92 48.291C32.9954 48.2907 33.07 48.3064 33.139 48.337C33.2089 48.369 33.2721 48.4142 33.325 48.47C33.381 48.5272 33.4245 48.5953 33.453 48.67C33.4834 48.7557 33.4976 48.8462 33.495 48.937C33.4959 49.0278 33.4814 49.1181 33.452 49.204C33.4218 49.2876 33.3786 49.3659 33.324 49.436C33.2601 49.5199 33.178 49.5883 33.084 49.636C32.9882 49.6817 32.8831 49.7047 32.777 49.703C32.7033 49.704 32.6301 49.6915 32.561 49.666C32.4949 49.6414 32.4342 49.6044 32.382 49.557C32.2805 49.4678 32.1996 49.3576 32.145 49.234C32.092 49.1057 32.0658 48.9679 32.068 48.829C32.0685 48.7393 32.0782 48.6498 32.097 48.562C32.1173 48.4699 32.1478 48.3804 32.188 48.295C32.2276 48.2093 32.2759 48.1279 32.332 48.052C32.3912 47.9743 32.4582 47.903 32.532 47.839C32.5999 47.7775 32.6732 47.7223 32.751 47.674C32.8162 47.6327 32.886 47.5991 32.959 47.574C33.0243 47.5521 33.0912 47.535 33.159 47.523C33.2197 47.5123 33.2813 47.5069 33.343 47.507H33.455L33.452 47.499Z" fill="white"/>
<path fill-rule="evenodd" clip-rule="evenodd" d="M32.441 48.5979C32.4375 48.6579 32.4305 48.7177 32.42 48.7769C32.4173 48.8259 32.4173 48.8749 32.42 48.9239C32.4197 48.9748 32.424 49.0258 32.433 49.0759C32.4434 49.1319 32.4578 49.187 32.476 49.2409C32.4927 49.2942 32.5159 49.3453 32.545 49.3929C32.5725 49.436 32.6061 49.4748 32.645 49.5079C32.6695 49.5306 32.6984 49.5479 32.73 49.5589C32.762 49.5709 32.7959 49.5774 32.83 49.5779H32.87V48.4979C32.8375 48.4885 32.8038 48.4838 32.77 48.4839H32.712L32.648 48.5029L32.563 48.5399L32.451 48.6009L32.441 48.5979Z" fill="#00682E"/>
<path fill-rule="evenodd" clip-rule="evenodd" d="M32.851 49.5638C32.8806 49.56 32.9093 49.5512 32.936 49.5378C32.9787 49.5148 33.0167 49.4839 33.048 49.4468C33.0852 49.4046 33.1128 49.3548 33.129 49.3008C33.1473 49.2358 33.1561 49.1684 33.155 49.1008C33.1558 49.0201 33.1471 48.9395 33.129 48.8608C33.1122 48.7889 33.0849 48.7198 33.048 48.6558C33.0179 48.5994 32.9738 48.5516 32.92 48.5168C32.8983 48.5035 32.8752 48.4928 32.851 48.4849V49.5638Z" fill="black"/>
<path fill-rule="evenodd" clip-rule="evenodd" d="M35.197 47.4988V47.5758H35.179C35.1144 47.5813 35.0503 47.591 34.987 47.6048C34.9351 47.6164 34.8842 47.6325 34.835 47.6528C34.7894 47.6737 34.7459 47.6988 34.705 47.7278C34.6585 47.7596 34.6147 47.795 34.574 47.8338C34.5308 47.8745 34.4907 47.9183 34.454 47.9648C34.4175 48.0105 34.3841 48.0586 34.354 48.1088C34.325 48.1622 34.2993 48.2173 34.277 48.2738C34.258 48.3188 34.242 48.3738 34.226 48.4208C34.2874 48.3833 34.3528 48.3528 34.421 48.3298C34.4983 48.3039 34.5793 48.2903 34.661 48.2898C34.7364 48.2895 34.8111 48.3052 34.88 48.3358C35.0248 48.4025 35.1378 48.5231 35.195 48.6718C35.2257 48.7574 35.2399 48.848 35.237 48.9388C35.2372 49.1162 35.1769 49.2884 35.066 49.4268C35.0048 49.5106 34.9246 49.5785 34.8319 49.6249C34.7392 49.6714 34.6367 49.695 34.533 49.6938C34.4593 49.6949 34.3861 49.6823 34.317 49.6568C34.2507 49.6327 34.1899 49.5956 34.138 49.5478C34.0352 49.457 33.9537 49.3448 33.8992 49.2189C33.8448 49.0931 33.8188 48.9569 33.823 48.8198C33.8243 48.73 33.8351 48.6404 33.855 48.5528C33.8754 48.461 33.9059 48.3718 33.946 48.2868C33.9869 48.2012 34.0362 48.1198 34.093 48.0438C34.1525 47.9664 34.2195 47.8951 34.293 47.8308C34.3612 47.7694 34.4345 47.7139 34.512 47.6648C34.5782 47.6233 34.649 47.5898 34.723 47.5648C34.7883 47.543 34.8552 47.526 34.923 47.5138C34.9837 47.503 35.0453 47.4977 35.107 47.4978H35.219L35.197 47.4988Z" fill="white"/>
<path fill-rule="evenodd" clip-rule="evenodd" d="M34.201 48.5978C34.1973 48.6578 34.1903 48.7176 34.18 48.7768C34.1773 48.8258 34.1773 48.8748 34.18 48.9238C34.1803 48.9747 34.1847 49.0256 34.193 49.0758C34.2029 49.1321 34.217 49.1875 34.235 49.2418C34.2522 49.2951 34.2757 49.3461 34.305 49.3938C34.3327 49.4367 34.3664 49.4754 34.405 49.5088C34.4299 49.5309 34.4587 49.5483 34.49 49.5598C34.5222 49.5708 34.556 49.5762 34.59 49.5758C34.6334 49.5754 34.6761 49.5651 34.715 49.5458C34.7575 49.5225 34.7955 49.4917 34.827 49.4548C34.8635 49.4122 34.8907 49.3625 34.907 49.3088C34.9257 49.2438 34.9348 49.1764 34.934 49.1088C34.9344 49.028 34.9253 48.9475 34.907 48.8688C34.889 48.7969 34.861 48.728 34.824 48.6638C34.7945 48.6078 34.7516 48.56 34.699 48.5248C34.6473 48.4941 34.5881 48.4785 34.528 48.4798H34.466L34.399 48.4988C34.3698 48.5091 34.3414 48.5215 34.314 48.5358L34.202 48.5968L34.201 48.5978Z" fill="black"/>
<path fill-rule="evenodd" clip-rule="evenodd" d="M41.134 22.8989L41.366 23.6239H42.131L41.5099 24.0719L41.753 24.7949L41.129 24.3579L40.518 24.7949L40.753 24.0779L40.127 23.6249H40.9L41.134 22.8989Z" fill="#FFFF00"/>
<path fill-rule="evenodd" clip-rule="evenodd" d="M39.995 14.9649C40.0923 14.8655 40.2169 14.7973 40.3531 14.769C40.4894 14.7407 40.6309 14.7537 40.7597 14.8062C40.8885 14.8587 40.9988 14.9484 41.0764 15.0639C41.154 15.1793 41.1954 15.3153 41.1954 15.4544C41.1954 15.5935 41.154 15.7295 41.0764 15.8449C40.9988 15.9603 40.8885 16.05 40.7597 16.1026C40.6309 16.1551 40.4894 16.1681 40.3531 16.1398C40.2169 16.1115 40.0923 16.0433 39.995 15.9439C39.867 15.8131 39.7953 15.6374 39.7953 15.4544C39.7953 15.2714 39.867 15.0957 39.995 14.9649Z" fill="#FFFF00"/>
<path fill-rule="evenodd" clip-rule="evenodd" d="M17.049 14.0848L15.028 15.5568V17.9888C15.038 19.9055 15.1519 21.8203 15.369 23.7248C15.558 25.4448 15.812 27.1088 16.078 28.6478L16.763 27.8798L17.624 26.8128L18.787 26.3488L19.487 25.7378L20.066 25.1428L20.535 24.5428L22.06 23.4998L23.313 23.3998L24.228 23.0318L25.041 22.7038L26.078 21.8668L27.145 20.6558L27.825 20.4848L28.58 20.1918L29.113 20.0048L29.513 19.8558L29.756 19.4348L30.164 19.2348L30.447 19.0218L31.591 19.0648L32.658 18.6038L33.389 19.2278L34.968 18.8758L36.139 18.7158L37.118 18.4068L37.699 18.1618L38.166 17.9348L38.699 18.0348L39.475 17.9518L39.542 17.0828L38.2809 17.1338L37.102 17.4138L36.126 17.6188L35.417 17.1338L34.084 17.0668L32.969 17.4938L31.54 17.1938L30.207 17.4608L29.714 17.3518L29.007 16.4768L28.516 16.1568L27.839 15.7968L26.364 15.3648L24.864 14.3698L23.376 13.7188L21.725 13.8018L20.864 13.6258L19.364 13.5088L17.049 14.0848Z" fill="#00A2D5"/>
<path fill-rule="evenodd" clip-rule="evenodd" d="M39.163 25.7969L39.395 26.5219H40.158L39.537 26.9699L39.78 27.6929L39.156 27.2529L38.545 27.6929L38.78 26.9759L38.153 26.5229H38.926L39.163 25.7969Z" fill="#FFFF00"/>
<path fill-rule="evenodd" clip-rule="evenodd" d="M39.778 14.9788L39.301 14.5018L39.544 14.2588L40.021 14.7358C39.973 14.7674 39.9285 14.804 39.888 14.8448C39.8471 14.8852 39.8106 14.9298 39.779 14.9778L39.778 14.9788Z" fill="#FFFF00"/>
<path fill-rule="evenodd" clip-rule="evenodd" d="M38.963 15.2849H39.64C39.6175 15.3985 39.6175 15.5154 39.64 15.6289H38.957L38.963 15.2849Z" fill="#FFFF00"/>
<path fill-rule="evenodd" clip-rule="evenodd" d="M39.289 16.413L39.774 15.928C39.8052 15.9766 39.8418 16.0215 39.883 16.062C39.9237 16.1025 39.9682 16.139 40.016 16.171L39.531 16.656L39.289 16.413Z" fill="#FFFF00"/>
<path fill-rule="evenodd" clip-rule="evenodd" d="M40.315 16.9789V16.2959C40.4285 16.3191 40.5455 16.3191 40.659 16.2959V16.9729L40.315 16.9789Z" fill="#FFFF00"/>
<path fill-rule="evenodd" clip-rule="evenodd" d="M41.444 16.6558L40.966 16.1788C41.0621 16.1144 41.1446 16.0319 41.209 15.9358L41.686 16.4128L41.444 16.6558Z" fill="#FFFF00"/>
<path fill-rule="evenodd" clip-rule="evenodd" d="M41.329 15.2849H42.012V15.6289H41.335C41.3583 15.5155 41.3583 15.3984 41.335 15.2849H41.329Z" fill="#FFFF00"/>
<path fill-rule="evenodd" clip-rule="evenodd" d="M40.958 14.7438L41.443 14.2588L41.686 14.5018L41.201 14.9868C41.1366 14.8907 41.0541 14.8081 40.958 14.7438Z" fill="#FFFF00"/>
<path fill-rule="evenodd" clip-rule="evenodd" d="M40.315 14.6099V13.9329H40.659V14.6158C40.5455 14.593 40.4285 14.593 40.315 14.6158V14.6099Z" fill="#FFFF00"/>
</g>
<defs>
<clipPath id="clip0_40_30566">
<rect width="64" height="64" fill="white"/>
</clipPath>
</defs>
</svg>
