<svg xmlns="http://www.w3.org/2000/svg" xmlns:xlink="http://www.w3.org/1999/xlink" width="64" height="64" viewBox="0 0 64 64"><defs><linearGradient id="a" x1="-0.197" y1="0.105" x2="0.52" y2="0.105" gradientUnits="objectBoundingBox"><stop offset="0" stop-color="#d7d7d7"/><stop offset="0.4" stop-color="#fff"/><stop offset="1" stop-color="#fff"/></linearGradient><linearGradient id="b" x1="0.026" y1="1.922" x2="0.743" y2="1.922" gradientUnits="objectBoundingBox"><stop offset="0" stop-color="#c59a17"/><stop offset="0.5" stop-color="#d7a819"/><stop offset="1" stop-color="#dbab19"/></linearGradient></defs><g transform="translate(-8528.947 -692.496)"><circle cx="32" cy="32" r="32" transform="translate(8528.947 692.496)"/><g transform="translate(8532.979 706.844)"><path d="M92.167,60.873h5.267V72.479s.207,7.94-8.709,10.562a11.783,11.783,0,0,1-8.953-10.41V60.93h4.1l8.3-.057h0" transform="translate(-61.206 -46.237)" fill="#15366f" fill-rule="evenodd"/><path d="M93.41,62.619h5.049V73.745s.2,7.612-8.349,10.125a11.3,11.3,0,0,1-8.583-9.979V62.674h3.931l7.952-.055h0" transform="translate(-62.598 -47.62)" fill-rule="evenodd" fill="url(#a)"/><path d="M98.253,89.4h4.2v5.474s.165,6.334-6.947,8.425A9.4,9.4,0,0,1,88.365,95V89.407h3.271l6.617-.008h0" transform="translate(-68.014 -68.833)" fill="#15366f" fill-rule="evenodd"/><path d="M99.444,91.059h3.993v5.2s.157,6.019-6.6,8.007a8.933,8.933,0,0,1-6.787-7.892V91.066h3.108l6.288-.007h0" transform="translate(-69.346 -70.147)" fill="#87d8f7" fill-rule="evenodd"/><path d="M110.181,75.709a.261.261,0,0,0,.269-.245l.407-1.534c.012-.043.02-.08.026-.109a.372.372,0,0,0,.01-.078c0-.058-.016-.094-.047-.108a.66.66,0,0,0-.2-.037v-.088H111.7V73.6a.6.6,0,0,0-.233.057.314.314,0,0,0-.1.188l-.431,1.633c0,.018-.008.035-.011.05a.411.411,0,0,0,0,.055.086.086,0,0,0,.049.082.321.321,0,0,0,.136.023,1.34,1.34,0,0,0,.59-.12,1.059,1.059,0,0,0,.439-.449l.079.015-.194.665h-1.841v-.087" transform="translate(-85.294 -56.246)" fill="#15366f" fill-rule="evenodd"/><path d="M130.7,75.7l1.657-2.069h-.263a1.031,1.031,0,0,0-.557.165,1.659,1.659,0,0,0-.343.337l-.091-.013.246-.61h1.582l-.009.1-1.654,2.069h.24a1.435,1.435,0,0,0,.481-.07,1.148,1.148,0,0,0,.587-.491l.09.015-.259.664h-1.716l.009-.1h0" transform="translate(-101.538 -56.246)" fill="#15366f" fill-rule="evenodd"/><path d="M140.5,75.709a.364.364,0,0,0,.179-.06.352.352,0,0,0,.1-.185l.415-1.534q.018-.065.026-.109a.359.359,0,0,0,.01-.078c0-.058-.016-.094-.048-.108a.682.682,0,0,0-.2-.037v-.088h1.007V73.6a.387.387,0,0,0-.18.06.361.361,0,0,0-.092.185l-.417,1.535-.026.119-.007.035a.243.243,0,0,0,0,.032c0,.058.015.095.046.11a.656.656,0,0,0,.2.037V75.8H140.5v-.087" transform="translate(-109.311 -56.246)" fill="#15366f" fill-rule="evenodd"/><path d="M111.461,91.033h4.725v12.2a8.636,8.636,0,0,1-2.4,1.007,9.055,9.055,0,0,1-2.323-.94V91.033" transform="translate(-86.308 -70.127)" fill="#fff" fill-rule="evenodd"/><path d="M87.772,75.648l.175-.764.1.007a1.48,1.48,0,0,0,.012.238.493.493,0,0,0,.1.221.482.482,0,0,0,.162.135.477.477,0,0,0,.208.045.417.417,0,0,0,.322-.13.488.488,0,0,0,.133-.3q.015-.215-.376-.543a.839.839,0,0,1-.37-.634.705.705,0,0,1,.214-.468.713.713,0,0,1,.523-.193.977.977,0,0,1,.185.018.765.765,0,0,1,.109.028l.084.029.057.015a.323.323,0,0,0,.052.005.153.153,0,0,0,.093-.025.28.28,0,0,0,.058-.062h.1l-.184.682-.088-.012,0-.111a.6.6,0,0,0-.078-.271.361.361,0,0,0-.334-.178.333.333,0,0,0-.293.143.4.4,0,0,0-.074.2.344.344,0,0,0,.047.206.529.529,0,0,0,.1.108l.275.242a1.2,1.2,0,0,1,.243.293.625.625,0,0,1,.083.373.74.74,0,0,1-.245.488.816.816,0,0,1-.592.216.939.939,0,0,1-.185-.018,1.022,1.022,0,0,1-.18-.05l-.083-.032a.45.45,0,0,0-.058-.02.13.13,0,0,0-.038,0,.109.109,0,0,0-.083.028.436.436,0,0,0-.059.095h-.1" transform="translate(-67.544 -56.047)" fill="#15366f" fill-rule="evenodd"/><path d="M95.311,82.409a.261.261,0,0,1,.181-.073.22.22,0,0,1,.171.075.223.223,0,0,1,.062.176.265.265,0,0,1-.087.18.255.255,0,0,1-.181.073.226.226,0,0,1-.171-.073.234.234,0,0,1-.06-.18.262.262,0,0,1,.085-.178h0" transform="translate(-73.448 -63.238)" fill="#15366f" fill-rule="evenodd"/><path d="M97.963,75.647l.175-.764.1.007a1.46,1.46,0,0,0,.011.238.493.493,0,0,0,.1.221.483.483,0,0,0,.162.135.475.475,0,0,0,.208.045.417.417,0,0,0,.322-.13.49.49,0,0,0,.133-.3q.015-.215-.376-.543a.839.839,0,0,1-.37-.634.7.7,0,0,1,.736-.661.966.966,0,0,1,.185.019.745.745,0,0,1,.108.028l.084.029.057.015a.314.314,0,0,0,.052,0,.153.153,0,0,0,.092-.025.276.276,0,0,0,.058-.062h.1l-.184.683-.088-.012,0-.112a.6.6,0,0,0-.078-.271.361.361,0,0,0-.334-.178.334.334,0,0,0-.293.143.4.4,0,0,0-.073.2.34.34,0,0,0,.047.206.518.518,0,0,0,.1.108l.275.242a1.2,1.2,0,0,1,.244.293.625.625,0,0,1,.083.373.739.739,0,0,1-.245.488.816.816,0,0,1-.592.216.965.965,0,0,1-.185-.018,1.046,1.046,0,0,1-.179-.05l-.084-.032a.384.384,0,0,0-.058-.02.129.129,0,0,0-.037,0,.109.109,0,0,0-.083.028.436.436,0,0,0-.059.095h-.1" transform="translate(-75.616 -56.047)" fill="#15366f" fill-rule="evenodd"/><path d="M106.024,82.409a.259.259,0,0,1,.181-.073.22.22,0,0,1,.171.075.224.224,0,0,1,.062.176.265.265,0,0,1-.087.18.255.255,0,0,1-.181.073.225.225,0,0,1-.171-.073.234.234,0,0,1-.06-.18.263.263,0,0,1,.085-.178h0" transform="translate(-81.933 -63.238)" fill="#15366f" fill-rule="evenodd"/><path d="M147.779,73.748a1.287,1.287,0,0,1,.992-.524.84.84,0,0,1,.6.222.79.79,0,0,1,.235.6,1.616,1.616,0,0,1-.415,1.05,1.3,1.3,0,0,1-1.019.533.81.81,0,0,1-.59-.222.8.8,0,0,1-.226-.6,1.629,1.629,0,0,1,.423-1.063Zm.1,1.558a.294.294,0,0,0,.294.205.529.529,0,0,0,.364-.148,1.681,1.681,0,0,0,.339-.571,3.166,3.166,0,0,0,.174-.559,2.414,2.414,0,0,0,.063-.476.5.5,0,0,0-.085-.294.3.3,0,0,0-.263-.124q-.421,0-.709.756a2.808,2.808,0,0,0-.218.957.691.691,0,0,0,.041.254h0" transform="translate(-114.741 -56.02)" fill="#15366f" fill-rule="evenodd"/><path d="M120.9,74.884l-.01-.832-.616.831h.627Zm-1.508.765a.541.541,0,0,0,.148-.062.791.791,0,0,0,.172-.18l1.535-2.01h.088l.053,1.955a.456.456,0,0,0,.046.242.32.32,0,0,0,.2.055l-.011.082h-1.027l.011-.082a.56.56,0,0,0,.211-.047.188.188,0,0,0,.082-.15q.005-.038.007-.184,0-.03,0-.249h-.729l-.247.347a.719.719,0,0,0-.047.077.259.259,0,0,0-.026.08c-.007.047,0,.077.029.09a.63.63,0,0,0,.172.035l-.011.082h-.665l.011-.082h0" transform="translate(-92.577 -56.157)" fill="#15366f" fill-rule="evenodd"/><path d="M22.493,14.756l-.179-.1a1.375,1.375,0,0,1-.784-.452,3.833,3.833,0,0,0,1.322-.707s-.321-.1-.381-.264c0,0,1-.3,1.1-.505,0,0-2.1-.427-2.466-1.217,0,0-1.142-.021-1.544-.751s-.04-.04-.04-.04a1.1,1.1,0,0,1-1.183-.588,1.555,1.555,0,0,1-1.2-.608,3.281,3.281,0,0,1-1.764-.771,4.826,4.826,0,0,1-2.346-1.035c-.742-.79,0-.04,0-.04A2.483,2.483,0,0,1,11.343,6.9,3.427,3.427,0,0,1,9.058,5.787a4.7,4.7,0,0,1-2.747-1.4,6.72,6.72,0,0,1-2.887-1.1c-1.083-.872-.915-.79-.915-.79l17.061.014a7.166,7.166,0,0,1,5.582,2.42c2.114,2.63,4.426,1.239,5.559.3s2.155-2.694,5.958-2.691l16.766.014a7.859,7.859,0,0,1-3.957,1.929A5.074,5.074,0,0,1,46.656,5.9a4.055,4.055,0,0,1-2.534,1.211,2.589,2.589,0,0,1-1.778.875,2.148,2.148,0,0,1-1.823.807c-1.334.021-.045.022-.045.022a2.733,2.733,0,0,1-2.089,1.122c-1.467.111-.044,0-.044,0a2.259,2.259,0,0,1-1.334.606c-1.023.2-.067,0-.067,0s-.177.561-1.334.673-.089.022-.089.022-.133.337-.778.426h0a4.92,4.92,0,0,1-2.756,1.323s-.1.5-1.051,1.192a1.726,1.726,0,0,1,.273.755v-.014s.086-.323-.029.193-1.121.967-1.121.967c.625-1.071-.065-1.175-.065-1.175.154.62-1.136,1.109-1.136,1.109.613-.839-.052-1.162-.052-1.162.192.839-1.226,1.07-1.226,1.07.753-.929-.218-1.2-.218-1.2h-.907c.077,1.149-1.328,1.435-1.328,1.435.74-1.058-.014-1.2-.014-1.2.167.775-1.021,1.174-1.021,1.174.587-1.148-.218-1.278-.218-1.278.333.9-1.532,1.47-1.264,1.3s.472-.9.472-.9c.2-.271-.588-.491-.588-.491h0" transform="translate(0 0)" fill-rule="evenodd" fill="url(#b)"/><path d="M15.907,4.513a2.114,2.114,0,0,0,1.025.812H11s-2.592.041-3.3-.812h8.2" transform="translate(-4.126 -1.595)" fill="#fff" fill-rule="evenodd"/><path d="M32.468,12.127a2.175,2.175,0,0,0,1.025.779H28.112s-2.592.073-3.3-.779h7.652" transform="translate(-17.677 -7.625)" fill="#fff" fill-rule="evenodd"/><path d="M44.839,18.765a2.428,2.428,0,0,0,1.025.7H40.483s-2.532.073-3.3-.7h7.652" transform="translate(-27.476 -12.883)" fill="#fff" fill-rule="evenodd"/><path d="M55.778,23.938a4.973,4.973,0,0,0,1.025.52H52.08s-2.552.069-3.3-.52h6.993" transform="translate(-36.662 -16.981)" fill="#fff" fill-rule="evenodd"/><path d="M64.864,28.72a2.621,2.621,0,0,0,.848.439H61.166s-2.552.15-3.3-.439h6.993" transform="translate(-43.859 -20.769)" fill="#fff" fill-rule="evenodd"/><path d="M73.418,32.722s.008.134.751.438H70.059s-2.552.15-3.3-.438h6.655" transform="translate(-50.903 -23.939)" fill="#fff" fill-rule="evenodd"/><path d="M82.232,36.724s-.314.036.43.341H78.808a11.853,11.853,0,0,1-3.231-.341h6.655" transform="translate(-57.884 -27.109)" fill="#fff" fill-rule="evenodd"/><path d="M87.44,39.906s.305-.126-.229.341h-2.3a11.85,11.85,0,0,1-3.231-.341H87.44" transform="translate(-62.723 -29.617)" fill="#fff" fill-rule="evenodd"/><path d="M91.729,43.234s.305-.191-.229.276h-.591a11.049,11.049,0,0,1-3.231-.276h4.052" transform="translate(-67.469 -32.235)" fill="#fff" fill-rule="evenodd"/><path d="M95.41,45.85s.305-.191-.229.276H94.59a3.15,3.15,0,0,1-1.576-.276h2.4" transform="translate(-71.696 -34.307)" fill="#fff" fill-rule="evenodd"/><path d="M198.653,4.513a2.116,2.116,0,0,1-1.025.812h5.928s2.592.041,3.3-.812h-8.2" transform="translate(-154.561 -1.595)" fill="#fff" fill-rule="evenodd"/><path d="M184.175,12.127a2.175,2.175,0,0,1-1.025.779h5.381s2.592.073,3.3-.779h-7.652" transform="translate(-143.093 -7.625)" fill="#fff" fill-rule="evenodd"/><path d="M171.8,18.765a2.426,2.426,0,0,1-1.025.7h5.382s2.531.073,3.3-.7H171.8" transform="translate(-133.292 -12.883)" fill="#fff" fill-rule="evenodd"/><path d="M167.279,23.938s.213.072.213.471h3.484s2.552.117,3.3-.471h-6.993" transform="translate(-130.521 -16.981)" fill="#fff" fill-rule="evenodd"/><path d="M147.484,40.937s.028-.2-.2.254l.839.015a11.049,11.049,0,0,0,3.231-.276l-3.875.006h0" transform="translate(-114.687 -30.412)" fill="#fff" fill-rule="evenodd"/><path d="M145.1,46.393s-.411-.19.123.277h.591a3.15,3.15,0,0,0,1.576-.276H145.1" transform="translate(-112.831 -34.737)" fill="#fff" fill-rule="evenodd"/><path d="M125.946,22.441h7.163s1.035-.085,1.147.791c0,0,.084.2-.2.226s-2.91,0-2.91,0l-.252.311h1.958a.273.273,0,0,1,.308.311l1.231-.537h1.231s1.427-.113,1.259,1.5a1.157,1.157,0,0,0-1.231-.707H132.8l-.252.311,3.218.028s.7.056.867.565h-4.421s-.224-.283-.811-.056-.056,0-.056,0-1.4.9-2.07.791-.84-.48-.476-.848c0,0-1.595.17-.392-.678,0,0-.867-.311.644-1.045h-1.539a2.208,2.208,0,0,1-1.427-.678c-.419-.594-.14-.283-.14-.283h0" transform="translate(-97.709 -15.731)" fill="#fff" fill-rule="evenodd"/><path d="M150.8,37.916s-.075-.078-.55.276h1.371s2.742.211,3.231-.276H150.8" transform="translate(-117.033 -28.047)" fill="#fff" fill-rule="evenodd"/><path d="M178.947,28.455s-.068-.057.229.454h1.313a2.716,2.716,0,0,0,1.24-.454h-2.781" transform="translate(-139.758 -20.558)" fill="#fff" fill-rule="evenodd"/><path d="M145.6,43.31s.028-.2-.2.254l.112.015s2.63.2,3.231-.261L145.6,43.31h0" transform="translate(-113.195 -32.292)" fill="#fff" fill-rule="evenodd"/><path d="M180.693,32.673l-.028.339s.616-.17.532-.339h-.5" transform="translate(-141.124 -23.9)" fill="#fff" fill-rule="evenodd"/><path d="M51.615,5.112s-.9-.123-1.091-.6H58.33a6.972,6.972,0,0,1,4.365,2.039c1.875,1.95,2.294,1.724,3.162,1.809l.392.622a2.085,2.085,0,0,1-1.231-.226H58.833s-.811,0-1.007-.311h6.519a3.079,3.079,0,0,1-.867-.537H57.547s-1.231.057-1.427-.424h6.687a2.267,2.267,0,0,0-1.063-.961H54.385s-.7-.028-.923-.452H61.3a4.89,4.89,0,0,0-1.875-.961H51.615" transform="translate(-38.039 -1.595)" fill="#fff" fill-rule="evenodd"/><path d="M95.232,27.787a1.825,1.825,0,0,1-.7-.311h5.876a1.675,1.675,0,0,1,1.063-.226s.392.254.56.2a2.972,2.972,0,0,1-2.322.678.489.489,0,0,1,.28-.367l-4.757.028h0" transform="translate(-72.899 -19.579)" fill="#fff" fill-rule="evenodd"/><path d="M130.616,28.6h.923s-.028.537-1.343.481l.42-.481h0" transform="translate(-101.148 -20.67)" fill="#fff" fill-rule="evenodd"/><path d="M129.526,31.723a1.74,1.74,0,0,1-.811.2,1.828,1.828,0,0,1-.672.565,1.489,1.489,0,0,0,1.651-.593l-.168-.17h0" transform="translate(-99.442 -23.147)" fill="#fff" fill-rule="evenodd"/><path d="M122.051,31.315a2.532,2.532,0,0,1-1.119.254,2.053,2.053,0,0,1-.559.65,1.963,1.963,0,0,0,1.958-.707l-.28-.2h0" transform="translate(-93.367 -22.824)" fill="#fff" fill-rule="evenodd"/><path d="M130.48,35.486a2.831,2.831,0,0,1-.643.226c-.308.056-.056.028-.056.028a.64.64,0,0,1-.392.424,1.177,1.177,0,0,0,1.511-.282s-.392-.17-.392-.311-.028-.085-.028-.085h0" transform="translate(-100.509 -26.119)" fill="#fff" fill-rule="evenodd"/><path d="M121.465,36.344a3.3,3.3,0,0,1-.811.17.578.578,0,0,1-.42.4c-.364.113-.056,0-.056,0a1.581,1.581,0,0,0,1.791-.424l-.5-.141h0" transform="translate(-93.116 -26.808)" fill="#fff" fill-rule="evenodd"/><path d="M124.4,39.571a3.3,3.3,0,0,1-1.063.452s.588.848,2.126-.141c0,0-.783-.028-.923-.2s-.14-.113-.14-.113h0" transform="translate(-95.712 -29.357)" fill="#fff" fill-rule="evenodd"/><path d="M126.216,42.892a1.226,1.226,0,0,1-.587.452c-.336.085-.084.028-.084.028a1.492,1.492,0,0,0,1.595-.678c.336-.509-.392.17-.923.2h0" transform="translate(-97.392 -31.688)" fill="#fff" fill-rule="evenodd"/><path d="M118.461,43.314s-.727.029-.811-.311a1.821,1.821,0,0,1-.867.226c-.336-.057-.056,0-.056,0a.844.844,0,0,1-.392.452,1.845,1.845,0,0,0,1.847-.141c.84-.65.28-.226.28-.226h0" transform="translate(-90.168 -32.083)" fill="#fff" fill-rule="evenodd"/><path d="M113.522,39.742a1.551,1.551,0,0,0,.727.2s-.42.65-1.623.367-.056-.028-.056-.028a1.647,1.647,0,0,0,.392-.339,3.493,3.493,0,0,0,.448-.141l.112-.056h0" transform="translate(-86.796 -29.499)" fill="#fff" fill-rule="evenodd"/><path d="M111.721,36.208s.084.2.42.141a1.845,1.845,0,0,1-1.763.509c-1.259-.17-.056-.029-.056-.029a2.681,2.681,0,0,0,.755-.537l.644-.085h0" transform="translate(-84.995 -26.7)" fill="#fff" fill-rule="evenodd"/><path d="M108.872,40.285s.531.2.616.141a1.6,1.6,0,0,1-.9.339c-.643.085-.056,0-.056,0l.336-.481h0" transform="translate(-83.797 -29.93)" fill="#fff" fill-rule="evenodd"/><path d="M104.634,43.1s.448.282.671.226c0,0-.056.706-1.986.424s-.056-.028-.056-.028a11.585,11.585,0,0,0,1.175-.537c.2-.141.2-.085.2-.085h0" transform="translate(-79.167 -32.149)" fill="#fff" fill-rule="evenodd"/><path d="M104.994,32.673s.084.537-1.147.65-.056,0-.056,0l.224-.4h-2.462s-.475-.113-.559-.255h4" transform="translate(-78.016 -23.9)" fill="#fff" fill-rule="evenodd"/><path d="M109.2,36.48h.7s.045.173-.28.283l-.42-.283h0" transform="translate(-84.518 -26.915)" fill="#fff" fill-rule="evenodd"/><path d="M101.666,48.79a11.064,11.064,0,0,0,1.9-1.1s1.343-.9,1.791-.141-2.1,1.356-2.1,1.356l-1.595-.113h0" transform="translate(-78.549 -35.439)" fill="#fff" fill-rule="evenodd"/><path d="M95.837,56.138a4.565,4.565,0,0,0,1.735.057,3.369,3.369,0,0,1-2.63.622c-1.427-.339,0-.057,0-.057a4.031,4.031,0,0,0,.728-.452c.308-.254.168-.169.168-.169h0" transform="translate(-72.72 -42.476)" fill="#fff" fill-rule="evenodd"/><path d="M100.32,60.83s.951-.452.475.282l-.475-.282h0" transform="translate(-77.483 -46.094)" fill="#fff" fill-rule="evenodd"/><path d="M105.568,60.714s1.063-.735.643.2c0,0-.252-.282-.42-.169s-.056,0-.056,0l-.168-.028h0" transform="translate(-81.64 -45.894)" fill="#fff" fill-rule="evenodd"/><path d="M111.221,61.29s.923-.481.671.226a.431.431,0,0,0-.448-.17l-.224-.057h0" transform="translate(-86.117 -46.441)" fill="#fff" fill-rule="evenodd"/><path d="M126.024,47.284a16.094,16.094,0,0,0,2.155-1.385s.9-.932,1.455-.311-1.287,1.5-1.623,1.611a13.156,13.156,0,0,1-1.987.085h0" transform="translate(-97.843 -33.961)" fill="#fff" fill-rule="evenodd"/><path d="M121.222,55.594a4.521,4.521,0,0,0,2.042,0s-.867,1.187-3.162.706a3.864,3.864,0,0,0,.924-.537c.252-.254.2-.17.2-.17h0" transform="translate(-93.153 -42.045)" fill="#fff" fill-rule="evenodd"/><path d="M123.871,60.694s.951-.452.476.282l-.476-.282h0" transform="translate(-96.138 -45.986)" fill="#fff" fill-rule="evenodd"/><path d="M129.524,60.578s1.063-.735.643.2c0,0-.252-.282-.42-.169s-.056,0-.056,0l-.168-.028h0" transform="translate(-100.615 -45.786)" fill="#fff" fill-rule="evenodd"/><path d="M134.772,60.971s1.147-.594.672.226a.432.432,0,0,0-.448-.17l-.224-.056h0" transform="translate(-104.773 -46.15)" fill="#fff" fill-rule="evenodd"/><path d="M132.715,8.1a13.1,13.1,0,0,0,2.526-1.978,5.436,5.436,0,0,1,4.309-1.588h6.827s.168.316-.84.6h-7.247s-.476-.254-2.042.848l7.387.028s-.308.512-1.427.569l-6.547,0-1.2.876s5.652-.029,6.74,0a2.587,2.587,0,0,1-1.424.457h-5.82a2.516,2.516,0,0,1-.8.263.866.866,0,0,1-.437-.068h0" transform="translate(-103.143 -1.595)" fill="#fff" fill-rule="evenodd"/></g></g></svg>