<svg width="64" height="64" viewBox="0 0 64 64" fill="none" xmlns="http://www.w3.org/2000/svg">
<g clip-path="url(#clip0_40_30595)">
<path d="M32 64C49.6731 64 64 49.6731 64 32C64 14.3269 49.6731 0 32 0C14.3269 0 0 14.3269 0 32C0 49.6731 14.3269 64 32 64Z" fill="black"/>
<path fill-rule="evenodd" clip-rule="evenodd" d="M34.9927 28.9841H40.2597V40.5901C40.2597 40.5901 40.4667 48.5301 31.5507 51.1521C29.1576 50.5702 27.0071 49.2531 25.4012 47.3859C23.7953 45.5187 22.8149 43.1953 22.5977 40.7421V29.0411H26.6977L34.9977 28.9841" fill="#15366F"/>
<path fill-rule="evenodd" clip-rule="evenodd" d="M34.8437 29.3472H39.8927V40.4732C39.8927 40.4732 40.0927 48.0852 31.5437 50.5982C29.25 50.0398 27.1887 48.7771 25.6493 46.9873C24.1099 45.1976 23.1697 42.9706 22.9607 40.6192V29.4022H26.8917L34.8437 29.3472Z" fill="url(#paint0_linear_40_30595)"/>
<path fill-rule="evenodd" clip-rule="evenodd" d="M34.2707 34.9151H38.4707V40.3891C38.4707 40.3891 38.6357 46.7231 31.5237 48.8141C29.6157 48.3499 27.901 47.2999 26.6203 45.8115C25.3395 44.3231 24.557 42.4709 24.3827 40.5151V34.9221H27.6537L34.2707 34.9151Z" fill="#15366F"/>
<path fill-rule="evenodd" clip-rule="evenodd" d="M34.1297 35.26H38.1227V40.46C38.1227 40.46 38.2797 46.479 31.5227 48.467C29.7086 48.0258 28.0783 47.0272 26.861 45.6117C25.6436 44.1961 24.9004 42.4347 24.7357 40.575V35.267H27.8437L34.1317 35.26" fill="#87D8F7"/>
<path fill-rule="evenodd" clip-rule="evenodd" d="M28.9187 33.8111C28.9866 33.8133 29.0527 33.7889 29.1029 33.7432C29.1532 33.6974 29.1836 33.6339 29.1877 33.5661L29.5947 32.0321C29.6067 31.9891 29.6147 31.9521 29.6207 31.9231C29.6268 31.8975 29.6301 31.8713 29.6307 31.8451C29.6307 31.7871 29.6147 31.7511 29.5837 31.7371C29.5193 31.7145 29.4519 31.702 29.3837 31.7001V31.6121H30.4377V31.7021C30.357 31.7052 30.2777 31.7246 30.2047 31.7591C30.1505 31.8082 30.1151 31.8747 30.1047 31.9471L29.6737 33.5801C29.6737 33.5981 29.6657 33.6151 29.6627 33.6301C29.6615 33.6484 29.6615 33.6667 29.6627 33.6851C29.6619 33.702 29.666 33.7189 29.6748 33.7335C29.6835 33.7481 29.6963 33.7598 29.7117 33.7671C29.7548 33.7845 29.8012 33.7923 29.8477 33.7901C30.0509 33.7953 30.2527 33.7543 30.4377 33.6701C30.6261 33.5682 30.7791 33.4117 30.8767 33.2211L30.9557 33.2361L30.7617 33.9011H28.9207V33.8141" fill="#15366F"/>
<path fill-rule="evenodd" clip-rule="evenodd" d="M33.1937 33.8021L34.8507 31.7331H34.5877C34.39 31.7335 34.1967 31.7908 34.0307 31.8981C33.9006 31.9931 33.7851 32.1067 33.6877 32.2351L33.5967 32.2221L33.8427 31.6121H35.4247L35.4157 31.7121L33.7617 33.7811H34.0017C34.1648 33.7852 34.3275 33.7616 34.4827 33.7111C34.7288 33.6193 34.936 33.446 35.0697 33.2201L35.1597 33.2351L34.9007 33.8991H33.1847L33.1937 33.7991" fill="#15366F"/>
<path fill-rule="evenodd" clip-rule="evenodd" d="M35.2207 33.8111C35.2846 33.8071 35.3464 33.7865 35.3997 33.7511C35.4511 33.701 35.486 33.6365 35.4997 33.5661L35.9147 32.0321C35.9267 31.9887 35.9354 31.9524 35.9407 31.9231C35.9469 31.8975 35.9502 31.8713 35.9507 31.8451C35.9507 31.7871 35.9347 31.7511 35.9027 31.7371C35.8383 31.7148 35.7708 31.7023 35.7027 31.7001V31.6121H36.7097V31.7021C36.6457 31.7068 36.5838 31.7274 36.5297 31.7621C36.4817 31.8134 36.4497 31.8777 36.4377 31.9471L36.0207 33.4821L35.9947 33.6011L35.9877 33.6361C35.987 33.6467 35.987 33.6574 35.9877 33.6681C35.9877 33.7261 36.0027 33.7631 36.0337 33.7781C36.098 33.8007 36.1655 33.8132 36.2337 33.8151V33.9021H35.2207V33.8151" fill="#15366F"/>
<path fill-rule="evenodd" clip-rule="evenodd" d="M29.1847 35.2542H33.9097V47.4542C33.1652 47.9091 32.356 48.2487 31.5097 48.4612C30.6955 48.257 29.9137 47.9406 29.1867 47.5212V35.2542" fill="white"/>
<path fill-rule="evenodd" clip-rule="evenodd" d="M24.2596 33.9491L24.4346 33.1851L24.5346 33.1921C24.5322 33.2716 24.5362 33.3512 24.5466 33.4301C24.561 33.5109 24.5954 33.5869 24.6466 33.6511C24.69 33.7075 24.7453 33.7536 24.8086 33.7861C24.8737 33.8166 24.9448 33.8319 25.0166 33.8311C25.0765 33.8338 25.1363 33.8236 25.1918 33.8012C25.2474 33.7788 25.2975 33.7446 25.3386 33.7011C25.4163 33.6194 25.4633 33.5134 25.4716 33.4011C25.4816 33.2577 25.3563 33.0767 25.0956 32.8581C24.99 32.7874 24.9017 32.6935 24.8376 32.5837C24.7735 32.4739 24.7352 32.3509 24.7256 32.2241C24.7355 32.0467 24.8119 31.8795 24.9396 31.7561C25.0094 31.6904 25.0916 31.6395 25.1815 31.6063C25.2714 31.5732 25.367 31.5585 25.4626 31.5631C25.5247 31.5632 25.5867 31.5692 25.6476 31.5811C25.6846 31.5877 25.721 31.5971 25.7566 31.6091L25.8406 31.6381L25.8976 31.6531C25.9148 31.6561 25.9322 31.6578 25.9496 31.6581C25.9825 31.66 26.0151 31.6512 26.0426 31.6331C26.065 31.6155 26.0846 31.5946 26.1006 31.5711H26.2006L26.0166 32.2531L25.9286 32.2411V32.1301C25.9245 32.0348 25.8978 31.9419 25.8506 31.8591C25.8169 31.8014 25.7678 31.7542 25.7088 31.7228C25.6499 31.6914 25.5833 31.6769 25.5166 31.6811C25.4596 31.6778 25.4028 31.6892 25.3514 31.7143C25.3001 31.7393 25.2561 31.7771 25.2236 31.8241C25.1813 31.8828 25.1558 31.9519 25.1496 32.0241C25.1433 32.096 25.1598 32.168 25.1966 32.2301C25.2248 32.2706 25.2584 32.3069 25.2966 32.3381L25.5716 32.5801C25.6677 32.6642 25.7497 32.7631 25.8146 32.8731C25.8806 32.9857 25.9096 33.1161 25.8976 33.2461C25.8812 33.434 25.7935 33.6086 25.6526 33.7341C25.5732 33.8075 25.48 33.8645 25.3783 33.9015C25.2767 33.9386 25.1687 33.9551 25.0606 33.9501C24.9985 33.9502 24.9366 33.9442 24.8756 33.9321C24.8142 33.9209 24.754 33.9042 24.6956 33.8821L24.6126 33.8501C24.5938 33.8421 24.5744 33.8354 24.5546 33.8301C24.542 33.8282 24.5292 33.8282 24.5166 33.8301C24.5016 33.8288 24.4865 33.8306 24.4722 33.8354C24.4579 33.8402 24.4448 33.8479 24.4336 33.8581C24.41 33.8871 24.3901 33.919 24.3746 33.9531H24.2746" fill="#15366F"/>
<path fill-rule="evenodd" clip-rule="evenodd" d="M25.8947 33.5191C25.9433 33.4723 26.0082 33.4461 26.0757 33.4461C26.1079 33.4453 26.14 33.4516 26.1695 33.4646C26.1991 33.4775 26.2254 33.4968 26.2467 33.5211C26.2691 33.5442 26.2863 33.5719 26.297 33.6023C26.3077 33.6327 26.3117 33.665 26.3087 33.6971C26.3043 33.7662 26.2731 33.8308 26.2217 33.8771C26.1734 33.9245 26.1083 33.9507 26.0407 33.9501C26.0086 33.9508 25.9768 33.9446 25.9473 33.932C25.9178 33.9194 25.8914 33.9007 25.8697 33.8771C25.8477 33.853 25.8309 33.8245 25.8206 33.7935C25.8103 33.7625 25.8065 33.7296 25.8097 33.6971C25.8137 33.629 25.8442 33.5651 25.8947 33.5191Z" fill="#15366F"/>
<path fill-rule="evenodd" clip-rule="evenodd" d="M26.3787 33.948L26.5537 33.184L26.6537 33.191C26.6508 33.2705 26.6545 33.3501 26.6647 33.429C26.6791 33.5099 26.7134 33.5858 26.7647 33.65C26.8081 33.7064 26.8634 33.7525 26.9267 33.785C26.9917 33.8156 27.0628 33.8309 27.1347 33.83C27.1945 33.8328 27.2543 33.8226 27.3098 33.8001C27.3654 33.7777 27.4155 33.7435 27.4567 33.7C27.5342 33.6183 27.5811 33.5123 27.5897 33.4C27.5997 33.2567 27.4743 33.0757 27.2137 32.857C27.108 32.7863 27.0197 32.6925 26.9557 32.5826C26.8916 32.4728 26.8533 32.3498 26.8437 32.223C26.8537 32.0378 26.9369 31.8642 27.0749 31.7402C27.2129 31.6163 27.3944 31.5522 27.5797 31.562C27.6418 31.5624 27.7038 31.5687 27.7647 31.581C27.8013 31.5876 27.8374 31.597 27.8727 31.609L27.9567 31.638L28.0137 31.653C28.031 31.6544 28.0484 31.6544 28.0657 31.653C28.0982 31.6547 28.1304 31.6459 28.1577 31.628C28.1801 31.6105 28.1996 31.5895 28.2157 31.566H28.3157L28.1317 32.249L28.0437 32.237V32.125C28.0396 32.0298 28.0128 31.9369 27.9657 31.854C27.9319 31.7963 27.8828 31.7492 27.8239 31.7177C27.7649 31.6863 27.6984 31.6719 27.6317 31.676C27.5747 31.6728 27.5178 31.6843 27.4665 31.7093C27.4152 31.7344 27.3712 31.7721 27.3387 31.819C27.2967 31.8779 27.2715 31.947 27.2657 32.019C27.2591 32.0909 27.2755 32.1631 27.3127 32.225C27.3407 32.2656 27.3744 32.302 27.4127 32.333L27.6877 32.575C27.7841 32.6591 27.8665 32.758 27.9317 32.868C27.9976 32.9806 28.0266 33.1111 28.0147 33.241C27.9983 33.429 27.9106 33.6036 27.7697 33.729C27.6902 33.8025 27.597 33.8594 27.4954 33.8965C27.3937 33.9335 27.2857 33.95 27.1777 33.945C27.1156 33.945 27.0536 33.939 26.9927 33.927C26.9316 33.9157 26.8717 33.899 26.8137 33.877L26.7297 33.845C26.7109 33.8368 26.6915 33.8301 26.6717 33.825C26.6594 33.8232 26.6469 33.8232 26.6347 33.825C26.6196 33.8237 26.6045 33.8255 26.5902 33.8303C26.5759 33.8351 26.5628 33.8429 26.5517 33.853C26.528 33.882 26.5082 33.914 26.4927 33.948H26.3927" fill="#15366F"/>
<path fill-rule="evenodd" clip-rule="evenodd" d="M28.1227 33.5191C28.1712 33.4721 28.2361 33.4459 28.3037 33.4461C28.336 33.4453 28.368 33.4516 28.3975 33.4646C28.4271 33.4775 28.4534 33.4968 28.4747 33.5211C28.4971 33.5443 28.5142 33.572 28.5249 33.6023C28.5356 33.6327 28.5396 33.665 28.5367 33.6971C28.5323 33.7662 28.5011 33.8308 28.4497 33.8771C28.4014 33.9245 28.3363 33.9507 28.2687 33.9501C28.2366 33.9508 28.2048 33.9447 28.1753 33.9321C28.1458 33.9195 28.1193 33.9008 28.0977 33.8771C28.0757 33.853 28.059 33.8245 28.0486 33.7935C28.0383 33.7625 28.0346 33.7296 28.0377 33.6971C28.0419 33.629 28.0723 33.5652 28.1227 33.5191Z" fill="#15366F"/>
<path fill-rule="evenodd" clip-rule="evenodd" d="M37.0697 32.0761C37.1848 31.9195 37.3338 31.791 37.5056 31.7003C37.6774 31.6095 37.8675 31.5589 38.0617 31.5521C38.2832 31.544 38.4988 31.6238 38.6617 31.7741C38.7408 31.8519 38.8027 31.9456 38.8432 32.049C38.8837 32.1524 38.9019 32.2632 38.8967 32.3741C38.8891 32.7626 38.7418 33.1353 38.4817 33.4241C38.3641 33.5851 38.211 33.7169 38.0343 33.8094C37.8577 33.9018 37.6621 33.9523 37.4627 33.9571C37.3545 33.9614 37.2466 33.944 37.1452 33.9058C37.0439 33.8677 36.9512 33.8096 36.8727 33.7351C36.7957 33.656 36.7359 33.562 36.697 33.4587C36.6581 33.3554 36.641 33.2453 36.6467 33.1351C36.6546 32.7412 36.8048 32.3636 37.0697 32.0721V32.0761ZM37.1697 33.6341C37.1893 33.6959 37.2287 33.7495 37.2819 33.7865C37.335 33.8236 37.399 33.8421 37.4637 33.8391C37.5996 33.8383 37.7299 33.7853 37.8277 33.6911C37.9776 33.5252 38.0928 33.331 38.1667 33.1201C38.2419 32.9395 38.3001 32.7524 38.3407 32.5611C38.3775 32.4049 38.3986 32.2454 38.4037 32.0851C38.4068 31.9806 38.3771 31.8778 38.3187 31.7911C38.289 31.7498 38.2492 31.7168 38.2032 31.6951C38.1572 31.6734 38.1065 31.6637 38.0557 31.6671C37.775 31.6671 37.5387 31.9191 37.3467 32.4231C37.2184 32.7268 37.1446 33.0507 37.1287 33.3801C37.1264 33.4666 37.1403 33.5527 37.1697 33.6341Z" fill="#15366F"/>
<path fill-rule="evenodd" clip-rule="evenodd" d="M32.3546 33.0751L32.3446 32.2431L31.7286 33.0741H32.3556L32.3546 33.0751ZM30.8466 33.8401C30.8988 33.8269 30.9487 33.806 30.9946 33.7781C31.0611 33.7276 31.1192 33.6668 31.1666 33.5981L32.7016 31.5881H32.7896L32.8426 33.5431C32.8355 33.6265 32.8514 33.7102 32.8886 33.7851C32.9474 33.8252 33.0177 33.8445 33.0886 33.8401L33.0776 33.9221H32.0506L32.0616 33.8401C32.1344 33.8383 32.206 33.8224 32.2726 33.7931C32.2972 33.7764 32.3174 33.7541 32.3317 33.728C32.3459 33.7019 32.3538 33.6728 32.3546 33.6431C32.358 33.6178 32.3603 33.5565 32.3616 33.4591C32.3616 33.4391 32.3616 33.3561 32.3616 33.2101H31.6326L31.3856 33.5571C31.3684 33.5818 31.3527 33.6075 31.3386 33.6341C31.3257 33.6592 31.3169 33.6862 31.3126 33.7141C31.3056 33.7611 31.3126 33.7911 31.3416 33.8041C31.3971 33.8238 31.455 33.8356 31.5136 33.8391L31.5026 33.9211H30.8376L30.8486 33.8391" fill="#15366F"/>
<path fill-rule="evenodd" clip-rule="evenodd" d="M26.5247 29.1041L26.3457 29.0041C26.0408 28.9462 25.7645 28.7869 25.5617 28.5521C26.0446 28.4057 26.4938 28.1655 26.8837 27.8451C26.8837 27.8451 26.5627 27.7451 26.5027 27.5811C26.5027 27.5811 27.5027 27.2811 27.6027 27.0761C27.6027 27.0761 25.5027 26.6491 25.1367 25.8591C25.1367 25.8591 23.9947 25.8381 23.5927 25.1081C23.1907 24.3781 23.5527 25.0681 23.5527 25.0681C23.3184 25.1114 23.0764 25.0775 22.8631 24.9714C22.6497 24.8654 22.4766 24.693 22.3697 24.4801C22.1369 24.475 21.9082 24.4178 21.7005 24.3126C21.4928 24.2073 21.3114 24.0568 21.1697 23.8721C20.5178 23.7972 19.9033 23.5287 19.4057 23.1011C18.5446 22.9739 17.734 22.6163 17.0597 22.0661C16.3177 21.2761 17.0597 22.0261 17.0597 22.0261C16.4186 21.9943 15.8147 21.7155 15.3747 21.2481C14.4985 21.1837 13.6805 20.7852 13.0897 20.1351C12.0426 19.9906 11.0749 19.4973 10.3427 18.7351C9.30797 18.5976 8.31951 18.221 7.45567 17.6351C6.37267 16.7631 6.54067 16.8451 6.54067 16.8451L23.6017 16.8591C24.6527 16.8282 25.6976 17.029 26.6622 17.4473C27.6269 17.8655 28.4878 18.4909 29.1837 19.2791C31.2977 21.9091 33.6097 20.5181 34.7427 19.5791C35.8757 18.6401 36.8977 16.8851 40.7007 16.8881L57.4667 16.9021C56.3584 17.9089 54.9855 18.5782 53.5097 18.8311C52.7437 19.5915 51.7551 20.0879 50.6877 20.2481C50.0142 20.9407 49.1156 21.3701 48.1537 21.4591C47.9293 21.7145 47.6568 21.9233 47.3517 22.0734C47.0466 22.2235 46.715 22.3121 46.3757 22.3341C46.1597 22.6059 45.881 22.8213 45.5635 22.9619C45.246 23.1024 44.8991 23.1639 44.5527 23.1411C43.2187 23.1621 44.5077 23.1631 44.5077 23.1631C44.2661 23.495 43.9528 23.7682 43.5912 23.9624C43.2295 24.1567 42.8288 24.267 42.4187 24.2851C40.9517 24.3961 42.3747 24.2851 42.3747 24.2851C42.0097 24.6297 41.5403 24.8429 41.0407 24.8911C40.0177 25.0911 40.9737 24.8911 40.9737 24.8911C40.9737 24.8911 40.7967 25.4521 39.6397 25.5641C38.4827 25.6761 39.5507 25.5861 39.5507 25.5861C39.5507 25.5861 39.4177 25.9231 38.7727 26.0121C38.0178 26.7345 37.0525 27.1979 36.0167 27.3351C36.0167 27.3351 35.9167 27.8351 34.9657 28.5271C35.1147 28.7538 35.2083 29.0124 35.2387 29.2821V29.2681C35.2387 29.2681 35.3247 28.9451 35.2097 29.4611C35.0947 29.9771 34.0887 30.4281 34.0887 30.4281C34.7137 29.3571 34.0237 29.2531 34.0237 29.2531C34.1777 29.8731 32.8877 30.3621 32.8877 30.3621C33.5007 29.5231 32.8357 29.2001 32.8357 29.2001C33.0277 30.0391 31.6097 30.2701 31.6097 30.2701C32.3627 29.3411 31.3917 29.0701 31.3917 29.0701H30.4847C30.5617 30.2191 29.1567 30.5051 29.1567 30.5051C29.8967 29.4471 29.1427 29.3051 29.1427 29.3051C29.3097 30.0801 28.1217 30.4791 28.1217 30.4791C28.7087 29.3311 27.9037 29.2011 27.9037 29.2011C28.2367 30.1011 26.3717 30.6711 26.6397 30.5011C26.9077 30.3311 27.1117 29.6011 27.1117 29.6011C27.3117 29.3301 26.5237 29.1101 26.5237 29.1101" fill="url(#paint1_linear_40_30595)"/>
<path fill-rule="evenodd" clip-rule="evenodd" d="M15.8127 17.2661C16.06 17.6383 16.4188 17.9226 16.8377 18.0781H10.9057C10.9057 18.0781 8.31371 18.1191 7.60571 17.2661H15.8057" fill="white"/>
<path fill-rule="evenodd" clip-rule="evenodd" d="M18.8226 18.8501C19.0779 19.2073 19.4352 19.4788 19.8476 19.6291H14.4666C14.4666 19.6291 11.8746 19.7021 11.1666 18.8501H18.8186" fill="white"/>
<path fill-rule="evenodd" clip-rule="evenodd" d="M21.3946 20.23C21.6699 20.5482 22.0231 20.7894 22.4196 20.93H17.0387C17.0387 20.93 14.5066 21.003 13.7386 20.23H21.3906" fill="white"/>
<path fill-rule="evenodd" clip-rule="evenodd" d="M23.1477 21.3052C23.4681 21.5175 23.812 21.692 24.1727 21.8252H19.4497C19.4497 21.8252 16.8977 21.8942 16.1497 21.3052H23.1427" fill="white"/>
<path fill-rule="evenodd" clip-rule="evenodd" d="M25.0367 22.2991C25.2901 22.4961 25.5775 22.6449 25.8847 22.7381H21.3387C21.3387 22.7381 18.7867 22.8881 18.0387 22.2991H25.0317" fill="white"/>
<path fill-rule="evenodd" clip-rule="evenodd" d="M26.5467 23.1311C26.5467 23.1311 26.5547 23.2651 27.2977 23.5691H23.1877C23.1877 23.5691 20.6357 23.7191 19.8877 23.1311H26.5427" fill="white"/>
<path fill-rule="evenodd" clip-rule="evenodd" d="M28.3797 23.9631C28.3797 23.9631 28.0657 23.9991 28.8097 24.3041H24.9557C23.8682 24.3393 22.781 24.2246 21.7247 23.9631H28.3797Z" fill="white"/>
<path fill-rule="evenodd" clip-rule="evenodd" d="M28.7486 24.6371C28.7486 24.6371 29.0536 24.5111 28.5196 24.9781H26.2197C25.1321 25.0133 24.0449 24.8985 22.9886 24.6371H28.7486Z" fill="white"/>
<path fill-rule="evenodd" clip-rule="evenodd" d="M28.2917 25.347C28.2917 25.347 28.5967 25.156 28.0627 25.623H27.4717C26.387 25.6904 25.2983 25.5974 24.2407 25.347H28.2927" fill="white"/>
<path fill-rule="evenodd" clip-rule="evenodd" d="M27.7456 25.891C27.7456 25.891 28.0506 25.7 27.5166 26.167H26.9256C26.3853 26.2121 25.8424 26.1171 25.3496 25.891H27.7496" fill="white"/>
<path fill-rule="evenodd" clip-rule="evenodd" d="M48.1236 17.2661C47.8763 17.6382 47.5175 17.9225 47.0986 18.0781H53.0266C53.0266 18.0781 55.6186 18.1191 56.3266 17.2661H48.1266" fill="white"/>
<path fill-rule="evenodd" clip-rule="evenodd" d="M45.1136 18.8501C44.8584 19.2073 44.5011 19.4788 44.0886 19.6291H49.4696C49.4696 19.6291 52.0616 19.7021 52.7696 18.8501H45.1176" fill="white"/>
<path fill-rule="evenodd" clip-rule="evenodd" d="M42.5397 20.23C42.2645 20.5482 41.9112 20.7895 41.5146 20.93H46.8967C46.8967 20.93 49.4277 21.003 50.1967 20.23H42.5397Z" fill="white"/>
<path fill-rule="evenodd" clip-rule="evenodd" d="M40.7897 21.3052C40.7897 21.3052 41.0027 21.3772 41.0027 21.7762H44.4867C44.4867 21.7762 47.0387 21.8932 47.7867 21.3052H40.7937" fill="white"/>
<path fill-rule="evenodd" clip-rule="evenodd" d="M36.8287 24.873C36.8287 24.873 36.8567 24.673 36.6287 25.127L37.4677 25.142C38.5524 25.2094 39.6411 25.1164 40.6987 24.866L36.8237 24.872" fill="white"/>
<path fill-rule="evenodd" clip-rule="evenodd" d="M36.3007 26.0041C36.3007 26.0041 35.8897 25.8141 36.4237 26.2811H37.0147C37.555 26.3262 38.0979 26.2312 38.5907 26.0051L36.3007 26.0041Z" fill="white"/>
<path fill-rule="evenodd" clip-rule="evenodd" d="M32.2686 21.0581H39.4316C39.4316 21.0581 40.4666 20.9731 40.5786 21.8491C40.5786 21.8491 40.6626 22.0491 40.3786 22.0751C40.0946 22.1011 37.4686 22.0751 37.4686 22.0751L37.2166 22.3861H39.1747C39.2167 22.3802 39.2596 22.3842 39.2999 22.3978C39.3402 22.4114 39.3767 22.4342 39.4067 22.4644C39.4366 22.4946 39.459 22.5313 39.4722 22.5718C39.4854 22.6122 39.489 22.6551 39.4826 22.6971L40.7137 22.1601H41.9446C41.9446 22.1601 43.3716 22.0471 43.2036 23.6601C43.1061 23.4223 42.9322 23.2237 42.7093 23.0957C42.4864 22.9676 42.2272 22.9175 41.9726 22.9531H39.1226L38.8706 23.2641L42.0887 23.2921C42.0887 23.2921 42.7886 23.3481 42.9556 23.8571H38.5347C38.5347 23.8571 38.3106 23.5741 37.7236 23.8011C37.1366 24.0281 37.6676 23.8011 37.6676 23.8011C37.6676 23.8011 36.2676 24.7011 35.5976 24.5921C34.9276 24.4831 34.7576 24.1121 35.1216 23.7441C35.1216 23.7441 33.5266 23.9141 34.7296 23.0661C34.7296 23.0661 33.8626 22.7551 35.3736 22.0211H33.8346C33.2916 21.9789 32.7834 21.7374 32.4076 21.3431C31.9886 20.7491 32.2676 21.0601 32.2676 21.0601" fill="white"/>
<path fill-rule="evenodd" clip-rule="evenodd" d="M37.7987 24.217C37.7987 24.217 37.7237 24.139 37.2487 24.493H38.6197C38.6197 24.493 41.3617 24.704 41.8507 24.217H37.7987Z" fill="white"/>
<path fill-rule="evenodd" clip-rule="evenodd" d="M43.2207 22.2451C43.2207 22.2451 43.1527 22.1881 43.4497 22.6991H44.7627C45.2071 22.652 45.633 22.4961 46.0027 22.2451H43.2207Z" fill="white"/>
<path fill-rule="evenodd" clip-rule="evenodd" d="M36.4367 25.3661C36.4367 25.3661 36.4647 25.1661 36.2367 25.6201L36.3487 25.6351C36.3487 25.6351 38.9787 25.8351 39.5797 25.3741L36.4367 25.3661Z" fill="white"/>
<path fill-rule="evenodd" clip-rule="evenodd" d="M43.6006 23.1211L43.5726 23.4601C43.5726 23.4601 44.1886 23.2901 44.1046 23.1211H43.6046" fill="white"/>
<path fill-rule="evenodd" clip-rule="evenodd" d="M17.6077 17.8651C17.6077 17.8651 16.7077 17.7421 16.5167 17.2651H24.3227C25.9738 17.4045 27.5212 18.1274 28.6877 19.3041C30.5627 21.2541 30.9817 21.0281 31.8497 21.1131L32.2417 21.7351C31.8179 21.7876 31.3882 21.7088 31.0107 21.5091H24.8257C24.8257 21.5091 24.0147 21.5091 23.8187 21.1981H30.3377C30.0209 21.0686 29.7279 20.8871 29.4707 20.6611H23.5397C23.5397 20.6611 22.3087 20.7181 22.1127 20.2371H28.7997C28.5586 19.8103 28.1856 19.4731 27.7367 19.2761H20.3777C20.3777 19.2761 19.6777 19.2481 19.4547 18.8241H27.2927C26.745 18.3714 26.1051 18.0434 25.4177 17.8631H17.6077" fill="white"/>
<path fill-rule="evenodd" clip-rule="evenodd" d="M26.3647 22.5561C26.112 22.5031 25.8734 22.3971 25.6647 22.2451H31.5407C31.86 22.0537 32.2341 21.9742 32.6037 22.0191C32.6037 22.0191 32.9957 22.2731 33.1637 22.2191C32.8458 22.4886 32.4748 22.6882 32.0748 22.805C31.6747 22.9218 31.2546 22.9532 30.8417 22.8971C30.8545 22.8176 30.8868 22.7425 30.9356 22.6784C30.9845 22.6144 31.0484 22.5635 31.1217 22.5301L26.3647 22.5581" fill="white"/>
<path fill-rule="evenodd" clip-rule="evenodd" d="M33.4997 22.2781H34.4227C34.4227 22.2781 34.3947 22.8151 33.0797 22.7591L33.4997 22.2781Z" fill="white"/>
<path fill-rule="evenodd" clip-rule="evenodd" d="M34.1157 22.9241C33.8656 23.0556 33.5872 23.1242 33.3047 23.1241C33.1299 23.3642 32.8993 23.5581 32.6327 23.6891C32.9352 23.7777 33.2581 23.7681 33.5548 23.6615C33.8515 23.555 34.1067 23.357 34.2837 23.0961L34.1157 22.9261" fill="white"/>
<path fill-rule="evenodd" clip-rule="evenodd" d="M32.7157 22.8392C32.3671 23.0084 31.9842 23.0953 31.5967 23.0932C31.4582 23.3468 31.2677 23.5683 31.0377 23.7432C31.3975 23.8208 31.7719 23.7956 32.1182 23.6706C32.4644 23.5456 32.7685 23.3258 32.9957 23.0362L32.7157 22.8362" fill="white"/>
<path fill-rule="evenodd" clip-rule="evenodd" d="M34.0026 23.7151C33.7982 23.816 33.5823 23.8919 33.3596 23.9411C33.0516 23.9971 33.3036 23.9691 33.3036 23.9691C33.2761 24.0655 33.2262 24.1541 33.1582 24.2278C33.0901 24.3014 33.0056 24.3581 32.9116 24.3931C33.1555 24.535 33.4422 24.5845 33.7195 24.5328C33.9968 24.481 34.2464 24.3314 34.4226 24.1111C34.4226 24.1111 34.0306 23.9411 34.0306 23.8001C34.0306 23.6591 34.0026 23.7151 34.0026 23.7151Z" fill="white"/>
<path fill-rule="evenodd" clip-rule="evenodd" d="M32.3806 23.884C32.1185 23.9745 31.846 24.0317 31.5696 24.054C31.5411 24.1518 31.4872 24.2403 31.4134 24.3105C31.3397 24.3808 31.2487 24.4303 31.1496 24.454C30.7856 24.567 31.0936 24.454 31.0936 24.454C31.399 24.5792 31.736 24.6056 32.0572 24.5295C32.3784 24.4535 32.6677 24.2788 32.8846 24.03L32.3846 23.889" fill="white"/>
<path fill-rule="evenodd" clip-rule="evenodd" d="M32.7196 24.5621C32.3946 24.7741 32.0348 24.9271 31.6566 25.0141C31.6566 25.0141 32.2446 25.8621 33.7826 24.8731C33.7826 24.8731 32.9996 24.8451 32.8596 24.6731C32.7196 24.5011 32.7196 24.5601 32.7196 24.5601" fill="white"/>
<path fill-rule="evenodd" clip-rule="evenodd" d="M32.8557 25.5522C32.7113 25.7598 32.5063 25.9176 32.2687 26.0042C31.9327 26.0892 32.1847 26.0322 32.1847 26.0322C32.4881 26.0993 32.8048 26.07 33.0908 25.9485C33.3767 25.827 33.6175 25.6192 33.7797 25.3542C34.1157 24.8452 33.3877 25.5242 32.8567 25.5542" fill="white"/>
<path fill-rule="evenodd" clip-rule="evenodd" d="M32.3247 25.5791C32.3247 25.5791 31.5977 25.6081 31.5137 25.2681C31.2481 25.4144 30.95 25.4921 30.6467 25.4941C30.3107 25.4371 30.5907 25.4941 30.5907 25.4941C30.5196 25.6875 30.3802 25.8483 30.1987 25.9461C30.4917 26.0875 30.8168 26.1489 31.1412 26.1242C31.4656 26.0994 31.7776 25.9893 32.0457 25.8051C32.8857 25.1551 32.3247 25.5791 32.3247 25.5791Z" fill="white"/>
<path fill-rule="evenodd" clip-rule="evenodd" d="M30.7577 24.5911C30.9799 24.7165 31.2296 24.7852 31.4847 24.7911C31.4847 24.7911 31.0647 25.4411 29.8617 25.1581C28.6587 24.8751 29.8057 25.1301 29.8057 25.1301C29.9535 25.0385 30.0858 24.924 30.1977 24.7911C30.35 24.7542 30.4997 24.7071 30.6457 24.6501L30.7577 24.5941" fill="white"/>
<path fill-rule="evenodd" clip-rule="evenodd" d="M30.7577 23.856C30.7577 23.856 30.8417 24.056 31.1777 23.997C30.9537 24.2282 30.6732 24.3969 30.3639 24.4862C30.0547 24.5755 29.7274 24.5823 29.4147 24.506C28.1557 24.336 29.3587 24.477 29.3587 24.477C29.6396 24.3431 29.8951 24.1614 30.1137 23.94L30.7577 23.856Z" fill="white"/>
<path fill-rule="evenodd" clip-rule="evenodd" d="M29.1067 24.7031C29.1067 24.7031 29.6377 24.9031 29.7227 24.8441C29.4645 25.0468 29.1503 25.1651 28.8227 25.1831C28.1797 25.2681 28.7667 25.1831 28.7667 25.1831L29.1027 24.7021" fill="white"/>
<path fill-rule="evenodd" clip-rule="evenodd" d="M29.4987 25.2991C29.4987 25.2991 29.9467 25.5811 30.1697 25.5251C30.1697 25.5251 30.1137 26.2311 28.1837 25.9491C26.2537 25.6671 28.1277 25.9211 28.1277 25.9211C28.529 25.7641 28.9213 25.5848 29.3027 25.3841C29.5027 25.2431 29.5027 25.2991 29.5027 25.2991" fill="white"/>
<path fill-rule="evenodd" clip-rule="evenodd" d="M31.0096 23.121C31.0096 23.121 31.0936 23.658 29.8626 23.771C28.6316 23.884 29.8066 23.771 29.8066 23.771L30.0306 23.371H27.5686C27.5686 23.371 27.0936 23.258 27.0096 23.116H31.0096" fill="white"/>
<path fill-rule="evenodd" clip-rule="evenodd" d="M28.7136 23.9131H29.4136C29.4136 23.9131 29.4586 24.0861 29.1336 24.1961L28.7136 23.9131Z" fill="white"/>
<path fill-rule="evenodd" clip-rule="evenodd" d="M27.1487 27.6991C27.8169 27.3963 28.4534 27.0279 29.0487 26.5991C29.0487 26.5991 30.3917 25.6991 30.8397 26.4581C31.2877 27.2171 28.7397 27.8141 28.7397 27.8141L27.1447 27.7011" fill="white"/>
<path fill-rule="evenodd" clip-rule="evenodd" d="M27.1487 28.01C27.7181 28.1398 28.3071 28.1591 28.8837 28.067C28.512 28.3466 28.0865 28.5462 27.6338 28.6533C27.1812 28.7603 26.7113 28.7725 26.2537 28.689C24.8267 28.35 26.2537 28.632 26.2537 28.632C26.5118 28.5076 26.7558 28.3561 26.9817 28.18C27.2897 27.926 27.1497 28.011 27.1497 28.011" fill="white"/>
<path fill-rule="evenodd" clip-rule="evenodd" d="M26.8687 29.084C26.8687 29.084 27.8197 28.632 27.3437 29.366L26.8687 29.084Z" fill="white"/>
<path fill-rule="evenodd" clip-rule="evenodd" d="M27.9596 29.1681C27.9596 29.1681 29.0226 28.4331 28.6026 29.3681C28.6026 29.3681 28.3506 29.0861 28.1826 29.1991C28.0146 29.3121 28.1266 29.1991 28.1266 29.1991L27.9586 29.1711" fill="white"/>
<path fill-rule="evenodd" clip-rule="evenodd" d="M29.1356 29.1972C29.1356 29.1972 30.0586 28.7162 29.8066 29.4232C29.7572 29.3537 29.6882 29.3004 29.6084 29.2702C29.5287 29.2399 29.4418 29.234 29.3586 29.2532L29.1346 29.1962" fill="white"/>
<path fill-rule="evenodd" clip-rule="evenodd" d="M32.2126 27.6711C32.9666 27.2674 33.6873 26.8043 34.3676 26.2861C34.3676 26.2861 35.2676 25.3541 35.8226 25.9751C36.3776 26.5961 34.5356 27.4751 34.1996 27.5861C33.5404 27.6645 32.8762 27.693 32.2126 27.6711Z" fill="white"/>
<path fill-rule="evenodd" clip-rule="evenodd" d="M32.1007 27.8971C32.7725 28.0529 33.471 28.0529 34.1427 27.8971C34.1427 27.8971 33.2757 29.0841 30.9807 28.6031C31.3121 28.4678 31.6231 28.2871 31.9047 28.0661C32.1567 27.8121 32.1047 27.8961 32.1047 27.8961" fill="white"/>
<path fill-rule="evenodd" clip-rule="evenodd" d="M31.7646 29.0561C31.7646 29.0561 32.7156 28.6041 32.2406 29.3381L31.7646 29.0561Z" fill="white"/>
<path fill-rule="evenodd" clip-rule="evenodd" d="M32.9407 29.1401C32.9407 29.1401 34.0037 28.4051 33.5837 29.3401C33.5837 29.3401 33.3317 29.0581 33.1637 29.1711C32.9957 29.2841 33.1077 29.1711 33.1077 29.1711L32.9397 29.1431" fill="white"/>
<path fill-rule="evenodd" clip-rule="evenodd" d="M34.0306 29.1691C34.0306 29.1691 35.1776 28.5751 34.7026 29.3951C34.6531 29.3257 34.5841 29.2725 34.5044 29.2423C34.4246 29.212 34.3378 29.2061 34.2546 29.2251L34.0306 29.1691Z" fill="white"/>
<path fill-rule="evenodd" clip-rule="evenodd" d="M33.6036 20.853C34.5235 20.2997 35.3719 19.6354 36.1296 18.875C36.6885 18.3119 37.3638 17.878 38.1082 17.6037C38.8526 17.3293 39.648 17.2213 40.4386 17.287H47.2656C47.2656 17.287 47.4336 17.603 46.4256 17.887H39.1786C39.1786 17.887 38.7026 17.633 37.1366 18.735L44.5236 18.763C44.5236 18.763 44.2156 19.275 43.0966 19.332H36.5496L35.3496 20.208C35.3496 20.208 41.0016 20.179 42.0896 20.208C41.6703 20.4972 41.1749 20.6562 40.6656 20.665H34.8456C34.5956 20.797 34.3252 20.8859 34.0456 20.928C33.8965 20.9436 33.746 20.9201 33.6086 20.86" fill="white"/>
</g>
<defs>
<linearGradient id="paint0_linear_40_30595" x1="19.625" y1="31.5785" x2="31.7655" y2="31.5785" gradientUnits="userSpaceOnUse">
<stop stop-color="#D7D7D7"/>
<stop offset="0.4" stop-color="white"/>
<stop offset="1" stop-color="white"/>
</linearGradient>
<linearGradient id="paint1_linear_40_30595" x1="7.85557" y1="43.1514" x2="44.3763" y2="43.1514" gradientUnits="userSpaceOnUse">
<stop stop-color="#C59A17"/>
<stop offset="0.5" stop-color="#D7A819"/>
<stop offset="1" stop-color="#DBAB19"/>
</linearGradient>
<clipPath id="clip0_40_30595">
<rect width="64" height="64" fill="white"/>
</clipPath>
</defs>
</svg>
