<svg width="64" height="64" viewBox="0 0 64 64" fill="none" xmlns="http://www.w3.org/2000/svg">
<g clip-path="url(#clip0_40_30662)">
<path d="M32 64C49.6731 64 64 49.6731 64 32C64 14.3269 49.6731 0 32 0C14.3269 0 0 14.3269 0 32C0 49.6731 14.3269 64 32 64Z" fill="#F5F5F5"/>
<path d="M32 10.2L28 12.5L17.1 18.8L13.1 21.1V42.9L17.1 45.2L28.1 51.5L32.1 53.7999L36.1 51.5L46.9 45.2L50.9 42.9V21.1L46.9 18.8L36 12.5L32 10.2ZM21.1 38.3V25.7L32 19.4L42.9 25.7V38.3L32 44.6L21.1 38.3Z" fill="#2A5ADA"/>
</g>
<defs>
<clipPath id="clip0_40_30662">
<rect width="64" height="64" fill="white"/>
</clipPath>
</defs>
</svg>
