<svg width="64" height="64" viewBox="0 0 64 64" fill="none" xmlns="http://www.w3.org/2000/svg">
<g clip-path="url(#clip0_40_30667)">
<path d="M32 64C49.6731 64 64 49.6731 64 32C64 14.3269 49.6731 0 32 0C14.3269 0 0 14.3269 0 32C0 49.6731 14.3269 64 32 64Z" fill="black"/>
<path d="M18.806 21.8661C22.3162 18.3828 27.0609 16.4282 32.006 16.4282C36.9511 16.4282 41.6958 18.3828 45.206 21.8661L51.506 28.1271L45.206 34.3881C41.6958 37.8713 36.9511 39.8259 32.006 39.8259C27.0609 39.8259 22.3162 37.8713 18.806 34.3881L12.506 28.1301L18.806 21.8661Z" fill="black"/>
<path fill-rule="evenodd" clip-rule="evenodd" d="M7.95703 28.1371L22.257 13.8311H41.747L56.047 28.1371L32 52.1701L7.95703 28.1371ZM43.047 22.9311C40.1173 20.0025 36.1445 18.3573 32.002 18.3573C27.8596 18.3573 23.8867 20.0025 20.957 22.9311L15.757 28.1311L20.957 33.3311C23.8869 36.2609 27.8606 37.9068 32.004 37.9068C36.1474 37.9068 40.1212 36.2609 43.051 33.3311L48.251 28.1311L43.047 22.9311Z" fill="#0CE466"/>
<path d="M32 32.6781C31.1005 32.6777 30.2212 32.4106 29.4735 31.9106C28.7257 31.4106 28.1429 30.7001 27.7989 29.869C27.4548 29.0378 27.3649 28.1234 27.5405 27.2411C27.7161 26.3589 28.1493 25.5485 28.7854 24.9125C29.4214 24.2764 30.2318 23.8432 31.114 23.6676C31.9963 23.492 32.9108 23.5819 33.7419 23.926C34.573 24.27 35.2835 24.8528 35.7835 25.6005C36.2835 26.3483 36.5506 27.2275 36.551 28.1271C36.5513 28.7248 36.4337 29.3167 36.2051 29.869C35.9765 30.4213 35.6413 30.9231 35.2186 31.3457C34.796 31.7684 34.2942 32.1036 33.7419 32.3322C33.1896 32.5608 32.5977 32.6783 32 32.6781Z" fill="black"/>
<path fill-rule="evenodd" clip-rule="evenodd" d="M24.527 28.1271C24.527 29.6051 24.9653 31.0499 25.7864 32.2788C26.6075 33.5078 27.7747 34.4656 29.1402 35.0312C30.5057 35.5968 32.0083 35.7448 33.4579 35.4565C34.9075 35.1681 36.2391 34.4564 37.2842 33.4113C38.3293 32.3661 39.041 31.0346 39.3294 29.585C39.6177 28.1353 39.4697 26.6328 38.9041 25.2673C38.3385 23.9017 37.3807 22.7346 36.1518 21.9135C34.9228 21.0923 33.478 20.6541 32 20.6541C30.018 20.6541 28.1172 21.4414 26.7158 22.8428C25.3143 24.2443 24.527 26.1451 24.527 28.1271ZM28.751 28.1271C28.751 28.7696 28.9415 29.3978 29.2985 29.9321C29.6555 30.4664 30.163 30.8828 30.7566 31.1287C31.3503 31.3746 32.0036 31.439 32.6338 31.3136C33.2641 31.1883 33.843 30.8788 34.2974 30.4244C34.7517 29.9701 35.0612 29.3911 35.1866 28.7609C35.3119 28.1307 35.2476 27.4774 35.0017 26.8837C34.7558 26.29 34.3393 25.7826 33.805 25.4256C33.2707 25.0686 32.6426 24.8781 32 24.8781C31.1383 24.8781 30.3119 25.2204 29.7026 25.8297C29.0933 26.439 28.751 27.2654 28.751 28.1271Z" fill="white"/>
</g>
<defs>
<clipPath id="clip0_40_30667">
<rect width="64" height="64" fill="white"/>
</clipPath>
</defs>
</svg>
