<svg xmlns="http://www.w3.org/2000/svg" width="64" height="64" viewBox="0 0 64 64"><circle cx="32" cy="32" r="32"/><g transform="translate(7.957 -5.169)"><path d="M20.3,32.436a18.74,18.74,0,0,1,26.4,0l6.3,6.261-6.3,6.261a18.74,18.74,0,0,1-26.4,0L14,38.7Z" transform="translate(-9.451 -5.401)"/><path d="M0,33.306,14.3,19H33.79l14.3,14.306L24.043,57.339ZM35.09,28.1A15.623,15.623,0,0,0,13,28.1L7.8,33.3l5.2,5.2a15.623,15.623,0,0,0,22.094,0l5.2-5.2Z" transform="translate(0 0)" fill="#0ce466" fill-rule="evenodd"/><path d="M64.549,58.1A4.549,4.549,0,1,1,69.1,53.549,4.549,4.549,0,0,1,64.549,58.1Z" transform="translate(-40.506 -20.253)"/><path d="M51,47.473A7.473,7.473,0,1,0,58.473,40,7.473,7.473,0,0,0,51,47.473Zm4.224,0a3.249,3.249,0,1,0,3.249-3.249A3.249,3.249,0,0,0,55.224,47.473Z" transform="translate(-34.43 -14.177)" fill="#fff" fill-rule="evenodd"/></g></svg>