<svg width="64" height="64" viewBox="0 0 64 64" fill="none" xmlns="http://www.w3.org/2000/svg">
<g clip-path="url(#clip0_40_30677)">
<mask id="mask0_40_30677" style="mask-type:luminance" maskUnits="userSpaceOnUse" x="0" y="0" width="64" height="64">
<path d="M32 64C49.6731 64 64 49.6731 64 32C64 14.3269 49.6731 0 32 0C14.3269 0 0 14.3269 0 32C0 49.6731 14.3269 64 32 64Z" fill="white"/>
</mask>
<g mask="url(#mask0_40_30677)">
<path d="M32 3.46289C38.3597 3.46477 44.5365 5.59162 49.5492 9.50561C54.5619 13.4196 58.1231 18.8963 59.667 25.0658C61.211 31.2353 60.6493 37.7438 58.0711 43.5575C55.4928 49.3712 51.046 54.1567 45.4368 57.154C39.8276 60.1512 33.3777 61.1883 27.1117 60.1004C20.8457 59.0126 15.1228 55.8623 10.8521 51.1498C6.58134 46.4373 4.00766 40.433 3.53984 34.0905C3.07202 27.7479 4.73688 21.431 8.26998 16.1429C10.8778 12.241 14.4076 9.04253 18.5468 6.83076C22.6861 4.61899 27.3069 3.46221 32 3.46289Z" fill="#8F8F8F"/>
<path d="M32 0C25.671 0 19.4841 1.87677 14.2218 5.39297C8.95939 8.90918 4.85787 13.9069 2.43587 19.7541C0.013865 25.6014 -0.619842 32.0355 0.614885 38.2429C1.84961 44.4503 4.89732 50.1521 9.3726 54.6274C13.8479 59.1027 19.5497 62.1504 25.7571 63.3851C31.9645 64.6199 38.3986 63.9861 44.2459 61.5641C50.0931 59.1421 55.0908 55.0406 58.607 49.7782C62.1232 44.5159 64 38.329 64 32C64.0122 27.8099 63.1991 23.6584 61.6069 19.7826C60.0147 15.9068 57.6747 12.3825 54.7205 9.41107C51.7663 6.43959 48.2557 4.07908 44.3892 2.46433C40.5228 0.849575 36.3761 0.0121952 32.186 0L32 0ZM32.542 33.085L29.211 44.32H47.031C47.2694 44.3119 47.5013 44.3988 47.6757 44.5615C47.85 44.7243 47.9527 44.9496 47.961 45.188V45.482L46.411 50.828C46.3427 51.0808 46.1905 51.3028 45.9793 51.4576C45.7682 51.6125 45.5106 51.6909 45.249 51.68H17.976L22.547 36.106L17.433 37.656L18.6 34.092L23.714 32.542L30.145 10.692C30.2156 10.4419 30.3674 10.2224 30.5765 10.0681C30.7857 9.91382 31.0402 9.83357 31.3 9.84H38.2C38.4384 9.8319 38.6703 9.91878 38.8447 10.0815C39.019 10.2443 39.1217 10.4696 39.13 10.708V11L33.7 29.443L38.814 27.893L37.729 31.612L32.542 33.085Z" fill="#F5F5F5"/>
</g>
</g>
<defs>
<clipPath id="clip0_40_30677">
<rect width="64" height="64" fill="white"/>
</clipPath>
</defs>
</svg>
