<svg xmlns="http://www.w3.org/2000/svg" xmlns:xlink="http://www.w3.org/1999/xlink" width="64" height="64" viewBox="0 0 64 64"><defs><clipPath id="a"><circle cx="32" cy="32" r="32" transform="translate(286 1547)" fill="#dedede"/></clipPath></defs><g transform="translate(-286 -1547)" clip-path="url(#a)"><g transform="translate(286 1547)"><path d="M28.537,0A28.529,28.529,0,1,1,4.807,12.68,28.537,28.537,0,0,1,28.537,0Z" transform="translate(3.463 3.463)" fill="#8f8f8f"/><path d="M32,0A32,32,0,1,0,64,32h0A31.907,31.907,0,0,0,32.186,0Zm.542,33.085L29.211,44.32H47.031a.9.9,0,0,1,.93.868v.294l-1.55,5.346a1.154,1.154,0,0,1-1.162.852H17.976l4.571-15.574-5.114,1.55L18.6,34.092l5.114-1.55,6.431-21.85A1.17,1.17,0,0,1,31.3,9.84h6.9a.9.9,0,0,1,.93.868V11L33.7,29.443l5.114-1.55-1.085,3.719Z" fill="#fff"/></g></g></svg>