<svg xmlns="http://www.w3.org/2000/svg" xmlns:xlink="http://www.w3.org/1999/xlink" width="64" height="64" viewBox="0 0 64 64"><defs><linearGradient id="a" x1="0.854" y1="0.146" x2="0.146" y2="0.854" gradientUnits="objectBoundingBox"><stop offset="0" stop-color="#ff2d55"/><stop offset="1" stop-color="#ffbc5b"/></linearGradient><linearGradient id="b" x1="0.5" x2="0.5" y2="1" gradientUnits="objectBoundingBox"><stop offset="0" stop-color="#a524b3"/><stop offset="1" stop-color="#ff2d55"/></linearGradient></defs><circle cx="32" cy="32" r="32" fill="url(#a)"/><path d="M125.7,0V24h20Z" transform="translate(-103.028 20.8)" fill-rule="evenodd" fill="url(#b)"/><path d="M16.7,154h20V130Z" transform="translate(-14.028 -109.2)" fill="#fff" fill-rule="evenodd"/><path d="M40,320a32.774,32.774,0,0,0,6.4,6.4H84.8a32.773,32.773,0,0,0,6.4-6.4Z" transform="translate(-33.6 -268.8)" fill="#fc9965" fill-rule="evenodd"/><path d="M80,360a32,32,0,0,0,38.4,0Z" transform="translate(-67.2 -302.4)" fill="#ff2d55" fill-rule="evenodd"/><path d="M252.3,0V17.6h14.672Z" transform="translate(-209.372 33.6)" fill-rule="evenodd" fill="url(#b)"/><path d="M56.956,280H16.7a31.863,31.863,0,0,0,3.728,6.4H56.972V280Z" transform="translate(-14.028 -235.2)" fill="#ffbc5b" fill-rule="evenodd"/><path d="M176.7,227.6h14.656V210Z" transform="translate(-148.428 -176.4)" fill="#fff" fill-rule="evenodd"/><circle cx="8" cy="8" r="8" transform="translate(34.928 12.8)" fill="#ffc95b"/><circle cx="4" cy="4" r="4" transform="translate(18.672 8)" fill="#ffc95b"/></svg>