<svg width="64" height="64" viewBox="0 0 64 64" fill="none" xmlns="http://www.w3.org/2000/svg">
<g clip-path="url(#clip0_40_30696)">
<path d="M32 64C49.6731 64 64 49.6731 64 32C64 14.3269 49.6731 0 32 0C14.3269 0 0 14.3269 0 32C0 49.6731 14.3269 64 32 64Z" fill="#25215F"/>
<path d="M20.1231 17.8411C18.3168 18.0969 16.5723 18.6797 14.9751 19.5611C12.0899 21.2447 9.94324 23.9514 8.96106 27.1441C8.44606 28.9441 8.36109 30.2331 8.40909 36.2841L8.44709 41.8711L8.79908 42.5871C9.03524 43.0606 9.39787 43.4595 9.84677 43.7395C10.2957 44.0196 10.8133 44.1699 11.3424 44.1738C11.8715 44.1777 12.3913 44.0351 12.8444 43.7618C13.2974 43.4885 13.6659 43.095 13.9091 42.6251L14.2231 42.0101L14.2981 35.6571C14.3611 28.8521 14.3481 28.9771 15.0641 27.5571C15.8531 26.3097 16.9024 25.2475 18.1401 24.4431C19.7598 23.6501 21.5979 23.4203 23.3631 23.7901C24.7038 24.1264 25.9282 24.8202 26.9056 25.7976C27.883 26.775 28.5769 27.9994 28.9131 29.3401C29.1363 31.5383 29.1991 33.7498 29.1011 35.9571C29.0232 38.0509 29.0736 40.1475 29.2521 42.2351C29.4232 42.655 29.6809 43.0342 30.0082 43.3479C30.3356 43.6617 30.7253 43.903 31.1521 44.0561C31.7898 44.2543 32.4763 44.2263 33.0958 43.9769C33.7152 43.7275 34.2296 43.2719 34.5521 42.6871L34.9411 41.9961L35.0041 35.5961C35.0791 28.6031 35.0541 28.7531 35.8581 27.3721C36.5456 26.3381 37.4183 25.4401 38.4321 24.7231C39.582 23.9411 40.9619 23.5694 42.3491 23.6681C43.6171 23.5807 44.8821 23.8784 45.9781 24.5221C47.1632 25.2616 48.1636 26.2621 48.9031 27.4471C49.6811 28.9161 49.6941 28.9661 49.7191 35.7211C49.7571 41.6721 49.7691 41.8861 50.0191 42.4381C50.2176 42.9633 50.5801 43.4105 51.0527 43.7134C51.5253 44.0164 52.083 44.159 52.6431 44.1201C53.2523 44.164 53.8585 44.0001 54.3625 43.655C54.8665 43.3099 55.2387 42.8041 55.4181 42.2201C55.6712 37.6869 55.6668 33.1429 55.4051 28.6101C54.8434 25.3803 53.075 22.4847 50.4581 20.5101C48.5689 19.061 46.3229 18.1498 43.9581 17.8731C43.0643 17.6999 42.1481 17.6746 41.2461 17.7981C38.1119 18.0755 35.1746 19.444 32.9461 21.6651L31.9921 22.6191L31.3641 21.9281C29.9738 20.4793 28.2804 19.3558 26.4051 18.6381C24.3986 17.8996 22.2504 17.6271 20.1231 17.8411Z" fill="white"/>
</g>
<defs>
<clipPath id="clip0_40_30696">
<rect width="64" height="64" fill="white"/>
</clipPath>
</defs>
</svg>
