<svg xmlns="http://www.w3.org/2000/svg" width="64" height="64" viewBox="0 0 64 64"><g transform="translate(-8528.947 -692.496)"><circle cx="32" cy="32" r="32" transform="translate(8528.947 692.496)" fill="#25215f"/><path d="M314.828-219.7a15.009,15.009,0,0,0-5.148,1.72,13.311,13.311,0,0,0-6.014,7.583c-.515,1.8-.6,3.089-.552,9.14l.038,5.587.352.716a2.866,2.866,0,0,0,5.11.038l.314-.615.075-6.353c.063-6.805.05-6.68.766-8.1a10.246,10.246,0,0,1,3.076-3.114,8.1,8.1,0,0,1,5.223-.653,7.637,7.637,0,0,1,5.55,5.55,45.518,45.518,0,0,1,.188,6.617,51.315,51.315,0,0,0,.151,6.278,3.23,3.23,0,0,0,1.9,1.821,2.9,2.9,0,0,0,3.4-1.369l.389-.691.063-6.4c.075-6.993.05-6.843.854-8.224a10.081,10.081,0,0,1,2.574-2.649,6.184,6.184,0,0,1,3.917-1.055,6.309,6.309,0,0,1,3.629.854,9.169,9.169,0,0,1,2.925,2.925c.778,1.469.791,1.519.816,8.274.038,5.951.05,6.165.3,6.717a2.612,2.612,0,0,0,2.624,1.682,2.7,2.7,0,0,0,2.775-1.9,120.014,120.014,0,0,0-.013-13.61,12.92,12.92,0,0,0-4.947-8.1,13.2,13.2,0,0,0-6.5-2.637,8.321,8.321,0,0,0-2.712-.075,13.435,13.435,0,0,0-8.3,3.867l-.954.954-.628-.691a13.618,13.618,0,0,0-4.959-3.29A14.1,14.1,0,0,0,314.828-219.7Z" transform="translate(8234.242 930.037)" fill="#fff"/></g></svg>