<svg width="64" height="64" viewBox="0 0 64 64" fill="none" xmlns="http://www.w3.org/2000/svg">
<g clip-path="url(#clip0_40_30700)">
<path d="M32.0001 64C38.3321 64 44.5217 62.1215 49.7856 58.6021C55.0495 55.0828 59.1509 50.081 61.5709 44.2297C63.9908 38.3783 64.6204 31.9406 63.38 25.7313C62.1396 19.522 59.0849 13.8203 54.6026 9.34783C50.1203 4.87535 44.4119 1.83318 38.1999 0.606374C31.988 -0.620436 25.5516 0.0232661 19.7056 2.45601C13.8596 4.88875 8.86676 9.00116 5.35899 14.2727C1.85121 19.5443 -0.0137746 25.7381 7.65974e-05 32.07C0.0241544 40.5431 3.40553 48.6612 9.40349 54.6461C15.4014 60.6309 23.527 63.9945 32.0001 64Z" fill="#1C68F3"/>
<path fill-rule="evenodd" clip-rule="evenodd" d="M51.2 24.193V34.883H17.564C18.305 38.1092 20.1277 40.9848 22.7291 43.0319C25.3304 45.079 28.554 46.1743 31.864 46.136C34.5876 46.1533 37.2622 45.4125 39.5888 43.9965C41.9154 42.5805 43.8021 40.5451 45.038 38.118H51.345V46.978C51.3442 47.4873 51.2412 47.9913 51.0421 48.4601C50.843 48.9289 50.552 49.353 50.1861 49.7073C49.8202 50.0616 49.387 50.3389 48.912 50.5228C48.4371 50.7067 47.9301 50.7935 47.421 50.778H16.302C15.2806 50.7846 14.2974 50.3903 13.5636 49.6797C12.8299 48.9691 12.4042 47.9991 12.378 46.978V24.193H51.2ZM41.25 37.978C40.1964 39.4936 38.7927 40.7325 37.1579 41.5895C35.5232 42.4466 33.7058 42.8965 31.86 42.901C30.0112 42.9128 28.1879 42.47 26.5505 41.6116C24.9131 40.7531 23.5118 39.5053 22.47 37.978H41.25ZM23.59 26.725C22.1472 26.714 20.7478 27.2179 19.6431 28.1461C18.5384 29.0742 17.8009 30.3659 17.563 31.789H20.927C21.1015 31.2188 21.4545 30.7198 21.9338 30.3652C22.4132 30.0106 22.9937 29.8193 23.59 29.8193C24.1863 29.8193 24.7668 30.0106 25.2461 30.3652C25.7255 30.7198 26.0784 31.2188 26.253 31.789H29.478C29.2757 30.3752 28.5674 29.0829 27.4847 28.1516C26.4019 27.2204 25.0181 26.7135 23.59 26.725ZM40.128 26.725C38.6852 26.714 37.2858 27.2179 36.1811 28.1461C35.0764 29.0742 34.3389 30.3659 34.101 31.789H37.465C37.6395 31.2188 37.9925 30.7198 38.4718 30.3652C38.9512 30.0106 39.5317 29.8193 40.128 29.8193C40.7243 29.8193 41.3048 30.0106 41.7841 30.3652C42.2635 30.7198 42.6164 31.2188 42.791 31.789H46.155C45.9001 30.3738 45.1578 29.0925 44.0569 28.1675C42.956 27.2425 41.5659 26.7321 40.128 26.725ZM47.278 12.378C48.2994 12.3714 49.2826 12.7657 50.0164 13.4763C50.7501 14.1868 51.1758 15.1569 51.202 16.178V20.818H12.378V16.178C12.3788 15.6687 12.4818 15.1647 12.6809 14.6959C12.8799 14.2271 13.171 13.803 13.5369 13.4487C13.9028 13.0944 14.336 12.8171 14.8109 12.6331C15.2859 12.4492 15.7929 12.3625 16.302 12.378H47.278Z" fill="white"/>
</g>
<defs>
<clipPath id="clip0_40_30700">
<rect width="64" height="64" fill="white"/>
</clipPath>
</defs>
</svg>
