<svg xmlns="http://www.w3.org/2000/svg" width="64" height="64" viewBox="0 0 64 64">
  <g id="mask" transform="translate(-478.93 -7217.402)">
    <g id="Group_5290" data-name="Group 5290" transform="translate(478.93 7217.402)">
      <g id="Group_5315" data-name="Group 5315">
        <g id="mask-network-mask-logo">
          <path id="Path_7640" data-name="Path 7640" d="M32,64A32,32,0,1,0,0,32.07,32.021,32.021,0,0,0,32,64Z" fill="#1c68f3"/>
          <path id="Path_7641" data-name="Path 7641" d="M47.622,20.615v10.69H13.986a14.5,14.5,0,0,0,14.3,11.253,14.679,14.679,0,0,0,13.174-8.018h6.307V43.4a3.808,3.808,0,0,1-3.924,3.8H12.724A3.9,3.9,0,0,1,8.8,43.4V20.615ZM37.672,34.4a11.47,11.47,0,0,1-9.39,4.923,11.279,11.279,0,0,1-9.39-4.923ZM20.012,23.147a6.064,6.064,0,0,0-6.027,5.064h3.364a2.785,2.785,0,0,1,5.326,0H25.9A5.9,5.9,0,0,0,20.012,23.147Zm16.538,0a6.064,6.064,0,0,0-6.027,5.064h3.364a2.785,2.785,0,0,1,5.326,0h3.364A6.155,6.155,0,0,0,36.55,23.147ZM43.7,8.8a3.9,3.9,0,0,1,3.924,3.8V17.24H8.8V12.6a3.808,3.808,0,0,1,3.924-3.8Z" transform="translate(3.578 3.578)" fill="#fff" fill-rule="evenodd"/>
        </g>
      </g>
    </g>
  </g>
</svg>
