<svg xmlns="http://www.w3.org/2000/svg" width="64" height="64" viewBox="0 0 64 64"><g transform="translate(-286 -3142)"><circle cx="32" cy="32" r="32" transform="translate(286 3142)" fill="#f5f5f5"/><g transform="translate(298.85 3157.25)"><path d="M29,10.2a2.548,2.548,0,0,0-2.4,0L21,13.5l-3.8,2.1-5.5,3.3a2.548,2.548,0,0,1-2.4,0L5,16.3a2.437,2.437,0,0,1-1.2-2.1v-5A2.467,2.467,0,0,1,5,7.1L9.3,4.6a2.548,2.548,0,0,1,2.4,0L16,7.2a2.437,2.437,0,0,1,1.2,2.1v3.3L21,10.4V7a2.467,2.467,0,0,0-1.2-2.1L11.8.2A2.548,2.548,0,0,0,9.4.2L1.2,5A2.2,2.2,0,0,0,0,7v9.4a2.467,2.467,0,0,0,1.2,2.1l8.1,4.7a2.548,2.548,0,0,0,2.4,0L17.2,20,21,17.8l5.5-3.2a2.548,2.548,0,0,1,2.4,0l4.3,2.5a2.437,2.437,0,0,1,1.2,2.1v5a2.467,2.467,0,0,1-1.2,2.1L29,28.8a2.548,2.548,0,0,1-2.4,0l-4.3-2.5a2.437,2.437,0,0,1-1.2-2.1V21l-3.8,2.2v3.3a2.467,2.467,0,0,0,1.2,2.1l8.1,4.7a2.548,2.548,0,0,0,2.4,0l8.1-4.7a2.437,2.437,0,0,0,1.2-2.1V17a2.467,2.467,0,0,0-1.2-2.1Z" fill="#8247e5"/></g></g></svg>