<svg width="64" height="64" viewBox="0 0 64 64" fill="none" xmlns="http://www.w3.org/2000/svg">
<g clip-path="url(#clip0_40_30712)">
<path d="M32 64C49.6731 64 64 49.6731 64 32C64 14.3269 49.6731 0 32 0C14.3269 0 0 14.3269 0 32C0 49.6731 14.3269 64 32 64Z" fill="#FE9800"/>
<path d="M43.667 19.946C37.2926 20.2722 31.0148 21.6407 25.083 23.9971C18.6387 26.3425 12.469 29.3827 6.68298 33.064C12.2372 31.0117 18.0959 29.9041 24.016 29.787C32.283 29.787 38.179 32.955 29.48 44.056C55.128 27.256 54.419 19.9561 43.68 19.9561" fill="white"/>
</g>
<defs>
<clipPath id="clip0_40_30712">
<rect width="64" height="64" fill="white"/>
</clipPath>
</defs>
</svg>
