<svg width="64" height="64" viewBox="0 0 64 64" fill="none" xmlns="http://www.w3.org/2000/svg">
<g clip-path="url(#clip0_412_16)">
<path d="M32 64C49.6731 64 64 49.6731 64 32C64 14.3269 49.6731 0 32 0C14.3269 0 0 14.3269 0 32C0 49.6731 14.3269 64 32 64Z" fill="#F5F5F5"/>
<path d="M52.6626 14V29.3587C52.6626 29.3587 53.9122 46.761 31.8633 55C9.80136 46.761 11.0118 29.3587 11.0118 29.3587V14H52.6626Z" fill="#181B1E"/>
<path d="M50.0727 19.2065H31.8505V24.4129H50.0727V19.2065ZM50.0597 29.6192H13.6413V30.5173C13.6413 30.5173 13.5241 32.2484 14.0578 34.8256H49.6432C50.1638 32.2484 50.0597 30.5173 50.0597 30.5173V29.6192ZM48.7711 38.7303H14.9298C15.7108 40.3964 16.7651 42.1665 18.2489 43.9367H45.4521C46.782 42.3544 47.8979 40.6039 48.7711 38.7303ZM39.8813 47.9846H23.8457C26.3314 49.7064 29.0255 51.106 31.8635 52.1497C35.0394 50.9522 37.6816 49.5465 39.8813 47.9846ZM13.6152 15.3018H30.5359V28.3176H13.6152V15.3018Z" fill="#C22A1E"/>
<path d="M18.8198 23.8008C17.362 23.5014 16.6461 22.4472 17.0366 20.7421C17.1269 20.4311 17.2807 20.1422 17.4882 19.8937C17.6957 19.6452 17.9525 19.4423 18.2424 19.298C18.5322 19.1537 18.8488 19.071 19.1723 19.0552C19.4957 19.0394 19.8188 19.0908 20.1214 19.2062H18.8198C18.8198 20.5078 18.7938 22.7205 18.8198 23.8008ZM20.1214 19.2062H21.9046C22.0738 18.217 22.0868 18.7246 21.8785 17.7745H19.4966C20.7982 16.9675 23.6487 17.423 24.4036 18.5684L22.2169 18.4122C22.8417 19.6227 22.7246 19.857 22.7246 21.8094L23.3103 22.4602C22.5684 22.3691 22.5944 22.2389 22.0217 22.1218C21.5011 22.0176 20.6941 21.9916 20.1214 21.8614V19.2062ZM18.8198 23.8008L20.1214 23.7618V22.9157C23.2452 22.5513 24.5077 25.636 26.5252 26.8986C27.7357 26.456 28.0871 26.5081 28.5947 25.2195C27.2411 25.5579 26.9287 25.7402 25.8614 24.79L24.4036 23.4233C24.0522 23.0589 24.1693 23.2541 23.896 22.8246C26.1347 22.8767 25.9785 22.6684 26.6554 23.4754L26.7465 23.5795L26.9157 23.8008C27.8788 23.1891 28.0871 22.8637 27.7357 21.6922C26.9027 22.1738 25.3277 22.1999 24.0262 21.9786C24.0262 19.857 24.0262 19.037 24.9112 19.037C25.2627 20.6379 25.0935 20.9764 24.3385 21.8614C26.9157 21.9265 25.9655 19.7659 27.5404 19.3884C28.2303 19.9091 27.7747 19.5186 28.1652 20.2475C29.4147 19.7659 29.1804 19.3754 29.2455 18.1259C26.9287 18.9068 27.4233 18.3211 26.4471 18.8418C25.4058 16.6941 21.9696 16.6291 18.6766 16.603C18.8328 17.397 18.9109 17.436 19.3925 17.9306C18.666 18.0743 17.9759 18.3626 17.3632 18.7785C16.7505 19.1945 16.2278 19.7294 15.8262 20.3516L14.915 21.484C15.3836 23.2541 17.1668 24.6729 19.2493 24.9722L18.8588 26.3129C18.8068 26.443 18.8328 26.2348 18.7027 26.7424L21.2668 27.0157C21.0585 26.6252 20.9284 26.4951 20.7071 26.0395C20.2646 25.2065 20.7592 25.61 19.9001 25.2195C21.9696 25.1284 22.3211 25.3237 22.4512 24.3995C22.4122 24.3865 22.3471 24.3084 22.3211 24.3475C22.295 24.3865 22.2169 24.3084 22.1909 24.3084L20.7852 24.4256C20.0797 24.4359 19.3899 24.2166 18.8198 23.8008Z" fill="#F0F3FA"/>
<path d="M22.2969 27.055C23.4553 27.3153 23.4683 27.4455 24.835 27.3153C24.067 26.3522 24.3143 26.9379 24.054 25.3629C23.8718 24.2436 23.5334 23.9312 22.7524 23.6318C22.7524 24.2436 22.7915 24.9985 22.7264 25.5842C22.6874 26.222 22.414 26.5864 22.2969 27.055Z" fill="#F0F3FA"/>
</g>
<defs>
<clipPath id="clip0_412_16">
<rect width="64" height="64" fill="white"/>
</clipPath>
</defs>
</svg>
