<svg width="64" height="64" viewBox="0 0 64 64" fill="none" xmlns="http://www.w3.org/2000/svg">
<path d="M32 64C49.6731 64 64 49.6731 64 32C64 14.3269 49.6731 0 32 0C14.3269 0 0 14.3269 0 32C0 49.6731 14.3269 64 32 64Z" fill="#2EC105"/>
<path d="M4.1541 29.6622C4.34373 28.9037 5.59707 28.7882 5.74818 29.6622C6.01484 31.5615 5.97633 33.5378 6.01484 35.4341C6.88892 33.4222 8.59855 31.1052 10.2697 29.8133C11.1437 29.1289 12.0178 28.7882 12.8534 28.7882C14.3348 28.7882 15.5497 29.9289 15.7778 32.2074C16.8415 30.2696 18.7793 27.0785 20.7911 26.32C21.3215 26.1304 21.7393 26.0533 22.1571 26.0533C25.9556 26.0533 26.4889 32.7408 26.4889 36.9185C26.4889 37.9822 26.4504 38.8948 26.4119 39.4637C26.3348 41.2859 24.6252 42.4267 23.0697 42.4267C21.9289 42.4267 20.8297 41.7808 20.64 40.2993C20.1837 37.2593 20.3734 35.3985 20.1067 32.7022C17.2948 36.7289 17.4489 38.7408 15.8134 41.363C15.4341 42.0474 14.7497 42.3496 14.1037 42.3496C13.0015 42.3496 11.9023 41.5141 11.8252 40.2222C11.7867 39.7659 11.7867 39.3096 11.7867 38.7793C11.7867 37.2593 11.8637 35.7393 11.8637 34.2608C11.8637 33.6533 11.8637 33.0459 11.8252 32.5126C10.5334 32.3615 6.96299 39.2356 6.5067 39.5763C6.08892 39.9556 5.55855 40.0711 5.14077 40.0711C4.22818 40.0711 3.43114 39.4252 3.24151 38.323C2.97484 36.88 3.73633 31.2208 4.07707 29.6622H4.1541Z" fill="#F9F9F9"/>
<path d="M28.0444 32.3585C26.7141 32.5866 25.4252 32.8888 24.1333 33.194C23.3363 33.4222 22.803 32.1688 23.5259 31.7896C25.12 30.954 26.64 30.2696 28.2726 29.6622C28.2341 29.2444 28.2341 28.56 28.2341 27.8014C28.2341 23.1674 28.9926 13.3303 35.1852 12.0385C39.2504 11.2414 41.8311 15.6859 41.8311 17.3926C41.8311 18 41.4904 18.2666 40.7674 17.7718C40.083 17.3155 39.5141 17.0874 38.9837 17.0874C35.5644 17.0874 34.957 25.6326 35.0726 27.8755C35.757 27.837 36.7437 27.5703 37.5407 27.5703C38.0741 27.5703 38.5274 27.7214 38.7556 28.1392C39.6296 29.6592 35.3363 30.797 34.8059 30.9511C34.7674 32.5096 34.6904 34.0651 34.6904 35.6237C34.6904 36.2311 34.6904 36.8 34.7289 37.4074C34.7674 40.3703 35.3748 43.4844 35.2593 46.3703C35.1081 48.3466 33.5111 49.4459 31.9556 49.4459C30.7407 49.4459 29.5259 48.7229 28.9926 47.2444C28.1956 44.5096 27.9674 41.0548 27.9674 37.7096C27.9674 35.7718 28.0444 33.8726 28.1185 32.2014L28.0444 32.3585Z" fill="#F9F9F9"/>
<path d="M47.8726 41.514C48.48 41.9318 48.8207 42.5392 48.8207 43.1852C48.8207 43.6415 48.6696 44.0977 48.2904 44.477C47.5318 45.0844 46.5807 45.3126 45.5556 45.3126C42.1363 45.3126 37.92 42.6548 37.1615 39.4637C36.9718 38.5511 36.8563 37.5259 36.8563 36.5007C36.8563 32.2459 38.6785 27.6503 43.0844 26.5126C43.5022 26.4 43.9585 26.3615 44.4148 26.3615C47.5674 26.3615 50.7585 28.9066 50.7585 32.0207C50.7585 32.7437 50.6074 33.5022 50.2281 34.2252C49.1259 36.314 46.9244 37.1881 44.6459 37.1881C43.7718 37.1881 42.8622 37.0755 42.0267 36.8089C42.1778 41.5555 45.9378 40.074 47.9526 41.52H47.8726V41.514ZM42.3644 34.0296C44.1126 33.917 45.8193 33.5348 45.6296 32.2074C45.3244 30.1955 42.7437 32.7022 42.3259 34.0296H42.3644Z" fill="#F9F9F9"/>
<path d="M59.6444 28.0681C60.1748 28.2963 60.48 28.7526 60.48 29.2444C60.48 29.7007 60.1748 30.1926 59.6444 30.4207C58.96 30.6874 58.24 30.7259 57.517 30.7259C56.794 30.7259 56.0741 30.6874 55.4281 30.5748C55.4281 33.2326 56.0741 38.7407 57.3274 41.2089C57.5555 41.5881 57.5941 41.9674 57.5941 42.3111C57.5941 43.677 56.3792 44.7407 55.1644 44.7407C54.48 44.7407 53.7985 44.4 53.3037 43.6C51.9378 41.0548 51.4044 36.5748 51.4044 33.0044C51.4044 31.9407 51.4815 30.9155 51.5555 30.08C50.9866 29.9674 50.3792 29.8904 49.8074 29.8133C49.277 29.6622 49.277 28.7496 49.8074 28.637C50.4148 28.5244 51.0607 28.4859 51.7066 28.2963C52.0474 25.1437 52.6933 22.2193 53.7185 19.1437C53.9466 18.3852 55.0103 18.4978 55.0489 19.3333C55.2 22.1452 55.3541 24.9541 55.4281 27.84C56.1126 27.763 56.8711 27.6504 57.5941 27.6504C58.317 27.6504 58.9985 27.763 59.6444 27.9911V28.0681Z" fill="#F9F9F9"/>
</svg>
