<svg xmlns="http://www.w3.org/2000/svg" xmlns:xlink="http://www.w3.org/1999/xlink" width="64" height="64" viewBox="0 0 64 64"><defs><linearGradient id="a" x1="0.5" y1="1.003" x2="0.5" y2="0.003" gradientUnits="objectBoundingBox"><stop offset="0" stop-color="#4fa89b"/><stop offset="1" stop-color="#6acebb"/></linearGradient></defs><circle cx="32" cy="32" r="32" fill="url(#a)"/><path d="M127.916,229.267V214.205l11.422,8.6v6.465h2.915v-7.072a1.7,1.7,0,0,0-.677-1.355l-13.852-10.429A1.707,1.707,0,0,0,125,211.773v17.493Zm31.588,0V214.205l-11.422,8.6v6.465h-2.915v-7.072a1.7,1.7,0,0,1,.677-1.355L159.7,210.415a1.707,1.707,0,0,1,2.724,1.358v17.493Z" transform="translate(-111.667 -187.667)" fill="#fff"/></svg>