<svg width="64" height="64" viewBox="0 0 64 64" fill="none" xmlns="http://www.w3.org/2000/svg">
<g clip-path="url(#clip0_40_30729)">
<path d="M32 64C49.6731 64 64 49.6731 64 32C64 14.3269 49.6731 0 32 0C14.3269 0 0 14.3269 0 32C0 49.6731 14.3269 64 32 64Z" fill="url(#paint0_linear_40_30729)"/>
<path d="M16.249 41.6V26.538L27.671 35.1379V41.603H30.586V34.531C30.5856 34.2681 30.5242 34.009 30.4068 33.7739C30.2893 33.5388 30.1189 33.3341 29.909 33.176L16.057 22.747C15.8038 22.5591 15.5036 22.4451 15.1896 22.4175C14.8755 22.3898 14.56 22.4497 14.2779 22.5904C13.9958 22.7312 13.7582 22.9473 13.5915 23.2148C13.4247 23.4823 13.3352 23.7907 13.333 24.1059V41.599L16.249 41.6ZM47.837 41.6V26.538L36.415 35.1379V41.603H33.5V34.531C33.5004 34.2681 33.5618 34.009 33.6793 33.7739C33.7967 33.5388 33.9671 33.3341 34.177 33.176L48.033 22.7479C48.2861 22.5602 48.5863 22.4461 48.9002 22.4185C49.2141 22.3908 49.5296 22.4506 49.8117 22.5912C50.0937 22.7318 50.3313 22.9478 50.4982 23.2151C50.665 23.4825 50.7546 23.7908 50.757 24.1059V41.599L47.837 41.6Z" fill="white"/>
</g>
<defs>
<linearGradient id="paint0_linear_40_30729" x1="32" y1="64.192" x2="32" y2="0.192001" gradientUnits="userSpaceOnUse">
<stop stop-color="#4FA89B"/>
<stop offset="1" stop-color="#6ACEBB"/>
</linearGradient>
<clipPath id="clip0_40_30729">
<rect width="64" height="64" fill="white"/>
</clipPath>
</defs>
</svg>
