<svg width="64" height="64" viewBox="0 0 64 64" fill="none" xmlns="http://www.w3.org/2000/svg">
<g clip-path="url(#clip0_40_30732)">
<path d="M32 64C49.6731 64 64 49.6731 64 32C64 14.3269 49.6731 0 32 0C14.3269 0 0 14.3269 0 32C0 49.6731 14.3269 64 32 64Z" fill="#F5F5F5"/>
<path d="M31.702 10.748C27.4874 10.7499 23.4461 12.4249 20.466 15.405C17.4858 18.3852 15.8108 22.4265 15.809 26.641C15.81 27.6449 15.904 28.6465 16.09 29.633L18.146 28.227C20.1101 27.013 22.3734 26.37 24.6825 26.37C26.9915 26.37 29.2549 27.013 31.219 28.227L33.372 29.704L34.543 30.504C36.3118 31.5967 38.3499 32.1754 40.429 32.1754C42.5081 32.1754 44.5461 31.5967 46.315 30.504L47.272 29.849C47.7458 27.5393 47.6999 25.1532 47.1378 22.8633C46.5757 20.5735 45.5113 18.4374 44.0218 16.6096C42.5324 14.7819 40.655 13.3083 38.5258 12.2955C36.3966 11.2828 34.0688 10.7562 31.711 10.754L31.702 10.748Z" fill="#F2B705"/>
<path d="M40.6379 36.1881C38.3684 36.2315 36.1375 35.5975 34.2299 34.3671L30.9099 32.0921C29.103 30.9832 27.0244 30.3963 24.9044 30.3963C22.7844 30.3963 20.7058 30.9832 18.8989 32.0921L16.7539 33.5611C16.5496 33.6945 16.3012 33.7426 16.0618 33.6951C15.8224 33.6475 15.6112 33.508 15.4735 33.3066C15.3358 33.1051 15.2824 32.8577 15.3249 32.6174C15.3675 32.3771 15.5024 32.163 15.7009 32.0211L17.8459 30.5521C19.965 29.2354 22.4101 28.5376 24.9049 28.5376C27.3998 28.5376 29.8449 29.2354 31.9639 30.5521L35.2839 32.8271C36.8947 33.8148 38.7474 34.3376 40.6369 34.3376C42.5265 34.3376 44.3792 33.8148 45.9899 32.8271L47.2489 31.9671C47.4525 31.8487 47.6933 31.8116 47.9231 31.8634C48.1528 31.9151 48.3545 32.0519 48.4877 32.2461C48.6208 32.4404 48.6755 32.6778 48.6409 32.9108C48.6063 33.1437 48.4848 33.3549 48.3009 33.5021L47.0419 34.3621C45.1356 35.5886 42.9084 36.2223 40.6419 36.1831" fill="#53CBC8"/>
<path d="M24.837 42.866V33.885C24.8293 33.6957 24.8363 33.5062 24.858 33.318C24.8864 33.0707 25.0047 32.8424 25.1903 32.6765C25.3759 32.5105 25.616 32.4185 25.865 32.418C26.1059 32.4255 26.3357 32.5214 26.5105 32.6873C26.6853 32.8533 26.793 33.0778 26.813 33.318C26.8514 33.6298 26.8627 33.9442 26.847 34.258V52.165C26.852 52.3027 26.8297 52.44 26.7816 52.5691C26.7335 52.6982 26.6604 52.8166 26.5665 52.9174C26.4726 53.0183 26.3597 53.0996 26.2344 53.1569C26.1091 53.2141 25.9737 53.2461 25.836 53.251H25.818C25.6827 53.2434 25.5501 53.2093 25.428 53.1506C25.3059 53.0918 25.1965 53.0095 25.1061 52.9085C25.0158 52.8075 24.9462 52.6897 24.9014 52.5617C24.8566 52.4338 24.8374 52.2983 24.845 52.163C24.845 52.147 24.845 52.13 24.845 52.114V46.143L24.837 42.866Z" fill="#53CBC8"/>
<path d="M22.9479 38.346V42.807C22.9479 43.571 22.5279 44.066 21.9619 44.066C21.812 44.0511 21.6665 44.0065 21.5339 43.935C21.4013 43.8635 21.2841 43.7663 21.1893 43.6493C21.0944 43.5322 21.0237 43.3975 20.9813 43.2529C20.9388 43.1083 20.9254 42.9568 20.9419 42.807V33.877C20.9419 33.096 21.3989 32.568 21.9909 32.618C22.5829 32.668 22.9349 33.118 22.9389 33.902C22.9469 35.371 22.9479 36.856 22.9479 38.346Z" fill="#53CBC8"/>
<path d="M28.743 38.3371V35.2061C28.743 34.4801 29.1289 34.0061 29.7039 34.0061C29.9897 34.0196 30.2584 34.146 30.451 34.3575C30.6435 34.569 30.7443 34.8484 30.731 35.1341C30.731 35.1481 30.731 35.1631 30.731 35.1771C30.7503 37.3105 30.7503 39.4438 30.731 41.5771C30.7506 41.7221 30.7388 41.8697 30.6964 42.0098C30.6541 42.1498 30.5821 42.2792 30.4854 42.389C30.3886 42.4988 30.2694 42.5866 30.1358 42.6463C30.0022 42.706 29.8573 42.7363 29.7109 42.7351C29.1109 42.7271 28.7459 42.2821 28.7419 41.5351V38.3351L28.743 38.3371Z" fill="#53CBC8"/>
<path d="M17.0509 38.9832V35.8492C17.0509 35.1192 17.4369 34.6492 18.0119 34.6492C18.1535 34.6557 18.2923 34.6901 18.4206 34.7503C18.5488 34.8106 18.6639 34.8955 18.7593 35.0003C18.8547 35.105 18.9285 35.2276 18.9764 35.3609C19.0244 35.4942 19.0457 35.6356 19.0389 35.7772C19.0389 35.7912 19.0389 35.8062 19.0389 35.8202C19.0583 37.9535 19.0583 40.0868 19.0389 42.2202C19.0584 42.3648 19.0466 42.512 19.0044 42.6517C18.9622 42.7914 18.8905 42.9205 18.7943 43.0302C18.698 43.1399 18.5794 43.2277 18.4463 43.2878C18.3133 43.3478 18.1689 43.3786 18.0229 43.3782C17.4229 43.3782 17.054 42.9252 17.049 42.1782V38.9781L17.0509 38.9832Z" fill="#53CBC8"/>
<path d="M33.616 36.323C33.8775 36.323 34.1283 36.4269 34.3132 36.6118C34.4981 36.7967 34.602 37.0475 34.602 37.309V39.009C34.602 39.2705 34.4981 39.5213 34.3132 39.7062C34.1283 39.8911 33.8775 39.995 33.616 39.995C33.3545 39.995 33.1037 39.8911 32.9188 39.7062C32.7339 39.5213 32.63 39.2705 32.63 39.009V37.309C32.63 37.0475 32.7339 36.7967 32.9188 36.6118C33.1037 36.4269 33.3545 36.323 33.616 36.323Z" fill="#53CBC8"/>
<path d="M37.519 37.8171C37.7805 37.8171 38.0312 37.921 38.2162 38.1059C38.4011 38.2908 38.505 38.5416 38.505 38.8031V48.3671C38.505 48.4966 38.4795 48.6248 38.4299 48.7445C38.3803 48.8641 38.3077 48.9728 38.2162 49.0644C38.1246 49.1559 38.0159 49.2285 37.8963 49.2781C37.7767 49.3276 37.6484 49.3531 37.519 49.3531C37.3895 49.3531 37.2613 49.3276 37.1416 49.2781C37.022 49.2285 36.9133 49.1559 36.8217 49.0644C36.7302 48.9728 36.6576 48.8641 36.608 48.7445C36.5585 48.6248 36.533 48.4966 36.533 48.3671V38.8031C36.533 38.5416 36.6368 38.2908 36.8217 38.1059C37.0067 37.921 37.2574 37.8171 37.519 37.8171Z" fill="#53CBC8"/>
<path d="M41.3959 38.186C41.6574 38.186 41.9082 38.2899 42.0931 38.4748C42.278 38.6597 42.3819 38.9105 42.3819 39.172V47.301C42.3819 47.5625 42.278 47.8133 42.0931 47.9982C41.9082 48.1831 41.6574 48.287 41.3959 48.287C41.1344 48.287 40.8836 48.1831 40.6987 47.9982C40.5138 47.8133 40.4099 47.5625 40.4099 47.301V39.172C40.4099 38.9105 40.5138 38.6597 40.6987 38.4748C40.8836 38.2899 41.1344 38.186 41.3959 38.186Z" fill="#53CBC8"/>
<path d="M45.3289 37.2581C45.5904 37.2581 45.8412 37.362 46.0261 37.5469C46.211 37.7318 46.3149 37.9826 46.3149 38.2441V41.7441C46.3149 42.0057 46.211 42.2566 46.026 42.4416C45.841 42.6266 45.5901 42.7306 45.3284 42.7306C45.0668 42.7306 44.8159 42.6266 44.6309 42.4416C44.4459 42.2566 44.3419 42.0057 44.3419 41.7441V38.2441C44.3419 37.9826 44.4458 37.7318 44.6307 37.5469C44.8156 37.362 45.0674 37.2581 45.3289 37.2581Z" fill="#53CBC8"/>
</g>
<defs>
<clipPath id="clip0_40_30732">
<rect width="64" height="64" fill="white"/>
</clipPath>
</defs>
</svg>
