<svg width="64" height="64" viewBox="0 0 64 64" fill="none" xmlns="http://www.w3.org/2000/svg">
<g clip-path="url(#clip0_538_1631)">
<path d="M32 64C49.6731 64 64 49.6731 64 32C64 14.3269 49.6731 0 32 0C14.3269 0 0 14.3269 0 32C0 49.6731 14.3269 64 32 64Z" fill="#030403"/>
<path d="M48.19 29.0537C47.9518 28.5669 47.7534 28.1202 47.5158 27.7148C44.6604 28.0801 42.5583 31.1637 40.853 34.8155C42.9551 37.6153 45.0174 40.2121 46.7625 42.3216C49.0227 45.04 50.4899 46.8662 50.5297 46.8662C51.2034 46.6632 51.2829 43.2144 50.8071 39.0356C50.4109 35.7484 49.5383 32.0971 48.19 29.0537ZM42.9943 23.0487C40.8132 22.1966 37.9976 22.9271 34.4283 26.173C34.5477 26.3353 34.7063 26.4975 34.8256 26.7005C36.1342 28.486 37.4428 30.3116 38.7911 32.0971C40.496 28.7698 42.6777 25.9706 45.612 24.9563C44.819 24.063 43.9465 23.4139 42.9943 23.0487ZM32.2477 28.3237C30.9391 29.744 29.6305 31.2858 28.3612 32.8276C28.7977 34.2479 29.1547 35.749 29.5509 37.2094C29.7886 38.0207 29.9875 38.8326 30.2251 39.7253C32.6842 48.4894 33.1998 47.0285 35.6186 39.8474C36.2132 38.062 36.5702 37.1285 37.3637 35.2215C35.6982 33.0306 33.9928 30.7583 32.4063 28.5267L32.2477 28.3237ZM27.1321 29.5003C28.2031 28.2423 29.3133 27.0251 30.3837 25.8485C25.823 19.9651 21.9763 16.6785 19.1607 17.1251C16.1468 17.6526 13.8861 22.8055 12.5382 34.2066C12.8952 33.1109 13.2522 32.0559 13.6882 31.0416C15.3936 26.8221 17.7333 23.7792 20.4296 23.7385C20.5489 23.7385 20.7075 23.7385 20.8656 23.7385C23.9198 24.063 25.7833 26.376 27.1321 29.5003ZM13.4898 46.1759C15.1156 44.8778 17.8919 41.2661 21.1043 37.128C22.3338 35.5455 23.6026 33.8414 24.9505 32.2187C23.8795 29.2566 22.5715 27.025 20.5887 26.8221C20.5489 26.8221 20.5091 26.8221 20.4693 26.8221C19.1607 26.8628 17.7333 29.0944 16.464 32.2187C15.0366 35.7891 13.9657 40.3332 13.6087 44.4723C13.5694 45.04 13.5291 45.6082 13.4898 46.1759ZM12.0619 49.7876C9.44422 49.463 8.33401 45.446 9.40496 35.1401C10.8721 21.223 14.0845 14.8528 18.6849 14.0822C22.6505 13.3924 27.3305 17.0844 32.5654 23.6983C37.0465 19.6812 40.8535 18.9513 44.0658 20.1686C47.0405 21.3044 49.3012 24.1856 50.927 27.7561C52.4334 31.1235 53.3861 35.0999 53.7823 38.6703C54.4565 44.3508 53.5447 49.2199 51.3232 49.8283C50.0146 50.2337 47.5163 47.9619 44.4626 44.3508C42.9551 42.5653 41.29 40.3744 39.5051 38.062C38.9895 39.3601 38.5132 40.6588 38.0777 41.8761C36.6498 45.974 35.46 49.3008 33.517 49.9097C31.3756 50.518 29.4321 48.1242 27.3311 40.5779C27.0929 39.766 26.8547 38.8733 26.6171 37.9811C26.4187 37.2506 26.2198 36.48 26.0219 35.7495C25.1494 36.8452 24.3171 37.9811 23.4838 39.0361C18.8435 45.0807 14.957 50.0714 12.0619 49.7876Z" fill="url(#paint0_linear_538_1631)"/>
</g>
<defs>
<linearGradient id="paint0_linear_538_1631" x1="9" y1="31.9997" x2="53.9994" y2="31.9997" gradientUnits="userSpaceOnUse">
<stop stop-color="#43FFFF"/>
<stop offset="1" stop-color="#0000BF"/>
</linearGradient>
<clipPath id="clip0_538_1631">
<rect width="64" height="64" fill="white"/>
</clipPath>
</defs>
</svg>
