<svg width="64" height="64" viewBox="0 0 64 64" fill="none" xmlns="http://www.w3.org/2000/svg">
<g clip-path="url(#clip0_40_30746)">
<path d="M32 64C49.6731 64 64 49.6731 64 32C64 14.3269 49.6731 0 32 0C14.3269 0 0 14.3269 0 32C0 49.6731 14.3269 64 32 64Z" fill="black"/>
<path d="M32.9298 31.7138C33.9203 31.7111 34.9108 31.712 35.901 31.712C37.1244 31.712 38.3478 31.712 39.5713 31.712C40.5138 31.712 41.4566 31.712 42.3991 31.712C42.5156 31.712 42.5393 31.6889 42.5393 31.5784C42.5393 30.4827 42.5384 29.3873 42.5413 28.2916C42.5416 28.2113 42.5212 28.1929 42.4424 28.1935C42.003 28.1976 41.5633 28.1956 41.1238 28.1956C40.5505 28.1956 39.9772 28.1956 39.4039 28.1956C38.837 28.1956 38.2699 28.1929 37.7031 28.197C37.5073 28.1985 37.3102 28.2062 37.1156 28.2044C36.8916 28.2027 36.6664 28.2053 36.4418 28.1988C36.3585 28.1964 36.344 28.1724 36.3461 28.0969C36.3529 27.837 36.3449 27.5769 36.3476 27.3167C36.3493 27.1321 36.3479 26.9473 36.3479 26.7627C36.3479 26.5781 36.3434 26.3932 36.349 26.2086C36.3547 26.032 36.341 25.856 36.3443 25.6788C36.3538 25.1941 36.3476 24.709 36.3476 24.224C36.3476 23.9182 36.3458 23.6124 36.3481 23.3067C36.3505 23.0065 36.3458 22.7064 36.3467 22.4059C36.3493 21.5013 36.3464 20.597 36.3496 19.6924C36.3499 19.6133 36.3313 19.5935 36.2516 19.5935C35.1464 19.5964 34.0415 19.5967 32.9363 19.5932C32.8474 19.5929 32.8293 19.6178 32.8293 19.7025C32.8317 21.8299 32.8311 23.9576 32.8311 26.085C32.8311 26.4513 32.8311 26.8175 32.8311 27.184C32.8311 27.907 32.8311 28.6299 32.8311 29.3529C32.8311 30.1076 32.8326 30.8625 32.829 31.6172C32.829 31.6996 32.8533 31.7141 32.9298 31.7138ZM49.072 14.9917C49.0714 14.6812 49.0815 14.3707 49.0673 14.0599C49.0619 13.9458 49.0702 13.8267 49.0744 13.7099C49.0785 13.5917 49.0661 13.4726 49.0779 13.3556C49.0892 13.2474 49.0329 13.1422 49.072 13.0347C49.075 13.0267 49.0616 13.013 49.056 13.0021C37.7351 13.0021 26.4142 13.0021 15.0933 13C15.0169 13 15 13.0139 15 13.0924C15.0024 22.5224 15.0021 31.9523 15.0021 41.3822C15.1926 41.4764 15.3769 41.5822 15.5633 41.6844C15.8302 41.8305 16.0871 41.9935 16.3559 42.1363C16.5399 42.2341 16.7215 42.3402 16.9025 42.4456C17.2951 42.6741 17.6957 42.8886 18.0913 43.1123C18.4332 43.3058 18.7716 43.5058 19.1164 43.6951C19.4124 43.8578 19.7043 44.029 20.0003 44.1923C20.3286 44.3733 20.6501 44.5668 20.9784 44.7481C21.2788 44.9141 21.5716 45.093 21.8741 45.256C22.0634 45.3579 22.2507 45.4664 22.4367 45.5751C22.6853 45.7203 22.9401 45.8545 23.1911 45.9959C23.4335 46.1321 23.6738 46.2723 23.9159 46.4089C24.0068 46.4602 24.1081 46.4963 24.1917 46.5573C24.3052 46.64 24.4231 46.7188 24.5481 46.7745C24.7239 46.8524 24.8764 46.9689 25.0545 47.0459C25.2133 47.1147 25.3621 47.2228 25.5153 47.3141C25.6954 47.4213 25.8827 47.5159 26.061 47.6267C26.1443 47.6785 26.2287 47.7384 26.3185 47.7698C26.4391 47.8119 26.5413 47.8877 26.6462 47.9476C26.8329 48.0545 27.0175 48.1707 27.2071 48.2717C27.4095 48.3793 27.5967 48.512 27.8071 48.608C27.9825 48.688 28.1431 48.8027 28.3144 48.896C28.6489 49.0782 28.976 49.2735 29.3061 49.4634C29.3825 49.5076 29.4584 49.5529 29.5354 49.5956C29.7324 49.7046 29.9313 49.8107 30.1274 49.9218C30.2599 49.997 30.3831 50.0901 30.52 50.1547C30.736 50.2566 30.9304 50.3959 31.1449 50.4999C31.1721 50.5132 31.1958 50.5443 31.227 50.5324C31.2664 50.517 31.2444 50.4767 31.2444 50.4489C31.2456 49.8083 31.248 49.1677 31.2427 48.5271C31.2418 48.4347 31.2462 48.3422 31.2456 48.2498C31.245 48.1221 31.2438 47.9941 31.2459 47.8664C31.248 47.7431 31.2317 47.6204 31.2436 47.4966C31.2533 47.3956 31.2406 47.293 31.243 47.1908C31.2498 46.923 31.2453 46.6548 31.2453 46.387C31.2453 45.4406 31.2453 44.4942 31.2453 43.5479C31.2453 43.1816 31.2453 42.8151 31.2453 42.4489C31.2453 39.4519 31.245 36.4545 31.2474 33.4575C31.2474 33.3742 31.2287 33.3538 31.1443 33.3541C27.9944 33.3564 24.8444 33.3567 21.6948 33.3538C21.6077 33.3538 21.5929 33.3778 21.5932 33.4587C21.5959 34.5606 21.5959 35.6628 21.5932 36.7647C21.5929 36.848 21.6089 36.875 21.6993 36.8747C23.6738 36.8717 25.6486 36.8729 27.6231 36.8702C27.7099 36.8702 27.7313 36.8916 27.7313 36.9784C27.7286 39.4308 27.7292 41.8836 27.7292 44.336C27.7292 44.3615 27.7327 44.3879 27.728 44.4122C27.717 44.4684 27.6996 44.4957 27.627 44.4682C27.4907 44.4163 27.389 44.3105 27.2628 44.2489C26.9988 44.1197 26.749 43.9659 26.4921 43.8243C26.2601 43.6966 26.0317 43.5624 25.8015 43.4317C25.6068 43.3215 25.4092 43.216 25.2166 43.1019C24.9778 42.9603 24.7357 42.8228 24.4948 42.6862C24.299 42.5754 24.0939 42.4738 23.8975 42.363C23.6133 42.2027 23.328 42.0436 23.0474 41.8764C22.8527 41.7606 22.648 41.6616 22.4557 41.5425C22.2172 41.3944 21.9597 41.2809 21.7286 41.1176C21.5561 40.9959 21.3271 40.96 21.1884 40.7796C21.1834 40.773 21.1644 40.7784 21.1526 40.7754C20.9991 40.7366 20.8634 40.6655 20.7573 40.5464C20.7416 40.5286 20.7319 40.5236 20.7126 40.5271C20.6681 40.5354 20.6308 40.5156 20.5985 40.491C20.504 40.4187 20.365 40.4074 20.309 40.2815C20.307 40.2767 20.291 40.2753 20.2824 40.277C20.2157 40.291 20.1721 40.2409 20.1173 40.221C19.9772 40.1701 19.8847 40.0439 19.7357 40.0003C19.5689 39.9517 19.4314 39.8338 19.2785 39.7508C19.0421 39.6222 18.8113 39.4821 18.576 39.3502C18.5292 39.3239 18.5176 39.2945 18.5179 39.2453C18.5203 39.0095 18.5218 38.7739 18.5185 38.5381C18.5081 37.8006 18.5324 37.0634 18.5076 36.3256C18.501 36.1292 18.5179 35.9274 18.517 35.7286C18.515 35.3544 18.5212 34.9802 18.5096 34.6053C18.4999 34.2862 18.5476 33.9656 18.4833 33.6474C18.4818 33.64 18.4868 33.6284 18.4924 33.6225C18.5399 33.5736 18.517 33.5153 18.5144 33.4604C18.509 33.3556 18.4892 33.2406 18.5016 33.1479C18.5256 32.9695 18.509 32.7944 18.5159 32.6184C18.5271 32.3256 18.5188 32.0323 18.5188 31.7393C18.5188 30.5544 18.5221 29.3695 18.5182 28.1846C18.5117 26.2047 18.5316 24.2246 18.5105 22.2447C18.507 21.9156 18.5105 21.5846 18.5179 21.2545C18.5233 21.019 18.5191 20.7831 18.5191 20.5476C18.5191 20.3087 18.5191 20.0699 18.5191 19.8308C18.5191 19.5953 18.515 19.3594 18.5203 19.1239C18.5256 18.8981 18.5114 18.6729 18.5156 18.4471C18.5262 17.8741 18.5191 17.3004 18.5188 16.7271C18.5188 16.6987 18.5221 16.6684 18.5147 16.6418C18.4883 16.544 18.5058 16.5185 18.6077 16.5185C18.9007 16.5185 19.1938 16.5185 19.4868 16.5185C20.9523 16.5185 22.4178 16.5185 23.8833 16.5185C24.7656 16.5185 25.6477 16.5185 26.5301 16.5185C27.989 16.5185 29.4483 16.5185 30.9073 16.5185C31.7926 16.5185 32.6782 16.5185 33.5636 16.5185C35.0225 16.5185 36.4818 16.5185 37.9407 16.5185C38.8326 16.5185 39.7244 16.5185 40.6163 16.5185C42.2281 16.5185 43.8403 16.5191 45.4521 16.5167C45.5366 16.5167 45.5618 16.5342 45.5615 16.6234C45.5582 17.9037 45.5591 19.1843 45.5591 20.4646C45.5591 24.4465 45.5591 28.4281 45.5591 32.4101C45.5591 33.5025 45.5591 34.595 45.5591 35.6877C45.5591 36.8601 45.5582 38.0329 45.5612 39.2053C45.5615 39.2842 45.5318 39.3227 45.4681 39.3591C45.3529 39.4252 45.2305 39.4756 45.1176 39.5476C44.9745 39.6385 44.8201 39.7144 44.6723 39.7976C44.5188 39.8842 44.3692 39.9825 44.2151 40.0684C43.9751 40.2024 43.7375 40.3404 43.4969 40.4735C43.2741 40.5967 43.053 40.7233 42.8317 40.8489C42.7067 40.9197 42.5692 40.973 42.4521 41.051C42.2616 41.1775 42.0634 41.2954 41.8655 41.403C41.6883 41.4993 41.5126 41.603 41.333 41.6966C40.9896 41.8756 40.6578 42.0773 40.32 42.2676C40.027 42.4326 39.7292 42.5896 39.4412 42.7633C39.2856 42.8572 39.1271 42.9443 38.9689 43.0335C38.7105 43.1793 38.4581 43.3363 38.1959 43.4744C37.9707 43.5932 37.7582 43.733 37.5339 43.8524C37.4516 43.8963 37.3707 43.9434 37.2862 43.9834C37.1105 44.0664 36.9576 44.1881 36.7745 44.2628C36.6735 44.304 36.5828 44.3858 36.4844 44.4444C36.3733 44.5105 36.3481 44.4951 36.3479 44.3686C36.3476 44.2347 36.3479 44.101 36.3479 43.9674C36.3479 43.8338 36.3479 43.6999 36.3479 43.5662C36.3479 43.4326 36.3461 43.2987 36.3484 43.165C36.3505 43.0418 36.344 42.9188 36.3452 42.7956C36.3511 42.168 36.3479 41.5407 36.3479 40.9132C36.3479 40.075 36.3479 39.237 36.3479 38.3988C36.3479 37.9179 36.349 37.437 36.3464 36.9559C36.3461 36.8904 36.3603 36.869 36.429 36.8708C36.6231 36.8759 36.8178 36.8767 37.0119 36.8714C37.2554 36.8649 37.499 36.8759 37.7434 36.8616C37.8714 36.8542 38.008 36.8667 38.1399 36.8693C38.5443 36.8776 38.949 36.8723 39.3538 36.8723C40.3887 36.8723 41.424 36.8714 42.459 36.8741C42.5283 36.8744 42.5416 36.853 42.541 36.7884C42.5378 36.4764 42.5407 36.1641 42.5393 35.8521C42.5369 35.336 42.5342 34.8196 42.5316 34.3034C42.5301 34.0157 42.5289 33.7268 42.5407 33.4385C42.5434 33.3719 42.5256 33.3535 42.4578 33.3541C42.0661 33.3576 41.6744 33.3559 41.2824 33.3559C40.7215 33.3559 40.1606 33.3559 39.5994 33.3559C37.8157 33.3559 36.0323 33.3559 34.2486 33.3559C33.8219 33.3559 33.395 33.3559 32.9683 33.3559C32.8314 33.3559 32.8314 33.3559 32.8314 33.4883C32.8314 37.8207 32.8314 42.1535 32.8314 46.4859C32.8314 46.9037 32.8314 47.3212 32.8314 47.739C32.8314 48.6436 32.8314 49.5482 32.8314 50.4527C32.8314 50.4794 32.8314 50.5061 32.8314 50.5591C32.9274 50.4738 33.0276 50.4468 33.1141 50.3979C33.2308 50.3322 33.3425 50.2569 33.4616 50.1929C33.6524 50.0904 33.8391 49.9807 34.0278 49.8741C34.677 49.5067 35.3262 49.1396 35.9754 48.7716C36.093 48.7049 36.2172 48.6489 36.3313 48.5784C36.557 48.4385 36.7887 48.3102 37.0204 48.1816C37.5633 47.8806 38.0987 47.5665 38.6441 47.2699C38.832 47.1677 39.0201 47.0593 39.2053 46.9487C39.4527 46.8012 39.7037 46.6584 39.9567 46.5197C40.3464 46.3064 40.7307 46.0833 41.1173 45.864C41.3988 45.7046 41.6824 45.5487 41.9606 45.384C42.0987 45.3025 42.2477 45.2424 42.3796 45.1487C42.5037 45.0604 42.6397 44.987 42.7716 44.9144C42.9247 44.8299 43.0841 44.7523 43.2356 44.6637C43.7256 44.3766 44.2323 44.1182 44.7141 43.816C44.8631 43.7227 45.0305 43.6545 45.1843 43.5639C45.3799 43.4486 45.5796 43.3401 45.7772 43.2284C45.9665 43.1215 46.155 43.0127 46.3455 42.9079C46.699 42.7132 47.0483 42.5108 47.4018 42.3156C47.5867 42.2133 47.7733 42.109 47.9553 41.9994C48.2939 41.795 48.643 41.6071 48.9884 41.4136C49.0474 41.3807 49.0794 41.3455 49.0779 41.2679C49.0717 40.9333 49.0753 40.5988 49.0753 40.2643C49.0753 40.0477 49.0753 39.8311 49.0753 39.6145C49.0753 39.3979 49.0753 39.1813 49.0753 38.9647C49.0753 38.7449 49.0717 38.525 49.0764 38.3055C49.0809 38.0969 49.072 37.8889 49.0732 37.6803C49.0782 36.5846 49.0756 35.4886 49.0756 34.3929C49.0756 34.0806 49.0756 33.7683 49.0756 33.4563C49.0756 29.717 49.0756 25.9778 49.0756 22.2385C49.0756 22.1819 49.04 22.107 49.0527 22.0776C49.0939 21.9813 49.072 21.8871 49.0729 21.7947C49.0782 21.2652 49.0756 20.7357 49.0756 20.2059C49.0756 18.9535 49.0756 17.7007 49.0756 16.4483C49.0756 16.1043 49.075 15.7603 49.0761 15.4163C49.0764 15.365 49.04 15.2993 49.0519 15.2744C49.0966 15.1793 49.0723 15.0839 49.072 14.9917ZM31.1656 19.5938C30.0477 19.5961 28.9298 19.5961 27.8121 19.5941C27.7458 19.5941 27.7271 19.6092 27.7277 19.6773C27.7316 19.9959 27.7295 20.3144 27.7295 20.6329C27.7295 23.117 27.7289 25.6015 27.7319 28.0856C27.7319 28.1793 27.7081 28.1979 27.6178 28.1976C25.6465 28.1947 23.675 28.1959 21.7037 28.1938C21.6219 28.1938 21.5926 28.2068 21.5929 28.299C21.5967 29.4009 21.5964 30.5031 21.5935 31.605C21.5932 31.6901 21.6121 31.7144 21.7007 31.7141C23.2708 31.7111 24.8409 31.712 26.411 31.712C27.981 31.712 29.5511 31.712 31.1212 31.712C31.2459 31.712 31.2459 31.712 31.2459 31.5864C31.2459 28.1304 31.2459 24.6741 31.2459 21.2181C31.2459 20.7052 31.2447 20.1926 31.2474 19.6797C31.2474 19.616 31.2356 19.5938 31.1656 19.5938Z" fill="#D41F26"/>
</g>
<defs>
<clipPath id="clip0_40_30746">
<rect width="64" height="64" fill="white"/>
</clipPath>
</defs>
</svg>
