<svg xmlns="http://www.w3.org/2000/svg" viewBox="0 0 2160 2160"><circle cx="1080" cy="1080" r="703.65"/><path d="M1099.57 1105.62l65.34-.04h80.71 62.18c2.56 0 3.08-.51 3.08-2.94l.04-72.27c0-1.77-.45-2.17-2.18-2.15l-28.99.04h-37.82c-12.47 0-24.93-.06-37.4.03l-12.92.16c-4.93-.04-9.88.02-14.82-.13-1.83-.05-2.15-.58-2.1-2.24.15-5.72-.03-11.44.03-17.16l.01-12.18.03-12.18c.12-3.89-.18-7.76-.1-11.65.21-10.66.07-21.32.07-31.99l.01-20.17-.03-19.8.07-59.67c.01-1.74-.4-2.18-2.15-2.17-24.3.06-48.6.07-72.9-.01-1.96-.01-2.35.54-2.35 2.4l.04 140.35v24.16 47.69l-.05 49.79c-.01 1.82.52 2.14 2.2 2.13zm354.96-367.7c-.01-6.83.21-13.65-.11-20.49-.11-2.51.07-5.13.15-7.69.09-2.6-.19-5.22.08-7.79.25-2.38-.99-4.69-.13-7.05.06-.17-.23-.47-.35-.72-248.94 0-497.87 0-746.81-.04-1.68 0-2.05.31-2.05 2.03l.05 622.07c4.19 2.07 8.24 4.4 12.34 6.64 5.87 3.21 11.52 6.79 17.43 9.94 4.04 2.15 8.04 4.48 12.02 6.8 8.63 5.03 17.44 9.74 26.14 14.66l22.54 12.81 19.43 10.94 21.5 12.22 19.69 11.16c4.16 2.24 8.28 4.63 12.37 7.02 5.47 3.19 11.07 6.15 16.59 9.25l15.94 9.08c2 1.13 4.23 1.92 6.07 3.27 2.49 1.82 5.09 3.55 7.84 4.78 3.86 1.72 7.22 4.27 11.13 5.97 3.49 1.51 6.76 3.89 10.13 5.89 3.96 2.36 8.08 4.44 12 6.88 1.83 1.14 3.69 2.46 5.66 3.15 2.65.93 4.9 2.59 7.21 3.91 4.11 2.35 8.17 4.91 12.34 7.13 4.45 2.37 8.57 5.29 13.19 7.39 3.86 1.76 7.39 4.28 11.15 6.33 7.35 4 14.55 8.3 21.81 12.48l5.04 2.91 13.02 7.18c2.91 1.65 5.62 3.7 8.64 5.12 4.75 2.24 9.03 5.3 13.74 7.59.6.29 1.12.98 1.81.71.87-.34.38-1.22.39-1.84l-.04-42.26c-.02-2.04.08-4.07.06-6.1l.01-8.43c.05-2.71-.32-5.41-.05-8.13.22-2.22-.07-4.47-.01-6.72.15-5.89.05-11.78.05-17.68v-62.43-24.17l.04-197.72c0-1.83-.41-2.28-2.27-2.28H852.52c-1.91 0-2.24.53-2.24 2.31v72.7c0 1.83.35 2.42 2.33 2.42l130.26-.1c1.91 0 2.38.47 2.38 2.38l-.05 161.79c0 .56.08 1.14-.03 1.68-.24 1.24-.62 1.84-2.22 1.23-3-1.14-5.23-3.47-8-4.82-5.81-2.84-11.3-6.22-16.95-9.33l-15.19-8.63-12.86-7.25-15.87-9.14c-4.31-2.44-8.82-4.67-13.13-7.11l-18.69-10.7c-4.28-2.55-8.78-4.72-13.01-7.34-5.25-3.26-10.91-5.75-15.99-9.34-3.79-2.68-8.83-3.47-11.88-7.43-.11-.14-.53-.02-.79-.09-3.37-.86-6.36-2.42-8.69-5.03-.35-.39-.56-.5-.98-.42-.98.18-1.8-.25-2.51-.79-2.08-1.59-5.13-1.84-6.37-4.61-.05-.1-.4-.14-.59-.1-1.46.3-2.43-.79-3.63-1.23-3.08-1.12-5.12-3.9-8.39-4.85-3.67-1.07-6.69-3.66-10.05-5.49-5.2-2.83-10.28-5.91-15.45-8.81-1.03-.58-1.29-1.22-1.28-2.31l.01-15.55c-.23-16.21.31-32.43-.24-48.65-.15-4.32.23-8.75.21-13.13l-.16-24.7c-.22-7.02.84-14.07-.58-21.07-.03-.17.08-.42.2-.55 1.04-1.08.54-2.36.48-3.57-.12-2.31-.55-4.83-.28-6.87.53-3.92.17-7.78.32-11.64.25-6.43.07-12.89.07-19.33l-.02-78.16-.17-130.62c-.08-7.24 0-14.51.16-21.77.12-5.18.02-10.37.02-15.55v-15.76l.03-15.55c.12-4.96-.2-9.91-.11-14.88.23-12.6.08-25.21.07-37.82 0-.63.07-1.29-.09-1.88-.58-2.15-.19-2.71 2.04-2.71h19.33 96.67 58.2 96.25 58.41 96.25 58.83l106.34-.04c1.86 0 2.41.39 2.4 2.35l-.05 84.47v262.67 72.07l.05 77.35c0 1.74-.64 2.58-2.04 3.38-2.53 1.45-5.22 2.56-7.71 4.14-3.15 2-6.54 3.67-9.79 5.5-3.37 1.9-6.66 4.06-10.05 5.96l-15.79 8.91-14.63 8.26c-2.75 1.56-5.77 2.73-8.34 4.44-4.19 2.78-8.55 5.38-12.9 7.74l-11.71 6.45c-7.55 3.94-14.85 8.37-22.28 12.56l-19.32 10.9c-3.42 2.06-6.91 3.98-10.38 5.94-5.68 3.2-11.23 6.66-17 9.7-4.95 2.61-9.62 5.69-14.56 8.31-1.81.96-3.59 2-5.45 2.88-3.86 1.82-7.23 4.5-11.25 6.14-2.22.91-4.21 2.71-6.38 3.99-2.45 1.45-3 1.12-3-1.67v-8.82-8.82l.01-8.82c.05-2.71-.1-5.41-.07-8.13l.06-41.39v-55.29l-.03-31.73c-.01-1.44.3-1.91 1.82-1.87a248.69 248.69 0 0 0 12.81.02c5.36-.15 10.71.1 16.09-.21 2.82-.16 5.82.11 8.72.17 8.89.18 17.79.07 26.69.07l68.28.04c1.53 0 1.82-.46 1.8-1.88l-.04-20.59-.17-34.06c-.03-6.33-.06-12.68.2-19.02.06-1.47-.33-1.87-1.83-1.85l-25.84.04h-37-117.66-28.15c-3.01 0-3.01 0-3.01 2.91v285.81 27.55 59.67 2.34c2.11-1.87 4.31-2.47 6.21-3.54 2.57-1.45 5.03-3.1 7.64-4.51 4.19-2.25 8.3-4.66 12.45-7.01l42.82-24.24c2.59-1.47 5.32-2.7 7.83-4.25 4.96-3.07 10.06-5.9 15.16-8.72l35.71-20.05a362.19 362.19 0 0 0 12.34-7.06 537.56 537.56 0 0 1 16.52-9.44l25.52-14.42 18.54-10.55c3.03-1.79 6.32-3.11 9.21-5.17 2.73-1.94 5.72-3.56 8.62-5.16 3.37-1.86 6.88-3.56 10.2-5.51 10.78-6.31 21.92-11.99 32.51-18.64 3.28-2.05 6.96-3.55 10.34-5.54 4.3-2.54 8.69-4.92 13.04-7.37l12.5-7.05 23.22-13.02c4.07-2.24 8.17-4.54 12.17-6.95 7.45-4.5 15.12-8.63 22.72-12.88 1.3-.72 2-1.5 1.97-3.2-.14-7.35-.06-14.71-.06-22.07v-14.29-14.29l.02-14.5c.1-4.58-.09-9.16-.07-13.75l.05-72.29v-20.6-246.67c0-1.25-.78-2.89-.5-3.54.91-2.12.42-4.19.44-6.22l.06-34.93V770l.01-22.69c0-1.13-.8-2.58-.54-3.12 1.03-2.15.49-4.24.49-6.27zm-393.75 101.2h-73.74c-1.46 0-1.87.34-1.85 1.83l.04 21.01.05 163.88c0 2.06-.52 2.47-2.51 2.47l-130.05-.09c-1.8 0-2.45.29-2.44 2.31l.01 72.7c-.01 1.87.41 2.4 2.36 2.4l103.58-.05h103.58c2.74 0 2.74 0 2.74-2.76V874.83l.03-33.83c0-1.4-.26-1.89-1.8-1.88z" fill="#d41f26"/></svg>
