<?xml version="1.0" encoding="utf-8"?>
<!-- Generator: Adobe Illustrator 27.3.1, SVG Export Plug-In . SVG Version: 6.00 Build 0)  -->
<svg version="1.1" id="Layer_1" xmlns="http://www.w3.org/2000/svg" xmlns:xlink="http://www.w3.org/1999/xlink" x="0px" y="0px"
	 viewBox="0 0 2160 2160" style="enable-background:new 0 0 2160 2160;" xml:space="preserve">
<style type="text/css">
	.st0{fill:#D41F26;}
</style>
<g>
	<circle cx="1080" cy="1080" r="1080"/>
	<path class="st0" d="M1110.04,1119.33c33.43-0.09,66.86-0.06,100.28-0.06c41.29,0,82.58,0,123.87,0c31.81,0,63.63,0,95.44,0
		c3.93,0,4.73-0.78,4.73-4.51c0-36.98-0.03-73.95,0.07-110.93c0.01-2.71-0.68-3.33-3.34-3.31c-14.83,0.14-29.67,0.07-44.5,0.07
		c-19.35,0-38.7,0-58.05,0c-19.13,0-38.27-0.09-57.4,0.05c-6.61,0.05-13.26,0.31-19.83,0.25c-7.56-0.06-15.16,0.03-22.74-0.19
		c-2.81-0.08-3.3-0.89-3.23-3.44c0.23-8.77-0.04-17.55,0.05-26.33c0.06-6.23,0.01-12.47,0.01-18.7c0-6.23-0.15-12.47,0.04-18.7
		c0.19-5.96-0.27-11.9-0.16-17.88c0.32-16.36,0.11-32.73,0.11-49.1c0-10.32-0.06-20.64,0.02-30.96c0.08-10.13-0.08-20.26-0.05-30.4
		c0.09-30.53-0.01-61.05,0.1-91.58c0.01-2.67-0.62-3.34-3.31-3.34c-37.3,0.1-74.59,0.11-111.89-0.01c-3-0.01-3.61,0.83-3.61,3.69
		c0.08,71.8,0.06,143.61,0.06,215.41c0,12.36,0,24.72,0,37.09c0,24.4,0,48.8,0,73.2c0,25.47,0.05,50.95-0.07,76.42
		C1106.64,1118.85,1107.46,1119.34,1110.04,1119.33z M1654.84,554.96c-0.02-10.48,0.32-20.96-0.16-31.45
		c-0.18-3.85,0.1-7.87,0.24-11.81c0.14-3.99-0.28-8.01,0.12-11.96c0.38-3.65-1.52-7.2-0.2-10.83c0.1-0.27-0.35-0.73-0.54-1.1
		c-382.08,0-764.16,0-1146.24-0.07c-2.58,0-3.15,0.47-3.15,3.12c0.08,318.26,0.07,636.52,0.07,954.78
		c6.43,3.18,12.65,6.75,18.94,10.2c9.01,4.93,17.68,10.43,26.75,15.25c6.21,3.3,12.34,6.88,18.45,10.44
		c13.25,7.71,26.77,14.95,40.12,22.5c11.54,6.53,22.96,13.28,34.6,19.67c9.99,5.49,19.84,11.27,29.83,16.78
		c11.08,6.11,21.93,12.64,33.01,18.76c10.14,5.6,20.02,11.64,30.23,17.14c6.39,3.44,12.71,7.1,18.99,10.77
		c8.39,4.9,16.99,9.43,25.46,14.2c8.18,4.6,16.29,9.33,24.46,13.94c3.07,1.73,6.49,2.95,9.31,5.01c3.83,2.79,7.81,5.45,12.03,7.33
		c5.93,2.63,11.08,6.56,17.09,9.16c5.36,2.32,10.38,5.97,15.55,9.05c6.08,3.62,12.4,6.81,18.42,10.55c2.81,1.75,5.66,3.77,8.69,4.83
		c4.07,1.42,7.52,3.98,11.06,6c6.3,3.61,12.53,7.53,18.93,10.94c6.83,3.63,13.15,8.11,20.25,11.35c5.92,2.7,11.34,6.57,17.12,9.72
		c11.29,6.15,22.33,12.74,33.47,19.15c2.58,1.49,5.14,3.02,7.74,4.46c6.65,3.68,13.36,7.26,19.98,11.01
		c4.47,2.54,8.63,5.68,13.25,7.86c7.29,3.44,13.85,8.14,21.09,11.65c0.92,0.45,1.72,1.5,2.77,1.1c1.33-0.52,0.59-1.88,0.59-2.82
		c0.04-21.62,0.12-43.24-0.06-64.86c-0.03-3.12,0.12-6.24,0.1-9.36c-0.02-4.31-0.06-8.63,0.01-12.94c0.07-4.16-0.48-8.3-0.08-12.48
		c0.33-3.41-0.1-6.87-0.02-10.32c0.23-9.04,0.08-18.09,0.08-27.13c0-31.94,0-63.88,0-95.82c0-12.36,0-24.73,0-37.09
		c0-101.15-0.01-202.31,0.07-303.46c0-2.81-0.63-3.5-3.48-3.49c-106.31,0.08-212.62,0.09-318.92-0.01c-2.94,0-3.44,0.81-3.43,3.54
		c0.09,37.19,0.09,74.39,0,111.58c-0.01,2.81,0.53,3.72,3.58,3.71c66.64-0.1,133.29-0.06,199.93-0.15c2.93,0,3.65,0.72,3.65,3.65
		c-0.09,82.77-0.07,165.55-0.07,248.32c0,0.86,0.12,1.75-0.04,2.57c-0.37,1.9-0.96,2.82-3.41,1.89c-4.6-1.75-8.03-5.32-12.29-7.4
		c-8.91-4.36-17.34-9.55-26.01-14.33c-7.83-4.31-15.54-8.84-23.31-13.25c-6.57-3.72-13.24-7.28-19.74-11.13
		c-8.06-4.78-16.23-9.42-24.36-14.03c-6.61-3.74-13.53-7.17-20.16-10.91c-9.59-5.41-19.22-10.78-28.69-16.42
		c-6.57-3.91-13.48-7.25-19.97-11.27c-8.05-5-16.74-8.83-24.54-14.34c-5.82-4.11-13.55-5.32-18.23-11.41
		c-0.17-0.22-0.81-0.04-1.21-0.14c-5.18-1.31-9.76-3.71-13.34-7.73c-0.53-0.6-0.86-0.77-1.51-0.65c-1.5,0.28-2.76-0.39-3.85-1.22
		c-3.19-2.44-7.88-2.82-9.77-7.07c-0.07-0.16-0.61-0.21-0.9-0.15c-2.25,0.47-3.72-1.22-5.57-1.89c-4.73-1.72-7.85-5.98-12.88-7.45
		c-5.63-1.64-10.27-5.62-15.43-8.42c-7.98-4.34-15.77-9.07-23.71-13.52c-1.58-0.89-1.97-1.88-1.96-3.54
		c0.08-7.96,0.13-15.91,0.02-23.87c-0.35-24.89,0.47-49.77-0.37-74.67c-0.22-6.63,0.35-13.44,0.32-20.15
		c-0.07-12.63,0.14-25.26-0.25-37.91c-0.33-10.77,1.28-21.59-0.89-32.33c-0.05-0.25,0.12-0.64,0.31-0.84
		c1.6-1.65,0.83-3.62,0.74-5.47c-0.18-3.54-0.85-7.42-0.43-10.55c0.81-6.02,0.25-11.93,0.48-17.87c0.38-9.88,0.1-19.78,0.1-29.67
		c0-39.99,0.11-79.98-0.02-119.97c-0.22-66.82,0.45-133.65-0.26-200.47c-0.12-11.11,0-22.28,0.25-33.42
		c0.18-7.95,0.04-15.91,0.04-23.86c0-8.06,0-16.12,0-24.19c0-7.95-0.14-15.91,0.04-23.86c0.18-7.62-0.3-15.22-0.16-22.84
		c0.36-19.34,0.12-38.7,0.11-58.05c0-0.96,0.11-1.98-0.14-2.88c-0.89-3.3-0.3-4.16,3.14-4.16c9.89,0,19.78,0,29.67,0
		c49.46,0,98.92,0,148.38,0c29.78,0,59.55,0,89.33,0c49.24,0,98.49,0,147.73,0c29.88,0,59.77,0,89.65,0c49.24,0,98.49,0,147.73,0
		c30.1,0,60.2,0,90.3,0c54.4,0,108.81,0.02,163.21-0.06c2.85,0,3.7,0.59,3.69,3.6c-0.11,43.21-0.08,86.43-0.08,129.64
		c0,134.39,0,268.77,0,403.16c0,36.87,0,73.74,0,110.62c0,39.57-0.03,79.15,0.07,118.72c0.01,2.66-0.99,3.96-3.14,5.19
		c-3.89,2.23-8.02,3.93-11.83,6.36c-4.83,3.07-10.04,5.63-15.03,8.44c-5.18,2.92-10.23,6.24-15.43,9.14
		c-8.1,4.52-16.12,9.18-24.24,13.67c-7.52,4.16-14.98,8.43-22.45,12.67c-4.22,2.39-8.86,4.19-12.81,6.82
		c-6.43,4.27-13.12,8.25-19.8,11.88c-5.98,3.25-11.91,6.75-17.97,9.91c-11.59,6.04-22.79,12.85-34.19,19.27
		c-9.89,5.57-19.94,10.87-29.66,16.73c-5.25,3.17-10.6,6.11-15.94,9.12c-8.72,4.92-17.24,10.22-26.09,14.88
		c-7.6,4.01-14.77,8.73-22.34,12.76c-2.78,1.48-5.51,3.07-8.36,4.42c-5.93,2.8-11.09,6.91-17.27,9.43
		c-3.41,1.39-6.47,4.15-9.79,6.13c-3.75,2.23-4.6,1.71-4.61-2.56c-0.01-4.52,0-9.03,0-13.54c0-4.51,0-9.03,0-13.54
		c0-4.51-0.06-9.03,0.02-13.54c0.07-4.16-0.15-8.31-0.11-12.47c0.2-21.18,0.09-42.35,0.09-63.53c0-28.29,0-56.57,0-84.86
		c0-16.23,0.04-32.46-0.05-48.7c-0.01-2.21,0.47-2.93,2.79-2.87c6.55,0.17,13.12,0.2,19.67,0.02c8.22-0.22,16.44,0.15,24.69-0.33
		c4.32-0.25,8.93,0.17,13.38,0.26c13.65,0.28,27.31,0.1,40.97,0.1c34.93,0,69.87-0.03,104.8,0.06c2.34,0.01,2.79-0.71,2.77-2.89
		c-0.11-10.53-0.01-21.07-0.06-31.6c-0.08-17.42-0.17-34.85-0.26-52.27c-0.05-9.71-0.09-19.46,0.31-29.19
		c0.09-2.25-0.51-2.87-2.8-2.85c-13.22,0.12-26.44,0.06-39.67,0.06c-18.93,0-37.86,0-56.8,0c-60.2,0-120.39,0-180.59,0
		c-14.4,0-28.81,0-43.21,0c-4.62,0-4.62,0-4.62,4.47c0,146.22,0,292.45,0,438.67c0,14.1,0,28.19,0,42.29c0,30.53,0,61.06,0,91.59
		c0,0.9,0,1.8,0,3.59c3.24-2.88,6.62-3.79,9.54-5.44c3.94-2.22,7.71-4.76,11.73-6.92c6.44-3.46,12.74-7.16,19.11-10.76
		c21.91-12.4,43.82-24.79,65.73-37.21c3.97-2.25,8.16-4.14,12.01-6.52c7.62-4.72,15.44-9.05,23.26-13.39
		c18.32-10.16,36.39-20.76,54.8-30.77c6.34-3.45,12.69-7.11,18.94-10.84c8.35-4.98,16.82-9.8,25.36-14.48
		c13.15-7.2,26.12-14.73,39.17-22.13c9.5-5.38,19.07-10.64,28.46-16.2c4.66-2.75,9.69-4.78,14.14-7.94
		c4.19-2.98,8.78-5.46,13.23-7.91c5.17-2.85,10.55-5.47,15.66-8.46c16.54-9.69,33.64-18.41,49.9-28.61
		c5.03-3.15,10.68-5.45,15.87-8.51c6.6-3.89,13.34-7.55,20.01-11.32c6.39-3.61,12.75-7.28,19.18-10.82
		c11.93-6.57,23.72-13.4,35.65-19.99c6.24-3.45,12.54-6.97,18.68-10.67c11.43-6.9,23.21-13.24,34.87-19.77
		c1.99-1.11,3.07-2.3,3.02-4.92c-0.21-11.29-0.09-22.58-0.09-33.87c0-7.31,0-14.62,0-21.93c0-7.31,0-14.62,0-21.93
		c0-7.42-0.12-14.84,0.04-22.25c0.15-7.04-0.15-14.06-0.11-21.1c0.17-36.98,0.08-73.97,0.08-110.95c0-10.54,0-21.08,0-31.61
		c0-126.2,0-252.4,0-378.6c0-1.91-1.2-4.44-0.77-5.43c1.39-3.25,0.65-6.43,0.68-9.55c0.18-17.87,0.09-35.74,0.09-53.62
		c0-42.27,0-84.55,0-126.82c0-11.61-0.02-23.22,0.02-34.83c0.01-1.73-1.22-3.95-0.82-4.79
		C1655.67,561.29,1654.85,558.07,1654.84,554.96z M1050.5,710.28c-37.73,0.08-75.46,0.08-113.18,0.01c-2.24,0-2.87,0.51-2.85,2.81
		c0.13,10.75,0.06,21.5,0.06,32.25c0,83.84-0.02,167.69,0.08,251.53c0,3.16-0.8,3.79-3.85,3.78c-66.53-0.1-133.07-0.06-199.6-0.13
		c-2.76,0-3.75,0.44-3.74,3.55c0.13,37.19,0.12,74.39,0.02,111.58c-0.01,2.87,0.63,3.69,3.62,3.68
		c52.99-0.1,105.98-0.07,158.97-0.07c52.99,0,105.98,0,158.97,0c4.21,0,4.21,0,4.21-4.24c0-116.64,0-233.29,0-349.93
		c0-17.31-0.04-34.61,0.05-51.92C1053.26,711.03,1052.86,710.28,1050.5,710.28z"/>
</g>
</svg>
