<svg width="64" height="64" viewBox="0 0 64 64" fill="none" xmlns="http://www.w3.org/2000/svg">
<g clip-path="url(#clip0_40_30749)">
<path d="M32 64C49.6731 64 64 49.6731 64 32C64 14.3269 49.6731 0 32 0C14.3269 0 0 14.3269 0 32C0 49.6731 14.3269 64 32 64Z" fill="black"/>
<path d="M13.033 48.002L13.233 48.364C13.5464 48.0632 13.9598 47.8887 14.394 47.874C14.7187 47.874 15.038 47.9571 15.3214 48.1155C15.6049 48.274 15.843 48.5024 16.013 48.779C16.1981 48.5083 16.4418 48.2827 16.726 48.119C17.0005 47.9583 17.3129 47.8737 17.631 47.874C17.9124 47.8745 18.1901 47.939 18.4429 48.0627C18.6956 48.1865 18.9169 48.3661 19.09 48.588C19.4967 49.0693 19.7127 49.6831 19.697 50.313V52.592H18.504V50.312C18.5118 49.9951 18.4105 49.6851 18.217 49.434C18.1327 49.3185 18.022 49.2249 17.8941 49.1611C17.7663 49.0972 17.6249 49.065 17.482 49.067C17.3441 49.066 17.208 49.0979 17.0849 49.16C16.9617 49.2221 16.8552 49.3125 16.774 49.424C16.5893 49.6565 16.4841 49.9422 16.474 50.239V52.592H15.281V50.312C15.2884 49.9942 15.1848 49.6837 14.988 49.434C14.9039 49.3196 14.7939 49.2267 14.6671 49.1629C14.5402 49.0991 14.4 49.0663 14.258 49.067C14.1426 49.064 14.0278 49.0846 13.9206 49.1276C13.8135 49.1706 13.7163 49.235 13.635 49.317C13.4625 49.4934 13.3394 49.712 13.278 49.951V52.592H12V48.002H13.033Z" fill="#15BFBF"/>
<path d="M25.867 48.001H26.889V52.5909H25.761V52.144C25.2932 52.5368 24.6957 52.7409 24.0853 52.7163C23.4749 52.6917 22.8957 52.4402 22.461 52.011C22.2349 51.7853 22.0554 51.5171 21.933 51.222C21.8106 50.9268 21.7476 50.6105 21.7476 50.2909C21.7476 49.9714 21.8106 49.655 21.933 49.3599C22.0554 49.0648 22.2349 48.7967 22.461 48.571C22.8957 48.1417 23.4749 47.8901 24.0853 47.8655C24.6957 47.8409 25.2932 48.0451 25.761 48.438L25.867 48.001ZM25.196 51.1739C25.4254 50.9373 25.5516 50.6195 25.547 50.29C25.5519 50.1265 25.5232 49.9637 25.4629 49.8117C25.4025 49.6597 25.3117 49.5216 25.196 49.4059C25.0896 49.2892 24.9596 49.1966 24.8146 49.1342C24.6696 49.0718 24.5129 49.041 24.355 49.0439C24.1958 49.0429 24.0381 49.0745 23.8916 49.1368C23.745 49.199 23.6128 49.2906 23.503 49.4059C23.2736 49.6425 23.1474 49.9604 23.152 50.29C23.15 50.619 23.2758 50.9359 23.503 51.1739C23.6128 51.2893 23.745 51.381 23.8915 51.4432C24.0381 51.5055 24.1958 51.537 24.355 51.5359C24.5128 51.5391 24.6695 51.5085 24.8145 51.4463C24.9595 51.384 25.0896 51.2915 25.196 51.175V51.1739Z" fill="#15BFBF"/>
<path d="M31.445 48.002H32.51V49.248H31.445V52.592H30.093V49.248H29.131V48.002H30.089V46.302H31.441L31.445 48.002Z" fill="#15BFBF"/>
<path d="M35.788 48.0019L35.98 48.524C36.1695 48.3013 36.4095 48.1271 36.68 48.0159C36.9505 47.9048 37.2436 47.8598 37.535 47.8849C37.7994 47.883 38.0622 47.9263 38.312 48.0129L37.79 49.1949C37.6196 49.1137 37.4325 49.0739 37.2438 49.0785C37.0551 49.0832 36.8701 49.1324 36.704 49.222C36.5423 49.3026 36.402 49.4204 36.2946 49.5657C36.1871 49.711 36.1157 49.8797 36.086 50.058V52.592H34.755V48.0019H35.788Z" fill="#15BFBF"/>
<path d="M43.717 48.001H44.739V52.5909H43.61V52.144C43.1422 52.5368 42.5446 52.7409 41.9342 52.7163C41.3238 52.6917 40.7446 52.4402 40.31 52.011C40.0838 51.7853 39.9044 51.5171 39.782 51.222C39.6595 50.9268 39.5965 50.6105 39.5965 50.2909C39.5965 49.9714 39.6595 49.655 39.782 49.3599C39.9044 49.0648 40.0838 48.7967 40.31 48.571C40.7446 48.1417 41.3238 47.8901 41.9342 47.8655C42.5446 47.8409 43.1422 48.0451 43.61 48.438L43.717 48.001ZM43.046 51.1739C43.2753 50.9373 43.4016 50.6195 43.397 50.29C43.4018 50.1265 43.3732 49.9637 43.3128 49.8117C43.2524 49.6597 43.1616 49.5216 43.046 49.4059C42.9396 49.2892 42.8095 49.1966 42.6645 49.1342C42.5195 49.0718 42.3628 49.041 42.205 49.0439C42.0458 49.0429 41.888 49.0745 41.7415 49.1368C41.595 49.199 41.4627 49.2906 41.353 49.4059C41.1232 49.6424 40.9966 49.9603 41.001 50.29C40.9992 50.6191 41.1254 50.9361 41.353 51.1739C41.4627 51.2893 41.5949 51.381 41.7415 51.4432C41.888 51.5055 42.0458 51.537 42.205 51.5359C42.3628 51.5391 42.5194 51.5085 42.6645 51.4463C42.8095 51.384 42.9395 51.2915 43.046 51.175V51.1739Z" fill="#15BFBF"/>
<path d="M48.816 50.7681V52.5861H47.325V46.2781H48.816V49.7561L50.273 48.0011H52.002L50.138 50.1921L51.949 52.5921H50.294" fill="#15BFBF"/>
<path d="M18.643 43.4429L12.004 39.2999V16.6429L18.643 12.4209L31.989 19.7559L45.342 12.4209L51.981 16.6429V39.3029L45.342 43.4459V20.3139L31.989 27.9399L18.643 20.3139V43.4429Z" fill="#00FFF2"/>
<path d="M25.2821 39.2199V24.1199L18.6431 20.3149V43.4439L25.2821 39.2199Z" fill="#15BFBF"/>
<path d="M38.7041 39.2199V24.1199L45.3431 20.3149V43.4439L38.7041 39.2199Z" fill="#15BFBF"/>
<path d="M18.642 12.4209L31.988 19.7559L45.341 12.4209L31.988 27.9399L18.642 12.4209Z" fill="#15BFBF"/>
</g>
<defs>
<clipPath id="clip0_40_30749">
<rect width="64" height="64" fill="white"/>
</clipPath>
</defs>
</svg>
