<svg width="64" height="64" viewBox="0 0 64 64" fill="none" xmlns="http://www.w3.org/2000/svg">
<g clip-path="url(#clip0_40_30765)">
<path d="M32 64C49.6731 64 64 49.6731 64 32C64 14.3269 49.6731 0 32 0C14.3269 0 0 14.3269 0 32C0 49.6731 14.3269 64 32 64Z" fill="black"/>
<path d="M22.428 25.8718C22.2774 25.6698 22.0796 25.5078 21.852 25.3998C21.5981 25.2795 21.32 25.219 21.039 25.2228H11.306L8.56 35.4318H11.107L13.168 27.7708H15.32L13.259 35.4318H15.819L17.88 27.7708H20.032L17.971 35.4318H20.505L22.657 27.4318C22.7365 27.152 22.7553 26.8585 22.712 26.5708C22.6741 26.3185 22.5771 26.0786 22.429 25.8708" fill="white"/>
<path d="M34.892 25.293V25.303H34.886C29.941 25.303 25.169 29.074 23.531 31.71C22.18 33.884 22.098 37.477 22.096 38.747C22.096 38.747 22.096 38.778 22.096 38.78H22.11C22.0981 38.1844 22.1592 37.5897 22.292 37.009C23.24 32.744 27.767 29.65 30.121 28.767C31.6551 28.2191 33.2619 27.9017 34.889 27.825L54.742 27.84L55.442 25.294L34.892 25.293Z" fill="#E30613"/>
<path d="M52.083 28.062L51.657 29.648H44.057L42.508 35.407H45.068L45.925 32.222L51.302 32.21C51.6176 32.2086 51.9303 32.1485 52.224 32.033C52.5253 31.9164 52.8075 31.7553 53.061 31.555C53.3151 31.3547 53.539 31.119 53.726 30.855C53.914 30.5915 54.0535 30.2965 54.138 29.984L54.677 28.065L52.083 28.062Z" fill="#E30613"/>
<path d="M38.2101 31.8469H40.32L40.0511 32.8469H35.0121L36.302 28.0469H34.895C34.857 28.0469 34.401 28.0629 33.715 28.1469L32.3611 33.1779C32.2797 33.4618 32.2599 33.7597 32.303 34.0519C32.3406 34.3043 32.4376 34.5443 32.586 34.7519C32.7359 34.9541 32.9335 35.1162 33.161 35.2239C33.4196 35.3453 33.7024 35.4058 33.988 35.4009H39.6971C40.0127 35.3994 40.3253 35.3394 40.619 35.2239C40.9168 35.1086 41.1963 34.951 41.449 34.7559C41.7072 34.5556 41.9337 34.3176 42.121 34.0499C42.3082 33.7847 42.4476 33.489 42.533 33.1759L43.505 29.6389H38.8221L38.2101 31.8469Z" fill="#E30613"/>
<path d="M27.634 27.4619L26.35 25.2219H22.975L25.297 29.2829C26.0226 28.6095 26.8045 27.9993 27.634 27.4589" fill="white"/>
<path d="M28.848 29.616C27.9905 30.0914 27.1794 30.6458 26.425 31.272L27.025 32.329L28.787 35.398H31.287L32.236 35.408L29.236 30.308L28.848 29.616Z" fill="white"/>
</g>
<defs>
<clipPath id="clip0_40_30765">
<rect width="64" height="64" fill="white"/>
</clipPath>
</defs>
</svg>
