<svg width="64" height="64" viewBox="0 0 64 64" fill="none" xmlns="http://www.w3.org/2000/svg">
<g clip-path="url(#clip0_40_30775)">
<path d="M32 64C49.6731 64 64 49.6731 64 32C64 14.3269 49.6731 0 32 0C14.3269 0 0 14.3269 0 32C0 49.6731 14.3269 64 32 64Z" fill="#F5F5F5"/>
<path d="M43.056 15.5499L35.401 26.9099C35.2887 27.0748 35.2409 27.2753 35.2666 27.4732C35.2924 27.671 35.3899 27.8526 35.5407 27.9832C35.6915 28.1139 35.8851 28.1847 36.0846 28.182C36.2841 28.1794 36.4757 28.1035 36.623 27.9689L44.156 21.4129C44.1999 21.3736 44.2546 21.3484 44.3129 21.3406C44.3713 21.3328 44.4307 21.3426 44.4833 21.3689C44.536 21.3952 44.5796 21.4367 44.6084 21.4881C44.6373 21.5394 44.65 21.5982 44.645 21.6569V42.1389C44.6463 42.2009 44.6284 42.2618 44.5937 42.3131C44.5589 42.3645 44.5092 42.4039 44.4512 42.4258C44.3932 42.4477 44.3298 42.4511 44.2698 42.4356C44.2098 42.42 44.1561 42.3862 44.116 42.3389L21.311 15.0609C20.9519 14.6212 20.4981 14.2683 19.9835 14.0286C19.4688 13.789 18.9067 13.6687 18.339 13.6769H17.524C16.4937 13.6854 15.5085 14.1012 14.7838 14.8336C14.059 15.5661 13.6536 16.5555 13.656 17.5859V46.4139C13.656 47.2665 13.9348 48.0958 14.4498 48.7753C14.9647 49.4549 15.6877 49.9475 16.5086 50.1781C17.3295 50.4087 18.2032 50.3646 18.9967 50.0526C19.7902 49.7406 20.46 49.1778 20.904 48.4499L28.556 37.0899C28.6683 36.925 28.7162 36.7245 28.6904 36.5267C28.6647 36.3288 28.5671 36.1473 28.4163 36.0166C28.2655 35.8859 28.072 35.8151 27.8724 35.8178C27.6729 35.8204 27.4813 35.8963 27.334 36.0309L19.804 42.5459C19.7601 42.5852 19.7055 42.6104 19.6471 42.6182C19.5888 42.626 19.5294 42.6162 19.4767 42.5899C19.424 42.5636 19.3804 42.5221 19.3516 42.4707C19.3228 42.4194 19.31 42.3606 19.315 42.3019V21.8609C19.3137 21.7989 19.3317 21.738 19.3664 21.6867C19.4011 21.6353 19.4509 21.5959 19.5089 21.574C19.5669 21.5521 19.6302 21.5487 19.6902 21.5642C19.7503 21.5798 19.804 21.6136 19.844 21.6609L42.644 48.9419C43.0059 49.3783 43.4603 49.7289 43.9743 49.9683C44.4883 50.2076 45.049 50.3298 45.616 50.3259H46.43C47.4667 50.3256 48.4608 49.9137 49.1938 49.1807C49.9268 48.4477 50.3388 47.4536 50.339 46.4169V17.5859C50.3314 16.7327 50.0469 15.9051 49.5281 15.2277C49.0094 14.5503 48.2846 14.0599 47.4629 13.8301C46.6412 13.6004 45.7671 13.6439 44.9723 13.9541C44.1774 14.2643 43.5049 14.8243 43.056 15.5499Z" fill="black"/>
</g>
<defs>
<clipPath id="clip0_40_30775">
<rect width="64" height="64" fill="white"/>
</clipPath>
</defs>
</svg>
