<svg xmlns="http://www.w3.org/2000/svg" width="64" height="64" viewBox="0 0 64 64"><circle cx="32" cy="32" r="32" fill="#f5f5f5"/><path d="M29.4,1.873l-7.655,11.36a.814.814,0,0,0,1.222,1.059L30.5,7.736a.294.294,0,0,1,.489.244V28.462a.3.3,0,0,1-.529.2L7.655,1.384A3.767,3.767,0,0,0,4.683,0H3.868A3.9,3.9,0,0,0,0,3.909V32.737a3.91,3.91,0,0,0,7.248,2.036L14.9,23.413a.814.814,0,0,0-1.222-1.059L6.148,28.869a.294.294,0,0,1-.489-.244V8.184a.3.3,0,0,1,.529-.2l22.8,27.281a3.827,3.827,0,0,0,2.972,1.384h.814a3.91,3.91,0,0,0,3.909-3.909V3.909A3.936,3.936,0,0,0,29.4,1.873Z" transform="translate(13.656 13.677)"/></svg>