<svg xmlns="http://www.w3.org/2000/svg" width="64" height="64" viewBox="0 0 64 64"><circle cx="32" cy="32" r="32" fill="#f5f5f5"/><g transform="translate(13.074 15.606)"><path d="M9.823.252l18.559,10.71V21.886L0,5.5,9.1.252a.765.765,0,0,1,.727,0Z" transform="translate(0 -0.038)" fill="#3ca9e5"/><path d="M34.193,0,24.73,5.462l9.463,5.462Z" transform="translate(-5.812)" fill="#2853c3"/><path d="M37.1,0l9.1,5.248a.765.765,0,0,1,.367.635V27.3L37.1,21.848Z" transform="translate(-8.719)" fill="#1a4199"/><path d="M40.742,30.662l-9.1,5.248a.765.765,0,0,1-.765,0L12.33,25.2V14.26Z" transform="translate(-2.898 -3.351)" fill="#2853c3"/><path d="M0,7.14V28.56a.765.765,0,0,0,.367.658l9.1,5.248V12.587Z" transform="translate(0 -1.678)" fill="#60beff"/><path d="M12.37,39.484l9.455-5.462L12.37,28.56Z" transform="translate(-2.907 -6.712)" fill="#3ca9e5"/></g></svg>