<svg width="64" height="64" viewBox="0 0 64 64" fill="none" xmlns="http://www.w3.org/2000/svg">
<g clip-path="url(#clip0_40_30778)">
<path d="M32 64C49.6731 64 64 49.6731 64 32C64 14.3269 49.6731 0 32 0C14.3269 0 0 14.3269 0 32C0 49.6731 14.3269 64 32 64Z" fill="#F5F5F5"/>
<path d="M22.897 15.8199L41.456 26.5299V37.4539L13.074 21.0679L22.174 15.8199C22.2856 15.7596 22.4106 15.728 22.5375 15.728C22.6644 15.728 22.7893 15.7596 22.901 15.8199H22.897Z" fill="#3CA9E5"/>
<path d="M41.4549 15.606L31.9919 21.068L41.4549 26.53V15.606Z" fill="#2853C3"/>
<path d="M41.455 15.606L50.555 20.854C50.6644 20.9206 50.7554 21.0137 50.8195 21.1246C50.8836 21.2356 50.9189 21.3608 50.922 21.489V42.906L41.455 37.454V15.606Z" fill="#1A4199"/>
<path d="M50.918 42.9169L41.818 48.1649C41.7017 48.232 41.5698 48.2674 41.4355 48.2674C41.3012 48.2674 41.1693 48.232 41.053 48.1649L22.506 37.4549V26.5149L50.918 42.9169Z" fill="#2853C3"/>
<path d="M13.074 21.0679V42.4879C13.0732 42.6199 13.1066 42.7499 13.1709 42.8652C13.2352 42.9805 13.3282 43.0772 13.441 43.1459L22.541 48.3939V26.5149L13.074 21.0679Z" fill="#60BEFF"/>
<path d="M22.537 48.3779L31.992 42.9159L22.537 37.4539V48.3779Z" fill="#3CA9E5"/>
</g>
<defs>
<clipPath id="clip0_40_30778">
<rect width="64" height="64" fill="white"/>
</clipPath>
</defs>
</svg>
