<svg width="64" height="64" viewBox="0 0 64 64" fill="none" xmlns="http://www.w3.org/2000/svg">
<path d="M32 64C49.6731 64 64 49.6731 64 32C64 14.3269 49.6731 0 32 0C14.3269 0 0 14.3269 0 32C0 49.6731 14.3269 64 32 64Z" fill="#F5F5F5"/>
<path d="M32.0373 15.3689C37.8342 15.3689 42.5371 20.0719 42.5371 25.8688H52.7752C52.7752 14.3405 43.4347 5 31.9064 5C20.3781 5 11.0376 14.3405 11.0376 25.8688H21.5374C21.5281 20.0719 26.231 15.3689 32.0373 15.3689Z" stroke="url(#paint0_radial_302_70)" stroke-width="3" stroke-miterlimit="10"/>
<path d="M31.7379 48.1307C25.941 48.1307 21.238 43.4277 21.238 37.6309H11C11 49.1592 20.3405 58.4996 31.8688 58.4996C43.3971 58.4996 52.7376 49.1592 52.7376 37.6309H42.2377C42.2377 43.4277 37.5348 48.1307 31.7379 48.1307Z" stroke="url(#paint1_radial_302_70)" stroke-width="3" stroke-miterlimit="10"/>
<defs>
<radialGradient id="paint0_radial_302_70" cx="0" cy="0" r="1" gradientUnits="userSpaceOnUse" gradientTransform="translate(31.9015 15.4362) scale(18.4624 18.4624)">
<stop stop-color="#8800FF" stop-opacity="0.52"/>
<stop offset="0.144" stop-color="#7D00F5" stop-opacity="0.5891"/>
<stop offset="0.3937" stop-color="#6102DC" stop-opacity="0.709"/>
<stop offset="0.7169" stop-color="#3404B2" stop-opacity="0.8641"/>
<stop offset="1" stop-color="#060689"/>
</radialGradient>
<radialGradient id="paint1_radial_302_70" cx="0" cy="0" r="1" gradientUnits="userSpaceOnUse" gradientTransform="translate(31.8675 48.0662) scale(18.4624 18.4624)">
<stop stop-color="#8800FF" stop-opacity="0.52"/>
<stop offset="0.144" stop-color="#7D00F5" stop-opacity="0.5891"/>
<stop offset="0.3937" stop-color="#6102DC" stop-opacity="0.709"/>
<stop offset="0.7169" stop-color="#3404B2" stop-opacity="0.8641"/>
<stop offset="1" stop-color="#060689"/>
</radialGradient>
</defs>
</svg>
