<svg width="64" height="64" viewBox="0 0 64 64" fill="none" xmlns="http://www.w3.org/2000/svg">
<g clip-path="url(#clip0_40_30787)">
<path d="M32 64C49.6731 64 64 49.6731 64 32C64 14.3269 49.6731 0 32 0C14.3269 0 0 14.3269 0 32C0 49.6731 14.3269 64 32 64Z" fill="#DF070B"/>
<path fill-rule="evenodd" clip-rule="evenodd" d="M26.211 25.138V34.638C25.627 34.422 24.726 32.857 24.344 32.347L20.776 27.447C20.509 27.055 19.285 25.132 18.784 25.132H14.928C14.928 30.244 15.075 35.417 15.075 40.556H18.928V30.917C19.461 31.28 25.157 39.125 25.837 40.045C26.042 40.312 26.104 40.578 26.501 40.578H30.064V25.138C28.696 25.138 27.608 25.098 26.211 25.138ZM35.862 35.229H34.662V31.072C36.562 31.072 38.377 30.772 38.377 33.296C38.396 34.796 37.329 35.224 35.862 35.224V35.229ZM30.962 43.397H34.662V37.305C35.246 37.457 34.95 37.374 35.713 38.638C36.03 39.171 36.308 39.638 36.66 40.222C37.324 41.329 37.937 42.286 38.527 43.403H43.127C42.674 42.723 39.178 37.64 38.97 37.003C39.9326 36.8308 40.8183 36.3652 41.506 35.67C42.0579 34.943 42.3921 34.0744 42.4698 33.165C42.5474 32.2556 42.3653 31.3428 41.9447 30.5328C41.524 29.7228 40.8821 29.0489 40.0935 28.5894C39.3049 28.1298 38.4021 27.9036 37.49 27.937H30.954L30.962 43.397ZM49.061 20.605H42.661C41.961 21.938 41.293 23.272 40.584 24.605H44.443C44.443 29.296 44.574 33.994 44.595 38.705H49.048L49.061 20.605Z" fill="white"/>
</g>
<defs>
<clipPath id="clip0_40_30787">
<rect width="64" height="64" fill="white"/>
</clipPath>
</defs>
</svg>
