<svg width="64" height="64" viewBox="0 0 64 64" fill="none" xmlns="http://www.w3.org/2000/svg">
<g clip-path="url(#clip0_494_11231)">
<mask id="mask0_494_11231" style="mask-type:luminance" maskUnits="userSpaceOnUse" x="0" y="0" width="64" height="64">
<path d="M64 0H0V64H64V0Z" fill="white"/>
</mask>
<g mask="url(#mask0_494_11231)">
<path d="M32 64C49.6731 64 64 49.6731 64 32C64 14.3269 49.6731 0 32 0C14.3269 0 0 14.3269 0 32C0 49.6731 14.3269 64 32 64Z" fill="#F5F5F5"/>
</g>
<g clip-path="url(#clip1_494_11231)">
<mask id="mask1_494_11231" style="mask-type:luminance" maskUnits="userSpaceOnUse" x="0" y="0" width="64" height="64">
<path d="M64 0H0V64H64V0Z" fill="white"/>
</mask>
<g mask="url(#mask1_494_11231)">
<mask id="mask2_494_11231" style="mask-type:luminance" maskUnits="userSpaceOnUse" x="0" y="0" width="64" height="64">
<path d="M32 64C49.6731 64 64 49.6731 64 32C64 14.3269 49.6731 0 32 0C14.3269 0 0 14.3269 0 32C0 49.6731 14.3269 64 32 64Z" fill="white"/>
</mask>
<g mask="url(#mask2_494_11231)">
<path d="M28.0261 0.208954C21.3385 1.08006 15.0925 4.02668 10.1675 8.63398C5.24248 13.2413 1.88652 19.2772 0.57206 25.892C-1.03482 34.3092 0.763398 43.0201 5.57206 50.113C7.9339 53.3043 10.7521 56.1312 13.9361 58.503C17.5554 60.9006 21.5964 62.5904 25.8451 63.483C29.925 64.1243 34.0802 64.1243 38.1601 63.483C44.0892 62.3182 49.5632 59.4868 53.9401 55.321C58.558 51.0127 61.7759 45.4171 63.1771 39.259C64.3786 34.0862 64.2761 28.696 62.8789 23.5727C61.4816 18.4494 58.8334 13.7535 55.1721 9.90695C50.5549 5.14694 44.6081 1.8919 38.1101 0.567951C34.7767 0.0302551 31.3893 -0.0903364 28.0261 0.208954ZM35.2101 2.74895C42.8379 3.62367 49.833 7.41088 54.7351 13.32C57.6297 16.7995 59.6606 20.914 60.6621 25.328C61.2074 27.4202 61.441 29.5815 61.3551 31.742C61.4964 35.4708 60.8404 39.1868 59.4311 42.642C57.6648 47.2063 54.7863 51.2571 51.0571 54.4266C47.3279 57.5961 42.866 59.7838 38.0767 60.7913C33.2873 61.7987 28.3222 61.5938 23.6321 60.1953C18.942 58.7968 14.6756 56.2489 11.2201 52.783C7.10433 48.7047 4.29443 43.4946 3.14768 37.8152C2.00093 32.1358 2.56914 26.2436 4.78006 20.888C7.25668 14.9385 11.5841 9.94518 17.1211 6.64795C22.5659 3.41473 28.9168 2.04583 35.2101 2.74895Z" fill="black"/>
<path d="M11.3001 24.4548C7.96509 25.6608 5.83509 29.7918 6.60009 33.6398C6.79327 35.1904 7.50807 36.6292 8.62709 37.7198C10.2181 39.4388 11.2441 39.8198 14.0411 39.8198C16.2731 39.8198 16.6071 39.7428 17.8411 39.0758C18.9559 38.4606 19.8934 37.5685 20.563 36.4854C21.2326 35.4024 21.6119 34.1651 21.6641 32.8928C22.0231 28.9418 19.7401 25.2468 16.3791 24.2928C14.6968 23.9482 12.957 24.0037 11.3001 24.4548ZM16.9191 27.6618C17.722 28.3862 18.3096 29.3179 18.6175 30.3546C18.9253 31.3912 18.9414 32.4926 18.6641 33.5378C17.6381 37.8478 11.9641 38.6948 10.0171 34.8208C8.83709 32.5118 9.45309 28.8938 11.2491 27.6368C12.1023 27.113 13.0849 26.8378 14.0861 26.8422C15.0874 26.8466 16.0675 27.1305 16.9161 27.6618H16.9191Z" fill="black"/>
<path d="M46.0125 24.5579C41.1885 26.4819 39.8295 33.5889 43.4725 37.8999C45.4485 40.2599 50.1175 40.6999 52.1965 38.6999L52.7605 38.1609L52.8375 38.8789C52.9145 39.5199 52.9915 39.5719 54.1975 39.5719H55.4805L55.5575 35.5179L55.6345 31.4899H48.4245V34.0559H50.6005C52.9605 34.0559 53.0375 34.1069 52.3705 35.4929C52.0001 36.0466 51.506 36.5066 50.9272 36.8363C50.3483 37.1661 49.7007 37.3566 49.0355 37.3929C46.0845 37.3929 44.3145 35.3149 44.3145 31.9539C44.3405 28.2339 46.7265 26.1039 49.9845 26.8739C51.2415 27.1819 52.5245 28.2849 52.5245 29.0809C52.5245 29.3379 52.9095 29.4399 54.0635 29.4399H55.5775L55.2185 28.2849C54.4185 25.5909 52.4475 24.2309 49.1885 24.1279C48.1108 24.0209 47.023 24.1682 46.0125 24.5579Z" fill="black"/>
<path d="M23.792 31.998V39.698H26.358L26.409 34.515L26.486 29.307L28.386 34.515L30.286 39.723L31.569 39.646L32.852 39.569L34.725 34.437L36.6 29.304L36.677 34.436L36.754 39.568L38.114 39.645L39.448 39.722L39.397 32.076L39.32 24.43H35.749L33.696 30.13C33.1003 32.0216 32.3626 33.8655 31.489 35.646C31.389 35.546 30.463 33.106 29.436 30.207C28.409 27.308 27.436 24.793 27.306 24.614C26.7219 24.3407 26.0738 24.2341 25.433 24.306H23.792V31.998Z" fill="black"/>
</g>
</g>
</g>
</g>
<defs>
<clipPath id="clip0_494_11231">
<rect width="64" height="64" fill="white"/>
</clipPath>
<clipPath id="clip1_494_11231">
<rect width="64" height="64" fill="white"/>
</clipPath>
</defs>
</svg>
