<svg width="64" height="64" viewBox="0 0 64 64" fill="none" xmlns="http://www.w3.org/2000/svg">
<g clip-path="url(#clip0_40_30791)">
<mask id="mask0_40_30791" style="mask-type:luminance" maskUnits="userSpaceOnUse" x="0" y="0" width="64" height="64">
<path d="M32 64C49.6731 64 64 49.6731 64 32C64 14.3269 49.6731 0 32 0C14.3269 0 0 14.3269 0 32C0 49.6731 14.3269 64 32 64Z" fill="white"/>
</mask>
<g mask="url(#mask0_40_30791)">
<path d="M28.026 0.208954C21.3384 1.08006 15.0924 4.02668 10.1674 8.63398C5.24242 13.2413 1.88646 19.2772 0.571998 25.892C-1.03488 34.3092 0.763336 43.0201 5.572 50.113C7.93384 53.3043 10.752 56.1312 13.936 58.503C17.5553 60.9006 21.5963 62.5904 25.845 63.483C29.9249 64.1243 34.0801 64.1243 38.16 63.483C44.0891 62.3182 49.5631 59.4868 53.94 55.321C58.5579 51.0127 61.7758 45.4171 63.177 39.259C64.3785 34.0862 64.276 28.696 62.8788 23.5727C61.4815 18.4494 58.8333 13.7535 55.172 9.90695C50.5548 5.14694 44.608 1.8919 38.11 0.567951C34.7766 0.0302551 31.3892 -0.0903364 28.026 0.208954ZM35.21 2.74895C42.8378 3.62367 49.8329 7.41088 54.735 13.32C57.6296 16.7995 59.6605 20.914 60.662 25.328C61.2073 27.4202 61.4409 29.5815 61.355 31.742C61.4963 35.4708 60.8403 39.1868 59.431 42.642C57.6647 47.2063 54.7862 51.2571 51.057 54.4266C47.3278 57.5961 42.8659 59.7838 38.0766 60.7913C33.2872 61.7987 28.3221 61.5938 23.632 60.1953C18.9419 58.7968 14.6755 56.2489 11.22 52.783C7.10427 48.7047 4.29437 43.4946 3.14762 37.8152C2.00087 32.1358 2.56908 26.2436 4.78 20.888C7.25662 14.9385 11.584 9.94518 17.121 6.64795C22.5658 3.41473 28.9167 2.04583 35.21 2.74895Z" fill="black"/>
<path d="M11.3 24.4548C7.96497 25.6608 5.83497 29.7918 6.59997 33.6398C6.79315 35.1904 7.50795 36.6292 8.62697 37.7198C10.218 39.4388 11.244 39.8198 14.041 39.8198C16.273 39.8198 16.607 39.7428 17.841 39.0758C18.9558 38.4606 19.8933 37.5685 20.5629 36.4854C21.2325 35.4024 21.6118 34.1651 21.664 32.8928C22.023 28.9418 19.74 25.2468 16.379 24.2928C14.6967 23.9482 12.9569 24.0037 11.3 24.4548ZM16.919 27.6618C17.7219 28.3862 18.3095 29.3179 18.6174 30.3546C18.9252 31.3912 18.9413 32.4926 18.664 33.5378C17.638 37.8478 11.964 38.6948 10.017 34.8208C8.83697 32.5118 9.45297 28.8938 11.249 27.6368C12.1022 27.113 13.0848 26.8378 14.086 26.8422C15.0873 26.8466 16.0674 27.1305 16.916 27.6618H16.919Z" fill="black"/>
<path d="M46.012 24.5579C41.188 26.4819 39.829 33.5889 43.472 37.8999C45.448 40.2599 50.117 40.6999 52.196 38.6999L52.76 38.1609L52.837 38.8789C52.914 39.5199 52.991 39.5719 54.197 39.5719H55.48L55.557 35.5179L55.634 31.4899H48.424V34.0559H50.6C52.96 34.0559 53.037 34.1069 52.37 35.4929C51.9996 36.0466 51.5055 36.5066 50.9267 36.8363C50.3478 37.1661 49.7002 37.3566 49.035 37.3929C46.084 37.3929 44.314 35.3149 44.314 31.9539C44.34 28.2339 46.726 26.1039 49.984 26.8739C51.241 27.1819 52.524 28.2849 52.524 29.0809C52.524 29.3379 52.909 29.4399 54.063 29.4399H55.577L55.218 28.2849C54.418 25.5909 52.447 24.2309 49.188 24.1279C48.1103 24.0209 47.0225 24.1682 46.012 24.5579Z" fill="black"/>
<path d="M23.792 31.998V39.698H26.358L26.409 34.515L26.486 29.307L28.386 34.515L30.286 39.723L31.569 39.646L32.852 39.569L34.725 34.437L36.6 29.304L36.677 34.436L36.754 39.568L38.114 39.645L39.448 39.722L39.397 32.076L39.32 24.43H35.749L33.696 30.13C33.1003 32.0216 32.3626 33.8655 31.489 35.646C31.389 35.546 30.463 33.106 29.436 30.207C28.409 27.308 27.436 24.793 27.306 24.614C26.7219 24.3407 26.0738 24.2341 25.433 24.306H23.792V31.998Z" fill="black"/>
</g>
</g>
<defs>
<clipPath id="clip0_40_30791">
<rect width="64" height="64" fill="white"/>
</clipPath>
</defs>
</svg>
