<svg width="64" height="64" viewBox="0 0 64 64" fill="none" xmlns="http://www.w3.org/2000/svg">
<rect width="64" height="64" rx="32" fill="#F5F5F5"/>
<g clip-path="url(#clip0_482_69)">
<path d="M13.8749 16.8051V23.6034C13.8749 23.6223 13.8674 23.6403 13.8541 23.6536C13.8408 23.667 13.8227 23.6744 13.8039 23.6744H11.9865C11.9677 23.6744 11.9496 23.667 11.9363 23.6536C11.923 23.6403 11.9155 23.6223 11.9155 23.6034V15.3408C11.9155 15.3256 11.9204 15.3108 11.9294 15.2986C11.9384 15.2864 11.9511 15.2774 11.9657 15.2729L31.6158 9.25693C31.6295 9.25274 31.644 9.25274 31.6576 9.25693L51.3203 15.2771C51.3348 15.2816 51.3476 15.2906 51.3566 15.3028C51.3656 15.315 51.3705 15.3298 51.3705 15.345V30.0267C51.3705 30.0456 51.363 30.0636 51.3497 30.077C51.3363 30.0903 51.3183 30.0978 51.2994 30.0978H49.4539C49.4351 30.0978 49.417 30.0903 49.4037 30.077C49.3904 30.0636 49.3829 30.0456 49.3829 30.0267L49.3933 16.802C49.3933 16.7868 49.3885 16.772 49.3794 16.7598C49.3704 16.7476 49.3577 16.7386 49.3432 16.7341L31.6587 11.3187C31.6451 11.3145 31.6305 11.3145 31.6169 11.3187L13.925 16.7372C13.9105 16.7417 13.8978 16.7507 13.8888 16.7629C13.8798 16.7751 13.8749 16.7899 13.8749 16.8051Z" fill="#052383"/>
<path d="M32.6791 21.4415C33.3308 23.2264 35.8155 22.605 35.7007 20.6707C35.7001 20.663 35.7021 20.6554 35.7062 20.6489C35.7103 20.6423 35.7164 20.6371 35.7236 20.6341L39.1045 19.2596C39.1098 19.2576 39.1156 19.2572 39.1211 19.2585C39.1266 19.2597 39.1316 19.2627 39.1354 19.2668C39.1392 19.271 39.1417 19.2762 39.1426 19.2818C39.1434 19.2874 39.1425 19.2932 39.14 19.2983L36.7869 24.1027C36.781 24.1152 36.7717 24.1257 36.76 24.1331C36.7484 24.1405 36.7349 24.1444 36.7211 24.1445H26.5659C26.549 24.1445 26.5325 24.1398 26.5181 24.131C26.5037 24.1221 26.492 24.1094 26.4845 24.0943L24.1428 19.3129C24.1393 19.3064 24.138 19.299 24.139 19.2917C24.14 19.2844 24.1433 19.2776 24.1485 19.2722C24.1536 19.2668 24.1604 19.2631 24.1678 19.2616C24.1752 19.2601 24.1829 19.2609 24.1898 19.2638L27.5237 20.6257C27.5571 20.639 27.5731 20.6637 27.5717 20.6999C27.5432 21.5863 27.8945 22.1517 28.6256 22.3961C30.6884 23.0865 31.5553 19.8591 29.4027 19.4131C29.3981 19.4121 29.394 19.4098 29.3906 19.4066C29.3872 19.4034 29.3848 19.3994 29.3835 19.3949C29.3822 19.3904 29.3822 19.3857 29.3833 19.3812C29.3845 19.3767 29.3868 19.3726 29.3901 19.3693L31.6106 17.154C31.6315 17.1324 31.6527 17.1324 31.6743 17.154L33.8708 19.3432C33.8764 19.3487 33.8805 19.3556 33.8825 19.3632C33.8846 19.3708 33.8845 19.3789 33.8824 19.3864C33.8802 19.394 33.8761 19.4009 33.8704 19.4063C33.8647 19.4118 33.8576 19.4156 33.8499 19.4173C32.9673 19.6356 32.3522 20.5443 32.6791 21.4415Z" fill="#052383"/>
<path d="M11.8886 29.9098L11.8917 34.9147C11.8917 34.9586 11.8698 34.9805 11.8259 34.9805H8.15676C8.08713 34.9805 8.05231 34.9457 8.05231 34.8761L8.05127 25.6798C8.05127 25.6491 8.06659 25.6338 8.09723 25.6338C11.6059 25.6324 15.111 25.6317 18.6127 25.6317C19.4719 25.6317 20.085 25.6843 20.452 25.7894C23.8036 26.744 23.7284 31.5798 20.3569 32.5188C20.022 32.6128 19.5419 32.6591 18.9166 32.6577C17.5707 32.6556 16.2272 32.6556 14.8861 32.6577C14.8311 32.6577 14.7845 32.6382 14.7462 32.5992L12.0045 29.8607C11.9272 29.7841 11.8886 29.8004 11.8886 29.9098ZM11.8865 28.6094L11.8844 29.6664C11.8844 29.6744 11.8859 29.6822 11.889 29.6896C11.892 29.6969 11.8965 29.7036 11.9021 29.7092C11.9077 29.7149 11.9144 29.7193 11.9218 29.7224C11.9291 29.7254 11.937 29.727 11.945 29.727L18.8059 29.7385C18.8853 29.7386 18.964 29.7237 19.0374 29.6945C19.1108 29.6654 19.1776 29.6225 19.2338 29.5685C19.2901 29.5145 19.3348 29.4503 19.3653 29.3797C19.3958 29.309 19.4116 29.2333 19.4117 29.1567V29.1442C19.412 28.9896 19.3485 28.8413 19.2353 28.7318C19.1221 28.6223 18.9684 28.5606 18.808 28.5603L11.947 28.5488C11.931 28.5488 11.9156 28.5552 11.9042 28.5666C11.8929 28.5779 11.8865 28.5934 11.8865 28.6094Z" fill="#FF0404"/>
<path d="M28.0795 29.7323H39.0462C39.06 29.7323 39.0733 29.7378 39.0831 29.7476C39.0929 29.7573 39.0984 29.7706 39.0984 29.7845V32.5784C39.0984 32.6306 39.0723 32.6567 39.0201 32.6567H31.004C30.9608 32.6567 30.9235 32.6414 30.8922 32.6107L28.1516 29.8701C28.1367 29.8545 28.1173 29.8443 28.0962 29.8409C27.9946 29.8228 27.9629 29.843 28.0012 29.9015C28.0186 29.9286 28.0273 29.9586 28.0273 29.9913V34.9284C28.0273 34.9422 28.0218 34.9555 28.012 34.9653C28.0022 34.9751 27.9889 34.9806 27.9751 34.9806H24.2412C24.2273 34.9806 24.2141 34.9751 24.2043 34.9653C24.1945 34.9555 24.189 34.9422 24.189 34.9284V25.685C24.189 25.6712 24.1945 25.6579 24.2043 25.6481C24.2141 25.6383 24.2273 25.6328 24.2412 25.6328H39.0462C39.06 25.6328 39.0733 25.6383 39.0831 25.6481C39.0929 25.6579 39.0984 25.6712 39.0984 25.685V28.4789C39.0984 28.5311 39.0723 28.5573 39.0201 28.5573H28.0795C28.0447 28.5573 28.0273 28.5747 28.0273 28.6095V29.68C28.0273 29.7148 28.0447 29.7323 28.0795 29.7323Z" fill="#FF0404"/>
<path d="M40.6297 25.6328H44.351C44.364 25.6328 44.3765 25.638 44.3857 25.6472C44.3949 25.6564 44.4001 25.6689 44.4001 25.6819L44.398 32.0071C44.398 32.0201 44.4032 32.0326 44.4124 32.0418C44.4216 32.051 44.4341 32.0561 44.4471 32.0561H54.925C54.938 32.0561 54.9505 32.0613 54.9597 32.0705C54.9689 32.0797 54.9741 32.0922 54.9741 32.1052V34.9315C54.9741 34.9445 54.9689 34.957 54.9597 34.9662C54.9505 34.9754 54.938 34.9806 54.925 34.9806H43.5249C43.5119 34.9805 43.4995 34.9752 43.4904 34.966L40.6025 32.0885C40.5933 32.0794 40.588 32.067 40.5879 32.0541L40.5806 25.6819C40.5806 25.6755 40.5818 25.6691 40.5843 25.6631C40.5868 25.6572 40.5904 25.6517 40.5949 25.6472C40.5995 25.6426 40.6049 25.639 40.6109 25.6365C40.6168 25.6341 40.6232 25.6328 40.6297 25.6328Z" fill="#FF0404"/>
<path d="M8.56938 38.2121L8.59027 39.0623C8.59071 39.0785 8.58779 39.0947 8.58169 39.1098C8.57559 39.1249 8.56643 39.1386 8.55479 39.15C8.54314 39.1615 8.52926 39.1705 8.51398 39.1764C8.49871 39.1823 8.48237 39.1851 8.46598 39.1845L8.09207 39.1699C8.0809 39.1696 8.07027 39.165 8.06246 39.157C8.05466 39.149 8.05029 39.1382 8.05029 39.127V36.1598C8.05029 36.1379 8.05899 36.1169 8.07446 36.1014C8.08993 36.086 8.11092 36.0773 8.1328 36.0773H9.11772C9.24311 36.0773 9.36341 36.1269 9.45227 36.2154C9.54114 36.3039 9.59134 36.424 9.59189 36.5494C9.59329 36.8502 9.59329 37.1705 9.59189 37.5102C9.58876 38.2299 9.1668 38.1254 8.63414 38.1442C8.59027 38.1456 8.56869 38.1682 8.56938 38.2121ZM9.06517 36.6463C9.06514 36.6404 9.06394 36.6346 9.06166 36.6291C9.05937 36.6237 9.05604 36.6188 9.05185 36.6146C9.04765 36.6105 9.04268 36.6072 9.03722 36.6049C9.03176 36.6027 9.02592 36.6016 9.02002 36.6016L8.63358 36.6036C8.62769 36.6037 8.62185 36.6049 8.61641 36.6072C8.61098 36.6094 8.60604 36.6128 8.60189 36.617C8.59774 36.6212 8.59446 36.6261 8.59223 36.6316C8.59 36.637 8.58887 36.6429 8.5889 36.6488L8.59373 37.57C8.59376 37.5759 8.59495 37.5817 8.59724 37.5871C8.59952 37.5926 8.60286 37.5975 8.60705 37.6017C8.61124 37.6058 8.61621 37.6091 8.62167 37.6113C8.62714 37.6136 8.63298 37.6147 8.63888 37.6147L9.02531 37.6126C9.03121 37.6126 9.03705 37.6114 9.04248 37.6091C9.04792 37.6068 9.05285 37.6035 9.057 37.5993C9.06115 37.5951 9.06443 37.5901 9.06666 37.5847C9.06889 37.5792 9.07002 37.5734 9.06999 37.5675L9.06517 36.6463Z" fill="#4D4D4D"/>
<path d="M11.2452 38.0304C11.2182 38.0466 11.1973 38.0712 11.1856 38.1004C11.1739 38.1296 11.1721 38.1619 11.1804 38.1923L11.428 39.0842C11.444 39.142 11.4224 39.1716 11.3632 39.173L10.983 39.1845C10.9378 39.1859 10.9092 39.1643 10.8974 39.1197L10.653 38.2048C10.6439 38.1722 10.6233 38.1439 10.5951 38.1252C10.5669 38.1065 10.5329 38.0986 10.4993 38.1029C10.4657 38.1072 10.4347 38.1235 10.4122 38.1487C10.3896 38.1739 10.3768 38.2064 10.3762 38.2403V39.0999C10.3762 39.1479 10.3522 39.1726 10.3042 39.174L9.91667 39.1845C9.87489 39.1852 9.854 39.1646 9.854 39.1229V36.1504C9.854 36.103 9.87803 36.079 9.92607 36.0783C10.1924 36.0741 11.0844 35.9759 11.3183 36.2569C11.5032 36.4794 11.4217 37.4215 11.4175 37.7306C11.4165 37.858 11.3486 37.9708 11.2452 38.0304ZM10.899 36.6769C10.899 36.6672 10.897 36.6575 10.8933 36.6485C10.8895 36.6396 10.884 36.6314 10.8771 36.6245C10.8702 36.6177 10.862 36.6122 10.853 36.6085C10.844 36.6049 10.8344 36.603 10.8246 36.603L10.4465 36.6043C10.4368 36.6044 10.4272 36.6063 10.4182 36.6101C10.4092 36.6138 10.401 36.6193 10.3942 36.6262C10.3873 36.6331 10.3819 36.6413 10.3782 36.6503C10.3745 36.6593 10.3726 36.669 10.3726 36.6787L10.3756 37.5414C10.3757 37.5512 10.3776 37.5608 10.3814 37.5698C10.3851 37.5788 10.3906 37.5869 10.3975 37.5938C10.4045 37.6007 10.4126 37.6061 10.4217 37.6098C10.4307 37.6135 10.4403 37.6154 10.4501 37.6153L10.8281 37.614C10.8379 37.614 10.8475 37.612 10.8565 37.6083C10.8655 37.6045 10.8736 37.599 10.8805 37.5921C10.8874 37.5852 10.8928 37.577 10.8965 37.568C10.9002 37.559 10.9021 37.5493 10.902 37.5396L10.899 36.6769Z" fill="#4D4D4D"/>
<path d="M13.2462 38.6538C13.2462 38.7929 13.191 38.9263 13.0927 39.0246C12.9943 39.1229 12.861 39.1782 12.7219 39.1782H12.206C12.0669 39.1782 11.9335 39.1229 11.8352 39.0246C11.7369 38.9263 11.6816 38.7929 11.6816 38.6538V36.6026C11.6816 36.4635 11.7369 36.3301 11.8352 36.2318C11.9335 36.1335 12.0669 36.0782 12.206 36.0782H12.7219C12.861 36.0782 12.9943 36.1335 13.0927 36.2318C13.191 36.3301 13.2462 36.4635 13.2462 36.6026V38.6538ZM12.7245 36.7212C12.7244 36.6885 12.7114 36.6572 12.6882 36.6341C12.6651 36.611 12.6337 36.5981 12.601 36.5981L12.3253 36.5986C12.3091 36.5986 12.2931 36.6019 12.2782 36.6081C12.2632 36.6143 12.2496 36.6234 12.2382 36.6349C12.2268 36.6463 12.2177 36.6599 12.2116 36.6749C12.2054 36.6899 12.2022 36.7059 12.2023 36.7221L12.2055 38.5373C12.2055 38.57 12.2185 38.6013 12.2417 38.6244C12.2649 38.6475 12.2962 38.6604 12.3289 38.6604L12.6046 38.6599C12.6208 38.6598 12.6368 38.6566 12.6518 38.6504C12.6667 38.6442 12.6803 38.6351 12.6917 38.6236C12.7032 38.6122 12.7122 38.5986 12.7184 38.5836C12.7245 38.5686 12.7277 38.5526 12.7277 38.5364L12.7245 36.7212Z" fill="#4D4D4D"/>
<path d="M13.5093 39.1114V36.1431C13.5093 36.1256 13.5162 36.1089 13.5285 36.0965C13.5409 36.0842 13.5576 36.0773 13.5751 36.0773H15.007C15.0161 36.0772 15.0251 36.0791 15.0335 36.0827C15.0418 36.0864 15.0493 36.0917 15.0555 36.0984C15.0617 36.105 15.0664 36.1129 15.0694 36.1215C15.0724 36.1301 15.0735 36.1392 15.0728 36.1483L15.0404 36.5389C15.0391 36.5554 15.0316 36.5709 15.0194 36.5821C15.0072 36.5933 14.9912 36.5995 14.9746 36.5995H14.0973C14.0887 36.5995 14.0801 36.6012 14.0721 36.6045C14.0641 36.6078 14.0569 36.6127 14.0508 36.6188C14.0447 36.6249 14.0398 36.6321 14.0365 36.6401C14.0332 36.6481 14.0315 36.6567 14.0315 36.6653V37.2993C14.0315 37.308 14.0332 37.3166 14.0366 37.3247C14.04 37.3327 14.0449 37.34 14.0511 37.3462C14.0574 37.3523 14.0647 37.3571 14.0728 37.3604C14.0809 37.3636 14.0896 37.3652 14.0983 37.3651L14.7574 37.3536C14.7661 37.3534 14.7748 37.355 14.7829 37.3583C14.791 37.3615 14.7984 37.3664 14.8046 37.3725C14.8108 37.3786 14.8158 37.3859 14.8191 37.394C14.8225 37.402 14.8242 37.4107 14.8242 37.4194V37.8131C14.8242 37.8306 14.8173 37.8473 14.805 37.8597C14.7926 37.872 14.7759 37.8789 14.7584 37.8789H14.0931C14.0844 37.8789 14.0757 37.8807 14.0677 37.884C14.0596 37.8874 14.0523 37.8924 14.0462 37.8986C14.0401 37.9048 14.0353 37.9122 14.032 37.9203C14.0288 37.9284 14.0272 37.9371 14.0273 37.9458L14.0409 39.1082C14.0409 39.1255 14.0341 39.1421 14.022 39.1544C14.0099 39.1667 13.9934 39.1738 13.9761 39.174L13.5751 39.1772C13.5576 39.1772 13.5409 39.1703 13.5285 39.1579C13.5162 39.1456 13.5093 39.1288 13.5093 39.1114Z" fill="#4D4D4D"/>
<path d="M15.7948 36.659L15.8126 37.3087C15.8131 37.3238 15.8195 37.3382 15.8305 37.3487C15.8414 37.3592 15.8559 37.3651 15.8711 37.3651L16.5552 37.3536C16.563 37.3534 16.5707 37.3549 16.5779 37.3577C16.5851 37.3606 16.5917 37.3649 16.5972 37.3703C16.6028 37.3758 16.6072 37.3823 16.6102 37.3894C16.6132 37.3966 16.6147 37.4043 16.6147 37.4121L16.6179 37.8204C16.6179 37.836 16.6117 37.8508 16.6007 37.8618C16.5898 37.8728 16.5749 37.8789 16.5594 37.8789H15.8565C15.8487 37.8789 15.841 37.8805 15.8338 37.8835C15.8267 37.8865 15.8202 37.8909 15.8147 37.8964C15.8093 37.902 15.805 37.9086 15.8021 37.9158C15.7993 37.923 15.7978 37.9307 15.798 37.9385L15.8116 38.6048C15.8118 38.6202 15.8181 38.6348 15.8291 38.6455C15.84 38.6563 15.8547 38.6623 15.87 38.6623H16.7672C16.7827 38.6623 16.7976 38.6684 16.8086 38.6794C16.8195 38.6904 16.8257 38.7052 16.8257 38.7208V39.126C16.8257 39.1415 16.8195 39.1564 16.8086 39.1674C16.7976 39.1783 16.7827 39.1845 16.7672 39.1845H15.3436C15.336 39.1845 15.3284 39.183 15.3213 39.18C15.3142 39.1771 15.3077 39.1728 15.3023 39.1674C15.2969 39.1619 15.2925 39.1555 15.2896 39.1484C15.2867 39.1413 15.2852 39.1337 15.2852 39.126V36.1358C15.2852 36.1281 15.2867 36.1205 15.2896 36.1134C15.2925 36.1063 15.2969 36.0998 15.3023 36.0944C15.3077 36.089 15.3142 36.0847 15.3213 36.0817C15.3284 36.0788 15.336 36.0773 15.3436 36.0773H16.7818C16.7898 36.0773 16.7977 36.0789 16.805 36.082C16.8123 36.0851 16.8189 36.0897 16.8244 36.0955C16.8298 36.1013 16.8341 36.1081 16.8368 36.1155C16.8396 36.123 16.8408 36.131 16.8403 36.1389L16.8194 36.5441C16.8186 36.5591 16.8121 36.5732 16.8012 36.5835C16.7904 36.5938 16.7759 36.5995 16.761 36.5995H15.8533C15.8456 36.5995 15.8379 36.601 15.8307 36.604C15.8235 36.607 15.817 36.6114 15.8116 36.617C15.8062 36.6225 15.8019 36.6291 15.799 36.6363C15.7961 36.6435 15.7947 36.6513 15.7948 36.659Z" fill="#4D4D4D"/>
<path d="M17.5641 36.6757L17.5547 37.2314C17.5544 37.2438 17.5582 37.256 17.5656 37.2662C17.5729 37.2764 17.5834 37.284 17.5955 37.2878L18.502 37.5802C18.521 37.5863 18.5376 37.5981 18.5496 37.614C18.5616 37.6299 18.5683 37.6491 18.5689 37.669C18.5845 38.2643 18.76 39.0644 18.1271 39.1594C17.3187 39.2816 16.9145 39.0926 17.0503 38.1944C17.0551 38.1582 17.076 38.1401 17.1129 38.1401H17.5119C17.5197 38.1401 17.5274 38.1416 17.5346 38.1446C17.5418 38.1477 17.5483 38.1521 17.5537 38.1577C17.559 38.1633 17.5632 38.1699 17.5659 38.1771C17.5686 38.1843 17.5698 38.1919 17.5693 38.1996L17.5547 38.5557C17.5542 38.5674 17.5559 38.579 17.5599 38.5899C17.5638 38.6008 17.5699 38.6108 17.5778 38.6194C17.5857 38.6279 17.5952 38.6348 17.6057 38.6397C17.6163 38.6446 17.6277 38.6473 17.6393 38.6477L17.9579 38.6581C17.9701 38.6585 17.9822 38.6565 17.9936 38.6521C18.005 38.6477 18.0154 38.6411 18.0242 38.6326C18.0329 38.6241 18.0399 38.614 18.0447 38.6028C18.0494 38.5915 18.0519 38.5794 18.0519 38.5672L18.0529 38.0659C18.0536 38.0193 18.0317 37.9886 17.9871 37.974L17.1443 37.7024C17.113 37.6927 17.0856 37.6733 17.0661 37.647C17.0466 37.6207 17.0359 37.5889 17.0356 37.5562C17.0325 37.2585 16.9667 36.5828 17.1035 36.3238C17.2915 35.9645 18.2702 35.9958 18.4811 36.2799C18.6232 36.471 18.5814 36.8293 18.572 37.0716C18.5715 37.0853 18.5657 37.0984 18.556 37.1079C18.5463 37.1174 18.5333 37.1228 18.5198 37.1228L18.1208 37.1207C18.0762 37.12 18.054 37.0974 18.054 37.0528L18.0508 36.6799C18.0508 36.6602 18.0431 36.6412 18.0292 36.6271C18.0153 36.613 17.9964 36.605 17.9767 36.6047L17.6435 36.5985C17.6332 36.5983 17.623 36.6002 17.6134 36.604C17.6039 36.6078 17.5952 36.6135 17.5878 36.6207C17.5804 36.6278 17.5745 36.6364 17.5705 36.6458C17.5664 36.6553 17.5643 36.6655 17.5641 36.6757Z" fill="#4D4D4D"/>
<path d="M19.778 36.6046L19.4584 36.5984C19.4454 36.5982 19.4325 36.6006 19.4205 36.6054C19.4085 36.6103 19.3975 36.6174 19.3883 36.6264C19.3791 36.6355 19.3717 36.6462 19.3667 36.6581C19.3617 36.6699 19.3592 36.6826 19.3592 36.6955L19.3571 37.1989C19.3571 37.2199 19.3638 37.2403 19.3762 37.2573C19.3885 37.2744 19.406 37.2872 19.426 37.294L20.3159 37.5916C20.3312 37.5969 20.3446 37.6065 20.3543 37.6194C20.364 37.6323 20.3695 37.6477 20.3702 37.6637C20.3879 38.3029 20.5822 39.1029 19.8511 39.1646C19.0155 39.2366 18.7565 39.0779 18.8495 38.2005C18.8537 38.1601 18.8759 38.14 18.9163 38.14H19.2808C19.2981 38.1399 19.3151 38.1441 19.3305 38.152C19.3458 38.16 19.359 38.1715 19.369 38.1857C19.3789 38.1998 19.3853 38.2161 19.3876 38.2333C19.3899 38.2504 19.388 38.2678 19.3821 38.2841C19.2902 38.5368 19.3748 38.666 19.6359 38.6716C19.6644 38.6723 19.6926 38.6673 19.7191 38.6569C19.7455 38.6465 19.7696 38.6309 19.79 38.611C19.8103 38.5912 19.8265 38.5675 19.8375 38.5413C19.8486 38.5151 19.8542 38.4869 19.8542 38.4585V38.0595C19.8543 38.0427 19.8491 38.0264 19.8393 38.0127C19.8296 37.999 19.8158 37.9887 19.7999 37.9833L18.8965 37.6794C18.8795 37.6739 18.8648 37.6632 18.8543 37.649C18.8438 37.6347 18.8381 37.6176 18.838 37.6C18.8338 37.2845 18.7638 36.5587 18.9163 36.3111C19.1231 35.9748 20.0454 35.98 20.2804 36.2829C20.4235 36.4688 20.3848 36.8334 20.3723 37.0704C20.3702 37.1046 20.3524 37.1216 20.319 37.1216H19.9336C19.8814 37.1216 19.8553 37.0959 19.8553 37.0443L19.8521 36.6798C19.8521 36.6601 19.8444 36.6411 19.8305 36.627C19.8166 36.6129 19.7977 36.6049 19.778 36.6046Z" fill="#4D4D4D"/>
<path d="M21.1278 36.0793H20.7706C20.7239 36.0793 20.686 36.1172 20.686 36.1639V39.0947C20.686 39.1414 20.7239 39.1793 20.7706 39.1793H21.1278C21.1746 39.1793 21.2124 39.1414 21.2124 39.0947V36.1639C21.2124 36.1172 21.1746 36.0793 21.1278 36.0793Z" fill="#4D4D4D"/>
<path d="M23.0548 38.6647C23.0546 38.732 23.0413 38.7987 23.0154 38.8609C22.9895 38.923 22.9516 38.9795 22.9039 39.027C22.8562 39.0746 22.7996 39.1123 22.7374 39.1379C22.6751 39.1636 22.6084 39.1767 22.541 39.1766L22.0105 39.1757C21.8745 39.1754 21.7441 39.1212 21.6481 39.0248C21.5521 38.9285 21.4983 38.798 21.4985 38.662L21.5021 36.5919C21.5023 36.5245 21.5156 36.4579 21.5415 36.3957C21.5674 36.3335 21.6053 36.2771 21.653 36.2295C21.7007 36.182 21.7573 36.1443 21.8196 36.1186C21.8818 36.093 21.9485 36.0798 22.0159 36.08L22.5464 36.0809C22.6825 36.0811 22.8128 36.1354 22.9088 36.2317C23.0048 36.3281 23.0586 36.4586 23.0584 36.5946L23.0548 38.6647ZM22.5422 36.7212C22.5421 36.6886 22.5291 36.6572 22.5059 36.6342C22.4828 36.6111 22.4514 36.5982 22.4187 36.5982L22.143 36.5987C22.1268 36.5987 22.1108 36.6019 22.0958 36.6082C22.0809 36.6144 22.0673 36.6235 22.0559 36.6349C22.0445 36.6464 22.0354 36.66 22.0292 36.675C22.0231 36.6899 22.0199 36.706 22.0199 36.7222L22.0231 38.5374C22.0232 38.5701 22.0362 38.6014 22.0594 38.6245C22.0825 38.6476 22.1139 38.6605 22.1466 38.6604L22.4223 38.66C22.4385 38.6599 22.4545 38.6567 22.4694 38.6505C22.4844 38.6443 22.498 38.6352 22.5094 38.6237C22.5208 38.6122 22.5299 38.5986 22.536 38.5837C22.5422 38.5687 22.5454 38.5527 22.5453 38.5365L22.5422 36.7212Z" fill="#4D4D4D"/>
<path d="M23.8308 37.5969L23.8569 39.0978C23.8583 39.1507 23.8325 39.1771 23.7796 39.1771L23.3754 39.1761C23.326 39.1761 23.3013 39.1514 23.3013 39.1019V36.1399C23.3013 36.0988 23.3218 36.0783 23.3629 36.0783L23.7566 36.0845C23.7984 36.0845 23.8259 36.1044 23.8392 36.1441L24.3708 37.6857C24.3724 37.6952 24.3778 37.7037 24.3858 37.7093C24.3937 37.7149 24.4035 37.7171 24.4131 37.7154C24.4226 37.7138 24.4311 37.7084 24.4367 37.7004C24.4423 37.6925 24.4445 37.6827 24.4428 37.6731L24.4167 36.1514C24.416 36.1033 24.4397 36.079 24.4878 36.0783L24.8805 36.0762C24.8926 36.0762 24.9047 36.0786 24.9159 36.0833C24.9271 36.088 24.9373 36.0948 24.9458 36.1035C24.9544 36.1121 24.9611 36.1224 24.9657 36.1336C24.9702 36.1449 24.9725 36.157 24.9724 36.1691L24.9484 38.9651C24.9481 39.0309 24.9245 39.0944 24.8817 39.1444C24.839 39.1944 24.7799 39.2276 24.715 39.2381C24.6501 39.2487 24.5835 39.2358 24.5272 39.2019C24.4709 39.168 24.4284 39.1151 24.4073 39.0528L23.8987 37.5854C23.8968 37.5767 23.8916 37.5692 23.8843 37.5642C23.877 37.5592 23.868 37.5573 23.8593 37.5588C23.8505 37.5603 23.8427 37.565 23.8374 37.5721C23.8321 37.5792 23.8297 37.5881 23.8308 37.5969Z" fill="#4D4D4D"/>
<path d="M25.7338 38.6351L25.6534 39.1019C25.6498 39.1232 25.6388 39.1426 25.6224 39.1567C25.606 39.1708 25.5852 39.1788 25.5636 39.1792L25.2137 39.1865C25.1997 39.1867 25.1859 39.1837 25.1732 39.1778C25.1605 39.1718 25.1494 39.1631 25.1405 39.1523C25.1317 39.1415 25.1254 39.1288 25.1222 39.1152C25.1189 39.1016 25.1188 39.0874 25.1218 39.0737L25.7474 36.1514C25.7519 36.1306 25.7634 36.1121 25.7799 36.0988C25.7965 36.0855 25.817 36.0783 25.8383 36.0783L26.3417 36.0762C26.363 36.0762 26.3837 36.0836 26.4003 36.0971C26.4168 36.1106 26.4282 36.1294 26.4326 36.1503L27.0592 39.0675C27.062 39.0808 27.0618 39.0946 27.0586 39.1078C27.0555 39.1211 27.0494 39.1334 27.041 39.1441C27.0325 39.1548 27.0218 39.1634 27.0096 39.1695C26.9974 39.1756 26.9841 39.1789 26.9704 39.1792L26.6268 39.1865C26.605 39.1869 26.5836 39.1796 26.5666 39.1659C26.5496 39.1521 26.538 39.1328 26.5339 39.1113L26.4409 38.633C26.4368 38.6119 26.4255 38.5928 26.4089 38.5791C26.3924 38.5654 26.3715 38.5579 26.35 38.5578H25.8257C25.8037 38.5577 25.7824 38.5654 25.7656 38.5796C25.7488 38.5937 25.7375 38.6134 25.7338 38.6351ZM25.8633 38.0627C25.8626 38.0677 25.8629 38.0727 25.8643 38.0775C25.8657 38.0823 25.8681 38.0868 25.8714 38.0905C25.8747 38.0943 25.8787 38.0973 25.8833 38.0994C25.8878 38.1014 25.8928 38.1025 25.8978 38.1024L26.2874 38.1014C26.2924 38.1013 26.2973 38.1001 26.3019 38.0979C26.3064 38.0958 26.3104 38.0926 26.3135 38.0888C26.3167 38.0849 26.319 38.0803 26.3203 38.0755C26.3215 38.0706 26.3217 38.0656 26.3208 38.0606L26.1224 36.9107C26.1209 36.9027 26.1168 36.8955 26.1106 36.8903C26.1044 36.8851 26.0965 36.8822 26.0884 36.8822C26.0803 36.8822 26.0725 36.8851 26.0662 36.8903C26.06 36.8955 26.0559 36.9027 26.0545 36.9107L25.8633 38.0627Z" fill="#4D4D4D"/>
<path d="M28.7322 38.7458V39.103C28.7322 39.1251 28.7234 39.1464 28.7077 39.162C28.6921 39.1777 28.6708 39.1865 28.6487 39.1865L27.3013 39.1782C27.2792 39.1782 27.2579 39.1694 27.2422 39.1537C27.2266 39.138 27.2178 39.1168 27.2178 39.0946V36.1618C27.2178 36.1396 27.2266 36.1184 27.2422 36.1027C27.2579 36.0871 27.2792 36.0782 27.3013 36.0782H27.6867C27.7089 36.0782 27.7301 36.0871 27.7458 36.1027C27.7615 36.1184 27.7703 36.1396 27.7703 36.1618L27.7588 38.5776C27.7588 38.5998 27.7676 38.621 27.7833 38.6367C27.7989 38.6524 27.8202 38.6612 27.8424 38.6612L28.6487 38.6622C28.6708 38.6622 28.6921 38.671 28.7077 38.6867C28.7234 38.7023 28.7322 38.7236 28.7322 38.7458Z" fill="#4D4D4D"/>
<path d="M30.4033 37.9573V39.102C30.4033 39.1226 30.3952 39.1423 30.3807 39.157C30.3663 39.1717 30.3466 39.18 30.326 39.1803L29.9344 39.1845C29.924 39.1846 29.9137 39.1827 29.9041 39.1788C29.8944 39.175 29.8857 39.1692 29.8783 39.1619C29.8709 39.1546 29.865 39.146 29.861 39.1364C29.857 39.1268 29.855 39.1165 29.855 39.1062V36.1556C29.855 36.1348 29.8632 36.1149 29.8779 36.1002C29.8926 36.0855 29.9125 36.0773 29.9333 36.0773H31.3402C31.361 36.0773 31.3809 36.0855 31.3956 36.1002C31.4103 36.1149 31.4185 36.1348 31.4185 36.1556V36.5212C31.4185 36.5419 31.4103 36.5619 31.3956 36.5765C31.3809 36.5912 31.361 36.5995 31.3402 36.5995H30.4816C30.4609 36.5995 30.4409 36.6077 30.4263 36.6224C30.4116 36.6371 30.4033 36.6571 30.4033 36.6778V37.2784C30.4033 37.2992 30.4116 37.3191 30.4263 37.3338C30.4409 37.3485 30.4609 37.3567 30.4816 37.3567H31.1062C31.127 37.3567 31.1469 37.365 31.1616 37.3797C31.1763 37.3943 31.1846 37.4143 31.1846 37.435L31.1877 37.8006C31.1877 37.8214 31.1794 37.8413 31.1647 37.856C31.1501 37.8707 31.1301 37.8789 31.1094 37.8789H30.4816C30.4609 37.8789 30.4409 37.8872 30.4263 37.9019C30.4116 37.9166 30.4033 37.9365 30.4033 37.9573Z" fill="#4D4D4D"/>
<path d="M32.0923 36.0762H31.7686C31.7063 36.0762 31.6558 36.1267 31.6558 36.189V39.0675C31.6558 39.1298 31.7063 39.1803 31.7686 39.1803H32.0923C32.1546 39.1803 32.2051 39.1298 32.2051 39.0675V36.189C32.2051 36.1267 32.1546 36.0762 32.0923 36.0762Z" fill="#4D4D4D"/>
<path d="M33.5082 37.9927L33.3599 37.977C33.344 37.9757 33.3291 37.9684 33.3182 37.9566C33.3074 37.9448 33.3014 37.9294 33.3014 37.9133V37.5384C33.3014 37.5189 33.3091 37.5002 33.3228 37.4863C33.3365 37.4724 33.3551 37.4645 33.3745 37.4642L34.0023 37.459C34.044 37.459 34.0663 37.4802 34.0691 37.5227C34.1401 38.6768 34.254 39.41 32.8314 39.1531C32.5735 39.1071 32.4659 38.9139 32.4648 38.6528C32.46 37.9558 32.4624 37.2581 32.4721 36.5597C32.4795 35.9884 33.1061 36.0699 33.5114 36.0814C34.0973 36.0981 34.1527 36.5911 34.0681 37.0506C34.0597 37.0987 34.0312 37.1227 33.9824 37.1227L33.6304 37.1206C33.6123 37.1203 33.5951 37.1129 33.5824 37.1C33.5697 37.0871 33.5625 37.0698 33.5626 37.0517V36.6934C33.5626 36.6699 33.5532 36.6473 33.5365 36.6306C33.5199 36.614 33.4973 36.6046 33.4738 36.6046H33.0508C33.009 36.6046 32.9881 36.6255 32.9881 36.6673V38.5515C32.9881 38.5898 33.0062 38.6149 33.0424 38.6267C33.1907 38.6768 33.3394 38.6803 33.4884 38.6371C33.5097 38.6312 33.5285 38.6184 33.5418 38.6007C33.5552 38.583 33.5625 38.5613 33.5626 38.539V38.0522C33.5626 38.016 33.5444 37.9962 33.5082 37.9927Z" fill="#4D4D4D"/>
<path d="M34.8619 37.9394L34.8713 39.1175C34.8714 39.1258 34.8699 39.1339 34.8668 39.1415C34.8637 39.1492 34.8591 39.1561 34.8532 39.1618C34.8473 39.1676 34.8404 39.1721 34.8327 39.1751C34.825 39.1781 34.8169 39.1795 34.8086 39.1792L34.3867 39.1698C34.3708 39.1695 34.3557 39.163 34.3445 39.1517C34.3334 39.1403 34.3271 39.1251 34.3271 39.1092L34.3418 36.1419C34.3418 36.126 34.348 36.1108 34.3591 36.0995C34.3703 36.0881 34.3854 36.0816 34.4013 36.0813L34.8065 36.0751C34.8146 36.0749 34.8226 36.0764 34.8301 36.0794C34.8375 36.0824 34.8443 36.0868 34.8501 36.0925C34.8558 36.0981 34.8604 36.1048 34.8635 36.1122C34.8666 36.1197 34.8682 36.1276 34.8682 36.1357V37.2919C34.8682 37.3076 34.8743 37.3227 34.8852 37.334C34.8961 37.3453 34.911 37.3519 34.9267 37.3524L35.2849 37.3671C35.2931 37.3673 35.3013 37.366 35.309 37.363C35.3166 37.36 35.3236 37.3555 35.3295 37.3497C35.3353 37.3439 35.34 37.337 35.3431 37.3294C35.3462 37.3218 35.3477 37.3137 35.3476 37.3054L35.334 36.1367C35.3338 36.1286 35.3353 36.1205 35.3384 36.113C35.3414 36.1054 35.346 36.0986 35.3517 36.0928C35.3575 36.0871 35.3643 36.0825 35.3719 36.0795C35.3794 36.0764 35.3875 36.0749 35.3956 36.0751L35.8029 36.0813C35.8188 36.0816 35.834 36.0881 35.8451 36.0995C35.8562 36.1108 35.8625 36.126 35.8625 36.1419L35.8656 39.1134C35.8656 39.1293 35.8594 39.1445 35.8482 39.1558C35.8371 39.1672 35.822 39.1737 35.8061 39.1739L35.3956 39.1844C35.3876 39.1845 35.3796 39.1831 35.3721 39.1801C35.3646 39.1771 35.3578 39.1727 35.3521 39.167C35.3464 39.1614 35.3418 39.1547 35.3387 39.1472C35.3356 39.1398 35.334 39.1319 35.334 39.1238L35.3476 37.9405C35.3477 37.9324 35.3462 37.9244 35.3433 37.917C35.3403 37.9095 35.3358 37.9027 35.3302 37.8969C35.3246 37.8912 35.3178 37.8867 35.3104 37.8835C35.303 37.8804 35.295 37.8788 35.287 37.8788H34.9225C34.9064 37.8788 34.891 37.8852 34.8796 37.8966C34.8683 37.9079 34.8619 37.9233 34.8619 37.9394Z" fill="#4D4D4D"/>
<path d="M36.5438 36.5995H36.1741C36.1641 36.5995 36.1542 36.5975 36.1449 36.5937C36.1357 36.5899 36.1273 36.5842 36.1202 36.5772C36.1131 36.5701 36.1075 36.5617 36.1037 36.5524C36.0998 36.5432 36.0979 36.5333 36.0979 36.5232L36.0947 36.1535C36.0947 36.1333 36.1028 36.1139 36.1171 36.0996C36.1314 36.0853 36.1508 36.0773 36.171 36.0773H37.5758C37.5859 36.0773 37.5959 36.0793 37.6052 36.0832C37.6145 36.0871 37.6229 36.0928 37.63 36.1C37.6371 36.1072 37.6427 36.1157 37.6465 36.1251C37.6503 36.1344 37.6521 36.1445 37.652 36.1546L37.6457 36.5243C37.6455 36.5443 37.6373 36.5635 37.623 36.5775C37.6088 36.5916 37.5895 36.5995 37.5695 36.5995H37.2165C37.2064 36.5995 37.1965 36.6015 37.1873 36.6053C37.178 36.6091 37.1696 36.6147 37.1625 36.6218C37.1555 36.6289 37.1499 36.6373 37.146 36.6466C37.1422 36.6558 37.1402 36.6657 37.1402 36.6757V39.1114C37.1402 39.1216 37.1382 39.1317 37.1342 39.141C37.1303 39.1504 37.1245 39.1589 37.1172 39.166C37.1098 39.1732 37.1012 39.1787 37.0917 39.1824C37.0822 39.1861 37.0721 39.1879 37.0619 39.1876L36.688 39.1761C36.6681 39.1756 36.6493 39.1673 36.6354 39.1531C36.6216 39.1388 36.6138 39.1198 36.6138 39.0999L36.6201 36.6757C36.6201 36.6555 36.612 36.6361 36.5978 36.6218C36.5835 36.6075 36.5641 36.5995 36.5438 36.5995Z" fill="#4D4D4D"/>
<path d="M38.4675 37.3609L39.1286 37.3557C39.1383 37.3555 39.1479 37.3573 39.1569 37.3609C39.1659 37.3645 39.1741 37.3699 39.181 37.3767C39.1879 37.3835 39.1934 37.3916 39.1971 37.4006C39.2008 37.4095 39.2028 37.4191 39.2028 37.4288V37.8058C39.2028 37.8252 39.1951 37.8438 39.1813 37.8575C39.1676 37.8712 39.149 37.8789 39.1296 37.8789H38.4664C38.447 37.8789 38.4284 37.8866 38.4147 37.9004C38.401 37.9141 38.3933 37.9327 38.3933 37.952V38.5892C38.3933 38.6085 38.401 38.6271 38.4147 38.6409C38.4284 38.6546 38.447 38.6623 38.4664 38.6623H39.3563C39.3664 38.6622 39.3763 38.6643 39.3855 38.6683C39.3948 38.6723 39.4031 38.6781 39.4099 38.6855C39.4168 38.6928 39.4221 38.7015 39.4254 38.711C39.4288 38.7205 39.4301 38.7306 39.4294 38.7406L39.4043 39.1187C39.4033 39.1373 39.3951 39.1549 39.3815 39.1677C39.3679 39.1805 39.3499 39.1877 39.3312 39.1876L37.9442 39.1772C37.9248 39.1772 37.9062 39.1695 37.8925 39.1558C37.8788 39.1421 37.8711 39.1235 37.8711 39.1041V36.1504C37.8711 36.131 37.8788 36.1124 37.8925 36.0987C37.9062 36.085 37.9248 36.0773 37.9442 36.0773H39.3605C39.3706 36.0772 39.3807 36.0793 39.39 36.0834C39.3993 36.0874 39.4076 36.0934 39.4145 36.1009C39.4214 36.1083 39.4266 36.1171 39.4299 36.1267C39.4332 36.1363 39.4345 36.1465 39.4336 36.1566L39.4033 36.5326C39.4017 36.5509 39.3933 36.568 39.3798 36.5803C39.3662 36.5927 39.3485 36.5996 39.3302 36.5995H38.4664C38.447 36.5995 38.4284 36.6072 38.4147 36.6209C38.401 36.6346 38.3933 36.6532 38.3933 36.6726V37.2878C38.3933 37.2975 38.3952 37.3071 38.399 37.316C38.4027 37.3249 38.4082 37.333 38.4151 37.3399C38.422 37.3467 38.4302 37.352 38.4392 37.3556C38.4482 37.3592 38.4578 37.361 38.4675 37.3609Z" fill="#4D4D4D"/>
<path d="M40.4497 38.2027C40.4412 38.168 40.4202 38.1378 40.3908 38.1177C40.3614 38.0976 40.3255 38.0892 40.2902 38.094C40.2549 38.0988 40.2226 38.1165 40.1996 38.1437C40.1766 38.1709 40.1645 38.2057 40.1656 38.2413L40.176 39.0977C40.1763 39.1181 40.1684 39.1377 40.1542 39.1523C40.1399 39.167 40.1204 39.1755 40.0998 39.1761L39.7175 39.1865C39.7083 39.1868 39.6991 39.1852 39.6905 39.1819C39.6819 39.1785 39.674 39.1735 39.6674 39.1671C39.6608 39.1606 39.6555 39.153 39.6519 39.1445C39.6483 39.136 39.6465 39.1268 39.6465 39.1176V36.1545C39.6465 36.1078 39.6695 36.0838 39.7154 36.0824C40.341 36.0594 41.2299 35.838 41.2372 36.7561C41.2414 37.1436 41.3615 37.8225 40.9959 38.069C40.9653 38.0899 40.9548 38.1181 40.9646 38.1536L41.2236 39.0894C41.2265 39.1002 41.2268 39.1114 41.2247 39.1224C41.2225 39.1333 41.2179 39.1436 41.2111 39.1525C41.2044 39.1613 41.1957 39.1686 41.1857 39.1735C41.1757 39.1785 41.1648 39.1812 41.1536 39.1813H40.7713C40.7525 39.1812 40.7342 39.175 40.7193 39.1634C40.7044 39.1519 40.6937 39.1358 40.6888 39.1176L40.4497 38.2027ZM40.7118 36.7129C40.7117 36.6824 40.6994 36.6533 40.6778 36.6318C40.6561 36.6104 40.6268 36.5984 40.5964 36.5986L40.2788 36.6003C40.2638 36.6003 40.2488 36.6034 40.2349 36.6092C40.221 36.6151 40.2084 36.6236 40.1978 36.6343C40.1872 36.6451 40.1788 36.6578 40.1731 36.6717C40.1674 36.6857 40.1645 36.7007 40.1646 36.7158L40.1687 37.5033C40.1688 37.5337 40.1811 37.5629 40.2028 37.5843C40.2244 37.6057 40.2537 37.6177 40.2842 37.6175L40.6017 37.6159C40.6168 37.6158 40.6317 37.6128 40.6456 37.6069C40.6595 37.6011 40.6721 37.5925 40.6827 37.5818C40.6934 37.5711 40.7018 37.5584 40.7075 37.5444C40.7132 37.5304 40.716 37.5155 40.716 37.5004L40.7118 36.7129Z" fill="#4D4D4D"/>
<path d="M42.4302 37.9823L41.5466 37.6888C41.521 37.6806 41.4986 37.6646 41.4822 37.643C41.4658 37.6213 41.4562 37.5951 41.4547 37.5677C41.4087 36.682 41.2427 35.9895 42.4657 36.0814C43.0945 36.1295 43.0234 36.5932 43.014 37.058C43.0135 37.0746 43.0066 37.0904 42.9947 37.1021C42.9829 37.1138 42.967 37.1204 42.9503 37.1207L42.5451 37.1228C42.5341 37.1228 42.5231 37.1206 42.513 37.1161C42.503 37.1117 42.4939 37.1051 42.4865 37.0969C42.4791 37.0888 42.4735 37.0791 42.4701 37.0686C42.4667 37.0581 42.4656 37.047 42.4668 37.0361L42.5012 36.7081C42.5024 36.697 42.5013 36.6858 42.4981 36.6751C42.4948 36.6645 42.4895 36.6546 42.4823 36.6461C42.4752 36.6376 42.4664 36.6307 42.4566 36.6257C42.4467 36.6208 42.436 36.6179 42.425 36.6172L42.0897 36.5974C42.0778 36.5967 42.0658 36.5984 42.0545 36.6025C42.0433 36.6066 42.033 36.613 42.0243 36.6212C42.0156 36.6294 42.0086 36.6393 42.0039 36.6503C41.9992 36.6613 41.9967 36.6732 41.9968 36.6851V37.223C41.9967 37.2397 42.002 37.256 42.012 37.2695C42.0219 37.2831 42.036 37.2931 42.0521 37.2982L42.9044 37.574C42.9355 37.584 42.9626 37.6034 42.9821 37.6297C43.0016 37.6559 43.0124 37.6875 43.013 37.7202C43.0172 38.0231 43.0976 38.7866 42.8762 39.0153C42.6527 39.243 42.0218 39.2085 41.7618 39.1323C41.4286 39.0341 41.4338 38.5338 41.4557 38.2027C41.4585 38.1616 41.4808 38.1411 41.5226 38.1411H41.9289C41.9741 38.1411 41.9968 38.1637 41.9968 38.209V38.5348C41.9967 38.5522 42.0015 38.5692 42.0105 38.5841C42.0195 38.5991 42.0324 38.6113 42.0479 38.6194C42.1767 38.6856 42.3042 38.6838 42.4302 38.6142C42.4492 38.6038 42.465 38.5884 42.476 38.5696C42.487 38.5509 42.4928 38.5295 42.4929 38.5077V38.0701C42.4928 38.0506 42.4868 38.0317 42.4755 38.016C42.4643 38.0002 42.4484 37.9885 42.4302 37.9823Z" fill="#4D4D4D"/>
<path d="M45.8243 38.7855C45.8452 38.899 45.8428 39.0108 45.817 39.1208C45.8066 39.1633 45.7794 39.1845 45.7355 39.1845H44.4248C44.3971 39.1845 44.3705 39.1735 44.3509 39.1539C44.3313 39.1343 44.3203 39.1077 44.3203 39.08V36.142C44.3203 36.0989 44.3419 36.0773 44.3851 36.0773H44.7809C44.7989 36.0773 44.8162 36.0844 44.8289 36.0972C44.8416 36.1099 44.8488 36.1272 44.8488 36.1452L44.8394 38.5954C44.8394 38.64 44.8617 38.6623 44.9062 38.6623H45.7606C45.7954 38.6623 45.817 38.6793 45.8254 38.7134C45.8288 38.726 45.8292 38.7382 45.8264 38.75C45.8229 38.7618 45.8222 38.7737 45.8243 38.7855Z" fill="#4D4D4D"/>
<path d="M45.9982 39.1187L45.9888 36.1431C45.9888 36.1256 45.9957 36.1089 46.008 36.0965C46.0204 36.0842 46.0371 36.0773 46.0546 36.0773H47.4865C47.4956 36.0772 47.5046 36.0791 47.513 36.0827C47.5213 36.0864 47.5288 36.0917 47.535 36.0984C47.5412 36.105 47.5459 36.1129 47.5489 36.1215C47.5519 36.1301 47.553 36.1392 47.5523 36.1483L47.5241 36.5389C47.5228 36.5554 47.5153 36.5709 47.5031 36.5821C47.4909 36.5933 47.4749 36.5995 47.4583 36.5995H46.5799C46.5625 36.5995 46.5457 36.6064 46.5334 36.6188C46.5211 36.6311 46.5141 36.6478 46.5141 36.6653V37.3003C46.5141 37.309 46.5159 37.3177 46.5192 37.3257C46.5226 37.3338 46.5275 37.3411 46.5338 37.3472C46.54 37.3533 46.5474 37.3582 46.5555 37.3614C46.5636 37.3647 46.5722 37.3663 46.581 37.3661L47.2567 37.3525C47.2655 37.3524 47.2741 37.354 47.2822 37.3572C47.2903 37.3605 47.2977 37.3653 47.3039 37.3714C47.3101 37.3776 47.3151 37.3849 47.3185 37.3929C47.3218 37.401 47.3236 37.4096 47.3236 37.4183V37.8131C47.3236 37.8306 47.3166 37.8473 47.3043 37.8597C47.292 37.872 47.2752 37.8789 47.2578 37.8789H46.5799C46.5625 37.8789 46.5457 37.8859 46.5334 37.8982C46.5211 37.9105 46.5141 37.9273 46.5141 37.9447V38.5965C46.5141 38.6139 46.5211 38.6307 46.5334 38.643C46.5457 38.6553 46.5625 38.6623 46.5799 38.6623H47.4667C47.4841 38.6623 47.5008 38.6692 47.5132 38.6815C47.5255 38.6939 47.5325 38.7106 47.5325 38.7281V39.1187C47.5325 39.1361 47.5255 39.1529 47.5132 39.1652C47.5008 39.1776 47.4841 39.1845 47.4667 39.1845H46.064C46.0465 39.1845 46.0298 39.1776 46.0174 39.1652C46.0051 39.1529 45.9982 39.1361 45.9982 39.1187Z" fill="#4D4D4D"/>
<path d="M48.1922 39.1552C48.0856 39.2033 47.8517 39.196 47.742 39.1532C47.7121 39.1413 47.7006 39.1194 47.7075 39.0874L48.3352 36.1702C48.3408 36.1439 48.3552 36.1202 48.3762 36.1033C48.3971 36.0864 48.4232 36.0772 48.4501 36.0773H48.9128C48.9403 36.0772 48.9669 36.0866 48.9883 36.1039C49.0096 36.1212 49.0243 36.1454 49.0298 36.1723L49.6502 39.0874C49.662 39.1431 49.6394 39.1716 49.5823 39.173L49.2084 39.1845C49.1624 39.1859 49.1353 39.1636 49.1269 39.1176L49.0288 38.608C49.0218 38.5745 49.0013 38.5578 48.9671 38.5578H48.3937C48.3769 38.5579 48.3606 38.5639 48.3478 38.5748C48.335 38.5857 48.3265 38.6008 48.3238 38.6174L48.2548 39.0727C48.2519 39.0905 48.2447 39.1073 48.2338 39.1216C48.2228 39.136 48.2086 39.1475 48.1922 39.1552ZM48.4543 38.0523C48.4536 38.0572 48.4539 38.0621 48.4552 38.0669C48.4565 38.0716 48.4589 38.076 48.462 38.0797C48.4652 38.0835 48.4691 38.0865 48.4736 38.0887C48.478 38.0908 48.4828 38.0919 48.4877 38.092L48.8773 38.091C48.8823 38.0909 48.8873 38.0897 48.8918 38.0876C48.8963 38.0854 48.9003 38.0822 48.9035 38.0784C48.9067 38.0745 48.909 38.07 48.9102 38.0651C48.9115 38.0602 48.9117 38.0552 48.9107 38.0502L48.7123 36.918C48.7108 36.9101 48.7065 36.9029 48.7002 36.8978C48.6939 36.8927 48.686 36.8899 48.6779 36.8901C48.6698 36.8902 48.662 36.8932 48.6559 36.8985C48.6497 36.9038 48.6457 36.9111 48.6444 36.9191L48.4543 38.0523Z" fill="#4D4D4D"/>
<path d="M50.351 38.6539L50.7563 38.6549C50.7803 38.6549 50.8035 38.6454 50.8205 38.6283C50.8375 38.6113 50.8471 38.5882 50.8471 38.5641L50.8482 38.0356C50.8489 38.0008 50.8315 37.9834 50.7959 37.9834H50.6654C50.6132 37.9834 50.5871 37.9572 50.5871 37.905V37.5301C50.5871 37.5212 50.5888 37.5123 50.5922 37.5041C50.5956 37.4958 50.6006 37.4884 50.6069 37.4821C50.6132 37.4758 50.6207 37.4708 50.629 37.4673C50.6372 37.4639 50.646 37.4622 50.6549 37.4622L51.2639 37.4611C51.2789 37.461 51.2938 37.4639 51.3077 37.4696C51.3216 37.4754 51.3342 37.4839 51.3447 37.4946C51.3552 37.5053 51.3635 37.5181 51.369 37.532C51.3745 37.546 51.3771 37.561 51.3767 37.576C51.3683 37.8789 51.4132 38.7354 51.2722 38.961C51.0905 39.2524 50.3374 39.2043 50.116 39.1563C49.8653 39.102 49.7372 38.9258 49.7317 38.6278C49.7122 37.5367 49.7125 36.8453 49.7327 36.5535C49.7713 35.9906 50.4314 36.0699 50.821 36.0835C51.4414 36.1054 51.3589 36.6036 51.3631 37.0371C51.3631 37.0479 51.361 37.0587 51.3569 37.0687C51.3528 37.0787 51.3468 37.0878 51.3392 37.0954C51.3316 37.1031 51.3227 37.1092 51.3128 37.1133C51.3029 37.1175 51.2923 37.1196 51.2816 37.1196L50.9537 37.1227C50.9257 37.1227 50.8988 37.1117 50.8791 37.0921C50.8593 37.0726 50.8482 37.046 50.8482 37.0183V36.6862C50.8482 36.6658 50.8402 36.6463 50.8259 36.6319C50.8116 36.6174 50.7922 36.6091 50.7719 36.6089L50.351 36.6036C50.2995 36.6029 50.2737 36.628 50.2737 36.6788V38.5766C50.2737 38.5969 50.2818 38.6164 50.2963 38.6309C50.3108 38.6454 50.3304 38.6536 50.351 38.6539Z" fill="#4D4D4D"/>
<path d="M53.1482 38.7917C53.1451 39.2502 51.614 39.5093 51.6087 38.5714C51.6046 37.7664 51.6039 36.9573 51.6067 36.1441C51.6067 36.1261 51.6139 36.1088 51.6268 36.0961C51.6398 36.0833 51.6573 36.0762 51.6756 36.0762L52.0683 36.0814C52.1254 36.0821 52.1539 36.111 52.1539 36.1681V38.5588C52.1539 38.5971 52.172 38.6225 52.2082 38.6351C52.3392 38.6796 52.4673 38.6758 52.5926 38.6236C52.6323 38.6069 52.6521 38.5769 52.6521 38.5337L52.6448 36.1524C52.6448 36.1037 52.6692 36.079 52.7179 36.0783L53.0699 36.0762C53.0929 36.0762 53.115 36.0853 53.1312 36.1016C53.1475 36.1178 53.1566 36.1399 53.1566 36.1629C53.158 37.068 53.1552 37.9443 53.1482 38.7917Z" fill="#4D4D4D"/>
<path d="M53.9932 38.6623H54.9102C54.9271 38.6623 54.9433 38.669 54.9552 38.6809C54.9672 38.6929 54.9739 38.7091 54.9739 38.726V39.1197C54.9739 39.1366 54.9672 39.1528 54.9552 39.1648C54.9433 39.1767 54.9271 39.1834 54.9102 39.1834L53.4709 39.1814C53.454 39.1814 53.4378 39.1746 53.4259 39.1627C53.4139 39.1507 53.4072 39.1345 53.4072 39.1176V36.141C53.4072 36.1326 53.4089 36.1243 53.4121 36.1166C53.4153 36.1089 53.42 36.1018 53.4259 36.0959C53.4318 36.09 53.4388 36.0853 53.4466 36.0821C53.4543 36.0789 53.4626 36.0773 53.4709 36.0773H54.9081C54.9165 36.0773 54.9247 36.0789 54.9325 36.0821C54.9402 36.0853 54.9472 36.09 54.9531 36.0959C54.9591 36.1018 54.9638 36.1089 54.967 36.1166C54.9702 36.1243 54.9718 36.1326 54.9718 36.141L54.9749 36.5358C54.9749 36.5527 54.9682 36.5689 54.9563 36.5808C54.9443 36.5928 54.9281 36.5995 54.9112 36.5995H53.9932C53.9763 36.5995 53.9601 36.6062 53.9481 36.6182C53.9362 36.6301 53.9294 36.6463 53.9294 36.6632V37.3024C53.9294 37.3109 53.9311 37.3192 53.9344 37.327C53.9377 37.3348 53.9425 37.3419 53.9485 37.3478C53.9545 37.3538 53.9617 37.3584 53.9695 37.3616C53.9774 37.3647 53.9857 37.3663 53.9942 37.3661L54.6741 37.3525C54.6826 37.3524 54.691 37.3539 54.6988 37.3571C54.7067 37.3602 54.7138 37.3649 54.7199 37.3708C54.7259 37.3768 54.7307 37.3838 54.7339 37.3916C54.7372 37.3994 54.7389 37.4078 54.7389 37.4162V37.8152C54.7389 37.8321 54.7322 37.8483 54.7202 37.8603C54.7083 37.8722 54.6921 37.8789 54.6752 37.8789H53.9932C53.9848 37.8789 53.9765 37.8806 53.9688 37.8838C53.961 37.887 53.954 37.8917 53.9481 37.8976C53.9422 37.9035 53.9375 37.9105 53.9343 37.9183C53.9311 37.926 53.9294 37.9343 53.9294 37.9426V38.5986C53.9294 38.6069 53.9311 38.6152 53.9343 38.6229C53.9375 38.6307 53.9422 38.6377 53.9481 38.6436C53.954 38.6495 53.961 38.6542 53.9688 38.6574C53.9765 38.6606 53.9848 38.6623 53.9932 38.6623Z" fill="#4D4D4D"/>
<path d="M31.59 55.8715C24.9975 52.404 18.7266 47.7645 14.9833 41.172C14.9811 41.1682 14.98 41.1638 14.98 41.1594C14.98 41.155 14.9812 41.1507 14.9834 41.1468C14.9856 41.143 14.9888 41.1399 14.9927 41.1377C14.9965 41.1355 15.0009 41.1344 15.0053 41.1344C15.6814 41.1441 16.3578 41.1469 17.0346 41.1428C17.1934 41.1421 17.2968 41.18 17.3448 41.2566C20.7946 46.7389 25.9907 50.5219 31.5629 53.6197C31.5914 53.6357 31.6199 53.6361 31.6485 53.6207C37.3052 50.6503 42.5713 46.5895 46.0075 41.1783C46.0146 41.1673 46.0243 41.1584 46.0356 41.1522C46.0469 41.146 46.0595 41.1427 46.0723 41.1428H48.2364C48.2914 41.1428 48.3053 41.1664 48.2781 41.2138C44.5307 47.7583 38.263 52.4259 31.6809 55.8715C31.6509 55.8868 31.6206 55.8868 31.59 55.8715Z" fill="#052383"/>
</g>
<defs>
<clipPath id="clip0_482_69">
<rect width="47" height="47" fill="white" transform="translate(8 9)"/>
</clipPath>
</defs>
</svg>
