<svg xmlns="http://www.w3.org/2000/svg" width="64" height="64" viewBox="0 0 64 64"><g transform="translate(-286 -3142)"><circle cx="32" cy="32" r="32" transform="translate(286 3142)" fill="#f5f5f5"/><g transform="translate(295.174 3159.895)"><path d="M361.877,12.48,360,11.116,364.391,8.9Z" transform="translate(-323.069 -7.987)" fill="#3f4b80"/><path d="M269.5,0l5.468,2.811.657,4.534Z" transform="translate(-241.853)" fill="#313a62"/><path d="M275.624,7.345l-.872,3.857L269.5,0Z" transform="translate(-241.853)" fill="#3f4b80"/><path d="M247.471,11.382,239.1.816,242.229.2Z" transform="translate(-214.572 -0.179)" fill="#4b5897"/><path d="M241.279,16.766,232.2,13.217l.708-7.017Z" transform="translate(-208.379 -5.564)" fill="#5161a4"/><path d="M151.064,6.2l-.708,7.017L141,14.53Z" transform="translate(-126.535 -5.564)" fill="#4b5897"/><path d="M233.112,78.149,223.1,80.868l.934-6.268Z" transform="translate(-200.213 -66.947)" fill="#4b5897"/><path d="M223.1,111.919l10.012-2.719-4.514,2.1Z" transform="translate(-200.213 -97.998)" fill="#3f4b80"/><path d="M169.2,136.644l5.529-.944.092,1.888Z" transform="translate(-151.842 -121.779)" fill="#3f4b80"/><path d="M223.192,132.2l-.092-1.888,5.5-.616Z" transform="translate(-200.213 -116.395)" fill="#313a62"/><path d="M141,75.913l9.356-1.313-.934,6.268Z" transform="translate(-126.535 -66.947)" fill="#3f4b80"/><path d="M141,87.4l8.422,4.955-5.529.944Z" transform="translate(-126.535 -78.434)" fill="#4b5897"/><path d="M141,87.4l2.893,5.9L141.1,95.34Z" transform="translate(-126.535 -78.434)" fill="#313a62"/><path d="M77.559,102.9l1.118,6.719L75.6,104.993Z" transform="translate(-67.844 -92.344)" fill="#5161a4"/><path d="M41,123.341l3.549-.041.021,2.165Z" transform="translate(-36.794 -110.651)" fill="#313a62"/><path d="M41.287,125.167,41,123.7l3.57,2.124Z" transform="translate(-36.794 -111.01)" fill="#3f4b80"/><path d="M26.031,125.167,24,126.962l1.744-3.262Z" transform="translate(-21.538 -111.01)" fill="#4b5897"/><path d="M2.462,155.5l-.144,1.087L0,156.208Z" transform="translate(0 -139.548)" fill="#313a62"/><path d="M22.744,139.8l2.031-1.8L22.6,140.883Z" transform="translate(-20.282 -123.843)" fill="#5161a4"/><path d="M75.6,123.3l3.078,4.627-3.057.605Z" transform="translate(-67.844 -110.651)" fill="#3f4b80"/><path d="M62.054,207.9l-2.226,4.606-.328-3.549Z" transform="translate(-53.396 -186.572)" fill="#3f4b80"/><path d="M51.154,218.2l.328,3.549-1.282.616Z" transform="translate(-45.05 -195.816)" fill="#1f243e"/><path d="M42.508,252.8l.339,1.734-2.647.544Z" transform="translate(-36.076 -226.866)" fill="#3f4b80"/><path d="M41.226,253.416l1.282-.616L40.2,255.077Z" transform="translate(-36.076 -226.866)" fill="#313a62"/><path d="M61.172,169.005l3.057-.605L59.5,173.509Z" transform="translate(-53.396 -151.124)" fill="#313a62"/><path d="M64.229,168.4l2.083,2.37L59.5,173.509Z" transform="translate(-53.396 -151.124)" fill="#4b5897"/><path d="M94.7,88.99l4.75-1.59-3.632,8.31Z" transform="translate(-84.985 -78.434)" fill="#4b5897"/><path d="M105.6,95.71l3.632-8.31.1,7.94Z" transform="translate(-94.767 -78.434)" fill="#3f4b80"/><path d="M107.683,167.539l-2.083-2.37,3.734-.369Z" transform="translate(-94.767 -147.894)" fill="#313a62"/><path d="M276.7,129.431l4.4-.031-2.811,4.288Z" transform="translate(-248.314 -116.125)" fill="#4b5897"/><path d="M276.7,111.3l4.514-2.1-.113,2.072Z" transform="translate(-248.314 -97.998)" fill="#5161a4"/><path d="M268.3,133.5l.862-3.8,1.59,4.257Z" transform="translate(-240.776 -116.395)" fill="#3f4b80"/><path d="M258,168.69l1.057-1.99,2.452.462Z" transform="translate(-231.533 -149.599)" fill="#4b5897"/><path d="M237.2,170.116l.667-3.262,2.524-.154Z" transform="translate(-212.867 -149.599)" fill="#3f4b80"/><path d="M237.2,170.116l3.19-3.416-1.057,1.99Z" transform="translate(-212.867 -149.599)" fill="#313a62"/><path d="M360,4.834,364.186,1.9l.205.718Z" transform="translate(-323.069 -1.705)" fill="#495692"/><path d="M400.8.374,404.226.2l-3.221.893Z" transform="translate(-359.683 -0.179)" fill="#5d6cac"/><path d="M362.708,55.444,360.8,54.1l6.453.01Z" transform="translate(-323.787 -48.55)" fill="#4f60a3"/><path d="M360.8,47.818l5.55-.718.9.728Z" transform="translate(-323.787 -42.268)" fill="#495692"/><path d="M414.9,27.626l2.544-2.226L415.8,28.354Z" transform="translate(-372.337 -22.794)" fill="#3f4b80"/><path d="M423.7,28.354l1.641-2.954.544.256Z" transform="translate(-380.234 -22.794)" fill="#4f60a3"/><path d="M439.7,14.182l.451-1.282.092,1.539Z" transform="translate(-394.593 -11.577)" fill="#313a62"/><path d="M321.572,71.6l.616,5.4L320.7,75.457Z" transform="translate(-287.801 -64.255)" fill="#313a62"/><path d="M329.816,73.047l-.616-5.4,5.15-.451Z" transform="translate(-295.429 -60.306)" fill="#3f4b80"/><path d="M328.606,31.483l-5.15.451L322.8,27.4Z" transform="translate(-289.685 -24.589)" fill="#4b5897"/><path d="M362.6,43.8l.831.749-2.626.308Z" transform="translate(-323.787 -39.307)" fill="#313a62"/><path d="M322.8,27.4l5.694,1.682-1.8,1.057Z" transform="translate(-289.685 -24.589)" fill="#3f4b80"/><path d="M322.8,27.4l3.816.318,1.877,1.364Z" transform="translate(-289.685 -24.589)" fill="#313a62"/><path d="M377.1,75.735l.236-8.535,2.052,1.672Z" transform="translate(-338.415 -60.306)" fill="#3f4b80"/><path d="M339.5,75.735l.236-8.535L335.2,73.047Z" transform="translate(-300.813 -60.306)" fill="#495692"/><path d="M381.452,64.834,380.8,62.7l-1.4.462Z" transform="translate(-340.479 -56.268)" fill="#313a62"/><path d="M379.665,89.183l-2.565,1.18,2.288-6.863Z" transform="translate(-338.415 -74.934)" fill="#313a62"/></g></g></svg>