<svg width="64" height="64" viewBox="0 0 64 64" fill="none" xmlns="http://www.w3.org/2000/svg">
<g clip-path="url(#clip0_40_30801)">
<path d="M32 64C49.6731 64 64 49.6731 64 32C64 14.3269 49.6731 0 32 0C14.3269 0 0 14.3269 0 32C0 49.6731 14.3269 64 32 64Z" fill="#F5F5F5"/>
<path d="M47.9821 22.3881L46.1051 21.0241L50.4961 18.8081L47.9821 22.3881Z" fill="#3F4B80"/>
<path d="M36.821 17.895L42.289 20.706L42.946 25.24L36.821 17.895Z" fill="#313A62"/>
<path d="M42.945 25.24L42.0731 29.097L36.821 17.895L42.945 25.24Z" fill="#3F4B80"/>
<path d="M42.073 29.098L33.702 18.532L36.831 17.916L42.073 29.098Z" fill="#4B5897"/>
<path d="M42.0741 29.097L32.9951 25.548L33.7031 18.531L42.0741 29.097Z" fill="#5161A4"/>
<path d="M33.703 18.531L32.995 25.548L23.639 26.861L33.703 18.531Z" fill="#4B5897"/>
<path d="M42.073 29.0971L32.061 31.8161L32.995 25.5481L42.073 29.0971Z" fill="#4B5897"/>
<path d="M32.061 31.8159L42.073 29.0969L37.559 31.1969L32.061 31.8159Z" fill="#3F4B80"/>
<path d="M26.5321 32.7599L32.0611 31.8159L32.1531 33.7039L26.5321 32.7599Z" fill="#3F4B80"/>
<path d="M32.153 33.7L32.061 31.812L37.561 31.196L32.153 33.7Z" fill="#313A62"/>
<path d="M23.639 26.8611L32.995 25.5481L32.061 31.8161L23.639 26.8611Z" fill="#3F4B80"/>
<path d="M23.639 26.8611L32.061 31.8161L26.532 32.7601L23.639 26.8611Z" fill="#4B5897"/>
<path d="M23.639 26.8611L26.532 32.7611L23.739 34.8011L23.639 26.8611Z" fill="#313A62"/>
<path d="M18.8891 28.4509L20.0071 35.1699L16.9301 30.5439L18.8891 28.4509Z" fill="#5161A4"/>
<path d="M13.3801 30.5849L16.9291 30.5439L16.9501 32.7089L13.3801 30.5849Z" fill="#313A62"/>
<path d="M13.6671 32.052L13.3801 30.585L16.9501 32.709L13.6671 32.052Z" fill="#3F4B80"/>
<path d="M13.6671 32.052L11.6361 33.847L13.3801 30.585L13.6671 32.052Z" fill="#4B5897"/>
<path d="M11.6361 33.8469L11.4921 34.9339L9.17407 34.5549L11.6361 33.8469Z" fill="#313A62"/>
<path d="M11.6361 33.852L13.6671 32.052L11.4921 34.935L11.6361 33.852Z" fill="#5161A4"/>
<path d="M16.9301 30.5439L20.0081 35.1709L16.9511 35.7759L16.9301 30.5439Z" fill="#3F4B80"/>
<path d="M17.8321 39.2229L15.6061 43.8289L15.2781 40.2799L17.8321 39.2229Z" fill="#3F4B80"/>
<path d="M15.2781 40.2791L15.6061 43.828L14.3241 44.4441L15.2781 40.2791Z" fill="#1F243E"/>
<path d="M15.6061 43.829L15.9451 45.563L13.2981 46.107L15.6061 43.829Z" fill="#3F4B80"/>
<path d="M14.3241 44.445L15.6061 43.829L13.2981 46.106L14.3241 44.445Z" fill="#313A62"/>
<path d="M16.9501 35.7759L20.0071 35.1709L15.2781 40.2799L16.9501 35.7759Z" fill="#313A62"/>
<path d="M20.0071 35.1709L22.0901 37.5409L15.2781 40.2799L20.0071 35.1709Z" fill="#4B5897"/>
<path d="M18.889 28.4511L23.639 26.8611L20.007 35.1711L18.889 28.4511Z" fill="#4B5897"/>
<path d="M20.0071 35.1711L23.6391 26.8611L23.7391 34.8011L20.0071 35.1711Z" fill="#3F4B80"/>
<path d="M22.0901 37.54L20.0071 35.17L23.7411 34.801L22.0901 37.54Z" fill="#313A62"/>
<path d="M37.5601 31.2009L41.9601 31.1699L39.149 35.4579L37.5601 31.2009Z" fill="#4B5897"/>
<path d="M37.5601 31.1969L42.074 29.0969L41.9611 31.1689L37.5601 31.1969Z" fill="#5161A4"/>
<path d="M36.6981 35L37.5601 31.2L39.1501 35.457L36.6981 35Z" fill="#3F4B80"/>
<path d="M35.6411 36.9861L36.6981 34.9961L39.1501 35.4581L35.6411 36.9861Z" fill="#4B5897"/>
<path d="M33.5071 38.4121L34.1741 35.1501L36.6981 34.9961L33.5071 38.4121Z" fill="#3F4B80"/>
<path d="M33.5071 38.4121L36.6971 34.9961L35.6401 36.9861L33.5071 38.4121Z" fill="#313A62"/>
<path d="M46.1051 21.0241L50.2911 18.0901L50.4961 18.8081L46.1051 21.0241Z" fill="#495692"/>
<path d="M50.291 18.09L53.717 17.916L50.496 18.809L50.291 18.09Z" fill="#5D6CAC"/>
<path d="M48.095 24.7891L46.187 23.4451L52.64 23.4551L48.095 24.7891Z" fill="#4F60A3"/>
<path d="M46.187 23.4451L51.737 22.7271L52.637 23.4551L46.187 23.4451Z" fill="#495692"/>
<path d="M51.7371 22.727L54.2811 20.501L52.6371 23.455L51.7371 22.727Z" fill="#3F4B80"/>
<path d="M52.6401 23.455L54.2811 20.501L54.8251 20.757L52.6401 23.455Z" fill="#4F60A3"/>
<path d="M54.2811 20.5L54.7321 19.218L54.8241 20.757L54.2811 20.5Z" fill="#313A62"/>
<path d="M42.9451 25.24L43.5611 30.64L42.0731 29.097L42.9451 25.24Z" fill="#313A62"/>
<path d="M43.5611 30.6359L42.9451 25.2359L48.0951 24.7849L43.5611 30.6359Z" fill="#3F4B80"/>
<path d="M48.0951 24.7891L42.9451 25.2401L42.2891 20.7061L48.0951 24.7891Z" fill="#4B5897"/>
<path d="M47.987 22.3879L48.818 23.1369L46.192 23.4449L47.987 22.3879Z" fill="#313A62"/>
<path d="M42.2891 20.7061L47.9831 22.3881L46.1831 23.4451L42.2891 20.7061Z" fill="#3F4B80"/>
<path d="M42.2891 20.7061L46.1051 21.0241L47.9821 22.3881L42.2891 20.7061Z" fill="#313A62"/>
<path d="M47.8591 33.3241L48.0951 24.7891L50.1471 26.4611L47.8591 33.3241Z" fill="#3F4B80"/>
<path d="M47.861 33.3241L48.097 24.7891L43.561 30.6361L47.861 33.3241Z" fill="#495692"/>
<path d="M50.1471 26.4609L49.4951 24.3269L48.0951 24.7889L50.1471 26.4609Z" fill="#313A62"/>
<path d="M50.4241 32.1439L47.8591 33.3239L50.1471 26.4609L50.4241 32.1439Z" fill="#313A62"/>
</g>
<defs>
<clipPath id="clip0_40_30801">
<rect width="64" height="64" fill="white"/>
</clipPath>
</defs>
</svg>
