<svg width="64" height="64" viewBox="0 0 64 64" fill="none" xmlns="http://www.w3.org/2000/svg">
<g clip-path="url(#clip0_37_90)">
<path d="M32 64C49.6731 64 64 49.6731 64 32C64 14.3269 49.6731 0 32 0C14.3269 0 0 14.3269 0 32C0 49.6731 14.3269 64 32 64Z" fill="#030403"/>
<path d="M42.0563 17.2266C41.037 15.5762 39.5111 14.5185 37.4755 14.0592C34.7466 13.4044 32.3674 14.5185 30.3318 17.4014C30.3703 16.7496 30.4266 15.9999 30.5037 15.1555C30.5037 14.2725 29.8992 13.7629 28.6874 13.6296C27.4785 13.4962 26.2874 13.7155 25.114 14.2933C23.9407 14.8711 23.3748 15.6177 23.4163 16.5392C22.8 28.6014 22.7051 38.9155 23.1289 47.4785C23.1289 48.0177 23.3214 48.5155 23.7066 48.9777C24.5896 49.9377 25.8192 50.4177 27.3955 50.4177C28.8177 50.4177 29.5289 49.8992 29.5289 48.8622C29.4133 47.4429 29.3363 45.8933 29.2918 44.2251H29.2889V44.1481C29.2326 42.0266 29.2326 39.7096 29.2889 37.1851V19.2711L31.9644 21.8518C32.5866 21.2296 33.7807 21.1822 33.7807 21.1822L34.9896 17.9792L36.2192 21.2296C36.554 21.2296 41.0933 22.6636 40.6637 27.1555C40.234 31.6473 37.9881 31.9348 34.6429 32.317C31.2977 32.6992 31.2977 35.5318 31.2977 35.5318L31.2533 38.1451C32.3733 38.6399 33.6118 38.7348 34.9718 38.4266C37.1792 37.9288 39.034 36.4888 40.5303 34.1066C41.4518 32.6488 42.1807 30.9007 42.72 28.8651C43.2563 26.8296 43.5348 24.794 43.5555 22.7585C43.5703 20.7199 43.0726 18.877 42.0563 17.2266Z" fill="#F27248"/>
<path d="M38.8029 25.4637C38.8029 25.4637 37.7184 25.8726 37.671 26.3526C37.6236 26.8326 38.8266 26.4889 39.1614 26.8593C39.4873 27.2207 39.2059 26.4326 39.4429 25.9911C39.6859 25.5348 39.1584 25.3037 38.8029 25.4637Z" fill="#F27248"/>
<path d="M35.9526 26.1215C36.293 26.1215 36.5689 25.8456 36.5689 25.5052C36.5689 25.1648 36.293 24.8889 35.9526 24.8889C35.6122 24.8889 35.3363 25.1648 35.3363 25.5052C35.3363 25.8456 35.6122 26.1215 35.9526 26.1215Z" fill="#F27248"/>
<path d="M38.5896 24.2548C38.9299 24.2548 39.2059 23.9789 39.2059 23.6385C39.2059 23.2981 38.9299 23.0222 38.5896 23.0222C38.2492 23.0222 37.9733 23.2981 37.9733 23.6385C37.9733 23.9789 38.2492 24.2548 38.5896 24.2548Z" fill="#F27248"/>
<path d="M40.6578 26.5629C40.3378 26.8918 40.0504 27.031 39.8074 26.9777C39.4252 26.8918 39.2356 26.3614 39.2356 26.3555L39.0222 26.4295C39.0252 26.4384 39.0548 26.5184 39.1082 26.6192L39.0608 26.6399C39.0637 26.6488 39.3659 27.4162 39.0193 27.8814C38.797 28.1807 38.3526 28.3051 37.683 28.2429L37.6622 28.4681C37.7778 28.4769 37.8874 28.4829 37.9911 28.4829C38.563 28.4829 38.9689 28.3258 39.2 28.0147C39.437 27.6947 39.4341 27.2918 39.3837 26.9866C39.4874 27.0814 39.6089 27.1644 39.76 27.1999C39.8133 27.2118 39.8637 27.2177 39.917 27.2177C40.2015 27.2177 40.5067 27.0518 40.8237 26.7229L40.6578 26.5629Z" fill="#F27248"/>
</g>
<defs>
<clipPath id="clip0_37_90">
<rect width="64" height="64" fill="white"/>
</clipPath>
</defs>
</svg>
