<?xml version="1.0" encoding="utf-8"?>
<!-- Generator: Adobe Illustrator 27.3.1, SVG Export Plug-In . SVG Version: 6.00 Build 0)  -->
<svg version="1.1" id="Layer_1" xmlns="http://www.w3.org/2000/svg" xmlns:xlink="http://www.w3.org/1999/xlink" x="0px" y="0px"
	 viewBox="0 0 2160 2160" style="enable-background:new 0 0 2160 2160;" xml:space="preserve">
<style type="text/css">
	.st0{fill:#030403;}
	.st1{display:none;}
	.st2{fill:#F27248;}
	.st3{display:inline;}
	.st4{fill:#D41F26;}
</style>
<circle class="st0" cx="1080" cy="1080" r="1080"/>
<circle class="st1" cx="1034.5" cy="1033.2" r="1080"/>
<g>
	<path class="st2" d="M1419.4,581.4c-34.4-55.7-85.9-91.4-154.6-106.9c-92.1-22.1-172.4,15.5-241.1,112.8c1.3-22,3.2-47.3,5.8-75.8
		c0-29.8-20.4-47-61.3-51.5c-40.8-4.5-81,2.9-120.6,22.4c-39.6,19.5-58.7,44.7-57.3,75.8c-20.8,407.1-24,755.2-9.7,1044.2
		c0,18.2,6.5,35,19.5,50.6c29.8,32.4,71.3,48.6,124.5,48.6c48,0,72-17.5,72-52.5c-3.9-47.9-6.5-100.2-8-156.5h-0.1v-2.6
		c-1.9-71.6-1.9-149.8,0-235V650.4l90.3,87.1c21-21,61.3-22.6,61.3-22.6l40.8-108.1l41.5,109.7c11.3,0,164.5,48.4,150,200
		c-14.5,151.6-90.3,161.3-203.2,174.2c-112.9,12.9-112.9,108.5-112.9,108.5l-1.5,88.2c37.8,16.7,79.6,19.9,125.5,9.5
		c74.5-16.8,137.1-65.4,187.6-145.8c31.1-49.2,55.7-108.2,73.9-176.9c18.1-68.7,27.5-137.4,28.2-206.1
		C1470.5,699.3,1453.7,637.1,1419.4,581.4z"/>
	<path class="st2" d="M1309.6,859.4c0,0-36.6,13.8-38.2,30c-1.6,16.2,39,4.6,50.3,17.1c11,12.2,1.5-14.4,9.5-29.3
		C1339.4,861.8,1321.6,854,1309.6,859.4z"/>
	<circle class="st2" cx="1213.4" cy="860.8" r="20.8"/>
	<circle class="st2" cx="1302.4" cy="797.8" r="20.8"/>
	<path class="st2" d="M1372.2,896.5c-10.8,11.1-20.5,15.8-28.7,14c-12.9-2.9-19.3-20.8-19.3-21l-7.2,2.5c0.1,0.3,1.1,3,2.9,6.4
		l-1.6,0.7c0.1,0.3,10.3,26.2-1.4,41.9c-7.5,10.1-22.5,14.3-45.1,12.2l-0.7,7.6c3.9,0.3,7.6,0.5,11.1,0.5c19.3,0,33-5.3,40.8-15.8
		c8-10.8,7.9-24.4,6.2-34.7c3.5,3.2,7.6,6,12.7,7.2c1.8,0.4,3.5,0.6,5.3,0.6c9.6,0,19.9-5.6,30.6-16.7L1372.2,896.5z"/>
</g>
<g id="Layer_2_00000052795359609433234870000006953600444173243819_" class="st1">
	<g class="st3">
		<path class="st4" d="M4233.7,794.9c33.4-0.1,66.9-0.1,100.3-0.1c41.3,0,82.6,0,123.9,0c31.8,0,63.6,0,95.4,0
			c3.9,0,4.7-0.8,4.7-4.5c0-37,0-74,0.1-110.9c0-2.7-0.7-3.3-3.3-3.3c-14.8,0.1-29.7,0.1-44.5,0.1c-19.4,0-38.7,0-58,0
			c-19.1,0-38.3-0.1-57.4,0c-6.6,0-13.3,0.3-19.8,0.2c-7.6-0.1-15.2,0-22.7-0.2c-2.8-0.1-3.3-0.9-3.2-3.4c0.2-8.8,0-17.5,0-26.3
			c0.1-6.2,0-12.5,0-18.7c0-6.2-0.1-12.5,0-18.7c0.2-6-0.3-11.9-0.2-17.9c0.3-16.4,0.1-32.7,0.1-49.1c0-10.3-0.1-20.6,0-31
			c0.1-10.1-0.1-20.3,0-30.4c0.1-30.5,0-61,0.1-91.6c0-2.7-0.6-3.3-3.3-3.3c-37.3,0.1-74.6,0.1-111.9,0c-3,0-3.6,0.8-3.6,3.7
			c0.1,71.8,0.1,143.6,0.1,215.4c0,12.4,0,24.7,0,37.1c0,24.4,0,48.8,0,73.2c0,25.5,0,51-0.1,76.4
			C4230.3,794.4,4231.1,794.9,4233.7,794.9z M4778.5,230.5c0-10.5,0.3-21-0.2-31.4c-0.2-3.9,0.1-7.9,0.2-11.8c0.1-4-0.3-8,0.1-12
			c0.4-3.6-1.5-7.2-0.2-10.8c0.1-0.3-0.4-0.7-0.5-1.1c-382.1,0-764.2,0-1146.2-0.1c-2.6,0-3.1,0.5-3.1,3.1
			c0.1,318.3,0.1,636.5,0.1,954.8c6.4,3.2,12.6,6.8,18.9,10.2c9,4.9,17.7,10.4,26.8,15.2c6.2,3.3,12.3,6.9,18.4,10.4
			c13.2,7.7,26.8,14.9,40.1,22.5c11.5,6.5,23,13.3,34.6,19.7c10,5.5,19.8,11.3,29.8,16.8c11.1,6.1,21.9,12.6,33,18.8
			c10.1,5.6,20,11.6,30.2,17.1c6.4,3.4,12.7,7.1,19,10.8c8.4,4.9,17,9.4,25.5,14.2c8.2,4.6,16.3,9.3,24.5,13.9
			c3.1,1.7,6.5,2.9,9.3,5c3.8,2.8,7.8,5.4,12,7.3c5.9,2.6,11.1,6.6,17.1,9.2c5.4,2.3,10.4,6,15.6,9.1c6.1,3.6,12.4,6.8,18.4,10.6
			c2.8,1.8,5.7,3.8,8.7,4.8c4.1,1.4,7.5,4,11.1,6c6.3,3.6,12.5,7.5,18.9,10.9c6.8,3.6,13.1,8.1,20.2,11.3c5.9,2.7,11.3,6.6,17.1,9.7
			c11.3,6.2,22.3,12.7,33.5,19.2c2.6,1.5,5.1,3,7.7,4.5c6.6,3.7,13.4,7.3,20,11c4.5,2.5,8.6,5.7,13.2,7.9
			c7.3,3.4,13.9,8.1,21.1,11.7c0.9,0.4,1.7,1.5,2.8,1.1c1.3-0.5,0.6-1.9,0.6-2.8c0-21.6,0.1-43.2-0.1-64.9c0-3.1,0.1-6.2,0.1-9.4
			c0-4.3-0.1-8.6,0-12.9c0.1-4.2-0.5-8.3-0.1-12.5c0.3-3.4-0.1-6.9,0-10.3c0.2-9,0.1-18.1,0.1-27.1c0-31.9,0-63.9,0-95.8
			c0-12.4,0-24.7,0-37.1c0-101.2,0-202.3,0.1-303.5c0-2.8-0.6-3.5-3.5-3.5c-106.3,0.1-212.6,0.1-318.9,0c-2.9,0-3.4,0.8-3.4,3.5
			c0.1,37.2,0.1,74.4,0,111.6c0,2.8,0.5,3.7,3.6,3.7c66.6-0.1,133.3-0.1,199.9-0.2c2.9,0,3.6,0.7,3.6,3.7
			c-0.1,82.8-0.1,165.5-0.1,248.3c0,0.9,0.1,1.8,0,2.6c-0.4,1.9-1,2.8-3.4,1.9c-4.6-1.8-8-5.3-12.3-7.4c-8.9-4.4-17.3-9.6-26-14.3
			c-7.8-4.3-15.5-8.8-23.3-13.2c-6.6-3.7-13.2-7.3-19.7-11.1c-8.1-4.8-16.2-9.4-24.4-14c-6.6-3.7-13.5-7.2-20.2-10.9
			c-9.6-5.4-19.2-10.8-28.7-16.4c-6.6-3.9-13.5-7.2-20-11.3c-8.1-5-16.7-8.8-24.5-14.3c-5.8-4.1-13.6-5.3-18.2-11.4
			c-0.2-0.2-0.8,0-1.2-0.1c-5.2-1.3-9.8-3.7-13.3-7.7c-0.5-0.6-0.9-0.8-1.5-0.7c-1.5,0.3-2.8-0.4-3.9-1.2c-3.2-2.4-7.9-2.8-9.8-7.1
			c-0.1-0.2-0.6-0.2-0.9-0.2c-2.2,0.5-3.7-1.2-5.6-1.9c-4.7-1.7-7.9-6-12.9-7.4c-5.6-1.6-10.3-5.6-15.4-8.4
			c-8-4.3-15.8-9.1-23.7-13.5c-1.6-0.9-2-1.9-2-3.5c0.1-8,0.1-15.9,0-23.9c-0.4-24.9,0.5-49.8-0.4-74.7c-0.2-6.6,0.4-13.4,0.3-20.2
			c-0.1-12.6,0.1-25.3-0.2-37.9c-0.3-10.8,1.3-21.6-0.9-32.3c-0.1-0.2,0.1-0.6,0.3-0.8c1.6-1.7,0.8-3.6,0.7-5.5
			c-0.2-3.5-0.9-7.4-0.4-10.5c0.8-6,0.2-11.9,0.5-17.9c0.4-9.9,0.1-19.8,0.1-29.7c0-40,0.1-80,0-120c-0.2-66.8,0.4-133.7-0.3-200.5
			c-0.1-11.1,0-22.3,0.2-33.4c0.2-8,0-15.9,0-23.9c0-8.1,0-16.1,0-24.2c0-8-0.1-15.9,0-23.9c0.2-7.6-0.3-15.2-0.2-22.8
			c0.4-19.3,0.1-38.7,0.1-58c0-1,0.1-2-0.1-2.9c-0.9-3.3-0.3-4.2,3.1-4.2c9.9,0,19.8,0,29.7,0c49.5,0,98.9,0,148.4,0
			c29.8,0,59.6,0,89.3,0c49.2,0,98.5,0,147.7,0c29.9,0,59.8,0,89.6,0c49.2,0,98.5,0,147.7,0c30.1,0,60.2,0,90.3,0
			c54.4,0,108.8,0,163.2-0.1c2.9,0,3.7,0.6,3.7,3.6c-0.1,43.2-0.1,86.4-0.1,129.6c0,134.4,0,268.8,0,403.2c0,36.9,0,73.7,0,110.6
			c0,39.6,0,79.2,0.1,118.7c0,2.7-1,4-3.1,5.2c-3.9,2.2-8,3.9-11.8,6.4c-4.8,3.1-10,5.6-15,8.4c-5.2,2.9-10.2,6.2-15.4,9.1
			c-8.1,4.5-16.1,9.2-24.2,13.7c-7.5,4.2-15,8.4-22.5,12.7c-4.2,2.4-8.9,4.2-12.8,6.8c-6.4,4.3-13.1,8.2-19.8,11.9
			c-6,3.2-11.9,6.8-18,9.9c-11.6,6-22.8,12.8-34.2,19.3c-9.9,5.6-19.9,10.9-29.6,16.7c-5.2,3.2-10.6,6.1-15.9,9.1
			c-8.7,4.9-17.2,10.2-26.1,14.9c-7.6,4-14.8,8.7-22.3,12.8c-2.8,1.5-5.5,3.1-8.4,4.4c-5.9,2.8-11.1,6.9-17.3,9.4
			c-3.4,1.4-6.5,4.2-9.8,6.1c-3.8,2.2-4.6,1.7-4.6-2.6c0-4.5,0-9,0-13.5s0-9,0-13.5s-0.1-9,0-13.5c0.1-4.2-0.1-8.3-0.1-12.5
			c0.2-21.2,0.1-42.3,0.1-63.5c0-28.3,0-56.6,0-84.9c0-16.2,0-32.5,0-48.7c0-2.2,0.5-2.9,2.8-2.9c6.5,0.2,13.1,0.2,19.7,0
			c8.2-0.2,16.4,0.2,24.7-0.3c4.3-0.2,8.9,0.2,13.4,0.3c13.6,0.3,27.3,0.1,41,0.1c34.9,0,69.9,0,104.8,0.1c2.3,0,2.8-0.7,2.8-2.9
			c-0.1-10.5,0-21.1-0.1-31.6c-0.1-17.4-0.2-34.8-0.3-52.3c0-9.7-0.1-19.5,0.3-29.2c0.1-2.2-0.5-2.9-2.8-2.8
			c-13.2,0.1-26.4,0.1-39.7,0.1c-18.9,0-37.9,0-56.8,0c-60.2,0-120.4,0-180.6,0c-14.4,0-28.8,0-43.2,0c-4.6,0-4.6,0-4.6,4.5
			c0,146.2,0,292.4,0,438.7c0,14.1,0,28.2,0,42.3c0,30.5,0,61.1,0,91.6c0,0.9,0,1.8,0,3.6c3.2-2.9,6.6-3.8,9.5-5.4
			c3.9-2.2,7.7-4.8,11.7-6.9c6.4-3.5,12.7-7.2,19.1-10.8c21.9-12.4,43.8-24.8,65.7-37.2c4-2.2,8.2-4.1,12-6.5
			c7.6-4.7,15.4-9.1,23.3-13.4c18.3-10.2,36.4-20.8,54.8-30.8c6.4-3.4,12.7-7.1,18.9-10.8c8.4-5,16.8-9.8,25.4-14.5
			c13.1-7.2,26.1-14.7,39.2-22.1c9.5-5.4,19.1-10.6,28.5-16.2c4.7-2.8,9.7-4.8,14.1-7.9c4.2-3,8.8-5.5,13.2-7.9
			c5.2-2.8,10.5-5.5,15.7-8.5c16.5-9.7,33.6-18.4,49.9-28.6c5-3.2,10.7-5.4,15.9-8.5c6.6-3.9,13.3-7.6,20-11.3
			c6.4-3.6,12.8-7.3,19.2-10.8c11.9-6.6,23.7-13.4,35.6-20c6.2-3.4,12.5-7,18.7-10.7c11.4-6.9,23.2-13.2,34.9-19.8
			c2-1.1,3.1-2.3,3-4.9c-0.2-11.3-0.1-22.6-0.1-33.9c0-7.3,0-14.6,0-21.9s0-14.6,0-21.9c0-7.4-0.1-14.8,0-22.2
			c0.1-7-0.1-14.1-0.1-21.1c0.2-37,0.1-74,0.1-111c0-10.5,0-21.1,0-31.6c0-126.2,0-252.4,0-378.6c0-1.9-1.2-4.4-0.8-5.4
			c1.4-3.2,0.6-6.4,0.7-9.5c0.2-17.9,0.1-35.7,0.1-53.6c0-42.3,0-84.6,0-126.8c0-11.6,0-23.2,0-34.8c0-1.7-1.2-3.9-0.8-4.8
			C4779.3,236.8,4778.5,233.6,4778.5,230.5z M4174.1,385.8c-37.7,0.1-75.5,0.1-113.2,0c-2.2,0-2.9,0.5-2.9,2.8
			c0.1,10.8,0.1,21.5,0.1,32.2c0,83.8,0,167.7,0.1,251.5c0,3.2-0.8,3.8-3.9,3.8c-66.5-0.1-133.1-0.1-199.6-0.1
			c-2.8,0-3.8,0.4-3.7,3.5c0.1,37.2,0.1,74.4,0,111.6c0,2.9,0.6,3.7,3.6,3.7c53-0.1,106-0.1,159-0.1s106,0,159,0
			c4.2,0,4.2,0,4.2-4.2c0-116.6,0-233.3,0-349.9c0-17.3,0-34.6,0-51.9C4176.9,386.6,4176.5,385.8,4174.1,385.8z"/>
	</g>
	<g class="st3">
		<path class="st4" d="M4233.7,794.9c33.4-0.1,66.9-0.1,100.3-0.1c41.3,0,82.6,0,123.9,0c31.8,0,63.6,0,95.4,0
			c3.9,0,4.7-0.8,4.7-4.5c0-37,0-74,0.1-110.9c0-2.7-0.7-3.3-3.3-3.3c-14.8,0.1-29.7,0.1-44.5,0.1c-19.4,0-38.7,0-58,0
			c-19.1,0-38.3-0.1-57.4,0c-6.6,0-13.3,0.3-19.8,0.2c-7.6-0.1-15.2,0-22.7-0.2c-2.8-0.1-3.3-0.9-3.2-3.4c0.2-8.8,0-17.5,0-26.3
			c0.1-6.2,0-12.5,0-18.7c0-6.2-0.1-12.5,0-18.7c0.2-6-0.3-11.9-0.2-17.9c0.3-16.4,0.1-32.7,0.1-49.1c0-10.3-0.1-20.6,0-31
			c0.1-10.1-0.1-20.3,0-30.4c0.1-30.5,0-61,0.1-91.6c0-2.7-0.6-3.3-3.3-3.3c-37.3,0.1-74.6,0.1-111.9,0c-3,0-3.6,0.8-3.6,3.7
			c0.1,71.8,0.1,143.6,0.1,215.4c0,12.4,0,24.7,0,37.1c0,24.4,0,48.8,0,73.2c0,25.5,0,51-0.1,76.4
			C4230.3,794.4,4231.1,794.9,4233.7,794.9z M4778.5,230.5c0-10.5,0.3-21-0.2-31.4c-0.2-3.9,0.1-7.9,0.2-11.8c0.1-4-0.3-8,0.1-12
			c0.4-3.6-1.5-7.2-0.2-10.8c0.1-0.3-0.4-0.7-0.5-1.1c-382.1,0-764.2,0-1146.2-0.1c-2.6,0-3.1,0.5-3.1,3.1
			c0.1,318.3,0.1,636.5,0.1,954.8c6.4,3.2,12.6,6.8,18.9,10.2c9,4.9,17.7,10.4,26.8,15.2c6.2,3.3,12.3,6.9,18.4,10.4
			c13.2,7.7,26.8,14.9,40.1,22.5c11.5,6.5,23,13.3,34.6,19.7c10,5.5,19.8,11.3,29.8,16.8c11.1,6.1,21.9,12.6,33,18.8
			c10.1,5.6,20,11.6,30.2,17.1c6.4,3.4,12.7,7.1,19,10.8c8.4,4.9,17,9.4,25.5,14.2c8.2,4.6,16.3,9.3,24.5,13.9
			c3.1,1.7,6.5,2.9,9.3,5c3.8,2.8,7.8,5.4,12,7.3c5.9,2.6,11.1,6.6,17.1,9.2c5.4,2.3,10.4,6,15.6,9.1c6.1,3.6,12.4,6.8,18.4,10.6
			c2.8,1.8,5.7,3.8,8.7,4.8c4.1,1.4,7.5,4,11.1,6c6.3,3.6,12.5,7.5,18.9,10.9c6.8,3.6,13.1,8.1,20.2,11.3c5.9,2.7,11.3,6.6,17.1,9.7
			c11.3,6.2,22.3,12.7,33.5,19.2c2.6,1.5,5.1,3,7.7,4.5c6.6,3.7,13.4,7.3,20,11c4.5,2.5,8.6,5.7,13.2,7.9
			c7.3,3.4,13.9,8.1,21.1,11.7c0.9,0.4,1.7,1.5,2.8,1.1c1.3-0.5,0.6-1.9,0.6-2.8c0-21.6,0.1-43.2-0.1-64.9c0-3.1,0.1-6.2,0.1-9.4
			c0-4.3-0.1-8.6,0-12.9c0.1-4.2-0.5-8.3-0.1-12.5c0.3-3.4-0.1-6.9,0-10.3c0.2-9,0.1-18.1,0.1-27.1c0-31.9,0-63.9,0-95.8
			c0-12.4,0-24.7,0-37.1c0-101.2,0-202.3,0.1-303.5c0-2.8-0.6-3.5-3.5-3.5c-106.3,0.1-212.6,0.1-318.9,0c-2.9,0-3.4,0.8-3.4,3.5
			c0.1,37.2,0.1,74.4,0,111.6c0,2.8,0.5,3.7,3.6,3.7c66.6-0.1,133.3-0.1,199.9-0.2c2.9,0,3.6,0.7,3.6,3.7
			c-0.1,82.8-0.1,165.5-0.1,248.3c0,0.9,0.1,1.8,0,2.6c-0.4,1.9-1,2.8-3.4,1.9c-4.6-1.8-8-5.3-12.3-7.4c-8.9-4.4-17.3-9.6-26-14.3
			c-7.8-4.3-15.5-8.8-23.3-13.2c-6.6-3.7-13.2-7.3-19.7-11.1c-8.1-4.8-16.2-9.4-24.4-14c-6.6-3.7-13.5-7.2-20.2-10.9
			c-9.6-5.4-19.2-10.8-28.7-16.4c-6.6-3.9-13.5-7.2-20-11.3c-8.1-5-16.7-8.8-24.5-14.3c-5.8-4.1-13.6-5.3-18.2-11.4
			c-0.2-0.2-0.8,0-1.2-0.1c-5.2-1.3-9.8-3.7-13.3-7.7c-0.5-0.6-0.9-0.8-1.5-0.7c-1.5,0.3-2.8-0.4-3.9-1.2c-3.2-2.4-7.9-2.8-9.8-7.1
			c-0.1-0.2-0.6-0.2-0.9-0.2c-2.2,0.5-3.7-1.2-5.6-1.9c-4.7-1.7-7.9-6-12.9-7.4c-5.6-1.6-10.3-5.6-15.4-8.4
			c-8-4.3-15.8-9.1-23.7-13.5c-1.6-0.9-2-1.9-2-3.5c0.1-8,0.1-15.9,0-23.9c-0.4-24.9,0.5-49.8-0.4-74.7c-0.2-6.6,0.4-13.4,0.3-20.2
			c-0.1-12.6,0.1-25.3-0.2-37.9c-0.3-10.8,1.3-21.6-0.9-32.3c-0.1-0.2,0.1-0.6,0.3-0.8c1.6-1.7,0.8-3.6,0.7-5.5
			c-0.2-3.5-0.9-7.4-0.4-10.5c0.8-6,0.2-11.9,0.5-17.9c0.4-9.9,0.1-19.8,0.1-29.7c0-40,0.1-80,0-120c-0.2-66.8,0.4-133.7-0.3-200.5
			c-0.1-11.1,0-22.3,0.2-33.4c0.2-8,0-15.9,0-23.9c0-8.1,0-16.1,0-24.2c0-8-0.1-15.9,0-23.9c0.2-7.6-0.3-15.2-0.2-22.8
			c0.4-19.3,0.1-38.7,0.1-58c0-1,0.1-2-0.1-2.9c-0.9-3.3-0.3-4.2,3.1-4.2c9.9,0,19.8,0,29.7,0c49.5,0,98.9,0,148.4,0
			c29.8,0,59.6,0,89.3,0c49.2,0,98.5,0,147.7,0c29.9,0,59.8,0,89.6,0c49.2,0,98.5,0,147.7,0c30.1,0,60.2,0,90.3,0
			c54.4,0,108.8,0,163.2-0.1c2.9,0,3.7,0.6,3.7,3.6c-0.1,43.2-0.1,86.4-0.1,129.6c0,134.4,0,268.8,0,403.2c0,36.9,0,73.7,0,110.6
			c0,39.6,0,79.2,0.1,118.7c0,2.7-1,4-3.1,5.2c-3.9,2.2-8,3.9-11.8,6.4c-4.8,3.1-10,5.6-15,8.4c-5.2,2.9-10.2,6.2-15.4,9.1
			c-8.1,4.5-16.1,9.2-24.2,13.7c-7.5,4.2-15,8.4-22.5,12.7c-4.2,2.4-8.9,4.2-12.8,6.8c-6.4,4.3-13.1,8.2-19.8,11.9
			c-6,3.2-11.9,6.8-18,9.9c-11.6,6-22.8,12.8-34.2,19.3c-9.9,5.6-19.9,10.9-29.6,16.7c-5.2,3.2-10.6,6.1-15.9,9.1
			c-8.7,4.9-17.2,10.2-26.1,14.9c-7.6,4-14.8,8.7-22.3,12.8c-2.8,1.5-5.5,3.1-8.4,4.4c-5.9,2.8-11.1,6.9-17.3,9.4
			c-3.4,1.4-6.5,4.2-9.8,6.1c-3.8,2.2-4.6,1.7-4.6-2.6c0-4.5,0-9,0-13.5s0-9,0-13.5s-0.1-9,0-13.5c0.1-4.2-0.1-8.3-0.1-12.5
			c0.2-21.2,0.1-42.3,0.1-63.5c0-28.3,0-56.6,0-84.9c0-16.2,0-32.5,0-48.7c0-2.2,0.5-2.9,2.8-2.9c6.5,0.2,13.1,0.2,19.7,0
			c8.2-0.2,16.4,0.2,24.7-0.3c4.3-0.2,8.9,0.2,13.4,0.3c13.6,0.3,27.3,0.1,41,0.1c34.9,0,69.9,0,104.8,0.1c2.3,0,2.8-0.7,2.8-2.9
			c-0.1-10.5,0-21.1-0.1-31.6c-0.1-17.4-0.2-34.8-0.3-52.3c0-9.7-0.1-19.5,0.3-29.2c0.1-2.2-0.5-2.9-2.8-2.8
			c-13.2,0.1-26.4,0.1-39.7,0.1c-18.9,0-37.9,0-56.8,0c-60.2,0-120.4,0-180.6,0c-14.4,0-28.8,0-43.2,0c-4.6,0-4.6,0-4.6,4.5
			c0,146.2,0,292.4,0,438.7c0,14.1,0,28.2,0,42.3c0,30.5,0,61.1,0,91.6c0,0.9,0,1.8,0,3.6c3.2-2.9,6.6-3.8,9.5-5.4
			c3.9-2.2,7.7-4.8,11.7-6.9c6.4-3.5,12.7-7.2,19.1-10.8c21.9-12.4,43.8-24.8,65.7-37.2c4-2.2,8.2-4.1,12-6.5
			c7.6-4.7,15.4-9.1,23.3-13.4c18.3-10.2,36.4-20.8,54.8-30.8c6.4-3.4,12.7-7.1,18.9-10.8c8.4-5,16.8-9.8,25.4-14.5
			c13.1-7.2,26.1-14.7,39.2-22.1c9.5-5.4,19.1-10.6,28.5-16.2c4.7-2.8,9.7-4.8,14.1-7.9c4.2-3,8.8-5.5,13.2-7.9
			c5.2-2.8,10.5-5.5,15.7-8.5c16.5-9.7,33.6-18.4,49.9-28.6c5-3.2,10.7-5.4,15.9-8.5c6.6-3.9,13.3-7.6,20-11.3
			c6.4-3.6,12.8-7.3,19.2-10.8c11.9-6.6,23.7-13.4,35.6-20c6.2-3.4,12.5-7,18.7-10.7c11.4-6.9,23.2-13.2,34.9-19.8
			c2-1.1,3.1-2.3,3-4.9c-0.2-11.3-0.1-22.6-0.1-33.9c0-7.3,0-14.6,0-21.9s0-14.6,0-21.9c0-7.4-0.1-14.8,0-22.2
			c0.1-7-0.1-14.1-0.1-21.1c0.2-37,0.1-74,0.1-111c0-10.5,0-21.1,0-31.6c0-126.2,0-252.4,0-378.6c0-1.9-1.2-4.4-0.8-5.4
			c1.4-3.2,0.6-6.4,0.7-9.5c0.2-17.9,0.1-35.7,0.1-53.6c0-42.3,0-84.6,0-126.8c0-11.6,0-23.2,0-34.8c0-1.7-1.2-3.9-0.8-4.8
			C4779.3,236.8,4778.5,233.6,4778.5,230.5z M4174.1,385.8c-37.7,0.1-75.5,0.1-113.2,0c-2.2,0-2.9,0.5-2.9,2.8
			c0.1,10.8,0.1,21.5,0.1,32.2c0,83.8,0,167.7,0.1,251.5c0,3.2-0.8,3.8-3.9,3.8c-66.5-0.1-133.1-0.1-199.6-0.1
			c-2.8,0-3.8,0.4-3.7,3.5c0.1,37.2,0.1,74.4,0,111.6c0,2.9,0.6,3.7,3.6,3.7c53-0.1,106-0.1,159-0.1s106,0,159,0
			c4.2,0,4.2,0,4.2-4.2c0-116.6,0-233.3,0-349.9c0-17.3,0-34.6,0-51.9C4176.9,386.6,4176.5,385.8,4174.1,385.8z"/>
	</g>
</g>
</svg>
