<svg width="64" height="64" viewBox="0 0 64 64" fill="none" xmlns="http://www.w3.org/2000/svg">
<g clip-path="url(#clip0_40_31684)">
<path d="M32 64C49.6731 64 64 49.6731 64 32C64 14.3269 49.6731 0 32 0C14.3269 0 0 14.3269 0 32C0 49.6731 14.3269 64 32 64Z" fill="#181818"/>
<path d="M33.283 28.625L44.466 17.425L46.738 19.725L35.555 30.897L33.283 28.625ZM17.24 44.645L28.44 33.445L30.712 35.74L19.535 46.918L17.24 44.645ZM33.282 35.735L35.554 33.44L46.754 44.64L44.459 46.913L33.282 35.735ZM17.24 19.715L19.535 17.415L30.717 28.603L28.445 30.898L17.24 19.715ZM29.71 32.155L32.01 29.855L34.31 32.155L32 34.455L29.71 32.155Z" fill="#F6D30C"/>
</g>
<defs>
<clipPath id="clip0_40_31684">
<rect width="64" height="64" fill="white"/>
</clipPath>
</defs>
</svg>
