<svg xmlns="http://www.w3.org/2000/svg" xmlns:xlink="http://www.w3.org/1999/xlink" width="64" height="64" viewBox="0 0 64 64"><defs><linearGradient id="a" x1="0.999" y1="0.25" x2="-0.061" y2="0.618" gradientUnits="objectBoundingBox"><stop offset="0" stop-color="#c200fb"/><stop offset="0.49" stop-color="#3772ff"/><stop offset="0.49" stop-color="#3773fe"/><stop offset="1" stop-color="#5ac4be"/></linearGradient><linearGradient id="b" x1="1.684" y1="-0.081" x2="-0.869" y2="0.757" xlink:href="#a"/><linearGradient id="c" x1="2.846" y1="-3.048" x2="-4.001" y2="0.125" xlink:href="#a"/><linearGradient id="d" x1="1.001" y1="0.252" x2="-9.253" y2="3.803" xlink:href="#a"/></defs><circle cx="32" cy="32" r="32" fill="#171b4d"/><g transform="translate(14.953 12.318)"><path d="M32.313,14.773V28.5L17.046,37.311,1.771,28.5V10.865L17.046,2.044,28.779,8.821,30.55,7.8,17.046,0,0,9.843V29.52l17.046,9.843L34.093,29.52V13.751Z" fill="url(#a)"/><path d="M11.048,26.61H8.494V18.044h8.515a3.065,3.065,0,0,0,3.031-3.057,2.92,2.92,0,0,0-.894-2.137,2.955,2.955,0,0,0-2.137-.894H8.494V9.351h8.523a5.671,5.671,0,0,1,5.637,5.637,5.474,5.474,0,0,1-1,3.193,5.551,5.551,0,0,1-2.452,2.009,9.832,9.832,0,0,1-3.048.46H11.048Z" transform="translate(1.723 1.897)" fill="url(#b)"/><path d="M21.106,24.29h-2.98l-2.3-4.01a9.71,9.71,0,0,0,2.665-.545Z" transform="translate(3.211 4.004)" fill="url(#c)"/><path d="M25.383,10.431l1.762.979,1.763-.979V8.362L27.146,7.34,25.383,8.362Z" transform="translate(5.15 1.489)" fill="url(#d)"/></g></svg>