<svg width="64" height="64" viewBox="0 0 64 64" fill="none" xmlns="http://www.w3.org/2000/svg">
<g clip-path="url(#clip0_40_31689)">
<path d="M32 64C49.6731 64 64 49.6731 64 32C64 14.3269 49.6731 0 32 0C14.3269 0 0 14.3269 0 32C0 49.6731 14.3269 64 32 64Z" fill="#171B4D"/>
<path d="M47.266 27.0911V40.8181L31.999 49.6291L16.724 40.8181V23.1831L31.999 14.3621L43.732 21.1391L45.503 20.1181L31.999 12.3181L14.953 22.1611V41.8381L31.999 51.6811L49.046 41.8381V26.0691L47.266 27.0911Z" fill="url(#paint0_linear_40_31689)"/>
<path d="M27.724 40.8252H25.17V32.2592H33.685C34.4906 32.2502 35.2603 31.9245 35.8275 31.3524C36.3948 30.7803 36.7139 30.0078 36.716 29.2022C36.7206 28.8038 36.6437 28.4087 36.49 28.0412C36.3362 27.6737 36.1089 27.3415 35.822 27.0652C35.5444 26.7799 35.212 26.5537 34.8447 26.4C34.4775 26.2464 34.083 26.1686 33.685 26.1712H25.17V23.5662H33.693C35.1853 23.5751 36.6139 24.1718 37.6691 25.2271C38.7243 26.2823 39.3211 27.7109 39.33 29.2032C39.3381 30.3458 38.9884 31.4623 38.33 32.3962C37.7253 33.2899 36.8732 33.9881 35.878 34.4052C34.8925 34.7178 33.8638 34.873 32.83 34.8652H27.724V40.8252Z" fill="url(#paint1_linear_40_31689)"/>
<path d="M39.27 40.6121H36.29L33.99 36.6021C34.8995 36.5464 35.7966 36.3629 36.655 36.0571L39.27 40.6121Z" fill="url(#paint2_linear_40_31689)"/>
<path d="M45.486 24.2382L47.248 25.2172L49.011 24.2382V22.1692L47.249 21.1472L45.486 22.1692V24.2382Z" fill="url(#paint3_linear_40_31689)"/>
</g>
<defs>
<linearGradient id="paint0_linear_40_31689" x1="49.0119" y1="22.1589" x2="11.8753" y2="33.3255" gradientUnits="userSpaceOnUse">
<stop stop-color="#C200FB"/>
<stop offset="0.49" stop-color="#3773FE"/>
<stop offset="1" stop-color="#5AC4BE"/>
</linearGradient>
<linearGradient id="paint1_linear_40_31689" x1="49.0157" y1="22.1682" x2="11.6778" y2="32.2235" gradientUnits="userSpaceOnUse">
<stop stop-color="#C200FB"/>
<stop offset="0.49" stop-color="#3773FE"/>
<stop offset="1" stop-color="#5AC4BE"/>
</linearGradient>
<linearGradient id="paint2_linear_40_31689" x1="49.0169" y1="22.1735" x2="14.9354" y2="40.4812" gradientUnits="userSpaceOnUse">
<stop stop-color="#C200FB"/>
<stop offset="0.49" stop-color="#3773FE"/>
<stop offset="1" stop-color="#5AC4BE"/>
</linearGradient>
<linearGradient id="paint3_linear_40_31689" x1="49.0146" y1="22.1729" x2="11.8754" y2="33.3121" gradientUnits="userSpaceOnUse">
<stop stop-color="#C200FB"/>
<stop offset="0.49" stop-color="#3773FE"/>
<stop offset="1" stop-color="#5AC4BE"/>
</linearGradient>
<clipPath id="clip0_40_31689">
<rect width="64" height="64" fill="white"/>
</clipPath>
</defs>
</svg>
