<svg width="64" height="64" viewBox="0 0 64 64" fill="none" xmlns="http://www.w3.org/2000/svg">
<g clip-path="url(#clip0_40_31696)">
<path d="M32 64C49.6731 64 64 49.6731 64 32C64 14.3269 49.6731 0 32 0C14.3269 0 0 14.3269 0 32C0 49.6731 14.3269 64 32 64Z" fill="#057738"/>
<path d="M38.327 27.8058C36.633 26.157 34.362 25.2352 31.998 25.2368C29.6344 25.2352 27.3636 26.1571 25.67 27.8058H7.591L31.999 52.0368L56.407 27.8058H38.327Z" fill="#DE9500"/>
<path d="M31.998 26.085C33.6292 26.0848 35.2237 26.5683 36.5801 27.4744C37.9364 28.3804 38.9936 29.6684 39.618 31.1753C40.2423 32.6822 40.4058 34.3404 40.0877 35.9403C39.7696 37.5401 38.9842 39.0097 37.8309 40.1631C36.6776 41.3166 35.2081 42.1021 33.6083 42.4204C32.0085 42.7387 30.3503 42.5755 28.8433 41.9513C27.3363 41.3271 26.0482 40.2701 25.142 38.9138C24.2357 37.5576 23.752 35.9631 23.752 34.332C23.752 32.1449 24.6208 30.0474 26.1672 28.5008C27.7135 26.9542 29.8109 26.0852 31.998 26.085Z" fill="white"/>
<path d="M28.189 32.7329H28.871V31.6989H28.189V30.4539H30.189V33.8589H28.189V32.7329ZM28.189 37.2209H28.871V36.1919H28.189V35.0869H30.189V38.4019H28.189V37.2209ZM33.783 38.3979H31.362V35.0829H31.835V35.4359H32.516V35.0829H33.48C33.747 35.0829 33.78 35.5579 33.78 35.5579V38.3919L33.783 38.3979ZM33.783 33.1649V33.3209C33.783 33.3209 33.723 33.8539 33.377 33.8609H32.52V33.4149H31.839V33.8609H31.362V30.4559H33.782V33.1669L33.783 33.1649ZM36.762 37.3159C36.701 37.4939 36.384 38.3889 36.042 38.3889C36.0283 38.3899 36.0148 38.3929 36.002 38.3979H34.84V35.5069H34.833C34.8168 35.3604 34.7798 35.2169 34.723 35.0809H35.923C36.1912 35.1707 36.4229 35.3455 36.5828 35.5788C36.7427 35.8122 36.8221 36.0913 36.809 36.3739H36.038V37.3139L36.762 37.3159ZM36.815 32.7099C36.815 32.7099 36.392 33.8579 36.021 33.8579H34.682C34.7723 33.6911 34.8262 33.507 34.84 33.3179V30.4529H35.961C36.2211 30.5576 36.4425 30.7402 36.5948 30.9756C36.7472 31.211 36.823 31.4877 36.812 31.7679H36.04V32.7089H36.814L36.815 32.7099ZM38.627 31.7689H37.927C37.8903 31.2641 37.7315 30.7759 37.4643 30.3461C37.1971 29.9164 36.8294 29.558 36.393 29.3019H34.902V29.2649C34.9213 29.0146 34.8845 28.7631 34.7945 28.5288C34.7044 28.2945 34.5633 28.0832 34.3813 27.9102C34.1994 27.7373 33.9812 27.607 33.7426 27.5289C33.504 27.4509 33.251 27.4269 33.002 27.4589C32.5844 27.4319 32.1703 27.5503 31.83 27.7939V28.8749C31.83 28.8749 31.849 28.4969 32.884 28.4969C34.037 28.4969 33.81 29.3049 33.81 29.3049H31.362V28.6459C31.362 27.5279 30.794 27.2349 30.135 27.2349H29.67V28.4349H29.951C29.9824 28.4333 30.0138 28.4383 30.0431 28.4496C30.0725 28.4609 30.0991 28.4783 30.1214 28.5005C30.1436 28.5227 30.161 28.5494 30.1723 28.5787C30.1836 28.6081 30.1886 28.6395 30.187 28.6709V29.3039H26.427V30.4559H27.251V31.7009H26.427V32.7349H27.251V33.8619H26.427V35.0849H27.251V36.1919H26.427V37.2249H27.251V38.4019H26.427V39.4359H30.127V39.7289C30.1304 39.7529 30.1281 39.7773 30.1204 39.8002C30.1126 39.8232 30.0997 39.844 30.0825 39.8611C30.0653 39.8782 30.0444 39.891 30.0214 39.8986C29.9984 39.9062 29.974 39.9084 29.95 39.9049H29.576V41.1049H30.326C30.6031 41.0824 30.8614 40.9558 31.0489 40.7506C31.2365 40.5454 31.3394 40.2769 31.337 39.9989V39.4349H33.79C33.79 39.9819 33.503 40.2419 32.75 40.2419C31.997 40.2419 31.788 39.8789 31.788 39.8789V40.9669C32.011 41.2159 32.929 41.2859 32.929 41.2859C33.1815 41.3119 33.4366 41.2823 33.6764 41.1993C33.9162 41.1162 34.135 40.9817 34.3173 40.8051C34.4996 40.6285 34.641 40.4142 34.7317 40.1771C34.8223 39.9401 34.86 39.686 34.842 39.4329H36.505C36.8936 39.2281 37.2216 38.9248 37.4562 38.5535C37.6908 38.1822 37.8239 37.7557 37.842 37.3169H38.623V36.3769H37.894C37.894 36.3089 37.856 34.8019 37.062 34.3709C37.3219 34.1835 37.5292 33.9326 37.6642 33.6421C37.7992 33.3516 37.8573 33.0313 37.833 32.7119H38.624L38.627 31.7689Z" fill="#00954C"/>
<path d="M13.089 28.655V32.069L16.527 35.483V28.655H13.089Z" fill="#00954C"/>
<path d="M13.088 32.068V28.655H9.65002L13.088 32.068Z" fill="white"/>
<path d="M22.903 34.332C22.9027 33.3211 23.0717 32.3172 23.403 31.362V28.6541H19.965V38.894L23.403 42.308V37.308C23.0711 36.351 22.9021 35.345 22.903 34.332Z" fill="#00954C"/>
<path d="M19.966 28.655H16.526V35.482L19.964 38.896L19.966 28.655Z" fill="white"/>
<path d="M26.842 41.8198V45.7198L30.28 49.1338V43.2638C29.0461 43.0265 27.8753 42.5347 26.842 41.8198Z" fill="#00954C"/>
<path d="M23.404 37.3062V42.3062L26.842 45.7202V41.8202C25.246 40.7184 24.042 39.1375 23.404 37.3062Z" fill="white"/>
<path d="M24.899 28.6541H23.399V31.362C23.7407 30.3803 24.248 29.4644 24.899 28.6541Z" fill="white"/>
<path d="M33.719 43.263V49.137L37.157 45.723V41.823C36.1234 42.5364 34.9525 43.0268 33.719 43.263Z" fill="#00954C"/>
<path d="M31.999 43.4271C31.4224 43.4269 30.8472 43.372 30.281 43.2631V49.135L32 50.842L33.719 49.135V43.264C33.1521 43.3727 32.5762 43.4273 31.999 43.4271Z" fill="white"/>
<path d="M40.597 28.6539V31.3619C41.2632 33.2869 41.2632 35.3799 40.597 37.3049V42.3049L44.035 38.8909V28.6509L40.597 28.6539Z" fill="#00954C"/>
<path d="M37.157 41.8202V45.7202L40.595 42.3062V37.3062C39.9569 39.1375 38.7529 40.7184 37.157 41.8202Z" fill="white"/>
<path d="M39.099 28.6541C39.75 29.4644 40.2573 30.3803 40.599 31.362V28.6541H39.099Z" fill="white"/>
<path d="M47.473 35.481L50.911 32.067V28.655H47.473V35.481Z" fill="#00954C"/>
<path d="M47.471 28.655H44.033V38.895L47.471 35.481V28.655Z" fill="white"/>
<path d="M54.347 28.655H50.909V32.069L54.347 28.655Z" fill="white"/>
<path d="M30.915 20.832C30.9151 20.6459 30.9636 20.463 31.0559 20.3014C31.1481 20.1397 31.2808 20.0048 31.441 19.91V17.498C29.6603 17.5484 27.9207 18.0442 26.381 18.94C26.5512 19.5439 26.904 20.0804 27.391 20.476C27.527 20.4142 27.6746 20.3818 27.824 20.381C28.0667 20.3815 28.3022 20.4643 28.4918 20.6158C28.6814 20.7674 28.8141 20.9788 28.868 21.2155C28.922 21.4521 28.8941 21.7001 28.789 21.9189C28.6838 22.1377 28.5075 22.3144 28.289 22.42L28.295 22.434C28.3695 22.5845 28.487 22.7094 28.6326 22.7931C28.7781 22.8767 28.9453 22.9152 29.1128 22.9037C29.2803 22.8923 29.4406 22.8313 29.5734 22.7287C29.7063 22.626 29.8057 22.4862 29.859 22.327C29.8698 22.296 29.8785 22.2643 29.885 22.232C29.8137 22.2 29.7548 22.1455 29.7174 22.0768C29.68 22.0082 29.6661 21.9292 29.6779 21.8519C29.6896 21.7746 29.7263 21.7033 29.7823 21.6488C29.8384 21.5943 29.9108 21.5597 29.9884 21.5502C30.066 21.5407 30.1445 21.5569 30.2121 21.5962C30.2796 21.6356 30.3324 21.696 30.3624 21.7682C30.3924 21.8404 30.3979 21.9204 30.3782 21.996C30.3584 22.0717 30.3145 22.1387 30.253 22.187C30.3304 22.3334 30.4491 22.4538 30.5943 22.5333C30.7395 22.6129 30.9048 22.6481 31.0699 22.6346C31.2349 22.6211 31.3923 22.5594 31.5226 22.4573C31.6529 22.3552 31.7504 22.217 31.803 22.06C31.821 22.0055 31.833 21.9492 31.839 21.892C31.5828 21.8561 31.3483 21.7289 31.1785 21.5337C31.0087 21.3386 30.9151 21.0887 30.915 20.83" fill="#D7013E"/>
<path d="M27.82 22.53C27.5356 22.5302 27.2627 22.4176 27.0613 22.2168C26.8599 22.016 26.7465 21.7434 26.746 21.459C26.7444 21.441 26.7444 21.4229 26.746 21.405C26.1611 20.9378 25.7054 20.3288 25.422 19.636C24.5446 20.3352 23.9425 21.322 23.722 22.422C23.8194 22.393 23.9204 22.3782 24.022 22.378C24.1635 22.3771 24.3038 22.4041 24.4348 22.4576C24.5657 22.5112 24.6849 22.59 24.7852 22.6898C24.8856 22.7895 24.9653 22.9081 25.0196 23.0387C25.074 23.1694 25.102 23.3095 25.102 23.451C25.102 23.7174 25.0025 23.9742 24.823 24.171C24.9803 24.3226 25.1904 24.4073 25.409 24.407C25.6336 24.4062 25.8489 24.3166 26.0077 24.1577C26.1666 23.9989 26.2562 23.7836 26.257 23.559C26.2568 23.5255 26.2544 23.4921 26.25 23.459C26.1609 23.451 26.078 23.4099 26.0176 23.3438C25.9573 23.2777 25.9239 23.1915 25.924 23.102C25.924 23.0068 25.9618 22.9155 26.0291 22.8481C26.0965 22.7808 26.1878 22.743 26.283 22.743C26.3782 22.743 26.4695 22.7808 26.5368 22.8481C26.6042 22.9155 26.642 23.0068 26.642 23.102C26.643 23.1729 26.6228 23.2426 26.584 23.302C26.7402 23.4524 26.9482 23.5369 27.165 23.538C27.3898 23.5377 27.6054 23.4485 27.7647 23.2898C27.9239 23.1311 28.0139 22.9158 28.015 22.691C28.0145 22.6335 28.0082 22.5762 27.996 22.52C27.9382 22.5301 27.8797 22.5354 27.821 22.536" fill="#D7013E"/>
<path d="M33.085 20.832C33.0849 20.6459 33.0363 20.463 32.9441 20.3014C32.8519 20.1397 32.7191 20.0048 32.559 19.91V17.498C34.3396 17.5484 36.0793 18.0442 37.619 18.94C37.4491 19.5433 37.097 20.0794 36.611 20.475C36.475 20.4132 36.3274 20.3808 36.178 20.38C35.9353 20.3803 35.6999 20.4628 35.5102 20.6141C35.3205 20.7653 35.1877 20.9764 35.1333 21.2129C35.079 21.4494 35.1065 21.6973 35.2112 21.9162C35.3159 22.135 35.4918 22.312 35.71 22.418L35.704 22.432C35.6295 22.5825 35.5121 22.7075 35.3666 22.7912C35.2211 22.8749 35.054 22.9135 34.8865 22.9022C34.719 22.8908 34.5587 22.83 34.4258 22.7274C34.2929 22.6249 34.1934 22.4852 34.14 22.326C34.1292 22.295 34.1205 22.2633 34.114 22.231C34.1853 22.199 34.2441 22.1445 34.2815 22.0758C34.3189 22.0072 34.3328 21.9282 34.3211 21.8509C34.3094 21.7736 34.2727 21.7023 34.2166 21.6478C34.1606 21.5933 34.0882 21.5587 34.0106 21.5492C33.933 21.5397 33.8544 21.5559 33.7869 21.5952C33.7194 21.6346 33.6665 21.695 33.6366 21.7672C33.6066 21.8394 33.601 21.9194 33.6208 21.995C33.6405 22.0707 33.6845 22.1377 33.746 22.186C33.6685 22.3324 33.5499 22.4528 33.4047 22.5323C33.2595 22.6119 33.0941 22.6471 32.9291 22.6336C32.7641 22.6201 32.6067 22.5584 32.4764 22.4563C32.346 22.3542 32.2486 22.216 32.196 22.059C32.178 22.0045 32.1659 21.9482 32.16 21.891C32.4161 21.8551 32.6507 21.7279 32.8205 21.5327C32.9903 21.3376 33.0838 21.0877 33.084 20.829" fill="#D7013E"/>
<path d="M36.179 22.53C36.32 22.5302 36.4596 22.5025 36.5899 22.4486C36.7202 22.3948 36.8386 22.3158 36.9383 22.2161C37.0381 22.1165 37.1172 21.9981 37.1712 21.8679C37.2252 21.7376 37.253 21.598 37.253 21.457C37.2546 21.4391 37.2546 21.421 37.253 21.403C37.8379 20.9358 38.2936 20.3269 38.577 19.634C39.4543 20.3333 40.0564 21.32 40.277 22.42C40.1796 22.391 40.0786 22.3762 39.977 22.376C39.7693 22.3759 39.566 22.4361 39.3918 22.5494C39.2177 22.6626 39.0802 22.824 38.9961 23.014C38.912 23.2039 38.8849 23.4142 38.918 23.6192C38.9512 23.8243 39.0433 24.0153 39.183 24.169C39.0632 24.2846 38.912 24.3622 38.7484 24.3924C38.5847 24.4225 38.4158 24.4038 38.2627 24.3385C38.1096 24.2732 37.9792 24.1643 37.8876 24.0253C37.7961 23.8863 37.7475 23.7234 37.748 23.557C37.7482 23.5236 37.7505 23.4902 37.755 23.457C37.8327 23.4493 37.9058 23.4163 37.9631 23.3631C38.0203 23.3099 38.0586 23.2394 38.0721 23.1624C38.0855 23.0855 38.0734 23.0062 38.0376 22.9367C38.0018 22.8673 37.9442 22.8114 37.8737 22.7778C37.8032 22.7441 37.7236 22.7344 37.647 22.7502C37.5705 22.766 37.5012 22.8064 37.4498 22.8652C37.3984 22.9241 37.3676 22.9982 37.3623 23.0761C37.3569 23.1541 37.3771 23.2317 37.42 23.297C37.2896 23.4223 37.1226 23.5024 36.9433 23.5256C36.764 23.5488 36.582 23.5138 36.4242 23.4257C36.2663 23.3377 36.1408 23.2014 36.0662 23.0367C35.9917 22.872 35.9719 22.6878 36.01 22.511C36.0678 22.5211 36.1263 22.5265 36.185 22.527" fill="#D7013E"/>
<path d="M42.638 20.3999C42.631 19.8806 42.5168 19.3684 42.3026 18.8954C42.0883 18.4223 41.7787 17.9987 41.393 17.6509C40.4916 16.8245 39.3159 16.3613 38.093 16.3509C37.4482 15.5814 36.6499 14.9551 35.7492 14.5118C34.8484 14.0686 33.8651 13.8183 32.862 13.7769C32.8607 13.5904 32.7999 13.4092 32.6883 13.2597C32.5768 13.1102 32.4204 13.0002 32.242 12.9459V12.7849H32.67V12.2939H32.241V11.9629H31.761V12.2939H31.332V12.7839H31.76V12.9479C31.5814 13.0023 31.4249 13.1124 31.3134 13.2621C31.2018 13.4118 31.1411 13.5932 31.14 13.7799C30.137 13.8212 29.1536 14.0715 28.2528 14.5148C27.3521 14.958 26.5538 15.5844 25.909 16.3539C24.6861 16.3643 23.5105 16.8275 22.609 17.6539C22.2234 18.0017 21.9137 18.4253 21.6995 18.8984C21.4852 19.3714 21.371 19.8836 21.364 20.4029C21.3873 20.989 21.5447 21.562 21.8242 22.0778C22.1036 22.5935 22.4977 23.0383 22.976 23.3779C22.976 23.4019 22.976 23.4249 22.976 23.4519C22.9763 23.7366 23.0896 24.0095 23.2909 24.2107C23.4923 24.4119 23.7653 24.5249 24.05 24.5249C24.1643 24.5222 24.2774 24.5012 24.385 24.4629C24.4846 24.6556 24.6363 24.8164 24.8228 24.9271C25.0093 25.0377 25.2232 25.0938 25.44 25.0889C25.398 25.1189 25.355 25.1479 25.313 25.1789C25.2229 25.2474 25.1627 25.348 25.145 25.4598C25.1273 25.5716 25.1534 25.6859 25.218 25.7789C25.2549 25.8407 25.3074 25.8918 25.3702 25.9269C25.4331 25.962 25.504 25.9799 25.576 25.9789C25.624 25.9782 25.6717 25.9715 25.718 25.9589L26.268 26.7109L26.378 26.6309C28.0086 25.4306 29.9813 24.7853 32.006 24.7899C34.0307 24.7853 36.0034 25.4306 37.634 26.6309L37.741 26.7109L38.285 25.9629C38.3313 25.9755 38.379 25.9823 38.427 25.9829C38.499 25.9838 38.5699 25.9658 38.6327 25.9307C38.6956 25.8956 38.7481 25.8447 38.785 25.7829C38.8496 25.6899 38.8758 25.5756 38.858 25.4638C38.8403 25.352 38.7801 25.2514 38.69 25.1829C38.648 25.1519 38.605 25.1229 38.563 25.0929C38.7798 25.0978 38.9937 25.0417 39.1802 24.9311C39.3667 24.8204 39.5184 24.6596 39.618 24.4669C39.7792 24.5205 39.9509 24.535 40.1188 24.5093C40.2868 24.4835 40.4462 24.4183 40.584 24.3189C40.7218 24.2195 40.8339 24.0887 40.9113 23.9375C40.9887 23.7862 41.029 23.6188 41.029 23.4489C41.0309 23.4243 41.0309 23.3995 41.029 23.3749C41.5074 23.0354 41.9015 22.5906 42.181 22.0748C42.4604 21.5591 42.6178 20.9861 42.641 20.3999H42.638ZM27.179 23.5329C26.9622 23.5318 26.7542 23.4473 26.598 23.2969C26.6373 23.2376 26.6578 23.168 26.657 23.0969C26.6571 23.0497 26.6478 23.003 26.6298 22.9594C26.6118 22.9159 26.5853 22.8763 26.552 22.8429C26.5186 22.8096 26.479 22.7831 26.4355 22.7651C26.3919 22.7471 26.3452 22.7379 26.298 22.7379C26.2028 22.7379 26.1115 22.7757 26.0442 22.843C25.9768 22.9104 25.939 23.0017 25.939 23.0969C25.9389 23.1864 25.9723 23.2727 26.0327 23.3387C26.093 23.4048 26.1759 23.4459 26.265 23.4539C26.2694 23.4871 26.2717 23.5204 26.272 23.5539C26.2712 23.7786 26.1816 23.9938 26.0228 24.1526C25.8639 24.3115 25.6487 24.4011 25.424 24.4019C25.2055 24.4023 24.9953 24.3176 24.838 24.1659C25.0176 23.9691 25.1171 23.7123 25.117 23.4459C25.117 23.1613 25.004 22.8884 24.8027 22.6872C24.6015 22.4859 24.3286 22.3729 24.044 22.3729C23.9424 22.373 23.8414 22.3878 23.744 22.4169C23.6994 22.4297 23.6556 22.4454 23.613 22.4639C23.2801 22.227 23.0045 21.9184 22.8067 21.5608C22.6089 21.2032 22.4938 20.8058 22.47 20.3979C22.4783 20.0297 22.5625 19.6672 22.7174 19.333C22.8723 18.9988 23.0944 18.7002 23.37 18.4559C23.9176 17.9524 24.604 17.6252 25.34 17.5169C25.2557 17.8095 25.213 18.1124 25.213 18.4169C25.2141 18.8338 25.2927 19.2468 25.445 19.6349C25.7283 20.3278 26.1841 20.9368 26.769 21.4039C26.769 21.4219 26.769 21.4399 26.769 21.4589C26.769 21.5999 26.7968 21.7395 26.8508 21.8697C26.9048 22 26.9839 22.1183 27.0836 22.218C27.1834 22.3176 27.3018 22.3966 27.4321 22.4505C27.5624 22.5044 27.702 22.532 27.843 22.5319C27.9017 22.5313 27.9602 22.5259 28.018 22.5159C28.03 22.5721 28.0363 22.6294 28.037 22.6869C28.0362 22.9116 27.9466 23.1268 27.7878 23.2856C27.6289 23.4445 27.4137 23.5341 27.189 23.5349L27.179 23.5329ZM31.814 22.0609C31.7789 22.1665 31.7232 22.2642 31.65 22.3481C31.5769 22.432 31.4879 22.5006 31.388 22.5499C31.2883 22.5997 31.1796 22.6292 31.0684 22.6367C30.9572 22.6443 30.8456 22.6297 30.74 22.5939C30.5349 22.5246 30.3644 22.3788 30.264 22.1869C30.3197 22.1446 30.3618 22.0869 30.385 22.0209C30.4003 21.9757 30.4065 21.928 30.4032 21.8804C30.3999 21.8329 30.3872 21.7864 30.3658 21.7438C30.3444 21.7012 30.3147 21.6633 30.2785 21.6322C30.2424 21.6011 30.2004 21.5776 30.155 21.5629C30.1102 21.5477 30.0629 21.5414 30.0157 21.5445C29.9685 21.5476 29.9224 21.56 29.88 21.5809C29.8377 21.602 29.7999 21.6312 29.7688 21.6669C29.7378 21.7026 29.714 21.744 29.699 21.7889C29.6711 21.8741 29.6761 21.9667 29.7131 22.0483C29.7502 22.13 29.8165 22.1948 29.899 22.2299C29.8924 22.2621 29.8837 22.2938 29.873 22.3249C29.8379 22.4307 29.7822 22.5284 29.7091 22.6125C29.636 22.6967 29.5469 22.7654 29.447 22.8149C29.3473 22.8647 29.2386 22.8942 29.1274 22.9017C29.0162 22.9093 28.9046 22.8947 28.799 22.8589C28.6935 22.8236 28.5959 22.7678 28.512 22.6947C28.4281 22.6216 28.3595 22.5326 28.31 22.4329L28.304 22.4189C28.4853 22.3311 28.6383 22.1941 28.7453 22.0234C28.8523 21.8527 28.909 21.6553 28.909 21.4539C28.9091 21.3129 28.8815 21.1733 28.8276 21.043C28.7738 20.9127 28.6947 20.7943 28.5951 20.6945C28.4954 20.5948 28.3771 20.5156 28.2469 20.4617C28.1166 20.4077 27.977 20.3799 27.836 20.3799C27.6866 20.3807 27.539 20.4131 27.403 20.4749C26.9171 20.0791 26.565 19.5431 26.395 18.9399C26.3522 18.7678 26.3303 18.5912 26.33 18.4139C26.33 16.6059 28.624 15.0599 31.455 14.8769V19.9079C31.2944 20.0028 31.1614 20.138 31.069 20.3C30.9765 20.462 30.928 20.6454 30.928 20.8319C30.928 21.0909 31.0216 21.3411 31.1916 21.5365C31.3616 21.7319 31.5965 21.8592 31.853 21.8949C31.8468 21.952 31.8348 22.0083 31.817 22.0629L31.814 22.0609ZM35.692 22.4359C35.6426 22.5356 35.5739 22.6246 35.49 22.6977C35.4061 22.7708 35.3086 22.8266 35.203 22.8619C35.0974 22.8977 34.9858 22.9123 34.8746 22.9047C34.7634 22.8972 34.6548 22.8677 34.555 22.8179C34.4551 22.7684 34.3661 22.6997 34.2929 22.6155C34.2198 22.5314 34.1641 22.4337 34.129 22.3279C34.1183 22.2968 34.1096 22.2651 34.103 22.2329C34.1855 22.1978 34.2518 22.133 34.2889 22.0513C34.3259 21.9697 34.331 21.8771 34.303 21.7919C34.288 21.747 34.2643 21.7056 34.2332 21.6699C34.2022 21.6342 34.1644 21.605 34.122 21.5839C34.0796 21.563 34.0335 21.5506 33.9863 21.5475C33.9391 21.5444 33.8918 21.5507 33.847 21.5659C33.8023 21.5809 33.7609 21.6046 33.7254 21.6356C33.6898 21.6666 33.6607 21.7043 33.6397 21.7465C33.6187 21.7888 33.6062 21.8348 33.603 21.8819C33.5998 21.9289 33.6059 21.9762 33.621 22.0209C33.6433 22.0868 33.6843 22.1449 33.739 22.1879C33.6387 22.3798 33.4682 22.5257 33.263 22.5949C33.1575 22.6308 33.0458 22.6454 32.9346 22.6378C32.8234 22.6302 32.7147 22.6007 32.615 22.5509C32.5145 22.5022 32.4248 22.4339 32.3509 22.3501C32.2771 22.2664 32.2207 22.1687 32.185 22.0629C32.1671 22.009 32.1547 21.9533 32.148 21.8969C32.404 21.8608 32.6383 21.7334 32.8079 21.5383C32.9775 21.3432 33.0709 21.0934 33.071 20.8349C33.0714 20.6484 33.0233 20.465 32.9312 20.3028C32.8391 20.1406 32.7064 20.0051 32.546 19.9099V14.8789C35.377 15.0619 37.672 16.6069 37.672 18.4159C37.6717 18.5932 37.6499 18.7698 37.607 18.9419C37.4369 19.5448 37.0849 20.0805 36.599 20.4759C36.463 20.4141 36.3154 20.3817 36.166 20.3809C36.025 20.3809 35.8854 20.4087 35.7552 20.4627C35.6249 20.5166 35.5066 20.5958 35.4069 20.6955C35.3073 20.7953 35.2283 20.9137 35.1744 21.044C35.1205 21.1743 35.0929 21.3139 35.093 21.4549C35.093 21.6563 35.1497 21.8537 35.2568 22.0244C35.3638 22.1951 35.5167 22.3321 35.698 22.4199L35.692 22.4339V22.4359ZM40.392 22.4669C40.3494 22.4484 40.3057 22.4327 40.261 22.4199C40.1637 22.3908 40.0626 22.376 39.961 22.3759C39.7533 22.3757 39.5499 22.436 39.3758 22.5492C39.2016 22.6625 39.0641 22.8239 38.98 23.0139C38.8961 23.2039 38.8691 23.4143 38.9025 23.6193C38.9359 23.8244 39.0281 24.0153 39.168 24.1689C39.0482 24.2839 38.8972 24.3612 38.7338 24.3911C38.5704 24.4209 38.4018 24.4021 38.249 24.3369C38.0961 24.2717 37.9658 24.1631 37.8742 24.0244C37.7826 23.8857 37.7339 23.7231 37.734 23.5569C37.7346 23.5234 37.7373 23.49 37.742 23.4569C37.835 23.448 37.9208 23.4032 37.9813 23.3321C38.0418 23.261 38.0722 23.1691 38.066 23.0759C38.0598 22.983 38.0178 22.8961 37.9488 22.8336C37.8797 22.7711 37.7891 22.7378 37.696 22.7409C37.6029 22.744 37.5146 22.7832 37.4499 22.8502C37.3851 22.9172 37.349 23.0067 37.349 23.0999C37.3482 23.171 37.3688 23.2406 37.408 23.2999C37.2518 23.4503 37.0438 23.5348 36.827 23.5359C36.6024 23.5351 36.3871 23.4455 36.2283 23.2866C36.0694 23.1278 35.9798 22.9126 35.979 22.6879C35.9797 22.6304 35.9861 22.5731 35.998 22.5169C36.0558 22.5269 36.1143 22.5322 36.173 22.5329C36.4559 22.531 36.7265 22.4176 36.9262 22.2172C37.1258 22.0168 37.2382 21.7457 37.239 21.4629C37.2407 21.4446 37.2407 21.4262 37.239 21.4079C37.824 20.9408 38.2798 20.3318 38.563 19.6389C38.7153 19.2508 38.794 18.8378 38.795 18.4209C38.795 18.1164 38.7523 17.8135 38.668 17.5209C39.404 17.6292 40.0904 17.9564 40.638 18.4599C40.9136 18.7042 41.1358 19.0028 41.2906 19.337C41.4455 19.6712 41.5297 20.0337 41.538 20.4019C41.5123 20.8098 41.3954 21.2068 41.1958 21.5635C40.9963 21.9202 40.7192 22.2275 40.385 22.4629L40.392 22.4669Z" fill="#DE9500"/>
</g>
<defs>
<clipPath id="clip0_40_31696">
<rect width="64" height="64" fill="white"/>
</clipPath>
</defs>
</svg>
