<svg width="64" height="64" viewBox="0 0 64 64" fill="none" xmlns="http://www.w3.org/2000/svg">
<g clip-path="url(#clip0_40_31722)">
<path d="M32 64C49.6731 64 64 49.6731 64 32C64 14.3269 49.6731 0 32 0C14.3269 0 0 14.3269 0 32C0 49.6731 14.3269 64 32 64Z" fill="black"/>
<path fill-rule="evenodd" clip-rule="evenodd" d="M23.7533 18.689C21.0294 19.4436 18.2526 19.9919 15.4463 20.329C15.4526 22.5216 15.6104 24.7111 15.9183 26.882L23.7533 18.689Z" fill="black"/>
<path fill-rule="evenodd" clip-rule="evenodd" d="M32.0003 50.545C34.2868 49.4159 36.4109 47.984 38.3153 46.288C40.2518 44.5562 41.9368 42.5623 43.3213 40.364C45.1007 37.5173 46.42 34.4078 47.2303 31.15C47.3303 30.775 47.4153 30.401 47.5023 30.032L29.3353 49.041C30.1973 49.5869 31.0872 50.0876 32.0013 50.541L32.0003 50.545Z" fill="black"/>
<path fill-rule="evenodd" clip-rule="evenodd" d="M48.5283 21.7191C48.5443 21.2571 48.5503 20.7961 48.5553 20.3291C46.7363 20.0851 45.1293 19.8291 43.6963 19.5291L21.9833 42.2541C22.9879 43.5948 24.1129 44.841 25.3443 45.9771L48.5283 21.7191Z" fill="black"/>
<path fill-rule="evenodd" clip-rule="evenodd" d="M38.2333 18.0049C37.9513 17.8959 37.6793 17.7819 37.4193 17.6679C36.0986 17.1075 34.8645 16.3617 33.7543 15.4529L17.2213 32.7529C17.7572 34.5073 18.4403 36.2134 19.2633 37.8529L38.2333 18.0049Z" fill="black"/>
<path fill-rule="evenodd" clip-rule="evenodd" d="M23.0153 26.329C21.2883 25.281 20.4473 23.668 20.3873 21.122C20.8788 21.1517 21.3709 21.0721 21.828 20.889C22.2852 20.7059 22.6961 20.4238 23.0313 20.063C23.364 20.4042 23.7685 20.6671 24.2154 20.8324C24.6624 20.9978 25.1406 21.0615 25.6153 21.019C25.5153 23.734 24.7683 25.27 23.0153 26.329Z" fill="#FFD900"/>
<path fill-rule="evenodd" clip-rule="evenodd" d="M35.0793 29.3579C35.0793 29.5369 35.0743 29.7219 35.0683 29.9009C35.0357 30.4649 35.0595 31.0307 35.1393 31.5899C35.1974 31.8988 35.2886 32.2005 35.4113 32.4899C35.5626 32.8384 35.7597 33.1653 35.9973 33.4619C36.1063 33.6029 36.2413 33.7619 36.3773 33.9289C36.5937 34.1748 36.7941 34.4343 36.9773 34.7059C37.0103 34.7599 37.0423 34.8059 37.0693 34.8629C37.0743 34.8629 37.0743 34.8689 37.0803 34.8739C37.2416 35.0807 37.4529 35.2432 37.6943 35.3459C37.9675 35.4693 38.2635 35.534 38.5633 35.5359C38.9127 35.5398 39.2512 35.4141 39.5133 35.1829C39.6366 35.0656 39.7354 34.9251 39.804 34.7694C39.8727 34.6137 39.9098 34.446 39.9133 34.2759C39.8107 33.184 39.417 32.1397 38.7733 31.2519C38.4733 30.7199 38.1543 30.1659 37.8883 29.5899C37.6396 29.0642 37.4501 28.5124 37.3233 27.9449C37.2043 27.3628 37.1733 26.7662 37.2313 26.1749C37.2648 25.7845 37.3796 25.4054 37.5683 25.0619C37.7379 24.7388 37.9862 24.4636 38.2903 24.2619C38.4245 24.1745 38.5707 24.1071 38.7243 24.0619C38.8854 24.0186 39.0515 23.9968 39.2183 23.9969C39.5124 24.0013 39.8011 24.0773 40.0593 24.2182C40.3175 24.3592 40.5375 24.5609 40.7003 24.8059C41.0788 25.3825 41.2737 26.0603 41.2593 26.7499C41.3839 26.918 41.4849 27.1023 41.5593 27.2979C41.6715 27.5663 41.7589 27.8445 41.8203 28.1289C41.8596 28.3309 41.8797 28.5361 41.8803 28.7419C41.8793 28.9221 41.8937 29.1021 41.9233 29.2799C41.9616 29.414 42.0107 29.5448 42.0703 29.6709C42.2284 29.9929 42.3173 30.3444 42.3313 30.7029C42.3306 30.7258 42.3237 30.7481 42.3114 30.7674C42.299 30.7867 42.2816 30.8024 42.2611 30.8126C42.2406 30.8229 42.2177 30.8274 42.1949 30.8257C42.172 30.8239 42.15 30.8161 42.1313 30.8029C42.0223 30.7269 41.9573 30.6779 41.8973 30.6349C41.7973 30.5639 41.7233 30.5049 41.5223 30.3739C41.4733 30.3409 41.3863 30.2919 41.2893 30.2379C41.2697 30.2297 41.2515 30.2186 41.2353 30.2049C41.0425 30.1084 40.8605 29.9918 40.6923 29.8569C40.531 29.6905 40.4021 29.4955 40.3123 29.2819C40.1984 29.0258 40.1145 28.7573 40.0623 28.4819C40.0182 28.1689 40.0075 27.8521 40.0303 27.5369C40.0418 27.2561 40.093 26.9784 40.1823 26.7119C40.2056 26.6088 40.2391 26.5083 40.2823 26.4119C40.3239 26.3156 40.3547 26.215 40.3743 26.1119C40.3394 25.7913 40.1987 25.4915 39.9743 25.2599C39.8828 25.1614 39.7705 25.0845 39.6457 25.0347C39.5208 24.9849 39.3865 24.9635 39.2523 24.9719C39.1401 24.9762 39.0302 25.0053 38.9306 25.0572C38.831 25.109 38.7441 25.1824 38.6763 25.2719C38.5336 25.4647 38.4316 25.6845 38.3763 25.9179C38.3051 26.2017 38.2778 26.4948 38.2953 26.7869C38.3125 27.1795 38.3671 27.5696 38.4583 27.9519C38.7193 28.9108 39.1457 29.8167 39.7183 30.6289C39.9463 30.9929 40.1853 31.3669 40.4133 31.7849C40.6408 32.2041 40.8177 32.6489 40.9403 33.1099C41.0523 33.5294 41.1035 33.9628 41.0923 34.3969C41.0812 35.0813 40.816 35.7371 40.3483 36.2369C40.1223 36.4718 39.8506 36.6579 39.55 36.784C39.2494 36.9101 38.9262 36.9733 38.6003 36.9699C38.346 36.9791 38.0918 36.9518 37.8453 36.8889C37.6515 36.8344 37.468 36.7482 37.3023 36.6339C37.2867 36.7074 37.2667 36.7798 37.2423 36.8509L37.2473 36.8459C37.2182 36.9707 37.2165 37.1003 37.2423 37.2259C37.2762 37.4104 37.3309 37.5906 37.4053 37.7629C37.5053 38.0019 37.6053 38.2139 37.6873 38.3769C37.7354 38.4847 37.7976 38.5855 37.8723 38.6769C37.9323 38.7309 37.9923 38.7909 38.0513 38.8509C38.2789 39.1119 38.5495 39.332 38.8513 39.5019C38.9077 39.5233 38.966 39.5397 39.0253 39.5509C39.1933 39.5889 39.3253 39.6219 39.3253 39.8119C39.3251 39.9064 39.3085 40.0001 39.2763 40.0889C39.2554 40.1417 39.239 40.1963 39.2273 40.2519C39.2003 40.3819 39.1733 40.5339 39.1563 40.6859C39.14 40.8263 39.131 40.9675 39.1293 41.1089C39.1335 41.2992 39.1573 41.4885 39.2003 41.6739C39.2433 41.8799 39.3003 42.0869 39.3573 42.2739C39.3847 42.3611 39.4181 42.4463 39.4573 42.5289C39.5426 42.7234 39.6135 42.924 39.6693 43.1289C39.6689 43.1318 39.6692 43.1347 39.67 43.1374C39.6709 43.1402 39.6723 43.1427 39.6743 43.1449C39.6903 43.1559 39.7343 43.1779 39.7743 43.1989C39.9203 43.2749 40.0893 43.3619 40.0743 43.5359C40.0633 43.6769 39.9163 43.8129 39.7653 43.9539C39.6947 44.0165 39.6279 44.0833 39.5653 44.1539C39.5417 44.1784 39.5115 44.1955 39.4783 44.2029C39.3973 44.2089 39.3103 44.2089 39.1783 44.2139H39.0693C38.9693 44.2089 38.7813 44.3609 38.6693 44.4579C38.6386 44.4794 38.6095 44.5031 38.5823 44.5289L38.5883 44.5229C38.3839 44.6335 38.1452 44.6624 37.9203 44.6039C37.7416 44.5731 37.5768 44.4879 37.4483 44.3599C37.3931 44.3757 37.337 44.3884 37.2803 44.3979C37.2034 44.4139 37.1247 44.4193 37.0463 44.4139C36.9358 44.4136 36.826 44.3971 36.7203 44.3649C36.6983 44.3599 36.6773 44.3489 36.6493 44.3439C36.6489 44.3585 36.6509 44.373 36.6553 44.3869C36.6569 44.4619 36.6659 44.5366 36.6823 44.6099C36.6857 44.6405 36.6791 44.6714 36.6634 44.6979C36.6477 44.7245 36.6238 44.7451 36.5953 44.7569C36.477 44.791 36.3505 44.7832 36.2373 44.7349C36.1539 44.6998 36.0797 44.6461 36.0203 44.5779C35.9647 44.5145 35.9222 44.4408 35.8953 44.3609C35.885 44.3163 35.8796 44.2707 35.8793 44.2249C35.8484 44.2477 35.8211 44.275 35.7983 44.3059C35.7806 44.3226 35.7642 44.3407 35.7493 44.3599C35.6623 44.4409 35.5863 44.4739 35.4883 44.3759L35.4823 44.3649C35.3682 44.2169 35.3054 44.0358 35.3033 43.8489C35.2905 43.6497 35.3316 43.4507 35.4223 43.2729C35.4309 43.226 35.4454 43.1803 35.4653 43.1369C35.4681 43.1256 35.4717 43.1146 35.4763 43.1039C35.5171 42.9863 35.5857 42.8803 35.6763 42.7949C35.8505 42.626 36.0574 42.4947 36.2843 42.4089C36.4523 42.3379 36.8543 42.6429 37.1633 42.6149C37.1919 42.6086 37.221 42.6049 37.2503 42.6039V42.4949C37.2773 41.5069 37.2833 41.1699 37.0503 40.8549C36.9549 40.723 36.8351 40.6106 36.6973 40.5239C36.5465 40.4295 36.3841 40.3549 36.2143 40.3019C35.8985 40.1957 35.5887 40.0726 35.2863 39.9329C34.9983 39.7919 34.7213 39.6399 34.4283 39.4609C33.8504 39.1108 33.3995 38.5852 33.1413 37.9609C33.0813 37.8249 33.0273 37.6789 32.9783 37.5369C32.8203 37.6019 32.5543 37.7049 32.2403 37.8079C32.2229 37.818 32.2048 37.827 32.1863 37.8349C31.8008 38.0242 31.4501 38.2774 31.1493 38.5839C30.9244 38.7725 30.7648 39.0272 30.6933 39.3119C30.6829 39.4628 30.692 39.6143 30.7203 39.7629C30.7934 40.0168 30.7784 40.2881 30.6778 40.5324C30.5772 40.7768 30.397 40.98 30.1663 41.1089C30.1283 41.2389 30.0743 41.3699 30.0253 41.4939C29.8928 41.7667 29.8205 42.0647 29.8133 42.3679C29.8724 42.4328 29.9173 42.5092 29.9454 42.5923C29.9734 42.6755 29.984 42.7635 29.9763 42.8509C29.9519 43.0264 29.87 43.189 29.7433 43.3129C29.6341 43.4428 29.4782 43.5247 29.3093 43.5409C29.2405 43.542 29.1716 43.5383 29.1033 43.5299C29.0105 43.5109 28.9153 43.5072 28.8213 43.5189C28.5239 43.6674 28.1919 43.7331 27.8603 43.7089C27.6963 43.6922 27.5401 43.6302 27.4093 43.5299C27.2953 43.5679 27.1973 43.6059 27.1213 43.6219C27.1122 43.6233 27.1032 43.6254 27.0943 43.6279C27.0697 43.6284 27.0453 43.6229 27.0233 43.6119L26.8333 43.7689C26.7978 43.7909 26.7559 43.8005 26.7143 43.7959C26.6075 43.7575 26.5148 43.6878 26.4483 43.5959C26.4318 43.5697 26.4175 43.5423 26.4053 43.5139C26.3723 43.6139 26.3513 43.6989 26.2313 43.7259C26.1558 43.7259 26.0811 43.71 26.0122 43.6791C25.9432 43.6483 25.8816 43.6032 25.8313 43.5469C25.7178 43.4376 25.6273 43.3067 25.5653 43.1619C25.5653 43.1559 25.5603 43.1509 25.5603 43.1399C25.5505 43.1171 25.5431 43.0933 25.5383 43.0689V43.0469C25.5273 43.0249 25.5113 42.9979 25.5003 42.9709C25.4723 42.9241 25.4485 42.8749 25.4293 42.8239C25.3647 42.6694 25.3423 42.5005 25.3642 42.3345C25.3862 42.1685 25.4518 42.0113 25.5543 41.8789C25.6666 41.7325 25.8092 41.6121 25.9723 41.5259C26.131 41.4386 26.3074 41.3883 26.4883 41.3789C26.7543 41.3982 27.009 41.4944 27.2213 41.6559C27.378 41.7799 27.5696 41.852 27.7693 41.8619C27.8401 41.8558 27.9085 41.8336 27.9693 41.7969C28.0379 41.7488 28.0983 41.6901 28.1483 41.6229C28.1957 41.5348 28.2145 41.4342 28.2023 41.3349C28.1996 41.3113 28.1996 41.2875 28.2023 41.2639C28.2023 41.0959 28.1973 40.9059 28.1913 40.7159C28.1853 40.5259 28.1803 40.3249 28.1753 40.1299C28.1703 39.9349 28.1643 39.7169 28.1593 39.5219C28.1659 39.1128 28.1368 38.7039 28.0723 38.2999C28.0316 38.0971 28.0025 37.8921 27.9853 37.6859C27.9606 37.3154 27.9992 36.9434 28.0993 36.5859C28.2101 36.1975 28.4164 35.8431 28.6993 35.5549C29.4993 34.7189 30.6213 34.6479 31.9353 34.5669L32.2013 34.5509C32.1683 34.4909 32.1363 34.4259 32.1013 34.3669V34.3619C31.7853 33.829 31.3855 33.3506 30.9173 32.9449C30.0222 32.131 29.2746 31.1685 28.7073 30.0999L28.7023 30.0949C28.5054 30.0677 28.3121 30.0184 28.1263 29.9479C27.8775 29.8513 27.6376 29.7332 27.4093 29.5949C27.2259 29.4852 27.0498 29.3636 26.8823 29.2309C26.5811 28.965 26.2304 28.7611 25.8503 28.6309C25.8013 28.6309 25.6983 28.7229 25.6003 28.8099C25.5314 28.8781 25.4549 28.9382 25.3723 28.9889C25.2423 29.0539 25.1333 29.0439 25.0633 28.8969C25.0372 28.8314 25.0243 28.7614 25.0253 28.6909C24.9713 28.7129 24.9003 28.7509 24.8193 28.7909C24.6725 28.886 24.5046 28.9437 24.3303 28.9589C24.1584 28.9578 23.9934 28.8917 23.8683 28.7739C23.6618 28.5966 23.4745 28.3982 23.3093 28.1819C23.1617 27.9982 23.0427 27.7932 22.9563 27.5739C22.8913 27.3739 22.7503 26.9329 23.0053 26.8189C22.8943 26.6284 22.843 26.4089 22.8583 26.1889C22.9588 26.1215 23.0747 26.0806 23.1953 26.0699C23.1446 25.9242 23.1028 25.7756 23.0703 25.6249C23.1997 25.5437 23.3469 25.4953 23.4993 25.4839C23.4929 25.4655 23.4856 25.4475 23.4773 25.4299C23.444 25.3226 23.4258 25.2112 23.4233 25.0989C23.7333 24.8709 24.4493 24.9989 24.5043 25.1529C24.6105 25.2685 24.6918 25.4046 24.7433 25.5529C24.7813 25.6619 24.8143 25.7759 24.8433 25.8839C24.8765 26.0942 24.9668 26.2914 25.1043 26.4539L25.1263 26.4699C25.2797 26.637 25.4691 26.767 25.6803 26.8499C25.7563 26.8879 25.8373 26.9259 25.9303 26.9749L26.2393 27.1379C26.6393 27.3499 27.0153 27.5509 27.5583 27.8929C27.5842 27.878 27.608 27.8598 27.6293 27.8389C27.5153 27.4099 27.3413 26.8289 27.1573 26.2969C27.0331 25.929 26.8845 25.5699 26.7123 25.2219C26.6681 25.137 26.6284 25.0499 26.5933 24.9609C26.5603 24.8689 26.5443 24.8309 26.3933 24.7379C26.3615 24.7202 26.328 24.7058 26.2933 24.6949C26.1933 24.6509 26.1033 24.6189 26.0813 24.4829C26.0702 24.3858 26.0975 24.2882 26.1573 24.2109L26.1733 24.1949C26.0476 24.1182 25.934 24.0231 25.8363 23.9129C25.6609 23.7069 25.5232 23.4716 25.4293 23.2179C25.3665 23.0468 25.3193 22.8705 25.2883 22.6909C25.256 22.4925 25.2396 22.2919 25.2393 22.0909C25.2422 22.0611 25.255 22.0332 25.2756 22.0116C25.2963 21.99 25.3237 21.976 25.3533 21.9719C25.4868 21.96 25.6212 21.9654 25.7533 21.9879C25.7497 21.9812 25.7479 21.9735 25.7483 21.9659C25.7298 21.8884 25.7061 21.8122 25.6773 21.7379C25.671 21.7189 25.6693 21.6986 25.6723 21.6788C25.6753 21.659 25.6828 21.6402 25.6944 21.6239C25.706 21.6075 25.7212 21.5941 25.7389 21.5848C25.7566 21.5754 25.7763 21.5703 25.7963 21.5699C25.8924 21.5719 25.9886 21.5682 26.0843 21.5589L26.2523 21.5429C26.2473 21.5379 26.2473 21.5269 26.2413 21.5159C26.2054 21.4415 26.1976 21.3566 26.2193 21.2769C26.2243 21.2549 26.2733 21.2169 26.2953 21.2059C26.4564 21.1535 26.6267 21.1351 26.7953 21.1519C26.8223 21.1569 26.8443 21.1569 26.8713 21.1629C26.8748 21.1148 26.8895 21.0682 26.9143 21.0269C26.9409 20.9974 26.9757 20.9765 27.0143 20.9669C27.1527 20.9626 27.2913 20.9737 27.4273 20.9999C27.5405 21.019 27.6491 21.0594 27.7473 21.1189C27.8515 21.1792 27.9465 21.2544 28.0293 21.3419C28.2261 21.5597 28.3563 21.8293 28.4043 22.1189C28.454 22.4055 28.4043 22.7005 28.2633 22.9549C28.2076 23.0465 28.1404 23.1305 28.0633 23.2049C28.0303 23.2319 27.9983 23.2589 27.9713 23.2859C27.9151 23.3182 27.8697 23.3664 27.8407 23.4243C27.8117 23.4823 27.8004 23.5475 27.8083 23.6119C27.9613 23.9368 28.143 24.2474 28.3513 24.5399C28.5755 24.8754 28.8186 25.1979 29.0793 25.5059C29.4453 25.1668 29.8353 24.8547 30.2463 24.5719H30.2513C30.4882 24.4149 30.7414 24.2838 31.0063 24.1809V24.1759C30.9903 24.1599 30.9953 24.1489 30.9843 24.1489C30.9526 24.1568 30.9218 24.1678 30.8923 24.1819C30.7506 24.2625 30.5875 24.2974 30.4253 24.2819C30.3434 24.2802 30.2638 24.2546 30.1963 24.2082C30.1288 24.1618 30.0763 24.0967 30.0453 24.0209C30.0049 23.9211 29.9882 23.8133 29.9963 23.7059C30.0016 23.647 30.0127 23.5887 30.0293 23.5319C30.0184 23.4712 29.9981 23.4125 29.9693 23.3579C29.9237 23.2684 29.8978 23.1702 29.8933 23.0699C29.8933 22.9129 30.0613 22.7879 30.2023 22.6789L30.2563 22.6409C30.2808 22.5629 30.3144 22.4881 30.3563 22.4179C30.3635 22.404 30.3726 22.3913 30.3833 22.3799C30.3052 22.3426 30.2449 22.2762 30.2153 22.1949C30.1803 22.1307 30.1563 22.061 30.1443 21.9889C30.1393 21.9779 30.1393 21.9779 30.1283 21.9729C30.0326 21.9213 29.9506 21.8475 29.8892 21.7577C29.8278 21.668 29.7887 21.5648 29.7753 21.4569C29.7444 21.2708 29.7536 21.0802 29.8023 20.8979C29.8289 20.7971 29.8417 20.6931 29.8403 20.5889C29.8219 20.535 29.8144 20.478 29.8182 20.4212C29.8219 20.3644 29.8369 20.3089 29.8623 20.2579C29.9223 20.1579 30.0523 20.1059 30.3243 20.1109C30.4941 20.096 30.6618 20.0625 30.8243 20.0109C30.9732 19.9664 31.1169 19.9064 31.2533 19.8319C31.3651 19.6733 31.5141 19.5445 31.6873 19.4569C31.9024 19.3615 32.1318 19.3027 32.3663 19.2829C32.4157 19.2786 32.4648 19.2713 32.5133 19.2609C32.6543 19.2449 32.8133 19.2169 32.9693 19.2069C33.0311 19.0757 33.1076 18.9519 33.1973 18.8379C33.244 18.7667 33.3065 18.7072 33.3798 18.6638C33.4531 18.6205 33.5354 18.5945 33.6203 18.5879C33.7734 18.5983 33.922 18.6445 34.054 18.7229C34.186 18.8012 34.2978 18.9094 34.3803 19.0389C34.4798 19.1698 34.5519 19.3195 34.5923 19.4789C34.6139 19.5696 34.625 19.6626 34.6253 19.7559C34.6349 19.7729 34.6423 19.791 34.6473 19.8099C34.6902 19.922 34.7506 20.0267 34.8263 20.1199C34.8828 20.1946 34.9552 20.2557 35.0383 20.2989C35.1924 20.3688 35.3324 20.4665 35.4513 20.5869C35.5925 20.7173 35.7165 20.8652 35.8203 21.0269C35.8719 21.1144 35.9138 21.2073 35.9453 21.3039C35.962 21.3652 35.9837 21.4251 36.0103 21.4829C36.0634 21.5889 36.1352 21.6844 36.2223 21.7649C36.3223 21.8569 36.4393 21.9499 36.5533 22.0419C36.6975 22.1448 36.8134 22.2823 36.8903 22.4419C37.0048 22.7277 37.0586 23.0342 37.0483 23.3419C37.0533 23.5208 37.1017 23.6958 37.1893 23.8519C37.3043 24.0177 37.4762 24.1355 37.6723 24.1829C37.6944 24.1942 37.7137 24.2103 37.7287 24.23C37.7438 24.2497 37.7542 24.2726 37.7593 24.2969C37.7688 24.3347 37.7685 24.3743 37.7583 24.4119C37.7417 24.5004 37.6934 24.5797 37.6223 24.6349C37.5454 24.6925 37.4524 24.7247 37.3563 24.7269C37.3649 25.0664 37.3313 25.4057 37.2563 25.7369C37.2109 26.0712 37.1215 26.3981 36.9903 26.7089C36.9413 26.8179 36.7183 27.3089 36.6153 27.3439C36.5916 27.7771 36.6506 28.2108 36.7893 28.6219C36.8113 28.6649 36.8383 28.7219 36.8163 28.7519C36.7966 28.7697 36.7732 28.7829 36.7478 28.7905C36.7223 28.7982 36.6955 28.8 36.6693 28.7959C36.515 28.7925 36.3639 28.7513 36.2293 28.6759C36.2558 28.7446 36.2869 28.8114 36.3223 28.8759C36.3267 28.8883 36.3303 28.901 36.3333 28.9139C36.3373 28.9429 36.3356 28.9725 36.3283 29.0009C36.3849 29.0429 36.4472 29.0766 36.5133 29.1009C36.5573 29.1169 36.6223 29.1229 36.6273 29.1659C36.6323 29.2089 36.5843 29.2859 36.5513 29.3129C36.3746 29.4454 36.1591 29.5157 35.9383 29.5129C35.6963 29.5172 35.4567 29.4651 35.2383 29.3609H35.0813L35.0793 29.3579Z" fill="black"/>
<path fill-rule="evenodd" clip-rule="evenodd" d="M34.8403 36.1999C34.8253 36.6633 34.934 37.1224 35.1553 37.5299C35.3271 37.8305 35.539 38.1064 35.7853 38.3499C35.6063 38.0302 35.4555 37.6956 35.3343 37.3499C35.3123 37.2959 35.2693 37.1869 35.3883 37.1439C35.5073 37.1009 35.5453 37.2089 35.5623 37.2689C35.688 37.623 35.846 37.9647 36.0343 38.2899C36.2382 38.6432 36.5029 38.9577 36.8163 39.2189C36.8416 39.2417 36.8577 39.2729 36.8618 39.3067C36.8658 39.3406 36.8575 39.3747 36.8383 39.4029C36.8143 39.4232 36.7844 39.4352 36.7531 39.4372C36.7218 39.4392 36.6906 39.431 36.6643 39.4139C35.9639 38.962 35.3738 38.3589 34.9373 37.6489C34.6945 37.2073 34.5746 36.7086 34.5903 36.2049C34.5903 36.1449 34.5903 36.0579 34.7153 36.0579C34.8403 36.0579 34.8403 36.1449 34.8403 36.2049V36.1999Z" fill="#F5B3B3"/>
<path fill-rule="evenodd" clip-rule="evenodd" d="M36.7563 36.9539C36.7431 37.2863 36.7768 37.6189 36.8563 37.9419C36.9694 38.3522 37.2329 38.705 37.5943 38.9299C37.6483 38.9619 37.7573 39.0389 37.6873 39.1419C37.6173 39.2449 37.5133 39.1689 37.4643 39.1369C37.049 38.8839 36.746 38.4818 36.6173 38.0129C36.5308 37.6669 36.494 37.3103 36.5083 36.9539C36.5083 36.8939 36.5083 36.7969 36.6333 36.7969C36.7583 36.7969 36.7583 36.8969 36.7583 36.9539H36.7563Z" fill="#F5B3B3"/>
<path fill-rule="evenodd" clip-rule="evenodd" d="M21.9703 24.9661V24.8841C22.0055 24.8753 22.0375 24.8566 22.0623 24.8301C22.0753 24.7898 22.0807 24.7474 22.0783 24.7051V21.8981C22.0806 21.8558 22.0752 21.8134 22.0623 21.7731C22.0467 21.7451 22.0214 21.7238 21.9913 21.7131V21.6321H23.1203C23.2402 21.6319 23.3589 21.6565 23.469 21.7041C23.5791 21.7518 23.6782 21.8216 23.7602 21.9092C23.8421 21.9968 23.9052 22.1003 23.9455 22.2133C23.9858 22.3263 24.0024 22.4464 23.9943 22.5661C23.999 22.7204 23.9704 22.874 23.9105 23.0163C23.8507 23.1587 23.7609 23.2865 23.6473 23.3911L24.0603 24.5581C24.0802 24.6128 24.1057 24.6655 24.1363 24.7151C24.1781 24.7718 24.2254 24.8244 24.2773 24.8721V24.9531L23.6773 24.9641V24.8841C23.7008 24.8781 23.7218 24.8648 23.7373 24.8461C23.7863 24.7751 23.7423 24.6721 23.7153 24.6021L23.3573 23.5491C23.2653 23.5541 23.1783 23.5711 23.0863 23.5711H22.3963V24.7061C22.3934 24.7484 22.3989 24.7908 22.4123 24.8311C22.4233 24.8531 22.4663 24.8691 22.5043 24.8851V24.9661H21.9703Z" fill="black"/>
<path fill-rule="evenodd" clip-rule="evenodd" d="M22.9923 21.963H22.3923L22.4033 23.206H23.0113C23.5053 23.206 23.6843 22.962 23.6843 22.56C23.6843 22.158 23.4673 21.96 22.9943 21.96L22.9923 21.963Z" fill="#FFD900"/>
<path fill-rule="evenodd" clip-rule="evenodd" d="M24.1283 23.7059L24.1823 23.6729L24.3823 24.3029L24.3223 24.3349C24.2303 24.2349 24.2223 24.2099 24.0223 24.3079C23.6327 24.4696 23.2113 24.54 22.7903 24.5139C22.4531 24.5336 22.1179 24.4502 21.8293 24.2749C21.6906 24.1732 21.5783 24.0398 21.5018 23.8858C21.4252 23.7319 21.3867 23.5618 21.3893 23.3899C21.3893 22.9119 21.6333 22.2549 22.8063 22.2549C23.1326 22.261 23.457 22.3066 23.7723 22.3909C23.8931 22.423 24.0112 22.4648 24.1253 22.5159C24.1568 22.5174 24.1882 22.5119 24.2173 22.4999C24.2553 22.4779 24.2983 22.4349 24.3253 22.4239L24.3793 22.4509L24.1623 23.1079L24.1063 23.0779C24.1283 22.9589 23.9973 22.8659 23.8513 22.8009C23.5326 22.6767 23.1933 22.6139 22.8513 22.6159C22.0263 22.6159 21.7273 23.0019 21.7433 23.3979C21.7502 23.5462 21.7987 23.6895 21.8832 23.8115C21.9677 23.9335 22.0849 24.0293 22.2213 24.0879C22.4893 24.1541 22.7659 24.178 23.0413 24.1589C23.4159 24.1507 23.7801 24.0336 24.0893 23.8219C24.1149 23.7895 24.1284 23.7492 24.1273 23.7079L24.1283 23.7059Z" fill="black"/>
<path fill-rule="evenodd" clip-rule="evenodd" d="M22.6293 24.8789H22.6893C22.7383 25.1179 22.8573 25.0579 22.9893 24.8469C23.0809 24.6697 23.1158 24.4686 23.0893 24.2709C23.0449 23.9134 22.9611 23.5619 22.8393 23.2229C22.6893 22.8223 22.6013 22.4011 22.5783 21.9739C22.5651 21.6808 22.6597 21.393 22.8443 21.1649C22.9785 21.0083 23.1665 20.9076 23.3713 20.8829C23.4423 20.8719 23.5343 20.8559 23.5343 20.7639H23.5943V21.3879H23.5343C23.4853 21.1979 23.3763 21.2249 23.2573 21.2739C23.1867 21.3029 23.1235 21.3473 23.0723 21.4039C22.9498 21.5679 22.8882 21.7695 22.8983 21.9739C22.9237 22.3621 23.0059 22.7445 23.1423 23.1089C23.2743 23.4758 23.3635 23.8566 23.4083 24.2439C23.4404 24.5211 23.3833 24.8013 23.2453 25.0439C23.1592 25.1944 23.0229 25.3098 22.8603 25.3699C22.7303 25.4239 22.6973 25.4699 22.6863 25.5599H22.6263V24.8819L22.6293 24.8789Z" fill="black"/>
<path fill-rule="evenodd" clip-rule="evenodd" d="M36.1373 44.2729C36.1369 44.2759 36.1373 44.2789 36.1384 44.2816C36.1394 44.2844 36.1411 44.2869 36.1433 44.2889C36.1564 44.334 36.1808 44.375 36.2143 44.4079C36.2485 44.4516 36.2932 44.486 36.3443 44.5079C36.3709 44.5177 36.3983 44.525 36.4263 44.5299C36.4201 44.4848 36.4164 44.4394 36.4153 44.3939V44.2579H36.3013C36.2465 44.2579 36.1919 44.2633 36.1383 44.2739L36.1373 44.2729Z" fill="#FFD900"/>
<path fill-rule="evenodd" clip-rule="evenodd" d="M26.8583 43.437C26.8203 43.383 26.7823 43.337 26.7663 43.312C26.7503 43.318 26.7333 43.318 26.7123 43.323C26.6763 43.3295 26.6398 43.3332 26.6033 43.334C26.6154 43.379 26.6358 43.4214 26.6633 43.459C26.6828 43.4895 26.7088 43.5154 26.7393 43.535L26.8583 43.435V43.437Z" fill="#FFD900"/>
<path fill-rule="evenodd" clip-rule="evenodd" d="M26.2343 43.291C26.2 43.2745 26.1631 43.2637 26.1253 43.259C26.0559 43.2481 25.9849 43.2557 25.9193 43.281C25.9454 43.3167 25.9745 43.3502 26.0063 43.381C26.0933 43.463 26.1633 43.501 26.1853 43.495C26.2073 43.489 26.1633 43.484 26.1743 43.463C26.1846 43.404 26.2049 43.3472 26.2343 43.295V43.291Z" fill="#FFD900"/>
<path fill-rule="evenodd" clip-rule="evenodd" d="M32.7993 36.84C32.7673 36.699 32.7343 36.558 32.7073 36.416C32.6539 36.5072 32.624 36.6103 32.6203 36.716C32.6243 36.7335 32.6322 36.7499 32.6435 36.764C32.6548 36.778 32.6691 36.7893 32.6853 36.797C32.7218 36.8138 32.76 36.8265 32.7993 36.835V36.84Z" fill="#FFD900"/>
<path fill-rule="evenodd" clip-rule="evenodd" d="M32.9183 37.2969C32.9023 37.2259 32.8803 37.1609 32.8643 37.0909C32.7631 37.0857 32.6638 37.0619 32.5713 37.0209C32.518 36.9944 32.472 36.9553 32.4372 36.907C32.4023 36.8588 32.3797 36.8028 32.3713 36.7439C32.3791 36.5594 32.4291 36.3792 32.5173 36.2169C32.5573 36.142 32.5908 36.0637 32.6173 35.9829C32.6173 35.9669 32.6113 35.9559 32.6113 35.9449C32.5446 35.5569 32.4442 35.1755 32.3113 34.8049C32.1973 34.8099 32.0783 34.8209 31.9533 34.8269C30.6933 34.9029 29.6183 34.9729 28.8853 35.7339C28.6319 35.9948 28.4455 36.3132 28.3423 36.6619C28.252 36.9943 28.2182 37.3394 28.2423 37.6829C28.2643 37.9457 28.3024 38.2068 28.3563 38.4649C28.4199 38.7622 28.567 39.0352 28.7803 39.2519C28.8183 39.2959 28.8513 39.3339 28.8673 39.3519C28.9003 39.4009 28.9543 39.4659 28.8563 39.5419C28.8421 39.5548 28.8251 39.564 28.8066 39.5688C28.7881 39.5737 28.7687 39.574 28.7501 39.5698C28.7314 39.5656 28.7141 39.557 28.6995 39.5446C28.6849 39.5323 28.6735 39.5166 28.6663 39.4989C28.5853 39.3849 28.4923 39.2869 28.4113 39.1789C28.4113 39.2879 28.4173 39.4019 28.4173 39.5209C28.4223 39.7209 28.4223 39.9209 28.4333 40.1289C28.4386 40.3189 28.4439 40.5143 28.4493 40.7149C28.4543 40.9049 28.4603 41.0949 28.4543 41.2689V41.3399C28.4728 41.4918 28.4374 41.6454 28.3543 41.7739C28.2844 41.8649 28.1999 41.9437 28.1043 42.0069C28.0131 42.0641 27.9109 42.1013 27.8043 42.1159C27.5506 42.1127 27.3049 42.0271 27.1043 41.8719C26.9291 41.7402 26.722 41.6577 26.5043 41.6329C26.3621 41.642 26.2234 41.6808 26.0973 41.7469C25.9668 41.8169 25.8521 41.9129 25.7603 42.0289C25.6607 42.1555 25.6087 42.313 25.6133 42.4739C25.6539 42.3798 25.7131 42.2947 25.7873 42.2239C25.9141 42.1003 26.0783 42.0222 26.2543 42.0019C26.3204 41.9914 26.3876 41.9894 26.4543 41.9959C26.5143 42.0019 26.6063 42.0069 26.5953 42.1259C26.5843 42.2449 26.4953 42.2449 26.4323 42.2399C26.3853 42.2335 26.3376 42.2352 26.2913 42.2449C26.1693 42.2602 26.0553 42.3133 25.9653 42.3969C25.8602 42.5044 25.7983 42.6468 25.7913 42.7969C25.7859 42.8635 25.7859 42.9304 25.7913 42.9969C25.8019 43.0156 25.8093 43.0358 25.8133 43.0569C25.9261 43.0089 26.0503 42.9939 26.1713 43.0139C26.2356 43.0212 26.2981 43.0395 26.3563 43.0679C26.3424 42.9165 26.3647 42.764 26.4213 42.6229C26.4815 42.5054 26.5722 42.4063 26.6839 42.3359C26.7957 42.2655 26.9243 42.2265 27.0563 42.2229C27.1163 42.2119 27.2033 42.1959 27.2243 42.3149C27.2453 42.4339 27.1533 42.4559 27.0943 42.4669C26.8233 42.5109 26.6943 42.6029 26.6433 42.7219C26.6048 42.8515 26.5919 42.9874 26.6053 43.1219C26.6257 43.1002 26.6522 43.0852 26.6813 43.0789C26.7187 43.07 26.7568 43.0647 26.7953 43.0629L26.8273 43.0679C26.9289 43.1145 27.0128 43.1927 27.0663 43.2909C27.0721 43.297 27.0759 43.3046 27.0773 43.3129C27.1037 43.3242 27.1263 43.343 27.1423 43.3669C27.1473 43.3669 27.1473 43.3669 27.1473 43.3729C27.2123 43.3509 27.2943 43.3189 27.3863 43.2859C27.5989 43.1894 27.8236 43.1221 28.0543 43.0859C28.1193 43.0809 28.2013 43.0749 28.2113 43.1999C28.2213 43.3249 28.1353 43.3299 28.0753 43.3359C27.9548 43.352 27.8364 43.3811 27.7223 43.4229C27.7814 43.4477 27.8436 43.4642 27.9073 43.4719C28.1947 43.4876 28.4812 43.4276 28.7383 43.2979C28.8714 43.2636 29.0105 43.2598 29.1453 43.2869C29.2008 43.2961 29.257 43.3015 29.3133 43.3029C29.4178 43.2839 29.5121 43.2282 29.5793 43.1459C29.6661 43.0674 29.7236 42.9616 29.7423 42.8459C29.7583 42.5149 29.4873 42.3899 29.1993 42.3629C29.1641 42.3624 29.1294 42.3718 29.0993 42.3899C29.0456 42.421 28.9979 42.4613 28.9583 42.5089C28.9153 42.5579 28.8493 42.6279 28.7583 42.5519C28.6673 42.4759 28.7313 42.3949 28.7693 42.3459C28.8301 42.2769 28.9017 42.2182 28.9813 42.1719C29.0533 42.1294 29.1369 42.1105 29.2203 42.1179C29.3457 42.1256 29.4689 42.155 29.5843 42.2049C29.6148 41.928 29.6901 41.6578 29.8073 41.4049C29.9027 41.1897 29.9719 40.9637 30.0133 40.7319C30.0394 40.47 30.0098 40.2055 29.9263 39.9559C29.9103 39.8959 29.8833 39.8089 30.0023 39.7769C30.1213 39.7449 30.1493 39.8259 30.1653 39.8859C30.2526 40.1499 30.2865 40.4287 30.2653 40.7059C30.3809 40.5889 30.463 40.4431 30.5031 40.2836C30.5432 40.124 30.5398 39.9567 30.4933 39.7989C30.4628 39.6341 30.4517 39.4663 30.4603 39.2989C30.5366 38.9553 30.7235 38.6462 30.9923 38.4189C31.1278 38.2823 31.2729 38.1553 31.4263 38.0389C31.1273 38.1068 30.8198 38.1287 30.5143 38.1039C30.3705 38.1035 30.2307 38.0576 30.1146 37.9728C29.9986 37.888 29.9124 37.7687 29.8683 37.6319C29.8341 37.4801 29.8442 37.3217 29.8973 37.1755C29.9505 37.0292 30.0445 36.9013 30.1683 36.8069C30.3688 36.6125 30.6155 36.4724 30.8853 36.3999C30.9453 36.3839 31.0373 36.3569 31.0643 36.4759C31.0913 36.5949 30.9993 36.6279 30.9393 36.6389C30.7134 36.7056 30.5073 36.8269 30.3393 36.9919C30.2482 37.0548 30.1773 37.1425 30.1349 37.2447C30.0925 37.3469 30.0805 37.4591 30.1003 37.5679C30.1366 37.6546 30.1978 37.7287 30.2761 37.7808C30.3543 37.8329 30.4462 37.8608 30.5403 37.8609C30.8503 37.8822 31.1617 37.8548 31.4633 37.7799C31.9622 37.6629 32.4505 37.5047 32.9233 37.3069L32.9183 37.2969Z" fill="#FFD900"/>
<path fill-rule="evenodd" clip-rule="evenodd" d="M35.5783 43.5859C35.5617 43.6682 35.5563 43.7523 35.5623 43.8359C35.5614 43.938 35.5858 44.0386 35.6333 44.1289C35.6729 44.0757 35.7229 44.0311 35.7803 43.9979C35.7502 43.9051 35.739 43.8072 35.7473 43.7099C35.688 43.6776 35.6332 43.6375 35.5843 43.5909C35.5783 43.5909 35.5783 43.5909 35.5783 43.5859Z" fill="#FFD900"/>
<path fill-rule="evenodd" clip-rule="evenodd" d="M37.3053 35.418C37.3296 35.4978 37.3476 35.5794 37.3593 35.662C37.3973 35.8958 37.3973 36.1342 37.3593 36.368C37.5235 36.4978 37.7118 36.5936 37.9133 36.65C38.1383 36.7072 38.3704 36.7312 38.6023 36.721C38.8943 36.7247 39.184 36.6689 39.4538 36.5569C39.7235 36.445 39.9677 36.2793 40.1713 36.07C40.5951 35.6124 40.8366 35.0155 40.8503 34.392C40.8584 33.9799 40.8093 33.5686 40.7043 33.17C40.5881 32.7293 40.4185 32.3045 40.1993 31.905C39.9763 31.492 39.7433 31.123 39.5153 30.765C38.9258 29.9306 38.4884 28.9986 38.2233 28.012C38.1224 27.6153 38.0608 27.2097 38.0393 26.801C38.0185 26.4834 38.0478 26.1645 38.1263 25.856C38.1942 25.59 38.3123 25.3395 38.4743 25.118C38.5632 25.0001 38.6769 24.9032 38.8073 24.834C38.9378 24.7649 39.0818 24.7253 39.2293 24.718C39.3989 24.7066 39.5688 24.7334 39.7267 24.7964C39.8845 24.8594 40.0262 24.957 40.1413 25.082C40.407 25.3525 40.5734 25.7049 40.6133 26.082C40.6059 26.2257 40.5688 26.3663 40.5043 26.495C40.4703 26.5759 40.4432 26.6595 40.4233 26.745C40.4233 26.75 40.4123 26.783 40.4123 26.788C40.3293 27.0331 40.2834 27.2893 40.2763 27.548C40.2516 27.8431 40.2607 28.14 40.3033 28.433C40.3253 28.533 40.3463 28.639 40.3793 28.748C40.4114 28.4525 40.5018 28.1663 40.6453 27.906C40.6773 27.857 40.7373 27.743 40.8453 27.814C40.9533 27.885 40.8893 27.988 40.8563 28.042C40.7168 28.3057 40.6353 28.5962 40.6173 28.894C40.5889 29.1136 40.6328 29.3365 40.7423 29.529C40.757 29.5425 40.7683 29.5593 40.7753 29.578C40.8023 29.611 40.8353 29.649 40.8623 29.678C40.8799 29.6908 40.8963 29.7052 40.9113 29.721L40.8623 29.509C40.8156 29.1632 40.8322 28.8118 40.9113 28.472C40.9273 28.412 40.9603 28.293 41.0793 28.32C41.1983 28.347 41.1663 28.472 41.1553 28.532C41.079 28.839 41.0624 29.1577 41.1063 29.471C41.1292 29.6742 41.2235 29.8627 41.3723 30.003L41.4053 30.019L41.4483 30.046C41.4162 29.9773 41.3888 29.9064 41.3663 29.834C41.2576 29.441 41.2463 29.0274 41.3333 28.629C41.3443 28.569 41.3663 28.45 41.4853 28.471C41.6043 28.492 41.5853 28.612 41.5773 28.671C41.4964 29.0297 41.5056 29.4028 41.6043 29.757C41.6839 30.0172 41.8366 30.2491 42.0443 30.425C42.0493 30.431 42.0493 30.436 42.0553 30.436C42.0125 30.2032 41.9396 29.9769 41.8383 29.763C41.7734 29.6232 41.7209 29.478 41.6813 29.329C41.646 29.1356 41.6279 28.9395 41.6273 28.743C41.6287 28.5535 41.6123 28.3644 41.5783 28.178C41.5189 27.9087 41.4352 27.6452 41.3283 27.391C41.2619 27.2037 41.1667 27.028 41.0463 26.87C41.0297 26.8453 41.0185 26.8173 41.0133 26.788C41.0322 26.1346 40.8523 25.4909 40.4973 24.942C40.357 24.7298 40.1669 24.555 39.9437 24.433C39.7204 24.311 39.4707 24.2454 39.2163 24.242C39.0715 24.2409 38.9273 24.259 38.7873 24.296C38.6572 24.3349 38.5331 24.3915 38.4183 24.464C38.1502 24.6456 37.9303 24.8896 37.7773 25.175C37.6117 25.4904 37.5097 25.8352 37.4773 26.19C37.4245 26.7561 37.4555 27.3269 37.5693 27.884C37.6886 28.4363 37.8708 28.9731 38.1123 29.484C38.3783 30.06 38.6883 30.603 38.9863 31.129C39.661 32.0545 40.0685 33.1476 40.1643 34.289C40.1517 34.6946 39.98 35.0789 39.6863 35.359C39.3786 35.6331 38.9804 35.7838 38.5683 35.782C38.2326 35.7788 37.9014 35.7049 37.5963 35.565C37.4979 35.523 37.4035 35.4721 37.3143 35.413L37.3053 35.418Z" fill="#FFD900"/>
<path fill-rule="evenodd" clip-rule="evenodd" d="M30.6323 22.3099C30.6787 22.3461 30.7161 22.3926 30.7413 22.4459C30.8343 22.6095 30.9375 22.7671 31.0503 22.9179C31.1737 22.9103 31.2926 22.8689 31.3942 22.7984C31.4958 22.7279 31.576 22.6309 31.6263 22.5179C31.6373 22.4529 31.5663 22.3499 31.4683 22.2519C31.3003 22.0729 31.0173 21.8879 30.7683 22.0399C30.7353 22.0619 30.6683 22.2609 30.6323 22.3099Z" fill="black"/>
<path fill-rule="evenodd" clip-rule="evenodd" d="M28.7963 26.638C28.8083 26.5975 28.8226 26.5578 28.8393 26.519C28.8447 26.4964 28.8561 26.4756 28.8723 26.459C28.9053 26.359 28.9483 26.259 28.9913 26.144C29.0233 26.044 29.0673 25.938 29.1053 25.835C28.8962 26.0149 28.7199 26.2297 28.5843 26.47C28.4708 26.6864 28.4075 26.9257 28.3993 27.17C28.5844 27.0382 28.7241 26.8523 28.7993 26.638H28.7963Z" fill="black"/>
<path fill-rule="evenodd" clip-rule="evenodd" d="M36.7193 22.691C36.6743 22.5502 36.5941 22.4232 36.4863 22.322C36.4894 22.478 36.4821 22.634 36.4643 22.789C36.4599 22.8437 36.4526 22.8981 36.4423 22.952C36.5485 22.8811 36.6421 22.7929 36.7193 22.691Z" fill="#FFD900"/>
<path fill-rule="evenodd" clip-rule="evenodd" d="M35.3723 29.1519C35.5478 29.2307 35.739 29.268 35.9313 29.2609C36.0255 29.2627 36.1192 29.2478 36.2083 29.2169C36.1648 29.1884 36.1249 29.1548 36.0893 29.1169C35.7446 29.0621 35.4279 28.8942 35.1891 28.6397C34.9503 28.3851 34.803 28.0584 34.7703 27.7109C34.7873 27.8749 34.8208 28.0367 34.8703 28.1939C34.9804 28.5407 35.1495 28.8658 35.3703 29.1549L35.3723 29.1519Z" fill="#FFD900"/>
<path fill-rule="evenodd" clip-rule="evenodd" d="M32.2503 28.2569C32.5383 28.9949 33.0593 30.2059 33.5043 31.2379C33.6943 31.6829 33.8733 32.0899 34.0313 32.4649C34.0583 32.5189 34.0803 32.5789 33.9663 32.6279C33.8523 32.6769 33.8303 32.6169 33.8033 32.5569C33.7383 32.4049 33.6513 32.2099 33.5543 31.9759V31.9819C33.4884 32.0324 33.4153 32.0726 33.3373 32.1009C33.2773 32.1119 33.1853 32.1449 33.1583 32.0249C33.1313 31.9049 33.2293 31.8839 33.2883 31.8569C33.3492 31.8293 33.4045 31.7906 33.4513 31.7429C33.4023 31.6239 33.3513 31.5039 33.2933 31.3789C33.1983 31.4821 33.0863 31.5684 32.9623 31.6339C32.8206 31.7062 32.6684 31.7558 32.5113 31.7809C32.4513 31.7919 32.3593 31.8239 32.3373 31.6999C32.3153 31.5759 32.4083 31.5479 32.4673 31.5369C32.5993 31.5171 32.7275 31.4769 32.8473 31.4179C32.9816 31.3492 33.0969 31.2486 33.1833 31.1249C32.9173 30.4949 32.6243 29.8249 32.3833 29.2409C32.3386 29.4174 32.2671 29.5861 32.1713 29.7409C32.0945 29.8804 31.9864 30.0001 31.8553 30.0906C31.7242 30.181 31.5739 30.2397 31.4163 30.2619C31.2024 30.2693 30.9905 30.2185 30.8033 30.1149C30.6621 30.0386 30.5282 29.9496 30.4033 29.8489C30.3757 29.8539 30.3486 29.8612 30.3223 29.8709C29.8893 30.0111 29.4405 30.0968 28.9863 30.1259C29.5343 31.1212 30.2439 32.0184 31.0863 32.7809C31.5758 33.2036 31.9921 33.7043 32.3183 34.2629L32.3133 34.2579C32.5815 34.7725 32.7614 35.3286 32.8453 35.9029C32.8503 35.9299 32.8563 35.9469 32.8773 36.0389C32.9761 36.6654 33.1438 37.2791 33.3773 37.8689C33.6144 38.4461 34.0313 38.9315 34.5663 39.2529C34.8356 39.4214 35.1147 39.5737 35.4023 39.7089C35.6925 39.8516 35.9934 39.9717 36.3023 40.0679C36.4911 40.129 36.6718 40.2129 36.8403 40.3179C37.0025 40.425 37.1441 40.5605 37.2583 40.7179C37.5353 41.0979 37.5293 41.4619 37.5023 42.5099C37.5023 42.5429 37.4963 42.5809 37.4963 42.6189C37.6863 42.6459 37.6963 42.6839 37.8543 42.6459C37.9192 42.6262 37.9864 42.6151 38.0543 42.6129C38.1312 42.6174 38.2068 42.6357 38.2773 42.6669C38.3465 42.698 38.4077 42.7446 38.4563 42.8029C38.4943 42.8519 38.5563 42.9229 38.4623 43.0029C38.3683 43.0829 38.2993 43.0079 38.2623 42.9599C38.2375 42.9331 38.208 42.9111 38.1753 42.8949C38.1377 42.8782 38.0973 42.869 38.0563 42.8679C38.0103 42.8707 37.9647 42.878 37.9203 42.8899H37.9253C37.6813 42.9549 37.6323 42.8849 37.4313 42.8629C37.3531 42.8588 37.2747 42.8625 37.1973 42.8739C36.9174 42.8432 36.6443 42.7679 36.3883 42.6509C36.1931 42.7236 36.0143 42.8345 35.8623 42.9769C35.8 43.0423 35.752 43.12 35.7213 43.2049C35.715 43.2189 35.7097 43.2332 35.7053 43.2479C35.6983 43.2687 35.6893 43.2888 35.6783 43.3079C35.6783 43.3189 35.6843 43.3239 35.6843 43.3299C35.714 43.3894 35.7588 43.4401 35.8143 43.4769C35.8374 43.4256 35.8648 43.3765 35.8963 43.3299C35.9806 43.2071 36.0967 43.1096 36.2323 43.0479C36.3578 42.9946 36.4929 42.9676 36.6293 42.9684C36.7656 42.9693 36.9004 42.998 37.0253 43.0529C37.0853 43.0749 37.1723 43.1129 37.1253 43.2269C37.0783 43.3409 36.9953 43.3079 36.9353 43.2809C36.841 43.2391 36.7394 43.2166 36.6364 43.2147C36.5333 43.2128 36.4309 43.2316 36.3353 43.2699C36.2409 43.3167 36.159 43.3853 36.0963 43.4699C36.0409 43.5505 36.0065 43.6436 35.9963 43.7409C35.9852 43.8283 36.0001 43.917 36.0393 43.9959C36.0467 44.0008 36.053 44.0073 36.0576 44.0149C36.0623 44.0225 36.0652 44.031 36.0663 44.0399C36.1423 44.0289 36.2183 44.0239 36.2943 44.0179C36.3483 44.0179 36.4083 44.0179 36.4623 44.0229C36.5077 43.9167 36.5854 43.8275 36.6843 43.7679C36.8152 43.6888 36.9653 43.6472 37.1183 43.6479C37.2172 43.6478 37.3157 43.6605 37.4113 43.6859C37.4713 43.7019 37.5473 43.7239 37.5113 43.8429C37.4753 43.9619 37.3973 43.9429 37.3373 43.9249C37.2669 43.9037 37.1938 43.8925 37.1203 43.8919C37.0144 43.8943 36.911 43.9243 36.8203 43.9789C36.7703 44.0072 36.7291 44.0487 36.7013 44.0989C36.7328 44.1158 36.7664 44.1286 36.8013 44.1369C36.8862 44.1619 36.9738 44.1764 37.0623 44.1799C37.1259 44.1797 37.1895 44.1744 37.2523 44.1639C37.3167 44.152 37.3802 44.1356 37.4423 44.1149C37.5424 44.075 37.6402 44.0296 37.7353 43.9789C37.7916 43.9484 37.8497 43.9213 37.9093 43.8979C37.9693 43.8759 38.0503 43.8439 38.0943 43.9629C38.1383 44.0819 38.0503 44.1099 37.9943 44.1319C37.9435 44.1514 37.8944 44.1748 37.8473 44.2019C37.8043 44.2179 37.7603 44.2449 37.7113 44.2669C37.7924 44.3176 37.8828 44.3517 37.9773 44.3669C38.13 44.4141 38.2948 44.4024 38.4393 44.3339L38.4503 44.3289C38.4663 44.3179 38.4883 44.2959 38.5213 44.2749C38.6739 44.1187 38.8714 44.0139 39.0863 43.9749H39.1863C39.2863 43.9749 39.3543 43.9749 39.4203 43.9689C39.4743 43.9089 39.5453 43.8439 39.6103 43.7839C39.7243 43.6839 39.8383 43.5779 39.8383 43.5339C39.7889 43.4931 39.734 43.4594 39.6753 43.4339C39.6085 43.4083 39.5477 43.3695 39.4963 43.3199C39.4517 43.2818 39.3997 43.2532 39.3436 43.236C39.2876 43.2188 39.2285 43.2133 39.1703 43.2199C39.0136 43.2316 38.8642 43.2901 38.7413 43.3879C38.6923 43.4209 38.6053 43.4879 38.5353 43.3879C38.4653 43.2879 38.5463 43.2199 38.6003 43.1879C38.7617 43.063 38.9558 42.9876 39.1593 42.9709C39.2283 42.9704 39.2972 42.9757 39.3653 42.9869V42.9809C39.35 42.94 39.3258 42.9031 39.2943 42.8729C39.2334 42.8189 39.1579 42.7841 39.0773 42.7729C38.9921 42.7686 38.9067 42.7723 38.8223 42.7839C38.7623 42.7899 38.6973 42.7949 38.6863 42.6699C38.6753 42.5449 38.7403 42.5449 38.8003 42.5399C38.9026 42.5253 39.0062 42.5216 39.1093 42.5289L39.1903 42.5449C39.1638 42.4833 39.1421 42.4198 39.1253 42.3549C39.0653 42.1649 39.0063 41.9479 38.9573 41.7359C38.9413 41.6549 38.9303 41.5779 38.9143 41.5029C38.9033 41.5629 38.8813 41.6709 38.7623 41.6489C38.6433 41.6269 38.6623 41.5189 38.6753 41.4589C38.736 41.1216 38.6964 40.7739 38.5613 40.4589C38.4526 40.1879 38.2448 39.9684 37.9803 39.8449C37.9263 39.8179 37.8393 39.7749 37.8883 39.6599C37.9373 39.5449 38.0243 39.5949 38.0783 39.6159C38.4011 39.7646 38.6553 40.0306 38.7893 40.3599C38.8385 40.4791 38.8767 40.6026 38.9033 40.7289C38.9083 40.7069 38.9083 40.6859 38.9143 40.6639C38.9301 40.5108 38.9538 40.3586 38.9853 40.2079C38.9997 40.1403 39.0177 40.0735 39.0393 40.0079C39.0667 39.9447 39.0814 39.8767 39.0823 39.8079C39.0466 39.8006 39.0105 39.7953 38.9743 39.7919C38.8995 39.7765 38.8267 39.7527 38.7573 39.7209C38.4237 39.5431 38.1255 39.3059 37.8773 39.0209L37.6983 38.8419C37.6036 38.7343 37.5248 38.6138 37.4643 38.4839C37.3773 38.3159 37.2793 38.0979 37.1763 37.8489C37.0952 37.6587 37.0351 37.4602 36.9973 37.2569C36.9654 37.097 36.9692 36.9321 37.0083 36.7739V36.7689C37.1256 36.4234 37.1599 36.0551 37.1083 35.6939C37.051 35.3851 36.9308 35.0913 36.7553 34.8309C36.5783 34.57 36.3859 34.3199 36.1793 34.0819C36.0543 33.9299 35.9243 33.7819 35.7933 33.6039C35.3301 33.0336 35.0185 32.3557 34.8873 31.6329C34.8022 31.056 34.7784 30.4718 34.8163 29.8899C34.8213 29.7049 34.8213 29.5209 34.8273 29.3419C34.5793 29.3228 34.3471 29.2127 34.1753 29.0329C34.1291 28.9885 34.0857 28.9414 34.0453 28.8919H34.0073C33.9533 28.8919 33.8933 28.8869 33.8333 28.8809C33.6096 28.8533 33.3936 28.7816 33.1979 28.6699C33.0022 28.5581 32.8306 28.4085 32.6933 28.2299C32.5639 28.0711 32.4597 27.8933 32.3843 27.7029C32.4002 27.8378 32.4256 27.9715 32.4603 28.1029C32.4646 28.1209 32.4649 28.1397 32.461 28.1579C32.457 28.1761 32.449 28.1931 32.4376 28.2077C32.4261 28.2223 32.4115 28.2342 32.3948 28.2423C32.3782 28.2505 32.3598 28.2548 32.3413 28.2549C32.3078 28.2561 32.2744 28.2544 32.2413 28.2499L32.2503 28.2569Z" fill="#FFD900"/>
<path fill-rule="evenodd" clip-rule="evenodd" d="M28.3303 27.49C28.3127 27.5088 28.2963 27.5289 28.2813 27.55C28.1413 27.7339 27.9791 27.8999 27.7983 28.044C27.8093 28.044 27.8203 28.039 27.8313 28.039C28.1622 27.9323 28.5121 27.8982 28.8573 27.939C28.9173 27.95 29.0093 27.955 28.9873 28.075C28.9653 28.195 28.8733 28.195 28.8133 28.184C28.5062 28.1486 28.1951 28.1799 27.9013 28.276C27.5977 28.3614 27.3137 28.5054 27.0653 28.7C27.0163 28.743 26.9403 28.8 26.8593 28.711C26.7783 28.622 26.8543 28.554 26.9023 28.511C27.0766 28.3656 27.2727 28.2485 27.4833 28.164C26.9133 27.8 26.5333 27.5939 26.1263 27.3769C26.0343 27.3329 25.9473 27.285 25.8113 27.214C25.7303 27.165 25.6483 27.133 25.5723 27.094C25.3351 27.0016 25.123 26.8546 24.9533 26.665C24.7685 26.4772 24.6471 26.2363 24.6063 25.976C24.5795 25.869 24.5461 25.7638 24.5063 25.661C24.4725 25.5447 24.4111 25.4384 24.3273 25.351C24.2799 25.3065 24.2231 25.2732 24.1612 25.2535C24.0993 25.2338 24.0337 25.2281 23.9693 25.2369C23.7693 25.2909 23.8503 25.275 23.7523 25.492C23.9323 25.4953 24.1068 25.554 24.2523 25.66C24.3634 25.742 24.4406 25.8619 24.4693 25.997C24.4803 26.057 24.4963 26.154 24.3693 26.176C24.2423 26.198 24.2393 26.105 24.2223 26.046C24.2054 25.9709 24.1634 25.9039 24.1033 25.856C24.0155 25.7973 23.9151 25.76 23.8103 25.747C23.7475 25.737 23.6836 25.7353 23.6203 25.742C23.4633 25.829 23.4733 25.856 23.4733 26.122C23.7663 26.1901 24.0202 26.3717 24.1793 26.6269C24.2503 26.7139 24.4403 26.866 24.3203 26.98C24.2003 27.094 24.0493 26.861 23.9833 26.774C23.9079 26.6537 23.8062 26.5521 23.6858 26.477C23.5654 26.4018 23.4295 26.3549 23.2883 26.34C23.0883 26.334 23.2013 26.704 23.2123 26.731C23.2993 26.785 23.3123 26.845 23.4293 26.894C23.5977 26.9705 23.761 27.0576 23.9183 27.155C23.9723 27.188 24.0593 27.237 23.9943 27.34C23.9293 27.443 23.8423 27.4 23.7883 27.367C23.6427 27.2742 23.4903 27.1926 23.3323 27.123C23.1263 27.199 23.1643 27.423 23.1913 27.523C23.2667 27.7152 23.3712 27.8946 23.5013 28.055C23.6552 28.2572 23.8298 28.4429 24.0223 28.609C24.1037 28.6859 24.2104 28.7304 24.3223 28.734C24.4542 28.7218 24.581 28.6772 24.6913 28.604C24.7883 28.5441 24.8925 28.4967 25.0013 28.463C25.2833 28.398 25.2623 28.5929 25.2783 28.7779C25.3339 28.7388 25.3864 28.6953 25.4353 28.648C25.544 28.5207 25.6942 28.436 25.8593 28.409C26.2948 28.5313 26.6962 28.7523 27.0323 29.055C27.3899 29.3374 27.7867 29.5661 28.2103 29.734C28.4079 29.8132 28.6168 29.8608 28.8293 29.875C29.3152 29.8747 29.7978 29.7939 30.2573 29.636C30.3034 29.62 30.3505 29.6073 30.3983 29.5979C30.4361 29.5919 30.4748 29.5997 30.5073 29.62C30.6334 29.7271 30.7697 29.8216 30.9143 29.902C31.059 29.9866 31.2248 30.0282 31.3923 30.0219C31.5118 30.0032 31.6252 29.9566 31.7234 29.8859C31.8215 29.8152 31.9017 29.7224 31.9573 29.6149C32.0506 29.4721 32.1183 29.3141 32.1573 29.148C32.2106 28.9646 32.1971 28.7683 32.1193 28.594C32.0543 28.442 32.0003 28.301 31.9563 28.176C31.7096 28.0146 31.4975 27.8056 31.3325 27.5613C31.1674 27.3169 31.0528 27.0421 30.9953 26.753C30.975 27.0206 30.9915 27.2898 31.0443 27.553C31.0498 27.5745 31.0495 27.5972 31.0434 27.6187C31.0373 27.6401 31.0257 27.6595 31.0096 27.675C30.9935 27.6904 30.9737 27.7014 30.952 27.7066C30.9303 27.7119 30.9077 27.7113 30.8863 27.705C30.4033 27.537 30.1803 27.352 30.0863 27.119C30.0182 27.2204 29.9219 27.2996 29.8093 27.347C29.7823 27.363 29.7603 27.374 29.7553 27.38C29.7407 27.3933 29.7233 27.4031 29.7042 27.4085C29.6852 27.4139 29.6652 27.4148 29.6458 27.4111C29.6264 27.4074 29.6081 27.3992 29.5924 27.3872C29.5767 27.3752 29.564 27.3597 29.5553 27.342C29.5021 27.2139 29.4658 27.0794 29.4473 26.942C29.3531 27.1206 29.2125 27.2705 29.0403 27.3759C29.0105 27.3915 28.9759 27.395 28.9436 27.3859C28.9113 27.3768 28.8836 27.3557 28.8663 27.327C28.8392 27.2732 28.8174 27.217 28.8013 27.159C28.691 27.2964 28.547 27.4028 28.3833 27.468C28.3703 27.4794 28.3554 27.4885 28.3393 27.495L28.3303 27.49Z" fill="#FFD900"/>
<path fill-rule="evenodd" clip-rule="evenodd" d="M28.9003 25.694C28.6272 25.3773 28.375 25.0433 28.1453 24.694C27.923 24.3833 27.7301 24.0525 27.5693 23.706L27.5643 23.679C27.5423 23.572 27.5539 23.4609 27.5976 23.3608C27.6413 23.2607 27.7149 23.1766 27.8083 23.12C27.8366 23.0961 27.8636 23.0707 27.8893 23.044C27.9511 22.9866 28.0025 22.9189 28.0413 22.844C28.1551 22.6393 28.1954 22.4017 28.1553 22.171C28.118 21.9299 28.0105 21.7053 27.8463 21.525C27.7801 21.4537 27.7032 21.3933 27.6183 21.346C27.5424 21.3025 27.46 21.2715 27.3743 21.254C27.3473 21.254 27.2653 21.238 27.2823 21.319C27.5493 21.4471 27.7571 21.6725 27.8633 21.949C27.9507 22.2292 27.9275 22.5323 27.7983 22.796C27.7713 22.856 27.7493 22.91 27.6353 22.861C27.5213 22.812 27.5483 22.752 27.5703 22.698C27.6238 22.5961 27.6566 22.4846 27.6669 22.37C27.6772 22.2553 27.6648 22.1398 27.6303 22.03C27.5453 21.8134 27.3797 21.6381 27.1683 21.541C27.0447 21.4728 26.9087 21.4303 26.7683 21.416C26.6213 21.4 26.5623 21.449 26.5353 21.584H26.5463C26.6833 21.6067 26.8137 21.6593 26.9281 21.7382C27.0425 21.817 27.1382 21.92 27.2083 22.04C27.3461 22.3186 27.39 22.6343 27.3333 22.94C27.3223 23.005 27.3173 23.065 27.1923 23.049C27.0673 23.033 27.0783 22.973 27.0923 22.913C27.1411 22.6598 27.1089 22.3978 27.0003 22.164C26.946 22.0758 26.8732 22.0004 26.7868 21.9433C26.7005 21.8861 26.6027 21.8485 26.5003 21.833C26.3685 21.8072 26.2333 21.8035 26.1003 21.822C26.0403 21.828 26.0083 22.022 26.0133 22.077C26.223 22.1583 26.4056 22.2969 26.5403 22.477C26.7428 22.7827 26.8813 23.1263 26.9473 23.487C26.9633 23.547 26.9743 23.612 26.8553 23.639C26.7363 23.666 26.7193 23.606 26.7083 23.539C26.6472 23.2134 26.5218 22.9034 26.3393 22.627C26.214 22.4524 26.0314 22.3275 25.8233 22.274C25.7473 22.258 25.5233 22.415 25.5143 22.507C25.5193 22.561 25.5303 22.607 25.5363 22.664C25.5612 22.8288 25.6031 22.9907 25.6613 23.147C25.746 23.3728 25.8691 23.5822 26.0253 23.766C26.1403 23.9032 26.2902 24.0069 26.4593 24.066C26.4841 24.0743 26.5057 24.0901 26.5212 24.1111C26.5367 24.1322 26.5453 24.1576 26.5458 24.1837C26.5464 24.2099 26.5388 24.2355 26.5242 24.2572C26.5096 24.279 26.4887 24.2956 26.4643 24.305C26.4238 24.3166 26.3886 24.3416 26.3643 24.376C26.3373 24.409 26.3263 24.436 26.3313 24.452C26.3363 24.468 26.3583 24.463 26.3913 24.474C26.4387 24.4911 26.4842 24.5128 26.5273 24.539C26.6002 24.5705 26.6651 24.618 26.717 24.6781C26.769 24.7382 26.8067 24.8093 26.8273 24.886C26.8549 24.966 26.8883 25.0438 26.9273 25.119C27.1059 25.4774 27.26 25.8476 27.3883 26.227C27.5563 26.721 27.7193 27.253 27.8333 27.671C27.9237 27.5835 28.0073 27.4892 28.0833 27.389C28.103 27.3701 28.1196 27.3481 28.1323 27.324C28.1373 27.313 28.1373 27.308 28.1433 27.297C28.1387 26.9668 28.2153 26.6406 28.3663 26.347C28.5039 26.0971 28.6839 25.8731 28.8983 25.685L28.9003 25.694Z" fill="#FFD900"/>
<path fill-rule="evenodd" clip-rule="evenodd" d="M33.3633 19.227C33.3856 19.1771 33.4193 19.133 33.4617 19.0983C33.504 19.0635 33.5539 19.0392 33.6073 19.027C33.679 19.0134 33.7526 19.0134 33.8243 19.027C33.9492 19.0594 34.0588 19.1344 34.1343 19.239C34.2144 19.3477 34.2666 19.4744 34.2863 19.608C34.3171 19.7671 34.2924 19.932 34.2163 20.075C34.1917 20.1162 34.1625 20.1544 34.1293 20.189C34.2395 20.1244 34.3226 20.0221 34.3633 19.901C34.3931 19.789 34.3931 19.6711 34.3633 19.559C34.3299 19.4307 34.2707 19.3106 34.1893 19.206C34.1296 19.1092 34.0487 19.0272 33.9527 18.966C33.8568 18.9049 33.7483 18.8663 33.6353 18.853C33.5866 18.8607 33.5401 18.8787 33.4989 18.9058C33.4576 18.9328 33.4227 18.9684 33.3963 19.01C33.307 19.1312 33.2321 19.2624 33.1733 19.401C33.1469 19.4372 33.1081 19.4625 33.0643 19.472C32.8963 19.483 32.7113 19.51 32.5643 19.532C32.5153 19.537 32.4723 19.543 32.4073 19.548C32.2009 19.5687 31.9986 19.6199 31.8073 19.7C31.6637 19.776 31.5408 19.8859 31.4493 20.02L31.4113 20.053C31.2539 20.1438 31.086 20.215 30.9113 20.265C30.723 20.3256 30.5277 20.3622 30.3303 20.374C30.1623 20.374 30.0973 20.385 30.0803 20.407C30.0805 20.4637 30.0879 20.5202 30.1023 20.575V20.591C30.1054 20.7191 30.0909 20.8469 30.0593 20.971C30.0165 21.1191 30.0073 21.2749 30.0323 21.427C30.0386 21.4999 30.0633 21.5699 30.104 21.6306C30.1448 21.6913 30.2003 21.7406 30.2653 21.774C30.3303 21.812 30.3793 21.839 30.3953 21.921C30.4036 21.9932 30.4257 22.0631 30.4603 22.127C30.4653 22.111 30.4763 22.089 30.4823 22.067C30.5129 21.9735 30.5694 21.8906 30.6453 21.828C30.7972 21.743 30.9749 21.716 31.1453 21.752C31.3433 21.8057 31.5208 21.9171 31.6553 22.072C31.7249 22.1318 31.7809 22.2059 31.8193 22.2893C31.8578 22.3726 31.8779 22.4632 31.8783 22.555C31.8238 22.7408 31.7018 22.8996 31.5363 23C31.3865 23.1167 31.1984 23.1727 31.0093 23.157C30.8093 23.119 30.6513 22.744 30.5583 22.598C30.5288 22.6489 30.507 22.7038 30.4933 22.761C30.4806 22.784 30.4658 22.8057 30.4493 22.826C30.4223 22.848 30.3893 22.869 30.3573 22.897C30.2653 22.968 30.1513 23.049 30.1513 23.087C30.1572 23.1532 30.1755 23.2176 30.2053 23.277C30.2508 23.3665 30.2767 23.4647 30.2813 23.565C30.2813 23.57 30.2763 23.603 30.2763 23.608C30.2628 23.6501 30.2554 23.6939 30.2543 23.738C30.2452 23.8059 30.2546 23.875 30.2813 23.938C30.2901 23.9607 30.3036 23.9813 30.3208 23.9985C30.338 24.0157 30.3586 24.0292 30.3813 24.038C30.4006 24.0448 30.4208 24.0486 30.4413 24.049C30.5638 24.0578 30.6862 24.0315 30.7943 23.973C30.8615 23.9338 30.9386 23.9151 31.0163 23.919C31.1033 23.924 31.1353 23.968 31.1903 24.028C31.2123 24.05 31.2393 24.077 31.2773 24.109C31.4199 24.065 31.5648 24.0286 31.7113 24C31.9399 23.9462 32.1522 23.8382 32.3303 23.685C32.5324 23.5151 32.6984 23.3063 32.8183 23.071C32.9092 22.8884 32.9609 22.6888 32.9703 22.485C32.987 22.283 32.9667 22.0797 32.9103 21.885C32.8943 21.825 32.8613 21.744 32.9703 21.711C33.0793 21.678 33.1223 21.749 33.1383 21.811C33.2127 22.0364 33.2403 22.2746 33.2193 22.511C33.2002 22.745 33.1375 22.9732 33.0343 23.184C32.9009 23.4509 32.714 23.6875 32.4853 23.879C32.2766 24.0629 32.0242 24.1899 31.7523 24.248C31.5943 24.281 31.4523 24.319 31.3073 24.362C31.2993 24.3693 31.2896 24.3745 31.2792 24.3773C31.2688 24.3801 31.2578 24.3803 31.2473 24.378C30.9438 24.482 30.654 24.6223 30.3843 24.796C29.9746 25.0759 29.588 25.3883 29.2283 25.73C29.2459 25.7246 29.2647 25.7246 29.2823 25.73C29.3963 25.773 29.3693 25.844 29.3473 25.904C29.2983 26.023 29.2603 26.132 29.2223 26.23C29.1513 26.415 29.0923 26.578 29.0323 26.719C29.011 26.7948 29.0019 26.8734 29.0053 26.952C29.0096 26.9922 29.017 27.032 29.0273 27.071C29.2553 26.8021 29.4139 26.4814 29.4893 26.137C29.5163 26.05 29.5433 25.969 29.5703 25.898C29.5749 25.8822 29.5827 25.8674 29.5932 25.8547C29.6038 25.8419 29.6167 25.8315 29.6314 25.8239C29.6461 25.8163 29.6622 25.8118 29.6786 25.8106C29.6951 25.8094 29.7117 25.8116 29.7273 25.817C29.7581 25.8295 29.7828 25.8536 29.7961 25.884C29.8093 25.9145 29.8101 25.949 29.7983 25.98C29.7763 26.051 29.7493 26.127 29.7223 26.213C29.7121 26.2534 29.6994 26.2932 29.6843 26.332C29.6793 26.419 29.6683 26.517 29.6683 26.625C29.6624 26.7846 29.6827 26.944 29.7283 27.097C29.8283 27.037 29.9673 26.923 30.0213 26.521C30.0213 26.461 30.0273 26.396 30.0323 26.331C30.0373 26.266 30.0433 26.168 30.0433 26.092C30.0474 26.0638 30.0609 26.0379 30.0816 26.0183C30.1023 25.9987 30.1289 25.9866 30.1573 25.984C30.1901 25.9825 30.2223 25.9934 30.2475 26.0145C30.2727 26.0356 30.2891 26.0654 30.2933 26.098V26.105C30.2933 26.268 30.2823 26.405 30.2713 26.528C30.2324 26.7061 30.2615 26.8922 30.353 27.0499C30.4444 27.2075 30.5915 27.3253 30.7653 27.38C30.7369 27.1404 30.7332 26.8984 30.7543 26.658C30.7536 26.4062 30.8251 26.1595 30.9603 25.947C30.9794 25.9253 31.0044 25.9097 31.0323 25.902C31.0602 25.8944 31.0898 25.8951 31.1173 25.904C31.1403 25.9188 31.1583 25.9401 31.169 25.9653C31.1797 25.9904 31.1826 26.0182 31.1773 26.045C31.0963 26.675 31.5243 27.837 32.1873 27.994C32.1375 27.7217 32.1104 27.4458 32.1063 27.169C32.1038 26.8274 32.1421 26.4866 32.2203 26.154C32.2272 26.1228 32.2459 26.0955 32.2725 26.0778C32.299 26.06 32.3314 26.0532 32.3628 26.0588C32.3943 26.0643 32.4224 26.0818 32.4413 26.1076C32.4602 26.1333 32.4684 26.1654 32.4643 26.197C32.4495 26.3375 32.4425 26.4787 32.4433 26.62C32.4212 27.1424 32.5801 27.6564 32.8933 28.075C33.0106 28.2287 33.1575 28.3573 33.3253 28.4533C33.4931 28.5493 33.6784 28.6107 33.8703 28.634C33.7302 28.4106 33.6206 28.1695 33.5443 27.917C33.3868 27.4372 33.3134 26.9338 33.3273 26.429C33.3273 26.369 33.3273 26.277 33.4523 26.282C33.5773 26.287 33.5773 26.382 33.5713 26.439C33.5618 26.9139 33.6314 27.387 33.7773 27.839C33.8894 28.2179 34.0883 28.5654 34.3583 28.854C34.4484 28.9414 34.5558 29.0088 34.6737 29.0518C34.7915 29.0949 34.9171 29.1127 35.0423 29.104C34.8636 28.8436 34.7245 28.5582 34.6293 28.257C34.5272 27.8936 34.4833 27.5162 34.4993 27.139C34.511 26.8628 34.5584 26.5891 34.6403 26.325C34.6623 26.271 34.6893 26.184 34.8083 26.225C34.9273 26.266 34.8953 26.344 34.8793 26.404C34.801 26.6446 34.7573 26.8951 34.7493 27.148C34.7436 27.2349 34.7436 27.3221 34.7493 27.409C34.7603 27.382 34.7873 27.365 34.8493 27.36C34.9743 27.349 34.9793 27.409 34.9853 27.474C34.9788 27.7904 35.0792 28.0997 35.2703 28.352C35.4613 28.6042 35.7319 28.7846 36.0383 28.864C35.9467 28.6561 35.8756 28.4398 35.8263 28.218C35.7573 27.9334 35.7211 27.6419 35.7183 27.349C35.717 27.1404 35.7298 26.932 35.7563 26.725C35.7728 26.5494 35.8094 26.3763 35.8653 26.209C35.8873 26.155 35.9193 26.041 36.0333 26.084C36.1473 26.127 36.1203 26.236 36.0983 26.29C36.0485 26.4397 36.015 26.5942 35.9983 26.751C35.9735 26.9346 35.9624 27.1198 35.9653 27.305C35.9778 27.206 35.9979 27.108 36.0253 27.012C36.0473 26.912 36.0743 26.806 36.0903 26.681C36.1013 26.616 36.1233 26.507 36.2423 26.524C36.3613 26.541 36.3423 26.654 36.3343 26.714C36.3196 26.835 36.2959 26.9546 36.2633 27.072C36.1973 27.2962 36.188 27.5333 36.2363 27.762C36.2693 27.903 36.5083 28.223 36.3563 28.316C36.2563 28.381 36.2043 28.294 36.1713 28.24C36.094 28.1217 36.0372 27.9912 36.0033 27.854C36.0143 27.93 36.0303 28.006 36.0473 28.082L36.0487 28.0856L36.0523 28.087C36.1152 28.239 36.2191 28.3705 36.3523 28.467C36.3925 28.4918 36.4364 28.51 36.4823 28.521C36.384 28.1252 36.3419 27.7176 36.3573 27.31C36.3567 26.8581 36.4489 26.4108 36.6283 25.996C36.6553 25.947 36.7283 25.882 36.7803 25.896C36.8323 25.91 36.8673 25.996 36.8673 26.053C36.8645 26.1691 36.8555 26.2849 36.8403 26.4C36.9157 26.1701 36.9703 25.9338 37.0033 25.694C37.0919 25.341 37.1213 24.9757 37.0903 24.613C37.0838 24.5944 37.0814 24.5745 37.0833 24.5548C37.0852 24.5351 37.0913 24.5161 37.1013 24.499C37.1453 24.445 37.2483 24.477 37.3453 24.477C37.3732 24.4786 37.401 24.4735 37.4266 24.4622C37.4521 24.4509 37.4746 24.4337 37.4923 24.412C37.2834 24.3375 37.1044 24.1971 36.9823 24.012C36.8647 23.8227 36.8008 23.6049 36.7973 23.382C36.7913 23.252 36.7863 23.127 36.7703 22.997C36.7383 23.029 36.6993 23.062 36.6613 23.097C36.5421 23.188 36.4149 23.2679 36.2813 23.336C36.2578 23.3466 36.2316 23.3498 36.2062 23.3452C36.1808 23.3406 36.1575 23.3283 36.1392 23.3101C36.121 23.2918 36.1087 23.2685 36.1041 23.2431C36.0995 23.2177 36.1027 23.1915 36.1133 23.168C36.1293 23.135 36.1463 23.092 36.1623 23.049C36.1513 23.055 36.1463 23.065 36.1403 23.071C35.9409 23.2327 35.6909 23.319 35.4343 23.315C35.4126 23.3161 35.3911 23.3116 35.3717 23.3018C35.3523 23.2921 35.3358 23.2774 35.3238 23.2594C35.3118 23.2413 35.3047 23.2205 35.3032 23.1988C35.3017 23.1772 35.3059 23.1556 35.3153 23.136C35.3363 23.093 35.3533 23.049 35.3753 23C35.1641 23.2496 34.8904 23.4387 34.5823 23.548C34.56 23.5552 34.5362 23.556 34.5135 23.5501C34.4909 23.5442 34.4704 23.532 34.4544 23.5149C34.4384 23.4978 34.4277 23.4765 34.4234 23.4535C34.4192 23.4305 34.4215 23.4067 34.4303 23.385C34.4749 23.2822 34.5084 23.1749 34.5303 23.065C34.351 23.2947 34.1124 23.471 33.8403 23.575C33.8184 23.581 33.7954 23.5811 33.7735 23.5752C33.7516 23.5694 33.7317 23.5578 33.7157 23.5418C33.6998 23.5257 33.6884 23.5057 33.6827 23.4838C33.677 23.4619 33.6772 23.4388 33.6833 23.417C33.7679 23.1912 33.8119 22.9522 33.8133 22.711C33.8023 22.4579 33.7235 22.2124 33.5853 22C33.5523 21.951 33.4983 21.875 33.6013 21.81C33.7043 21.745 33.7593 21.815 33.7913 21.87C33.9575 22.1178 34.0497 22.4078 34.0573 22.706C34.0616 22.88 34.0414 23.0537 33.9973 23.222C34.1276 23.1363 34.2431 23.0299 34.3393 22.907C34.4856 22.7364 34.5732 22.5232 34.5893 22.299C34.5935 22.2679 34.6082 22.2392 34.6309 22.2176C34.6536 22.1959 34.683 22.1827 34.7143 22.18C34.7458 22.182 34.7756 22.195 34.7985 22.2167C34.8214 22.2385 34.8358 22.2676 34.8393 22.299C34.8491 22.5094 34.8401 22.7203 34.8123 22.929C34.798 23.0205 34.778 23.1111 34.7523 23.2C34.9261 23.1 35.0805 22.9696 35.2083 22.815C35.2903 22.7335 35.3548 22.6362 35.3977 22.5289C35.4407 22.4215 35.4613 22.3066 35.4583 22.191C35.4525 22.1623 35.4576 22.1326 35.4726 22.1074C35.4876 22.0823 35.5113 22.0636 35.5393 22.055C35.5697 22.046 35.6024 22.0483 35.6314 22.0613C35.6604 22.0743 35.6838 22.0973 35.6973 22.126C35.7506 22.2927 35.762 22.4699 35.7303 22.642C35.7084 22.7789 35.6719 22.913 35.6213 23.042C35.7517 23.0252 35.8744 22.9706 35.9743 22.885C36.0636 22.7798 36.1312 22.658 36.173 22.5265C36.2149 22.395 36.2303 22.2565 36.2183 22.119C36.1643 22.07 36.1043 22.019 36.0503 21.967C35.9381 21.8671 35.8476 21.7453 35.7843 21.609C35.7574 21.5471 35.734 21.4836 35.7143 21.419C35.6886 21.3383 35.6551 21.2603 35.6143 21.186C35.5232 21.042 35.4136 20.9105 35.2883 20.795C35.1874 20.6967 35.0721 20.6144 34.9463 20.551C34.8292 20.4933 34.7266 20.4099 34.6463 20.307C34.6034 20.2545 34.5653 20.1983 34.5323 20.139C34.4202 20.3134 34.2514 20.4437 34.0543 20.508C34.0003 20.524 33.9403 20.546 33.8973 20.432C33.8836 20.4052 33.8797 20.3744 33.8863 20.345C33.8753 20.345 33.8643 20.351 33.8533 20.351C33.7933 20.367 33.7333 20.383 33.7013 20.264C33.6693 20.145 33.7283 20.128 33.7883 20.112C33.8318 20.1033 33.8731 20.0858 33.9095 20.0605C33.946 20.0353 33.9769 20.0027 34.0003 19.965C34.0522 19.8705 34.0678 19.7603 34.0443 19.655C34.0309 19.562 33.9933 19.474 33.9353 19.4C33.8991 19.3447 33.8457 19.3029 33.7833 19.281C33.7438 19.2733 33.7034 19.2713 33.6633 19.275C33.6308 19.2866 33.6037 19.3097 33.5873 19.34C33.5603 19.394 33.5333 19.454 33.4243 19.394C33.3153 19.334 33.3383 19.286 33.3653 19.232L33.3633 19.227Z" fill="#FFD900"/>
<path fill-rule="evenodd" clip-rule="evenodd" d="M31.2563 20.356C31.2423 20.3423 31.2317 20.3255 31.2254 20.307C31.219 20.2884 31.2171 20.2687 31.2197 20.2492C31.2223 20.2298 31.2294 20.2113 31.2405 20.1951C31.2515 20.1789 31.2662 20.1655 31.2833 20.156C31.2883 20.156 31.2833 20.156 31.2943 20.151C31.4211 20.0549 31.5645 19.9831 31.7173 19.939C31.7747 19.918 31.8352 19.9069 31.8963 19.906C31.9617 19.9084 32.0262 19.923 32.0863 19.949C32.1575 19.9763 32.2247 20.013 32.2863 20.058C32.3524 20.0965 32.4113 20.1463 32.4603 20.205C32.4727 20.2342 32.4801 20.2653 32.4823 20.297C32.4603 20.411 32.3683 20.427 32.2383 20.449C32.1466 20.4593 32.0569 20.4832 31.9723 20.52C31.5653 20.732 31.4833 20.62 31.3483 20.455C31.3226 20.4189 31.2935 20.3854 31.2613 20.355L31.2563 20.356Z" fill="black"/>
<path fill-rule="evenodd" clip-rule="evenodd" d="M31.5283 20.291C31.5333 20.296 31.5393 20.296 31.5393 20.302C31.5933 20.373 31.6313 20.416 31.8543 20.302C31.9271 20.2637 32.0059 20.2381 32.0873 20.226C32.0584 20.2067 32.0275 20.1902 31.9953 20.177C31.9639 20.1628 31.9298 20.1553 31.8953 20.155C31.8568 20.1554 31.8185 20.1608 31.7813 20.171C31.6908 20.1975 31.6048 20.2376 31.5263 20.29L31.5283 20.291Z" fill="#FFD900"/>
<path fill-rule="evenodd" clip-rule="evenodd" d="M31.7193 20.905C31.9036 21.0014 32.0667 21.1337 32.1991 21.2941C32.3315 21.4545 32.4305 21.6398 32.4903 21.839C32.5659 22.0929 32.5772 22.3616 32.5233 22.621C32.4667 22.879 32.3389 23.116 32.1543 23.305C32.0121 23.4425 31.8435 23.55 31.6588 23.621C31.4741 23.6919 31.277 23.7249 31.0793 23.718C31.0193 23.718 30.9543 23.718 30.9543 23.593C30.9543 23.468 31.0193 23.473 31.0793 23.473C31.2444 23.4781 31.4089 23.4505 31.5634 23.3918C31.7179 23.3331 31.8592 23.2445 31.9793 23.131C32.132 22.9782 32.2364 22.7837 32.2793 22.572C32.3274 22.3527 32.3181 22.1247 32.2523 21.91C32.2033 21.7426 32.1208 21.5869 32.0098 21.4525C31.8987 21.318 31.7614 21.2076 31.6063 21.128C31.5523 21.101 31.4973 21.068 31.5523 20.96C31.6073 20.852 31.6663 20.879 31.7203 20.906L31.7193 20.905Z" fill="black"/>
<path fill-rule="evenodd" clip-rule="evenodd" d="M33.4883 24.2359C33.463 24.4529 33.4721 24.6726 33.5153 24.8869C33.5495 25.0362 33.618 25.1755 33.7153 25.2939C33.7104 25.1377 33.7195 24.9814 33.7423 24.8269C33.7711 24.589 33.8334 24.3563 33.9273 24.1359C33.9493 24.0819 33.9703 24.0219 34.0843 24.0709C34.1983 24.1199 34.1773 24.1709 34.1553 24.2339C34.0716 24.4355 34.0151 24.6474 33.9873 24.8639C33.9589 25.0962 33.9552 25.3308 33.9763 25.5639C33.978 25.5863 33.9736 25.6089 33.9636 25.6291C33.9535 25.6492 33.9382 25.6663 33.9193 25.6785C33.9003 25.6907 33.8784 25.6976 33.8559 25.6983C33.8333 25.6991 33.811 25.6938 33.7913 25.6829C33.6594 25.6028 33.5455 25.4964 33.4567 25.3702C33.3679 25.2441 33.3062 25.101 33.2753 24.9499C33.2225 24.7075 33.2114 24.458 33.2423 24.2119C33.2483 24.1519 33.2583 24.0869 33.3783 24.1039C33.4983 24.1209 33.4973 24.1799 33.4863 24.2399L33.4883 24.2359Z" fill="black"/>
<path fill-rule="evenodd" clip-rule="evenodd" d="M34.8293 23.896C34.8183 23.956 34.8073 24.021 34.8023 24.086C34.7786 24.368 34.8311 24.6512 34.9543 24.906C35.0431 25.1009 35.1994 25.2572 35.3943 25.346C35.3398 25.1947 35.3123 25.0349 35.3133 24.874C35.3111 24.5713 35.384 24.2728 35.5253 24.005C35.5523 23.951 35.5853 23.896 35.6933 23.956C35.8013 24.016 35.7693 24.07 35.7423 24.124C35.6212 24.3551 35.558 24.6121 35.5583 24.873C35.5525 25.0803 35.6174 25.2835 35.7423 25.449C35.76 25.4663 35.7724 25.4883 35.7783 25.5123C35.7841 25.5363 35.7831 25.5615 35.7753 25.585C35.7213 25.685 35.5753 25.65 35.4873 25.634C35.3228 25.5965 35.1691 25.5215 35.0382 25.4151C34.9073 25.3086 34.8026 25.1734 34.7323 25.02C34.5892 24.7229 34.5291 24.3926 34.5583 24.064C34.5644 23.991 34.5754 23.9185 34.5913 23.847C34.6023 23.787 34.6133 23.728 34.7383 23.747C34.8633 23.766 34.8473 23.834 34.8303 23.894L34.8293 23.896Z" fill="black"/>
<path fill-rule="evenodd" clip-rule="evenodd" d="M31.7723 26.133C31.7503 26.2729 31.7449 26.4148 31.7563 26.556C31.7626 26.7283 31.8013 26.8979 31.8703 27.056C31.8973 27.11 31.9243 27.17 31.8103 27.219C31.6963 27.268 31.6693 27.219 31.6473 27.159C31.5649 26.9739 31.5171 26.7753 31.5063 26.573C31.4907 26.3525 31.509 26.131 31.5603 25.916V25.911C31.4938 25.8093 31.4441 25.6975 31.4133 25.58C31.3562 25.3135 31.3749 25.0364 31.4673 24.78C31.4893 24.72 31.5273 24.628 31.6463 24.671C31.7653 24.714 31.7223 24.801 31.7003 24.861C31.623 25.0713 31.6081 25.2994 31.6573 25.518C31.675 25.597 31.7062 25.6724 31.7493 25.741C31.7494 25.6404 31.7585 25.54 31.7763 25.441C31.8103 25.2792 31.873 25.1247 31.9613 24.985C31.9943 24.936 32.0533 24.855 32.1613 24.92C32.2693 24.985 32.2103 25.067 32.1773 25.12C32.1018 25.2334 32.0501 25.361 32.0253 25.495C31.9916 25.6836 31.9933 25.8769 32.0303 26.065C32.0339 26.0896 32.03 26.1148 32.0193 26.1372C32.0086 26.1597 31.9914 26.1785 31.97 26.1912C31.9486 26.204 31.9239 26.2101 31.8991 26.2088C31.8742 26.2075 31.8503 26.1989 31.8303 26.184C31.8093 26.1689 31.7893 26.1526 31.7703 26.135L31.7723 26.133Z" fill="black"/>
<path fill-rule="evenodd" clip-rule="evenodd" d="M33.1793 26.5889C33.1793 26.6209 33.1743 26.6649 33.1683 26.7139C33.1523 27.0069 33.1143 27.6589 33.4023 27.9079C33.4513 27.9459 33.5023 27.9899 33.4183 28.0819C33.3343 28.1739 33.2933 28.1359 33.2443 28.0929C32.8643 27.7619 32.9073 27.0289 32.9293 26.7029C32.9293 26.6489 32.9353 26.6029 32.9353 26.5889C32.9353 26.5239 32.9403 26.4319 33.0543 26.4319C33.1683 26.4319 33.1793 26.5239 33.1793 26.5889Z" fill="black"/>
<path fill-rule="evenodd" clip-rule="evenodd" d="M33.9393 26.9211C33.9231 27.1298 33.9359 27.3398 33.9773 27.5451C34.0212 27.7361 34.0811 27.9231 34.1563 28.1041C34.1783 28.1641 34.1993 28.2181 34.0853 28.2671C33.9713 28.3161 33.9493 28.2511 33.9223 28.1971C33.8459 28.0019 33.7841 27.8013 33.7373 27.5971C33.6925 27.372 33.6761 27.1422 33.6883 26.9131C33.6943 26.8531 33.6943 26.7611 33.8183 26.7661C33.9423 26.7711 33.9383 26.8661 33.9383 26.9241L33.9393 26.9211Z" fill="black"/>
<path fill-rule="evenodd" clip-rule="evenodd" d="M35.4213 26.692C35.3833 26.9892 35.3999 27.2908 35.4703 27.582C35.4813 27.647 35.5033 27.745 35.3833 27.767C35.2633 27.789 35.2423 27.696 35.2313 27.631C35.1509 27.3098 35.1325 26.9761 35.1773 26.648C35.1883 26.588 35.2093 26.469 35.3293 26.49C35.4493 26.511 35.4293 26.626 35.4213 26.69V26.692Z" fill="black"/>
<path fill-rule="evenodd" clip-rule="evenodd" d="M32.8793 30.8641C32.8015 30.9829 32.7041 31.0878 32.5913 31.1741C32.4892 31.2523 32.3705 31.3061 32.2443 31.3311C32.1793 31.3361 32.0923 31.3471 32.0763 31.2221C32.0603 31.0971 32.1473 31.0921 32.2123 31.0811C32.2984 31.0667 32.379 31.029 32.4453 30.9721C32.5334 30.9085 32.609 30.8292 32.6683 30.7381C32.7013 30.6841 32.7493 30.5971 32.8583 30.6621C32.9673 30.7271 32.9123 30.8081 32.8803 30.8621L32.8793 30.8641Z" fill="black"/>
<path fill-rule="evenodd" clip-rule="evenodd" d="M32.7063 30.384C32.6137 30.5324 32.4894 30.6585 32.3423 30.753C32.21 30.8466 32.0532 30.8995 31.8913 30.905C31.8263 30.905 31.7443 30.91 31.7443 30.786C31.7443 30.662 31.8253 30.656 31.8913 30.656C32.0047 30.6513 32.1142 30.6134 32.2063 30.547C32.3232 30.4707 32.4229 30.3709 32.4993 30.254C32.5323 30.2 32.5803 30.124 32.6833 30.183C32.7863 30.242 32.7433 30.33 32.7053 30.383L32.7063 30.384Z" fill="black"/>
<path fill-rule="evenodd" clip-rule="evenodd" d="M27.8573 29.136C28.1803 29.1671 28.5047 29.1815 28.8293 29.179C29.3 29.173 29.769 29.1201 30.2293 29.021C30.2893 29.01 30.3483 28.999 30.3763 29.121C30.4043 29.243 30.3383 29.251 30.2763 29.268C29.8029 29.3682 29.321 29.4228 28.8373 29.431C28.5034 29.4338 28.1696 29.4195 27.8373 29.388C27.7773 29.383 27.7123 29.377 27.7233 29.252C27.7343 29.127 27.7993 29.133 27.8593 29.138L27.8573 29.136Z" fill="black"/>
</g>
<defs>
<clipPath id="clip0_40_31722">
<rect width="64" height="64" fill="white"/>
</clipPath>
</defs>
</svg>
