<svg xmlns="http://www.w3.org/2000/svg" xmlns:xlink="http://www.w3.org/1999/xlink" width="64" height="64" viewBox="0 0 64 64"><defs><clipPath id="a"><circle cx="32" cy="32" r="32" fill="#3e73c4"/></clipPath><linearGradient id="b" x1="0.5" x2="0.5" y2="1" gradientUnits="objectBoundingBox"><stop offset="0" stop-color="#681cff"/><stop offset="1" stop-color="#fd3f83"/></linearGradient></defs><g clip-path="url(#a)"><g transform="translate(-381.76 -664)"><circle cx="32" cy="32" r="32" transform="translate(381.76 664)" fill="url(#b)"/><path d="M59.933,61.558h.3a7.882,7.882,0,0,0,3.494-.8,10.669,10.669,0,0,0,2.9-2.071,9.707,9.707,0,0,0,1.938-2.782,6.94,6.94,0,0,0,.725-2.977,5.087,5.087,0,0,0-.384-1.963,4.035,4.035,0,0,0-1.172-1.617,5.784,5.784,0,0,0-2.045-1.1,9.46,9.46,0,0,0-2.961-.41,13.371,13.371,0,0,0-3.344.367,10.04,10.04,0,0,0-2.407.949,7.357,7.357,0,0,0-1.7,1.337,11.889,11.889,0,0,0-1.193,1.552q-.49.8-.895,1.553a9.753,9.753,0,0,1-.852,1.337,4.016,4.016,0,0,1-.958.949,2.273,2.273,0,0,1-1.321.366,1.884,1.884,0,0,1-2.131-2.092,4.879,4.879,0,0,1,.49-2.006A9.934,9.934,0,0,1,49.835,50a14.15,14.15,0,0,1,2.28-2.071,15.84,15.84,0,0,1,3-1.769,18.64,18.64,0,0,1,3.664-1.229,17.958,17.958,0,0,1,4.2-.474,15.189,15.189,0,0,1,4.155.56A10.912,10.912,0,0,1,70.669,46.7,8,8,0,0,1,73.1,49.478a8.08,8.08,0,0,1,.916,3.926,7.693,7.693,0,0,1-.554,2.891,10.709,10.709,0,0,1-1.449,2.567,13.614,13.614,0,0,1-2.152,2.2,17.993,17.993,0,0,1-2.6,1.769,19.69,19.69,0,0,1-2.855,1.316,15.889,15.889,0,0,1-2.812.777,17.617,17.617,0,0,0,.618,2.287A17.238,17.238,0,0,0,63.277,69.6a9.633,9.633,0,0,0,1.406,1.92,2.523,2.523,0,0,0,1.619.863,2.571,2.571,0,0,0,.32.022h.3a7,7,0,0,0,2.77-.518,9.231,9.231,0,0,0,2.024-1.143,7.95,7.95,0,0,0,1.663-1.66,1.84,1.84,0,0,1,1.343-.755.979.979,0,0,1,.724.3,1.115,1.115,0,0,1,.3.82,2.784,2.784,0,0,1-.32,1.165,4.654,4.654,0,0,1-1.044,1.359,16.154,16.154,0,0,1-4.3,3.063,9.594,9.594,0,0,1-3.962.949,4.936,4.936,0,0,1-2.833-.885,9.4,9.4,0,0,1-2.365-2.394,19.8,19.8,0,0,1-1.939-3.516,40.718,40.718,0,0,1-1.555-4.271q-.384.884-.788,2.092-.405,1.186-.874,2.459T54.777,72a15.361,15.361,0,0,1-1.129,2.222,7.036,7.036,0,0,1-1.321,1.574,2.306,2.306,0,0,1-1.534.6,2.453,2.453,0,0,1-1.108-.216,1.8,1.8,0,0,1-.66-.539,2.2,2.2,0,0,1-.341-.712A3.418,3.418,0,0,1,48.6,74.2a4.2,4.2,0,0,1,.128-1.014,4.379,4.379,0,0,1,.362-.971l6.285-11.648q.809-1.467,1.619-2.825.831-1.38,1.6-2.437a12.171,12.171,0,0,1,1.47-1.682,1.992,1.992,0,0,1,1.256-.647,1.293,1.293,0,0,1,.362.064.818.818,0,0,1,.384.194,1.05,1.05,0,0,1,.3.41,1.514,1.514,0,0,1,.128.669,4.054,4.054,0,0,1-.234,1.144q-.234.734-.618,1.682t-.9,2.092q-.512,1.121-1.065,2.308a1.541,1.541,0,0,0,.256.021Z" transform="translate(351.931 635.574)" fill="#fff" fill-rule="evenodd"/></g></g></svg>