<svg width="64" height="64" viewBox="0 0 64 64" fill="none" xmlns="http://www.w3.org/2000/svg">
<g clip-path="url(#clip0_40_31805)">
<mask id="mask0_40_31805" style="mask-type:luminance" maskUnits="userSpaceOnUse" x="0" y="0" width="64" height="64">
<path d="M32 64C49.6731 64 64 49.6731 64 32C64 14.3269 49.6731 0 32 0C14.3269 0 0 14.3269 0 32C0 49.6731 14.3269 64 32 64Z" fill="white"/>
</mask>
<g mask="url(#mask0_40_31805)">
<path d="M32 64C49.6731 64 64 49.6731 64 32C64 14.3269 49.6731 0 32 0C14.3269 0 0 14.3269 0 32C0 49.6731 14.3269 64 32 64Z" fill="url(#paint0_linear_40_31805)"/>
<path fill-rule="evenodd" clip-rule="evenodd" d="M30.104 33.132H30.404C31.6146 33.1372 32.8102 32.8635 33.898 32.332C34.9739 31.8092 35.9542 31.1091 36.798 30.261C37.6022 29.4546 38.2582 28.5129 38.736 27.479C39.1964 26.5531 39.4441 25.536 39.461 24.502C39.4641 23.8287 39.3336 23.1615 39.077 22.539C38.828 21.9104 38.425 21.3543 37.905 20.922C37.3047 20.4209 36.609 20.0467 35.86 19.822C34.9009 19.5293 33.9015 19.3909 32.899 19.412C31.7733 19.3931 30.6497 19.5164 29.555 19.779C28.7151 19.9902 27.906 20.3092 27.148 20.728C26.5185 21.0875 25.9457 21.5381 25.448 22.065C25.0083 22.5487 24.6093 23.0678 24.255 23.617C23.9283 24.1504 23.63 24.668 23.36 25.17C23.1127 25.6381 22.8278 26.0852 22.508 26.507C22.2444 26.8751 21.9205 27.196 21.55 27.456C21.1578 27.7111 20.6965 27.8389 20.229 27.822C19.9432 27.862 19.6521 27.8357 19.378 27.7453C19.104 27.6549 18.8544 27.5027 18.6485 27.3006C18.4426 27.0984 18.2859 26.8517 18.1904 26.5794C18.095 26.3071 18.0633 26.0165 18.098 25.73C18.1163 25.0341 18.2834 24.3501 18.588 23.724C18.9653 22.9489 19.442 22.2261 20.006 21.574C20.6883 20.8028 21.4529 20.1084 22.286 19.503C23.2179 18.8049 24.224 18.2116 25.286 17.734C26.4614 17.1985 27.6894 16.7866 28.95 16.505C30.3264 16.1823 31.7362 16.0232 33.15 16.031C34.5542 16.0247 35.9525 16.2132 37.305 16.591C38.5751 16.9343 39.7727 17.5045 40.84 18.274C41.8558 18.9979 42.6883 19.9492 43.271 21.052C43.9031 22.2623 44.2183 23.613 44.187 24.978C44.1901 25.9684 44.002 26.95 43.633 27.869C43.2706 28.7874 42.783 29.6513 42.184 30.436C41.5521 31.2484 40.8302 31.9864 40.032 32.636C39.2186 33.3005 38.3486 33.8924 37.432 34.405C36.5169 34.9191 35.5622 35.3592 34.577 35.721C33.6654 36.0657 32.7242 36.3258 31.765 36.498C31.9194 37.2734 32.1259 38.0374 32.383 38.785C32.677 39.6072 33.033 40.4058 33.448 41.174C33.8355 41.8697 34.3077 42.5146 34.854 43.094C35.2662 43.5747 35.8441 43.8827 36.473 43.957C36.5791 43.971 36.686 43.9784 36.793 43.979H37.093C38.0419 43.9959 38.9843 43.8197 39.863 43.461C40.5831 43.1668 41.2632 42.7828 41.887 42.318C42.5205 41.8501 43.0809 41.2907 43.55 40.658C43.706 40.4426 43.9068 40.2635 44.1386 40.1332C44.3705 40.0029 44.6278 39.9243 44.893 39.903C45.0278 39.9005 45.1617 39.9258 45.2863 39.9774C45.4109 40.0291 45.5235 40.1059 45.617 40.203C45.7196 40.3125 45.799 40.4416 45.8506 40.5825C45.9021 40.7234 45.9247 40.8732 45.917 41.023C45.8969 41.4301 45.7876 41.8278 45.597 42.188C45.3361 42.7018 44.9821 43.1626 44.553 43.547C43.2973 44.7969 41.8446 45.8318 40.253 46.61C39.0155 47.2064 37.6644 47.53 36.291 47.559C35.2782 47.5617 34.2891 47.2527 33.458 46.674C32.5321 46.0248 31.7309 45.2138 31.093 44.28C30.3292 43.1768 29.6795 41.9987 29.154 40.764C28.5565 39.3704 28.0374 37.9445 27.599 36.493C27.343 37.0824 27.0803 37.7797 26.811 38.585C26.541 39.3757 26.2496 40.1954 25.937 41.044C25.6243 41.8927 25.2946 42.736 24.948 43.574C24.6324 44.3441 24.2549 45.0872 23.819 45.796C23.458 46.3825 23.013 46.9128 22.498 47.37C22.0779 47.7521 21.5317 47.9657 20.964 47.97C20.5829 47.9852 20.2035 47.9112 19.856 47.754C19.596 47.6298 19.3697 47.4449 19.196 47.215C19.0403 47.0002 18.9248 46.759 18.855 46.503C18.8009 46.2638 18.7727 46.0193 18.771 45.774C18.7722 45.4321 18.8152 45.0916 18.899 44.76C18.9808 44.4232 19.1023 44.0972 19.261 43.789L25.546 32.141C26.0853 31.163 26.625 30.2214 27.165 29.316C27.719 28.396 28.2523 27.5837 28.765 26.879C29.2024 26.2745 29.6944 25.7115 30.235 25.197C30.5605 24.8352 31.0073 24.605 31.491 24.55C31.6141 24.554 31.736 24.5756 31.853 24.614C31.996 24.6433 32.1286 24.7103 32.237 24.808C32.369 24.9181 32.472 25.0589 32.537 25.218C32.6299 25.4284 32.6737 25.6572 32.665 25.887C32.6426 26.2777 32.5638 26.663 32.431 27.031C32.275 27.5204 32.069 28.081 31.813 28.713C31.557 29.345 31.257 30.0424 30.913 30.805C30.5716 31.5524 30.2166 32.3217 29.848 33.113C29.9326 33.1272 30.0182 33.1342 30.104 33.134V33.132Z" fill="white"/>
</g>
</g>
<defs>
<linearGradient id="paint0_linear_40_31805" x1="32" y1="0" x2="32" y2="64" gradientUnits="userSpaceOnUse">
<stop stop-color="#681CFF"/>
<stop offset="1" stop-color="#FD3F83"/>
</linearGradient>
<clipPath id="clip0_40_31805">
<rect width="64" height="64" fill="white"/>
</clipPath>
</defs>
</svg>
