<svg xmlns="http://www.w3.org/2000/svg" width="64" height="64" viewBox="0 0 64 64"><path d="M64,32A32,32,0,1,1,32,0,32,32,0,0,1,64,32" fill="#fff"/><path d="M55.475,26.625a23.534,23.534,0,1,1,0,.005m30.655,29.3a24.612,24.612,0,1,1,0-.005" transform="translate(-23.486 -23.912)" fill="#0032a0"/><path d="M241.236,378.369a15.3,15.3,0,0,0-2.992,6.228.19.19,0,0,0,.147.2c1.078.3,4.128,1.062,5.392,1.226a.188.188,0,0,0,.209-.144,17.418,17.418,0,0,1,2-5.128.19.19,0,0,0-.1-.28,16.262,16.262,0,0,1-4.417-2.124.181.181,0,0,0-.239.017" transform="translate(-225.437 -357.976)" fill="#0032a0"/><path d="M373.62,283.063a15.952,15.952,0,0,1,10.509,4.416.237.237,0,0,0,.237.059,16.876,16.876,0,0,0,1.685-.615.236.236,0,0,0,.09-.376A16.751,16.751,0,0,0,373.628,281h-.037a16.745,16.745,0,0,0-12.513,5.547.236.236,0,0,0,.09.376,16.942,16.942,0,0,0,1.686.616.237.237,0,0,0,.236-.059,15.951,15.951,0,0,1,10.509-4.416Z" transform="translate(-341.611 -265.894)" fill="#0032a0"/><path d="M369.109,366.682a14.315,14.315,0,0,0,10.227-4.677,16.5,16.5,0,0,0,2.6-9.17,16.326,16.326,0,0,0-2.6-9.139,14.411,14.411,0,0,0-10.227-4.677h-.041a14.394,14.394,0,0,0-10.227,4.677,16.318,16.318,0,0,0-2.6,9.139,16.487,16.487,0,0,0,2.6,9.17,14.323,14.323,0,0,0,10.227,4.677Z" transform="translate(-337.09 -320.795)" fill="#0032a0"/><path d="M325.138,225.626a17.78,17.78,0,0,1,13.607,6.251.239.239,0,0,0,.295.061,13.1,13.1,0,0,0,1.319-.786.233.233,0,0,0,.057-.338,19.824,19.824,0,0,0-15.3-7.214h0a19.587,19.587,0,0,0-15.3,7.214.234.234,0,0,0,.057.338,13.081,13.081,0,0,0,1.319.786.238.238,0,0,0,.294-.061,17.783,17.783,0,0,1,13.607-6.251Z" transform="translate(-293.119 -211.58)" fill="#0032a0"/><path d="M409.271,367.08s-.326.031-.384-.42a2.642,2.642,0,0,1,1.281-.136,1.735,1.735,0,0,0-.9.556m-1.8,1.758c-1.435.46-1.657-.567-1.333-.893a.638.638,0,0,0-.45.91c.55,1.021,2.411-.484,2.957.376h0l.52.311-.441-.132a2.314,2.314,0,0,0-1.149-.033l-.25-.188a1.345,1.345,0,0,0-.035.329h0c-.559.492.09,1.007.09,1.007a.534.534,0,0,1,.113-.514,1.027,1.027,0,0,0,.559,1.06s-.405-.886.161-.982c.215-.035.307.122.6.232.484.175.736-.221.741.2,0,.319-.079.452-.356.759a2.636,2.636,0,0,1-.82.556c-.586.24-1.365.47-1.6-.215,0,0-.584.466-.177.806a15.76,15.76,0,0,1-1.63-1.012c-.232-.234-.144-.716-.558-.827a1.641,1.641,0,0,0-.323-.95s.287-1.4-.777-1.469c0,0,.263.376.069.6s-.069.39.094.757a1.146,1.146,0,0,1-.419-.56c-.081-.325-.136-.533-.477-.527a.617.617,0,0,0-1.006.116s.484-.12.5.295a1.791,1.791,0,0,0,.689,1.061s-.869-.381-1.354-.069a.6.6,0,0,0-.67.626c.033-.025.484-.361.616-.144s.229.276.57.3a1.021,1.021,0,0,1,.882.722s-.97-.175-1.049.323a.514.514,0,0,1-.565.029s.2.957,2.222.417c0,0,1.42.41-.06.917a2.89,2.89,0,0,1,2.17,1.408,20.087,20.087,0,0,0,3.023-1.858,7.168,7.168,0,0,1-3.239,2.457c-2.34.707-3.49-.753-4.044-.2,0,0-.839.042-.87.723,0,0,.477-.387.616-.127.158.294.9.259,1.282.221,0,0-1.226.224-1.274.753,0,0-.685.434-.407,1.034,0,0,.219-.413.56-.41a1.282,1.282,0,0,0,1.059-.489s-.883,1.255-.323,1.881a.625.625,0,0,1,.561-.538c.421-.058-.009-.873,1.062-.78a1.614,1.614,0,0,1-.172.746s.264.226-.337.52a1.09,1.09,0,0,0,1.236-.653c.135-.273.446-1.65,1.473-.37a2.113,2.113,0,0,1,1.757-1.178c1.244-.19.413.964-.121,1.25,0,0,2.756-.235,3.08,4.189a4.87,4.87,0,0,0-1.377-2.883,3.265,3.265,0,0,0-4.15.161s1.01-.03.682.936c-.351,1.034,1.424,2.186.376,2.479-1.241.348-2.321-2.6-3.293-1.389a.841.841,0,0,1,.86.357.976.976,0,0,0-1.465.5,1.022,1.022,0,0,1,1.275.275,1.114,1.114,0,0,0-1.693.753s.436-.422.848-.107c.22.169.632-.2,1.054.2a1.1,1.1,0,0,0-1.429,1.027.982.982,0,0,1,1.28-.031,1.122,1.122,0,0,0,1.491-.1l-.263.758a3.369,3.369,0,0,1,1.955-.4c.995.291,1.465.239,1.559-.608.484-.279.834.393.834.393.113-.955-.614-1.027-.813-1.15-.323-.2.749-.544.749-.544a3.838,3.838,0,0,1-.733-.318c-1.016-.58-.361-1.523.639-.892a17.381,17.381,0,0,1,1.536,1.068,1.661,1.661,0,0,0-.278,1.809s.278-1.042.691-.206l0,0a5.414,5.414,0,0,0,2.491,2.037c.81.422-.519,1.623-2.006.817-1.2-.649-1.524.461-1.524.461s.515-.376.881-.117a1.167,1.167,0,0,0-1.183,1.219c.041-.025.237-.438.568-.344,0,0,.421-.669.933-.316,0,0-1.021-.121-1.136,1.63,0,0,.362-.62.793-.575,0,0,.269-.914,1.011-.435,0,0-.911-.415-.951,1.445,0,0,.346-.636.727-.509a2.445,2.445,0,0,0,2.748-.769h.645a2.672,2.672,0,0,1,.739-1.527.9.9,0,0,1,.257-.112.7.7,0,0,1,.222-.011.543.543,0,0,1,.374.3,1.655,1.655,0,0,0-.4-1.311,1.368,1.368,0,0,0,.724-1.168,2.108,2.108,0,0,1-2.181.206c-.522-.236-1.114-.718-.476-1.6a4.1,4.1,0,0,0,.787-2.723,2.265,2.265,0,0,1,.269,1.41,3.377,3.377,0,0,0,2.948.516.9.9,0,0,1,.68,1.622,1.011,1.011,0,0,1-1.361-.283,1.4,1.4,0,0,0,2.534.029,1.749,1.749,0,0,0-.684-2.166c.925-1.161,1.1-2.754-.4-5.214l-.207-.34a.822.822,0,0,1,1.317-.95.938.938,0,0,1-.028,1.29,1.381,1.381,0,0,0-.4-2.458,1.542,1.542,0,0,0-1.767.645,10.323,10.323,0,0,1-.749-1.505.528.528,0,0,1,.954-.436.6.6,0,0,1-.205.8.888.888,0,0,0,.108-1.6.994.994,0,0,0-1-.009,1.63,1.63,0,0,1,.359-.787c.161-.2.3-.256.43-.189a1.464,1.464,0,0,0,1.179.172,1.036,1.036,0,0,0,.573-.525l.036-.085-.075.054a.7.7,0,0,1-.633.132.738.738,0,0,1-.219-.107,1.458,1.458,0,0,0,1.031-.645,2.224,2.224,0,0,0,.269-1.306,3.624,3.624,0,0,0-.113-.706l-.021-.075-.026.074a1.538,1.538,0,0,1-1.149,1.016c-.1.038-.211.076-.319.12a.951.951,0,0,0,.147-.841.853.853,0,0,0-.284-.455,1.1,1.1,0,0,1-.425.991,2.9,2.9,0,0,0-.434.471,1.013,1.013,0,0,0-.148.835,4.162,4.162,0,0,0-.343.255,2.765,2.765,0,0,0-.708,3.041,13.589,13.589,0,0,0,1.655,3.189,1.944,1.944,0,0,0-1.786,1.116,1.725,1.725,0,0,0,1.645,2.527s-1.344-.234-1.055-1.44a1.15,1.15,0,0,1,2.222.069c.778,2.226-1.878,3.674-3.981.9-1.187-1.567-3.4-2.894-2.258-4.429a1.84,1.84,0,0,0,2.258.525,2.035,2.035,0,0,1-.778-2.723l.761.6a3.56,3.56,0,0,0-.484-3.481c.7-.021,1.145.8,1.145.8a1.912,1.912,0,0,0-.962-2.494,1.052,1.052,0,0,1,1.618.111,2.148,2.148,0,0,0-1.516-2.094l.854-.264a2.627,2.627,0,0,0-3.429-.553.967.967,0,0,0,.128-.991s-.221.6-1.421.69c-1.072.082-1.188.785-1.188.785a1.814,1.814,0,0,1,1.081-.075,7.339,7.339,0,0,0-1.574.422c-.444.259-.309.384-.843.5a5.068,5.068,0,0,0-1.05.3c-.077.067-.1.149-.016.459l.615-.269s-.222.586-.69.455c0,0-.258.621.184.722.033.1.108.286.226.307a.315.315,0,0,1,.114-.315,1.527,1.527,0,0,0,.656-.123c.471-.182,1.628-.625,1.225.753,0,0-.383-.71-1.853-.238" transform="translate(-378.876 -344.868)" fill="red"/><path d="M647.529,893.869a1.4,1.4,0,0,0-.229.061c.006.049.015.1.024.147l.364,1.789c.01.049.021.1.034.145a1.993,1.993,0,0,0,.306-.039.947.947,0,0,0,.816-1.236,1.006,1.006,0,0,0-1.315-.868" transform="translate(-612.503 -845.79)" fill="#0032a0"/><path d="M592.479,904.13c-.02.069-.041.133-.058.18l-.341.986.829-.008-.368-.979c-.018-.047-.039-.111-.062-.179" transform="translate(-560.252 -855.527)" fill="#0032a0"/><path d="M334.376,798.113a1.7,1.7,0,0,0-.145-.523l-.2-.465-1.2-.937a2.557,2.557,0,0,0-.516-.332l.743-.326a1.015,1.015,0,0,0,.288.314l.526.407c.115.1.224.185.309.263,0-.087,0-.187.009-.31l.057-.765a.842.842,0,0,0-.037-.415l.591-.261a3.347,3.347,0,0,0-.12.677l-.128,1.4.225.512a1.7,1.7,0,0,0,.287.461Zm-3.354,1.01a8.886,8.886,0,0,1-.946.135,1.332,1.332,0,0,0-.031-.545l-.359-1.766a1.415,1.415,0,0,0-.183-.51c.166-.033.586-.171.971-.249a1.434,1.434,0,0,1,1.9,1.094c.2,1.007-.315,1.628-1.356,1.84m-2.589.3a1.393,1.393,0,0,0-.094-.5l-.075-.2-1.129.011-.067.2a1.417,1.417,0,0,0-.089.51l-.7.007a2.657,2.657,0,0,0,.331-.661l.613-1.634c.128-.347.156-.5.121-.612l.538,0a.176.176,0,0,1,.161.108l.882,2.124a4.137,4.137,0,0,0,.33.651Zm-2.728-2.394a1.648,1.648,0,0,0-.654-.237l-.534-.1c-.008.034-.016.069-.023.1l-.107.581.842.161a.053.053,0,0,1,.041.062l-.082.435a1.927,1.927,0,0,0-.606-.189l-.274-.054-.152.8c-.006.034-.012.07-.017.1l.48.091a2.078,2.078,0,0,0,.832.018l-.19.542-1.129-.215-.26-.049-.484-.092a1.647,1.647,0,0,0,.176-.51l.339-1.794a1.671,1.671,0,0,0,.023-.537l1.877.355Zm-3-.172a.837.837,0,0,1-.9.4c.059.641.278,1.306.548,1.416a.537.537,0,0,1-.538.051.946.946,0,0,1-.459-.576,3.754,3.754,0,0,1-.167-1.313.054.054,0,0,1,.026-.041.054.054,0,0,1,.048,0c.288.119.662.188.826-.173a.536.536,0,0,0-.315-.752.986.986,0,0,0-.277-.09c-.024.044-.047.089-.067.135l-.753,1.667a1.671,1.671,0,0,0-.15.521l-.687-.311a1.688,1.688,0,0,0,.292-.457l.753-1.666a1.644,1.644,0,0,0,.147-.513c.322.129.549.192.86.333.583.263,1.129.741.806,1.376m19.759-3.885a17.94,17.94,0,0,0-4.212-1.887.4.4,0,0,0-.409.094,15.612,15.612,0,0,1-10.372,4.306h-.047a15.611,15.611,0,0,1-10.371-4.306.4.4,0,0,0-.41-.094,18,18,0,0,0-4.212,1.887.4.4,0,0,0-.107.591,19.567,19.567,0,0,0,15.115,6.988h.013a19.544,19.544,0,0,0,15.115-6.988.4.4,0,0,0-.107-.591" transform="translate(-295.449 -748.534)" fill="#0032a0"/><path d="M164.16,267.6a8.251,8.251,0,0,1-2.8-.269.113.113,0,0,1-.057-.176c.37-.552.695-1.29.019-1.8a1.126,1.126,0,0,0-1.7.306,2.545,2.545,0,0,0-.315.538c.079.072.17.141.255.2q1.553,1.172,3.1,2.35a3.413,3.413,0,0,0,1.006.552q-.473.651-.928,1.313a3.765,3.765,0,0,0-.812-.826l-3.1-2.352a3.594,3.594,0,0,0-1-.545c.4-.627.624-1.078,1.058-1.67.8-1.1,2.09-1.984,3.257-1.01a1.76,1.76,0,0,1,.376,2.057c1.366.193,2.872.094,3.251-.426a1.04,1.04,0,0,1-.173,1.088,2.1,2.1,0,0,1-1.44.67" transform="translate(-149.346 -249.61)" fill="#0032a0"/><path d="M298.852,165.177q-.906-.666-1.807-1.323c-.083-.061-.2-.154-.313-.246.042.142.077.289.1.39q.273,1.079.554,2.17.716-.521,1.464-.99m-2.049,2.709q-.441-1.87-.86-3.709c-.182-.784-.313-1.09-.5-1.248q.467-.337.949-.65a.376.376,0,0,1,.422.012q2.039,1.4,4.115,2.859a11.07,11.07,0,0,0,1.4.841q-.8.394-1.558.84a3.173,3.173,0,0,0-.753-.795l-.376-.277q-1.035.629-2.007,1.355c.039.143.078.287.117.43a3.072,3.072,0,0,0,.44,1.026q-.591.453-1.154.942a6.423,6.423,0,0,0-.228-1.63" transform="translate(-279.558 -153.5)" fill="#0032a0"/><path d="M418.866,90.74c-.315-1.258-.645-2.532-.968-3.788a3.172,3.172,0,0,0-.449-1.039q.581-.219,1.17-.413a.364.364,0,0,1,.323.045c1.121.887,2.258,1.839,3.382,2.819.149.123.449.379.631.562-.054-.161-.133-.453-.167-.6-.2-.852-.389-1.677-.591-2.527a3.635,3.635,0,0,0-.439-1.075q.652-.133,1.309-.235a3.282,3.282,0,0,0,.091,1.141c.3,1.271.578,2.516.868,3.79a3.625,3.625,0,0,0,.421,1.1q-.605.086-1.207.2a.23.23,0,0,1-.2-.054c-1.183-1.064-2.384-2.092-3.568-3.05a5.893,5.893,0,0,1-.552-.452,5.535,5.535,0,0,1,.2.645c.215.86.442,1.743.655,2.607a3.642,3.642,0,0,0,.425,1.068q-.616.195-1.22.419a3.6,3.6,0,0,0-.118-1.172" transform="translate(-395.009 -79.948)" fill="#0032a0"/><path d="M574.525,82.18A3.248,3.248,0,0,1,578.3,79.29a3.433,3.433,0,0,1,1.825.738q-.075.622-.152,1.242a3.171,3.171,0,0,0-1.918-1.058,1.9,1.9,0,0,0-2.2,1.878,2.142,2.142,0,0,0,1.863,2.591,2.774,2.774,0,0,0,1.126-.108q.084-.691.169-1.383l-.184-.026a3.689,3.689,0,0,0-1.236,0q.054-.469.114-.938a.108.108,0,0,1,.038-.076.107.107,0,0,1,.081-.025q1.213.154,2.426.341-.21,1.714-.419,3.429-.322-.183-.651-.364a.365.365,0,0,0-.254-.027,4.894,4.894,0,0,1-1.585.075,2.974,2.974,0,0,1-2.812-3.395" transform="translate(-543.615 -74.997)" fill="#0032a0"/><path d="M712.289,109.655q.74-1.8,1.481-3.6a3.6,3.6,0,0,0,.282-1.1,27,27,0,0,1,3.768,1.541l-.437,1.062a3.271,3.271,0,0,0-1.24-.841q-.532-.231-1.072-.438a2.012,2.012,0,0,0-.1.209l-.481,1.169q.855.326,1.686.711a.116.116,0,0,1,.064.146l-.359.874a3.706,3.706,0,0,0-1.183-.681c-.183-.075-.366-.147-.551-.218l-.659,1.6-.087.215q.491.187.975.394a5.264,5.264,0,0,0,1.7.47l-.626,1.035a27.023,27.023,0,0,0-3.754-1.529,3.883,3.883,0,0,0,.588-1.013" transform="translate(-673.441 -99.308)" fill="#0032a0"/><path d="M814.889,174.175a8.247,8.247,0,0,1,.323-2.8.114.114,0,0,1,.177-.054c.543.38,1.277.719,1.8.054a1.127,1.127,0,0,0-.273-1.708,2.537,2.537,0,0,0-.53-.326c-.072.078-.144.168-.209.251l-2.412,3.058a3.4,3.4,0,0,0-.572,1q-.641-.484-1.295-.952a3.772,3.772,0,0,0,.842-.8l2.415-3.056a3.646,3.646,0,0,0,.566-.986c.619.412,1.065.645,1.648,1.09,1.082.824,1.943,2.129.948,3.279a1.762,1.762,0,0,1-2.064.336c-.22,1.362-.149,2.87.364,3.259a1.039,1.039,0,0,1-1.083-.195,2.109,2.109,0,0,1-.645-1.451" transform="translate(-768.255 -158.836)" fill="#0032a0"/><path d="M911.242,288.642l1.075-.745a3.166,3.166,0,0,0,.419,2.138c.327.472.734.533,1.083.291,1.044-.725-.839-2.836.806-3.978.973-.673,2.09-.148,2.809.89a3.414,3.414,0,0,1,.584,1.369l-1.021.709a2.806,2.806,0,0,0-.395-1.714c-.306-.442-.7-.578-1.042-.341-.95.659.938,2.778-.806,3.985-.988.684-2.087.276-2.842-.813a3.694,3.694,0,0,1-.672-1.791" transform="translate(-862.255 -270.671)" fill="#0032a0"/><path d="M106.278,699.318l3.11-1.04a2.9,2.9,0,0,0,.865-.439l1.089,3.258-.917.307a3.03,3.03,0,0,0-.2-1.236l-.31-.931-.184.063-1.008.337.488,1.46a.092.092,0,0,1-.054.12l-.753.252a3.6,3.6,0,0,0-.241-1.119l-.158-.472-1.383.462a2.9,2.9,0,0,0-.872.44l-.43-1.29a2.9,2.9,0,0,0,.961-.172" transform="translate(-99.658 -660.327)" fill="#0032a0"/><path d="M156.505,788.351a1.838,1.838,0,0,0,.766-2.568,1.625,1.625,0,0,0-2.36-.442,1.842,1.842,0,0,0-.753,2.58,1.631,1.631,0,0,0,2.346.43m-2.335-3.845a2.71,2.71,0,0,1,3.854,1,2.535,2.535,0,0,1-.791,3.692,2.677,2.677,0,0,1-3.833-.991,2.539,2.539,0,0,1,.77-3.7" transform="translate(-144.7 -741.923)" fill="#0032a0"/><path d="M231.557,881.31a1.838,1.838,0,0,0,.077-2.679,1.624,1.624,0,0,0-2.394.182,1.838,1.838,0,0,0-.061,2.684,1.632,1.632,0,0,0,2.378-.187m-3.248-3.113a2.706,2.706,0,0,1,3.978-.032,2.535,2.535,0,0,1,.189,3.771,2.677,2.677,0,0,1-3.959.031,2.539,2.539,0,0,1-.21-3.77" transform="translate(-215.332 -830.15)" fill="#0032a0"/><path d="M329.813,933.906l1.652-2.833c.033-.058.058-.113.091-.17l-.341-.2a3.092,3.092,0,0,0-1.168-.449l.485-.835,3.751,2.188-.487.835a3.241,3.241,0,0,0-.968-.795l-.34-.2a1.568,1.568,0,0,0-.1.161l-1.652,2.832a2.885,2.885,0,0,0-.364.906l-1.169-.682a3.136,3.136,0,0,0,.609-.764" transform="translate(-311.503 -879.458)" fill="#0032a0"/><path d="M419.469,982.726c.191-.641-.319-1.064-1.04-1.3a.054.054,0,0,1-.04-.074l.147-.491a.058.058,0,0,1,.028-.036.056.056,0,0,1,.045,0,.849.849,0,0,0,1.129-.579c.138-.463-.147-.86-.717-1.029a.891.891,0,0,0-.314-.039l-1.2,4.019a2.541,2.541,0,0,0,.453.2,1.1,1.1,0,0,0,1.508-.66m-3.27.608a2.484,2.484,0,0,0,.414-.893l.923-3.093a2.609,2.609,0,0,0,.141-.968c.6.158,1,.206,1.408.327,1.1.327,2.01.856,1.7,1.9a1.1,1.1,0,0,1-1.23.766,1.44,1.44,0,0,1,.991,1.646c-.408,1.368-1.83,1.167-2.607.937a17.557,17.557,0,0,1-1.74-.62" transform="translate(-393.827 -925.786)" fill="#0032a0"/><path d="M516.223,1006.894l-.533-1.8c-.024-.083-.054-.2-.083-.323-.045.117-.1.233-.132.312l-.735,1.72Zm-2.747.674,1.313-2.843c.278-.609.347-.88.3-1.084l.968.062a.314.314,0,0,1,.277.219l1.3,3.92a7.8,7.8,0,0,0,.511,1.21l-1.484-.094a2.639,2.639,0,0,0-.1-.908l-.111-.372-2.034-.13-.141.341a2.524,2.524,0,0,0-.228.9l-1.249-.077a4.655,4.655,0,0,0,.676-1.142" transform="translate(-485.234 -949.688)" fill="#0032a0"/><path d="M627.544,1005.85l-.484-3.243a3.1,3.1,0,0,0-.281-.928l1.338-.2a2.917,2.917,0,0,0,0,.968l.484,3.243a1.671,1.671,0,0,0,.035.189l.773-.114a3.884,3.884,0,0,0,1.427-.46l0,1.031-3.288.49a3.158,3.158,0,0,0,0-.977" transform="translate(-593.086 -947.644)" fill="#0032a0"/><path d="M707.615,987.118l-1.108-3.086a3.122,3.122,0,0,0-.457-.855l1.273-.457a2.978,2.978,0,0,0,.192.951l1.108,3.085a1.556,1.556,0,0,0,.072.179l.734-.264a3.785,3.785,0,0,0,1.31-.73l.2,1.011-3.128,1.123a3.107,3.107,0,0,0-.193-.958" transform="translate(-668.095 -929.892)" fill="#0032a0"/><path d="M812.685,919.926a2.662,2.662,0,0,1,.763-3.9,2.812,2.812,0,0,1,1.326-.525l.6.869a2.5,2.5,0,0,0-1.613.387,1.628,1.628,0,0,0-.276,2.393,1.8,1.8,0,0,0,2.58.615,2.037,2.037,0,0,0,.849-1.442l.6.876a3.4,3.4,0,0,1-1.183,1.338,2.437,2.437,0,0,1-3.651-.61" transform="translate(-768.485 -866.286)" fill="#0032a0"/><path d="M876.491,883.262l-2.386-2.251a3.119,3.119,0,0,0-.8-.555l.928-.985a2.9,2.9,0,0,0,.6.761l2.387,2.249a1.851,1.851,0,0,0,.145.127l.538-.568a3.846,3.846,0,0,0,.837-1.246l.633.813-2.279,2.419a3.118,3.118,0,0,0-.609-.764" transform="translate(-826.364 -832.193)" fill="#0032a0"/><path d="M925.393,778.752l-1.762-1.08a2.9,2.9,0,0,0-.891-.381l.706-1.154a3.109,3.109,0,0,0,.744.622L925.9,777.8c.633.388,1.4.729,1.93-.134s-.069-1.48-.7-1.869l-1.7-1.045a2.961,2.961,0,0,0-.89-.382l.579-.944a3.1,3.1,0,0,0,.748.615l1.76,1.082c.958.586,1.723,1.5.818,2.977a1.956,1.956,0,0,1-3.04.648" transform="translate(-873.136 -731.853)" fill="#0032a0"/><path d="M978.7,699.055c-.636-.207-1.072.294-1.326,1.008a.055.055,0,0,1-.028.038.054.054,0,0,1-.047,0l-.488-.161a.058.058,0,0,1-.038-.074.846.846,0,0,0-.553-1.141c-.46-.148-.86.127-1.045.693a.9.9,0,0,0-.047.314l3.99,1.29a2.638,2.638,0,0,0,.208-.448,1.1,1.1,0,0,0-.625-1.524m.532,3.282a2.537,2.537,0,0,0-.883-.434l-3.07-.995a2.63,2.63,0,0,0-.963-.164c.171-.6.229-1,.359-1.4.353-1.089.9-1.989,1.935-1.655a1.1,1.1,0,0,1,.737,1.247,1.439,1.439,0,0,1,1.667-.953c1.358.44,1.125,1.858.875,2.629a17.579,17.579,0,0,1-.66,1.724" transform="translate(-921.944 -660.115)" fill="#0032a0"/><path d="M241.183,678.058a15.3,15.3,0,0,1-2.991-6.228.19.19,0,0,1,.147-.2c1.078-.3,4.128-1.062,5.392-1.226a.188.188,0,0,1,.209.144,17.394,17.394,0,0,0,2,5.128.19.19,0,0,1-.1.28,16.346,16.346,0,0,0-4.417,2.124.182.182,0,0,1-.239-.017" transform="translate(-225.386 -634.36)" fill="#0032a0"/><path d="M229.582,519.679a.22.22,0,0,0-.184-.249c-1.95-.328-3.951-.86-5.376-1.225a.206.206,0,0,0-.247.128,9.367,9.367,0,0,0-.317,1.575,18.232,18.232,0,0,0,.313,6.533.207.207,0,0,0,.247.128c1.424-.363,3.425-.9,5.376-1.225a.221.221,0,0,0,.185-.249,21.368,21.368,0,0,1-.176-2.708h0a21.385,21.385,0,0,1,.176-2.709" transform="translate(-211.305 -490.342)" fill="#0032a0"/><path d="M812.124,378.41a15.3,15.3,0,0,1,2.991,6.228.189.189,0,0,1-.147.2c-1.075.3-4.128,1.062-5.392,1.226a.188.188,0,0,1-.209-.144,17.4,17.4,0,0,0-2-5.128.19.19,0,0,1,.1-.28,16.435,16.435,0,0,0,4.417-2.124.182.182,0,0,1,.239.017" transform="translate(-763.938 -358.017)" fill="#0032a0"/><path d="M812.184,678.057a15.3,15.3,0,0,0,2.991-6.228.19.19,0,0,0-.147-.2c-1.078-.3-4.128-1.062-5.392-1.226a.188.188,0,0,0-.209.144,17.4,17.4,0,0,1-2,5.128.191.191,0,0,0,.1.28,16.321,16.321,0,0,1,4.417,2.124.182.182,0,0,0,.239-.017" transform="translate(-763.995 -634.359)" fill="#0032a0"/><path d="M850.28,519.679a.22.22,0,0,1,.185-.249c1.951-.328,3.951-.86,5.376-1.225a.205.205,0,0,1,.246.128,9.332,9.332,0,0,1,.317,1.575,18.218,18.218,0,0,1-.313,6.534.206.206,0,0,1-.246.128c-1.424-.363-3.425-.9-5.376-1.225a.22.22,0,0,1-.185-.249,21.305,21.305,0,0,0,.176-2.708h0a21.427,21.427,0,0,0-.176-2.709" transform="translate(-804.569 -490.342)" fill="#0032a0"/></svg>