<svg width="64" height="64" viewBox="0 0 64 64" fill="none" xmlns="http://www.w3.org/2000/svg">
<g clip-path="url(#clip0_40_31813)">
<mask id="mask0_40_31813" style="mask-type:luminance" maskUnits="userSpaceOnUse" x="0" y="0" width="64" height="64">
<path d="M64 0H0V64H64V0Z" fill="white"/>
</mask>
<g mask="url(#mask0_40_31813)">
<path d="M64 32C64 49.6726 49.6728 64 32 64C14.3272 64 0 49.6711 0 32C0 14.3289 14.3272 0 32 0C49.6728 0 64 14.3272 64 32Z" fill="white"/>
<path d="M31.9895 2.71371C15.8071 2.71371 2.68756 15.8314 2.68756 32.0137C2.68756 48.196 15.8042 61.3137 31.9876 61.3137C48.1709 61.3137 61.2876 48.197 61.2876 32.0164C61.2876 15.8357 48.1713 2.71904 31.9876 2.71904M62.6431 32.019C62.6431 48.9524 48.918 62.6746 31.9876 62.6746C15.0571 62.6746 1.33423 48.9444 1.33423 32.0137C1.33423 15.083 15.0589 1.35815 31.9898 1.35815C48.9207 1.35815 62.6453 15.0833 62.6453 32.0137" fill="#0032A0"/>
<path d="M15.7997 20.3931C14.3236 22.1134 13.0457 25.0598 12.8081 26.6214C12.8037 26.6674 12.8163 26.7134 12.8434 26.7508C12.8705 26.7882 12.9104 26.8145 12.9554 26.8246C14.0332 27.1229 17.0834 27.8863 18.3472 28.0503C18.3938 28.0565 18.441 28.0452 18.4797 28.0185C18.5184 27.9918 18.5457 27.9516 18.5563 27.9058C19.0493 25.6335 19.9707 23.728 20.5577 22.7779C20.5727 22.7535 20.5819 22.726 20.5848 22.6975C20.5877 22.6689 20.5841 22.6401 20.5743 22.6132C20.5644 22.5863 20.5487 22.5619 20.5281 22.5419C20.5076 22.522 20.4828 22.5069 20.4556 22.4978C17.8436 21.6366 16.4496 20.6615 16.0389 20.3734C16.0037 20.3467 15.9601 20.3337 15.916 20.3369C15.872 20.3401 15.8306 20.3592 15.7997 20.3906" fill="#0032A0"/>
<path d="M32.0089 17.1684C37.749 17.1684 41.8577 20.9233 42.5183 21.5845C42.5488 21.6149 42.5869 21.6365 42.6287 21.6469C42.6705 21.6574 42.7143 21.6562 42.7554 21.6436C43.3277 21.4685 43.8902 21.263 44.4407 21.028C44.476 21.0141 44.5074 20.9919 44.5323 20.9632C44.5572 20.9345 44.5748 20.9002 44.5836 20.8633C44.5924 20.8263 44.5922 20.7878 44.5829 20.751C44.5737 20.7141 44.5557 20.6801 44.5304 20.6517C43.5504 19.5279 39.3014 15.1057 32.0169 15.1057H31.9798C24.6952 15.1057 20.4473 19.5267 19.4663 20.6523C19.4412 20.6807 19.4233 20.7148 19.4141 20.7516C19.405 20.7884 19.4048 20.8268 19.4136 20.8637C19.4224 20.9006 19.4399 20.9349 19.4647 20.9636C19.4895 20.9923 19.5209 21.0146 19.5561 21.0286C20.1069 21.2635 20.6698 21.469 21.2424 21.6442C21.2835 21.6567 21.3272 21.6577 21.3689 21.6473C21.4106 21.6369 21.4486 21.6154 21.479 21.585C22.1402 20.9238 26.2478 17.1689 31.9879 17.1689L32.0089 17.1684Z" fill="#0032A0"/>
<path d="M32.019 45.8867C37.5807 45.8867 41.6721 42.0496 42.2462 41.2098C42.2462 41.2098 44.847 37.6823 44.847 32.0401C44.847 26.3978 42.2458 22.9014 42.2458 22.9014C41.7834 22.1526 37.5802 18.2246 32.0185 18.2246H31.9777C26.416 18.2246 22.2122 22.1488 21.7504 22.9014C21.7504 22.9014 19.1497 26.3956 19.1497 32.0401C19.1497 37.6845 21.7504 41.2098 21.7504 41.2098C22.3251 42.0479 26.416 45.8867 31.9777 45.8867H32.019Z" fill="#0032A0"/>
<path d="M32.0191 14.0462C40.2261 14.0462 44.8352 19.3198 45.626 20.297C45.6606 20.3394 45.7088 20.3685 45.7625 20.3796C45.8161 20.3907 45.8719 20.383 45.9205 20.3578C46.3753 20.1218 46.8158 19.8594 47.2398 19.5719C47.2668 19.5543 47.2899 19.5313 47.3076 19.5044C47.3253 19.4775 47.3372 19.4471 47.3425 19.4153C47.3479 19.3836 47.3466 19.351 47.3387 19.3197C47.3308 19.2885 47.3165 19.2592 47.2968 19.2338C46.1285 17.8602 41.1239 12.0201 32.0007 12.0201H31.9964C29.0699 12.0034 26.1768 12.6426 23.5298 13.891C20.8828 15.1393 18.5492 16.9649 16.7005 19.2337C16.681 19.2592 16.6669 19.2885 16.6591 19.3197C16.6514 19.3509 16.6501 19.3834 16.6555 19.4151C16.6608 19.4468 16.6726 19.4771 16.6902 19.504C16.7078 19.531 16.7307 19.5541 16.7575 19.5718C17.1815 19.8593 17.622 20.1217 18.0768 20.3577C18.1253 20.3828 18.181 20.3905 18.2345 20.3794C18.2881 20.3684 18.3362 20.3392 18.3708 20.2969C19.1621 19.3191 23.7707 14.0461 31.9782 14.0461L32.0191 14.0462Z" fill="#0032A0"/>
<path d="M30.3951 22.2123C30.3951 22.2123 30.0688 22.243 30.0113 21.7924C30.4207 21.6421 30.861 21.5954 31.2929 21.6564C31.2929 21.6564 30.6118 21.839 30.3951 22.2123ZM28.5985 23.9699C27.1632 24.4296 26.9418 23.4032 27.2659 23.077C27.1694 23.0957 27.0785 23.1364 27.0003 23.196C26.9222 23.2556 26.8588 23.3324 26.8152 23.4205C26.7716 23.5086 26.7489 23.6055 26.749 23.7038C26.749 23.8021 26.7718 23.8991 26.8154 23.9871C27.3659 25.0084 29.2265 23.5033 29.7721 24.3634L30.2919 24.6746L29.8505 24.5429C29.5394 24.4779 29.091 24.3843 28.7018 24.5096L28.4518 24.3214C28.4265 24.4292 28.4147 24.5397 28.4168 24.6504H28.4205C27.8614 25.1423 28.5109 25.6579 28.5109 25.6579C28.4836 25.5698 28.4797 25.4761 28.4995 25.3861C28.5193 25.296 28.5621 25.2126 28.6238 25.144C28.6238 25.144 28.4861 25.8009 29.1829 26.2041C29.1829 26.2041 28.7775 25.3177 29.3441 25.2226C29.5591 25.1876 29.6511 25.3448 29.9408 25.4548C30.4245 25.63 30.6766 25.2333 30.6821 25.6516C30.687 25.9709 30.6031 26.1037 30.3265 26.4106C30.0908 26.6458 29.8126 26.8343 29.5068 26.9661C28.9208 27.2064 28.1419 27.4364 27.9091 26.7511C27.9091 26.7511 27.3248 27.2167 27.7322 27.5574C27.7322 27.5574 26.3345 26.7797 26.1023 26.5458C25.8701 26.3119 25.9588 25.8298 25.5443 25.7184C25.5443 25.7184 25.5233 25.0534 25.2221 24.7686C25.2221 24.7686 25.5086 23.3671 24.4453 23.2999C24.4453 23.2999 24.7088 23.6762 24.5146 23.8982C24.3205 24.1202 24.4453 24.288 24.6088 24.6551C24.6088 24.6551 24.2701 24.4202 24.1894 24.095C24.1088 23.7698 24.0534 23.5622 23.7126 23.5682C23.7126 23.5682 23.2192 23.0231 22.7063 23.6838C22.7063 23.6838 23.1901 23.5633 23.202 23.9783C23.2139 24.3933 23.6858 24.8879 23.8909 25.039C23.8909 25.039 23.0216 24.6584 22.5373 24.9697C22.5373 24.9697 21.9314 24.8816 21.8675 25.5954C21.9009 25.5707 22.3513 25.2348 22.4835 25.451C22.6158 25.6672 22.7131 25.7268 23.0539 25.7548C23.3946 25.7828 23.8731 26.077 23.936 26.477C23.936 26.477 22.9656 26.3023 22.8866 26.7992C22.8057 26.8589 22.7089 26.8934 22.6085 26.8986C22.5081 26.9037 22.4083 26.8793 22.3216 26.8282C22.3216 26.8282 22.5184 27.7857 24.5439 27.2453C24.5439 27.2453 25.9635 27.655 24.4842 28.1624C24.4842 28.1624 25.7915 28.2069 26.6543 29.5703C27.1381 29.5166 29.6775 27.7124 29.6775 27.7124C29.6775 27.7124 28.3449 29.5939 26.4386 30.1697C24.0986 30.8766 22.9482 29.4171 22.3942 29.9687C22.3942 29.9687 21.5551 30.0111 21.5239 30.6917C21.5239 30.6917 22.0006 30.3047 22.1394 30.5648C22.2974 30.8588 23.0388 30.8233 23.4215 30.7857C23.4215 30.7857 22.1959 31.0093 22.1475 31.5382C22.1475 31.5382 21.4626 31.9726 21.7406 32.5726C21.7406 32.5726 21.96 32.1597 22.3008 32.1623C22.6415 32.165 22.8921 32.1263 23.3598 31.6734C23.3598 31.6734 22.4765 32.9281 23.0375 33.5549C23.0567 33.4152 23.1225 33.2861 23.2243 33.1885C23.326 33.0909 23.4578 33.0306 23.5982 33.0173C24.0196 32.9592 23.5896 32.1449 24.6599 32.2373C24.6633 32.4962 24.6043 32.7522 24.4879 32.9834C24.4879 32.9834 24.7518 33.2098 24.1508 33.5032C24.1508 33.5032 24.9539 33.7209 25.3872 32.8501C25.5226 32.577 25.8329 31.2003 26.8601 32.4802C26.8601 32.4802 27.2073 31.5163 28.6169 31.3019C29.8613 31.1121 29.0303 32.2658 28.4959 32.5522C28.4959 32.5522 31.2514 32.3168 31.5761 36.7411C31.5761 36.7411 31.3965 34.8838 30.1994 33.8581C29.3162 33.1018 27.7208 32.7986 26.0494 34.0193C26.0494 34.0193 27.059 33.9898 26.7311 34.9552C26.3801 35.9894 28.1551 37.1414 27.1074 37.4344C25.8662 37.7828 24.7862 34.8337 23.8143 36.0455C23.8143 36.0455 24.389 35.9262 24.6744 36.4026C24.6744 36.4026 23.6702 35.801 23.2095 36.8977C23.2348 36.8896 23.9412 36.5074 24.4846 37.1729C24.4846 37.1729 23.1402 36.4794 22.7919 37.9254C22.7919 37.9254 23.2279 37.5032 23.6396 37.8179C23.8601 37.9867 24.2713 37.6196 24.6933 38.0227C24.6933 38.0227 23.3489 37.705 23.2644 39.0494C23.2644 39.0494 23.759 38.521 24.5439 39.0182C25.4491 39.5912 26.0345 38.9193 26.0345 38.9193L25.7711 39.6768C25.7711 39.6768 26.9538 39.0559 27.7256 39.2817C28.7201 39.573 29.1911 39.5203 29.2846 38.6737C29.7684 38.3947 30.119 39.0667 30.119 39.0667C30.2319 38.112 29.5051 38.0399 29.3062 37.9168C28.984 37.7184 30.0555 37.3723 30.0555 37.3723C29.8009 37.2923 29.5554 37.1858 29.3229 37.0547C28.3074 36.4747 28.9622 35.5312 29.9621 36.1629C30.4928 36.4909 31.0055 36.8473 31.4979 37.2304C31.1756 37.4992 30.8791 38.3378 31.2194 39.0393C31.2194 39.0393 31.4979 37.997 31.9108 38.8329L31.9134 38.8291C32.3434 39.564 32.9531 40.1096 34.4045 40.866C35.2146 41.2882 33.8852 42.4889 32.3989 41.6826C31.1995 41.0332 30.8749 42.1432 30.8749 42.1432C30.8749 42.1432 31.3899 41.7669 31.756 42.0266C31.756 42.0266 30.6765 41.9674 30.5733 43.2458C30.6148 43.221 30.8099 42.8077 31.141 42.9013C31.141 42.9013 31.5619 42.2321 32.0736 42.5852C32.0736 42.5852 31.0523 42.4638 30.9378 44.2157C30.9378 44.2157 31.3001 43.5959 31.7312 43.6404C31.7312 43.6404 32 42.7265 32.7423 43.2055C32.7423 43.2055 31.8312 42.7911 31.7913 44.6511C31.7913 44.6511 32.1375 44.0151 32.5181 44.142C32.8556 44.256 34.019 44.6597 35.2661 43.3728H35.9112C35.9112 43.3728 36.0816 42.2326 36.6503 41.8461C36.7297 41.7956 36.8166 41.7579 36.9078 41.7343C36.9808 41.7189 37.0558 41.7151 37.13 41.7232C37.2114 41.7418 37.2875 41.7789 37.3523 41.8317C37.4171 41.8844 37.4688 41.9514 37.5035 42.0274C37.5035 42.0274 37.6514 41.4286 37.1073 40.7163C37.868 40.2637 37.8314 39.5482 37.8314 39.5482C37.1928 40.1686 36.1472 39.9653 35.6505 39.7547C35.1283 39.5187 34.5362 39.0364 35.1748 38.1564C36.1095 36.8663 35.9468 35.7231 35.9618 35.4342C36.2019 35.8626 36.2962 36.3575 36.2305 36.8442C36.2305 36.8442 37.2906 37.7947 39.1785 37.3598C40.1752 37.1153 40.623 38.4538 39.8585 38.982C39.106 39.5034 38.4974 38.6987 38.4974 38.6987C38.8931 39.7394 40.4863 39.832 41.0315 38.7277C41.5551 37.6628 40.68 36.7468 40.3472 36.561C41.2719 35.3999 41.4439 33.807 39.9472 31.3466L39.7408 31.0068C39.2909 30.1306 40.431 29.4317 41.0573 30.0563C41.6599 30.6563 41.0289 31.3464 41.0289 31.3464C42.0072 30.7873 41.7278 29.1962 40.6273 28.8881C40.3028 28.7855 39.9535 28.7932 39.6338 28.9099C39.314 29.0266 39.0419 29.2457 38.8598 29.5332C38.5696 29.0527 38.3192 28.5493 38.111 28.028C37.9191 27.3916 38.7561 27.1018 39.0646 27.592C39.3544 28.0559 38.8593 28.3946 38.8593 28.3946C39.5528 28.187 39.6081 27.1501 38.9669 26.7969C38.8163 26.7079 38.6449 26.6603 38.47 26.6588C38.2951 26.6573 38.1229 26.702 37.9708 26.7883C38.0174 26.4984 38.1415 26.2265 38.3299 26.0013C38.4911 25.8051 38.6276 25.7449 38.7599 25.8124C39.2103 26.0473 39.6071 26.1049 39.9393 25.9844C40.1915 25.8905 40.3971 25.7021 40.5129 25.4592L40.5489 25.3743L40.4742 25.4281C40.387 25.4993 40.2839 25.5485 40.1737 25.5716C40.0634 25.5946 39.9493 25.5907 39.8409 25.5603C39.7625 25.5369 39.6885 25.5005 39.6221 25.4528C39.8302 25.4258 40.03 25.3542 40.2079 25.2428C40.3857 25.1315 40.5374 24.983 40.6526 24.8077C40.9166 24.3948 40.9445 23.8691 40.9214 23.5013C40.9071 23.2629 40.8692 23.0265 40.8085 22.7956L40.7871 22.7203L40.7608 22.794C40.5108 23.4859 40.0941 23.6358 39.612 23.8094C39.5076 23.8471 39.4009 23.8852 39.2932 23.9299C39.3814 23.8108 39.4407 23.6728 39.4661 23.5269C39.4916 23.3809 39.4827 23.231 39.44 23.0891C39.3967 22.9106 39.297 22.7508 39.1556 22.6336C39.1556 22.6336 39.2718 23.1173 38.731 23.6248C38.5696 23.7655 38.4243 23.9236 38.2976 24.0962C38.2142 24.2165 38.1578 24.3534 38.1323 24.4975C38.1068 24.6416 38.1128 24.7895 38.1499 24.9311C38.0312 25.0104 37.9168 25.0957 37.8069 25.1867C37.8069 25.1867 36.5168 26.1446 37.0989 28.2277C37.4211 29.3832 38.1363 30.3822 38.7544 31.4166C38.381 31.4115 38.0141 31.514 37.6974 31.7119C37.3807 31.9098 37.1277 32.1947 36.9686 32.5326C36.3655 33.7206 37.3062 35.265 38.6141 35.0591C38.6141 35.0591 37.2696 34.8248 37.5585 33.6196C37.8036 32.6041 39.3395 32.4272 39.7808 33.6883C40.5585 35.9139 37.903 37.3626 35.8001 34.5867C34.6136 33.02 32.4049 31.6929 33.5423 30.1577C34.318 31.3516 35.8001 30.6829 35.8001 30.6829C34.1223 29.7448 35.0216 27.9596 35.0216 27.9596L35.7823 28.5558C36.5045 26.326 35.2754 25.0756 35.2985 25.0744C35.9974 25.054 36.4435 25.8781 36.4435 25.8781C37.0131 23.9954 35.4798 23.3842 35.4798 23.3842C36.3936 22.5607 37.0973 23.4953 37.0973 23.4953C37.2005 21.8999 35.5814 21.4016 35.5814 21.4016L36.4356 21.1371C34.8955 19.3567 33.0071 20.584 33.0071 20.584C33.3834 20.0396 33.1355 19.5928 33.1355 19.5928C33.1355 19.5928 32.9145 20.1906 31.7148 20.2824C30.6429 20.3641 30.5259 21.0673 30.5259 21.0673C30.87 20.9328 31.247 20.9066 31.6064 20.9921C31.6064 20.9921 30.4114 21.1921 30.0319 21.4143C29.5884 21.6734 29.7228 21.7981 29.189 21.9191C28.6041 22.0513 28.1978 22.168 28.1385 22.2207C28.0616 22.2873 28.0402 22.3696 28.1224 22.6798L28.738 22.411C28.738 22.411 28.5158 22.9974 28.0483 22.8666C28.0483 22.8666 27.7909 23.488 28.2322 23.5888C28.2655 23.6914 28.3398 23.8748 28.4585 23.8962C28.4459 23.8382 28.45 23.7778 28.4701 23.722C28.4903 23.6662 28.5258 23.6172 28.5725 23.5807C28.7977 23.5885 29.0218 23.5465 29.2289 23.4576C29.7003 23.2759 30.8572 22.8323 30.454 24.2101C30.454 24.2101 30.0706 23.5006 28.601 23.972" fill="#FF0000"/>
<path d="M35.0257 48.0795C34.9478 48.0934 34.8712 48.1137 34.7967 48.1403C34.8031 48.1892 34.8112 48.2386 34.8209 48.2876L35.1848 50.0772C35.1945 50.1255 35.2063 50.1745 35.2193 50.2216C35.3223 50.2165 35.4247 50.2034 35.5257 50.1824C35.8284 50.1216 36.5347 49.9002 36.3411 48.9459C36.1713 48.1126 35.6144 47.9784 35.0257 48.0783" fill="#0032A0"/>
<path d="M32.2271 48.603C32.2067 48.6718 32.1857 48.7358 32.169 48.7826L31.8282 49.7685L32.6571 49.7605L32.2889 48.7821C32.2711 48.7348 32.2497 48.6709 32.2271 48.603Z" fill="#0032A0"/>
<path d="M38.9268 49.5791C38.9068 49.3982 38.8581 49.2216 38.7823 49.0561L38.5781 48.5917L37.3793 47.6541C37.2212 47.5233 37.0479 47.4119 36.8632 47.3224L37.6061 46.9961C37.6788 47.12 37.777 47.227 37.8942 47.31L38.4204 47.7174C38.5354 47.8131 38.6447 47.9023 38.7295 47.9803C38.7295 47.8932 38.7333 47.7928 38.7387 47.6701L38.7957 46.9051C38.8182 46.7659 38.8055 46.6233 38.7587 46.4903L39.35 46.2297C39.2867 46.4505 39.2463 46.6773 39.2295 46.9064L39.1017 48.3041L39.3263 48.8159C39.3967 48.9838 39.4936 49.1393 39.6133 49.2765L38.9268 49.5791ZM35.5723 50.5892C35.2598 50.6513 34.9442 50.6965 34.6268 50.7247C34.6541 50.543 34.6435 50.3576 34.5955 50.1802L34.237 48.4143C34.2095 48.2343 34.1475 48.0612 34.0542 47.9048C34.2198 47.8714 34.6402 47.7338 35.0251 47.6559C36.0013 47.4575 36.7421 47.8311 36.9287 48.7499C37.1334 49.7568 36.6142 50.3775 35.5723 50.5892ZM32.9829 50.8848C32.9825 50.7141 32.9508 50.5451 32.8893 50.3859L32.8147 50.1811L31.6858 50.1922L31.6191 50.389C31.5584 50.5519 31.5283 50.7247 31.5302 50.8985L30.8313 50.905C30.9719 50.7013 31.0834 50.4789 31.1624 50.2443L31.7752 48.611C31.9037 48.2638 31.9317 48.111 31.8967 47.9992L32.4342 47.9943C32.4687 47.9945 32.5023 48.0048 32.531 48.0239C32.5596 48.043 32.5821 48.0701 32.5954 48.1019L33.4771 50.2258C33.5678 50.4521 33.6782 50.6699 33.8072 50.8768L32.9829 50.8848ZM30.2548 48.491C30.056 48.3663 29.833 48.2855 29.6005 48.254L29.0662 48.1524C29.0581 48.1869 29.0501 48.2212 29.044 48.2557L28.9364 48.8368L29.7788 48.998C29.7923 49.001 29.8042 49.009 29.8119 49.0206C29.8196 49.0321 29.8226 49.0461 29.8202 49.0598L29.738 49.4947C29.5477 49.3987 29.3428 49.3348 29.1317 49.3058L28.858 49.252L28.7064 50.0498C28.7 50.0842 28.6941 50.1197 28.6892 50.1541L29.1692 50.2454C29.4424 50.3075 29.7252 50.3137 30.0009 50.2638L29.8111 50.8062L28.6822 50.5912L28.4225 50.5418L27.9388 50.4503C28.0252 50.2908 28.0848 50.1181 28.1151 49.9392L28.4543 48.1448C28.491 47.968 28.4988 47.7865 28.4774 47.6072L30.3547 47.9628L30.2548 48.491ZM27.2548 48.319C27.0709 48.6813 26.6725 48.7582 26.3565 48.7157C26.4151 49.3564 26.6343 50.022 26.9049 50.1317C26.8277 50.1867 26.7373 50.2204 26.6429 50.2293C26.5485 50.2382 26.4534 50.2219 26.3673 50.1822C26.2561 50.1218 26.1582 50.0396 26.0793 49.9407C26.0005 49.8417 25.9423 49.7279 25.9082 49.606C25.7753 49.1816 25.7188 48.7369 25.7415 48.2928C25.7424 48.2845 25.7451 48.2765 25.7496 48.2694C25.7541 48.2624 25.7601 48.2564 25.7673 48.2521C25.7744 48.2478 25.7825 48.2452 25.7908 48.2446C25.7991 48.2439 25.8075 48.2452 25.8152 48.2483C26.1033 48.3671 26.4775 48.4372 26.6409 48.0752C26.7903 47.7457 26.6479 47.4769 26.3259 47.3227C26.2385 47.2792 26.1452 47.2489 26.049 47.2329C26.0248 47.2773 26.0022 47.3218 25.9823 47.3678L25.2298 49.0344C25.1516 49.1987 25.1007 49.3747 25.0792 49.5553L24.3928 49.2442C24.514 49.1088 24.6125 48.9547 24.6847 48.7879L25.4372 47.1212C25.514 46.9593 25.5638 46.7859 25.5845 46.6079C25.9068 46.7374 26.1334 46.7998 26.4447 46.9412C27.0279 47.2047 27.5735 47.682 27.251 48.3173M47.0098 44.4323C45.3971 43.4239 44.0639 42.9669 42.7974 42.5454C42.7273 42.5218 42.652 42.5181 42.5798 42.5347C42.5077 42.5513 42.4416 42.5876 42.3889 42.6395C41.5333 43.4951 37.5728 46.9454 32.0171 46.9454H31.9698C26.4134 46.9454 22.4549 43.4948 21.5985 42.6395C21.5456 42.5875 21.4793 42.5512 21.407 42.5346C21.3347 42.518 21.2592 42.5217 21.1889 42.5454C19.9234 42.9669 18.5919 43.4239 16.9771 44.4323C16.9289 44.4621 16.8876 44.5017 16.8556 44.5485C16.8237 44.5954 16.802 44.6483 16.7919 44.7041C16.7817 44.7598 16.7834 44.8171 16.7968 44.8721C16.8102 44.9272 16.835 44.9788 16.8695 45.0237C18.0371 46.5237 23.1591 52.0125 31.9849 52.0125H31.9983C40.8268 52.0125 45.9465 46.5293 47.1137 45.0237C47.1483 44.9788 47.1732 44.9272 47.1866 44.8722C47.2001 44.8171 47.2018 44.7598 47.1916 44.7041C47.1815 44.6483 47.1598 44.5953 47.1278 44.5485C47.0959 44.5017 47.0544 44.4621 47.0062 44.4323" fill="#0032A0"/>
<path d="M14.8144 17.9864C13.8729 18.0577 12.9261 17.9668 12.0153 17.7176C11.9981 17.7122 11.9824 17.7027 11.9696 17.69C11.9567 17.6772 11.9471 17.6616 11.9415 17.6444C11.936 17.6272 11.9346 17.6089 11.9375 17.5911C11.9404 17.5732 11.9476 17.5563 11.9583 17.5418C12.3282 16.9903 12.6529 16.2517 11.9777 15.7383C11.3653 15.2754 10.7332 15.4383 10.2752 16.0447C10.1486 16.2103 10.0428 16.3908 9.96023 16.5823C10.0392 16.6537 10.1307 16.7232 10.215 16.787C11.25 17.5687 12.2844 18.3521 13.3183 19.1373C13.6202 19.3768 13.9605 19.5634 14.3247 19.6894C14.0096 20.1234 13.7003 20.561 13.3968 21.0022C13.1703 20.6865 12.8963 20.4078 12.5846 20.1759C11.5503 19.3914 10.5156 18.6075 9.48067 17.8241C9.17964 17.5907 8.8434 17.4067 8.48456 17.2789C8.88456 16.6516 9.10867 16.2006 9.54245 15.6093C10.3444 14.511 11.6326 13.6256 12.799 14.5992C13.4657 15.1486 13.428 16.0387 13.1753 16.6564C14.5413 16.8494 16.0476 16.7499 16.4266 16.23C16.5024 16.4093 16.5265 16.6063 16.4959 16.7985C16.4654 16.9908 16.3816 17.1706 16.254 17.3176C15.9809 17.6536 15.4756 17.9239 14.8139 17.9879" fill="#0032A0"/>
<path d="M19.2938 11.6765C18.6896 11.2325 18.0873 10.7913 17.487 10.353C17.4042 10.2922 17.2887 10.1992 17.1736 10.1068C17.216 10.2492 17.2504 10.3957 17.2751 10.497C17.4572 11.2166 17.6419 11.9399 17.8293 12.6667C18.3063 12.3194 18.7945 11.9893 19.2938 11.6765ZM17.245 14.3858C16.9508 13.139 16.6641 11.9026 16.3849 10.6766C16.2027 9.89279 16.072 9.58635 15.8818 9.4289C16.1929 9.20453 16.5091 8.9879 16.8306 8.77901C16.894 8.73876 16.9681 8.71842 17.0432 8.72062C17.1183 8.72282 17.191 8.74745 17.252 8.79135C18.6113 9.72312 19.9828 10.6761 21.3666 11.6501C21.7353 11.9017 22.3756 12.3216 22.7642 12.4915C22.2331 12.7541 21.7138 13.0342 21.2063 13.3317C21.0034 13.0252 20.7488 12.7564 20.4538 12.5371L20.0774 12.2593C19.3876 12.6787 18.7187 13.1305 18.0707 13.6149C18.1093 13.7579 18.1484 13.902 18.1879 14.0449C18.2706 14.411 18.4196 14.7588 18.6277 15.0711C18.2334 15.3733 17.8487 15.6874 17.4736 16.0135C17.4678 15.4625 17.3912 14.9145 17.2457 14.383" fill="#0032A0"/>
<path d="M23.8575 10.7918C23.5425 9.53333 23.2124 8.25933 22.8898 7.0041C22.8036 6.63381 22.6516 6.28203 22.4409 5.96555C22.828 5.81933 23.2181 5.6817 23.6113 5.55266C23.6648 5.5347 23.7218 5.52943 23.7777 5.53726C23.8336 5.54509 23.8869 5.5658 23.9335 5.59777C25.0548 6.48477 26.1913 7.43677 27.3158 8.41677C27.4653 8.53899 27.7653 8.79577 27.9469 8.97855C27.8931 8.81733 27.8136 8.52533 27.7803 8.37855C27.5803 7.52655 27.3914 6.70133 27.1889 5.85199C27.1013 5.47243 26.9531 5.10943 26.7503 4.77688C27.1846 4.68799 27.621 4.6097 28.0593 4.54199C28.0226 4.92463 28.0535 5.31074 28.1507 5.68266C28.4475 6.95399 28.7291 8.19844 29.0184 9.47299C29.0973 9.86157 29.2395 10.2346 29.4393 10.5771C29.0357 10.6344 28.6333 10.7016 28.2319 10.7787C28.1975 10.7852 28.1619 10.7837 28.1281 10.7744C28.0943 10.7651 28.0631 10.7481 28.0368 10.7249C26.8541 9.66099 25.6533 8.63266 24.469 7.67521C24.276 7.53581 24.0916 7.38483 23.9169 7.2231C23.9969 7.43386 24.0641 7.6493 24.1179 7.86821C24.3329 8.72833 24.5604 9.61155 24.7727 10.4754C24.8569 10.8518 25.0005 11.2123 25.1979 11.5435C24.7873 11.6733 24.3805 11.813 23.9776 11.9629C24.0031 11.5682 23.9633 11.1721 23.8598 10.7904" fill="#0032A0"/>
<path d="M30.9101 7.18237C31.1643 5.09926 32.9243 4.05915 34.6854 4.29348C35.5993 4.41282 36.2443 4.77726 36.5099 5.03104C36.46 5.44585 36.4095 5.85997 36.3583 6.27337C36.1299 5.96226 35.3601 5.33104 34.4403 5.21493C33.0029 5.03382 32.3637 6.05026 32.2363 7.09271C32.0611 8.52371 32.854 9.52604 34.099 9.68326C34.4778 9.72516 34.8612 9.68855 35.2252 9.57571C35.2811 9.11482 35.3374 8.65378 35.394 8.1926C35.3322 8.18448 35.2718 8.17593 35.2101 8.16682C34.8009 8.09725 34.3829 8.09725 33.9737 8.16682C34.0095 7.85393 34.0477 7.54141 34.0882 7.22926C34.089 7.21469 34.0928 7.20043 34.0992 7.18736C34.1057 7.17428 34.1148 7.16266 34.1259 7.1532C34.137 7.14374 34.1499 7.13665 34.1639 7.13234C34.1778 7.12803 34.1925 7.12661 34.207 7.12815C35.0159 7.23104 35.8246 7.34463 36.633 7.46893C36.4929 8.61145 36.3531 9.7543 36.2137 10.8975C35.9989 10.7756 35.7817 10.6543 35.5621 10.5336C35.4834 10.4943 35.3931 10.4847 35.3079 10.5067C34.7871 10.6178 34.2516 10.6432 33.7227 10.5819C32.1536 10.3851 30.6586 9.26115 30.9116 7.18715" fill="#0032A0"/>
<path d="M38.8476 10.3466C39.341 9.14573 39.8349 7.94518 40.3291 6.74496C40.481 6.39453 40.5763 6.02218 40.6113 5.64185C41.9044 6.05987 43.1641 6.57489 44.3797 7.18251C44.2338 7.53622 44.0883 7.89011 43.9431 8.24418C43.5668 7.86196 43.3346 7.68029 42.7034 7.4034C42.349 7.24962 41.9917 7.10377 41.6316 6.96585C41.5958 7.03364 41.564 7.10346 41.5364 7.17496L41.0553 8.34362C41.6252 8.56118 42.1871 8.79822 42.7411 9.05473C42.7685 9.0662 42.7905 9.08779 42.8024 9.11502C42.8143 9.14225 42.8153 9.17303 42.8051 9.20096C42.685 9.49229 42.5653 9.78348 42.446 10.0745C42.2016 9.85518 41.9176 9.66273 41.2633 9.39396C41.08 9.31929 40.8967 9.24662 40.7118 9.17629C40.4924 9.71029 40.2729 10.2439 40.0532 10.7772C40.0248 10.8482 39.9957 10.9185 39.9661 10.9922C40.2933 11.1169 40.6183 11.2483 40.9412 11.3862C41.7207 11.7216 42.2061 11.8162 42.6383 11.8565C42.4301 12.2016 42.2215 12.5467 42.0126 12.8918C40.8013 12.2891 39.5465 11.7781 38.2587 11.3632C38.5048 11.0573 38.7031 10.7158 38.8468 10.3504" fill="#0032A0"/>
<path d="M46.6339 15.339C46.5803 14.3956 46.6893 13.4501 46.9561 12.5437C46.9619 12.5264 46.9717 12.5108 46.9848 12.4982C46.9978 12.4856 47.0137 12.4762 47.0311 12.4709C47.0485 12.4657 47.0669 12.4647 47.0848 12.4679C47.1027 12.4712 47.1195 12.4788 47.1339 12.4899C47.6773 12.87 48.4107 13.2091 48.9358 12.5437C49.411 11.9405 49.258 11.3072 48.6627 10.8358C48.5 10.7057 48.322 10.5961 48.1326 10.5094C48.0606 10.5872 47.9891 10.6771 47.9235 10.7604L45.5117 13.8185C45.266 14.1154 45.0726 14.4519 44.9396 14.8135C44.5125 14.491 44.081 14.1739 43.6452 13.8621C43.9652 13.6413 44.2492 13.3724 44.4871 13.0649L46.9013 10.0093C47.1405 9.71239 47.3315 9.3797 47.4674 9.02344C48.0866 9.43577 48.5329 9.66855 49.1156 10.1131C50.1978 10.9372 51.0584 12.2419 50.0634 13.3922C49.5011 14.0478 48.612 13.9922 47.9987 13.7282C47.7793 15.0899 47.8498 16.5978 48.3625 16.9874C48.1819 17.0597 47.9846 17.0798 47.7931 17.0454C47.6015 17.011 47.4235 16.9235 47.2793 16.7929C46.9482 16.5144 46.688 16.0032 46.6342 15.3414" fill="#0032A0"/>
<path d="M48.9868 17.9717L50.0619 17.2266C49.935 17.9255 50.1157 18.8355 50.4807 19.365C50.8076 19.837 51.215 19.8984 51.5639 19.6564C52.6083 18.9317 50.7253 16.8202 52.3702 15.6786C53.3432 15.005 54.4598 15.5307 55.179 16.5683C55.472 16.976 55.6715 17.4433 55.7633 17.9369L54.742 18.646C54.7797 18.1905 54.7103 17.4543 54.3475 16.9317C54.041 16.4893 53.6486 16.3539 53.3051 16.5909C52.3547 17.2495 54.2427 19.3687 52.4988 20.5759C51.5112 21.2603 50.4115 20.8517 49.6572 19.7632C49.189 19.0885 48.989 18.3348 48.9852 17.9725" fill="#0032A0"/>
<path d="M6.61968 38.992L9.73001 37.9523C10.0409 37.8558 10.3334 37.7075 10.595 37.5137L11.6839 40.7719L10.7673 41.0783C10.7872 40.6567 10.7188 40.2355 10.5663 39.8419L10.2561 38.9113L10.0718 38.9737L9.06334 39.3108L9.55145 40.7708C9.55586 40.7822 9.55796 40.7943 9.55764 40.8066C9.55731 40.8188 9.55458 40.8308 9.54957 40.8419C9.54457 40.8531 9.53741 40.8631 9.5285 40.8715C9.5196 40.8799 9.50912 40.8864 9.49768 40.8907L8.74512 41.1428C8.74023 40.8697 8.69134 40.5886 8.50434 40.0236L8.34679 39.5516L6.96412 40.0133C6.65073 40.1096 6.35593 40.2583 6.09223 40.4531L5.66223 39.1629C5.99006 39.1603 6.31507 39.1021 6.62345 38.9909" fill="#0032A0"/>
<path d="M11.805 46.4279C12.7791 45.8269 13.121 44.7518 12.571 43.8599C12.056 43.024 11.0783 42.8837 10.2111 43.418C9.25559 44.0094 8.89359 45.0775 9.45859 45.9984C9.9617 46.8144 10.9562 46.9534 11.805 46.4279ZM9.46925 42.5839C10.8359 41.7416 12.442 42.1496 13.3236 43.5795C14.174 44.9599 13.8611 46.4528 12.5328 47.2715C11.1661 48.1149 9.58914 47.7236 8.69947 46.2807C7.85281 44.9067 8.14036 43.403 9.46925 42.5839Z" fill="#0032A0"/>
<path d="M16.2248 51.1607C17.0112 50.3286 17.0639 49.2013 16.3025 48.4815C15.5898 47.8068 14.6092 47.9229 13.9088 48.6637C13.1379 49.4787 13.0643 50.6071 13.8474 51.3478C14.5463 52.0064 15.5398 51.8854 16.2248 51.1607ZM12.9772 48.0476C14.0803 46.8809 15.7371 46.8612 16.955 48.0159C18.1328 49.1293 18.2167 50.6501 17.1439 51.7869C16.0408 52.9536 14.4158 52.9831 13.1847 51.8182C12.0128 50.7092 11.9014 49.1841 12.9744 48.0476" fill="#0032A0"/>
<path d="M18.3094 54.448L19.9613 51.6147C19.9947 51.5572 20.0189 51.5018 20.0528 51.4443L19.712 51.2459C19.3575 51.0183 18.9601 50.8655 18.5444 50.797L19.0299 49.9622L22.781 52.15L22.294 52.9849C22.0261 52.6596 21.6974 52.3895 21.3263 52.1898L20.9865 51.9915C20.9485 52.043 20.9136 52.0969 20.8822 52.1527L19.23 54.985C19.0579 55.2642 18.9346 55.5707 18.8655 55.8914L17.6967 55.2098C17.9383 54.9886 18.1439 54.7308 18.3058 54.4459" fill="#0032A0"/>
<path d="M25.642 56.9402C25.8329 56.2988 25.3233 55.8757 24.6024 55.637C24.5944 55.6356 24.5869 55.6324 24.5803 55.6276C24.5738 55.6228 24.5684 55.6167 24.5646 55.6095C24.5607 55.6024 24.5586 55.5945 24.5582 55.5864C24.5579 55.5783 24.5594 55.5702 24.5626 55.5628L24.7099 55.0715C24.7119 55.0639 24.7155 55.0568 24.7204 55.0507C24.7252 55.0445 24.7313 55.0394 24.7382 55.0357C24.7451 55.032 24.7527 55.0297 24.7605 55.029C24.7683 55.0283 24.7761 55.0292 24.7836 55.0317C25.3314 55.1715 25.7577 54.965 25.9125 54.4521C26.0506 53.9893 25.7651 53.592 25.1954 53.4233C25.0937 53.3915 24.9872 53.3783 24.8809 53.384L23.6821 57.4029C23.8264 57.4832 23.9782 57.5491 24.1354 57.5997C24.803 57.8067 25.4465 57.6029 25.6438 56.9402M22.3738 57.5476C22.5647 57.3254 22.6861 56.9966 22.7877 56.6547L23.7107 53.5621C23.8182 53.2513 23.866 52.923 23.8516 52.5945C24.4564 52.752 24.853 52.8004 25.2595 52.9218C26.3567 53.2487 27.2699 53.7774 26.9595 54.8178C26.7799 55.4162 26.2435 55.6289 25.7295 55.5838C26.2826 55.8107 26.961 56.424 26.7203 57.2298C26.3123 58.5974 24.8898 58.3974 24.113 58.1663C23.5227 57.9903 22.942 57.7835 22.3735 57.5465" fill="#0032A0"/>
<path d="M30.9897 57.2062L30.4564 55.4062C30.4321 55.3229 30.4026 55.2025 30.373 55.084C30.3279 55.2007 30.2762 55.3167 30.2408 55.3957L29.5059 57.1159L30.9897 57.2062ZM28.2427 57.8803L29.5559 55.0365C29.8337 54.4274 29.9027 54.1565 29.8559 53.9521L30.8236 54.014C30.8863 54.0184 30.9462 54.0415 30.9956 54.0804C31.045 54.1193 31.0815 54.1723 31.1005 54.2323L32.4005 58.1521C32.5365 58.569 32.7075 58.9735 32.9116 59.3616L31.4279 59.2676C31.4482 58.9615 31.4149 58.6542 31.3296 58.3596L31.2185 57.9875L29.1851 57.8579L29.0442 58.1993C28.9127 58.4829 28.8353 58.7886 28.8158 59.1007L27.5665 59.0244C27.8453 58.678 28.073 58.2935 28.2427 57.8826" fill="#0032A0"/>
<path d="M34.458 58.2052L33.9742 54.962C33.93 54.64 33.8352 54.3269 33.6935 54.0343L35.0321 53.8359C34.9782 54.1562 34.9782 54.4832 35.0321 54.8035L35.5159 58.0466C35.524 58.1102 35.5357 58.1732 35.5508 58.2355L36.3238 58.1215C36.8249 58.0623 37.3096 57.906 37.751 57.6614L37.7461 58.6919L34.4578 59.1817C34.5084 58.8581 34.5086 58.5289 34.458 58.2052Z" fill="#0032A0"/>
<path d="M39.5198 57.2255L38.4119 54.1398C38.3051 53.8326 38.1509 53.5439 37.955 53.2843L39.228 52.8274C39.2397 53.1526 39.3045 53.4736 39.4199 53.7778L40.5278 56.8635C40.5481 56.9246 40.5722 56.9844 40.5998 57.0425L41.3341 56.7785C42.0067 56.5377 42.3609 56.2947 42.6441 56.0485L42.8415 57.0596L39.7133 58.1826C39.6998 57.8552 39.6345 57.5324 39.5198 57.2255Z" fill="#0032A0"/>
<path d="M44.2003 53.6404C43.2559 52.2686 43.567 50.7006 44.9631 49.7393C45.452 49.4018 45.9431 49.2357 46.2893 49.2141L46.8877 50.0833C46.3217 50.0249 45.7527 50.1617 45.275 50.4709C44.4966 51.0084 44.3918 51.9809 44.9992 52.8636C45.6443 53.8 46.6984 54.0849 47.5796 53.478C48.1004 53.1194 48.324 52.6313 48.4283 52.0362L49.0314 52.9124C48.8759 53.2888 48.4617 53.8263 47.8488 54.2499C46.4898 55.1858 45.0836 54.9267 44.1977 53.6403" fill="#0032A0"/>
<path d="M50.1276 51.0688L47.7413 48.8174C47.507 48.5918 47.2387 48.4044 46.9462 48.2619L47.8741 47.2771C48.0306 47.5627 48.234 47.82 48.4757 48.0383L50.8625 50.287C50.9085 50.332 50.957 50.3745 51.0076 50.4144L51.5451 49.8462C51.9031 49.49 52.1875 49.0667 52.3821 48.6007L53.0154 49.4134L50.7367 51.8324C50.575 51.5474 50.3694 51.2899 50.1276 51.0688Z" fill="#0032A0"/>
<path d="M52.2569 46.8989L50.4948 45.8189C50.221 45.6431 49.9198 45.5144 49.6035 45.4383L50.3101 44.2847C50.5243 44.5295 50.7755 44.7392 51.0546 44.9062L52.7602 45.9512C53.3936 46.3401 54.1622 46.6801 54.6907 45.8179C55.2191 44.9556 54.6219 44.3374 53.987 43.9488L52.2823 42.9037C52.0086 42.7284 51.7078 42.5994 51.3921 42.5221L51.9711 41.5776C52.1867 41.8209 52.4392 42.0286 52.7195 42.1932L54.4795 43.2748C55.4369 43.8612 56.2023 44.7747 55.2971 46.2517C54.4343 47.6585 53.3032 47.542 52.2577 46.9001" fill="#0032A0"/>
<path d="M56.7607 38.9396C56.1247 38.7332 55.6888 39.2332 55.4344 39.9475C55.4329 39.9555 55.4295 39.9631 55.4247 39.9696C55.4198 39.9761 55.4135 39.9814 55.4062 39.9851C55.399 39.9889 55.391 39.9909 55.3828 39.9911C55.3747 39.9913 55.3666 39.9896 55.3592 39.9862L54.8711 39.825C54.8637 39.8227 54.8567 39.819 54.8507 39.814C54.8448 39.809 54.8398 39.8029 54.8363 39.796C54.8327 39.789 54.8306 39.7815 54.83 39.7737C54.8294 39.7659 54.8304 39.7581 54.8329 39.7507C54.9856 39.2056 54.7893 38.7745 54.2798 38.6095C53.8201 38.4612 53.4197 38.737 53.2353 39.3024C53.201 39.4034 53.1849 39.5097 53.188 39.6163L57.1778 40.9064C57.2611 40.7641 57.3308 40.6141 57.3858 40.4586C57.608 39.7953 57.4191 39.1475 56.7606 38.9352M57.2922 42.2175C57.0734 42.0224 56.7488 41.8953 56.409 41.7832L53.339 40.7886C53.0311 40.6744 52.7046 40.6188 52.3762 40.6246C52.5471 40.0246 52.6058 39.6285 52.7359 39.227C53.0891 38.1373 53.6384 37.2381 54.6711 37.5714C55.2624 37.7633 55.4646 38.3047 55.4081 38.8185C55.6479 38.2707 56.2773 37.6074 57.0748 37.866C58.4327 38.3057 58.1999 39.7237 57.9499 40.4946C57.7604 41.0805 57.5402 41.6559 57.2903 42.2186" fill="#0032A0"/>
<path d="M15.7963 43.6987C14.3202 41.9785 13.0429 39.032 12.8053 37.4705C12.8005 37.4243 12.8128 37.3779 12.8399 37.3402C12.8669 37.3025 12.9068 37.276 12.9521 37.2657C14.0299 36.9674 17.0801 36.204 18.3445 36.04C18.391 36.0337 18.4382 36.0451 18.4767 36.0718C18.5153 36.0985 18.5425 36.1387 18.553 36.1845C19.046 38.4568 19.9673 40.3622 20.5549 41.3124C20.5699 41.3368 20.5791 41.3644 20.582 41.3929C20.5848 41.4215 20.5812 41.4503 20.5713 41.4772C20.5614 41.5042 20.5456 41.5285 20.525 41.5485C20.5043 41.5684 20.4795 41.5835 20.4522 41.5925C17.8402 42.4526 16.4485 43.4304 16.0356 43.7164C16.0004 43.7429 15.9567 43.7558 15.9127 43.7527C15.8687 43.7495 15.8274 43.7301 15.7963 43.6987Z" fill="#0032A0"/>
<path d="M18.2772 29.3372C18.2856 29.2798 18.2709 29.2214 18.2363 29.1748C18.2018 29.1282 18.1502 29.0971 18.0929 29.0883C16.1426 28.7599 14.1418 28.2282 12.7172 27.8638C12.6676 27.8504 12.6147 27.8561 12.569 27.8798C12.5233 27.9034 12.4882 27.9434 12.4705 27.9916C12.32 28.5067 12.2141 29.0336 12.1538 29.5668C11.8635 31.7965 12.0108 34.6462 12.4672 36.1001C12.4851 36.1483 12.5202 36.1881 12.5659 36.2118C12.6115 36.2354 12.6643 36.2412 12.714 36.228C14.138 35.8651 16.1389 35.3319 18.0897 35.0034C18.147 34.9945 18.1985 34.9634 18.2331 34.9169C18.2677 34.8703 18.2826 34.812 18.2746 34.7545C18.1584 33.8564 18.0995 32.9519 18.0982 32.0463H18.1015C18.1026 31.1406 18.1613 30.2355 18.2772 29.3372Z" fill="#0032A0"/>
<path d="M48.1863 20.3931C49.662 22.1133 50.9398 25.0597 51.1773 26.6213C51.1821 26.6675 51.1698 26.7139 51.1426 26.7517C51.1154 26.7894 51.0754 26.8159 51.03 26.8261C49.9549 27.1244 46.902 27.8877 45.6382 28.0517C45.5916 28.058 45.5444 28.0466 45.5057 28.0199C45.4671 27.9932 45.4397 27.9531 45.4291 27.9073C44.9366 25.6349 44.0148 23.7295 43.4278 22.7794C43.4128 22.755 43.4035 22.7275 43.4006 22.6989C43.3977 22.6704 43.4014 22.6416 43.4112 22.6147C43.421 22.5877 43.4368 22.5634 43.4573 22.5434C43.4779 22.5234 43.5027 22.5083 43.5299 22.4993C46.1419 21.6365 47.5342 20.6613 47.9471 20.3754C47.9823 20.3488 48.0259 20.3359 48.0699 20.3391C48.1139 20.3423 48.1553 20.3618 48.1863 20.3931Z" fill="#0032A0"/>
<path d="M48.189 43.6988C49.6651 41.9785 50.943 39.0321 51.1805 37.4705C51.1853 37.4243 51.173 37.3779 51.1458 37.3401C51.1187 37.3024 51.0786 37.2759 51.0332 37.2658C49.9554 36.9674 46.9052 36.2041 45.6414 36.0401C45.5948 36.0337 45.5475 36.0449 45.5088 36.0717C45.4701 36.0984 45.4428 36.1387 45.4323 36.1845C44.9393 38.4569 44.018 40.3623 43.431 41.3124C43.416 41.3369 43.4067 41.3644 43.4039 41.3929C43.401 41.4214 43.4046 41.4502 43.4144 41.4771C43.4242 41.5041 43.44 41.5284 43.4606 41.5484C43.4811 41.5684 43.5059 41.5835 43.5331 41.5925C46.1451 42.4527 47.5374 43.4305 47.9498 43.7164C47.9849 43.7431 48.0286 43.7561 48.0726 43.7529C48.1167 43.7497 48.158 43.7302 48.189 43.6988Z" fill="#0032A0"/>
<path d="M45.7106 29.3372C45.7023 29.2797 45.717 29.2212 45.7517 29.1746C45.7863 29.128 45.838 29.0969 45.8955 29.0883C47.8458 28.7598 49.8466 28.2282 51.2711 27.8637C51.3207 27.8504 51.3735 27.8561 51.4191 27.8798C51.4647 27.9035 51.4997 27.9434 51.5174 27.9916C51.668 28.5066 51.774 29.0336 51.834 29.5667C52.1248 31.7965 51.9776 34.6462 51.5206 36.1001C51.503 36.1483 51.4679 36.1883 51.4224 36.212C51.3768 36.2357 51.324 36.2414 51.2744 36.2281C49.8504 35.8652 47.8495 35.332 45.8987 35.0035C45.8412 34.9949 45.7896 34.9638 45.7549 34.9172C45.7203 34.8706 45.7055 34.8121 45.7138 34.7546C45.8298 33.8565 45.8885 32.952 45.8896 32.0464H45.8864C45.8852 31.1407 45.8265 30.2355 45.7106 29.3372Z" fill="#0032A0"/>
</g>
</g>
<defs>
<clipPath id="clip0_40_31813">
<rect width="64" height="64" fill="white"/>
</clipPath>
</defs>
</svg>
