<svg width="64" height="64" viewBox="0 0 64 64" fill="none" xmlns="http://www.w3.org/2000/svg">
<g clip-path="url(#clip0_40_31852)">
<path d="M32.0001 64C38.3321 64 44.5217 62.1215 49.7856 58.6021C55.0495 55.0828 59.1509 50.081 61.5709 44.2297C63.9908 38.3783 64.6204 31.9406 63.38 25.7313C62.1396 19.522 59.0849 13.8203 54.6026 9.34783C50.1203 4.87535 44.4119 1.83318 38.1999 0.606374C31.988 -0.620436 25.5516 0.0232661 19.7056 2.45601C13.8596 4.88875 8.86676 9.00116 5.35899 14.2727C1.85121 19.5443 -0.0137746 25.7381 7.65974e-05 32.07C0.0241544 40.5431 3.40553 48.6612 9.40349 54.6461C15.4014 60.6309 23.527 63.9945 32.0001 64Z" fill="#CF1011"/>
<path d="M32 42.2673C37.6703 42.2673 42.267 37.6706 42.267 32.0003C42.267 26.33 37.6703 21.7333 32 21.7333C26.3297 21.7333 21.733 26.33 21.733 32.0003C21.733 37.6706 26.3297 42.2673 32 42.2673Z" fill="white"/>
<path d="M32 9.57129V11.1813C36.1179 11.1811 40.1433 12.402 43.5673 14.6897C46.9913 16.9773 49.66 20.229 51.236 24.0334C52.8119 27.8378 53.2243 32.024 52.421 36.0628C51.6177 40.1016 49.6347 43.8115 46.7229 46.7233C43.8112 49.635 40.1013 51.618 36.0625 52.4213C32.0237 53.2246 27.8375 52.8122 24.0331 51.2363C20.2287 49.6603 16.977 46.9916 14.6894 43.5676C12.4017 40.1437 11.1808 36.1182 11.181 32.0003C11.166 27.5387 12.5998 23.1929 15.267 19.6163C16.1169 20.0896 17.1121 20.2312 18.0603 20.0137C19.0086 19.7962 19.8426 19.2351 20.4013 18.4387C20.9601 17.6423 21.2039 16.6672 21.0858 15.7015C20.9677 14.7359 20.4959 13.8483 19.7617 13.2101C19.0274 12.5719 18.0827 12.2284 17.11 12.2459C16.1373 12.2634 15.2056 12.6407 14.4949 13.305C13.7841 13.9692 13.3446 14.8733 13.2613 15.8425C13.1781 16.8118 13.4569 17.7776 14.044 18.5533C11.1225 22.4258 9.55125 27.1494 9.57098 32.0003C9.57098 36.4363 10.8864 40.7727 13.351 44.4612C15.8155 48.1496 19.3184 51.0244 23.4168 52.722C27.5151 54.4196 32.0249 54.8637 36.3757 53.9983C40.7265 53.1329 44.7229 50.9967 47.8597 47.86C50.9964 44.7232 53.1326 40.7268 53.998 36.376C54.8634 32.0252 54.4193 27.5154 52.7217 23.4171C51.0241 19.3187 48.1493 15.8158 44.4609 13.3513C40.7724 10.8867 36.436 9.57129 32 9.57129ZM17.127 13.8813C17.5821 13.8803 18.0273 14.0144 18.4062 14.2665C18.785 14.5186 19.0806 14.8775 19.2555 15.2976C19.4303 15.7178 19.4766 16.1804 19.3884 16.6269C19.3002 17.0734 19.0816 17.4837 18.7601 17.8059C18.4386 18.128 18.0288 18.3476 17.5825 18.4367C17.1362 18.5259 16.6735 18.4806 16.253 18.3067C15.8324 18.1328 15.4729 17.838 15.22 17.4596C14.967 17.0813 14.832 16.6364 14.832 16.1813C14.832 15.5722 15.0736 14.9879 15.5039 14.5567C15.9341 14.1255 16.5179 13.8826 17.127 13.8813Z" fill="white"/>
</g>
<defs>
<clipPath id="clip0_40_31852">
<rect width="64" height="64" fill="white"/>
</clipPath>
</defs>
</svg>
