<svg width="64" height="64" viewBox="0 0 64 64" fill="none" xmlns="http://www.w3.org/2000/svg">
<g clip-path="url(#clip0_40_31860)">
<path d="M32 64C49.6731 64 64 49.6731 64 32C64 14.3269 49.6731 0 32 0C14.3269 0 0 14.3269 0 32C0 49.6731 14.3269 64 32 64Z" fill="url(#paint0_linear_40_31860)"/>
<path d="M21.248 15.104L17.792 18.56V32.26L21.248 35.716H34.948V42.628H28.16V39.1679H17.792V46.076L21.248 49.532H41.856L45.312 46.076V32.256L41.856 28.8H28.156V21.888H35.072V25.344H45.44V18.432L41.984 14.976H21.248V15.104Z" fill="white"/>
</g>
<defs>
<linearGradient id="paint0_linear_40_31860" x1="32.256" y1="1311.74" x2="33.088" y2="1310.85" gradientUnits="userSpaceOnUse">
<stop stop-color="#00ADEF"/>
<stop offset="1" stop-color="#00E5FF"/>
</linearGradient>
<clipPath id="clip0_40_31860">
<rect width="64" height="64" fill="white"/>
</clipPath>
</defs>
</svg>
