<svg xmlns="http://www.w3.org/2000/svg" width="64" height="64" viewBox="0 0 64 64"><g transform="translate(-8528.947 -692.496)"><circle cx="32" cy="32" r="32" transform="translate(8528.947 692.496)"/><g transform="translate(8540.958 704.909)"><g fill-rule="evenodd"><path d="M 19.99651908874512 39.84921264648438 L 19.6600399017334 39.54414367675781 C 18.48540878295898 38.47915267944336 17.17210960388184 37.64330291748047 15.75663948059082 37.0598030090332 C 14.33933925628662 36.47555160522461 12.77488899230957 36.12578201293945 11.10676956176758 36.02021408081055 C 5.348429203033447 35.65144348144531 1.656849145889282 33.08067321777344 0.1342091262340546 28.37930297851562 C -1.078500866889954 24.64626312255859 -0.5426008701324463 21.01737213134766 1.727179169654846 17.59386253356934 C 3.446989059448242 14.98334217071533 4.34791898727417 12.7159423828125 4.404139041900635 10.8558521270752 C 4.458699226379395 9.050722122192383 3.738889217376709 7.623722553253174 2.203559160232544 6.493312358856201 L 1.752449154853821 6.161172389984131 L 2.133519172668457 5.750552654266357 L 7.785909175872803 -0.3401174247264862 L 8.05457878112793 -0.6296274065971375 L 8.398419380187988 -0.4352774322032928 C 8.606626510620117 -0.3176055252552032 8.824328422546387 -0.1997010409832001 9.03499698638916 -0.08564075827598572 C 12.0377893447876 1.472490191459656 15.72586441040039 2.267026424407959 19.99691963195801 2.275912523269653 C 24.26276588439941 2.267015933990479 27.94484329223633 1.472410202026367 30.93861198425293 -0.08572927117347717 L 31.33759880065918 -0.3017974495887756 L 31.5921688079834 -0.4396774470806122 L 31.93305969238281 -0.6242574453353882 L 32.19675064086914 -0.3401174247264862 L 37.84897994995117 5.750552654266357 L 38.23003768920898 6.161182403564453 L 37.7789306640625 6.493312358856201 C 36.24332046508789 7.623902797698975 35.52388763427734 9.050802230834961 35.57950973510742 10.85555267333984 C 35.63684844970703 12.71610260009766 36.54034805297852 14.98344230651855 38.26490020751953 17.59460258483887 C 40.52083969116211 21.01161193847656 41.05365753173828 24.63986206054688 39.84861755371094 28.37862205505371 C 38.32568740844727 33.08067321777344 34.63407897949219 35.65143203735352 28.87613868713379 36.02019119262695 C 25.54398918151855 36.23106384277344 22.66958999633789 37.41647338867188 20.33241844177246 39.54351425170898 L 19.99651908874512 39.84921264648438 Z" stroke="none"/><path d="M 8.152399063110352 3.814697265625e-06 L 2.500007629394531 6.090671539306641 C 5.823867797851562 8.537921905517578 5.705257415771484 12.46435165405273 2.143909454345703 17.87015342712402 C -0.04766082763671875 21.17570304870605 -0.5589103698730469 24.62739181518555 0.6098785400390625 28.22524261474609 C 2.070819854736328 32.73612213134766 5.577278137207031 35.16507339477539 11.13834953308105 35.52121353149414 C 14.59916877746582 35.740234375 17.54861831665039 36.95490264892578 19.99587821960449 39.17372131347656 C 22.43390846252441 36.95490264892578 25.38335800170898 35.740234375 28.84417915344238 35.52121353149414 C 34.40512847900391 35.16507339477539 37.91170883178711 32.73612213134766 39.37273025512695 28.22524261474609 C 40.5323486328125 24.62739181518555 40.030029296875 21.17570304870605 37.84767913818359 17.87015342712402 C 34.27738952636719 12.46435165405273 34.15855026245117 8.537921905517578 37.48247909545898 6.090671539306641 L 31.83024978637695 3.814697265625e-06 C 31.61098861694336 0.1187210083007812 31.3919677734375 0.2374534606933594 31.17271041870117 0.3560943603515625 C 28.08622932434082 1.963333129882812 24.36063003540039 2.766811370849609 19.99587821960449 2.775913238525391 C 15.6219482421875 2.766811370849609 11.8962287902832 1.963333129882812 8.800729751586914 0.3560943603515625 C 8.581588745117188 0.2374534606933594 8.362438201904297 0.1187210083007812 8.152399063110352 3.814697265625e-06 M 7.956768035888672 -1.259258270263672 L 8.644458770751953 -0.8705558776855469 C 8.84747314453125 -0.7558059692382812 9.061491012573242 -0.6398811340332031 9.268758773803711 -0.5276603698730469 C 12.19942283630371 0.99224853515625 15.80903625488281 1.767200469970703 19.99795913696289 1.775913238525391 C 24.17913818359375 1.767189025878906 27.78270721435547 0.9921798706054688 30.70412063598633 -0.5273628234863281 L 32.03586959838867 -1.248508453369141 L 38.97760009765625 6.231681823730469 L 38.07537078857422 6.895954132080078 C 36.6820182800293 7.921812057495117 36.02909088134766 9.211973190307617 36.07926940917969 10.84015274047852 C 36.13370895385742 12.60661315917969 37.00943756103516 14.78643226623535 38.68210983276367 17.31904220581055 C 41.0258674621582 20.86907196044922 41.57841873168945 24.6416130065918 40.32450866699219 28.53201293945312 C 38.73189926147461 33.44919204711914 34.89101028442383 36.13600158691406 28.90808868408203 36.51917266845703 C 27.29361915588379 36.62134170532227 25.78313827514648 36.95871353149414 24.4178581237793 37.5219612121582 C 23.05684852600098 38.08345413208008 21.79553985595703 38.88801193237305 20.66895866394043 39.91329193115234 L 19.99714851379395 40.52470397949219 L 19.32419967651367 39.9145622253418 C 18.19244956970215 38.88845443725586 16.92803955078125 38.08350372314453 15.56607818603516 37.52207183837891 C 14.19950866699219 36.95872116088867 12.68854904174805 36.62132263183594 11.0751895904541 36.51921081542969 C 5.091487884521484 36.13601303100586 1.250617980957031 33.44919204711914 -0.3414726257324219 28.53335189819336 C -1.603530883789062 24.64840316772461 -1.047840118408203 20.87458229064941 1.310447692871094 17.31757164001465 C 2.977729797363281 14.78679275512695 3.850990295410156 12.60685348510742 3.904369354248047 10.84074211120605 C 3.953598022460938 9.212053298950195 3.300289154052734 7.921703338623047 1.907108306884766 6.895954132080078 L 1.004878997802734 6.231662750244141 L 7.956768035888672 -1.259258270263672 Z" stroke="none" fill="#fff"/></g><path d="M33.045,10.95a1.946,1.946,0,0,1-.192-.1L28.087,16q4.63,3.986-.8,12.227c-.21.32-.411.648-.584.968L52.842,12.283a27.66,27.66,0,0,1-8.282,1.169,24.731,24.731,0,0,1-11.515-2.5Z" transform="translate(-24.564 -9.982)" fill="#fff" fill-rule="evenodd"/><path d="M184.351,240.4l-3.707,2.392v13.743a14.738,14.738,0,0,1,3.7,1.571l.009-17.706Z" transform="translate(-166.2 -221.177)" fill="#fff" fill-rule="evenodd"/><path d="M276.97,180.442l-3.707,2.392v20.107a14.363,14.363,0,0,1,3.707-1.58v-20.92Z" transform="translate(-251.413 -166.014)" fill="#fff" fill-rule="evenodd"/><path d="M91.619,300.354l-3.707,2.392v7.607a14.7,14.7,0,0,0,3.707.785V300.354Z" transform="translate(-80.882 -276.339)" fill="#fff" fill-rule="evenodd"/><path d="M25.994,360.312l-1.351.868a9.016,9.016,0,0,0,1.351,1.927v-2.794Z" transform="translate(-22.672 -331.503)" fill="#fff" fill-rule="evenodd"/><path d="M369.6,120.485l-3.716,2.392v22.774a14.692,14.692,0,0,0,3.707-.794l.009-24.372Z" transform="translate(-336.628 -110.851)" fill="#fff" fill-rule="evenodd"/><path d="M459.21,217.462c-.21-.31-.411-.63-.593-.931v14.282a9.777,9.777,0,0,0,2.045-3.58,10.866,10.866,0,0,0-1.452-9.771Z" transform="translate(-421.946 -199.217)" fill="#fff" fill-rule="evenodd"/><path d="M305.236,41.172c-.1-.246-.32-.3-.648-.146l-4.83,3.2a1.493,1.493,0,0,0-.457.94v5.4c.1.676.42.858.968.566l4.237-2.685a2.216,2.216,0,0,0,.731-1.333V44.614L303.09,45.92V47.5l-1.187.794c-.137.073-.237.064-.292-.027a.994.994,0,0,1-.073-.429l-.046-2.758a.617.617,0,0,1,.164-.374l1.26-.931c.274-.219.42-.21.438.018v.292l1.881-1.251V41.172Z" transform="translate(-275.369 -37.665)" fill="#fff" fill-rule="evenodd"/><path d="M180.587,116.193l1.333-.867v-1.808l-6.3,4.091v1.361l.877-.53v4.5l-.849.575.018,1.278,4.164-2.63V120.86l-1.1.712v-1.7l1.087-.7v.913l1.123-.749v-2.822l-1.032.712v.511l-1.205.694V117l1.5-1Z" transform="translate(-161.577 -104.441)" fill="#fff" fill-rule="evenodd"/><path d="M139.161,245.093v-1.726l-1.8,1.132v1.781Z" transform="translate(-126.379 -223.908)" fill="#fff" fill-rule="evenodd"/><path d="M260.585,165.128V166.9l1.8-1.178V164Z" transform="translate(-239.749 -150.883)" fill="#fff" fill-rule="evenodd"/><path d="M54.348,204.766a.87.87,0,0,0-.621-.009l-4.465,2.767c-.466.3-.676.612-.621.94l.009,2.347c.037.356.164.548.384.566a1.685,1.685,0,0,0,1-.429l1.863-1.187c.356-.137.575-.128.648.027v1.525l-1.5,1c-.247.137-.347.036-.31-.292v-.849l-2.091,1.3v1.589c-.009.666.274.868.849.594l4.52-2.913a1.342,1.342,0,0,0,.566-1.324l-.027-2.182c-.32-.466-.813-.557-1.47-.256L51.1,209.2c-.192.073-.3-.009-.338-.219v-.685a.378.378,0,0,1,.064-.292,1.271,1.271,0,0,1,.356-.311l.968-.621c.228-.128.374-.1.42.1v.5l2.009-1.242v-1.3a.618.618,0,0,0-.228-.365Z" transform="translate(-44.744 -188.339)" fill="#fff" fill-rule="evenodd"/><path d="M390.522,84.3V82.569l-1.8,1.132v1.781Z" transform="translate(-357.641 -75.967)" fill="#fff" fill-rule="evenodd"/><path d="M90.629,43.385A4.333,4.333,0,0,0,86.3,39.057a4.333,4.333,0,0,0-4.328,4.328,4.172,4.172,0,0,0,1.269,3.059c.055.046.11.1.164.146A4.117,4.117,0,0,0,86.3,47.713a4.333,4.333,0,0,0,4.328-4.328ZM86.1,39.477a1.613,1.613,0,0,1,.21-.009,4.1,4.1,0,0,1,1.269.2.033.033,0,0,1,.009.027c1.05,1.872,1.141,3.479.3,4.8-.009-.009-.027-.009-.046-.018a6.126,6.126,0,0,0-1.744-5Zm1.507,5.269a.944.944,0,0,1,.155.009.438.438,0,0,1,.164.055.4.4,0,0,1,.055.064v.009a.149.149,0,0,1,0,.064.313.313,0,0,1-.091.155.483.483,0,0,1-.091.1.981.981,0,0,1-.32.183,1.32,1.32,0,0,1-.438.082.115.115,0,0,0-.055-.009.264.264,0,0,1-.2-.119.194.194,0,0,1,.046-.21.032.032,0,0,0,.009-.018h.009a.973.973,0,0,1,.42-.283,1.141,1.141,0,0,1,.338-.082ZM87.4,44.5a1.1,1.1,0,0,0-.228.073,1.264,1.264,0,0,0-.447.265q-3.082-.548-3.05-4.338a3.779,3.779,0,0,1,1.908-.968A5.764,5.764,0,0,1,87.4,44.5Zm2.749-1.908c-.018.055-.037.119-.055.183a2.625,2.625,0,0,1-1.863,1.972c.9-1.342.877-2.95-.046-4.8a3.867,3.867,0,0,1,.886.676,3.714,3.714,0,0,1,1.078,1.972ZM89.1,46.115l-.027.027a3.839,3.839,0,0,1-1.616.986,2.3,2.3,0,0,0,.292-1.561.369.369,0,0,0,.082-.046,2.589,2.589,0,0,0,1.269.593Zm-.959-.877a.325.325,0,0,0,.046-.073,2.6,2.6,0,0,0,2.036-1.616,3.731,3.731,0,0,1-.767,2.164,2,2,0,0,1-1.315-.475Zm-1.543.384a.851.851,0,0,1,.082.046,3.657,3.657,0,0,1-3.086.5.128.128,0,0,1-.036-.027,3.893,3.893,0,0,1-.813-1.15,4.875,4.875,0,0,0,3.853.63Zm.6.119v-.009a.791.791,0,0,0,.146-.018,1.735,1.735,0,0,1-.548,1.552l-.484.027a3.842,3.842,0,0,1-2.073-.594,3.4,3.4,0,0,0,2.959-.959ZM82.52,44.353a3.774,3.774,0,0,1-.119-.977,3.733,3.733,0,0,1,.858-2.438q.137,3.671,3.233,4.283a4.661,4.661,0,0,1-3.972-.867Z" transform="translate(-75.418 -35.934)" fill-rule="evenodd"/></g></g></svg>