<svg width="64" height="64" viewBox="0 0 64 64" fill="none" xmlns="http://www.w3.org/2000/svg">
<g clip-path="url(#clip0_40_31863)">
<path d="M32 64C49.6731 64 64 49.6731 64 32C64 14.3269 49.6731 0 32 0C14.3269 0 0 14.3269 0 32C0 49.6731 14.3269 64 32 64Z" fill="black"/>
<path fill-rule="evenodd" clip-rule="evenodd" d="M32.0075 52.2623L31.671 51.9572C30.4964 50.8922 29.1831 50.0564 27.7676 49.4729C26.3503 48.8886 24.7859 48.5389 23.1178 48.4333C17.3594 48.0645 13.6678 45.4937 12.1452 40.7924C10.9325 37.0593 11.4684 33.4304 13.7382 30.0069C15.458 27.3964 16.3589 25.129 16.4151 23.2689C16.4697 21.4638 15.7499 20.0368 14.2145 18.9064L13.7634 18.5742L14.1445 18.1636L19.7969 12.073L20.0656 11.7834L20.4094 11.9778C20.6176 12.0955 20.8353 12.2134 21.046 12.3274C24.0488 13.8856 27.7369 14.6801 32.0079 14.689C36.2738 14.6801 39.9558 13.8855 42.9496 12.3273L43.3486 12.1113L43.6032 11.9734L43.944 11.7888L44.2077 12.073L49.86 18.1636L50.241 18.5743L49.7899 18.9064C48.2543 20.037 47.5349 21.4639 47.5905 23.2686C47.6478 25.1292 48.5513 27.3965 50.2759 30.0077C52.5318 33.4247 53.0646 37.0529 51.8596 40.7917C50.3367 45.4937 46.6451 48.0645 40.8871 48.4333C37.555 48.6441 34.6806 49.8295 32.3434 51.9566L32.0075 52.2623Z" fill="black"/>
<path fill-rule="evenodd" clip-rule="evenodd" d="M20.1634 12.4131L14.511 18.5037C17.8349 20.951 17.7163 24.8774 14.1549 30.2832C11.9633 33.5888 11.4521 37.0405 12.6209 40.6383C14.0818 45.1492 17.5883 47.5781 23.1494 47.9343C26.6102 48.1533 29.5596 49.368 32.0069 51.5868C34.4449 49.368 37.3944 48.1533 40.8552 47.9343C46.4161 47.5781 49.9227 45.1492 51.3837 40.6383C52.5434 37.0405 52.041 33.5888 49.8587 30.2832C46.2884 24.8774 46.1696 20.951 49.4935 18.5037L43.8413 12.4131C43.622 12.5318 43.403 12.6505 43.1837 12.7692C40.0972 14.3764 36.3716 15.1799 32.0069 15.189C27.633 15.1799 23.9072 14.3764 20.8117 12.7692C20.5926 12.6505 20.3734 12.5318 20.1634 12.4131ZM19.9678 11.1538L20.6555 11.5425C20.8585 11.6573 21.0725 11.7732 21.2798 11.8854C24.2104 13.4053 27.82 14.1803 32.009 14.189C36.1901 14.1803 39.7937 13.4052 42.7151 11.8857L44.0469 11.1646L50.9886 18.6447L50.0864 19.309C48.693 20.3349 48.0401 21.625 48.0903 23.2532C48.1447 25.0197 49.0204 27.1995 50.6931 29.7321C53.0369 33.2821 53.5894 37.0547 52.3355 40.9451C50.7429 45.8623 46.902 48.5491 40.9191 48.9322C39.3046 49.0344 37.7941 49.3718 36.4289 49.935C35.0679 50.4965 33.8065 51.3011 32.68 52.3264L32.0082 52.9378L31.3352 52.3276C30.2035 51.3015 28.939 50.4966 27.5771 49.9351C26.2105 49.3718 24.6996 49.0344 23.0862 48.9323C17.1025 48.5491 13.2616 45.8623 11.6695 40.9464C10.4075 37.0615 10.9632 33.2876 13.3215 29.7306C14.9887 27.1999 15.862 25.0199 15.9154 23.2538C15.9646 21.6251 15.3113 20.3348 13.9181 19.309L13.0159 18.6447L19.9678 11.1538Z" fill="white"/>
<path fill-rule="evenodd" clip-rule="evenodd" d="M20.492 13.3811C20.4262 13.3514 20.3621 13.318 20.3 13.2811L15.534 18.4311C18.6207 21.0885 18.354 25.1641 14.734 30.6581C14.524 30.9781 14.323 31.3061 14.15 31.6261L40.289 14.7141C37.6036 15.5214 34.811 15.9155 32.007 15.8831C28.0233 15.9897 24.0729 15.132 20.492 13.3831V13.3811Z" fill="white"/>
<path fill-rule="evenodd" clip-rule="evenodd" d="M30.162 31.6361L26.455 34.0281V47.7711C27.7542 48.1233 28.9992 48.6519 30.155 49.3421L30.164 31.6361H30.162Z" fill="white"/>
<path fill-rule="evenodd" clip-rule="evenodd" d="M37.568 26.8411L33.861 29.2331V49.3401C35.0162 48.6418 36.2642 48.1099 37.568 47.7601V26.8401V26.8411Z" fill="white"/>
<path fill-rule="evenodd" clip-rule="evenodd" d="M22.748 36.4281L19.041 38.8201V46.4271C20.2376 46.8476 21.4837 47.1115 22.748 47.2121V36.4281Z" fill="white"/>
<path fill-rule="evenodd" clip-rule="evenodd" d="M15.3331 41.222L13.9821 42.09C14.3463 42.7886 14.8005 43.4365 15.3331 44.017V41.222Z" fill="white"/>
<path fill-rule="evenodd" clip-rule="evenodd" d="M44.983 22.0471L41.267 24.4391V47.2131C42.5317 47.1097 43.7778 46.8428 44.974 46.4191L44.983 22.0471Z" fill="white"/>
<path fill-rule="evenodd" clip-rule="evenodd" d="M49.275 30.6581C49.065 30.3481 48.864 30.0281 48.682 29.7271V44.009C49.6104 42.9746 50.3075 41.7542 50.727 40.429C51.2742 38.8015 51.4279 37.0674 51.1755 35.369C50.9231 33.6706 50.2718 32.0562 49.275 30.6581Z" fill="white"/>
<path fill-rule="evenodd" clip-rule="evenodd" d="M41.878 15.9201C41.778 15.6741 41.558 15.6201 41.23 15.7741L36.4 18.9741C36.1394 19.2221 35.9771 19.5559 35.943 19.9141V25.3141C36.043 25.9901 36.363 26.1721 36.911 25.8801L41.148 23.1951C41.5412 22.8509 41.8001 22.3787 41.879 21.8621V19.3621L39.732 20.6681V22.2481L38.545 23.0421C38.408 23.1151 38.308 23.1061 38.253 23.0151C38.1973 22.8792 38.1723 22.7327 38.18 22.5861L38.134 19.8281C38.1446 19.6884 38.2025 19.5565 38.298 19.4541L39.558 18.5231C39.832 18.3041 39.978 18.3131 39.996 18.5411V18.8331L41.877 17.5821V15.9201H41.878Z" fill="white"/>
<path fill-rule="evenodd" clip-rule="evenodd" d="M31.021 24.1651L32.354 23.2981V21.4901L26.054 25.5811V26.9421L26.931 26.4121V30.9121L26.082 31.4871L26.1 32.7651L30.264 30.1351V28.8321L29.164 29.5441V27.8441L30.251 27.1441V28.0571L31.374 27.3081V24.4861L30.342 25.1981V25.7091L29.137 26.4031V24.9721L30.637 23.9721L31.021 24.1651Z" fill="white"/>
<path fill-rule="evenodd" clip-rule="evenodd" d="M24.793 33.5981V31.8721L22.993 33.0041V34.7851L24.793 33.5981Z" fill="white"/>
<path fill-rule="evenodd" clip-rule="evenodd" d="M32.847 26.658V28.43L34.6471 27.252V25.53L32.847 26.658Z" fill="white"/>
<path fill-rule="evenodd" clip-rule="evenodd" d="M21.615 28.8401C21.4161 28.7608 21.195 28.7576 20.994 28.8311L16.529 31.5981C16.063 31.8981 15.853 32.2101 15.908 32.5381L15.917 34.8851C15.954 35.2411 16.081 35.4331 16.301 35.4511C16.6726 35.4226 17.0243 35.2717 17.301 35.0221L19.164 33.8351C19.52 33.6981 19.739 33.7071 19.812 33.8621V35.3871L18.312 36.3871C18.065 36.5241 17.965 36.4231 18.002 36.0951V35.2461L15.911 36.5461V38.1351C15.902 38.8011 16.185 39.0031 16.76 38.7291L21.28 35.8161C21.4904 35.672 21.6554 35.4709 21.7556 35.2364C21.8558 35.0019 21.8872 34.7437 21.846 34.4921L21.819 32.3101C21.499 31.8441 21.006 31.7531 20.349 32.0541L18.367 33.2741C18.175 33.3471 18.067 33.2651 18.029 33.0551V32.3701C18.0192 32.3196 18.0199 32.2677 18.0309 32.2175C18.0419 32.1673 18.063 32.1198 18.093 32.0781C18.1912 31.9531 18.3119 31.8476 18.449 31.7671L19.417 31.1461C19.645 31.0181 19.791 31.0461 19.837 31.2461V31.7461L21.846 30.5041V29.2041C21.8162 29.059 21.7353 28.9295 21.618 28.8391L21.615 28.8401Z" fill="white"/>
<path fill-rule="evenodd" clip-rule="evenodd" d="M44.8921 20.746V19.015L43.092 20.147V21.928L44.8921 20.746Z" fill="white"/>
<path fill-rule="evenodd" clip-rule="evenodd" d="M27.222 19.864C27.2207 18.7164 26.7642 17.6162 25.9526 16.8048C25.141 15.9934 24.0407 15.5371 22.893 15.536C21.7456 15.5373 20.6455 15.9937 19.8341 16.8051C19.0228 17.6165 18.5664 18.7166 18.565 19.864C18.5565 20.4335 18.6648 20.9987 18.883 21.5248C19.1013 22.0509 19.4249 22.5268 19.834 22.923C19.889 22.969 19.944 23.023 19.998 23.069C20.7795 23.8069 21.8185 24.2099 22.893 24.192C24.0405 24.1907 25.1406 23.7343 25.9519 22.9229C26.7633 22.1115 27.2207 21.0115 27.222 19.864ZM22.693 15.956C22.7628 15.9485 22.8329 15.9454 22.903 15.947C23.3339 15.9466 23.7622 16.0141 24.172 16.147C24.1755 16.1506 24.178 16.1548 24.1796 16.1595C24.1812 16.1642 24.1816 16.1691 24.181 16.174C25.231 18.046 25.322 19.653 24.481 20.974C24.472 20.965 24.454 20.965 24.435 20.956C24.5369 20.0452 24.433 19.1232 24.1312 18.2578C23.8294 17.3925 23.3372 16.6059 22.691 15.956H22.693ZM24.2 21.225C24.2519 21.2237 24.3037 21.2268 24.355 21.234C24.4128 21.2413 24.4686 21.26 24.519 21.289C24.5396 21.3083 24.558 21.3298 24.574 21.353V21.362C24.5787 21.3831 24.5787 21.4049 24.574 21.426C24.5595 21.4855 24.5279 21.5394 24.483 21.581C24.4575 21.6184 24.4269 21.6521 24.392 21.681C24.2979 21.7617 24.1893 21.8238 24.072 21.864C23.9317 21.916 23.7836 21.9437 23.634 21.946C23.6167 21.9385 23.5978 21.9355 23.579 21.937C23.5388 21.9338 23.4999 21.9214 23.4652 21.9007C23.4305 21.8801 23.4011 21.8518 23.379 21.818C23.3652 21.7824 23.3621 21.7434 23.3703 21.7061C23.3785 21.6687 23.3975 21.6346 23.425 21.608C23.4299 21.6031 23.4331 21.5968 23.434 21.59H23.443C23.5556 21.4603 23.7005 21.3626 23.863 21.307C23.9708 21.2626 24.0838 21.2349 24.2 21.225ZM23.993 20.979C23.9146 20.995 23.8382 21.0195 23.765 21.052C23.5993 21.1084 23.4471 21.1987 23.318 21.317C21.2634 20.9517 20.2467 19.5057 20.268 16.979C20.7975 16.4793 21.4601 16.1431 22.176 16.011C22.8535 16.6339 23.372 17.41 23.6881 18.2743C24.0042 19.1386 24.1088 20.066 23.993 20.979ZM26.742 19.071C26.724 19.126 26.705 19.19 26.687 19.254C26.5855 19.7212 26.3584 20.1518 26.03 20.4993C25.7017 20.8469 25.2847 21.0981 24.824 21.226C25.724 19.884 25.701 18.276 24.778 16.426C25.1045 16.6074 25.4029 16.8351 25.664 17.102C26.2184 17.6322 26.595 18.3211 26.742 19.074V19.071ZM25.693 22.594L25.666 22.621C25.2181 23.0794 24.6626 23.4184 24.05 23.607C24.3296 23.1378 24.4331 22.5845 24.342 22.046C24.3712 22.0342 24.3988 22.0188 24.424 22C24.7845 22.3105 25.2236 22.5157 25.693 22.593V22.594ZM24.734 21.717C24.7525 21.6948 24.768 21.6703 24.78 21.644C25.2314 21.577 25.6571 21.3924 26.0145 21.1087C26.3719 20.825 26.6483 20.4523 26.816 20.028C26.7942 20.812 26.5258 21.5692 26.049 22.192C25.5678 22.197 25.1009 22.0284 24.734 21.717ZM23.191 22.101C23.2192 22.1148 23.2466 22.1302 23.273 22.147C22.8276 22.4533 22.3198 22.6569 21.7862 22.7434C21.2525 22.8298 20.7064 22.7969 20.187 22.647C20.1735 22.6402 20.1613 22.6311 20.151 22.62C19.8124 22.2893 19.5369 21.8996 19.338 21.47C19.9022 21.8349 20.5357 22.0792 21.1987 22.1876C21.8618 22.296 22.5401 22.2662 23.191 22.1V22.101ZM23.791 22.22V22.211C23.8402 22.2096 23.889 22.2035 23.937 22.193C23.9813 22.4769 23.9544 22.7672 23.8588 23.0381C23.7631 23.309 23.6017 23.5519 23.389 23.745L22.905 23.772C22.1715 23.776 21.4522 23.5699 20.832 23.178C21.366 23.2651 21.913 23.2235 22.4276 23.0567C22.9423 22.8899 23.4097 22.6037 23.791 22.22ZM19.113 20.832C19.0309 20.5129 18.9909 20.1845 18.994 19.855C18.9806 18.9661 19.2849 18.1016 19.852 17.417C19.9434 19.8643 21.021 21.292 23.085 21.7C22.4005 21.8649 21.6875 21.8726 20.9995 21.7224C20.3116 21.5722 19.6666 21.2672 19.113 20.832Z" fill="black"/>
</g>
<defs>
<clipPath id="clip0_40_31863">
<rect width="64" height="64" fill="white"/>
</clipPath>
</defs>
</svg>
