<svg width="64" height="64" viewBox="0 0 64 64" fill="none" xmlns="http://www.w3.org/2000/svg">
<g clip-path="url(#clip0_413_157)">
<path d="M32 64C49.6731 64 64 49.6731 64 32C64 14.3269 49.6731 0 32 0C14.3269 0 0 14.3269 0 32C0 49.6731 14.3269 64 32 64Z" fill="black"/>
<path d="M35.573 11.0729C35.5694 11.6125 35.4594 12.146 35.2492 12.643C35.039 13.14 34.7327 13.5905 34.348 13.9689C33.9633 14.3473 33.5077 14.646 33.0073 14.8479C32.5069 15.0498 31.9716 15.1509 31.432 15.1455C30.8936 15.1491 30.3597 15.0466 29.8609 14.8439C29.3621 14.6412 28.9081 14.3422 28.5248 13.964C28.1416 13.5858 27.8366 13.1359 27.6272 12.6398C27.4179 12.1437 27.3083 11.6113 27.3047 11.0729C27.3083 10.5344 27.4179 10.002 27.6272 9.50594C27.8366 9.00987 28.1416 8.5599 28.5248 8.18171C28.9081 7.80353 29.3621 7.50454 29.8609 7.30182C30.3597 7.09909 30.8936 6.9966 31.432 7.00021C31.9716 6.9948 32.5069 7.09595 33.0073 7.29786C33.5077 7.49978 33.9633 7.79848 34.348 8.17684C34.7327 8.55521 35.039 9.00579 35.2492 9.50275C35.4594 9.99972 35.5694 10.5333 35.573 11.0729ZM31.432 14.0249C33.0994 14.0249 34.4387 12.6992 34.4387 11.0729C34.4387 9.43287 33.0994 8.12087 31.432 8.12087C29.792 8.12087 28.4254 9.43287 28.4254 11.0729C28.4254 12.7129 29.792 14.0249 31.432 14.0249Z" fill="white"/>
<path d="M26.0332 14.462C26.0332 14.462 28.7665 13.1774 31.4315 12.1797C34.1102 13.1774 36.8299 14.462 36.8299 14.462V16.8947C36.8299 16.8947 34.6022 18.685 31.4315 20.571C28.2745 18.685 26.0469 16.8947 26.0469 16.8947V14.462H26.0332Z" fill="#ED202E"/>
<path d="M31.3893 11.6191L31.5943 11.6875C33.4064 12.3602 35.1934 13.0986 36.9517 13.9015L37.0337 13.9425H37.061V13.9561L36.8287 14.4618L37.0747 13.9561L37.389 14.1065V17.1541L37.184 17.3318L37.1567 17.3455C37.0311 17.4482 36.9035 17.5484 36.774 17.6461C36.5007 17.8511 36.1317 18.1381 35.6533 18.4661C34.6967 19.1631 33.33 20.1061 31.731 21.0491L31.4303 21.2131L31.1433 21.0491C29.2524 19.921 27.4315 18.6797 25.6903 17.3318L25.4717 17.1541V14.1065L25.7997 13.9561L25.827 13.9425L25.9227 13.9015C27.644 13.0885 29.3996 12.3498 31.1843 11.6875L31.3893 11.6191ZM26.606 14.8171V16.6211C27.0278 16.9486 27.4561 17.2676 27.8907 17.5778C28.7653 18.2065 29.9953 19.0401 31.444 19.9011C33.1057 18.8956 34.7116 17.8007 36.2547 16.6211V14.8171L36.118 14.7488L34.9017 14.2021C33.945 13.7921 32.6467 13.2865 31.3893 12.8081C29.7718 13.4214 28.1764 14.0915 26.606 14.8171Z" fill="white"/>
<path d="M17.3282 21.2818L12.5039 16.7035C13.5152 15.3778 14.8819 13.9155 16.9456 12.5625L21.0182 17.6328L21.0319 17.6465C21.2916 17.9745 21.8109 18.6305 21.9476 19.1498C22.1936 20.2158 21.9339 21.3638 22.3029 22.4025L47.6955 48.7245C47.9415 48.9841 47.9415 49.3668 47.6955 49.6128C47.6337 49.6731 47.5606 49.7205 47.4803 49.7525C47.4001 49.7844 47.3144 49.8002 47.228 49.7989C47.1417 49.7977 47.0565 49.7794 46.9772 49.7451C46.898 49.7108 46.8262 49.6612 46.7662 49.5991L21.7562 22.9492C20.7586 22.5665 19.6379 22.3205 18.8452 22.2112C18.2029 22.1155 17.4922 21.4458 17.3282 21.2818Z" fill="#EC2434"/>
<path d="M11 16.8264L11.6013 16.0337C12.9047 14.3035 14.5004 12.8142 16.3163 11.6331L17.191 11.0591L21.906 16.9357L21.9333 16.9631C22.07 17.1271 22.275 17.4141 22.48 17.7147C22.685 18.0154 22.931 18.4391 23.0403 18.9037C23.1738 19.5139 23.2335 20.138 23.218 20.7624C23.218 21.1997 23.2453 21.5414 23.3137 21.8284L48.5286 47.9591C49.1846 48.6424 49.171 49.7357 48.4876 50.4054C47.777 51.1024 46.6153 51.0887 45.932 50.3507L21.1133 23.9057C20.266 23.6051 19.3367 23.4001 18.6807 23.3181C18.0793 23.2224 17.5463 22.9081 17.232 22.6757C16.9806 22.4931 16.743 22.2921 16.5213 22.0744L11 16.8264ZM17.3277 21.2817C17.4917 21.4457 18.2023 22.1154 18.831 22.2111C19.5143 22.2931 20.3753 22.4844 21.2363 22.7577L21.2773 22.7714L21.742 22.9354H21.7693L46.7656 49.5854C47.0116 49.8587 47.4353 49.8587 47.695 49.6127C47.8126 49.4948 47.8787 49.3351 47.8787 49.1686C47.8787 49.002 47.8126 48.8423 47.695 48.7244L22.3023 22.4024C22.2432 22.2378 22.1975 22.0687 22.1657 21.8967C22.0972 21.4674 22.0652 21.0331 22.07 20.5984C22.07 20.1201 22.0563 19.6281 21.9333 19.1497C21.8103 18.6304 21.291 17.9744 21.0313 17.6464L16.945 12.5624C14.895 13.9154 13.5147 15.3777 12.5033 16.7034L17.3277 21.2817Z" fill="white"/>
<path d="M13.2553 16.8133L17.2186 20.7083C17.3699 20.836 17.5471 20.9292 17.7379 20.9816C17.8199 20.9953 17.8746 20.927 17.8336 20.845C17.823 20.8291 17.8088 20.8158 17.7922 20.8063C17.7756 20.7968 17.757 20.7914 17.7379 20.7903C17.5864 20.7649 17.4447 20.6987 17.3279 20.599L13.3646 16.704C13.3496 16.6905 13.3301 16.6831 13.3099 16.6831C13.2898 16.6831 13.2703 16.6905 13.2553 16.704C13.2418 16.719 13.2344 16.7385 13.2344 16.7587C13.2344 16.7788 13.2418 16.7983 13.2553 16.8133ZM19.7332 20.5443L17.5466 18.221C17.5331 18.206 17.5257 18.1865 17.5257 18.1663C17.5257 18.1461 17.5331 18.1267 17.5466 18.1117C17.5543 18.1029 17.5637 18.0959 17.5743 18.0912C17.585 18.0864 17.5964 18.0839 17.6081 18.0839C17.6197 18.0839 17.6312 18.0864 17.6418 18.0912C17.6524 18.0959 17.6619 18.1029 17.6696 18.1117L19.9929 20.2983H20.9496V21.255L21.7012 21.9793L21.4416 22.239L20.7309 21.4737L19.7332 21.4463V20.5443Z" fill="white"/>
<path d="M41.6816 17.769L45.8362 12.6167C47.2712 13.464 48.8976 14.6667 50.4556 16.58L45.7132 21.049H45.6996C45.3989 21.336 44.7702 21.9237 44.2646 22.0877C43.2259 22.443 42.0369 22.2927 41.0119 22.771L16.1659 49.4757C16.0518 49.5948 15.8971 49.6666 15.7324 49.6767C15.5678 49.6868 15.4054 49.6346 15.2776 49.5303C15.2115 49.4754 15.1573 49.4074 15.1185 49.3307C15.0797 49.254 15.057 49.1702 15.0519 49.0844C15.0468 48.9985 15.0593 48.9126 15.0887 48.8318C15.1181 48.751 15.1638 48.6771 15.2229 48.6147L40.4242 22.2654C40.6976 21.254 40.8342 20.1334 40.8889 19.327C40.9162 18.6984 41.5176 17.9467 41.6816 17.7554V17.769Z" fill="#EC2434"/>
<path d="M45.5764 11.1548L46.4237 11.6605C47.9544 12.5625 49.6764 13.8471 51.3437 15.8698L51.9997 16.6624L46.4921 21.8558L46.4784 21.8694C46.3281 22.0061 46.0684 22.2521 45.7677 22.4844C45.4944 22.7031 45.0844 23.0038 44.6334 23.1541C44.0457 23.3454 43.4171 23.4274 42.9387 23.4684L42.7611 23.4958C42.3101 23.5504 41.9684 23.5914 41.6814 23.7008L17.0131 50.2414C16.3708 50.9248 15.3048 51.0068 14.5668 50.4054C14.3811 50.2546 14.2287 50.067 14.119 49.8544C14.0093 49.6419 13.9448 49.4089 13.9294 49.1703C13.914 48.9316 13.9481 48.6923 14.0295 48.4674C14.111 48.2425 14.2381 48.0369 14.4028 47.8634L39.4127 21.7328C39.6177 20.8718 39.7271 19.9561 39.7681 19.3001C39.7954 18.6988 40.0687 18.1521 40.2737 17.8241C40.4787 17.4688 40.7111 17.1818 40.8204 17.0724L45.5901 11.1548H45.5764ZM41.6814 17.7694C41.5174 17.9608 40.9161 18.7124 40.8887 19.3411C40.8477 20.0108 40.7521 20.8854 40.5471 21.7464V21.7874L40.4377 22.2384L40.4241 22.2794L15.2228 48.6288C14.9631 48.9021 14.9904 49.3121 15.2774 49.5444C15.5508 49.7631 15.9334 49.7358 16.1658 49.4898L41.0117 22.7578C41.1757 22.6894 41.3397 22.6211 41.5174 22.5801C41.9274 22.4571 42.3784 22.4161 42.8157 22.3614C43.3077 22.3068 43.7997 22.2521 44.2644 22.0881C44.7837 21.9241 45.3987 21.3364 45.6994 21.0631V21.0494L50.4691 16.5668C49.1723 14.9863 47.6089 13.6449 45.8497 12.6035L41.6951 17.7694H41.6814Z" fill="white"/>
<path d="M45.4266 13.6688L41.969 18.0012C41.8608 18.1659 41.7908 18.3526 41.764 18.5478C41.764 18.6298 41.8323 18.6708 41.9006 18.6298C41.9165 18.6192 41.9298 18.6051 41.9393 18.5885C41.9488 18.5718 41.9542 18.5533 41.9553 18.5342C41.9584 18.3784 42.0058 18.2267 42.092 18.0968L45.5496 13.7645C45.5613 13.7478 45.5664 13.7274 45.5639 13.7072C45.5614 13.687 45.5514 13.6684 45.536 13.6552C45.5209 13.6417 45.5015 13.6343 45.4813 13.6343C45.4611 13.6343 45.4417 13.6417 45.4266 13.6552V13.6688ZM43.0076 20.4338L45.4676 18.1378C45.4827 18.1244 45.5021 18.1169 45.5223 18.1169C45.5425 18.1169 45.5619 18.1244 45.577 18.1378C45.618 18.1515 45.618 18.2062 45.5906 18.2472L43.2673 20.6662L43.2263 21.4862L42.3653 21.5408L41.6273 22.2652L41.354 22.0465L42.174 21.2265L42.1466 20.4065H43.0076V20.4338ZM16.1526 30.9025C16.0899 30.6957 16.0771 30.477 16.1153 30.2644C16.1535 30.0517 16.2415 29.8511 16.3722 29.679C16.5029 29.507 16.6726 29.3684 16.8672 29.2746C17.0619 29.1808 17.276 29.1345 17.492 29.1395C17.902 30.9708 18.4896 34.6471 17.287 34.3328C16.0843 34.0048 16.0296 32.9661 16.1526 32.4195C15.8656 31.9685 16.0296 31.1895 16.1526 30.9025ZM46.561 31.1075C46.6237 30.9007 46.6365 30.682 46.5983 30.4694C46.5601 30.2567 46.4721 30.0561 46.3414 29.884C46.2107 29.712 46.041 29.5734 45.8464 29.4796C45.6517 29.3858 45.4376 29.3395 45.2216 29.3445C44.8116 31.1895 44.224 34.8521 45.4266 34.5378C46.6156 34.2098 46.684 33.1711 46.561 32.6245C46.848 32.1735 46.684 31.3945 46.561 31.1075Z" fill="white"/>
<path d="M45.7127 31.9009C45.7127 39.6908 39.2893 46.0185 31.3627 46.0185C23.436 46.0185 17.0127 39.6908 17.0127 31.9009C17.0127 24.0972 23.436 17.7695 31.3627 17.7695C39.2893 17.7695 45.7127 24.0972 45.7127 31.9009Z" fill="white"/>
<path d="M37.6506 26.3108C36.2429 26.6251 34.7669 27.4724 34.1929 27.8688L34.0562 27.1854C35.4092 26.3108 37.0629 25.8051 37.6369 25.6274V26.3108H37.6506ZM34.4389 37.8044C32.8536 38.6654 32.1019 38.1598 31.9242 37.8044C32.6486 37.9138 33.2499 37.7224 34.8352 36.7658C36.4307 35.7154 38.1297 34.8316 39.9056 34.1281L39.6322 34.9208C38.4022 35.2488 36.4206 36.7248 34.4389 37.7908V37.8044ZM37.8829 29.2628C36.4206 29.3994 34.7396 30.4654 34.0699 30.9848V30.2604C35.167 29.4354 36.4468 28.8869 37.8009 28.6614C37.8009 28.7844 37.8556 29.1124 37.8829 29.2628ZM34.1929 34.8114V34.3741C31.9106 34.3741 29.8742 35.5904 28.9859 36.2874C28.9859 36.2874 29.0406 36.7658 29.1226 36.9708C30.2569 36.0688 31.1999 35.6041 31.5962 35.4811V35.9184C32.39 35.3996 33.269 35.0249 34.1929 34.8114ZM34.1519 33.7728L34.0699 33.2124C32.0935 33.0509 30.1284 33.6361 28.5622 34.8524C28.5076 34.8934 28.7672 35.6178 28.7672 35.6178C31.3639 33.6498 32.8672 33.7044 34.1519 33.7728Z" fill="#222222"/>
<path d="M34.0288 31.8191C31.5961 31.4091 29.1771 32.7074 28.1111 33.4181C28.1385 33.5411 28.2888 34.2654 28.3571 34.2244C31.1178 32.4204 32.2111 32.4477 34.0288 32.4477V31.8191ZM34.0698 30.1791C31.6098 29.6734 28.8355 31.1084 27.6601 31.9421L27.9061 32.7347C31.0495 30.7804 32.8261 30.7804 34.0698 30.9717V30.1791ZM34.1928 28.7851C33.3473 28.5213 32.4416 28.5213 31.5961 28.7851V29.4684C32.7715 29.1404 33.8101 29.3317 34.1928 29.4684V28.7851ZM25.5418 27.2407L30.1201 40.6614L28.9721 40.265L25.0225 27.6507L25.5418 27.2407ZM25.1318 27.6781L29.0405 40.2104L29.9971 40.5247L25.4871 27.3774L25.1181 27.6781H25.1318Z" fill="#222222"/>
<path fill-rule="evenodd" clip-rule="evenodd" d="M31.4311 40.4283C33.7122 40.4465 35.9074 39.5586 37.5345 37.9597C39.1617 36.3608 40.0877 34.1814 40.1094 31.9003C40.1004 30.7696 39.8689 29.6517 39.4279 28.6105C38.9869 27.5693 38.3452 26.6252 37.5393 25.832C36.7335 25.0388 35.7793 24.4122 34.7312 23.9878C33.6831 23.5634 32.5617 23.3496 31.4311 23.3586C29.1499 23.3441 26.9562 24.2354 25.3316 25.8369C23.7071 27.4384 22.7845 29.6191 22.7664 31.9003C22.7881 34.179 23.7122 36.3563 25.3364 37.9548C26.9606 39.5534 29.1522 40.4428 31.4311 40.4283ZM31.4311 43.4623C37.9227 43.4623 43.1844 38.2826 43.1844 31.9003C43.1737 30.3682 42.861 28.8533 42.2644 27.4421C41.6677 26.0309 40.7988 24.7512 39.7072 23.6761C38.6156 22.601 37.3228 21.7517 35.9027 21.1766C34.4826 20.6015 32.9631 20.312 31.4311 20.3246C29.899 20.312 28.3795 20.6015 26.9594 21.1766C25.5393 21.7517 24.2465 22.601 23.1549 23.6761C22.0633 24.7512 21.1944 26.0309 20.5977 27.4421C20.0011 28.8533 19.6885 30.3682 19.6777 31.9003C19.6902 33.4312 20.0042 34.9447 20.6016 36.3542C21.1991 37.7638 22.0683 39.0419 23.1597 40.1156C24.2511 41.1892 25.5433 42.0374 26.9625 42.6116C28.3817 43.1858 29.9001 43.4749 31.4311 43.4623Z" fill="black"/>
<path d="M38.7708 32.256C37.3085 32.4747 35.1081 33.7593 34.1925 34.3743L34.0558 33.527C35.9691 32.174 37.8005 31.7367 38.4838 31.5727L38.7708 32.256ZM31.7598 37.3673C31.6231 37.3947 31.6231 36.7933 31.6368 36.479C32.3748 36.2467 32.7028 36.0827 34.3155 35.085C35.7913 34.1646 37.3463 33.378 38.9621 32.7343C39.0715 32.953 39.3175 33.363 39.4268 33.527C38.8118 33.65 35.9418 35.126 34.1925 36.2057C32.4431 37.2853 31.9238 37.3263 31.7598 37.3673ZM26.2795 20.12L26.2521 20.2293C25.9925 21.0903 25.5005 21.4593 25.0631 21.6097C24.8121 21.6914 24.5456 21.7148 24.2841 21.678H24.2705V21.596H24.2021V21.5687C24.2136 21.4943 24.2319 21.4211 24.2568 21.35C24.2978 21.2133 24.3661 21.022 24.5028 20.8443C24.7761 20.4617 25.2681 20.1063 26.1701 20.12H26.2795ZM24.2841 21.596H24.2021V21.6643L24.2705 21.678V21.596H24.2841ZM24.3798 21.5277H24.5165C24.6395 21.5277 24.8171 21.5277 25.0085 21.4593C25.3775 21.3227 25.8148 21.022 26.0608 20.284C25.2818 20.284 24.8581 20.612 24.6395 20.9263C24.5075 21.1056 24.4144 21.3104 24.3661 21.5277H24.3798Z" fill="#222222"/>
<path d="M24.4749 21.1997L24.4612 21.2954C24.2972 22.1837 23.8599 22.6074 23.4635 22.7987C23.2274 22.9033 22.9697 22.9501 22.7119 22.9354H22.6982V22.8534H22.6162V22.8397V22.785L22.6435 22.6074C22.6709 22.4707 22.7255 22.2794 22.8349 22.0744C23.0535 21.678 23.5045 21.268 24.3792 21.1997H24.4749ZM22.6982 22.8534H22.6162V22.9217L22.6982 22.9354V22.8534ZM22.7939 22.785H22.9169C23.0399 22.7577 23.2039 22.7304 23.3952 22.6484C23.7369 22.4844 24.1195 22.1427 24.2835 21.3774C23.5455 21.4594 23.1629 21.8147 22.9852 22.1564C22.8797 22.3509 22.8146 22.5647 22.7939 22.785Z" fill="#222222"/>
<path d="M22.8216 22.2793V22.4023C22.8216 23.318 22.4936 23.8646 22.1382 24.179C21.944 24.3484 21.7156 24.4742 21.4686 24.548H21.4549L21.4412 24.4796H21.3592L21.3456 24.425V24.2473C21.3319 24.097 21.3456 23.8783 21.4139 23.6596C21.5506 23.195 21.8922 22.6483 22.7122 22.3203L22.8216 22.2793ZM21.4412 24.466L21.3592 24.4933L21.3729 24.5753L21.4549 24.548L21.4412 24.4796V24.466ZM21.5096 24.3703L21.6052 24.3293C21.7282 24.2746 21.8786 24.1926 22.0426 24.056C22.3296 23.7826 22.6302 23.318 22.6576 22.5253C21.9743 22.826 21.6872 23.3043 21.5642 23.7006C21.5035 23.923 21.485 24.1548 21.5096 24.384V24.3703Z" fill="#222222"/>
<path d="M21.3859 23.7148L21.4269 23.8242C21.6456 24.6442 21.4133 25.1908 21.1263 25.5188C20.9532 25.711 20.738 25.8607 20.4976 25.9562L20.4703 25.8878L20.3883 25.9152C20.3583 25.8447 20.3354 25.7715 20.3199 25.6965C20.2789 25.5598 20.2516 25.3822 20.2653 25.1635C20.3063 24.7262 20.5386 24.2068 21.3039 23.7695L21.3996 23.7148H21.3859ZM20.4703 25.8878L20.3883 25.9152L20.4156 25.9835L20.4976 25.9562L20.4703 25.8878ZM20.5113 25.7785L20.6206 25.7238C20.7299 25.6555 20.8666 25.5598 21.0033 25.4095C21.2493 25.1362 21.4543 24.6852 21.2903 23.9608C20.6479 24.3572 20.4703 24.8082 20.4293 25.1908C20.4162 25.3903 20.4441 25.5903 20.5113 25.7785Z" fill="#222222"/>
<path d="M20.3208 25.2178L20.3618 25.3271C20.5472 25.7526 20.5915 26.2263 20.4882 26.6788C20.3849 27.1313 20.1395 27.5389 19.7878 27.8418H19.7741L19.7194 27.7871L19.6511 27.8281V27.8008C19.6136 27.7352 19.5816 27.6666 19.5554 27.5958C19.4336 27.1881 19.4333 26.7537 19.5547 26.3459C19.6761 25.938 19.9138 25.5745 20.2388 25.2998L20.3208 25.2178ZM19.7194 27.7871L19.6511 27.8281L19.6921 27.9101L19.7741 27.8554L19.7194 27.7871ZM19.7468 27.6504C19.9156 27.4947 20.0545 27.3094 20.1568 27.1038C20.3618 26.7348 20.4984 26.2018 20.2524 25.4911C19.964 25.7606 19.762 26.1097 19.672 26.494C19.582 26.8784 19.608 27.2809 19.7468 27.6504Z" fill="#222222"/>
<path d="M19.5144 27.0215L19.5554 27.1582C19.8698 28.0328 19.7604 28.6888 19.5828 29.1125C19.4781 29.3553 19.3246 29.5739 19.1318 29.7548L19.0771 29.7002L18.9951 29.7411V29.7275C18.9613 29.6572 18.9338 29.584 18.9131 29.5088C18.7842 29.1026 18.763 28.6699 18.8517 28.253C18.9403 27.8361 19.1357 27.4494 19.4188 27.1308L19.5144 27.0215ZM19.0771 29.7002L18.9951 29.7411L19.0498 29.8232L19.1181 29.7685L19.0771 29.7002ZM19.1044 29.5635L19.1591 29.4951C19.2411 29.3995 19.3504 29.2491 19.4324 29.0578C19.5828 28.6888 19.6921 28.1148 19.4461 27.3495C19.2012 27.6568 19.0408 28.0227 18.9809 28.4111C18.921 28.7994 18.9636 29.1967 19.1044 29.5635Z" fill="#222222"/>
<path d="M18.9253 29.1401L18.98 29.2768C19.349 30.1241 19.2943 30.7801 19.144 31.2175C19.0564 31.4713 18.9168 31.7041 18.734 31.9008L18.6793 31.8325L18.611 31.8735H18.5973C18.5587 31.8037 18.5267 31.7305 18.5016 31.6548C18.4333 31.5181 18.365 31.3268 18.3376 31.0808C18.2693 30.6025 18.3376 29.9465 18.8433 29.2631L18.9253 29.1401ZM18.6793 31.8325L18.611 31.8735L18.652 31.9555L18.734 31.9008L18.6793 31.8325ZM18.6793 31.6958L18.7476 31.6275C18.816 31.5318 18.9116 31.3815 18.98 31.1765C19.1166 30.7938 19.185 30.2198 18.8843 29.4681C18.6615 29.7908 18.5267 30.1659 18.4931 30.5566C18.4595 30.9472 18.5284 31.3399 18.693 31.6958H18.6793ZM18.5836 32.8575L18.6793 32.9531C19.3626 33.6638 19.554 34.2788 19.554 34.7298C19.5568 34.9764 19.5006 35.2201 19.39 35.4405L19.3216 35.4131L19.267 35.4678H19.2533L19.2123 35.4268C19.0105 35.2622 18.8393 35.0632 18.7066 34.8391C18.4743 34.4291 18.2966 33.8141 18.5426 32.9941L18.5836 32.8575ZM19.3216 35.3995L19.267 35.4678L19.3353 35.5225L19.39 35.4541L19.3216 35.3995ZM19.2943 35.2901L19.3216 35.2081C19.3626 35.0988 19.39 34.9348 19.39 34.7298C19.39 34.3471 19.2533 33.8141 18.6656 33.1718C18.5572 33.5481 18.5587 33.9475 18.6701 34.3229C18.7815 34.6983 18.9981 35.034 19.2943 35.2901Z" fill="#222222"/>
<path d="M18.8719 35.0435L18.9676 35.0845C19.3695 35.2855 19.712 35.5879 19.9612 35.9618C20.2105 36.3357 20.3579 36.7682 20.3889 37.2165H20.3206L20.2932 37.2985H20.2796C20.1952 37.2731 20.1129 37.2411 20.0336 37.2028C19.8371 37.1191 19.6532 37.0087 19.4869 36.8748C19.2378 36.6701 19.0481 36.4024 18.9375 36.0996C18.827 35.7967 18.7996 35.4698 18.8582 35.1528V35.0435H18.8719ZM20.3206 37.2301L20.2932 37.2985L20.4026 37.3258V37.2165H20.3206V37.2301ZM20.2249 37.1071C20.2024 36.8905 20.1471 36.6785 20.0609 36.4785C19.8513 35.9723 19.4753 35.5528 18.9949 35.2895C18.9402 36.0138 19.2682 36.4648 19.5962 36.7518C19.7845 36.9045 19.997 37.0246 20.2249 37.1071Z" fill="#222222"/>
<path d="M19.5695 36.8071L19.6788 36.8481C20.0645 37.0024 20.4054 37.2509 20.6703 37.5708C20.9353 37.8907 21.116 38.2718 21.1958 38.6795C21.2092 38.7518 21.2183 38.8248 21.2231 38.8981V38.9118H21.1411L21.1275 38.9938H21.1001C21.016 38.9735 20.9336 38.9461 20.8541 38.9118C20.65 38.8382 20.4569 38.7371 20.2801 38.6111C20.016 38.4219 19.8088 38.1639 19.6811 37.8651C19.5533 37.5663 19.51 37.2382 19.5558 36.9165L19.5695 36.8071ZM21.1411 38.9118L21.1275 38.9938L21.2231 39.0211V38.9118H21.1411ZM21.0455 38.8161V38.7068C20.9756 38.3425 20.8186 38.0005 20.5877 37.7101C20.3568 37.4197 20.059 37.1896 19.7198 37.0395C19.6788 37.7775 20.0205 38.2148 20.3758 38.4745C20.5822 38.6268 20.8134 38.7424 21.0591 38.8161H21.0455Z" fill="#222222"/>
<path d="M20.6485 38.6924L20.7579 38.7197C21.5505 38.993 22.0152 39.4304 22.2612 39.813C22.4055 40.0174 22.5162 40.2435 22.5892 40.4827V40.4964L22.5209 40.5101V40.5921H22.5072H22.4935C22.4012 40.5808 22.3098 40.5625 22.2202 40.5374C22.0425 40.4964 21.8102 40.428 21.5915 40.305C21.3067 40.1713 21.0663 39.9585 20.8991 39.692C20.7319 39.4254 20.6449 39.1164 20.6485 38.8017V38.6924ZM22.5209 40.5101V40.5921H22.6165L22.6029 40.4964L22.5209 40.5101ZM22.4115 40.4144L22.3842 40.3461C22.3202 40.1866 22.2376 40.0352 22.1382 39.8951C21.8125 39.4399 21.3544 39.0962 20.8262 38.911C20.8672 39.5807 21.2635 39.9497 21.6599 40.1684C21.8961 40.2891 22.1497 40.3721 22.4115 40.4144Z" fill="#222222"/>
<path d="M21.7012 40.3188H21.8378C22.2783 40.346 22.7067 40.4734 23.0904 40.6913C23.474 40.9092 23.8029 41.2118 24.0518 41.5762L24.0792 41.6172V41.6308L24.0245 41.6718V41.7538C23.9427 41.7612 23.8603 41.7612 23.7785 41.7538C23.6145 41.7538 23.3958 41.7538 23.1635 41.6855C22.6852 41.5488 22.1112 41.2208 21.7558 40.4418L21.7012 40.3188ZM24.0245 41.6718V41.7538L24.1475 41.7265L24.0928 41.6308L24.0245 41.6718ZM23.8878 41.6035C23.7677 41.4307 23.6252 41.2744 23.4642 41.1388C23.1498 40.8655 22.6578 40.5785 21.9608 40.4965C22.1244 40.8369 22.3832 41.1227 22.7058 41.3191C23.0284 41.5156 23.401 41.6144 23.7785 41.6035H23.8878Z" fill="#222222"/>
<path d="M23.1631 41.5903H23.2997C24.1334 41.5903 24.7347 41.85 25.1174 42.1097C25.3248 42.2488 25.5092 42.4194 25.6641 42.6153L25.5957 42.67L25.6231 42.7383H25.6094C25.5292 42.7637 25.4469 42.782 25.3634 42.793C25.1994 42.8203 24.9671 42.834 24.7211 42.793C24.2154 42.7383 23.6277 42.4787 23.2177 41.6997L23.1494 41.5903H23.1631ZM25.5957 42.67L25.6231 42.7383L25.7187 42.711L25.6641 42.629L25.5957 42.67ZM25.4591 42.6153C25.3305 42.4693 25.1835 42.3407 25.0217 42.2327C24.5449 41.9248 23.9903 41.7589 23.4227 41.7543C23.7917 42.3693 24.3111 42.5743 24.7484 42.6427C24.9852 42.6722 25.2252 42.6629 25.4591 42.6153Z" fill="#222222"/>
<path d="M24.8311 42.7112L24.9677 42.6839C25.7877 42.5745 26.4164 42.7385 26.8401 42.9435C27.0656 43.0523 27.2731 43.1952 27.4551 43.3672V43.3809L27.4004 43.4355L27.4277 43.5039L27.3594 43.5312C27.0982 43.6334 26.8198 43.6845 26.5394 43.6815C26.0474 43.6815 25.4051 43.5175 24.8994 42.8205L24.8311 42.7112ZM27.4004 43.4355L27.4277 43.5039L27.5234 43.4629L27.4551 43.3809L27.4004 43.4355ZM27.2637 43.4082C27.1139 43.2827 26.9486 43.177 26.7717 43.0939C26.2576 42.8479 25.684 42.7531 25.1181 42.8205C25.5691 43.3945 26.1157 43.5312 26.5531 43.5312C26.7913 43.5239 27.0267 43.4778 27.2501 43.3945L27.2637 43.4082Z" fill="#222222"/>
<path d="M26.7979 43.5448L26.9345 43.5174C27.7545 43.3124 28.3832 43.4218 28.8205 43.5721C29.057 43.6603 29.2783 43.7848 29.4765 43.9411L29.4355 44.0094L29.4765 44.0778C29.4545 44.0926 29.4317 44.1063 29.4082 44.1188C29.1615 44.2468 28.8923 44.3257 28.6155 44.3511C28.1099 44.4058 27.4539 44.2828 26.8799 43.6404L26.7979 43.5448ZM29.4355 44.0094L29.4765 44.0778L29.5585 44.0231L29.4902 43.9548L29.4355 44.0094ZM29.2852 44.0094L29.2305 43.9548C29.085 43.8598 28.9291 43.7818 28.7659 43.7224C28.229 43.5383 27.6509 43.5098 27.0985 43.6404C27.6042 44.1461 28.1645 44.2418 28.6018 44.1871C28.8385 44.1609 29.0693 44.0963 29.2852 43.9958V44.0094Z" fill="#222222"/>
<path d="M28.9717 44.1322L29.1083 44.0912C29.901 43.8179 30.5433 43.8589 30.9943 43.9682C31.2369 44.0374 31.4674 44.1434 31.6777 44.2826L31.6367 44.3372L31.6913 44.4056L31.664 44.4192L31.623 44.4466C31.3907 44.6 31.1308 44.7068 30.8577 44.7609C30.3657 44.8566 29.7097 44.8156 29.0673 44.2142L28.9717 44.1322ZM31.6367 44.3372L31.6913 44.4056L31.7733 44.3509L31.6913 44.2826L31.6367 44.3372ZM31.5 44.3372L31.4317 44.3099C31.3223 44.2552 31.1583 44.1732 30.9533 44.1322C30.4023 43.9972 29.8242 44.0209 29.286 44.2006C29.8327 44.6652 30.393 44.6926 30.8303 44.6106C31.0625 44.5558 31.284 44.4635 31.4863 44.3372H31.5ZM32.7163 44.4466L32.8257 44.3372C33.4407 43.7632 34.042 43.5446 34.493 43.4626C34.7466 43.4226 35.0048 43.4226 35.2583 43.4626V43.5446L35.3267 43.5719L35.313 43.5992C35.283 43.6665 35.2464 43.7306 35.2037 43.7906C35.1217 43.9136 34.985 44.0639 34.7937 44.2006C34.4247 44.5012 33.796 44.7062 32.853 44.4739L32.7163 44.4329V44.4466ZM35.2447 43.5446L35.3267 43.5719L35.354 43.4899L35.2583 43.4626V43.5446H35.2447ZM35.1217 43.6129L35.0397 43.5992C34.9167 43.5992 34.739 43.5992 34.5203 43.6266C34.124 43.6949 33.591 43.8726 33.0443 44.3509C33.8643 44.5286 34.3837 44.3236 34.698 44.0776C34.8688 43.9525 35.0129 43.7945 35.1217 43.6129Z" fill="#222222"/>
<path d="M34.8213 44.0503L34.9033 43.9409C35.1555 43.5849 35.4813 43.2872 35.8586 43.0679C36.2358 42.8486 36.6557 42.7129 37.09 42.6699H37.1446V42.7519H37.2266V42.7793C37.2065 42.8547 37.1791 42.9279 37.1446 42.9979C37.09 43.1346 36.9943 43.3123 36.8303 43.4763C36.5023 43.8316 35.9283 44.1596 34.958 44.0639L34.8213 44.0503ZM37.1446 42.7519H37.2266L37.254 42.6699H37.1446V42.7519ZM37.0353 42.8339H36.9396C36.2155 42.9426 35.5604 43.324 35.1083 43.8999C35.9556 43.9546 36.434 43.6676 36.7073 43.3669C36.851 43.2128 36.9625 43.0316 37.0353 42.8339Z" fill="#222222"/>
<path d="M36.7764 43.3949L36.831 43.2582C37.2137 42.5202 37.7057 42.1375 38.1157 41.9462C38.3486 41.8397 38.5984 41.775 38.8537 41.7549V41.8369H38.9357V41.8505C38.9284 41.92 38.9146 41.9886 38.8947 42.0556C38.8537 42.1922 38.7854 42.3699 38.6624 42.5475C38.389 42.9165 37.8834 43.2855 36.913 43.3812L36.7764 43.3949ZM38.8537 41.8369H38.9357V41.7549H38.8537V41.8369ZM38.758 41.9189L38.6624 41.9326C38.553 41.9599 38.389 42.0009 38.1977 42.0965C37.8424 42.2605 37.405 42.5749 37.0497 43.2036C37.8697 43.0942 38.307 42.7662 38.5257 42.4519C38.6397 42.2925 38.7189 42.1109 38.758 41.9189Z" fill="#222222"/>
<path d="M38.6074 42.4236L38.6484 42.2869C38.7637 41.8641 38.981 41.476 39.2813 41.1567C39.5815 40.8374 39.9555 40.5966 40.3704 40.4556L40.3978 40.5239H40.4798V40.5922C40.4832 40.833 40.4318 41.0713 40.3294 41.2892C40.1381 41.6992 39.7008 42.1639 38.7578 42.3826L38.6211 42.4236H38.6074ZM40.3978 40.5239H40.4798V40.4282L40.3841 40.4556L40.3978 40.5239ZM40.3294 40.6469L40.2338 40.6742C39.91 40.8159 39.6197 41.0242 39.3819 41.2856C39.1441 41.547 38.964 41.8556 38.8534 42.1912C39.6598 41.9726 40.0151 41.5626 40.1928 41.2209C40.278 41.0412 40.3245 40.8457 40.3294 40.6469Z" fill="#222222"/>
<path d="M40.3281 41.194V41.0573C40.3691 40.3057 40.6698 39.8 40.9568 39.4857C41.1174 39.3092 41.3069 39.1613 41.5171 39.0483H41.5308L41.5718 39.1167L41.6401 39.103L41.6675 39.1577L41.6811 39.3217C41.6811 39.4583 41.6811 39.6497 41.6401 39.8683C41.5308 40.2783 41.2301 40.7977 40.4511 41.1393L40.3281 41.194ZM41.5581 39.1167L41.6401 39.103L41.6265 39.0073L41.5308 39.0483L41.5718 39.1167H41.5581ZM41.5035 39.2397L41.4351 39.2807C41.1674 39.4702 40.9451 39.7169 40.7844 40.0029C40.6237 40.2889 40.5285 40.6071 40.5058 40.9343C41.1481 40.62 41.3941 40.1827 41.4761 39.8273C41.5228 39.635 41.5321 39.4355 41.5035 39.2397Z" fill="#222222"/>
<path d="M41.5176 39.8004V39.6637C41.543 38.8897 41.8661 38.1554 42.4196 37.6137C42.4633 37.575 42.5089 37.5385 42.5562 37.5044H42.5699L42.6246 37.559L42.6929 37.5317V37.559C42.7231 37.6341 42.746 37.7119 42.7612 37.7914C42.7886 37.928 42.8022 38.1467 42.7612 38.379C42.6929 38.8437 42.4332 39.404 41.6406 39.7457L41.5176 39.8004ZM42.6109 37.559L42.6929 37.5317L42.6656 37.436L42.5836 37.4907L42.6246 37.559H42.6109ZM42.5699 37.6957C42.429 37.8151 42.3049 37.953 42.2009 38.1057C41.9822 38.42 41.7499 38.8847 41.6952 39.5407C42.3376 39.2264 42.5426 38.748 42.6109 38.3517C42.6369 38.1323 42.623 37.9101 42.5699 37.6957Z" fill="#222222"/>
<path d="M42.6387 38.3378L42.625 38.2012C42.543 37.3128 42.7207 36.6842 42.912 36.2742C43.0204 36.0525 43.1634 35.8495 43.3357 35.6728L43.3903 35.7275L43.4723 35.7002V35.7138L43.4997 35.7685C43.595 36.0501 43.6412 36.3459 43.6363 36.6432C43.6363 37.1898 43.4723 37.8322 42.748 38.2695L42.6387 38.3378ZM43.3903 35.7275L43.4723 35.7002L43.4313 35.5908L43.3357 35.6592L43.3903 35.7275ZM43.363 35.8642L43.322 35.9188C43.2537 36.0008 43.158 36.1375 43.0487 36.3288C42.8847 36.6978 42.7207 37.2718 42.7753 38.0508C43.3357 37.6545 43.486 37.1078 43.486 36.6432C43.4795 36.3826 43.4335 36.1245 43.3493 35.8778L43.363 35.8642Z" fill="#222222"/>
<path d="M43.6087 36.4653L43.5541 36.3559C43.3862 35.9366 43.3295 35.481 43.3894 35.0332C43.4492 34.5855 43.6236 34.1608 43.8957 33.8003L43.9641 33.8549L44.0324 33.8003V33.8276C44.0785 33.8927 44.1197 33.9612 44.1554 34.0326C44.3369 34.4198 44.3911 34.8546 44.31 35.2745C44.229 35.6943 44.017 36.0777 43.7044 36.3696L43.6087 36.4653ZM43.9641 33.8549L44.0324 33.8003L43.9641 33.7183L43.8957 33.8003L43.9641 33.8549ZM43.9504 33.9916C43.8275 34.1631 43.7308 34.352 43.6634 34.5519C43.5267 34.9619 43.4447 35.5086 43.6634 36.1783C43.9271 35.9092 44.1014 35.5654 44.1626 35.1936C44.2237 34.8218 44.1687 34.4403 44.0051 34.1009C43.988 34.0639 43.9698 34.0274 43.9504 33.9916Z" fill="#222222"/>
<path d="M44.1409 34.4424L44.0862 34.3194C43.8849 33.9195 43.7892 33.4747 43.8083 33.0273C43.8275 32.58 43.9608 32.145 44.1955 31.7637V31.7501L44.2639 31.8047L44.3322 31.7501C44.347 31.7674 44.3607 31.7856 44.3732 31.8047L44.4689 31.9687C44.6859 32.3398 44.779 32.7704 44.7348 33.198C44.6905 33.6256 44.5112 34.0279 44.2229 34.3467L44.1409 34.4424ZM44.2775 31.8047L44.3322 31.7501L44.2639 31.6681L44.1955 31.7501L44.2639 31.8047H44.2775ZM44.2775 31.9414C44.1738 32.1259 44.0957 32.3236 44.0452 32.5291C43.9222 32.9391 43.9085 33.4857 44.1818 34.1417C44.4188 33.8478 44.5591 33.4878 44.5836 33.111C44.6081 32.7343 44.5155 32.3592 44.3185 32.0371C44.3012 32.0047 44.283 31.9728 44.2639 31.9414H44.2775ZM44.4415 30.6431L44.3459 30.5611C43.8795 30.1404 43.575 29.5699 43.4849 28.9484C43.4523 28.6935 43.4615 28.435 43.5122 28.1831V28.1694L43.5942 28.1831L43.6352 28.1147H43.6489C43.7214 28.1537 43.79 28.1994 43.8539 28.2514C43.9769 28.3607 44.1272 28.5111 44.2639 28.7024C44.5509 29.1124 44.7695 29.7137 44.4825 30.5201L44.4415 30.6431ZM43.5942 28.1831L43.6352 28.1147L43.5395 28.0737L43.5122 28.1694L43.5942 28.1831ZM43.6489 28.3197V28.4017C43.6215 28.5384 43.6215 28.7024 43.6489 28.9211C43.7035 29.3311 43.8812 29.8367 44.3732 30.3424C44.5645 29.6591 44.3732 29.1397 44.1409 28.7981C44.0053 28.6118 43.8389 28.45 43.6489 28.3197Z" fill="#222222"/>
<path d="M44.1 28.5933L44.0044 28.5387C43.6005 28.3268 43.2622 28.0086 43.0261 27.6183C42.7901 27.2281 42.6652 26.7807 42.665 26.3247V26.311H42.747L42.7744 26.2427H42.8017C42.8779 26.2828 42.9509 26.3284 43.0204 26.3793C43.2032 26.4868 43.3729 26.6152 43.526 26.762C43.895 27.131 44.223 27.6913 44.1274 28.4703L44.1 28.5933ZM42.7334 26.311L42.7744 26.2427L42.665 26.188V26.311H42.747H42.7334ZM42.829 26.4477V26.5297C42.8427 26.6663 42.8837 26.8577 42.9657 27.0763C43.1024 27.4863 43.3757 27.9647 43.977 28.3337C44.018 27.664 43.731 27.1993 43.4167 26.8713C43.2417 26.7032 43.0439 26.5606 42.829 26.4477Z" fill="#222222"/>
<path d="M43.349 26.7072L43.2396 26.6662C42.6478 26.418 42.1634 25.9675 41.873 25.3952C41.7588 25.1633 41.6849 24.9138 41.6543 24.6572V24.6435H41.7363V24.5615H41.7636L41.8183 24.5752C42.0847 24.6455 42.3352 24.7661 42.5563 24.9305C42.9526 25.2312 43.349 25.7505 43.349 26.5842V26.7208V26.7072ZM41.75 24.6298V24.5615L41.668 24.5342V24.6435H41.75V24.6298ZM41.8456 24.7392V24.8348C41.8866 24.9578 41.9276 25.1218 42.0233 25.3268C42.201 25.6958 42.5426 26.1468 43.1986 26.4612C43.1913 26.1877 43.1208 25.9196 42.9928 25.6778C42.8648 25.436 42.6827 25.227 42.4606 25.0672C42.2745 24.9257 42.0668 24.8149 41.8456 24.7392Z" fill="#222222"/>
<path d="M42.1057 24.835L41.9827 24.794C41.2174 24.507 40.7801 24.0833 40.5341 23.728C40.4012 23.5407 40.2996 23.333 40.2334 23.113V23.0993L40.3154 23.0857V23.0037C40.3427 23.002 40.3701 23.002 40.3974 23.0037C40.6725 23.0289 40.9409 23.1029 41.1901 23.2223C41.6274 23.441 42.0784 23.8783 42.0921 24.712V24.835H42.1057ZM40.3154 23.0857V23.0037H40.2197L40.2334 23.0993L40.3154 23.0857ZM40.4247 23.1677L40.4384 23.2223C40.4794 23.3317 40.5477 23.482 40.6707 23.6323C40.8894 23.9467 41.2721 24.3157 41.9281 24.589C41.8734 23.9057 41.4907 23.564 41.1081 23.359C40.8927 23.257 40.6617 23.1923 40.4247 23.1677Z" fill="#222222"/>
<path d="M40.9444 23.2086H40.8351C40.4139 23.1899 40.0033 23.0711 39.6373 22.8619C39.2712 22.6527 38.9604 22.3593 38.7304 22.006C38.7211 21.9925 38.712 21.9788 38.7031 21.965L38.7714 21.924V21.842C38.8621 21.8304 38.9534 21.8258 39.0448 21.8283C39.2088 21.8283 39.4274 21.8283 39.6734 21.883C40.1654 22.0196 40.7121 22.3203 40.9171 23.0993L40.9444 23.2086ZM38.7714 21.924V21.842L38.6484 21.8556L38.7031 21.9513L38.7714 21.924ZM38.9081 21.9923C39.0189 22.1561 39.1523 22.3033 39.3044 22.4296C39.6051 22.703 40.0698 22.9763 40.7258 23.031C40.5208 22.4023 40.0561 22.1426 39.6324 22.047C39.3954 21.9909 39.1509 21.9724 38.9081 21.9923Z" fill="#222222"/>
<path d="M39.6299 21.9654H39.4932C38.6049 21.9791 38.0309 21.6921 37.6756 21.4051C37.4847 21.2405 37.327 21.0411 37.2109 20.8174H37.1972L37.2656 20.7764V20.6944C37.3471 20.683 37.4293 20.6784 37.5116 20.6808C37.6756 20.6808 37.8942 20.6808 38.1266 20.7354C38.6186 20.8584 39.1926 21.1454 39.5752 21.8424L39.6299 21.9654ZM37.2656 20.7764V20.6944L37.1562 20.7081L37.1972 20.8038L37.2656 20.7764ZM37.4023 20.8448L37.4432 20.9131C37.5116 21.0088 37.6209 21.1454 37.7849 21.2821C38.0856 21.5418 38.5912 21.7878 39.3566 21.8014C39.0149 21.2411 38.5093 20.9951 38.0993 20.8994C37.8707 20.8479 37.636 20.8295 37.4023 20.8448Z" fill="#222222"/>
<path d="M37.9364 20.7753L37.7998 20.8026C37.145 20.9414 36.4627 20.8597 35.8591 20.5703C35.6249 20.4518 35.4124 20.2947 35.2304 20.1056L35.2851 20.051L35.2578 19.969H35.2851C35.3655 19.9407 35.4477 19.9179 35.5311 19.9006C35.6951 19.8733 35.9411 19.8323 36.1871 19.846C36.7201 19.8596 37.3761 20.0373 37.8544 20.666L37.9364 20.7753ZM35.2851 20.051L35.2578 19.969L35.1484 20.01L35.2168 20.092L35.2851 20.051ZM35.4354 20.092C35.5839 20.2331 35.7548 20.3486 35.9411 20.4336C36.3101 20.625 36.8704 20.7753 37.6494 20.666C37.4659 20.4595 37.2407 20.2943 36.9886 20.1812C36.7365 20.0681 36.4634 20.0098 36.1871 20.01C35.934 20.0029 35.6811 20.0305 35.4354 20.092Z" fill="#222222"/>
<path d="M36.0917 19.874L35.9551 19.915C35.1351 20.2294 34.4927 20.1474 34.0554 19.9834C33.8172 19.8886 33.5993 19.7495 33.4131 19.5734L33.4677 19.5187L33.4267 19.4504L33.4404 19.4367C33.5101 19.398 33.5833 19.366 33.6591 19.341C33.7957 19.2864 34.0144 19.2317 34.2604 19.2044C34.7524 19.1634 35.3947 19.2454 35.9961 19.792L36.0917 19.874ZM33.4677 19.5187L33.4267 19.4504L33.3311 19.4914L33.3994 19.5734L33.4677 19.5187ZM33.6044 19.5324L33.6727 19.587C33.7684 19.6554 33.9187 19.751 34.1101 19.833C34.4927 19.9697 35.0394 20.0517 35.7774 19.8194C35.5707 19.6458 35.3308 19.5162 35.0723 19.4387C34.8138 19.3611 34.5421 19.3372 34.2741 19.3684C34.0395 19.3897 33.8094 19.4449 33.5907 19.5324H33.6044Z" fill="#222222"/>
<path d="M33.9872 19.3819L33.8505 19.4366C33.0715 19.7646 32.4565 19.7099 32.0328 19.5732C31.7992 19.5005 31.5813 19.3846 31.3905 19.2316L31.4315 19.1632C31.4175 19.1406 31.4039 19.1178 31.3905 19.0949H31.4042L31.4588 19.0676L31.6092 18.9992C31.7458 18.9446 31.9508 18.8762 32.1832 18.8489C32.6478 18.7806 33.2765 18.8352 33.8778 19.2999L33.9872 19.3819ZM31.4315 19.1632L31.3905 19.0949L31.3085 19.1496L31.3768 19.2179L31.4315 19.1632ZM31.5818 19.1769L31.6365 19.2179C31.7322 19.2862 31.8825 19.3682 32.0738 19.4366C32.4428 19.5459 32.9758 19.6006 33.6592 19.3409C33.1398 18.9856 32.6068 18.9446 32.1968 18.9992C31.9846 19.0298 31.7776 19.0896 31.5818 19.1769ZM28.0832 19.4229L28.0558 19.5186C27.7825 20.2976 27.2768 20.6256 26.8258 20.7486C26.5633 20.8201 26.2892 20.8387 26.0195 20.8032H26.0058V20.7349L25.9375 20.7212V20.7076V20.6529L25.9922 20.5026C26.0332 20.3659 26.1152 20.2019 26.2518 20.0379C26.5252 19.7099 27.0445 19.3819 27.9738 19.4092H28.0832V19.4229ZM26.0195 20.7349L25.9375 20.7212V20.7896L26.0058 20.8032V20.7349H26.0195ZM26.1152 20.6666C26.3407 20.686 26.5679 20.6628 26.7848 20.5982C27.1675 20.4889 27.6048 20.2292 27.8645 19.5732C27.0445 19.5732 26.6072 19.8602 26.3612 20.1472C26.2418 20.3 26.1578 20.4774 26.1152 20.6666Z" fill="#222222"/>
<path d="M30.1338 19.1089L30.0655 19.2046C29.8721 19.5671 29.5609 19.8527 29.1831 20.0142C28.8054 20.1758 28.3838 20.2035 27.9882 20.0929C27.909 20.0706 27.8314 20.0432 27.7558 20.0109L27.7832 19.9426L27.7148 19.9153V19.9016C27.7397 19.8345 27.7718 19.7704 27.8105 19.7103C27.8788 19.5873 28.0018 19.4369 28.1795 19.3003C28.5212 19.0406 29.1088 18.8493 30.0108 19.0816L30.1202 19.1089H30.1338ZM27.7832 19.9289L27.7148 19.9153L27.6875 19.9836L27.7558 20.0109L27.7832 19.9426V19.9289ZM27.8925 19.8879L28.0292 19.9289C28.1658 19.9699 28.3572 19.9973 28.5758 19.9836C28.9722 19.9699 29.4642 19.8059 29.8742 19.2046C29.0542 19.0269 28.5758 19.2046 28.2752 19.4369C28.1162 19.5575 27.9856 19.7115 27.8925 19.8879Z" fill="#222222"/>
<path d="M30.8697 18.2068V19.8878C30.8697 20.1612 30.6374 20.4072 30.3367 20.4072C30.199 20.4072 30.0669 20.3524 29.9695 20.2551C29.8721 20.1577 29.8174 20.0256 29.8174 19.8878V18.2068C29.8174 18.0673 29.8728 17.9334 29.9715 17.8348C30.0702 17.7361 30.204 17.6807 30.3435 17.6807C30.4831 17.6807 30.6169 17.7361 30.7156 17.8348C30.8143 17.9334 30.8697 18.0673 30.8697 18.2068ZM30.3367 17.8515C30.2425 17.8515 30.1521 17.8889 30.0855 17.9556C30.0188 18.0222 29.9814 18.1126 29.9814 18.2068V19.8878C29.9814 20.0792 30.1317 20.2432 30.3367 20.2432C30.5417 20.2432 30.7057 20.0792 30.7057 19.8878V18.2068C30.7058 18.159 30.6961 18.1116 30.6774 18.0676C30.6587 18.0236 30.6313 17.9838 30.5969 17.9506C30.5624 17.9174 30.5216 17.8916 30.4769 17.8745C30.4322 17.8575 30.3845 17.8497 30.3367 17.8515ZM45.3427 31.1765H43.4704C43.3326 31.1765 43.2005 31.1218 43.1031 31.0244C43.0058 30.927 42.951 30.7949 42.951 30.6572C42.951 30.3838 43.1834 30.1378 43.4704 30.1378H45.3427C45.616 30.1378 45.862 30.3702 45.862 30.6572C45.862 30.9442 45.6297 31.1765 45.3427 31.1765ZM45.698 30.6572C45.698 30.5629 45.6606 30.4725 45.594 30.4059C45.5273 30.3393 45.4369 30.3018 45.3427 30.3018H43.4704C43.4226 30.3 43.3749 30.3078 43.3302 30.3248C43.2855 30.3419 43.2447 30.3678 43.2102 30.4009C43.1758 30.4341 43.1484 30.4739 43.1297 30.5179C43.111 30.562 43.1013 30.6093 43.1014 30.6572C43.1014 30.8622 43.2654 31.0125 43.4704 31.0125H45.3427C45.534 31.0125 45.698 30.8622 45.698 30.6572Z" fill="black"/>
<path d="M19.5548 30.3013C19.7598 30.3013 19.9238 30.4653 19.9238 30.6566C19.9238 30.8616 19.7598 31.0119 19.5548 31.0119H17.6961C17.6006 31.012 17.5088 30.975 17.4399 30.9087C17.3711 30.8425 17.3307 30.7521 17.3271 30.6566C17.3271 30.4653 17.4911 30.3013 17.6961 30.3013H19.5548Z" fill="white"/>
<path d="M19.5548 31.1768H17.6961C17.6267 31.1787 17.5577 31.1666 17.4931 31.1413C17.4286 31.116 17.3697 31.0781 17.32 31.0297C17.2703 30.9812 17.2308 30.9234 17.2039 30.8595C17.1769 30.7955 17.1631 30.7269 17.1631 30.6575C17.1631 30.3842 17.4091 30.1382 17.6961 30.1382H19.5548C19.8554 30.1382 20.0877 30.3705 20.0877 30.6575C20.0877 30.9445 19.8554 31.1768 19.5548 31.1768ZM19.9238 30.6575C19.9238 30.6097 19.9142 30.5623 19.8955 30.5183C19.8767 30.4743 19.8493 30.4345 19.8149 30.4013C19.7804 30.3681 19.7396 30.3422 19.6949 30.3252C19.6502 30.3082 19.6026 30.3003 19.5548 30.3022H17.6961C17.6483 30.3003 17.6006 30.3082 17.5559 30.3252C17.5112 30.3422 17.4704 30.3681 17.4359 30.4013C17.4015 30.4345 17.3741 30.4743 17.3554 30.5183C17.3367 30.5623 17.327 30.6097 17.3271 30.6575C17.3271 30.8625 17.4911 31.0128 17.6961 31.0128H19.5548C19.7598 31.0128 19.9238 30.8625 19.9238 30.6575ZM45.3437 32.2155H43.4714C43.3337 32.2155 43.2016 32.1608 43.1042 32.0634C43.0068 31.966 42.9521 31.8339 42.9521 31.6962C42.9521 31.4092 43.1844 31.1768 43.4714 31.1768H45.3437C45.6171 31.1768 45.8631 31.4092 45.8631 31.6962C45.8631 31.9695 45.6307 32.2155 45.3437 32.2155ZM45.6991 31.6962C45.6991 31.6019 45.6616 31.5116 45.595 31.4449C45.5283 31.3783 45.438 31.3408 45.3437 31.3408H43.4714C43.4236 31.339 43.3759 31.3468 43.3312 31.3639C43.2865 31.3809 43.2457 31.4068 43.2113 31.44C43.1768 31.4731 43.1494 31.5129 43.1307 31.557C43.112 31.601 43.1024 31.6483 43.1024 31.6962C43.1024 31.8875 43.2664 32.0515 43.4714 32.0515H45.3437C45.5351 32.0515 45.6991 31.8875 45.6991 31.6962Z" fill="black"/>
<path d="M19.5548 32.2149H17.6961C17.6267 32.2168 17.5577 32.2047 17.4931 32.1794C17.4286 32.1541 17.3697 32.1162 17.32 32.0677C17.2703 32.0193 17.2308 31.9615 17.2039 31.8976C17.1769 31.8336 17.1631 31.765 17.1631 31.6956C17.1631 31.4086 17.4091 31.1763 17.6961 31.1763H19.5548C19.8554 31.1763 20.0877 31.4086 20.0877 31.6956C20.0877 31.9689 19.8554 32.2149 19.5548 32.2149ZM19.9238 31.6956C19.9238 31.6478 19.9142 31.6004 19.8955 31.5564C19.8767 31.5124 19.8493 31.4726 19.8149 31.4394C19.7804 31.4062 19.7396 31.3803 19.6949 31.3633C19.6502 31.3463 19.6026 31.3384 19.5548 31.3403H17.6961C17.6483 31.3384 17.6006 31.3463 17.5559 31.3633C17.5112 31.3803 17.4704 31.4062 17.4359 31.4394C17.4015 31.4726 17.3741 31.5124 17.3554 31.5564C17.3367 31.6004 17.327 31.6478 17.3271 31.6956C17.3271 31.8869 17.4911 32.0509 17.6961 32.0509H19.5548C19.7598 32.0509 19.9238 31.8869 19.9238 31.6956Z" fill="black"/>
<path d="M45.3448 32.3784C45.5362 32.3784 45.7002 32.5288 45.7002 32.7338C45.7002 32.9251 45.5362 33.0891 45.3448 33.0891H43.4725C43.4247 33.0909 43.377 33.0831 43.3323 33.0661C43.2876 33.049 43.2468 33.0231 43.2124 32.99C43.1779 32.9568 43.1505 32.917 43.1318 32.873C43.1131 32.8289 43.1035 32.7816 43.1035 32.7338C43.1035 32.5288 43.2675 32.3784 43.4725 32.3784H45.3448Z" fill="white"/>
<path d="M45.3448 33.2403H43.4725C43.3371 33.2404 43.207 33.1875 43.11 33.0931C43.013 32.9986 42.9567 32.87 42.9531 32.7347C42.9531 32.4477 43.1855 32.2153 43.4725 32.2153H45.3448C45.6181 32.2153 45.8641 32.4477 45.8641 32.7347C45.8641 33.008 45.6318 33.254 45.3448 33.254V33.2403ZM45.7001 32.7347C45.7001 32.6404 45.6627 32.55 45.596 32.4834C45.5294 32.4168 45.439 32.3793 45.3448 32.3793H43.4725C43.4247 32.3775 43.377 32.3853 43.3323 32.4024C43.2876 32.4194 43.2468 32.4453 43.2123 32.4784C43.1779 32.5116 43.1505 32.5514 43.1318 32.5955C43.113 32.6395 43.1034 32.6868 43.1035 32.7347C43.1035 32.926 43.2675 33.09 43.4725 33.09H45.3448C45.5361 33.09 45.7001 32.926 45.7001 32.7347Z" fill="black"/>
<path d="M19.5548 32.3784C19.7598 32.3784 19.9238 32.5288 19.9238 32.7338C19.9238 32.9251 19.7598 33.0891 19.5548 33.0891H17.6961C17.6483 33.0909 17.6007 33.0831 17.556 33.0661C17.5113 33.049 17.4705 33.0231 17.436 32.99C17.4016 32.9568 17.3742 32.917 17.3554 32.873C17.3367 32.8289 17.3271 32.7816 17.3271 32.7338C17.3271 32.5288 17.4911 32.3784 17.6961 32.3784H19.5548Z" fill="white"/>
<path d="M19.5548 33.2403H17.6961C17.6279 33.2421 17.56 33.2305 17.4963 33.2061C17.4326 33.1816 17.3743 33.1449 17.3248 33.0979C17.2753 33.051 17.2356 32.9947 17.2078 32.9324C17.1801 32.8701 17.1649 32.8029 17.1631 32.7347C17.1631 32.4477 17.4091 32.2153 17.6961 32.2153H19.5548C19.8554 32.2153 20.0877 32.4477 20.0877 32.7347C20.0877 33.008 19.8554 33.254 19.5548 33.254V33.2403ZM19.9238 32.7347C19.9238 32.6868 19.9142 32.6395 19.8955 32.5955C19.8767 32.5514 19.8493 32.5116 19.8149 32.4784C19.7804 32.4453 19.7396 32.4194 19.6949 32.4024C19.6502 32.3853 19.6026 32.3775 19.5548 32.3793H17.6961C17.6483 32.3775 17.6006 32.3853 17.5559 32.4024C17.5112 32.4194 17.4704 32.4453 17.4359 32.4784C17.4015 32.5116 17.3741 32.5514 17.3554 32.5955C17.3367 32.6395 17.327 32.6868 17.3271 32.7347C17.3271 32.926 17.4911 33.09 17.6961 33.09H19.5548C19.7598 33.09 19.9238 32.926 19.9238 32.7347Z" fill="black"/>
<path d="M24.666 28.1012V25.9556L26.1283 27.3496L24.666 28.1012ZM25.9507 30.4656L26.8527 33.3766L27.7 33.6909L26.6887 30.7526L25.9507 30.4792V30.4656ZM28.2467 37.8182L27.29 34.7432L28.1783 35.0849L29.2307 38.2009L28.2467 37.8182ZM28.6703 39.1849L28.9983 40.2372L30.0507 40.5926L29.709 39.5812L28.6703 39.1849Z" fill="#222222"/>
<path d="M25.5135 29.0988L26.2242 29.3721L25.5135 27.3085L25.0762 27.6638L25.5135 29.0988ZM34.1918 26.1878C33.2215 25.0671 31.2262 25.6411 31.2262 25.6411V26.4611C31.8138 26.2425 33.2215 26.0101 34.1918 26.8711V26.1878ZM34.1918 27.4315C32.9208 26.5705 31.7592 27.0215 31.3492 27.3905L31.3902 27.9918C32.3742 27.2811 33.6588 27.6091 34.1918 27.8551V27.4315ZM38.2508 30.8208C36.6928 30.9711 34.7795 32.1874 34.0278 32.7751V31.8184C35.2391 30.9388 36.6222 30.3241 38.0868 30.0144C38.1142 30.2878 38.2098 30.6568 38.2508 30.8208ZM37.6768 27.9098C36.4195 28.1284 34.8205 29.0305 34.1918 29.4678V28.7845C35.2032 27.9645 36.9252 27.2401 37.6768 26.9941C37.6426 27.2984 37.6426 27.6055 37.6768 27.9098Z" fill="#222222"/>
<path d="M34.0018 32.5974C33.9471 30.9301 33.9471 28.6341 34.1385 26.1741L34.2478 26.1878C34.0325 29.2134 34.0325 32.2505 34.2478 35.2761V35.3171H34.1931L34.1385 35.3308V35.2761C34.1171 35.0486 34.0989 34.8208 34.0838 34.5928C34.0565 34.1144 34.0155 33.4311 34.0018 32.5974ZM28.2482 33.9778C27.7015 32.2148 26.9225 29.9598 25.9658 27.9234L26.0478 27.8824C27.2576 30.5327 28.2273 33.2862 28.9451 36.1098C29.0205 36.3824 29.0934 36.6558 29.1638 36.9298V36.9434L29.1228 36.9571L29.0818 36.9708V36.9571V36.9161C29.0136 36.6506 28.9407 36.3863 28.8632 36.1234L28.2482 33.9778ZM38.5528 31.7774C37.9515 30.2468 37.3911 28.0874 37.5825 25.6274H37.7055C37.4951 28.6378 38.2672 31.6351 39.9058 34.1691L39.8921 34.1964H39.8648L39.8238 34.2374C39.8096 34.2243 39.7959 34.2106 39.7828 34.1964C39.6485 33.9985 39.5253 33.7931 39.4138 33.5814C39.1815 33.1714 38.8671 32.5564 38.5528 31.7774Z" fill="#222222"/>
<path fill-rule="evenodd" clip-rule="evenodd" d="M26.0068 27.9102C27.1412 27.1449 29.1638 26.0242 31.5555 25.5596C31.6922 27.4729 31.6922 29.3862 31.6922 29.3862C30.8448 29.5912 28.8222 30.2609 27.3872 31.2176L26.0068 27.9102ZM29.0818 29.9739C29.9428 29.9739 30.6262 29.2906 30.6262 28.4706C30.6262 27.6232 29.9428 26.9536 29.0818 26.9536C28.2345 26.9536 27.5512 27.6369 27.5512 28.4569C27.5512 29.3042 28.2345 29.9739 29.0818 29.9739ZM30.6262 26.0652L30.7218 26.3386H31.0088L30.7765 26.5162L30.8585 26.7896L30.6262 26.6256L30.3938 26.7896L30.4758 26.5162L30.2435 26.3522H30.5305L30.6262 26.0789V26.0652ZM31.2685 28.8806L31.1318 28.6346L31.0772 28.9079L30.8038 28.9626L31.0498 29.0992L31.0088 29.3726L31.2138 29.1676L31.4872 29.3042L31.3505 29.0446L31.5555 28.8396L31.2685 28.8806ZM27.6742 29.9739L27.8655 30.1926L28.1388 30.0832L27.9885 30.3292L28.1662 30.5479L27.8928 30.4796L27.7288 30.7256L27.7152 30.4386L27.4282 30.3566L27.7015 30.2609L27.6742 29.9739ZM26.8132 27.9512L26.6218 27.7326L26.6492 28.0196L26.3758 28.1289L26.6492 28.1972L26.6765 28.4842L26.8268 28.2519L27.1138 28.3202L26.9225 28.1016L27.0865 27.8556L26.8132 27.9512Z" fill="#E7212E"/>
<path d="M29.1221 29.2224C29.0264 29.5094 29.1768 29.523 29.2861 29.4957C29.7781 29.2224 30.1744 28.1017 30.2564 27.6644H29.2998V27.514C29.2041 27.473 29.0264 27.432 28.9581 27.5824C28.9034 27.7464 28.8078 27.7874 28.7668 27.7874C28.6574 27.7874 28.7258 27.5824 28.6028 27.5824C28.4388 27.6234 28.4251 27.76 28.4388 27.8284C28.0288 27.9104 28.2338 28.1427 28.1108 28.1837C28.0187 28.2215 27.9351 28.2773 27.8648 28.3477C27.7418 28.58 28.0288 28.703 28.1928 28.498C28.3568 28.3067 28.4388 28.498 28.5208 28.662C28.5891 28.7987 28.7668 28.744 28.7668 28.744C28.8214 29.0584 29.0401 29.1814 29.1221 29.2224Z" fill="#1D2217"/>
<path d="M21.6052 31.0122C21.8102 31.0395 21.9742 31.1352 22.0972 31.3128C22.2066 31.4905 22.2749 31.7228 22.2749 32.0235C22.2749 32.3515 22.2066 32.6112 22.0426 32.7888C21.9585 32.887 21.8535 32.965 21.7352 33.0171C21.6169 33.0691 21.4884 33.0939 21.3592 33.0895H21.2499C21.082 33.0946 20.9162 33.0519 20.7716 32.9665C20.629 32.8837 20.5147 32.7599 20.4436 32.6112C20.368 32.439 20.3306 32.2525 20.3342 32.0645C20.3342 31.7638 20.3889 31.5178 20.4982 31.3538C20.5504 31.2658 20.6217 31.1906 20.7069 31.1339C20.7921 31.0771 20.8889 31.0402 20.9902 31.0258V31.5452C20.8672 31.5588 20.7852 31.6135 20.7169 31.6818C20.6562 31.7947 20.6323 31.9237 20.6486 32.0508C20.6486 32.2285 20.7032 32.3515 20.7852 32.4335C20.8946 32.5292 21.0312 32.5702 21.2362 32.5702H21.3729C21.5779 32.5565 21.7282 32.5155 21.8239 32.4335C21.9196 32.3378 21.9606 32.2148 21.9606 32.0235C21.9606 31.8732 21.9196 31.7502 21.8649 31.6682C21.8366 31.6286 21.7998 31.5958 21.7573 31.5721C21.7147 31.5485 21.6675 31.5346 21.6189 31.5315V31.0122H21.6052ZM22.1109 34.7842C22.2042 34.7581 22.3023 34.7543 22.3973 34.7733C22.4923 34.7923 22.5815 34.8335 22.6576 34.8935C22.8489 35.0302 22.9856 35.2215 23.0949 35.4948C23.2179 35.7955 23.2315 36.0688 23.1495 36.3012C23.1058 36.4186 23.0365 36.5249 22.9467 36.6123C22.8569 36.6998 22.7488 36.7662 22.6302 36.8068L22.5209 36.8478C22.3679 36.9196 22.1966 36.9423 22.0303 36.9129C21.8639 36.8836 21.7107 36.8036 21.5916 36.6838C21.4578 36.5481 21.3552 36.3849 21.2909 36.2055C21.1888 35.9786 21.1555 35.7268 21.1952 35.4812C21.2139 35.3832 21.2543 35.2906 21.3135 35.2102C21.3726 35.1298 21.4489 35.0636 21.5369 35.0165L21.7282 35.4948C21.6189 35.5495 21.5505 35.6315 21.5369 35.7272C21.5095 35.8092 21.5369 35.9322 21.5916 36.0825C21.6462 36.2465 21.7282 36.3558 21.8649 36.3968C21.9742 36.4515 22.1382 36.4378 22.3159 36.3695L22.4525 36.3148C22.6302 36.2328 22.7532 36.1372 22.8079 36.0415C22.8762 35.9185 22.8625 35.7682 22.8079 35.6178C22.7686 35.4933 22.6924 35.3836 22.5892 35.3035C22.5483 35.2795 22.5027 35.2646 22.4555 35.2599C22.4084 35.2551 22.3607 35.2607 22.3159 35.2762L22.1109 34.7842ZM21.0859 27.7459L22.8626 28.5932L23.0949 28.1149L22.3432 27.7595L22.4799 27.4999C22.5209 27.4042 22.5756 27.3495 22.6302 27.3222C22.696 27.2956 22.7695 27.2956 22.8352 27.3222L23.1769 27.4725L23.2862 27.5135H23.3955L23.6552 26.9942H23.6279C23.6085 27.0085 23.5862 27.0184 23.5626 27.0231C23.539 27.0278 23.5146 27.0273 23.4912 27.0215C23.3687 26.9875 23.2497 26.9417 23.1359 26.8849C23.0999 26.8699 23.0635 26.8562 23.0265 26.8439C22.9172 26.8029 22.8216 26.8029 22.7532 26.8439C22.6617 26.8954 22.5861 26.971 22.5346 27.0625C22.5756 26.9259 22.5756 26.7892 22.5346 26.6935C22.4836 26.5887 22.3961 26.5061 22.2886 26.4612C22.1519 26.3792 22.0015 26.3792 21.8785 26.4612C21.7214 26.5588 21.5975 26.7018 21.5232 26.8712L21.0859 27.7459ZM22.0972 27.6365L21.5916 27.4042L21.7009 27.1719C21.8102 26.9532 21.9469 26.8849 22.1109 26.9532C22.2065 27.0079 22.2476 27.0625 22.2749 27.1445C22.2773 27.2506 22.2488 27.355 22.1929 27.4452L22.0972 27.6365ZM21.4686 30.0965L21.1269 30.0008C21.0488 29.9759 20.975 29.939 20.9082 29.8915C20.8629 29.857 20.8294 29.8093 20.8126 29.7548C20.7935 29.6786 20.7935 29.5988 20.8126 29.5225C20.8286 29.452 20.8614 29.3864 20.9082 29.3312C20.9462 29.2834 20.9992 29.2497 21.0586 29.2355C21.1269 29.2082 21.1952 29.2082 21.3046 29.2355C21.6159 29.2715 21.92 29.3544 22.2066 29.4815C22.2519 29.516 22.2853 29.5638 22.3022 29.6182V29.8368C22.2862 29.9115 22.2535 29.9816 22.2066 30.0419C22.1673 30.0882 22.1148 30.1216 22.0562 30.1375C21.9747 30.1501 21.8917 30.1501 21.8102 30.1375C21.7146 30.1375 21.6052 30.1102 21.4686 30.0828V30.0965ZM21.3319 30.6705L21.7692 30.7389C21.9059 30.7389 22.0152 30.7115 22.1245 30.6705C22.2382 30.6113 22.3329 30.5213 22.3979 30.4108C22.4799 30.3015 22.5345 30.1375 22.5892 29.9052C22.6302 29.6865 22.6439 29.4952 22.6302 29.3585C22.6164 29.2385 22.569 29.1248 22.4935 29.0305C22.4128 28.9372 22.3092 28.8666 22.1929 28.8255C21.9234 28.7139 21.6368 28.6491 21.3456 28.6342C21.2089 28.6342 21.0996 28.6478 20.9902 28.7025C20.8783 28.758 20.7838 28.8431 20.7169 28.9485C20.6349 29.0715 20.5666 29.2355 20.5119 29.4542C20.4709 29.6729 20.4572 29.8642 20.4846 30.0008C20.4982 30.1375 20.5529 30.2605 20.6212 30.3425C20.7032 30.4382 20.7989 30.5065 20.9219 30.5475L21.3319 30.6705ZM22.2066 25.6549L23.8465 26.8302L24.1609 26.4065L22.5209 25.2312L22.2066 25.6549ZM40.7112 32.8572L42.7339 33.0212L42.7885 32.4745L40.7659 32.3105L40.7112 32.8572ZM29.6139 20.9125L29.8599 22.8942L30.4065 22.8259L30.1469 20.8442L29.6002 20.9125H29.6139ZM22.9445 24.6299L24.4479 26.0649L24.7895 25.6685L23.6962 24.6709L25.2679 25.2175L25.8419 24.6435L24.3385 23.2222L23.9285 23.5912L24.8852 24.5069L23.5185 24.0559L22.9445 24.6435V24.6299ZM26.6892 22.1972L26.1152 22.5662L26.9899 23.8919L26.5389 24.1789L25.6505 22.8669L25.0902 23.2222L24.8852 22.9215L26.4842 21.8965L26.6892 22.1972ZM40.9299 37.3398L41.2305 36.7385L39.7955 36.0278L40.0415 35.5495L41.4765 36.2465L41.7772 35.6588L42.1052 35.8092L41.2579 37.5038L40.9299 37.3398ZM29.4909 22.9899L28.9852 23.1539L28.7119 22.3475L27.9602 22.5935L28.2199 23.3862L27.7005 23.5502L27.0719 21.6369L27.5912 21.4729L27.8372 22.2382L28.6025 21.9922L28.3565 21.2405L28.8759 21.0765L29.4909 22.9899ZM32.1969 22.4159H31.3905L31.2539 22.7985H30.6252L31.5272 20.7212H32.0739L32.9759 22.7985H32.3472L32.2105 22.4159H32.1969ZM31.5409 22.0195H32.0602L31.7869 21.3089L31.5409 22.0195ZM40.0689 27.5135L39.6862 26.8302L39.2762 26.8849L38.9755 26.3382L41.2579 26.1332L41.5175 26.6115L40.0825 28.3745L39.7819 27.8279L40.0552 27.5135H40.0689ZM40.0962 26.7619L40.3422 27.2129L40.8615 26.6389L40.0962 26.7619ZM38.9482 37.8592L39.4539 37.2442L39.2352 36.8888L39.6315 36.4105L40.7249 38.3922L40.3695 38.8158L38.1555 38.2008L38.5655 37.7225L38.9482 37.8592ZM39.6725 37.5858L39.3445 37.9958L40.0825 38.2418L39.6725 37.5858ZM34.9985 23.4135L34.4655 23.2495L34.0829 21.8009L33.6729 22.9899L33.1535 22.8122L33.7959 20.8989L34.3289 21.0765L34.7115 22.5252L35.1215 21.3362L35.6409 21.5139L34.9985 23.4272V23.4135ZM36.7069 23.7142C36.7212 23.6868 36.7287 23.6563 36.7287 23.6254C36.7287 23.5944 36.7212 23.5639 36.7069 23.5365C36.6566 23.4367 36.5921 23.3446 36.5155 23.2632C36.4238 23.1772 36.3371 23.0859 36.2559 22.9899C36.0645 22.7165 36.0235 22.4979 36.1192 22.3065C36.1875 22.2109 36.2695 22.1425 36.3789 22.1152C36.5031 22.0777 36.6349 22.073 36.7615 22.1015C37.0692 22.1663 37.3474 22.3294 37.5542 22.5662C37.6499 22.6755 37.6909 22.7985 37.7182 22.9079C37.7319 23.0445 37.7182 23.1402 37.6499 23.2495L37.1579 22.9762C37.1989 22.8942 37.2125 22.8395 37.1715 22.7575C37.1384 22.6816 37.0806 22.619 37.0075 22.5799C36.9342 22.5331 36.8485 22.5093 36.7615 22.5115C36.6932 22.5115 36.6522 22.5389 36.6249 22.5935C36.5975 22.6345 36.5975 22.6892 36.6249 22.7575L36.8572 23.0309C36.9802 23.1675 37.0759 23.2632 37.1305 23.3725C37.2945 23.6049 37.3082 23.8099 37.1989 24.0012C37.1564 24.072 37.0963 24.1306 37.0245 24.1713C36.9526 24.2121 36.8715 24.2335 36.7889 24.2335C36.5667 24.2349 36.3488 24.1733 36.1602 24.0559C36.0037 23.9681 35.8648 23.8523 35.7502 23.7142C35.6563 23.6058 35.5947 23.4732 35.5725 23.3315C35.5584 23.2072 35.5873 23.0818 35.6545 22.9762L36.1465 23.2495C36.0919 23.3589 36.0782 23.4409 36.1055 23.5229C36.1329 23.5912 36.2149 23.6595 36.3379 23.7415C36.4028 23.7846 36.4786 23.8083 36.5565 23.8099C36.6249 23.8099 36.6795 23.7689 36.7069 23.7142ZM40.9845 34.5928C41.0529 34.5928 41.1212 34.5928 41.1622 34.5245C41.2032 34.4835 41.2715 34.3878 41.3399 34.2512L41.5175 33.9232C41.6952 33.6498 41.9002 33.5132 42.1189 33.5678C42.2419 33.5815 42.3239 33.6362 42.3922 33.7182C42.4742 33.8138 42.5289 33.9232 42.5289 34.0735C42.5827 34.3825 42.5297 34.7007 42.3785 34.9755C42.315 35.0906 42.2203 35.1853 42.1052 35.2488C41.999 35.2999 41.8788 35.3143 41.7635 35.2898L41.8592 34.7432C41.9412 34.7432 41.9959 34.7432 42.0642 34.6885C42.1244 34.6302 42.163 34.553 42.1735 34.4698C42.19 34.387 42.1804 34.3011 42.1462 34.2238C42.1189 34.1555 42.0779 34.1282 42.0232 34.1145C41.9685 34.1145 41.9139 34.1282 41.8729 34.1828C41.7949 34.2783 41.7305 34.3841 41.6815 34.4972C41.6132 34.6338 41.5449 34.7705 41.4629 34.8662C41.2989 35.0848 41.1075 35.1805 40.8889 35.1395C40.804 35.1282 40.7238 35.0944 40.6564 35.0415C40.5891 34.9886 40.5372 34.9186 40.5062 34.8388C40.4353 34.6319 40.4258 34.4088 40.4789 34.1965C40.5062 34.0052 40.5609 33.8548 40.6429 33.7045C40.7385 33.5678 40.8342 33.4722 40.9435 33.4038C41.0613 33.343 41.1961 33.3237 41.3262 33.3492L41.2169 33.8958C41.1075 33.8958 41.0255 33.8958 40.9709 33.9642C40.9025 34.0188 40.8615 34.1145 40.8342 34.2648C40.8188 34.3376 40.8236 34.4132 40.8479 34.4835C40.8752 34.5382 40.9162 34.5792 40.9845 34.5928ZM24.1882 38.1325C24.1624 38.1563 24.1437 38.1868 24.1341 38.2205C24.1244 38.2543 24.1242 38.29 24.1335 38.3238C24.1472 38.3922 24.1882 38.4878 24.2702 38.6245L24.4342 38.9525C24.5709 39.2668 24.5435 39.4992 24.3932 39.6495C24.3147 39.7326 24.2068 39.7817 24.0925 39.7862C23.9634 39.7865 23.8363 39.7536 23.7235 39.6905C23.4404 39.554 23.21 39.3283 23.0675 39.0482C23.0129 38.9285 22.9939 38.7957 23.0129 38.6655C23.0235 38.5528 23.0716 38.4469 23.1495 38.3648L23.5595 38.7612C23.5335 38.7852 23.5137 38.8151 23.5018 38.8484C23.4899 38.8818 23.4863 38.9175 23.4912 38.9525C23.4912 39.0208 23.5459 39.0892 23.6142 39.1712C23.6825 39.2395 23.7509 39.2805 23.8192 39.2942C23.8875 39.3078 23.9559 39.2942 23.9832 39.2532C24.0242 39.2122 24.0379 39.1575 24.0242 39.0892C23.9891 38.9736 23.9386 38.8632 23.8739 38.7612L23.6826 38.3785C23.6006 38.1052 23.6279 37.9002 23.7919 37.7498C23.9149 37.6132 24.0652 37.5722 24.2429 37.6132C24.4342 37.6542 24.6119 37.7635 24.8032 37.9548C24.9399 38.0915 25.0492 38.2282 25.1175 38.3785C25.1859 38.5288 25.2132 38.6655 25.1995 38.7885C25.1795 38.9149 25.1168 39.0307 25.0219 39.1165L24.6119 38.7202C24.6939 38.6518 24.7349 38.5698 24.7212 38.4878C24.7212 38.4058 24.6529 38.3102 24.5435 38.2145C24.4926 38.1563 24.4263 38.1136 24.3522 38.0915C24.3237 38.0828 24.2934 38.082 24.2645 38.0893C24.2356 38.0965 24.2093 38.1114 24.1882 38.1325ZM38.7705 25.1082L38.2649 25.5592L37.8959 25.1355L39.3992 23.8235L40.0279 24.5205C40.1372 24.6572 40.2192 24.7939 40.2739 24.9305C40.3149 25.0672 40.3285 25.2039 40.3012 25.3269C40.2736 25.4498 40.2064 25.5602 40.1099 25.6412C40.0424 25.7067 39.9591 25.7537 39.8681 25.7777C39.7772 25.8016 39.6815 25.8017 39.5905 25.7779C39.3609 25.7048 39.1601 25.5614 39.0165 25.3679L38.7705 25.1082ZM39.0575 24.8622L39.3035 25.1355C39.3719 25.2312 39.4402 25.2722 39.5222 25.2722C39.5905 25.2995 39.6589 25.2722 39.7272 25.2175C39.7955 25.1629 39.8365 25.0809 39.8365 25.0125C39.8385 24.9671 39.831 24.9218 39.8145 24.8795C39.7981 24.8371 39.773 24.7987 39.7409 24.7665L39.4949 24.4932L39.0575 24.8622ZM42.6109 29.7275L41.3125 30.0692C41.1744 30.1084 41.0275 30.103 40.8925 30.054C40.7576 30.0049 40.6416 29.9146 40.5609 29.7959C40.4652 29.6592 40.3969 29.5088 40.3422 29.3175C40.2609 29.0736 40.2609 28.8098 40.3422 28.5659C40.3752 28.4665 40.4325 28.377 40.5089 28.3054C40.5852 28.2338 40.6783 28.1824 40.7795 28.1559L42.0915 27.8279L42.2555 28.4155L40.9299 28.7572C40.7249 28.8255 40.6565 28.9759 40.7112 29.2082C40.7385 29.3449 40.7932 29.4132 40.8615 29.4679C40.9435 29.5089 41.0392 29.5225 41.1622 29.4952L42.4605 29.1535L42.6109 29.7275ZM41.1212 31.1898L41.1759 32.0918L40.8069 32.1192L40.7112 30.6842L42.7339 30.5475L42.7749 31.0805L41.1349 31.1762L41.1212 31.1898ZM22.2339 34.1282C22.2202 34.0598 22.2339 33.9915 22.2749 33.9368C22.2918 33.9071 22.3154 33.8816 22.3439 33.8627C22.3723 33.8437 22.4049 33.8316 22.4389 33.8275C22.5072 33.8275 22.5756 33.8412 22.6165 33.8822C22.6699 33.927 22.7042 33.9906 22.7122 34.0598C22.7259 34.1418 22.7122 34.1965 22.6712 34.2648C22.6522 34.2914 22.6277 34.3137 22.5994 34.3302C22.5712 34.3467 22.5397 34.357 22.5072 34.3605C22.4389 34.3605 22.3706 34.3605 22.3296 34.3058C22.2762 34.261 22.2419 34.1974 22.2339 34.1282ZM23.5185 37.0528C23.492 36.9871 23.492 36.9136 23.5185 36.8478C23.5264 36.8188 23.5401 36.7916 23.5589 36.7681C23.5778 36.7446 23.6012 36.7252 23.6279 36.7112C23.6962 36.6702 23.7645 36.6702 23.8192 36.7112C23.8799 36.7386 23.9285 36.7872 23.9559 36.8478C23.9969 36.9162 24.0105 36.9845 23.9832 37.0528C23.9731 37.0828 23.957 37.1104 23.9358 37.1339C23.9147 37.1574 23.8889 37.1763 23.8602 37.1895C23.8302 37.2031 23.7975 37.2101 23.7645 37.2101C23.7316 37.2101 23.6989 37.2031 23.6689 37.1895C23.6082 37.1621 23.5596 37.1135 23.5322 37.0528H23.5185Z" fill="white"/>
<path d="M26.8257 39.622L26.73 40.3463L27.4133 40.6607L26.6753 40.7837L26.5797 41.4943L26.2107 40.852L25.4863 40.975L25.992 40.4557L25.6367 39.8133L26.32 40.1413L26.8257 39.622ZM36.7613 39.4717L37.2807 39.9773L37.9503 39.6493L37.6087 40.2917L38.128 40.7973L37.39 40.688L37.0483 41.344L36.939 40.6333L36.201 40.524L36.8707 40.1823L36.7613 39.4717Z" fill="#C4C4C4"/>
<path d="M29.0135 42.5467L28.5761 42.4374L28.9315 41.0707L28.4668 41.0981L28.5488 40.7701L29.4508 40.6881H29.4918L29.0135 42.5467ZM33.2365 42.7244L32.7855 42.7517L32.6898 41.3441L32.2661 41.5081L32.2388 41.1664L33.0588 40.8247H33.1135L33.2501 42.7381L33.2365 42.7244ZM31.6785 41.7131C31.6785 42.0684 31.5828 42.3417 31.3915 42.5057C31.1904 42.6757 30.9375 42.7724 30.6743 42.7798C30.4111 42.7873 30.1532 42.7051 29.9428 42.5467L30.0521 42.2461C30.2845 42.3281 30.5031 42.3964 30.7355 42.3281C30.9541 42.2597 31.1045 42.1094 31.1181 41.8907H31.1045C31.0684 41.9449 31.0219 41.9913 30.9678 42.0274C30.9255 42.053 30.8794 42.0714 30.8311 42.0821C30.7596 42.1001 30.6862 42.1092 30.6125 42.1094C30.528 42.114 30.4435 42.1019 30.3638 42.0737C30.284 42.0456 30.2106 42.002 30.1478 41.9454C30.0903 41.886 30.0459 41.8151 30.0177 41.7374C29.9894 41.6597 29.9779 41.5769 29.9838 41.4944C29.9838 41.2894 30.0521 41.1254 30.1888 41.0024C30.3391 40.8931 30.5441 40.8247 30.7901 40.8247C31.0635 40.8247 31.2958 40.9067 31.4461 41.0571C31.5965 41.2074 31.6785 41.4261 31.6785 41.6994V41.7131ZM30.8175 41.2347C30.7491 41.2347 30.6808 41.2621 30.6398 41.2894C30.5988 41.3304 30.5851 41.3987 30.5851 41.4944C30.5851 41.5627 30.5988 41.6174 30.6398 41.6584C30.6671 41.6994 30.7355 41.7131 30.8038 41.7131C30.8676 41.7162 30.9304 41.6968 30.9815 41.6584C31.0048 41.6436 31.0244 41.6235 31.0386 41.5998C31.0529 41.576 31.0614 41.5493 31.0635 41.5217C31.0635 41.4397 31.0361 41.3714 30.9815 41.3167C30.9617 41.292 30.9368 41.2719 30.9085 41.2577C30.8802 41.2435 30.8491 41.2357 30.8175 41.2347ZM35.5188 41.1391C35.6145 41.4671 35.6281 41.7267 35.5325 41.9317C35.4505 42.1231 35.2591 42.2597 34.9858 42.3417C34.7125 42.4237 34.4801 42.3964 34.2888 42.2871C34.0975 42.1504 33.9608 41.9454 33.8651 41.6174C33.7558 41.2894 33.7558 41.0297 33.8378 40.8247C33.9335 40.6334 34.1111 40.4967 34.3845 40.4147C34.6578 40.3327 34.9038 40.3464 35.0951 40.4694C35.2728 40.6061 35.4231 40.8111 35.5188 41.1391ZM34.4801 41.4397C34.5348 41.6584 34.6031 41.7951 34.6578 41.8634C34.7125 41.9317 34.7808 41.9591 34.8628 41.9317C34.9311 41.9181 34.9721 41.8497 34.9858 41.7677C34.9858 41.6721 34.9585 41.5217 34.9038 41.3167C34.8668 41.1715 34.8068 41.0331 34.7261 40.9067C34.6578 40.8247 34.5895 40.7974 34.5211 40.8111C34.4391 40.8384 34.3981 40.8931 34.3845 40.9887C34.3845 41.0707 34.4118 41.2211 34.4801 41.4397ZM31.0361 18.2064C31.0361 18.0151 31.2001 17.8511 31.3915 17.8511C31.5965 17.8511 31.7605 18.0151 31.7605 18.2064V19.8874C31.7605 20.0787 31.5965 20.2427 31.3915 20.2427C31.2972 20.2427 31.2068 20.2053 31.1402 20.1387C31.0736 20.072 31.0361 19.9816 31.0361 19.8874V18.2064Z" fill="white"/>
<path d="M31.9098 18.2063V19.8873C31.9098 20.0269 31.8543 20.1607 31.7556 20.2594C31.657 20.3581 31.5231 20.4135 31.3836 20.4135C31.244 20.4135 31.1102 20.3581 31.0115 20.2594C30.9129 20.1607 30.8574 20.0269 30.8574 19.8873V18.2063C30.8574 17.933 31.1034 17.687 31.4041 17.687C31.6774 17.687 31.9234 17.9193 31.9234 18.2063H31.9098ZM31.3904 17.851C31.2962 17.851 31.2058 17.8884 31.1392 17.9551C31.0725 18.0217 31.0351 18.1121 31.0351 18.2063V19.8873C31.0351 20.0787 31.1991 20.2427 31.3904 20.2427C31.5954 20.2427 31.7594 20.0787 31.7594 19.8873V18.2063C31.7595 18.1585 31.7498 18.1112 31.7311 18.0671C31.7124 18.0231 31.685 17.9833 31.6506 17.9501C31.6161 17.9169 31.5753 17.8911 31.5306 17.874C31.4859 17.857 31.4382 17.8492 31.3904 17.851Z" fill="black"/>
<path d="M32.9752 18.2068V19.8878C32.9752 20.1612 32.7429 20.4072 32.4422 20.4072C32.3045 20.4072 32.1724 20.3524 32.075 20.2551C31.9776 20.1577 31.9229 20.0256 31.9229 19.8878V18.2068C31.9229 18.0673 31.9783 17.9334 32.077 17.8348C32.1756 17.7361 32.3095 17.6807 32.449 17.6807C32.5886 17.6807 32.7224 17.7361 32.8211 17.8348C32.9197 17.9334 32.9752 18.0673 32.9752 18.2068ZM32.4422 17.8515C32.3479 17.8515 32.2576 17.8889 32.1909 17.9556C32.1243 18.0222 32.0869 18.1126 32.0869 18.2068V19.8878C32.0869 20.0792 32.2509 20.2432 32.4422 20.2432C32.6472 20.2432 32.8112 20.0792 32.8112 19.8878V18.2068C32.8112 18.159 32.8016 18.1116 32.7829 18.0676C32.7642 18.0236 32.7368 17.9838 32.7023 17.9506C32.6679 17.9174 32.6271 17.8916 32.5824 17.8745C32.5377 17.8575 32.49 17.8497 32.4422 17.8515Z" fill="black"/>
<path d="M27.0586 14.8989H35.4499C35.5183 14.8989 35.5729 14.9536 35.5729 15.0219C35.5729 15.0903 35.5183 15.1449 35.4363 15.1449H27.7829L27.3046 15.7599C27.2874 15.7829 27.2634 15.7998 27.236 15.8084C27.2086 15.8169 27.1793 15.8166 27.152 15.8076C27.1248 15.7985 27.1012 15.7811 27.0844 15.7578C27.0676 15.7346 27.0586 15.7066 27.0586 15.6779V14.8989ZM27.0586 16.7029C27.0586 16.6346 27.1133 16.5663 27.1816 16.5663H35.4499C35.5183 16.5663 35.5729 16.6346 35.5729 16.7029C35.5729 16.7576 35.5183 16.8123 35.4363 16.8123H27.1816C27.149 16.8123 27.1177 16.7993 27.0946 16.7762C27.0716 16.7532 27.0586 16.7219 27.0586 16.6893V16.7029Z" fill="white"/>
<path d="M28.1922 48.0273C30.1329 47.344 31.1579 44.72 31.3492 43.2987C31.5542 44.72 32.5792 47.3303 34.5199 48.0273C36.4332 48.615 40.0276 47.1254 41.9272 45.5947C43.3349 44.4877 44.7152 42.875 45.6172 40.6747C45.3712 40.538 44.6605 40.1554 44.0455 39.9914C45.2755 39.3764 47.5305 37.996 49.3892 35.249C49.5532 36.3287 50.4415 39.677 48.6649 43.5037C48.2928 43.021 48.002 42.481 47.8039 41.9047C45.4532 46.0184 41.6539 50.7607 35.1212 52.0043C33.5086 52.305 31.4859 55.093 31.3492 55.3117C31.2126 55.093 29.2036 52.305 27.5909 52.0043C21.0582 50.7743 17.2452 46.0184 14.8946 41.9047C14.7006 42.4801 14.4145 43.0201 14.0472 43.5037C12.2706 39.677 13.1589 36.1647 13.3229 35.249C14.6681 37.2618 16.5082 38.8949 18.6666 39.9914C18.0516 40.1554 17.3409 40.538 17.0812 40.6747C17.8727 42.6019 19.1427 44.2953 20.7712 45.5947C22.6846 47.1254 26.2926 48.6013 28.1922 48.0273Z" fill="#EC2131"/>
<path fill-rule="evenodd" clip-rule="evenodd" d="M17.3279 40.552L17.1639 40.634L17.0819 40.675C17.8734 42.6022 19.1434 44.2956 20.7719 45.595C22.6853 47.1257 26.2933 48.6017 28.1929 48.0277C29.3819 47.6177 30.2156 46.4697 30.7349 45.3353C31.6916 43.2307 31.0083 43.2307 31.9649 45.3353C32.4979 46.4697 33.3316 47.604 34.5206 48.0277C36.4339 48.6153 40.0283 47.1257 41.9279 45.6087C43.3356 44.488 44.7159 42.8753 45.6179 40.675L45.5496 40.634L45.3719 40.552C44.9497 40.3253 44.5055 40.1421 44.0462 40.0053C44.3879 39.814 44.8252 39.5953 45.3172 39.2673C46.9331 38.2179 48.3187 36.8509 49.3899 35.2493L49.4582 35.6593C49.5129 35.96 49.5949 36.3427 49.6496 36.8073C49.9603 39.0877 49.6191 41.4094 48.6656 43.504C48.3069 43.0128 48.0172 42.4748 47.8046 41.905C47.5859 42.315 47.3399 42.7113 47.0939 43.1213C44.7022 46.907 41.0259 50.884 35.1219 52.0046C34.0696 52.2096 32.8396 53.467 32.0743 54.369C31.6643 54.861 31.3909 55.2436 31.3499 55.3256C31.1314 54.9935 30.8941 54.6741 30.6393 54.369C29.8739 53.467 28.6439 52.2096 27.5916 52.0046C21.6876 50.884 18.0113 46.907 15.6196 43.1213L14.8953 41.905C14.8679 42.0417 14.8133 42.1647 14.7586 42.2877C14.5739 42.7257 14.3352 43.1389 14.0479 43.5177C12.911 41.0074 12.6371 38.1913 13.2689 35.509L13.3236 35.2357C14.4074 36.8305 15.7906 38.1997 17.3963 39.2673C17.8883 39.5817 18.3119 39.814 18.6673 39.9917C18.1889 40.1283 17.6696 40.3743 17.3279 40.5383V40.552ZM18.5853 41.208C19.9173 43.7301 22.1682 45.6434 24.8719 46.5517C26.1839 47.0163 27.2499 47.1393 27.8376 46.9617C28.4253 46.743 28.9856 46.1827 29.4366 45.39C29.7099 44.939 29.8876 44.4607 30.0243 44.0233C30.0243 44.1053 32.7029 44.1053 32.7029 44.1053C32.8396 44.5153 33.0309 44.9663 33.2633 45.39C33.7279 46.1827 34.2746 46.7567 34.8759 46.9753C35.4636 47.1393 36.5159 47.0163 37.8416 46.5653C40.5477 45.6537 42.799 43.7353 44.1282 41.208L43.7592 41.0713L41.6682 40.3197L43.5269 38.994C45.5154 37.9831 47.2098 36.4769 48.4469 34.6207L50.0869 32.2153L50.5106 35.0853L50.5789 35.4543C50.8249 36.821 51.4536 40.1967 49.6906 43.9687L48.8979 45.6907L47.7499 44.1737C45.2626 47.9593 41.4222 51.95 35.3406 53.098C35.1766 53.1253 34.9033 53.2483 34.5479 53.508C33.8636 54.0839 33.2366 54.7247 32.6756 55.4213L32.3476 55.8586L31.3363 57.567L30.3523 55.8723V55.8586C30.3113 55.804 30.2156 55.6536 30.0243 55.435C29.8056 55.1616 29.5186 54.8063 29.1906 54.451C28.8489 54.0956 28.5073 53.7676 28.1519 53.5216C27.7829 53.2483 27.5233 53.1253 27.3593 53.1117C21.2639 51.95 17.4236 47.9593 14.9499 44.1737L13.8019 45.6907L12.9956 43.9687C11.7414 41.1716 11.4529 38.0369 12.1756 35.058L12.6676 32.2973L14.2529 34.6207C15.49 36.4769 17.1845 37.9831 19.1729 38.994L21.0453 40.3197L18.9406 41.0713L18.5716 41.208H18.5853Z" fill="white"/>
<path d="M15.3736 40.7425C14.8132 40.7152 14.4442 41.3302 14.3076 41.5625L14.2939 41.5899C14.9772 40.0865 14.7039 39.3349 14.3622 38.3645L14.1709 37.7632C14.3605 38.3764 14.7414 38.9128 15.2578 39.2939C15.7742 39.6751 16.3991 39.881 17.0409 39.8815C16.2072 39.8952 15.7972 40.1959 15.6196 40.4692C18.3666 46.8105 24.2022 50.3365 29.5732 50.6098V50.9242C24.1066 50.6508 18.2026 47.0975 15.3872 40.7425H15.3736ZM47.4219 40.7425C47.9822 40.7152 48.3512 41.3302 48.4879 41.5625L48.5152 41.5899C47.8319 40.0865 48.0915 39.3349 48.4332 38.3645L48.6245 37.7632C48.4349 38.3764 48.054 38.9128 47.5376 39.2939C47.0212 39.6751 46.3964 39.881 45.7545 39.8815C46.5882 39.8952 47.0119 40.1959 47.1895 40.4692C44.4289 46.8105 38.1422 50.4868 32.6072 50.4868L32.6345 50.8012C38.2379 50.8012 44.5792 47.1112 47.4219 40.7425Z" fill="white"/>
<path d="M31.3635 53.0025V48.0825C31.2129 48.6448 30.9516 49.1713 30.5949 49.6313C30.2382 50.0913 29.7932 50.4754 29.2861 50.7612C30.4615 51.3215 31.0628 52.2782 31.3498 53.0025H31.3635Z" fill="white"/>
<path d="M34.4391 11.0726C34.4391 12.7126 33.0998 14.0246 31.4324 14.0246C29.7924 14.0246 28.4258 12.6989 28.4258 11.0726C28.4258 9.4326 29.7924 8.12061 31.4324 8.12061C33.0998 8.12061 34.4391 9.4326 34.4391 11.0726ZM31.4324 12.4256C31.6131 12.4274 31.7923 12.3934 31.9596 12.3255C32.127 12.2576 32.2793 12.1573 32.4077 12.0302C32.536 11.9031 32.6379 11.7518 32.7075 11.5851C32.777 11.4184 32.8128 11.2396 32.8128 11.0589C32.8056 10.7012 32.6585 10.3606 32.403 10.1102C32.1474 9.85976 31.8039 9.71953 31.4461 9.7196C31.2655 9.71598 31.086 9.74821 30.9179 9.81441C30.7498 9.88061 30.5965 9.97948 30.4669 10.1053C30.3372 10.2311 30.2338 10.3814 30.1626 10.5474C30.0915 10.7135 30.0539 10.892 30.0521 11.0726C30.0539 11.2521 30.091 11.4294 30.1614 11.5946C30.2317 11.7597 30.3339 11.9094 30.462 12.035C30.5902 12.1606 30.7419 12.2598 30.9084 12.3268C31.0749 12.3938 31.253 12.4274 31.4324 12.4256Z" fill="#E21B30"/>
<path d="M31.433 11.6333C31.2844 11.6333 31.1418 11.5743 31.0367 11.4692C30.9317 11.3641 30.8726 11.2216 30.8726 11.073C30.8726 10.7586 31.1186 10.5126 31.433 10.5126C31.7473 10.5126 32.007 10.7586 32.007 11.0593C32.007 11.3736 31.7473 11.6333 31.433 11.6333ZM32.8133 11.073C32.8133 10.7105 32.6693 10.3629 32.413 10.1066C32.1567 9.85028 31.8091 9.70629 31.4466 9.70629C31.2649 9.70266 31.0842 9.73532 30.9152 9.80237C30.7463 9.86943 30.5923 9.96952 30.4625 10.0968C30.3327 10.2241 30.2296 10.3759 30.1592 10.5436C30.0888 10.7112 30.0526 10.8912 30.0526 11.073C30.0544 11.2524 30.0915 11.4298 30.1619 11.5949C30.2322 11.7601 30.3344 11.9097 30.4626 12.0354C30.5907 12.161 30.7424 12.2602 30.9089 12.3272C31.0754 12.3942 31.2535 12.4278 31.433 12.426C31.6136 12.4278 31.7928 12.3937 31.9602 12.3259C32.1276 12.258 32.2798 12.1576 32.4082 12.0305C32.5365 11.9034 32.6384 11.7522 32.708 11.5855C32.7775 11.4188 32.8133 11.2399 32.8133 11.0593V11.073ZM29.0413 12.1116C29.0214 12.116 29.0006 12.1129 28.9829 12.1028C28.9652 12.0926 28.9519 12.0763 28.9456 12.057C28.6313 10.991 28.9456 10.0616 29.26 9.61063C29.2712 9.59296 29.2889 9.58029 29.3092 9.5752C29.3295 9.57012 29.351 9.57302 29.3693 9.58329C29.4103 9.61063 29.4103 9.66529 29.383 9.70629C29.0686 10.1846 28.7953 11.0046 29.1096 12.0023C29.1096 12.0433 29.0823 12.098 29.0413 12.1116ZM33.3736 11.1413C33.3606 10.9491 33.3046 10.7622 33.2096 10.5946C33.1823 10.5536 33.1823 10.499 33.2096 10.4716C33.2506 10.4443 33.3053 10.4443 33.3326 10.4853C33.4283 10.622 33.5103 10.8543 33.5376 11.114C33.565 11.4146 33.524 11.7426 33.3326 12.0706C33.3282 12.0805 33.3218 12.0895 33.3139 12.0969C33.306 12.1044 33.2967 12.1102 33.2865 12.114C33.2764 12.1178 33.2655 12.1196 33.2547 12.1192C33.2438 12.1187 33.2332 12.1162 33.2233 12.1116C33.2126 12.1061 33.2033 12.0983 33.1959 12.0888C33.1886 12.0793 33.1834 12.0683 33.1808 12.0565C33.1782 12.0448 33.1782 12.0326 33.1808 12.0209C33.1834 12.0092 33.1886 11.9981 33.196 11.9886C33.36 11.7016 33.401 11.401 33.3736 11.1413ZM29.9843 43.5039C29.9843 43.3126 30.1346 43.1486 30.3396 43.1486C30.5446 43.1486 30.7086 43.3126 30.7086 43.5039V45.3353C30.7086 45.5403 30.5446 45.7043 30.3396 45.7043C30.2918 45.7043 30.2444 45.6947 30.2004 45.676C30.1564 45.6573 30.1166 45.6299 30.0834 45.5954C30.0502 45.561 30.0244 45.5201 30.0073 45.4754C29.9903 45.4307 29.9825 45.3831 29.9843 45.3353V43.5039Z" fill="white"/>
<path d="M30.8697 43.5037V45.335C30.8697 45.622 30.6374 45.8544 30.3367 45.8544C30.199 45.8544 30.0669 45.7997 29.9695 45.7023C29.8721 45.6049 29.8174 45.4728 29.8174 45.335V43.5037C29.8174 43.3642 29.8728 43.2303 29.9715 43.1316C30.0702 43.033 30.204 42.9775 30.3435 42.9775C30.4831 42.9775 30.6169 43.033 30.7156 43.1316C30.8143 43.2303 30.8697 43.3642 30.8697 43.5037ZM30.3367 43.1484C30.2425 43.1484 30.1521 43.1858 30.0855 43.2524C30.0188 43.3191 29.9814 43.4095 29.9814 43.5037V45.335C29.9814 45.54 30.1317 45.704 30.3367 45.704C30.5417 45.704 30.7057 45.54 30.7057 45.335V43.5037C30.7058 43.4559 30.6961 43.4085 30.6774 43.3645C30.6587 43.3205 30.6313 43.2807 30.5969 43.2475C30.5624 43.2143 30.5216 43.1884 30.4769 43.1714C30.4322 43.1544 30.3845 43.1465 30.3367 43.1484Z" fill="black"/>
<path d="M31.0354 43.5038C31.0354 43.3124 31.1994 43.1484 31.3908 43.1484C31.5958 43.1484 31.7598 43.3124 31.7598 43.5038V45.3351C31.7598 45.5401 31.5958 45.7041 31.3908 45.7041C31.3429 45.7041 31.2956 45.6945 31.2515 45.6758C31.2075 45.6571 31.1677 45.6297 31.1345 45.5952C31.1014 45.5608 31.0755 45.52 31.0584 45.4753C31.0414 45.4306 31.0336 45.3829 31.0354 45.3351V43.5038Z" fill="white"/>
<path d="M31.9098 43.5037V45.335C31.9098 45.622 31.6911 45.8544 31.3904 45.8544C31.2527 45.8544 31.1206 45.7997 31.0232 45.7023C30.9258 45.6049 30.8711 45.4728 30.8711 45.335V43.5037C30.8711 43.3642 30.9265 43.2303 31.0252 43.1316C31.1239 43.033 31.2577 42.9775 31.3973 42.9775C31.5368 42.9775 31.6706 43.033 31.7693 43.1316C31.868 43.2303 31.9234 43.3642 31.9234 43.5037H31.9098ZM31.3904 43.1484C31.2962 43.1484 31.2058 43.1858 31.1392 43.2524C31.0725 43.3191 31.0351 43.4095 31.0351 43.5037V45.335C31.0351 45.54 31.1991 45.704 31.3904 45.704C31.5954 45.704 31.7594 45.54 31.7594 45.335V43.5037C31.7595 43.4559 31.7498 43.4085 31.7311 43.3645C31.7124 43.3205 31.685 43.2807 31.6506 43.2475C31.6161 43.2143 31.5753 43.1884 31.5306 43.1714C31.4859 43.1544 31.4382 43.1465 31.3904 43.1484Z" fill="black"/>
<path d="M32.0872 43.5038C32.0872 43.3124 32.2512 43.1484 32.4425 43.1484C32.6475 43.1484 32.8115 43.3124 32.8115 43.5038V45.3351C32.8115 45.5401 32.6475 45.7041 32.4425 45.7041C32.3947 45.7041 32.3473 45.6945 32.3033 45.6758C32.2593 45.6571 32.2195 45.6297 32.1863 45.5952C32.1531 45.5608 32.1272 45.52 32.1102 45.4753C32.0932 45.4306 32.0853 45.3829 32.0872 45.3351V43.5038Z" fill="white"/>
<path d="M32.9752 43.5037V45.335C32.9752 45.622 32.7429 45.8544 32.4422 45.8544C32.3045 45.8544 32.1724 45.7997 32.075 45.7023C31.9776 45.6049 31.9229 45.4728 31.9229 45.335V43.5037C31.9229 43.3642 31.9783 43.2303 32.077 43.1316C32.1756 43.033 32.3095 42.9775 32.449 42.9775C32.5886 42.9775 32.7224 43.033 32.8211 43.1316C32.9197 43.2303 32.9752 43.3642 32.9752 43.5037ZM32.4422 43.1484C32.3479 43.1484 32.2576 43.1858 32.1909 43.2524C32.1243 43.3191 32.0869 43.4095 32.0869 43.5037V45.335C32.0869 45.54 32.2509 45.704 32.4422 45.704C32.6472 45.704 32.8112 45.54 32.8112 45.335V43.5037C32.8112 43.4559 32.8016 43.4085 32.7829 43.3645C32.7642 43.3205 32.7368 43.2807 32.7023 43.2475C32.6679 43.2143 32.6271 43.1884 32.5824 43.1714C32.5377 43.1544 32.49 43.1465 32.4422 43.1484Z" fill="black"/>
</g>
<defs>
<clipPath id="clip0_413_157">
<rect width="64" height="64" fill="white"/>
</clipPath>
</defs>
</svg>
