<svg xmlns="http://www.w3.org/2000/svg" width="64" height="64" viewBox="0 0 64 64"><g transform="translate(-93 -78)"><circle cx="32" cy="32" r="32" transform="translate(93 78)" fill="#1f825e"/><g transform="translate(106.518 85.193)"><path d="M376.722,239.3a17.756,17.756,0,0,1,8.436,2.335,11.42,11.42,0,0,0,4.462,1.392,16.023,16.023,0,0,0,2.652.037l.241.393c.07.113,1.826,2.994,2.532,10.508a27.408,27.408,0,0,1-1.458,12.566c-4.339,10.966-16.26,14.585-16.864,14.77-.6-.184-12.525-3.8-16.865-14.77a27.417,27.417,0,0,1-1.459-12.566c.707-7.514,2.467-10.4,2.53-10.508l.244-.393a15.9,15.9,0,0,0,2.641-.037,11.43,11.43,0,0,0,4.47-1.392,17.767,17.767,0,0,1,8.438-2.335" transform="translate(-358.24 -231.69)" fill="#fff"/><path d="M360.541,255.314h35.443c-.519-7.427-2.418-10.255-2.418-10.255a13.686,13.686,0,0,1-7.156-1.58,15.875,15.875,0,0,0-16.285,0,13.653,13.653,0,0,1-7.149,1.58s-1.911,2.77-2.435,10.255m35.557,2.461H360.421c-.005.455-.012.933-.012,1.422,0,.356.012.7.024,1.039h35.66c.015-.342.028-.685.028-1.043,0-.485-.008-.964-.022-1.419m-.23,4.928h-35.21a20.035,20.035,0,0,0,.5,2.465h34.224a22.644,22.644,0,0,0,.49-2.465m-17.594,19.363c-.449-.123-12.056-3.663-16.314-14.438h32.606c-4.258,10.768-15.853,14.31-16.292,14.438" transform="translate(-359.77 -233.051)" fill="#1a6e3e" fill-rule="evenodd"/><path d="M380.211,339.693l.19.188c.272.28.4.538.238.7-.147.144-.391.031-.626-.2l-.243-.243.441-.439m-.167-.868-1.91,1.887.5.518.78-.754.411.415c.518.523,1.035.523,1.348.226.37-.373.224-.911-.206-1.361Zm3.492,4.121a1.018,1.018,0,0,1-1.77-.933,1.025,1.025,0,0,1,1.77.933m.689.357a1.572,1.572,0,0,0-.929-2.022,1.423,1.423,0,1,0-1.29,2.439,1.629,1.629,0,0,0,2.219-.417m1.542-.493.349.092c.268.087.485.212.439.415-.057.228-.332.241-.591.173l-.378-.109Zm-.569-.708-.768,2.6.7.21.324-1.053.192.062c.447.109.461.646.6,1.289l.792.164c-.169-.874-.214-1.152-.477-1.364a.765.765,0,0,0,.719-.489.859.859,0,0,0-.7-1.019Zm5.441,1.388s-.3,0-.561-.009c-.3-.01-.577-.032-.577-.032l-.194,2.193-.733-.056.194-2.2s-.394-.034-.6-.07c-.24-.031-.509-.077-.509-.077l.065-.492a14.073,14.073,0,0,0,1.484.19,12,12,0,0,0,1.448.063Zm3.311-.793.218,1.567c.073.89-.636,1.3-1.443,1.373-.862.07-1.555-.26-1.633-1.082L391.048,343l.738-.034.075,1.525a.675.675,0,0,0,.8.589c.384-.036.782-.257.737-.731l-.19-1.526Zm3.575-.27a2.6,2.6,0,0,0-1.118.132c-.758.256-1.046.829-.917,1.208.159.451.814.557,1.4.362a1.2,1.2,0,0,0,.424-.255l-.1-.3-.41.147-.153-.479,1.094-.374.361,1.038a2.107,2.107,0,0,1-1.052.75c-.973.344-2.02.092-2.287-.667-.265-.778.4-1.595,1.393-1.947a3.128,3.128,0,0,1,1.175-.17Zm2.721-.49-.919.583-.1-1.226Zm-.926-1.405-.727.455.168,2.969.686-.338-.046-.6,1.275-.786.488.328.622-.457Zm4.581-.588s-.4.523-.816.967a9.789,9.789,0,0,1-.834.808l-1.866-1.972.519-.512,1.523,1.617a6.731,6.731,0,0,0,.5-.5c.376-.413.595-.706.595-.706Z" transform="translate(-372.27 -301.879)" fill="#fff" fill-rule="evenodd"/><path d="M381.949,260.53a11.434,11.434,0,0,0-1.68,1.391L382.4,264.5l.689-.619-.773-.976.682-.572a1.216,1.216,0,0,0,.381-1.617,1.008,1.008,0,0,0-1.434-.184m-.543,1.285.35-.3c.418-.356.674-.429.849-.236.223.236.014.54-.252.761l-.457.393Z" transform="translate(-373.776 -246.512)" fill="#fff"/><path d="M397.277,254.9c-.287-.966-1.33-1.445-2.718-.852-1.325.566-1.748,1.55-1.527,2.359.241.875,1.135,1.545,2.682.94a2.125,2.125,0,0,0,1.564-2.447m-.9.35a1.273,1.273,0,0,1-.89,1.436c-.771.3-1.416.032-1.579-.573a1.277,1.277,0,0,1,.853-1.384c.794-.316,1.41-.086,1.616.521" transform="translate(-382.737 -241.905)" fill="#fff"/><path d="M409.713,251.426l.382,3.357.921-.123-.148-1.313.287-.032c.5-.044.815.552,1.285,1.237l1.075,0c-.6-.94-1-1.6-1.336-1.54a.945.945,0,0,0,.775-.952c-.089-.824-.87-.868-1.553-.824-.668.029-1.688.188-1.688.188m1,.487.516-.056c.336-.031.691-.031.745.3.052.39-.334.508-.648.528l-.528.051Z" transform="translate(-394.541 -240.1)" fill="#fff"/><path d="M426.192,252.1a6.554,6.554,0,0,0-.646-.13c-.438-.084-.684-.113-.684-.113l-.338,2.762-.916-.106.337-2.782s-.146-.022-.674-.053c-.49-.029-.666-.029-.666-.029l.037-.566c.618.012,1.366.083,1.88.135s1.126.18,1.789.311l-.118.571" transform="translate(-403.634 -240)" fill="#fff"/><path d="M435.738,256.765l-.885-.255.914-3.249.9.258Z" transform="translate(-412.271 -241.535)" fill="#fff"/><path d="M443.931,260.767l-.646-.484-.769-2.781-.883,1.829-.847-.379,1.451-3.047.753.349.873,2.9,1.159-1.778.794.564Z" transform="translate(-416.455 -243.399)" fill="#fff"/><path d="M458.6,271.295a4.581,4.581,0,0,0-.689-1.605c-.546-.776-1.2-.848-1.652-.5a1.222,1.222,0,0,0-.1,1.619,3.077,3.077,0,0,0,.655.714l.381-.207-.328-.611.472-.264.725,1.431-1.073.559a4.094,4.094,0,0,1-1.394-1.257c-.742-1.058-.679-2.2.146-2.783s1.931-.234,2.7.843a5.625,5.625,0,0,1,.8,1.6l-.633.463" transform="translate(-426.53 -252.004)" fill="#fff"/><path d="M374.351,270.211a4.285,4.285,0,0,0-.975,1.015c-.2.323-.24.585-.106.676.39.285,1.431-1.622,2.41-1.01.5.318.5,1.063.007,1.87a3.677,3.677,0,0,1-1.1,1.164l-.6-.369a3.152,3.152,0,0,0,1.138-1.039c.216-.354.205-.636.045-.735-.463-.292-1.355,1.668-2.354,1.041-.49-.293-.534-.983-.01-1.831a4.6,4.6,0,0,1,.993-1.118l.548.337" transform="translate(-368.251 -253.251)" fill="#fff"/><path d="M397.072,294.571s10-2.882,10-12.807c0-5.83-1.439-7.914-1.439-7.914a7.66,7.66,0,0,1-4-.872,8.812,8.812,0,0,0-9.119,0,7.678,7.678,0,0,1-4,.872s-1.443,2.084-1.443,7.914c0,9.926,10,12.807,10,12.807" transform="translate(-378.572 -254.544)" fill="#1a6e3e"/><path d="M398.278,295.389s9.5-2.757,9.5-12.173c.01-5.546-1.363-7.515-1.363-7.515a7.255,7.255,0,0,1-3.8-.839,8.451,8.451,0,0,0-8.663,0,7.275,7.275,0,0,1-3.8.839s-1.367,1.969-1.367,7.515c0,9.416,9.5,12.173,9.5,12.173" transform="translate(-379.778 -255.925)" fill="#fff"/><path d="M399.462,296.177s9.007-2.6,9.007-11.522c0-5.257-1.3-7.129-1.3-7.129a6.928,6.928,0,0,1-3.6-.786,7.942,7.942,0,0,0-8.2,0,6.976,6.976,0,0,1-3.613.786s-1.3,1.872-1.3,7.129c.017,8.926,9,11.522,9,11.522" transform="translate(-380.962 -257.288)" fill="#1a6e3e"/><path d="M408.989,288.122a2.136,2.136,0,0,0,.807.2c.6.033,1.75-.49,2.18-.087a1.929,1.929,0,0,0-1.069.106,3.412,3.412,0,0,1-1.126.265c-.7,0-.831-.544-.791-.487" transform="translate(-394.026 -266.094)" fill="#fa0"/><path d="M406.459,283.744a.788.788,0,0,0-.815-.778.72.72,0,0,0-.5.215.436.436,0,0,1,.381-.5,1.068,1.068,0,0,1,.8.19c.007-.07.029-.531-.717-.592-.368-.032-.889.1-1.054-.087a1.544,1.544,0,0,0,.53-.1,1.7,1.7,0,0,0,.4-.305c-.471.154-1.151-.2-1.563-.211-.569-.019-.684.238-.684.238a1.611,1.611,0,0,0-.613-.112c-.1-.009-.594-.02-.594.276,0,.446,1.3.19,1.339.188,0,0-.012.13-.539.248a.4.4,0,0,0-.335.252c.016-.032-.023-.1-.064-.154-.088-.116-.234-.233-.706-.215-.155.005-.708.1-.708.337,0,.217.438.116.438.116s.01.044-.142.1a.265.265,0,0,0-.179.193c-.04.225.232.42.232.42a.832.832,0,0,1,.79-.381c.645,0,.95.358.933.656-.014.162-.143.375-.6.39a2.406,2.406,0,0,1-.8-.1.357.357,0,0,0,.068.368.705.705,0,0,1,.318.573,1.178,1.178,0,0,1,.643-.52c.169-.022.4.012.4.214-.016.4-.83.538-.993.584-.708.173-.927.381-.953.567a1.432,1.432,0,0,1,.608-.068.838.838,0,0,0,.679-.234c.037.337-.656.552-1.287.767-.853.306-1,.841-1.026,1.122a6.023,6.023,0,0,1-2.324,1.073c-.69-.027-.622-.436-1.123-.427a.59.59,0,0,0-.61.485.944.944,0,0,1,.436-.078c.239.02.331.1.373.176a1.315,1.315,0,0,0-.828.152.519.519,0,0,0-.1.718.69.69,0,0,1,.4-.3.923.923,0,0,1,.579-.029c-.047.015-.537.079-.671.439a.436.436,0,0,0,.245.524,1.652,1.652,0,0,1,1.217-.774,2.55,2.55,0,0,1,1.579.192.75.75,0,0,0-.224-.326.992.992,0,0,0-.337-.19s.047-.139.273-.153c.565-.041.694.465,1.365.515a.938.938,0,0,0,.652-.2s-.231.1-.548-.255a.785.785,0,0,0-.659-.267.892.892,0,0,1,.584-.174c.5.029.783.511,1.151.6a.928.928,0,0,0,.575.007c-.017.026-.042.116-.269.224a.834.834,0,0,1-.314.06s.06.716,2.173,1.249c.7.178.79.339.76.605-.055.473-.658.667-.69,1.547-.03.9.678,1.133.836,1.523a.75.75,0,0,1-.065.708c.227.049.388-.171.552-.265.3-.164.6.017.534.5-.054.425-.478,1.545-1,1.528-.369-.017-.332-.086-.68-.092a.341.341,0,0,0-.38.35.964.964,0,0,0,.151.444.476.476,0,0,1,.3-.222,1.39,1.39,0,0,1,.465-.051s-.449.239-.481.605c-.026.265.107.352.107.352a.527.527,0,0,1,.354-.188,1.076,1.076,0,0,0,.782-.523s.1.055-.061.352a.454.454,0,0,0,0,.448.737.737,0,0,1,.233-.181c.2-.088.539-.121.582-.393s-.326-.48-.125-.959a1.115,1.115,0,0,1,.669-.6c.431-.22.4-.36.4-.36-.144.072-.3-.009-.493,0a.462.462,0,0,0-.272.125.816.816,0,0,1,.364-.6c.385-.292.961-.317,1.251-.762.273-.424.033-.664.033-.664-.008.108-.125.26-.514.424a1.317,1.317,0,0,0-.613.426,1.174,1.174,0,0,1,.83-1.116c.991-.364.7-.865.658-.934a.724.724,0,0,1-.586.347c-.579.015-.61-.723-.615-.723a1.234,1.234,0,0,0,.841.068.867.867,0,0,0,.751-.6c-.037.022-.511.411-.759.174a1.369,1.369,0,0,0,1-1.329c.046-1.264-.94-1.925-1.441-3.26-.183-.5-.447-1.95.757-2.19.195-.026.365.02.323,0a.548.548,0,0,0,.531.793,1.427,1.427,0,0,0,1.129-.3,1.566,1.566,0,0,1-.694.005c-.362-.1-.321-.323-.321-.323a1.754,1.754,0,0,0,.593.174c.523.036.719-.226.736-.289a1.467,1.467,0,0,1-.512.057c-.421-.057-.412-.253-.412-.253a1.307,1.307,0,0,0,.629.036c.521-.084.6-.4.581-.5,0,0-.123.3-.747.188a3.762,3.762,0,0,0-.72-.145.787.787,0,0,0-.674.331,1.993,1.993,0,0,0-.443-.015,1.5,1.5,0,0,0-1.233,1.71c.031,1.427,1.41,3.008,1.371,4.059a.918.918,0,0,1-.8.948c-.508.029-1.171-.222-1.772-1.677a5.281,5.281,0,0,1-.391-2.408.594.594,0,0,0-.264.386.853.853,0,0,0,0,.47.641.641,0,0,1-.346-.711c.049-.615.214-.779.258-1.284a1.184,1.184,0,0,0-.206-.7.777.777,0,0,1,.613.724c.17,1.145.629,1.05.637,1.05-.3-.468-.111-1.178-.206-1.774-.148-.908-.776-.706-.8-.706a.467.467,0,0,1,.419-.322c.236,0,.446.231.648.724s.461.4.461.4c-.237-.269-.163-.72-.313-1.118-.36-.952-1.037-.758-1.054-.758a.432.432,0,0,1,.44-.324.7.7,0,0,1,.63.513c.135.306.352.26.352.26-.092-.1-.138-.132-.162-.635" transform="translate(-384.77 -261.506)" fill="#fa0"/><path d="M397.8,287.2a.541.541,0,0,1,.673.134c.233.277.256,1.092.974,1.5a3.879,3.879,0,0,0,2.094.523c-.463.273-.541.561-.855.87-.743.718-1.4.488-1.445.426a.9.9,0,0,0,.371-.205,3.1,3.1,0,0,1,.432-.4.92.92,0,0,1,.39-.157s-.092-.125-.4-.03c-.33.1-.46.381-.937.4s-.582-.132-.582-.132a.552.552,0,0,0,.295-.056,3.323,3.323,0,0,0,.408-.333.7.7,0,0,1,.421-.126.461.461,0,0,0-.355-.136c-.407.008-.439.193-.765.119a.655.655,0,0,0,.165-.359c.006-.171-.111-.612-1.034-.663a1.194,1.194,0,0,1-.891-.41.47.47,0,0,0-.266-.149.628.628,0,0,1,.817-.056.722.722,0,0,0,.3.113.882.882,0,0,0-.5-.414.663.663,0,0,0-.365.019.638.638,0,0,1,.575-.4.94.94,0,0,1,.828.542.681.681,0,0,0-.092-.345.819.819,0,0,0-.254-.265" transform="translate(-385.217 -265.428)" fill="#fa0"/><path d="M407.461,312.358c-.332.213-.725.089-1.378.13a.9.9,0,0,0-.93.88c.006.559.46.8.427,1.193-.029.461-.755.8-1.246.754s-.781-.5-1.235-.479a.512.512,0,0,0-.548.451.805.805,0,0,1,.4-.043.37.37,0,0,1,.326.308.994.994,0,0,0-.911.063c-.362.286-.1.757-.116.728a.726.726,0,0,1,.353-.292,1,1,0,0,1,.5-.039,1.131,1.131,0,0,0-.37.274.587.587,0,0,0-.145.4c.223-.17.382-.042.6-.026.505.052.549-.555,1.2-.648a2.181,2.181,0,0,1,1.231.214.465.465,0,0,0-.16-.325.6.6,0,0,0-.352-.137.715.715,0,0,1,.406-.112c.427.006.637.239,1.081.258a1.049,1.049,0,0,0,.776-.248,1,1,0,0,1-.562-.2.765.765,0,0,0-.634-.106s.1-.376.667-.374a2.679,2.679,0,0,1,1.1.309,1.246,1.246,0,0,1-.164-1.062,1.661,1.661,0,0,1,.625-.993,1.617,1.617,0,0,0-.734.155,1.473,1.473,0,0,0-.547.4.744.744,0,0,1,.3-.564,1.329,1.329,0,0,1,.563-.357,2.338,2.338,0,0,0-.861.113,2.448,2.448,0,0,0-.758.309s-.024-.33.509-.506c.671-.224.585-.438.585-.438" transform="translate(-389.222 -283.213)" fill="#fa0"/><path d="M410.64,299.313a1.126,1.126,0,0,1,.857-.692c.8-.16.9-.328,1.082-.564a.877.877,0,0,1-.653.9,4.242,4.242,0,0,1-.936.181.809.809,0,0,0-.349.176" transform="translate(-395.195 -273.128)" fill="#1a6e3e"/><path d="M414.319,299.8s-.02-.371.943-.679c1.061-.335.921-.892.921-.892a.893.893,0,0,1-.531,1.248,4.514,4.514,0,0,1-.927.159.922.922,0,0,0-.4.164" transform="translate(-397.79 -273.247)" fill="#1a6e3e"/><path d="M419.092,300.169a.431.431,0,0,1,.211-.45c.431-.311.884-.32,1.133-.786a.919.919,0,0,0,.109-.666s.062.024.158.23a1.006,1.006,0,0,1-.158,1.058,2.354,2.354,0,0,1-1.028.376.913.913,0,0,0-.426.238" transform="translate(-401.15 -273.276)" fill="#1a6e3e"/><path d="M413.988,304.64a.591.591,0,0,1,.421-.145c.465.008.647.342.893.437a.427.427,0,0,0,.229.041.353.353,0,0,1-.338.109c-.412-.031-.638-.367-.892-.438a.506.506,0,0,0-.314,0" transform="translate(-397.556 -277.668)" fill="#1a6e3e"/><path d="M416.6,308.137a2.971,2.971,0,0,0,1.02.161,2.614,2.614,0,0,0,1.153-.348,1.492,1.492,0,0,1-1.112.556,1.347,1.347,0,0,1-1.068-.369" transform="translate(-399.39 -280.105)" fill="#1a6e3e"/><path d="M420.167,310.263a4,4,0,0,0,.887.1,2.713,2.713,0,0,0,.947-.172,1.189,1.189,0,0,1-.93.367,1.07,1.07,0,0,1-.9-.294" transform="translate(-401.914 -281.684)" fill="#1a6e3e"/><path d="M424.794,315.774a1.432,1.432,0,0,0-.071,2.143,1.088,1.088,0,0,1,.168.393c.128-.278-.2-.771-.307-1.2a2.635,2.635,0,0,1,.21-1.337" transform="translate(-404.811 -285.623)" fill="#1a6e3e"/><path d="M383.5,219.21a8.486,8.486,0,0,0-2.711.544c-.694.3-1.064.682-.932.983.385.889,4.256-1.074,5.14,1,.489,1.137-.488,2.339-2.229,3.084a7.223,7.223,0,0,1-3.065.643l-.55-1.282a5.989,5.989,0,0,0,3-.374c.746-.328,1.062-.694.914-1.045-.416-.973-4.245,1.086-5.161-1.034-.439-1.025.43-2.2,2.253-2.984a8.685,8.685,0,0,1,2.842-.682l.5,1.151" transform="translate(-372.032 -216.709)" fill="#fff"/><path d="M414.08,219.449a8.307,8.307,0,0,1-3.344.653c-3.309,0-4.952-1.613-4.96-3.275-.007-1.725,1.848-3.335,5.1-3.349a7.712,7.712,0,0,1,3.087.558l0,1.435a7.5,7.5,0,0,0-2.932-.65c-1.81.007-3.075.824-3.075,1.964s1.265,1.967,3.036,1.967a8.084,8.084,0,0,0,3.08-.718l.007,1.414" transform="translate(-391.765 -213.478)" fill="#fff"/><path d="M440.829,217.01l-1.98,6.069,1.874.6.792-2.436,1.707.568c1.846.6,2.966-.116,3.248-.973.269-.829-.243-2.071-2.073-2.666l-3.568-1.162m1.505,1.715.833.279c1.084.356,1.581.685,1.417,1.2-.144.467-.734.574-1.655.282l-1.056-.352Z" transform="translate(-415.09 -215.969)" fill="#fff"/></g></g></svg>