<svg width="64" height="64" viewBox="0 0 64 64" fill="none" xmlns="http://www.w3.org/2000/svg">
<g clip-path="url(#clip0_40_31884)">
<path d="M32 64C49.6731 64 64 49.6731 64 32C64 14.3269 49.6731 0 32 0C14.3269 0 0 14.3269 0 32C0 49.6731 14.3269 64 32 64Z" fill="#1F825E"/>
<path d="M32 14.8031C34.9628 14.8653 37.8629 15.668 40.436 17.1381C41.8115 17.9048 43.3306 18.3787 44.898 18.5301C45.7795 18.6157 46.6665 18.6281 47.55 18.5671L47.791 18.9601C47.861 19.0731 49.617 21.9541 50.323 29.4681C50.8236 33.7131 50.3243 38.0164 48.865 42.0341C44.526 53.0001 32.605 56.6191 32.001 56.8041C31.401 56.6201 19.476 53.0041 15.136 42.0341C13.6768 38.0164 13.1771 33.7132 13.677 29.4681C14.384 21.9541 16.144 19.0681 16.207 18.9601L16.451 18.5671C17.3309 18.628 18.2142 18.6156 19.092 18.5301C20.6621 18.3795 22.184 17.9055 23.562 17.1381C26.1359 15.6681 29.0366 14.8654 32 14.8031Z" fill="white"/>
<path fill-rule="evenodd" clip-rule="evenodd" d="M14.289 29.456H49.732C49.213 22.029 47.314 19.201 47.314 19.201C44.8294 19.3347 42.3553 18.7884 40.158 17.621C37.6966 16.1504 34.8828 15.3738 32.0155 15.3738C29.1482 15.3738 26.3344 16.1504 23.873 17.621C21.6783 18.7888 19.2064 19.3351 16.724 19.201C16.724 19.201 14.813 21.971 14.289 29.456ZM49.846 31.917H14.169C14.164 32.372 14.157 32.85 14.157 33.339C14.157 33.695 14.169 34.039 14.181 34.378H49.841C49.856 34.036 49.869 33.693 49.869 33.335C49.869 32.85 49.861 32.371 49.847 31.916M49.617 36.844H14.407C14.5219 37.6754 14.6889 38.4987 14.907 39.309H49.131C49.3398 38.4971 49.5034 37.6741 49.621 36.844M32.027 56.207C31.578 56.084 19.971 52.5441 15.713 41.7691H48.319C44.061 52.5371 32.466 56.079 32.027 56.207Z" fill="#1A6E3E"/>
<path fill-rule="evenodd" clip-rule="evenodd" d="M21.459 45.007L21.649 45.195C21.921 45.475 22.049 45.733 21.887 45.895C21.74 46.039 21.496 45.926 21.261 45.695L21.0179 45.452L21.459 45.013M21.292 44.145L19.382 46.032L19.882 46.55L20.662 45.796L21.073 46.211C21.591 46.734 22.108 46.734 22.421 46.437C22.791 46.064 22.645 45.526 22.215 45.076L21.292 44.145ZM24.784 48.266C24.6364 48.4519 24.4285 48.5803 24.1963 48.6291C23.964 48.678 23.722 48.6441 23.5121 48.5334C23.3022 48.4228 23.1375 48.2423 23.0465 48.0231C22.9556 47.8039 22.944 47.5598 23.0139 47.333C23.1649 47.1555 23.3719 47.0346 23.6008 46.9904C23.8296 46.9463 24.0667 46.9815 24.2729 47.0901C24.4791 47.1988 24.642 47.3746 24.735 47.5883C24.8279 47.8021 24.8452 48.0411 24.784 48.266ZM25.473 48.623C25.5449 48.4293 25.578 48.2232 25.5702 48.0167C25.5625 47.8102 25.5141 47.6072 25.4278 47.4194C25.3415 47.2316 25.219 47.0626 25.0674 46.9222C24.9157 46.7818 24.7378 46.6726 24.5439 46.601C24.3832 46.4559 24.1914 46.3494 23.9832 46.2897C23.775 46.2299 23.556 46.2184 23.3427 46.2562C23.1295 46.2939 22.9276 46.3798 22.7526 46.5073C22.5775 46.6348 22.4339 46.8006 22.3326 46.9921C22.2314 47.1835 22.1752 47.3956 22.1683 47.6121C22.1614 47.8285 22.204 48.0437 22.2928 48.2412C22.3817 48.4387 22.5144 48.6133 22.681 48.7518C22.8476 48.8902 23.0435 48.9888 23.254 49.04C23.6061 49.2707 24.0338 49.3561 24.4474 49.2783C24.8611 49.2006 25.2286 48.9657 25.473 48.623ZM27.015 48.13L27.364 48.222C27.632 48.309 27.8489 48.434 27.8029 48.637C27.7459 48.865 27.4709 48.878 27.2119 48.81L26.834 48.701L27.015 48.13ZM26.446 47.422L25.6779 50.022L26.378 50.232L26.702 49.179L26.894 49.241C27.341 49.35 27.355 49.887 27.494 50.53L28.2859 50.694C28.1169 49.82 28.072 49.542 27.809 49.33C27.9643 49.3311 28.1163 49.285 28.2447 49.1976C28.3731 49.1103 28.4719 48.9859 28.528 48.841C28.551 48.728 28.5511 48.6114 28.5281 48.4984C28.5052 48.3853 28.4597 48.278 28.3943 48.1829C28.329 48.0878 28.2452 48.0068 28.1479 47.9448C28.0505 47.8828 27.9417 47.841 27.8279 47.822L26.446 47.422ZM31.887 48.81C31.887 48.81 31.587 48.81 31.326 48.801C31.026 48.791 30.749 48.769 30.749 48.769L30.555 50.962L29.822 50.906L30.016 48.706C30.016 48.706 29.622 48.672 29.416 48.636C29.176 48.605 28.907 48.559 28.907 48.559L28.972 48.067C29.4629 48.1566 29.9583 48.22 30.456 48.257C30.9369 48.3072 31.4205 48.3282 31.904 48.32L31.887 48.81ZM35.198 48.017L35.416 49.584C35.489 50.474 34.78 50.884 33.973 50.957C33.111 51.027 32.418 50.697 32.34 49.875L32.296 48.314L33.034 48.28L33.1089 49.805C33.1191 49.8978 33.1485 49.9875 33.1951 50.0684C33.2417 50.1493 33.3045 50.2197 33.3797 50.275C33.4549 50.3304 33.5408 50.3696 33.6319 50.39C33.723 50.4105 33.8173 50.4119 33.909 50.394C34.293 50.358 34.691 50.137 34.646 49.663L34.456 48.137L35.198 48.017ZM38.7729 47.747C38.3951 47.7089 38.0135 47.7539 37.655 47.879C36.897 48.135 36.6089 48.708 36.7379 49.087C36.8969 49.538 37.552 49.644 38.138 49.449C38.2955 49.3944 38.4399 49.3076 38.562 49.194L38.4619 48.894L38.0519 49.041L37.899 48.562L38.993 48.188L39.3539 49.226C39.0905 49.58 38.7225 49.8423 38.3019 49.976C37.3289 50.32 36.282 50.068 36.015 49.309C35.75 48.531 36.415 47.714 37.408 47.362C37.7852 47.2309 38.184 47.1732 38.5829 47.192L38.7729 47.747ZM41.494 47.257L40.575 47.84L40.4749 46.614L41.494 47.257ZM40.568 45.852L39.8409 46.307L40.0089 49.276L40.6949 48.938L40.649 48.338L41.924 47.552L42.412 47.88L43.034 47.423L40.568 45.852ZM45.149 45.264C45.149 45.264 44.7489 45.787 44.3329 46.231C44.0712 46.5166 43.7927 46.7864 43.499 47.039L41.633 45.067L42.1519 44.555L43.675 46.172C43.8503 46.0142 44.0172 45.8473 44.175 45.672C44.551 45.259 44.77 44.966 44.77 44.966L45.149 45.264Z" fill="white"/>
<path d="M21.691 21.211C21.0879 21.6201 20.5254 22.0858 20.011 22.602L22.142 25.181L22.831 24.562L22.058 23.586L22.74 23.014C22.9967 22.8431 23.1789 22.5809 23.2497 22.2807C23.3204 21.9805 23.2744 21.6646 23.121 21.397C23.0401 21.2892 22.9384 21.1986 22.8219 21.1308C22.7055 21.0629 22.5765 21.0191 22.4428 21.002C22.3091 20.9848 22.1734 20.9947 22.0435 21.0309C21.9137 21.0671 21.7925 21.1291 21.687 21.213M21.144 22.498L21.494 22.198C21.912 21.842 22.168 21.769 22.343 21.962C22.566 22.198 22.357 22.502 22.091 22.723L21.634 23.116L21.144 22.498Z" fill="white"/>
<path d="M28.0581 20.1881C27.7711 19.2221 26.7281 18.7431 25.3401 19.3361C24.0151 19.9021 23.5921 20.8861 23.8131 21.6951C24.0541 22.5701 24.9481 23.2401 26.4951 22.6351C27.0176 22.5018 27.4699 22.1748 27.7603 21.7205C28.0507 21.2661 28.1575 20.7183 28.0591 20.1881M27.1591 20.5381C27.212 20.8449 27.1506 21.1604 26.9866 21.425C26.8226 21.6896 26.5674 21.885 26.2691 21.9741C25.4981 22.2741 24.8531 22.0061 24.6901 21.4011C24.6494 21.1073 24.7122 20.8084 24.8679 20.5558C25.0236 20.3033 25.2623 20.1128 25.5431 20.0171C26.3371 19.7011 26.9531 19.9311 27.1591 20.5381Z" fill="white"/>
<path d="M28.6901 18.519L29.0721 21.8761L29.993 21.7531L29.8451 20.4401L30.132 20.4081C30.632 20.3641 30.9471 20.9601 31.4171 21.6451H32.4921C31.8921 20.7051 31.492 20.045 31.156 20.105C31.3774 20.0646 31.5771 19.9465 31.7192 19.772C31.8612 19.5975 31.9364 19.378 31.9311 19.1531C31.8421 18.3291 31.0611 18.285 30.3781 18.329C29.7101 18.358 28.6901 18.517 28.6901 18.517M29.6901 19.004L30.2061 18.948C30.5421 18.917 30.897 18.9171 30.951 19.2481C31.003 19.6381 30.617 19.7561 30.303 19.7761L29.7751 19.827L29.6901 19.004Z" fill="white"/>
<path d="M36.076 19.293C35.863 19.2389 35.6474 19.1955 35.43 19.163C34.992 19.079 34.746 19.05 34.746 19.05L34.408 21.812L33.492 21.706L33.829 18.924C33.829 18.924 33.683 18.902 33.155 18.871C32.665 18.842 32.489 18.842 32.489 18.842L32.526 18.276C33.144 18.288 33.892 18.359 34.406 18.411C34.92 18.463 35.532 18.591 36.195 18.722L36.077 19.293" fill="white"/>
<path d="M36.985 22.4231L36.1 22.1681L37.014 18.9191L37.914 19.1771L36.985 22.4231Z" fill="white"/>
<path d="M40.994 24.5611L40.348 24.0771L39.579 21.2961L38.696 23.1251L37.849 22.7461L39.3 19.6991L40.053 20.0481L40.926 22.9481L42.085 21.1701L42.879 21.7341L40.994 24.5611Z" fill="white"/>
<path d="M45.588 26.484C45.4634 25.9098 45.2295 25.3649 44.899 24.879C44.353 24.103 43.699 24.031 43.247 24.379C43.0352 24.59 42.9081 24.8712 42.8896 25.1696C42.8712 25.4679 42.9628 25.7626 43.147 25.998C43.3262 26.2691 43.5473 26.5101 43.802 26.712L44.183 26.505L43.855 25.894L44.327 25.63L45.052 27.061L43.979 27.62C43.4232 27.3146 42.946 26.8843 42.585 26.363C41.843 25.305 41.906 24.163 42.731 23.58C43.556 22.997 44.662 23.346 45.431 24.423C45.7813 24.9103 46.0514 25.4505 46.231 26.023L45.598 26.486" fill="white"/>
<path d="M19.618 24.153C19.2393 24.4353 18.9099 24.7783 18.643 25.168C18.443 25.491 18.403 25.753 18.537 25.844C18.927 26.129 19.968 24.222 20.947 24.834C21.447 25.152 21.447 25.897 20.954 26.704C20.6773 27.1681 20.3018 27.5655 19.854 27.868L19.254 27.499C19.7135 27.2522 20.1045 26.8952 20.392 26.46C20.608 26.106 20.597 25.824 20.437 25.725C19.974 25.433 19.082 27.393 18.083 26.766C17.593 26.473 17.549 25.783 18.073 24.935C18.3408 24.5107 18.6763 24.133 19.066 23.817L19.614 24.154" fill="white"/>
<path d="M32.0181 47.22C32.0181 47.22 42.0181 44.338 42.0181 34.413C42.0181 28.583 40.5791 26.499 40.5791 26.499C39.1913 26.5766 37.8086 26.2752 36.5791 25.627C35.2036 24.7953 33.6269 24.3557 32.0196 24.3557C30.4122 24.3557 28.8355 24.7953 27.4601 25.627C26.2302 26.2743 24.8478 26.5757 23.4601 26.499C23.4601 26.499 22.0171 28.583 22.0171 34.413C22.0171 44.339 32.0181 47.22 32.0181 47.22Z" fill="#1A6E3E"/>
<path d="M32.018 46.657C32.018 46.657 41.518 43.9 41.518 34.484C41.528 28.938 40.155 26.969 40.155 26.969C38.8356 27.0406 37.5216 26.7505 36.355 26.13C35.0454 25.3483 33.5487 24.9355 32.0235 24.9355C30.4984 24.9355 29.0016 25.3483 27.692 26.13C26.525 26.7495 25.2114 27.0396 23.892 26.969C23.892 26.969 22.525 28.938 22.525 34.484C22.525 43.9 32.025 46.657 32.025 46.657" fill="white"/>
<path d="M32.018 46.082C32.018 46.082 41.025 43.482 41.025 34.56C41.025 29.303 39.725 27.431 39.725 27.431C38.476 27.4988 37.232 27.2272 36.125 26.645C34.8875 25.8991 33.4699 25.5049 32.025 25.5049C30.58 25.5049 29.1625 25.8991 27.925 26.645C26.8132 27.2272 25.5651 27.4988 24.312 27.431C24.312 27.431 23.012 29.303 23.012 34.56C23.029 43.486 32.012 46.082 32.012 46.082" fill="#1A6E3E"/>
<path d="M28.4811 29.2211C28.7344 29.3399 29.0086 29.4079 29.2881 29.421C29.8881 29.454 31.0381 28.931 31.4681 29.334C31.1089 29.2674 30.7382 29.3042 30.3991 29.4401C30.0416 29.5918 29.6608 29.6814 29.2731 29.705C28.5731 29.705 28.4421 29.161 28.4821 29.218" fill="#FFAA00"/>
<path d="M35.2071 29.431C35.2058 29.326 35.1836 29.2224 35.1417 29.1262C35.0998 29.0299 35.0391 28.943 34.9632 28.8705C34.8873 28.798 34.7977 28.7415 34.6996 28.7041C34.6015 28.6668 34.4969 28.6494 34.392 28.653C34.2037 28.6565 34.0242 28.7337 33.892 28.868C33.883 28.81 33.8858 28.7507 33.9003 28.6938C33.9147 28.6369 33.9405 28.5836 33.9761 28.5369C34.0117 28.4902 34.0563 28.4511 34.1073 28.4221C34.1583 28.3931 34.2147 28.3747 34.273 28.368C34.4123 28.3452 34.5548 28.3503 34.6921 28.3829C34.8294 28.4155 34.9589 28.475 35.073 28.558C35.08 28.488 35.102 28.027 34.356 27.966C33.988 27.934 33.467 28.066 33.302 27.879C33.4832 27.877 33.6626 27.8432 33.8321 27.779C33.9798 27.6977 34.1146 27.5949 34.232 27.474C33.761 27.628 33.081 27.274 32.669 27.263C32.1 27.244 31.985 27.501 31.985 27.501C31.7899 27.4241 31.5817 27.3861 31.372 27.389C31.272 27.38 30.778 27.369 30.778 27.665C30.778 28.111 32.078 27.855 32.117 27.853C32.117 27.853 32.105 27.983 31.578 28.101C31.5043 28.1079 31.434 28.1351 31.3749 28.1796C31.3157 28.2241 31.2701 28.2841 31.243 28.353C31.259 28.321 31.22 28.253 31.179 28.199C31.091 28.083 30.945 27.966 30.473 27.984C30.318 27.989 29.765 28.084 29.765 28.321C29.765 28.538 30.203 28.437 30.203 28.437C30.203 28.437 30.213 28.481 30.061 28.537C30.017 28.5508 29.9773 28.5758 29.9459 28.6097C29.9145 28.6435 29.8925 28.685 29.882 28.73C29.842 28.955 30.114 29.15 30.114 29.15C30.1972 29.0192 30.3152 28.9142 30.4548 28.8469C30.5943 28.7796 30.7499 28.7526 30.904 28.769C31.549 28.769 31.854 29.127 31.837 29.425C31.823 29.587 31.6941 29.8 31.2371 29.815C30.9667 29.8269 30.6962 29.7931 30.437 29.715C30.4132 29.7766 30.407 29.8436 30.419 29.9086C30.431 29.9736 30.4607 30.0339 30.505 30.083C30.6005 30.1456 30.6793 30.2305 30.7347 30.3303C30.7901 30.4301 30.8204 30.5419 30.823 30.656C30.9675 30.4106 31.1959 30.2259 31.466 30.136C31.635 30.114 31.866 30.148 31.866 30.35C31.85 30.75 31.036 30.888 30.873 30.934C30.165 31.107 29.946 31.315 29.92 31.501C30.1154 31.4348 30.3228 31.4116 30.528 31.433C30.6515 31.4467 30.7764 31.4329 30.8939 31.3924C31.0113 31.3519 31.1183 31.2859 31.2071 31.199C31.2441 31.536 30.551 31.751 29.92 31.966C29.067 32.272 28.92 32.807 28.894 33.088C28.2052 33.608 27.4126 33.974 26.57 34.161C25.88 34.134 25.948 33.725 25.447 33.734C25.3038 33.7269 25.1628 33.7722 25.0506 33.8614C24.9383 33.9507 24.8624 34.0778 24.837 34.219C24.9741 34.1588 25.1236 34.132 25.273 34.141C25.512 34.161 25.604 34.241 25.646 34.317C25.3608 34.2755 25.0699 34.329 24.818 34.469C24.711 34.552 24.6406 34.6735 24.6219 34.8076C24.6032 34.9418 24.6377 35.0779 24.718 35.187C24.8092 35.0405 24.9519 34.9335 25.118 34.887C25.3029 34.8154 25.5059 34.8052 25.697 34.858C25.65 34.873 25.1601 34.937 25.0261 35.297C24.9958 35.3992 25.004 35.5089 25.0491 35.6055C25.0943 35.702 25.1732 35.7787 25.271 35.821C25.4022 35.6083 25.5798 35.4282 25.7906 35.2942C26.0014 35.1601 26.2399 35.0756 26.488 35.047C27.0214 34.941 27.5746 35.0083 28.067 35.239C28.0229 35.1122 27.9455 34.9997 27.843 34.913C27.7443 34.8282 27.6297 34.7636 27.506 34.723C27.506 34.723 27.553 34.584 27.779 34.57C28.344 34.529 28.473 35.035 29.144 35.085C29.3788 35.1025 29.6115 35.0311 29.796 34.885C29.796 34.885 29.565 34.985 29.248 34.63C29.167 34.5367 29.065 34.464 28.9505 34.4176C28.836 34.3712 28.7121 34.3525 28.589 34.363C28.7572 34.2382 28.964 34.1766 29.173 34.189C29.673 34.218 29.956 34.7 30.324 34.789C30.5101 34.8521 30.7115 34.8546 30.899 34.796C30.882 34.822 30.857 34.912 30.63 35.02C30.5302 35.06 30.4236 35.0804 30.316 35.08C30.316 35.08 30.376 35.796 32.489 36.329C33.189 36.507 33.279 36.668 33.249 36.934C33.194 37.407 32.591 37.601 32.559 38.481C32.529 39.381 33.237 39.614 33.395 40.004C33.4436 40.1181 33.4631 40.2426 33.4518 40.3662C33.4404 40.4897 33.3986 40.6085 33.33 40.712C33.557 40.761 33.718 40.541 33.882 40.447C34.182 40.283 34.482 40.464 34.416 40.947C34.362 41.372 33.938 42.492 33.416 42.475C33.047 42.458 33.084 42.389 32.736 42.383C32.6873 42.3774 32.638 42.3823 32.5913 42.3975C32.5447 42.4126 32.5019 42.4377 32.4658 42.4709C32.4298 42.5041 32.4013 42.5447 32.3823 42.59C32.3634 42.6352 32.3544 42.684 32.356 42.733C32.3691 42.8911 32.4209 43.0437 32.507 43.177C32.5395 43.1217 32.5828 43.0735 32.6344 43.0353C32.6859 42.9972 32.7446 42.9699 32.807 42.955C32.958 42.9118 33.1153 42.8946 33.272 42.904C33.272 42.904 32.823 43.143 32.791 43.509C32.765 43.774 32.898 43.861 32.898 43.861C32.9867 43.7541 33.1139 43.6866 33.252 43.673C33.4135 43.6507 33.5678 43.5921 33.7032 43.5015C33.8387 43.4109 33.9518 43.2907 34.034 43.15C34.034 43.15 34.134 43.205 33.973 43.502C33.9343 43.5703 33.9139 43.6475 33.9139 43.726C33.9139 43.8045 33.9343 43.8817 33.973 43.95C34.0377 43.8746 34.117 43.813 34.206 43.769C34.406 43.681 34.745 43.648 34.788 43.376C34.831 43.104 34.462 42.896 34.663 42.417C34.7268 42.276 34.8192 42.1499 34.9344 42.0466C35.0496 41.9433 35.185 41.8651 35.3321 41.817C35.7631 41.597 35.732 41.457 35.732 41.457C35.588 41.529 35.432 41.448 35.239 41.457C35.137 41.4673 35.0413 41.5113 34.967 41.582C34.9792 41.4612 35.0183 41.3446 35.0812 41.2408C35.1442 41.137 35.2296 41.0486 35.331 40.982C35.716 40.69 36.2921 40.665 36.5821 40.22C36.8551 39.796 36.615 39.556 36.615 39.556C36.607 39.664 36.49 39.816 36.101 39.98C35.8599 40.0599 35.647 40.2078 35.488 40.406C35.4894 40.1558 35.5707 39.9126 35.72 39.7119C35.8693 39.5111 36.0788 39.3633 36.318 39.29C37.309 38.926 37.018 38.425 36.976 38.356C36.9143 38.4575 36.8286 38.5422 36.7264 38.6027C36.6242 38.6632 36.5087 38.6976 36.39 38.703C35.811 38.718 35.78 37.98 35.775 37.98C36.0387 38.1008 36.3364 38.1248 36.616 38.048C36.7865 38.0332 36.9487 37.9684 37.0823 37.8616C37.2159 37.7548 37.315 37.6109 37.367 37.448C37.33 37.47 36.856 37.859 36.608 37.622C36.8975 37.541 37.1523 37.3669 37.333 37.1267C37.5137 36.8865 37.6104 36.5935 37.608 36.293C37.654 35.029 36.668 34.368 36.167 33.033C35.984 32.533 35.72 31.083 36.924 30.843C37.119 30.817 37.289 30.863 37.247 30.843C37.2033 30.9297 37.1835 31.0264 37.1895 31.1233C37.1955 31.2202 37.2271 31.3138 37.2811 31.3945C37.3351 31.4751 37.4096 31.54 37.4969 31.5824C37.5842 31.6249 37.6812 31.6434 37.778 31.636C37.9767 31.6685 38.1801 31.6585 38.3747 31.6068C38.5692 31.5551 38.7507 31.4628 38.907 31.336C38.679 31.3895 38.4418 31.3912 38.213 31.341C37.851 31.241 37.892 31.018 37.892 31.018C38.0779 31.1106 38.2786 31.1695 38.485 31.192C39.008 31.228 39.204 30.966 39.221 30.903C39.0551 30.952 38.8817 30.9713 38.709 30.96C38.288 30.903 38.297 30.707 38.297 30.707C38.5006 30.7701 38.7166 30.7824 38.926 30.743C39.447 30.659 39.526 30.343 39.507 30.243C39.507 30.243 39.384 30.543 38.76 30.431C38.5253 30.3593 38.2842 30.3107 38.04 30.286C37.909 30.2806 37.7787 30.3081 37.661 30.3659C37.5433 30.4237 37.4419 30.51 37.366 30.617C37.2194 30.5955 37.0708 30.5905 36.923 30.602C36.5339 30.6675 36.1863 30.8838 35.9555 31.2039C35.7247 31.5239 35.6293 31.9221 35.69 32.312C35.721 33.739 37.1 35.32 37.061 36.371C37.0704 36.6004 36.9935 36.8251 36.8454 37.0005C36.6973 37.176 36.4888 37.2896 36.261 37.319C35.753 37.348 35.09 37.097 34.489 35.642C34.1726 34.8808 34.0387 34.0562 34.098 33.234C34.0302 33.2771 33.9718 33.3335 33.9264 33.3999C33.8811 33.4662 33.8496 33.5411 33.834 33.62C33.79 33.7736 33.79 33.9364 33.834 34.09C33.7052 34.0272 33.6011 33.9231 33.5384 33.7942C33.4756 33.6653 33.4579 33.5191 33.488 33.379C33.537 32.764 33.702 32.6 33.746 32.095C33.7528 31.8458 33.6807 31.6008 33.54 31.395C33.7078 31.431 33.8589 31.5216 33.9698 31.6526C34.0807 31.7835 34.1452 31.9476 34.153 32.119C34.323 33.264 34.782 33.169 34.79 33.169C34.49 32.701 34.679 31.991 34.584 31.395C34.436 30.487 33.808 30.689 33.784 30.689C33.8132 30.5993 33.8688 30.5205 33.9436 30.463C34.0184 30.4055 34.1088 30.372 34.203 30.367C34.439 30.367 34.649 30.598 34.851 31.091C35.053 31.584 35.312 31.491 35.312 31.491C35.075 31.222 35.149 30.771 34.999 30.373C34.639 29.421 33.962 29.615 33.945 29.615C33.9698 29.5185 34.0271 29.4336 34.1073 29.3746C34.1875 29.3155 34.2856 29.286 34.385 29.291C34.5304 29.3003 34.6691 29.3548 34.7821 29.4467C34.895 29.5387 34.9764 29.6636 35.015 29.804C35.15 30.11 35.367 30.064 35.367 30.064C35.275 29.964 35.229 29.932 35.205 29.429" fill="#FFAA00"/>
<path d="M26.101 28.965C26.2114 28.9061 26.3388 28.8872 26.4615 28.9117C26.5842 28.9361 26.6947 29.0023 26.774 29.099C27.007 29.376 27.03 30.191 27.748 30.599C28.3825 30.968 29.1086 31.1493 29.842 31.122C29.379 31.395 29.3011 31.683 28.9871 31.992C28.2441 32.71 27.5871 32.48 27.5421 32.418C27.6803 32.3802 27.8075 32.3099 27.9131 32.213C28.044 32.0663 28.1887 31.9324 28.3451 31.813C28.4612 31.7313 28.5947 31.6775 28.735 31.656C28.735 31.656 28.6431 31.531 28.3351 31.626C28.0051 31.726 27.875 32.007 27.398 32.026C26.921 32.045 26.8161 31.894 26.8161 31.894C26.9177 31.903 27.0198 31.8836 27.1111 31.838C27.2556 31.738 27.3921 31.6266 27.519 31.505C27.6422 31.4189 27.7898 31.3748 27.9401 31.379C27.894 31.3324 27.8384 31.2962 27.7772 31.2727C27.716 31.2493 27.6505 31.2391 27.5851 31.243C27.1781 31.251 27.1461 31.436 26.8201 31.362C26.9107 31.2622 26.9683 31.1368 26.985 31.003C26.991 30.832 26.874 30.391 25.951 30.34C25.782 30.3387 25.6151 30.3014 25.4615 30.2307C25.3079 30.16 25.1711 30.0576 25.0601 29.93C24.9904 29.8522 24.8968 29.7997 24.7941 29.781C24.901 29.6755 25.0423 29.6118 25.1922 29.6015C25.3421 29.5913 25.4907 29.6351 25.6111 29.725C25.7013 29.7847 25.8038 29.8233 25.911 29.838C25.8031 29.6415 25.6243 29.4934 25.411 29.424C25.29 29.396 25.1635 29.4026 25.0461 29.443C25.0924 29.3275 25.1716 29.2281 25.2737 29.157C25.3759 29.086 25.4967 29.0464 25.6211 29.043C25.7958 29.0474 25.9659 29.1005 26.1122 29.1962C26.2584 29.292 26.3751 29.4266 26.4491 29.585C26.4496 29.4639 26.4179 29.3448 26.3571 29.24C26.2935 29.1336 26.2067 29.043 26.1031 28.975" fill="#FFAA00"/>
<path d="M31.757 36.338C31.425 36.551 31.032 36.427 30.379 36.468C30.26 36.464 30.1413 36.4837 30.03 36.5259C29.9186 36.5681 29.8167 36.6319 29.7302 36.7138C29.6437 36.7956 29.5743 36.8938 29.526 37.0027C29.4778 37.1116 29.4516 37.229 29.449 37.348C29.455 37.907 29.909 38.148 29.876 38.541C29.847 39.002 29.121 39.341 28.63 39.295C28.139 39.249 27.849 38.795 27.395 38.816C27.2631 38.8058 27.1323 38.8471 27.0302 38.9312C26.928 39.0152 26.8624 39.1356 26.847 39.267C26.9745 39.219 27.1122 39.2042 27.247 39.224C27.3275 39.2326 27.4031 39.2674 27.462 39.323C27.5209 39.3786 27.5599 39.4521 27.573 39.532C27.4272 39.4689 27.2683 39.4417 27.1098 39.4527C26.9513 39.4637 26.7978 39.5125 26.662 39.595C26.3 39.881 26.562 40.352 26.546 40.323C26.6291 40.1901 26.7529 40.0877 26.899 40.031C27.0596 39.9757 27.2317 39.9623 27.399 39.992C27.2582 40.057 27.1322 40.1503 27.029 40.266C26.9323 40.3765 26.8806 40.5192 26.884 40.666C27.107 40.496 27.266 40.624 27.484 40.64C27.989 40.692 28.033 40.085 28.684 39.992C29.1064 39.9418 29.5343 40.0162 29.915 40.206C29.9114 40.1439 29.8954 40.0831 29.868 40.0273C29.8405 39.9715 29.8021 39.9217 29.755 39.881C29.6555 39.7986 29.532 39.7506 29.403 39.744C29.524 39.6668 29.6655 39.6277 29.809 39.632C30.236 39.638 30.446 39.871 30.89 39.89C31.0293 39.9025 31.1698 39.887 31.303 39.8444C31.4363 39.8018 31.5597 39.733 31.666 39.642C31.4627 39.6341 31.2666 39.5643 31.104 39.442C31.0123 39.3794 30.9082 39.3375 30.7987 39.3192C30.6892 39.3009 30.577 39.3066 30.47 39.336C30.47 39.336 30.57 38.96 31.137 38.962C31.5216 38.9847 31.8968 39.0901 32.237 39.271C32.1322 39.1174 32.063 38.9424 32.0346 38.7586C32.0062 38.5748 32.0194 38.3871 32.073 38.209C32.1536 37.813 32.3758 37.4599 32.698 37.216C32.4446 37.2094 32.1931 37.2625 31.964 37.371C31.7531 37.46 31.5658 37.597 31.417 37.771C31.422 37.6606 31.4515 37.5527 31.5034 37.4552C31.5553 37.3576 31.6282 37.2728 31.717 37.207C31.8713 37.0421 32.0651 36.9192 32.28 36.85C31.9885 36.8336 31.6964 36.8719 31.419 36.963C31.1508 37.0227 30.8945 37.1272 30.661 37.272C30.661 37.272 30.637 36.942 31.17 36.766C31.841 36.542 31.755 36.328 31.755 36.328" fill="#FFAA00"/>
<path d="M28.963 33.3781C29.0346 33.199 29.1511 33.0413 29.3011 32.9201C29.4512 32.7989 29.6299 32.7184 29.82 32.6861C30.62 32.5261 30.72 32.3581 30.902 32.1221C30.914 32.3244 30.8554 32.5247 30.7364 32.6888C30.6173 32.8529 30.4451 32.9706 30.249 33.0221C29.9448 33.1174 29.6308 33.1781 29.313 33.2031C29.184 33.2323 29.0642 33.2927 28.964 33.3791" fill="#1A6E3E"/>
<path d="M30.047 33.746C30.047 33.746 30.027 33.375 30.99 33.067C32.051 32.732 31.911 32.175 31.911 32.175C31.9683 32.2905 31.9998 32.417 32.0035 32.5457C32.0072 32.6745 31.9831 32.8026 31.9326 32.9212C31.8822 33.0398 31.8067 33.146 31.7113 33.2326C31.6159 33.3193 31.5029 33.3842 31.38 33.423C31.0774 33.5082 30.7667 33.5615 30.453 33.582C30.3086 33.6042 30.1715 33.6604 30.053 33.746" fill="#1A6E3E"/>
<path d="M31.46 34.0861C31.4444 33.9985 31.4563 33.9082 31.4941 33.8276C31.5319 33.747 31.5937 33.6801 31.671 33.6361C32.102 33.3251 32.555 33.3161 32.804 32.8501C32.9235 32.65 32.9625 32.4119 32.913 32.1841C32.913 32.1841 32.975 32.2081 33.071 32.4141C33.1469 32.5875 33.1723 32.7787 33.1443 32.9658C33.1164 33.153 33.0362 33.3284 32.913 33.4721C32.6047 33.6764 32.2525 33.8053 31.885 33.8481C31.7241 33.8873 31.5768 33.9696 31.459 34.0861" fill="#1A6E3E"/>
<path d="M29.95 34.1651C30.066 34.0637 30.2171 34.0116 30.371 34.02C30.836 34.028 31.018 34.3621 31.264 34.4571C31.335 34.4917 31.4143 34.5058 31.493 34.498C31.4513 34.5445 31.3981 34.579 31.3387 34.5981C31.2793 34.6173 31.2159 34.6204 31.155 34.6071C30.743 34.5761 30.517 34.2401 30.263 34.1691C30.161 34.1358 30.051 34.1358 29.949 34.1691" fill="#1A6E3E"/>
<path d="M30.728 35.2251C31.056 35.3379 31.4012 35.3924 31.748 35.3861C32.1541 35.3614 32.549 35.2423 32.901 35.0381C32.7665 35.2053 32.5975 35.3415 32.4056 35.4374C32.2137 35.5334 32.0034 35.5868 31.789 35.5941C31.5949 35.6136 31.3988 35.5907 31.2144 35.527C31.03 35.4633 30.8616 35.3602 30.7209 35.2251" fill="#1A6E3E"/>
<path d="M31.771 35.7721C32.062 35.8384 32.3595 35.8719 32.658 35.8721C32.9814 35.8716 33.3021 35.8134 33.605 35.7001C33.4859 35.8251 33.3411 35.9227 33.1805 35.9861C33.0198 36.0494 32.8474 36.0771 32.675 36.0671C32.5125 36.0904 32.3468 36.076 32.1907 36.025C32.0346 35.974 31.8924 35.8878 31.775 35.7731" fill="#1A6E3E"/>
<path d="M33.501 37.344C33.3449 37.4733 33.218 37.6342 33.1287 37.8162C33.0394 37.9981 32.9898 38.197 32.9831 38.3995C32.9764 38.6021 33.0128 38.8038 33.0898 38.9912C33.1668 39.1787 33.2828 39.3477 33.43 39.487C33.5114 39.6056 33.5685 39.7392 33.598 39.88C33.726 39.602 33.398 39.109 33.291 38.68C33.2434 38.2236 33.3158 37.7638 33.501 37.344Z" fill="#1A6E3E"/>
<path d="M24.986 9.694C24.0587 9.7259 23.1429 9.90966 22.275 10.238C21.581 10.538 21.211 10.92 21.343 11.221C21.728 12.11 25.599 10.147 26.483 12.221C26.972 13.358 25.995 14.56 24.254 15.305C23.2917 15.7409 22.2454 15.9604 21.189 15.948L20.639 14.666C21.6546 14.7999 22.6875 14.6712 23.639 14.292C24.385 13.964 24.701 13.598 24.553 13.247C24.137 12.274 20.308 14.333 19.392 12.213C18.953 11.188 19.822 10.013 21.645 9.22899C22.547 8.84274 23.508 8.61215 24.487 8.547L24.987 9.698" fill="white"/>
<path d="M35.8329 13.164C34.7754 13.6104 33.6368 13.8328 32.4889 13.817C29.1799 13.817 27.537 12.204 27.529 10.542C27.522 8.81703 29.377 7.20703 32.629 7.19303C33.6853 7.16558 34.7361 7.3555 35.716 7.75103V9.18603C34.7924 8.7739 33.7951 8.55281 32.784 8.53604C30.974 8.54304 29.7089 9.36004 29.7089 10.5C29.7089 11.64 30.974 12.467 32.745 12.467C33.8089 12.4328 34.8556 12.1888 35.8249 11.749L35.832 13.163" fill="white"/>
<path d="M39.257 8.23401L37.277 14.303L39.151 14.903L39.943 12.467L41.65 13.035C43.496 13.635 44.616 12.919 44.898 12.062C45.167 11.233 44.655 9.99101 42.825 9.39601L39.257 8.23401ZM40.762 9.94902L41.595 10.228C42.679 10.584 43.176 10.913 43.012 11.428C42.868 11.895 42.278 12.002 41.357 11.71L40.301 11.358L40.762 9.94902Z" fill="white"/>
</g>
<defs>
<clipPath id="clip0_40_31884">
<rect width="64" height="64" fill="white"/>
</clipPath>
</defs>
</svg>
