<svg width="64" height="64" viewBox="0 0 64 64" fill="none" xmlns="http://www.w3.org/2000/svg">
<g clip-path="url(#clip0_40_31948)">
<path d="M32 64C49.6731 64 64 49.6731 64 32C64 14.3269 49.6731 0 32 0C14.3269 0 0 14.3269 0 32C0 49.6731 14.3269 64 32 64Z" fill="#A2110A"/>
<path d="M34.4 13.6131C33.9 13.5821 33.4 13.5821 32.9 13.5821C23.521 13.3941 16.175 15.0821 14.86 16.0201C13.516 16.9891 12.297 19.8961 14.047 28.1201C15.6195 34.8772 18.734 41.1789 23.147 46.5321C27.211 51.4711 30.774 53.7531 32.025 53.7841C41.56 40.4341 12.893 23.1131 34.4 13.6131Z" fill="#FFFFFE"/>
<path d="M49.312 16.207C48.155 15.301 42.153 13.738 34.15 13.425C13.706 24.21 43.434 38.7151 32.212 53.7821C33.869 53.1261 36.932 50.9061 40.402 46.8111C44.9228 41.4768 48.1628 35.1787 49.874 28.399C51.781 20.178 50.624 17.208 49.311 16.208" fill="#DA322A"/>
<path d="M28.586 41.403L28.961 41.09L31.587 39.027L27.211 39.277H26.961L26.805 39.058L24.177 35.745L24.021 39.027L23.99 39.465L23.552 39.496L19.677 39.715L23.553 41.372L23.866 41.497L23.647 45.311L26.617 42.966L26.836 42.778L27.117 42.903L31.117 44.622L28.898 41.777L28.585 41.402" fill="#DA322A"/>
<path d="M33.118 38.434L29.273 41.466L32.68 45.842L26.897 43.342L23.083 46.405L23.364 41.805L17.643 39.335L23.553 38.993L23.803 34.742L21.24 33.617L19.24 35.211L19.365 32.835L16.365 31.553L19.46 31.365L19.583 28.993L21.363 31.275L24.458 31.087L22.458 32.65L24.24 34.932L27.24 38.777L33.117 38.433L33.118 38.434ZM23.146 34.12L22.146 32.87L21.958 32.62L22.208 32.432L23.396 31.494L21.333 31.619H21.177L21.083 31.493L19.833 29.899L19.739 31.431V31.712L19.426 31.681L17.707 31.775L19.458 32.525L19.677 32.619V32.838L19.583 34.493L20.99 33.368L21.146 33.243L21.334 33.306L23.146 34.12ZM31.117 44.62L28.898 41.775L28.585 41.4L31.585 39.024L27.209 39.274H26.963L26.807 39.055L24.181 35.741L24.025 39.023L23.994 39.461L23.556 39.492L19.711 39.711L23.556 41.368L23.863 41.493L23.832 41.837L23.644 45.307L26.614 42.962L26.833 42.774L27.114 42.899L31.117 44.62Z" fill="#9E9F9E"/>
<path d="M21.959 32.615L22.209 32.427L23.397 31.489L21.332 31.615H21.176L21.082 31.49L19.832 29.899L19.738 31.681H19.425L17.706 31.775L19.457 32.525L19.676 32.619V32.838L19.582 34.495L20.989 33.37L21.145 33.245L21.333 33.308L23.177 34.09L22.145 32.871L21.957 32.621M19.02 20.115H16.332V21.084H18.458L19.02 20.115Z" fill="#DA322A"/>
<path d="M18.583 21.271H16.176V21.677H19.05L18.3 23.021H16.176V24.427H14.55V19.927H19.395L18.583 21.271ZM16.332 21.083H18.458L19.021 20.114H16.332V21.083ZM15.988 20.114H14.738V24.24H15.988V20.114ZM16.332 22.834H18.176L18.707 21.865H16.332V22.834Z" fill="#9E9F9E"/>
<path d="M14.706 24.241H15.956V20.115H14.706V24.241ZM18.706 21.865H16.332V22.834H18.176L18.707 21.865M22.807 23.334V24.303C23.7027 24.3078 24.5645 23.9601 25.206 23.335L24.268 22.679C23.8589 23.0458 23.3452 23.2752 22.799 23.335" fill="#DA322A"/>
<path d="M25.335 23.179L25.523 23.304L25.335 23.46C24.6435 24.0946 23.7415 24.4508 22.803 24.46H22.428C20.802 24.397 19.583 23.522 19.49 22.334V21.959C19.615 20.802 20.803 19.927 22.428 19.865H22.803C23.7088 19.8801 24.5855 20.1869 25.303 20.74L25.491 20.896L25.303 21.052L24.24 21.896L24.115 21.802C23.7489 21.4785 23.2887 21.2812 22.802 21.239H22.459C21.896 21.302 21.302 21.645 21.302 22.177C21.302 22.771 21.896 23.115 22.459 23.146H22.803C23.3126 23.0984 23.794 22.8905 24.178 22.552L24.272 22.458L24.397 22.552L25.335 23.177V23.179ZM22.803 21.022C23.3375 21.0685 23.8423 21.2879 24.241 21.647L25.21 20.897C24.5343 20.3586 23.6979 20.0615 22.834 20.053L22.803 21.022ZM22.428 23.335C22.103 23.3453 21.7863 23.2314 21.5424 23.0165C21.2984 22.8015 21.1456 22.5017 21.115 22.178C21.1578 21.8621 21.3153 21.573 21.5573 21.3656C21.7994 21.1581 22.1093 21.0469 22.428 21.053V20.084C20.865 20.147 19.677 21.053 19.646 22.178V22.209C19.646 23.334 20.74 24.303 22.428 24.335V23.335ZM25.21 23.335L24.272 22.679C23.8683 23.0493 23.3497 23.2699 22.803 23.304V24.273C23.6949 24.2753 24.5548 23.9402 25.21 23.335Z" fill="#9E9F9E"/>
<path d="M25.178 20.896C24.5023 20.3576 23.666 20.0605 22.802 20.052V21.021C23.3365 21.0676 23.8413 21.287 24.24 21.646L25.178 20.896ZM21.114 22.146C21.1569 21.8301 21.3143 21.541 21.5564 21.3336C21.7985 21.1262 22.1083 21.0149 22.427 21.021V20.052C20.864 20.115 19.676 21.021 19.645 22.146V22.177C19.645 23.302 20.739 24.271 22.427 24.303V23.334C22.1018 23.3272 21.79 23.2033 21.5488 22.9851C21.3076 22.7669 21.1532 22.4689 21.114 22.146Z" fill="#DA322A"/>
<path d="M32.493 21.9591C31.618 21.6461 30.148 21.6781 30.336 21.2401C30.3558 21.1973 30.3864 21.1604 30.4248 21.133C30.4632 21.1056 30.5081 21.0888 30.555 21.0841C30.898 21.0046 31.2541 20.9998 31.5991 21.0698C31.9442 21.1398 32.2701 21.2832 32.555 21.4901L33.368 20.7401C32.691 20.2682 31.8799 20.0269 31.055 20.0521C30.43 20.0521 28.898 20.2711 28.898 21.3651C28.9255 21.5833 29.0132 21.7895 29.1513 21.9607C29.2895 22.1318 29.4725 22.2611 29.68 22.3341C30.462 22.7091 31.993 22.6471 31.931 23.0531C31.868 23.3341 30.743 23.6781 29.555 22.8341L28.711 23.5521C29.4449 24.0584 30.3196 24.3208 31.211 24.3021C32.399 24.3021 33.368 23.8331 33.368 22.9891C33.3357 22.7515 33.2362 22.5282 33.0812 22.3453C32.9262 22.1625 32.7221 22.0278 32.493 21.9571" fill="#FFFFFE"/>
<path d="M33.338 20.709L32.525 21.459C32.0917 21.1623 31.581 20.9993 31.056 20.99C30.8771 20.9898 30.6988 21.0109 30.525 21.053C30.4386 21.083 30.3626 21.1372 30.306 21.209C30.118 21.647 31.588 21.615 32.463 21.928C32.6903 21.986 32.8939 22.1135 33.0452 22.2928C33.1965 22.4721 33.288 22.6942 33.307 22.928C33.307 23.803 32.338 24.241 31.15 24.241C30.2586 24.2597 29.3839 23.9973 28.65 23.491L29.494 22.772C29.948 23.1056 30.4938 23.291 31.057 23.303C31.526 23.303 31.839 23.147 31.87 22.99C31.933 22.584 30.401 22.615 29.619 22.271C29.4115 22.198 29.2284 22.0687 29.0903 21.8976C28.9522 21.7264 28.8645 21.5202 28.837 21.302C28.837 20.208 30.369 19.989 30.994 19.989C31.8259 20.0136 32.6357 20.2624 33.338 20.709ZM31.025 19.865C30.15 19.865 28.68 20.178 28.68 21.365C28.7019 21.6169 28.7962 21.8571 28.9514 22.0567C29.1066 22.2562 29.3162 22.4067 29.555 22.49C29.9671 22.6491 30.398 22.7543 30.837 22.803C31.0701 22.8366 31.3002 22.8888 31.525 22.959C31.588 22.99 31.65 22.99 31.65 23.022C31.65 23.054 31.619 23.085 31.525 23.116C31.3729 23.1613 31.2147 23.1826 31.056 23.179C30.5265 23.1674 30.0136 22.9928 29.587 22.679L29.462 22.585L29.337 22.679L28.493 23.398L28.305 23.554L28.493 23.71C29.2593 24.254 30.1794 24.5389 31.119 24.523C32.557 24.523 33.464 23.929 33.464 23.023C33.4387 22.7511 33.333 22.493 33.1604 22.2814C32.9879 22.0698 32.7562 21.9144 32.495 21.835C32.1181 21.7084 31.731 21.6144 31.338 21.554C31.0835 21.5266 30.8323 21.4744 30.588 21.398C30.525 21.367 30.494 21.367 30.494 21.304C30.494 21.273 30.557 21.241 30.682 21.241C30.7836 21.2118 30.8896 21.2012 30.995 21.21C31.487 21.214 31.9663 21.3667 32.37 21.648L32.495 21.742L32.62 21.648L33.433 20.898L33.621 20.742L33.433 20.617C32.7391 20.1 31.8898 19.8348 31.025 19.865Z" fill="#9E9F9E"/>
<path d="M34.588 20.115V24.241H35.87V20.115H34.588Z" fill="#FFFFFE"/>
<path d="M35.869 24.21H34.588V20.083H35.87L35.869 24.21ZM36.057 19.927H34.4V24.427H36.057V19.927Z" fill="#9E9F9E"/>
<path d="M38.433 22.178C38.479 21.8494 38.6449 21.5495 38.8987 21.3359C39.1525 21.1223 39.4764 21.0101 39.808 21.021V20.052C38.214 20.115 36.995 20.99 36.995 22.146V22.177C36.995 23.302 38.12 24.271 39.808 24.303V23.334C39.058 23.24 38.433 22.771 38.433 22.177M42.966 22.146C42.966 20.989 41.747 20.114 40.153 20.052V21.021C40.4846 21.0101 40.8084 21.1223 41.0623 21.3359C41.3161 21.5495 41.482 21.8494 41.528 22.178C41.482 22.5066 41.3161 22.8065 41.0623 23.0201C40.8084 23.2337 40.4846 23.3459 40.153 23.335V24.304C41.841 24.241 42.966 23.304 42.966 22.147" fill="#FFFFFE"/>
<path d="M43.154 21.959V22.334C43.029 23.553 41.81 24.428 40.154 24.46H39.839C38.182 24.429 36.963 23.522 36.839 22.334V21.959C36.964 20.802 38.214 19.927 39.839 19.865H40.152C41.778 19.928 43.029 20.803 43.154 21.959ZM39.809 23.304C39.4774 23.3148 39.1535 23.2027 38.8997 22.9891C38.6458 22.7755 38.48 22.4755 38.434 22.147C38.48 21.8184 38.6458 21.5185 38.8997 21.3049C39.1535 21.0913 39.4774 20.9791 39.809 20.99V20.021C38.215 20.084 36.996 20.959 36.996 22.115V22.146C36.996 23.271 38.121 24.24 39.809 24.272V23.304ZM40.122 23.116C40.81 23.053 41.31 22.647 41.31 22.147C41.31 21.647 40.81 21.24 40.122 21.178H39.809C39.121 21.241 38.621 21.647 38.621 22.147C38.621 22.647 39.152 23.054 39.84 23.116H39.996C40.0156 23.1249 40.0369 23.1295 40.0585 23.1295C40.08 23.1295 40.1024 23.1249 40.122 23.116ZM42.967 22.147C42.967 20.99 41.748 20.115 40.154 20.053V21.022C40.4856 21.0111 40.8094 21.1233 41.0633 21.3369C41.3171 21.5505 41.483 21.8504 41.529 22.179C41.483 22.5075 41.3171 22.8075 41.0633 23.0211C40.8094 23.2347 40.4856 23.3468 40.154 23.336V24.305C41.839 24.241 42.967 23.272 42.967 22.147Z" fill="#9E9F9E"/>
<path d="M44.122 24.21H45.372V22.334L44.122 21.209V24.21ZM47.654 22.333L45.122 20.083H44.122V20.771L47.998 24.178H48.936V20.052H47.686L47.655 22.334" fill="#FFFFFE"/>
<path d="M47.467 19.896H49.093V24.396H47.905L45.56 22.302V24.396H43.935V19.896H45.217L47.499 21.928L47.467 19.896ZM45.373 22.334L44.123 21.209V24.209H45.373V22.334ZM48.937 20.083H47.687V22.334L45.155 20.083H44.155V20.771L48.031 24.178H48.969L48.937 20.083Z" fill="#9E9F9E"/>
<path d="M49.499 15.77C51.656 17.458 51.937 21.803 50.406 28.68C48.7962 35.4075 45.6627 41.6753 41.247 47C37.683 51.314 33.87 54.3461 31.9 54.3461C29.962 54.3461 26.117 51.346 22.553 47C18.1612 41.6599 15.0305 35.3978 13.394 28.68C11.831 21.8 12.143 17.489 14.269 15.77C15.801 14.551 22.959 12.8 31.869 12.8C40.779 12.8 47.999 14.551 49.499 15.77ZM31.899 53.3451C40.621 40.0001 13.206 23.554 33.307 13.832C32.838 13.832 32.369 13.801 31.9 13.832C23.022 13.832 16.145 15.614 14.926 16.583C13.676 17.583 12.581 20.428 14.395 28.493C15.9965 35.0623 19.0634 41.184 23.366 46.4001C27.305 51.1521 30.712 53.309 31.9 53.34L31.899 53.3451ZM48.874 16.551C47.78 15.707 42.122 14.175 34.526 13.863C15.207 24.363 43.31 38.463 32.713 53.126C34.276 52.501 37.183 50.3441 40.466 46.3431C44.7758 41.1341 47.8341 35.0065 49.406 28.431C51.252 20.4 50.125 17.552 48.874 16.551Z" fill="#9E9F9E"/>
</g>
<defs>
<clipPath id="clip0_40_31948">
<rect width="64" height="64" fill="white"/>
</clipPath>
</defs>
</svg>
