<svg width="64" height="64" viewBox="0 0 64 64" fill="none" xmlns="http://www.w3.org/2000/svg">
<g clip-path="url(#clip0_40_31970)">
<path d="M32.0001 64C38.3321 64 44.5217 62.1215 49.7856 58.6021C55.0495 55.0828 59.1509 50.081 61.5709 44.2297C63.9908 38.3783 64.6204 31.9406 63.38 25.7313C62.1396 19.522 59.0849 13.8203 54.6026 9.34783C50.1203 4.87535 44.4119 1.83318 38.1999 0.606374C31.988 -0.620436 25.5516 0.0232661 19.7056 2.45601C13.8596 4.88875 8.86676 9.00116 5.35899 14.2727C1.85121 19.5443 -0.0137746 25.7381 7.65974e-05 32.07C0.0241544 40.5431 3.40553 48.6612 9.40349 54.6461C15.4014 60.6309 23.527 63.9945 32.0001 64Z" fill="black"/>
<mask id="mask0_40_31970" style="mask-type:luminance" maskUnits="userSpaceOnUse" x="2" y="2" width="60" height="60">
<path d="M32 62C48.5685 62 62 48.5685 62 32C62 15.4315 48.5685 2 32 2C15.4315 2 2 15.4315 2 32C2 48.5685 15.4315 62 32 62Z" fill="white"/>
</mask>
<g mask="url(#mask0_40_31970)">
<path d="M14.289 14.941V49.057H46.195V45.127H18.152V18.803H46.195V14.941H14.289Z" fill="white"/>
<mask id="mask1_40_31970" style="mask-type:luminance" maskUnits="userSpaceOnUse" x="14" y="14" width="40" height="36">
<path d="M53.545 14.941H14.289V49.057H53.545V14.941Z" fill="white"/>
</mask>
<g mask="url(#mask1_40_31970)">
<path d="M44.565 21.46C41.752 21.817 39.742 23.291 38.983 25.546C38.8161 26.0425 38.733 26.5632 38.737 27.087C38.6408 27.8425 38.7197 28.6099 38.9674 29.3301C39.2152 30.0502 39.6253 30.7037 40.166 31.24C41.238 32.312 42.644 32.915 45.48 33.473C46.6532 33.5927 47.7827 33.9825 48.78 34.612C49.168 34.9401 49.437 35.3869 49.5455 35.8833C49.6539 36.3797 49.5958 36.898 49.38 37.358C49.0995 37.8807 48.6624 38.3024 48.13 38.564C46.7092 39.0635 45.151 38.9994 43.776 38.385C43.2075 38.0621 42.7369 37.5915 42.414 37.023C42.147 36.4701 41.9879 35.8715 41.945 35.259V34.902H38.023V35.17C38.0325 36.6462 38.4499 38.0911 39.229 39.345C39.6958 40.0154 40.2702 40.604 40.929 41.087C42.7492 42.234 44.9044 42.7303 47.043 42.495C48.9032 42.4672 50.6833 41.7329 52.022 40.441C52.773 39.6611 53.271 38.6726 53.451 37.605C53.6022 36.4614 53.5722 35.3012 53.362 34.167C52.848 32.425 51.531 31.287 49.187 30.505C48.763 30.371 48.048 30.17 47.602 30.081C46.496 29.8888 45.4062 29.6126 44.342 29.255C43.203 28.786 42.734 28.183 42.734 27.246C42.734 26.197 43.359 25.527 44.609 25.214C45.4808 25.0336 46.3825 25.0565 47.244 25.281C47.7753 25.4515 48.2498 25.7643 48.6158 26.1855C48.9818 26.6067 49.2253 27.1201 49.32 27.67L49.387 28.117H53.25L53.205 27.47C53.1748 26.326 52.8101 25.216 52.156 24.277C51.1383 22.8662 49.6069 21.9119 47.892 21.62C47.2878 21.5119 46.6748 21.4596 46.061 21.464C45.347 21.442 44.677 21.464 44.561 21.464" fill="white"/>
</g>
</g>
</g>
<defs>
<clipPath id="clip0_40_31970">
<rect width="64" height="64" fill="white"/>
</clipPath>
</defs>
</svg>
