<svg width="64" height="64" viewBox="0 0 64 64" fill="none" xmlns="http://www.w3.org/2000/svg">
<g clip-path="url(#clip0_40_32071)">
<path d="M32 64C49.6731 64 64 49.6731 64 32C64 14.3269 49.6731 0 32 0C14.3269 0 0 14.3269 0 32C0 49.6731 14.3269 64 32 64Z" fill="url(#paint0_linear_40_32071)"/>
<path d="M21.46 24.045C21.332 23.8886 21.1704 23.763 20.9873 23.6775C20.8041 23.592 20.6041 23.5487 20.402 23.551H11.855C11.7868 23.5502 11.7212 23.525 11.67 23.48C11.648 23.4597 11.6304 23.4351 11.6182 23.4078C11.606 23.3804 11.5994 23.3509 11.599 23.321V17.561C11.5994 17.531 11.606 17.5015 11.6182 17.4742C11.6304 17.4468 11.648 17.4223 11.67 17.402C11.693 17.3763 11.7218 17.3565 11.7539 17.3441C11.7861 17.3318 11.8207 17.3273 11.855 17.331H20.887C22.016 17.3342 23.1303 17.5869 24.1502 18.071C25.1702 18.555 26.0705 19.2585 26.787 20.131L28.987 22.812L24.707 28.022L21.46 24.045ZM37.248 20.102C37.9716 19.233 38.8779 18.5342 39.9023 18.0554C40.9268 17.5766 42.0442 17.3296 43.175 17.332H52.181C52.2111 17.3291 52.2415 17.3323 52.2704 17.3414C52.2992 17.3505 52.326 17.3653 52.349 17.385C52.3713 17.4079 52.3877 17.4359 52.3969 17.4665C52.4061 17.4971 52.4079 17.5295 52.402 17.561V23.321C52.4035 23.3785 52.3847 23.4348 52.349 23.48C52.3295 23.5053 52.3038 23.5252 52.2744 23.5376C52.2449 23.5501 52.2128 23.5547 52.181 23.551H43.635C43.4329 23.5486 43.2328 23.5918 43.0496 23.6773C42.8665 23.7628 42.7049 23.8885 42.577 24.045L36.277 31.71L42.607 39.426C42.7343 39.5718 42.8916 39.6884 43.0682 39.7676C43.2448 39.8469 43.4364 39.8869 43.63 39.885H52.177C52.2086 39.8826 52.2404 39.8879 52.2696 39.9002C52.2988 39.9126 52.3246 39.9317 52.345 39.956C52.3837 40.0096 52.4024 40.075 52.398 40.141V45.901C52.3995 45.9585 52.3807 46.0148 52.345 46.06C52.3255 46.0853 52.2998 46.1052 52.2704 46.1176C52.2409 46.1301 52.2088 46.1347 52.177 46.131H43.177C42.0473 46.1321 40.9315 45.8814 39.9109 45.397C38.8903 44.9126 37.9905 44.2069 37.277 43.331L32.038 36.936L26.797 43.334C26.0777 44.21 25.173 44.9156 24.1481 45.3998C23.1231 45.884 22.0035 46.1347 20.87 46.134H11.855C11.8234 46.1363 11.7916 46.1311 11.7624 46.1187C11.7332 46.1064 11.7074 46.0873 11.687 46.063C11.666 46.0374 11.6504 46.0078 11.6413 45.976C11.6322 45.9441 11.6297 45.9108 11.634 45.878V40.118C11.6325 40.0604 11.6513 40.0041 11.687 39.959C11.7065 39.9336 11.7322 39.9138 11.7616 39.9013C11.7911 39.8889 11.8232 39.8843 11.855 39.888H20.402C20.6035 39.8866 20.8024 39.8418 20.985 39.7565C21.1676 39.6713 21.3296 39.5476 21.46 39.394L27.643 31.844L37.248 20.102Z" fill="#00D1FF"/>
</g>
<defs>
<linearGradient id="paint0_linear_40_32071" x1="143.04" y1="19.904" x2="143.04" y2="-2.688" gradientUnits="userSpaceOnUse">
<stop stop-color="#090220"/>
<stop offset="1" stop-color="#170659"/>
</linearGradient>
<clipPath id="clip0_40_32071">
<rect width="64" height="64" fill="white"/>
</clipPath>
</defs>
</svg>
