<svg width="64" height="64" viewBox="0 0 64 64" fill="none" xmlns="http://www.w3.org/2000/svg">
<g clip-path="url(#clip0_407_187)">
<mask id="mask0_407_187" style="mask-type:luminance" maskUnits="userSpaceOnUse" x="0" y="0" width="64" height="64">
<path d="M64 0H0V64H64V0Z" fill="white"/>
</mask>
<g mask="url(#mask0_407_187)">
<path d="M32 64C49.6731 64 64 49.6731 64 32C64 14.3269 49.6731 0 32 0C14.3269 0 0 14.3269 0 32C0 49.6731 14.3269 64 32 64Z" fill="#F5F5F5"/>
<path d="M19.4397 39.6758C19.5528 39.5629 19.687 39.4733 19.8348 39.4122C19.9825 39.3511 20.1408 39.3197 20.3007 39.3198H50.0007C50.1212 39.3196 50.239 39.3552 50.3392 39.422C50.4395 39.4889 50.5176 39.584 50.5636 39.6953C50.6097 39.8067 50.6217 39.9292 50.598 40.0473C50.5743 40.1654 50.5161 40.2739 50.4307 40.3588L44.5607 46.2198C44.3322 46.4479 44.0225 46.576 43.6997 46.5758H14.0037C13.8832 46.5761 13.7654 46.5405 13.6652 46.4736C13.5649 46.4068 13.4868 46.3117 13.4407 46.2003C13.3947 46.089 13.3827 45.9665 13.4064 45.8484C13.4301 45.7302 13.4883 45.6218 13.5737 45.5368L19.4397 39.6758Z" fill="url(#paint0_linear_407_187)"/>
<path d="M19.4397 17.774C19.6699 17.5491 19.9779 17.4216 20.2997 17.418H49.9997C50.1202 17.4177 50.238 17.4533 50.3382 17.5202C50.4385 17.587 50.5166 17.6821 50.5627 17.7935C50.6087 17.9048 50.6207 18.0273 50.597 18.1454C50.5733 18.2636 50.5151 18.372 50.4297 18.457L44.5607 24.318C44.4476 24.431 44.3133 24.5205 44.1656 24.5816C44.0179 24.6427 43.8596 24.6741 43.6997 24.674H14.0037C13.8832 24.6742 13.7654 24.6386 13.6652 24.5718C13.5649 24.5049 13.4868 24.4098 13.4407 24.2985C13.3947 24.1871 13.3827 24.0646 13.4064 23.9465C13.4301 23.8284 13.4883 23.7199 13.5737 23.635L19.4397 17.774Z" fill="url(#paint1_linear_407_187)"/>
<path d="M44.5607 28.6547C44.4476 28.5418 44.3133 28.4522 44.1656 28.3911C44.0179 28.33 43.8596 28.2986 43.6997 28.2988H14.0037C13.8832 28.2985 13.7654 28.3341 13.6652 28.4009C13.5649 28.4678 13.4868 28.5629 13.4407 28.6742C13.3947 28.7856 13.3827 28.9081 13.4064 29.0262C13.4301 29.1443 13.4883 29.2528 13.5737 29.3377L19.4397 35.1987C19.5528 35.3117 19.687 35.4013 19.8348 35.4624C19.9825 35.5235 20.1408 35.5549 20.3007 35.5547H50.0007C50.1212 35.555 50.239 35.5194 50.3392 35.4526C50.4395 35.3857 50.5176 35.2906 50.5636 35.1793C50.6097 35.0679 50.6217 34.9454 50.598 34.8273C50.5743 34.7092 50.5161 34.6007 50.4307 34.5157L44.5607 28.6547Z" fill="url(#paint2_linear_407_187)"/>
</g>
</g>
<defs>
<linearGradient id="paint0_linear_407_187" x1="47.1488" y1="50.2909" x2="46.3601" y2="10.5568" gradientUnits="userSpaceOnUse">
<stop stop-color="#00FFA3"/>
<stop offset="1" stop-color="#DC1FFF"/>
</linearGradient>
<linearGradient id="paint1_linear_407_187" x1="38.1793" y1="54.9678" x2="37.3905" y2="15.2336" gradientUnits="userSpaceOnUse">
<stop stop-color="#00FFA3"/>
<stop offset="1" stop-color="#DC1FFF"/>
</linearGradient>
<linearGradient id="paint2_linear_407_187" x1="42.6458" y1="52.6499" x2="41.8571" y2="12.9086" gradientUnits="userSpaceOnUse">
<stop stop-color="#00FFA3"/>
<stop offset="1" stop-color="#DC1FFF"/>
</linearGradient>
<clipPath id="clip0_407_187">
<rect width="64" height="64" fill="white"/>
</clipPath>
</defs>
</svg>
