<svg xmlns="http://www.w3.org/2000/svg" xmlns:xlink="http://www.w3.org/1999/xlink" width="64" height="64" viewBox="0 0 64 64">
  <defs>
    <clipPath id="clip-path">
      <circle id="Ellipse_115" data-name="Ellipse 115" cx="32" cy="32" r="32" transform="translate(479 7217.402)" fill="#202944"/>
    </clipPath>
    <clipPath id="clip-path-2">
      <circle id="Ellipse_136" data-name="Ellipse 136" cx="32" cy="32" r="32" fill="none"/>
    </clipPath>
  </defs>
  <g id="spell" transform="translate(-479 -7217.402)">
    <g id="Group_5290" data-name="Group 5290">
      <g id="Mask_Group_6" data-name="Mask Group 6" clip-path="url(#clip-path)">
        <g id="spell-2" data-name="spell" transform="translate(479 7217.402)">
          <circle id="Ellipse_135" data-name="Ellipse 135" cx="32" cy="32" r="32" fill="#231c48"/>
          <g id="Group_5305" data-name="Group 5305" clip-path="url(#clip-path-2)">
            <g id="Group_5304" data-name="Group 5304" transform="translate(0 1)" opacity="0.213">
              <g id="Group_5291" data-name="Group 5291" opacity="0.5">
                <line id="Line_7" data-name="Line 7" y2="58.22" transform="translate(49.31 2.89)" fill="#c6c6ff" stroke="#c6c6ff" stroke-width="0.5"/>
                <line id="Line_8" data-name="Line 8" y2="70.56" transform="translate(32.66 -4.07)" fill="#c6c6ff" stroke="#c6c6ff" stroke-width="0.5"/>
                <line id="Line_9" data-name="Line 9" y2="70.55" transform="translate(16.13 -3.93)" fill="#c6c6ff" stroke="#c6c6ff" stroke-width="0.5"/>
              </g>
              <g id="Group_5303" data-name="Group 5303" opacity="0.5">
                <g id="Group_5292" data-name="Group 5292">
                  <line id="Line_10" data-name="Line 10" x1="70.65" transform="translate(4.85 48.39)" fill="#c6c6ff" stroke="#c6c6ff" stroke-width="0.5"/>
                  <line id="Line_11" data-name="Line 11" x1="85.61" transform="translate(-1.68 31.74)" fill="#c6c6ff" stroke="#c6c6ff" stroke-width="0.5"/>
                  <line id="Line_12" data-name="Line 12" x1="85.62" transform="translate(-1.84 15.21)" fill="#c6c6ff" stroke="#c6c6ff" stroke-width="0.5"/>
                </g>
                <g id="Group_5297" data-name="Group 5297" opacity="0.4">
                  <g id="Group_5293" data-name="Group 5293">
                    <line id="Line_13" data-name="Line 13" x1="70.55" transform="translate(-1.57 18.49)" fill="#c6c6ff" stroke="#c6c6ff" stroke-width="0.5"/>
                    <line id="Line_14" data-name="Line 14" x1="70.55" transform="translate(-1.57 21.73)" fill="#c6c6ff" stroke="#c6c6ff" stroke-width="0.5"/>
                    <line id="Line_15" data-name="Line 15" x1="70.55" transform="translate(-1.57 24.96)" fill="#c6c6ff" stroke="#c6c6ff" stroke-width="0.5"/>
                    <line id="Line_16" data-name="Line 16" x1="70.55" transform="translate(-1.57 28.2)" fill="#c6c6ff" stroke="#c6c6ff" stroke-width="0.5"/>
                  </g>
                  <g id="Group_5294" data-name="Group 5294">
                    <line id="Line_17" data-name="Line 17" x1="70.55" transform="translate(-1.57 35.02)" fill="#c6c6ff" stroke="#c6c6ff" stroke-width="0.5"/>
                    <line id="Line_18" data-name="Line 18" x1="70.55" transform="translate(-1.57 38.25)" fill="#c6c6ff" stroke="#c6c6ff" stroke-width="0.5"/>
                    <line id="Line_19" data-name="Line 19" x1="70.55" transform="translate(-1.57 41.49)" fill="#c6c6ff" stroke="#c6c6ff" stroke-width="0.5"/>
                    <line id="Line_20" data-name="Line 20" x1="70.55" transform="translate(-1.57 44.72)" fill="#c6c6ff" stroke="#c6c6ff" stroke-width="0.5"/>
                  </g>
                  <g id="Group_5295" data-name="Group 5295">
                    <line id="Line_21" data-name="Line 21" x1="70.56" transform="translate(-3.67 51.28)" fill="#c6c6ff" stroke="#c6c6ff" stroke-width="0.5"/>
                    <line id="Line_22" data-name="Line 22" x1="70.56" transform="translate(-3.67 54.51)" fill="#c6c6ff" stroke="#c6c6ff" stroke-width="0.5"/>
                    <line id="Line_23" data-name="Line 23" x1="70.56" transform="translate(-3.67 57.75)" fill="#c6c6ff" stroke="#c6c6ff" stroke-width="0.5"/>
                    <line id="Line_24" data-name="Line 24" x1="70.56" transform="translate(-3.67 60.98)" fill="#c6c6ff" stroke="#c6c6ff" stroke-width="0.5"/>
                  </g>
                  <g id="Group_5296" data-name="Group 5296">
                    <line id="Line_25" data-name="Line 25" x1="70.55" transform="translate(-1.57 2.23)" fill="#c6c6ff" stroke="#c6c6ff" stroke-width="0.5"/>
                    <line id="Line_26" data-name="Line 26" x1="70.55" transform="translate(-1.57 5.46)" fill="#c6c6ff" stroke="#c6c6ff" stroke-width="0.5"/>
                    <line id="Line_27" data-name="Line 27" x1="70.55" transform="translate(-1.57 8.7)" fill="#c6c6ff" stroke="#c6c6ff" stroke-width="0.5"/>
                    <line id="Line_28" data-name="Line 28" x1="70.55" transform="translate(-1.57 11.93)" fill="#c6c6ff" stroke="#c6c6ff" stroke-width="0.5"/>
                  </g>
                </g>
                <g id="Group_5302" data-name="Group 5302" opacity="0.4">
                  <g id="Group_5298" data-name="Group 5298">
                    <line id="Line_29" data-name="Line 29" y1="70.55" transform="translate(45.77 -3.93)" fill="#c6c6ff" stroke="#c6c6ff" stroke-width="0.5"/>
                    <line id="Line_30" data-name="Line 30" y1="70.55" transform="translate(42.54 -3.93)" fill="#c6c6ff" stroke="#c6c6ff" stroke-width="0.5"/>
                    <line id="Line_31" data-name="Line 31" y1="70.55" transform="translate(39.3 -3.93)" fill="#c6c6ff" stroke="#c6c6ff" stroke-width="0.5"/>
                    <line id="Line_32" data-name="Line 32" y1="70.55" transform="translate(36.07 -3.93)" fill="#c6c6ff" stroke="#c6c6ff" stroke-width="0.5"/>
                  </g>
                  <g id="Group_5299" data-name="Group 5299">
                    <line id="Line_33" data-name="Line 33" y1="70.55" transform="translate(29.25 -3.93)" fill="#c6c6ff" stroke="#c6c6ff" stroke-width="0.5"/>
                    <line id="Line_34" data-name="Line 34" y1="70.55" transform="translate(26.01 -3.93)" fill="#c6c6ff" stroke="#c6c6ff" stroke-width="0.5"/>
                    <line id="Line_35" data-name="Line 35" y1="70.55" transform="translate(22.78 -3.93)" fill="#c6c6ff" stroke="#c6c6ff" stroke-width="0.5"/>
                    <line id="Line_36" data-name="Line 36" y1="70.55" transform="translate(19.54 -3.93)" fill="#c6c6ff" stroke="#c6c6ff" stroke-width="0.5"/>
                  </g>
                  <g id="Group_5300" data-name="Group 5300">
                    <line id="Line_37" data-name="Line 37" y1="70.55" transform="translate(12.98 -6.03)" fill="#c6c6ff" stroke="#c6c6ff" stroke-width="0.5"/>
                    <line id="Line_38" data-name="Line 38" y1="70.55" transform="translate(9.75 -6.03)" fill="#c6c6ff" stroke="#c6c6ff" stroke-width="0.5"/>
                    <line id="Line_39" data-name="Line 39" y1="70.55" transform="translate(6.51 -6.03)" fill="#c6c6ff" stroke="#c6c6ff" stroke-width="0.5"/>
                    <line id="Line_40" data-name="Line 40" y1="70.55" transform="translate(3.28 -6.03)" fill="#c6c6ff" stroke="#c6c6ff" stroke-width="0.5"/>
                  </g>
                  <g id="Group_5301" data-name="Group 5301">
                    <line id="Line_41" data-name="Line 41" y1="70.55" transform="translate(62.03 -3.93)" fill="#c6c6ff" stroke="#c6c6ff" stroke-width="0.5"/>
                    <line id="Line_42" data-name="Line 42" y1="70.55" transform="translate(58.8 -3.93)" fill="#c6c6ff" stroke="#c6c6ff" stroke-width="0.5"/>
                    <line id="Line_43" data-name="Line 43" y1="70.55" transform="translate(55.56 -3.93)" fill="#c6c6ff" stroke="#c6c6ff" stroke-width="0.5"/>
                    <line id="Line_44" data-name="Line 44" y1="70.55" transform="translate(52.33 -3.93)" fill="#c6c6ff" stroke="#c6c6ff" stroke-width="0.5"/>
                  </g>
                </g>
              </g>
            </g>
          </g>
          <g id="Group_5306" data-name="Group 5306">
            <path id="Path_4650" data-name="Path 4650" d="M31.04,16.98c-.19-.32-.51-.19-.78-.24v-.48c.29-.38.75-.32,1.14-.44a1.087,1.087,0,0,1,.36,0,.774.774,0,0,1,.33.12c.25.11.5.21.75.32a.347.347,0,0,1,.24.23c.01.17.02.34.04.51l-.04-.04a2.739,2.739,0,0,1-2.03,0Z" fill="#c4925c"/>
            <path id="Path_4651" data-name="Path 4651" d="M27.56,16.24c-.14.58-.56.56-1.01.47-.73-.49-.74-.99,0-1.48v-.09c.17.11.34.22.5.33a1.355,1.355,0,0,0,.02.2,1.278,1.278,0,0,0,.29.23c.1.09.11.22.18.33Z" fill="#fed955"/>
            <path id="Path_4652" data-name="Path 4652" d="M33.14,18.85a.457.457,0,0,0-.02.2c-.05.04-.1.09-.15.13a1.286,1.286,0,0,1-.39.03,15.245,15.245,0,0,1-2.34-.15.53.53,0,0,1-.29-.26,4.606,4.606,0,0,1,3.19.04Z" fill="#64544e"/>
            <path id="Path_4653" data-name="Path 4653" d="M29.95,18.81c.09.03.19.06.28.09a.4.4,0,0,1,.05.51.715.715,0,0,1-.52.19,1.156,1.156,0,0,1-.37-.07c-.29-.14-.55-.29-.62-.64a.441.441,0,0,1,.15-.32c.17.08.33.17.5.25h.51Z" fill="#efa73a"/>
            <path id="Path_4654" data-name="Path 4654" d="M30.26,15.98c.43,0,.87.01,1.3.02-.37.39-.87.15-1.3.26v-.28Z" fill="#725652"/>
            <path id="Path_4655" data-name="Path 4655" d="M27.34,15.97c-.08-.1-.17-.2-.25-.29.24.11.62-.14.74.28a1.231,1.231,0,0,0-.2.02.19.19,0,0,1-.29-.01Z" fill="#e3c554"/>
            <path id="Path_4656" data-name="Path 4656" d="M31.77,15.95a1.7,1.7,0,0,0,.04-.22c.09.07.18.15.28.22Z" fill="#a67d59"/>
            <path id="Path_4657" data-name="Path 4657" d="M21.6,33.56a.857.857,0,0,0,.47,1.05,1.23,1.23,0,0,1,.27,1.16c-.74.95-1.1-.22-1.65-.29a1.268,1.268,0,0,1-.38-.51,1.391,1.391,0,0,1,.22-1.45h.49a.563.563,0,0,1,.3-.12.436.436,0,0,1,.27.17Z" fill="#c3925c"/>
            <path id="Path_4658" data-name="Path 4658" d="M21.02,31.97V31.7c-.21-.44-.42-.89.36-.95a2.76,2.76,0,0,1-.07,2.79,2.635,2.635,0,0,1-.28-.02V31.98Z" fill="#8a613f"/>
            <path id="Path_4659" data-name="Path 4659" d="M20.54,35.06l-.12.03H20.3c-.32-.52-.11-1.08-.15-1.63.04-.06.07-.12.11-.18.09.08.18.15.27.23v1.55Z" fill="#ac8059"/>
            <path id="Path_4660" data-name="Path 4660" d="M18.46,34.84c.08.08.16.16.25.24a.162.162,0,0,1,.07.18c-.02.07-.03.1-.05.1a.271.271,0,0,1-.31.02h0c-.07-.1-.15-.19-.22-.28v-.26a.167.167,0,0,1,.25,0Z" fill="#cda557"/>
            <path id="Path_4661" data-name="Path 4661" d="M19.76,37.23c.09-.03.18-.05.26-.08l.1.13a.523.523,0,0,1-.06.47.177.177,0,0,1-.27-.04Z" fill="#c9aa54"/>
            <path id="Path_4662" data-name="Path 4662" d="M18.21,35.1c.07.09.14.19.22.28C18.36,35.29,18.29,35.19,18.21,35.1Z" fill="#ad8359"/>
            <path id="Path_4663" data-name="Path 4663" d="M18.69,35.37a2.81,2.81,0,0,1,.01-.29l.23.03a.332.332,0,0,1-.01.24l-.11.11a1.059,1.059,0,0,1-.12-.1Z" fill="#e8c355"/>
            <path id="Path_4664" data-name="Path 4664" d="M18.46,34.84h-.24l.06-.18c.06.06.13.12.19.18Z" fill="#e2bf54"/>
            <path id="Path_4665" data-name="Path 4665" d="M18.42,35.39a2.437,2.437,0,0,0,.27-.01h0c.04.05.08.11.12.16-.05.04-.1.09-.15.13-.08-.09-.16-.19-.24-.28Z" fill="#9e7c54"/>
            <path id="Path_4666" data-name="Path 4666" d="M20,33.04l.27.24.01-.01a.2.2,0,0,1-.3.05l.03-.06a.133.133,0,0,1-.07-.14c.02-.05.03-.07.05-.07Z" fill="#936f56"/>
            <path id="Path_4667" data-name="Path 4667" d="M20,33.04a1.477,1.477,0,0,0,.01.21l-.12.01h-.12c0-.15.06-.24.23-.22Z" fill="#ad8259"/>
            <path id="Path_4668" data-name="Path 4668" d="M18.92,35.62a2.175,2.175,0,0,0,.01.26c-.09-.07-.18-.14-.27-.22l.07-.06.1-.07.09.09Z" fill="#a47b58"/>
            <path id="Path_4669" data-name="Path 4669" d="M19.79,37.72a1.492,1.492,0,0,1,.21.02c.02.05.05.1.07.16-.03.05-.05.1-.08.16a.6.6,0,0,0-.23-.06,2.452,2.452,0,0,1,.02-.27Z" fill="#b08559"/>
            <path id="Path_4670" data-name="Path 4670" d="M17.13,28.58c-.02.16-.03.32-.05.48a.335.335,0,0,1-.15.18.906.906,0,0,1-.22.11l-.12.01c-.16-.1-.32-.2-.49-.31A.957.957,0,0,1,16.03,28a.529.529,0,0,1,.51-.13,1.234,1.234,0,0,1,.63.37.289.289,0,0,1-.05.33Z" fill="#e5bb59"/>
            <path id="Path_4671" data-name="Path 4671" d="M17.11,29.57l-.5.03a1.77,1.77,0,0,1-.01-.23V29.3a1.052,1.052,0,0,0,.27-.2,1.7,1.7,0,0,0,.22-.04c0,.17.01.34.02.5Z" fill="#a88058"/>
            <path id="Path_4672" data-name="Path 4672" d="M26.05,15.19a2.512,2.512,0,0,0,.27-.04,2.25,2.25,0,0,1,.24.08,1.161,1.161,0,0,0,0,1.48c-.08.1-.16.19-.25.29-.01.33-.14.42-.41.18a1.768,1.768,0,0,1,.14-1.98Z" fill="#d4c6c0"/>
            <path id="Path_4673" data-name="Path 4673" d="M15.77,26.45c.03-.09.06-.17.09-.26a.269.269,0,0,1,.27.06.415.415,0,0,1,0,.43.246.246,0,0,1-.27.05c-.03-.09-.05-.19-.08-.28Z" fill="#a7793c"/>
            <path id="Path_4674" data-name="Path 4674" d="M16.58,28.02c-.18,0-.36,0-.54-.01a.287.287,0,0,0-.02-.24,1.141,1.141,0,0,0,.11-.11.44.44,0,0,1,.44.08.914.914,0,0,0,.07.14c-.02.05-.04.1-.06.14Z" fill="#d0a363"/>
            <path id="Path_4675" data-name="Path 4675" d="M15.85,26.72h.18c.04.02.08.03.12.05a.542.542,0,0,1,.06.25.51.51,0,0,1-.12.23.211.211,0,0,1-.24-.01v-.52Z" fill="#a99157"/>
            <path id="Path_4676" data-name="Path 4676" d="M15.85,27.24h.18l.12.12a.985.985,0,0,1-.02.17c-.05.03-.1.05-.15.08a1.2,1.2,0,0,0-.12-.11.358.358,0,0,1,0-.25Z" fill="#a79773"/>
            <path id="Path_4677" data-name="Path 4677" d="M15.85,27.49a.915.915,0,0,1,.17.01.205.205,0,0,1,.13.26h-.12l-.18-.27Z" fill="#967d63"/>
            <path id="Path_4678" data-name="Path 4678" d="M35.75,20.94c.09.41.38.53.75.56a.146.146,0,0,1,.09.18.761.761,0,0,0-.03.21,1.209,1.209,0,0,1,.16.16c.06.06.11.12.17.18a.764.764,0,0,0,.09.09c.07.06.14.11.21.16.13.07.26.13.39.21a1.206,1.206,0,0,1,.21.24,1.968,1.968,0,0,1,.21.44,1.044,1.044,0,0,1-.02.63.543.543,0,0,0,.02.55.709.709,0,0,1-.1.63c-.35.3-.77.12-1.15.16a2.069,2.069,0,0,1-.5-.04,2.971,2.971,0,0,1-1.06-.47c-.24-.21-.5-.4-.75-.6a.744.744,0,0,1-.16-.27,1.007,1.007,0,0,1,.01-.3c.05-.13.12-.26.18-.39a.9.9,0,0,0,.02-.4,2.93,2.93,0,0,1-.05-.29c-.02-.31-.11-.62-.12-.94a1.115,1.115,0,0,1,.96-.9.842.842,0,0,1,.35.07c.04.04.09.08.13.12Z" fill="#feeb95"/>
            <path id="Path_4679" data-name="Path 4679" d="M39.36,30.13c-.32.52-.64,1.05-.96,1.57-.53,1.18-.78,1.24-2.08.51a1.341,1.341,0,0,1-.39-.43,1.068,1.068,0,0,1-.1-.36,1.485,1.485,0,0,1,.5-1.12.624.624,0,0,1,.33-.03,1.828,1.828,0,0,1,.28.14.655.655,0,0,0,.52.13c.22-.14.07-.31.05-.47a.691.691,0,0,1,.04-.32.933.933,0,0,0-.08-1.13.744.744,0,0,1-.05-.53,1.164,1.164,0,0,1,.29-.46.824.824,0,0,1,.85-.24.667.667,0,0,1,.23.27c.16.63-.02,1.28.13,1.92a.764.764,0,0,0,.22.25l-.02.03a.922.922,0,0,1,.22.26Z" fill="#fed855"/>
            <path id="Path_4680" data-name="Path 4680" d="M39.9,26.73c.26.34.52.69.79,1.03a1.63,1.63,0,0,1-1.53.3.6.6,0,0,1-.22-.2,2.358,2.358,0,0,1-.12-.28,1.212,1.212,0,0,1-.05-.14.659.659,0,0,1,.03-.31,2.1,2.1,0,0,1,.22-.42.975.975,0,0,1,.34-.33.224.224,0,0,1,.27.09l.27.25Z" fill="#e0b658"/>
            <path id="Path_4681" data-name="Path 4681" d="M34.95,19.6a.929.929,0,0,1,.52,1.09c-.92.24-1.41-.15-1.53-1.06a.7.7,0,0,1,.77,0,.362.362,0,0,0,.23-.03Z" fill="#fdd959"/>
            <path id="Path_4682" data-name="Path 4682" d="M39.14,27.77c0,.1.01.2.02.3a.873.873,0,0,1-.05.22c-.26.5.06,1.08-.21,1.58-.57-.71-.14-1.54-.3-2.3a.166.166,0,0,1,.27-.05h0a3.376,3.376,0,0,0,.26.27Z" fill="#f4d154"/>
            <path id="Path_4683" data-name="Path 4683" d="M38.9,29.85c.04-.53-.21-1.1.21-1.58.02.52.04,1.04.05,1.57l-.13.02H38.9Z" fill="#a48b4f"/>
            <path id="Path_4684" data-name="Path 4684" d="M34.71,19.63c-.27,0-.54,0-.81.01l-.08-.09v-.12l.07-.1c.27.12.66-.09.83.3Z" fill="#efcd59"/>
            <path id="Path_4685" data-name="Path 4685" d="M39.44,25.64a.53.53,0,0,1,.2.56c-.05.03-.09.07-.14.1a.36.36,0,0,1-.23-.22.629.629,0,0,1,.04-.33c.04-.04.09-.07.13-.11Z" fill="#866954"/>
            <path id="Path_4686" data-name="Path 4686" d="M39.18,19.37c.03-.14.05-.28.08-.41.06.04.11.09.17.13a1.738,1.738,0,0,0,.1.19c-.05.05-.09.11-.14.16-.07-.02-.13-.05-.2-.07Z" fill="#e1bd55"/>
            <path id="Path_4687" data-name="Path 4687" d="M33.36,19.14a.5.5,0,0,1,.53.19l.02.11a.515.515,0,0,1-.45.07c-.04-.03-.09-.06-.13-.09a.215.215,0,0,1,.03-.28Z" fill="#65595c"/>
            <path id="Path_4688" data-name="Path 4688" d="M39.92,19.41a.9.9,0,0,1-.02.23l-.49-.03a.154.154,0,0,1-.07-.15c.02-.05.04-.08.06-.08h0a.2.2,0,0,1,.29-.01c.07.01.15.03.22.04Z" fill="#d3ae55"/>
            <path id="Path_4689" data-name="Path 4689" d="M43.07,31.93c.08-.08.16-.16.25-.24a.232.232,0,0,1,.3-.05.338.338,0,0,1,.05.32.509.509,0,0,1-.31.13c-.06-.01-.11-.03-.17-.04a1.538,1.538,0,0,1-.12-.13Z" fill="#cfa659"/>
            <path id="Path_4690" data-name="Path 4690" d="M39.17,25.42h.23a.779.779,0,0,0,.04.21l-.09.06a.244.244,0,0,1-.24-.07.137.137,0,0,1,.06-.21Z" fill="#926e56"/>
            <path id="Path_4691" data-name="Path 4691" d="M42.78,32.23a2.211,2.211,0,0,0,.05-.25c.08-.01.16-.03.24-.04v.09a.179.179,0,0,1-.01.26.8.8,0,0,0-.15.03c-.04-.02-.09-.05-.13-.07Z" fill="#efd154"/>
            <path id="Path_4692" data-name="Path 4692" d="M43.56,31.69h-.25c.01-.08.02-.15.03-.23a.545.545,0,0,1,.22-.01c.09.05.12.1.09.16S43.59,31.69,43.56,31.69Z" fill="#f1d255"/>
            <path id="Path_4693" data-name="Path 4693" d="M39.36,30.13c-.07-.09-.15-.17-.22-.26C39.3,29.88,39.39,29.95,39.36,30.13Z" fill="#dbc154"/>
            <path id="Path_4694" data-name="Path 4694" d="M39.42,26.18a1.8,1.8,0,0,1,.22.02,2.437,2.437,0,0,1-.01.27l-.22-.03A.187.187,0,0,1,39.42,26.18Z" fill="#a18851"/>
            <path id="Path_4695" data-name="Path 4695" d="M39.4,19.37v.23c-.17.02-.25-.06-.23-.23h.22Z" fill="#c3955a"/>
            <path id="Path_4696" data-name="Path 4696" d="M39.69,19.36a2.642,2.642,0,0,0-.29.02,2.825,2.825,0,0,1,.02-.29Z" fill="#b49653"/>
            <path id="Path_4697" data-name="Path 4697" d="M33.36,19.14l.03.21c-.2.12-.27.03-.28-.16v-.13a.754.754,0,0,0,.24.08Z" fill="#a38856"/>
            <path id="Path_4698" data-name="Path 4698" d="M27.85,18.86c-.5-.31,0-.54.07-.8.37.11.99-.31,1.02.5a2.85,2.85,0,0,1-.03.29.764.764,0,0,1-1.06.02Z" fill="#feda57"/>
            <path id="Path_4699" data-name="Path 4699" d="M27.57,17.55h-.22a1,1,0,0,1-1.24.1.275.275,0,0,1-.05-.39c.09-.09.17-.18.26-.26.31.44.98.05,1.26.55Z" fill="#adace1"/>
            <path id="Path_4700" data-name="Path 4700" d="M27.34,15.97a2.715,2.715,0,0,1,.29.01c-.02.08-.05.17-.07.25-.07-.09-.15-.18-.22-.27Z" fill="#d5b552"/>
            <path id="Path_4701" data-name="Path 4701" d="M30.22,19.38c0-.16,0-.32.01-.49.88.03,1.79-.29,2.64.2-.04.05-.08.09-.12.14-.65.35-1.44.05-2.08.43a.6.6,0,0,1-.35.02.266.266,0,0,1-.1-.31Z" fill="#ecc954"/>
            <path id="Path_4702" data-name="Path 4702" d="M33.11,19.18c.09.05.19.11.28.16l-.02.05a.373.373,0,0,1,.11.36.552.552,0,0,1-.46.33c-.69-.18-.74-.49-.2-.93l.06-.05a1.172,1.172,0,0,1,.24.09Z" fill="#fbc247"/>
            <path id="Path_4703" data-name="Path 4703" d="M27.85,18.86c.35,0,.71-.01,1.06-.02.18.18.35.36.53.53a.273.273,0,0,1-.01.3,1.2,1.2,0,0,1-.42.25,2.459,2.459,0,0,1-.48.16.629.629,0,0,1-.62-.18c-.4-.32.02-.7-.07-1.04Z" fill="#fdb036"/>
            <path id="Path_4704" data-name="Path 4704" d="M30.22,19.38v.21c-.04.04-.08.09-.12.13a.5.5,0,0,1-.34-.03.212.212,0,0,1-.09-.2c0-.08.02-.11.04-.11h.51Z" fill="#c59258"/>
            <path id="Path_4705" data-name="Path 4705" d="M29.71,19.38a1.927,1.927,0,0,1-.01.24l-.08.08H29.5l-.08-.08c.01-.08.02-.17.03-.25h.26Z" fill="#daab57"/>
            <path id="Path_4706" data-name="Path 4706" d="M16.04,26.18h-.18c0-.18,0-.35-.01-.53.07,0,.13.01.2.01.04.03.08.07.12.1a.545.545,0,0,1,0,.31c-.04.03-.08.07-.12.1Z" fill="#a48946"/>
            <path id="Path_4707" data-name="Path 4707" d="M16.63,25.15c.16.01.33.02.49.04.36.3.48.64.13,1.03a.632.632,0,0,1-.48.13.586.586,0,0,1-.28-.19.766.766,0,0,1-.08-.49,1.223,1.223,0,0,1,.17-.29c.02-.08.03-.15.05-.23Z" fill="#fdba3e"/>
            <path id="Path_4708" data-name="Path 4708" d="M16.58,25.38a2.635,2.635,0,0,0,.02.28.346.346,0,0,1-.51.02l-.04-.01C16.14,25.42,16.37,25.41,16.58,25.38Z" fill="#c8a74b"/>
            <path id="Path_4709" data-name="Path 4709" d="M27.38,37.96c-.28-.16-.55-.32-.83-.48-.05-.02-.1-.03-.15-.05a1.207,1.207,0,0,1-.24-.21,2.606,2.606,0,0,1-.17-.28,1.1,1.1,0,0,1-.07-.97c.35-.37.86-.54,1.15-.97a.873.873,0,0,1,.69-.06.737.737,0,0,0,.92,0c.41-.2.9-.09,1.3-.35.52-.25.9-.71,1.42-.98a1.528,1.528,0,0,1,.36-.07,1.568,1.568,0,0,1,.37.05.711.711,0,0,1,.3.21,3.432,3.432,0,0,1,.27,1.22,1.019,1.019,0,0,1-.04.35,1.671,1.671,0,0,1-.51.48c-.44.2-1.02.14-1.3.65a3.206,3.206,0,0,1-.65.57c-.42.22-.91.11-1.33.32a5.588,5.588,0,0,1-1.19.67.293.293,0,0,1-.3-.11Z" fill="#feeb95"/>
            <path id="Path_4710" data-name="Path 4710" d="M21.31,33.53c-.01-.96-.02-1.93-.04-2.89.05-.03.11-.07.16-.1a.738.738,0,0,1,.79.39c.24.4.09.93.41,1.3.45.57,1.46.53,1.61,1.43a.543.543,0,0,1-.19.28.958.958,0,0,1-.49.14.985.985,0,0,0-.17.02c-.71.2-1.15-.52-1.8-.53l-.29-.03Z" fill="#fdae34"/>
            <path id="Path_4711" data-name="Path 4711" d="M30.18,39.04a.31.31,0,0,0,.01-.25.552.552,0,0,1,.29-.18c.57-.01,1.14.1,1.71.06.29.12.55.27.41.66a1.786,1.786,0,0,0-.02.23v-.03a3.785,3.785,0,0,1-2.33,0c-.02-.16-.04-.33-.07-.49Z" fill="#fed656"/>
            <path id="Path_4712" data-name="Path 4712" d="M29.21,38.48a2.451,2.451,0,0,0-.27.02c-.42-.27-.92.02-1.35-.21-.07-.11-.15-.22-.22-.33a.444.444,0,0,0,.23-.02c.59-.06,1.11-.56,1.76-.29.31.35.23.61-.16.82Z" fill="#8f784e"/>
            <path id="Path_4713" data-name="Path 4713" d="M30.25,39.53h2.32c-.71.59-1.55.16-2.32.28Z" fill="#60504b"/>
            <path id="Path_4714" data-name="Path 4714" d="M22.36,34.6c-.04.44.17.93-.23,1.3-.02-.43-.03-.86-.05-1.29a2.621,2.621,0,0,0,.28-.01Z" fill="#6e5452"/>
            <path id="Path_4715" data-name="Path 4715" d="M27.6,38.29c.46.01.95-.2,1.35.21-.45,0-.89.01-1.34.02v-.23Z" fill="#342b4b"/>
            <path id="Path_4716" data-name="Path 4716" d="M24.21,34.57c-.1,0-.2,0-.3-.01a.7.7,0,0,1-.12-.28.772.772,0,0,1,.02-.15A1.463,1.463,0,0,0,23.9,34a.4.4,0,0,1,.3.03.585.585,0,0,1,.14.27A.351.351,0,0,1,24.21,34.57Z" fill="#382a46"/>
            <path id="Path_4717" data-name="Path 4717" d="M24.99,35.09c0-.09.01-.18.02-.28a.2.2,0,0,1,.24.05.272.272,0,0,1-.04.26.153.153,0,0,1-.23-.03Z" fill="#816d4f"/>
            <path id="Path_4718" data-name="Path 4718" d="M24.99,35.09c.08,0,.16.02.24.02.03.04.06.09.09.13-.01.05-.03.1-.04.15-.05.02-.09.05-.14.07-.05-.03-.09-.05-.14-.08v-.3Z" fill="#483848"/>
            <path id="Path_4719" data-name="Path 4719" d="M25.24,34.89a2.016,2.016,0,0,0-.23-.07c-.02-.07-.04-.15-.06-.22a.763.763,0,0,1,.11-.08.31.31,0,0,1,.23.12.611.611,0,0,0,.03.13,1.054,1.054,0,0,1-.07.11Z" fill="#ebca54"/>
            <path id="Path_4720" data-name="Path 4720" d="M24.95,34.6a.556.556,0,0,1-.21-.06.167.167,0,0,1,.06-.24c.18,0,.27.08.26.26l-.1.04Z" fill="#d6b652"/>
            <path id="Path_4721" data-name="Path 4721" d="M24.71,34.33a1.635,1.635,0,0,0,.02.22l-.12.03h-.13s-.09-.08-.13-.12c.02-.05.03-.11.05-.16.05-.02.11-.03.16-.05a1.093,1.093,0,0,0,.15.08Z" fill="#a2894f"/>
            <path id="Path_4722" data-name="Path 4722" d="M24.4,34.32a1.172,1.172,0,0,1,.09.24,2.621,2.621,0,0,0-.28.01v-.26l.1-.08Z" fill="#493c49"/>
            <path id="Path_4723" data-name="Path 4723" d="M23.91,34.3v.27c-.08-.07-.15-.14-.23-.21l.09-.12c.04.02.09.04.13.06Z" fill="#865e3e"/>
            <path id="Path_4724" data-name="Path 4724" d="M23.68,34.35c-.09-.09-.19-.18-.28-.26l.03-.07a.24.24,0,0,1,.28,0,.145.145,0,0,1-.06.24l.03.1Z" fill="#dd9837"/>
            <path id="Path_4725" data-name="Path 4725" d="M25,35.39a1.014,1.014,0,0,1,.25-.02.284.284,0,0,1,.04.28.2.2,0,0,1-.26,0,.533.533,0,0,1-.02-.25Z" fill="#a9763d"/>
            <path id="Path_4726" data-name="Path 4726" d="M20.52,38.22c-.09.02-.18.04-.26.06l.03-.07a1.538,1.538,0,0,1-.12-.13l.09-.15a.881.881,0,0,0,.17-.02l.12.12a.582.582,0,0,0-.03.19Z" fill="#907a4f"/>
            <path id="Path_4727" data-name="Path 4727" d="M20.27,38.04a1.087,1.087,0,0,0,.01.18c-.1-.06-.19-.11-.29-.17l.02-.13a.193.193,0,0,1,.25.12Z" fill="#7f6552"/>
            <path id="Path_4728" data-name="Path 4728" d="M20.75,37.73a.332.332,0,0,1,.01.24.509.509,0,0,0-.21.06l-.04-.12c-.01-.06-.02-.11-.03-.17.04-.04.09-.08.13-.12a1.7,1.7,0,0,1,.14.1Z" fill="#b39851"/>
            <path id="Path_4729" data-name="Path 4729" d="M25.02,35.64a1.635,1.635,0,0,1,.22-.02c.07.2,0,.28-.21.25l-.1.03c.03-.09.06-.18.08-.26Z" fill="#dd9837"/>
            <path id="Path_4730" data-name="Path 4730" d="M17.34,28.04c0,.17,0,.34.01.5a.78.78,0,0,0-.22.04,2.715,2.715,0,0,0-.01-.29c-.03-.06-.05-.11-.08-.17.04-.05.08-.09.12-.14l.18.06Z" fill="#e1bb58"/>
            <path id="Path_4731" data-name="Path 4731" d="M19.98,33.32c.1-.02.2-.03.3-.05,0,.61.02,1.21.03,1.82C19.73,34.59,20.15,33.9,19.98,33.32Z" fill="#54404f"/>
            <path id="Path_4732" data-name="Path 4732" d="M18.92,35.62h-.1s-.1-.01-.09-.01a.852.852,0,0,1-.04-.23,1.62,1.62,0,0,0,.22-.01v.26Z" fill="#cda358"/>
            <path id="Path_4733" data-name="Path 4733" d="M20.27,38.04c-.08-.04-.17-.08-.25-.12a1.1,1.1,0,0,0-.02-.18v-.49h.27a1.4,1.4,0,0,1,.27.21h0a.26.26,0,0,1,.02.27H20.5a.429.429,0,0,1-.23.21v.1Z" fill="#deb458"/>
            <path id="Path_4734" data-name="Path 4734" d="M17.11,28.02v.27a.558.558,0,0,1-.54-.26h.01a.345.345,0,0,1,.51,0Z" fill="#ddb86f"/>
            <path id="Path_4735" data-name="Path 4735" d="M16.87,29.1c-.09.07-.18.13-.27.2C16.69,29.23,16.78,29.17,16.87,29.1Z" fill="#bc9259"/>
            <path id="Path_4736" data-name="Path 4736" d="M37.62,33.79c.5.38.83-.14,1.24-.24,0,.26-.01.52-.02.78a1.2,1.2,0,0,1-1.44.12c-.29-.34-.07-.51.23-.65Z" fill="#f4d15b"/>
            <path id="Path_4737" data-name="Path 4737" d="M38.84,34.84a1.942,1.942,0,0,0-.24.02.942.942,0,0,1-1.23.04.294.294,0,0,1-.02-.4,2.529,2.529,0,0,1,1.49.08.275.275,0,0,1,0,.25Z" fill="#b8b6f9"/>
            <path id="Path_4738" data-name="Path 4738" d="M38.83,34.59l-1.5-.03a.153.153,0,0,1-.05-.17c.02-.05.05-.08.07-.08.49,0,.99.01,1.48.02v.27Z" fill="#e7d095"/>
            <path id="Path_4739" data-name="Path 4739" d="M42.79,32.74a.444.444,0,0,1-.22-.51h.21l.04-.05.06.02a.75.75,0,0,1,.09.3c-.02.05-.03.1-.05.15-.04.03-.08.07-.12.1Z" fill="#7d6052"/>
            <path id="Path_4740" data-name="Path 4740" d="M42.83,33.26c-.01-.17-.03-.35-.04-.52l.09.04c.04-.04.08-.07.12-.11.05.02.1.05.14.07a.323.323,0,0,1-.03.3,1.553,1.553,0,0,0-.05.23h-.22Z" fill="#e6c355"/>
            <path id="Path_4741" data-name="Path 4741" d="M17.09,26.2c.35-.33.03-.67.03-1.01.3-.03.62-.13.82.22a.982.982,0,0,1,.19.89,1.113,1.113,0,0,1-.53.72.545.545,0,0,1-.48-.18.727.727,0,0,1-.14-.31.539.539,0,0,1,.11-.32Z" fill="#977643"/>
            <path id="Path_4742" data-name="Path 4742" d="M16.03,26.72v-.54l.08.01a.31.31,0,0,1,.49,0h0a.422.422,0,0,1,.14.29.575.575,0,0,1-.17.29.354.354,0,0,1-.46-.06h-.08Z" fill="#ffbc3f"/>
            <path id="Path_4743" data-name="Path 4743" d="M17.11,28.02H16.6a2.26,2.26,0,0,0-.01-.26c.03-.03.06-.07.09-.1a.626.626,0,0,1,.27-.03.482.482,0,0,1,.22.15.188.188,0,0,1-.05.24h-.01Z" fill="#efd485"/>
            <path id="Path_4744" data-name="Path 4744" d="M16.15,27.76c-.04-.09-.09-.17-.13-.26h.1a.3.3,0,0,1,.25-.13.51.51,0,0,1,.26.14.189.189,0,0,1-.03.26h-.45Z" fill="#e2bc74"/>
            <path id="Path_4745" data-name="Path 4745" d="M16.6,27.5h-.26a.881.881,0,0,1-.22-.25h-.08c.03-.09.05-.18.08-.26.11-.15.28-.12.43-.15a.428.428,0,0,1,.31.06.4.4,0,0,1,.09.3.677.677,0,0,1-.18.26.88.88,0,0,1-.15.05Z" fill="#fddc72"/>
            <path id="Path_4746" data-name="Path 4746" d="M16.6,26.98h-.49v-.27c.16,0,.31,0,.47-.01.04.04.07.09.11.13-.03.05-.06.1-.09.14Z" fill="#feda5c"/>
            <path id="Path_4747" data-name="Path 4747" d="M16.11,27.24l.22.25h-.21a.385.385,0,0,1-.01-.26Z" fill="#fce790"/>
            <path id="Path_4748" data-name="Path 4748" d="M33.07,38.51c0,.17,0,.35.01.52l-.48.3a.9.9,0,0,0-.53-.55c-.45-.16-.34-.63-.52-.94-.15-.62.37-.74.74-.97a.7.7,0,0,1,.35.04.966.966,0,0,1,.37.38c.23.4,0,.82.07,1.23Z" fill="#fdcc4e"/>
            <path id="Path_4749" data-name="Path 4749" d="M33.11,19.91c.09-.09.18-.18.26-.27a.357.357,0,0,1,.52,0h0c.46.45.84,1.01,1.57,1.05l.04-.03a.262.262,0,0,1-.01.27,1.255,1.255,0,0,0-1.05.8.619.619,0,0,1-.46.24,2.174,2.174,0,0,1-.36-.02,1.036,1.036,0,0,1-.32-.15.586.586,0,0,1-.24-.59c.32-.38-.31-.64-.13-1.01a.789.789,0,0,1,.18-.29Z" fill="#fece64"/>
            <path id="Path_4750" data-name="Path 4750" d="M36.26,25.15h.52a3.49,3.49,0,0,0,.74.39.567.567,0,0,1,.17.46.47.47,0,0,1-.14.3,1.232,1.232,0,0,1-.31.14,2.111,2.111,0,0,0-.88.42.879.879,0,0,1-.64.2.686.686,0,0,1-.37-.36c-.1-.67.48-.99.76-1.47l.15-.09Z" fill="#fdd554"/>
            <path id="Path_4751" data-name="Path 4751" d="M33.87,21.75c.19,0,.38-.01.57-.02.36.3.22.7.23,1.08a.739.739,0,0,1-.29.34.618.618,0,0,1-.3.03.557.557,0,0,1-.33-.29.947.947,0,0,1-.07-.29c-.01-.1-.01-.2-.01-.3a1.047,1.047,0,0,1,.05-.3,1.006,1.006,0,0,1,.17-.25Z" fill="#fed755"/>
            <path id="Path_4752" data-name="Path 4752" d="M34.41,24.09a.816.816,0,0,1,.81.51c.13.28-.02.45-.23.6-.51.03-.72-.33-.94-.7a.57.57,0,0,1,.05-.34.277.277,0,0,1,.31-.07Z" fill="#fccc65"/>
            <path id="Path_4753" data-name="Path 4753" d="M37.58,25.68c-.38-.01-.77,0-.79-.54.34-.28.67.13,1.01,0v.51c-.06.13-.13.14-.21.02Z" fill="#fee687"/>
            <path id="Path_4754" data-name="Path 4754" d="M34.95,25.13c.09-.18.18-.35.27-.53.35.18.69.36,1.04.54h0a.794.794,0,0,1-.97.42A.553.553,0,0,1,34.95,25.13Z" fill="#fecd64"/>
            <path id="Path_4755" data-name="Path 4755" d="M37.8,22.54a.524.524,0,0,1,.03.25c-.08.11-.17.11-.26,0-.29-.02-.6.05-.77-.29a.19.19,0,0,1,.27,0C37.31,22.51,37.56,22.53,37.8,22.54Z" fill="#e5d68d"/>
            <path id="Path_4756" data-name="Path 4756" d="M37.82,24.37c-.21-.09-.21-.19,0-.28h.05a.447.447,0,0,1,0,.28Z" fill="#ffb135"/>
            <path id="Path_4757" data-name="Path 4757" d="M34.41,24.09h-.24a1,1,0,0,1-.08-.14c.02-.05.03-.1.05-.15l.15-.06c.04.04.08.07.12.11a.646.646,0,0,1,0,.24Z" fill="#b5874b"/>
            <path id="Path_4758" data-name="Path 4758" d="M34.4,23.85l-.26-.06c-.02-.04-.03-.09-.05-.13.02-.04.05-.08.07-.13a.7.7,0,0,0,.14-.03.834.834,0,0,0,.12.08,2.437,2.437,0,0,1-.01.27Z" fill="#ffca5c"/>
            <path id="Path_4759" data-name="Path 4759" d="M34.73,23.34c-.1.08-.2.16-.31.24l.02-.04a1.7,1.7,0,0,0-.1-.14l.09-.15c.06-.01.12-.02.17-.03A1.538,1.538,0,0,0,34.73,23.34Z" fill="#857667"/>
            <path id="Path_4760" data-name="Path 4760" d="M37.83,23.05c-.01.09-.03.17-.04.26-.07-.08-.14-.16-.2-.24C37.66,22.95,37.75,22.95,37.83,23.05Z" fill="#ffb841"/>
            <path id="Path_4761" data-name="Path 4761" d="M34.71,23c.18.11.23.22.01.34l-.1-.07c-.01-.05-.03-.11-.04-.16C34.62,23.07,34.67,23.04,34.71,23Z" fill="#8d7f69"/>
            <path id="Path_4762" data-name="Path 4762" d="M37.83,23.05a.974.974,0,0,0-.24.02,2.451,2.451,0,0,0-.02-.27h.26l.03-.02a.39.39,0,0,1,0,.3l-.03-.02Z" fill="#ffd872"/>
            <path id="Path_4763" data-name="Path 4763" d="M34.38,23.01c.1-.07.19-.13.29-.2a1.332,1.332,0,0,0,.05.19l-.06.11c-.06.02-.11.03-.17.05-.03-.05-.07-.1-.1-.15Z" fill="#ae9552"/>
            <path id="Path_4764" data-name="Path 4764" d="M37.07,22.5H36.8a.528.528,0,0,1,0-.25l.27.24Z" fill="#9d8460"/>
            <path id="Path_4765" data-name="Path 4765" d="M36.75,22.01a.744.744,0,0,1,.02.26l-.25-.28a.908.908,0,0,1,.23.03Z" fill="#fcab31"/>
            <path id="Path_4766" data-name="Path 4766" d="M36.48,21.73c.02.09.04.18.06.26C36.33,21.94,36.31,21.86,36.48,21.73Z" fill="#ddac57"/>
            <path id="Path_4767" data-name="Path 4767" d="M35.49,20.93a2.437,2.437,0,0,1,.01-.27c.07.1.13.21.2.31-.07-.01-.14-.03-.21-.04Z" fill="#a28a52"/>
            <path id="Path_4768" data-name="Path 4768" d="M43.87,31.96c-.02.36.03.77-.51.8-.2-.19-.06-.37.02-.56.06-.08.12-.17.18-.25v-.27a.305.305,0,0,0,0-.23c.1.08.21.16.31.24v.27Z" fill="#54454d"/>
            <path id="Path_4769" data-name="Path 4769" d="M36.52,30.39c-.17.35-.35.7-.52,1.05a.257.257,0,0,1-.31.03.73.73,0,0,1-.16-.3,1.759,1.759,0,0,1-.04-.51,1.632,1.632,0,0,1,.09-.49c.04-.16.09-.32.13-.48a1.443,1.443,0,0,1,.22-.63.657.657,0,0,1,.29-.17.89.89,0,0,1,.51.03.794.794,0,0,1,.38.32.558.558,0,0,1,.06.31,1.25,1.25,0,0,1-.22.41,1.717,1.717,0,0,1-.42.43Z" fill="#ffb034"/>
            <path id="Path_4770" data-name="Path 4770" d="M37.05,29.34l-.27-.27a.65.65,0,0,1-.18-.66.728.728,0,0,1,.32-.41.79.79,0,0,1,.33-.1.915.915,0,0,1,.17.01c.04.04.09.08.13.12v.51a.755.755,0,0,1,.32,1.02.456.456,0,0,1-.29.13.9.9,0,0,1-.54-.35Z" fill="#feb037"/>
            <path id="Path_4771" data-name="Path 4771" d="M37.59,29.59c.46-.36.1-.7-.02-1.05.82.45.84.89,0,1.32-.02-.05-.04-.1-.06-.14.03-.04.06-.09.09-.13Z" fill="#fec143"/>
            <path id="Path_4772" data-name="Path 4772" d="M37.57,30.12c.21.03.44.06.48.33.04.35-.21.42-.48.45a.66.66,0,0,1-.17-.24.757.757,0,0,1,0-.3c.02-.05.04-.09.06-.14a1.1,1.1,0,0,0,.11-.1Z" fill="#fec647"/>
            <path id="Path_4773" data-name="Path 4773" d="M35.73,31.41a2.061,2.061,0,0,1,.26.03,1.34,1.34,0,0,0,.01.2,1.923,1.923,0,0,1-.13.17c-.4.12-.84.34-.9-.37a.554.554,0,0,1,.75-.03Z" fill="#f0d78e"/>
            <path id="Path_4774" data-name="Path 4774" d="M37.55,30.63a2.621,2.621,0,0,0,.01.28c-.29-.01-.6.05-.78-.27a.547.547,0,0,1,.76-.01Z" fill="#fed066"/>
            <path id="Path_4775" data-name="Path 4775" d="M37.55,30.63c-.25,0-.51,0-.76.01v-.26c.04-.04.09-.08.13-.12a.51.51,0,0,1,.64.14v.23Z" fill="#fee384"/>
            <path id="Path_4776" data-name="Path 4776" d="M36.52,30.39c.02-.21.02-.43.26-.52l.11.11a.343.343,0,0,1-.11.41h-.27Z" fill="#fee586"/>
            <path id="Path_4777" data-name="Path 4777" d="M37.57,29.86v.26h0c-.32.19-.53.17-.57-.26a.407.407,0,0,1,.57,0Z" fill="#feb53d"/>
            <path id="Path_4778" data-name="Path 4778" d="M36.29,31.96l-.08.25c-.19.08-.28-.04-.34-.19a.334.334,0,0,1,.11-.27l.02-.11Z" fill="#dccec2"/>
            <path id="Path_4779" data-name="Path 4779" d="M37.55,27.78h.32c-.1.08-.2.17-.3.25l.03-.04c-.09-.03-.13-.08-.11-.13s.04-.09.07-.09Z" fill="#392e49"/>
            <path id="Path_4780" data-name="Path 4780" d="M37.34,33.28a.287.287,0,0,0,0,.24.756.756,0,0,1-.34.24,1.2,1.2,0,0,1-1.01-.15.576.576,0,0,1-.12-.4.379.379,0,0,1,.26-.31c.4.16,1.02-.4,1.23.39Z" fill="#b3b2f7"/>
            <path id="Path_4781" data-name="Path 4781" d="M37.03,33.55c.1,0,.21-.02.31-.03.09.09.19.18.28.27l-.27.51a.43.43,0,0,0-.02.25,1.048,1.048,0,0,0-.01.25c-.06.03-.12.05-.17.08a.6.6,0,0,1-.27-.25,1.016,1.016,0,0,1,.16-1.08Z" fill="#9694fc"/>
            <path id="Path_4782" data-name="Path 4782" d="M37.34,33.28c-.36-.5-.9-.17-1.34-.3a.173.173,0,0,1,.03-.26c.38.01.76,0,1.13.04.34.04.41.24.18.51Z" fill="#575282"/>
            <path id="Path_4783" data-name="Path 4783" d="M36.03,32.73a.566.566,0,0,0-.03.26c-.01.1-.02.21-.03.31a.361.361,0,0,1-.33-.1,1.194,1.194,0,0,1-.15-.9.822.822,0,0,1,.16-.34.217.217,0,0,1,.32.03c.08.08.16.16.25.24l-.18.51Z" fill="#9d9cfd"/>
            <path id="Path_4784" data-name="Path 4784" d="M39.42,26.18a1.133,1.133,0,0,0-.01.26c-.07.09-.15.17-.22.26-.05-.03-.1-.05-.15-.08a.97.97,0,0,1,0-.34c.03-.05.05-.1.08-.15a.231.231,0,0,1,.29.06h.02Z" fill="#e7c156"/>
            <path id="Path_4785" data-name="Path 4785" d="M38.91,27.27c0-.19-.01-.37-.02-.56.08-.12.16-.11.24,0l.06-.02c-.05.21-.05.45-.28.57Z" fill="#69524f"/>
            <path id="Path_4786" data-name="Path 4786" d="M39.14,27.77c-.09-.09-.18-.17-.26-.26C38.97,27.6,39.06,27.68,39.14,27.77Z" fill="#b89753"/>
            <path id="Path_4787" data-name="Path 4787" d="M33.9,19.64h-.52V19.4c.18.01.36.03.54.04a1.409,1.409,0,0,0-.01.2Z" fill="#efd986"/>
            <path id="Path_4788" data-name="Path 4788" d="M39.4,26.19h-.24a.381.381,0,0,1-.03-.54l.03.02a.422.422,0,0,1,.19.03c.02.16.04.32.05.49Z" fill="#c4975a"/>
            <path id="Path_4789" data-name="Path 4789" d="M43.56,32.23c-.07.18-.13.35-.2.53l-.04-.03a.149.149,0,0,1-.25,0h0a.309.309,0,0,1-.12-.26.342.342,0,0,1,.12-.27V32l.26-.06a.868.868,0,0,1,.23.27Z" fill="#e3b959"/>
            <path id="Path_4790" data-name="Path 4790" d="M43.07,32.22v.27c-.08.09-.16.08-.23-.02.01-.09.03-.19.04-.28a.648.648,0,0,0,.2.02Z" fill="#cca159"/>
            <path id="Path_4791" data-name="Path 4791" d="M27.91,21.2a.331.331,0,0,1,0-.24c.99-.42,2.08.16,3.06-.31l.06.04c.27-.03.34.13.34.36-.49.77-1.35.33-1.99.6a2.328,2.328,0,0,1-.38.08,1.506,1.506,0,0,1-.76-.08c-.19-.09-.25-.27-.33-.45Z" fill="#f8ab36"/>
            <path id="Path_4792" data-name="Path 4792" d="M30.98,20.66c-.97.63-2.05.12-3.06.31a.593.593,0,0,1-.05-.23c1.04-.03,2.07-.05,3.11-.08Z" fill="#996b3d"/>
            <path id="Path_4793" data-name="Path 4793" d="M28.15,21.43a.539.539,0,0,1-.25.03,2.452,2.452,0,0,1,.02-.27l.24.24Z" fill="#c5ab76"/>
            <path id="Path_4794" data-name="Path 4794" d="M31.29,20.94c-.08-.08-.17-.16-.25-.25a.845.845,0,0,0-.54-.83c-.06-.04-.09-.08-.07-.12s.04-.07.06-.07c.58-1.08,1.56-.33,2.33-.51-.15.35-.32.71.3.76v.25c-.52.35.19.7,0,1.05.08.17.17.34.25.5a.983.983,0,0,0-.05.16.566.566,0,0,1-.28.18.87.87,0,0,1-.61-.24,3.438,3.438,0,0,0-.91-.65A1.252,1.252,0,0,1,31.29,20.94Z" fill="#fed755"/>
            <path id="Path_4795" data-name="Path 4795" d="M30.48,19.66a1.225,1.225,0,0,0,.02.19.171.171,0,0,1,0,.14.282.282,0,0,1-.28-.03.213.213,0,0,1,.02-.27v-.11a1.824,1.824,0,0,0,.25.07Z" fill="#8d6440"/>
            <path id="Path_4796" data-name="Path 4796" d="M28.91,20.12c-.17.04-.23-.06-.27-.19l.28-.28a.236.236,0,0,1,.12.24.334.334,0,0,1-.14.24Z" fill="#f9cb4d"/>
            <path id="Path_4797" data-name="Path 4797" d="M28.92,19.91v-.25c.17,0,.33-.01.49-.02l.04.01c.08.06.1.12.07.16a.136.136,0,0,1-.1.06,1.6,1.6,0,0,1-.21.05.205.205,0,0,1-.29,0Z" fill="#e7b956"/>
            <path id="Path_4798" data-name="Path 4798" d="M30.23,19.7v.18a.417.417,0,0,1-.54.09v-.09q-.09-.075-.06-.15c.02-.05.05-.07.07-.07l-.02-.02c.18.02.36.05.53.07Z" fill="#725652"/>
            <path id="Path_4799" data-name="Path 4799" d="M29.71,19.65v.23h-.28c.01-.07.02-.15.03-.22h.26Z" fill="#9c7a55"/>
            <path id="Path_4800" data-name="Path 4800" d="M16.6,26.19h-.49c0-.17-.02-.34-.03-.52.17,0,.34-.01.51-.02v.53Z" fill="#ffd04d"/>
            <path id="Path_4801" data-name="Path 4801" d="M16.6,26.46V26.2h.49v.26a.319.319,0,0,1-.48,0Z" fill="#fed04f"/>
            <path id="Path_4802" data-name="Path 4802" d="M31.56,33.77c-.45.35-.9.7-1.34,1.05-.44.31-.94.08-1.41.16-.31.06-.58.44-.95.16h-.8a.62.62,0,0,1-.65.11,1.618,1.618,0,0,1-.49-.45c-.07-.08-.15-.16-.22-.23-.04-.03-.08-.07-.12-.1-.09-.06-.18-.13-.27-.19l-.13-.1-.12-.12c-.08-.09-.15-.18-.22-.27a5.254,5.254,0,0,1-1.48-2.84,9.889,9.889,0,0,1,.13-1.96c.05-.31-.29-.73.26-.9a8.256,8.256,0,0,1,2.05-.11,1.372,1.372,0,0,1,1.46,1c.29.4.85.27,1.18.58a2.525,2.525,0,0,1,.35,1.03c.5.41,1.23.6,1.38,1.37.29.3.73.21,1.05.44.3.3.1.77.37,1.08a.335.335,0,0,1-.04.32Z" fill="#fff"/>
            <path id="Path_4803" data-name="Path 4803" d="M32.33,36.93c.03.41-.67.32-.55.8-.45.24-.43,1.11-1.21.9a.82.82,0,0,1-.55-.93.845.845,0,0,1,.16-.33c.29-.25.67-.45.56-.95,0-1.01.82-.63,1.33-.77.57-.29.78.04.91.52a.807.807,0,0,1-.21.49,1.288,1.288,0,0,1-.45.27Z" fill="#feaf37"/>
            <path id="Path_4804" data-name="Path 4804" d="M26.3,35.09c.26.01.51.03.77.04.26.97-.79.58-1.04,1.02-.17.27-.34.56-.72.27-.09-.18-.17-.36-.26-.54.07-.08.14-.17.21-.25a2.085,2.085,0,0,0,0-.25h0a.787.787,0,0,1,.22-.18,1.31,1.31,0,0,1,.27-.06,2.845,2.845,0,0,1,.41-.04h.14Z" fill="#fcb13b"/>
            <path id="Path_4805" data-name="Path 4805" d="M32.86,36.36a.726.726,0,0,0-.78-.72c.08-.24.28-.27.49-.29a1.282,1.282,0,0,1,1.13-.27,1.149,1.149,0,0,1,.37.12.65.65,0,0,1,.28.48,1.082,1.082,0,0,1-.05.36,1.3,1.3,0,0,1-.1.15.87.87,0,0,1-.3.16c-.21.06-.43.09-.64.14a.693.693,0,0,1-.32-.01c-.03-.04-.06-.09-.09-.13Z" fill="#fed655"/>
            <path id="Path_4806" data-name="Path 4806" d="M30.76,36.42c.27.03.55.12.47.44-.12.48-.57.55-.99.61a.39.39,0,0,1-.01-.54.468.468,0,0,1,.54-.51Z" fill="#feca60"/>
            <path id="Path_4807" data-name="Path 4807" d="M29.45,37.72a3.469,3.469,0,0,1-1.83.22l1.04-.74c.33-.24.58-.06.81.17a1.209,1.209,0,0,1,.05.18c-.02.06-.05.11-.07.17Z" fill="#ffdb59"/>
            <path id="Path_4808" data-name="Path 4808" d="M25.3,36.42l.72-.27c.09.35.19.7.28,1.05-.51-.03-1.25.23-1.01-.78Z" fill="#fdd65b"/>
            <path id="Path_4809" data-name="Path 4809" d="M32.03,33.77h-.11l-.1-.02a.594.594,0,0,1-.11-.74,1.624,1.624,0,0,1,1.12-.38.524.524,0,0,1,.48.53.82.82,0,0,1-.1.37.709.709,0,0,1-.49.23c-.23.02-.46-.18-.68.01Z" fill="#5350cf"/>
            <path id="Path_4810" data-name="Path 4810" d="M29.45,37.47c-.27-.09-.53-.18-.8-.27.45-.47,1.05-.17,1.57-.27,0,.18,0,.36.01.54h0a.545.545,0,0,1-.48.18.58.58,0,0,1-.3-.18Z" fill="#fed26b"/>
            <path id="Path_4811" data-name="Path 4811" d="M27.86,35.13c.26-.09.53-.18.79-.27.09.05.13.11.1.17s-.06.09-.09.09c-.03.21-.07.43-.33.47-.34.05-.42-.19-.47-.45Z" fill="#fef1b4"/>
            <path id="Path_4812" data-name="Path 4812" d="M31.84,32.99c0,.25-.01.51-.02.76a2.437,2.437,0,0,0-.27.01,1.846,1.846,0,0,0-.04-.23c-.35-.36-.07-.79-.15-1.18a.689.689,0,0,1,.12-.39.316.316,0,0,1,.38.05.768.768,0,0,1-.02.97Z" fill="#9594ea"/>
            <path id="Path_4813" data-name="Path 4813" d="M28.66,35.12v-.25c.52-.01,1.04-.03,1.56-.04-.44.53-1.04.18-1.56.3Z" fill="#fff4c0"/>
            <path id="Path_4814" data-name="Path 4814" d="M32.59,35.11c-.43-.37-.2-.87-.26-1.31a.247.247,0,0,1,.32-.04,1.148,1.148,0,0,1,.19.88,1.119,1.119,0,0,1-.12.35,1.741,1.741,0,0,1-.14.12Z" fill="#f9e89e"/>
            <path id="Path_4815" data-name="Path 4815" d="M33.91,35.35H32.57v-.24l.02-.03c.51-.29,1.02-.54,1.3.27Z" fill="#f2d680"/>
            <path id="Path_4816" data-name="Path 4816" d="M32.55,33.8h-.22a2.851,2.851,0,0,1-.29-.03c.1-.25.31-.25.53-.21.07.06.09.11.07.16s-.05.07-.08.07Z" fill="#e7dfd2"/>
            <path id="Path_4817" data-name="Path 4817" d="M26.58,37.43c-.1-.07-.2-.13-.31-.2C26.37,37.3,26.47,37.36,26.58,37.43Z" fill="#a48c52"/>
            <path id="Path_4818" data-name="Path 4818" d="M29.69,37.47h.54a1.656,1.656,0,0,0,.26,1.04q.135.09.09.18t-.09.09c-.1,0-.2,0-.3.01a1.217,1.217,0,0,1-.98-.31c.08-.25.16-.51.23-.76h0a3.069,3.069,0,0,1,.25-.26Z" fill="#fed754"/>
            <path id="Path_4819" data-name="Path 4819" d="M20.56,37.73a2.635,2.635,0,0,0-.02-.28c.07.1.14.19.2.29h-.19Z" fill="#a28253"/>
            <path id="Path_4820" data-name="Path 4820" d="M20.54,37.46l-.27-.21C20.44,37.23,20.51,37.32,20.54,37.46Z" fill="#bf925a"/>
            <path id="Path_4821" data-name="Path 4821" d="M23.66,30.94c.08,1.19.96,1.95,1.55,2.87a.691.691,0,0,1-.59.22.886.886,0,0,1-.31-.11l-.1-.13c-.34-.82-1.31-.74-1.83-1.31-.31-.46-.05-.99-.17-1.47a3.31,3.31,0,0,1-.1-1.87.83.83,0,0,1,.2-.34.474.474,0,0,1,.37-.01c.77.42.7,1.18.78,1.89a1.1,1.1,0,0,0,.2.28Z" fill="#feeb96"/>
            <path id="Path_4822" data-name="Path 4822" d="M21.33,30.66c.09-.51-.44-.68-.58-1.07,0-.05.02-.1.02-.15.02-.2.02-.41.03-.62a1.257,1.257,0,0,1,.05-.33.769.769,0,0,1,.19-.29,1.008,1.008,0,0,1,.34-.09,1.118,1.118,0,0,1,.35.12,1.007,1.007,0,0,1,.49.77c0,.58.02,1.17-.02,1.75l-.12.15c-.25-.09-.51-.18-.76-.26Z" fill="#fed855"/>
            <path id="Path_4823" data-name="Path 4823" d="M22.36,30.91c0,.52.02,1.03.03,1.55-.53-.43-.17-1.04-.29-1.55l.03-.02c.09-.11.17-.11.24.01Z" fill="#fece67"/>
            <path id="Path_4824" data-name="Path 4824" d="M23.68,34.06a.7.7,0,0,1-.25-.05.537.537,0,0,1,.51-.22q.12.09.09.18c-.03.06-.05.09-.08.09h0a.159.159,0,0,1-.26,0Z" fill="#efa435"/>
            <path id="Path_4825" data-name="Path 4825" d="M23.95,34.07V33.8a2.451,2.451,0,0,0,.27-.02v.02c.03.05.06.11.09.16-.03.05-.06.11-.09.16a.548.548,0,0,0-.25-.04Z" fill="#b7803b"/>
            <path id="Path_4826" data-name="Path 4826" d="M30.49,38.77v-.26c.66.12.78-.66,1.29-.78.46.25-.06.76.28,1.05-.53.5-1.05.06-1.58,0Z" fill="#fecc62"/>
            <path id="Path_4827" data-name="Path 4827" d="M24.4,34.32h-.19v-.3c.05-.02.1-.05.15-.07.05.02.1.04.16.06a.255.255,0,0,1,0,.31h-.11Z" fill="#63524b"/>
            <path id="Path_4828" data-name="Path 4828" d="M23.68,34.06h.26a.587.587,0,0,1-.04.23.528.528,0,0,1-.25-.04A.628.628,0,0,0,23.68,34.06Z" fill="#be8439"/>
            <path id="Path_4829" data-name="Path 4829" d="M25.23,35.12a.888.888,0,0,0,.01-.23v-.1c.23-.01.33.1.31.33a.2.2,0,0,1-.31-.02l-.02.02Z" fill="#c1a452"/>
            <path id="Path_4830" data-name="Path 4830" d="M25.25,35.1a.858.858,0,0,1,.23.02c.07.05.1.1.08.15s-.04.09-.06.09c-.09,0-.17.01-.26.01V35.1Z" fill="#a3864d"/>
            <path id="Path_4831" data-name="Path 4831" d="M25.51,35.36a.974.974,0,0,0-.02-.24l-.24-.33v-.2a1.5,1.5,0,0,1,.13-.11.532.532,0,0,1,.33,0,.589.589,0,0,1,.23.24.574.574,0,0,1-.15.63,2.716,2.716,0,0,0-.28.01Z" fill="#fad558"/>
            <path id="Path_4832" data-name="Path 4832" d="M25.05,34.56c-.11-.08-.22-.16-.34-.24h0a.214.214,0,0,1-.08-.21c.02-.07.05-.11.07-.11a.485.485,0,0,1,.54.05h0a.368.368,0,0,1,0,.53h0a.68.68,0,0,1-.2-.02Z" fill="#fcd758"/>
            <path id="Path_4833" data-name="Path 4833" d="M24.72,34.06v.25H24.5c-.01-.09-.03-.17-.04-.26a.15.15,0,0,1,.25.01Z" fill="#e5c455"/>
            <path id="Path_4834" data-name="Path 4834" d="M20.27,37.93l.23-.2a.308.308,0,0,1,0,.19l-.12.03-.12-.02Z" fill="#f3cf57"/>
            <path id="Path_4835" data-name="Path 4835" d="M19.98,26.98a1.635,1.635,0,0,0,.02-.22.332.332,0,0,1,.26-.17.494.494,0,0,1,.3.12.626.626,0,0,1,.11.46,3.472,3.472,0,0,1-.13.46.787.787,0,0,1-.27.38c-.09.09-.17.18-.26.27-.01-.09-.02-.17-.03-.26a1.35,1.35,0,0,1-.19-.33.827.827,0,0,1,.18-.71Z" fill="#5d4b3f"/>
            <path id="Path_4836" data-name="Path 4836" d="M21.07,28.32a1.6,1.6,0,0,1-.05.21.333.333,0,0,1-.23.17.355.355,0,0,1-.25-.14h-.02a2.635,2.635,0,0,1,.02-.28c.11-.11.08-.26.11-.39.02-.04.05-.08.07-.12.04-.02.08-.05.13-.07a.4.4,0,0,1,.26.1.523.523,0,0,1,.1.27.535.535,0,0,1-.13.26Z" fill="#312846"/>
            <path id="Path_4837" data-name="Path 4837" d="M20.27,28.01c.01-.17.02-.33.04-.5a.355.355,0,0,1,.25-.14.446.446,0,0,1,.26.14.241.241,0,0,1-.01.28H20.8a.518.518,0,0,0-.14.21,1.054,1.054,0,0,0-.11.07l-.27-.05Z" fill="#d5ae49"/>
            <path id="Path_4838" data-name="Path 4838" d="M20.77,28c-.08.09-.15.18-.23.27v-.22l-.02-.09a.277.277,0,0,1,.25.03Z" fill="#61514b"/>
            <path id="Path_4839" data-name="Path 4839" d="M17.12,28.03a.7.7,0,0,0-.05-.25,1.3,1.3,0,0,0,.15-.1,1.7,1.7,0,0,1,.14.1l.05-.03c-.02.09-.04.19-.06.28h-.22Z" fill="#c4985e"/>
            <path id="Path_4840" data-name="Path 4840" d="M20.75,29.59c-.3-.19-.2-.49-.2-.76a.233.233,0,0,1,.31.06,1.18,1.18,0,0,1-.01.72l-.1-.02Z" fill="#6a584c"/>
            <path id="Path_4841" data-name="Path 4841" d="M20.79,28.81a.858.858,0,0,0-.23.02,2.452,2.452,0,0,0-.02-.27h.27c.03.04.07.09.1.13a1.2,1.2,0,0,1-.12.11Z" fill="#4f424c"/>
            <path id="Path_4842" data-name="Path 4842" d="M43.07,32.74h.25c-.07.1-.14.2-.22.3a2.535,2.535,0,0,0-.04-.29Z" fill="#9b814f"/>
            <path id="Path_4843" data-name="Path 4843" d="M38.61,35.89c0,.08.02.17.02.25-.05.05-.11.1-.16.15a1.059,1.059,0,0,1-1.24-.17.87.87,0,0,1,.03-1.05c.81-.33,1.23,0,1.35.82Z" fill="#7673f8"/>
            <path id="Path_4844" data-name="Path 4844" d="M38.61,35.89c-.29-.5-.59-.98-1.3-.79a.165.165,0,0,1-.06-.15c.02-.05.03-.08.05-.08l.01-.07,1.28.06c0,.34,0,.69.01,1.03Z" fill="#807efa"/>
            <path id="Path_4845" data-name="Path 4845" d="M38.88,36.41v1.3a1.093,1.093,0,0,1-.17.05.582.582,0,0,1-.26-.23,1.459,1.459,0,0,1-.1-.34,1.208,1.208,0,0,1,.25-1.02l.02-.03c.08.09.17.18.25.27Z" fill="#716ef3"/>
            <path id="Path_4846" data-name="Path 4846" d="M42.83,32.47a1.785,1.785,0,0,1,.23.02c0,.09.01.17.01.26a.465.465,0,0,0-.2.03c-.01-.1-.03-.2-.04-.3Z" fill="#b98a5b"/>
            <path id="Path_4847" data-name="Path 4847" d="M22.86,26.74c.02.25.04.51.06.76-.02.05-.04.11-.06.16a.58.58,0,0,1-.27.19,1.268,1.268,0,0,1-.75-.29c-.09-.05-.19-.1-.28-.16a4.22,4.22,0,0,0-.45-.18,1.772,1.772,0,0,1-.31-.15.4.4,0,0,1-.09-.33.725.725,0,0,1,.29-.23,2.816,2.816,0,0,1,1.55,0,1.034,1.034,0,0,1,.31.24Z" fill="#fbe896"/>
            <path id="Path_4848" data-name="Path 4848" d="M16.6,26.46h.48a2.25,2.25,0,0,1,.08.24c-.04.04-.07.08-.11.12a.442.442,0,0,1-.44-.1l-.02-.02c0-.08.02-.16.02-.25Z" fill="#fed862"/>
            <path id="Path_4849" data-name="Path 4849" d="M17.15,26.7c.08.1.17.19.25.29l-.02-.01-.14.11c-.06-.02-.11-.03-.17-.05a.255.255,0,0,1,0-.31l.06-.02Z" fill="#f2ce58"/>
            <path id="Path_4850" data-name="Path 4850" d="M16.6,27.77V27.5h0a.21.21,0,0,1,.26,0,.187.187,0,0,1,0,.26H16.6Z" fill="#f8cc6c"/>
            <path id="Path_4851" data-name="Path 4851" d="M16.86,27.76a2.105,2.105,0,0,0-.02-.25c.05-.03.09-.07.14-.1.06.01.11.03.17.04.03.05.05.1.08.16l-.09.15-.08.02a1.231,1.231,0,0,1-.2-.02Z" fill="#e0b665"/>
            <path id="Path_4852" data-name="Path 4852" d="M17.1,26.73a.448.448,0,0,1,0,.23.151.151,0,0,1-.24.03h-.27v-.26h.49Z" fill="#fde585"/>
            <path id="Path_4853" data-name="Path 4853" d="M16.86,26.98a.986.986,0,0,0,.24-.03l.04.04.09.15-.09.15c-.06.02-.11.03-.17.05a1.538,1.538,0,0,0-.13-.12,1.927,1.927,0,0,1,.01-.24Z" fill="#ecc76b"/>
            <path id="Path_4854" data-name="Path 4854" d="M16.85,27.51c-.08,0-.16-.01-.25-.01.08-.09.17-.18.25-.28v.02c.09.06.11.11.09.17s-.06.09-.08.09h-.01Z" fill="#fbba49"/>
            <path id="Path_4855" data-name="Path 4855" d="M33.07,38.51c-.37-.35-.17-.81-.22-1.22.03-.05.06-.09.09-.14a1.217,1.217,0,0,1,.94.6h0c-.05.48-.63.41-.8.76Z" fill="#f3d054"/>
            <path id="Path_4856" data-name="Path 4856" d="M35.75,37.7a1.537,1.537,0,0,1-.31-.99.366.366,0,0,1-.04-.35.693.693,0,0,1,.64-.34.466.466,0,0,1,.3.21,2.443,2.443,0,0,1-.26,1.48.245.245,0,0,1-.33,0Z" fill="#7c7bdd"/>
            <path id="Path_4857" data-name="Path 4857" d="M35.45,36.42a2.635,2.635,0,0,1-.02.28h-.12l-.12.02-1.32-.06c-.02-.04-.05-.08-.07-.12a.675.675,0,0,1,.02-.14c.09-.1.23-.14.3-.27l.05.05a1.057,1.057,0,0,1,1.27.25Z" fill="#5a5882"/>
            <path id="Path_4858" data-name="Path 4858" d="M32.85,37.29c-.1-.1-.2-.21-.31-.31.02-.04.05-.09.07-.13a.325.325,0,0,1,.27.06.212.212,0,0,1-.03.26.122.122,0,0,1,0,.13Z" fill="#ab8c53"/>
            <path id="Path_4859" data-name="Path 4859" d="M32.33,36.93l.21-.27s.08.06.13.1c-.01.05-.03.1-.04.15l-.08.07a1.6,1.6,0,0,0-.21-.05Z" fill="#b58759"/>
            <path id="Path_4860" data-name="Path 4860" d="M33.11,21.21c-.19-.35-1.12-.7,0-1.05a.89.89,0,0,0,.3.67c.09.08.41.11.18.32C33.5,21.24,33.27,21.2,33.11,21.21Z" fill="#fec349"/>
            <path id="Path_4861" data-name="Path 4861" d="M33.87,21.75a2.111,2.111,0,0,1-.02.26l-.11.05L33.63,22a.136.136,0,0,1-.01-.22A.524.524,0,0,1,33.87,21.75Z" fill="#847158"/>
            <path id="Path_4862" data-name="Path 4862" d="M33.62,21.78c.01.07.02.13.03.2l-.09.09a.237.237,0,0,1-.22-.09l-.04-.12.09-.08-.03-.06.26.06Z" fill="#594f5c"/>
            <path id="Path_4863" data-name="Path 4863" d="M37.58,25.68a1.492,1.492,0,0,1,.21-.02v.53c-.08.11-.16.11-.22-.02v-.49Z" fill="#feb73a"/>
            <path id="Path_4864" data-name="Path 4864" d="M38.89,26.19h.24v.54h-.24v-.52Z" fill="#78644e"/>
            <path id="Path_4865" data-name="Path 4865" d="M37.87,24.37v-.28C38.07,24.18,38.07,24.28,37.87,24.37Z" fill="#ad7639"/>
            <path id="Path_4866" data-name="Path 4866" d="M37.86,23.06v-.3Q38.2,22.91,37.86,23.06Z" fill="#ad8f60"/>
            <path id="Path_4867" data-name="Path 4867" d="M37.57,26.17a1.635,1.635,0,0,0,.22.02.362.362,0,0,1,.02.25h-.2c-.07-.04-.1-.09-.09-.14s.02-.09.04-.09l.02-.04Z" fill="#f1cb52"/>
            <path id="Path_4868" data-name="Path 4868" d="M34.14,23.57a1.614,1.614,0,0,1,0,.22l.02.07a.3.3,0,0,0-.13.23.313.313,0,0,0,.12.24c.26.27.53.53.79.8.09.09.17.18.26.27a1.984,1.984,0,0,0,.28,1.3c.09.1.18.19.27.29a.653.653,0,0,1,.17.61,1.13,1.13,0,0,1-.22.42,1.59,1.59,0,0,0-.21.41c-.02.11-.05.21-.07.32a.987.987,0,0,1-.15.31.427.427,0,0,1-.65,0c-.4-.56-.2-1.23-.31-1.84a3.172,3.172,0,0,0-1.65-2.07,2.751,2.751,0,0,1-1.08-1.11c-.32-.56-.92-.34-1.39-.49a1.744,1.744,0,0,1-.68-.34.951.951,0,0,1-.22-1.1.8.8,0,0,1,.84-.34,1.233,1.233,0,0,1,.34.11,2.848,2.848,0,0,1,.26.23,1.327,1.327,0,0,0,.41.29c.63.15,1.3-.05,1.92.22a4.932,4.932,0,0,1,1.09.95Z" fill="#feeb95"/>
            <path id="Path_4869" data-name="Path 4869" d="M35.71,27.75c.02-.25.03-.51.05-.76.15-.09.3-.18.45-.28.14.37.66.52.59,1.01.07.12.22.17.24.32-.09.08-.18.17-.27.25a.539.539,0,0,1-.63.14.9.9,0,0,1-.27-.21,1.028,1.028,0,0,1-.17-.48Z" fill="#feb036"/>
            <path id="Path_4870" data-name="Path 4870" d="M35.48,26.7c-.21-.41-1.28-.63-.28-1.3a1.8,1.8,0,0,0,1.06-.26c.06.68-.68.95-.77,1.56Z" fill="#fedf6f"/>
            <path id="Path_4871" data-name="Path 4871" d="M37.55,26.21a1.891,1.891,0,0,0,.05.23l-.3-.21A.357.357,0,0,1,37.55,26.21Z" fill="#4e414a"/>
            <path id="Path_4872" data-name="Path 4872" d="M34.14,23.57c-.47-.1-.95-.18-1.03-.78a.609.609,0,0,1,.31-.18.5.5,0,0,1,.48.2c.09.09.18.17.27.26a.262.262,0,0,1,.12.24.363.363,0,0,1-.11.26Z" fill="#fee78d"/>
            <path id="Path_4873" data-name="Path 4873" d="M33.9,22.8c-.17,0-.34-.01-.51-.02a.177.177,0,0,1-.07-.17c.01-.06.02-.09.04-.09a.5.5,0,0,1,.27-.14.4.4,0,0,1,.27.12c0,.1,0,.2.01.3Z" fill="#e7a539"/>
            <path id="Path_4874" data-name="Path 4874" d="M34.19,23.3a.974.974,0,0,1-.02-.24.556.556,0,0,0,.21-.06l.08.08a.122.122,0,0,1,0,.21h-.1a1.082,1.082,0,0,1-.18,0Z" fill="#a99a71"/>
            <path id="Path_4875" data-name="Path 4875" d="M33.88,22.51a2.175,2.175,0,0,1-.26-.01,1.209,1.209,0,0,1-.05-.18c.04-.05.08-.09.12-.14.06.02.11.05.17.07A2.275,2.275,0,0,0,33.88,22.51Z" fill="#977445"/>
            <path id="Path_4876" data-name="Path 4876" d="M33.86,22.24h-.24a.165.165,0,0,1-.06-.15c.01-.05.03-.08.04-.08l.04-.04.2.03a.305.305,0,0,1,0,.23Z" fill="#5b4d4c"/>
            <path id="Path_4877" data-name="Path 4877" d="M34.15,24.33c-.16.01-.24-.05-.22-.22.07-.1.13-.1.18.01l.05-.04a1.941,1.941,0,0,1-.02.24Z" fill="#494258"/>
            <path id="Path_4878" data-name="Path 4878" d="M34.12,24.13l-.09-.02h-.09a.206.206,0,0,1,.22-.25C34.15,23.95,34.13,24.04,34.12,24.13Z" fill="#9b7951"/>
            <path id="Path_4879" data-name="Path 4879" d="M34.19,23.3a1.087,1.087,0,0,1,.18.01.878.878,0,0,1,.07.23,1.153,1.153,0,0,1-.26.03V23.3Z" fill="#c6a86b"/>
            <path id="Path_4880" data-name="Path 4880" d="M34.47,23.3a.256.256,0,0,1,0-.21.248.248,0,0,1,.19.01.333.333,0,0,1-.02.17.453.453,0,0,1-.16.03Z" fill="#453b4d"/>
            <path id="Path_4881" data-name="Path 4881" d="M37.04,28.04c-.08-.11-.16-.21-.24-.32.16.03.33.05.49.08.07.04.1.09.08.14s-.04.08-.06.08a2.477,2.477,0,0,0-.27.03Z" fill="#cd9754"/>
            <path id="Path_4882" data-name="Path 4882" d="M37.31,28.02a1.7,1.7,0,0,0-.01-.22.524.524,0,0,1,.25-.03c.01.08.03.15.04.22a2.635,2.635,0,0,0-.28.02Z" fill="#ae8256"/>
            <path id="Path_4883" data-name="Path 4883" d="M34.98,29.09a1.967,1.967,0,0,0,.24-.03,1.063,1.063,0,0,0,.11.09,1.344,1.344,0,0,1,.12.24c.05.12.1.25.16.37a.771.771,0,0,1,.1.25v.14c0,.17-.02.34-.03.51a.694.694,0,0,1-.77.29.844.844,0,0,1-.39-.38,1.651,1.651,0,0,1-.11-.36c-.03-.47.02-.91.55-1.11Z" fill="#31284a"/>
            <path id="Path_4884" data-name="Path 4884" d="M36.04,28.29h.74v.78h-.52c-.11-.09-.27-.12-.37-.25a.6.6,0,0,1-.05-.3c.02-.05.04-.09.06-.14.04-.03.09-.05.13-.08Z" fill="#fee175"/>
            <path id="Path_4885" data-name="Path 4885" d="M34.95,30.91c.25-.09.49-.17.74-.26,0,.16.01.33.02.49-.15.23-.38.13-.59.14a.4.4,0,0,1-.22-.22C34.92,31.01,34.93,30.96,34.95,30.91Z" fill="#201947"/>
            <path id="Path_4886" data-name="Path 4886" d="M37.57,29.86h-.52c-.09.12-.18.12-.28,0h0c.08-.09.17-.18.25-.27a.345.345,0,0,1,.51,0h.05a2.451,2.451,0,0,1-.02.27Z" fill="#fed06a"/>
            <path id="Path_4887" data-name="Path 4887" d="M34.94,31.13c.25,0,.51.01.76.02a2.451,2.451,0,0,0,.02.27c-.26.02-.52.03-.79.05l-.08-.1v-.13l.08-.1Z" fill="#ac914c"/>
            <path id="Path_4888" data-name="Path 4888" d="M35.99,28.81c.09.09.18.17.27.26a2.477,2.477,0,0,0-.27.03.445.445,0,0,1-.29.14.9.9,0,0,1-.16-.03,1.213,1.213,0,0,1-.14-.1c-.02-.05-.03-.11-.05-.16.02-.05.03-.11.05-.16a.577.577,0,0,1,.3-.13.432.432,0,0,1,.28.15Z" fill="#fad255"/>
            <path id="Path_4889" data-name="Path 4889" d="M35.72,29.1H36v.77a1.7,1.7,0,0,0-.14.1c-.05-.02-.11-.05-.16-.07a.859.859,0,0,1-.15-.32.617.617,0,0,1,.18-.48Z" fill="#e7a949"/>
            <path id="Path_4890" data-name="Path 4890" d="M37.54,29.6h-.51a2.275,2.275,0,0,1,.02-.26c.21,0,.41.01.49.26Z" fill="#fee890"/>
            <path id="Path_4891" data-name="Path 4891" d="M35.74,29.87H36c-.09.09-.18.19-.28.28h0c-.06-.07-.08-.13-.05-.19s.05-.09.08-.09Z" fill="#fbc246"/>
            <path id="Path_4892" data-name="Path 4892" d="M36.77,29.87h.28c.11.22.3.25.52.26a2.621,2.621,0,0,1-.01.28c-.26,0-.52,0-.78-.02v-.52Z" fill="#fec85c"/>
            <path id="Path_4893" data-name="Path 4893" d="M35.97,31.97h-.24a.994.994,0,0,1-1.22.09c-.24-.26-.26-.5.05-.72a.414.414,0,0,1,.4.08v.03c.27.39.71.16,1.04.29a.784.784,0,0,1-.02.22Z" fill="#bebeff"/>
            <path id="Path_4894" data-name="Path 4894" d="M37.03,33.55l.02,1.27c-.05.05-.11.1-.16.15a.843.843,0,0,1-1.03-.19A1.013,1.013,0,0,1,36,33.52c.34,0,.69.02,1.03.03Z" fill="#7673f8"/>
            <path id="Path_4895" data-name="Path 4895" d="M36,33.52v1.31c.09.25-.05.32-.27.31a.813.813,0,0,1-.21-.3,1.514,1.514,0,0,1-.07-.37,2.06,2.06,0,0,1,.16-1.1,1.661,1.661,0,0,0,.14-.13.852.852,0,0,1,.23.04,1.785,1.785,0,0,0,.02.23Z" fill="#6c69f0"/>
            <path id="Path_4896" data-name="Path 4896" d="M37.3,34.87v1.27c-.06.03-.12.05-.18.08a.51.51,0,0,1-.28-.26,1.032,1.032,0,0,1,.19-1.11v-.03a2.211,2.211,0,0,1,.25.05Z" fill="#6966ee"/>
            <path id="Path_4897" data-name="Path 4897" d="M35.72,32.22c0,.34.01.69.02,1.03l-.02.04a1.017,1.017,0,0,1-1.33.01.875.875,0,0,1-.04-1.11,1.78,1.78,0,0,1,1.36.03Z" fill="#7673f8"/>
            <path id="Path_4898" data-name="Path 4898" d="M35.72,32.22h-1.3c-.02-.05-.05-.1-.07-.16.03-.05.05-.1.08-.15l1.29.06v.25Z" fill="#7e7bfa"/>
            <path id="Path_4899" data-name="Path 4899" d="M28.92,19.91h.29c-.05.14-.13.24-.3.21a1.8,1.8,0,0,1,.02-.22Z" fill="#d2a758"/>
            <path id="Path_4900" data-name="Path 4900" d="M30.52,22.24v-.26c-.32-.49-1.01-.02-1.33-.51.59-.63,1.52.12,2.11-.53.08,0,.17.01.25.01.31.32.5.81,1.07.8.15.08.3.17.45.25a1.588,1.588,0,0,0,.07.2.6.6,0,0,1-.32.27,3.718,3.718,0,0,1-2.28-.23Z" fill="#feae35"/>
            <path id="Path_4901" data-name="Path 4901" d="M29.18,21.47c.38,0,.76-.01,1.13.02.32.03.46.19.2.49l-.05.04c-.39-.31-.82-.1-1.23-.11a.554.554,0,0,1-.3-.2.851.851,0,0,0-.04-.22,2.81,2.81,0,0,0,.29-.01Z" fill="#feb33d"/>
            <path id="Path_4902" data-name="Path 4902" d="M32.61,21.75c-.98.56-1.05-.08-1.07-.8C32.09,20.95,32.36,21.34,32.61,21.75Z" fill="#fee68b"/>
            <path id="Path_4903" data-name="Path 4903" d="M33.4,21.77a.906.906,0,0,0-.01.23c-.04.02-.08.05-.12.07l-.11-.08h-.1c.11-.08.23-.15.34-.23Z" fill="#9c7a4f"/>
            <path id="Path_4904" data-name="Path 4904" d="M29.96,32.23c-.11-.92-.9-1.04-1.55-1.33a1.261,1.261,0,0,1,.32-.21,1.778,1.778,0,0,1,.39-.07,1.265,1.265,0,0,1,.95.28,1.18,1.18,0,0,1,.05,1.19l-.15.15Z" fill="#ececff"/>
            <path id="Path_4905" data-name="Path 4905" d="M23.43,28.29c-.04.24.55.18.26.54-.1.14-.16.31-.34.38a.611.611,0,0,1-.69-.39H22.6a.341.341,0,0,1-.08-.2c0-.07.01-.11.03-.11a.793.793,0,0,1,.39-.33.4.4,0,0,1,.46.12h.02Z" fill="#fff6d1"/>
            <path id="Path_4906" data-name="Path 4906" d="M23.4,29.09l.29-.26c0,.7-.02,1.4-.02,2.1l-.23-.03a2.77,2.77,0,0,1-.03-1.82Z" fill="#fffcf1"/>
            <path id="Path_4907" data-name="Path 4907" d="M31.51,32.24v1.3c-.82-.17-.39-.64-.26-1.05a.219.219,0,0,1-.07-.19c.01-.07.03-.1.04-.1a.189.189,0,0,1,.28.05Z" fill="#dbd4d9"/>
            <path id="Path_4908" data-name="Path 4908" d="M28.69,30.89a2.81,2.81,0,0,0-.29.01c0-.43-.01-.86-.02-1.3a.236.236,0,0,1,.03-.33,1.34,1.34,0,0,0,.2-.01.569.569,0,0,1,.25.3,1.382,1.382,0,0,1-.17,1.32Z" fill="#e0e0ff"/>
            <path id="Path_4909" data-name="Path 4909" d="M31.26,32.24v.25c-.44-.07-.93.15-1.3-.26l.03-.03a.886.886,0,0,1,1.28.04Z" fill="#ececfb"/>
            <path id="Path_4910" data-name="Path 4910" d="M28.39,29.37v.24c-.44-.07-.94.15-1.32-.25l.04-.04a.886.886,0,0,1,1.28.05Z" fill="#e9e9ff"/>
            <path id="Path_4911" data-name="Path 4911" d="M24.72,34.06c-.08,0-.17-.01-.25-.01l-.02.02a.171.171,0,0,1-.06-.18q.03-.09.06-.09h.76a1.027,1.027,0,0,1,.05.24c-.18,0-.36.01-.54.02Z" fill="#fce27e"/>
            <path id="Path_4912" data-name="Path 4912" d="M25.25,34.57v-.53a1.086,1.086,0,0,1,.25.04c.09.07.18.15.27.23h0a.162.162,0,0,1,.07.18c-.03.06-.05.09-.08.09-.17,0-.34,0-.51-.01Z" fill="#fee276"/>
            <path id="Path_4913" data-name="Path 4913" d="M26.05,34.54a.549.549,0,0,1,.25.55l.01.07c-.38.05-.39-.21-.38-.47l.12-.15Z" fill="#feeb98"/>
            <path id="Path_4914" data-name="Path 4914" d="M25.77,34.58a2.437,2.437,0,0,1,.01-.27c.09.08.18.15.27.23l-.03.07c-.1.08-.18.08-.25-.03Z" fill="#feeead"/>
            <path id="Path_4915" data-name="Path 4915" d="M25.77,34.32c-.09-.08-.18-.16-.27-.23C25.59,34.17,25.68,34.25,25.77,34.32Z" fill="#feec9b"/>
            <path id="Path_4916" data-name="Path 4916" d="M32.54,36.66c.11-.1.21-.2.32-.29l-.01.08c.02.06.05.11.07.17-.04.05-.08.09-.12.14a1.542,1.542,0,0,0-.17-.05l-.09-.04Z" fill="#9f7246"/>
            <path id="Path_4917" data-name="Path 4917" d="M25.77,34.58a.688.688,0,0,1,.25.03c.1.18.19.36.29.54a.5.5,0,0,1-.52.18c0-.25-.01-.51-.02-.76Z" fill="#fee17a"/>
            <path id="Path_4918" data-name="Path 4918" d="M35.73,34.85a1.967,1.967,0,0,0,.03.24.62.62,0,0,1,.1.65c-.51.59-1.07.47-1.66.13-.03-.17-.06-.33-.09-.5a.4.4,0,0,1-.01-.38.9.9,0,0,1,.47-.37,1.106,1.106,0,0,1,1.15.22Z" fill="#3936c2"/>
            <path id="Path_4919" data-name="Path 4919" d="M34.21,35.88c.52-.07,1.09.22,1.55-.25.42.02.42.23.24.52l-.54.27a2.238,2.238,0,0,1-1.27-.25c0-.1.01-.2.02-.3Z" fill="#605dd5"/>
            <path id="Path_4920" data-name="Path 4920" d="M34.2,35.11c-.03.09-.05.18-.08.27a.645.645,0,0,1-.2-.03c-.36-.43-.87-.18-1.3-.27a2.451,2.451,0,0,1,.02-.27,1.059,1.059,0,0,1,.59-.26c.41.05.92-.1.98.56Z" fill="#c6bed4"/>
            <path id="Path_4921" data-name="Path 4921" d="M32.85,36.68v-.23c.09-.02.18-.05.26-.07.27-.09.54-.17.78.08v.19l.02.05a.8.8,0,0,1-1.06-.02Z" fill="#765f4a"/>
            <path id="Path_4922" data-name="Path 4922" d="M33.89,36.45c-.26-.03-.52-.05-.78-.08.21-.27.51-.21.79-.21.06.05.07.1.05.14s-.04.07-.06.07v.07Z" fill="#e2bc51"/>
            <path id="Path_4923" data-name="Path 4923" d="M33.9,36.38v-.22a.925.925,0,0,0,.23-.04.221.221,0,0,1-.23.25Z" fill="#ccba93"/>
            <path id="Path_4924" data-name="Path 4924" d="M29.69,37.47c-.08.09-.17.17-.25.26a2.26,2.26,0,0,1,.01-.26Z" fill="#d6a040"/>
            <path id="Path_4925" data-name="Path 4925" d="M31.84,32.99l-.04-1.03s.09-.09.14-.13a.9.9,0,0,1,.92.05.731.731,0,0,1,.17.34.655.655,0,0,1-.18.53c-.27.38-.66.24-1.01.25Z" fill="#3b38c3"/>
            <path id="Path_4926" data-name="Path 4926" d="M33.15,34.8c-.17,0-.35,0-.52.01-.03-.34-.05-.68-.08-1.01a.45.45,0,0,0,.01-.23c.18,0,.36-.01.54-.02a.885.885,0,0,1,.24.91.9.9,0,0,1-.2.34Z" fill="#908ee5"/>
            <path id="Path_4927" data-name="Path 4927" d="M32.86,32.74c0-.18,0-.35.01-.53a.385.385,0,0,1,.32-.11,4.172,4.172,0,0,1,1.04.97.507.507,0,0,1-.19.32.785.785,0,0,1-.93-.12.554.554,0,0,0-.25-.53Z" fill="#5c59e3"/>
            <path id="Path_4928" data-name="Path 4928" d="M33.11,33.28c.35,0,.7-.01,1.06-.02a1.093,1.093,0,0,1,.08.15.542.542,0,0,1-.15.29c-.35.21-.44.61-.66.92a.207.207,0,0,1-.29-.04c-.02-.34-.03-.68-.05-1.02v-.27Z" fill="#4542c8"/>
            <path id="Path_4929" data-name="Path 4929" d="M31.81,31.96c-.1.02-.19.03-.29.05a1.588,1.588,0,0,1-1.33-.09.317.317,0,0,1,.1-.33c.39-.21.92-.22,1.07-.78a.519.519,0,0,1,.3-.22.594.594,0,0,1,.31.23,1.015,1.015,0,0,1-.15,1.15h0Z" fill="#4845cc"/>
            <path id="Path_4930" data-name="Path 4930" d="M30.28,31.69c.31.52.85.13,1.24.31a1.927,1.927,0,0,1-.01.24h-.24c-.43-.01-.85-.03-1.28-.04-.02-.42-.03-.85-.05-1.27a.287.287,0,0,1,.37,0,.616.616,0,0,1-.03.76Z" fill="#bab9fa"/>
            <path id="Path_4931" data-name="Path 4931" d="M22.65,28.57a2.048,2.048,0,0,0-.05.24.908.908,0,0,0-.23.03c-.09.11-.18.11-.26-.01a.944.944,0,0,1-.54-.55,1.47,1.47,0,0,1-.1-.13v-.16a1.186,1.186,0,0,1,.36-.71l.78.5a.452.452,0,0,1,.19.22.613.613,0,0,1-.02.3,1.107,1.107,0,0,1-.12.27Z" fill="#ffb035"/>
            <path id="Path_4932" data-name="Path 4932" d="M23.4,29.09c0,.61.02,1.21.03,1.82-.26-.7-.51-1.4-.77-2.09C22.91,28.91,23.16,29,23.4,29.09Z" fill="#fef0ae"/>
            <path id="Path_4933" data-name="Path 4933" d="M22.11,28.83a2.175,2.175,0,0,1,.26.01c0,.69-.01,1.38-.02,2.08a1.927,1.927,0,0,1-.24-.01V28.84Z" fill="#fee175"/>
            <path id="Path_4934" data-name="Path 4934" d="M24.45,33.8v.27a.705.705,0,0,1-.25-.06,1.62,1.62,0,0,1,.01-.22h.25Z" fill="#c5984e"/>
            <path id="Path_4935" data-name="Path 4935" d="M20.85,29.61c-.02-.27-.04-.53-.07-.8l.02.02c.07-.1.14-.11.23-.03,0,.29.06.59-.19.81Z" fill="#e0c053"/>
            <path id="Path_4936" data-name="Path 4936" d="M21.04,28.8l-.23.03v-.26a.779.779,0,0,0,.21-.04A2.452,2.452,0,0,0,21.04,28.8Z" fill="#947d50"/>
            <path id="Path_4937" data-name="Path 4937" d="M21.58,28.03a1.927,1.927,0,0,1-.01.24,2.452,2.452,0,0,1-.27-.02.171.171,0,0,1-.06-.18c.02-.06.03-.1.05-.1a.3.3,0,0,1,.3.05Z" fill="#9f884e"/>
            <path id="Path_4938" data-name="Path 4938" d="M21.34,28.05c-.01.07-.03.14-.04.2l-.22.06a2.635,2.635,0,0,0-.02-.28.19.19,0,0,1,.29.02Z" fill="#5b4c49"/>
            <path id="Path_4939" data-name="Path 4939" d="M17.13,27.25v-.26a1.027,1.027,0,0,1,.25-.01.974.974,0,0,1-.02.24c-.06.12-.14.14-.24.03Z" fill="#b49853"/>
            <path id="Path_4940" data-name="Path 4940" d="M17.13,27.25a1.967,1.967,0,0,0,.24-.03v.29a.137.137,0,0,1-.24-.02l-.03.02a.171.171,0,0,1-.06-.18c.02-.06.05-.09.07-.09h0Z" fill="#443448"/>
            <path id="Path_4941" data-name="Path 4941" d="M17.14,27.49c.08,0,.16.02.24.02a2.452,2.452,0,0,1-.02.27,1.492,1.492,0,0,0-.21-.02v-.27Z" fill="#846454"/>
            <path id="Path_4942" data-name="Path 4942" d="M20.78,26.75c0,.07.02.15.02.22a.2.2,0,0,1-.01.28c-.05.02-.1.04-.14.06-.05-.03-.09-.05-.14-.08v-.47l.09-.08c.1-.08.16-.06.19.06Z" fill="#fdd866"/>
            <path id="Path_4943" data-name="Path 4943" d="M20.53,27.5H20.3c.07-.09.13-.18.2-.27h.09a.179.179,0,0,1-.06.27Z" fill="#dd9c37"/>
            <path id="Path_4944" data-name="Path 4944" d="M21.34,28.05a2.825,2.825,0,0,1-.29-.02v-.27c.03-.03.06-.07.09-.1a.646.646,0,0,1,.27-.05.389.389,0,0,1,.23.15.24.24,0,0,1-.08.25v.01a.974.974,0,0,0-.24.02Z" fill="#26213d"/>
            <path id="Path_4945" data-name="Path 4945" d="M20.81,27.78a1.13,1.13,0,0,1,0-.26c.04-.02.08-.05.12-.07.04.02.08.04.13.06a.157.157,0,0,1-.02.24l.02.02A2.09,2.09,0,0,0,20.81,27.78Z" fill="#8e7744"/>
            <path id="Path_4946" data-name="Path 4946" d="M20.77,28h-.13l-.12-.03c.09-.07.19-.13.28-.2a.583.583,0,0,1-.03.23Z" fill="#a9904c"/>
            <path id="Path_4947" data-name="Path 4947" d="M20.53,27.5l.06-.27h.21a1,1,0,0,1,.08.14c-.03.04-.06.09-.09.13l.02.02a2.635,2.635,0,0,1-.28-.02Z" fill="#f8ba41"/>
            <path id="Path_4948" data-name="Path 4948" d="M38.6,36.17v1.3a1.047,1.047,0,0,1-1.36.06,1.06,1.06,0,0,1,.05-1.37l.01-.02,1.29.03Z" fill="#6360e9"/>
            <path id="Path_4949" data-name="Path 4949" d="M37.31,37.46c.43,0,.87.01,1.3.02a1.942,1.942,0,0,0,.02.24,1.5,1.5,0,0,0-.11.13,1.413,1.413,0,0,1-.99.09.717.717,0,0,1-.29-.17.262.262,0,0,1,.07-.3Z" fill="#4f4cd7"/>
            <path id="Path_4950" data-name="Path 4950" d="M27.12,29.04c0-.34-.02-.68-.03-1.02.08-.09.17-.17.25-.26h.26a.945.945,0,0,1,.21.31,1.278,1.278,0,0,1,0,.75.745.745,0,0,1-.21.32c-.18.05-.37.11-.5-.1Z" fill="#5957d0"/>
            <path id="Path_4951" data-name="Path 4951" d="M20.78,26.75a1.39,1.39,0,0,1-.19-.06,2.027,2.027,0,0,1,2.06,0l-1.87.06Z" fill="#dad4dd"/>
            <path id="Path_4952" data-name="Path 4952" d="M21.57,28.02a1.153,1.153,0,0,0-.03-.26.454.454,0,0,1-.07-.46,1.2,1.2,0,0,1,.12-.11,2.288,2.288,0,0,0,.23.1c-.01.27.1.59-.26.74Z" fill="#8d6437"/>
            <path id="Path_4953" data-name="Path 4953" d="M22.66,28.01a1.554,1.554,0,0,0-.05-.23l.22-.28c.03.09.05.17.08.26.03.06.06.13.09.19a1.92,1.92,0,0,0-.14.15,1.538,1.538,0,0,0-.19-.08Z" fill="#d6c0be"/>
            <path id="Path_4954" data-name="Path 4954" d="M20.8,27.23v-.26a2.26,2.26,0,0,1,.26.01.21.21,0,0,1,0,.26.2.2,0,0,1-.26,0h0Z" fill="#ffe378"/>
            <path id="Path_4955" data-name="Path 4955" d="M21.02,27.21a1.846,1.846,0,0,0,.04-.23,2.437,2.437,0,0,1,.27.01l.09.15-.09.15-.18.03c-.04-.04-.09-.08-.13-.12Z" fill="#d9c57a"/>
            <path id="Path_4956" data-name="Path 4956" d="M21.32,27.24a1.927,1.927,0,0,1,.01-.24c.09.06.18.12.26.18l-.03.12a.19.19,0,0,1-.25-.06Z" fill="#ab9e74"/>
            <path id="Path_4957" data-name="Path 4957" d="M28.66,27.76c.08,0,.17.01.25.01.04.04.08.07.12.11a1.172,1.172,0,0,1,.12.31,2.311,2.311,0,0,1-.02.83.748.748,0,0,1-.16.29.255.255,0,0,1-.3.01h0c-.28-.31-.77.08-1.04-.3V28.8c.42-.26.4-.52,0-.78v-.26h1.05Z" fill="#4643cb"/>
            <path id="Path_4958" data-name="Path 4958" d="M22.91,28.01a.7.7,0,0,1,0-.25,1,1,0,0,1,.24.04,1.492,1.492,0,0,0,.02.21q-.12.165-.24,0Z" fill="#b9b8f2"/>
            <path id="Path_4959" data-name="Path 4959" d="M17.12,27.24v.26h-.26v-.26Z" fill="#ce9340"/>
            <path id="Path_4960" data-name="Path 4960" d="M37.05,37.76h-.28l-.8-.06a2.694,2.694,0,0,1,.28-1.53.5.5,0,0,1,.56-.08c.48.42.34.98.34,1.51-.03.06-.07.12-.1.17Z" fill="#3734c0"/>
            <path id="Path_4961" data-name="Path 4961" d="M36.77,36.17c-.17,0-.34,0-.52-.01h-.26a.54.54,0,0,0-.24-.52V35.1c.08-.09.16-.17.24-.26.35,0,.7.01,1.04.02v1.29c-.08.12-.17.13-.27.02Z" fill="#625fe9"/>
            <path id="Path_4962" data-name="Path 4962" d="M32.86,36.69a2.512,2.512,0,0,1-.04.27.762.762,0,0,1-.2-.06.375.375,0,0,1,0-.21.448.448,0,0,1,.23,0Z" fill="#654d51"/>
            <path id="Path_4963" data-name="Path 4963" d="M33.62,22.02a.888.888,0,0,1,.01.23v.01a.191.191,0,0,1-.27-.27h.02a1.77,1.77,0,0,1,.23.01Z" fill="#221b49"/>
            <path id="Path_4964" data-name="Path 4964" d="M29.72,23.06c.16.09.33.17.49.26.46.35,1.24-.22,1.56.54a4.6,4.6,0,0,0,1.76,1.39c.53.21.78,1.12,1.15,1.72a1.4,1.4,0,0,0-.22.48c-.12.53.09,1.1-.19,1.61a.683.683,0,0,1-.32.18,1.518,1.518,0,0,1-.72-.19,1.96,1.96,0,0,1-1.42-1.27c-.34-.27-.82-.18-1.14-.48-.29-.34-.17-.86-.55-1.15-1.26-.45-.93-1.49-.88-2.42a.917.917,0,0,1,.48-.65Z" fill="#fff"/>
            <path id="Path_4965" data-name="Path 4965" d="M34.41,27.23l.27-.27c.14.7-.28,1.48.3,2.12-.41.35-.23.86-.33,1.29a.4.4,0,0,1-.35.07.885.885,0,0,1-.58-.47.765.765,0,0,1,.2-.89,1.81,1.81,0,0,0,.23-.03c.37-.57-.04-1.25.26-1.83Z" fill="#feed9e"/>
            <path id="Path_4966" data-name="Path 4966" d="M33.36,22.54a.986.986,0,0,0,.03.24h-.28c-.78-.12-1.62.25-2.36-.25.66-.31,1.36-.06,2.04-.14.14,0,.28,0,.41.01l.16.13Z" fill="#fee48a"/>
            <path id="Path_4967" data-name="Path 4967" d="M33.12,22.51c-.79,0-1.58.02-2.37.02-.08-.1-.15-.2-.23-.29.86,0,1.72.02,2.58.03a1.5,1.5,0,0,0,.13.11,1.213,1.213,0,0,1-.1.14Z" fill="#fec458"/>
            <path id="Path_4968" data-name="Path 4968" d="M31.77,23.86c-.42-.46-1.13-.08-1.56-.54C30.73,23.5,31.54,22.84,31.77,23.86Z" fill="#fff3be"/>
            <path id="Path_4969" data-name="Path 4969" d="M29.72,23.06c-.1.16-.19.33-.29.49a1.2,1.2,0,0,1-.12.11l-.13-.1c.01-.53.03-1.05.04-1.58.08-.1.15-.09.22.01.04.37-.12.79.28,1.06Z" fill="#f6e6a2"/>
            <path id="Path_4970" data-name="Path 4970" d="M29.44,22a1.62,1.62,0,0,1-.22-.01c-.02-.07-.04-.15-.06-.23.44.05.95-.24,1.3.25C30.12,22.01,29.78,22.01,29.44,22Z" fill="#fddc81"/>
            <path id="Path_4971" data-name="Path 4971" d="M35.71,27.75c.09.1.19.19.28.29a.4.4,0,0,1-.29.12c-.05-.02-.1-.03-.16-.05-.03-.05-.06-.09-.09-.14l.26-.23Z" fill="#f0a93d"/>
            <path id="Path_4972" data-name="Path 4972" d="M35.47,28.83v.23a.21.21,0,0,1-.29.06l.03-.06v-.25a.155.155,0,0,1,.25.02Z" fill="#edd274"/>
            <path id="Path_4973" data-name="Path 4973" d="M35.47,28.83a2.105,2.105,0,0,0-.25-.02c0-.09.01-.18.02-.28a.212.212,0,0,1,.25.03.182.182,0,0,1,0,.24v.03Z" fill="#d6c076"/>
            <path id="Path_4974" data-name="Path 4974" d="M35.43,28.59c-.06-.02-.13-.04-.2-.06a.885.885,0,0,1,0-.23c.05-.04.09-.08.14-.12a1.3,1.3,0,0,1,.15.1,1.1,1.1,0,0,0,.02.18,1.741,1.741,0,0,0-.12.14Z" fill="#a49572"/>
            <path id="Path_4975" data-name="Path 4975" d="M35.42,28.29a.554.554,0,0,0-.18.02c.07-.11.14-.21.2-.32l.06.07A.149.149,0,0,1,35.42,28.29Z" fill="#c3a76d"/>
            <path id="Path_4976" data-name="Path 4976" d="M35.72,28.05h.27a.742.742,0,0,0,.05.25h-.06a.21.21,0,0,1-.26,0A.2.2,0,0,1,35.72,28.05Z" fill="#bb9255"/>
            <path id="Path_4977" data-name="Path 4977" d="M33.41,22.23l.23.03a.9.9,0,0,1-.02.23c-.09.02-.18.03-.26.05l.02-.02c-.04-.05-.08-.11-.12-.16a1.739,1.739,0,0,0,.15-.13Z" fill="#735140"/>
            <path id="Path_4978" data-name="Path 4978" d="M35.43,29.85c-.21-.12-.21-.32-.19-.53a.194.194,0,0,1,.28-.02.575.575,0,0,1,.08.31.875.875,0,0,1-.02.16c-.05.03-.09.05-.14.08Z" fill="#715850"/>
            <path id="Path_4979" data-name="Path 4979" d="M34.72,30.66c.08.08.15.17.23.25l-.02-.01a.163.163,0,0,1-.24,0c-.02-.04-.03-.09-.05-.13a1.063,1.063,0,0,1,.09-.11Z" fill="#6e5964"/>
            <path id="Path_4980" data-name="Path 4980" d="M34.44,30.37a1.34,1.34,0,0,1,.2.01c.03.09.05.18.08.27l-.1-.03-.12.09c-.04-.03-.09-.05-.13-.08a.253.253,0,0,1,.07-.27Z" fill="#d7c6ce"/>
            <path id="Path_4981" data-name="Path 4981" d="M35.45,29.35a1.8,1.8,0,0,1-.22-.02,1.6,1.6,0,0,1-.05-.21c.1-.02.2-.04.29-.06l-.03.05c.09.05.12.11.09.16s-.06.08-.09.08Z" fill="#8a6f59"/>
            <path id="Path_4982" data-name="Path 4982" d="M35.99,28.81a2.437,2.437,0,0,1-.27-.01.162.162,0,0,1-.05-.17c.01-.06.03-.09.04-.09a.225.225,0,0,1,.26-.01C35.97,28.62,35.98,28.71,35.99,28.81Z" fill="#d1b560"/>
            <path id="Path_4983" data-name="Path 4983" d="M35.97,28.53a1.724,1.724,0,0,0-.21.07l-.12-.09v-.15a.826.826,0,0,1,.13-.07.68.68,0,0,1,.2.02.448.448,0,0,1,0,.23Z" fill="#99896b"/>
            <path id="Path_4984" data-name="Path 4984" d="M34.71,31.16a.513.513,0,0,1,.24.07v.2h-.24c-.07-.07-.09-.13-.06-.19s.05-.08.07-.08Z" fill="#b19b6c"/>
            <path id="Path_4985" data-name="Path 4985" d="M35.45,29.35v-.24a2.437,2.437,0,0,0,.27-.01c0,.17,0,.33.01.5-.07.09-.15.09-.23,0-.02-.09-.03-.17-.05-.26Z" fill="#bd915b"/>
            <path id="Path_4986" data-name="Path 4986" d="M35.76,28.6a1.416,1.416,0,0,0-.04.2l-.12.01h-.12a.537.537,0,0,0-.05-.21l.07-.07c.07-.09.13-.09.2,0l.05.09Z" fill="#ad9457"/>
            <path id="Path_4987" data-name="Path 4987" d="M35.5,29.61h.23v.26a.645.645,0,0,0-.2.03c0-.09-.02-.18-.02-.28Z" fill="#cda358"/>
            <path id="Path_4988" data-name="Path 4988" d="M34.71,31.16a.571.571,0,0,0,0,.26.49.49,0,0,0-.27.5l-.01.08c-.06.02-.12.04-.17.06a.488.488,0,0,1-.26-.25,1.324,1.324,0,0,1,0-.92c.09-.17.21-.31.43-.23h.01a.344.344,0,0,1,.13.25.432.432,0,0,0,.13.26l.04-.02Z" fill="#9a98fd"/>
            <path id="Path_4989" data-name="Path 4989" d="M34.43,33.25l1.3.03v1.29c-.35.25-.74.08-1.11.12a.5.5,0,0,1-.33-.18,1.293,1.293,0,0,1,.01-1.12l.12-.15Z" fill="#615ee8"/>
            <path id="Path_4990" data-name="Path 4990" d="M34.43,34.58h1.31v.27h-1.3a.2.2,0,0,1,0-.27Z" fill="#5855e0"/>
            <path id="Path_4991" data-name="Path 4991" d="M37.29,37.75l-.26-.06a2.294,2.294,0,0,0-.25-1.52c.09,0,.18-.02.27-.02a2.1,2.1,0,0,1,.25.02c0,.43,0,.86.01,1.29A2.825,2.825,0,0,1,37.29,37.75Z" fill="#4a47d2"/>
            <path id="Path_4992" data-name="Path 4992" d="M34.16,31.96a1.153,1.153,0,0,1,.26.03v1.28c-.09.11-.18.11-.26,0v-.26a.742.742,0,0,1,0-1.05Z" fill="#6a67ef"/>
            <path id="Path_4993" data-name="Path 4993" d="M33.37,22a1,1,0,0,0,.04.24l-.06.04a.125.125,0,0,1-.22-.03l-.04.02a2.681,2.681,0,0,1,.07-.27h.21Z" fill="#7b5740"/>
            <path id="Path_4994" data-name="Path 4994" d="M28.94,26.16l1.29.03a1.336,1.336,0,0,0,.07.18.546.546,0,0,1-.27.27,1.091,1.091,0,0,1-1.11-.18l.01-.02a2.62,2.62,0,0,1,.01-.28Z" fill="#9c9afc"/>
            <path id="Path_4995" data-name="Path 4995" d="M27.62,29.03c.34.14.79-.13,1.04.31l-.27.03c-.43-.02-.85-.04-1.28-.05a2.715,2.715,0,0,1,.01-.28c.17,0,.33,0,.5-.01Z" fill="#abaaf3"/>
            <path id="Path_4996" data-name="Path 4996" d="M22.91,28.01a.964.964,0,0,0,.24,0,2.381,2.381,0,0,0,.26.05,1.77,1.77,0,0,1-.01.23h-.49l-.14-.11.11-.14.03-.03Z" fill="#e7dfcb"/>
            <path id="Path_4997" data-name="Path 4997" d="M28.66,29.33a.986.986,0,0,1,.24.03c.04.04.09.07.13.11a1.526,1.526,0,0,1,.15.82,1.276,1.276,0,0,1-.06.33.755.755,0,0,1-.21.26.82.82,0,0,1-.22.02c0-.52-.02-1.04-.03-1.56Z" fill="#9f9eef"/>
            <path id="Path_4998" data-name="Path 4998" d="M28.91,30.87a2.105,2.105,0,0,1,.02-.25,1.122,1.122,0,0,1,1.03-.2.872.872,0,0,1,.31.18.262.262,0,0,1-.08.31,1.1,1.1,0,0,0-.25.02Z" fill="#adacf3"/>
            <path id="Path_4999" data-name="Path 4999" d="M22.65,28.57v-.28c.08-.09.16-.09.23,0h.04c-.09.09-.17.19-.26.28Z" fill="#fdd980"/>
            <path id="Path_5000" data-name="Path 5000" d="M34.43,34.58v.27l-.23.26c-.26-.41-.71-.19-1.05-.31a.885.885,0,0,1,0-.23h.23a.791.791,0,0,1,.72-.2,1.155,1.155,0,0,1,.33.21h0Z" fill="#5855d1"/>
            <path id="Path_5001" data-name="Path 5001" d="M31.8,31.97c0-.44-.02-.87-.02-1.31.05-.05.11-.1.16-.15a.832.832,0,0,1,1.02.21.986.986,0,0,1-.12,1.25Z" fill="#615ee8"/>
            <path id="Path_5002" data-name="Path 5002" d="M32.85,31.97v-1.3c.05-.03.1-.06.14-.09a.37.37,0,0,1,.27.18,1.385,1.385,0,0,1,.1.33,2.26,2.26,0,0,1-.04.86.705.705,0,0,1-.21.27h-.24a1.942,1.942,0,0,1-.02-.24Z" fill="#6b68ef"/>
            <path id="Path_5003" data-name="Path 5003" d="M33.11,32.22v-.26a.782.782,0,0,1,1.05,0h0v1.05C33.48,33.19,33.43,32.52,33.11,32.22Z" fill="#625fe9"/>
            <path id="Path_5004" data-name="Path 5004" d="M34.16,34.58h-.78c-.03-.56-.05-1.12.78-1.04a1.015,1.015,0,0,1,0,1.05Z" fill="#3835c1"/>
            <path id="Path_5005" data-name="Path 5005" d="M34.16,34.58V33.27h.26v1.31h-.26Z" fill="#4a47d2"/>
            <path id="Path_5006" data-name="Path 5006" d="M31.54,30.91c.09.84-.48.8-1.04.78C30.22,30.59,30.7,30.51,31.54,30.91Z" fill="#3835c1"/>
            <path id="Path_5007" data-name="Path 5007" d="M31.54,30.91c-.56-.02-1.13-.06-1.04.78h-.22c-.03-.26-.06-.52-.1-.78a.539.539,0,0,0,.03-.25.887.887,0,0,1,1.33,0v.25Z" fill="#413ec8"/>
            <path id="Path_5008" data-name="Path 5008" d="M31.54,30.66H30.21c-.03-.05-.06-.11-.09-.16a.5.5,0,0,1,.22-.29,2.039,2.039,0,0,1,1.12-.08,1.061,1.061,0,0,1,.34.16.271.271,0,0,1,0,.34s-.03.01-.03.02h-.24Z" fill="#5a57e1"/>
            <path id="Path_5009" data-name="Path 5009" d="M22.88,28.29h-.23a2.437,2.437,0,0,1,.01-.27c.07,0,.15.02.22.02v.26Z" fill="#eecc92"/>
            <path id="Path_5010" data-name="Path 5010" d="M21.32,27.24a.542.542,0,0,1,.25.06c0,.15-.01.3-.02.46h-.23a.387.387,0,0,1-.13-.27.251.251,0,0,1,.15-.24v-.02Z" fill="#100f36"/>
            <path id="Path_5011" data-name="Path 5011" d="M21.3,27.49a2.62,2.62,0,0,0,.01.28,2.437,2.437,0,0,1-.27-.01,1.045,1.045,0,0,0,0-.25c.04-.04.08-.07.12-.11a1.132,1.132,0,0,1,.13.1Z" fill="#4b403d"/>
            <path id="Path_5012" data-name="Path 5012" d="M20.79,27.24a.908.908,0,0,0,.23-.03l.05.04c.05.06.07.11.04.17s-.05.07-.07.07h-.26v-.26Z" fill="#f0ca51"/>
            <path id="Path_5013" data-name="Path 5013" d="M27.61,28.03c.36.09,1-.24.95.45-.04.51-.6.28-.94.33v-.78Z" fill="#3835c1"/>
            <path id="Path_5014" data-name="Path 5014" d="M21.05,27.5a.974.974,0,0,1,.02-.24.571.571,0,0,1,.26,0,.926.926,0,0,1-.04.23l-.12.02h-.12Z" fill="#8b7747"/>
            <path id="Path_5015" data-name="Path 5015" d="M30.22,28.03H28.93v-.26h1.31l.07.08v.11l-.08.07Z" fill="#6865ed"/>
            <path id="Path_5016" data-name="Path 5016" d="M28.92,29.08c.43,0,.86,0,1.3.01a.254.254,0,0,1-.08.37,1.039,1.039,0,0,1-1.23-.12v.02a2.635,2.635,0,0,1,.02-.28Z" fill="#423fca"/>
            <path id="Path_5017" data-name="Path 5017" d="M32.07,27.5a1.941,1.941,0,0,0,1.3,1.31.214.214,0,0,1,.08.21q-.03.12-.06.12a1.137,1.137,0,0,1-.35.17,1.728,1.728,0,0,1-.6.01.828.828,0,0,1-.52-.29,1.486,1.486,0,0,1-.01-1.39,1.92,1.92,0,0,1,.15-.14Z" fill="#f4f4ff"/>
            <path id="Path_5018" data-name="Path 5018" d="M30.23,26.2c-1.53-.42-.96-1.65-1.03-2.64h.24a3.315,3.315,0,0,1,0,.63c-.15.89.1,1.53,1.05,1.75a.212.212,0,0,1,.08.2c-.01.07-.02.11-.04.11a.244.244,0,0,1-.31-.04h0Z" fill="#f6f6ff"/>
            <path id="Path_5019" data-name="Path 5019" d="M33.37,29.09v-.27l.54.27c0,.34,0,.67.01,1.01a.461.461,0,0,1-.62.04.806.806,0,0,1,.07-1.05Z" fill="#f2f2ff"/>
            <path id="Path_5020" data-name="Path 5020" d="M34.41,27.23c-.08.61.27,1.28-.26,1.83C34.28,28.46,33.94,27.79,34.41,27.23Z" fill="#fef7d1"/>
            <path id="Path_5021" data-name="Path 5021" d="M30.76,27.24c.44.07.94-.17,1.31.26l-.02.01a1.155,1.155,0,0,1-.33.21,1.509,1.509,0,0,1-1.16-.1.318.318,0,0,1-.13-.35.225.225,0,0,1,.34-.05Z" fill="#eaeaff"/>
            <path id="Path_5022" data-name="Path 5022" d="M30.76,27.24h-.24a.841.841,0,0,1-.02-1.03v-.27c.44.36.2.87.27,1.31Z" fill="#f2f2ff"/>
            <path id="Path_5023" data-name="Path 5023" d="M33.38,30.12c.18,0,.36-.01.55-.02a.593.593,0,0,1,.52.28,2.851,2.851,0,0,1-.03.29c-.08.09-.17.17-.25.26a.74.74,0,0,1-1.04-.03,1.785,1.785,0,0,0-.02-.23.253.253,0,0,1-.09-.27.478.478,0,0,1,.36-.27Z" fill="#bab9fd"/>
            <path id="Path_5024" data-name="Path 5024" d="M33.13,22.25a1.66,1.66,0,0,1,.22.03.974.974,0,0,1,.02.24h-.26v-.27Z" fill="#ac8049"/>
            <path id="Path_5025" data-name="Path 5025" d="M35.72,28.05a1.553,1.553,0,0,0,.05.23l-.07.02h-.18l-.09-.01a2.1,2.1,0,0,0,.08-.23.375.375,0,0,1,.21,0Z" fill="#876345"/>
            <path id="Path_5026" data-name="Path 5026" d="M35.52,28.3h.18a.376.376,0,0,1,.01.21l-.1.02-.1-.01A.33.33,0,0,1,35.52,28.3Z" fill="#4a3f50"/>
            <path id="Path_5027" data-name="Path 5027" d="M34.43,30.91v-.25a1.2,1.2,0,0,0,.2-.03,2.469,2.469,0,0,0,.1.29l-.07-.02a.123.123,0,0,1-.22,0Z" fill="#b9aed6"/>
            <path id="Path_5028" data-name="Path 5028" d="M34.43,30.91h.22c0,.09.02.18.02.27-.08-.09-.16-.18-.25-.27Z" fill="#a09ed8"/>
            <path id="Path_5029" data-name="Path 5029" d="M33.12,30.89c.35,0,.69.02,1.04.03v1.04H33.11C33.11,31.6,33.11,31.25,33.12,30.89Z" fill="#7673f8"/>
            <path id="Path_5030" data-name="Path 5030" d="M30.49,26.2c0,.34.01.69.02,1.03v.25a.194.194,0,0,1-.3.03c-.48-.34-.12-.69-.01-1.04,0-.09.02-.18.02-.28h.26Z" fill="#cac9fe"/>
            <path id="Path_5031" data-name="Path 5031" d="M28.91,29.34h1.3a.714.714,0,0,1,.02,1.04h0a1.359,1.359,0,0,1-1.27-.01C28.94,30.03,28.93,29.68,28.91,29.34Z" fill="#3835c1"/>
            <path id="Path_5032" data-name="Path 5032" d="M28.95,30.37h1.27v.29c-.43-.02-.86-.03-1.29-.05a.715.715,0,0,1,.03-.25Z" fill="#5653ce"/>
            <path id="Path_5033" data-name="Path 5033" d="M32.08,29.03l.5.09c.75.38.54.94.27,1.51l-.01.03c-.35,0-.69-.01-1.04-.02,0-.08-.01-.17-.01-.25a1.024,1.024,0,0,1-.11-1.26.342.342,0,0,1,.4-.11Z" fill="#7673f8"/>
            <path id="Path_5034" data-name="Path 5034" d="M32.86,30.63a2.47,2.47,0,0,0-.27-1.51c.17,0,.33-.01.5-.02a1.4,1.4,0,0,1,.06,1.26c-.01.1-.03.2-.04.29a2.418,2.418,0,0,1-.25-.03Z" fill="#9795fc"/>
            <path id="Path_5035" data-name="Path 5035" d="M31.54,30.39v-1.3a.19.19,0,0,1-.07-.2c.02-.07.04-.1.06-.1.2-.02.36.01.28.28,0,.45,0,.89-.01,1.34h-.26Z" fill="#6b68ef"/>
            <path id="Path_5036" data-name="Path 5036" d="M30.21,27.51c.1,0,.2-.02.3-.03.43.01.85.03,1.28.04.23.23.13.41-.07.58a1.018,1.018,0,0,1-.35.03c-.38-.09-.83-.02-1.12-.38l-.02.01a1.055,1.055,0,0,0-.02-.25Z" fill="#bbbbfe"/>
            <path id="Path_5037" data-name="Path 5037" d="M31.5,28.05c-.42,0-.84-.01-1.26-.02v-.28c.42.11.93-.2,1.26.3Z" fill="#8b89fb"/>
            <path id="Path_5038" data-name="Path 5038" d="M31.54,28.8c0-.26,0-.52.01-.78a.47.47,0,0,0,.23-.49,1.133,1.133,0,0,1,.26-.01c.01.51.02,1.01.04,1.52-.09,0-.18.02-.27.02C31.72,28.97,31.63,28.89,31.54,28.8Z" fill="#cfcfff"/>
            <path id="Path_5039" data-name="Path 5039" d="M33.14,30.36l-.06-1.26a2.825,2.825,0,0,0,.29-.02v1.03C33.29,30.19,33.21,30.28,33.14,30.36Z" fill="#ccf"/>
          </g>
          <g id="Group_5311" data-name="Group 5311">
            <path id="Path_5040" data-name="Path 5040" d="M51.93,46.95H50.89V45.64H49.57V44.07H48V42.75H46.69V41.18H45.11V39.87H43.8V38.3H42.23V36.98H40.92V35.41H39.34V34.1H38.03V32.52H36.46V31.21H35.15V29.64H33.84V28.33H32.26V27.02H30.95V25.44H29.38V21.51H27.8V17.05H26.23V12.59H13.64V25.44H18.1v1.31h4.2v1.84h4.19V29.9h1.58v1.31h1.31v1.58h1.31V34.1h1.57v1.31h1.31v1.57h1.58V38.3h1.31v1.57h1.57v1.31h1.31v1.57h1.58v1.32h1.31v1.57H43.8v1.31h1.31v1.57h1.58v1.32H48v1.57h2.62v-.26H52.2V49.57h.26V46.95Z" fill="#c6c6ff"/>
            <g id="Group_5310" data-name="Group 5310">
              <path id="Path_5041" data-name="Path 5041" d="M27.28,22.03V17.57H25.7V13.11H14.16V24.92h4.46v1.31h4.2v1.84h6.03V22.03Z" fill="#7673f9"/>
              <rect id="Rectangle_1598" data-name="Rectangle 1598" width="4.46" height="4.46" transform="translate(23.09 17.57) rotate(90)" fill="#9695f8"/>
              <rect id="Rectangle_1599" data-name="Rectangle 1599" width="1.57" height="1.57" transform="translate(21.51 19.14) rotate(90)" fill="#c6c6ff"/>
              <rect id="Rectangle_1600" data-name="Rectangle 1600" width="1.57" height="1.57" transform="translate(24.66 22.03) rotate(90)" fill="#615ee8"/>
              <path id="Path_5042" data-name="Path 5042" d="M24.39,26.49V23.61H22.82v1.05H20.2V23.34H16.26V21.77H14.43v3.15h4.19v1.31h4.2v1.84h4.46V26.49Z" fill="#3735c1"/>
              <g id="Group_5307" data-name="Group 5307">
                <rect id="Rectangle_1601" data-name="Rectangle 1601" width="1.57" height="1.57" transform="translate(30.42 25.96) rotate(90)" fill="#7774f9"/>
                <rect id="Rectangle_1602" data-name="Rectangle 1602" width="1.57" height="1.57" transform="translate(31.74 27.54) rotate(90)" fill="#7774f9"/>
                <rect id="Rectangle_1603" data-name="Rectangle 1603" width="1.57" height="1.57" transform="translate(33.31 28.85) rotate(90)" fill="#7774f9"/>
                <rect id="Rectangle_1604" data-name="Rectangle 1604" width="1.57" height="1.57" transform="translate(34.63 30.16) rotate(90)" fill="#7774f9"/>
                <rect id="Rectangle_1605" data-name="Rectangle 1605" width="1.57" height="1.57" transform="translate(35.93 31.74) rotate(90)" fill="#7774f9"/>
                <rect id="Rectangle_1606" data-name="Rectangle 1606" width="1.57" height="1.57" transform="translate(37.51 33.04) rotate(90)" fill="#7774f9"/>
                <rect id="Rectangle_1607" data-name="Rectangle 1607" width="1.57" height="1.57" transform="translate(38.82 34.63) rotate(90)" fill="#7774f9"/>
                <rect id="Rectangle_1608" data-name="Rectangle 1608" width="1.57" height="1.57" transform="translate(40.4 35.93) rotate(90)" fill="#7774f9"/>
                <rect id="Rectangle_1609" data-name="Rectangle 1609" width="1.57" height="1.57" transform="translate(41.7 37.51) rotate(90)" fill="#7774f9"/>
                <rect id="Rectangle_1610" data-name="Rectangle 1610" width="1.57" height="1.57" transform="translate(43.28 38.81) rotate(90)" fill="#7774f9"/>
                <rect id="Rectangle_1611" data-name="Rectangle 1611" width="1.57" height="1.57" transform="translate(44.59 40.4) rotate(90)" fill="#7774f9"/>
                <rect id="Rectangle_1612" data-name="Rectangle 1612" width="1.57" height="1.57" transform="translate(46.17 41.7) rotate(90)" fill="#7774f9"/>
                <rect id="Rectangle_1613" data-name="Rectangle 1613" width="1.57" height="1.57" transform="translate(47.47 43.28) rotate(90)" fill="#7774f9"/>
                <rect id="Rectangle_1614" data-name="Rectangle 1614" width="1.57" height="1.57" transform="translate(49.05 44.59) rotate(90)" fill="#7774f9"/>
                <rect id="Rectangle_1615" data-name="Rectangle 1615" width="1.57" height="1.57" transform="translate(50.36 46.17) rotate(90)" fill="#7774f9"/>
                <rect id="Rectangle_1616" data-name="Rectangle 1616" width="1.57" height="1.57" transform="translate(51.93 47.47) rotate(90)" fill="#7774f9"/>
              </g>
              <g id="Group_5308" data-name="Group 5308">
                <rect id="Rectangle_1617" data-name="Rectangle 1617" width="1.57" height="1.57" transform="translate(28.59 27.81) rotate(90)" fill="#3735c1"/>
                <rect id="Rectangle_1618" data-name="Rectangle 1618" width="1.57" height="1.57" transform="translate(30.17 29.11) rotate(90)" fill="#3735c1"/>
                <rect id="Rectangle_1619" data-name="Rectangle 1619" width="1.57" height="1.57" transform="translate(31.47 30.69) rotate(90)" fill="#3735c1"/>
                <rect id="Rectangle_1620" data-name="Rectangle 1620" width="1.57" height="1.57" transform="translate(32.79 32) rotate(90)" fill="#3735c1"/>
                <rect id="Rectangle_1621" data-name="Rectangle 1621" width="1.57" height="1.57" transform="translate(34.36 33.31) rotate(90)" fill="#3735c1"/>
                <rect id="Rectangle_1622" data-name="Rectangle 1622" width="1.57" height="1.57" transform="translate(35.67 34.89) rotate(90)" fill="#3735c1"/>
                <rect id="Rectangle_1623" data-name="Rectangle 1623" width="1.57" height="1.57" transform="translate(37.24 36.19) rotate(90)" fill="#3735c1"/>
                <rect id="Rectangle_1624" data-name="Rectangle 1624" width="1.57" height="1.57" transform="translate(38.56 37.77) rotate(90)" fill="#3735c1"/>
                <rect id="Rectangle_1625" data-name="Rectangle 1625" width="1.57" height="1.57" transform="translate(40.13 39.08) rotate(90)" fill="#3735c1"/>
                <rect id="Rectangle_1626" data-name="Rectangle 1626" width="1.57" height="1.57" transform="translate(41.44 40.66) rotate(90)" fill="#3735c1"/>
                <rect id="Rectangle_1627" data-name="Rectangle 1627" width="1.57" height="1.57" transform="translate(43.01 41.96) rotate(90)" fill="#3735c1"/>
                <rect id="Rectangle_1628" data-name="Rectangle 1628" width="1.57" height="1.57" transform="translate(44.33 43.54) rotate(90)" fill="#3735c1"/>
                <rect id="Rectangle_1629" data-name="Rectangle 1629" width="1.57" height="1.57" transform="translate(45.9 44.85) rotate(90)" fill="#3735c1"/>
                <rect id="Rectangle_1630" data-name="Rectangle 1630" width="1.57" height="1.57" transform="translate(47.21 46.43) rotate(90)" fill="#3735c1"/>
                <rect id="Rectangle_1631" data-name="Rectangle 1631" width="1.57" height="1.57" transform="translate(48.78 47.73) rotate(90)" fill="#3735c1"/>
                <rect id="Rectangle_1632" data-name="Rectangle 1632" width="1.57" height="1.57" transform="translate(50.1 49.31) rotate(90)" fill="#3735c1"/>
              </g>
              <g id="Group_5309" data-name="Group 5309">
                <rect id="Rectangle_1633" data-name="Rectangle 1633" width="1.57" height="1.57" transform="translate(28.85 26.23) rotate(90)" fill="#615ee8"/>
                <rect id="Rectangle_1634" data-name="Rectangle 1634" width="1.57" height="1.57" transform="translate(30.16 27.54) rotate(90)" fill="#615ee8"/>
                <rect id="Rectangle_1635" data-name="Rectangle 1635" width="1.57" height="1.57" transform="translate(31.74 29.11) rotate(90)" fill="#615ee8"/>
                <rect id="Rectangle_1636" data-name="Rectangle 1636" width="1.57" height="1.57" transform="translate(33.05 30.43) rotate(90)" fill="#615ee8"/>
                <rect id="Rectangle_1637" data-name="Rectangle 1637" width="1.57" height="1.57" transform="translate(34.36 31.74) rotate(90)" fill="#615ee8"/>
                <rect id="Rectangle_1638" data-name="Rectangle 1638" width="1.57" height="1.57" transform="translate(35.94 33.31) rotate(90)" fill="#615ee8"/>
                <rect id="Rectangle_1639" data-name="Rectangle 1639" width="1.57" height="1.57" transform="translate(37.25 34.62) rotate(90)" fill="#615ee8"/>
                <rect id="Rectangle_1640" data-name="Rectangle 1640" width="1.57" height="1.57" transform="translate(38.82 36.2) rotate(90)" fill="#615ee8"/>
                <rect id="Rectangle_1641" data-name="Rectangle 1641" width="1.57" height="1.57" transform="translate(40.13 37.51) rotate(90)" fill="#615ee8"/>
                <rect id="Rectangle_1642" data-name="Rectangle 1642" width="1.57" height="1.57" transform="translate(41.71 39.08) rotate(90)" fill="#615ee8"/>
                <rect id="Rectangle_1643" data-name="Rectangle 1643" width="1.57" height="1.57" transform="translate(43.02 40.39) rotate(90)" fill="#615ee8"/>
                <rect id="Rectangle_1644" data-name="Rectangle 1644" width="1.57" height="1.57" transform="translate(44.59 41.97) rotate(90)" fill="#615ee8"/>
                <rect id="Rectangle_1645" data-name="Rectangle 1645" width="1.57" height="1.57" transform="translate(45.9 43.28) rotate(90)" fill="#615ee8"/>
                <rect id="Rectangle_1646" data-name="Rectangle 1646" width="1.57" height="1.57" transform="translate(47.48 44.85) rotate(90)" fill="#615ee8"/>
                <rect id="Rectangle_1647" data-name="Rectangle 1647" width="1.57" height="1.57" transform="translate(48.79 46.16) rotate(90)" fill="#615ee8"/>
                <rect id="Rectangle_1648" data-name="Rectangle 1648" width="1.57" height="1.57" transform="translate(50.36 47.74) rotate(90)" fill="#615ee8"/>
                <rect id="Rectangle_1649" data-name="Rectangle 1649" width="1.57" height="1.57" transform="translate(51.67 49.05) rotate(90)" fill="#615ee8"/>
              </g>
              <path id="Path_5043" data-name="Path 5043" d="M24.66,20.46H21.51v3.15h1.57V22.03h1.58Z" fill="#c6c6ff"/>
              <rect id="Rectangle_1650" data-name="Rectangle 1650" width="3.15" height="3.15" transform="translate(27.55 23.34) rotate(90)" fill="#615ee8"/>
              <path id="Path_5044" data-name="Path 5044" d="M24.66,14.69H15.74v8.92h1.57V17.84h1.58V16.26h5.77Z" fill="#9695f8"/>
            </g>
          </g>
        </g>
      </g>
    </g>
  </g>
</svg>
