<svg width="64" height="64" viewBox="0 0 64 64" fill="none" xmlns="http://www.w3.org/2000/svg">
<g clip-path="url(#clip0_40_32602)">
<mask id="mask0_40_32602" style="mask-type:luminance" maskUnits="userSpaceOnUse" x="0" y="0" width="64" height="64">
<path d="M64 0H0V64H64V0Z" fill="white"/>
</mask>
<g mask="url(#mask0_40_32602)">
<path d="M0 31.997C0 25.668 1.87677 19.4811 5.39297 14.2187C8.90918 8.95635 13.9069 4.85482 19.7541 2.43282C25.6014 0.0108132 32.0355 -0.622893 38.2429 0.611834C44.4503 1.84656 50.1521 4.89427 54.6274 9.36955C59.1027 13.8448 62.1504 19.5467 63.3851 25.7541C64.6199 31.9615 63.9862 38.3956 61.5641 44.2428C59.1421 50.0901 55.0406 55.0878 49.7782 58.604C44.5159 62.1202 38.329 63.997 32 63.997C23.5131 63.997 15.3738 60.6255 9.37259 54.6244C3.37143 48.6232 0 40.4839 0 31.997Z" fill="#B59C5B"/>
<path d="M3.00903 31.9979C3.00923 26.2641 4.70969 20.6591 7.89539 15.8917C11.0811 11.1243 15.6089 7.40858 20.9064 5.21447C26.2038 3.02036 32.0329 2.44639 37.6565 3.56512C43.2802 4.68386 48.4458 7.44506 52.5001 11.4996C56.5545 15.5541 59.3155 20.7198 60.4341 26.3434C61.5526 31.9671 60.9784 37.7962 58.7841 43.0936C56.5899 48.3909 52.874 52.9186 48.1065 56.1042C43.339 59.2897 37.7339 60.9899 32 60.9899C28.1928 60.9899 24.4228 60.24 20.9054 58.783C17.388 57.326 14.192 55.1905 11.5 52.4983C8.80789 49.8062 6.67245 46.6101 5.21558 43.0926C3.7587 39.5752 3.0089 35.8052 3.00903 31.9979Z" fill="white"/>
<path d="M31.998 61.654C26.1333 61.6532 20.4005 59.9134 15.5245 56.6546C10.6485 53.3957 6.84824 48.7643 4.60436 43.3457C2.36047 37.9272 1.77367 31.965 2.91817 26.213C4.06267 20.461 6.88705 15.1776 11.0342 11.0307C15.1813 6.88384 20.465 4.05981 26.2171 2.91571C31.9691 1.7716 37.9313 2.35879 43.3497 4.60304C48.768 6.8473 53.3992 10.6478 56.6577 15.524C59.9162 20.4003 61.6556 26.1332 61.656 31.9979C61.6563 35.8927 60.8893 39.7493 59.3989 43.3476C57.9086 46.9459 55.7239 50.2153 52.9699 52.9692C50.2158 55.7231 46.9462 57.9075 43.3478 59.3976C39.7494 60.8878 35.8928 61.6545 31.998 61.654ZM31.998 3.67396C26.3958 3.67436 20.9194 5.33598 16.2615 8.44872C11.6036 11.5615 7.97326 15.9855 5.82964 21.1614C3.68602 26.3374 3.12536 32.0327 4.21855 37.5273C5.31175 43.0219 8.0097 48.0689 11.9712 52.0302C15.9328 55.9914 20.98 58.689 26.4746 59.7818C31.9693 60.8746 37.6646 60.3136 42.8404 58.1696C48.0162 56.0256 52.44 52.395 55.5524 47.7368C58.6648 43.0787 60.326 37.6022 60.326 32C60.326 28.28 59.5933 24.5964 58.1697 21.1596C56.746 17.7228 54.6594 14.6001 52.0288 11.9697C49.3983 9.33941 46.2754 7.25297 42.8386 5.82957C39.4017 4.40617 35.718 3.6737 31.998 3.67396Z" fill="#241F1F"/>
<path d="M11.6281 31.9979C11.6282 27.969 12.8231 24.0305 15.0616 20.6807C17.3002 17.3308 20.4818 14.72 24.2041 13.1783C27.9264 11.6366 32.0223 11.2334 35.9738 12.0195C39.9254 12.8056 43.555 14.7458 46.4039 17.5948C49.2527 20.4438 51.1928 24.0736 51.9787 28.0251C52.7646 31.9767 52.3612 36.0726 50.8193 39.7948C49.2774 43.5171 46.6664 46.6985 43.3165 48.9369C39.9665 51.1752 36.028 52.3699 31.999 52.3699C29.3237 52.3701 26.6747 51.8432 24.203 50.8195C21.7314 49.7957 19.4856 48.2951 17.5939 46.4034C15.7023 44.5116 14.2018 42.2657 13.1781 39.794C12.1545 37.3223 11.6278 34.6732 11.6281 31.9979Z" fill="#241F1F"/>
<path d="M13.481 31.998C13.481 28.3353 14.5671 24.7548 16.6021 21.7093C18.637 18.6638 21.5293 16.2902 24.9133 14.8886C28.2973 13.487 32.0209 13.1203 35.6132 13.8349C39.2056 14.5496 42.5054 16.3134 45.0952 18.9035C47.6851 21.4935 49.4488 24.7933 50.1633 28.3857C50.8777 31.9781 50.5108 35.7017 49.109 39.0856C47.7072 42.4695 45.3334 45.3617 42.2878 47.3965C39.2423 49.4313 35.6617 50.5172 31.999 50.517C27.0876 50.5167 22.3775 48.5655 18.9047 45.0926C15.4319 41.6196 13.481 36.9094 13.481 31.998Z" fill="white"/>
<path d="M15.495 31.997C15.494 28.7321 16.4613 25.5404 18.2745 22.8254C20.0877 20.1104 22.6654 17.9941 25.6815 16.7443C28.6976 15.4944 32.0166 15.1672 35.2188 15.8038C38.4209 16.4405 41.3622 18.0126 43.6708 20.3212C45.9794 22.6297 47.5514 25.5711 48.1881 28.7732C48.8248 31.9753 48.4975 35.2943 47.2477 38.3104C45.9978 41.3265 43.8816 43.9042 41.1666 45.7174C38.4516 47.5307 35.2598 48.4979 31.995 48.497C27.6193 48.4956 23.4233 46.7568 20.3292 43.6627C17.2351 40.5687 15.4963 36.3726 15.495 31.997Z" fill="#241F1F"/>
<path d="M28.493 34.2349V31.9739C28.4848 31.7405 28.4297 31.5111 28.3308 31.2995C28.2319 31.088 28.0913 30.8985 27.9174 30.7426C27.7436 30.5866 27.54 30.4674 27.3189 30.392C27.0979 30.3167 26.8639 30.2867 26.631 30.3039C26.4003 30.2846 26.1682 30.3136 25.9494 30.3888C25.7306 30.4641 25.5298 30.5841 25.3598 30.7411C25.1899 30.8982 25.0545 31.0889 24.9622 31.3012C24.87 31.5134 24.8229 31.7425 24.824 31.9739V34.2289L28.493 34.2349ZM34.976 34.2279C35.2422 34.13 35.472 33.9529 35.6347 33.7205C35.7974 33.4882 35.885 33.2116 35.886 32.9279C35.8988 32.6488 35.8361 32.3715 35.7045 32.1251C35.5728 31.8787 35.3771 31.6724 35.138 31.5279L34.789 31.2979C34.7027 31.6738 34.6587 32.0582 34.658 32.4439C34.6576 33.0509 34.7657 33.653 34.977 34.2219M22.352 40.8059V36.7589H20.6V34.2179H22.352V31.5179C22.3632 30.9806 22.4853 30.4514 22.7107 29.9636C22.9361 29.4757 23.2599 29.0397 23.6618 28.6829C24.0637 28.3261 24.535 28.0562 25.0461 27.8901C25.5572 27.7241 26.0971 27.6654 26.632 27.7179C27.1694 27.6667 27.7116 27.7261 28.2253 27.8923C28.7389 28.0586 29.2131 28.3283 29.6186 28.6848C30.024 29.0412 30.3522 29.4769 30.5829 29.9651C30.8136 30.4532 30.9419 30.9833 30.96 31.5229V34.2309H32.645C32.5063 33.644 32.4362 33.043 32.436 32.4399C32.4346 31.6033 32.5697 30.7721 32.836 29.9789L27.147 26.1569C26.775 25.7491 26.5342 25.2389 26.4557 24.6926C26.3773 24.1462 26.4648 23.5889 26.707 23.0929C26.8963 22.5807 27.2255 22.1319 27.6572 21.7974C28.0888 21.463 28.6057 21.2563 29.149 21.2009H36.599V23.6099H29.464C29.464 23.6099 29.164 23.5249 28.921 23.9279C28.8381 24.0745 28.8153 24.2475 28.8575 24.4106C28.8996 24.5736 29.0034 24.7139 29.147 24.8019L33.93 27.8969C34.5017 27.1133 35.2484 26.4739 36.1107 26.0294C36.9729 25.585 37.927 25.3479 38.897 25.3369C39.926 25.339 40.9372 25.6052 41.834 26.1099L40.621 28.1819C40.0844 27.9177 39.4941 27.7808 38.896 27.7819C38.328 27.7861 37.7673 27.9099 37.2504 28.1453C36.7335 28.3807 36.272 28.7223 35.896 29.1479C36.6176 29.4945 37.2346 30.026 37.6843 30.6884C38.1339 31.3507 38.4002 32.1203 38.456 32.9189C38.456 35.0419 37.511 35.9929 36.674 36.4139C37.3279 36.8616 38.1015 37.102 38.894 37.1039C39.522 37.0966 40.1399 36.9447 40.6997 36.6599C41.2595 36.3751 41.7462 35.9652 42.1219 35.4619L44.008 36.7839C43.4501 37.6357 42.6883 38.3347 41.7917 38.8175C40.8952 39.3003 39.8923 39.5515 38.8741 39.5484C37.8558 39.5453 36.8544 39.288 35.9608 38.7999C35.0672 38.3117 34.3097 37.6081 33.757 36.7529H30.957V40.8059H28.493V36.7529H24.824V40.8059H22.352Z" fill="#B59C5B"/>
<path fill-rule="evenodd" clip-rule="evenodd" d="M21.3719 11.7569C21.5203 11.9604 21.6094 12.201 21.6292 12.4521C21.6489 12.7031 21.5987 12.9548 21.4839 13.1789C21.1589 13.7457 20.6893 14.2161 20.1229 14.5419C19.799 14.7572 19.4609 14.9503 19.111 15.1199C18.8696 15.237 18.6182 15.3324 18.3599 15.4049L17.8599 14.6359C18.1215 14.5948 18.3769 14.5209 18.62 14.4159C18.9381 14.2907 19.243 14.1339 19.53 13.9479C19.8198 13.7889 20.0684 13.5642 20.2559 13.2919C20.292 13.2094 20.3088 13.1198 20.305 13.0298C20.3013 12.9399 20.2771 12.8519 20.2343 12.7727C20.1915 12.6935 20.1312 12.6251 20.0581 12.5726C19.9849 12.5201 19.9007 12.485 19.8119 12.4699C19.4147 12.4718 19.0204 12.5373 18.6439 12.6639C18.236 12.7825 17.8074 12.8122 17.387 12.7509C17.2038 12.7114 17.031 12.6339 16.8796 12.5235C16.7282 12.4131 16.6016 12.2722 16.508 12.1099C16.3971 11.9289 16.3352 11.7222 16.3284 11.5101C16.3216 11.298 16.37 11.0877 16.469 10.8999C16.7415 10.3546 17.1695 9.90222 17.6989 9.59995C17.968 9.42013 18.2524 9.26451 18.5489 9.13493C18.7358 9.04841 18.9282 8.97458 19.125 8.91394L19.568 9.59393C19.338 9.68527 19.1119 9.77994 18.8899 9.87794C18.6557 9.98395 18.43 10.108 18.215 10.2489C17.9659 10.3874 17.755 10.5853 17.6009 10.8249C17.5583 10.8918 17.5347 10.969 17.5326 11.0483C17.5304 11.1276 17.5499 11.2059 17.589 11.2749C17.6289 11.3462 17.6856 11.4067 17.7543 11.451C17.823 11.4953 17.9015 11.522 17.983 11.5289C18.3827 11.4957 18.7765 11.4117 19.155 11.2789C19.6 11.1184 20.0799 11.0797 20.5449 11.1669C20.8887 11.2517 21.186 11.4669 21.374 11.7669" fill="#241F1F"/>
<path fill-rule="evenodd" clip-rule="evenodd" d="M26.09 7.90401C26.1649 8.08846 26.1918 8.28892 26.168 8.48658C26.1442 8.68423 26.0706 8.87261 25.954 9.03402C25.6294 9.4161 25.1968 9.69113 24.713 9.82302L23.894 10.105L24.594 12.149L23.233 12.614L21.499 7.58002L23.765 6.80101C24.232 6.58156 24.7668 6.55533 25.253 6.72802C25.4168 6.80361 25.5633 6.91189 25.6837 7.04619C25.8041 7.1805 25.8958 7.33799 25.953 7.50901L26.09 7.90401ZM24.721 8.45902L24.555 7.97701C24.5333 7.89338 24.4908 7.81658 24.4315 7.75367C24.3723 7.69076 24.2982 7.64376 24.216 7.61701C23.9867 7.57779 23.7509 7.60557 23.537 7.69701L23.112 7.84601L23.653 9.41402L24.153 9.24401C24.3433 9.18648 24.5131 9.0754 24.642 8.92402C24.6963 8.86105 24.7325 8.78461 24.7469 8.70278C24.7613 8.62094 24.7534 8.53674 24.724 8.45902" fill="#241F1F"/>
<path fill-rule="evenodd" clip-rule="evenodd" d="M32.291 10.702L28.247 11.056L27.782 5.74899L31.653 5.41199L31.722 6.20299L29.285 6.41699L29.41 7.84099L31.303 7.67299L31.375 8.47299L29.475 8.63899L29.606 10.139L32.217 9.91098L32.291 10.702Z" fill="#241F1F"/>
<path fill-rule="evenodd" clip-rule="evenodd" d="M37.271 11.3399L32.907 10.7259L33.007 10.0099L36.316 6.6279L33.659 6.25591L33.77 5.4679L38.01 6.0679L37.91 6.7679L34.588 10.1679L37.378 10.5609L37.271 11.3399Z" fill="#241F1F"/>
<path d="M40.1014 6.72396L38.365 11.76L39.7292 12.2304L41.4656 7.19433L40.1014 6.72396Z" fill="#241F1F"/>
<path fill-rule="evenodd" clip-rule="evenodd" d="M45.643 15.531L44.392 14.753L44.673 13.419L42.883 12.303L41.797 13.13L40.802 12.509L45.449 9.13098L46.589 9.84299L45.643 15.531ZM44.821 12.603L45.19 10.525L43.527 11.796L44.821 12.603Z" fill="#241F1F"/>
<path fill-rule="evenodd" clip-rule="evenodd" d="M23.3959 57.056L22.1749 56.586L23.6299 52.803L22.7939 52.483L23.0239 51.883C23.3323 51.9958 23.6655 52.0227 23.9879 51.961C24.1673 51.9251 24.3405 51.8631 24.5019 51.777L25.3019 52.085L23.3959 57.056Z" fill="#241F1F"/>
<path fill-rule="evenodd" clip-rule="evenodd" d="M31.436 55.768C31.3303 56.5307 30.9702 57.2354 30.414 57.768C30.1302 58.0073 29.7965 58.18 29.4372 58.2734C29.078 58.3669 28.7024 58.3787 28.338 58.308C28.1395 58.2888 27.9431 58.2523 27.751 58.199C27.585 58.154 27.432 58.112 27.292 58.071L27.403 57.161C27.591 57.222 27.769 57.274 27.939 57.32C28.1059 57.3659 28.2761 57.3993 28.448 57.42C28.6126 57.4582 28.7835 57.4605 28.949 57.4267C29.1146 57.3929 29.2709 57.3238 29.4074 57.2242C29.5438 57.1245 29.6572 56.9967 29.7398 56.8493C29.8224 56.7019 29.8723 56.5384 29.886 56.37C29.7354 56.5035 29.551 56.593 29.353 56.629C29.1177 56.6915 28.8731 56.7108 28.631 56.686C28.0797 56.6516 27.5599 56.4173 27.169 56.027C27.0063 55.833 26.8884 55.6056 26.8235 55.3608C26.7587 55.1161 26.7486 54.8601 26.794 54.611C26.8158 54.3394 26.8977 54.076 27.0338 53.8399C27.1699 53.6038 27.3568 53.4009 27.581 53.246C28.1107 52.9221 28.7416 52.8056 29.352 52.919C29.9824 52.9473 30.5803 53.2064 31.032 53.647C31.2152 53.8794 31.3505 54.1459 31.4298 54.4311C31.5091 54.7162 31.5309 55.0143 31.494 55.308C31.4898 55.3954 31.4811 55.4825 31.468 55.569C31.453 55.674 31.442 55.739 31.437 55.769M30.137 54.939C30.2006 54.6421 30.145 54.3321 29.982 54.076C29.898 53.978 29.7953 53.8978 29.6799 53.8399C29.5645 53.782 29.4388 53.7477 29.31 53.739C29.1849 53.7168 29.0567 53.7202 28.9329 53.7489C28.8092 53.7776 28.6925 53.831 28.59 53.906C28.4804 54.0088 28.3925 54.1326 28.3315 54.2701C28.2705 54.4075 28.2377 54.5557 28.235 54.706C28.1732 55.0011 28.2272 55.3087 28.386 55.565C28.4658 55.6653 28.5656 55.748 28.679 55.8077C28.7925 55.8675 28.9171 55.903 29.045 55.912C29.2924 55.9453 29.5431 55.8819 29.745 55.735C29.8618 55.636 29.9566 55.5137 30.0234 55.3759C30.0902 55.2382 30.1275 55.088 30.133 54.935" fill="#241F1F"/>
<path fill-rule="evenodd" clip-rule="evenodd" d="M37.211 55.5539C37.3475 56.2307 37.2133 56.934 36.837 57.5129C36.4256 57.9657 35.8652 58.2558 35.2579 58.3303C34.6506 58.4048 34.0368 58.2588 33.528 57.9189C33.0252 57.4467 32.7263 56.797 32.695 56.1079L32.644 55.6779C32.5186 55.0143 32.6406 54.3277 32.987 53.7479C33.3915 53.2652 33.9639 52.9538 34.5889 52.8764C35.2139 52.799 35.845 52.9615 36.355 53.3309C36.8335 53.8105 37.1199 54.4487 37.16 55.1249L37.211 55.5539ZM35.776 55.5859L35.759 55.4429C35.7269 54.9436 35.6071 54.4537 35.405 53.9959C35.3246 53.8841 35.2157 53.7959 35.0895 53.7405C34.9634 53.6851 34.8248 53.6646 34.688 53.681C34.5512 53.6975 34.4214 53.7503 34.312 53.834C34.2026 53.9177 34.1177 54.0292 34.066 54.1569C33.9884 54.6513 33.9934 55.1552 34.081 55.6479L34.098 55.7909C34.1272 56.2867 34.2465 56.7729 34.45 57.2259C34.5326 57.3336 34.6419 57.4178 34.7671 57.4702C34.8923 57.5225 35.0289 57.5413 35.1636 57.5245C35.2982 57.5077 35.4262 57.456 35.5346 57.3745C35.6431 57.293 35.7284 57.1846 35.782 57.0599C35.8684 56.5723 35.8667 56.073 35.777 55.5859" fill="#241F1F"/>
<path fill-rule="evenodd" clip-rule="evenodd" d="M43.146 54.025C43.255 54.2757 43.306 54.5478 43.2953 54.821C43.2845 55.0943 43.2123 55.3615 43.084 55.603C42.7661 56.1374 42.264 56.5375 41.672 56.728C41.1005 56.9952 40.4517 57.047 39.845 56.874C39.2994 56.6286 38.8725 56.178 38.657 55.62C38.6188 55.5414 38.5854 55.4606 38.557 55.378C38.522 55.278 38.498 55.214 38.487 55.184C38.2314 54.465 38.225 53.681 38.469 52.958C38.603 52.6121 38.8126 52.3005 39.0825 52.046C39.3524 51.7915 39.6758 51.6005 40.029 51.487C40.2152 51.4154 40.4059 51.3562 40.6 51.31L41.069 51.21L41.398 52.063C41.204 52.099 41.02 52.135 40.846 52.179C40.6785 52.2162 40.5137 52.265 40.353 52.325C40.1924 52.3754 40.0439 52.4586 39.9171 52.5692C39.7902 52.6799 39.6877 52.8157 39.616 52.968C39.491 53.2753 39.4772 53.6166 39.577 53.933C39.6461 53.741 39.7682 53.5725 39.929 53.447C40.1069 53.2831 40.3132 53.1533 40.538 53.064C41.0418 52.8313 41.6141 52.7939 42.144 52.959C42.3798 53.0508 42.5921 53.1943 42.7651 53.3789C42.9382 53.5636 43.0677 53.7847 43.144 54.026M41.831 54.626C41.7901 54.4825 41.7211 54.3487 41.6278 54.2322C41.5346 54.1158 41.419 54.0192 41.288 53.948C41.1707 53.8945 41.0434 53.8668 40.9145 53.8668C40.7856 53.8668 40.6582 53.8945 40.541 53.948C40.3042 54.0342 40.1109 54.2102 40.003 54.438C39.9461 54.5783 39.9192 54.7291 39.924 54.8804C39.9288 55.0318 39.9653 55.1805 40.031 55.317C40.1127 55.6118 40.3065 55.8631 40.571 56.017C40.8154 56.1081 41.0857 56.1009 41.325 55.9969C41.5684 55.9158 41.7702 55.7424 41.887 55.514C41.9376 55.3706 41.9588 55.2186 41.9493 55.0669C41.9399 54.9152 41.9 54.7669 41.832 54.631" fill="#241F1F"/>
</g>
</g>
<defs>
<clipPath id="clip0_40_32602">
<rect width="64" height="64" fill="white"/>
</clipPath>
</defs>
</svg>
