<svg xmlns="http://www.w3.org/2000/svg" xmlns:xlink="http://www.w3.org/1999/xlink" width="64" height="64" viewBox="0 0 64 64"><defs><clipPath id="a"><rect width="64" height="64" fill="none"/></clipPath></defs><g transform="translate(-295.984 -107.781)"><g transform="translate(295.984 107.781)" clip-path="url(#a)"><path d="M295.984,139.778a32,32,0,1,1,32,32,32,32,0,0,1-32-32" transform="translate(-295.984 -107.781)" fill="#b59c5b"/><path d="M307.292,148.094a28.991,28.991,0,1,1,28.991,28.992,28.991,28.991,0,0,1-28.991-28.992" transform="translate(-304.283 -116.096)" fill="#fff"/><path d="M334.453,175.918a29.654,29.654,0,1,1,29.658-29.656,29.654,29.654,0,0,1-29.658,29.656m0-57.98a28.326,28.326,0,1,0,28.328,28.326,28.326,28.326,0,0,0-28.328-28.326" transform="translate(-302.455 -114.264)" fill="#241f1f"/><path d="M339.683,171.919a20.371,20.371,0,1,1,20.371,20.372,20.37,20.37,0,0,1-20.371-20.372" transform="translate(-328.055 -139.921)" fill="#241f1f"/><path d="M346.649,177.037a18.519,18.519,0,1,1,18.518,18.519,18.519,18.519,0,0,1-18.518-18.519" transform="translate(-333.168 -145.039)" fill="#fff"/><path d="M354.219,182.6a16.505,16.505,0,1,1,16.5,16.5,16.505,16.505,0,0,1-16.5-16.5" transform="translate(-338.724 -150.603)" fill="#241f1f"/><path d="M381.3,200.64v-2.261a1.735,1.735,0,0,0-1.862-1.67,1.668,1.668,0,0,0-1.807,1.67v2.255Zm6.483-.007a1.39,1.39,0,0,0,.91-1.3,1.552,1.552,0,0,0-.748-1.4l-.349-.23a5.165,5.165,0,0,0-.131,1.146,5.1,5.1,0,0,0,.319,1.778m-12.625,6.584v-4.047h-1.752v-2.541l1.752,0v-2.7a3.9,3.9,0,0,1,4.28-3.8,3.955,3.955,0,0,1,4.328,3.805v2.708h1.685a7.8,7.8,0,0,1-.209-1.791,7.694,7.694,0,0,1,.4-2.461l-5.689-3.822a2.754,2.754,0,0,1-.44-3.064,2.919,2.919,0,0,1,2.442-1.892h7.45v2.409h-7.135s-.3-.085-.543.318a.65.65,0,0,0,.226.874l4.783,3.095a6.236,6.236,0,0,1,4.967-2.56,6.012,6.012,0,0,1,2.937.773l-1.213,2.072a3.888,3.888,0,0,0-1.725-.4,4.043,4.043,0,0,0-3,1.366,4.534,4.534,0,0,1,2.56,3.771c0,2.123-.945,3.074-1.782,3.495a3.947,3.947,0,0,0,2.22.69,4.088,4.088,0,0,0,3.228-1.642l1.886,1.322a6.115,6.115,0,0,1-10.251-.031h-2.8v4.053H381.3v-4.053h-3.669v4.053Z" transform="translate(-352.807 -166.405)" fill="#b59c5b"/><path d="M362.395,144.158a1.361,1.361,0,0,1,.112,1.422,3.691,3.691,0,0,1-1.361,1.363,8.633,8.633,0,0,1-1.012.578,4.529,4.529,0,0,1-.751.285l-.5-.769a3.154,3.154,0,0,0,.76-.22,5.127,5.127,0,0,0,.91-.468,2.119,2.119,0,0,0,.726-.656.593.593,0,0,0-.444-.822,3.717,3.717,0,0,0-1.168.194,2.969,2.969,0,0,1-1.257.087,1.342,1.342,0,0,1-.879-.641,1.224,1.224,0,0,1-.039-1.21,3.085,3.085,0,0,1,1.23-1.3,5.475,5.475,0,0,1,.85-.465,4.582,4.582,0,0,1,.576-.221l.443.68q-.345.137-.678.284a4.966,4.966,0,0,0-.675.371,1.728,1.728,0,0,0-.614.576.437.437,0,0,0-.012.45.5.5,0,0,0,.394.254,4.725,4.725,0,0,0,1.172-.25,2.654,2.654,0,0,1,1.39-.112,1.363,1.363,0,0,1,.829.6" transform="translate(-341.023 -132.401)" fill="#241f1f" fill-rule="evenodd"/><path d="M381.379,133.963a1.175,1.175,0,0,1-.136,1.13,2.487,2.487,0,0,1-1.241.789l-.819.282.7,2.044-1.361.465-1.734-5.034,2.266-.779a1.958,1.958,0,0,1,1.488-.073,1.323,1.323,0,0,1,.7.781Zm-1.369.555-.166-.482a.515.515,0,0,0-.339-.36,1.209,1.209,0,0,0-.679.08l-.425.149.541,1.568.5-.17a1.036,1.036,0,0,0,.489-.32.462.462,0,0,0,.082-.465" transform="translate(-355.289 -126.059)" fill="#241f1f" fill-rule="evenodd"/><path d="M404.9,133.443l-4.044.354-.465-5.307,3.871-.337.069.791-2.437.214.125,1.424,1.893-.168.072.8-1.9.166.131,1.5,2.611-.228Z" transform="translate(-372.609 -122.741)" fill="#241f1f" fill-rule="evenodd"/><path d="M424.021,134.233l-4.364-.614.1-.716,3.309-3.382-2.657-.372.111-.788,4.24.6-.1.7-3.322,3.4,2.79.393Z" transform="translate(-386.75 -122.893)" fill="#241f1f" fill-rule="evenodd"/><rect width="5.327" height="1.443" transform="translate(38.365 11.76) rotate(-70.976)" fill="#241f1f"/><path d="M454.169,148.55l-1.251-.778.281-1.334-1.79-1.116-1.086.827-.995-.621,4.647-3.378,1.14.712Zm-.822-2.928.369-2.078-1.663,1.271Z" transform="translate(-408.526 -133.019)" fill="#241f1f" fill-rule="evenodd"/><path d="M380.543,307.933l-1.221-.47,1.455-3.783-.836-.32.23-.6a1.814,1.814,0,0,0,.964.078,1.873,1.873,0,0,0,.514-.184l.8.308Z" transform="translate(-357.147 -250.877)" fill="#241f1f" fill-rule="evenodd"/><path d="M401.254,309.688a3.419,3.419,0,0,1-1.022,2,2.486,2.486,0,0,1-2.076.54,3.427,3.427,0,0,1-.587-.109c-.166-.045-.319-.087-.459-.128l.111-.91c.188.061.366.113.536.159a3.493,3.493,0,0,0,.509.1,1.176,1.176,0,0,0,1.438-1.05,1.1,1.1,0,0,1-.533.259,2.012,2.012,0,0,1-.722.057,2.269,2.269,0,0,1-1.462-.659,1.723,1.723,0,0,1-.375-1.416,1.838,1.838,0,0,1,.787-1.365,2.515,2.515,0,0,1,1.771-.327,2.571,2.571,0,0,1,1.68.728,2.233,2.233,0,0,1,.462,1.661,2.581,2.581,0,0,1-.026.261c-.015.105-.026.17-.031.2m-1.3-.83a1.156,1.156,0,0,0-.155-.863.972.972,0,0,0-.672-.337.942.942,0,0,0-.72.167,1.125,1.125,0,0,0-.355.8,1.174,1.174,0,0,0,.151.859.925.925,0,0,0,.659.347.97.97,0,0,0,.7-.177,1.1,1.1,0,0,0,.388-.8" transform="translate(-369.818 -253.92)" fill="#241f1f" fill-rule="evenodd"/><path d="M423.116,309.414a2.638,2.638,0,0,1-.374,1.959,2.554,2.554,0,0,1-3.309.406,2.649,2.649,0,0,1-.833-1.811l-.051-.43a2.762,2.762,0,0,1,.343-1.93,2.489,2.489,0,0,1,3.368-.417,2.773,2.773,0,0,1,.805,1.794Zm-1.435.032-.017-.143a4.26,4.26,0,0,0-.354-1.447.77.77,0,0,0-1.339.161,4.515,4.515,0,0,0,.015,1.491l.017.143a4.088,4.088,0,0,0,.352,1.435.778.778,0,0,0,1.332-.166,4.148,4.148,0,0,0-.005-1.474" transform="translate(-385.905 -253.86)" fill="#241f1f" fill-rule="evenodd"/><path d="M444.753,303.332a1.818,1.818,0,0,1-.062,1.578,2.553,2.553,0,0,1-1.412,1.125,2.618,2.618,0,0,1-1.827.146,2.273,2.273,0,0,1-1.188-1.254,2.16,2.16,0,0,1-.1-.242c-.035-.1-.059-.164-.07-.194a3.4,3.4,0,0,1-.018-2.226,2.49,2.49,0,0,1,1.56-1.471,4.491,4.491,0,0,1,.571-.177l.469-.1.329.853c-.194.036-.378.072-.552.116a3.72,3.72,0,0,0-.493.146,1.218,1.218,0,0,0-.737.643,1.424,1.424,0,0,0-.039.965,1.082,1.082,0,0,1,.352-.486,1.976,1.976,0,0,1,.609-.383,2.241,2.241,0,0,1,1.606-.105,1.693,1.693,0,0,1,1,1.067m-1.313.6a1.121,1.121,0,0,0-.543-.678.9.9,0,0,0-.747,0,.958.958,0,0,0-.538.49,1.086,1.086,0,0,0,.028.879,1.172,1.172,0,0,0,.54.7,1.008,1.008,0,0,0,.754-.02.979.979,0,0,0,.562-.483,1.132,1.132,0,0,0-.055-.883" transform="translate(-401.607 -249.307)" fill="#241f1f" fill-rule="evenodd"/></g></g></svg>