<svg width="64" height="64" viewBox="0 0 64 64" fill="none" xmlns="http://www.w3.org/2000/svg">
<g clip-path="url(#clip0_412_38)">
<path d="M32 64C49.6731 64 64 49.6731 64 32C64 14.3269 49.6731 0 32 0C14.3269 0 0 14.3269 0 32C0 49.6731 14.3269 64 32 64Z" fill="#D8121B"/>
<path d="M10.6777 15.6772H52.6777V31.4476L31.6777 56.3224L10.6777 31.4476V15.6772Z" fill="white"/>
<path d="M10 15H53.3548V31.6916L31.6774 57L10 31.6916V15ZM11.3548 16.3548V31.2039L31.6774 55.0355L52 31.1903V16.3548H11.3548Z" fill="black"/>
<path d="M50.6454 17.7095H12.71V28.5482H50.6454V17.7095Z" fill="black"/>
<path d="M12.71 29.9033H28.968V48.8711L12.71 29.9033Z" fill="#FE0000"/>
<path d="M49.2899 29.9033H34.3867V48.8711L49.2899 29.9033Z" fill="black"/>
<path d="M43.9116 19.0648C42.7464 19.0648 42.5161 19.7829 42.5161 20.2435V25.7442C42.4989 25.9308 42.5213 26.119 42.582 26.2963C42.6426 26.4737 42.7402 26.6362 42.8682 26.7731C42.9961 26.91 43.1517 27.0183 43.3245 27.0909C43.4974 27.1634 43.6836 27.1985 43.871 27.1938H47.6374C48.4503 27.1938 49.2903 26.7061 49.2903 25.6222V24.0777H47.529V24.6197C47.5697 25.0261 47.3935 25.3106 47.109 25.2971H44.7245C44.3723 25.3242 44.0471 25.3242 44.1419 24.8093V21.4087C44.2097 21.1513 43.9523 20.7855 44.6297 20.7584H47.2039C47.3393 20.8532 47.5832 20.6906 47.5832 21.2732L47.6103 21.7609H49.2903V20.23C49.2903 19.3493 48.5587 19.0648 47.9219 19.0648H43.9116ZM34.3871 19.0648V27.1938H36.0671V24.159H39.8064V22.3977H36.0942V20.6635H41.1613V19.0648H34.3871ZM30.1871 19.0648H24.9032V27.1938H26.7458V24.1997H30.1871C30.9052 24.1997 31.6774 23.8339 31.6774 22.7906V20.4197C31.6774 19.7558 31.2032 19.0648 30.1871 19.0513V19.0648ZM26.7458 20.8532H29.5639C29.7806 20.8532 30.011 20.8668 30.011 21.3003V22.0455C30.011 22.4926 29.7942 22.5197 29.5774 22.5197H26.7323V20.8532H26.7458ZM16.4355 19.0648C15.731 19.119 15.4058 19.4713 15.4194 20.108V22.8177C15.4194 23.3055 15.8529 23.7661 16.9097 23.7661H20.0935C20.2426 23.7661 20.3374 23.8474 20.3374 24.1048V24.9855C20.3374 25.2429 20.2561 25.4326 20.0529 25.4326H15.4194V27.1938H21.0419C21.8819 27.1938 22.1935 26.7332 22.1935 26.0829V23.1293C22.1935 22.0184 20.9471 22.0861 20.4864 22.0861H17.6277C17.3568 22.1132 17.1264 21.8558 17.14 21.5713V21.1242C17.1129 20.9074 17.3026 20.7448 17.5464 20.7584H22.1935V19.0648H16.4355Z" fill="white"/>
</g>
<defs>
<clipPath id="clip0_412_38">
<rect width="64" height="64" fill="white"/>
</clipPath>
</defs>
</svg>
