<svg width="64" height="64" viewBox="0 0 64 64" fill="none" xmlns="http://www.w3.org/2000/svg">
<g clip-path="url(#clip0_538_1641)">
<path d="M32 64C49.6731 64 64 49.6731 64 32C64 14.3269 49.6731 0 32 0C14.3269 0 0 14.3269 0 32C0 49.6731 14.3269 64 32 64Z" fill="#F5F5F5"/>
<path d="M51.1744 29.9531C49.14 29.9531 47.1057 29.9531 45.0714 29.9531C40.713 25.5858 36.3536 21.2175 31.9952 16.8503L18.918 29.9531H13.8671L31.9942 11.788L46.0378 25.8602H51.8141L31.9942 6L6.04596 32L4 34.0459H10.97C10.9721 34.0459 10.9742 34.0459 10.9774 34.0459H13.8671H18.9191L31.9952 47.1487L45.0714 34.0459H50.1234L31.9942 52.2099L17.9527 38.1398H12.1743L31.9942 58L52.7403 37.2117L60 29.9531H51.1744ZM31.9942 41.3606L24.6954 34.0469H39.2941L31.9942 41.3606ZM24.6954 29.9531L31.9942 22.6394L39.293 29.9531H24.6954Z" fill="black"/>
</g>
<defs>
<clipPath id="clip0_538_1641">
<rect width="64" height="64" fill="white"/>
</clipPath>
</defs>
</svg>
