<svg width="64" height="64" viewBox="0 0 64 64" fill="none" xmlns="http://www.w3.org/2000/svg">
<g clip-path="url(#clip0_40_32625)">
<path d="M32 64C49.6731 64 64 49.6731 64 32C64 14.3269 49.6731 0 32 0C14.3269 0 0 14.3269 0 32C0 49.6731 14.3269 64 32 64Z" fill="#F5F5F5"/>
<path d="M32 45.354C28.9921 45.3524 26.1079 44.1568 23.981 42.0299C21.8541 39.9031 20.6586 37.0188 20.657 34.011C20.657 27.926 30.925 17.178 31.357 16.728L31.894 16.162L32.446 16.714C32.896 17.164 43.339 27.914 43.339 33.997C43.3403 37.0063 42.1467 39.8931 40.0204 42.0227C37.8942 44.1523 35.0093 45.3505 32 45.354ZM31.913 18.354C31.013 19.327 29.124 21.433 27.251 23.902C23.925 28.288 22.168 31.774 22.168 33.996C22.1549 35.2956 22.3995 36.5848 22.8878 37.7893C23.376 38.9937 24.0982 40.0894 25.0125 41.013C25.9269 41.9366 27.0152 42.6698 28.2147 43.1701C29.4141 43.6705 30.7008 43.9281 32.0005 43.9281C33.3001 43.9281 34.5869 43.6705 35.7863 43.1701C36.9857 42.6698 38.0741 41.9366 38.9884 41.013C39.9028 40.0894 40.6249 38.9937 41.1132 37.7893C41.6014 36.5848 41.8461 35.2956 41.833 33.996C41.833 31.774 40.047 28.288 36.663 23.902C34.757 21.448 32.828 19.327 31.913 18.354Z" fill="url(#paint0_linear_40_32625)"/>
<path d="M32 48.984C28.03 48.9795 24.2239 47.4005 21.4168 44.5933C18.6096 41.7861 17.0305 37.98 17.026 34.01C17.026 25.935 28.296 14.664 28.776 14.2C28.8448 14.1227 28.9286 14.0601 29.0224 14.0163C29.1162 13.9725 29.2179 13.9483 29.3214 13.9452C29.4248 13.9421 29.5278 13.9602 29.6241 13.9983C29.7203 14.0365 29.8077 14.0939 29.881 14.167C29.9542 14.2401 30.0118 14.3274 30.0501 14.4236C30.0884 14.5197 30.1067 14.6227 30.1038 14.7262C30.1009 14.8297 30.0769 14.9314 30.0332 15.0253C29.9896 15.1192 29.9272 15.2031 29.85 15.272C29.734 15.388 18.55 26.572 18.55 34.008C18.55 35.7761 18.8982 37.5268 19.5749 39.1603C20.2515 40.7938 21.2432 42.278 22.4934 43.5282C23.7436 44.7784 25.2278 45.7701 26.8612 46.4467C28.4947 47.1233 30.2455 47.4715 32.0135 47.4715C33.7816 47.4715 35.5323 47.1233 37.1658 46.4467C38.7992 45.7701 40.2834 44.7784 41.5336 43.5282C42.7838 42.278 43.7755 40.7938 44.4522 39.1603C45.1288 37.5268 45.477 35.7761 45.477 34.008C45.477 30.958 43.502 26.746 39.755 21.794C37.9644 19.4425 36.029 17.2048 33.96 15.094C33.8894 15.0234 33.8334 14.9396 33.7952 14.8474C33.757 14.7552 33.7374 14.6563 33.7374 14.5565C33.7374 14.4567 33.757 14.3579 33.7952 14.2656C33.8334 14.1734 33.8894 14.0896 33.96 14.019C34.0306 13.9484 34.1144 13.8924 34.2066 13.8542C34.2988 13.816 34.3977 13.7964 34.4975 13.7964C34.5973 13.7964 34.6962 13.816 34.7884 13.8542C34.8806 13.8924 34.9644 13.9484 35.035 14.019C35.529 14.498 47.002 25.914 47.002 34.004C46.9862 37.975 45.3999 41.7784 42.5895 44.5839C39.7792 47.3894 35.973 48.9691 32.002 48.978L32 48.984Z" fill="url(#paint1_linear_40_32625)"/>
<path d="M31.9999 52.615C27.1676 52.6095 22.5347 50.6874 19.1177 47.2703C15.7006 43.8533 13.7785 39.2204 13.7729 34.388C13.7729 30.234 15.8639 25.122 19.9729 19.211C21.8346 16.5326 23.888 13.9926 26.1169 11.611C26.1866 11.5395 26.2697 11.4823 26.3614 11.4429C26.4532 11.4034 26.5518 11.3824 26.6517 11.381C26.7516 11.3797 26.8507 11.398 26.9435 11.435C27.0363 11.472 27.1209 11.5269 27.1924 11.5965C27.264 11.6662 27.3212 11.7493 27.3606 11.841C27.4001 11.9328 27.4211 12.0314 27.4224 12.1313C27.4238 12.2312 27.4055 12.3303 27.3685 12.4231C27.3315 12.5159 27.2766 12.6005 27.2069 12.672C25.0353 15.0022 23.0304 17.4824 21.2069 20.094C17.3309 25.659 15.2829 30.597 15.2829 34.388C15.3171 38.7991 17.0933 43.018 20.2245 46.1251C23.3558 49.2322 27.5882 50.9757 31.9994 50.9757C36.4107 50.9757 40.6431 49.2322 43.7744 46.1251C46.9056 43.018 48.6818 38.7991 48.716 34.388C48.716 30.597 46.654 25.659 42.747 20.097C40.9051 17.483 38.8814 15.0018 36.6909 12.672C36.616 12.6017 36.5561 12.5168 36.5149 12.4227C36.4737 12.3285 36.4521 12.2269 36.4512 12.1241C36.4504 12.0213 36.4704 11.9194 36.5101 11.8246C36.5498 11.7298 36.6083 11.644 36.6821 11.5724C36.7559 11.5009 36.8435 11.445 36.9395 11.4083C37.0355 11.3715 37.1379 11.3546 37.2407 11.3586C37.3434 11.3626 37.4442 11.3874 37.5371 11.4314C37.63 11.4755 37.7129 11.538 37.7809 11.615C38.2889 12.138 50.228 24.541 50.228 34.388C50.2224 39.2206 48.3001 43.8536 44.8829 47.2707C41.4657 50.6877 36.8325 52.6098 31.9999 52.615Z" fill="url(#paint2_linear_40_32625)"/>
</g>
<defs>
<linearGradient id="paint0_linear_40_32625" x1="31.998" y1="18.9352" x2="31.998" y2="48.1272" gradientUnits="userSpaceOnUse">
<stop stop-color="#05AAC5"/>
<stop offset="1" stop-color="#71E0EC"/>
</linearGradient>
<linearGradient id="paint1_linear_40_32625" x1="32.014" y1="15.3095" x2="32.014" y2="50.4971" gradientUnits="userSpaceOnUse">
<stop stop-color="#05AAC5"/>
<stop offset="1" stop-color="#71E0EC"/>
</linearGradient>
<linearGradient id="paint2_linear_40_32625" x1="32.0005" y1="11.6468" x2="32.0005" y2="52.9038" gradientUnits="userSpaceOnUse">
<stop stop-color="#05AAC5"/>
<stop offset="1" stop-color="#71E0EC"/>
</linearGradient>
<clipPath id="clip0_40_32625">
<rect width="64" height="64" fill="white"/>
</clipPath>
</defs>
</svg>
