<svg width="64" height="64" viewBox="0 0 64 64" fill="none" xmlns="http://www.w3.org/2000/svg">
<g clip-path="url(#clip0_40_32631)">
<path d="M32 64C49.6731 64 64 49.6731 64 32C64 14.3269 49.6731 0 32 0C14.3269 0 0 14.3269 0 32C0 49.6731 14.3269 64 32 64Z" fill="#F5F5F5"/>
<path d="M14.4691 40.8242C14.2041 40.8242 13.945 40.9028 13.7246 41.05C13.5043 41.1972 13.3325 41.4065 13.2311 41.6514C13.1297 41.8962 13.1031 42.1657 13.1548 42.4256C13.2065 42.6855 13.3342 42.9243 13.5216 43.1117C13.709 43.2991 13.9477 43.4267 14.2077 43.4784C14.4676 43.5301 14.737 43.5036 14.9819 43.4022C15.2267 43.3007 15.436 43.129 15.5833 42.9086C15.7305 42.6883 15.8091 42.4292 15.8091 42.1642C15.8055 41.9303 15.7462 41.7006 15.6361 41.4942C15.5163 41.2909 15.3458 41.1223 15.1412 41.0049C14.9366 40.8874 14.705 40.8251 14.4691 40.8242ZM33.4031 11.6662C33.4031 11.4011 33.3245 11.1421 33.1773 10.9217C33.03 10.7013 32.8207 10.5296 32.5759 10.4282C32.331 10.3267 32.0616 10.3002 31.8017 10.3519C31.5417 10.4036 31.303 10.5312 31.1156 10.7187C30.9282 10.9061 30.8005 11.1448 30.7488 11.4047C30.6971 11.6647 30.7237 11.9341 30.8251 12.179C30.9265 12.4238 31.0983 12.6331 31.3186 12.7803C31.539 12.9276 31.7981 13.0062 32.0631 13.0062C32.2391 13.0062 32.4133 12.9715 32.5759 12.9042C32.7385 12.8368 32.8862 12.7381 33.0106 12.6137C33.135 12.4893 33.2337 12.3415 33.3011 12.179C33.3684 12.0164 33.4031 11.8421 33.4031 11.6662ZM49.7451 23.2952C50.0101 23.2952 50.2692 23.2166 50.4895 23.0693C50.7099 22.9221 50.8817 22.7128 50.9831 22.468C51.0845 22.2231 51.111 21.9537 51.0593 21.6937C51.0076 21.4338 50.88 21.195 50.6926 21.0076C50.5052 20.8202 50.2664 20.6926 50.0065 20.6409C49.7466 20.5892 49.4771 20.6158 49.2323 20.7172C48.9874 20.8186 48.7782 20.9903 48.6309 21.2107C48.4837 21.4311 48.4051 21.6901 48.4051 21.9552C48.406 22.1825 48.4656 22.4057 48.5781 22.6032C48.6932 22.8121 48.8621 22.9865 49.0673 23.1082C49.2725 23.2299 49.5065 23.2944 49.7451 23.2952ZM15.0951 20.7232C14.8662 20.5933 14.6039 20.5342 14.3415 20.5534C14.079 20.5725 13.8281 20.669 13.6204 20.8308C13.4128 20.9925 13.2578 21.2121 13.175 21.4619C13.0921 21.7117 13.0852 21.9804 13.1551 22.2342C13.2249 22.4879 13.3684 22.7152 13.5674 22.8874C13.7665 23.0596 14.0121 23.1689 14.2732 23.2016C14.5343 23.2342 14.7993 23.1887 15.0346 23.0708C15.2699 22.9529 15.4649 22.7679 15.5951 22.5392C15.6834 22.3876 15.7405 22.2199 15.7631 22.0459C15.7857 21.8719 15.7734 21.6952 15.7268 21.5261C15.6803 21.3569 15.6004 21.1988 15.4919 21.0609C15.3834 20.923 15.2485 20.8082 15.0951 20.7232ZM50.2791 41.0862C50.0754 40.9666 49.8451 40.8996 49.6091 40.8912C49.2537 40.8912 48.9129 41.0324 48.6616 41.2837C48.4103 41.535 48.2691 41.8758 48.2691 42.2312C48.2691 42.5866 48.4103 42.9274 48.6616 43.1787C48.9129 43.43 49.2537 43.5712 49.6091 43.5712C49.8444 43.5674 50.075 43.504 50.2791 43.3868C50.4832 43.2696 50.6542 43.1025 50.7761 42.9012C50.8637 42.7494 50.9203 42.5817 50.9425 42.4079C50.9648 42.2341 50.9523 42.0576 50.9058 41.8886C50.8593 41.7197 50.7797 41.5616 50.6716 41.4237C50.5635 41.2858 50.429 41.1707 50.2761 41.0852M30.7151 52.2592C30.6878 52.5548 30.7575 52.8512 30.9135 53.1038C31.0696 53.3563 31.3035 53.5513 31.5801 53.6592C31.7671 53.7307 31.9678 53.7592 32.1673 53.7424C32.3669 53.7257 32.56 53.6641 32.7325 53.5623C32.9049 53.4605 33.0522 53.3212 33.1632 53.1546C33.2743 52.988 33.3464 52.7985 33.3741 52.6002C33.4032 52.4254 33.3972 52.2467 33.3564 52.0743C33.3156 51.9019 33.2409 51.7394 33.1366 51.5962C33.0323 51.453 32.9005 51.3321 32.7489 51.2404C32.5973 51.1488 32.429 51.0882 32.2537 51.0624C32.0785 51.0365 31.8999 51.0459 31.7283 51.0898C31.5567 51.1338 31.3956 51.2116 31.2544 51.3185C31.1131 51.4255 30.9947 51.5595 30.9059 51.7128C30.817 51.866 30.7597 52.0355 30.7371 52.2112C30.7252 52.2227 30.7175 52.2378 30.7151 52.2542" fill="#2683FF"/>
<path d="M51.598 38.6191C51.4379 38.5268 51.2707 38.4472 51.098 38.3811V25.8671C51.293 25.8021 51.487 25.6941 51.682 25.6081C52.6509 25.0692 53.366 24.1675 53.67 23.1013C53.9739 22.0352 53.842 20.892 53.3031 19.9231C52.7641 18.9543 51.8624 18.2392 50.7963 17.9352C49.7301 17.6312 48.5869 17.7632 47.618 18.3021C47.452 18.3894 47.2932 18.4897 47.1431 18.6021L36.1211 12.2281C36.1461 12.0418 36.1604 11.8541 36.1641 11.6661C36.1633 10.5603 35.7237 9.50002 34.9419 8.71801C34.16 7.93599 33.0999 7.49618 31.9941 7.49512C30.8823 7.50263 29.8179 7.94612 29.0296 8.73022C28.2414 9.51431 27.7924 10.5764 27.7791 11.6881C27.7826 11.8761 27.797 12.0638 27.8221 12.2501L16.8851 18.5831C16.0051 17.9096 14.8936 17.6132 13.7951 17.7592C12.6966 17.9052 11.7011 18.4816 11.0276 19.3616C10.354 20.2416 10.0577 21.3531 10.2037 22.4516C10.3497 23.5501 10.9261 24.5456 11.8061 25.2191C11.9571 25.3271 12.1061 25.4351 12.2821 25.5431C12.4586 25.6511 12.6473 25.738 12.8441 25.8021V38.2951C12.3169 38.512 11.8399 38.8347 11.4424 39.2433C11.0448 39.6518 10.7353 40.1375 10.5329 40.6704C10.3304 41.2032 10.2394 41.7719 10.2653 42.3414C10.2913 42.9108 10.4338 43.4689 10.6839 43.9811C10.934 44.4933 11.2865 44.9488 11.7195 45.3194C12.1526 45.6901 12.657 45.968 13.2017 46.136C13.7464 46.3041 14.3198 46.3587 14.8864 46.2964C15.453 46.2342 16.0008 46.0564 16.4961 45.7741C16.6691 45.6661 16.8421 45.5581 17.0151 45.4281L27.8441 51.6751C27.7574 52.2158 27.7781 52.7683 27.9049 53.3011C28.0318 53.8338 28.2623 54.3363 28.5833 54.7799C28.9044 55.2236 29.3097 55.5996 29.7761 55.8866C30.2425 56.1736 30.7608 56.3659 31.3016 56.4526C31.8423 56.5393 32.3948 56.5186 32.9275 56.3918C33.4602 56.2649 33.9627 56.0344 34.4064 55.7133C34.85 55.3923 35.2261 54.987 35.5131 54.5206C35.8001 54.0542 35.9924 53.5358 36.0791 52.9951C36.1149 52.7663 36.1293 52.5346 36.1221 52.3031C36.1193 52.1008 36.1049 51.8988 36.0791 51.6981L46.8431 45.4951C47.0145 45.6299 47.1949 45.7529 47.383 45.8631C48.3494 46.4035 49.4906 46.5385 50.5564 46.2386C51.6221 45.9386 52.5254 45.2282 53.0681 44.2631C53.5921 43.313 53.7318 42.1981 53.4583 41.148C53.1848 40.098 52.519 39.1929 51.598 38.6191ZM52.354 43.8501C51.9691 44.5092 51.3604 45.0082 50.6387 45.2566C49.917 45.505 49.1302 45.4862 48.4211 45.2037C47.7121 44.9211 47.128 44.3936 46.7749 43.7169C46.4218 43.0402 46.3232 42.2593 46.4971 41.5161L41.4391 38.5551C40.6584 39.3466 39.6614 39.8897 38.5731 40.1164C37.4848 40.3431 36.3537 40.2431 35.3221 39.8291C34.5405 40.0176 33.7459 40.1476 32.9451 40.2181V49.1231C33.7937 49.3867 34.503 49.9767 34.9167 50.7632C35.3304 51.5498 35.4147 52.4684 35.1511 53.3171C34.8874 54.1658 34.2975 54.875 33.5109 55.2887C32.7244 55.7024 31.8057 55.7867 30.9571 55.5231C30.9351 55.5231 30.9141 55.5011 30.8921 55.5011C30.7498 55.4567 30.6122 55.3988 30.4811 55.3281C30.0873 55.131 29.7363 54.8581 29.4482 54.525C29.1601 54.192 28.9405 53.8055 28.802 53.3874C28.6635 52.9694 28.6088 52.5282 28.6411 52.089C28.6733 51.6499 28.7919 51.2214 28.9901 50.8281C29.1952 50.4246 29.4784 50.0658 29.8233 49.7726C30.1681 49.4794 30.5678 49.2576 30.9991 49.1201V40.0461C30.3642 39.85 29.7432 39.6118 29.1401 39.3331C28.1744 39.526 27.178 39.504 26.2218 39.2686C25.2656 39.0332 24.3729 38.5902 23.6071 37.9711L17.5771 41.4511C17.755 42.2004 17.6577 42.9886 17.3027 43.672C16.9477 44.3554 16.3588 44.8884 15.6435 45.1736C14.9281 45.4588 14.1341 45.4773 13.4063 45.2256C12.6785 44.974 12.0654 44.469 11.6791 43.8028C11.2927 43.1367 11.1588 42.3538 11.3017 41.5971C11.4447 40.8404 11.855 40.1603 12.4578 39.681C13.0606 39.2018 13.8156 38.9552 14.5851 38.9865C15.3545 39.0177 16.0871 39.3246 16.6491 39.8511L22.2901 36.5871C21.3672 35.2851 20.9347 33.6985 21.0693 32.1083C21.2038 30.518 21.8966 29.0266 23.0251 27.8981L16.6051 24.2231C16.0461 24.7482 15.3172 25.055 14.5511 25.0878C13.7849 25.1207 13.0324 24.8773 12.4307 24.4019C11.8289 23.9266 11.4178 23.251 11.2723 22.4981C11.1267 21.7451 11.2564 20.965 11.6377 20.2996C12.0191 19.6343 12.6266 19.128 13.3498 18.873C14.073 18.6179 14.8638 18.631 15.5781 18.91C16.2924 19.1889 16.8828 19.7151 17.2418 20.3928C17.6008 21.0704 17.7045 21.8544 17.5341 22.6021L24.6451 26.6871C25.5767 26.1859 26.6135 25.9118 27.6711 25.8871C28.7749 25.1811 29.9659 24.6217 31.2141 24.2231V14.4951C30.5445 14.2795 29.9746 13.8308 29.6078 13.2306C29.241 12.6303 29.1017 11.9185 29.2153 11.2243C29.3289 10.5301 29.6877 9.89969 30.2266 9.44763C30.7655 8.99558 31.4488 8.75188 32.1521 8.76082C32.8555 8.76977 33.5323 9.03076 34.0595 9.49637C34.5868 9.96199 34.9295 10.6013 35.0253 11.2982C35.1212 11.995 34.9639 12.7031 34.582 13.2938C34.2 13.8845 33.6189 14.3186 32.9441 14.5171V24.0491C32.9441 24.0491 37.6131 25.2161 39.0821 26.9671L46.647 22.6671C46.4656 21.9122 46.5619 21.1171 46.9184 20.4273C47.2749 19.7376 47.8677 19.1991 48.5885 18.9104C49.3093 18.6217 50.1099 18.6021 50.844 18.8551C51.578 19.1081 52.1966 19.6168 52.5864 20.2883C52.9763 20.9597 53.1115 21.7491 52.9673 22.512C52.8231 23.275 52.4091 23.9606 51.8011 24.4434C51.193 24.9263 50.4315 25.1742 49.6558 25.1418C48.88 25.1094 48.1418 24.799 47.576 24.2671L40.0981 28.5031C40.3191 28.947 40.4998 29.4099 40.6381 29.8861C41.7596 30.6478 42.569 31.7883 42.918 33.0984C43.267 34.4084 43.1321 35.8004 42.5381 37.0191L47.4911 39.8951C48.0503 39.376 48.7782 39.0764 49.5408 39.0515C50.3034 39.0265 51.0493 39.2779 51.6413 39.7593C52.2332 40.2408 52.6313 40.9198 52.7623 41.6715C52.8933 42.4232 52.7483 43.1969 52.354 43.8501Z" fill="#2683FF"/>
<path d="M38.4131 31.5741C38.3911 31.4011 38.3701 31.2501 38.3481 31.0741C38.3268 30.957 38.2977 30.8414 38.2611 30.7281C38.2611 30.6851 38.2392 30.6411 38.2392 30.5981C38.1962 30.4681 38.1532 30.3171 38.1092 30.1871V30.1651C37.8343 29.4401 37.4152 28.7784 36.8772 28.2201C36.7472 28.0901 36.6391 27.9821 36.4881 27.8521L36.4661 27.8301C36.3383 27.7181 36.2008 27.6177 36.0551 27.5301L36.0331 27.5081C35.9011 27.4141 35.764 27.3276 35.6222 27.2491L35.6001 27.2281C35.4606 27.1475 35.3163 27.0754 35.1681 27.0121L35.1251 26.9901C34.9741 26.9251 34.8251 26.8601 34.6501 26.7951L34.6281 26.7731C34.4643 26.7196 34.2973 26.6763 34.1281 26.6432H34.1061C33.935 26.6037 33.7617 26.5746 33.5871 26.5561H33.5651C32.6444 26.4252 31.7055 26.5369 30.8411 26.8802L30.7331 26.9662C30.5708 27.029 30.4122 27.1012 30.2581 27.1822C30.1907 27.2267 30.1182 27.2629 30.0421 27.2901C29.9581 27.3326 29.8784 27.3831 29.8042 27.4411C29.7392 27.4841 29.5881 27.5921 29.5041 27.6571L29.4391 27.7001C29.3113 27.7937 29.1885 27.8939 29.0711 28.0002L28.9632 28.1081C28.8332 28.2381 28.7252 28.3461 28.6172 28.4761C28.3601 28.433 28.0998 28.4113 27.8391 28.4111C27.7664 28.4066 27.6934 28.4141 27.6231 28.4331C26.626 28.4834 25.6779 28.8811 24.9431 29.5572C24.5761 29.8912 24.2693 30.286 24.0362 30.7242L24.0131 30.7682C23.9465 30.8937 23.8887 31.0236 23.8401 31.1571C23.8191 31.2001 23.8191 31.2221 23.7971 31.2651C23.7514 31.3772 23.7152 31.4929 23.6891 31.6111C23.6671 31.6541 23.6671 31.7191 23.6461 31.7621C23.6241 31.8701 23.6031 31.9781 23.5811 32.1081C23.5811 32.1511 23.5591 32.1941 23.5591 32.2591C23.5409 32.4251 23.5336 32.5922 23.5371 32.7591C23.5337 32.8965 23.541 33.0339 23.5591 33.1701C23.5591 33.2131 23.5811 33.2561 23.5811 33.3211C23.6031 33.4071 23.6031 33.4941 23.6241 33.5801C23.6451 33.6661 23.6461 33.6881 23.6671 33.7531C23.6917 33.8155 23.7062 33.8813 23.7101 33.9482C23.7218 34.0161 23.7437 34.0818 23.7751 34.1432C23.7929 34.1951 23.8146 34.2456 23.8401 34.2942C23.8729 34.3646 23.902 34.4367 23.9271 34.5102C23.9491 34.5532 23.9701 34.5751 23.9701 34.6181C24.2738 35.33 24.7864 35.9329 25.4401 36.3471C25.7514 36.5444 26.0851 36.7039 26.4341 36.8221C26.5683 36.8682 26.7056 36.9043 26.8451 36.9301L26.8881 36.9521L27.2771 37.0171L27.3642 37.0381C27.5218 37.0567 27.6805 37.0641 27.8391 37.0602C28.4123 37.0665 28.98 36.9485 29.5031 36.7141C29.6331 36.8001 29.7411 36.8871 29.8711 36.9731L29.9141 36.9951C30.0221 37.0601 30.1521 37.1252 30.2821 37.1902H30.3031C31.5389 37.8202 32.9651 37.9667 34.3031 37.6011H34.3252C34.5197 37.559 34.7083 37.4936 34.8871 37.4062L35.4712 37.1471C36.0269 37.5807 36.7113 37.8164 37.4162 37.8171C37.5672 37.8171 37.6971 37.7951 37.8481 37.7951L37.9561 37.7731C38.0947 37.7527 38.232 37.7239 38.3672 37.6871C38.5003 37.6463 38.6303 37.5958 38.7561 37.5361L38.8211 37.5141C38.9511 37.4491 39.0591 37.3841 39.1891 37.3191C39.7248 36.9701 40.14 36.4645 40.3781 35.8711C40.4554 35.6832 40.5133 35.4878 40.5511 35.2881V35.2231C40.5731 35.1371 40.5731 35.0501 40.5941 34.9641C40.5941 34.8561 40.6161 34.7481 40.6161 34.6401C40.6262 33.9596 40.4171 33.294 40.0199 32.7414C39.6227 32.1887 39.0583 31.7785 38.4101 31.5711" fill="#2683FF"/>
</g>
<defs>
<clipPath id="clip0_40_32631">
<rect width="64" height="64" fill="white"/>
</clipPath>
</defs>
</svg>
