<svg xmlns="http://www.w3.org/2000/svg" width="64" height="64" viewBox="0 0 64 64"><g transform="translate(-286 -3142)"><circle cx="32" cy="32" r="32" transform="translate(286 3142)" fill="#f5f5f5"/><g transform="translate(296.061 3149.495)"><path d="M121,146.038a1.34,1.34,0,1,0,1.34,1.34,1.471,1.471,0,0,0-.173-.67,1.361,1.361,0,0,0-1.167-.67m18.934-29.158a1.34,1.34,0,1,0-1.34,1.34,1.34,1.34,0,0,0,1.34-1.34m16.342,11.629a1.34,1.34,0,1,0-1.34-1.34,1.32,1.32,0,0,0,.173.648,1.337,1.337,0,0,0,1.167.692m-34.65-2.572a1.331,1.331,0,1,0,.5,1.816,1.318,1.318,0,0,0-.5-1.816M156.81,146.3a1.423,1.423,0,0,0-.67-.195,1.34,1.34,0,1,0,0,2.68,1.39,1.39,0,0,0,1.167-.67,1.323,1.323,0,0,0-.5-1.816m-19.561,11.174a1.368,1.368,0,0,0,.865,1.4,1.331,1.331,0,0,0,1.794-1.059,1.333,1.333,0,1,0-2.637-.389.075.075,0,0,0-.022.043" transform="translate(-116.592 -112.709)" fill="#2683ff"/><path d="M41.537,31.124a3.516,3.516,0,0,0-.5-.238V18.372c.195-.065.389-.173.584-.259a4.18,4.18,0,1,0-4.064-7.306,3.546,3.546,0,0,0-.475.3L26.06,4.733a4.932,4.932,0,0,0,.043-.562A4.174,4.174,0,0,0,21.933,0a4.244,4.244,0,0,0-4.215,4.193,4.923,4.923,0,0,0,.043.562L6.824,11.088a4.178,4.178,0,1,0-5.079,6.636c.151.108.3.216.476.324a2.652,2.652,0,0,0,.562.259V30.8a4.17,4.17,0,1,0,3.652,7.479c.173-.108.346-.216.519-.346L17.783,44.18A4.17,4.17,0,1,0,26.018,45.5a3.727,3.727,0,0,0,.043-.692,5.313,5.313,0,0,0-.043-.605L36.782,38a4.789,4.789,0,0,0,.54.368,4.181,4.181,0,0,0,5.685-1.6A4.238,4.238,0,0,0,41.537,31.124Zm.756,5.231a3.188,3.188,0,0,1-5.857-2.334L31.378,31.06a5.641,5.641,0,0,1-6.117,1.274,16.207,16.207,0,0,1-2.377.389v8.905a3.35,3.35,0,1,1-1.988,6.4c-.022,0-.043-.022-.065-.022a2.329,2.329,0,0,1-.411-.173,3.348,3.348,0,0,1-1.491-4.5,3.419,3.419,0,0,1,2.009-1.708V32.551a14.953,14.953,0,0,1-1.859-.713,6.71,6.71,0,0,1-5.533-1.362l-6.03,3.48a3.209,3.209,0,1,1-.928-1.6l5.641-3.264a6.76,6.76,0,0,1,.735-8.689l-6.42-3.675a3.2,3.2,0,1,1,.929-1.621l7.111,4.085a6.718,6.718,0,0,1,3.026-.8,15.1,15.1,0,0,1,3.543-1.664V7a2.938,2.938,0,1,1,1.73.022v9.532s4.669,1.167,6.138,2.918l7.565-4.3a3.233,3.233,0,1,1,.929,1.6l-7.478,4.236a8.29,8.29,0,0,1,.54,1.383,5.637,5.637,0,0,1,1.9,7.133L37.43,32.4a3.165,3.165,0,0,1,4.863,3.955Z" transform="translate(0)" fill="#2683ff"/><path d="M560.764,780.87c-.022-.173-.043-.324-.065-.5a2.7,2.7,0,0,0-.087-.346c0-.043-.022-.087-.022-.13-.043-.13-.086-.281-.13-.411v-.022a5.729,5.729,0,0,0-1.232-1.945c-.13-.13-.238-.238-.389-.368l-.022-.022a2.864,2.864,0,0,0-.411-.3l-.022-.022a4.274,4.274,0,0,0-.411-.259l-.022-.021a4.021,4.021,0,0,0-.432-.216l-.043-.022c-.151-.065-.3-.13-.475-.195l-.022-.022a4.237,4.237,0,0,0-.5-.13h-.022a4.338,4.338,0,0,0-.519-.087h-.022a5.343,5.343,0,0,0-2.724.324l-.108.086a4.567,4.567,0,0,0-.475.216,1.009,1.009,0,0,1-.216.108,1.442,1.442,0,0,0-.238.151c-.065.043-.216.151-.3.216l-.065.043a4.586,4.586,0,0,0-.368.3l-.108.108c-.13.13-.238.238-.346.368a4.728,4.728,0,0,0-.778-.065.667.667,0,0,0-.216.022,4.276,4.276,0,0,0-2.68,1.124,4.326,4.326,0,0,0-.907,1.167l-.023.044a3.068,3.068,0,0,0-.173.389c-.021.043-.021.065-.043.108a2.135,2.135,0,0,0-.108.346c-.022.043-.022.108-.043.151-.022.108-.043.216-.065.346,0,.043-.022.086-.022.151a3.831,3.831,0,0,0-.022.5,2.618,2.618,0,0,0,.022.411c0,.043.022.086.022.151.022.086.022.173.043.259s.022.108.043.173a.634.634,0,0,1,.043.195.683.683,0,0,0,.065.195,1.066,1.066,0,0,0,.065.151,2.206,2.206,0,0,1,.087.216c.022.043.043.065.043.108a3.823,3.823,0,0,0,1.47,1.729,4.634,4.634,0,0,0,.994.475,2.882,2.882,0,0,0,.411.108l.043.022.389.065.087.021a3.347,3.347,0,0,0,.475.022,3.962,3.962,0,0,0,1.664-.346c.13.086.238.173.368.259l.043.022c.108.065.238.13.368.195h.021a5.573,5.573,0,0,0,4,.411h.022a2.471,2.471,0,0,0,.562-.195l.584-.259a3.167,3.167,0,0,0,1.945.67c.151,0,.281-.022.432-.022l.108-.022a3.514,3.514,0,0,0,.411-.086,2.875,2.875,0,0,0,.389-.151l.065-.022c.13-.065.238-.13.368-.195a3.112,3.112,0,0,0,1.189-1.448,3,3,0,0,0,.173-.583v-.065c.022-.086.022-.173.043-.259,0-.108.022-.216.022-.324a3.173,3.173,0,0,0-2.206-3.069" transform="translate(-532.412 -756.791)" fill="#2683ff"/></g></g></svg>