<svg xmlns="http://www.w3.org/2000/svg" xmlns:xlink="http://www.w3.org/1999/xlink" width="64" height="64" viewBox="0 0 64 64"><defs><clipPath id="a"><rect width="44" height="44"/></clipPath><linearGradient id="b" x1="0.873" y1="51.754" x2="1.032" y2="51.105" gradientUnits="objectBoundingBox"><stop offset="0" stop-color="#03b8ff"/><stop offset="1" stop-color="#fa52a0"/></linearGradient><linearGradient id="c" x1="0.983" y1="66.413" x2="1.174" y2="65.582" xlink:href="#b"/><linearGradient id="d" x1="0.908" y1="65.434" x2="1.098" y2="64.608" xlink:href="#b"/></defs><g transform="translate(-286 -3609)"><circle cx="32" cy="32" r="32" transform="translate(286 3609)" fill="#f5f5f5"/><g transform="translate(296 3619)"><g clip-path="url(#a)"><path d="M8.757,2.3,42.549,25.373,34.192,37.727.4,14.472Z" transform="translate(0.327 1.879)" fill="url(#b)"/><path d="M39.122,26.406c-2.907,4.179-12.717,2.543-21.983-4C7.691,16.05,2.6,7.511,5.329,3.332c2.907-4.179,12.717-2.543,21.983,4C36.76,13.506,41.847,22.227,39.122,26.406Z" transform="translate(3.755 0.846)" fill="url(#c)"/><path d="M34.47,33.187c-2.907,4.179-12.718,2.543-21.983-4S-2.047,14.293.86,9.932c2.907-4.179,12.717-2.543,21.983,4S37.2,29.009,34.47,33.187Z" transform="translate(0.049 6.237)" fill="url(#d)"/><path d="M39.527,17.821h0L31.17,30.175h0c-2.907,4.179-12.718,2.362-21.983-4a54.735,54.735,0,0,1-5.087-4,7.731,7.731,0,0,0,4.542-2.725c2.907-3.089,4.36-3.815,5.632-3.634,1.272,0,2.725,1.272,5.087,4.36s5.632,4,7.63,2.362c.182-.182.363-.182.545-.363,1.635-1.272,2.18-1.817,5.269-7.63a5.715,5.715,0,0,1,6.722-2.725Q40.89,15.368,39.527,17.821Z" transform="translate(3.349 9.431)" fill="#0e0f23"/><path d="M37.243,25.077C34.7,28.711,25.8,26.894,17.259,20.9,8.538,14.9,3.451,7.273,5.995,3.639S17.441,1.823,25.979,7.818,39.605,21.444,37.243,25.077Zm-7.994-5.45c-1.272,1.817-5.632.908-9.992-2-4.179-2.907-6.722-6.722-5.45-8.539s5.632-.908,9.992,2C27.978,13.995,30.521,17.81,29.25,19.627Z" transform="translate(4.361 1.448)" fill="#fff" fill-rule="evenodd"/><path d="M4.927,4.716c0-.182-.182-.363-.363-.182S4.2,4.716,4.2,4.9a4.622,4.622,0,0,1,.363,1.272c0,.182.182.363.363.182.182,0,.363-.182.182-.363A3.547,3.547,0,0,0,4.927,4.716Z" transform="translate(3.43 3.642)" fill="#fff"/><path d="M5.345,6.316c0-.182-.182-.363-.363-.182S4.8,6.316,4.8,6.5c2,4.542,6.177,9.447,11.627,13.081.182.182.363,0,.545,0,.182-.182,0-.363,0-.545A31.589,31.589,0,0,1,5.345,6.316Z" transform="translate(3.921 4.949)" fill="#fff"/><path d="M17.363,16c-.182,0-.363,0-.363.182s0,.363.182.363c.545.182,1.272.363,1.817.545.182,0,.363,0,.363-.182s0-.363-.182-.363C18.635,16.363,17.908,16.182,17.363,16Z" transform="translate(13.885 13.069)" fill="#fff"/><path d="M19.163,16.4a.363.363,0,0,0,0,.727,17.905,17.905,0,0,0,4.36.182.363.363,0,0,0,0-.727A17.555,17.555,0,0,1,19.163,16.4Z" transform="translate(15.356 13.395)" fill="#fff"/></g></g></g></svg>