<svg width="64" height="64" viewBox="0 0 64 64" fill="none" xmlns="http://www.w3.org/2000/svg">
<g clip-path="url(#clip0_40_32638)">
<path d="M32 64C49.6731 64 64 49.6731 64 32C64 14.3269 49.6731 0 32 0C14.3269 0 0 14.3269 0 32C0 49.6731 14.3269 64 32 64Z" fill="#F5F5F5"/>
<mask id="mask0_40_32638" style="mask-type:luminance" maskUnits="userSpaceOnUse" x="10" y="10" width="44" height="44">
<path d="M54 10H10V54H54V10Z" fill="white"/>
</mask>
<g mask="url(#mask0_40_32638)">
<path d="M19.0839 14.1791L52.8759 37.2521L44.5189 49.6061L10.7269 26.3511L19.0839 14.1791Z" fill="url(#paint0_linear_40_32638)"/>
<path d="M52.8769 37.2521C49.9699 41.4311 40.1599 39.7951 30.8939 33.2521C21.4459 26.8961 16.3549 18.3571 19.0839 14.1781C21.9909 9.99905 31.8009 11.6351 41.0669 18.1781C50.5149 24.3521 55.6019 33.0731 52.8769 37.2521Z" fill="url(#paint1_linear_40_32638)"/>
<path d="M44.519 49.424C41.612 53.603 31.801 51.967 22.536 45.424C13.271 38.881 8.00196 30.53 10.909 26.169C13.816 21.99 23.626 23.626 32.892 30.169C42.158 36.712 47.249 45.246 44.519 49.424Z" fill="url(#paint2_linear_40_32638)"/>
<path d="M52.876 37.252L44.519 49.606C41.612 53.785 31.801 51.968 22.536 45.606C20.7629 44.3742 19.0643 43.0385 17.449 41.606C19.2366 41.2609 20.8451 40.2959 21.991 38.881C24.898 35.792 26.351 35.066 27.623 35.247C28.895 35.247 30.348 36.519 32.71 39.607C35.072 42.695 38.342 43.607 40.34 41.969C40.522 41.787 40.703 41.787 40.885 41.606C42.52 40.334 43.065 39.789 46.154 33.976C46.786 32.8141 47.8015 31.9074 49.0273 31.4105C50.2531 30.9136 51.6133 30.8572 52.876 31.251C53.7846 33.6164 53.7846 35.6167 52.876 37.252Z" fill="#0E0F23"/>
<path fill-rule="evenodd" clip-rule="evenodd" d="M51.6039 36.5251C49.0609 40.1591 40.1609 38.3421 31.6199 32.3481C22.8989 26.3481 17.8119 18.7211 20.3559 15.0871C22.8999 11.4531 31.8019 13.2711 40.3399 19.2661C48.8779 25.2611 53.9659 32.8921 51.6039 36.5251ZM43.6099 31.0751C42.3379 32.8921 37.9779 31.9831 33.6179 29.0751C29.4389 26.1681 26.8959 22.3531 28.1679 20.5361C29.4399 18.7191 33.7999 19.6281 38.1599 22.5361C42.3389 25.4431 44.8809 29.2581 43.6099 31.0751Z" fill="white"/>
<path d="M18.357 18.358C18.357 18.176 18.175 17.995 17.994 18.176C17.813 18.357 17.63 18.358 17.63 18.542C17.8114 18.9464 17.9336 19.3748 17.993 19.814C17.993 19.996 18.175 20.177 18.356 19.996C18.538 19.996 18.719 19.814 18.538 19.633C18.556 19.2005 18.4946 18.7684 18.357 18.358Z" fill="white"/>
<path d="M19.2659 21.265C19.2659 21.083 19.0839 20.902 18.9029 21.083C18.7219 21.264 18.7209 21.265 18.7209 21.449C20.7209 25.991 24.8979 30.896 30.3479 34.53C30.5299 34.712 30.7109 34.53 30.8929 34.53C31.0749 34.348 30.8929 34.167 30.8929 33.985C25.9133 30.9046 21.8878 26.5007 19.2659 21.265Z" fill="white"/>
<path d="M41.2479 39.0691C41.0659 39.0691 40.8849 39.0691 40.8849 39.2511C40.8849 39.4331 40.8849 39.6141 41.0669 39.6141C41.6119 39.7961 42.3389 39.9771 42.8839 40.1591C43.0659 40.1591 43.2469 40.1591 43.2469 39.9771C43.2469 39.7951 43.2469 39.6141 43.0649 39.6141C42.5199 39.4321 41.7929 39.2511 41.2479 39.0691Z" fill="white"/>
<path d="M44.519 39.795C44.4226 39.795 44.3301 39.8333 44.2619 39.9015C44.1938 39.9697 44.1555 40.0621 44.1555 40.1585C44.1555 40.255 44.1938 40.3474 44.2619 40.4156C44.3301 40.4837 44.4226 40.522 44.519 40.522C45.9594 40.7603 47.4236 40.8214 48.879 40.704C48.9754 40.704 49.0678 40.6657 49.136 40.5976C49.2042 40.5294 49.2425 40.4369 49.2425 40.3405C49.2425 40.2441 49.2042 40.1517 49.136 40.0835C49.0678 40.0153 48.9754 39.977 48.879 39.977C47.4237 40.098 45.9591 40.0368 44.519 39.795Z" fill="white"/>
</g>
</g>
<defs>
<linearGradient id="paint0_linear_40_32638" x1="47.523" y1="1847.67" x2="52.3376" y2="1824.29" gradientUnits="userSpaceOnUse">
<stop stop-color="#03B8FF"/>
<stop offset="1" stop-color="#FA52A0"/>
</linearGradient>
<linearGradient id="paint1_linear_40_32638" x1="53.0099" y1="1849.33" x2="57.2379" y2="1825.88" gradientUnits="userSpaceOnUse">
<stop stop-color="#03B8FF"/>
<stop offset="1" stop-color="#FA52A0"/>
</linearGradient>
<linearGradient id="paint2_linear_40_32638" x1="42.0209" y1="1846.07" x2="46.2933" y2="1822.63" gradientUnits="userSpaceOnUse">
<stop stop-color="#03B8FF"/>
<stop offset="1" stop-color="#FA52A0"/>
</linearGradient>
<clipPath id="clip0_40_32638">
<rect width="64" height="64" fill="white"/>
</clipPath>
</defs>
</svg>
