<svg width="64" height="64" viewBox="0 0 64 64" fill="none" xmlns="http://www.w3.org/2000/svg">
<g clip-path="url(#clip0_40_32658)">
<path d="M32 0C38.329 0 44.5159 1.87677 49.7782 5.39297C55.0406 8.90918 59.1421 13.9069 61.5641 19.7541C63.9861 25.6014 64.6199 32.0355 63.3851 38.2429C62.1504 44.4503 59.1027 50.1521 54.6274 54.6274C50.1521 59.1027 44.4503 62.1504 38.2429 63.3851C32.0355 64.6199 25.6014 63.9861 19.7541 61.5641C13.9069 59.1421 8.90918 55.0406 5.39297 49.7782C1.87677 44.5159 0 38.329 0 32C0 23.5131 3.37142 15.3737 9.37258 9.37258C15.3737 3.37142 23.5131 0 32 0Z" fill="#DD2B1C"/>
<path d="M38.298 54.133C34.7708 54.1328 31.2946 53.2898 28.1592 51.6741C25.0237 50.0585 22.3197 47.717 20.2723 44.8448C18.225 41.9726 16.8936 38.6527 16.389 35.1618C15.8845 31.6708 16.2214 28.1098 17.3716 24.7754C18.5219 21.441 20.4523 18.4297 23.002 15.9924C25.5516 13.5551 28.6468 11.7623 32.0296 10.7634C35.4124 9.76441 38.985 9.58824 42.4497 10.2495C45.9144 10.9108 49.1709 12.3903 51.948 14.565C48.3675 10.2777 43.5536 7.19702 38.1608 5.74188C32.7679 4.28674 27.0577 4.52773 21.8066 6.43204C16.5555 8.33635 12.0182 11.8116 8.81171 16.3853C5.60518 20.959 3.88501 26.4092 3.88501 31.995C3.88501 37.5807 5.60518 43.031 8.81171 47.6047C12.0182 52.1784 16.5555 55.6536 21.8066 57.558C27.0577 59.4623 32.7679 59.7032 38.1608 58.2481C43.5536 56.7929 48.3675 53.7123 51.948 49.425C48.0557 52.4825 43.2476 54.1409 38.298 54.133Z" fill="white"/>
<path d="M55.1379 19.226L55.183 19.271C55.169 19.2549 55.154 19.2399 55.1379 19.226Z" fill="white"/>
<path d="M58.852 30.571C59.0307 28.7156 58.8934 26.8434 58.446 25.0339L56.623 28.0719C55.7282 27.3648 54.6917 26.8583 53.584 26.587L54.8 30.9079C53.7928 32.2073 52.6617 33.406 51.423 34.4869C52.7766 34.1994 54.1583 34.0652 55.542 34.087C55.542 34.087 56.1501 38.409 55.7421 39.152C56.829 37.7346 57.6523 36.1335 58.173 34.425L59.389 34.9649C59.389 34.9649 58.512 40.6379 49.598 42.9339C49.598 42.9339 44.803 43.744 43.385 43.812C40.7437 43.8503 38.1501 44.5217 35.822 45.7699L32.85 43.204C32.85 43.204 40.684 38.949 44.803 35.235C48.922 31.521 50.881 29.8349 52.303 27.8059C53.725 25.7769 55.4101 23.8899 55.8151 21.7959C56.2201 19.7019 55.882 19.972 55.882 19.972L55.182 19.2719C55.369 19.4809 56.011 20.4489 54.597 22.8059C52.325 26.481 49.4485 29.7459 46.089 32.463C41.632 36.245 33.731 41.6469 31.975 42.2549L29.075 38.8779C30.6331 37.8012 31.8514 36.3022 32.587 34.557C33.1471 32.9702 33.466 31.3084 33.533 29.627C34.0599 26.1946 34.8502 22.8079 35.897 19.497C36.641 17.403 37.518 14.497 38.868 12.812C40.218 11.127 40.421 11.326 41.368 11.123C41.368 11.123 41.233 10.38 39.882 10.988C38.531 11.596 36.168 15.242 34.282 21.188C34.282 21.188 32.999 25.847 32.593 27.738C32.187 29.629 32.255 31.2499 31.985 32.3309C31.715 33.4119 30.972 36.585 28.339 37.868C26.7125 35.5383 25.3748 33.0199 24.355 30.368C23.342 27.126 22.127 24.898 22.802 19.768C22.802 19.768 23.95 16.189 25.102 15.244C25.102 15.244 22.602 16.0549 21.793 21.8619C21.7641 24.5885 22.1743 27.3019 23.008 29.898C24.1513 32.8637 25.5762 35.713 27.263 38.407C26.3707 38.7424 25.4045 38.8316 24.4659 38.6651C23.5272 38.4987 22.6506 38.0827 21.928 37.4609C19.362 35.2999 17.539 33.747 17.066 29.425C17.066 29.425 15.985 32.325 19.092 36.11C22.199 39.895 24.697 39.757 24.765 39.757C25.8348 39.9007 26.9235 39.7847 27.939 39.419C27.939 39.419 30.167 42.187 30.839 42.795C30.839 42.795 23.339 46.914 21.25 44.821C21.25 44.821 21.45 46.914 25.504 45.834C27.6271 45.3165 29.6876 44.5694 31.649 43.606L34.823 46.3059C34.2197 46.7185 33.7053 47.248 33.3102 47.8629C32.9152 48.4778 32.6475 49.1658 32.523 49.886C32.523 49.886 32.456 53.1949 34.954 53.0589C34.4246 52.7523 34.0036 52.2886 33.7494 51.7322C33.4952 51.1757 33.4203 50.5539 33.535 49.9529C33.577 49.3281 33.8053 48.7302 34.1905 48.2364C34.5758 47.7427 35.1001 47.3757 35.696 47.183C37.6889 48.538 39.8743 49.5854 42.179 50.29C45.353 51.101 48.663 51.438 50.756 49.209C49.4596 49.8907 48.0232 50.2636 46.559 50.2983C45.0947 50.3329 43.6422 50.0286 42.3151 49.4089C37.9261 47.2479 38.128 47.316 36.98 46.438C38.5643 45.6398 40.2806 45.1363 42.045 44.9519C45.0836 44.7403 48.0928 44.22 51.026 43.399C52.6759 42.7726 54.2784 42.028 55.821 41.1709C57.601 39.8337 58.9255 37.9802 59.614 35.863C59.6933 35.299 59.7566 34.7303 59.804 34.157C59.7941 32.9005 59.4668 31.6669 58.852 30.571Z" fill="white"/>
<path d="M59.779 22.971C57.8963 16.992 54.1935 11.7501 49.1875 7.97739C44.1815 4.20466 38.1224 2.08942 31.856 1.927H30.272C22.3684 2.1408 14.8669 5.45787 9.39041 11.1605C3.91394 16.8632 0.903047 24.4928 1.00912 32.3985C1.11519 40.3043 4.32975 47.8504 9.95724 53.404C15.5847 58.9577 23.1726 62.0723 31.079 62.074C44.547 62.074 51.779 51.958 60.831 39.755L59.779 22.971ZM31.079 59.188C26.5042 59.1882 22.0032 58.0341 17.9929 55.8327C13.9825 53.6313 10.5924 50.4536 8.13644 46.5939C5.68045 42.7342 4.23801 38.3172 3.94259 33.7519C3.64717 29.1866 4.50837 24.6206 6.44644 20.4765C8.3845 16.3325 11.3368 12.7444 15.0299 10.0445C18.7231 7.34453 23.0378 5.62002 27.5745 5.03061C32.1112 4.4412 36.7233 5.00594 40.9838 6.67255C45.2443 8.33915 49.0154 11.0538 51.948 14.565C48.6802 12.0061 44.7589 10.4174 40.6316 9.98019C36.5042 9.54295 32.337 10.2748 28.6056 12.0922C24.8742 13.9096 21.7288 16.7393 19.5285 20.2585C17.3281 23.7777 16.1613 27.8445 16.1613 31.995C16.1613 36.1455 17.3281 40.2123 19.5285 43.7315C21.7288 47.2507 24.8742 50.0804 28.6056 51.8978C32.337 53.7152 36.5042 54.447 40.6316 54.0098C44.7589 53.5726 48.6802 51.9839 51.948 49.425C49.3991 52.4841 46.2081 54.9446 42.6014 56.6319C38.9947 58.3191 35.0608 59.1918 31.079 59.188ZM59.798 34.688C59.7825 35.0857 59.7181 35.48 59.606 35.862C58.9174 37.9792 57.5929 39.8326 55.813 41.17C54.2704 42.027 52.6679 42.7716 51.018 43.398C48.0848 44.219 45.0756 44.7394 42.037 44.951C40.2726 45.1353 38.5564 45.6388 36.972 46.437C38.12 47.315 37.918 47.246 42.307 49.408C43.6342 50.0276 45.0867 50.332 46.551 50.2973C48.0153 50.2626 49.4517 49.8898 50.748 49.208C48.655 51.437 45.348 51.099 42.171 50.289C39.8664 49.5845 37.6809 48.5371 35.688 47.182C35.0922 47.3746 34.5679 47.7413 34.1826 48.2349C33.7974 48.7285 33.569 49.3263 33.527 49.951C33.4122 50.5519 33.4872 51.1737 33.7414 51.7302C33.9957 52.2867 34.4166 52.7503 34.946 53.057C32.446 53.192 32.515 49.884 32.515 49.884C32.6395 49.1638 32.9072 48.4759 33.3023 47.861C33.6973 47.246 34.2117 46.7166 34.815 46.304L31.641 43.604C29.6796 44.5675 27.6191 45.3145 25.496 45.832C21.445 46.912 21.242 44.819 21.242 44.819C23.335 46.912 30.831 42.793 30.831 42.793C30.156 42.185 27.9311 39.417 27.9311 39.417C26.9155 39.7828 25.8268 39.8988 24.757 39.755C24.69 39.755 22.191 39.889 19.084 36.108C15.977 32.327 17.058 29.423 17.058 29.423C17.531 33.744 19.358 35.298 21.92 37.459C22.6426 38.0808 23.5192 38.4967 24.4578 38.6632C25.3965 38.8296 26.3627 38.7404 27.255 38.405C25.5683 35.711 24.1435 32.8617 23 29.896C22.1663 27.2999 21.756 24.5865 21.785 21.86C22.595 16.052 25.094 15.242 25.094 15.242C23.946 16.188 22.794 19.766 22.794 19.766C22.119 24.898 23.334 27.126 24.347 30.366C25.3668 33.0179 26.7046 35.5363 28.331 37.866C30.964 36.583 31.707 33.41 31.977 32.329C32.247 31.248 32.177 29.629 32.585 27.736C32.993 25.843 34.274 21.186 34.274 21.186C36.165 15.243 38.5281 11.597 39.8741 10.986C41.2201 10.375 41.36 11.121 41.36 11.121C40.414 11.321 40.212 11.121 38.86 12.81C37.508 14.499 36.633 17.401 35.889 19.495C34.8422 22.806 34.0519 26.1927 33.5251 29.625C33.458 31.3064 33.1391 32.9682 32.579 34.555C31.8435 36.3002 30.6251 37.7993 29.067 38.876L31.967 42.253C33.723 41.645 41.624 36.243 46.081 32.461C49.4404 29.7439 52.3169 26.479 54.589 22.804C56.003 20.447 55.361 19.479 55.174 19.27L55.1291 19.225C55.1451 19.2389 55.1601 19.254 55.174 19.27L55.8741 19.97C55.8741 19.97 56.212 19.7 55.807 21.794C55.402 23.888 53.713 25.777 52.295 27.804C50.877 29.831 48.919 31.519 44.795 35.233C40.671 38.947 32.842 43.202 32.842 43.202L35.8141 45.768C38.1422 44.5198 40.7357 43.8484 43.377 43.81C44.796 43.742 49.5901 42.932 49.5901 42.932C58.5041 40.632 59.381 34.963 59.381 34.963L58.165 34.423C57.6441 36.1315 56.8208 37.7325 55.734 39.15C56.134 38.407 55.534 34.085 55.534 34.085C54.1502 34.0649 52.7684 34.2008 51.415 34.49C52.6538 33.409 53.7847 32.2104 54.792 30.911L53.576 26.59C54.6838 26.8614 55.7202 27.3678 56.615 28.075L58.437 25.037C58.8843 26.8464 59.0216 28.7187 58.843 30.574C59.4549 31.6714 59.7796 32.9056 59.787 34.162C59.801 34.331 59.802 34.508 59.798 34.688Z" fill="#DD2B1C"/>
</g>
<defs>
<clipPath id="clip0_40_32658">
<rect width="64" height="64" fill="white"/>
</clipPath>
</defs>
</svg>
