<svg width="64" height="64" viewBox="0 0 64 64" fill="none" xmlns="http://www.w3.org/2000/svg">
<g clip-path="url(#clip0_332_72)">
<path d="M32 64C49.6731 64 64 49.6731 64 32C64 14.3269 49.6731 0 32 0C14.3269 0 0 14.3269 0 32C0 49.6731 14.3269 64 32 64Z" fill="#F5F5F5"/>
<path d="M22.7717 14.1153C16.7593 14.2233 13.519 14.4393 13.015 14.7273C11.5749 15.5554 9.77474 17.9316 9.3067 19.6237C8.91067 20.9198 8.91067 21.6759 9.23469 22.972C9.48671 23.908 13.015 30.4245 17.4073 37.9851C27.0201 54.5464 26.552 53.8263 28.5682 55.0144C31.7004 56.8506 36.1288 56.0585 38.1809 53.2863C38.649 52.6383 42.7173 45.7617 47.1816 38.0571C52.618 28.6964 55.3903 23.548 55.5343 22.5759C55.6783 21.7479 55.6063 20.4158 55.3543 19.5517C54.8142 17.5715 52.438 14.9433 50.7099 14.4753C49.1618 14.0433 35.2287 13.8633 22.7717 14.1153ZM34.1846 18.7956C35.1207 19.5157 43.8334 34.1688 43.8334 34.9969C43.8334 35.825 35.1207 50.4781 34.2206 51.1981C33.0325 52.0982 31.5924 52.0982 30.4403 51.1981C29.5403 50.5141 20.7916 35.825 20.7916 34.9969C20.7916 34.2048 29.1442 20.0557 30.1883 19.0477C31.4484 17.8956 32.9245 17.7876 34.1846 18.7956Z" fill="black"/>
</g>
<defs>
<clipPath id="clip0_332_72">
<rect width="64" height="64" fill="white"/>
</clipPath>
</defs>
</svg>
