<svg width="64" height="64" viewBox="0 0 64 64" fill="none" xmlns="http://www.w3.org/2000/svg">
<g clip-path="url(#clip0_40_32666)">
<path d="M32 64C49.6731 64 64 49.6731 64 32C64 14.3269 49.6731 0 32 0C14.3269 0 0 14.3269 0 32C0 49.6731 14.3269 64 32 64Z" fill="#D9000D"/>
<path d="M13.014 37.775H10.703L11.512 35.464H9.20101L10.01 33.1531H12.321L11.512 35.464H13.823L13.014 37.775ZM47.227 37.775H15.327L16.136 35.464H13.823L14.632 33.1531H12.321L13.13 30.842H10.819L11.628 28.531H13.939L13.13 30.842H15.441L14.632 33.1531H16.941L17.747 30.853H20.058L20.868 28.5381H18.56L17.752 30.8451H15.441L16.25 28.5341H13.939L14.748 26.223H17.059L16.25 28.5341H18.558L19.367 26.223H47.253C46.8633 26.3666 46.491 26.5534 46.143 26.78C45.821 26.9899 45.5226 27.234 45.253 27.5081C44.9911 27.7752 44.7584 28.0696 44.559 28.3861C44.3608 28.7016 44.1956 29.0367 44.066 29.3861C43.9348 29.7402 43.8387 30.1062 43.779 30.479C43.7063 30.9362 43.6845 31.4001 43.714 31.8621C43.7452 32.3447 43.8274 32.8227 43.959 33.2881C44.0981 33.7796 44.2867 34.2557 44.522 34.7091C44.7737 35.1928 45.0721 35.6506 45.413 36.076C45.9325 36.7273 46.5435 37.2989 47.227 37.775ZM37.546 28.5291C37.5634 28.6618 37.5634 28.7963 37.546 28.9291C37.5125 29.155 37.4579 29.3773 37.383 29.593L36.048 33.6641C35.9781 33.8929 35.888 34.115 35.779 34.328C35.7022 34.4698 35.6118 34.6038 35.509 34.728H38.262C38.2389 34.5959 38.2352 34.4612 38.251 34.328C38.2834 34.102 38.3377 33.8796 38.413 33.6641L38.947 32.036H40.634C40.9746 32.0253 41.314 32.0799 41.634 32.197H41.646L42.091 30.8401L42.071 30.8461C41.7148 30.9558 41.3437 31.0094 40.971 31.005H39.288L39.76 29.551H41.688C42.034 29.5374 42.3792 29.5936 42.703 29.7161L42.912 28.524L37.546 28.5291ZM33.904 29.847L32.647 33.666C32.577 33.8948 32.487 34.1171 32.378 34.3301C32.3012 34.4719 32.2108 34.6059 32.108 34.7301H34.87C34.8419 34.5987 34.8355 34.4636 34.851 34.3301C34.8824 34.1039 34.9363 33.8814 35.012 33.666L36.347 29.5951C36.4165 29.3658 36.5072 29.1434 36.618 28.931C36.698 28.7871 36.7943 28.6529 36.905 28.531H33.735L31.319 32.0491H31.3L31.274 28.531H28.017C28.0699 28.6573 28.0896 28.795 28.074 28.931C28.0311 29.1729 27.9669 29.4105 27.882 29.641L26.582 33.615C26.5105 33.8591 26.4182 34.0967 26.306 34.3251C26.2194 34.4747 26.1097 34.6097 25.981 34.7251H27.474C27.4173 34.5999 27.3962 34.4615 27.413 34.3251C27.4593 34.0831 27.5262 33.8455 27.613 33.615L28.847 29.844H28.866L28.931 34.729H30.569L33.887 29.844H33.906L33.904 29.847ZM21.965 29.556H23.041L21.693 33.666C21.6231 33.8948 21.5331 34.1171 21.424 34.3301C21.3472 34.4718 21.2568 34.6058 21.154 34.7301H23.907C23.8839 34.598 23.8802 34.4632 23.896 34.3301C23.9284 34.104 23.9827 33.8816 24.058 33.666L25.406 29.556H26.482C26.6468 29.5495 26.8115 29.5711 26.969 29.62C27.0847 29.664 27.1919 29.7277 27.286 29.8081L27.512 28.5291H21.619L21.005 29.8081C21.2944 29.6345 21.6277 29.5481 21.965 29.5591V29.556ZM52.958 35.728C52.5727 35.7269 52.1887 35.681 51.814 35.5911C51.4236 35.4993 51.0443 35.3651 50.683 35.191C50.3065 35.008 49.9505 34.7855 49.621 34.5271C49.2762 34.2566 48.9614 33.9498 48.682 33.6121C48.4399 33.3207 48.2266 33.0066 48.045 32.6741C47.8752 32.3624 47.7371 32.0344 47.633 31.6951C47.5348 31.3744 47.4708 31.0442 47.442 30.7101C47.4145 30.3915 47.4229 30.0708 47.467 29.754C47.5349 29.2591 47.7019 28.7829 47.958 28.354C48.2188 27.9206 48.571 27.5493 48.99 27.266C49.3199 27.0433 49.6831 26.8745 50.066 26.766C50.4534 26.6558 50.8543 26.6007 51.257 26.6021C51.6864 26.6035 52.1139 26.66 52.529 26.77C52.96 26.8836 53.3759 27.0481 53.768 27.26L53.998 28.6371L52.683 29.004L54.144 29.51L54.385 30.9541L55.043 29.821L56.479 30.321C56.632 30.7246 56.7309 31.1466 56.773 31.576C56.8135 31.9857 56.794 32.3991 56.715 32.8031C56.6381 33.1964 56.4973 33.5743 56.298 33.922C56.0934 34.2763 55.8281 34.5918 55.514 34.854C55.1615 35.1484 54.7573 35.3746 54.322 35.521C53.8819 35.6651 53.4211 35.7361 52.958 35.7311V35.728ZM8.07001 33.1361H5.75901L6.56801 30.8251H8.87901L8.07001 33.1361ZM57.207 32.4501C57.0764 31.7043 56.8322 30.9828 56.483 30.311L55.442 29.129L56.07 28.0491L54.798 28.4041L53.768 27.244C53.4447 27.0242 53.1066 26.8271 52.756 26.6541C52.4112 26.4836 52.0546 26.3378 51.689 26.218H60.774L57.207 32.4501ZM5.53801 30.8411H3.22601L4.03501 28.53H6.34601L5.53801 30.8411ZM10.908 28.53H8.59601L9.40501 26.219H11.716L10.907 28.53H10.908Z" fill="white"/>
</g>
<defs>
<clipPath id="clip0_40_32666">
<rect width="64" height="64" fill="white"/>
</clipPath>
</defs>
</svg>
