<svg width="64" height="64" viewBox="0 0 64 64" fill="none" xmlns="http://www.w3.org/2000/svg">
<g clip-path="url(#clip0_40_32671)">
<path d="M32 64C49.6731 64 64 49.6731 64 32C64 14.3269 49.6731 0 32 0C14.3269 0 0 14.3269 0 32C0 49.6731 14.3269 64 32 64Z" fill="#076E38"/>
<path d="M14.371 26.853C15.6118 33.0947 18.3488 38.942 22.347 43.893C32.0454 36.3961 41.3294 28.3779 50.158 19.874L50.019 19.122L39.619 12.693C38.9327 13.6983 38.0232 14.5313 36.9615 15.1266C35.8998 15.722 34.7147 16.0637 33.499 16.125L14.371 26.853Z" fill="white"/>
<path d="M39.822 12.672C39.822 12.672 39.233 14.357 33.755 17.085C28.455 19.816 14.339 27.037 14.339 27.037C13.8337 23.9627 13.7943 20.8299 14.222 17.744C17.049 16.411 25.63 12.205 25.63 12.205C30.53 17.357 35.203 17.389 39.406 12.546L39.822 12.672Z" fill="#D8002F"/>
<path d="M31.248 51.7279C22.557 47.2929 17.365 36.0639 17.365 36.0639L49.938 19.2209C50.171 25.8445 48.5433 32.4009 45.2397 38.1465C41.936 43.8921 37.0896 48.5971 31.248 51.7279Z" fill="#02863A"/>
<path d="M40.938 23.792L40.877 44.147C40.877 44.147 45.509 38.04 45.57 37.48C45.509 36.432 45.57 21.38 45.57 21.38L40.938 23.792ZM31.311 28.843L31.06 51.795L35.681 48.83L35.806 26.43L31.311 28.843ZM21.738 33.779L21.677 43.16C22.9475 44.734 24.328 46.2161 25.808 47.595C26.059 46.486 25.869 31.686 25.869 31.686L21.738 33.779Z" fill="white"/>
<path d="M18.171 16.8369C17.3949 17.1991 16.7938 17.8538 16.499 18.6579C16.2066 19.4691 16.245 20.3628 16.606 21.1459C16.8463 21.6726 17.2242 22.1249 17.6998 22.455C18.1754 22.7852 18.7312 22.981 19.3087 23.0219C19.8862 23.0629 20.4641 22.9474 20.9816 22.6877C21.499 22.4279 21.9368 22.0335 22.249 21.5459C22.4393 21.2531 22.584 20.9332 22.678 20.5969C22.571 20.7649 22.478 20.9249 22.366 21.0799C22.0329 21.4524 21.6147 21.7389 21.147 21.9149C20.7436 22.042 20.3151 22.0685 19.899 21.9919C19.4754 21.9285 19.0747 21.7591 18.734 21.4995C18.3933 21.2399 18.1236 20.8985 17.95 20.5069C17.7497 20.0897 17.6651 19.6264 17.705 19.1653C17.7449 18.7043 17.908 18.2624 18.177 17.8859C18.5693 17.3285 19.1633 16.9457 19.833 16.8189C20.1819 16.7732 20.5352 16.7732 20.884 16.8189C20.457 16.6272 19.9935 16.5302 19.5254 16.5343C19.0573 16.5384 18.5956 16.6437 18.172 16.8429M23.06 19.3979L23.209 18.5369L24.094 18.3979L23.294 17.9929L23.449 17.1099L22.804 17.7309L22.004 17.3119L22.404 18.1119L21.772 18.7329L22.644 18.6079L23.06 19.3979Z" fill="white"/>
<path d="M19.918 33.278L19.729 32.299L18.724 32.16L19.612 31.688L19.423 30.683L20.164 31.376L21.049 30.888L20.617 31.8L21.353 32.5L20.358 32.367L19.918 33.278Z" fill="black"/>
<path d="M25.458 30.3669L25.263 29.3939L24.252 29.2609L25.152 28.7889L24.957 27.7699L25.704 28.4629L26.584 27.9749L26.147 28.8949L26.888 29.5949L25.899 29.4669L25.458 30.3669Z" fill="#D9002F"/>
<path d="M31 27.4609L30.805 26.4879L29.794 26.3549L30.694 25.883L30.499 24.8669L31.246 25.5599L32.126 25.072L31.689 25.9919L32.43 26.692L31.441 26.564L31 27.4609Z" fill="#FFDC06"/>
<path d="M36.544 24.557L36.349 23.584L35.338 23.451L36.238 22.979L36.043 21.963L36.79 22.656L37.67 22.168L37.233 23.088L37.974 23.788L36.985 23.657L36.544 24.557Z" fill="#02863A"/>
<path d="M42.088 21.648L41.893 20.675L40.882 20.542L41.782 20.07L41.587 19.054L42.334 19.747L43.214 19.259L42.777 20.179L43.518 20.879L42.529 20.751L42.088 21.648Z" fill="#0081BB"/>
<path d="M39.219 17.552L39.624 17.336C39.7942 17.256 39.9537 17.1553 40.099 17.036C40.1505 16.9831 40.1826 16.9144 40.19 16.841C40.1969 16.759 40.1784 16.677 40.137 16.606C40.0984 16.5237 40.0313 16.4583 39.948 16.422C39.8618 16.3903 39.7672 16.3903 39.681 16.422C39.633 16.441 39.5 16.507 39.276 16.622L38.847 16.851L39.219 17.552ZM39.502 19.419L38.059 16.702L39.214 16.089C39.4221 15.9643 39.6491 15.8741 39.886 15.822C40.0429 15.8002 40.2027 15.8322 40.339 15.9129C40.4874 15.9986 40.6079 16.1254 40.686 16.278C40.7905 16.4595 40.822 16.6741 40.774 16.878C40.7077 17.0973 40.566 17.286 40.374 17.411C40.5144 17.4151 40.6535 17.4394 40.787 17.483C40.9716 17.5575 41.1498 17.6468 41.32 17.75L41.933 18.102L41.277 18.451L40.568 18.067C40.4067 17.9754 40.2397 17.8942 40.068 17.824C39.9953 17.798 39.9175 17.7898 39.841 17.8C39.7377 17.8229 39.6387 17.8625 39.548 17.917L39.436 17.976L40.036 19.109L39.502 19.419ZM36.225 19.419C36.3416 19.6803 36.5506 19.8894 36.812 20.006C36.9205 20.0445 37.0359 20.06 37.1508 20.0517C37.2656 20.0433 37.3775 20.0111 37.4793 19.9573C37.5811 19.9034 37.6706 19.829 37.7422 19.7388C37.8137 19.6485 37.8658 19.5444 37.895 19.433C37.9431 19.1474 37.8843 18.854 37.73 18.609C37.616 18.3496 37.4111 18.1409 37.154 18.022C37.0441 17.9867 36.9282 17.9739 36.8132 17.9844C36.6982 17.9948 36.5865 18.0283 36.4847 18.0827C36.3829 18.1372 36.2932 18.2116 36.2207 18.3015C36.1483 18.3914 36.0946 18.4949 36.063 18.606C36.0159 18.888 36.0747 19.1776 36.228 19.419M35.673 19.739C35.5389 19.5038 35.4555 19.2432 35.428 18.974C35.4151 18.8025 35.4331 18.6301 35.481 18.465C35.5242 18.3073 35.5994 18.1603 35.702 18.033C35.8492 17.8584 36.0306 17.7158 36.235 17.614C36.408 17.5113 36.6006 17.4459 36.8003 17.422C37.0001 17.3981 37.2026 17.4161 37.395 17.475C37.5953 17.5495 37.7789 17.6627 37.9353 17.8082C38.0918 17.9537 38.2181 18.1286 38.307 18.323C38.4179 18.5038 38.4917 18.7049 38.5241 18.9145C38.5566 19.1241 38.547 19.3381 38.496 19.544C38.3609 19.9231 38.0893 20.2381 37.7342 20.4275C37.3791 20.6169 36.9661 20.667 36.576 20.568C36.178 20.4218 35.8543 20.1236 35.676 19.739M33.348 19.803L33.761 20.576L34.061 20.419C34.2109 20.3516 34.3495 20.2615 34.472 20.152C34.5143 20.0999 34.5438 20.0386 34.5582 19.973C34.5726 19.9075 34.5714 19.8395 34.5548 19.7745C34.5382 19.7094 34.5065 19.6492 34.4625 19.5986C34.4184 19.548 34.3631 19.5084 34.301 19.483C34.2088 19.4503 34.1082 19.4503 34.016 19.483C33.8779 19.5353 33.7441 19.5985 33.616 19.672L33.348 19.803ZM33.999 22.352L32.554 19.635L33.434 19.168C33.6471 19.0434 33.8723 18.9405 34.106 18.861C34.2852 18.8187 34.4734 18.8396 34.639 18.92C34.8316 19.0145 34.9866 19.1713 35.079 19.365C35.1614 19.5079 35.207 19.6691 35.212 19.834C35.2151 19.9699 35.1849 20.1045 35.124 20.226C35.0697 20.3279 34.9964 20.4185 34.908 20.493C34.7362 20.6228 34.5532 20.7369 34.361 20.834L34.004 21.024L34.537 22.048L33.999 22.352ZM30.954 22.843L31.461 22.504C31.5568 22.6442 31.6981 22.747 31.861 22.795C32.0209 22.8244 32.1859 22.7941 32.325 22.71C32.4724 22.6455 32.5925 22.5311 32.664 22.3869C32.6896 22.3352 32.7029 22.2782 32.7029 22.2205C32.7029 22.1627 32.6896 22.1057 32.664 22.054C32.6334 21.9939 32.5823 21.9467 32.52 21.921C32.4338 21.8925 32.3415 21.888 32.253 21.908C32.1763 21.9206 32.0097 21.959 31.753 22.023C31.5076 22.1011 31.2475 22.1213 30.993 22.082C30.802 22.0365 30.6339 21.9235 30.5198 21.7637C30.4056 21.604 30.3532 21.4084 30.372 21.213C30.3872 21.0453 30.4532 20.8863 30.561 20.757C30.6945 20.599 30.8588 20.47 31.044 20.378C31.3084 20.2123 31.6239 20.148 31.932 20.197C32.0579 20.2271 32.1758 20.2839 32.2779 20.3634C32.38 20.4429 32.4639 20.5433 32.524 20.658L31.991 20.97C31.9192 20.8597 31.8091 20.7799 31.682 20.746C31.5439 20.7317 31.405 20.7637 31.287 20.837C31.151 20.9001 31.0388 21.0052 30.967 21.1369C30.9488 21.17 30.9393 21.2072 30.9393 21.2449C30.9393 21.2827 30.9488 21.3199 30.967 21.353C30.9838 21.3849 31.0077 21.4126 31.0368 21.4339C31.0659 21.4552 31.0995 21.4696 31.135 21.476C31.3386 21.4854 31.5421 21.4566 31.735 21.391C31.9605 21.3242 32.1931 21.2839 32.428 21.271C32.5842 21.2692 32.7379 21.3096 32.873 21.388C33.0183 21.4822 33.1358 21.6133 33.2137 21.768C33.2915 21.9226 33.3269 22.0952 33.316 22.268C33.3016 22.452 33.2299 22.6268 33.111 22.768C32.9621 22.9392 32.781 23.0795 32.578 23.181C32.3042 23.35 31.9785 23.4143 31.661 23.362C31.3698 23.2862 31.119 23.101 30.961 22.845M29.721 23.25L28.809 22.45L28.977 23.6499L29.721 23.25ZM31.3 23.783L30.708 24.098L30.145 23.605L29.054 24.184L29.154 24.923L28.573 25.2319L28.184 21.955L28.765 21.646L31.3 23.783ZM25.735 25.612L26.242 25.273C26.3373 25.4137 26.4788 25.5166 26.642 25.5639C26.8019 25.5936 26.9671 25.5634 27.106 25.479C27.2532 25.4141 27.3731 25.2998 27.445 25.156C27.4701 25.1041 27.4832 25.0471 27.4832 24.9895C27.4832 24.9318 27.4701 24.8749 27.445 24.823C27.4144 24.7629 27.3633 24.7157 27.301 24.69C27.2136 24.6662 27.1214 24.6662 27.034 24.69C26.8646 24.7153 26.6974 24.7538 26.534 24.805C26.2886 24.8828 26.0285 24.9029 25.774 24.864C25.5817 24.8202 25.4117 24.7083 25.2955 24.5489C25.1793 24.3895 25.1248 24.1935 25.142 23.997C25.1589 23.8292 25.2258 23.6703 25.334 23.541C25.4678 23.3841 25.6321 23.2562 25.817 23.165C26.0812 22.9989 26.3968 22.9345 26.705 22.984C26.8307 23.0146 26.9484 23.0715 27.0504 23.151C27.1525 23.2304 27.2365 23.3306 27.297 23.445L26.764 23.757C26.6921 23.6468 26.5821 23.567 26.455 23.533C26.3168 23.5176 26.1775 23.5497 26.06 23.624C25.9239 23.6871 25.8118 23.7923 25.74 23.924C25.7222 23.9572 25.7129 23.9943 25.7129 24.032C25.7129 24.0696 25.7222 24.1067 25.74 24.14C25.757 24.1718 25.7809 24.1993 25.81 24.2206C25.8391 24.2419 25.8726 24.2564 25.908 24.263C26.1116 24.2725 26.3151 24.2436 26.508 24.178C26.7358 24.1109 26.9708 24.0716 27.208 24.061C27.3643 24.0585 27.5182 24.0989 27.653 24.178C27.7986 24.2723 27.9162 24.404 27.9936 24.5593C28.071 24.7146 28.1053 24.8879 28.093 25.061C28.0791 25.2451 28.0074 25.4201 27.888 25.561C27.7389 25.732 27.5579 25.8723 27.355 25.974C27.0816 26.1439 26.7559 26.2093 26.438 26.158C26.1469 26.0821 25.8962 25.8969 25.738 25.641M23.274 26.07L23.679 25.854C23.8485 25.7728 24.0079 25.6721 24.154 25.554C24.207 25.4999 24.2399 25.4293 24.247 25.354C24.2539 25.272 24.2354 25.19 24.194 25.119C24.1552 25.0376 24.0879 24.9733 24.005 24.938C23.9188 24.9062 23.8242 24.9062 23.738 24.938C23.69 24.957 23.557 25.023 23.333 25.143L22.904 25.3699L23.274 26.07ZM23.557 27.937L22.112 25.222L23.267 24.609C23.4751 24.4843 23.7021 24.3941 23.939 24.342C24.0962 24.3213 24.2557 24.354 24.392 24.435C24.5408 24.5202 24.6614 24.6471 24.739 24.8C24.8432 24.9816 24.8747 25.196 24.827 25.3999C24.7609 25.6194 24.6192 25.8082 24.427 25.933C24.5674 25.9369 24.7065 25.9611 24.84 26.005C25.0249 26.0787 25.2032 26.168 25.373 26.272L25.986 26.627L25.33 26.976L24.621 26.592C24.4598 26.4997 24.2928 26.4178 24.121 26.347C24.0484 26.3208 23.9705 26.3126 23.894 26.323C23.7911 26.3472 23.6923 26.3866 23.601 26.44L23.489 26.499L24.089 27.635L23.557 27.937ZM19.464 26.628L20.013 26.337L20.794 27.809C20.8713 27.9634 20.9606 28.1115 21.061 28.252C21.138 28.3482 21.2482 28.412 21.37 28.431C21.5136 28.449 21.6592 28.418 21.783 28.343C21.9129 28.2865 22.019 28.1864 22.083 28.06C22.1273 27.9628 22.1341 27.8528 22.102 27.751C22.0399 27.5875 21.966 27.4288 21.881 27.276L21.081 25.776L21.63 25.483L22.39 26.912C22.5208 27.1394 22.6297 27.3788 22.715 27.627C22.7565 27.7655 22.7631 27.9123 22.734 28.054C22.6992 28.1986 22.6306 28.3329 22.534 28.446C22.399 28.5949 22.2372 28.717 22.057 28.806C21.8613 28.9213 21.6449 28.9974 21.42 29.03C21.2701 29.043 21.1192 29.02 20.98 28.963C20.8603 28.9145 20.7535 28.8388 20.668 28.742C20.5048 28.537 20.3637 28.3155 20.247 28.0809L19.464 26.628ZM18.107 29.311L18.494 30.039L19.003 29.772C19.131 29.7083 19.254 29.6351 19.371 29.553C19.441 29.4989 19.4907 29.4228 19.512 29.337C19.5301 29.2455 19.5141 29.1505 19.467 29.07C19.4292 28.9953 19.3696 28.9339 19.296 28.894C19.2225 28.858 19.1394 28.8468 19.059 28.862C18.8811 28.9122 18.7106 28.9858 18.552 29.0809L18.107 29.311ZM17.534 28.244L17.867 28.871L18.224 28.679C18.4373 28.565 18.569 28.4913 18.619 28.458C18.6989 28.4075 18.7592 28.3313 18.79 28.242C18.8037 28.1977 18.8078 28.151 18.8023 28.1051C18.7968 28.0591 18.7817 28.0147 18.758 27.975C18.7214 27.8986 18.6576 27.8386 18.579 27.807C18.4913 27.7772 18.3955 27.7829 18.312 27.823C18.256 27.847 18.096 27.923 17.84 28.063L17.534 28.244ZM16.734 28.087L17.822 27.5079C17.9799 27.4185 18.1448 27.3419 18.315 27.279C18.4255 27.2403 18.5432 27.227 18.6595 27.24C18.7759 27.253 18.8878 27.2919 18.987 27.354C19.0931 27.4188 19.1798 27.511 19.238 27.621C19.3051 27.7448 19.334 27.8857 19.321 28.026C19.3095 28.1671 19.2566 28.3017 19.169 28.4129C19.34 28.3712 19.5199 28.3871 19.681 28.458C19.8323 28.5283 19.9553 28.6478 20.03 28.797C20.0967 28.9229 20.1333 29.0625 20.137 29.205C20.1435 29.346 20.1143 29.4863 20.052 29.613C19.9809 29.7443 19.8777 29.8554 19.752 29.936C19.667 29.995 19.452 30.117 19.101 30.307L18.176 30.798L16.734 28.087Z" fill="#02863A"/>
<path d="M37.814 32.552C37.7997 32.7935 37.8571 33.034 37.979 33.243C38.0165 33.3124 38.0708 33.3712 38.1371 33.4141C38.2033 33.4569 38.2793 33.4823 38.358 33.488C38.4272 33.4866 38.4949 33.4674 38.5546 33.4324C38.6143 33.3974 38.664 33.3477 38.699 33.288C38.8067 33.0877 38.855 32.8608 38.838 32.634C38.855 32.3971 38.8032 32.1603 38.689 31.952C38.6524 31.8878 38.5994 31.8344 38.5355 31.7972C38.4716 31.7601 38.3989 31.7405 38.325 31.7405C38.2511 31.7405 38.1784 31.7601 38.1145 31.7972C38.0506 31.8344 37.9976 31.8878 37.961 31.952C37.8508 32.1359 37.7995 32.3491 37.814 32.563M39.489 30.563L38.772 30.663C38.7676 30.5191 38.7202 30.3798 38.636 30.263C38.6015 30.2209 38.558 30.1873 38.5086 30.1646C38.4592 30.1419 38.4053 30.1308 38.351 30.132C38.2664 30.1359 38.1844 30.1629 38.1139 30.2099C38.0434 30.257 37.9871 30.3223 37.951 30.399C37.8084 30.7418 37.7402 31.1109 37.751 31.482C37.8208 31.3611 37.9211 31.2606 38.0417 31.1904C38.1624 31.1202 38.2994 31.0828 38.439 31.082C38.5979 31.0837 38.754 31.1245 38.8935 31.2007C39.033 31.2769 39.1517 31.3862 39.239 31.519C39.4712 31.848 39.5876 32.2447 39.57 32.647C39.59 33.0669 39.4678 33.4813 39.223 33.823C39.1207 33.9633 38.9862 34.077 38.8308 34.1545C38.6754 34.2319 38.5036 34.2708 38.33 34.268C38.1345 34.266 37.943 34.2128 37.7745 34.1137C37.6061 34.0145 37.4666 33.8729 37.37 33.703C37.075 33.1351 36.9447 32.496 36.994 31.858C36.9434 31.2004 37.0793 30.5419 37.386 29.958C37.4907 29.781 37.6398 29.6343 37.8185 29.5325C37.9972 29.4306 38.1993 29.377 38.405 29.377C38.5413 29.373 38.6768 29.3983 38.8024 29.4513C38.928 29.5043 39.0407 29.5836 39.133 29.684C39.3453 29.9344 39.474 30.2449 39.501 30.572M28.834 38.991H28.095V35.524C27.8371 35.8302 27.5097 36.0702 27.14 36.224V35.392C27.3753 35.2837 27.5886 35.1329 27.769 34.947C27.9891 34.7382 28.1501 34.475 28.236 34.184H28.836L28.834 38.991Z" fill="white"/>
<path d="M42.136 30.2019L42.853 30.0949C42.8608 30.2823 42.9238 30.4632 43.034 30.6149C43.0758 30.671 43.1301 30.7166 43.1926 30.748C43.2551 30.7794 43.3241 30.7958 43.394 30.7959C43.471 30.795 43.5465 30.7748 43.6136 30.737C43.6807 30.6993 43.7372 30.6452 43.778 30.5799C43.89 30.4076 43.9443 30.2041 43.933 29.9989C43.9436 29.8053 43.8913 29.6134 43.784 29.4519C43.7446 29.3913 43.6909 29.3414 43.6275 29.3065C43.5642 29.2716 43.4933 29.2529 43.421 29.2519C43.3051 29.2559 43.1907 29.2786 43.082 29.3189L43.165 28.5779C43.2484 28.5868 43.3327 28.5768 43.4117 28.5486C43.4906 28.5204 43.5622 28.4747 43.621 28.4149C43.7303 28.289 43.7866 28.1255 43.778 27.9589C43.7847 27.8206 43.7434 27.6842 43.661 27.5729C43.6249 27.5264 43.5782 27.489 43.5248 27.464C43.4715 27.439 43.4129 27.427 43.354 27.4289C43.2909 27.4289 43.2286 27.4436 43.1722 27.4719C43.1158 27.5002 43.0667 27.5413 43.029 27.5919C42.9294 27.7317 42.8727 27.8974 42.866 28.0689L42.189 27.9249C42.2196 27.6812 42.2917 27.4444 42.402 27.2249C42.4943 27.0532 42.6329 26.9108 42.802 26.8139C42.9761 26.7135 43.1741 26.662 43.375 26.6649C43.545 26.6603 43.7136 26.6972 43.866 26.7725C44.0185 26.8478 44.1503 26.9591 44.25 27.0969C44.4261 27.3262 44.5201 27.6079 44.517 27.8969C44.52 28.0989 44.4701 28.2981 44.3724 28.4749C44.2747 28.6517 44.1326 28.7999 43.96 28.9049C44.1822 28.9624 44.3734 29.104 44.493 29.2999C44.6309 29.522 44.7004 29.7796 44.693 30.0409C44.7017 30.4296 44.57 30.8085 44.322 31.1079C44.2129 31.2483 44.0728 31.3615 43.9127 31.4387C43.7526 31.5159 43.5767 31.555 43.399 31.5529C43.2361 31.5569 43.0743 31.5256 42.9247 31.4613C42.775 31.3969 42.6411 31.3009 42.532 31.1799C42.2916 30.9084 42.1505 30.5632 42.132 30.2009M33.999 33.3499C34.0126 33.1103 33.9552 32.8721 33.834 32.6649C33.7969 32.5954 33.7425 32.5366 33.6762 32.494C33.6098 32.4515 33.5337 32.4267 33.455 32.4219C33.386 32.4232 33.3186 32.4423 33.2592 32.4773C33.1998 32.5124 33.1505 32.5622 33.116 32.6219C33.0088 32.8231 32.9616 33.0507 32.98 33.2779C32.9631 33.513 33.0141 33.748 33.127 33.9549C33.1645 34.0196 33.2182 34.0734 33.2826 34.1113C33.3471 34.1491 33.4203 34.1697 33.495 34.1709C33.5672 34.1691 33.6378 34.1491 33.7002 34.1127C33.7626 34.0764 33.8148 34.0248 33.852 33.9629C33.9612 33.7786 34.0124 33.5657 33.999 33.3519M32.332 35.3519L33.049 35.2519C33.0538 35.3958 33.1011 35.535 33.185 35.6519C33.2198 35.6944 33.2638 35.7283 33.3138 35.751C33.3637 35.7737 33.4182 35.7846 33.473 35.7829C33.5557 35.7778 33.6354 35.7502 33.7036 35.7031C33.7717 35.6561 33.8258 35.5914 33.86 35.5159C34.001 35.172 34.0691 34.8025 34.06 34.4309C33.9871 34.5518 33.8846 34.652 33.7621 34.722C33.6395 34.792 33.5011 34.8295 33.36 34.8309C33.2038 34.8275 33.0508 34.7861 32.9142 34.7103C32.7776 34.6346 32.6615 34.5266 32.576 34.3959C32.3429 34.0662 32.2265 33.6682 32.245 33.2649C32.2251 32.8463 32.3482 32.4334 32.594 32.0939C32.6956 31.9541 32.8293 31.8407 32.9838 31.7633C33.1383 31.6859 33.3092 31.6466 33.482 31.6489C33.6777 31.6506 33.8695 31.7035 34.0384 31.8023C34.2074 31.901 34.3475 32.0423 34.445 32.2119C34.7397 32.7828 34.8699 33.4244 34.821 34.0649C34.8706 34.7202 34.7348 35.3763 34.429 35.9579C34.3242 36.1349 34.1752 36.2816 33.9965 36.3835C33.8178 36.4854 33.6157 36.5389 33.41 36.5389C33.2742 36.5443 33.1389 36.5202 33.0132 36.4685C32.8876 36.4167 32.7746 36.3384 32.682 36.2389C32.4729 35.983 32.3482 35.6686 32.325 35.3389" fill="#02863A"/>
</g>
<defs>
<clipPath id="clip0_40_32671">
<rect width="64" height="64" fill="white"/>
</clipPath>
</defs>
</svg>
