<svg width="64" height="64" viewBox="0 0 64 64" fill="none" xmlns="http://www.w3.org/2000/svg">
<g clip-path="url(#clip0_124_142)">
<path d="M0 0H64V64H0V0Z" fill="url(#paint0_linear_124_142)"/>
<path fill-rule="evenodd" clip-rule="evenodd" d="M44.64 28.976L44.6354 39.9806C44.5897 43.7349 44.4137 45.5657 40.7611 48.7269C38.4183 50.5097 35.3383 51.4937 32.3566 51.4172C28.2891 51.5623 24.1154 50.352 21.472 46.88C20.0606 44.8434 19.4229 42.0114 19.4229 39.2023V16.4651C20.4366 15.9303 22.0286 15.4389 23.3966 15.1611C25.3086 14.7669 27.3829 14.5749 29.3451 14.9086C30.4149 15.088 31.6549 15.5291 32.8606 16.0971C33.8274 16.5543 35.2354 17.4446 36.3943 18.0171C38.336 18.9714 39.9691 19.4686 42.1509 18.976C42.9211 18.8046 43.7589 18.112 44.64 17.3303V28.976Z" fill="#A21A2F"/>
<path fill-rule="evenodd" clip-rule="evenodd" d="M19.4229 25.872V31.6046C20.5024 30.1363 21.9913 29.0192 23.7029 28.3931C26.3314 27.5726 30.32 27.9817 31.5463 29.184C26.8263 29.3897 23.192 32.1474 21.544 36.5017C20.6297 39.3931 20.7669 41.8343 21.3806 43.752C22.8137 48.2297 27.3508 50.8343 31.8628 50.8434C35.0148 50.848 39.2457 50.0526 41.4251 46.6332C42.8423 44.336 43.7177 40.1303 40.9303 37.5394C39.5474 36.2503 38.4697 36.0629 37.5303 35.8252C36.592 35.5886 35.4057 35.3154 34.8274 34.5006C34.4811 34.0206 34.4468 33.3794 34.9257 32.9783C35.1634 32.7863 35.5988 32.672 35.9097 32.672C36.5177 32.672 37.2297 32.9886 37.728 33.176L38.168 31.808C38.168 31.808 37.4469 31.1646 36.1966 30.7897L36.2994 30.5771C40.456 30.528 42.1806 30.3052 44.6423 28.9863V27.2069C43.2137 28.1154 41.5577 28.7086 39.888 28.7086C37.2937 28.7086 35.4228 27.2869 33.3348 26.0057C30.9806 24.5886 28.912 23.2446 26.0503 23.0903C23.5303 23.0057 20.8914 24.4286 19.4229 25.872ZM34.3428 30.7349C32.7657 31.5314 31.8628 32.6629 31.8868 34.1897C31.912 35.5783 33.2857 37.1394 36.344 38.0149C38.8697 38.7554 38.9246 42.7691 36.5726 44.0731C31.2583 47.1931 24.1086 41.5223 26.8171 35.6377C28.0571 32.9349 31.1748 30.4789 34.3428 30.7349Z" fill="#00B9EB"/>
<path fill-rule="evenodd" clip-rule="evenodd" d="M29.4103 22.2754C29 21.4457 29.0057 20.5554 29.0446 20.4023C30.2011 19.3988 31.4857 18.7371 32.7268 18.7177C32.8548 19.4286 32.8057 20.0857 32.6628 20.4914C32.0994 20.2628 29.4948 21.856 29.4103 22.2754ZM29.1588 19.7554C29.4148 18.3417 30.8537 17.1497 32.3908 17.0514C32.5634 17.4674 32.6423 17.744 32.6823 18.2571C30.7006 18.5051 30.0137 19.1188 29.1588 19.7554ZM35.7703 22.512C35.2526 23.3177 34.4114 23.9063 34.224 23.8914C32.8251 23.2594 31.7783 22.5966 31.2388 21.4846C31.8366 21.016 32.336 20.9166 32.6823 20.8868C33.5817 22.0526 35.3451 22.616 35.7703 22.512ZM33.744 24.1143C32.3017 24.568 30.3886 23.9703 29.6274 22.6366C29.9291 22.2948 30.3886 21.9543 30.8434 21.6926C31.9166 23.392 32.816 23.6194 33.744 24.1143ZM32.88 17.0468C33.8034 17.1108 34.5794 17.5851 34.6983 17.704C34.9954 19.2068 34.8811 20.5748 34.2731 21.6674C33.6057 21.416 33.1908 20.808 33.0777 20.768C33.4731 19.5326 33.1508 17.7188 32.88 17.0468ZM35.1486 18.0697C36.2343 19.0526 36.6 20.7668 35.9188 22.1817C35.4297 22.2011 35.2274 22.1131 34.7634 21.8903C35.5383 20.0366 35.2811 19.1131 35.1486 18.0697Z" fill="white"/>
<path d="M32.3726 8L33.0789 10.1726H35.3646L33.5154 11.5166L34.2217 13.6891L32.3726 12.3463L30.5246 13.6891L31.2309 11.5166L29.3817 10.1714H31.6674L32.3726 8Z" fill="white"/>
</g>
<defs>
<linearGradient id="paint0_linear_124_142" x1="11.9063" y1="11.0994" x2="77.8823" y2="86.8766" gradientUnits="userSpaceOnUse">
<stop stop-color="#1A1E21"/>
<stop offset="1" stop-color="#06060A"/>
</linearGradient>
<clipPath id="clip0_124_142">
<rect width="64" height="64" rx="32" fill="white"/>
</clipPath>
</defs>
</svg>
