<svg width="64" height="64" viewBox="0 0 64 64" fill="none" xmlns="http://www.w3.org/2000/svg">
<g clip-path="url(#clip0_407_196)">
<path d="M32 64C49.6731 64 64 49.6731 64 32C64 14.3269 49.6731 0 32 0C14.3269 0 0 14.3269 0 32C0 49.6731 14.3269 64 32 64Z" fill="#F5F5F5"/>
<path d="M39.7343 9.65485C41.8563 8.29372 44.1572 7.99636 45.5797 8.00003C47.0014 8.01105 48.4176 8.23867 49.7813 8.7618C50.4568 9.01786 51.1443 9.36665 51.7363 9.75855C52.3383 10.155 52.8973 10.6139 53.4048 11.1232C54.4171 12.142 55.2266 13.3718 55.7139 14.7292C55.958 15.4057 56.1252 16.1106 56.2095 16.8209C56.2573 17.1871 56.2674 17.5047 56.283 17.8378C56.2894 18.1664 56.2922 18.495 56.2775 18.8189C56.2298 20.1186 56.0214 21.3842 55.6827 22.6122C55.3423 23.8393 54.8631 25.0306 54.218 26.1539C54.0491 26.4329 53.8766 26.7156 53.7104 26.956C53.5424 27.2066 53.3773 27.4581 53.1992 27.7022C52.8532 28.1951 52.4925 28.676 52.1208 29.1469C49.1435 32.9245 45.453 35.9642 41.5607 38.534C37.6592 41.1102 33.5347 43.2523 29.3633 45.255C33.3428 42.8953 37.2526 40.4026 40.8448 37.5465C44.4325 34.7004 47.6998 31.4588 50.1438 27.7187C50.4495 27.2525 50.7432 26.7799 51.0213 26.299C51.1644 26.0612 51.2957 25.8162 51.4297 25.5739C51.5719 25.3251 51.6775 25.1003 51.7894 24.8745C52.2126 23.9467 52.5145 22.9426 52.6981 21.9174C52.8807 20.8932 52.9514 19.8469 52.8936 18.8336C52.8817 18.5794 52.855 18.3298 52.8275 18.082C52.7917 17.8396 52.7596 17.5799 52.7072 17.3762C52.61 16.9448 52.465 16.5291 52.275 16.1344C51.8968 15.3442 51.3251 14.6503 50.6478 14.0951C50.3082 13.8179 49.9411 13.5747 49.5529 13.3737C49.1545 13.1691 48.7864 13.0286 48.367 12.9139C46.8206 12.5862 46.5406 12.5467 45.1786 12.7863C45.1786 12.7863 43.7377 11.6702 42.7226 11.0691C41.3294 10.2422 39.7343 9.65485 39.7343 9.65485Z" fill="#0092D5"/>
<path d="M42.1541 39.4315C38.4076 41.9059 33.715 44.2894 30.2695 45.9671C31.8335 46.203 33.4506 46.2507 35.0962 46.0736C43.2939 45.1943 49.6955 39.1902 51.4678 31.5908C48.9668 34.3763 45.9014 36.9572 42.1541 39.4315Z" fill="url(#paint0_linear_407_196)"/>
<path d="M28.4233 39.0788C28.4692 39.5139 28.8565 43.3677 28.9455 44.2487C32.1697 42.3342 36.3282 39.7598 40.1728 36.7027C44.1019 33.5849 47.0682 30.4534 49.2406 27.1292C49.5444 26.6666 49.8289 26.2068 50.0868 25.7598C50.2043 25.5653 50.3033 25.3835 50.4025 25.2027L50.4842 25.0531C50.5925 24.8641 50.6732 24.6989 50.7596 24.5236L50.8136 24.4134C51.0137 23.9729 51.2139 23.3626 51.358 22.5807C49.0616 13.6514 40.5069 7.52244 31.0684 8.53384C20.7019 9.64532 13.1999 18.9499 14.3113 29.3163C14.4738 30.8315 14.8162 32.2826 15.3062 33.6574C19.3583 34.0961 23.8702 34.5835 23.9013 34.5863L27.1053 31.4418C28.7142 29.6724 31.3253 29.408 32.4945 30.424C33.6326 31.4125 33.5721 34.0172 32.0155 35.5444L28.4233 39.0788Z" fill="#FF6700"/>
<path d="M39.7347 9.65485C41.8567 8.29372 44.1576 7.99636 45.5801 8.00003C47.0018 8.01105 48.418 8.23867 49.7817 8.7618C50.4573 9.01786 51.1447 9.36665 51.7367 9.75855C52.3388 10.155 52.8977 10.6139 53.4052 11.1232C54.4175 12.142 55.227 13.3718 55.7143 14.7292C55.9584 15.4057 56.1256 16.1106 56.2099 16.8209C56.2577 17.1871 56.2678 17.5047 56.2834 17.8378C56.2898 18.1664 56.2926 18.495 56.2779 18.8189C56.2302 20.1186 56.0219 21.3842 55.6832 22.6122C55.3427 23.8393 54.8635 25.0306 54.2184 26.1539C54.0495 26.4329 53.877 26.7156 53.7109 26.956C53.5428 27.2066 53.3777 27.4581 53.1996 27.7022C52.8536 28.1951 52.4929 28.676 52.1212 29.1469C49.1439 32.9245 45.4535 35.9642 41.5611 38.534C37.7908 41.0231 33.5387 43.4268 29.505 45.3762C29.4775 45.3899 29.4216 45.4166 29.4216 45.4166C29.4216 45.4166 29.3518 45.3211 29.3242 45.277C29.3343 45.2715 29.3618 45.2541 29.3719 45.2485C33.3414 42.8935 37.2621 40.3944 40.8461 37.5455C44.4338 34.6995 47.7011 31.4578 50.1452 27.7178C50.4508 27.2516 50.7446 26.7789 51.0226 26.298C51.1658 26.0603 51.297 25.8153 51.431 25.5729C51.5733 25.3242 51.6788 25.0994 51.7908 24.8736C52.2139 23.9457 52.5159 22.9417 52.6994 21.9165C52.8821 20.8923 52.9528 19.846 52.8949 18.8327C52.883 18.5785 52.8564 18.3289 52.8288 18.0811C52.7931 17.8387 52.7609 17.579 52.7086 17.3753C52.6113 16.9439 52.4663 16.5282 52.2763 16.1335C51.8982 15.3432 51.3264 14.6494 50.6491 14.0942C50.3095 13.817 49.9424 13.5738 49.5542 13.3728C49.1558 13.1681 48.7878 13.0277 48.3683 12.9129C46.8219 12.5853 46.5419 12.5458 45.1799 12.7854C45.1799 12.7854 43.7391 11.6693 42.7239 11.0682C41.3298 10.2422 39.7347 9.65485 39.7347 9.65485Z" fill="#008BF1"/>
<path d="M32.074 30.712C30.6955 30.0943 28.8939 30.3633 24.4683 35.2368C24.3205 35.3991 24.1719 35.5635 24.0222 35.7296L19.7582 35.111L20.1143 34.7558C20.2602 34.6099 20.2602 34.374 20.1152 34.2281L19.8032 33.9151C19.6572 33.7692 19.4213 33.7692 19.2754 33.9142L18.2897 34.8981L13.9843 34.273L14.2028 34.0546C14.3488 33.9086 14.3488 33.6728 14.2038 33.5268L13.8917 33.2139C13.7458 33.068 13.5099 33.068 13.364 33.2129L12.5159 34.0592L9.06226 33.5581L7 35.6158L19.9059 40.4296C17.6244 43.0894 15.4344 45.7169 13.91 47.5626L9.45508 46.7734L8.08299 48.1418L12.0634 50.2371L11.4486 51.5147L12.727 50.9025L14.8131 54.8876L16.1852 53.5191L15.407 49.0623C17.2563 47.5425 19.8894 45.3581 22.5538 43.0829L27.3355 55.9998L29.3978 53.9422L28.9039 50.4876L29.7521 49.6414C29.8979 49.4955 29.8979 49.2596 29.753 49.1137L29.4408 48.8007C29.295 48.6548 29.0591 48.6548 28.9132 48.7998L28.6948 49.0183L28.0798 44.7119L29.0655 43.7281C29.2114 43.5822 29.2114 43.3463 29.0664 43.2004L28.7544 42.8874C28.6084 42.7415 28.3726 42.7415 28.2266 42.8865L27.8706 43.2417L27.2611 38.9757C27.4281 38.8262 27.5934 38.6775 27.7558 38.5306C32.6394 34.1161 32.9129 32.3154 32.298 30.935C32.253 30.8368 32.1731 30.7561 32.074 30.712Z" fill="#008BF1"/>
</g>
<defs>
<linearGradient id="paint0_linear_407_196" x1="30.2693" y1="38.885" x2="51.4677" y2="38.885" gradientUnits="userSpaceOnUse">
<stop stop-color="#FF9200"/>
<stop offset="0.9944" stop-color="#FFCE00"/>
</linearGradient>
<clipPath id="clip0_407_196">
<rect width="64" height="64" fill="white"/>
</clipPath>
</defs>
</svg>
