<svg xmlns="http://www.w3.org/2000/svg" width="64" height="64" viewBox="0 0 64 64"><g transform="translate(-286 -1735)"><circle cx="32" cy="32" r="32" transform="translate(286 1735)" fill="#ff090f"/><g transform="translate(296.773 1748.298)"><path d="M40.368,12.473C38.427,10.681,35.742,7.944,33.555,6l-.129-.091a2.471,2.471,0,0,0-.718-.4h0C27.435,4.528,2.9-.059,2.417,0a.906.906,0,0,0-.375.142l-.123.1a1.443,1.443,0,0,0-.336.543L1.55.867V1.4C4.313,9.09,15.22,34.289,17.368,40.2c.129.4.375,1.165.835,1.2h.1c.246,0,1.294-1.385,1.294-1.385S38.336,17.3,40.232,14.88a6.121,6.121,0,0,0,.647-.958A1.559,1.559,0,0,0,40.368,12.473ZM24.407,15.119l8-6.631,4.69,4.322ZM21.3,14.686,7.534,3.4,29.809,7.511Zm1.242,2.957,14.091-2.271L20.525,34.78ZM5.665,4.528,20.15,16.821l-2.1,17.973Z" transform="translate(0 0)" fill="#fff"/></g></g></svg>