<svg width="64" height="64" viewBox="0 0 64 64" fill="none" xmlns="http://www.w3.org/2000/svg">
<g clip-path="url(#clip0_40_32694)">
<path d="M32 64C49.6731 64 64 49.6731 64 32C64 14.3269 49.6731 0 32 0C14.3269 0 0 14.3269 0 32C0 49.6731 14.3269 64 32 64Z" fill="#CC2E2E"/>
<path d="M30.2109 17.256V46.347L25.8359 46.503V17.256H30.2109ZM37.6109 33.336H42.0289C42.1153 35.8967 41.6049 38.4425 40.5379 40.772C39.6394 42.6535 38.1867 44.215 36.3749 45.247C34.4619 46.2793 32.3132 46.7963 30.1399 46.747C29.3253 46.747 28.5303 46.725 27.7549 46.681C26.9796 46.637 26.3399 46.5776 25.8359 46.503L30.1359 42.881C31.4719 42.9039 32.7917 42.5863 33.9709 41.958C35.1638 41.2691 36.0989 40.2093 36.6339 38.94C37.3548 37.1628 37.6879 35.2522 37.6109 33.336ZM35.7789 19.5V23.264L21.9719 28.875V25.125L35.7789 19.5ZM35.7789 26.105V29.841L21.9719 35.452V31.702L35.7789 26.105Z" fill="white"/>
</g>
<defs>
<clipPath id="clip0_40_32694">
<rect width="64" height="64" fill="white"/>
</clipPath>
</defs>
</svg>
