<svg width="64" height="64" viewBox="0 0 64 64" fill="none" xmlns="http://www.w3.org/2000/svg">
<g clip-path="url(#clip0_40_32698)">
<path d="M32.0001 64C38.3321 64 44.5217 62.1215 49.7856 58.6021C55.0495 55.0828 59.1509 50.081 61.5709 44.2297C63.9908 38.3783 64.6204 31.9406 63.38 25.7313C62.1396 19.522 59.0849 13.8203 54.6026 9.34783C50.1203 4.87535 44.4119 1.83318 38.1999 0.606374C31.988 -0.620436 25.5516 0.0232661 19.7056 2.45601C13.8596 4.88875 8.86676 9.00116 5.35899 14.2727C1.85121 19.5443 -0.0137746 25.7381 7.65974e-05 32.07C0.0241544 40.5431 3.40553 48.6612 9.40349 54.6461C15.4014 60.6309 23.527 63.9945 32.0001 64Z" fill="#9247FF"/>
<mask id="mask0_40_32698" style="mask-type:luminance" maskUnits="userSpaceOnUse" x="12" y="14" width="40" height="41">
<path d="M51.4309 14.344H12.5699V54.398H51.4309V14.344Z" fill="white"/>
</mask>
<g mask="url(#mask0_40_32698)">
<path d="M51.4309 25.744C51.4309 25.744 37.6299 50.197 36.2799 52.597C34.9299 54.997 32.8299 54.997 31.4799 52.597C30.1299 50.197 15.1159 22.821 13.6279 20.194C11.6779 16.752 12.5089 14.344 15.4279 14.344H26.3789C28.9289 14.344 30.4719 14.644 32.1009 17.944C33.7299 21.244 35.9799 26.044 37.1789 27.395C38.3779 28.746 43.1789 34.445 51.4299 25.745" fill="white"/>
</g>
</g>
<defs>
<clipPath id="clip0_40_32698">
<rect width="64" height="64" fill="white"/>
</clipPath>
</defs>
</svg>
