<svg xmlns="http://www.w3.org/2000/svg" xmlns:xlink="http://www.w3.org/1999/xlink" width="64" height="64" viewBox="0 0 64 64">
  <defs>
    <clipPath id="clip-path">
      <path id="Path_7642" data-name="Path 7642" d="M32,64A32,32,0,1,0,0,32.07,32.021,32.021,0,0,0,32,64Z" fill="#7e1bcc"/>
    </clipPath>
    <clipPath id="clip-path-2">
      <rect id="Rectangle_1656" data-name="Rectangle 1656" width="38.861" height="40.054" fill="none"/>
    </clipPath>
  </defs>
  <g id="tvk" transform="translate(-478.93 -7217.402)">
    <g id="Group_5290" data-name="Group 5290" transform="translate(478.93 7217.402)">
      <g id="Group_5315" data-name="Group 5315">
        <path id="Path_7640" data-name="Path 7640" d="M32,64A32,32,0,1,0,0,32.07,32.021,32.021,0,0,0,32,64Z" fill="#9247ff"/>
        <g id="Group_5326" data-name="Group 5326" transform="translate(12.57 14.344)">
          <g id="Group_5325" data-name="Group 5325" clip-path="url(#clip-path-2)">
            <path id="Path_10011" data-name="Path 10011" d="M38.861,11.4S25.06,35.853,23.71,38.253s-3.45,2.4-4.8,0S2.546,8.477,1.058,5.85C-.892,2.408-.061,0,2.858,0H13.809c2.55,0,4.093.3,5.722,3.6s3.879,8.1,5.078,9.451,6,7.05,14.251-1.65" transform="translate(0)" fill="#fff"/>
          </g>
        </g>
      </g>
    </g>
  </g>
</svg>
