<svg width="64" height="64" viewBox="0 0 64 64" fill="none" xmlns="http://www.w3.org/2000/svg">
<g clip-path="url(#clip0_482_124)">
<path d="M32 64.001C49.6731 64.001 64 49.6741 64 32.001C64 14.3279 49.6731 0.000976562 32 0.000976562C14.3269 0.000976562 0 14.3279 0 32.001C0 49.6741 14.3269 64.001 32 64.001Z" fill="#E7C049"/>
<path d="M17.3121 36.4992C17.4282 36.5028 17.5423 36.4673 17.6362 36.3983C17.7301 36.3293 17.7985 36.2308 17.8305 36.1184L21.1905 24.1408C21.2182 24.0469 21.2801 24 21.3761 24H26.4001C26.5238 24 26.5686 24.0597 26.5345 24.1792C25.359 28.448 24.1729 32.7125 22.9761 36.9728C22.7201 37.8837 22.4395 38.5152 22.1345 38.8672C20.7553 40.4704 15.7857 40.0128 13.0369 39.9744C11.7313 39.9552 9.99368 39.776 9.42408 38.4864C9.05928 37.6608 9.51048 36.688 9.71528 35.9136C10.7691 31.984 11.8518 28.0747 12.9633 24.1856C12.978 24.1323 13.0097 24.0854 13.0536 24.0518C13.0975 24.0183 13.1512 24.0001 13.2065 24H18.1537C18.1801 24.0001 18.2062 24.0062 18.23 24.018C18.2537 24.0298 18.2744 24.0468 18.2904 24.0678C18.3065 24.0889 18.3176 24.1133 18.3227 24.1393C18.3278 24.1652 18.3269 24.192 18.3201 24.2176L15.0497 35.936C15.0337 35.9928 15.0309 36.0525 15.0416 36.1106C15.0522 36.1688 15.076 36.2237 15.1111 36.2715C15.1462 36.3192 15.1917 36.3585 15.2443 36.3863C15.2968 36.4141 15.355 36.4297 15.4145 36.432L17.3121 36.4992Z" fill="black"/>
<path d="M45.3598 36.4608L51.5422 36.4896C51.5642 36.4895 51.586 36.4943 51.6058 36.5039C51.6257 36.5134 51.643 36.5274 51.6566 36.5447C51.6702 36.562 51.6797 36.5822 51.6843 36.6037C51.6888 36.6252 51.6884 36.6475 51.683 36.6688L50.8574 39.84C50.8318 39.9424 50.7668 39.9936 50.6622 39.9936C48.2985 40.0043 45.9454 40.0118 43.603 40.016C41.2254 40.0192 38.5502 39.6768 39.459 36.4288C40.2612 33.5638 41.0558 30.6987 41.843 27.8336C42.355 25.9616 42.6654 24.4352 44.5534 24.2144C47.0708 23.92 50.3956 23.8742 54.5278 24.0768C54.6494 24.0832 54.6964 24.1462 54.6686 24.2656L53.9198 27.2928C53.8878 27.423 53.8046 27.488 53.6702 27.488L47.8814 27.5328C47.6406 27.5349 47.4071 27.615 47.2161 27.7611C47.025 27.9071 46.8868 28.1111 46.8222 28.3424C46.1993 30.5611 45.5593 32.8416 44.9022 35.184C44.7998 35.5424 44.7796 35.8006 44.8414 35.9584C44.9758 36.2934 45.1486 36.4608 45.3598 36.4608Z" fill="black"/>
<path d="M38.973 30.3264L38.0866 33.4784C38.0769 33.5133 38.056 33.5441 38.0271 33.5661C37.9982 33.588 37.9629 33.5999 37.9266 33.6H31.9586C31.9224 33.6 31.8871 33.612 31.8582 33.6339C31.8293 33.6559 31.8084 33.6867 31.7986 33.7216L30.077 39.8784C30.0673 39.9133 30.0464 39.9441 30.0175 39.9661C29.9886 39.988 29.9533 39.9999 29.917 40H24.9122C24.8866 40 24.8613 39.994 24.8383 39.9825C24.8154 39.9711 24.7953 39.9545 24.7799 39.9341C24.7644 39.9136 24.7538 39.8899 24.749 39.8647C24.7442 39.8395 24.7453 39.8135 24.7522 39.7888L27.4402 30.1856C27.4501 30.1501 27.4715 30.1189 27.5011 30.0969C27.5306 30.0749 27.5666 30.0633 27.6034 30.064L38.8162 30.1152C38.8416 30.1157 38.8665 30.122 38.8891 30.1337C38.9117 30.1453 38.9313 30.162 38.9464 30.1824C38.9615 30.2027 38.9718 30.2263 38.9764 30.2513C38.981 30.2763 38.9799 30.3019 38.973 30.3264Z" fill="black"/>
<path d="M29.3056 24H40.4192C40.4525 24.0003 40.4854 24.0082 40.5151 24.0232C40.5449 24.0382 40.5709 24.0598 40.591 24.0864C40.6111 24.113 40.6248 24.1438 40.6311 24.1766C40.6373 24.2093 40.636 24.2431 40.6272 24.2752L39.7856 27.36C39.7729 27.4062 39.7454 27.4469 39.7072 27.4759C39.669 27.5048 39.6223 27.5203 39.5744 27.52H28.4352C28.4012 27.5204 28.3677 27.5128 28.3372 27.4978C28.3067 27.4829 28.2801 27.461 28.2596 27.4339C28.239 27.4069 28.2251 27.3754 28.219 27.342C28.2128 27.3086 28.2145 27.2742 28.224 27.2416L29.0976 24.1568C29.1107 24.1117 29.1381 24.0721 29.1756 24.0438C29.213 24.0156 29.2587 24.0002 29.3056 24Z" fill="black"/>
</g>
<defs>
<clipPath id="clip0_482_124">
<rect width="64" height="64" fill="white"/>
</clipPath>
</defs>
</svg>
