<svg width="64" height="64" viewBox="0 0 64 64" fill="none" xmlns="http://www.w3.org/2000/svg">
<g clip-path="url(#clip0_40_32709)">
<mask id="mask0_40_32709" style="mask-type:luminance" maskUnits="userSpaceOnUse" x="0" y="0" width="64" height="64">
<path d="M64 0H0V64H64V0Z" fill="white"/>
</mask>
<g mask="url(#mask0_40_32709)">
<path d="M32.0001 64C38.3321 64 44.5217 62.1215 49.7856 58.6021C55.0495 55.0828 59.1509 50.081 61.5709 44.2297C63.9908 38.3783 64.6204 31.9406 63.38 25.7313C62.1396 19.522 59.0849 13.8203 54.6026 9.34783C50.1203 4.87535 44.4119 1.83318 38.1999 0.606374C31.988 -0.620436 25.5516 0.0232661 19.7056 2.45601C13.8596 4.88875 8.86676 9.00116 5.35899 14.2727C1.85121 19.5443 -0.0137746 25.7381 7.65974e-05 32.07C0.0241544 40.5431 3.40553 48.6612 9.40349 54.6461C15.4014 60.6309 23.527 63.9945 32.0001 64Z" fill="#F5F5F5"/>
<mask id="mask1_40_32709" style="mask-type:luminance" maskUnits="userSpaceOnUse" x="2" y="2" width="60" height="60">
<path d="M32 62C48.5685 62 62 48.5685 62 32C62 15.4315 48.5685 2 32 2C15.4315 2 2 15.4315 2 32C2 48.5685 15.4315 62 32 62Z" fill="white"/>
</mask>
<g mask="url(#mask1_40_32709)">
<path d="M39.179 38.379H37.015C36.9177 38.3793 36.8214 38.3603 36.7315 38.3232C36.6416 38.2861 36.5599 38.2316 36.4912 38.1628C36.4224 38.0941 36.3679 38.0124 36.3308 37.9225C36.2937 37.8326 36.2747 37.7362 36.275 37.639V31.96L32.496 34.32C32.3403 34.418 32.16 34.4701 31.976 34.4701C31.792 34.4701 31.6117 34.418 31.456 34.32L27.697 31.96V37.639C27.6973 37.7362 27.6783 37.8326 27.6412 37.9225C27.6041 38.0124 27.5496 38.0941 27.4808 38.1628C27.4121 38.2316 27.3304 38.2861 27.2405 38.3232C27.1506 38.3603 27.0542 38.3793 26.957 38.379H24.817C24.7197 38.3793 24.6234 38.3603 24.5335 38.3232C24.4436 38.2861 24.3619 38.2316 24.2932 38.1628C24.2244 38.0941 24.1699 38.0124 24.1328 37.9225C24.0957 37.8326 24.0767 37.7362 24.077 37.639V26.681C24.0773 26.4212 24.1806 26.172 24.3643 25.9883C24.5481 25.8046 24.7972 25.7013 25.057 25.701C25.252 25.6993 25.442 25.7626 25.597 25.881L31.556 29.981C31.6747 30.0687 31.8184 30.116 31.966 30.116C32.1136 30.116 32.2573 30.0687 32.376 29.981L38.335 25.881C38.5507 25.738 38.8138 25.6851 39.068 25.7337C39.3222 25.7823 39.5473 25.9285 39.695 26.141C39.8019 26.3018 39.8641 26.4882 39.875 26.681V37.639C39.8804 37.7342 39.8664 37.8296 39.8336 37.9192C39.8009 38.0088 39.7502 38.0907 39.6847 38.16C39.6191 38.2293 39.5401 38.2845 39.4524 38.3222C39.3648 38.3598 39.2704 38.3791 39.175 38.379H39.179Z" fill="#FF4A4A"/>
<path d="M20.862 38.359H7.46401C7.20418 38.3587 6.95507 38.2554 6.77134 38.0717C6.58761 37.8879 6.48428 37.6388 6.48401 37.379V26.361C6.48795 26.1625 6.56992 25.9735 6.71216 25.835C6.85441 25.6965 7.04548 25.6196 7.24401 25.621H9.40801C9.50527 25.6207 9.60161 25.6397 9.69151 25.6768C9.78141 25.7139 9.86309 25.7684 9.93186 25.8371C10.0006 25.9059 10.0551 25.9876 10.0922 26.0775C10.1293 26.1674 10.1483 26.2637 10.148 26.361V34.739H18.267V26.361C18.2667 26.2637 18.2857 26.1674 18.3228 26.0775C18.3599 25.9876 18.4144 25.9059 18.4831 25.8371C18.5519 25.7684 18.6336 25.7139 18.7235 25.6768C18.8134 25.6397 18.9097 25.6207 19.007 25.621H21.107C21.2042 25.6207 21.3006 25.6397 21.3905 25.6768C21.4804 25.7139 21.5621 25.7684 21.6308 25.8371C21.6996 25.9059 21.7541 25.9876 21.7912 26.0775C21.8283 26.1674 21.8473 26.2637 21.847 26.361V37.379C21.8467 37.6388 21.7434 37.8879 21.5597 38.0717C21.3759 38.2554 21.1268 38.3587 20.867 38.359H20.862Z" fill="#FF4A4A"/>
<path d="M43.138 25.621H56.538C56.7978 25.6213 57.0469 25.7246 57.2307 25.9083C57.4144 26.0921 57.5177 26.3412 57.518 26.601V37.621C57.5196 37.8143 57.4449 38.0004 57.3101 38.139C57.1753 38.2775 56.9913 38.3573 56.798 38.361H54.638C54.5407 38.3613 54.4444 38.3423 54.3545 38.3052C54.2646 38.2681 54.1829 38.2136 54.1141 38.1448C54.0454 38.0761 53.9909 37.9944 53.9538 37.9045C53.9167 37.8146 53.8977 37.7183 53.898 37.621V29.721C53.8962 29.5943 53.845 29.4732 53.7554 29.3836C53.6658 29.294 53.5447 29.2428 53.418 29.241H46.277C46.1503 29.2428 46.0292 29.294 45.9396 29.3836C45.85 29.4732 45.7988 29.5943 45.797 29.721V37.621C45.7973 37.7183 45.7783 37.8146 45.7412 37.9045C45.7041 37.9944 45.6496 38.0761 45.5808 38.1448C45.5121 38.2136 45.4304 38.2681 45.3405 38.3052C45.2506 38.3423 45.1542 38.3613 45.057 38.361H42.898C42.8007 38.3613 42.7044 38.3423 42.6145 38.3052C42.5246 38.2681 42.4429 38.2136 42.3741 38.1448C42.3054 38.0761 42.2509 37.9944 42.2138 37.9045C42.1767 37.8146 42.1577 37.7183 42.158 37.621V26.601C42.1583 26.3412 42.2616 26.0921 42.4453 25.9083C42.6291 25.7246 42.8782 25.6213 43.138 25.621Z" fill="#FF4A4A"/>
<path d="M48.7581 31.56H50.8981C50.9953 31.5597 51.0917 31.5787 51.1816 31.6158C51.2715 31.6529 51.3532 31.7074 51.4219 31.7761C51.4907 31.8449 51.5452 31.9266 51.5823 32.0165C51.6194 32.1064 51.6384 32.2027 51.6381 32.3V34.477C51.6384 34.5742 51.6194 34.6706 51.5823 34.7605C51.5452 34.8504 51.4907 34.9321 51.4219 35.0008C51.3532 35.0696 51.2715 35.1241 51.1816 35.1612C51.0917 35.1983 50.9953 35.2173 50.8981 35.217H48.7581C48.6608 35.2173 48.5645 35.1983 48.4746 35.1612C48.3847 35.1241 48.303 35.0696 48.2342 35.0008C48.1655 34.9321 48.111 34.8504 48.0739 34.7605C48.0368 34.6706 48.0178 34.5742 48.0181 34.477V32.277C48.0226 32.0842 48.1027 31.901 48.2411 31.7668C48.3796 31.6327 48.5653 31.5584 48.7581 31.56Z" fill="#FF4A4A"/>
</g>
</g>
</g>
<defs>
<clipPath id="clip0_40_32709">
<rect width="64" height="64" fill="white"/>
</clipPath>
</defs>
</svg>
