<svg xmlns="http://www.w3.org/2000/svg" width="64" height="64" viewBox="0 0 64 64"><g transform="translate(-286 -3609)"><circle cx="32" cy="32" r="32" transform="translate(286 3609)" fill="#f5f5f5"/><g transform="translate(298.203 3618.193)"><path d="M64.612,43.641c-.494-.071-.518-.094-.282-.118a7.76,7.76,0,0,1,2.211.188,9.507,9.507,0,0,1,4.846,3.246l.423.494.612-.094a13.117,13.117,0,0,1,7.528.941,9.752,9.752,0,0,1,1.694.988,2.274,2.274,0,0,1,.165.659,3.989,3.989,0,0,1-.259,2.564.688.688,0,0,0-.071.753.708.708,0,0,0,.635.4c.565,0,1.153-.894,1.435-2.141l.118-.494.212.235a9.264,9.264,0,0,1,2.282,4.517l.047.353L86,55.826a3.972,3.972,0,0,0-1.129-1.2c-.8-.541-1.647-.706-3.881-.823a15.9,15.9,0,0,1-4.3-.659c-1.929-.635-2.917-1.458-5.2-4.493A21.622,21.622,0,0,0,69.2,45.969,7.98,7.98,0,0,0,64.612,43.641Z" transform="translate(-49.09 -33.266)" fill="#ff007a"/><path d="M130.171,48.923a5.087,5.087,0,0,1,.423-2.023,1.621,1.621,0,0,1,.212-.4c.024,0-.024.165-.094.353a4.493,4.493,0,0,0-.094,2.07c.165,1.059.235,1.2,1.364,2.352.518.541,1.129,1.223,1.364,1.506l.4.518-.4-.376a14.32,14.32,0,0,0-1.882-1.482c-.165-.094-.188-.094-.306.024-.094.094-.118.235-.118.917a5.04,5.04,0,0,1-.518,2.4c-.188.353-.212.282-.047-.118a3.428,3.428,0,0,0,.141-1.458c0-2.047-.235-2.541-1.67-3.364-.353-.212-.964-.518-1.317-.682a5.209,5.209,0,0,1-.635-.306,10.511,10.511,0,0,1,1.976.588c.823.329.964.353,1.059.329C130.1,49.7,130.148,49.511,130.171,48.923Z" transform="translate(-97.123 -35.561)" fill="#ff007a"/><path d="M65.218,53.652a8.312,8.312,0,0,1-1.482-5.058l.047-.494.235.047a5.52,5.52,0,0,1,1.506.565c.941.565,1.364,1.341,1.764,3.27.118.565.282,1.223.353,1.435a8.492,8.492,0,0,0,.941,1.694c.259.376.094.565-.494.518A4.82,4.82,0,0,1,65.218,53.652Z" transform="translate(-48.731 -36.785)" fill="#ff007a"/><path d="M114.9,92.487c-4.658-1.882-6.3-3.505-6.3-6.257,0-.4.024-.729.024-.729a4.42,4.42,0,0,1,.4.306c.941.753,2,1.082,4.94,1.506a20.49,20.49,0,0,1,3.6.753,6.872,6.872,0,0,1,5.034,5.481,9.515,9.515,0,0,1-.141,2.941,5.9,5.9,0,0,1-.753,1.694c-.024,0-.071-.118-.071-.306a3.828,3.828,0,0,0-1.364-2.658C119.28,94.369,118.01,93.733,114.9,92.487Z" transform="translate(-83.056 -65.387)" fill="#ff007a"/><path d="M88.891,114.141a5.572,5.572,0,0,0-.235-.988l-.118-.353.212.259a4.142,4.142,0,0,1,.753,1.364,2.936,2.936,0,0,1,.165,1.317,3,3,0,0,1-.165,1.27,4.257,4.257,0,0,1-.988,1.576,5.662,5.662,0,0,1-3.529,1.553c-.282.024-1.082.094-1.788.141a13.8,13.8,0,0,0-4,.659c-.141.047-.282.094-.306.071a5.328,5.328,0,0,1,1.27-.753,12.8,12.8,0,0,1,3.529-.941,16.117,16.117,0,0,0,2.094-.423A4.067,4.067,0,0,0,88.891,114.141Z" transform="translate(-60.336 -86.265)" fill="#ff007a"/><path d="M128.561,121.446a5.49,5.49,0,0,1-.423-3.811c.047-.118.094-.235.141-.235a1.012,1.012,0,0,1,.329.165c.282.188.87.518,2.376,1.341a12.015,12.015,0,0,1,3.74,2.752,5.818,5.818,0,0,1,1.247,2.846,9.331,9.331,0,0,1-.118,2.8,6.934,6.934,0,0,1-3.411,4.517,3.27,3.27,0,0,1-.494.235,1.871,1.871,0,0,1,.212-.518,4.669,4.669,0,0,0,.212-3.646,14.979,14.979,0,0,0-1.882-3.387A22.346,22.346,0,0,1,128.561,121.446Z" transform="translate(-97.866 -89.783)" fill="#ff007a"/><path d="M54.394,155.761a12.788,12.788,0,0,1,5.858-2.823,8.716,8.716,0,0,1,3.035.118,5.239,5.239,0,0,1,2.964,1.905,7.025,7.025,0,0,1,1.082,3.2c.094.635.212,1.294.235,1.435a3.157,3.157,0,0,0,1.035,1.858,3.58,3.58,0,0,0,3.246.094,1.58,1.58,0,0,1,.4-.118,3.605,3.605,0,0,1-1.012.682,3.331,3.331,0,0,1-1.694.4,3.4,3.4,0,0,1-2.87-1.764A13.224,13.224,0,0,1,65.9,159.2c-.823-1.905-1.247-2.47-2.211-3.105a2.9,2.9,0,0,0-2.752-.259,1.771,1.771,0,0,0-.612,2.752,2.4,2.4,0,0,0,1.341.706,1.435,1.435,0,0,0,1.623-1.435,1.126,1.126,0,0,0-.776-1.153c-.753-.329-1.576.047-1.553.776a.647.647,0,0,0,.447.635c.188.094.188.094.047.071a.872.872,0,0,1-.306-1.529,1.693,1.693,0,0,1,2.517.541,2.465,2.465,0,0,1,.047,1.6,2.2,2.2,0,0,1-2.682,1.27,3.837,3.837,0,0,1-2.047-1.388,6.251,6.251,0,0,0-4.634-2.376l-.447-.071Z" transform="translate(-41.224 -116.899)" fill="#ff007a"/><path d="M.8,1.012c5.481,6.657,13.926,17.008,14.35,17.573.353.47.212.917-.376,1.247a3.6,3.6,0,0,1-1.341.376,1.7,1.7,0,0,1-1.129-.494c-.212-.212-1.129-1.553-3.2-4.775-1.576-2.47-2.917-4.517-2.941-4.54-.094-.047-.094-.047,2.776,5.081A41.177,41.177,0,0,1,11.335,20c0,.306-.094.47-.47.894a5.235,5.235,0,0,0-1.129,3.176c-.235,1.858-.87,3.176-2.682,5.411a9.681,9.681,0,0,0-1.482,2.094,3.978,3.978,0,0,0-.47,1.882,5.886,5.886,0,0,0,.306,2.305,7.858,7.858,0,0,0,1.129,2.211,5.474,5.474,0,0,1,.87,1.717c0,.188.047.188.894,0a9.305,9.305,0,0,0,4.611-2.258,2.128,2.128,0,0,0,.706-1.788,1.918,1.918,0,0,0-.165-.988,4.222,4.222,0,0,0-1.647-1.6,3.718,3.718,0,0,1-1.953-2.517c-.118-.8.024-1.341.729-2.823a8.438,8.438,0,0,0,1.035-3.717c.071-.988.188-1.388.47-1.694a1.754,1.754,0,0,1,1.294-.541A4.312,4.312,0,0,0,15.969,20.7a2.211,2.211,0,0,0,.8-1.717l.024-.541-.306-.329C15.381,16.843.067,0,0,0-.027,0,.349.447.8,1.012ZM8.018,34.463a.971.971,0,0,0-.306-1.294c-.4-.259-1.012-.141-1.012.212a.24.24,0,0,0,.188.235c.212.118.235.235.071.494s-.165.494.047.659A.673.673,0,0,0,8.018,34.463Z" fill="#ff007a" fill-rule="evenodd"/><path d="M70.314,93.713a2.088,2.088,0,0,0-1.27,1.388,2.027,2.027,0,0,0,.118,1.27c.259.329.494.423,1.153.423,1.294,0,2.4-.565,2.517-1.247a1.819,1.819,0,0,0-1.059-1.694A2.391,2.391,0,0,0,70.314,93.713Zm1.506,1.176a.529.529,0,0,0-.235-.8c-.635-.4-1.6-.071-1.6.541,0,.306.494.635.964.635A1.3,1.3,0,0,0,71.82,94.889Z" transform="translate(-52.769 -71.624)" fill="#ff007a" fill-rule="evenodd"/></g></g></svg>