<svg width="64" height="64" viewBox="0 0 64 64" fill="none" xmlns="http://www.w3.org/2000/svg">
<g clip-path="url(#clip0_40_32736)">
<path d="M32 64C49.6731 64 64 49.6731 64 32C64 14.3269 49.6731 0 32 0C14.3269 0 0 14.3269 0 32C0 49.6731 14.3269 64 32 64Z" fill="#3E73C4"/>
<path d="M40.0441 36.248C40.0441 32 37.4841 30.548 32.3641 29.936C28.7081 29.45 27.9781 28.48 27.9781 26.78C27.9781 25.08 29.1981 23.988 31.6341 23.988C33.8281 23.988 35.0481 24.716 35.6561 26.538C35.7194 26.7142 35.8352 26.8667 35.9879 26.9751C36.1406 27.0834 36.3228 27.1424 36.5101 27.144H38.4561C38.5687 27.147 38.6807 27.1271 38.7855 27.0855C38.8902 27.0439 38.9853 26.9815 39.0652 26.902C39.145 26.8225 39.2079 26.7276 39.25 26.6231C39.2921 26.5186 39.3125 26.4067 39.3101 26.294V26.174C39.0717 24.8558 38.4048 23.6532 37.4127 22.753C36.4207 21.8529 35.1591 21.3055 33.8241 21.196V18.284C33.8241 17.798 33.4581 17.434 32.8501 17.312H31.0201C30.5341 17.312 30.1681 17.676 30.0461 18.284V21.076C26.3881 21.56 24.0741 23.988 24.0741 27.024C24.0741 31.024 26.5101 32.606 31.6301 33.214C35.0441 33.82 36.1401 34.55 36.1401 36.492C36.1401 38.434 34.4341 39.768 32.1181 39.768C28.9481 39.768 27.8521 38.434 27.4861 36.612C27.4489 36.4111 27.3438 36.229 27.1882 36.0965C27.0327 35.9639 26.8363 35.8889 26.6321 35.884H24.5641C24.4516 35.8813 24.3397 35.9014 24.2353 35.9431C24.1308 35.9848 24.0359 36.0473 23.9562 36.1268C23.8766 36.2062 23.8139 36.301 23.7719 36.4054C23.73 36.5097 23.7096 36.6215 23.7121 36.734V36.854C24.1981 39.89 26.1501 42.074 30.1721 42.682V45.596C30.1721 46.08 30.5381 46.446 31.1461 46.566H32.9761C33.4621 46.566 33.8281 46.202 33.9501 45.596V42.68C37.6081 42.074 40.0441 39.524 40.0441 36.246V36.248Z" fill="white"/>
<path d="M25.7831 48.994C22.2793 47.7238 19.2517 45.4054 17.112 42.3539C14.9724 39.3024 13.8245 35.6659 13.8245 31.939C13.8245 28.2121 14.9724 24.5756 17.112 21.5241C19.2517 18.4726 22.2793 16.1541 25.7831 14.884C26.0164 14.7834 26.2123 14.6121 26.3433 14.3944C26.4742 14.1766 26.5336 13.9233 26.5131 13.67V11.97C26.5295 11.7473 26.4645 11.5263 26.3302 11.3479C26.196 11.1695 26.0016 11.0459 25.7831 11C25.6114 10.9821 25.4389 11.0245 25.2951 11.12C20.8626 12.5109 16.9898 15.2801 14.2403 19.0246C11.4908 22.7691 10.0082 27.2934 10.0082 31.939C10.0082 36.5845 11.4908 41.1088 14.2403 44.8533C16.9898 48.5978 20.8626 51.3671 25.2951 52.758C25.3964 52.8174 25.5104 52.8519 25.6276 52.8587C25.7449 52.8654 25.8621 52.8441 25.9695 52.7967C26.077 52.7492 26.1716 52.6769 26.2456 52.5856C26.3195 52.4944 26.3708 52.3869 26.3951 52.272C26.5171 52.152 26.5171 52.028 26.5171 51.786V50.086C26.4787 49.863 26.3939 49.6505 26.2681 49.4624C26.1423 49.2743 25.9785 49.1147 25.7871 48.994H25.7831ZM38.7001 11.122C38.5989 11.0623 38.4851 11.0276 38.3678 11.0206C38.2506 11.0136 38.1335 11.0347 38.026 11.082C37.9185 11.1293 37.8238 11.2014 37.7498 11.2926C37.6757 11.3837 37.6244 11.4911 37.6001 11.606C37.4781 11.728 37.4781 11.85 37.4781 12.092V13.792C37.499 14.0366 37.5756 14.2733 37.7022 14.4837C37.8287 14.6941 38.0018 14.8728 38.2081 15.006C41.7119 16.2761 44.7394 18.5946 46.8791 21.6461C49.0187 24.6976 50.1666 28.3341 50.1666 32.061C50.1666 35.7879 49.0187 39.4243 46.8791 42.4759C44.7394 45.5274 41.7119 47.8458 38.2081 49.116C37.9747 49.2166 37.7788 49.3878 37.6478 49.6056C37.5169 49.8234 37.4575 50.0767 37.4781 50.33V52.03C37.4617 52.2526 37.5266 52.4737 37.6609 52.6521C37.7951 52.8305 37.9896 52.9541 38.2081 53C38.3797 53.0179 38.5523 52.9754 38.6961 52.88C41.4392 52.0233 43.9858 50.6325 46.1892 48.7876C48.3926 46.9427 50.2094 44.6802 51.5348 42.1303C52.8602 39.5804 53.6681 36.7935 53.912 33.9301C54.156 31.0667 53.8311 28.1833 52.9561 25.446C51.8937 22.0949 50.0456 19.0463 47.5657 16.5546C45.0858 14.0629 42.0461 12.2002 38.7001 11.122Z" fill="white"/>
</g>
<defs>
<clipPath id="clip0_40_32736">
<rect width="64" height="64" fill="white"/>
</clipPath>
</defs>
</svg>
