<svg width="64" height="64" viewBox="0 0 64 64" fill="none" xmlns="http://www.w3.org/2000/svg">
<g clip-path="url(#clip0_40_32741)">
<path d="M32 64C49.6731 64 64 49.6731 64 32C64 14.3269 49.6731 0 32 0C14.3269 0 0 14.3269 0 32C0 49.6731 14.3269 64 32 64Z" fill="#50AF95"/>
<path fill-rule="evenodd" clip-rule="evenodd" d="M34.876 32.978C34.715 32.99 33.885 33.04 32.034 33.04C30.562 33.04 29.516 32.996 29.149 32.978C23.459 32.728 19.211 31.737 19.211 30.551C19.211 29.365 23.458 28.376 29.149 28.121V31.991C29.521 32.018 30.587 32.081 32.059 32.081C33.826 32.081 34.711 32.007 34.87 31.993V28.124C40.548 28.377 44.786 29.368 44.786 30.551C44.786 31.734 40.549 32.725 34.87 32.977L34.876 32.978ZM34.876 27.724V24.261H42.801V18.98H21.225V24.261H29.148V27.723C22.708 28.023 17.865 29.295 17.865 30.823C17.865 32.351 22.708 33.623 29.148 33.923V45.023H34.875V33.923C41.3 33.623 46.135 32.353 46.135 30.823C46.135 29.293 41.304 28.023 34.875 27.723L34.876 27.724Z" fill="white"/>
</g>
<defs>
<clipPath id="clip0_40_32741">
<rect width="64" height="64" fill="white"/>
</clipPath>
</defs>
</svg>
