<svg width="64" height="64" viewBox="0 0 64 64" fill="none" xmlns="http://www.w3.org/2000/svg">
<g clip-path="url(#clip0_448_362)">
<path d="M32 64C49.6731 64 64 49.6731 64 32C64 14.3269 49.6731 0 32 0C14.3269 0 0 14.3269 0 32C0 49.6731 14.3269 64 32 64Z" fill="#010101"/>
<path d="M51.9841 28.2217V18.1972L51.3696 18.3749C51.3148 18.3912 45.8258 19.9371 43.5099 17.5191C40.8579 14.7501 43.008 9.48317 43.0302 9.42987L43.2182 8.98565L42.7666 8.80352C41.1749 8.20887 39.5282 7.77339 37.8506 7.50345C35.9139 7.18882 33.9563 7.02052 31.9943 7C30.0294 7.01678 28.0687 7.1836 26.1292 7.499C24.4512 7.76935 22.804 8.20482 21.2117 8.79908L20.7675 8.98121L20.9555 9.42543C20.9763 9.47873 23.1337 14.7397 20.4758 17.5146C18.1644 19.9282 12.6709 18.3868 12.6146 18.3705L12.0001 18.1943V28.2114C12.0001 28.6275 11.9054 38.4994 17.0864 45.755C23.8711 55.2553 31.5516 57.4172 31.8744 57.5045L32.0003 57.5386L32.1261 57.5045C32.4489 57.4172 40.122 55.2553 46.9141 45.755C52.0966 38.4994 52.0063 28.6275 51.9989 28.2173" fill="#010101"/>
<path d="M51.0232 19.4528C49.4077 19.8156 45.0484 20.516 42.8155 18.1853C41.5243 16.8364 41.0031 14.8182 41.3081 12.3513C41.4313 11.3904 41.6526 10.4447 41.9685 9.52901C40.5748 9.05309 39.1447 8.69158 37.6922 8.44808C35.8076 8.14498 33.9031 7.98263 31.9944 7.9624C30.0833 7.98354 28.1763 8.14587 26.2892 8.44808C24.8367 8.69158 23.4065 9.05309 22.0128 9.52901C22.3255 10.4452 22.5443 11.3908 22.6658 12.3513C22.9709 14.8182 22.4496 16.8364 21.1584 18.1853C18.9255 20.516 14.5663 19.8141 12.9493 19.4528V28.2217C12.9493 28.3283 12.8634 38.2062 17.8564 45.1996C21.3036 50.0268 25.0113 52.8683 27.5137 54.4038C29.8118 55.812 31.522 56.3984 31.987 56.542C32.4549 56.3939 34.1888 55.8016 36.4987 54.3801C38.9908 52.8461 42.6837 50.0076 46.116 45.1996C51.1165 38.1988 51.0246 28.3283 51.0232 28.2291V19.4528ZM14.2005 28.2483V20.9513C16.4794 21.2593 19.9428 21.2623 22.0617 19.0501C24.573 16.4351 24.1184 12.5852 23.5543 10.3508C24.5209 10.0735 25.5021 9.85004 26.4935 9.68152C28.3132 9.39091 30.1518 9.23452 31.9944 9.21361C33.8345 9.23518 35.6706 9.39157 37.4879 9.68152C38.4792 9.85004 39.4605 10.0735 40.4271 10.3508C40.0806 11.716 39.7771 13.6869 40.1695 15.6103L16.2735 39.5003C14.1591 33.9047 14.2005 28.3194 14.2005 28.2468M45.0988 44.4726C39.7267 51.9947 33.6646 54.6111 31.9825 55.2212C30.6499 54.7444 26.5675 53.0164 22.2335 48.5209L49.7749 20.9794V28.2454C49.7749 28.3401 49.8445 37.8271 45.1003 44.4711" fill="white"/>
<path d="M39.8995 31.4745V31.4138H39.8906L39.8995 31.4745Z" fill="white"/>
<path d="M23.6914 37.8191L23.7144 37.8047H23.7L23.6914 37.8133" fill="white"/>
<path d="M39.457 25.4698L39.4581 25.4688L39.457 25.4698Z" fill="#0B0405"/>
<path d="M30.0463 50.8471C29.5413 50.4577 29.263 49.9587 29.263 49.4197C29.2648 49.1337 29.3436 48.8534 29.491 48.6083L29.0912 47.6636C28.6364 48.1358 28.3794 48.7641 28.373 49.4197C28.373 50.2341 28.7743 50.9908 29.5028 51.552C29.9572 51.8976 30.4802 52.142 31.0369 52.2686L30.5734 51.1729C30.3866 51.0833 30.2099 50.9741 30.0463 50.8471Z" fill="white"/>
<path d="M34.3022 45.8363L34.0801 46.3605C34.3675 46.4395 34.649 46.5384 34.9226 46.6566L35.2883 45.7904C35.4364 45.4942 35.6245 45.2899 35.7874 45.2351H34.1808C34.2621 45.3059 34.3186 45.4009 34.3421 45.5061C34.3655 45.6114 34.3546 45.7214 34.3111 45.82L34.3022 45.8363Z" fill="white"/>
<path d="M33.3187 50.4487H32.3533L31.995 51.312L29.6747 45.8333V45.8215C29.6309 45.7229 29.6199 45.6128 29.6433 45.5075C29.6668 45.4022 29.7235 45.3072 29.805 45.2366H28.1836C28.348 45.2914 28.5419 45.5016 28.6826 45.7918L31.995 53.6012L33.3187 50.4487Z" fill="white"/>
<path d="M34.7873 46.9792C34.5141 46.8623 34.2324 46.7663 33.9447 46.692C33.8292 46.6609 33.7123 46.6342 33.5923 46.6091C33.0967 46.5088 32.5921 46.4592 32.0864 46.461H32.0435C31.4978 46.4618 30.9569 46.5621 30.4473 46.7571L30.7938 47.576C31.207 47.421 31.6451 47.3427 32.0864 47.345H32.1101C32.4884 47.346 32.8658 47.3792 33.2384 47.4442C33.3584 47.4664 33.4783 47.4901 33.5938 47.5182C33.8837 47.5862 34.1671 47.6793 34.4408 47.7966C34.4896 47.8173 34.5889 47.8632 34.5889 47.8647C34.6489 47.8956 34.7039 47.9355 34.7517 47.9832C34.8534 48.0836 34.9177 48.2158 34.9339 48.3578C34.9345 48.3642 34.9345 48.3706 34.9339 48.377L35.0819 48.1535L35.5883 47.422C35.4323 47.3124 35.269 47.2135 35.0997 47.1258C35.0049 47.0858 34.8983 47.0266 34.7873 46.9792Z" fill="white"/>
<path d="M33.897 47.9744C33.7489 47.9285 33.6009 47.8871 33.4528 47.853L33.0293 48.8466H33.9947L34.2998 48.1255C34.1709 48.0707 34.0362 48.0204 33.897 47.9744Z" fill="white"/>
<path d="M31.9108 50.0935H34.6753V50.9361C34.2429 51.1478 33.7828 51.2973 33.3086 51.3803L32.9044 52.3383C33.8464 52.2573 34.7556 51.9527 35.5563 51.4499L35.5652 51.4425V49.2036H31.5332L31.9108 50.0935Z" fill="white"/>
<path d="M22.9605 28.7577C22.6498 28.9689 22.3153 29.1429 21.9639 29.276L21.502 28.5001C21.65 28.4497 21.9373 28.3224 21.9625 28.3091H21.9713C22.0262 28.2807 22.0762 28.2437 22.1194 28.1995C22.22 28.1007 22.2842 27.9707 22.3015 27.8308C22.3022 27.8239 22.3022 27.817 22.3015 27.8101L22.9605 28.7577Z" fill="white"/>
<path d="M19.4564 28.8331H19.4431C19.2051 28.8336 18.9676 28.8113 18.7338 28.7664C18.6139 28.7436 18.4953 28.7144 18.3785 28.6791C18.0611 28.5849 17.761 28.4399 17.49 28.2496L17.4056 28.1875C17.3088 28.113 17.2177 28.0313 17.1332 27.9431C16.9719 27.7909 16.8433 27.6073 16.7555 27.4036C16.6676 27.1999 16.6223 26.9804 16.6223 26.7586C16.6223 26.5367 16.6676 26.3172 16.7555 26.1135C16.8433 25.9098 16.9719 25.7262 17.1332 25.574V24.4353C17.0399 24.4945 16.9496 24.5582 16.8637 24.6248C16.1337 25.186 15.7324 25.9442 15.7324 26.7571C15.7324 27.57 16.1337 28.3281 16.8637 28.8893C16.9496 28.956 17.0399 29.0196 17.1332 29.0789C17.2485 29.1518 17.3676 29.2186 17.49 29.2787C17.773 29.4185 18.0711 29.5253 18.3785 29.5971C18.494 29.6252 18.6139 29.6475 18.7338 29.6652C18.9641 29.7007 19.1968 29.719 19.4298 29.72H19.4446C19.7415 29.7201 20.0382 29.7028 20.333 29.6682L19.8266 28.8197C19.7037 28.8286 19.5793 28.8331 19.4564 28.8331Z" fill="white"/>
<path d="M17.4833 29.6741V30.0472C17.4877 30.2237 17.4448 30.3982 17.3592 30.5526C17.2735 30.7069 17.1482 30.8356 16.9961 30.9253H18.8411C18.6941 30.834 18.5734 30.706 18.4911 30.5538C18.4088 30.4016 18.3676 30.2306 18.3717 30.0576C18.3717 30.0502 18.3717 30.0428 18.3717 30.0354V29.9643C18.0662 29.8989 17.7684 29.8016 17.4833 29.6741Z" fill="white"/>
<path d="M22.0232 30.0769L20.6905 27.8469C20.5537 27.5932 20.3638 27.372 20.1337 27.1983C20.4949 27.0384 20.8103 26.7907 21.0513 26.4778C21.2924 26.1649 21.4513 25.7967 21.5138 25.4067C21.2337 25.2994 20.9449 25.2167 20.6505 25.1594C20.5661 25.8997 20.0138 26.4654 19.349 26.4654H18.3761V23.458H19.0454C19.158 23.4491 19.272 23.4432 19.386 23.4417H19.4408C20.0277 23.441 20.6129 23.5065 21.1851 23.6372C20.9969 23.3164 20.7292 23.0495 20.4078 22.8623C20.0865 22.675 19.7223 22.5737 19.3504 22.5681H16.9961C17.1498 22.6567 17.2766 22.7853 17.3631 22.9401C17.4497 23.095 17.4927 23.2703 17.4877 23.4477V23.458V27.7936C17.5292 27.8321 17.5736 27.8691 17.621 27.9061C17.8496 28.0795 18.1052 28.2141 18.3776 28.3044V27.3553H18.8159C18.9648 27.3551 19.1122 27.3843 19.2498 27.4412C19.4112 27.5311 19.5472 27.6605 19.6451 27.8173L21.4975 30.9268H23.0049C22.5891 30.7657 22.2421 30.4653 22.0232 30.0769Z" fill="white"/>
<path d="M22.9613 24.764L22.3009 25.7162C22.2878 25.5694 22.2233 25.432 22.1188 25.3282C22.0715 25.282 22.0176 25.243 21.9589 25.2127C21.9415 25.2029 21.9238 25.194 21.9055 25.1861C21.7945 25.1327 21.6775 25.0854 21.5576 25.038C21.2663 24.932 20.9667 24.8508 20.6617 24.7951C20.5418 24.7715 20.4189 24.7537 20.2945 24.7374C20.0214 24.7029 19.7465 24.6851 19.4712 24.6841H19.4475C19.2095 24.6835 18.972 24.7059 18.7383 24.7507V23.849C18.8449 23.8327 18.9545 23.8193 19.064 23.8105C19.1736 23.8016 19.2906 23.7957 19.4061 23.7957H19.4475C19.7111 23.7957 19.9717 23.8105 20.2279 23.8356C20.6223 23.8754 21.0127 23.9487 21.3947 24.0548C21.5428 24.0948 21.676 24.1377 21.8123 24.1866C22.219 24.3278 22.6053 24.522 22.9613 24.764Z" fill="white"/>
<path d="M37.9317 38.7659C38.2051 38.3176 38.4422 37.8482 38.641 37.3622C40.2698 36.3065 41.7416 34.4422 42.4908 32.0627C43.3038 29.4759 43.0417 26.6951 42.3813 24.7968H40.1928C40.4479 24.3641 40.6526 23.9035 40.8028 23.4242C40.8453 23.2879 40.8823 23.1517 40.9139 23.0155C41.2367 21.6458 41.0975 20.3191 40.2727 19.2929C39.4998 18.332 38.2797 17.8433 37.0151 17.6982C37.0753 17.2102 36.9904 16.7152 36.7708 16.2752C36.4991 15.6877 36.0332 15.2118 35.4515 14.9278L35.3774 14.8893C34.6343 14.5445 33.8274 14.3584 33.0083 14.3429V11.34C33.0005 11.1828 32.9327 11.0346 32.8187 10.9261C32.7047 10.8176 32.5534 10.7571 32.396 10.7571C32.2386 10.7571 32.0873 10.8176 31.9733 10.9261C31.8593 11.0346 31.7914 11.1828 31.7837 11.34C31.7815 11.3671 31.7815 11.3943 31.7837 11.4214C31.4137 11.4847 31.0506 11.5839 30.6998 11.7176C30.2295 11.8939 29.7852 12.1329 29.379 12.4283V12.9051C29.2235 12.9925 29.074 13.0858 28.9348 13.185C28.6268 13.3923 27.4023 14.2629 26.9151 15.5067C27.3504 15.2738 27.8046 15.0781 28.2729 14.9219C29.3568 14.5413 30.494 14.3814 30.9723 14.4776C29.8819 14.6613 28.8182 14.978 27.805 15.4209C27.805 15.4209 26.8722 15.8651 26.8203 15.8917C26.8692 15.9228 26.9166 15.9569 26.9684 15.9924C27.0302 16.0385 27.0896 16.088 27.1461 16.1405C27.6525 16.6321 27.8598 17.3325 27.7902 18.0743C27.7311 18.616 27.5482 19.1368 27.2557 19.5965C27.1481 19.7704 27.0278 19.9362 26.8958 20.0925H25.2508C25.5243 20.3281 25.7583 20.6061 25.9437 20.9158L25.9734 20.9676C26.1722 21.3133 26.317 21.6873 26.4028 22.0767C26.491 22.475 26.5224 22.8838 26.4961 23.2909H22.8712C22.9911 23.4216 23.0996 23.5623 23.1955 23.7114C23.5416 24.2647 23.7989 24.8687 23.9581 25.5016C24.0634 25.8881 24.1474 26.2801 24.2098 26.6758C24.3945 27.8928 24.4377 29.1271 24.3386 30.354C24.1313 33.1303 23.3021 35.5113 22.2656 36.7285C23.3296 36.1195 24.4316 35.5794 25.5647 35.1115C25.0257 36.2443 24.3801 37.1845 23.7271 37.8242C24.6965 37.3209 25.6914 36.8681 26.7078 36.4679C26.8114 38.2669 27.6214 39.801 28.769 40.5828C28.6549 40.5561 28.5439 40.528 28.4373 40.4954C28.3248 40.4611 28.2141 40.421 28.1056 40.3755C28.0197 40.34 27.9353 40.3 27.8568 40.26C27.7211 40.5086 27.5328 40.7246 27.3049 40.8928C27.077 41.061 26.8151 41.1774 26.5375 41.2338C26.26 41.2902 25.9734 41.2853 25.698 41.2194C25.4225 41.1535 25.1648 41.0282 24.9428 40.8523C24.8434 40.9789 24.7318 41.0955 24.6096 41.2003L24.5667 41.2358C24.4761 41.31 24.3801 41.3773 24.2794 41.4372C24.1577 41.5112 24.0293 41.5736 23.8959 41.6237C23.4644 41.7892 22.9938 41.8243 22.5425 41.7244C22.8638 41.9408 23.2421 42.0568 23.6294 42.0576C23.7989 42.0582 23.9678 42.0358 24.1313 41.991C24.2066 41.9716 24.2803 41.9469 24.352 41.9169C24.5523 41.8374 24.7383 41.7259 24.9028 41.5867C25.2947 41.9211 25.7929 42.1048 26.308 42.105C26.6246 42.1039 26.9371 42.0342 27.2242 41.9008C27.5112 41.7674 27.766 41.5733 27.9709 41.332C27.8212 41.7719 27.539 42.1545 27.163 42.4274C26.787 42.7002 26.3357 42.8499 25.8712 42.8557C25.393 42.8557 24.9284 42.6968 24.5504 42.4041C25.0168 43.2585 26.0311 43.8508 27.2157 43.8508C27.8166 43.8537 28.407 43.6924 28.923 43.3843C29.3896 43.7429 29.9633 43.9338 30.5518 43.9263C31.2259 43.938 31.8776 43.6837 32.3656 43.2185C32.7689 43.5734 33.287 43.7701 33.8242 43.7723C34.1885 43.7694 34.5468 43.6788 34.8687 43.5082C35.1906 43.3376 35.4667 43.0919 35.6736 42.792C36.3029 43.2313 37.0532 43.4642 37.8206 43.4584C39.1533 43.4584 40.3008 42.7935 40.8546 41.8296C40.5457 41.937 40.2208 41.9916 39.8936 41.991C38.9371 41.991 38.1049 41.5467 37.6726 40.8745C37.2086 41.1333 36.6828 41.2603 36.1519 41.2417C35.9544 41.2327 35.7586 41.2009 35.5685 41.147C36.4228 40.6939 37.2565 39.8632 37.9317 38.7659Z" fill="#010101"/>
<path d="M28.692 21.5035C28.8992 21.1793 29.0833 20.8408 29.2429 20.4907H26.0371C26.6484 21.331 26.9715 22.3465 26.9581 23.3855V23.424C27.6425 22.8887 28.2291 22.2389 28.692 21.5035Z" fill="white"/>
<path d="M28.1998 14.6049C28.3346 14.5531 28.4708 14.5057 28.6055 14.4568C29.4475 14.1785 30.3278 14.0331 31.2146 14.0259C30.8311 13.8477 30.4179 13.7423 29.9959 13.715C30.605 13.5016 31.2535 13.4243 31.8957 13.4884C31.7909 13.4196 31.7038 13.327 31.6415 13.2182C31.5793 13.1093 31.5436 12.9873 31.5374 12.8621C31.5133 12.599 31.5614 12.3343 31.6766 12.0966C31.7158 12.0124 31.7629 11.9321 31.8172 11.8567C31.3015 11.9267 30.801 12.0824 30.3365 12.3172C30.1445 12.4129 29.959 12.5213 29.7812 12.6415V13.1879L29.7235 13.2116C29.4849 13.3079 29.2538 13.4218 29.032 13.5521C28.8786 13.6426 28.7303 13.7415 28.5878 13.8483L28.5581 13.869C28.1751 14.1502 27.8362 14.4871 27.5527 14.8685C27.646 14.8241 27.7423 14.7826 27.84 14.7426C27.9377 14.7026 28.0814 14.6479 28.1998 14.6049Z" fill="white"/>
<path d="M32.6011 11.3723C32.6011 11.3453 32.5958 11.3185 32.5854 11.2936C32.5751 11.2686 32.5599 11.2459 32.5408 11.2268C32.5217 11.2077 32.499 11.1925 32.474 11.1822C32.4491 11.1718 32.4223 11.1665 32.3953 11.1665C32.3682 11.1665 32.3415 11.1718 32.3165 11.1822C32.2915 11.1925 32.2689 11.2077 32.2497 11.2268C32.2306 11.2459 32.2155 11.2686 32.2051 11.2936C32.1948 11.3185 32.1895 11.3453 32.1895 11.3723V14.3219C32.3301 14.3412 32.4663 14.3649 32.6011 14.393V11.3723Z" fill="white"/>
<path d="M42.5195 28.072C42.4802 27.1555 42.3346 26.2467 42.0856 25.3638C42.0752 25.3253 42.0634 25.2868 42.0515 25.2498H39.4336C40.1074 24.2132 40.522 23.1767 40.633 22.2202C40.7452 21.4555 40.6032 20.6752 40.2288 19.9991C39.5787 18.8723 38.2772 18.2385 36.6143 18.0875C36.7254 17.5798 36.681 17.0504 36.487 16.5683C35.6222 14.5101 31.9841 14.0658 28.3623 15.591C28.0439 15.7243 27.7359 15.8694 27.4398 16.0219C27.5883 16.1505 27.7201 16.2973 27.8322 16.4587C28.1664 16.9552 28.31 17.5557 28.2364 18.1497C28.2244 18.2677 28.2051 18.3849 28.1786 18.5006C28.0742 18.9609 27.886 19.3981 27.6234 19.7903C27.9806 19.4947 28.3549 19.2203 28.7443 18.9685C28.8376 18.9078 28.9309 18.8471 29.0256 18.7894C29.2226 18.6665 29.4269 18.5495 29.6357 18.4355C32.4787 16.8792 35.2224 16.7311 35.8443 18.0638C34.9271 18.0673 34.0132 18.174 33.1198 18.3822C32.0238 18.6336 30.9551 18.9916 29.9289 19.4512C29.842 19.5045 29.7561 19.5593 29.6712 19.6156C30.0346 20.1933 30.2671 20.8435 30.3526 21.5206C30.438 22.1977 30.3743 22.8852 30.1658 23.5351C30.0703 23.8323 29.9448 24.1191 29.7911 24.3909C29.592 24.7039 29.3734 25.0041 29.1367 25.2897C29.2265 24.7731 29.2844 24.2514 29.3099 23.7276H23.7542C23.8801 23.9571 24.0148 24.231 24.1229 24.4857C24.4241 25.2102 24.6412 25.9669 24.77 26.7408C24.9935 28.0874 25.0165 29.4596 24.8381 30.8128C24.7626 31.4115 24.6504 32.0049 24.502 32.5897C24.2251 33.706 23.7946 34.7784 23.2227 35.7762C24.0779 35.269 24.9647 34.8169 25.8776 34.4228C25.8865 34.3977 25.8968 34.3725 25.9072 34.3488C25.9176 34.3251 25.9072 34.3355 25.9146 34.3296C26.042 33.9683 26.4492 32.5986 26.4492 29.837C26.4492 26.6594 25.8465 25.2912 25.8095 25.2083C26.282 25.6052 26.6629 26.0997 26.9259 26.6579C26.9955 26.806 27.0607 26.9541 27.1214 27.1095C27.6841 28.5695 27.7655 30.4871 27.2502 32.4638C27.2339 32.5334 27.2147 32.6015 27.194 32.6711C27.1732 32.7407 27.1436 32.8503 27.117 32.9392C27.0163 33.2679 26.9023 33.5877 26.7749 33.8942C26.7468 33.9638 26.7186 34.0319 26.689 34.0986C26.2487 35.1225 25.6306 36.0605 24.8633 36.869C25.8602 36.3714 26.8868 35.9358 27.9373 35.5645L28.2231 35.4653C31.2097 34.4376 34.0438 33.9964 36.0709 34.1326V33.8143L40.0437 30.8202H40.599V31.4895L37.8552 34.3029L37.8256 34.4613C38.714 34.6612 39.3581 35.1588 39.4544 35.8147C39.4774 35.9924 39.4607 36.1729 39.4055 36.3433C41.4267 34.4125 42.666 31.4007 42.5195 28.072ZM29.8356 25.2498C30.1125 25.1017 30.3997 24.9655 30.6944 24.8352C34.4569 23.1545 38.098 23.2434 38.825 25.0336C38.8547 25.1035 38.8785 25.1758 38.8961 25.2498H29.8356Z" fill="white"/>
<path d="M33.9873 42.8586C33.5474 42.8599 33.1129 42.7612 32.7168 42.5698C33.0277 43.0214 33.4572 43.3102 33.9488 43.322C34.181 43.3212 34.41 43.2674 34.6183 43.1647C34.8267 43.0621 35.0089 42.9133 35.1511 42.7297C35.2049 42.6728 35.2544 42.6119 35.2992 42.5476C35.2031 42.5965 35.1042 42.6395 35.003 42.6764C34.6781 42.7974 34.334 42.8591 33.9873 42.8586Z" fill="white"/>
<path d="M37.887 42.885C37.5403 42.8502 37.2086 42.7257 36.9246 42.5237C36.7563 42.6062 36.5809 42.6731 36.4004 42.7236C36.7085 42.9609 37.0767 43.1075 37.4635 43.1471C38.0241 43.1982 38.5821 43.0252 39.0153 42.6658C38.6684 42.8465 38.2764 42.9227 37.887 42.885Z" fill="white"/>
<path d="M36.914 41.81C37.0594 41.9782 37.2352 42.1173 37.4323 42.2202C37.7012 42.3536 37.9942 42.4315 38.2939 42.4493C38.5936 42.4672 38.8937 42.4245 39.1766 42.3238C38.6866 42.3398 38.2046 42.197 37.8025 41.9166C37.6284 41.7935 37.4779 41.64 37.3582 41.4635C37.4674 41.3655 37.5712 41.2617 37.6692 41.1526C37.5465 41.2264 37.42 41.2936 37.2901 41.354C37.1078 41.4363 36.9185 41.5022 36.7245 41.5509C36.5974 41.5832 36.4683 41.6069 36.338 41.622C36.2832 41.622 36.227 41.6338 36.1722 41.6368C36.0187 41.6465 35.8647 41.6435 35.7117 41.6279C35.6732 41.6279 35.6347 41.6205 35.5977 41.6146C35.0942 41.5467 34.6265 41.317 34.265 40.9601C34.1175 40.8111 33.991 40.6427 33.8889 40.4596C33.8425 40.3782 33.8019 40.2936 33.7675 40.2064C33.7512 40.1664 33.7349 40.125 33.7201 40.082C33.6442 40.1901 33.5601 40.2921 33.4684 40.3871C33.1976 40.6682 32.8812 40.9015 32.5326 41.0771C32.4378 41.1259 32.3401 41.1704 32.2364 41.2133C32.1328 41.2562 32.0158 41.2977 31.9003 41.3347C31.7848 41.3717 31.6486 41.4073 31.5153 41.4354C31.382 41.4635 31.2799 41.4798 31.1585 41.4961C30.6299 41.5658 30.093 41.5326 29.577 41.3984C29.5015 41.3791 29.429 41.3569 29.3594 41.3332C29.4296 41.4069 29.5042 41.4761 29.583 41.5405C29.8543 41.7734 30.171 41.9472 30.5131 42.0509C30.8552 42.1547 31.2152 42.1861 31.5701 42.1432C31.7137 42.125 31.8554 42.0943 31.9936 42.0514L32.0454 42.0351C32.1657 41.9953 32.2826 41.9458 32.3949 41.887C32.4168 41.8772 32.4381 41.8658 32.4585 41.853C32.9053 41.6096 33.2739 41.2445 33.5217 40.8002C33.5922 41.2211 33.8055 41.605 34.1258 41.887L34.1628 41.9196C34.528 42.206 34.9867 42.3464 35.4496 42.3135C35.5399 42.3135 35.6302 42.2987 35.722 42.2853C35.8139 42.272 35.8701 42.2572 35.9442 42.238C36.1197 42.195 36.2907 42.1355 36.455 42.0603C36.6143 41.9889 36.7677 41.9052 36.914 41.81Z" fill="white"/>
<path d="M29.2701 42.555C29.1381 42.4843 29.0153 42.3978 28.9043 42.2974C28.8606 42.3759 28.8111 42.4512 28.7562 42.5224C28.5986 42.7179 28.3993 42.8756 28.1728 42.984C27.9463 43.0924 27.6984 43.1487 27.4473 43.1488C27.3851 43.1488 27.3244 43.1488 27.2637 43.1399C27.5485 43.26 27.8612 43.2982 28.1665 43.25C28.4719 43.2019 28.7577 43.0694 28.9917 42.8674C29.1637 43.0494 29.3716 43.1936 29.6023 43.291C29.833 43.3883 30.0814 43.4367 30.3317 43.4331C31.0721 43.4331 31.7073 43.017 31.9472 42.4366C31.5244 42.7193 31.0254 42.8665 30.5168 42.8586C30.0823 42.8643 29.6533 42.7598 29.2701 42.555Z" fill="white"/>
<path d="M29.109 37.4744C29.214 37.4904 29.3213 37.4837 29.4235 37.4545C29.5257 37.4254 29.6204 37.3746 29.7012 37.3056H29.6613C29.294 37.2272 29.069 36.774 29.0571 36.1936L28.4648 36.4068C28.5078 36.9665 28.7358 37.396 29.109 37.4744Z" fill="#F59E1B"/>
<path d="M35.2514 41.0154C36.0836 39.5213 36.8506 37.3713 37.3437 34.9326C37.3822 34.7415 37.4192 34.552 37.4532 34.3654L36.815 34.2573L40.0489 31.5239V31.2278L36.4804 34.0175C36.4804 34.1729 36.4804 34.3299 36.47 34.4869C36.3768 37.1299 35.8541 39.4754 35.1211 40.9473C35.1537 40.9769 35.1996 40.9961 35.2514 41.0154Z" fill="#F59E1B"/>
<path d="M35.5156 40.8802C35.9775 40.5647 36.3927 40.1859 36.7491 39.7548C36.681 39.6689 36.6099 39.5786 36.5358 39.4927C36.4618 39.4069 36.4129 39.3447 36.3508 39.2825C36.1114 39.8345 35.8323 40.3685 35.5156 40.8802Z" fill="#F59E1B"/>
<path d="M37.0145 39.4245C37.1374 39.2646 37.2573 39.0958 37.3728 38.9196C37.2766 38.7582 37.1581 38.5701 37.0352 38.3954C36.9656 38.2962 36.8872 38.1985 36.8235 38.1082C36.7248 38.3697 36.6261 38.623 36.5273 38.8678C36.6295 38.9759 36.7421 39.0988 36.8501 39.2261C36.9079 39.2913 36.9627 39.3594 37.0145 39.4245Z" fill="#F59E1B"/>
<path d="M37.6206 38.529C37.7193 38.3621 37.8141 38.1904 37.9049 38.0137C37.8131 37.8153 37.6828 37.5472 37.5392 37.297C37.4429 37.1312 37.3378 36.9653 37.243 36.8306C37.1586 37.1104 37.0727 37.3844 36.9824 37.6479C37.0979 37.7886 37.2401 37.9707 37.3719 38.1588C37.4577 38.2817 37.5407 38.409 37.6206 38.529Z" fill="#F59E1B"/>
<path d="M38.2949 37.1651L38.3363 37.0615C38.1866 36.4745 37.9453 35.9148 37.6211 35.4031C37.5486 35.714 37.4731 36.0191 37.3887 36.3167C37.4775 36.4411 37.6996 36.7609 37.8906 37.0926C37.9765 37.2407 38.058 37.3976 38.129 37.5368C38.1868 37.4154 38.2416 37.288 38.2949 37.1651Z" fill="#F59E1B"/>
<path d="M30.8084 40.6626C31.0697 40.6286 31.3288 40.5792 31.5843 40.5145C31.6998 40.4849 31.8138 40.4523 31.9248 40.4168C32.7955 40.1414 33.4959 39.6986 33.8972 39.1834C33.9542 39.6361 34.1415 40.0625 34.4362 40.4109C34.4761 40.4568 34.5161 40.5012 34.5605 40.5456C34.605 40.59 34.6449 40.6241 34.6894 40.6626L34.79 40.744C35.0626 40.1456 35.2816 39.5242 35.4445 38.8872C34.5107 38.9811 33.5898 39.1757 32.6978 39.4676C31.6535 39.8098 30.6334 40.2219 29.6445 40.7011L29.8193 40.7085C29.8963 40.7085 29.9673 40.7085 30.0517 40.7085C30.3047 40.709 30.5574 40.6937 30.8084 40.6626Z" fill="#F59E1B"/>
<path d="M28.6152 39.9932C28.7903 40.16 28.9785 40.3125 29.1779 40.4493C30.2739 39.9061 31.407 39.4415 32.5688 39.0589C33.5363 38.7366 34.539 38.5317 35.5554 38.4488C35.6353 38.1112 35.7064 37.7593 35.7686 37.3931C34.8041 37.4597 33.8534 37.659 32.9434 37.9854C31.4401 38.5154 29.9908 39.1877 28.6152 39.9932Z" fill="#F59E1B"/>
<path d="M28.3093 39.6718C29.7369 38.8291 31.243 38.1269 32.8063 37.5751C34.3788 37.0465 35.4464 36.9666 35.8403 36.9577C35.8906 36.6151 35.9335 36.2632 35.9691 35.9019C35.5397 35.9123 34.5535 35.9982 33.1898 36.4942C31.2722 37.1946 30.3083 37.8683 30.2994 37.8742C30.2905 37.8802 31.0634 36.8111 33.0402 36.0885C34.5209 35.5495 35.5574 35.4695 36.0017 35.4651C36.0253 35.1689 36.0431 34.8728 36.055 34.5767C34.4602 34.7603 32.6789 35.3274 30.9317 36.2825L30.6681 36.4305C30.6592 36.4646 30.6488 36.4986 30.64 36.5327C30.3586 37.4478 29.6331 38.0519 29.0112 37.8787C28.521 37.7425 28.2486 37.1576 28.2989 36.4631L27.1055 36.8955C27.1624 37.5217 27.341 38.1308 27.6311 38.6886C27.8166 39.0426 28.0443 39.3727 28.3093 39.6718Z" fill="#F59E1B"/>
<path d="M35.1745 28.8168C35.254 28.3011 35.4447 27.8088 35.7333 27.3742C36.022 26.9395 36.4018 26.5728 36.8463 26.2996H32.4041C32.8486 26.5728 33.2283 26.9395 33.517 27.3742C33.8057 27.8088 33.9964 28.3011 34.0758 28.8168C33.5604 28.7371 33.0684 28.5465 32.6338 28.2581C32.1992 27.9698 31.8323 27.5905 31.5586 27.1465V31.5887C31.8323 31.1447 32.1992 30.7655 32.6338 30.4771C33.0684 30.1887 33.5604 29.9981 34.0758 29.9185C33.9964 30.4342 33.8057 30.9264 33.517 31.3611C33.2283 31.7957 32.8486 32.1624 32.4041 32.4357H36.8463C36.4018 32.1624 36.022 31.7957 35.7333 31.3611C35.4447 30.9264 35.254 30.4342 35.1745 29.9185C35.6902 29.9979 36.1825 30.1886 36.6171 30.4773C37.0518 30.7659 37.4185 31.1457 37.6918 31.5902V27.148C37.4185 27.5925 37.0518 27.9723 36.6171 28.2609C36.1825 28.5496 35.6902 28.7403 35.1745 28.8198" fill="#E6322A"/>
</g>
<defs>
<clipPath id="clip0_448_362">
<rect width="64" height="64" fill="white"/>
</clipPath>
</defs>
</svg>
