<svg width="64" height="64" viewBox="0 0 64 64" fill="none" xmlns="http://www.w3.org/2000/svg">
<g clip-path="url(#clip0_448_250)">
<path d="M32 64C49.6731 64 64 49.6731 64 32C64 14.3269 49.6731 0 32 0C14.3269 0 0 14.3269 0 32C0 49.6731 14.3269 64 32 64Z" fill="#036638"/>
<path d="M31.5 60C46.6878 60 59 47.6878 59 32.5C59 17.3122 46.6878 5 31.5 5C16.3122 5 4 17.3122 4 32.5C4 47.6878 16.3122 60 31.5 60Z" fill="white"/>
<path fill-rule="evenodd" clip-rule="evenodd" d="M31.5047 4C37.1411 4.00093 42.6507 5.67313 47.3368 8.80517C52.0229 11.9372 55.6751 16.3884 57.8316 21.596C59.9881 26.8036 60.552 32.5337 59.452 38.0618C58.3521 43.5899 55.6376 48.6676 51.652 52.6531C47.6663 56.6385 42.5884 59.3527 37.0603 60.4523C31.5321 61.552 25.8021 60.9878 20.5946 58.831C15.3871 56.6742 10.9361 53.0218 7.80431 48.3355C4.67252 43.6492 3.00062 38.1396 3 32.5031C3 16.7633 15.7648 4 31.5047 4ZM31.5047 6.65349C34.5881 6.65349 37.6023 7.56782 40.166 9.28088C42.7298 10.9939 44.728 13.4288 45.908 16.2775C47.0879 19.1262 47.3967 22.2608 46.7951 25.285C46.1936 28.3091 44.7088 31.087 42.5285 33.2673C40.3482 35.4476 37.5703 36.9324 34.5461 37.5339C31.522 38.1355 28.3873 37.8268 25.5386 36.6468C22.6899 35.4668 20.2551 33.4686 18.5421 30.9048C16.829 28.3411 15.9147 25.3269 15.9147 22.2435C15.9145 20.1961 16.3176 18.1688 17.101 16.2772C17.8844 14.3857 19.0327 12.6669 20.4804 11.2192C21.9281 9.77153 23.6468 8.62319 25.5384 7.83979C27.43 7.05639 29.4573 6.65328 31.5047 6.65349ZM15.5838 28.8881C15.9223 29.6874 16.3155 30.4624 16.7607 31.2076C17.4412 32.2487 16.9901 33.435 15.7227 34.0843L13.1254 35.4079C11.8861 36.0323 9.53538 35.7513 9.09365 34.0874C8.91717 33.5566 8.77535 33.0149 8.66909 32.4657L4.96202 33.5005C4.87461 32.1566 4.86212 31.9225 4.94329 30.7783L15.5838 28.8881ZM14.4537 30.8923L10.8824 31.8694C10.9223 32.1621 10.987 32.4509 11.076 32.7326C11.3351 33.5879 11.7362 33.5754 12.743 33.2008L14.051 32.7201C14.5754 32.4859 15.0983 32.2518 14.8314 31.6524C14.6519 31.3278 14.4677 30.8814 14.4677 30.897M18.9943 34.1467C19.4017 34.5728 19.9074 35.052 20.3991 35.475L10.4407 48.7596C9.77706 47.8852 9.16368 46.9737 8.60354 46.0296L11.3897 43.0218C10.7747 42.0947 10.23 41.3049 9.72736 40.1264L6.49948 41.5484C6.16231 40.6713 5.89101 39.7702 5.68782 38.8527L18.9943 34.1467ZM16.7872 37.1374L11.7409 39.2414C12.0942 39.9437 12.5122 40.6115 12.9896 41.2362L16.7872 37.1374ZM10.795 49.2029L22.0895 36.7378C22.0458 36.7284 23.1103 37.384 23.6207 37.6446L14.9001 49.2092C15.6287 49.9539 16.4215 50.6329 17.2695 51.2383L15.6883 53.9214C14.0291 52.7289 11.8533 50.6093 10.795 49.2029ZM16.3658 54.4053L25.1067 38.3283C25.6202 38.5421 26.1993 38.7279 26.7253 38.884L25.7653 47.166C26.0276 46.5666 29.0135 39.4069 29.0135 39.3772C29.4693 39.4506 30.3371 39.5333 30.718 39.5458L29.5411 59.091C28.3154 59.0255 27.0979 58.8521 25.9027 58.5728L27.5713 48.7081L23.3741 55.4464L23.2664 47.2534C22.9199 48.2929 19.45 56.2362 19.45 56.2659C18.3771 55.7208 17.3443 55.1001 16.3595 54.4084M34.8262 39.2477C33.6983 39.4684 32.5508 39.573 31.4017 39.5598L30.999 59.1566C33.9831 59.2288 36.9576 58.7912 39.7945 57.8626L38.9173 54.5489C37.5701 55.0054 36.1766 55.3116 34.7622 55.462L33.9818 48.769C35.0706 48.6776 36.1451 48.4592 37.1831 48.1181L36.5088 45.6207C35.5819 45.8778 34.6346 46.0548 33.6774 46.1498L33.1311 41.4204C33.8689 41.3896 34.6014 41.2808 35.3163 41.0957L34.8262 39.2477ZM35.4006 39.1306C35.9922 38.9901 36.3793 38.8855 36.9381 38.6998L44.5302 55.796C43.3826 56.4322 42.1919 56.9872 40.9667 57.4568L35.4006 39.1306ZM45.679 55.1046L37.5468 38.4813C38.5235 38.124 39.4643 37.6751 40.3564 37.1405C41.4755 36.4209 42.4089 37.1514 43.347 38.0192L45.7242 40.2279C47.9766 42.3241 47.5676 43.8866 47.0697 44.3892L52.9807 48.2726C52.3791 49.118 51.7177 49.9192 51.0015 50.6701L45.2263 46.0094L44.5536 46.4667L48.8569 52.7633C47.8578 53.6251 46.7932 54.4079 45.6727 55.1046M43.3064 44.4906C44.4256 43.7648 45.103 43.192 43.7216 41.5749L42.1795 39.6301C41.243 38.3455 40.692 39.0385 39.9865 39.3632L43.3064 44.4906ZM44.3132 33.9157C43.9152 34.3325 43.5062 34.7664 43.0333 35.1769L53.2133 47.9542C53.8538 47.0615 54.4427 46.1328 54.9771 45.1727L52.1972 42.3975C52.7223 41.5495 53.174 40.6581 53.5473 39.7331L56.7143 41.1145C57.058 40.2562 57.333 39.3721 57.5369 38.4703L44.3132 33.9157ZM46.8262 36.9173L51.5088 38.8387C51.2119 39.4781 50.8664 40.0938 50.4755 40.6805L46.8262 36.9173ZM49.7809 31.0655C50.012 30.5645 50.218 30.0416 50.4162 29.5047L49.0114 29.2565C47.9844 29.1004 47.307 29.4298 46.9729 29.8808C46.6448 30.3391 46.3821 30.8408 46.1925 31.3715C45.9506 31.9865 45.9662 33.1119 47.6987 33.8845C49.2097 34.5822 50.3397 35.2768 52.7357 33.232C54.1405 32.1035 54.6727 32.4844 55.1862 32.5921C55.9214 32.8371 55.9979 33.1353 55.8543 33.9063C55.6623 34.8585 54.5837 34.3543 54.0687 34.1498C53.873 34.8856 53.6253 35.6064 53.3272 36.307C53.6394 36.4396 54.0296 36.6191 54.3808 36.7643C55.9776 37.4043 57.7789 37.0562 58.1972 35.1238C58.3494 34.416 58.4077 33.6913 58.3704 32.9683C58.3486 31.7679 57.4651 30.7019 55.937 30.4256C54.4448 30.1275 53.449 30.0447 51.3637 31.6134C50.2945 32.4079 50.115 32.706 49.1457 32.3221C48.629 32.1254 48.1342 31.9521 48.4214 31.3465C48.6431 30.8782 48.8725 30.8033 49.7872 31.0718M16.7232 11.18L16.3751 11.9886L16.9683 12.6348L16.0973 12.552L15.6681 13.3184L15.4776 12.4584L14.6191 12.2867L15.373 11.8387L15.2716 10.9631L15.9287 11.5468L16.7232 11.18ZM14.1602 14.0489L13.9261 15.1072L14.7908 15.7581L13.7076 15.8626L13.3626 16.8897L12.9381 15.8923L11.8595 15.8626L12.6774 15.1556L12.3652 14.1191L13.2924 14.6764L14.1602 14.0489ZM11.975 17.7263L11.9594 19.1311L13.2268 19.7118L11.897 20.1238L11.7409 21.5161L10.9292 20.3736L9.56347 20.653L10.3939 19.5291L9.71176 18.3117L11.0323 18.7596L11.975 17.7263ZM10.3985 22.4324L10.8215 24.1696L12.5744 24.4818L11.0619 25.4183L11.307 27.1915L9.94745 26.0364L8.34755 26.8169L9.02185 25.1592L7.7872 23.8699L9.55567 24.0104L10.3985 22.4324ZM52.6061 22.4324L52.1816 24.1696L50.4287 24.4818L51.9412 25.4183L51.6993 27.1977L53.0572 26.0427L54.6587 26.8231L53.9859 25.1654L55.2206 23.8762L53.4459 24.0088L52.6061 22.4324ZM51.0359 17.7263L51.0499 19.1311L49.7841 19.7118L51.1124 20.1285L51.2685 21.5208L52.0739 20.3782L53.4381 20.6576L52.6061 19.5338L53.2929 18.3163L51.974 18.7643L51.0359 17.7263ZM48.8429 14.0489L49.0848 15.1072L48.2185 15.7581L49.2939 15.8548L49.6405 16.8819L50.065 15.8845L51.1436 15.8689L50.3304 15.1556L50.6425 14.1191L49.7169 14.6764L48.8429 14.0489ZM46.2799 11.18L46.628 11.9886L46.0348 12.6348L46.9058 12.552L47.3288 13.3184L47.5192 12.4584L48.3777 12.2867L47.6238 11.8387L47.7253 10.9631L47.0697 11.5468L46.2799 11.18Z" fill="#036638"/>
<path fill-rule="evenodd" clip-rule="evenodd" d="M31.5047 4C37.1411 4.00093 42.6507 5.67313 47.3368 8.80517C52.0229 11.9372 55.6751 16.3884 57.8316 21.596C59.9881 26.8036 60.552 32.5337 59.452 38.0618C58.3521 43.5899 55.6376 48.6676 51.652 52.6531C47.6663 56.6385 42.5884 59.3527 37.0603 60.4523C31.5321 61.552 25.8021 60.9878 20.5946 58.831C15.3871 56.6742 10.9361 53.0218 7.80431 48.3355C4.67252 43.6492 3.00062 38.1396 3 32.5031C3 16.7633 15.7648 4 31.5047 4ZM31.5047 6.65349C34.5881 6.65349 37.6023 7.56782 40.166 9.28088C42.7298 10.9939 44.728 13.4288 45.908 16.2775C47.0879 19.1262 47.3967 22.2608 46.7951 25.285C46.1936 28.3091 44.7088 31.087 42.5285 33.2673C40.3482 35.4476 37.5703 36.9324 34.5461 37.5339C31.522 38.1355 28.3873 37.8268 25.5386 36.6468C22.6899 35.4668 20.2551 33.4686 18.5421 30.9048C16.829 28.3411 15.9147 25.3269 15.9147 22.2435C15.9145 20.1961 16.3176 18.1688 17.101 16.2772C17.8844 14.3857 19.0327 12.6669 20.4804 11.2192C21.9281 9.77153 23.6468 8.62319 25.5384 7.83979C27.43 7.05639 29.4573 6.65328 31.5047 6.65349ZM15.5838 28.8881C15.9223 29.6874 16.3155 30.4624 16.7607 31.2076C17.4412 32.2487 16.9901 33.435 15.7227 34.0843L13.1254 35.4079C11.8861 36.0323 9.53538 35.7513 9.09365 34.0874C8.91717 33.5566 8.77535 33.0149 8.66909 32.4657L4.96202 33.5005C4.87461 32.1566 4.86212 31.9225 4.94329 30.7783L15.5838 28.8881ZM14.4537 30.8923L10.8824 31.8694C10.9223 32.1621 10.987 32.4509 11.076 32.7326C11.3351 33.5879 11.7362 33.5754 12.743 33.2008L14.051 32.7201C14.5754 32.4859 15.0983 32.2518 14.8314 31.6524C14.6519 31.3278 14.4677 30.8814 14.4677 30.897M18.9943 34.1467C19.4017 34.5728 19.9074 35.052 20.3991 35.475L10.4407 48.7596C9.77706 47.8852 9.16368 46.9737 8.60354 46.0296L11.3897 43.0218C10.7747 42.0947 10.23 41.3049 9.72736 40.1264L6.49948 41.5484C6.16231 40.6713 5.89101 39.7702 5.68782 38.8527L18.9943 34.1467ZM16.7872 37.1374L11.7409 39.2414C12.0942 39.9437 12.5122 40.6115 12.9896 41.2362L16.7872 37.1374ZM10.795 49.2029L22.0895 36.7378C22.0458 36.7284 23.1103 37.384 23.6207 37.6446L14.9001 49.2092C15.6287 49.9539 16.4215 50.6329 17.2695 51.2383L15.6883 53.9214C14.0291 52.7289 11.8533 50.6093 10.795 49.2029ZM16.3658 54.4053L25.1067 38.3283C25.6202 38.5421 26.1993 38.7279 26.7253 38.884L25.7653 47.166C26.0276 46.5666 29.0135 39.4069 29.0135 39.3772C29.4693 39.4506 30.3371 39.5333 30.718 39.5458L29.5411 59.091C28.3154 59.0255 27.0979 58.8521 25.9027 58.5728L27.5713 48.7081L23.3741 55.4464L23.2664 47.2534C22.9199 48.2929 19.45 56.2362 19.45 56.2659C18.3771 55.7208 17.3443 55.1001 16.3595 54.4084M34.8262 39.2477C33.6983 39.4684 32.5508 39.573 31.4017 39.5598L30.999 59.1566C33.9831 59.2288 36.9576 58.7912 39.7945 57.8626L38.9173 54.5489C37.5701 55.0054 36.1766 55.3116 34.7622 55.462L33.9818 48.769C35.0706 48.6776 36.1451 48.4592 37.1831 48.1181L36.5088 45.6207C35.5819 45.8778 34.6346 46.0548 33.6774 46.1498L33.1311 41.4204C33.8689 41.3896 34.6014 41.2808 35.3163 41.0957L34.8262 39.2477ZM35.4006 39.1306C35.9922 38.9901 36.3793 38.8855 36.9381 38.6998L44.5302 55.796C43.3826 56.4322 42.1919 56.9872 40.9667 57.4568L35.4006 39.1306ZM45.679 55.1046L37.5468 38.4813C38.5235 38.124 39.4643 37.6751 40.3564 37.1405C41.4755 36.4209 42.4089 37.1514 43.347 38.0192L45.7242 40.2279C47.9766 42.3241 47.5676 43.8866 47.0697 44.3892L52.9807 48.2726C52.3791 49.118 51.7177 49.9192 51.0015 50.6701L45.2263 46.0094L44.5536 46.4667L48.8569 52.7633C47.8578 53.6251 46.7932 54.4079 45.6727 55.1046M43.3064 44.4906C44.4256 43.7648 45.103 43.192 43.7216 41.5749L42.1795 39.6301C41.243 38.3455 40.692 39.0385 39.9865 39.3632L43.3064 44.4906ZM44.3132 33.9157C43.9152 34.3325 43.5062 34.7664 43.0333 35.1769L53.2133 47.9542C53.8538 47.0615 54.4427 46.1328 54.9771 45.1727L52.1972 42.3975C52.7223 41.5495 53.174 40.6581 53.5473 39.7331L56.7143 41.1145C57.058 40.2562 57.333 39.3721 57.5369 38.4703L44.3132 33.9157ZM46.8262 36.9173L51.5088 38.8387C51.2119 39.4781 50.8664 40.0938 50.4755 40.6805L46.8262 36.9173ZM49.7809 31.0655C50.012 30.5645 50.218 30.0416 50.4162 29.5047L49.0114 29.2565C47.9844 29.1004 47.307 29.4298 46.9729 29.8808C46.6448 30.3391 46.3821 30.8408 46.1925 31.3715C45.9506 31.9865 45.9662 33.1119 47.6987 33.8845C49.2097 34.5822 50.3397 35.2768 52.7357 33.232C54.1405 32.1035 54.6727 32.4844 55.1862 32.5921C55.9214 32.8371 55.9979 33.1353 55.8543 33.9063C55.6623 34.8585 54.5837 34.3543 54.0687 34.1498C53.873 34.8856 53.6253 35.6064 53.3272 36.307C53.6394 36.4396 54.0296 36.6191 54.3808 36.7643C55.9776 37.4043 57.7789 37.0562 58.1972 35.1238C58.3494 34.416 58.4077 33.6913 58.3704 32.9683C58.3486 31.7679 57.4651 30.7019 55.937 30.4256C54.4448 30.1275 53.449 30.0447 51.3637 31.6134C50.2945 32.4079 50.115 32.706 49.1457 32.3221C48.629 32.1254 48.1342 31.9521 48.4214 31.3465C48.6431 30.8782 48.8725 30.8033 49.7872 31.0718M16.7232 11.18L16.3751 11.9886L16.9683 12.6348L16.0973 12.552L15.6681 13.3184L15.4776 12.4584L14.6191 12.2867L15.373 11.8387L15.2716 10.9631L15.9287 11.5468L16.7232 11.18ZM14.1602 14.0489L13.9261 15.1072L14.7908 15.7581L13.7076 15.8626L13.3626 16.8897L12.9381 15.8923L11.8595 15.8626L12.6774 15.1556L12.3652 14.1191L13.2924 14.6764L14.1602 14.0489ZM11.975 17.7263L11.9594 19.1311L13.2268 19.7118L11.897 20.1238L11.7409 21.5161L10.9292 20.3736L9.56347 20.653L10.3939 19.5291L9.71176 18.3117L11.0323 18.7596L11.975 17.7263ZM10.3985 22.4324L10.8215 24.1696L12.5744 24.4818L11.0619 25.4183L11.307 27.1915L9.94745 26.0364L8.34755 26.8169L9.02185 25.1592L7.7872 23.8699L9.55567 24.0104L10.3985 22.4324ZM52.6061 22.4324L52.1816 24.1696L50.4287 24.4818L51.9412 25.4183L51.6993 27.1977L53.0572 26.0427L54.6587 26.8231L53.9859 25.1654L55.2206 23.8762L53.4459 24.0088L52.6061 22.4324ZM51.0359 17.7263L51.0499 19.1311L49.7841 19.7118L51.1124 20.1285L51.2685 21.5208L52.0739 20.3782L53.4381 20.6576L52.6061 19.5338L53.2929 18.3163L51.974 18.7643L51.0359 17.7263ZM48.8429 14.0489L49.0848 15.1072L48.2185 15.7581L49.2939 15.8548L49.6405 16.8819L50.065 15.8845L51.1436 15.8689L50.3304 15.1556L50.6425 14.1191L49.7169 14.6764L48.8429 14.0489ZM46.2799 11.18L46.628 11.9886L46.0348 12.6348L46.9058 12.552L47.3288 13.3184L47.5192 12.4584L48.3777 12.2867L47.6238 11.8387L47.7253 10.9631L47.0697 11.5468L46.2799 11.18Z" fill="#036638"/>
<path fill-rule="evenodd" clip-rule="evenodd" d="M31.5033 7.45581C34.429 7.45581 37.289 8.32337 39.7216 9.94878C42.1542 11.5742 44.0501 13.8844 45.1697 16.5874C46.2893 19.2904 46.5823 22.2646 46.0115 25.1341C45.4407 28.0035 44.0319 30.6393 41.9631 32.708C39.8944 34.7768 37.2586 36.1856 34.3892 36.7564C31.5197 37.3272 28.5455 37.0342 25.8425 35.9146C23.1396 34.795 20.8293 32.899 19.2039 30.4664C17.5785 28.0338 16.7109 25.1739 16.7109 22.2482C16.7109 18.325 18.2694 14.5625 21.0435 11.7884C23.8176 9.01429 27.5802 7.45581 31.5033 7.45581ZM43.3301 13.9896C43.5408 22.6665 39.2531 31.5573 31.7578 36.7331C34.38 36.687 36.9402 35.9279 39.1638 34.5373C41.3875 33.1468 43.1906 31.1771 44.38 28.8397C45.5693 26.5022 46.1 23.8851 45.915 21.269C45.73 18.6529 44.8365 16.1365 43.3301 13.9896ZM31.252 36.7269C23.93 31.6275 19.4831 22.5947 19.686 13.9693C18.1755 16.1157 17.2783 18.6331 17.0908 21.251C16.9032 23.8689 17.4325 26.4884 18.6216 28.8282C19.8107 31.1679 21.6149 33.1395 23.8401 34.5312C26.0654 35.9228 28.6278 36.6819 31.252 36.7269ZM19.8717 13.7118C24.1047 12.6967 28.0327 10.6821 31.327 7.83666C29.0929 7.86156 26.8952 8.40524 24.9073 9.42482C22.9193 10.4444 21.1954 11.912 19.8717 13.7118ZM31.675 7.83666C35.379 11.1598 39.609 12.8752 43.1318 13.7071C41.8069 11.9086 40.0824 10.4422 38.0943 9.42352C36.1062 8.40483 33.9088 7.86161 31.675 7.83666ZM43.0444 13.9725C36.2796 12.3866 32.1511 8.72324 31.5065 8.07236C30.8821 8.717 26.61 12.4334 19.9872 13.9725C19.8561 28.4511 30.5621 35.8934 31.5065 36.5286C32.443 35.9043 43.1381 28.7243 43.0444 13.9725Z" fill="#036638"/>
<path d="M42.1188 14.5076C42.3779 22.4931 38.2775 30.8094 31.5049 35.4951C24.8946 30.8843 20.6459 22.44 20.8909 14.5092C23.9612 13.7943 28.021 12.2178 31.5049 9.08203C34.8467 12.2303 38.9471 13.7647 42.1188 14.5076ZM30.5683 10.2652H32.4071C32.0896 10.0182 31.7868 9.75292 31.5002 9.47069C31.2055 9.75552 30.8927 10.0209 30.5637 10.2652M32.5538 10.3822H30.4201C30.0892 10.6335 29.6896 10.9176 29.2276 11.2204H33.7291C33.2765 10.9176 32.8878 10.6335 32.5663 10.3822M33.9071 11.3359H29.0465C28.6235 11.6075 28.1552 11.8916 27.6417 12.1788H30.6885C30.6089 12.2147 30.5324 12.2553 30.456 12.2959H27.4279C26.9097 12.5768 26.3524 12.8593 25.753 13.1325H29.2666L29.137 13.2511H25.4877C24.8165 13.5493 24.097 13.8333 23.3368 14.0924H26.1308C26.0933 14.1299 26.0574 14.1689 26.02 14.2095H22.9809C22.4034 14.3968 21.8009 14.5669 21.1781 14.7168C21.1781 14.826 21.1781 14.9369 21.1781 15.0477H27.1094C27.1425 15.0836 27.1718 15.1229 27.1969 15.1648H21.1797C21.1797 15.4473 21.1937 15.7282 21.2062 16.0061H27.3108V16.1247H21.2125C21.2281 16.4072 21.2468 16.685 21.2702 16.9613H27.3108V17.0799H21.2796C21.3061 17.3625 21.3358 17.6434 21.3701 17.9213H27.3108V18.0477H21.3795C21.4149 18.3307 21.4554 18.6096 21.5012 18.8843H27.3046V19.0029H21.5262C21.5746 19.287 21.6277 19.5664 21.6823 19.8443H27.3935L27.2749 19.9629H21.7073C21.7655 20.2407 21.828 20.5149 21.8946 20.7855H26.9737L27.0985 20.9041H21.9227C21.996 21.1929 22.0788 21.4785 22.1537 21.7579H27.3046V21.8765H22.188C22.2723 22.1596 22.3602 22.4384 22.4518 22.7131H27.3108V22.8318H22.4924C22.5876 23.1174 22.6891 23.3968 22.7952 23.6731H27.3108V23.7901H22.8405C22.9497 24.0742 23.0631 24.3531 23.1807 24.6268H27.3108V24.7454H23.2322C23.3571 25.0305 23.4856 25.311 23.6178 25.5867H27.3108V25.696H23.6755C23.815 25.9821 23.957 26.2615 24.1016 26.5342H27.3108V26.6528H24.1641C24.3202 26.9306 24.4763 27.2053 24.6323 27.4707H27.3155C27.3155 27.5113 27.3155 27.5503 27.3155 27.5877H24.6979C24.868 27.875 25.0428 28.1543 25.2192 28.4244H27.0158C26.9812 28.4665 26.9436 28.5061 26.9034 28.543H25.2957C25.4861 28.8333 25.6786 29.1138 25.8732 29.3843H26.5928C26.6365 29.4265 26.6802 29.467 26.7255 29.5029H25.9575C26.1667 29.7933 26.3774 30.0711 26.5819 30.3396H28.3972C28.4143 30.3802 28.4315 30.4176 28.4502 30.4582H26.6818C26.9138 30.7516 27.1459 31.0321 27.3779 31.2995H29.0683C29.112 31.3401 29.1573 31.3791 29.2026 31.4166H27.4856C27.7432 31.7131 27.9991 31.9925 28.2473 32.2532H34.803C35.0543 31.9925 35.3118 31.7131 35.5725 31.4166H31.3581C31.3082 31.3791 31.2598 31.3401 31.213 31.2995H35.6818C35.9128 31.0321 36.1464 30.7516 36.3826 30.4582H30.5231L30.4622 30.3396H36.4622C36.6703 30.0732 36.8816 29.7943 37.0959 29.5029H30.161C30.1516 29.4624 30.1438 29.4233 30.136 29.3843H37.1849C37.3784 29.1143 37.572 28.8333 37.7624 28.543H30.022C30.022 28.504 30.022 28.465 30.0142 28.4244H37.8373C38.0132 28.1549 38.187 27.876 38.3587 27.5877H29.9877C29.9877 27.5487 29.9877 27.5097 29.9877 27.4707H38.4336C38.5897 27.2053 38.7458 26.9306 38.9018 26.6528H30.0049V26.5342H38.969C39.1157 26.261 39.2562 25.9816 39.3966 25.696H29.9893V25.5789H39.4372C39.5683 25.3042 39.6963 25.0248 39.8196 24.7376H29.9861V24.619H39.868C39.9856 24.3463 40.0985 24.0675 40.2067 23.7823H34.5314C34.5954 23.762 34.661 23.7402 34.7265 23.7152C34.7921 23.6902 34.8139 23.6824 34.8561 23.6653H40.2567C40.3597 23.389 40.4596 23.1096 40.5564 22.824H36.1859C36.2281 22.7849 36.2702 22.7459 36.3108 22.7053H40.5892C40.6797 22.4306 40.7671 22.1512 40.8483 21.8687H37.0023C37.0272 21.8297 37.0538 21.7907 37.0787 21.7501H40.8873C40.9684 21.4707 41.0434 21.185 41.1152 20.8963H37.5252C37.5408 20.8573 37.5564 20.8167 37.5735 20.7777H41.1464C41.2119 20.5076 41.2728 20.2329 41.3321 19.9551H37.8405C37.8514 19.9145 37.8592 19.8755 37.8685 19.8365H41.3509C41.4071 19.5607 41.4591 19.2803 41.5069 18.9951H38.0231L38.0371 18.8765H41.5241C41.5678 18.6018 41.6074 18.3229 41.6427 18.0399H38.0824V17.9228H41.6584C41.6896 17.645 41.7192 17.3656 41.7442 17.0815H38.0231C38.0231 17.0409 38.0121 17.0019 38.0075 16.9629H41.7536C41.777 16.6882 41.7941 16.4088 41.8082 16.1263H37.8405C37.8311 16.0857 37.8186 16.0466 37.8077 16.0076H41.8144C41.8254 15.7298 41.8347 15.4488 41.8394 15.1663H37.5127L37.4612 15.0493H41.8316C41.8316 14.9384 41.8316 14.8276 41.8316 14.7183C41.1932 14.5623 40.5829 14.4062 39.9913 14.2111H37.0038L36.9227 14.094H39.6355C38.855 13.8349 38.1277 13.5493 37.4502 13.2527H36.2015C36.1594 13.2121 36.1172 13.1731 36.072 13.1341H37.1849C36.5808 12.8609 36.022 12.5784 35.5069 12.2974H34.7983C34.7093 12.2553 34.6157 12.2163 34.522 12.1804H35.2947C34.7843 11.8932 34.3207 11.6091 33.9055 11.3375M30.6838 12.1804H31.0069C30.9211 12.2147 30.8384 12.2553 30.7556 12.2974H30.4435C30.52 12.2568 30.5996 12.2163 30.676 12.1804M29.2541 13.1341H29.5944L29.4679 13.2527H29.1245L29.2541 13.1341ZM26.1199 14.094H26.315C26.2806 14.1315 26.2447 14.1705 26.2104 14.2111H26.009C26.0465 14.1705 26.0824 14.1315 26.1199 14.094ZM27.1048 15.0493H27.3576C27.3696 15.0873 27.3775 15.1266 27.381 15.1663H27.1922C27.1671 15.1244 27.1378 15.0852 27.1048 15.0493ZM27.2999 16.0076H27.3857V16.1263H27.2999V16.0076ZM27.2999 16.9629H27.3842V17.0815H27.3014L27.2999 16.9629ZM27.2999 17.9228H27.381V18.0477H27.2999V17.9228ZM27.2999 18.8765H27.3795V18.9951H27.2999V18.8765ZM26.9627 20.7777H27.136L27.2406 20.8963H27.0845L26.9627 20.7777ZM27.2999 21.7501H27.381V21.8687H27.2999V21.7501ZM27.2999 22.7053H27.381V22.824H27.2999V22.7053ZM27.2999 23.6653H27.3795V23.7839H27.2999V23.6653ZM27.2999 24.619H27.3779V24.7376H27.2999V24.619ZM27.2999 25.5789H27.3764V25.696H27.2999V25.5789ZM27.2999 26.5342H27.3748V26.6528H27.2999V26.5342ZM27.2999 27.4707H27.3732V27.5877H27.2968C27.2968 27.5503 27.2968 27.5113 27.2968 27.4707M27.0017 28.4244H27.3467C27.3467 28.4572 27.3342 28.4868 27.328 28.5149L27.3077 28.543H26.8894C26.9295 28.5061 26.9671 28.4665 27.0017 28.4244ZM26.5787 29.3843H26.8394C26.8987 29.4249 26.9612 29.4655 27.0252 29.5029H26.713C26.6677 29.467 26.624 29.4265 26.5803 29.3843M28.3909 30.3396H28.65L28.7047 30.4582H28.444C28.4253 30.4176 28.4081 30.3802 28.3909 30.3396ZM29.0683 31.2995H29.3243L29.4554 31.4166H29.2026C29.1573 31.3791 29.112 31.3401 29.0683 31.2995ZM31.3457 31.4166H31.0335C30.9908 31.3791 30.9502 31.3401 30.9117 31.2995H31.2036C31.2504 31.3401 31.2988 31.3791 31.3488 31.4166M30.5278 30.4582H30.317L30.2609 30.3396H30.4591L30.52 30.4582M30.161 29.5029H29.9534C29.9424 29.4624 29.9331 29.4233 29.9237 29.3843H30.136C30.1438 29.4233 30.1516 29.4624 30.161 29.5029ZM30.0158 28.543H29.7785V28.4244H30.0095C30.0095 28.465 30.0095 28.504 30.0174 28.543M29.983 27.5877H29.7801V27.4707H29.9846C29.9846 27.5097 29.9846 27.5487 29.9846 27.5877M29.9846 26.6512H29.7817V26.5326H29.9846V26.6512ZM29.9846 25.6944H29.7832V25.5758H29.9846V25.6944ZM29.9846 24.736H29.7848V24.6174H29.983L29.9846 24.736ZM34.5314 23.7823H33.573C33.8181 23.7658 34.061 23.7266 34.2988 23.6653H34.8561C34.8139 23.6824 34.7718 23.6996 34.7265 23.7152C34.6812 23.7308 34.5954 23.762 34.5314 23.7823ZM36.1922 22.824H36.0174C36.0626 22.7849 36.1094 22.7459 36.1531 22.7053H36.317C36.2765 22.7459 36.2343 22.7849 36.1922 22.824ZM37.0038 21.8687H36.8868C36.9149 21.8297 36.9398 21.7907 36.9664 21.7501H37.0803C37.0553 21.7907 37.0288 21.8297 37.0038 21.8687ZM37.5236 20.8963H37.4268L37.4783 20.7777H37.572C37.5548 20.8167 37.5392 20.8573 37.5236 20.8963ZM37.8358 19.9598H37.7499C37.7608 19.9192 37.7718 19.8802 37.7811 19.8411H37.8639C37.8545 19.8802 37.8467 19.9192 37.8358 19.9598ZM38.0184 18.9998H37.9435C37.9435 18.9608 37.9544 18.9218 37.9591 18.8812H38.0324L38.0184 18.9998ZM38.0777 18.0446H38.0121V17.9275H38.0777V18.0477M38.0184 17.0893H37.9653C37.9653 17.0487 37.956 17.0097 37.9513 16.9707H38.0059C38.0059 17.0097 38.0168 17.0487 38.0215 17.0893M37.8389 16.1341H37.7936L37.7608 16.0154H37.8092C37.8202 16.0545 37.8326 16.0935 37.842 16.1341M37.5142 15.1741H37.4768C37.4612 15.1351 37.4424 15.0945 37.4237 15.0571H37.4627L37.5142 15.1741ZM37.0054 14.2189H36.9664C36.9414 14.1798 36.9164 14.1393 36.8883 14.1018H36.9242L37.0054 14.2189ZM36.2093 13.2605H36.1531C36.111 13.2199 36.0657 13.1809 36.022 13.1419H36.0798C36.1251 13.1809 36.1672 13.2199 36.2093 13.2605ZM34.8046 12.3052H34.6094C34.4986 12.2631 34.3862 12.2225 34.2707 12.1882H34.5314C34.6251 12.2241 34.7187 12.2631 34.8077 12.3052M29.8004 21.7579H29.9971V21.8765H29.8004V21.7579ZM29.9971 21.7579H30.445C30.445 21.7985 30.4575 21.8375 30.4653 21.8765H29.9971V21.7579ZM30.445 21.7579H30.6011C30.6089 21.7985 30.6214 21.8375 30.6308 21.8765H30.4591C30.4591 21.8375 30.445 21.7985 30.4388 21.7579M29.7926 22.7131H29.9908V22.8318H29.7926V22.7131ZM29.9908 22.7131H30.7619C30.7853 22.7537 30.8087 22.7927 30.8337 22.8318H29.9908V22.7131ZM30.7619 22.7131H31.0522C31.0834 22.7537 31.1146 22.7927 31.1474 22.8318H30.8353C30.8103 22.7927 30.7869 22.7537 30.7635 22.7131M29.7926 23.6668H29.9893V23.7855H29.7926V23.6668ZM29.9893 23.6668H31.7062C31.7791 23.7085 31.8555 23.7475 31.9357 23.7839H29.9893V23.6668ZM31.7062 23.6668H32.4445C32.6591 23.7301 32.88 23.7694 33.1032 23.7839H31.9357C31.8566 23.7475 31.7801 23.7085 31.7062 23.6668ZM30.6729 14.0956H30.868C30.829 14.133 30.7931 14.1736 30.7588 14.2126H30.5668C30.6011 14.1736 30.637 14.133 30.6729 14.0956ZM30.868 14.0956H34.2817C34.3207 14.133 34.3597 14.1736 34.3972 14.2126H30.7541C30.7884 14.1736 30.8243 14.133 30.8633 14.0956M34.277 14.0956H34.547C34.5813 14.133 34.6141 14.1736 34.6438 14.2126H34.3925C34.355 14.1736 34.316 14.133 34.277 14.0956ZM30.0439 15.0508H30.2452C30.2296 15.0883 30.2125 15.1289 30.1984 15.1679H29.9955L30.0439 15.0508ZM30.2452 15.0508H34.9528C34.9716 15.0883 34.9887 15.1289 35.0059 15.1679H30.1984C30.2125 15.1289 30.2296 15.0883 30.2452 15.0508ZM34.9528 15.0508H35.1339C35.1511 15.0883 35.1667 15.1289 35.1823 15.1679H34.9997C34.9825 15.1289 34.9653 15.0883 34.9466 15.0508M29.8035 16.0092H30.0049C30.0049 16.0498 29.9971 16.0888 29.9955 16.1278H29.8051V16.0092M30.0002 16.0092H35.2166C35.2166 16.0482 35.226 16.0888 35.2291 16.1278H29.9955C29.9955 16.0888 29.9955 16.0498 30.0049 16.0092M35.2213 16.0092H35.3914C35.3914 16.0482 35.3992 16.0888 35.4024 16.1278H35.2338C35.2338 16.0888 35.2338 16.0482 35.2213 16.0092ZM29.8035 16.9644H29.9908V17.0831H29.8035V16.9644ZM29.9908 16.9644H35.1558C35.1448 17.0035 35.1339 17.0425 35.1214 17.0831H29.9908V16.9644ZM35.1589 16.9644H35.3477C35.3384 17.0035 35.329 17.044 35.3181 17.0831H35.1245C35.137 17.0425 35.1479 17.0035 35.1589 16.9644ZM29.802 17.9228H29.9908V18.0477H29.802V17.9228ZM29.9908 17.9228H34.6266L34.6032 17.9462L34.6547 18.0399H29.9908V17.9228ZM34.6266 17.9228H34.867L34.8342 17.9587C34.8483 17.9868 34.8607 18.0118 34.8732 18.0399H34.6547L34.6032 17.9462L34.6266 17.9228ZM29.8004 18.8765H29.9908V18.9951H29.8004V18.8765ZM29.9908 18.8765H35.0262C35.0387 18.9171 35.0527 18.9561 35.0637 18.9951H29.9908V18.8765ZM35.0262 18.8765H35.201C35.2135 18.9171 35.2244 18.9561 35.2338 18.9951H35.0637C35.0527 18.9561 35.0387 18.9171 35.0262 18.8765ZM29.7988 19.8365H29.9908V19.9551H29.7988V19.8365ZM29.9908 19.8365H31.0569C31.0106 19.8731 30.9668 19.9127 30.9258 19.9551H29.9893L29.9908 19.8365ZM31.0569 19.8365H31.4846C31.3978 19.8681 31.3142 19.9078 31.2348 19.9551H30.9227C30.9637 19.9127 31.0075 19.8731 31.0538 19.8365M32.5163 19.8365H32.9705C33.0113 19.8733 33.0493 19.9129 33.0845 19.9551H32.7223C32.6599 19.9089 32.593 19.8691 32.5226 19.8365M32.9705 19.8365H35.2276C35.2276 19.877 35.2276 19.9145 35.2276 19.9551H33.0814C33.0462 19.9129 33.0081 19.8733 32.9674 19.8365M35.2244 19.8365H35.3899C35.3899 19.877 35.3899 19.9145 35.3977 19.9551H35.2307C35.2307 19.9145 35.2307 19.877 35.2307 19.8365M29.8035 20.773H29.9971V20.8916H29.802L29.8035 20.773ZM29.9971 20.773H30.4731C30.4638 20.812 30.456 20.851 30.4482 20.8916H29.9799L29.9971 20.773ZM30.4856 20.773H30.6136C30.6027 20.812 30.5933 20.851 30.5855 20.8916H30.4606C30.4684 20.851 30.4763 20.812 30.4856 20.773ZM33.2421 20.773H33.3982C33.3982 20.812 33.3982 20.8526 33.3982 20.8916H33.2562C33.2562 20.8526 33.2452 20.812 33.2374 20.773M33.3935 20.773H35.1448C35.1355 20.8136 35.1245 20.8526 35.112 20.8916H33.3951C33.3951 20.8526 33.3951 20.812 33.3951 20.773M35.1464 20.773H35.354C35.354 20.8136 35.3399 20.8526 35.3306 20.8916H35.1136C35.1261 20.8526 35.137 20.8136 35.1464 20.773ZM33.0049 21.7454H33.1266C33.0952 21.7874 33.0608 21.827 33.0236 21.864H32.802C32.8769 21.8385 32.9459 21.7982 33.0049 21.7454ZM33.1266 21.7454H34.6734C34.6438 21.786 34.6094 21.825 34.5767 21.864H33.0236C33.0608 21.827 33.0952 21.7874 33.1266 21.7454ZM34.6734 21.7454H35.0122C34.9887 21.786 34.9653 21.825 34.9403 21.864H34.5767C34.6094 21.825 34.6438 21.786 34.6734 21.7454ZM34.6734 32.3671H28.3566C28.6438 32.6637 28.9201 32.9384 29.1838 33.1866H33.8446C34.11 32.9384 34.3909 32.6637 34.6797 32.3671M33.7166 33.3037H29.3103C29.6537 33.6268 29.9721 33.9062 30.2468 34.1419H32.7551C33.0408 33.9062 33.3623 33.6268 33.7088 33.3037M32.6162 34.2589H30.3982C30.754 34.5581 31.1261 34.8374 31.5127 35.0956C31.6547 34.9972 32.0543 34.7194 32.6193 34.2589M26.2463 14.3859C26.8004 14.3671 27.5964 14.7667 27.5964 15.5784V19.6367L26.8956 20.3281L27.5964 20.9759V27.5316C27.5964 27.9905 27.4934 28.71 26.6786 29.0238C27.2718 29.7402 27.829 29.6091 28.4721 29.2548C28.6079 31.2293 30.189 31.8817 31.2239 31.6601C29.8597 30.6596 29.7145 29.0721 29.7036 27.6939V16.2496C29.7036 15.1226 30.4841 13.1278 32.6256 13.1278C35.0184 13.1278 36.3451 16.273 34.9388 17.9462C37.3862 22.4728 31.5439 24.7438 31.3691 21.3302C33.2702 22.9566 33.7104 19.9254 32.1495 19.7896C29.5881 19.5789 30.3717 25.1622 34.7406 23.4109C39.2671 21.5581 39.0595 12.21 32.3821 12.0368C30.8446 11.9962 29.4367 13.2152 28.5189 14.4062C27.8056 13.7007 27.0642 13.5212 26.2525 14.3859M27.317 19.529V15.5799C27.317 14.8089 26.4273 14.6028 25.7047 14.6434C26.4149 13.5212 27.4653 13.1341 28.4768 13.9894C29.1558 13.0388 30.8181 11.7246 32.379 11.7714C39.3717 11.8807 39.6745 21.9171 34.7281 23.7137C29.9409 25.454 29.1995 19.3073 32.1917 19.518C34.1427 19.6866 33.5293 22.9426 31.7749 21.9202C32.4601 23.9166 36.8399 21.8734 34.6063 17.9447C36.0876 16.4353 34.8014 13.4181 32.6209 13.3932C30.7713 13.3651 30.0049 15.1023 29.9908 16.2761V27.3926C29.9674 29.3593 30.2484 30.8952 31.8639 31.7522C30.2234 32.5217 28.5158 31.4056 28.2145 29.723C27.509 30.0196 26.7661 29.8151 26.1729 28.8599C26.7801 28.7803 27.3108 28.3807 27.3046 27.441V21.0961L26.4882 20.3281L27.317 19.529Z" fill="#036638"/>
</g>
<defs>
<clipPath id="clip0_448_250">
<rect width="64" height="64" fill="white"/>
</clipPath>
</defs>
</svg>
