<svg width="64" height="64" viewBox="0 0 64 64" fill="none" xmlns="http://www.w3.org/2000/svg">
<path d="M32 64C49.6731 64 64 49.6731 64 32C64 14.3269 49.6731 0 32 0C14.3269 0 0 14.3269 0 32C0 49.6731 14.3269 64 32 64Z" fill="black"/>
<path d="M55.018 26.7274C55.018 32.6597 50.3614 37.6524 44.5217 38.3417H36.5937C35.9421 38.3348 35.3215 38.0673 34.8654 37.601L28.3948 30.976C27.7741 30.3417 28.2233 29.2718 29.1115 29.2718L31.7278 29.2855L43.5787 29.3507C45.0189 29.3575 46.1916 28.1985 46.1985 26.7583V26.7446V26.6588C46.1985 25.2221 45.036 24.0596 43.6027 24.0528L31.7553 24.0047L22.2602 23.967C21.595 23.967 20.9571 23.6996 20.4908 23.2229L14.2705 16.8929C13.5778 16.1899 14.0784 15 15.066 15H43.1055C50.5602 15.1681 55.018 19.5915 55.018 26.7274Z" fill="#F2F2F2"/>
<path d="M35.462 48.4845C35.9661 49.0435 35.5066 49.9316 34.7625 49.839C20.237 48.0628 9 35.965 9 21.3058V21.2852C9 20.5411 9.91902 20.1948 10.4196 20.7434L35.462 48.4845Z" fill="#ED1C24"/>
<path d="M46.5139 48.5705L50.135 44.9769C50.7522 44.3631 50.3202 43.3103 49.4492 43.3103H42.207C41.336 43.3103 40.904 44.3631 41.5212 44.9769L45.1423 48.5705C45.3245 48.7517 45.5711 48.8534 45.8281 48.8534C46.0851 48.8534 46.3316 48.7517 46.5139 48.5705Z" fill="#F2F2F2"/>
</svg>
