<svg xmlns="http://www.w3.org/2000/svg" viewBox="0 0 1920 1920.2"><circle cx="960" cy="960.1" r="933.2"/><path d="M1631 794c0 173-135.8 318.6-306.1 338.7h-231.2c-19-.2-37.1-8-50.4-21.6L854.6 917.9c-18.1-18.5-5-49.7 20.9-49.7l76.3.4 345.6 1.9c42 .2 76.2-33.6 76.4-75.6v-.4-2.5c0-41.9-33.9-75.8-75.7-76l-345.5-1.4-276.9-1.1c-19.4 0-38-7.8-51.6-21.7L442.7 507.2c-20.2-20.5-5.6-55.2 23.2-55.2h817.7C1501 456.9 1631 585.9 1631 794z" fill="#f2f2f2"/><path d="M1060.7 1428.5c14.7 16.3 1.3 42.2-20.4 39.5C616.7 1416.2 289 1063.4 289 635.9v-.6c0-21.7 26.8-31.8 41.4-15.8l730.3 809z" fill="#ed1c24"/><path d="M1383 1431l105.6-104.8c18-17.9 5.4-48.6-20-48.6h-211.2c-25.4 0-38 30.7-20 48.6L1343 1431a28.37 28.37 0 0 0 40 0z" fill="#f2f2f2"/></svg>