<svg width="65" height="65" viewBox="0 0 65 65" fill="none" xmlns="http://www.w3.org/2000/svg">
<path d="M32.8933 64.8965C50.5664 64.8965 64.8933 50.5696 64.8933 32.8965C64.8933 15.2234 50.5664 0.896484 32.8933 0.896484C15.2202 0.896484 0.893311 15.2234 0.893311 32.8965C0.893311 50.5696 15.2202 64.8965 32.8933 64.8965Z" fill="black"/>
<path d="M55.9023 27.201C55.9023 33.1333 51.2457 38.126 45.406 38.8153H37.478C36.8264 38.8084 36.2058 38.5409 35.7497 38.0746L29.2791 31.4496C28.6584 30.8153 29.1076 29.7454 29.9958 29.7454L32.6121 29.7591L44.463 29.8243C45.9032 29.8311 47.0759 28.6721 47.0828 27.2319V27.2182V27.1324C47.0828 25.6957 45.9203 24.5332 44.487 24.5264L32.6396 24.4783L23.1445 24.4406C22.4793 24.4406 21.8414 24.1732 21.3751 23.6965L15.1548 17.3665C14.4621 16.6635 14.9627 15.4736 15.9503 15.4736H43.9898C51.4445 15.6417 55.9023 20.0651 55.9023 27.201Z" fill="#F2F2F2"/>
<path d="M36.3463 48.9581C36.8504 49.5171 36.3909 50.4052 35.6468 50.3126C21.1213 48.5364 9.88428 36.4386 9.88428 21.7794V21.7588C9.88428 21.0147 10.8033 20.6684 11.3039 21.217L36.3463 48.9581Z" fill="#ED1C24"/>
<path d="M47.3982 49.0441L51.0193 45.4505C51.6365 44.8367 51.2045 43.7839 50.3335 43.7839H43.0913C42.2203 43.7839 41.7883 44.8367 42.4055 45.4505L46.0266 49.0441C46.2088 49.2253 46.4554 49.327 46.7124 49.327C46.9694 49.327 47.2159 49.2253 47.3982 49.0441Z" fill="#F2F2F2"/>
</svg>
