<svg xmlns="http://www.w3.org/2000/svg" xmlns:xlink="http://www.w3.org/1999/xlink" width="64" height="64" viewBox="0 0 64 64"><defs><linearGradient id="a" x1="0.5" x2="0.5" y2="1" gradientUnits="objectBoundingBox"><stop offset="0" stop-color="#27a3dd"/><stop offset="1" stop-color="#4a2670"/></linearGradient></defs><g transform="translate(-8528.947 -692.496)"><circle cx="32" cy="32" r="32" transform="translate(8528.947 692.496)" fill="#e3e3e3"/><g transform="translate(7776.316 -3217.597)"><path d="M-1899.664,450.293h-29.408a7.878,7.878,0,0,1-3.086-.623,7.937,7.937,0,0,1-1.347-.731,7.976,7.976,0,0,1-1.173-.968,7.971,7.971,0,0,1-.968-1.173,7.917,7.917,0,0,1-.731-1.347,7.875,7.875,0,0,1-.623-3.086v-8.439a7.875,7.875,0,0,1,.623-3.086,7.929,7.929,0,0,1,.731-1.347,7.984,7.984,0,0,1,.968-1.173,7.988,7.988,0,0,1,1.173-.968,7.939,7.939,0,0,1,1.347-.731,7.878,7.878,0,0,1,3.086-.623h8.369c.251.594.541,1.24.863,1.918h-8.976a5.716,5.716,0,0,0-2.24.452,5.732,5.732,0,0,0-1.829,1.233,5.737,5.737,0,0,0-1.233,1.829,5.72,5.72,0,0,0-.452,2.24v8.823a5.72,5.72,0,0,0,.452,2.24,5.737,5.737,0,0,0,1.233,1.829,5.73,5.73,0,0,0,1.829,1.233,5.716,5.716,0,0,0,2.24.452h28.9a5.718,5.718,0,0,0,2.24-.452,5.733,5.733,0,0,0,1.829-1.233,5.737,5.737,0,0,0,1.233-1.829,5.718,5.718,0,0,0,.452-2.24v-8.823a5.718,5.718,0,0,0-.452-2.24,5.737,5.737,0,0,0-1.233-1.829,5.734,5.734,0,0,0-1.829-1.233,5.717,5.717,0,0,0-2.24-.452h-8.976c.321-.676.611-1.322.863-1.918h8.369a7.878,7.878,0,0,1,3.086.623,7.928,7.928,0,0,1,1.347.731,7.981,7.981,0,0,1,1.173.968,7.993,7.993,0,0,1,.968,1.173,7.929,7.929,0,0,1,.731,1.347,7.875,7.875,0,0,1,.623,3.086v8.439a7.875,7.875,0,0,1-.623,3.086,7.915,7.915,0,0,1-.731,1.347,7.981,7.981,0,0,1-.968,1.173,7.97,7.97,0,0,1-1.173.968,7.932,7.932,0,0,1-1.347.731A7.878,7.878,0,0,1-1899.664,450.293Zm-.427-2.941h-8.751a2.384,2.384,0,0,1-.617-.152,8.431,8.431,0,0,1-1.849-.981,4.886,4.886,0,0,0-2.726-.919c-.125,0-.22.006-.282.011h0l-.063,0h-.051c-.037,0-.087,0-.15,0a4.615,4.615,0,0,0-1.121.142,5,5,0,0,0-1.663.766,7.178,7.178,0,0,1-1.842.949,3.931,3.931,0,0,1-.756.184h-8.6a5.093,5.093,0,0,1-2-.405,5.124,5.124,0,0,1-1.634-1.106,5.139,5.139,0,0,1-1.1-1.64,5.141,5.141,0,0,1-.4-2.008v-8.3a5.141,5.141,0,0,1,.4-2.008,5.138,5.138,0,0,1,1.1-1.64,5.123,5.123,0,0,1,1.634-1.106,5.1,5.1,0,0,1,2-.405h9.111c.32.651.672,1.344,1.048,2.058,1.746,3.321,3.52,6.219,3.595,6.341l.438.739.438-.739c.074-.121,1.833-2.991,3.595-6.341.375-.713.728-1.406,1.048-2.058h9.2a5.1,5.1,0,0,1,2,.405,5.127,5.127,0,0,1,1.634,1.106,5.143,5.143,0,0,1,1.1,1.64,5.14,5.14,0,0,1,.4,2.008v8.3a5.14,5.14,0,0,1-.4,2.008,5.143,5.143,0,0,1-1.1,1.64,5.126,5.126,0,0,1-1.634,1.106A5.1,5.1,0,0,1-1900.091,447.352Zm-14.277-10.488h0c-.018-.029-1.814-2.955-3.58-6.315-.33-.627-.643-1.24-.93-1.82h9.02c-.288.581-.6,1.194-.93,1.82-1.766,3.358-3.562,6.286-3.58,6.315Zm4.906-8.947h-9.812c-.324-.678-.618-1.323-.874-1.918h11.559c-.256.6-.55,1.242-.874,1.918Z" transform="translate(2699 3507.892)" fill="url(#a)"/><path d="M-1929.84,351.757h0c-.018-.029-1.813-2.954-3.58-6.315-1.039-1.977-1.867-3.718-2.461-5.176a12.356,12.356,0,0,1-1.119-4.105,7.115,7.115,0,0,1,.563-2.787,7.155,7.155,0,0,1,.66-1.216,7.207,7.207,0,0,1,.874-1.06,7.2,7.2,0,0,1,1.06-.874,7.16,7.16,0,0,1,1.216-.66,7.115,7.115,0,0,1,2.787-.563,7.115,7.115,0,0,1,2.787.563,7.159,7.159,0,0,1,1.216.66,7.211,7.211,0,0,1,1.06.874,7.214,7.214,0,0,1,.874,1.06,7.158,7.158,0,0,1,.66,1.216,7.115,7.115,0,0,1,.563,2.787,12.353,12.353,0,0,1-1.119,4.105c-.594,1.458-1.422,3.2-2.461,5.176-1.767,3.361-3.562,6.286-3.58,6.315Zm.064-19.176a3.367,3.367,0,0,0-1.319.266,3.377,3.377,0,0,0-1.077.726,3.376,3.376,0,0,0-.726,1.077,3.368,3.368,0,0,0-.266,1.319,3.368,3.368,0,0,0,.266,1.319,3.378,3.378,0,0,0,.726,1.077,3.377,3.377,0,0,0,1.077.726,3.367,3.367,0,0,0,1.319.266,3.368,3.368,0,0,0,1.319-.266,3.377,3.377,0,0,0,1.077-.726,3.376,3.376,0,0,0,.726-1.077,3.368,3.368,0,0,0,.266-1.319,3.368,3.368,0,0,0-.266-1.319,3.376,3.376,0,0,0-.726-1.077,3.377,3.377,0,0,0-1.077-.726A3.368,3.368,0,0,0-1929.776,332.581Z" transform="translate(2714.471 3593)" fill="url(#a)"/></g></g></svg>