<svg width="64" height="64" viewBox="0 0 64 64" fill="none" xmlns="http://www.w3.org/2000/svg">
<g clip-path="url(#clip0_40_32762)">
<path d="M32 64C49.6731 64 64 49.6731 64 32C64 14.3269 49.6731 0 32 0C14.3269 0 0 14.3269 0 32C0 49.6731 14.3269 64 32 64Z" fill="#F5F5F5"/>
<path d="M46.7052 48.092H17.2971C16.237 48.0941 15.1875 47.8822 14.2112 47.469C13.7397 47.2694 13.2885 47.0246 12.8642 46.738C12.4432 46.4535 12.0505 46.1293 11.6912 45.77C11.3319 45.4108 11.0077 45.018 10.7232 44.597C10.4365 44.1727 10.1917 43.7216 9.9922 43.25C9.57894 42.2738 9.36699 41.2241 9.36916 40.164V31.725C9.36699 30.6649 9.57894 29.6153 9.9922 28.639C10.1918 28.1675 10.4366 27.7164 10.7232 27.292C11.0078 26.8711 11.3319 26.4783 11.6912 26.119C12.0505 25.7598 12.4433 25.4356 12.8642 25.151C13.2885 24.8645 13.7397 24.6197 14.2112 24.42C15.1875 24.0068 16.237 23.7949 17.2971 23.797H25.6662C25.9172 24.391 26.2072 25.037 26.5292 25.715H17.5531C16.7836 25.7134 16.0218 25.8671 15.3131 26.167C14.6294 26.4557 14.0082 26.8745 13.4841 27.4C12.9587 27.9242 12.5399 28.5453 12.2511 29.229C11.9513 29.9377 11.7977 30.6996 11.7992 31.469V40.292C11.7977 41.0615 11.9513 41.8234 12.2511 42.532C12.5399 43.2157 12.9587 43.8369 13.4841 44.361C14.0082 44.8866 14.6294 45.3054 15.3131 45.594C16.0218 45.8939 16.7836 46.0477 17.5531 46.046H46.4531C47.2226 46.0476 47.9845 45.8939 48.6931 45.594C49.3769 45.3053 49.998 44.8866 50.5221 44.361C51.0475 43.8369 51.4663 43.2157 51.7551 42.532C52.055 41.8234 52.2088 41.0615 52.2072 40.292V31.469C52.2088 30.6996 52.055 29.9377 51.7551 29.229C51.4663 28.5453 51.0475 27.9242 50.5221 27.4C49.998 26.8745 49.3768 26.4558 48.6931 26.167C47.9845 25.8672 47.2226 25.7134 46.4531 25.715H37.4772C37.7982 25.039 38.0881 24.393 38.3401 23.797H46.7091C47.7692 23.7949 48.8189 24.0068 49.7952 24.42C50.2667 24.6196 50.7178 24.8644 51.1421 25.151C51.563 25.4356 51.9559 25.7598 52.3152 26.119C52.6744 26.4784 52.9984 26.8712 53.2831 27.292C53.5697 27.7164 53.8146 28.1675 54.0142 28.639C54.4274 29.6153 54.6393 30.6649 54.6371 31.725V40.164C54.6393 41.2241 54.4274 42.2738 54.0142 43.25C53.8147 43.7216 53.5698 44.1727 53.2831 44.597C52.9985 45.018 52.6745 45.4107 52.3152 45.77C51.956 46.1294 51.5631 46.4535 51.1421 46.738C50.7178 47.0246 50.2667 47.2694 49.7952 47.469C48.8177 47.8828 47.7667 48.0946 46.7052 48.092ZM46.2782 45.151H37.5271C37.3156 45.1281 37.1081 45.077 36.9102 44.999C36.2555 44.7501 35.6344 44.4206 35.0612 44.018C34.2653 43.4451 33.3154 43.1248 32.3351 43.099C32.2101 43.099 32.1151 43.105 32.0531 43.11H31.9901H31.9391C31.9021 43.11 31.8522 43.11 31.7892 43.11C31.4111 43.1113 31.0345 43.159 30.6681 43.252C30.0714 43.4028 29.5076 43.6625 29.0051 44.018C28.4403 44.4218 27.8198 44.7414 27.1631 44.967C26.9178 45.0532 26.6646 45.1148 26.4071 45.151H17.8071C17.12 45.1523 16.4397 45.0146 15.8071 44.746C15.196 44.4867 14.641 44.1111 14.1731 43.64C13.7039 43.1696 13.3303 42.6127 13.0731 42C12.8065 41.3643 12.6705 40.6814 12.6731 39.992V31.692C12.6705 31.0026 12.8065 30.3198 13.0731 29.684C13.3303 29.0714 13.7039 28.5144 14.1731 28.044C14.641 27.573 15.196 27.1973 15.8071 26.938C16.4397 26.6697 17.12 26.5319 17.8071 26.533H26.9181C27.2381 27.184 27.5902 27.877 27.9662 28.591C29.7122 31.912 31.4862 34.81 31.5612 34.932L31.9992 35.671L32.4372 34.932C32.5112 34.811 34.2701 31.941 36.0321 28.591C36.4071 27.878 36.7602 27.185 37.0802 26.533H46.2802C46.9673 26.5319 47.6476 26.6697 48.2802 26.938C48.8913 27.1974 49.4463 27.573 49.9142 28.044C50.3834 28.5145 50.7569 29.0714 51.0142 29.684C51.2808 30.3198 51.4169 31.0026 51.4142 31.692V39.992C51.4169 40.6814 51.2808 41.3643 51.0142 42C50.7569 42.6126 50.3834 43.1696 49.9142 43.64C49.4463 44.111 48.8913 44.4866 48.2802 44.746C47.647 45.0146 46.966 45.1524 46.2782 45.151ZM32.0011 34.663C31.9831 34.634 30.1872 31.708 28.4212 28.348C28.0912 27.721 27.7781 27.108 27.4911 26.528H36.5111C36.2231 27.109 35.9112 27.722 35.5812 28.348C33.8152 31.706 32.0191 34.634 32.0011 34.663ZM36.9071 25.716H27.0951C26.7711 25.038 26.4772 24.393 26.2212 23.798H37.7802C37.5242 24.398 37.2311 25.04 36.9071 25.716Z" fill="url(#paint0_linear_40_32762)"/>
<path d="M32.0002 34.6641C31.9822 34.6351 30.1871 31.7101 28.4201 28.3491C27.3811 26.3721 26.5532 24.6311 25.9592 23.1731C25.3516 21.8797 24.973 20.4908 24.8402 19.0681C24.8384 18.1107 25.0299 17.1627 25.4031 16.2811C25.5834 15.8554 25.8044 15.4481 26.0632 15.0651C26.3201 14.6847 26.6128 14.3298 26.9372 14.0051C27.2619 13.6806 27.6168 13.388 27.9971 13.1311C28.3802 12.8723 28.7875 12.6513 29.2132 12.4711C30.0949 12.0978 31.0428 11.9063 32.0002 11.9081C32.9576 11.9063 33.9055 12.0978 34.7872 12.4711C35.2129 12.6513 35.6201 12.8723 36.0031 13.1311C36.3835 13.388 36.7385 13.6807 37.0632 14.0051C37.3876 14.3298 37.6803 14.6847 37.9372 15.0651C38.196 15.4481 38.4169 15.8554 38.5971 16.2811C38.9704 17.1627 39.1619 18.1107 39.1601 19.0681C39.0273 20.4909 38.6488 21.8798 38.0412 23.1731C37.4472 24.6311 36.6192 26.3731 35.5802 28.3491C33.8132 31.7101 32.0182 34.6351 32.0002 34.6641ZM32.0642 15.4881C31.6111 15.4871 31.1625 15.5776 30.7452 15.7541C30.3426 15.9241 29.9768 16.1707 29.6682 16.4801C29.3587 16.7887 29.1122 17.1545 28.9422 17.5571C28.7657 17.9744 28.6753 18.423 28.6762 18.8761C28.6753 19.3292 28.7657 19.7778 28.9422 20.1951C29.1123 20.5977 29.3588 20.9634 29.6682 21.2721C29.9768 21.5815 30.3426 21.8281 30.7452 21.9981C31.1625 22.1746 31.6111 22.2651 32.0642 22.2641C32.5172 22.265 32.9658 22.1746 33.3831 21.9981C33.7857 21.8281 34.1515 21.5815 34.4602 21.2721C34.7696 20.9635 35.0161 20.5977 35.1861 20.1951C35.3626 19.7778 35.4532 19.3292 35.4522 18.8761C35.4532 18.423 35.3626 17.9744 35.1861 17.5571C35.0161 17.1545 34.7696 16.7887 34.4602 16.4801C34.1515 16.1707 33.7857 15.9241 33.3831 15.7541C32.9658 15.5776 32.5172 15.4871 32.0642 15.4881Z" fill="url(#paint1_linear_40_32762)"/>
</g>
<defs>
<linearGradient id="paint0_linear_40_32762" x1="32.0031" y1="23.797" x2="32.0031" y2="48.0921" gradientUnits="userSpaceOnUse">
<stop stop-color="#27A3DD"/>
<stop offset="1" stop-color="#4A2670"/>
</linearGradient>
<linearGradient id="paint1_linear_40_32762" x1="32.0001" y1="11.9081" x2="32.0001" y2="34.6641" gradientUnits="userSpaceOnUse">
<stop stop-color="#27A3DD"/>
<stop offset="1" stop-color="#4A2670"/>
</linearGradient>
<clipPath id="clip0_40_32762">
<rect width="64" height="64" fill="white"/>
</clipPath>
</defs>
</svg>
