<svg width="64" height="64" viewBox="0 0 64 64" fill="none" xmlns="http://www.w3.org/2000/svg">
<g clip-path="url(#clip0_40_32768)">
<path d="M32 64C49.6731 64 64 49.6731 64 32C64 14.3269 49.6731 0 32 0C14.3269 0 0 14.3269 0 32C0 49.6731 14.3269 64 32 64Z" fill="#272727"/>
<path fill-rule="evenodd" clip-rule="evenodd" d="M29.8225 10.0821C25.1575 15.1451 19.7645 18.1451 13.7935 18.9871L11.4265 19.3221L11.2585 21.7071C11.0031 25.7387 11.4891 29.7829 12.6925 33.6391L12.7125 33.7061C14.123 38.3451 16.4339 42.6607 19.5132 46.4061C22.5925 50.1514 26.3797 53.2532 30.6585 55.5341L32.0475 56.2551L33.4335 55.5351C37.7136 53.2545 41.5022 50.1525 44.5826 46.4066C47.6629 42.6606 49.9746 38.3442 51.3855 33.7041L51.4105 33.6221V33.6041C52.5522 29.747 53.0008 25.7179 52.7355 21.7041L52.5665 19.3201L50.2005 18.9851C44.2495 18.1411 39.0005 15.2211 34.1525 10.0601L31.9775 7.74512L29.8225 10.0821Z" fill="black"/>
<path fill-rule="evenodd" clip-rule="evenodd" d="M30.6595 10.8542C25.8115 16.1142 20.1905 19.2292 13.9535 20.1142L12.4975 20.3202L12.3975 21.7882C12.1507 25.6787 12.6191 29.5815 13.7795 33.3032L13.7995 33.3692C15.1649 37.8649 17.4032 42.0475 20.3862 45.6776C23.3693 49.3077 27.0386 52.3142 31.1845 54.5252L32.0475 54.9742L32.9095 54.5262C37.0566 52.3158 40.7272 49.3094 43.7114 45.6791C46.6955 42.0488 48.9346 37.8657 50.3005 33.3692L50.3235 33.2932V33.2832C51.4253 29.5568 51.8577 25.6645 51.6005 21.7872L51.5005 20.3202L50.0445 20.1142C43.8245 19.2322 38.3555 16.2032 33.3245 10.8412L31.9855 9.41516L30.6595 10.8542Z" fill="white"/>
<path fill-rule="evenodd" clip-rule="evenodd" d="M48.5095 32.7671H15.5175L15.5375 32.8321C16.8315 37.0981 18.9536 41.0672 21.7826 44.5125C24.6115 47.9578 28.0918 50.8117 32.0245 52.9111L32.0475 52.9231L32.0705 52.9111C36.0032 50.8119 39.4836 47.958 42.3126 44.5127C45.1416 41.0674 47.2637 37.0982 48.5575 32.8321L48.5775 32.7671H48.5095Z" fill="black"/>
<path fill-rule="evenodd" clip-rule="evenodd" d="M48.5595 32.8231C49.6132 29.2885 50.029 25.5945 49.7875 21.9141C43.2035 20.9801 37.3065 17.7371 31.9995 12.0861C26.7905 17.7371 20.7995 20.9801 14.2115 21.9141C13.9803 25.601 14.4298 29.2989 15.5375 32.8231H48.5595Z" fill="#FF1100"/>
<path fill-rule="evenodd" clip-rule="evenodd" d="M19.1255 23.1431L22.9095 21.1781C22.829 22.4555 23.0478 23.7341 23.5485 24.9121L27.2345 32.8731V37.3451L21.7345 25.8951C21.0264 24.8399 20.1478 23.9099 19.1345 23.1431H19.1255Z" fill="white"/>
<path fill-rule="evenodd" clip-rule="evenodd" d="M45.2675 23.4871L41.4835 21.5221C41.5399 22.7981 41.322 24.0714 40.8445 25.2561L34.9445 38.5731L37.2545 38.2291L42.6595 26.2391C43.1515 25.1581 44.3305 24.3721 45.2595 23.4871H45.2675Z" fill="white"/>
<path fill-rule="evenodd" clip-rule="evenodd" d="M26.8895 45.6981H30.2794V34.0041H33.8174C34.5554 34.0041 34.9964 34.9371 35.5374 35.4291L35.5865 30.6131C34.9965 31.0551 34.6035 31.8911 33.8665 31.8911H30.3275L30.2785 27.1251L28.0175 27.8131V43.7831C28.0175 44.5201 27.2805 45.0601 26.8875 45.6991L26.8895 45.6981Z" fill="white"/>
<path fill-rule="evenodd" clip-rule="evenodd" d="M28.0685 24.2242V20.9812C28.0685 20.2442 27.3805 19.7032 26.9385 19.1132H37.4555V22.3562C36.6195 21.8162 35.9315 20.8332 34.9975 20.8332H30.3305V23.7812L28.0695 24.2232L28.0685 24.2242Z" fill="white"/>
<path fill-rule="evenodd" clip-rule="evenodd" d="M35.2435 45.7481H38.7325V42.5051C38.5845 42.6531 38.4875 43.9791 35.9325 43.9791L35.2445 45.7481H35.2435Z" fill="white"/>
<path fill-rule="evenodd" clip-rule="evenodd" d="M31.0655 42.7021V45.8961L32.7365 49.1891L35.9805 41.8671L33.9655 41.9171L32.4915 45.6521L31.0655 42.7021Z" fill="white"/>
<path fill-rule="evenodd" clip-rule="evenodd" d="M27.2295 38.2291C24.501 37.0172 22.1067 35.1623 20.2515 32.8231C20.833 31.675 21.7163 30.707 22.8065 30.0231L21.7295 28.0581C20.3158 28.9285 19.1487 30.1466 18.3395 31.5961C18.0848 32.1029 17.6933 32.5282 17.2095 32.8241C17.6525 33.0701 17.9465 33.0241 18.3895 33.6601C20.5942 36.74 23.6743 39.0856 27.2295 40.3921V38.2291Z" fill="white"/>
<path fill-rule="evenodd" clip-rule="evenodd" d="M24.8245 26.0431L25.8075 27.9591C27.8317 27.003 30.027 26.4626 32.2637 26.3696C34.5004 26.2767 36.733 26.6332 38.8295 27.4181L39.6155 25.6981C37.2535 24.7576 34.7261 24.3033 32.1844 24.3624C29.6428 24.4215 27.1392 24.9928 24.8235 26.0421L24.8245 26.0431Z" fill="white"/>
<path fill-rule="evenodd" clip-rule="evenodd" d="M42.9085 27.3691L42.1725 29.0891L43.5485 29.7771C43.9415 29.9241 44.0885 30.4651 44.3345 30.8091L45.5625 28.1091C45.1195 28.1091 44.6295 28.3091 44.2365 28.1091L42.9085 27.3721V27.3691Z" fill="white"/>
<path fill-rule="evenodd" clip-rule="evenodd" d="M31.0175 38.9641V40.8322C35.9805 41.9132 40.6495 40.4392 44.9735 37.8842L43.6945 35.9672C41.9123 37.333 39.8614 38.3064 37.6764 38.8235C35.4914 39.3405 33.2218 39.3895 31.0165 38.9672L31.0175 38.9641Z" fill="white"/>
</g>
<defs>
<clipPath id="clip0_40_32768">
<rect width="64" height="64" fill="white"/>
</clipPath>
</defs>
</svg>
