<svg width="64" height="64" viewBox="0 0 64 64" fill="none" xmlns="http://www.w3.org/2000/svg">
<g clip-path="url(#clip0_40_32786)">
<path d="M32 64C49.6731 64 64 49.6731 64 32C64 14.3269 49.6731 0 32 0C14.3269 0 0 14.3269 0 32C0 49.6731 14.3269 64 32 64Z" fill="#EFE014"/>
<path fill-rule="evenodd" clip-rule="evenodd" d="M15.268 11.248V20.867H18.9L12.474 35.584L32 55.078L51.525 35.584L45.099 20.867H48.73V11.248" fill="#ED2127"/>
<path fill-rule="evenodd" clip-rule="evenodd" d="M17.098 19.0391H46.904V13.0751H17.104" fill="#FBEE23"/>
<path fill-rule="evenodd" clip-rule="evenodd" d="M32 20.8671H20.9L14.651 35.1731C16.151 36.6731 29.851 50.3511 32 52.4951V20.8671Z" fill="black"/>
<path fill-rule="evenodd" clip-rule="evenodd" d="M43.101 20.8671H32.001V52.4951L49.348 35.1731L43.101 20.8671Z" fill="#FBEE23"/>
<path fill-rule="evenodd" clip-rule="evenodd" d="M21.344 15.2811L21.995 18.2811H22.844L23.844 14.0381H23.071L22.426 17.3011L21.78 14.0381H20.965L20.31 17.3011L19.653 14.0381H18.867L19.867 18.2811H20.747M26.706 18.2811H27.52L26.158 14.5771H25.351L23.985 18.2831H24.798L25.078 17.4201H26.43L26.709 18.2831L26.706 18.2811ZM25.284 16.7741L25.755 15.3331L26.222 16.7751H25.287L25.284 16.7741ZM27.533 14.5741V15.2181H28.549V18.2831H29.329V15.2211H30.329L30.483 14.5771M31.144 14.5771V18.2831H31.897V16.6761H33.023V16.0331H31.895V15.2211H33.2L33.354 14.5771M35.562 14.5331C35.3115 14.5171 35.0606 14.5568 34.8272 14.6493C34.5939 14.7417 34.3839 14.8848 34.2124 15.068C34.0409 15.2513 33.9121 15.4703 33.8353 15.7092C33.7584 15.9482 33.7355 16.2012 33.768 16.4501C33.7486 16.6976 33.7806 16.9464 33.862 17.1809C33.9434 17.4154 34.0724 17.6305 34.2409 17.8128C34.4095 17.995 34.6139 18.1404 34.8413 18.2399C35.0687 18.3393 35.3143 18.3907 35.5625 18.3907C35.8107 18.3907 36.0563 18.3393 36.2837 18.2399C36.5111 18.1404 36.7155 17.995 36.8841 17.8128C37.0526 17.6305 37.1816 17.4154 37.263 17.1809C37.3444 16.9464 37.3764 16.6976 37.357 16.4501C37.3885 16.2012 37.3647 15.9485 37.2874 15.7099C37.21 15.4712 37.081 15.2526 36.9095 15.0696C36.738 14.8865 36.5282 14.7435 36.2951 14.6508C36.0621 14.5581 35.8124 14.5179 35.562 14.5331ZM35.561 17.7931C34.82 17.7931 34.637 17.1931 34.637 16.4501C34.637 15.7071 34.82 15.1071 35.561 15.1071C36.302 15.1071 36.484 15.7071 36.484 16.4501C36.484 17.1931 36.301 17.7931 35.561 17.7931ZM40.073 16.7201V16.6801C40.3248 16.6592 40.5582 16.5394 40.7219 16.3469C40.8857 16.1545 40.9666 15.905 40.947 15.6531C40.947 14.8611 40.347 14.5801 39.647 14.5801H38.244V18.2831H39.011V16.7331H39.076C39.333 16.7331 40.244 18.2831 40.244 18.2831H41.212L40.077 16.7171L40.073 16.7201ZM39.596 16.1891H39.011V15.2211H39.596C39.808 15.2211 40.128 15.2541 40.128 15.6731C40.1324 15.7432 40.1215 15.8135 40.0961 15.8791C40.0706 15.9446 40.0312 16.0038 39.9806 16.0526C39.93 16.1014 39.8694 16.1386 39.803 16.1616C39.7366 16.1847 39.666 16.193 39.596 16.1861V16.1891ZM43.325 14.5801H42.007V18.2831H43.326C44.509 18.2831 45.002 17.4921 45.002 16.4401C45.002 15.3881 44.509 14.5771 43.326 14.5771M43.352 17.6391H42.764V15.2211H43.351C43.857 15.2211 44.151 15.7101 44.151 16.4391C44.151 17.1681 43.86 17.6391 43.351 17.6391M25.718 23.7851C25.7181 23.8683 25.7258 23.9513 25.741 24.0331C25.7586 24.1381 25.7663 24.2446 25.764 24.3511C25.764 24.9161 25.634 25.1811 25.544 25.1811C25.5324 25.1823 25.5206 25.1823 25.509 25.1811C25.4936 25.1622 25.4792 25.1425 25.466 25.1221C25.3685 24.9684 25.2302 24.8449 25.0664 24.7654C24.9027 24.6859 24.7201 24.6536 24.539 24.6721C24.419 24.6684 24.2995 24.6902 24.1885 24.7359C24.0774 24.7817 23.9773 24.8504 23.8947 24.9375C23.8121 25.0247 23.7488 25.1283 23.709 25.2416C23.6693 25.355 23.6539 25.4754 23.664 25.5951C23.6806 26.2741 23.8051 26.9462 24.033 27.5861C24.124 27.8262 24.1841 28.0769 24.212 28.3321C24.2139 28.4447 24.1756 28.5542 24.104 28.6411C24.0225 28.6421 23.942 28.6238 23.869 28.5876C23.796 28.5515 23.7326 28.4985 23.684 28.4331C23.5518 28.2822 23.3876 28.1628 23.2033 28.0836C23.0191 28.0043 22.8194 27.9673 22.619 27.9751C22.5009 27.9667 22.3823 27.9847 22.272 28.0277C22.1616 28.0707 22.0622 28.1377 21.9809 28.2238C21.8995 28.3099 21.8384 28.413 21.8017 28.5256C21.7651 28.6383 21.7539 28.7576 21.769 28.8751C21.7859 29.2051 21.8685 29.5284 22.012 29.8261C22.17 30.1561 22.2578 30.5154 22.27 30.8811C22.27 30.9141 22.27 31.2131 22.17 31.2131C21.785 31.2131 21.639 30.9751 21.417 30.5551C21.223 30.1881 20.982 29.7331 20.423 29.7331C19.506 29.7331 19.506 31.1011 19.506 31.6151C19.506 34.5231 22.269 35.5761 24.128 35.5761C24.3822 35.5774 24.6361 35.5576 24.887 35.5171C25.1466 35.4757 25.4092 35.4559 25.672 35.4581C26.5548 35.388 27.4355 35.6174 28.172 36.1091C27.8431 35.9878 27.4946 35.9281 27.144 35.9331C26.8458 35.9017 26.5443 35.9305 26.2575 36.0177C25.9706 36.105 25.7042 36.2489 25.474 36.4411C25.3608 36.5488 25.2238 36.6283 25.074 36.6731L23.695 37.0671L25.095 37.3801C25.6347 37.5621 26.0828 37.9464 26.345 38.4521C26.71 38.9681 27.123 39.5521 27.883 39.5521C27.95 39.5521 28.0169 39.5467 28.083 39.5361C28.0022 39.9768 27.9617 40.424 27.962 40.8721C27.9401 41.1156 27.9668 41.3611 28.0407 41.5943C28.1145 41.8274 28.2339 42.0435 28.392 42.2301L28.508 42.3851C28.617 42.5431 28.732 42.6981 28.845 42.8461C29.2918 43.311 29.5663 43.9147 29.623 44.5571C29.623 44.9221 29.641 45.2161 29.658 45.5001C29.675 45.7841 29.691 46.0531 29.691 46.3901C29.6829 46.7212 29.7833 47.046 29.9771 47.3147C30.1708 47.5833 30.4472 47.7812 30.764 47.8781C30.802 47.8961 30.847 47.9161 30.883 47.9331C30.955 48.2781 31.296 48.3911 31.509 48.4601L31.583 48.4841L31.661 48.5151C31.8249 48.5917 32.0041 48.6297 32.185 48.6261C32.45 48.6328 32.7077 48.5387 32.906 48.3627C33.1042 48.1867 33.2283 47.942 33.253 47.6781L33.289 47.6621C33.5697 47.5762 33.8148 47.4012 33.9872 47.1636C34.1595 46.9259 34.2497 46.6386 34.244 46.3451C34.2412 45.9625 34.204 45.581 34.133 45.2051C34.0922 44.997 34.0682 44.786 34.061 44.5741C34.0725 44.0982 34.2721 43.6462 34.616 43.3171C35.2867 42.5768 35.6366 41.6009 35.589 40.6031C35.5922 40.186 35.5688 39.7692 35.519 39.3551C35.6088 39.3765 35.7007 39.3879 35.793 39.3891C36.1406 39.4003 36.4827 39.3004 36.7695 39.1038C37.0564 38.9073 37.2731 38.6243 37.388 38.2961C37.5106 38.035 37.705 37.8142 37.9485 37.6596C38.192 37.505 38.4746 37.4229 38.763 37.4231C38.4957 37.029 38.1331 36.7088 37.709 36.4922C37.2849 36.2756 36.813 36.1696 36.337 36.1841C35.9172 36.1757 35.5005 36.2575 35.115 36.4241C35.1605 36.2774 35.2348 36.1413 35.3335 36.0237C35.4322 35.9061 35.5534 35.8093 35.69 35.7391C36.2597 35.5164 36.8719 35.4234 37.482 35.4671C37.7868 35.468 38.0913 35.4864 38.394 35.5221C38.6691 35.555 38.9459 35.5724 39.223 35.5741C41.741 35.5741 42.402 34.7741 43.103 33.9341C43.7393 33.2629 44.0933 32.3729 44.092 31.4481C44.092 30.7251 43.883 29.9541 43.292 29.9541C42.784 29.9541 42.566 30.4281 42.392 30.8091C42.182 31.2631 42.059 31.4541 41.842 31.4541C41.6925 31.4386 41.555 31.3651 41.459 31.2494C41.3631 31.1336 41.3164 30.9849 41.329 30.8351C41.3873 30.4432 41.5284 30.0682 41.743 29.7351C42.0027 29.3281 42.1639 28.8662 42.214 28.3861C42.2155 28.2638 42.1893 28.1428 42.1374 28.0321C42.0854 27.9215 42.009 27.824 41.914 27.7471C41.7506 27.6137 41.5459 27.5413 41.335 27.5421C40.887 27.5421 40.535 27.9131 40.186 28.2721C39.966 28.5011 39.666 28.8131 39.486 28.8241C39.4282 28.7499 39.3956 28.6591 39.393 28.5651C39.4334 28.1475 39.5261 27.7366 39.669 27.3421C39.8212 26.9234 39.9163 26.4861 39.952 26.0421C39.952 25.2541 39.493 24.9031 39.037 24.9031C38.7058 24.9144 38.3884 25.0382 38.137 25.2541C38.026 25.3538 37.8897 25.4209 37.743 25.4481C37.7395 25.4436 37.7368 25.4385 37.735 25.4331V25.0561C37.735 24.9421 37.735 24.8311 37.735 24.7251C37.735 23.8901 37.7 23.3251 37.377 22.9981C37.2965 22.9189 37.2007 22.857 37.0955 22.8161C36.9903 22.7752 36.8778 22.7561 36.765 22.7601C35.62 22.7601 35.106 24.2691 35.106 25.7601C35.106 26.4541 35.135 27.0661 35.163 27.6601C35.19 28.2251 35.214 28.7601 35.214 29.3351C35.229 30.3979 35.05 31.4545 34.686 32.4531C34.608 31.7921 34.486 30.7951 33.715 30.7951C33.076 30.7951 32.926 31.6101 32.754 32.5551C32.598 33.4031 32.384 34.5641 31.854 34.5641C31.411 34.5641 31.283 33.7561 31.16 32.7011C31.04 31.6661 30.904 30.4931 29.981 30.4931C28.981 30.4931 28.912 31.7931 28.87 32.6511C28.865 32.7591 28.858 32.8861 28.848 33.0091C28.5201 32.3685 28.3355 31.6642 28.307 30.9451C28.307 29.9831 28.367 29.2301 28.427 28.5001C28.484 27.8001 28.543 27.0801 28.543 26.2001C28.543 24.2651 28.061 23.7421 27.636 23.2811L27.607 23.2481C27.4972 23.0834 27.353 22.9445 27.1843 22.8409C27.0157 22.7373 26.8265 22.6715 26.63 22.6481C26.4945 22.6609 26.363 22.7006 26.2431 22.765C26.1232 22.8293 26.0174 22.917 25.9319 23.0228C25.8463 23.1287 25.7828 23.2505 25.7451 23.3813C25.7073 23.512 25.6961 23.6489 25.712 23.7841" fill="black"/>
<path fill-rule="evenodd" clip-rule="evenodd" d="M43.301 30.323C42.695 30.323 42.736 31.823 41.848 31.823C41.7255 31.8164 41.6055 31.7856 41.4949 31.7324C41.3843 31.6793 41.2854 31.6048 41.2037 31.5133C41.122 31.4217 41.0592 31.3149 41.0189 31.1991C40.9787 31.0832 40.9617 30.9605 40.969 30.838C40.969 30.038 41.852 29.127 41.852 28.389C41.8513 28.3236 41.8373 28.259 41.811 28.1991C41.7846 28.1392 41.7464 28.0852 41.6987 28.0405C41.6509 27.9957 41.5946 27.9611 41.5332 27.9387C41.4717 27.9163 41.4063 27.9065 41.341 27.91C40.741 27.91 40.141 29.195 39.481 29.195C39.172 29.195 39.031 28.795 39.031 28.568C39.031 27.852 39.591 26.684 39.591 26.043C39.591 25.529 39.356 25.269 39.041 25.269C38.456 25.269 38.261 25.818 37.711 25.818C37.6186 25.807 37.5334 25.7626 37.4715 25.6932C37.4096 25.6237 37.3753 25.534 37.375 25.441C37.375 24.004 37.448 23.124 36.775 23.124C35.899 23.124 35.484 24.447 35.484 25.764C35.484 27.101 35.592 28.135 35.592 29.339C35.592 31.204 35.141 32.768 34.748 33.105C34.748 33.105 34.648 34.191 35.08 34.191C35.948 34.191 37.358 31.764 39.107 31.764C39.896 31.764 39.951 32.248 39.951 32.445C39.951 33.08 39.051 33.403 39.051 33.806C39.051 34.012 39.364 34.03 39.751 34.03C40.4729 34.0118 41.1702 33.7641 41.742 33.323C41.4722 33.6186 41.146 33.8572 40.7826 34.0249C40.4192 34.1925 40.0259 34.2857 39.626 34.299C39.06 34.299 38.626 34.121 38.626 33.788C38.626 33.26 39.694 32.839 39.694 32.311C39.694 32.15 39.516 31.927 39.112 31.927C37.686 31.927 36.179 34.622 35.005 34.622C34.763 34.622 34.427 34.461 34.427 33.849C34.427 33.326 34.386 31.165 33.727 31.165C32.94 31.165 33.318 34.934 31.868 34.934C30.337 34.934 31.251 30.863 29.995 30.863C29.233 30.863 29.353 31.963 29.233 32.958C29.133 33.77 28.899 34.509 28.4 34.509C27.7855 34.4648 27.1982 34.2385 26.713 33.859C26.356 33.638 25.976 33.421 25.661 33.185C25.15 32.803 24.868 32.42 24.361 32.42C24.093 32.42 23.796 32.568 23.796 32.842C23.796 33.38 24.361 33.588 24.361 34.051C24.361 34.313 23.978 34.521 23.54 34.521C23.1015 34.5655 22.6601 34.4716 22.2777 34.2524C21.8953 34.0333 21.5912 33.6999 21.408 33.299C21.677 33.6131 22.0145 33.8612 22.3946 34.0242C22.7746 34.1872 23.187 34.2607 23.6 34.239C23.93 34.239 24.051 34.166 24.051 34.004C24.051 33.704 23.594 33.433 23.594 32.849C23.5941 32.758 23.6128 32.6679 23.6488 32.5842C23.6847 32.5006 23.7373 32.4251 23.8033 32.3624C23.8693 32.2997 23.9474 32.251 24.0327 32.2193C24.1181 32.1876 24.209 32.1736 24.3 32.178C24.832 32.178 25.191 32.566 25.74 32.963C26.4802 33.5979 27.3788 34.0202 28.34 34.185C28.64 34.185 28.84 34.051 28.84 33.737C28.3212 32.8927 28.0141 31.9355 27.945 30.947C27.945 29.035 28.18 27.966 28.18 26.204C28.18 24.367 27.739 23.935 27.34 23.504C27.04 23.177 26.876 23.02 26.634 23.02C26.216 23.02 26.076 23.477 26.076 23.79C26.076 23.982 26.122 23.99 26.122 24.356C26.122 25.008 25.968 25.551 25.537 25.551C25.037 25.551 25.295 25.04 24.537 25.04C24.4652 25.037 24.3936 25.0498 24.3273 25.0775C24.261 25.1051 24.2015 25.147 24.1531 25.2001C24.1047 25.2531 24.0685 25.3162 24.047 25.3848C24.0256 25.4534 24.0194 25.5258 24.029 25.597C24.1428 26.5215 24.3259 27.4361 24.577 28.333C24.577 28.619 24.412 29.007 24.118 29.007C23.357 29.007 23.492 28.336 22.618 28.336C22.246 28.336 22.133 28.551 22.133 28.874C22.133 29.498 22.633 29.974 22.633 30.874C22.633 31.274 22.498 31.574 22.167 31.574C21.033 31.574 21.173 30.093 20.422 30.093C20.038 30.093 19.871 30.593 19.871 31.609C19.871 34.322 22.526 35.209 24.126 35.209C24.806 35.209 24.879 35.092 25.67 35.092C29.385 35.092 29.085 37.363 29.085 37.363C28.8964 37.0186 28.6135 36.7352 28.2696 36.5458C27.9256 36.3565 27.5348 36.2691 27.143 36.294C25.713 36.294 25.868 36.822 25.179 37.02C26.608 37.34 26.734 39.186 27.887 39.186C28.0373 39.1856 28.1853 39.1497 28.3191 39.0812C28.4529 39.0127 28.5687 38.9137 28.657 38.792C28.4327 39.4622 28.3235 40.1654 28.334 40.872C28.3138 41.1123 28.3467 41.354 28.4301 41.5802C28.5136 41.8063 28.6456 42.0114 28.817 42.181C29.4567 42.8254 29.8704 43.6597 29.996 44.559C30.161 44.559 30.285 43.8 30.377 43.8C30.437 43.8 30.488 43.917 30.488 44.085C30.2668 44.8371 30.1251 45.6104 30.065 46.392C30.0558 46.6441 30.1303 46.8921 30.2768 47.0973C30.4234 47.3026 30.6337 47.4537 30.875 47.527C31.0964 47.2072 31.287 46.867 31.444 46.511C31.272 46.9176 31.2033 47.3604 31.244 47.8C31.244 48.01 31.449 48.053 31.711 48.14C31.861 48.2179 32.027 48.26 32.196 48.263C32.2935 48.2643 32.3902 48.2455 32.4801 48.2076C32.57 48.1697 32.651 48.1136 32.7182 48.0429C32.7853 47.9722 32.8371 47.8883 32.8703 47.7966C32.9035 47.7049 32.9173 47.6073 32.911 47.51C32.911 47.295 32.691 46.892 32.691 46.65C32.691 46.65 32.683 46.503 32.718 46.503C32.8819 46.7688 33.016 47.0519 33.118 47.347C33.3395 47.2908 33.5357 47.1615 33.6747 46.9801C33.8136 46.7986 33.8874 46.5756 33.884 46.347C33.884 45.547 33.398 44.458 33.398 43.968C33.398 43.855 33.438 43.779 33.479 43.779C33.573 43.779 33.732 44.223 33.732 44.223C33.942 42.997 35.232 42.881 35.232 40.607C35.2783 39.9655 35.2037 39.321 35.012 38.707C35.236 38.8918 35.5107 39.0044 35.8 39.03C37.19 39.03 36.861 37.647 37.952 37.186C37.952 37.048 37.365 36.554 36.343 36.554C36.0222 36.5176 35.6975 36.5627 35.3988 36.685C35.1001 36.8074 34.837 37.0031 34.634 37.254C34.634 35.231 36.054 35.11 37.486 35.11C38.253 35.11 38.586 35.218 39.227 35.218C41.577 35.218 42.154 34.518 42.827 33.706C43.4056 33.1 43.7281 32.294 43.727 31.456C43.727 30.97 43.608 30.331 43.298 30.331M28.133 38.062C28.133 38.156 28.433 38.228 28.608 38.228C28.608 38.336 28.397 38.492 28.201 38.492C27.443 38.492 27.81 37.319 26.295 37.024C26.3843 36.995 26.4782 36.9828 26.572 36.988C27.772 36.988 28.115 37.914 28.766 37.914C28.576 37.935 28.133 37.95 28.133 38.062ZM30.71 42.899V42.317C30.71 42.155 30.637 42.086 30.494 42.086L30.872 41.226V41.14C30.204 41.14 29.624 41.006 29.624 40.531H29.435C29.4026 40.5279 29.3723 40.5136 29.3493 40.4907C29.3263 40.4677 29.3121 40.4374 29.309 40.405C29.309 40.346 29.533 40.092 30.062 40.092C30.289 40.0861 30.513 40.1447 30.708 40.261C30.6322 40.1009 30.5129 39.9655 30.3635 39.8703C30.2142 39.7752 30.041 39.7241 29.864 39.723C29.7099 39.71 29.5548 39.7267 29.407 39.772C29.4696 39.693 29.5474 39.6273 29.6359 39.5788C29.7244 39.5304 29.8216 39.5002 29.922 39.49C30.85 39.49 31.092 40.072 31.092 41.097C31.1031 41.7184 30.9721 42.334 30.709 42.897M36.766 37.197C36.8452 37.1951 36.9243 37.2042 37.001 37.224C36.101 37.389 36.106 38.48 35.383 38.48C35.2908 38.481 35.2001 38.4564 35.121 38.409C35.221 38.209 35.562 38.163 35.562 37.896C35.3482 37.8945 35.1349 37.9166 34.926 37.962C35.1585 37.7079 35.4437 37.5076 35.7617 37.3753C36.0797 37.243 36.4228 37.1818 36.767 37.196M34.693 39.896L34.631 39.996C34.4157 39.929 34.1923 39.8913 33.967 39.884C33.813 39.8749 33.6594 39.9065 33.5216 39.9757C33.3838 40.0448 33.2666 40.1491 33.182 40.278C33.3566 40.1952 33.5489 40.1567 33.742 40.166C34.235 40.166 34.594 40.43 34.594 40.528C34.594 40.626 34.442 40.684 34.32 40.684C34.32 40.921 33.997 41.248 33.02 41.248C33.02 41.727 33.32 42.048 33.32 42.185C33.072 42.185 33.037 42.422 33.037 42.843C32.874 42.2233 32.76 41.5916 32.696 40.954C32.696 40.154 33.019 39.548 33.705 39.548C34.0583 39.577 34.3983 39.6965 34.692 39.895" fill="#ED2127"/>
<path fill-rule="evenodd" clip-rule="evenodd" d="M33.145 40.8171L33.092 40.9331C33.1994 40.9935 33.322 41.0217 33.445 41.0141C33.93 41.0141 34.145 40.6221 34.095 40.5751C34.045 40.5281 33.839 40.8751 33.463 40.8751C33.3537 40.8829 33.2442 40.8636 33.145 40.8171Z" fill="#ED2127"/>
<path fill-rule="evenodd" clip-rule="evenodd" d="M33.671 40.7001C33.6664 40.7246 33.6527 40.7466 33.6327 40.7616C33.6127 40.7766 33.5879 40.7835 33.563 40.7811C33.504 40.7811 33.455 40.7451 33.455 40.7001C33.4618 40.6768 33.4759 40.6564 33.4953 40.6419C33.5147 40.6274 33.5383 40.6195 33.5625 40.6195C33.5867 40.6195 33.6103 40.6274 33.6297 40.6419C33.649 40.6564 33.6642 40.6768 33.671 40.7001ZM29.963 40.5061C30.013 40.5441 30.114 40.7981 30.379 40.7981C30.4304 40.8013 30.482 40.7936 30.5302 40.7755C30.5785 40.7574 30.6223 40.7293 30.659 40.6931C30.6708 40.686 30.6847 40.6831 30.6984 40.6848C30.7121 40.6865 30.7248 40.6928 30.7346 40.7025C30.7443 40.7123 30.7506 40.725 30.7523 40.7387C30.754 40.7524 30.7511 40.7662 30.744 40.7781C30.707 40.8341 30.634 40.9051 30.388 40.9051C30.2793 40.9025 30.1733 40.8713 30.0806 40.8146C29.9878 40.7579 29.9118 40.6777 29.86 40.5821C29.816 40.4731 29.86 40.4351 29.96 40.5061" fill="#ED2127"/>
</g>
<defs>
<clipPath id="clip0_40_32786">
<rect width="64" height="64" fill="white"/>
</clipPath>
</defs>
</svg>
