<svg width="64" height="64" viewBox="0 0 64 64" fill="none" xmlns="http://www.w3.org/2000/svg">
<g clip-path="url(#clip0_402_28)">
<rect width="64" height="64" fill="white"/>
<path d="M32 64C49.6731 64 64 49.6731 64 32C64 14.3269 49.6731 0 32 0C14.3269 0 0 14.3269 0 32C0 49.6731 14.3269 64 32 64Z" fill="#3F3F3F"/>
<path d="M28.8866 5H35.2147C48.5347 7.48625 56.4631 15.3781 59 28.6756V35.0038C56.5925 48.65 48.56 56.6488 34.9025 59H28.7853C15.2909 56.4631 7.3625 48.4306 5 34.9025V28.9963C7.37937 15.4625 15.3416 7.46375 28.8866 5ZM47.2128 16.2725C33.8225 4.24062 13.0831 10.94 10.265 28.9456C10.2087 29.2775 10.3522 29.4462 10.6953 29.4519L17.1078 29.4772C17.4903 29.4772 17.7322 29.2944 17.8334 28.9288C22.1703 13.9184 34.4131 17.0656 47.0187 16.7872C47.0782 16.7865 47.136 16.7678 47.1846 16.7337C47.2333 16.6996 47.2705 16.6517 47.2915 16.5961C47.3124 16.5405 47.3161 16.4799 47.3021 16.4221C47.2881 16.3644 47.2569 16.3123 47.2128 16.2725ZM28.2453 23.0309C26.5409 23.9169 23.4022 26.8784 23.1491 29.0047C23.1418 29.0632 23.1469 29.1225 23.164 29.1788C23.1811 29.235 23.2098 29.2869 23.2481 29.3308C23.2865 29.3747 23.3336 29.4098 23.3864 29.4336C23.4392 29.4574 23.4963 29.4694 23.5541 29.4688H53.1022C53.2132 29.4685 53.3226 29.4422 53.4215 29.3919C53.5205 29.3416 53.6063 29.2688 53.6719 29.1794C53.7376 29.0899 53.7813 28.9862 53.7996 28.8767C53.8179 28.7673 53.8102 28.655 53.7772 28.5491L51.9631 22.7862C51.8821 22.5266 51.7213 22.2997 51.5042 22.1388C51.2871 21.9779 51.0251 21.8913 50.7566 21.8919C45.2469 21.8666 32.8438 20.6178 28.2453 23.0309ZM46.6475 47.0609C35.1219 47.3562 22.0016 49.6597 17.9178 35.3834C17.8465 35.1373 17.6976 34.921 17.4936 34.7673C17.2897 34.6136 17.0417 34.5307 16.7872 34.5312H11.1087C10.3381 34.5312 10.0428 34.9053 10.2228 35.6534C14.3403 52.6466 33.4175 60.2825 46.9934 47.9131C47.068 47.8458 47.12 47.7572 47.1424 47.6593C47.1648 47.5614 47.1566 47.459 47.1188 47.3659C47.0811 47.2729 47.0156 47.1937 46.9312 47.1391C46.8469 47.0846 46.7479 47.0573 46.6475 47.0609ZM34.0587 42.2009C39.155 42.1447 44.2513 42.1138 49.3475 42.1081C52.8491 42.0997 53.1697 37.9316 53.7266 35.3412C53.8447 34.8013 53.6281 34.5312 53.0769 34.5312H23.4106C23.3478 34.5316 23.2859 34.5475 23.2308 34.5777C23.1756 34.6078 23.1287 34.6511 23.0944 34.7038C23.0602 34.7565 23.0395 34.8169 23.0343 34.8796C23.0291 34.9422 23.0395 35.0052 23.0647 35.0628C25.1684 39.8778 28.8331 42.2572 34.0587 42.2009Z" fill="white"/>
</g>
<defs>
<clipPath id="clip0_402_28">
<rect width="64" height="64" fill="white"/>
</clipPath>
</defs>
</svg>
