<svg width="64" height="64" viewBox="0 0 64 64" fill="none" xmlns="http://www.w3.org/2000/svg">
<g clip-path="url(#clip0_40_32798)">
<path d="M32 64C49.6731 64 64 49.6731 64 32C64 14.3269 49.6731 0 32 0C14.3269 0 0 14.3269 0 32C0 49.6731 14.3269 64 32 64Z" fill="#FDB913"/>
<path d="M18.755 54.9489L5.51001 32L18.755 9.04895H45.245L58.49 32L45.245 54.9489H18.755Z" fill="#231F20"/>
<path d="M21.301 50.5319L10.601 31.9999L21.301 13.4669H42.701L53.401 31.9999L42.701 50.5319H21.301Z" fill="#FDB913"/>
<path d="M21.528 50.15H42.482L52.956 32L42.472 13.85H21.528L11.046 32L21.528 50.15ZM42.917 50.926H21.083L10.156 32L10.27 31.8L21.083 13.074H42.927L43.041 13.274L53.856 32L42.917 50.926Z" fill="white"/>
<path d="M28.93 23.3499H35.056L38.326 15.1439L47.173 33.1279L37.601 38.7879L34.528 48.8559H29.478L26.415 38.7669L16.833 33.1279L25.667 15.1439L28.93 23.3499Z" fill="#231F20"/>
<path d="M30.19 34.422L25.678 29.579V34.422H30.19ZM38.323 29.579V34.422H33.801L38.323 29.579Z" fill="white"/>
</g>
<defs>
<clipPath id="clip0_40_32798">
<rect width="64" height="64" fill="white"/>
</clipPath>
</defs>
</svg>
