<svg width="64" height="64" viewBox="0 0 64 64" fill="none" xmlns="http://www.w3.org/2000/svg">
<g clip-path="url(#clip0_40_32807)">
<path d="M32 64C49.6731 64 64 49.6731 64 32C64 14.3269 49.6731 0 32 0C14.3269 0 0 14.3269 0 32C0 49.6731 14.3269 64 32 64Z" fill="#F5F5F5"/>
<path d="M48.512 17.965L43.112 20.716L17.04 33.996C16.6675 31.1418 17.0955 28.2402 18.2764 25.6151C19.4572 22.99 21.3444 20.7448 23.7272 19.13C26.1101 17.5152 28.8948 16.5945 31.7706 16.4705C34.6464 16.3466 37.5 17.0243 40.013 18.428L43.1 16.854L43.561 16.619C40.73 14.565 37.3863 13.3336 33.8993 13.0608C30.4123 12.7881 26.9178 13.4846 23.8019 15.0735C20.686 16.6624 18.07 19.0818 16.243 22.0643C14.4159 25.0468 13.449 28.4764 13.449 31.974C13.449 32.4574 13.4673 32.9387 13.504 33.418C13.5554 34.0968 13.4048 34.7755 13.0714 35.369C12.7379 35.9624 12.2364 36.4439 11.63 36.753L10 37.584V41.46L14.8 39.011L16.354 38.218L17.885 37.438L45.371 23.438L48.46 21.865L54.841 18.611V14.736L48.512 17.965Z" fill="black"/>
<path d="M54.841 22.488L19.444 40.511L16.355 42.088L10 45.326V49.198L16.312 45.982L21.712 43.231L47.812 29.931C47.9003 30.6078 47.9447 31.2895 47.945 31.972C47.9438 34.6815 47.2339 37.3436 45.8857 39.6938C44.5375 42.044 42.598 44.0007 40.2597 45.3695C37.9214 46.7384 35.2657 47.4717 32.5563 47.4967C29.8469 47.5217 27.1782 46.8375 24.815 45.512L24.625 45.612L21.275 47.319C24.1053 49.374 27.4486 50.6065 30.9355 50.8804C34.4223 51.1543 37.9171 50.4589 41.0335 48.871C44.1499 47.2832 46.7667 44.8647 48.5947 41.8828C50.4227 38.9009 51.3908 35.4717 51.392 31.974C51.392 31.486 51.373 30.999 51.337 30.517C51.2857 29.8385 51.4361 29.16 51.7691 28.5667C52.1022 27.9734 52.6031 27.4916 53.209 27.182L54.841 26.351V22.488Z" fill="black"/>
</g>
<defs>
<clipPath id="clip0_40_32807">
<rect width="64" height="64" fill="white"/>
</clipPath>
</defs>
</svg>
