<svg width="64" height="64" viewBox="0 0 64 64" fill="none" xmlns="http://www.w3.org/2000/svg">
<g clip-path="url(#clip0_40_32814)">
<mask id="mask0_40_32814" style="mask-type:luminance" maskUnits="userSpaceOnUse" x="0" y="0" width="64" height="64">
<path d="M32 64C49.6731 64 64 49.6731 64 32C64 14.3269 49.6731 0 32 0C14.3269 0 0 14.3269 0 32C0 49.6731 14.3269 64 32 64Z" fill="white"/>
</mask>
<g mask="url(#mask0_40_32814)">
<path d="M63.995 31.996C63.995 38.325 62.1182 44.5118 58.602 49.7742C55.0858 55.0366 50.0881 59.1381 44.2409 61.5601C38.3936 63.9821 31.9595 64.6158 25.7521 63.3811C19.5447 62.1464 13.8429 59.0987 9.36759 54.6234C4.89231 50.1481 1.84461 44.4463 0.60988 38.2389C-0.624847 32.0315 0.00886059 25.5973 2.43086 19.7501C4.85287 13.9029 8.95439 8.90515 14.2168 5.38894C19.4791 1.87274 25.666 -0.00402832 31.995 -0.00402832C40.4819 -0.00402832 48.6213 3.36739 54.6224 9.36856C60.6236 15.3697 63.995 23.509 63.995 31.996Z" fill="white"/>
<path d="M32 0C26.9332 0.00598701 21.9401 1.21392 17.4309 3.52457C12.9216 5.83522 9.02491 9.18267 6.06077 13.2919C3.09662 17.4012 1.14964 22.1551 0.379741 27.163C-0.390155 32.171 0.0390055 37.2901 1.63197 42.1H11.205V15.184L32.005 35.984L52.799 15.184V42.101H62.366C63.9599 37.291 64.3897 32.1715 63.6202 27.1631C62.8506 22.1547 60.9036 17.4004 57.9392 13.2909C54.9747 9.18135 51.0775 5.83387 46.5676 3.52353C42.0578 1.2132 37.0641 0.00595393 31.997 0.000999928L32 0Z" fill="#F26822"/>
<path d="M27.217 40.76L18.142 31.684V48.621H4.65698C7.51113 53.316 11.5261 57.1971 16.3153 59.8904C21.1045 62.5837 26.5064 63.9985 32.001 63.9985C37.4955 63.9985 42.8975 62.5837 47.6867 59.8904C52.4758 57.1971 56.4908 53.316 59.345 48.621H45.855V31.684L36.779 40.76L31.998 45.541L27.217 40.76Z" fill="#4D4D4D"/>
</g>
</g>
<defs>
<clipPath id="clip0_40_32814">
<rect width="64" height="64" fill="white"/>
</clipPath>
</defs>
</svg>
