<svg xmlns="http://www.w3.org/2000/svg" xmlns:xlink="http://www.w3.org/1999/xlink" width="64" height="64" viewBox="0 0 64 64"><defs><clipPath id="a"><circle cx="32" cy="32" r="32" transform="translate(286 1923)" fill="#dedede"/></clipPath></defs><g transform="translate(-286 -1923)" clip-path="url(#a)"><g transform="translate(286.003 1923)"><path d="M70.329,38.33a32,32,0,1,1-32-32A32,32,0,0,1,70.329,38.33Z" transform="translate(-6.337 -6.334)" fill="#fff"/><path d="M38.334,6.334a32.03,32.03,0,0,0-30.368,42.1h9.573V21.518l20.8,20.8,20.794-20.8V48.435H68.7a32.026,32.026,0,0,0-30.369-42.1Z" transform="translate(-6.337 -6.334)" fill="#f26822"/><path d="M33.551,47.094l-9.075-9.076V54.955H10.991a32,32,0,0,0,54.688,0H52.189V38.018l-9.076,9.076-4.781,4.781-4.781-4.781h0Z" transform="translate(-6.337 -6.334)" fill="#4d4d4d"/></g></g></svg>