<svg width="64" height="64" viewBox="0 0 64 64" fill="none" xmlns="http://www.w3.org/2000/svg">
<g clip-path="url(#clip0_40_32829)">
<path d="M32 64C49.6731 64 64 49.6731 64 32C64 14.3269 49.6731 0 32 0C14.3269 0 0 14.3269 0 32C0 49.6731 14.3269 64 32 64Z" fill="#2C7DF7"/>
<path d="M36.086 51.064C33.3653 51.064 31.3797 50.4087 30.129 49.098C28.9704 47.9886 28.2981 46.4656 28.259 44.862C28.2451 44.3748 28.3581 43.8923 28.587 43.462C28.8003 43.0902 29.1085 42.7817 29.48 42.568C29.912 42.3526 30.3882 42.2404 30.871 42.2404C31.3538 42.2404 31.83 42.3526 32.262 42.568C32.6329 42.7809 32.9396 43.0897 33.15 43.462C33.3853 43.8903 33.5023 44.3735 33.489 44.862C33.5131 45.4454 33.3456 46.0207 33.012 46.5C32.7342 46.8914 32.337 47.1823 31.88 47.329C32.327 47.898 32.9593 48.2922 33.667 48.443C34.4587 48.6728 35.2786 48.791 36.103 48.794C37.1946 48.8036 38.2637 48.4841 39.171 47.877C40.1117 47.2117 40.813 46.2611 41.171 45.166C41.6255 43.8625 41.8472 42.4893 41.826 41.109C41.8626 39.67 41.6198 38.2376 41.111 36.891C40.7283 35.8142 40.002 34.8932 39.044 34.27C38.1535 33.7066 37.1198 33.4109 36.066 33.418C35.1475 33.4958 34.2619 33.7965 33.486 34.294L31.573 35.253V34.294L40.173 22.762H28.259V34.729C28.2253 35.5924 28.4537 36.4458 28.914 37.177C29.1367 37.4954 29.4378 37.751 29.7881 37.919C30.1385 38.087 30.5263 38.1618 30.914 38.136C31.6313 38.1207 32.3247 37.8753 32.892 37.436C33.535 36.9657 34.0947 36.3911 34.548 35.736C34.5889 35.621 34.6639 35.5213 34.763 35.45C34.8428 35.3811 34.9446 35.3432 35.05 35.343C35.257 35.3619 35.4528 35.4451 35.61 35.581C35.8078 35.804 35.9148 36.093 35.91 36.391C35.8873 36.5931 35.8515 36.7935 35.803 36.991C35.3799 38.0154 34.6706 38.8962 33.76 39.528C32.9142 40.1004 31.9153 40.404 30.894 40.399C28.3147 40.399 26.5277 39.8907 25.533 38.874C25.0219 38.3121 24.628 37.6538 24.3744 36.9378C24.1208 36.2218 24.0126 35.4624 24.056 34.704V22.762H18V20.537H24.088V15.469L22.694 14.074V12.937H26.739L28.258 13.723V20.537L44 20.491L45.567 22.064L35.916 31.764C36.4991 31.5295 37.1132 31.3809 37.739 31.323C38.9774 31.3773 40.1856 31.7223 41.266 32.33C42.515 32.9242 43.5678 33.8636 44.3 35.037C44.9565 36.0324 45.4212 37.1418 45.67 38.308C45.8748 39.2277 45.9847 40.1659 45.998 41.108C46.0046 42.9062 45.597 44.6817 44.807 46.297C44.0576 47.8613 42.7963 49.1227 41.232 49.872C39.6309 50.6609 37.8689 51.0686 36.084 51.063L36.086 51.064Z" fill="white"/>
</g>
<defs>
<clipPath id="clip0_40_32829">
<rect width="64" height="64" fill="white"/>
</clipPath>
</defs>
</svg>
