<svg width="64" height="64" viewBox="0 0 64 64" fill="none" xmlns="http://www.w3.org/2000/svg">
<g clip-path="url(#clip0_40_32843)">
<path d="M32 57C45.8071 57 57 45.8071 57 32C57 18.1929 45.8071 7 32 7C18.1929 7 7 18.1929 7 32C7 45.8071 18.1929 57 32 57Z" fill="url(#paint0_linear_40_32843)"/>
<path d="M32 64C25.671 64 19.4841 62.1232 14.2218 58.607C8.95939 55.0908 4.85787 50.0931 2.43587 44.2459C0.013865 38.3986 -0.619842 31.9645 0.614885 25.7571C1.84961 19.5497 4.89732 13.8479 9.3726 9.3726C13.8479 4.89732 19.5497 1.84961 25.7571 0.614885C31.9645 -0.619842 38.3986 0.013865 44.2459 2.43587C50.0931 4.85787 55.0908 8.95939 58.607 14.2218C62.1232 19.4841 64 25.671 64 32C63.9752 40.4793 60.5958 48.6042 54.6 54.6C48.6042 60.5958 40.4793 63.9752 32 64ZM32 7.11501C27.0782 7.11501 22.267 8.57449 18.1747 11.3089C14.0823 14.0433 10.8928 17.9298 9.00927 22.4769C7.12579 27.0241 6.63298 32.0276 7.59317 36.8548C8.55337 41.6821 10.9234 46.1161 14.4037 49.5964C17.8839 53.0766 22.318 55.4467 27.1452 56.4069C31.9724 57.367 36.976 56.8742 41.5231 54.9908C46.0702 53.1073 49.9567 49.9177 52.6911 45.8254C55.4255 41.7331 56.885 36.9218 56.885 32C56.8652 25.4062 54.2371 19.0881 49.5745 14.4255C44.912 9.76296 38.5938 7.1348 32 7.11501Z" fill="black"/>
<path d="M31.259 40.6679H45.126V47.5999H36.944V53.466H29.829V47.783H21.3C21.3 45.468 20.949 43.165 21.482 41.032C21.664 39.965 22.9 38.898 23.797 37.832C26.464 34.632 29.131 31.432 31.979 28.232C33.045 26.983 34.112 25.917 35.361 24.499H22.023V17.565H29.841V11.7H36.775V17.383H45.308C45.308 19.698 45.659 22.001 45.126 24.134C44.944 25.201 43.708 26.267 42.811 27.334C40.145 30.534 37.478 33.7339 34.629 36.9339C33.562 38.1829 32.5 39.4189 31.259 40.6679Z" fill="black"/>
</g>
<defs>
<linearGradient id="paint0_linear_40_32843" x1="7" y1="32.6" x2="57" y2="32" gradientUnits="userSpaceOnUse">
<stop stop-color="#CF8724"/>
<stop offset="1" stop-color="#FDCE58"/>
</linearGradient>
<clipPath id="clip0_40_32843">
<rect width="64" height="64" fill="white"/>
</clipPath>
</defs>
</svg>
