<svg xmlns="http://www.w3.org/2000/svg" xmlns:xlink="http://www.w3.org/1999/xlink" width="64" height="64" viewBox="0 0 64 64"><defs><linearGradient id="a" y1="0.512" x2="1" y2="0.5" gradientUnits="objectBoundingBox"><stop offset="0" stop-color="#cf8724"/><stop offset="1" stop-color="#fdce58"/></linearGradient></defs><g transform="translate(-286 -2205)"><g transform="translate(286 2205)"><circle cx="25" cy="25" r="25" transform="translate(7 7)" fill="url(#a)"/><path d="M32,64A32,32,0,1,1,64,32,32.094,32.094,0,0,1,32,64ZM32,7.115A24.885,24.885,0,1,0,56.885,32,24.96,24.96,0,0,0,32,7.115Z"/><path d="M31.259,40.668H45.126V47.6H36.944v5.866H29.829V47.783H21.3c0-2.315-.351-4.618.182-6.751.182-1.067,1.418-2.134,2.315-3.2,2.667-3.2,5.334-6.4,8.182-9.6,1.066-1.249,2.133-2.315,3.382-3.733H22.023V17.565h7.818V11.7h6.934v5.683h8.533c0,2.315.351,4.618-.182,6.751-.182,1.067-1.418,2.133-2.315,3.2-2.666,3.2-5.333,6.4-8.182,9.6C33.562,38.183,32.5,39.419,31.259,40.668Z"/></g></g></svg>