<svg width="64" height="64" viewBox="0 0 64 64" fill="none" xmlns="http://www.w3.org/2000/svg">
<g clip-path="url(#clip0_40_32849)">
<path d="M32 64C49.6731 64 64 49.6731 64 32C64 14.3269 49.6731 0 32 0C14.3269 0 0 14.3269 0 32C0 49.6731 14.3269 64 32 64Z" fill="#1A0F2F"/>
<path fill-rule="evenodd" clip-rule="evenodd" d="M45.313 26.2529C45.9942 26.2519 46.6489 26.5167 47.138 26.9909C47.3765 27.2221 47.5663 27.4987 47.6961 27.8044C47.826 28.1101 47.8932 28.4388 47.894 28.7709V34.0599C47.9041 34.397 47.8449 34.7327 47.72 35.0459C47.5941 35.3612 47.4056 35.6476 47.166 35.8879C46.9239 36.1306 46.636 36.3226 46.319 36.4529C45.6748 36.7179 44.9521 36.7179 44.308 36.4529C43.991 36.3226 43.7031 36.1305 43.461 35.8879C43.2213 35.6476 43.0328 35.3612 42.907 35.0459C42.782 34.7327 42.7228 34.397 42.733 34.0599V28.7729C42.7337 28.4408 42.8009 28.1121 42.9308 27.8064C43.0606 27.5007 43.2504 27.2241 43.489 26.9929C43.9784 26.5188 44.6335 26.2544 45.315 26.2559L45.313 26.2529ZM38.792 29.6949C39.473 29.6937 40.1278 29.9581 40.617 30.4319C40.8556 30.6629 41.0455 30.9393 41.1755 31.2448C41.3055 31.5504 41.373 31.8789 41.374 32.2109V41.2109C41.3526 41.869 41.0714 42.4917 40.592 42.9429C40.1044 43.4006 39.4607 43.6554 38.792 43.6554C38.1232 43.6554 37.4795 43.4006 36.992 42.9429C36.5125 42.4917 36.2313 41.869 36.21 41.2109V32.2109C36.2111 31.8797 36.2792 31.5522 36.41 31.2479C36.5403 30.9416 36.7304 30.6642 36.969 30.4319C37.2099 30.1976 37.4942 30.0125 37.806 29.8869C38.1197 29.7606 38.4548 29.6957 38.793 29.6959L38.792 29.6949ZM32 19.3729C32.68 19.3706 33.3342 19.6331 33.824 20.1049C34.0626 20.3352 34.2527 20.6108 34.3832 20.9157C34.5138 21.2205 34.582 21.5483 34.584 21.8799V44.3939C34.5393 45.0355 34.2484 45.6349 33.772 46.0669C33.2882 46.5045 32.6592 46.7468 32.007 46.7468C31.3547 46.7468 30.7257 46.5045 30.242 46.0669C29.7656 45.6349 29.4746 45.0355 29.43 44.3939V21.8799C29.4319 21.5493 29.4998 21.2224 29.6296 20.9183C29.7594 20.6142 29.9485 20.3391 30.186 20.1089C30.6726 19.6381 31.3228 19.3742 32 19.3729ZM25.479 17.2529C25.8176 17.253 26.153 17.3182 26.467 17.4449C26.7791 17.5707 27.0638 17.7562 27.305 17.9909C27.5439 18.2234 27.7343 18.5012 27.865 18.8079C27.9957 19.1122 28.0637 19.4397 28.065 19.7709V32.2079C28.0436 32.866 27.7624 33.4887 27.283 33.9399C26.7954 34.3976 26.1517 34.6524 25.483 34.6524C24.8142 34.6524 24.1705 34.3976 23.683 33.9399C23.2035 33.4887 22.9223 32.866 22.901 32.2079V19.7729C22.9017 19.4408 22.9689 19.1121 23.0988 18.8064C23.2286 18.5007 23.4184 18.2241 23.657 17.9929C24.1449 17.5187 24.7985 17.2532 25.479 17.2529ZM18.686 25.9929C19.3665 25.9917 20.0208 26.2557 20.51 26.7289C20.7486 26.9597 20.9386 27.2359 21.0688 27.5412C21.199 27.8466 21.2667 28.175 21.268 28.5069V34.8539C21.2781 35.191 21.2189 35.5267 21.094 35.8399C20.9681 36.1551 20.7796 36.4416 20.54 36.6819C20.2978 36.9245 20.0099 37.1166 19.693 37.2469C19.0488 37.5118 18.3261 37.5118 17.682 37.2469C17.365 37.1166 17.0771 36.9245 16.835 36.6819C16.5953 36.4416 16.4068 36.1551 16.281 35.8399C16.156 35.5267 16.0968 35.191 16.107 34.8539V28.5059C16.1082 28.1742 16.1758 27.8461 16.3058 27.5409C16.4358 27.2357 16.6256 26.9596 16.864 26.7289C17.3526 26.2561 18.0061 25.9922 18.686 25.9929Z" fill="url(#paint0_linear_40_32849)"/>
</g>
<defs>
<linearGradient id="paint0_linear_40_32849" x1="43.6353" y1="40.3171" x2="21.761" y2="20.5628" gradientUnits="userSpaceOnUse">
<stop offset="0.04" stop-color="#11CED0"/>
<stop offset="0.43" stop-color="#4053C1"/>
<stop offset="0.69" stop-color="#7D33D6"/>
<stop offset="0.95" stop-color="#CF61DC"/>
</linearGradient>
<clipPath id="clip0_40_32849">
<rect width="64" height="64" fill="white"/>
</clipPath>
</defs>
</svg>
