<svg xmlns="http://www.w3.org/2000/svg" xmlns:xlink="http://www.w3.org/1999/xlink" width="64" height="64" viewBox="0 0 64 64"><defs><linearGradient id="a" x1="0.866" y1="0.782" x2="0.132" y2="0.167" gradientUnits="objectBoundingBox"><stop offset="0.04" stop-color="#11ced0"/><stop offset="0.43" stop-color="#4053c1"/><stop offset="0.69" stop-color="#7d33d6"/><stop offset="0.95" stop-color="#cf61dc"/></linearGradient></defs><g transform="translate(-479 -7217.403)"><circle cx="32" cy="32" r="32" transform="translate(479 7217.403)" fill="#1a0f2f"/><path d="M30.489,9.98a2.616,2.616,0,0,1,1.825.738,2.486,2.486,0,0,1,.756,1.78v5.289a2.461,2.461,0,0,1-.174.986,2.511,2.511,0,0,1-.554.842,2.585,2.585,0,0,1-.847.565,2.643,2.643,0,0,1-2.011,0,2.586,2.586,0,0,1-.847-.565,2.511,2.511,0,0,1-.554-.842,2.462,2.462,0,0,1-.174-.986V12.5a2.486,2.486,0,0,1,.756-1.78,2.616,2.616,0,0,1,1.826-.737Zm-6.521,3.442a2.616,2.616,0,0,1,1.825.737,2.486,2.486,0,0,1,.757,1.779v9a2.489,2.489,0,0,1-.782,1.732,2.63,2.63,0,0,1-3.6,0,2.489,2.489,0,0,1-.782-1.732v-9a2.461,2.461,0,0,1,.2-.963,2.511,2.511,0,0,1,.559-.816,2.586,2.586,0,0,1,.837-.545,2.638,2.638,0,0,1,.987-.191ZM17.176,3.1A2.616,2.616,0,0,1,19,3.832a2.487,2.487,0,0,1,.76,1.775V28.121a2.492,2.492,0,0,1-.812,1.673,2.631,2.631,0,0,1-3.53,0,2.492,2.492,0,0,1-.812-1.673V5.607a2.487,2.487,0,0,1,.756-1.771A2.616,2.616,0,0,1,17.176,3.1ZM10.655.98a2.64,2.64,0,0,1,.988.192,2.588,2.588,0,0,1,.838.546,2.515,2.515,0,0,1,.56.817,2.463,2.463,0,0,1,.2.963V15.935a2.489,2.489,0,0,1-.782,1.732,2.63,2.63,0,0,1-3.6,0,2.489,2.489,0,0,1-.782-1.732V3.5a2.486,2.486,0,0,1,.756-1.78A2.616,2.616,0,0,1,10.655.98ZM3.862,9.72a2.616,2.616,0,0,1,1.824.736,2.486,2.486,0,0,1,.758,1.778v6.347a2.461,2.461,0,0,1-.174.986,2.512,2.512,0,0,1-.554.842,2.587,2.587,0,0,1-.847.565,2.644,2.644,0,0,1-2.011,0,2.587,2.587,0,0,1-.847-.565,2.512,2.512,0,0,1-.554-.842,2.461,2.461,0,0,1-.174-.986V12.233a2.486,2.486,0,0,1,.757-1.777A2.616,2.616,0,0,1,3.862,9.72Z" transform="translate(493.824 7233.676)" fill-rule="evenodd" fill="url(#a)"/></g></svg>