<svg width="64" height="64" viewBox="0 0 64 64" fill="none" xmlns="http://www.w3.org/2000/svg">
<g clip-path="url(#clip0_40_32853)">
<path d="M32 64C49.6731 64 64 49.6731 64 32C64 14.3269 49.6731 0 32 0C14.3269 0 0 14.3269 0 32C0 49.6731 14.3269 64 32 64Z" fill="#F5F5F5"/>
<path d="M48.575 27.93L41.818 30.943L23.8931 40.067L41.818 48.685V34.442L48.575 31.397V52.442L41.818 55.455L15.425 42.821V36.107L33.694 27.144L15.425 18.364V11.553L22.289 8.54004L48.5741 21.193L48.575 27.93Z" fill="#49C1BF"/>
<path d="M15.425 11.555L41.818 24.208L48.575 21.195L22.289 8.54199L15.425 11.555Z" fill="#077A8F"/>
<path d="M41.8181 24.18L48.5751 21.167V27.902L41.8181 30.915V24.18Z" fill="#298E97"/>
<path d="M15.425 11.561V18.372L33.694 27.152L15.425 36.115V42.829L41.818 55.461V48.704L23.8931 40.075L41.818 30.951V24.216L15.425 11.561Z" fill="#49C1BF"/>
<path d="M41.8181 55.4091L48.5751 52.3961V31.3511L41.8181 34.3961V55.4091Z" fill="#298E97"/>
</g>
<defs>
<clipPath id="clip0_40_32853">
<rect width="64" height="64" fill="white"/>
</clipPath>
</defs>
</svg>
