<svg xmlns="http://www.w3.org/2000/svg" width="64" height="64" viewBox="0 0 64 64"><g transform="translate(-286 -3609)"><circle cx="32" cy="32" r="32" transform="translate(286 3609)" fill="#f5f5f5"/><g transform="translate(301.432 3617.542)"><g transform="translate(-0.007)"><path d="M-157.55,128.388l-6.757,3.013-17.925,9.124,17.925,8.618V134.9l6.757-3.045V152.9l-6.757,3.013L-190.7,143.279v-6.714l18.269-8.963-18.269-8.78v-6.811l6.864-3.013,26.285,12.653Z" transform="translate(190.7 -109)" fill="#49c1bf"/></g><g transform="translate(-0.007)"><path d="M-190.7,112.013l26.393,12.653,6.757-3.013L-183.836,109Z" transform="translate(190.7 -109)" fill="#077a8f"/></g><g transform="translate(26.386 12.625)"><path d="M36.6,220.713l6.757-3.013v6.735L36.6,227.448Z" transform="translate(-36.6 -217.7)" fill="#298e97"/></g><g transform="translate(-0.007 3.019)"><path d="M-190.7,135v6.811l18.269,8.78-18.269,8.963v6.714l26.393,12.632v-6.757l-17.925-8.629,17.925-9.124v-6.735Z" transform="translate(190.7 -135)" fill="#49c1bf"/></g><g transform="translate(26.386 22.809)"><path d="M36.6,329.458l6.757-3.013V305.4L36.6,308.445Z" transform="translate(-36.6 -305.4)" fill="#298e97"/></g></g></g></svg>