<svg width="64" height="64" viewBox="0 0 64 64" fill="none" xmlns="http://www.w3.org/2000/svg">
<g clip-path="url(#clip0_40_32867)">
<path d="M32 64C49.6731 64 64 49.6731 64 32C64 14.3269 49.6731 0 32 0C14.3269 0 0 14.3269 0 32C0 49.6731 14.3269 64 32 64Z" fill="#F5F5F5"/>
<path d="M32 59C46.9117 59 59 46.9117 59 32C59 17.0883 46.9117 5 32 5C17.0883 5 5 17.0883 5 32C5 46.9117 17.0883 59 32 59Z" fill="#F5F5F5"/>
<path d="M46.73 41.3421C48.682 43.9611 50.695 46.6421 52.707 49.3201C48.8675 53.9749 43.5518 57.177 37.642 58.3951C31.0818 59.8048 24.2318 58.7192 18.429 55.3501C23.918 51.2701 29.286 47.2491 34.718 43.2301C35.938 44.3871 37.097 45.5441 38.256 46.6411C39.537 47.8591 39.049 47.9201 40.696 47.0061C42.9367 45.731 44.856 43.9601 46.307 41.8291C46.368 41.7071 46.49 41.5851 46.551 41.4641C46.486 41.4641 46.547 41.4641 46.73 41.3421ZM22.76 46.7021C21.235 47.8591 19.832 48.8951 18.429 49.9911C17.392 50.7831 16.355 51.5141 15.318 52.3051C14.891 52.6701 14.586 52.6701 14.098 52.2441C9.54543 48.233 6.48767 42.7966 5.4242 36.8231C4.36074 30.8495 5.35444 24.6919 8.24298 19.3561C8.30398 19.2341 8.42598 19.0561 8.48698 18.9301C8.48698 18.8691 8.54798 18.8691 8.66998 18.8081C12.696 24.1081 16.782 29.4081 20.808 34.7081C20.7226 34.8598 20.6221 35.0026 20.508 35.1341C19.288 36.4131 18.068 37.6921 16.787 38.9101C16.7027 38.9703 16.6311 39.0464 16.5762 39.1343C16.5214 39.2222 16.4845 39.32 16.4675 39.4221C16.4505 39.5243 16.4538 39.6288 16.4772 39.7297C16.5006 39.8306 16.5437 39.9259 16.604 40.0101C17.8717 42.4089 19.6646 44.4907 21.849 46.1001C22.149 46.2831 22.398 46.4651 22.764 46.7091L22.76 46.7021ZM45.51 8.88008C43.558 10.2801 41.61 11.6801 39.655 13.0211C36.3 15.3961 32.946 17.8321 29.655 20.2081C29.228 20.5081 28.923 20.5731 28.555 20.1471C27.455 18.9901 26.298 17.9541 25.2 16.7971C25.0749 16.6515 24.9032 16.5537 24.7142 16.5204C24.5251 16.487 24.3304 16.5201 24.163 16.6141C21.6069 17.9339 19.4104 19.8558 17.763 22.2141C17.6266 22.3651 17.5041 22.5281 17.397 22.7011C16.421 21.4221 15.506 20.2651 14.591 19.0471C13.615 17.7681 12.7 16.4891 11.785 15.2711C11.7031 15.1964 11.6388 15.1045 11.5967 15.002C11.5546 14.8994 11.5358 14.7888 11.5416 14.6781C11.5475 14.5675 11.5778 14.4595 11.6304 14.3619C11.6831 14.2644 11.7567 14.1797 11.846 14.1141C16.3108 9.02038 22.5485 5.81895 29.29 5.16108C34.6894 4.56255 40.1419 5.6485 44.9 8.27008C45.083 8.39208 45.266 8.45308 45.449 8.57008C45.449 8.75808 45.449 8.81908 45.51 8.88008ZM55.452 45.4231C54.171 43.7791 53.012 42.2561 51.852 40.7331C49.168 37.2011 46.485 33.6071 43.74 30.0751C43.374 29.5881 43.374 29.2831 43.801 28.8571C44.96 27.7001 46.058 26.5431 47.217 25.3851C47.3747 25.2692 47.4818 25.097 47.5159 24.9042C47.5499 24.7115 47.5084 24.513 47.4 24.3501C46.0828 21.8088 44.1806 19.6169 41.85 17.9551C41.6569 17.7989 41.4531 17.6565 41.24 17.5291C41.423 17.3461 41.606 17.2291 41.728 17.1031C44.046 15.3371 46.363 13.6311 48.681 11.8651C49.047 11.5651 49.352 11.4391 49.781 11.8651C54.316 15.8159 57.3939 21.1743 58.5218 27.0821C59.6498 32.99 58.7625 39.1054 56.002 44.4491C55.7799 44.7499 55.5952 45.0777 55.452 45.4231Z" fill="#231815"/>
</g>
<defs>
<clipPath id="clip0_40_32867">
<rect width="64" height="64" fill="white"/>
</clipPath>
</defs>
</svg>
