<svg xmlns="http://www.w3.org/2000/svg" width="64" height="64" viewBox="0 0 64 64"><g transform="translate(-1186 -4414)"><circle cx="32" cy="32" r="32" transform="translate(1186 4414)" fill="#fff"/><g transform="translate(905 810)"><ellipse cx="27" cy="27" rx="27" ry="27" transform="translate(286 3609)" fill="#f5f5f5"/><path d="M67.812,62.172c1.952,2.619,3.965,5.3,5.977,7.978a26.45,26.45,0,0,1-15.065,9.075A26.977,26.977,0,0,1,39.511,76.18C45,72.1,50.368,68.079,55.8,64.06c1.22,1.157,2.379,2.314,3.538,3.411,1.281,1.218.793,1.279,2.44.365a16.9,16.9,0,0,0,5.611-5.177c.061-.122.183-.244.244-.365C67.568,62.294,67.629,62.294,67.812,62.172Zm-23.97,5.36c-1.525,1.157-2.928,2.193-4.331,3.289-1.037.792-2.074,1.523-3.111,2.314-.427.365-.732.365-1.22-.061a26.817,26.817,0,0,1-5.855-32.888c.061-.122.183-.3.244-.426,0-.061.061-.061.183-.122,4.026,5.3,8.112,10.6,12.138,15.9a2.578,2.578,0,0,1-.3.426c-1.22,1.279-2.44,2.558-3.721,3.776a.788.788,0,0,0-.183,1.1,18.026,18.026,0,0,0,5.245,6.09c.3.183.549.365.915.609ZM66.592,29.71c-1.952,1.4-3.9,2.8-5.855,4.141-3.355,2.375-6.709,4.811-10,7.187-.427.3-.732.365-1.1-.061-1.1-1.157-2.257-2.193-3.355-3.35a.831.831,0,0,0-1.037-.183,17.729,17.729,0,0,0-6.4,5.6,3.379,3.379,0,0,0-.366.487c-.976-1.279-1.891-2.436-2.806-3.654-.976-1.279-1.891-2.558-2.806-3.776a.749.749,0,0,1,.061-1.157,26.637,26.637,0,0,1,17.444-8.953A26.335,26.335,0,0,1,65.982,29.1c.183.122.366.183.549.3C66.531,29.588,66.531,29.649,66.592,29.71Zm9.942,36.543c-1.281-1.644-2.44-3.167-3.6-4.69-2.684-3.532-5.367-7.126-8.112-10.658-.366-.487-.366-.792.061-1.218,1.159-1.157,2.257-2.314,3.416-3.472a.761.761,0,0,0,.183-1.035,18.062,18.062,0,0,0-5.55-6.395,5.275,5.275,0,0,0-.61-.426c.183-.183.366-.3.488-.426,2.318-1.766,4.635-3.472,6.953-5.238.366-.3.671-.426,1.1,0a26.863,26.863,0,0,1,6.221,32.584A4.614,4.614,0,0,0,76.534,66.252Z" transform="translate(259.918 3583.17)" fill="#231815"/></g></g></svg>