<svg xmlns="http://www.w3.org/2000/svg" width="690" height="690" viewBox="0 0 690 690"><g transform="translate(-51.642 -24.478)"><circle cx="345" cy="345" r="345" transform="translate(51.642 24.478)" fill="#fff"/><path d="M317.9,397.2c15.985-10.371,32.439-31.554,32.439-64.016,0-47.138-28.262-78.564-77.105-87.265V228H224.013v15.472H180V228h-49.21v15.472H90.449l60.608,81.561H114.145V493.262H151.06L90.452,574.831h40.343V590.29H180V574.83h44.012v15.46h49.218V574.664c58.816-2.5,104.515-36.878,104.515-96.312,0-45.987-25.586-69.434-59.849-81.15m-134.318-91.06h51.172c28.784,0,45.683,13.521,45.683,36.062,0,22.091-17.353,36.52-43.859,36.52h-53ZM257.6,512.167H183.579v-78.9h72.189c32.431,0,51.164,13.979,51.164,39.667s-19.185,39.228-49.337,39.228Z" transform="translate(162.543 -39.667)" fill="#ea5607"/></g></svg>