<svg xmlns="http://www.w3.org/2000/svg" width="689.74" height="206" viewBox="0 0 689.74 206">
  <g id="bitci" transform="translate(-121.321 -738)">
    <g id="Group_209" data-name="Group 209">
      <g id="Group_207" data-name="Group 207" transform="translate(121.321 738)">
        <path id="Path_401" data-name="Path 401" d="M715.75,301.88a5.059,5.059,0,0,1,3-1.08h27.83a3.35,3.35,0,0,1,2.45.88,3.08,3.08,0,0,1,.87,2.25,3.739,3.739,0,0,1-.09,1L737.56,363.2q-.89,4.1-4.88,4.1H704.87c-2.34,0-3.51-.95-3.51-2.83a8.229,8.229,0,0,1,.19-1.27l12.25-58.27a5.19,5.19,0,0,1,2-3m11-49.76A8.75,8.75,0,0,1,733,250h21.48c3.84,0,5.77,1.69,5.77,5.08a16.778,16.778,0,0,1-.4,2.73l-4.58,21.68c-.53,2.61-1.45,4.4-2.79,5.38a9.59,9.59,0,0,1-5.71,1.46H725.32a9.08,9.08,0,0,1-4.78-1,3.84,3.84,0,0,1-1.66-3.56,9.349,9.349,0,0,1,.19-2.15l4.59-21.78a11.43,11.43,0,0,1,3.08-5.72Z" transform="translate(-70.51 -194.64)" fill="#fff"/>
        <path id="Path_402" data-name="Path 402" d="M670.76,328.63a2.1,2.1,0,0,1,2.11,1.2l9.64,18.73a5.239,5.239,0,0,1,.55,2.2c0,1.1-.79,2.24-2.39,3.4a66.741,66.741,0,0,1-17.76,9.32,58.4,58.4,0,0,1-19.79,3.72,50,50,0,0,1-24.79-6.15,44,44,0,0,1-17.22-17.13,49.61,49.61,0,0,1-6.2-24.84,68.9,68.9,0,0,1,1-11.2,64.371,64.371,0,0,1,12.49-28.6,71.55,71.55,0,0,1,24.1-20.34,63.87,63.87,0,0,1,29.89-7.44,53.25,53.25,0,0,1,20.43,3.59,50.22,50.22,0,0,1,15.57,10.1,3.1,3.1,0,0,1,1.1,2.11,3,3,0,0,1-.92,1.92l-15.79,18.55a3.42,3.42,0,0,1-2.48,1.11,3,3,0,0,1-1.93-.74,32.43,32.43,0,0,0-9.32-5.47,30,30,0,0,0-10-1.6,27.43,27.43,0,0,0-13.27,3.58,35.691,35.691,0,0,0-11.43,10,36.379,36.379,0,0,0-6.61,14.51,37.567,37.567,0,0,0-.74,7,23.4,23.4,0,0,0,2.53,11.06,18,18,0,0,0,7.11,7.44,21.18,21.18,0,0,0,10.66,2.61,25.7,25.7,0,0,0,10.37-2.2,84.782,84.782,0,0,0,10.56-5.6,4.309,4.309,0,0,1,2.48-.83" transform="translate(-70.51 -194.64)" fill="#fff"/>
        <path id="Path_398" data-name="Path 398" d="M592.89,252.6a3,3,0,0,0-2.25-.83H574.92l4.91-22.19a7,7,0,0,0,.19-1.85,3.64,3.64,0,0,0-3.91-4,7.74,7.74,0,0,0-2.44.39l-26.17,8.11a9.62,9.62,0,0,0-4,2.1,7.761,7.761,0,0,0-1.75,3.47l-3.16,14H525.5a4.47,4.47,0,0,0-4.59,3.71l-1.91,9.1-3.31,15.88a8.228,8.228,0,0,0-.19,1.27q0,2.83,3.51,2.83h12.52l-16.64,78.58a9.014,9.014,0,0,0-.2,1.28c0,1.88,1.17,2.83,3.52,2.83h28q4.1,0,5-4.11l16.65-78.58h15.72q3.71,0,4.59-3.81l5.37-25.3a3,3,0,0,0,.1-.87,2.83,2.83,0,0,0-.78-2" transform="translate(-70.51 -194.64)" fill="#fff"/>
        <path id="Path_400" data-name="Path 400" d="M456.52,301.88a5,5,0,0,1,3-1.08h27.83a3.31,3.31,0,0,1,2.44.88,3,3,0,0,1,.88,2.25,3.739,3.739,0,0,1-.09,1L478.33,363.2q-.89,4.1-4.89,4.1h-27.8c-2.35,0-3.52-.95-3.52-2.83a8.749,8.749,0,0,1,.2-1.27l12.25-58.27a5.14,5.14,0,0,1,1.95-3m11-49.76a8.74,8.74,0,0,1,6.29-2.1H495.3q5.76,0,5.76,5.08a16.429,16.429,0,0,1-.39,2.73l-4.59,21.68q-.78,3.92-2.78,5.38a9.61,9.61,0,0,1-5.71,1.46h-21.5a9.08,9.08,0,0,1-4.78-1,3.84,3.84,0,0,1-1.67-3.56,9.261,9.261,0,0,1,.2-2.15l4.59-21.78a11.43,11.43,0,0,1,3.08-5.79Z" transform="translate(-70.51 -194.64)" fill="#fff"/>
        <path id="Path_399" data-name="Path 399" d="M343,228h57.8a39.53,39.53,0,0,1,19,4.49,32.7,32.7,0,0,1,17.53,29.3,39.346,39.346,0,0,1-.59,6.64A38.349,38.349,0,0,1,432,281.28a51.229,51.229,0,0,1-8.75,11.09q3.62,3.81,6,10.94A46.369,46.369,0,0,1,431.57,318a35.467,35.467,0,0,1-.69,7.22A56.13,56.13,0,0,1,421.17,347a51.22,51.22,0,0,1-17.1,15,43.89,43.89,0,0,1-21,5.37H313.39c-2.34,0-3.51-.95-3.51-2.83a8.467,8.467,0,0,1,.19-1.28l27.84-131c.58-2.8,2.28-4.2,5.08-4.2m8.4,111.43h26.07a15.06,15.06,0,0,0,7.57-2.15,21.69,21.69,0,0,0,6.54-5.76,19.09,19.09,0,0,0,3.67-7.71,15.881,15.881,0,0,0,.29-3,13.56,13.56,0,0,0-3.13-8.89,10.19,10.19,0,0,0-8.3-3.81H358Zm12-56.54h20.9a17.54,17.54,0,0,0,11.18-3.81,16.94,16.94,0,0,0,6.2-9.77,14.12,14.12,0,0,0,.3-2.83,10.19,10.19,0,0,0-3.18-7.72,11.77,11.77,0,0,0-8.45-3H369.16Z" transform="translate(-70.88 -194.64)" fill="#fff"/>
      </g>
    </g>
    <g id="_310de733-eb9c-42bb-b11e-6f3ac8d4e814" data-name="310de733-eb9c-42bb-b11e-6f3ac8d4e814" transform="translate(121.321 738)">
      <g id="Group_206" data-name="Group 206">
        <rect id="Rectangle_91" data-name="Rectangle 91" width="206" height="206" fill="#ea5f00"/>
        <path id="Path_403" data-name="Path 403" d="M206.73,293.05c6.07-4,12.31-12.14,12.31-24.61,0-18.13-10.72-30.21-29.25-33.55V228H171.12v6h-16.7v-6H135.75v6h-15.3l23,31.35h-14V330h14l-23,31.36h15.3v5.94h18.67v-5.94h16.7v5.94h18.67v-6c22.31-1,39.65-14.18,39.65-37,0-17.68-9.71-26.69-22.71-31.19m-50.95-35h19.41c10.92,0,17.33,5.19,17.33,13.86,0,8.49-6.58,14-16.64,14h-20.1Zm28.08,79.2H155.78v-30.4h27.38c12.31,0,19.41,5.37,19.41,15.25s-7.28,15.08-18.71,15.08Z" transform="translate(-70.51 -194.64)" fill="#fff"/>
      </g>
    </g>
  </g>
</svg>
