<svg xmlns="http://www.w3.org/2000/svg" width="1234.134" height="199.048"><g fill="#1a1a18"><path d="M498.156 58.417c-.563-.55-1.333-.835-2.119-.784h-14.841l4.634-20.943c.139-.574.202-1.163.185-1.753a3.43 3.43 0 0 0-3.691-3.778 7.2 7.2 0 0 0-2.3.369l-24.705 7.651a8.98 8.98 0 0 0-3.782 1.983 7.3 7.3 0 0 0-1.656 3.273l-2.974 13.2h-12.351c-2.12-.091-3.976 1.409-4.333 3.5l-1.782 8.616-3.13 14.981a7.95 7.95 0 0 0-.185 1.2q0 2.673 3.318 2.673h11.812l-15.71 74.171a8.3 8.3 0 0 0-.185 1.2q0 2.673 3.318 2.673h26.465c2.36.185 4.44-1.536 4.7-3.889l15.71-74.171h14.838c2.169.136 4.069-1.442 4.332-3.6l5.068-23.876a2.86 2.86 0 0 0 .094-.83c.011-.702-.254-1.381-.739-1.889m-235.85-23.191h54.569a37.24 37.24 0 0 1 17.929 4.242 30.85 30.85 0 0 1 16.552 27.654 37.33 37.33 0 0 1-.551 6.27 36.2 36.2 0 0 1-4.472 12.123c-2.253 3.852-5.029 7.372-8.25 10.46a27.17 27.17 0 0 1 5.622 10.324 44.01 44.01 0 0 1 2.213 13.827 33.88 33.88 0 0 1-.648 6.805 52.88 52.88 0 0 1-9.174 20.554c-4.255 5.847-9.767 10.665-16.131 14.1a41.4 41.4 0 0 1-19.864 5.071h-65.725q-3.318 0-3.318-2.673c.032-.404.094-.805.185-1.2l26.274-123.61c.262-2.4 2.386-4.156 4.793-3.963m7.929 105.179h24.627a14.26 14.26 0 0 0 7.129-2.029 20.67 20.67 0 0 0 6.176-5.438 18.04 18.04 0 0 0 3.458-7.281 14.51 14.51 0 0 0 .279-2.861 12.83 12.83 0 0 0-2.952-8.39c-1.899-2.365-4.801-3.697-7.832-3.594h-24.628zm11.343-53.368h19.725a16.58 16.58 0 0 0 10.557-3.6 15.97 15.97 0 0 0 5.852-9.216c.181-.88.275-1.775.279-2.673.084-2.744-1.008-5.393-3-7.281-2.173-1.971-5.04-2.999-7.971-2.858h-20z"/><path d="M369.449 104.924a4.79 4.79 0 0 1 2.858-1.014h26.274c.848-.047 1.678.253 2.3.83.556.563.856 1.331.83 2.122a3.29 3.29 0 0 1-.094.92l-11.562 55c-.243 2.321-2.28 4.033-4.608 3.872h-26.27q-3.318 0-3.315-2.67c.03-.404.09-.805.181-1.2l11.559-55a4.89 4.89 0 0 1 1.844-2.858m10.37-46.964a8.28 8.28 0 0 1 5.943-1.983h20.282q5.438 0 5.441 4.789a15.57 15.57 0 0 1-.37 2.592l-4.332 20.464c-.219 1.957-1.155 3.764-2.628 5.071a9.02 9.02 0 0 1-5.392 1.384h-20.29a8.61 8.61 0 0 1-4.517-.972c-1.099-.748-1.7-2.037-1.568-3.359a8.8 8.8 0 0 1 .185-2.028l4.333-20.554c.429-2.045 1.443-3.921 2.919-5.4zm234.304 46.962a4.78 4.78 0 0 1 2.862-1.014h26.27a3.12 3.12 0 0 1 2.3.83c.556.564.856 1.332.829 2.123a3.24 3.24 0 0 1-.094.92l-11.559 55c-.243 2.322-2.282 4.034-4.611 3.872h-26.27q-3.318 0-3.318-2.67a8.03 8.03 0 0 1 .181-1.2l11.559-55a4.89 4.89 0 0 1 1.844-2.858m10.37-46.964a8.28 8.28 0 0 1 5.946-1.983h20.279q5.437 0 5.441 4.789c-.052.873-.177 1.74-.373 2.592l-4.332 20.464a7.97 7.97 0 0 1-2.628 5.071 9.02 9.02 0 0 1-5.392 1.384h-20.276a8.62 8.62 0 0 1-4.517-.972c-1.098-.748-1.699-2.038-1.565-3.36a8.83 8.83 0 0 1 .181-2.028l4.332-20.554a10.77 10.77 0 0 1 2.909-5.4zm-52.84 72.214c.835-.084 1.633.366 1.993 1.124l9.1 17.68a4.99 4.99 0 0 1 .518 2.08q0 1.559-2.268 3.2c-5.117 3.756-10.77 6.72-16.769 8.794a55.1 55.1 0 0 1-18.678 3.51c-8.169.126-16.231-1.873-23.396-5.8-6.822-3.76-12.452-9.359-16.251-16.16a46.83 46.83 0 0 1-5.833-23.445 64.49 64.49 0 0 1 .956-10.574 60.68 60.68 0 0 1 11.786-27 67.43 67.43 0 0 1 22.742-19.191 60.28 60.28 0 0 1 28.192-7.022 50.36 50.36 0 0 1 19.284 3.383 47.63 47.63 0 0 1 14.689 9.533c.599.499.974 1.216 1.04 1.993-.051.694-.36 1.344-.868 1.821l-14.906 17.5a3.24 3.24 0 0 1-2.34 1.04 2.87 2.87 0 0 1-1.821-.693 30.33 30.33 0 0 0-8.795-5.159 28.1 28.1 0 0 0-9.4-1.513 25.9 25.9 0 0 0-12.524 3.38 33.8 33.8 0 0 0-10.791 9.446 34.42 34.42 0 0 0-6.238 13.694 35.54 35.54 0 0 0-.693 6.588c-.071 3.623.747 7.208 2.382 10.441a16.92 16.92 0 0 0 6.714 7.019c3.072 1.695 6.538 2.548 10.046 2.473a24.3 24.3 0 0 0 9.793-2.08c3.441-1.527 6.77-3.293 9.964-5.285a4.05 4.05 0 0 1 2.339-.781"/></g><path d="M659.955 145.908a3.58 3.58 0 0 1 1.268-2.237 3.46 3.46 0 0 1 2.162-.746h17.6c.692-.079 1.381.169 1.864.671a2.48 2.48 0 0 1 .522 1.566 1.85 1.85 0 0 1-.075.671l-3.728 17.6a3.23 3.23 0 0 1-1.491 2.2c-.606.38-1.299.599-2.013.634h-17.6a2.99 2.99 0 0 1-1.491-.485c-.553-.336-.871-.955-.82-1.6a3.12 3.12 0 0 1 .075-.746zm103.861-8.649a3.49 3.49 0 0 1 2.013-.671c.719-.073 1.406.315 1.715.969l7.829 15.21a4.31 4.31 0 0 1 .447 1.789q0 1.342-1.939 2.759a54.5 54.5 0 0 1-14.427 7.568 47.4 47.4 0 0 1-16.067 3.02 40.58 40.58 0 0 1-20.131-5 35.81 35.81 0 0 1-13.981-13.902 40.29 40.29 0 0 1-5.033-20.168 55.6 55.6 0 0 1 .82-9.1 52.24 52.24 0 0 1 10.14-23.22 58.01 58.01 0 0 1 19.573-16.512 51.85 51.85 0 0 1 24.269-6.039 43.31 43.31 0 0 1 16.589 2.908c4.683 1.929 8.968 4.709 12.638 8.2.514.43.836 1.047.895 1.715a2.4 2.4 0 0 1-.746 1.566l-12.824 15.061a2.78 2.78 0 0 1-2.013.895c-.576-.012-1.13-.224-1.566-.6a26.05 26.05 0 0 0-7.568-4.436 24.12 24.12 0 0 0-8.09-1.3 22.29 22.29 0 0 0-10.774 2.908 29.07 29.07 0 0 0-9.283 8.122 29.62 29.62 0 0 0-5.368 11.78 30.55 30.55 0 0 0-.6 5.666 19.08 19.08 0 0 0 2.05 8.984c1.295 2.534 3.303 4.634 5.778 6.039a17.16 17.16 0 0 0 8.649 2.125 20.86 20.86 0 0 0 8.425-1.789 69.08 69.08 0 0 0 8.579-4.547zm24.306-16.4a58.82 58.82 0 0 1 10.848-24.716 54.44 54.44 0 0 1 20.094-16.366 59.69 59.69 0 0 1 26.1-5.741 40.3 40.3 0 0 1 19.907 4.846 34.69 34.69 0 0 1 13.57 13.346 37.85 37.85 0 0 1 4.846 19.087 47.43 47.43 0 0 1-1.044 9.544 60.34 60.34 0 0 1-10.96 24.9 54.41 54.41 0 0 1-19.833 16.291 58.07 58.07 0 0 1-25.648 5.7 40.59 40.59 0 0 1-20.1-4.917c-5.761-3.153-10.525-7.853-13.756-13.57a38.5 38.5 0 0 1-4.921-19.385 46.65 46.65 0 0 1 .897-9.022zm26.245 0c-.375 1.765-.576 3.563-.6 5.368-.047 3.072.63 6.112 1.976 8.873 1.272 2.586 3.266 4.748 5.741 6.226a16.9 16.9 0 0 0 8.91 2.274c4.051.007 8.029-1.074 11.519-3.131a28.99 28.99 0 0 0 9.133-8.351 29.7 29.7 0 0 0 5-11.258 27.95 27.95 0 0 0 .6-5.443 19.64 19.64 0 0 0-1.939-8.835c-1.247-2.56-3.217-4.699-5.666-6.151a16.93 16.93 0 0 0-8.873-2.237 22.89 22.89 0 0 0-11.482 3.094c-3.636 2.069-6.788 4.891-9.245 8.276a28.78 28.78 0 0 0-5.075 11.292zm137.86-5.816a21.7 21.7 0 0 0 .447-4.25c.151-3.062-.907-6.061-2.945-8.351a10.38 10.38 0 0 0-7.941-3.131c-3.984-.017-7.815 1.536-10.662 4.324-3.183 3.068-5.322 7.059-6.114 11.408l-10.21 47.864c-.114.992-.609 1.9-1.379 2.535a4.37 4.37 0 0 1-2.721.82h-20.658q-2.759 0-2.759-2.311v-.3a3.12 3.12 0 0 1 .075-.746l18.042-84.771c.2-2.03 1.993-3.524 4.026-3.355h13.048a4.02 4.02 0 0 1 2.945 1.23 4.54 4.54 0 0 1 1.379 2.871l.3 8.052a42.07 42.07 0 0 1 13.048-9.954 34.3 34.3 0 0 1 14.539-3.094 30.1 30.1 0 0 1 13.644 3.206 18.82 18.82 0 0 1 9.245 10.587q14.166-13.793 29.749-13.793 8.873 0 14.875 3.691a22.39 22.39 0 0 1 8.91 10.252 37.03 37.03 0 0 1 2.908 15.135c-.025 4.161-.475 8.308-1.342 12.377l-10.14 47.643a3.71 3.71 0 0 1-4.026 3.281h-20.208q-2.759 0-2.759-2.311a6.48 6.48 0 0 1 .149-.969l10.14-47.867a22.63 22.63 0 0 0 .522-4.846q0-5.07-2.61-7.978-2.61-2.908-7.53-2.908a15.71 15.71 0 0 0-7.642 1.976c-2.451 1.353-4.556 3.254-6.151 5.555a21.72 21.72 0 0 0-3.5 8.2l-10.068 47.867a3.67 3.67 0 0 1-3.951 3.281h-20.28q-2.759 0-2.759-2.311a6.55 6.55 0 0 1 .149-.969zm92.453 30.867a3.58 3.58 0 0 1 1.267-2.237 3.46 3.46 0 0 1 2.162-.746h17.6c.692-.079 1.381.169 1.864.671a2.48 2.48 0 0 1 .522 1.566 1.85 1.85 0 0 1-.075.671l-3.728 17.6a3.23 3.23 0 0 1-1.491 2.2c-.606.38-1.299.599-2.013.634h-17.6a2.99 2.99 0 0 1-1.491-.485c-.553-.336-.871-.955-.82-1.6a3.12 3.12 0 0 1 .075-.746zm71.95 17.223c-.217 1.897-1.897 3.281-3.8 3.131h-21.4q-2.684 0-2.684-2.162a6.48 6.48 0 0 1 .149-.969l13.346-62.779h-9.991q-2.386 0-2.386-1.939a6.54 6.54 0 0 1 .149-.969l4.1-19.311a3.56 3.56 0 0 1 1.23-2.088c.648-.506 1.452-.77 2.274-.746h9.991l3.131-14.688a5.9 5.9 0 0 1 1.342-2.647 7.22 7.22 0 0 1 3.057-1.6l19.982-6.188c.601-.2 1.231-.301 1.864-.3a3 3 0 0 1 2.162.783 3 3 0 0 1 .82 2.274c.014.477-.036.953-.149 1.417l-4.474 20.949h12a2.24 2.24 0 0 1 1.715.634 2.15 2.15 0 0 1 .6 1.528 2.27 2.27 0 0 1-.075.671l-4.1 19.311a3.32 3.32 0 0 1-3.5 2.908h-12zm46.372-84.925a3.63 3.63 0 0 1 3.877-3.281h12.228c1.033-.059 2.063.16 2.982.634q1.044.634 1.566 3.094l1.491 7.978a77.98 77.98 0 0 1 6.636-6.6 26.53 26.53 0 0 1 7.083-4.25c3.033-1.215 6.278-1.811 9.544-1.752a26.9 26.9 0 0 1 10.513 2.162c3.098 1.257 6.039 2.871 8.763 4.808a36.91 36.91 0 0 1 5.182 4.362 3.9 3.9 0 0 1 1.268 2.61 5.29 5.29 0 0 1-1.64 3.131l-12.153 13.2a3.65 3.65 0 0 1-2.535 1.491c-.822-.063-1.58-.469-2.088-1.118q-.373-.373-2.237-2.311a15.09 15.09 0 0 0-4.772-3.243 15.3 15.3 0 0 0-6.338-1.3 20.34 20.34 0 0 0-8.5 1.827 19.1 19.1 0 0 0-6.97 5.437c-2.027 2.549-3.397 5.558-3.989 8.761l-10.439 49.209a3.71 3.71 0 0 1-3.952 3.206h-21.025a3.12 3.12 0 0 1-1.976-.559 1.92 1.92 0 0 1-.708-1.6 6.28 6.28 0 0 1 .149-1.044zM0 0h199.048v199.048H0z" fill="#ea5f00"/><path d="M131.623 95.09c5.865-3.865 11.895-11.73 11.895-23.779 0-17.518-10.358-29.19-28.263-32.418v-6.658h-18.04v5.8H81.079v-5.8h-18.04v5.8H48.255l22.224 30.292H56.951v62.468h13.528l-22.224 30.3h14.784v5.74h18.04v-5.74h16.136v5.74h18.04v-5.8c21.557-.966 38.312-13.7 38.312-35.751 0-17.083-9.382-25.789-21.944-30.137M82.392 61.328h18.755c10.551 0 16.745 5.015 16.745 13.392 0 8.2-6.358 13.528-16.078 13.528H82.393zm27.132 76.527H82.393v-29.373h26.456c11.895 0 18.755 5.189 18.755 14.735s-7.034 14.571-18.079 14.571z" fill="#fff"/></svg>