<svg xmlns="http://www.w3.org/2000/svg" width="1361.771" height="206"><path d="M776.121 143.968a41.2 41.2 0 0 0 11.294-1.544l4.387-20.638c.182-2.063 1.999-3.59 4.063-3.412h21.775a3.7 3.7 0 0 1 1.991.528c.597.408.924 1.109.853 1.828-.028.356-.082.709-.162 1.056l-8.044 37.7c-.139.755-.429 1.473-.853 2.113-.475.655-1.103 1.185-1.828 1.544-11.362 6.445-24.233 9.754-37.295 9.587-8.921.142-17.721-2.072-25.512-6.419a45.7 45.7 0 0 1-17.672-17.915c-4.333-7.986-6.529-16.956-6.378-26.041.007-3.182.252-6.36.731-9.506a65.18 65.18 0 0 1 12.472-30.672 70.01 70.01 0 0 1 25.391-21.084 72.85 72.85 0 0 1 32.744-7.556 47.02 47.02 0 0 1 17.713 3.087 51.42 51.42 0 0 1 14.463 9.019 2.73 2.73 0 0 1 1.137 2.031c-.086.896-.489 1.731-1.137 2.356L811.14 87.418a3.79 3.79 0 0 1-2.763 1.381c-.756.001-1.484-.29-2.031-.812-2.161-1.871-4.637-3.342-7.313-4.347-2.91-1.082-5.995-1.619-9.1-1.584-5.75-.038-11.419 1.359-16.494 4.063a37.59 37.59 0 0 0-12.796 11.086c-3.426 4.656-5.822 9.988-7.028 15.641-.505 2.378-.777 4.8-.812 7.231-.071 4.248.905 8.447 2.843 12.228a21.23 21.23 0 0 0 8.125 8.534 23.78 23.78 0 0 0 12.35 3.129zm77.35-85.231a4.66 4.66 0 0 1 1.544-2.559 3.98 3.98 0 0 1 2.6-.934h23.319q2.762 0 2.762 2.356a6.85 6.85 0 0 1-.162 1.138l-17.957 84.742h43.225q2.844 0 2.844 2.275c-.022.383-.077.763-.163 1.137l-4.469 20.8a3.82 3.82 0 0 1-4.062 3.413h-69.956q-2.844 0-2.844-2.275c.022-.383.077-.763.163-1.137zm73.612 54.437c2.067-11.36 6.879-22.043 14.016-31.119a74.4 74.4 0 0 1 25.878-21.044 70.75 70.75 0 0 1 31.606-7.475c8.877-.164 17.643 1.993 25.431 6.256a44.1 44.1 0 0 1 17.266 17.266 49.79 49.79 0 0 1 6.134 24.659c.005 3.843-.348 7.679-1.056 11.456-2.11 11.24-6.905 21.805-13.975 30.794a75.28 75.28 0 0 1-25.837 21.166 69.99 69.99 0 0 1-31.687 7.6 50.9 50.9 0 0 1-25.309-6.256 44.75 44.75 0 0 1-17.387-17.184c-4.194-7.477-6.338-15.928-6.216-24.5a58.3 58.3 0 0 1 1.136-11.619zm29.981 0a36.72 36.72 0 0 0-.812 7.069 25.5 25.5 0 0 0 2.925 12.269c1.903 3.581 4.794 6.542 8.328 8.531 3.866 2.124 8.224 3.189 12.634 3.087a33.26 33.26 0 0 0 16.087-4.144 40.28 40.28 0 0 0 13-11.212c3.523-4.598 5.966-9.93 7.15-15.6.503-2.351.775-4.746.813-7.15a25.27 25.27 0 0 0-2.925-12.228 21.28 21.28 0 0 0-8.328-8.491c-3.866-2.125-8.224-3.19-12.634-3.088a33.26 33.26 0 0 0-16.088 4.144 40.28 40.28 0 0 0-13 11.213c-3.522 4.598-5.966 9.93-7.149 15.6zm119.844-54.437a3.93 3.93 0 0 1 4.225-3.494h48.1c5.497-.097 10.929 1.188 15.8 3.737a27.15 27.15 0 0 1 10.766 10.2 27.35 27.35 0 0 1 3.822 14.175c-.005 1.852-.168 3.7-.487 5.525a31.88 31.88 0 0 1-3.941 10.684 42.48 42.48 0 0 1-7.272 9.222c2.296 2.635 3.988 5.741 4.956 9.1a38.78 38.78 0 0 1 1.95 12.188 29.83 29.83 0 0 1-.569 6.013 46.62 46.62 0 0 1-8.087 18.118 42.64 42.64 0 0 1-14.216 12.431 36.52 36.52 0 0 1-17.509 4.469h-57.931q-2.925 0-2.925-2.356c.028-.356.082-.709.163-1.056zm21.207 42.168h17.388c3.373.049 6.659-1.07 9.3-3.169 2.621-2.018 4.448-4.895 5.159-8.125a12.01 12.01 0 0 0 .244-2.356c.075-2.418-.886-4.754-2.641-6.419a9.76 9.76 0 0 0-7.028-2.519h-17.628zm-9.994 47.044h21.694a12.58 12.58 0 0 0 6.3-1.788 18.3 18.3 0 0 0 5.444-4.794c1.486-1.883 2.528-4.077 3.047-6.419.164-.83.246-1.673.244-2.519.043-2.696-.879-5.318-2.6-7.394-1.674-2.086-4.233-3.26-6.906-3.169h-21.698zm131.219-89.212c1.047-2.14 3.223-3.496 5.606-3.494h19.094q3.331 0 3.9 3.494l19.419 108.956a3.86 3.86 0 0 1 .081.894q0 2.518-2.925 2.518h-22.425a3.59 3.59 0 0 1-3.981-3.412l-2.194-15.275h-42.575l-8.532 15.275a5.74 5.74 0 0 1-5.362 3.412h-24.05q-2.275 0-2.275-1.463c.075-.701.326-1.372.731-1.95zm13 68.575l-5.038-35.425-19.825 35.424zm71.256-68.575a4.66 4.66 0 0 1 1.544-2.559 3.98 3.98 0 0 1 2.6-.934h23.319q2.763 0 2.763 2.356c-.022.383-.076.764-.162 1.138l-17.958 84.742h43.225q2.844 0 2.844 2.275c-.022.383-.076.763-.162 1.137l-4.469 20.8a3.82 3.82 0 0 1-4.063 3.413h-69.956q-2.844 0-2.844-2.275c.022-.383.077-.763.163-1.137z" fill="#ea5f00"/><path d="M645.239 107.24a5.06 5.06 0 0 1 3-1.08h27.83a3.35 3.35 0 0 1 2.45.88 3.08 3.08 0 0 1 .87 2.25 3.74 3.74 0 0 1-.09 1l-12.25 58.27q-.89 4.1-4.88 4.1h-27.81c-2.34 0-3.51-.95-3.51-2.83a8.23 8.23 0 0 1 .19-1.27l12.25-58.27a5.19 5.19 0 0 1 2-3m11-49.76a8.75 8.75 0 0 1 6.2-2.17h21.48c3.84 0 5.77 1.69 5.77 5.08a16.78 16.78 0 0 1-.4 2.73l-4.58 21.68c-.53 2.61-1.45 4.4-2.79 5.38a9.59 9.59 0 0 1-5.71 1.46h-21.45a9.08 9.08 0 0 1-4.78-1 3.84 3.84 0 0 1-1.66-3.56 9.35 9.35 0 0 1 .19-2.15l4.59-21.78a11.43 11.43 0 0 1 3.08-5.72zm-56.04 76.46a2.1 2.1 0 0 1 2.11 1.2l9.64 18.73a5.24 5.24 0 0 1 .55 2.2c0 1.1-.79 2.24-2.39 3.4a66.74 66.74 0 0 1-17.76 9.32 58.4 58.4 0 0 1-19.79 3.72 50 50 0 0 1-24.79-6.15 44 44 0 0 1-17.22-17.13 49.61 49.61 0 0 1-6.2-24.84 68.9 68.9 0 0 1 1-11.2 64.37 64.37 0 0 1 12.49-28.6 71.55 71.55 0 0 1 24.1-20.34 63.87 63.87 0 0 1 29.89-7.44 53.25 53.25 0 0 1 20.43 3.59 50.22 50.22 0 0 1 15.57 10.1 3.1 3.1 0 0 1 1.1 2.11 3 3 0 0 1-.92 1.92l-15.79 18.55a3.42 3.42 0 0 1-2.48 1.11 3 3 0 0 1-1.93-.74 32.43 32.43 0 0 0-9.32-5.47 30 30 0 0 0-10-1.6 27.43 27.43 0 0 0-13.27 3.58 35.69 35.69 0 0 0-11.43 10 36.38 36.38 0 0 0-6.61 14.51c-.465 2.305-.713 4.649-.74 7a23.4 23.4 0 0 0 2.53 11.06 18 18 0 0 0 7.11 7.44 21.18 21.18 0 0 0 10.66 2.61 25.7 25.7 0 0 0 10.37-2.2 84.78 84.78 0 0 0 10.56-5.6 4.31 4.31 0 0 1 2.48-.83m-77.82-76.04a3 3 0 0 0-2.25-.83h-15.72l4.91-22.19a7 7 0 0 0 .19-1.85 3.64 3.64 0 0 0-3.91-4 7.74 7.74 0 0 0-2.44.39l-26.17 8.11a9.62 9.62 0 0 0-4 2.1 7.76 7.76 0 0 0-1.75 3.47l-3.16 14h-13.09a4.47 4.47 0 0 0-4.59 3.71l-1.91 9.1-3.31 15.88a8.23 8.23 0 0 0-.19 1.27q0 2.83 3.51 2.83h12.52l-16.64 78.58c-.097.421-.164.849-.2 1.28 0 1.88 1.17 2.83 3.52 2.83h28q4.1 0 5-4.11l16.65-78.58h15.72q3.71 0 4.59-3.81l5.37-25.3a3 3 0 0 0 .1-.87 2.83 2.83 0 0 0-.78-2m-136.34 49.27a5 5 0 0 1 3-1.08h27.83a3.31 3.31 0 0 1 2.44.88 3 3 0 0 1 .88 2.25 3.74 3.74 0 0 1-.09 1l-12.25 58.27q-.89 4.1-4.89 4.1h-27.8c-2.35 0-3.52-.95-3.52-2.83a8.75 8.75 0 0 1 .2-1.27l12.25-58.27a5.14 5.14 0 0 1 1.95-3m11-49.76a8.74 8.74 0 0 1 6.29-2.1h21.49q5.76 0 5.76 5.08a16.43 16.43 0 0 1-.39 2.73l-4.59 21.68q-.78 3.92-2.78 5.38a9.61 9.61 0 0 1-5.71 1.46h-21.5a9.08 9.08 0 0 1-4.78-1 3.84 3.84 0 0 1-1.67-3.56 9.26 9.26 0 0 1 .2-2.15l4.59-21.78a11.43 11.43 0 0 1 3.08-5.79zm-124.89-24.17h57.8a39.53 39.53 0 0 1 19 4.49 32.7 32.7 0 0 1 17.53 29.3c-.008 2.226-.206 4.447-.59 6.64a38.35 38.35 0 0 1-4.74 12.85 51.23 51.23 0 0 1-8.75 11.09q3.62 3.81 6 10.94a46.37 46.37 0 0 1 2.32 14.69 35.5 35.5 0 0 1-.69 7.22 56.13 56.13 0 0 1-9.71 21.78 51.22 51.22 0 0 1-17.1 15 43.89 43.89 0 0 1-21 5.37h-69.68c-2.34 0-3.51-.95-3.51-2.83a8.5 8.5 0 0 1 .19-1.28l27.84-131c.58-2.8 2.28-4.2 5.08-4.2m8.4 111.43h26.07a15.06 15.06 0 0 0 7.57-2.15 21.69 21.69 0 0 0 6.54-5.76 19.09 19.09 0 0 0 3.67-7.71 15.88 15.88 0 0 0 .29-3 13.56 13.56 0 0 0-3.13-8.89 10.19 10.19 0 0 0-8.3-3.81h-26.1zm12-56.54h20.9a17.54 17.54 0 0 0 11.18-3.81 16.94 16.94 0 0 0 6.2-9.77 14.12 14.12 0 0 0 .3-2.83 10.19 10.19 0 0 0-3.18-7.72 11.77 11.77 0 0 0-8.45-3h-21.18z" fill="#fff"/><path fill="#ea5f00" d="M0 0h206v206H0z"/><path d="M136.22 98.41c6.07-4 12.31-12.14 12.31-24.61 0-18.13-10.72-30.21-29.25-33.55v-6.89h-18.67v6h-16.7v-6H65.24v6h-15.3l23 31.35h-14v64.65h14l-23 31.36h15.3v5.94h18.67v-5.94h16.7v5.94h18.67v-6c22.31-1 39.65-14.18 39.65-37 0-17.68-9.71-26.69-22.71-31.19m-50.95-35h19.41c10.92 0 17.33 5.19 17.33 13.86 0 8.49-6.58 14-16.64 14h-20.1zm28.08 79.2H85.27v-30.4h27.38c12.31 0 19.41 5.37 19.41 15.25s-7.28 15.08-18.71 15.08z" fill="#fff"/></svg>