<svg xmlns="http://www.w3.org/2000/svg" xmlns:xlink="http://www.w3.org/1999/xlink" width="1296.441" height="206" viewBox="0 0 1296.441 206"><defs><clipPath id="a"><rect width="573.701" height="120" fill="#ea5f00"/></clipPath></defs><g transform="translate(-121.321 -738)"><g transform="translate(844.061 792)" clip-path="url(#a)"><path d="M27.6,3.749h48.2A32.9,32.9,0,0,1,91.629,7.494a27.253,27.253,0,0,1,14.613,24.423,32.742,32.742,0,0,1-.488,5.536A31.95,31.95,0,0,1,101.8,48.159a42.591,42.591,0,0,1-7.287,9.24,24.02,24.02,0,0,1,4.966,9.118,38.858,38.858,0,0,1,1.954,12.212,29.942,29.942,0,0,1-.57,6.024,46.711,46.711,0,0,1-8.1,18.155,42.719,42.719,0,0,1-14.247,12.456,36.594,36.594,0,0,1-17.544,4.478H2.931Q0,119.841,0,117.48a7.034,7.034,0,0,1,.163-1.058L23.365,7.25a3.94,3.94,0,0,1,4.233-3.5m7,92.89H56.336a12.6,12.6,0,0,0,6.309-1.791,18.324,18.324,0,0,0,5.455-4.8,15.941,15.941,0,0,0,3.053-6.431A12.837,12.837,0,0,0,71.4,81.09a11.333,11.333,0,0,0-2.605-7.408,8.5,8.5,0,0,0-6.92-3.175H40.136ZM44.613,49.5H62.035a14.636,14.636,0,0,0,9.322-3.175,14.1,14.1,0,0,0,5.169-8.141,12.026,12.026,0,0,0,.244-2.361,8.505,8.505,0,0,0-2.646-6.431,9.784,9.784,0,0,0-7.042-2.524H49.417Z" transform="translate(0 -1.307)" fill="#ea5f00"/><path d="M194.288,4.807a3.78,3.78,0,0,1,2.727-1.058h50.231a30.279,30.279,0,0,1,16.445,4.4,29.42,29.42,0,0,1,10.746,11.723,34.734,34.734,0,0,1,3.745,16.038,38.819,38.819,0,0,1-.57,6.839A39.417,39.417,0,0,1,268.7,61.8a49.426,49.426,0,0,1-16.975,12.944l13.514,41.682a4.533,4.533,0,0,1,.163.9,2.436,2.436,0,0,1-.733,1.791,2.752,2.752,0,0,1-2.035.733H236.906a3.331,3.331,0,0,1-2.32-.651,6.023,6.023,0,0,1-1.262-2.605L222.334,81.252H207.273l-7.49,35.17a3.827,3.827,0,0,1-4.071,3.419H172.347q-2.851,0-2.849-2.28a6.783,6.783,0,0,1,.163-1.14L192.863,7.25a4.9,4.9,0,0,1,1.425-2.442m18.358,51.452H230.8a15.336,15.336,0,0,0,7.571-1.994,19.436,19.436,0,0,0,6.065-5.251,16.768,16.768,0,0,0,3.215-6.839A13.981,13.981,0,0,0,247.978,39a11.736,11.736,0,0,0-2.727-7.856,9.539,9.539,0,0,0-7.694-3.216H218.589Z" transform="translate(-59.106 -1.307)" fill="#ea5f00"/><path d="M393.84,3.75h19.132q3.337,0,3.908,3.5l19.457,109.172a3.918,3.918,0,0,1,.081.9q0,2.524-2.931,2.524H411.018a3.6,3.6,0,0,1-3.989-3.419l-2.2-15.305H362.171l-8.548,15.305a5.752,5.752,0,0,1-5.373,3.419h-24.1q-2.28,0-2.279-1.465a4.175,4.175,0,0,1,.733-1.954L388.223,7.251a6.245,6.245,0,0,1,5.617-3.5m7.408,72.212-5.047-35.5-19.864,35.5Z" transform="translate(-112.241 -1.308)" fill="#ea5f00"/><path d="M517.121,96.391q0-1.71,2.117-3.419L533.81,80.434a4.282,4.282,0,0,1,2.687-1.14,4.5,4.5,0,0,1,3.175,1.791q3.5,3.663,6.228,6.065a29.347,29.347,0,0,0,6.553,4.274,18.444,18.444,0,0,0,8.223,1.872q13.595,0,16.038-10.909a6.81,6.81,0,0,0,.082-1.221q0-3.744-3.827-6.106a58.451,58.451,0,0,0-9.851-4.64q-15.551-5.862-23.284-13.392A24.188,24.188,0,0,1,532.1,39.077a36.185,36.185,0,0,1,.814-6.92,38.93,38.93,0,0,1,8.223-16.975A39.8,39.8,0,0,1,556.891,3.948,57.738,57.738,0,0,1,578.912,0a50.16,50.16,0,0,1,20.515,4.478,45.106,45.106,0,0,1,16.2,11.56,4.14,4.14,0,0,1,1.058,2.605q0,2.2-2.768,4.559L601.3,34.844a4.692,4.692,0,0,1-2.768,1.221q-1.71,0-3.664-2.117a19.682,19.682,0,0,0-4.6-3.664,47.924,47.924,0,0,0-6.31-3.256,21.044,21.044,0,0,0-7.408-1.14,20.742,20.742,0,0,0-9,1.872,8.292,8.292,0,0,0-4.844,5.943,9.653,9.653,0,0,0-.163,1.384,5.423,5.423,0,0,0,1.832,4.03,17.51,17.51,0,0,0,5.047,3.175q3.215,1.425,8.914,3.379a88.668,88.668,0,0,1,16.119,7.449,30.946,30.946,0,0,1,10.014,9.485,23.9,23.9,0,0,1,3.582,13.27,38.176,38.176,0,0,1-.9,8.223,42.33,42.33,0,0,1-26.336,31.669A61.519,61.519,0,0,1,557.419,120a43.753,43.753,0,0,1-15.1-2.687,51.63,51.63,0,0,1-13.433-7.246,49.742,49.742,0,0,1-10.217-10.176,6.842,6.842,0,0,1-1.547-3.5" transform="translate(-180.326 0)" fill="#ea5f00"/><path d="M702.094,3.749h23.365q2.767,0,2.768,2.361a6.873,6.873,0,0,1-.163,1.14l-23.2,109.172a3.827,3.827,0,0,1-4.071,3.419H677.427q-2.931,0-2.931-2.361a7.027,7.027,0,0,1,.163-1.058L697.861,7.25a3.94,3.94,0,0,1,4.233-3.5" transform="translate(-235.204 -1.307)" fill="#ea5f00"/><path d="M780.407,4.686a3.993,3.993,0,0,1,2.605-.936h23.365q2.766,0,2.768,2.361a6.9,6.9,0,0,1-.163,1.14L790.99,92.162H834.3q2.849,0,2.849,2.28a6.878,6.878,0,0,1-.163,1.14l-4.478,20.841a3.827,3.827,0,0,1-4.07,3.419h-70.1q-2.851,0-2.849-2.28a6.788,6.788,0,0,1,.163-1.14L778.86,7.251a4.665,4.665,0,0,1,1.547-2.565" transform="translate(-263.449 -1.308)" fill="#ea5f00"/></g><g transform="translate(121.321 738)"><path d="M715.75,301.88a5.059,5.059,0,0,1,3-1.08h27.83a3.35,3.35,0,0,1,2.45.88,3.08,3.08,0,0,1,.87,2.25,3.739,3.739,0,0,1-.09,1L737.56,363.2q-.89,4.1-4.88,4.1H704.87c-2.34,0-3.51-.95-3.51-2.83a8.229,8.229,0,0,1,.19-1.27l12.25-58.27a5.19,5.19,0,0,1,2-3m11-49.76A8.75,8.75,0,0,1,733,250h21.48c3.84,0,5.77,1.69,5.77,5.08a16.778,16.778,0,0,1-.4,2.73l-4.58,21.68c-.53,2.61-1.45,4.4-2.79,5.38a9.59,9.59,0,0,1-5.71,1.46H725.32a9.08,9.08,0,0,1-4.78-1,3.84,3.84,0,0,1-1.66-3.56,9.349,9.349,0,0,1,.19-2.15l4.59-21.78a11.43,11.43,0,0,1,3.08-5.72Z" transform="translate(-70.51 -194.64)" fill="#1a1a18"/><path d="M670.76,328.63a2.1,2.1,0,0,1,2.11,1.2l9.64,18.73a5.239,5.239,0,0,1,.55,2.2c0,1.1-.79,2.24-2.39,3.4a66.741,66.741,0,0,1-17.76,9.32,58.4,58.4,0,0,1-19.79,3.72,50,50,0,0,1-24.79-6.15,44,44,0,0,1-17.22-17.13,49.61,49.61,0,0,1-6.2-24.84,68.9,68.9,0,0,1,1-11.2,64.371,64.371,0,0,1,12.49-28.6,71.55,71.55,0,0,1,24.1-20.34,63.87,63.87,0,0,1,29.89-7.44,53.25,53.25,0,0,1,20.43,3.59,50.22,50.22,0,0,1,15.57,10.1,3.1,3.1,0,0,1,1.1,2.11,3,3,0,0,1-.92,1.92l-15.79,18.55a3.42,3.42,0,0,1-2.48,1.11,3,3,0,0,1-1.93-.74,32.43,32.43,0,0,0-9.32-5.47,30,30,0,0,0-10-1.6,27.43,27.43,0,0,0-13.27,3.58,35.691,35.691,0,0,0-11.43,10,36.379,36.379,0,0,0-6.61,14.51,37.567,37.567,0,0,0-.74,7,23.4,23.4,0,0,0,2.53,11.06,18,18,0,0,0,7.11,7.44,21.18,21.18,0,0,0,10.66,2.61,25.7,25.7,0,0,0,10.37-2.2,84.782,84.782,0,0,0,10.56-5.6,4.309,4.309,0,0,1,2.48-.83" transform="translate(-70.51 -194.64)" fill="#1a1a18"/><path d="M592.89,252.6a3,3,0,0,0-2.25-.83H574.92l4.91-22.19a7,7,0,0,0,.19-1.85,3.64,3.64,0,0,0-3.91-4,7.74,7.74,0,0,0-2.44.39l-26.17,8.11a9.62,9.62,0,0,0-4,2.1,7.761,7.761,0,0,0-1.75,3.47l-3.16,14H525.5a4.47,4.47,0,0,0-4.59,3.71l-1.91,9.1-3.31,15.88a8.228,8.228,0,0,0-.19,1.27q0,2.83,3.51,2.83h12.52l-16.64,78.58a9.014,9.014,0,0,0-.2,1.28c0,1.88,1.17,2.83,3.52,2.83h28q4.1,0,5-4.11l16.65-78.58h15.72q3.71,0,4.59-3.81l5.37-25.3a3,3,0,0,0,.1-.87,2.83,2.83,0,0,0-.78-2" transform="translate(-70.51 -194.64)" fill="#1a1a18"/><path d="M456.52,301.88a5,5,0,0,1,3-1.08h27.83a3.31,3.31,0,0,1,2.44.88,3,3,0,0,1,.88,2.25,3.739,3.739,0,0,1-.09,1L478.33,363.2q-.89,4.1-4.89,4.1h-27.8c-2.35,0-3.52-.95-3.52-2.83a8.749,8.749,0,0,1,.2-1.27l12.25-58.27a5.14,5.14,0,0,1,1.95-3m11-49.76a8.74,8.74,0,0,1,6.29-2.1H495.3q5.76,0,5.76,5.08a16.429,16.429,0,0,1-.39,2.73l-4.59,21.68q-.78,3.92-2.78,5.38a9.61,9.61,0,0,1-5.71,1.46h-21.5a9.08,9.08,0,0,1-4.78-1,3.84,3.84,0,0,1-1.67-3.56,9.261,9.261,0,0,1,.2-2.15l4.59-21.78a11.43,11.43,0,0,1,3.08-5.79Z" transform="translate(-70.51 -194.64)" fill="#1a1a18"/><path d="M343,228h57.8a39.53,39.53,0,0,1,19,4.49,32.7,32.7,0,0,1,17.53,29.3,39.346,39.346,0,0,1-.59,6.64A38.349,38.349,0,0,1,432,281.28a51.229,51.229,0,0,1-8.75,11.09q3.62,3.81,6,10.94A46.369,46.369,0,0,1,431.57,318a35.467,35.467,0,0,1-.69,7.22A56.13,56.13,0,0,1,421.17,347a51.22,51.22,0,0,1-17.1,15,43.89,43.89,0,0,1-21,5.37H313.39c-2.34,0-3.51-.95-3.51-2.83a8.467,8.467,0,0,1,.19-1.28l27.84-131c.58-2.8,2.28-4.2,5.08-4.2m8.4,111.43h26.07a15.06,15.06,0,0,0,7.57-2.15,21.69,21.69,0,0,0,6.54-5.76,19.09,19.09,0,0,0,3.67-7.71,15.881,15.881,0,0,0,.29-3,13.56,13.56,0,0,0-3.13-8.89,10.19,10.19,0,0,0-8.3-3.81H358Zm12-56.54h20.9a17.54,17.54,0,0,0,11.18-3.81,16.94,16.94,0,0,0,6.2-9.77,14.12,14.12,0,0,0,.3-2.83,10.19,10.19,0,0,0-3.18-7.72,11.77,11.77,0,0,0-8.45-3H369.16Z" transform="translate(-70.88 -194.64)" fill="#1a1a18"/></g><g transform="translate(121.321 738)"><rect width="206" height="206" fill="#ea5f00"/><path d="M206.73,293.05c6.07-4,12.31-12.14,12.31-24.61,0-18.13-10.72-30.21-29.25-33.55V228H171.12v6h-16.7v-6H135.75v6h-15.3l23,31.35h-14V330h14l-23,31.36h15.3v5.94h18.67v-5.94h16.7v5.94h18.67v-6c22.31-1,39.65-14.18,39.65-37,0-17.68-9.71-26.69-22.71-31.19m-50.95-35h19.41c10.92,0,17.33,5.19,17.33,13.86,0,8.49-6.58,14-16.64,14h-20.1Zm28.08,79.2H155.78v-30.4h27.38c12.31,0,19.41,5.37,19.41,15.25s-7.28,15.08-18.71,15.08Z" transform="translate(-70.51 -194.64)" fill="#fff"/></g></g></svg>