<svg xmlns="http://www.w3.org/2000/svg" width="1437.171" height="206"><path d="M727.046 58.574a3.93 3.93 0 0 1 4.225-3.494h84.662q2.763 0 2.763 2.356c-.022.383-.077.764-.163 1.138l-4.144 19.744a3.89 3.89 0 0 1-4.144 3.494h-27.706l-18.281 85.719c-.236 2.068-2.069 3.577-4.144 3.412h-22.506q-2.925 0-2.925-2.356c.028-.356.082-.709.162-1.056l18.282-85.719h-27.544q-2.844 0-2.844-2.356c.022-.383.076-.764.162-1.138zm138.125-33.231q1.056-4.712 5.688-4.712h13q3.413 0 3.413 2.925c-.008.603-.09 1.203-.244 1.787l-2.762 13.081a5.06 5.06 0 0 1-1.747 3.25c-1.003.642-2.182.955-3.372.894h-13q-3.9 0-3.9-2.762a9.97 9.97 0 0 1 .163-1.3zm33.962 0q1.056-4.712 5.688-4.712h13q3.413 0 3.413 2.925a7.42 7.42 0 0 1-.244 1.787l-2.763 13.081a5.06 5.06 0 0 1-1.747 3.25c-1.003.642-2.182.955-3.372.894h-13q-3.9 0-3.9-2.762a9.97 9.97 0 0 1 .163-1.3zm-46.069 99.369a31.85 31.85 0 0 0-.731 6.5q0 7.475 4.266 11.091 4.266 3.616 11.091 3.616c3.547.006 7.044-.843 10.193-2.476a24.3 24.3 0 0 0 8.409-7.272c2.48-3.414 4.198-7.321 5.037-11.456l14.056-66.137c.218-.977.763-1.851 1.544-2.478.794-.671 1.804-1.032 2.844-1.016h22.75c.837-.064 1.667.198 2.316.731a2.56 2.56 0 0 1 .772 1.95 3.42 3.42 0 0 1-.081.813l-13.891 65.727q-5.606 26-20.272 37.213-14.666 11.213-37.74 11.213a58.53 58.53 0 0 1-20.963-3.616c-6.137-2.26-11.477-6.271-15.356-11.537q-5.85-7.922-5.85-20.191c.033-4.404.551-8.79 1.544-13.081l13.894-65.731c.205-.954.702-1.82 1.422-2.478.662-.649 1.551-1.014 2.478-1.016h23.806q2.763 0 2.763 2.031a4.6 4.6 0 0 1-.244 1.463zm105.219-66.138a4.9 4.9 0 0 1 1.422-2.437 3.77 3.77 0 0 1 2.722-1.056h50.131c5.778-.137 11.474 1.385 16.413 4.387 4.582 2.841 8.292 6.889 10.725 11.7 2.512 4.958 3.794 10.448 3.738 16.006.013 2.287-.178 4.571-.569 6.825-1.189 7.027-4.265 13.599-8.9 19.013a49.32 49.32 0 0 1-16.941 12.919l13.487 41.6a4.48 4.48 0 0 1 .163.894 2.43 2.43 0 0 1-.731 1.787c-.548.51-1.281.774-2.029.731h-25.675c-.826.079-1.652-.153-2.316-.65a6.03 6.03 0 0 1-1.259-2.6l-10.969-35.263h-15.031l-7.475 35.1a3.82 3.82 0 0 1-4.062 3.413h-23.319q-2.844 0-2.844-2.275a6.85 6.85 0 0 1 .162-1.137zm19.744 48.912h18.119a15.3 15.3 0 0 0 7.556-1.991 19.4 19.4 0 0 0 6.053-5.241c1.575-2.001 2.672-4.336 3.209-6.825a13.91 13.91 0 0 0 .325-3.169 11.71 11.71 0 0 0-2.722-7.841c-1.931-2.191-4.762-3.374-7.678-3.209h-18.931zm167.131 59.8c.299.55.465 1.162.487 1.788q.001 1.869-2.274 1.869h-27.138a3.61 3.61 0 0 1-2.519-.812 7.16 7.16 0 0 1-1.625-2.6l-17.144-40.057-14.868 14.219-5.525 25.838a3.82 3.82 0 0 1-4.063 3.412h-23.318q-2.844 0-2.844-2.275c.022-.383.077-.763.163-1.137l23.156-108.956q.812-3.494 4.144-3.494h22.993a3.29 3.29 0 0 1 2.153.975c.723.62 1.023 1.601.772 2.519l-8.45 40.137 41.275-41.031a9.7 9.7 0 0 1 3.006-2.153c1.077-.336 2.203-.487 3.331-.447h29.087q1.544 0 1.544 1.056c-.136 1.022-.66 1.953-1.462 2.6l-48.912 47.125zm53.137-142.106q1.056-4.713 5.688-4.713h13q3.413 0 3.413 2.925c-.008.604-.09 1.204-.244 1.788l-2.763 13.081a5.06 5.06 0 0 1-1.747 3.25c-1.003.642-2.182.955-3.372.894h-13q-3.9 0-3.9-2.762a9.97 9.97 0 0 1 .163-1.3zm-11.05 33.394a3.93 3.93 0 0 1 4.225-3.494h23.319q2.763 0 2.763 2.356a6.85 6.85 0 0 1-.163 1.138l-23.156 108.957a3.82 3.82 0 0 1-4.062 3.412h-23.319q-2.925 0-2.925-2.356c.028-.356.082-.709.163-1.056zm45.581 0c-.119-.339-.174-.697-.162-1.056-.028-.7.291-1.369.853-1.788a3.73 3.73 0 0 1 2.316-.65h23.888a3.31 3.31 0 0 1 2.438.812c.665.772 1.139 1.691 1.381 2.681l11.456 37.7 26.731-37.7c.675-1.048 1.543-1.958 2.559-2.681a5.2 5.2 0 0 1 2.884-.812h28.275q2.275 0 2.275 1.462c-.067.757-.381 1.471-.894 2.031l-50.862 65-9.343 43.958a3.82 3.82 0 0 1-4.063 3.412h-23.319q-2.925 0-2.925-2.356c.028-.356.082-.709.163-1.056l9.344-43.794zm119.762 0a3.93 3.93 0 0 1 4.225-3.494h77.594q2.763 0 2.763 2.356a6.85 6.85 0 0 1-.163 1.138l-4.224 19.988c-.236 2.068-2.069 3.578-4.144 3.413h-50.862l-4.062 19.256h38.594q3.25 0 3.25 2.519a7.13 7.13 0 0 1-.162 1.056l-3.495 16.087q-.731 3.412-4.469 3.412h-38.594l-4.306 19.907h52.325q2.925 0 2.925 2.519a3.86 3.86 0 0 1-.081.894l-4.307 19.906c-.236 2.068-2.068 3.576-4.143 3.412h-79.057q-2.925 0-2.925-2.356a7.13 7.13 0 0 1 .162-1.056z" fill="#ea5f00"/><path d="M645.239 107.24a5.06 5.06 0 0 1 3-1.08h27.83a3.35 3.35 0 0 1 2.45.88 3.08 3.08 0 0 1 .87 2.25 3.74 3.74 0 0 1-.09 1l-12.25 58.27q-.89 4.1-4.88 4.1h-27.81c-2.34 0-3.51-.95-3.51-2.83a8.23 8.23 0 0 1 .19-1.27l12.25-58.27a5.19 5.19 0 0 1 2-3m11-49.76a8.75 8.75 0 0 1 6.2-2.17h21.48c3.84 0 5.77 1.69 5.77 5.08a16.78 16.78 0 0 1-.4 2.73l-4.58 21.68c-.53 2.61-1.45 4.4-2.79 5.38a9.59 9.59 0 0 1-5.71 1.46h-21.45a9.08 9.08 0 0 1-4.78-1 3.84 3.84 0 0 1-1.66-3.56 9.35 9.35 0 0 1 .19-2.15l4.59-21.78a11.43 11.43 0 0 1 3.08-5.72zm-56.04 76.46a2.1 2.1 0 0 1 2.11 1.2l9.64 18.73a5.24 5.24 0 0 1 .55 2.2c0 1.1-.79 2.24-2.39 3.4a66.74 66.74 0 0 1-17.76 9.32 58.4 58.4 0 0 1-19.79 3.72 50 50 0 0 1-24.79-6.15 44 44 0 0 1-17.22-17.13 49.61 49.61 0 0 1-6.2-24.84 68.9 68.9 0 0 1 1-11.2 64.37 64.37 0 0 1 12.49-28.6 71.55 71.55 0 0 1 24.1-20.34 63.87 63.87 0 0 1 29.89-7.44 53.25 53.25 0 0 1 20.43 3.59 50.22 50.22 0 0 1 15.57 10.1 3.1 3.1 0 0 1 1.1 2.11 3 3 0 0 1-.92 1.92l-15.79 18.55a3.42 3.42 0 0 1-2.48 1.11 3 3 0 0 1-1.93-.74 32.43 32.43 0 0 0-9.32-5.47 30 30 0 0 0-10-1.6 27.43 27.43 0 0 0-13.27 3.58 35.69 35.69 0 0 0-11.43 10 36.38 36.38 0 0 0-6.61 14.51c-.465 2.305-.713 4.649-.74 7a23.4 23.4 0 0 0 2.53 11.06 18 18 0 0 0 7.11 7.44 21.18 21.18 0 0 0 10.66 2.61 25.7 25.7 0 0 0 10.37-2.2 84.78 84.78 0 0 0 10.56-5.6 4.31 4.31 0 0 1 2.48-.83m-77.82-76.04a3 3 0 0 0-2.25-.83h-15.72l4.91-22.19a7 7 0 0 0 .19-1.85 3.64 3.64 0 0 0-3.91-4 7.74 7.74 0 0 0-2.44.39l-26.17 8.11a9.62 9.62 0 0 0-4 2.1 7.76 7.76 0 0 0-1.75 3.47l-3.16 14h-13.09a4.47 4.47 0 0 0-4.59 3.71l-1.91 9.1-3.31 15.88a8.23 8.23 0 0 0-.19 1.27q0 2.83 3.51 2.83h12.52l-16.64 78.58c-.097.421-.164.849-.2 1.28 0 1.88 1.17 2.83 3.52 2.83h28q4.1 0 5-4.11l16.65-78.58h15.72q3.71 0 4.59-3.81l5.37-25.3a3 3 0 0 0 .1-.87 2.83 2.83 0 0 0-.78-2m-136.34 49.27a5 5 0 0 1 3-1.08h27.83a3.31 3.31 0 0 1 2.44.88 3 3 0 0 1 .88 2.25 3.74 3.74 0 0 1-.09 1l-12.25 58.27q-.89 4.1-4.89 4.1h-27.8c-2.35 0-3.52-.95-3.52-2.83a8.75 8.75 0 0 1 .2-1.27l12.25-58.27a5.14 5.14 0 0 1 1.95-3m11-49.76a8.74 8.74 0 0 1 6.29-2.1h21.49q5.76 0 5.76 5.08a16.43 16.43 0 0 1-.39 2.73l-4.59 21.68q-.78 3.92-2.78 5.38a9.61 9.61 0 0 1-5.71 1.46h-21.5a9.08 9.08 0 0 1-4.78-1 3.84 3.84 0 0 1-1.67-3.56 9.26 9.26 0 0 1 .2-2.15l4.59-21.78a11.43 11.43 0 0 1 3.08-5.79zm-124.89-24.17h57.8a39.53 39.53 0 0 1 19 4.49 32.7 32.7 0 0 1 17.53 29.3c-.008 2.226-.206 4.447-.59 6.64a38.35 38.35 0 0 1-4.74 12.85 51.23 51.23 0 0 1-8.75 11.09q3.62 3.81 6 10.94a46.37 46.37 0 0 1 2.32 14.69 35.5 35.5 0 0 1-.69 7.22 56.13 56.13 0 0 1-9.71 21.78 51.22 51.22 0 0 1-17.1 15 43.89 43.89 0 0 1-21 5.37h-69.68c-2.34 0-3.51-.95-3.51-2.83a8.5 8.5 0 0 1 .19-1.28l27.84-131c.58-2.8 2.28-4.2 5.08-4.2m8.4 111.43h26.07a15.06 15.06 0 0 0 7.57-2.15 21.69 21.69 0 0 0 6.54-5.76 19.09 19.09 0 0 0 3.67-7.71 15.88 15.88 0 0 0 .29-3 13.56 13.56 0 0 0-3.13-8.89 10.19 10.19 0 0 0-8.3-3.81h-26.1zm12-56.54h20.9a17.54 17.54 0 0 0 11.18-3.81 16.94 16.94 0 0 0 6.2-9.77 14.12 14.12 0 0 0 .3-2.83 10.19 10.19 0 0 0-3.18-7.72 11.77 11.77 0 0 0-8.45-3h-21.18z" fill="#fff"/><path fill="#ea5f00" d="M0 0h206v206H0z"/><path d="M136.22 98.41c6.07-4 12.31-12.14 12.31-24.61 0-18.13-10.72-30.21-29.25-33.55v-6.89h-18.67v6h-16.7v-6H65.24v6h-15.3l23 31.35h-14v64.65h14l-23 31.36h15.3v5.94h18.67v-5.94h16.7v5.94h18.67v-6c22.31-1 39.65-14.18 39.65-37 0-17.68-9.71-26.69-22.71-31.19m-50.95-35h19.41c10.92 0 17.33 5.19 17.33 13.86 0 8.49-6.58 14-16.64 14h-20.1zm28.08 79.2H85.27v-30.4h27.38c12.31 0 19.41 5.37 19.41 15.25s-7.28 15.08-18.71 15.08z" fill="#fff"/></svg>