<svg xmlns="http://www.w3.org/2000/svg" width="1267.189" height="204.522"><g fill="#fff"><path d="M510.974 60.023a2.85 2.85 0 0 0-2.177-.806h-15.253l4.761-21.519c.143-.589.207-1.194.19-1.8.109-1.043-.251-2.081-.984-2.831a3.53 3.53 0 0 0-2.808-1.051 7.4 7.4 0 0 0-2.364.38l-25.385 7.861a9.22 9.22 0 0 0-3.885 2.038 7.5 7.5 0 0 0-1.7 3.363l-3.056 13.565h-12.692a4.33 4.33 0 0 0-4.452 3.6l-1.831 8.853-3.217 15.393a8.17 8.17 0 0 0-.19 1.232q0 2.747 3.409 2.747h12.143l-16.139 76.207a8.53 8.53 0 0 0-.19 1.232q0 2.747 3.409 2.747h27.193a4.5 4.5 0 0 0 4.831-4l16.142-76.21h15.245a4.22 4.22 0 0 0 4.452-3.7l5.207-24.532a2.94 2.94 0 0 0 .1-.852c.012-.722-.261-1.419-.759-1.941M268.629 36.171h56.07c6.409-.113 12.743 1.385 18.422 4.358a31.7 31.7 0 0 1 17.008 28.416c-.007 2.16-.196 4.315-.566 6.443a37.2 37.2 0 0 1-4.595 12.456 49.55 49.55 0 0 1-8.477 10.748 27.92 27.92 0 0 1 5.776 10.608 45.22 45.22 0 0 1 2.279 14.205c.014 2.347-.209 4.69-.666 6.992-1.59 7.635-4.805 14.837-9.426 21.119-4.372 6.009-10.036 10.96-16.575 14.49a42.54 42.54 0 0 1-20.41 5.211h-67.538q-3.409 0-3.409-2.747a8.55 8.55 0 0 1 .19-1.232l27-127.009c.27-2.466 2.451-4.27 4.924-4.072m8.147 108.071h25.3a14.65 14.65 0 0 0 7.327-2.083 21.24 21.24 0 0 0 6.346-5.587 18.53 18.53 0 0 0 3.553-7.481 14.91 14.91 0 0 0 .286-2.94c.049-3.143-1.027-6.2-3.033-8.62a9.89 9.89 0 0 0-8.048-3.692h-25.3zm11.653-54.838h20.267c3.935.057 7.768-1.251 10.848-3.7 3.055-2.352 5.183-5.704 6.013-9.469a13.96 13.96 0 0 0 .286-2.747 9.89 9.89 0 0 0-3.08-7.482c-2.233-2.026-5.179-3.082-8.191-2.937h-20.555z"/><path d="M378.727 107.808a4.92 4.92 0 0 1 2.937-1.042h27c.872-.049 1.727.259 2.367.853.571.579.879 1.368.852 2.181a3.38 3.38 0 0 1-.1.946l-11.88 56.509c-.249 2.385-2.343 4.144-4.735 3.979h-26.992q-3.409 0-3.406-2.744a8.21 8.21 0 0 1 .186-1.232l11.877-56.509c.26-1.174.932-2.216 1.895-2.937m10.655-48.255a8.5 8.5 0 0 1 6.106-2.038h20.836q5.587 0 5.59 4.921a16 16 0 0 1-.38 2.664l-4.452 21.026c-.225 2.011-1.187 3.868-2.7 5.211a9.27 9.27 0 0 1-5.54 1.422h-20.846a8.85 8.85 0 0 1-4.641-1c-1.131-.769-1.75-2.095-1.612-3.456a9.04 9.04 0 0 1 .19-2.084l4.452-21.119a11.07 11.07 0 0 1 3-5.551zm240.743 48.252a4.92 4.92 0 0 1 2.94-1.042h26.992a3.2 3.2 0 0 1 2.368.852c.571.579.879 1.368.852 2.181a3.35 3.35 0 0 1-.1.946l-11.877 56.509c-.249 2.386-2.344 4.146-4.738 3.979h-26.989q-3.409 0-3.409-2.744a8.25 8.25 0 0 1 .186-1.232l11.877-56.509a5.03 5.03 0 0 1 1.894-2.937m10.655-48.255a8.51 8.51 0 0 1 6.11-2.038h20.836q5.587 0 5.59 4.921c-.053.897-.181 1.788-.383 2.664l-4.451 21.026a8.19 8.19 0 0 1-2.7 5.211c-1.651 1.047-3.59 1.544-5.541 1.422h-20.836a8.85 8.85 0 0 1-4.641-1c-1.129-.77-1.747-2.096-1.608-3.456-.019-.7.044-1.399.186-2.084l4.452-21.119c.437-2.101 1.476-4.029 2.989-5.55zm-54.294 74.199a2.04 2.04 0 0 1 2.048 1.155l9.349 18.166c.331.666.512 1.395.533 2.138q0 1.6-2.331 3.293c-5.258 3.859-11.066 6.905-17.23 9.036a56.62 56.62 0 0 1-19.192 3.606 48.47 48.47 0 0 1-24.043-5.967 42.78 42.78 0 0 1-16.7-16.6 48.12 48.12 0 0 1-5.993-24.089 66.28 66.28 0 0 1 .982-10.864 62.35 62.35 0 0 1 12.107-27.743c6.225-8.233 14.211-14.97 23.374-19.721a61.93 61.93 0 0 1 28.967-7.215c6.768-.149 13.5 1.032 19.814 3.476a48.94 48.94 0 0 1 15.093 9.8 3 3 0 0 1 1.068 2.048 2.85 2.85 0 0 1-.892 1.871l-15.316 17.98a3.33 3.33 0 0 1-2.4 1.069 2.95 2.95 0 0 1-1.871-.713 31.16 31.16 0 0 0-9.036-5.3c-3.107-1.064-6.372-1.59-9.656-1.555-4.515.047-8.943 1.242-12.869 3.473a34.73 34.73 0 0 0-11.088 9.706 35.38 35.38 0 0 0-6.409 14.071 36.51 36.51 0 0 0-.712 6.769c-.073 3.722.767 7.406 2.447 10.728 1.546 3.027 3.944 5.534 6.9 7.212a20.47 20.47 0 0 0 10.322 2.541c3.467-.009 6.895-.739 10.064-2.145a82.73 82.73 0 0 0 10.238-5.431 4.16 4.16 0 0 1 2.4-.8"/></g><path d="M677.221 149.92a3.68 3.68 0 0 1 1.3-2.3c.632-.5 1.416-.77 2.222-.766h18.08a2.3 2.3 0 0 1 1.915.689c.357.459.547 1.027.536 1.609a1.9 1.9 0 0 1-.077.689l-3.83 18.08c-.162.938-.72 1.762-1.532 2.26a4.29 4.29 0 0 1-2.068.651h-18.078c-.546-.027-1.075-.2-1.532-.5a1.76 1.76 0 0 1-.843-1.647c-.005-.257.021-.515.077-.766zm106.717-8.887c.601-.439 1.324-.68 2.068-.689.74-.074 1.446.327 1.762 1l8.044 15.628c.284.573.441 1.2.46 1.839q0 1.379-1.992 2.835a56 56 0 0 1-14.824 7.776 48.7 48.7 0 0 1-16.509 3.1 41.7 41.7 0 0 1-20.683-5.135c-6.032-3.324-11.009-8.275-14.366-14.288-3.508-6.338-5.291-13.485-5.171-20.727a57.13 57.13 0 0 1 .843-9.346 53.68 53.68 0 0 1 10.419-23.864 59.61 59.61 0 0 1 20.11-16.969c7.681-4.072 16.242-6.202 24.936-6.205a44.5 44.5 0 0 1 17.046 2.988 42.11 42.11 0 0 1 12.983 8.431 2.6 2.6 0 0 1 .919 1.762c-.046.613-.319 1.187-.766 1.609l-13.175 15.474a2.86 2.86 0 0 1-2.068.919 2.54 2.54 0 0 1-1.609-.613c-2.316-1.948-4.945-3.489-7.776-4.558a24.78 24.78 0 0 0-8.312-1.341 22.9 22.9 0 0 0-11.07 2.988c-3.74 2.069-6.993 4.916-9.538 8.35-2.708 3.577-4.592 7.709-5.516 12.1a31.39 31.39 0 0 0-.613 5.822 19.6 19.6 0 0 0 2.107 9.231 14.97 14.97 0 0 0 5.937 6.205c2.719 1.497 5.784 2.25 8.887 2.183a21.44 21.44 0 0 0 8.657-1.839 70.98 70.98 0 0 0 8.81-4.666zm24.975-16.854c1.698-9.215 5.515-17.91 11.151-25.396 5.427-7.183 12.508-12.95 20.641-16.811 8.377-3.967 17.544-5.985 26.813-5.9 7.134-.13 14.18 1.585 20.455 4.98 5.835 3.182 10.665 7.931 13.943 13.713 3.361 5.982 5.079 12.746 4.98 19.607-.025 3.297-.385 6.582-1.073 9.806a62 62 0 0 1-11.259 25.588c-5.361 7.125-12.349 12.865-20.38 16.74-8.221 3.942-17.237 5.947-26.354 5.861-7.203.126-14.316-1.616-20.646-5.056a36.2 36.2 0 0 1-14.135-13.939 39.56 39.56 0 0 1-5.056-19.918 47.93 47.93 0 0 1 .919-9.275zm26.966 0c-.384 1.814-.589 3.662-.613 5.516a20.1 20.1 0 0 0 2.03 9.116c1.307 2.658 3.357 4.881 5.9 6.4a17.37 17.37 0 0 0 9.155 2.337c4.162.007 8.25-1.105 11.836-3.218a29.78 29.78 0 0 0 9.385-8.58 30.52 30.52 0 0 0 5.133-11.568 28.72 28.72 0 0 0 .613-5.592 20.18 20.18 0 0 0-1.992-9.078c-1.281-2.63-3.305-4.828-5.822-6.32a17.39 17.39 0 0 0-9.117-2.3 23.52 23.52 0 0 0-11.8 3.179c-3.735 2.125-6.974 5.023-9.5 8.5-2.558 3.446-4.335 7.407-5.208 11.608zm141.651-5.976a22.29 22.29 0 0 0 .46-4.367c.155-3.146-.932-6.227-3.026-8.58-2.132-2.193-5.104-3.365-8.159-3.218a15.56 15.56 0 0 0-10.955 4.443c-3.27 3.152-5.468 7.252-6.282 11.721l-10.5 49.183a3.96 3.96 0 0 1-1.417 2.6 4.5 4.5 0 0 1-2.8.843h-21.214q-2.835 0-2.835-2.375v-.306a3.22 3.22 0 0 1 .077-.766l18.539-87.1c.205-2.086 2.048-3.622 4.137-3.447h13.409a4.13 4.13 0 0 1 3.026 1.264 4.67 4.67 0 0 1 1.417 2.949l.306 8.274c3.754-4.256 8.31-7.731 13.407-10.227a35.24 35.24 0 0 1 14.939-3.179 30.93 30.93 0 0 1 14.02 3.294c4.453 2.263 7.857 6.162 9.5 10.879q14.556-14.173 30.567-14.173 9.117 0 15.284 3.792a23.01 23.01 0 0 1 9.155 10.534c2.076 4.917 3.094 10.216 2.988 15.552-.026 4.275-.488 8.536-1.379 12.717l-10.422 48.953c-.232 2.062-2.071 3.56-4.137 3.371h-20.761q-2.835 0-2.835-2.375c.026-.337.077-.671.153-1l10.419-49.183c.358-1.636.537-3.306.536-4.98q0-5.209-2.681-8.2-2.681-2.991-7.738-2.988a16.14 16.14 0 0 0-7.852 2.03c-2.518 1.39-4.681 3.343-6.32 5.707a22.32 22.32 0 0 0-3.6 8.427l-10.343 49.191c-.211 2.041-2.015 3.539-4.06 3.371h-20.838q-2.835 0-2.835-2.375a6.73 6.73 0 0 1 .153-1zm95 31.716a3.68 3.68 0 0 1 1.3-2.3c.632-.5 1.416-.77 2.222-.766h18.08a2.3 2.3 0 0 1 1.915.689c.357.459.547 1.027.536 1.609a1.9 1.9 0 0 1-.077.689l-3.83 18.08c-.162.938-.72 1.762-1.532 2.26a4.29 4.29 0 0 1-2.068.651h-18.08c-.546-.027-1.075-.2-1.532-.5a1.76 1.76 0 0 1-.843-1.647c-.005-.257.021-.515.077-.766zm73.928 17.7c-.222 1.95-1.95 3.373-3.907 3.218h-21.992q-2.758 0-2.758-2.222c.026-.337.077-.671.153-1l13.713-64.5h-10.265q-2.452 0-2.452-1.992a6.72 6.72 0 0 1 .153-1l4.214-19.842c.157-.841.605-1.6 1.264-2.145.666-.52 1.493-.791 2.337-.766h10.266l3.218-15.092c.22-1.009.695-1.946 1.379-2.72a7.42 7.42 0 0 1 3.141-1.647l20.531-6.359c.618-.205 1.264-.308 1.915-.306.817-.039 1.617.249 2.222.8a3.08 3.08 0 0 1 .843 2.337 5.5 5.5 0 0 1-.153 1.456l-4.598 21.533h12.334a2.3 2.3 0 0 1 1.762.651 2.21 2.21 0 0 1 .613 1.57c.009.232-.017.464-.077.689l-4.214 19.842a3.41 3.41 0 0 1-3.6 2.988h-12.336zm47.651-87.258a3.73 3.73 0 0 1 3.984-3.371h12.564c1.061-.061 2.119.164 3.064.651q1.073.651 1.609 3.179l1.532 8.2c2.135-2.395 4.411-4.659 6.818-6.78a27.26 27.26 0 0 1 7.278-4.367 25.15 25.15 0 0 1 9.806-1.8c3.713.008 7.386.763 10.8 2.222 3.182 1.292 6.202 2.95 9 4.941a37.89 37.89 0 0 1 5.324 4.482 4 4 0 0 1 1.3 2.681 5.44 5.44 0 0 1-1.685 3.218l-12.487 13.555c-.614.852-1.557 1.408-2.6 1.532-.845-.065-1.623-.482-2.145-1.149q-.383-.383-2.3-2.375a15.51 15.51 0 0 0-4.9-3.333 15.72 15.72 0 0 0-6.512-1.341 20.9 20.9 0 0 0-8.733 1.877 19.62 19.62 0 0 0-7.163 5.592c-2.083 2.619-3.491 5.709-4.1 9l-10.73 50.565a3.81 3.81 0 0 1-4.06 3.294h-21.6a3.2 3.2 0 0 1-2.03-.575c-.493-.4-.764-1.013-.728-1.647.021-.361.072-.72.153-1.073z" fill="#ea5607"/><path fill="#ea5f00" d="M0 0h204.522v204.522H0z"/><path d="M135.243 97.704c6.026-3.971 12.222-12.053 12.222-24.433 0-18-10.643-29.993-29.04-33.309v-6.841H99.888v5.957h-16.58v-5.957H64.772v5.957h-15.19l22.835 31.125h-13.9v64.186h13.9l-22.835 31.132h15.19v5.9h18.536v-5.9h16.58v5.9h18.536v-5.957c22.15-.993 39.365-14.078 39.365-36.734 0-17.553-9.64-26.5-22.547-30.966M84.658 63.015h19.274c10.842 0 17.206 5.153 17.206 13.761 0 8.429-6.533 13.9-16.521 13.9H84.658zm27.874 78.632H84.658v-30.182h27.184c12.222 0 19.271 5.331 19.271 15.141s-7.228 14.972-18.576 14.972z" fill="#fff"/></svg>