<svg xmlns="http://www.w3.org/2000/svg" width="689.74" height="206"><path d="M645.24 107.24a5.06 5.06 0 0 1 3-1.08h27.83a3.35 3.35 0 0 1 2.45.88 3.08 3.08 0 0 1 .87 2.25 3.74 3.74 0 0 1-.09 1l-12.25 58.27q-.89 4.1-4.88 4.1h-27.81c-2.34 0-3.51-.95-3.51-2.83a8.23 8.23 0 0 1 .19-1.27l12.25-58.27a5.19 5.19 0 0 1 2-3m11-49.76a8.75 8.75 0 0 1 6.2-2.17h21.48c3.84 0 5.77 1.69 5.77 5.08a16.78 16.78 0 0 1-.4 2.73l-4.58 21.68c-.53 2.61-1.45 4.4-2.79 5.38a9.59 9.59 0 0 1-5.71 1.46h-21.45a9.08 9.08 0 0 1-4.78-1 3.84 3.84 0 0 1-1.66-3.56 9.35 9.35 0 0 1 .19-2.15l4.59-21.78a11.43 11.43 0 0 1 3.08-5.72zm-56.04 76.46a2.1 2.1 0 0 1 2.11 1.2l9.64 18.73a5.24 5.24 0 0 1 .55 2.2c0 1.1-.79 2.24-2.39 3.4a66.74 66.74 0 0 1-17.76 9.32 58.4 58.4 0 0 1-19.79 3.72 50 50 0 0 1-24.79-6.15 44 44 0 0 1-17.22-17.13 49.61 49.61 0 0 1-6.2-24.84 68.9 68.9 0 0 1 1-11.2 64.37 64.37 0 0 1 12.49-28.6 71.55 71.55 0 0 1 24.1-20.34 63.87 63.87 0 0 1 29.89-7.44 53.25 53.25 0 0 1 20.43 3.59 50.22 50.22 0 0 1 15.57 10.1 3.1 3.1 0 0 1 1.1 2.11 3 3 0 0 1-.92 1.92l-15.79 18.55a3.42 3.42 0 0 1-2.48 1.11 3 3 0 0 1-1.93-.74 32.43 32.43 0 0 0-9.32-5.47 30 30 0 0 0-10-1.6 27.43 27.43 0 0 0-13.27 3.58 35.69 35.69 0 0 0-11.43 10 36.38 36.38 0 0 0-6.61 14.51c-.465 2.305-.713 4.649-.74 7a23.4 23.4 0 0 0 2.53 11.06 18 18 0 0 0 7.11 7.44 21.18 21.18 0 0 0 10.66 2.61 25.7 25.7 0 0 0 10.37-2.2 84.78 84.78 0 0 0 10.56-5.6 4.31 4.31 0 0 1 2.48-.83m-77.82-76.04a3 3 0 0 0-2.25-.83h-15.72l4.91-22.19a7 7 0 0 0 .19-1.85 3.64 3.64 0 0 0-3.91-4 7.74 7.74 0 0 0-2.44.39l-26.17 8.11a9.62 9.62 0 0 0-4 2.1 7.76 7.76 0 0 0-1.75 3.47l-3.16 14h-13.09a4.47 4.47 0 0 0-4.59 3.71l-1.91 9.1-3.31 15.88a8.23 8.23 0 0 0-.19 1.27q0 2.83 3.51 2.83h12.52l-16.64 78.58c-.097.421-.164.849-.2 1.28 0 1.88 1.17 2.83 3.52 2.83h28q4.1 0 5-4.11l16.65-78.58h15.72q3.71 0 4.59-3.81l5.37-25.3a3 3 0 0 0 .1-.87 2.83 2.83 0 0 0-.78-2m-136.34 49.27a5 5 0 0 1 3-1.08h27.83a3.31 3.31 0 0 1 2.44.88 3 3 0 0 1 .88 2.25 3.74 3.74 0 0 1-.09 1l-12.25 58.27q-.89 4.1-4.89 4.1h-27.8c-2.35 0-3.52-.95-3.52-2.83a8.75 8.75 0 0 1 .2-1.27l12.25-58.27a5.14 5.14 0 0 1 1.95-3m11-49.76a8.74 8.74 0 0 1 6.29-2.1h21.49q5.76 0 5.76 5.08a16.43 16.43 0 0 1-.39 2.73l-4.59 21.68q-.78 3.92-2.78 5.38a9.61 9.61 0 0 1-5.71 1.46h-21.5a9.08 9.08 0 0 1-4.78-1 3.84 3.84 0 0 1-1.67-3.56 9.26 9.26 0 0 1 .2-2.15l4.59-21.78a11.43 11.43 0 0 1 3.08-5.79zM272.12 33.36h57.8a39.53 39.53 0 0 1 19 4.49 32.7 32.7 0 0 1 17.53 29.3c-.008 2.226-.206 4.447-.59 6.64a38.35 38.35 0 0 1-4.74 12.85 51.23 51.23 0 0 1-8.75 11.09q3.62 3.81 6 10.94a46.37 46.37 0 0 1 2.32 14.69 35.5 35.5 0 0 1-.69 7.22 56.13 56.13 0 0 1-9.71 21.78 51.22 51.22 0 0 1-17.1 15 43.89 43.89 0 0 1-21 5.37h-69.68c-2.34 0-3.51-.95-3.51-2.83a8.5 8.5 0 0 1 .19-1.28l27.84-131c.58-2.8 2.28-4.2 5.08-4.2m8.4 111.43h26.07a15.06 15.06 0 0 0 7.57-2.15 21.69 21.69 0 0 0 6.54-5.76 19.09 19.09 0 0 0 3.67-7.71 15.88 15.88 0 0 0 .29-3 13.56 13.56 0 0 0-3.13-8.89 10.19 10.19 0 0 0-8.3-3.81h-26.1zm12-56.54h20.9a17.54 17.54 0 0 0 11.18-3.81 16.94 16.94 0 0 0 6.2-9.77 14.12 14.12 0 0 0 .3-2.83 10.19 10.19 0 0 0-3.18-7.72 11.77 11.77 0 0 0-8.45-3h-21.18z" fill="#fff"/><path fill="#ea5f00" d="M0 0h206v206H0z"/><path d="M136.22 98.41c6.07-4 12.31-12.14 12.31-24.61 0-18.13-10.72-30.21-29.25-33.55v-6.89h-18.67v6h-16.7v-6H65.24v6h-15.3l23 31.35h-14v64.65h14l-23 31.36h15.3v5.94h18.67v-5.94h16.7v5.94h18.67v-6c22.31-1 39.65-14.18 39.65-37 0-17.68-9.71-26.69-22.71-31.19m-50.95-35h19.41c10.92 0 17.33 5.19 17.33 13.86 0 8.49-6.58 14-16.64 14h-20.1zm28.08 79.2H85.27v-30.4h27.38c12.31 0 19.41 5.37 19.41 15.25s-7.28 15.08-18.71 15.08z" fill="#fff"/></svg>