<svg xmlns="http://www.w3.org/2000/svg" width="1490.266" height="206"><path d="M762.659 122.996l-9.489 44.662a4.39 4.39 0 0 1-1.472 2.618c-.864.591-1.9.879-2.945.818h-23.068q-2.945 0-2.945-2.372a7.18 7.18 0 0 1 .164-1.063l23.313-109.694c.21-.968.726-1.843 1.472-2.495a4.03 4.03 0 0 1 2.781-1.022h23.559q2.618 0 2.618 2.372a5.08 5.08 0 0 1-.082.982l-7.935 37.464h39.427l7.853-37.3c.21-.968.726-1.843 1.472-2.495a4.03 4.03 0 0 1 2.781-1.022h23.558q2.618 0 2.618 2.372a5.08 5.08 0 0 1-.082.982l-23.394 109.855a4.39 4.39 0 0 1-1.472 2.618c-.864.591-1.9.879-2.945.818h-23.067q-2.945 0-2.945-2.372a7.18 7.18 0 0 1 .164-1.063l9.493-44.663zm92.106-10.225c2.081-11.436 6.925-22.191 14.11-31.329a74.9 74.9 0 0 1 26.053-21.186 71.23 71.23 0 0 1 31.82-7.526 51.35 51.35 0 0 1 25.6 6.3 44.4 44.4 0 0 1 17.382 17.382 50.13 50.13 0 0 1 6.176 24.826 62.16 62.16 0 0 1-1.063 11.534c-2.125 11.316-6.952 21.95-14.07 31-6.964 8.961-15.852 16.244-26.008 21.31-9.884 5.023-20.813 7.644-31.9 7.648-8.897.148-17.678-2.024-25.481-6.3a45.05 45.05 0 0 1-17.505-17.3 49 49 0 0 1-6.258-24.663 58.69 58.69 0 0 1 1.144-11.696zm30.184 0c-.502 2.34-.776 4.724-.818 7.117a25.68 25.68 0 0 0 2.945 12.352c1.916 3.606 4.826 6.586 8.384 8.589a25.2 25.2 0 0 0 12.72 3.108c5.666.002 11.24-1.433 16.2-4.172a40.55 40.55 0 0 0 13.088-11.288 38.9 38.9 0 0 0 7.2-15.706 37.27 37.27 0 0 0 .818-7.2 25.44 25.44 0 0 0-2.945-12.311c-1.926-3.588-4.834-6.553-8.384-8.548a25.2 25.2 0 0 0-12.72-3.108c-5.666-.002-11.24 1.433-16.2 4.172a40.55 40.55 0 0 0-13.088 11.288 38.9 38.9 0 0 0-7.2 15.707zm117.955-54.806c.221-1.006.767-1.912 1.554-2.577a4.01 4.01 0 0 1 2.618-.941h23.477q2.781 0 2.781 2.372c-.022.386-.077.769-.164 1.145l-18.079 85.318h43.517q2.863 0 2.863 2.29a6.89 6.89 0 0 1-.164 1.145l-4.5 20.941c-.215 2.06-2.024 3.579-4.09 3.436h-70.426q-2.863 0-2.863-2.29a6.89 6.89 0 0 1 .164-1.145zm93.906 0a3.96 3.96 0 0 1 4.254-3.517h37.873c8.63-.068 17.124 2.147 24.622 6.421 7.466 4.221 13.665 10.364 17.955 17.791a49.67 49.67 0 0 1 6.667 25.6 63.39 63.39 0 0 1-.654 8.589 63.86 63.86 0 0 1-12.883 30.389c-6.759 8.749-15.471 15.794-25.44 20.573a71.37 71.37 0 0 1-31.37 7.28h-41.556q-2.945 0-2.945-2.372a7.18 7.18 0 0 1 .164-1.063zm60.286 54.888c.415-2.13.634-4.293.654-6.462a25.08 25.08 0 0 0-3.067-12.393 21.82 21.82 0 0 0-8.671-8.63 26.46 26.46 0 0 0-13.047-3.108h-10.961l-12.924 61.022h10.961a35.13 35.13 0 0 0 16.442-4.09 40.56 40.56 0 0 0 13.333-11.084 37.41 37.41 0 0 0 7.28-15.256zm62.659-54.888a3.96 3.96 0 0 1 4.254-3.517h23.476q2.781 0 2.781 2.372c-.022.386-.077.769-.164 1.145l-23.311 109.693c-.215 2.06-2.024 3.579-4.09 3.436h-23.478q-2.945 0-2.945-2.372a7.18 7.18 0 0 1 .164-1.063zm61.836 109.693q-.736 3.436-4.5 3.436h-21.917q-2.945 0-2.945-2.372a7.18 7.18 0 0 1 .164-1.063l23.313-109.693c.21-.968.726-1.843 1.472-2.495a4.03 4.03 0 0 1 2.781-1.022h23.8q3.272 0 4.744 3.517l26.912 66.094 14.07-66.094c.21-.968.726-1.843 1.472-2.495a4.14 4.14 0 0 1 2.863-1.022h21.841a3.26 3.26 0 0 1 2.127.818c.615.466.978 1.191.982 1.963a2.48 2.48 0 0 1-.082.736l-23.31 109.692q-.736 3.436-4.5 3.436h-22.987c-2.246.106-4.288-1.3-4.99-3.436l-26.827-67.975zm157.059-23.885c3.844.013 7.671-.509 11.371-1.55l4.417-20.777a3.78 3.78 0 0 1 4.09-3.436h21.922a3.73 3.73 0 0 1 2 .532 1.99 1.99 0 0 1 .859 1.84c-.028.358-.083.713-.164 1.063l-8.1 37.955a5.72 5.72 0 0 1-.854 2.123c-.478.659-1.11 1.193-1.84 1.554-11.439 6.488-24.396 9.819-37.546 9.652-8.981.143-17.84-2.086-25.684-6.461a46 46 0 0 1-17.791-18.037c-4.362-8.04-6.574-17.071-6.421-26.217a64.48 64.48 0 0 1 .736-9.571 65.62 65.62 0 0 1 12.556-30.879 70.48 70.48 0 0 1 25.562-21.227c10.245-5.07 21.534-7.675 32.965-7.607a47.34 47.34 0 0 1 17.832 3.108c5.325 2.196 10.246 5.264 14.56 9.08.668.476 1.088 1.227 1.145 2.045a3.8 3.8 0 0 1-1.145 2.372l-15.214 17.505c-.687.837-1.699 1.343-2.781 1.391-.762.001-1.494-.292-2.045-.818a24.3 24.3 0 0 0-7.362-4.376c-2.93-1.092-6.036-1.634-9.162-1.6a34.82 34.82 0 0 0-16.605 4.09c-5.088 2.694-9.494 6.513-12.883 11.166a41 41 0 0 0-7.077 15.75 37.58 37.58 0 0 0-.818 7.28 26.03 26.03 0 0 0 2.863 12.311c1.862 3.577 4.698 6.555 8.18 8.589a23.94 23.94 0 0 0 12.434 3.15z" fill="#ea5f00"/><path d="M645.24 107.24a5.06 5.06 0 0 1 3-1.08h27.83a3.35 3.35 0 0 1 2.45.88 3.08 3.08 0 0 1 .87 2.25 3.74 3.74 0 0 1-.09 1l-12.25 58.27q-.89 4.1-4.88 4.1h-27.81c-2.34 0-3.51-.95-3.51-2.83a8.23 8.23 0 0 1 .19-1.27l12.25-58.27a5.19 5.19 0 0 1 2-3m11-49.76a8.75 8.75 0 0 1 6.2-2.17h21.48c3.84 0 5.77 1.69 5.77 5.08a16.78 16.78 0 0 1-.4 2.73l-4.58 21.68c-.53 2.61-1.45 4.4-2.79 5.38a9.59 9.59 0 0 1-5.71 1.46h-21.45a9.08 9.08 0 0 1-4.78-1 3.84 3.84 0 0 1-1.66-3.56 9.35 9.35 0 0 1 .19-2.15l4.59-21.78a11.43 11.43 0 0 1 3.08-5.72zm-56.04 76.46a2.1 2.1 0 0 1 2.11 1.2l9.64 18.73a5.24 5.24 0 0 1 .55 2.2c0 1.1-.79 2.24-2.39 3.4a66.74 66.74 0 0 1-17.76 9.32 58.4 58.4 0 0 1-19.79 3.72 50 50 0 0 1-24.79-6.15 44 44 0 0 1-17.22-17.13 49.61 49.61 0 0 1-6.2-24.84 68.9 68.9 0 0 1 1-11.2 64.37 64.37 0 0 1 12.49-28.6 71.55 71.55 0 0 1 24.1-20.34 63.87 63.87 0 0 1 29.89-7.44 53.25 53.25 0 0 1 20.43 3.59 50.22 50.22 0 0 1 15.57 10.1 3.1 3.1 0 0 1 1.1 2.11 3 3 0 0 1-.92 1.92l-15.79 18.55a3.42 3.42 0 0 1-2.48 1.11 3 3 0 0 1-1.93-.74 32.43 32.43 0 0 0-9.32-5.47 30 30 0 0 0-10-1.6 27.43 27.43 0 0 0-13.27 3.58 35.69 35.69 0 0 0-11.43 10 36.38 36.38 0 0 0-6.61 14.51c-.465 2.305-.713 4.649-.74 7a23.4 23.4 0 0 0 2.53 11.06 18 18 0 0 0 7.11 7.44 21.18 21.18 0 0 0 10.66 2.61 25.7 25.7 0 0 0 10.37-2.2 84.78 84.78 0 0 0 10.56-5.6 4.31 4.31 0 0 1 2.48-.83m-77.82-76.04a3 3 0 0 0-2.25-.83h-15.72l4.91-22.19a7 7 0 0 0 .19-1.85 3.64 3.64 0 0 0-3.91-4 7.74 7.74 0 0 0-2.44.39l-26.17 8.11a9.62 9.62 0 0 0-4 2.1 7.76 7.76 0 0 0-1.75 3.47l-3.16 14h-13.09a4.47 4.47 0 0 0-4.59 3.71l-1.91 9.1-3.31 15.88a8.23 8.23 0 0 0-.19 1.27q0 2.83 3.51 2.83h12.52l-16.64 78.58c-.097.421-.164.849-.2 1.28 0 1.88 1.17 2.83 3.52 2.83h28q4.1 0 5-4.11l16.65-78.58h15.72q3.71 0 4.59-3.81l5.37-25.3a3 3 0 0 0 .1-.87 2.83 2.83 0 0 0-.78-2m-136.34 49.27a5 5 0 0 1 3-1.08h27.83a3.31 3.31 0 0 1 2.44.88 3 3 0 0 1 .88 2.25 3.74 3.74 0 0 1-.09 1l-12.25 58.27q-.89 4.1-4.89 4.1h-27.8c-2.35 0-3.52-.95-3.52-2.83a8.75 8.75 0 0 1 .2-1.27l12.25-58.27a5.14 5.14 0 0 1 1.95-3m11-49.76a8.74 8.74 0 0 1 6.29-2.1h21.49q5.76 0 5.76 5.08a16.43 16.43 0 0 1-.39 2.73l-4.59 21.68q-.78 3.92-2.78 5.38a9.61 9.61 0 0 1-5.71 1.46h-21.5a9.08 9.08 0 0 1-4.78-1 3.84 3.84 0 0 1-1.67-3.56 9.26 9.26 0 0 1 .2-2.15l4.59-21.78a11.43 11.43 0 0 1 3.08-5.79zM272.12 33.36h57.8a39.53 39.53 0 0 1 19 4.49 32.7 32.7 0 0 1 17.53 29.3c-.008 2.226-.206 4.447-.59 6.64a38.35 38.35 0 0 1-4.74 12.85 51.23 51.23 0 0 1-8.75 11.09q3.62 3.81 6 10.94a46.37 46.37 0 0 1 2.32 14.69 35.5 35.5 0 0 1-.69 7.22 56.13 56.13 0 0 1-9.71 21.78 51.22 51.22 0 0 1-17.1 15 43.89 43.89 0 0 1-21 5.37h-69.68c-2.34 0-3.51-.95-3.51-2.83a8.5 8.5 0 0 1 .19-1.28l27.84-131c.58-2.8 2.28-4.2 5.08-4.2m8.4 111.43h26.07a15.06 15.06 0 0 0 7.57-2.15 21.69 21.69 0 0 0 6.54-5.76 19.09 19.09 0 0 0 3.67-7.71 15.88 15.88 0 0 0 .29-3 13.56 13.56 0 0 0-3.13-8.89 10.19 10.19 0 0 0-8.3-3.81h-26.1zm12-56.54h20.9a17.54 17.54 0 0 0 11.18-3.81 16.94 16.94 0 0 0 6.2-9.77 14.12 14.12 0 0 0 .3-2.83 10.19 10.19 0 0 0-3.18-7.72 11.77 11.77 0 0 0-8.45-3h-21.18z" fill="#fff"/><path fill="#ea5f00" d="M0 0h206v206H0z"/><path d="M136.22 98.41c6.07-4 12.31-12.14 12.31-24.61 0-18.13-10.72-30.21-29.25-33.55v-6.89h-18.67v6h-16.7v-6H65.24v6h-15.3l23 31.35h-14v64.65h14l-23 31.36h15.3v5.94h18.67v-5.94h16.7v5.94h18.67v-6c22.31-1 39.65-14.18 39.65-37 0-17.68-9.71-26.69-22.71-31.19m-50.95-35h19.41c10.92 0 17.33 5.19 17.33 13.86 0 8.49-6.58 14-16.64 14h-20.1zm28.08 79.2H85.27v-30.4h27.38c12.31 0 19.41 5.37 19.41 15.25s-7.28 15.08-18.71 15.08z" fill="#fff"/></svg>