<svg xmlns="http://www.w3.org/2000/svg" xmlns:xlink="http://www.w3.org/1999/xlink" width="64" height="64" viewBox="0 0 64 64"><defs><clipPath id="a"><path d="M77.9,169h0a31.984,31.984,0,0,1,32,32h0a31.984,31.984,0,0,1-32,32h0a31.984,31.984,0,0,1-32-32h0A31.984,31.984,0,0,1,77.9,169Z" transform="translate(-45.9 -169)"/></clipPath><radialGradient id="b" cx="0.5" cy="0.552" r="0.562" gradientTransform="matrix(0, 1, 1, 0, -2.642, 2.642)" gradientUnits="objectBoundingBox"><stop offset="0.167" stop-color="#073183"/><stop offset="1" stop-color="#0054f9"/></radialGradient></defs><g transform="translate(-45.9 -169)"><g transform="translate(45.9 169)" clip-path="url(#a)"><path d="M77.9,169h0a31.984,31.984,0,0,1,32,32h0a31.984,31.984,0,0,1-32,32h0a31.984,31.984,0,0,1-32-32h0A31.984,31.984,0,0,1,77.9,169Z" transform="translate(-45.9 -169)" fill="url(#b)"/><g transform="translate(11.051 11.721)"><path d="M131.016,201.869a10.6,10.6,0,0,1-.467,1.608h0a9.23,9.23,0,0,0-.622,2.075,10.165,10.165,0,0,0-.156,1.037h0a7.143,7.143,0,0,1-.259,1.3,7.43,7.43,0,0,1-.985,1.919c-.467.622-1.3,1.712-2.334,1.815h-.363a49.25,49.25,0,0,0-6.535-2.956c-1.037-.311-.934-2.593-.778-4.564a20.547,20.547,0,0,0,.052-2.489c-.156-2.541-.571-5.29-2.8-6.69a8.735,8.735,0,0,0-4.668-1.037c.311-.156.622-.363.985-.571h0a8.17,8.17,0,0,1,3.319-1.348,8.481,8.481,0,0,1,1.141-.1c2.386-.259,4.46-.519,6.587.259.985.363,3.008,1.452,3.527,2.489a9.486,9.486,0,0,0,2.23,2.438,14.582,14.582,0,0,0,1.4,1.193h0c.415.363.519.415.674.674A4.734,4.734,0,0,1,131.016,201.869Z" transform="translate(-88.336 -191.6)" fill="#fff"/><path d="M121.6,231.129a.287.287,0,0,1,.156.415c-.311.467-.674,1.141-1.089,1.919-.207.363-.415.778-.571,1.037a5.465,5.465,0,0,0-.674,2.541c-.052.726-.052,1.037-.519,1.3-.363.259-.726.311-3.216.674a3.072,3.072,0,0,0-.778.207c-.052,0-.052,0-.1.052a.227.227,0,0,1-.311-.259c0-.363.052-.778.052-1.3v-1.3c-.052-.622-.052-.882.156-1.193a2.365,2.365,0,0,1,.622-.622,6.161,6.161,0,0,0,1.66-1.608,3.615,3.615,0,0,0,.57-1.089c0-.1.052-.156.363-.363a3.328,3.328,0,0,1,2.593-.778c.207.052.674.207,1.089.363Z" transform="translate(-89.965 -210.435)" fill="#fff"/><path d="M108.394,252.06a.269.269,0,0,1-.207.1.646.646,0,0,1-.571-.207,1.863,1.863,0,0,1-.156-1.3l1.037-.259A3.365,3.365,0,0,1,108.394,252.06Z" transform="translate(-86.563 -219.904)" fill="#fff"/><path d="M108.437,246.059c0,.156-.052.311-.052.519v.778a3.031,3.031,0,0,1-.985.1v-.882a2.137,2.137,0,0,1,.052-.622c.1,0,.207-.052.311-.052a3.569,3.569,0,0,1,.674-.1C108.489,245.852,108.437,245.956,108.437,246.059Z" transform="translate(-86.555 -217.69)" fill="#fff"/><path d="M104.288,252.085c-.052.519-.207,1.193-.726,1.3-.207.052-.363,0-.415-.1-.363-.311-.415-1.3-.363-1.971a7.747,7.747,0,0,0,.882-.1,2.6,2.6,0,0,1,.622-.1Z" transform="translate(-84.325 -220.241)" fill="#fff"/><path d="M104.141,247.808l-1.141.363c.052-.467.156-1.089.156-1.5a.8.8,0,0,1,.1-.415h.052l.726-.052A8.114,8.114,0,0,1,104.141,247.808Z" transform="translate(-84.437 -217.882)" fill="#fff"/><path d="M100.16,247.618c-.052.156-.156.674-.207.985l-1.452-.052q.156-.7.311-1.245a1.261,1.261,0,0,1,.363-.674.643.643,0,0,1,.674.052A.836.836,0,0,1,100.16,247.618Z" transform="translate(-82.27 -218.056)" fill="#fff"/><path d="M99.539,254.641a.794.794,0,0,1-.363.259.438.438,0,0,1-.363-.1c-.467-.415-.415-1.763-.415-2.438a7.369,7.369,0,0,1,1.556-.259A4.477,4.477,0,0,1,99.539,254.641Z" transform="translate(-82.221 -220.722)" fill="#fff"/><path d="M95.7,248.48a5.381,5.381,0,0,1-.207.519,3.68,3.68,0,0,1-1.193-.1l.363-2.23a2.334,2.334,0,0,1,1.452-.052C96.323,246.872,95.908,248.013,95.7,248.48Z" transform="translate(-80.249 -218.036)" fill="#fff"/><path d="M93.9,255.63a1.452,1.452,0,0,1-1.3.519c-.415,0-.57-.156-.622-.259-.311-.519,0-1.711.311-2.489l1.919.1c0,.156.052.311.052.467A2.388,2.388,0,0,1,93.9,255.63Z" transform="translate(-79.07 -221.348)" fill="#fff"/><path d="M99.432,211.567c-1.763-.519-1.608-3.06-1.452-5.5a19.074,19.074,0,0,0,.052-2.386c-.156-2.282-.519-4.823-2.386-5.964-1.971-1.245-5.238-.934-7.261-.674h0a8.01,8.01,0,0,1-1.971.363,6.633,6.633,0,0,1-2.9-.985A3.644,3.644,0,0,0,81.8,195.8h-.1a3.993,3.993,0,0,0-2.9,1.089,9.115,9.115,0,0,0-1.037,2.438,8.5,8.5,0,0,0-.467,1.971,6.449,6.449,0,0,1-.363,1.66c-.156.467-.311.934-.415,1.3a7.962,7.962,0,0,1-1.348,2.956,2.268,2.268,0,0,0-.311.519,6.735,6.735,0,0,1-.674.985,3.85,3.85,0,0,0-.622,1.608,3.6,3.6,0,0,0,.363,1.193,2.594,2.594,0,0,1,.415,1.348v.1c.052.882-.052,1.348-1.763,2.853a19.489,19.489,0,0,0-2.386,2.593c-.052.052,0,.156.1.156h.363a1.667,1.667,0,0,1,1.089.519c.052.052.1.052.207.052a1.669,1.669,0,0,1,.882-.052,1.864,1.864,0,0,1,.934.363.381.381,0,0,0,.311.1,1.513,1.513,0,0,1,.83.052,1.727,1.727,0,0,1,.519.311.393.393,0,0,0,.519.052c.052-.052.156-.052.207-.1a2.137,2.137,0,0,1,1.141.052,2.168,2.168,0,0,1,.519.207,1.63,1.63,0,0,1,.571.726.379.379,0,0,0,.57.156.566.566,0,0,1,.622-.1c.052.052.156.1.207.156a.661.661,0,0,0,.571.259,2.413,2.413,0,0,1,1.712.207,1.471,1.471,0,0,1,.519.467h0v-.1a.112.112,0,0,1,.1-.1l.1-.052c.259-.1,1.712-.519,2.282.1a.072.072,0,0,0,.1,0c.052-.1.156-.1.156-.156a1.267,1.267,0,0,1,1.4.1c.1.052.207.052.259-.052l.156-.156a.627.627,0,0,1,.519-.156l.778-.052a7.029,7.029,0,0,0,1.037-.1h.052c.1,0,.156-.052.259-.052a1.878,1.878,0,0,1,1.193,0c.363.156.311.571.259.882,0,.156-.052.311-.052.415v.207a3.434,3.434,0,0,1-.052.778h0l.052.156a.239.239,0,0,0,.363.156,2.188,2.188,0,0,0,.622-.519v-.052a1.055,1.055,0,0,0,.052-.259,13.885,13.885,0,0,0,.1-2.126v-1.3a2.68,2.68,0,0,1,.259-1.712,2.09,2.09,0,0,1,.934-.882,4.395,4.395,0,0,0,1.4-1.348,2.807,2.807,0,0,0,.415-.778c.052-.311.156-.519.674-.934a4.078,4.078,0,0,1,3.267-.934,13.729,13.729,0,0,1,2.282.726h0c.052,0,.052,0,.1.052h.052a19.284,19.284,0,0,1,1.971.882.325.325,0,0,0,.415-.1,3.356,3.356,0,0,1,.467-.415c.052-.052.1-.052.156-.1a.316.316,0,0,0-.052-.519,43.252,43.252,0,0,0-5.238-1.919Zm-16.6.519c-.519,2.334-4.2,4.979-5.861,4.979h-.311a2.764,2.764,0,0,1-1.037-.622,2.176,2.176,0,0,1-.467-.726.191.191,0,0,0-.052-.156,2.3,2.3,0,0,1,.156-1.712l.156-.311c0-.052.052-.052.052-.1.052-.1.052-.156.1-.259a.737.737,0,0,0,.1-.311c0-.052.052-.052.052-.1a1.246,1.246,0,0,0,.1-.519,1.013,1.013,0,0,1,.052-.363c.1-.467.156-.83.207-1.141a3.89,3.89,0,0,1,.467-1.608.4.4,0,0,1,.207-.207l.052-.052.052-.052c.1-.052.156-.1.259-.156.052,0,.052-.052.1-.052s.156-.052.207-.052a3.4,3.4,0,0,1,1.037-.052,7.086,7.086,0,0,1,1.193.207,6.785,6.785,0,0,1,.778.259.051.051,0,0,1,.052.052.181.181,0,0,1,.1.052.191.191,0,0,0,.156.052c.052.052.156.052.207.1h.052c.259.1.467.259.674.363.1.052.156.156.259.207a.051.051,0,0,1,.052.052l.052.052A2.133,2.133,0,0,1,82.836,212.085Zm1.712-8.921-.052.415a2.844,2.844,0,0,1-1.919,2.645,9.394,9.394,0,0,1-2.593.415h-.052a2.393,2.393,0,0,1-2.282-1.5c-.156-.726.156-1.193.674-2.075.1-.156.156-.311.259-.467A11.919,11.919,0,0,0,79.724,200a3.41,3.41,0,0,1,.83-1.608,2.257,2.257,0,0,1,.363-.311c.1-.052.156-.1.259-.156a3.571,3.571,0,0,1,.415-.156,3.02,3.02,0,0,1,.985-.156,2.984,2.984,0,0,1,1.763.57,2.169,2.169,0,0,1,.674,1.5C85.014,200.157,84.859,201.09,84.547,203.165Zm9.906,2.749a4.926,4.926,0,0,1-1.141,1.608,3.911,3.911,0,0,1-2.541.83,7.429,7.429,0,0,1-1.348-.156c-.83-.156-2.334-.415-2.853-1.608a1.216,1.216,0,0,1-.1-.57,7.779,7.779,0,0,0-.1-1.245v-.052a3.32,3.32,0,0,1,0-1.245v-.052a9.65,9.65,0,0,1,.415-1.815.605.605,0,0,1,.778-.259.589.589,0,0,1,.259.778,12.706,12.706,0,0,0-.311,1.5v.052a2.518,2.518,0,0,0,0,.882v.052a10.162,10.162,0,0,1,.1,1.4v.156a1.018,1.018,0,0,0,.467.467.264.264,0,0,0,.363-.311,5.836,5.836,0,0,1,.259-3.579c.156-.311.467-.83.726-1.3h0c.052-.052.052-.1.1-.156a.181.181,0,0,1,.052-.1c.1-.207.259-.415.311-.519a332.407,332.407,0,0,1,.1-.1c0-.052.052-.052.052-.1v-.052h0v-.052l.052-.052h0c.052-.1.156-.207.207-.311.156-.207,0-.467-.259-.363-.415.207-.674.415-.726.415a.591.591,0,0,1-.726-.934,4.032,4.032,0,0,1,6.12.985,4.747,4.747,0,0,1,.882,2.645c.052,1.037-.363,1.815-1.141,3.164Z" transform="translate(-68.629 -193.622)" fill="#fff"/><path d="M90.014,201.6c-.1.259-.207.519-.363.83-.311.726-.622,1.556-.778,1.867a5.813,5.813,0,0,1-.674,1.089,2.883,2.883,0,0,0-.467.882,3.563,3.563,0,0,0-.1,1.971c-.363-.052-.934-.311-1.037-.622-.052-.259.1-.467.519-1.193.1-.156.156-.311.259-.467a12.707,12.707,0,0,0,1.245-2.853c.259-.726.363-1.037.726-1.3C89.6,201.756,89.807,201.652,90.014,201.6Z" transform="translate(-76.533 -196.414)" fill="#fff"/><path d="M90.135,249.16a13.805,13.805,0,0,1-1.193,1.971,8.608,8.608,0,0,1-.571-3.579v-.1a2.06,2.06,0,0,1,.363-1.037c.1-.207.467-.311.882-.311a1.7,1.7,0,0,1,.882.207h0a.66.66,0,0,1,.363.674A6.291,6.291,0,0,1,90.135,249.16Z" transform="translate(-77.38 -217.834)" fill="#fff"/><path d="M102.919,233.315c.052,0,.052.052.052.1a2.606,2.606,0,0,1-.415.622,8.928,8.928,0,0,0-.674.934,5.721,5.721,0,0,0-.467,2.593,29.339,29.339,0,0,0,.052,3.319,6.248,6.248,0,0,1-.052,1.712,8.54,8.54,0,0,1-1.5,3.267c-.882,1.348-1.815,2.8-3.319,3.267a1.164,1.164,0,0,1-.519.052c-.363,0-.934,0-2.023.052a26.05,26.05,0,0,0-3.838.259,6.819,6.819,0,0,0-1.815.571,8.235,8.235,0,0,1-1.556.467,14.247,14.247,0,0,1-3.319.207,46.5,46.5,0,0,1-5.6-.207c-2.541-.311-3.838-.415-4.668-.882C71.23,248.563,70.4,246.644,69,243.48h0c0-.052.052-.1.052-.052.052.052.156.052.207.1.052,0,.1.052.207.052h.519a.868.868,0,0,0,.467.571,2.081,2.081,0,0,0,.778.156,4.461,4.461,0,0,0,.83-.052.347.347,0,0,1,.363.207c.259.622.57,1.037,1.037,1.089h.1a.583.583,0,0,0,.415-.156.571.571,0,0,1,.726.156,1.375,1.375,0,0,0,.311.259,4.277,4.277,0,0,0,2.593.726,3.086,3.086,0,0,0,1.3-.207c.415-.207.415-.519.363-.622-.052-.207-.052-.415-.1-.622,0,0,.052-.052.052,0,.052.1.1.311.311.311h.052c.259,0,.674.1.778.363a2.529,2.529,0,0,0,.156.363,1.28,1.28,0,0,0,1.141.571h.052a2.047,2.047,0,0,0,1.712-.726c0-.052.052-.052.052-.1a.555.555,0,0,1,.726-.052.971.971,0,0,0,.726.259h.156a1.112,1.112,0,0,0,.83-.519,1.818,1.818,0,0,0,.311-.726c0-.1.156-.1.207-.052a.94.94,0,0,0,.726.259.468.468,0,0,0,.259-.052,1.556,1.556,0,0,0,1.141-1.3s.052-.052.052,0a1.177,1.177,0,0,0,.985.415h.1a.887.887,0,0,0,.674-.363,1.752,1.752,0,0,0,.311-1.037.329.329,0,0,1,.259-.311,3.47,3.47,0,0,0,1.4-1.089h0a.345.345,0,0,1,.259-.207,2.612,2.612,0,0,0,.778-.259,2.752,2.752,0,0,1,.571-.156c2.541-.363,3.008-.467,3.579-.83a2.12,2.12,0,0,0,.882-2.023,4.1,4.1,0,0,1,.57-2.126c.156-.311.363-.674.571-1.089.363-.674.882-1.608,1.245-2.126a.344.344,0,0,1,.363-.1,11.043,11.043,0,0,1,1.763.934Z" transform="translate(-68.07 -211.221)" fill="#fff"/><path d="M83.923,247.16a16.183,16.183,0,0,0,0,3.579c.052.415.1.882.156,1.348a2.88,2.88,0,0,1-1.089.156,3.6,3.6,0,0,1-2.075-.519l-.052-.052a.72.72,0,0,1-.363-.622.689.689,0,0,1,.156-.363,1.085,1.085,0,0,1,.207-.311,5.051,5.051,0,0,0,.519-.778c.57-.985.778-1.245,1.037-1.66,0-.052.052-.052.052-.1a7.06,7.06,0,0,0,.622-.934c.207-.311.415-.57.519-.778.259-.311.415-.519.519-.622a2.676,2.676,0,0,1-.1.571c0,.259-.052.622-.1,1.089Z" transform="translate(-73.606 -217.545)" fill="#fff"/><path d="M84.187,222.5h0a2.991,2.991,0,0,0-.415.726,4.632,4.632,0,0,0-.467,1.971,2.525,2.525,0,0,1-.052.622,1.842,1.842,0,0,1-.207.467,4.44,4.44,0,0,0-.467,2.386c-.207-.1-.519-.311-.571-.467a.191.191,0,0,0-.052-.156,1.376,1.376,0,0,1,.1-.985,9.15,9.15,0,0,0,.674-1.867.312.312,0,0,1,.052-.207c.1-.467.156-.934.207-1.245a1.943,1.943,0,0,1,.311-1.089c.052-.1.259-.156.519-.156h.363Z" transform="translate(-74.285 -206.474)" fill="#fff"/><path d="M82.06,244.9a4.392,4.392,0,0,0-.207-.882l-.052-.1c0-.052-.052-.052-.052-.1h0a.051.051,0,0,0-.052-.052l-.052-.052h-.052a.051.051,0,0,1-.052-.052h-.052a1.976,1.976,0,0,0-.519-.156h-.156c-.052,0-.1,0-.1.052a249.309,249.309,0,0,1-.1.1h0l-.052.052a.051.051,0,0,1-.052.052h0c-.052.1-.156.207-.207.311-.156.259-.363.519-.519.778-.156.207-.311.467-.467.674-.1.1-.156.259-.259.363l-.052.052c.1,0,.207.052.311.052a3.5,3.5,0,0,0,.726.1,13.7,13.7,0,0,0,1.5.1h.052c.1-.156.259-.363.415-.622a4.785,4.785,0,0,0,.259-.415c-.156-.1-.207-.156-.207-.259Z" transform="translate(-72.884 -216.583)" fill="#fff"/><path d="M78.664,249.763a6.872,6.872,0,0,1-1.141,2.282c-.571.778-.882.985-.934.985-.259-.052-.519-.674-.726-1.348a5.322,5.322,0,0,1-.207-.726A5.649,5.649,0,0,1,75.5,249.4a6.564,6.564,0,0,0,2.9.415h0A.389.389,0,0,1,78.664,249.763Z" transform="translate(-71.199 -219.423)" fill="#fff"/><path d="M77.341,243.378h0c-.259.363-.467.726-.726,1.089-.1.156-.259.363-.363.519-.052.1-.156.207-.207.311-.207-.052-.415-.1-.571-.156l-.467-.156c-.052,0-.052,0-.1-.052,0-.052-.052-.1-.1-.156h0a2.529,2.529,0,0,0,.156-.363l.311-.622a3.012,3.012,0,0,1,.83-.985.051.051,0,0,0,.052-.052.724.724,0,0,1,.467-.156h.207c.052,0,.1,0,.1.052h.052c.052,0,.052.052.1.052-.052-.052.052.1.052.1A1.939,1.939,0,0,1,77.341,243.378Z" transform="translate(-70.862 -216.149)" fill="#fff"/><path d="M73.789,242.092a5.477,5.477,0,0,0-1.037,1.348c-.156.259-.259.571-.415.83,0,.052-.052.052-.052.1-.156-.052-.259-.052-.415-.1s-.259-.1-.415-.156c-.052-.052-.1-.052-.156-.1a5.184,5.184,0,0,0,.415-.726,10.516,10.516,0,0,1,.674-.934c.1-.1.207-.259.311-.311.156-.1.311-.052.467-.052a1.436,1.436,0,0,1,.467.052A.4.4,0,0,0,73.789,242.092Z" transform="translate(-69.177 -215.849)" fill="#fff"/><path d="M73.385,250.9l-.052.052h-.985c-.1,0-.207,0-.259-.1a1.239,1.239,0,0,1-.1-.467,6.716,6.716,0,0,1-.052-2.282,4.486,4.486,0,0,0,1.193.311,5.485,5.485,0,0,0,.156,1.971A1.3,1.3,0,0,0,73.385,250.9Z" transform="translate(-69.447 -218.797)" fill="#fff"/><path d="M70.426,241.442a7.83,7.83,0,0,0-.934,1.348,3.1,3.1,0,0,0-.311.571c-.156-.052-.259-.1-.415-.156-.1-.052-.207-.156-.311-.207,0,0-.1-.052-.1-.1H68.3a.876.876,0,0,0,.1-.259,2.1,2.1,0,0,1,.259-.467c.156-.259.363-.571.519-.83a.625.625,0,0,1,.259-.259c.1-.052.259,0,.311,0a1.085,1.085,0,0,1,.674.363Z" transform="translate(-67.733 -215.406)" fill="#fff"/><path d="M67.255,245.3h0c.156.1.259.207.415.311l.156.156v.052a6.907,6.907,0,0,0-.259,1.763c0,.052-.052.052-.052,0A6.387,6.387,0,0,1,67.255,245.3Z" transform="translate(-67.207 -217.449)" fill="#fff"/><path d="M69.73,247.559c-.052.519-.1,1.037-.1,1.556a4.54,4.54,0,0,0,.1.83h-.311a.19.19,0,0,1-.156-.052l-.207-.207a1.4,1.4,0,0,1-.156-.778A8.65,8.65,0,0,1,69,247.3c.1.052.156.052.259.1a2.411,2.411,0,0,1,.467.156Z" transform="translate(-68.022 -218.412)" fill="#fff"/></g><g transform="translate(-6.084 -5.498)" opacity="0.8"><path d="M66.6,231.632c-2.334,0-4.564-.156-6.431-.311l-.519-.052-.519-.052c-.207-.052-.519-.052-.83-.1a27.27,27.27,0,0,1-8.817-2.282l-.57-.259-.519-.311c-7.053-3.942-9.75-9.958-11.151-13.122-.1-.207-.207-.467-.311-.674a25.019,25.019,0,0,1-1.556-3.994l-.1-.259-.052-.259a22.852,22.852,0,0,1-.83-9.906,21.331,21.331,0,0,1,3.63-8.972l1.037-1.712a4.4,4.4,0,0,0,.467-1.141A22.411,22.411,0,0,1,43,180.131a24.21,24.21,0,0,1,1.193-4.72l.1-.207.1-.207c0-.052.052-.1.052-.207a21.919,21.919,0,0,1,3.734-6.95l.882-1.089.934-.83A20.734,20.734,0,0,1,58.2,161.3a22.677,22.677,0,0,1,5.238-.934h1.348a23.849,23.849,0,0,1,3.319.259,3.829,3.829,0,0,0,2.023-.207,25.566,25.566,0,0,1,5.912-1.608c.156,0,.311-.052.415-.052.311-.052.83-.1,1.452-.156,1.089-.1,2.7-.207,4.512-.207a27.759,27.759,0,0,1,9.18,1.4l.207.1.207.1a23.686,23.686,0,0,1,11.1,8.143l.1.156.311.259a20.956,20.956,0,0,1,4.927,5.549l.415.674.363.674A21.276,21.276,0,0,1,110.84,188.9v.1a21.292,21.292,0,0,1-1.193,4.408,20.95,20.95,0,0,1-.985,4.045,24.735,24.735,0,0,1-3.371,6.587,21.473,21.473,0,0,1-2.853,3.319,2.243,2.243,0,0,0-.674,1.348l-.156.934a24.84,24.84,0,0,1-3.63,8.972l-2.438,3.527A21.522,21.522,0,0,1,84.8,229.557l-1.037.311-1.089.207a23.941,23.941,0,0,1-3.838.311H77.7a4.764,4.764,0,0,0-1.452.259,46.435,46.435,0,0,1-9.647.985Z" transform="translate(-34.169 -158.4)" fill="none" stroke="#707070" stroke-miterlimit="10" stroke-width="0.853"/><path d="M69.314,232.13c-2.23,0-4.408-.156-6.224-.311l-.415-.052-.415-.052c-.259-.052-.571-.052-.934-.1a24.22,24.22,0,0,1-7.883-2.023l-.467-.207-.467-.259c-6.224-3.527-8.558-8.713-9.958-11.825-.1-.207-.207-.519-.311-.726a21.955,21.955,0,0,1-1.4-3.682l-.052-.207-.052-.207a19.833,19.833,0,0,1-.726-8.713,19.061,19.061,0,0,1,3.216-7.831l1.348-2.178a2.812,2.812,0,0,0,.467-1.245,19.694,19.694,0,0,1,3.216-7.52l.1-.156.052-.052c0-.052.052-.052.052-.1l.156-.467a22.4,22.4,0,0,1,1.089-4.46l.052-.207v-.259c0-.052.052-.1.1-.311a18.618,18.618,0,0,1,3.216-6.068l.726-.934.778-.674A17.889,17.889,0,0,1,61.69,167.3a20.073,20.073,0,0,1,4.616-.83h1.141a17.9,17.9,0,0,1,3.319-.1,4.312,4.312,0,0,0,2.541-.259,20.378,20.378,0,0,1,5.757-1.193c.156,0,.311-.052.415-.052.311-.052.778-.1,1.348-.156.985-.1,2.541-.207,4.253-.207a24.846,24.846,0,0,1,8.246,1.245l.207.052.207.052a20.776,20.776,0,0,1,9.854,7.209,3.534,3.534,0,0,0,.259.363l.052.052.363.363.052.052a17.75,17.75,0,0,1,4.357,4.875l.311.571.311.571a18.691,18.691,0,0,1,1.4,11.669v.1a22.819,22.819,0,0,1-1.141,4.2,21.012,21.012,0,0,1-.882,3.89,20.481,20.481,0,0,1-2.956,5.809,18.653,18.653,0,0,1-3.008,3.371,3.081,3.081,0,0,0-.934,1.815,13.15,13.15,0,0,1-.207,1.5,21.233,21.233,0,0,1-3.319,8.039l-1.971,2.9A18.824,18.824,0,0,1,86.688,230l-.882.259-.934.156a18.116,18.116,0,0,1-3.371.311H79.894a5.432,5.432,0,0,0-1.556.259,30.333,30.333,0,0,1-9.024,1.141Z" transform="translate(-36.883 -161.336)" fill="none" stroke="#707070" stroke-miterlimit="10" stroke-width="0.853"/><path d="M71.9,231.925c-2.126,0-4.253-.156-5.964-.259l-.363-.052-.363-.052a6.353,6.353,0,0,0-.985-.1,20.721,20.721,0,0,1-7-1.763l-.363-.156-.363-.207c-5.394-3.06-7.417-7.52-8.713-10.477-.1-.259-.259-.519-.363-.83a27.216,27.216,0,0,1-1.3-3.319l-.052-.156-.052-.156a17.634,17.634,0,0,1-.674-7.52,15.949,15.949,0,0,1,2.853-6.794l.207-.259.207-.259a2.85,2.85,0,0,0,.363-.467l.83-1.452a3.947,3.947,0,0,0,.519-1.556,16.682,16.682,0,0,1,2.853-6.794h0a.393.393,0,0,0,.1-.207l.156-.259a5.381,5.381,0,0,0,.207-.519,6.817,6.817,0,0,1,.259-.778,19.319,19.319,0,0,1,.985-4.149l.052-.156L55,183.07a4.9,4.9,0,0,0,.156-.467,15.744,15.744,0,0,1,2.749-5.186l.622-.726.622-.57a15.806,15.806,0,0,1,6.016-3.423,17.391,17.391,0,0,1,3.994-.674h.882a15.08,15.08,0,0,1,3.423.415,4.017,4.017,0,0,0,2.9-.311,18.228,18.228,0,0,1,5.653-1.712c.156,0,.311-.052.415-.052.259-.052.726-.1,1.3-.156A37.607,37.607,0,0,1,87.671,170a21.939,21.939,0,0,1,7.313,1.089l.156.052.156.052a17.87,17.87,0,0,1,8.609,6.276,5.992,5.992,0,0,0,.674.778l.311.259.1.1a14.91,14.91,0,0,1,3.838,4.2l.259.467.207.467a15.758,15.758,0,0,1,1.141,9.958v.1a17.187,17.187,0,0,1-1.141,3.942v.1a22.088,22.088,0,0,1-.778,3.579,17.453,17.453,0,0,1-2.593,5.083,16.958,16.958,0,0,1-3.371,3.579,2.865,2.865,0,0,0-.726.882,4.12,4.12,0,0,0-.311,1.141,17.079,17.079,0,0,1-.259,2.282A18.787,18.787,0,0,1,98.3,221.5l-1.556,2.282a16.081,16.081,0,0,1-8.4,6.12l-.674.207-.726.1a17.679,17.679,0,0,1-2.853.259H82.8l-.778.052a4.7,4.7,0,0,0-1.66.311,27.9,27.9,0,0,1-8.454,1.089Z" transform="translate(-39.474 -163.984)" fill="none" stroke="#707070" stroke-miterlimit="10" stroke-width="0.8"/><path d="M74.516,231.72c-2.075,0-4.045-.156-5.757-.259H68.5l-.259-.052a7.737,7.737,0,0,0-1.089-.1,18.3,18.3,0,0,1-6.068-1.5l-.311-.156-.259-.156c-4.564-2.593-6.276-6.379-7.52-9.128a6.752,6.752,0,0,0-.415-.882,17.982,17.982,0,0,1-1.141-2.956l-.052-.156-.052-.156c-1.348-4.771-.83-8.091,1.815-11.929l.156-.207.156-.207c.156-.207.363-.415.519-.622.259-.311.467-.622.778-.985a2.94,2.94,0,0,0,.415-.674l.311-.778a6.066,6.066,0,0,0,.259-1.037,13.355,13.355,0,0,1,2.489-6.379h0c.052-.1.156-.207.156-.259l.156-.259.052-.052c.1-.207.259-.571.415-.985.1-.259.207-.726.363-1.089V190.7a15.082,15.082,0,0,1,.882-3.734l.052-.1.052-.1a2.2,2.2,0,0,0,.207-.622,12.419,12.419,0,0,1,2.23-4.253l.467-.571.467-.415a13.514,13.514,0,0,1,8.3-3.371H72.8a11.016,11.016,0,0,1,4.3.882,2.081,2.081,0,0,0,.778.156,1.688,1.688,0,0,0,.726-.207h0a17.031,17.031,0,0,1,6.535-2.438c.156,0,.259-.052.363-.052.259-.052.674-.1,1.193-.156a33.011,33.011,0,0,1,3.682-.207,19.252,19.252,0,0,1,6.379.934l.1.052.1.052a15.02,15.02,0,0,1,7.365,5.394,7.345,7.345,0,0,0,1.037,1.141l.207.207.207.207.156.1a11.2,11.2,0,0,1,3.164,3.475l.207.311.156.363a13.094,13.094,0,0,1,.882,8.194v.1a17.15,17.15,0,0,1-1.037,3.527l-.052.1v.1c0,.1-.052.207-.052.311v.156a14.858,14.858,0,0,1-.674,3.008,16.012,16.012,0,0,1-2.178,4.3,14.916,14.916,0,0,1-3.164,3.319,4.223,4.223,0,0,0-1.245,1.452,3.836,3.836,0,0,0-.467,1.867,12.006,12.006,0,0,1-.259,2.386,17.165,17.165,0,0,1-2.593,6.172l-1.141,1.66a13.492,13.492,0,0,1-7.209,5.446l-.156.052a3.633,3.633,0,0,1-.726.156l-.156.052a12.361,12.361,0,0,1-2.386.207h-1.3c-.363,0-.882.052-1.3.052a6.616,6.616,0,0,0-1.712.311,27.518,27.518,0,0,1-8.039,1.037Z" transform="translate(-42.085 -166.631)" fill="none" stroke="#707070" stroke-miterlimit="10" stroke-width="0.747"/><g transform="translate(11.555 11.773)"><path d="M77.325,231.564c-1.971,0-3.89-.156-5.549-.259h-.311c-.415-.052-.778-.1-1.141-.156a16.175,16.175,0,0,1-5.186-1.245l-.207-.1-.156-.1c-3.734-2.126-5.186-5.29-6.276-7.831a7.349,7.349,0,0,1-.415-.934,15.877,15.877,0,0,1-.985-2.541l-.052-.1v-.1c-1.089-3.942-.726-6.431,1.4-9.543l.1-.156.1-.156c.207-.259.363-.467.519-.674a22.439,22.439,0,0,1,1.919-2.282,1.607,1.607,0,0,0,.311-.674l.052-.934v-.622a10.385,10.385,0,0,1,2.023-5.446,3.177,3.177,0,0,0,.207-.311l.1-.207.1-.156c.1-.207.467-.934.726-1.608.1-.311.259-.83.415-1.245a2.137,2.137,0,0,0,.1-.467,12.377,12.377,0,0,1,.726-3.112l.052-.1.052-.1c.1-.259.156-.467.259-.726a9.577,9.577,0,0,1,1.763-3.371l.311-.363.311-.259a10.327,10.327,0,0,1,6.587-2.645h.519a11.53,11.53,0,0,1,4.149,1.141,1.6,1.6,0,0,0,.674.156,3.5,3.5,0,0,0,.726-.1,16.022,16.022,0,0,0,1.66-.726,14.113,14.113,0,0,1,5.549-2.075c.156,0,.259-.052.363-.052.259-.052.622-.052,1.089-.1a30.414,30.414,0,0,1,3.423-.156,18.213,18.213,0,0,1,5.446.726l.052.052.052.052a12.151,12.151,0,0,1,6.12,4.46,11.324,11.324,0,0,0,1.348,1.5l.156.156.156.156a2.964,2.964,0,0,0,.415.363,9.927,9.927,0,0,1,2.489,2.7l.156.207.1.207a9.887,9.887,0,0,1,.622,6.483v.1a14.271,14.271,0,0,1-.83,2.9h0a2.173,2.173,0,0,0-.207.778,1.764,1.764,0,0,0-.052.519v.156a9.811,9.811,0,0,1-.571,2.438,11.961,11.961,0,0,1-1.815,3.527,9.758,9.758,0,0,1-4.149,3.579,2.185,2.185,0,0,0-.985.83,2.536,2.536,0,0,0-.415,1.193v.415a16.138,16.138,0,0,1-.1,4.149,13.857,13.857,0,0,1-2.23,5.238s-3.527,4.927-6.742,5.912l-.363.1-.363.052a11.339,11.339,0,0,1-1.867.156H88.32c-1.245.052-2.386.1-2.7.156a1.976,1.976,0,0,0-.519.156,26.624,26.624,0,0,1-7.78,1.037Z" transform="translate(-56.449 -181.1)" fill="none" stroke="#707070" stroke-miterlimit="10" stroke-width="0.693"/><path d="M79.809,231.114c-1.867,0-3.734-.1-5.342-.259H74.26l-1.245-.156a12.969,12.969,0,0,1-4.3-1.037l-.1-.052-.1-.052c-2.956-1.66-4.045-4.1-5.083-6.483-.156-.363-.311-.674-.467-1.037a12.48,12.48,0,0,1-.83-2.178v-.1c-.882-3.112-.674-4.72.985-7.105l.052-.052.052-.052a6.292,6.292,0,0,0,.519-.726,22.378,22.378,0,0,1,3.008-3.371h0a.64.64,0,0,0,.207-.415.72.72,0,0,0,0-.467l-.259-.778a4,4,0,0,1-.1-.778h0v-.363a8.072,8.072,0,0,1,1.556-3.993c.1-.156.207-.259.259-.363l.052-.1.052-.1a12.344,12.344,0,0,0,1.089-2.334c.052-.207.259-.83.415-1.3a6.118,6.118,0,0,0,.207-1.037,13.887,13.887,0,0,1,.571-2.541v-.1c.156-.363.207-.622.311-.882a7.925,7.925,0,0,1,1.245-2.489l.156-.207.156-.156a7.718,7.718,0,0,1,4.875-1.919h.363a6.7,6.7,0,0,1,3.112.934l.156.1h0a4.8,4.8,0,0,0,.519.259,2.16,2.16,0,0,0,1.4.156,20.323,20.323,0,0,0,3.423-1.348h0a11.455,11.455,0,0,1,4.46-1.712c.1,0,.207-.052.311-.052.207-.052.571-.052.985-.1.778-.052,1.919-.156,3.164-.156a15.424,15.424,0,0,1,4.512.571h.1a9.737,9.737,0,0,1,4.927,3.579,13.041,13.041,0,0,0,1.712,1.867l.052.052.052.052a9.032,9.032,0,0,0,.726.622,6.5,6.5,0,0,1,1.763,1.919l.052.1.052.1a7.412,7.412,0,0,1,.363,4.771v.1a8.874,8.874,0,0,1-.674,2.282,5.821,5.821,0,0,0-.415,1.348,3.569,3.569,0,0,0-.1.674v.156a8.476,8.476,0,0,1-.415,1.919,10.125,10.125,0,0,1-1.4,2.8,7.217,7.217,0,0,1-3.786,2.956,3.662,3.662,0,0,0-1.815,1.348l-.1.207-.156.156c-.415.467-.259,2.178-.207,3.216a15.067,15.067,0,0,1-.052,3.423,11.835,11.835,0,0,1-1.867,4.3s-2.7,3.89-5.135,4.616l-.156.052-.207.052a6.372,6.372,0,0,1-1.4.1h-.674a6.121,6.121,0,0,0-.83.052h-.1a26.371,26.371,0,0,0-3.164.207,4.306,4.306,0,0,0-1.089.311c-1.245.726-3.267.985-6.172.985Z" transform="translate(-58.933 -183.555)" fill="none" stroke="#707070" stroke-miterlimit="10" stroke-width="0.693"/></g></g></g></g></svg>