<svg xmlns="http://www.w3.org/2000/svg" width="64" height="64" viewBox="0 0 64 64"><g transform="translate(-0.5 -1)"><rect width="39.542" height="35.963" transform="translate(12.708 11.951)" fill="#fff"/><path d="M64.5,33a32,32,0,1,1-32-32A32,32,0,0,1,64.5,33ZM23.432,45.734h-6.21a4.986,4.986,0,0,1-2.343-.251,1.578,1.578,0,0,1-.715-1.234c-.024-.464.3-1.03.943-2.162L30.441,15.058c.652-1.148.983-1.722,1.4-1.934a1.582,1.582,0,0,1,1.431,0c.417.212.747.786,1.4,1.934l3.152,5.5.016.028A10.321,10.321,0,0,1,39.057,23.1a4.668,4.668,0,0,1,0,2.185,10.361,10.361,0,0,1-1.226,2.539L29.776,42.063l-.021.036a10.214,10.214,0,0,1-1.567,2.345,4.688,4.688,0,0,1-1.91,1.109A11.236,11.236,0,0,1,23.432,45.734Zm15.683,0h8.9a4.95,4.95,0,0,0,2.367-.259,1.573,1.573,0,0,0,.715-1.242c.023-.449-.293-.993-.911-2.059l-.064-.111-4.457-7.625-.051-.086c-.626-1.059-.943-1.594-1.349-1.8a1.565,1.565,0,0,0-1.423,0c-.409.212-.739.77-1.391,1.895l-4.442,7.625-.015.026c-.65,1.122-.975,1.683-.952,2.143a1.592,1.592,0,0,0,.715,1.242A5.028,5.028,0,0,0,39.115,45.734Z" fill="#e84142" fill-rule="evenodd"/></g></svg>