<svg xmlns="http://www.w3.org/2000/svg" width="64" height="64" viewBox="0 0 64 64"><g transform="translate(-286 -1171)"><circle cx="32" cy="32" r="32" transform="translate(286 1171)" fill="#2b5eba"/><g transform="translate(302.85 1188.178)"><circle cx="6.332" cy="6.332" r="6.332" transform="translate(17.599 8.483)" fill="#fff"/><circle cx="3.053" cy="3.053" r="3.053" transform="translate(12.876 0)" fill="#fff"/><circle cx="3.053" cy="3.053" r="3.053" transform="translate(12.876 23.538)" fill="#fff"/><path d="M14.531,35.774a1.818,1.818,0,0,0,.572.09,1.91,1.91,0,1,0-1.609-2.948v.015a.836.836,0,0,0-.135.256C11.252,36.9,7.026,34.42,7.026,34.42a4.6,4.6,0,1,0-2.361,8.558A4.573,4.573,0,0,0,8.74,40.5v-.015a4.834,4.834,0,0,0,.331-.812c2.2-5.039,5.46-3.9,5.46-3.9ZM13.448,29.02a2.085,2.085,0,0,0,.346.466,1.9,1.9,0,1,0,.948-3.2h-.015a1.048,1.048,0,0,0-.286.09c-4.121,1.143-5.354-3.61-5.354-3.61a4.591,4.591,0,1,0-3.053,5.49h.015a6.264,6.264,0,0,0,.812-.346C11.959,25.892,13.448,29.02,13.448,29.02Z" transform="translate(0 -16.387)" fill="#fff"/></g></g></svg>