<svg xmlns="http://www.w3.org/2000/svg" width="64" height="64" viewBox="0 0 64 64"><g transform="translate(-93 -78)"><circle cx="32" cy="32" r="32" transform="translate(93 78)" fill="#0b4080"/><g transform="translate(104.933 83.75)"><path d="M1446.552,609.736h37.768v-9.547h-37.768Zm2.571-5.4h1.626v.891h-1.626V607.8h-1.207v-5.718h2.938v.892h-1.73Zm23.92,0h1.731v.891h-1.731v1.626h1.941v.944h-3.147v-5.718h3.095v.892h-1.889Zm-13.062-2.256h3.83v.944H1462.5V607.8h-1.259v-4.774h-1.259Zm15.37,0h3.409v.944c0,.447-2.11,3.206-2.255,3.83h2.361v.629c.113-.18.7-2.325.8-2.717.119-.475.253-.9.389-1.395.066-.244.254-1.291.492-1.291l1.4.006,1.541,5.712h-1.1c-.219,0-.4-1.032-.42-1.259h-1.624l-.317,1.259h-4.773v-1c0-.116,2.069-3.323,2.308-3.777h-2.2Zm-16.524,2.938c.635.053.714.46.783,1.053.027.239,0,.632,0,.889,0,.364.107.5.107.837h-1.1c-.517,0,.272-2.36-.786-2.36h-.578v2.36h-1.206v-5.718h1.417c1.327,0,2.1.109,2.1,1.468v.159C1459.561,604.781,1459.117,604.62,1458.826,605.015Zm-7.4.1v-.734c0-1.428.456-2.361,1.887-2.361h.053a1.768,1.768,0,0,1,1.888,1.941v1.627c0,1.141-.43,2.255-1.521,2.255H1453C1451.709,607.848,1451.431,606.457,1451.431,605.12Zm13.009,2.675-1.072-.007,1.6-5.711h1.416c.214,0,.419,1.084.493,1.343.126.443.316,1.037.395,1.441.138.709.777,2.343.79,2.933l-1.244,0-.276-1.257h-1.678C1464.839,606.779,1464.657,607.8,1464.439,607.8Zm4.038-5.718h1.26v4.668h1.731v1.05h-2.99Z" transform="translate(-1445.369 -588.267)" fill="#fefefe" fill-rule="evenodd"/><path d="M1489.949,777.713l.008-24.135-16.115.007Z" transform="translate(-1470.624 -730.219)" fill="#2861a6" fill-rule="evenodd"/><path d="M1708.99,777.707l16.1-24.129h-16.1Z" transform="translate(-1688.24 -730.219)" fill="#e1251b" fill-rule="evenodd"/><path d="M1431.777,597.282l19.881,29.742h.1l19.985-29.8v-11.8h-39.971Zm1.1-10.754h37.769v9.547h-37.769ZM1451.69,625.1l-18.833-28.22,37.737-.015Z" transform="translate(-1431.695 -574.605)" fill="#2861a6" fill-rule="evenodd"/><path d="M1450.789,626.092h-.192l-.024-.036-19.9-29.763V584.332h40.134V596.24l-.013.021Zm-.1-.163h.017l19.948-29.738v-11.7h-39.808v11.749Zm-.011-1.7-18.985-28.448h.152l37.89-.014-.085.126Zm-18.68-28.285,18.68,27.992,18.751-28.006Zm37.719-.8H1431.78v-9.71h37.932Zm-37.769-.164h37.605V585.6h-37.605Z" transform="translate(-1430.678 -573.592)" fill="#fefefe"/><path d="M1465.1,767.033,1484,738.8l-37.737.015Zm-16.777-27.126,16.115-.007-.009,24.136Zm17.531-.007h16.1l-16.1,24.129Z" transform="translate(-1445.105 -716.542)" fill="#fefefe" fill-rule="evenodd"/><path d="M1836.709,625.518c-.238,0-.425,1.047-.492,1.292-.135.5-.271.92-.389,1.394-.1.392-.684,2.538-.8,2.717v-.63h-2.361c.145-.622,2.256-3.383,2.256-3.829v-.945h-3.41v.945h2.2c-.239.453-2.308,3.66-2.308,3.777v1h4.773l.317-1.259h1.624c.019.228.2,1.26.42,1.26h1.1l-1.541-5.712Zm.59,1.21.609,2.359h-1.188Z" transform="translate(-1801.535 -611.707)" fill="#2861a6" fill-rule="evenodd"/><path d="M1576.676,628.462c.289-.4.735-.234.735-1.312v-.158c0-1.359-.77-1.468-2.1-1.468h-1.417v5.718h1.206v-2.361h.578c1.058,0,.269,2.361.787,2.361h1.1c0-.337-.106-.474-.106-.838,0-.256.024-.65,0-.889-.069-.593-.148-1-.783-1.052m-1.522-1.994h.577c.357,0,.525.267.525.63v.052c0,.6-.244.84-.839.84h-.263Z" transform="translate(-1563.217 -611.713)" fill="#2861a6" fill-rule="evenodd"/><path d="M1511.988,627.909c0,1.337.278,2.727,1.573,2.727h.734c1.092,0,1.522-1.115,1.522-2.255v-1.626a1.767,1.767,0,0,0-1.889-1.941h-.052c-1.432,0-1.888.934-1.888,2.36Zm1.206-.682c0-.645.059-1.521.681-1.521h.105c.576,0,.63.815.63,1.416v1.469c0,.5-.144,1.154-.63,1.154h-.157c-.634,0-.63-1.158-.63-1.835Z" transform="translate(-1505.926 -611.056)" fill="#2861a6" fill-rule="evenodd"/><path d="M1673.168,631.239c.219,0,.4-1.016.42-1.259h1.678l.276,1.257,1.244,0c-.012-.59-.652-2.224-.79-2.933-.079-.4-.269-1-.4-1.442-.073-.259-.278-1.343-.493-1.343h-1.415l-1.6,5.711Zm1.279-4.52.586,2.363-1.213,0Z" transform="translate(-1654.097 -611.71)" fill="#2861a6" fill-rule="evenodd"/><path d="M1786.88,626.413h1.888v-.892h-3.1v5.718h3.148v-.944h-1.941v-1.627h1.731v-.891h-1.731Z" transform="translate(-1759.206 -611.71)" fill="#2861a6" fill-rule="evenodd"/><path d="M1466.043,626.413h1.731v-.892h-2.938v5.718h1.207v-2.57h1.626v-.891h-1.626Z" transform="translate(-1462.29 -611.71)" fill="#2861a6" fill-rule="evenodd"/><path d="M1626.662,626.468h1.259v4.774h1.259v-4.774h1.312v-.944h-3.83Z" transform="translate(-1612.051 -611.713)" fill="#2861a6" fill-rule="evenodd"/><path d="M1740.643,631.242h2.99v-1.05H1741.9v-4.668h-1.26Z" transform="translate(-1717.534 -611.713)" fill="#2861a6" fill-rule="evenodd"/><path d="M1528.17,638.3v.682c0,.677,0,1.835.63,1.835h.157c.485,0,.629-.652.629-1.154V638.2c0-.6-.053-1.416-.629-1.416h-.106c-.622,0-.681.875-.681,1.521" transform="translate(-1520.901 -622.13)" fill="#fefefe" fill-rule="evenodd"/><path d="M1590.783,639.7h.263c.595,0,.839-.244.839-.839v-.053c0-.362-.168-.63-.525-.63h-.577Z" transform="translate(-1578.846 -623.428)" fill="#fefefe" fill-rule="evenodd"/><path d="M1695.2,643.946l1.213,0-.586-2.363Z" transform="translate(-1675.481 -626.576)" fill="#fefefe" fill-rule="evenodd"/><path d="M1902.63,644.109h1.188l-.609-2.359Z" transform="translate(-1867.444 -626.728)" fill="#fefefe" fill-rule="evenodd"/><path d="M1650.15,440.272l.941,2.891,3.062-.006-2.481,1.781.952,2.887-2.474-1.79-2.474,1.79.952-2.887-2.481-1.781,3.062.006Z" transform="translate(-1630.083 -440.272)" fill="#ba8843" fill-rule="evenodd"/></g></g></svg>