<svg xmlns="http://www.w3.org/2000/svg" width="64" height="64" viewBox="0 0 64 64"><circle cx="32" cy="32" r="32" fill="#0f1519"/><g transform="translate(14.482 16.766)"><g transform="translate(0 0)"><path d="M565.3,0q12.564,0,25.13,0,0,4.061,0,8.121-12.565,0-25.13,0Q565.293,4.062,565.3,0Z" transform="translate(-555.392 0)" fill="#02a6c2"/><path d="M.011,637.51q4.054-.021,8.108,0,.021,4.054,0,8.108-4.055.021-8.108,0Q-.011,641.565.011,637.51Z" transform="translate(0 -626.332)" fill="#5fcade"/><path d="M565.239,637.56q9.069-.019,18.136,0,.019,4.054,0,8.108-9.068.019-18.136,0Q565.22,641.614,565.239,637.56Z" transform="translate(-555.328 -626.381)" fill="#5fcade"/><path d="M565.08,1275q4.047-.044,8.092,0,.042,4.044,0,8.092-4.047.04-8.092,0Q565.039,1279.044,565.08,1275Z" transform="translate(-555.161 -1252.64)" fill="#abebf4"/></g></g></svg>