<svg xmlns="http://www.w3.org/2000/svg" xmlns:xlink="http://www.w3.org/1999/xlink" width="64" height="64" viewBox="0 0 64 64"><defs><linearGradient id="a" x1="0.5" x2="0.5" y2="1" gradientUnits="objectBoundingBox"><stop offset="0" stop-color="#b5f1fb"/><stop offset="1" stop-color="#14b5bb"/></linearGradient></defs><circle cx="32" cy="32" r="32" fill="#fff"/><g transform="translate(18.733 14.8)"><path d="M128.9,95.533A8.533,8.533,0,1,1,137.433,87a8.507,8.507,0,0,1-8.533,8.533m0-21.333A12.8,12.8,0,1,1,116.1,87,12.8,12.8,0,0,1,128.9,74.2Zm12.2,26.267a2.055,2.055,0,0,1,0,3L132.567,112a2.121,2.121,0,0,1-3-3l8.533-8.533A2.056,2.056,0,0,1,141.1,100.467Zm4.933-24.133A2.133,2.133,0,1,1,143.9,74.2,2.148,2.148,0,0,1,146.033,76.333Z" transform="translate(-116.1 -74.2)" fill-rule="evenodd" fill="url(#a)"/></g></svg>