<svg xmlns="http://www.w3.org/2000/svg" width="64" height="64" viewBox="0 0 64 64"><g transform="translate(-286 -3421)"><circle cx="32" cy="32" r="32" transform="translate(286 3421)" fill="#f0080d"/><g transform="translate(-660.564 3197.849)"><g transform="translate(956.579 231.963)"><g transform="translate(8.922 21.645)"><g transform="translate(0 0)"><path d="M1347.629,517.649a2.572,2.572,0,0,1-.742.757,12.779,12.779,0,0,1-4.863,1.835,5.976,5.976,0,0,1-2.515.069c-.214-.107-.245-.191-.168-.466a3.719,3.719,0,0,1,1.491-1.789c.413-.3,2.087-1.315,2.867-1.743a10.13,10.13,0,0,1,3.028-1.223,1.555,1.555,0,0,1,.573,0c.138.054.29.459.352.948A12.472,12.472,0,0,1,1347.629,517.649Z" transform="translate(-1321.136 -515.062)"/><path d="M1110.174,521.139a.832.832,0,0,1-.535.229,8.659,8.659,0,0,1-1.506-.038,15.827,15.827,0,0,1-4.6-1.323,5.791,5.791,0,0,1-1.583-1.063l-.214-.222-.023-.291a7.992,7.992,0,0,1,.031-1.583,2.072,2.072,0,0,1,.237-.673c.061-.076.061-.076.336-.076a3.311,3.311,0,0,1,1.078.2,21.057,21.057,0,0,1,4.045,2.018,7.016,7.016,0,0,1,2.34,1.82A1.529,1.529,0,0,1,1110.174,521.139Z" transform="translate(-1101.694 -516.021)"/><path d="M1219.363,634.479c0,.023-.092.39-.206.826s-.206.788-.206.8a1.313,1.313,0,0,1-.245.008h-.245l-.336.8c-.183.436-.352.841-.375.9l-.046.107-.161-.26-.16-.26v-2.118l-.061.015c-.13.031-1.055.153-1.46.191a20.839,20.839,0,0,1-5.023-.107c-.268-.038-.5-.069-.5-.061s0,.5.015,1.1l.023,1.086-.13.2c-.069.107-.137.2-.137.206-.023.023-.1-.1-.275-.451a5.156,5.156,0,0,1-.428-1.162l-.054-.222-.237.015-.237.023-.061-.283c-.031-.153-.069-.39-.084-.52l-.023-.245-.2-.176c-.115-.1-.229-.2-.252-.214a.167.167,0,0,1-.053-.13v-.092l.956.008.956.008.031.1.031.1.329.015c.184.008.765.023,1.285.038l.956.023.245-.382.252-.382h.321l-.008-.8-.007-.8-.421-.183a4.1,4.1,0,0,1-2.447-2.1,2.937,2.937,0,0,1-.076-.994,3.039,3.039,0,0,1,.046-.994,1.112,1.112,0,0,1,.788-.78,18.243,18.243,0,0,1,2.278-.038l2.126.008.237.115a1.33,1.33,0,0,1,.573.451,1.263,1.263,0,0,1,.237.9,6.738,6.738,0,0,1-.115,1.468,3.172,3.172,0,0,1-.443.879,4.074,4.074,0,0,1-1.713,1.2l-.183.069.008.8.008.8.168.015.168.015.229.344.222.344h1.025c.566,0,1.063.008,1.109.015.077.015.092.008.168-.122l.092-.138h.879A2.768,2.768,0,0,1,1219.363,634.479Z" transform="translate(-1200.057 -618.719)"/><path d="M1256.054,742.05c-.145.084-.245.122-.267.107s-.13-.1-.245-.184l-.206-.168-.214.229c-.466.5-.482.528-.619.535-.214.023-.26-.015-.52-.405-.138-.2-.245-.367-.245-.367s-.1-.015-.214-.023l-.214-.023-.1.206-.1.206-.176-.054a3.711,3.711,0,0,1-.405-.161l-.229-.115V741.4l2.034.008,2.034.008.008.206C1256.383,741.867,1256.391,741.859,1256.054,742.05Z" transform="translate(-1240.785 -724.095)"/></g></g><path d="M1037.288,583.662c-.008-.031-.008-.084-.015-.168a16.259,16.259,0,0,0-11.935,3.693S1023.77,580,1016.43,580s-10.062,7.187-10.062,7.187a13.214,13.214,0,0,0-11.606-3.815c0,.046-.008.1-.008.145a6.659,6.659,0,0,0,.153,2.332c.573,2.179,2.34,4.58,5.107,6.935,4.534,3.853,10.681,6.636,15.337,6.958,4.855.329,12.019-2.508,16.79-6.652a24.035,24.035,0,0,0,2.11-2.118,11.617,11.617,0,0,0,1.124-1.5c-.015,0,0-.015.031-.031s.046-.038.031-.054.008-.031.03-.038.038-.023.031-.038,0-.031.031-.038a.034.034,0,0,0,.023-.046c-.008-.015,0-.031.015-.031s.031-.023.031-.038.015-.038.031-.038a.033.033,0,0,0,.031-.031.784.784,0,0,1,.1-.176c.115-.176.573-.994.635-1.132a10.55,10.55,0,0,0,.841-2.745A9.3,9.3,0,0,0,1037.288,583.662Zm-19.114,9.328c-.145.084-.245.122-.268.107s-.13-.1-.245-.184l-.206-.168-.214.229c-.467.5-.482.528-.619.535-.214.023-.26-.015-.52-.405-.138-.2-.245-.367-.245-.367s-.1-.015-.214-.023l-.214-.023-.1.206-.1.206-.176-.053a3.748,3.748,0,0,1-.405-.161l-.229-.115v-.436l2.034.008,2.034.008.008.206C1018.5,592.807,1018.51,592.8,1018.173,592.99Zm3.823-1.376c-.115.436-.206.788-.206.8a1.307,1.307,0,0,1-.245.008h-.245l-.329.8c-.183.436-.352.841-.375.9l-.046.107-.161-.26-.16-.26V591.6l-.061.015c-.13.031-1.055.153-1.46.191a20.843,20.843,0,0,1-5.023-.107c-.268-.038-.5-.069-.5-.061s0,.5.015,1.1l.023,1.086-.13.2c-.069.107-.138.2-.138.206-.023.023-.1-.1-.275-.451a5.161,5.161,0,0,1-.428-1.162l-.054-.222-.237.015-.237.023-.061-.283c-.03-.153-.069-.39-.084-.52l-.023-.245-.2-.176c-.115-.1-.229-.2-.252-.214a.168.168,0,0,1-.054-.13v-.092l.956.008.956.008.031.1.03.1.329.015c.183.008.765.023,1.285.038l.956.023.245-.382.252-.382h.321l-.008-.8-.008-.8-.42-.183a4.1,4.1,0,0,1-2.447-2.1,2.924,2.924,0,0,1-.077-.994,3.029,3.029,0,0,1,.046-.994,1.111,1.111,0,0,1,.787-.78,18.244,18.244,0,0,1,2.278-.038l2.126.008.237.115a1.33,1.33,0,0,1,.573.451,1.263,1.263,0,0,1,.237.9,6.736,6.736,0,0,1-.115,1.468,3.173,3.173,0,0,1-.444.879,4.073,4.073,0,0,1-1.713,1.2l-.183.069.008.8.008.8.168.015.168.015.229.344.222.344h1.025c.566,0,1.063.008,1.109.015.076.015.092.008.168-.122l.092-.138h.879a3.708,3.708,0,0,1,.879.031A5.281,5.281,0,0,0,1022,591.614Z" transform="translate(-993.982 -553.39)" fill="#fff"/><path d="M985.765,624.1a7.08,7.08,0,0,0-.765.145" transform="translate(-985 -594.118)" fill="none"/><path d="M1551.88,625.8s-.245-.053-.681-.1" transform="translate(-1507.91 -595.596)" fill="none"/><path d="M1037.48,261.455c-.015-.344-.046-.826-.069-1.063a22.431,22.431,0,0,0-2.9-9.312,2.629,2.629,0,0,1-.168-.321.418.418,0,0,1-.031-.061h0c.237-.711,1.208-3.685,1.98-7.088,1.047-4.618,1.713-10.016-.321-11.637,0,0-3.517-.26-8.227,4.358a31.6,31.6,0,0,0-3.486,4.136l-.329-.107a23.865,23.865,0,0,0-5.841-1.132c-.6-.046-2.821-.046-3.548,0a20.633,20.633,0,0,0-5.788,1.139c-.077.031-.145.054-.214.076a31.12,31.12,0,0,0-3.6-4.106c-4.9-4.641-8.548-4.373-8.548-4.373-2.156,1.674-1.422,7.317-.306,12.088.734,3.158,1.636,5.933,1.973,6.935a1.7,1.7,0,0,1-.084.168A27.723,27.723,0,0,0,995,261.944a13.205,13.205,0,0,1,11.614,3.815s2.722-7.187,10.062-7.187,8.907,7.187,8.907,7.187a16.3,16.3,0,0,1,11.935-3.693C1037.51,261.914,1037.495,261.684,1037.48,261.455ZM999.5,248.106s-2.859-7.149-2.126-11.232h0a3.939,3.939,0,0,1,.711-1.751s3.242.321,8.471,6.132a14.947,14.947,0,0,0-2.324,1.506.027.027,0,0,1-.015.008,18.38,18.38,0,0,0-4.717,5.337Zm12.134,10.62a.83.83,0,0,1-.535.229,8.643,8.643,0,0,1-1.506-.038,15.83,15.83,0,0,1-4.6-1.323,5.79,5.79,0,0,1-1.583-1.063l-.214-.222-.023-.291a7.988,7.988,0,0,1,.031-1.583,2.079,2.079,0,0,1,.237-.673c.061-.076.061-.076.336-.076a3.309,3.309,0,0,1,1.078.2,21.054,21.054,0,0,1,4.045,2.018,7.013,7.013,0,0,1,2.34,1.82A1.527,1.527,0,0,1,1011.637,258.725Zm18.014-2.531a2.574,2.574,0,0,1-.742.757,12.783,12.783,0,0,1-4.863,1.835,5.979,5.979,0,0,1-2.516.069c-.214-.107-.245-.191-.168-.466a3.719,3.719,0,0,1,1.491-1.789c.413-.3,2.087-1.315,2.867-1.743a10.132,10.132,0,0,1,3.028-1.223,1.555,1.555,0,0,1,.573,0c.138.054.291.459.352.948A12.517,12.517,0,0,1,1029.651,256.195Zm-1.269-13.434-.015-.008a14.282,14.282,0,0,0-2.248-1.506c5.054-5.811,8.181-6.132,8.181-6.132a4.149,4.149,0,0,1,.688,1.751h0c.711,4.083-2.049,11.239-2.049,11.239a18.211,18.211,0,0,0-4.557-5.344Z" transform="translate(-994.235 -231.963)" fill="#ffa409"/><path d="M1377.138,343.2c-.015.015-.023.038-.038.053" transform="translate(-1347.121 -334.695)" fill="none"/><path d="M1508.454,476.9c-.038.107-.053.161-.053.161" transform="translate(-1468.382 -458.173)" fill="none"/><g transform="translate(31.883 3.153)"><g transform="translate(0 0)"><path d="M1410.877,274.951c-.6-.076-3.418-.092-6.614,5.895l-.015-.008a14.274,14.274,0,0,0-2.248-1.506c5.054-5.811,8.181-6.132,8.181-6.132A4.056,4.056,0,0,1,1410.877,274.951Z" transform="translate(-1402 -273.2)" fill="#ff9300"/><path d="M1436.165,307.156a18.137,18.137,0,0,0-4.564-5.344c3.2-5.987,6.01-5.971,6.614-5.895h0C1438.925,300.007,1436.165,307.156,1436.165,307.156Z" transform="translate(-1429.337 -294.166)" fill="#ff8300"/><path d="M1518.215,296.123l-.115-.023Z" transform="translate(-1509.223 -294.349)" fill="#ff8300"/></g></g><path d="M1172.237,343.221c-.077-.107-.161-.214-.237-.321" transform="translate(-1157.703 -334.418)" fill="none"/><path d="M1035,480.8c.084.26.138.4.138.4" transform="translate(-1031.177 -461.775)" fill="none"/><g transform="translate(3.02 3.153)"><g transform="translate(0 0)"><g transform="translate(0.115)"><path d="M1035.19,279.332a14.942,14.942,0,0,0-2.324,1.506.027.027,0,0,1-.015.008c-3.311-5.994-6.224-5.971-6.851-5.895a3.939,3.939,0,0,1,.711-1.751C1026.719,273.2,1029.961,273.521,1035.19,279.332Z" transform="translate(-1026 -273.2)" fill="#ff9300"/></g><path d="M1031.5,301.811a18.324,18.324,0,0,0-4.725,5.344s-2.859-7.149-2.125-11.239h0C1025.264,295.84,1028.185,295.825,1031.5,301.811Z" transform="translate(-1024.522 -294.166)" fill="#ff8300"/><path d="M1024.622,296.1l-.122.023Z" transform="translate(-1024.5 -294.349)" fill="#ff8300"/></g></g><path d="M1363.921,448.673s-2.447.153-2.141-1.759a2.525,2.525,0,0,1,2.752-2.064c.535.076,2.676.841,2.294,2.447s-.918,1.3-1.224,1.376A12.122,12.122,0,0,1,1363.921,448.673Z" transform="translate(-1332.948 -428.562)" fill="#fff"/><path d="M1127.921,448.673s-2.447.153-2.141-1.759a2.526,2.526,0,0,1,2.752-2.064c.535.076,2.676.841,2.294,2.447s-.917,1.3-1.223,1.376A12.122,12.122,0,0,1,1127.921,448.673Z" transform="translate(-1114.992 -428.562)" fill="#fff"/></g></g></g></svg>