<svg xmlns="http://www.w3.org/2000/svg" xmlns:xlink="http://www.w3.org/1999/xlink" width="64" height="64" viewBox="0 0 64 64"><defs><linearGradient id="a" x1="0.5" x2="0.5" y2="1" gradientUnits="objectBoundingBox"><stop offset="0" stop-color="#7d00ff"/><stop offset="1" stop-color="#bd30ff"/></linearGradient></defs><circle cx="32" cy="32" r="32" fill="url(#a)"/><path d="M35.6,1.123H24.019v3.86H35.6ZM16.3,4.982H12.44v3.86H16.3Zm-3.86,19.3H16.3V12.7H12.44Zm7.719-19.3v3.86h3.86V4.982Zm0,19.3h3.86V12.7h-3.86Zm0-23.158H16.3v3.86h3.86Zm-19.3,0v3.86H12.44V1.123ZM35.6,12.7V8.842H24.019V12.7ZM16.3,8.842V12.7h3.857V8.842Zm-15.441,0V12.7H12.442V8.842Z" transform="translate(13.771 19.298)" fill="#fcf9ff"/></svg>