<svg xmlns="http://www.w3.org/2000/svg" width="64" height="64" viewBox="0 0 64 64"><g transform="translate(-286 -137)"><circle cx="32" cy="32" r="32" transform="translate(286 137)" fill="#cc2e2e"/><path d="M10.256-29.091V0L5.881.156V-29.091Zm7.4,16.08h4.418a16.52,16.52,0,0,1-1.491,7.436A10.217,10.217,0,0,1,16.42-1.1,12.531,12.531,0,0,1,10.185.4Q8.963.4,7.8.334T5.881.156l4.3-3.622a7.869,7.869,0,0,0,3.835-.923,6.319,6.319,0,0,0,2.663-3.018A13.47,13.47,0,0,0,17.656-13.011ZM15.824-26.847v3.764L2.017-17.472v-3.75Zm0,6.605v3.736L2.017-10.895v-3.75Z" transform="translate(305.955 183.347)" fill="#fff"/></g></svg>