<svg xmlns="http://www.w3.org/2000/svg" width="64" height="64" viewBox="0 0 64 64"><circle cx="32" cy="32" r="32" fill="#3e73c4"/><g transform="translate(10.001 11)"><path d="M28.188,27.592c0-4.248-2.56-5.7-7.68-6.312-3.656-.486-4.386-1.456-4.386-3.156s1.22-2.792,3.656-2.792c2.194,0,3.414.728,4.022,2.55a.916.916,0,0,0,.854.606H26.6a.832.832,0,0,0,.854-.85v-.12a6.08,6.08,0,0,0-5.486-4.978V9.628c0-.486-.366-.85-.974-.972h-1.83c-.486,0-.852.364-.974.972V12.42c-3.658.484-5.972,2.912-5.972,5.948,0,4,2.436,5.582,7.556,6.19,3.414.606,4.51,1.336,4.51,3.278s-1.706,3.276-4.022,3.276c-3.17,0-4.266-1.334-4.632-3.156a.89.89,0,0,0-.854-.728H12.708a.832.832,0,0,0-.852.85v.12c.486,3.036,2.438,5.22,6.46,5.828V36.94c0,.484.366.85.974.97h1.83c.486,0,.852-.364.974-.97V34.024c3.658-.606,6.094-3.156,6.094-6.434Z" transform="translate(1.855 -2.344)" fill="#fff"/><path d="M20.783,43.494a18.141,18.141,0,0,1,0-34.11,1.215,1.215,0,0,0,.73-1.214V6.47a.922.922,0,0,0-.73-.97.743.743,0,0,0-.488.12,21.82,21.82,0,0,0,0,41.638.741.741,0,0,0,1.1-.486c.122-.12.122-.244.122-.486v-1.7a1.615,1.615,0,0,0-.73-1.092ZM33.7,5.622a.74.74,0,0,0-1.1.484c-.122.122-.122.244-.122.486v1.7a1.608,1.608,0,0,0,.73,1.214,18.141,18.141,0,0,1,0,34.11,1.215,1.215,0,0,0-.73,1.214v1.7a.922.922,0,0,0,.73.97.743.743,0,0,0,.488-.12,21.79,21.79,0,0,0,14.26-27.434A22.05,22.05,0,0,0,33.7,5.622Z" transform="translate(-5.001 -5.5)" fill="#fff"/></g></svg>