<svg xmlns="http://www.w3.org/2000/svg" width="64" height="64" viewBox="0 0 64 64"><g transform="translate(-93 -78)"><circle cx="32" cy="32" r="32" transform="translate(93 78)" fill="#efe014"/><g transform="translate(105.474 89.248)"><path d="M2.794.035V9.654H6.426L0,24.371,19.526,43.865,39.051,24.371,32.625,9.654h3.631V.035" transform="translate(0 -0.035)" fill="#ed2127" fill-rule="evenodd"/><path d="M14.194,11.608H44V5.644h-29.8" transform="translate(-9.57 -3.817)" fill="#fbee23" fill-rule="evenodd"/><path d="M24.031,29.562h-11.1L6.682,43.868c1.5,1.5,15.2,15.178,17.349,17.322Z" transform="translate(-4.505 -19.943)" fill-rule="evenodd"/><path d="M71.037,29.562h-11.1V61.19L77.284,43.868,71.037,29.562" transform="translate(-40.41 -19.943)" fill="#fbee23" fill-rule="evenodd"/><path d="M22.1,9.848l.651,3H23.6l1-4.243h-.773l-.645,3.263-.646-3.263h-.815l-.655,3.263-.657-3.263h-.786l1,4.243h.88m5.959,0h.814L26.914,9.144h-.807L24.741,12.85h.813l.28-.863h1.352l.279.863Zm-1.422-1.507L26.511,9.9l.467,1.442h-.935Zm2.249-2.2v.644h1.016V12.85h.78V9.788h1l.154-.644m.661,0V12.85h.753V11.243h1.126V10.6H32.651V9.788h1.305l.154-.644M36.318,9.1a1.7,1.7,0,0,0-1.794,1.917,1.8,1.8,0,1,0,3.589,0A1.706,1.706,0,0,0,36.317,9.1m0,3.26c-.741,0-.924-.6-.924-1.343s.183-1.343.924-1.343.923.6.923,1.343-.184,1.343-.924,1.343m4.513-1.073v-.04a.956.956,0,0,0,.874-1.027c0-.792-.6-1.073-1.3-1.073H39V12.85h.767V11.3h.065C40.089,11.3,41,12.85,41,12.85h.968l-1.135-1.566Zm-.477-.531h-.585V9.788h.585c.212,0,.532.033.532.452a.485.485,0,0,1-.532.513Zm3.729-1.609H42.763V12.85h1.319c1.183,0,1.676-.791,1.676-1.843s-.493-1.863-1.676-1.863m.026,3.062H43.52V9.788h.587c.506,0,.8.489.8,1.218s-.291,1.2-.8,1.2M26.474,18.352a1.369,1.369,0,0,0,.023.248,1.7,1.7,0,0,1,.023.318c0,.565-.13.83-.22.83a.175.175,0,0,1-.035,0,.659.659,0,0,1-.043-.059.98.98,0,0,0-.927-.45.852.852,0,0,0-.875.923,6.4,6.4,0,0,0,.369,1.991,3.038,3.038,0,0,1,.179.746.473.473,0,0,1-.108.309A.515.515,0,0,1,24.44,23a1.346,1.346,0,0,0-1.065-.458.8.8,0,0,0-.85.9,2.481,2.481,0,0,0,.243.951,2.648,2.648,0,0,1,.258,1.055c0,.033,0,.332-.1.332-.385,0-.531-.238-.753-.658-.194-.367-.435-.822-.994-.822-.917,0-.917,1.368-.917,1.882,0,2.908,2.763,3.961,4.622,3.961a4.611,4.611,0,0,0,.759-.059,4.739,4.739,0,0,1,.785-.059,3.941,3.941,0,0,1,2.5.651A2.853,2.853,0,0,0,27.9,30.5a2.24,2.24,0,0,0-1.67.508.992.992,0,0,1-.4.232l-1.379.394,1.4.313a2.2,2.2,0,0,1,1.25,1.072c.365.516.778,1.1,1.538,1.1a1.258,1.258,0,0,0,.2-.016,7.376,7.376,0,0,0-.121,1.336,1.845,1.845,0,0,0,.43,1.358l.116.155c.109.158.224.313.337.461a2.828,2.828,0,0,1,.778,1.711c0,.365.018.659.035.943s.033.553.033.89a1.517,1.517,0,0,0,1.073,1.488c.038.018.083.038.119.055.072.345.413.458.626.527l.074.024.078.031a1.182,1.182,0,0,0,.524.111,1.046,1.046,0,0,0,1.068-.948l.036-.016A1.35,1.35,0,0,0,35,40.912a6.4,6.4,0,0,0-.111-1.14,3.981,3.981,0,0,1-.072-.631,1.8,1.8,0,0,1,.555-1.257,3.774,3.774,0,0,0,.973-2.714,9.812,9.812,0,0,0-.07-1.248,1.253,1.253,0,0,0,.274.034,1.634,1.634,0,0,0,1.595-1.093,1.518,1.518,0,0,1,1.375-.873,2.828,2.828,0,0,0-2.426-1.239,2.933,2.933,0,0,0-1.222.24,1.155,1.155,0,0,1,.575-.685,4.115,4.115,0,0,1,1.792-.272,7.985,7.985,0,0,1,.912.055,7.364,7.364,0,0,0,.829.052c2.518,0,3.179-.8,3.88-1.64a3.606,3.606,0,0,0,.989-2.486c0-.723-.209-1.494-.8-1.494-.508,0-.726.474-.9.855-.21.454-.333.645-.55.645a.574.574,0,0,1-.513-.619,2.788,2.788,0,0,1,.414-1.1,3.107,3.107,0,0,0,.471-1.349.809.809,0,0,0-.3-.639.91.91,0,0,0-.579-.205c-.448,0-.8.371-1.149.73-.22.229-.52.541-.7.552a.441.441,0,0,1-.093-.259,5.006,5.006,0,0,1,.276-1.223,4.972,4.972,0,0,0,.283-1.3c0-.788-.459-1.139-.915-1.139a1.458,1.458,0,0,0-.9.351.81.81,0,0,1-.394.194A.05.05,0,0,1,38.491,20v-.377c0-.114,0-.225,0-.331,0-.835-.035-1.4-.358-1.727a.831.831,0,0,0-.612-.238c-1.145,0-1.659,1.509-1.659,3,0,.694.029,1.306.057,1.9.027.565.051,1.1.051,1.675a8.745,8.745,0,0,1-.528,3.118c-.078-.661-.2-1.658-.971-1.658-.639,0-.789.815-.961,1.76-.156.848-.37,2.009-.9,2.009-.443,0-.571-.808-.694-1.863-.12-1.035-.256-2.208-1.179-2.208-1,0-1.069,1.3-1.111,2.158-.005.108-.012.235-.022.358a4.962,4.962,0,0,1-.541-2.064c0-.962.06-1.715.12-2.445.057-.7.116-1.42.116-2.3,0-1.935-.482-2.458-.907-2.919l-.029-.033a1.369,1.369,0,0,0-.977-.6,1.021,1.021,0,0,0-.918,1.136" transform="translate(-13.23 -5.815)" fill-rule="evenodd"/><path d="M46.141,43.461c-.606,0-.565,1.5-1.453,1.5a.931.931,0,0,1-.879-.985c0-.8.883-1.711.883-2.449a.485.485,0,0,0-.511-.479c-.6,0-1.2,1.285-1.86,1.285-.309,0-.45-.4-.45-.627,0-.716.56-1.884.56-2.525,0-.514-.235-.774-.55-.774-.585,0-.78.549-1.33.549a.381.381,0,0,1-.336-.377c0-1.437.073-2.317-.6-2.317-.876,0-1.291,1.323-1.291,2.64,0,1.337.108,2.371.108,3.575,0,1.865-.451,3.429-.844,3.766,0,0-.1,1.086.332,1.086.868,0,2.278-2.427,4.027-2.427.789,0,.844.484.844.681,0,.635-.9.958-.9,1.361,0,.206.313.224.7.224a3.4,3.4,0,0,0,1.991-.707,3,3,0,0,1-2.116.976c-.566,0-1-.178-1-.511,0-.528,1.068-.949,1.068-1.477,0-.161-.178-.384-.582-.384-1.426,0-2.933,2.695-4.107,2.695-.242,0-.578-.161-.578-.773,0-.523-.041-2.684-.7-2.684-.787,0-.409,3.769-1.859,3.769-1.531,0-.617-4.071-1.873-4.071-.762,0-.642,1.1-.762,2.095-.1.812-.334,1.551-.833,1.551a3.1,3.1,0,0,1-1.687-.65c-.357-.221-.737-.438-1.052-.674-.511-.382-.793-.765-1.3-.765-.268,0-.565.148-.565.422,0,.538.565.746.565,1.209,0,.262-.383.47-.821.47a2.11,2.11,0,0,1-2.132-1.222,2.7,2.7,0,0,0,2.192.94c.33,0,.451-.073.451-.235,0-.3-.457-.571-.457-1.155a.673.673,0,0,1,.706-.671c.532,0,.891.388,1.44.785a5.394,5.394,0,0,0,2.6,1.222c.3,0,.5-.134.5-.448a6.149,6.149,0,0,1-.895-2.79c0-1.912.235-2.981.235-4.743,0-1.837-.441-2.269-.84-2.7-.3-.327-.464-.484-.706-.484-.418,0-.558.457-.558.77,0,.192.046.2.046.566,0,.652-.154,1.195-.585,1.195-.5,0-.242-.511-1-.511a.492.492,0,0,0-.508.557,18.567,18.567,0,0,0,.548,2.736c0,.286-.165.674-.459.674-.761,0-.626-.671-1.5-.671-.372,0-.485.215-.485.538,0,.624.5,1.1.5,2,0,.4-.135.7-.466.7-1.134,0-.994-1.481-1.745-1.481-.384,0-.551.5-.551,1.516,0,2.713,2.655,3.6,4.255,3.6.68,0,.753-.117,1.544-.117,3.715,0,3.415,2.271,3.415,2.271a2.065,2.065,0,0,0-1.942-1.069c-1.43,0-1.275.528-1.964.726,1.429.32,1.555,2.166,2.708,2.166a.955.955,0,0,0,.77-.394,6.263,6.263,0,0,0-.323,2.08,1.648,1.648,0,0,0,.483,1.309,4.2,4.2,0,0,1,1.179,2.378c.165,0,.289-.759.381-.759.06,0,.111.117.111.285a11.23,11.23,0,0,0-.423,2.307,1.143,1.143,0,0,0,.81,1.135,6.133,6.133,0,0,0,.569-1.016,2.677,2.677,0,0,0-.2,1.289c0,.21.205.253.467.34a1.094,1.094,0,0,0,.485.123.707.707,0,0,0,.715-.753c0-.215-.22-.618-.22-.86,0,0-.008-.147.027-.147a4.256,4.256,0,0,1,.4.844,1.016,1.016,0,0,0,.766-1c0-.8-.486-1.889-.486-2.379,0-.113.04-.189.081-.189.094,0,.253.444.253.444.21-1.226,1.5-1.342,1.5-3.616a5.134,5.134,0,0,0-.22-1.9,1.437,1.437,0,0,0,.788.323c1.39,0,1.061-1.383,2.152-1.844,0-.138-.587-.632-1.609-.632a1.92,1.92,0,0,0-1.709.7c0-2.023,1.42-2.144,2.852-2.144.767,0,1.1.108,1.741.108,2.35,0,2.927-.7,3.6-1.512a3.252,3.252,0,0,0,.9-2.25c0-.486-.119-1.125-.429-1.125M30.973,51.2c0,.094.3.166.475.166,0,.108-.211.264-.407.264-.758,0-.391-1.173-1.906-1.468a.759.759,0,0,1,.277-.036c1.2,0,1.543.926,2.194.926-.19.021-.633.035-.633.147m2.577,4.838v-.582c0-.162-.073-.231-.216-.231l.378-.86v-.086c-.668,0-1.248-.134-1.248-.609h-.189a.14.14,0,0,1-.126-.126c0-.059.224-.313.753-.313a1.2,1.2,0,0,1,.646.169.94.94,0,0,0-.844-.538,1.211,1.211,0,0,0-.457.049.754.754,0,0,1,.515-.282c.928,0,1.17.582,1.17,1.607a4.08,4.08,0,0,1-.383,1.8m6.057-5.7a.855.855,0,0,1,.235.027c-.9.165-.895,1.256-1.618,1.256a.5.5,0,0,1-.262-.071c.1-.2.441-.246.441-.513a2.9,2.9,0,0,0-.636.066,2.363,2.363,0,0,1,1.841-.766m-2.074,2.7-.062.1a2.507,2.507,0,0,0-.664-.112.877.877,0,0,0-.785.394,1.175,1.175,0,0,1,.56-.112c.493,0,.852.264.852.362s-.152.156-.274.156c0,.237-.323.564-1.3.564,0,.479.3.8.3.937-.248,0-.283.237-.283.658a12.229,12.229,0,0,1-.341-1.889c0-.8.323-1.406,1.009-1.406a2.063,2.063,0,0,1,.987.347" transform="translate(-15.314 -24.386)" fill="#ed2127" fill-rule="evenodd"/><path d="M63.344,90.3l-.053.116a.639.639,0,0,0,.353.081c.485,0,.7-.392.65-.439s-.256.3-.632.3a.641.641,0,0,1-.318-.059" transform="translate(-42.673 -60.731)" fill="#ed2127" fill-rule="evenodd"/><path d="M57.145,89.969a.1.1,0,0,1-.108.081c-.059,0-.108-.036-.108-.081a.112.112,0,0,1,.215,0m-3.707-.194c.05.038.151.292.416.292a.366.366,0,0,0,.28-.105.062.062,0,0,1,.085.085c-.037.056-.11.127-.356.127a.617.617,0,0,1-.528-.323c-.044-.109,0-.147.1-.076" transform="translate(-35.948 -60.517)" fill="#ed2127" fill-rule="evenodd"/></g></g></svg>