<svg xmlns="http://www.w3.org/2000/svg" width="64" height="64" viewBox="0 0 64 64"><g transform="translate(-286 -1260)"><circle cx="32" cy="32" r="32" transform="translate(286 1260)" fill="#fdb913"/><g transform="translate(291.51 1269.049)"><path d="M13.245,80.1,0,57.151,13.245,34.2h26.49L52.98,57.151,39.735,80.1Z" transform="translate(0 -34.2)" fill="#231f20"/><path d="M59.9,113.965,49.2,95.433,59.9,76.9H81.3L92,95.433,81.3,113.965Z" transform="translate(-44.109 -72.482)" fill="#fdb913"/><path d="M56.272,110.176H77.226L87.7,92.026,77.216,73.876H56.272L45.79,92.026Zm21.389.776H55.827L44.9,92.026l.114-.2L55.827,73.1H77.671l.114.2L88.6,92.026Z" transform="translate(-40.254 -69.075)" fill="#fff"/><path d="M121.5,101.306h6.126l3.27-8.206,8.847,17.984-9.572,5.66-3.073,10.068h-5.05l-3.063-10.089-9.582-5.639L118.237,93.1Z" transform="translate(-98.08 -87.005)" fill="#231f20"/><path d="M199.412,237.443,194.9,232.6v4.843Zm8.133-4.843v4.843h-4.522Z" transform="translate(-174.732 -212.07)" fill="#fff"/></g></g></svg>
