<svg xmlns="http://www.w3.org/2000/svg" xmlns:xlink="http://www.w3.org/1999/xlink" width="64" height="64" viewBox="0 0 64 64"><defs><clipPath id="a"><circle cx="32" cy="32" r="32" fill="#f5f5f5"/></clipPath><linearGradient id="b" y1="0.999" x2="1" y2="-0.001" gradientUnits="objectBoundingBox"><stop offset="0" stop-color="#0077fc"/><stop offset="1" stop-color="#095eb5"/></linearGradient></defs><g clip-path="url(#a)"><path d="M64,32a32.04,32.04,0,0,0-2.432-12.224A33.336,33.336,0,0,0,54.656,9.344,32.62,32.62,0,0,0,44.224,2.432a31.937,31.937,0,0,0-24.448,0A33.336,33.336,0,0,0,9.344,9.344,32.62,32.62,0,0,0,2.432,19.776a31.937,31.937,0,0,0,0,24.448A33.336,33.336,0,0,0,9.344,54.656a32.073,32.073,0,0,0,34.88,6.912,33.336,33.336,0,0,0,10.432-6.912A32.027,32.027,0,0,0,64,32Z" fill-rule="evenodd" fill="url(#b)"/><path d="M30.336,17.536h3.328V46.464H30.336Z" fill="#fff" fill-rule="evenodd"/><path d="M28.48,31.168V27.712A7.99,7.99,0,0,1,32,12.544c4.992,0,8.576,3.584,8.576,8A9.169,9.169,0,0,1,39.808,24L38.4,19.392l-2.816.9,2.5,9.536,9.728-3.584-1.216-2.816L42.944,24.64a8.948,8.948,0,0,0,.768-4.16c0-6.208-4.992-11.2-11.776-11.2a11.171,11.171,0,0,0-11.2,11.2A11.349,11.349,0,0,0,28.48,31.168Z" fill="#fff" fill-rule="evenodd"/><path d="M35.52,32.832v3.456A7.99,7.99,0,0,1,32,51.456c-4.992,0-8.576-3.584-8.576-8A9.169,9.169,0,0,1,24.192,40L25.6,44.608l2.816-.9-2.5-9.536L16.192,37.76l1.216,2.816,3.648-1.216a8.948,8.948,0,0,0-.768,4.16c0,6.208,4.992,11.2,11.776,11.2a11.171,11.171,0,0,0,11.2-11.2A11.349,11.349,0,0,0,35.52,32.832Z" fill="#fff" fill-rule="evenodd"/></g></svg>