<svg xmlns="http://www.w3.org/2000/svg" xmlns:xlink="http://www.w3.org/1999/xlink" width="1086" height="1009" viewBox="0 0 1086 1009"><defs><clipPath id="a"><rect width="1086" height="1009" transform="translate(-0.142 0)" fill="#fff"/></clipPath></defs><g transform="translate(0.142 0)" clip-path="url(#a)"><g transform="translate(-214.611 -24.476)"><path d="M-14986.405-2345.276a612.554,612.554,0,0,1-61.643-3.113,604.668,604.668,0,0,1-59.865-9.136,599.87,599.87,0,0,1-113.172-35.132,602.939,602.939,0,0,1-102.414-55.589,607.2,607.2,0,0,1-89.227-73.622,607,607,0,0,1-73.621-89.23,603.017,603.017,0,0,1-55.59-102.414,600.114,600.114,0,0,1-35.131-113.174,605.177,605.177,0,0,1-9.137-59.864,613.614,613.614,0,0,1-3.111-61.644,613.583,613.583,0,0,1,3.111-61.644,605.177,605.177,0,0,1,9.137-59.864,600.066,600.066,0,0,1,35.131-113.172,602.934,602.934,0,0,1,55.59-102.413,607.023,607.023,0,0,1,73.621-89.229,607.221,607.221,0,0,1,89.227-73.621,603,603,0,0,1,102.414-55.588,599.917,599.917,0,0,1,113.172-35.13,604.238,604.238,0,0,1,59.865-9.136,612.641,612.641,0,0,1,61.643-3.113,612.68,612.68,0,0,1,61.645,3.113,604.287,604.287,0,0,1,59.863,9.136,599.827,599.827,0,0,1,113.172,35.13,602.989,602.989,0,0,1,102.416,55.588,607.178,607.178,0,0,1,89.23,73.621,606.9,606.9,0,0,1,73.621,89.229,602.832,602.832,0,0,1,55.592,102.413,599.907,599.907,0,0,1,35.129,113.172,604.7,604.7,0,0,1,9.139,59.864,613.583,613.583,0,0,1,3.111,61.644,613.614,613.614,0,0,1-3.111,61.644,604.7,604.7,0,0,1-9.139,59.864,599.965,599.965,0,0,1-35.129,113.174,602.866,602.866,0,0,1-55.592,102.414,607,607,0,0,1-73.621,89.23,607.043,607.043,0,0,1-89.23,73.622,602.894,602.894,0,0,1-102.416,55.589,599.86,599.86,0,0,1-113.172,35.132,604.718,604.718,0,0,1-59.863,9.136A612.622,612.622,0,0,1-14986.405-2345.276Zm-94.531-313.369h76.91v27.021h86.014v-27.308c25.715-1.095,49.9-5.649,71.9-13.539,22.219-7.97,41.723-19.177,57.965-33.309a149.492,149.492,0,0,0,38.7-51.962c9.346-20.871,14.082-44.255,14.082-69.5a190.316,190.316,0,0,0-2.037-28.327,150.9,150.9,0,0,0-5.885-24.856,129.621,129.621,0,0,0-9.385-21.605,123.234,123.234,0,0,0-12.535-18.578,137.227,137.227,0,0,0-33.148-28.954,197.419,197.419,0,0,0-41.605-19.5,116.5,116.5,0,0,0,20.65-17.149,125.057,125.057,0,0,0,18.178-24.31,131.632,131.632,0,0,0,12.939-31.548,150.915,150.915,0,0,0,4.926-38.863c0-20.366-3.043-39.356-9.049-56.445a134.565,134.565,0,0,0-26.312-45,144.891,144.891,0,0,0-42.314-32.4c-16.709-8.613-35.908-14.89-57.062-18.659v-31.321h-86.025v27.042h-76.92v-27.042h-85.99v27.042h-70.5l105.914,142.535h-64.51v293.993h64.518l-105.922,142.542h70.506v27.021h86v-27.02Zm135.6-109.5h-129.348v-137.886h126.154c14.074,0,26.816,1.521,37.879,4.518,11.016,2.986,20.465,7.464,28.08,13.308a57.442,57.442,0,0,1,17.453,21.723c3.98,8.662,6,18.677,6,29.768,0,11.023-2.039,21-6.061,29.651a57.484,57.484,0,0,1-17.291,21.462,78.468,78.468,0,0,1-27.17,13.044,134.532,134.532,0,0,1-35.7,4.4l.008.012Zm-36.73-233.2h-92.617V-3128.2h89.426a122.46,122.46,0,0,1,33.7,4.308,72.217,72.217,0,0,1,25.088,12.432,53.644,53.644,0,0,1,15.652,19.818,63.1,63.1,0,0,1,5.4,26.468,62.656,62.656,0,0,1-5.461,26.258,56.828,56.828,0,0,1-15.49,20.127,71.081,71.081,0,0,1-24.178,12.891A104.314,104.314,0,0,1-14982.071-3001.353Z" transform="translate(15640.957 3575.58)" fill="rgba(255,255,255,0.05)"/></g></g></svg>