<svg xmlns="http://www.w3.org/2000/svg" xmlns:xlink="http://www.w3.org/1999/xlink" width="557.866" height="705.606" viewBox="0 0 557.866 705.606"><defs><linearGradient id="a" y1="1" x2="1" gradientUnits="objectBoundingBox"><stop offset="0" stop-color="#ea5615"/><stop offset="1" stop-color="#ff8900"/></linearGradient></defs><path d="M531.924,557.425a144.78,144.78,0,0,0,62.953-124.632c0-91.777-54.792-152.952-149.667-169.885V228H349.7v30.111H264.253V228h-95.51v30.111H90.449L208.078,417.044H136.445V744.562h71.661L90.478,903.5h78.294v30.111h95.51V903.5H349.7v30.111h95.539V903.178c114.168-4.884,202.873-71.809,202.873-187.512A154.82,154.82,0,0,0,531.953,557.686M271.232,380.374h99.317c55.858,0,88.676,26.325,88.676,70.22,0,43-33.682,71.086-85.129,71.086H271.2ZM414.9,781.493H271.2V627.645H411.325c62.952,0,99.317,27.221,99.317,77.242s-37.229,76.346-95.741,76.346Z" transform="translate(-90.449 -228)" fill="url(#a)"/></svg>