<svg id="_1" data-name="1" xmlns="http://www.w3.org/2000/svg" xmlns:xlink="http://www.w3.org/1999/xlink" width="340.691" height="283.478" viewBox="0 0 340.691 283.478">
  <defs>
    <clipPath id="clip-path">
      <rect id="Rectangle_2339" data-name="Rectangle 2339" width="313.262" height="271.048" fill="#f3f9f6"/>
    </clipPath>
    <filter id="Path_3969" x="93.751" y="63.569" width="179.519" height="219.909" filterUnits="userSpaceOnUse">
      <feOffset dy="3" input="SourceAlpha"/>
      <feGaussianBlur stdDeviation="1" result="blur"/>
      <feFlood flood-opacity="0.161"/>
      <feComposite operator="in" in2="blur"/>
      <feComposite in="SourceGraphic"/>
    </filter>
    <filter id="Path_3969-2" x="93.751" y="63.569" width="179.519" height="219.909" filterUnits="userSpaceOnUse">
      <feOffset dy="-3" input="SourceAlpha"/>
      <feGaussianBlur stdDeviation="1" result="blur-2"/>
      <feFlood flood-opacity="0.161" result="color"/>
      <feComposite operator="out" in="SourceGraphic" in2="blur-2"/>
      <feComposite operator="in" in="color"/>
      <feComposite operator="in" in2="SourceGraphic"/>
    </filter>
    <clipPath id="clip-path-2">
      <rect id="Rectangle_2341" data-name="Rectangle 2341" width="44.522" height="51.481" fill="none"/>
    </clipPath>
    <clipPath id="clip-path-3">
      <rect id="Rectangle_2362" data-name="Rectangle 2362" width="85.442" height="85.442" fill="none"/>
    </clipPath>
    <clipPath id="clip-path-4">
      <rect id="Rectangle_2362-2" data-name="Rectangle 2362" width="35.27" height="35.27" fill="none"/>
    </clipPath>
    <clipPath id="clip-path-5">
      <rect id="Rectangle_2369" data-name="Rectangle 2369" width="22.178" height="79.74" fill="#ffb593"/>
    </clipPath>
  </defs>
  <g id="Group_5546" data-name="Group 5546" transform="translate(-36.249 -466)">
    <g id="Group_5531" data-name="Group 5531" transform="translate(58.369 466)">
      <g id="Group_5473" data-name="Group 5473" clip-path="url(#clip-path)">
        <path id="Path_3947" data-name="Path 3947" d="M310.318,133.768C303.739,105,287.428,79.291,268.673,55.6,248.1,29.617,221.066,3.989,182.678.421c-30.6-2.844-61.37,9.018-88.362,26.074a275.344,275.344,0,0,0-29.854,21.96C34.188,73.9,7.272,104.83,1.239,138.86c-7.5,42.305,19.861,81.877,59.877,103.633,61.091,33.213,182.073,49.772,232.456-20.632,19.357-27.048,23.325-59.328,16.746-88.092" transform="translate(0 0)" fill="#f3f9f6"/>
      </g>
    </g>
    <g id="Group_5532" data-name="Group 5532" transform="translate(0 388.668)">
      <path id="Path_3968" data-name="Path 3968" d="M5930.795,9276.687v46.981h49.156s23.231.185,24.958-20.6-16.687-24.458-21.03-24.865S5930.795,9276.687,5930.795,9276.687Z" transform="translate(-5741 -9015)" fill="#f3f9f6"/>
      <g data-type="innerShadowGroup">
        <g transform="matrix(1, 0, 0, 1, 36.25, 77.33)" filter="url(#Path_3969)">
          <path id="Path_3969-3" data-name="Path 3969" d="M137.284,100.187c9.6-6.074,19.447-18.519,19.366-37.653-.118-27.786-17.208-46.381-46.63-51.632L109.975.339,80.35.216l.039,9.12L53.9,9.227,53.857.106,24.236-.017l.039,9.12-.59,0L-.006,9,36.68,57.231l-22.22-.092.422,99.163,22.22.092L.824,204.324l14.261.059,9.431.039.59,0,.039,9.113,29.621.123-.039-9.113,26.491.11.039,9.113,29.625.123-.039-9.211c35.4-1.33,62.817-21.477,62.668-56.511-.114-27.107-15.575-40.992-36.228-47.984M56.207,46.172l30.8.128c17.325.072,27.532,8.084,27.588,21.371.055,13.021-10.354,21.483-26.308,21.417l-31.9-.132ZM101.275,167.8l-44.551-.185-.2-46.5,43.452.18c19.521.081,30.831,8.368,30.9,23.51S119.424,167.874,101.275,167.8Z" transform="translate(96.76 63.59)" fill="#ea5607"/>
        </g>
        <g transform="matrix(1, 0, 0, 1, 36.25, 77.33)" filter="url(#Path_3969-2)">
          <path id="Path_3969-4" data-name="Path 3969" d="M137.284,100.187c9.6-6.074,19.447-18.519,19.366-37.653-.118-27.786-17.208-46.381-46.63-51.632L109.975.339,80.35.216l.039,9.12L53.9,9.227,53.857.106,24.236-.017l.039,9.12-.59,0L-.006,9,36.68,57.231l-22.22-.092.422,99.163,22.22.092L.824,204.324l14.261.059,9.431.039.59,0,.039,9.113,29.621.123-.039-9.113,26.491.11.039,9.113,29.625.123-.039-9.211c35.4-1.33,62.817-21.477,62.668-56.511-.114-27.107-15.575-40.992-36.228-47.984M56.207,46.172l30.8.128c17.325.072,27.532,8.084,27.588,21.371.055,13.021-10.354,21.483-26.308,21.417l-31.9-.132ZM101.275,167.8l-44.551-.185-.2-46.5,43.452.18c19.521.081,30.831,8.368,30.9,23.51S119.424,167.874,101.275,167.8Z" transform="translate(96.76 63.59)" fill="#fff"/>
        </g>
      </g>
    </g>
    <g id="Group_5533" data-name="Group 5533" transform="translate(266.623 522.531)">
      <g id="Group_5475" data-name="Group 5475" transform="translate(0 0)" clip-path="url(#clip-path-2)">
        <path id="Path_3948" data-name="Path 3948" d="M9.09,19.926l2.418-2.432L7.15,13.112a1.7,1.7,0,0,0-2.417,0,1.726,1.726,0,0,0,0,2.432Z" transform="translate(-0.876 -2.609)" fill="#fbaa3a"/>
        <rect id="Rectangle_2340" data-name="Rectangle 2340" width="7.505" height="4.888" transform="translate(18.507 2.853)" fill="#fbaa3a"/>
        <path id="Path_3949" data-name="Path 3949" d="M44.522,30.84a22.393,22.393,0,0,1-.656,5.4,21.871,21.871,0,0,1-1.24,3.65,22.263,22.263,0,0,1-20.369,13.34c-.773,0-1.539-.04-2.289-.114a22.034,22.034,0,0,1-9.753-3.45c-.145-.094-.291-.192-.437-.289A22.339,22.339,0,1,1,43.934,25.74c.126.533.232,1.075.316,1.621a22.362,22.362,0,0,1,.271,3.478" transform="translate(0 -1.75)" fill="#f1c444"/>
        <path id="Path_3950" data-name="Path 3950" d="M35.626,44.287a16.878,16.878,0,0,1-23.964,0,17.108,17.108,0,0,1,0-24.1,16.877,16.877,0,0,1,23.964,0,17.11,17.11,0,0,1,0,24.1" transform="translate(-1.386 -3.145)" fill="#fff"/>
        <path id="Path_3951" data-name="Path 3951" d="M35.626,44.287a16.878,16.878,0,0,1-23.964,0,17.108,17.108,0,0,1,0-24.1,16.877,16.877,0,0,1,23.964,0,17.11,17.11,0,0,1,0,24.1" transform="translate(-1.386 -3.145)" fill="#fbaa3a"/>
        <path id="Path_3952" data-name="Path 3952" d="M34.942,43.6a15.349,15.349,0,0,1-21.794,0,15.561,15.561,0,0,1,0-21.917,15.349,15.349,0,0,1,21.794,0,15.559,15.559,0,0,1,0,21.917" transform="translate(-1.787 -3.547)" fill="#fff"/>
        <path id="Path_3953" data-name="Path 3953" d="M31.408,4.884H21.057a.9.9,0,0,1-.9-.9V.9a.9.9,0,0,1,.9-.895h10.35A.9.9,0,0,1,32.3.9V3.988a.9.9,0,0,1-.9.9" transform="translate(-4.172 -0.001)" fill="#f1c444"/>
        <path id="Path_3954" data-name="Path 3954" d="M29.438,36.2a1.857,1.857,0,1,1-1.857-1.868A1.862,1.862,0,0,1,29.438,36.2" transform="translate(-5.323 -7.104)" fill="#fbaa3a"/>
        <path id="Path_3955" data-name="Path 3955" d="M26.325,36.02h0A1.463,1.463,0,0,1,27,34.069l7.146-3.491A1.458,1.458,0,0,1,35.41,33.2L28.265,36.7a1.448,1.448,0,0,1-1.94-.676" transform="translate(-5.417 -6.297)" fill="#fbaa3a"/>
        <path id="Path_3956" data-name="Path 3956" d="M27.824,34.24h0a.937.937,0,0,1-.937-.937V21.381a.937.937,0,0,1,.937-.937h0a.938.938,0,0,1,.937.937V33.3a.937.937,0,0,1-.937.937" transform="translate(-5.563 -4.231)" fill="#fbaa3a"/>
      </g>
    </g>
    <g id="Group_5500" data-name="Group 5500" transform="translate(41.76 641.607)">
      <g id="Group_5499" data-name="Group 5499" clip-path="url(#clip-path-3)">
        <path id="Path_3963" data-name="Path 3963" d="M85.441,46.767V38.675a4.679,4.679,0,0,0-3.354-4.488L76.722,32.6a4.667,4.667,0,0,1-2.992-2.7l-.019-.044a4.67,4.67,0,0,1,.207-4.021l2.673-4.914a4.68,4.68,0,0,0-.8-5.546L70.068,9.652a4.679,4.679,0,0,0-5.545-.8l-4.915,2.673a4.667,4.667,0,0,1-4.02.207l-.045-.018a4.67,4.67,0,0,1-2.7-2.992L51.255,3.354A4.68,4.68,0,0,0,46.767,0H38.675a4.679,4.679,0,0,0-4.488,3.354L32.6,8.719a4.672,4.672,0,0,1-2.7,2.992l-.045.018a4.668,4.668,0,0,1-4.021-.207L20.919,8.851a4.68,4.68,0,0,0-5.546.8L9.651,15.374a4.681,4.681,0,0,0-.8,5.546l2.672,4.914a4.668,4.668,0,0,1,.207,4.021c-.007.014-.013.03-.018.044A4.67,4.67,0,0,1,8.72,32.6L3.354,34.187A4.679,4.679,0,0,0,0,38.675v8.092a4.68,4.68,0,0,0,3.354,4.488L8.719,52.84a4.672,4.672,0,0,1,2.992,2.7l.018.045a4.667,4.667,0,0,1-.207,4.02L8.851,64.523a4.679,4.679,0,0,0,.8,5.545l5.722,5.722a4.68,4.68,0,0,0,5.546.8l4.914-2.673a4.67,4.67,0,0,1,4.021-.207l.045.018a4.673,4.673,0,0,1,2.7,2.992l1.585,5.366a4.679,4.679,0,0,0,4.488,3.354h8.092a4.679,4.679,0,0,0,4.488-3.354l1.585-5.366a4.672,4.672,0,0,1,2.7-2.992l.045-.018a4.669,4.669,0,0,1,4.02.207l4.915,2.673a4.68,4.68,0,0,0,5.546-.8l5.721-5.722a4.679,4.679,0,0,0,.8-5.545l-2.673-4.915a4.669,4.669,0,0,1-.207-4.02l.019-.045a4.669,4.669,0,0,1,2.992-2.7l5.366-1.585a4.68,4.68,0,0,0,3.354-4.488M55.356,56.275C36.432,70.007,15.435,49.009,29.167,30.086a4.173,4.173,0,0,1,.918-.918c18.923-13.733,39.922,7.266,26.189,26.189a4.16,4.16,0,0,1-.918.918" fill="#f1c444"/>
        <path id="Path_3964" data-name="Path 3964" d="M53.37,28.787A24.583,24.583,0,1,0,77.954,53.37,24.583,24.583,0,0,0,53.37,28.787m0,42.551A17.968,17.968,0,1,1,71.338,53.37,17.968,17.968,0,0,1,53.37,71.338" transform="translate(-10.649 -10.649)" fill="#fbaa3a"/>
      </g>
    </g>
    <g id="Group_5534" data-name="Group 5534" transform="translate(36.249 601.255)">
      <g id="Group_5499-2" data-name="Group 5499" clip-path="url(#clip-path-4)">
        <path id="Path_3963-2" data-name="Path 3963" d="M35.27,19.305v-3.34a1.931,1.931,0,0,0-1.384-1.853l-2.215-.654a1.927,1.927,0,0,1-1.235-1.116l-.008-.018a1.928,1.928,0,0,1,.085-1.66l1.1-2.028a1.932,1.932,0,0,0-.331-2.289L28.924,3.984a1.931,1.931,0,0,0-2.289-.331l-2.029,1.1a1.926,1.926,0,0,1-1.66.085l-.018-.008A1.928,1.928,0,0,1,21.812,3.6l-.654-2.215A1.932,1.932,0,0,0,19.305,0h-3.34a1.932,1.932,0,0,0-1.853,1.385L13.458,3.6a1.928,1.928,0,0,1-1.116,1.235l-.018.008a1.927,1.927,0,0,1-1.66-.085l-2.028-1.1a1.932,1.932,0,0,0-2.289.331L3.984,6.346a1.932,1.932,0,0,0-.331,2.289l1.1,2.028a1.927,1.927,0,0,1,.086,1.66l-.008.018A1.928,1.928,0,0,1,3.6,13.458l-2.215.654A1.931,1.931,0,0,0,0,15.965v3.34a1.932,1.932,0,0,0,1.385,1.853l2.215.654a1.928,1.928,0,0,1,1.235,1.116l.008.018a1.927,1.927,0,0,1-.086,1.66l-1.1,2.029a1.931,1.931,0,0,0,.331,2.289l2.362,2.362a1.932,1.932,0,0,0,2.289.331l2.028-1.1a1.928,1.928,0,0,1,1.66-.085l.018.008a1.929,1.929,0,0,1,1.116,1.235l.654,2.215a1.931,1.931,0,0,0,1.853,1.384h3.34a1.932,1.932,0,0,0,1.853-1.384l.654-2.215a1.928,1.928,0,0,1,1.116-1.235l.018-.008a1.927,1.927,0,0,1,1.66.085l2.029,1.1a1.932,1.932,0,0,0,2.289-.331l2.362-2.362a1.932,1.932,0,0,0,.331-2.289l-1.1-2.029a1.927,1.927,0,0,1-.085-1.66l.008-.018a1.927,1.927,0,0,1,1.235-1.116l2.215-.654a1.932,1.932,0,0,0,1.384-1.853M22.851,23.23c-7.811,5.669-16.479-3-10.811-10.811a1.723,1.723,0,0,1,.379-.379c7.811-5.669,16.48,3,10.811,10.811a1.717,1.717,0,0,1-.379.379" fill="#f1c444"/>
        <path id="Path_3964-2" data-name="Path 3964" d="M38.935,28.787A10.148,10.148,0,1,0,49.083,38.935,10.148,10.148,0,0,0,38.935,28.787m0,17.565a7.417,7.417,0,1,1,7.417-7.417,7.417,7.417,0,0,1-7.417,7.417" transform="translate(-21.3 -21.3)" fill="#fbaa3a"/>
      </g>
    </g>
  </g>
  <g id="Group_5549" data-name="Group 5549" transform="matrix(0.469, 0.883, -0.883, 0.469, 387.154, 131.626)">
    <g id="Group_5548" data-name="Group 5548" transform="matrix(0.914, -0.407, 0.407, 0.914, -56.665, 59.532)" clip-path="url(#clip-path-5)">
      <path id="Path_3983" data-name="Path 3983" d="M17.452,61.454l-.868-42.018a1.953,1.953,0,0,1,.044-.486,2.392,2.392,0,0,1,.458-1.08L21.728,11.8a2.166,2.166,0,0,0,.441-1.544s-.214-1.846-.415-3.411a5.44,5.44,0,0,0-1.891-3.464L16.15.171a.688.688,0,0,0-1.123.666l1.346,6.237a3.063,3.063,0,0,1-.977,2.951l-2.421,2.119a3.064,3.064,0,0,1-3.056.577L7.375,11.8A3.063,3.063,0,0,1,5.413,9.541L4.167,3.5a.873.873,0,0,0-1.646-.194L.645,7.316a5.45,5.45,0,0,0-.617,3.117l.407,4.051a2.185,2.185,0,0,0,.971,1.429l4.97,2.534a2.491,2.491,0,0,1,1.346,2.3L6.963,61.483a9.894,9.894,0,1,0,10.489-.029m.1,10.6-3.118,3.118h-4.41L6.909,72.051v-4.41l3.118-3.118h4.41l3.118,3.118Z" transform="translate(0 0)" fill="#ffb593"/>
      <path id="Path_3984" data-name="Path 3984" d="M2.363,39.6l-.837-.012A1.547,1.547,0,0,1,0,38.036l.24-36.5a1.547,1.547,0,0,1,3.095-.015l.6,36.51A1.547,1.547,0,0,1,2.363,39.6" transform="translate(10.186 19.471)" fill="#ffb593"/>
      <path id="Path_3985" data-name="Path 3985" d="M6.89,0a6.89,6.89,0,1,0,6.89,6.89A6.89,6.89,0,0,0,6.89,0m5.323,9.095L9.095,12.213H4.685L1.568,9.095V4.685L4.685,1.568h4.41l3.118,3.118Z" transform="translate(5.341 62.956)" fill="#ffb593"/>
    </g>
  </g>
</svg>
